<!-- Generator: Adobe Illustrator 22.1.0, SVG Export Plug-In  -->
<svg version="1.1"
	 xmlns="http://www.w3.org/2000/svg" xmlns:xlink="http://www.w3.org/1999/xlink" xmlns:a="http://ns.adobe.com/AdobeSVGViewerExtensions/3.0/"
	 x="0px" y="0px" width="874.4px" height="87.9px" viewBox="0 0 874.4 87.9" style="enable-background:new 0 0 874.4 87.9;"
	 xml:space="preserve">
<style type="text/css">
	.st0{fill:#266093;}
	.st1{fill:url(#XMLID_167_);}
	.st2{fill:none;stroke:#266093;stroke-width:0.9372;stroke-miterlimit:10;}
	.st3{fill:#FFFFFF;}
	.st4{fill:url(#XMLID_168_);}
</style>
<defs>
</defs>
<g id="XMLID_53_">
	<path id="XMLID_164_" class="st0" d="M221.7,38.9c0,1.1-0.2,2-0.5,2.9c-0.4,0.8-0.9,1.5-1.5,2.1c-0.6,0.6-1.4,1-2.3,1.3
		c-0.9,0.3-1.9,0.4-3,0.4h-5.3v8.5h-2.4V32.4h8.1c1,0,1.9,0.1,2.7,0.4c0.8,0.3,1.6,0.7,2.2,1.2c0.6,0.5,1.1,1.2,1.5,2
		C221.5,36.9,221.7,37.8,221.7,38.9z M219.2,39c0-1.4-0.4-2.5-1.2-3.2s-1.9-1.1-3.4-1.1h-5.6v8.8h5.3
		C217.6,43.4,219.2,41.9,219.2,39z"/>
	<path id="XMLID_162_" class="st0" d="M233.3,40.3c-0.3-0.2-0.7-0.3-1.1-0.4c-0.4-0.1-0.8-0.2-1.4-0.2c-1.1,0-2,0.4-2.6,1.3
		s-0.9,2.1-0.9,3.6v9.5H225V37.9h2.4v2c0.4-0.7,0.9-1.2,1.6-1.7c0.7-0.5,1.5-0.7,2.4-0.7c0.6,0,1.1,0,1.5,0.1s0.7,0.2,1,0.3
		L233.3,40.3z"/>
	<path id="XMLID_159_" class="st0" d="M250.3,45.9c0,1.4-0.2,2.6-0.6,3.7c-0.4,1.1-0.9,2-1.5,2.7c-0.6,0.7-1.4,1.3-2.3,1.7
		c-0.9,0.4-1.8,0.6-2.8,0.6c-1,0-1.9-0.2-2.8-0.5c-0.9-0.4-1.6-0.9-2.2-1.6c-0.6-0.7-1.1-1.6-1.5-2.6c-0.4-1.1-0.5-2.3-0.5-3.7
		c0-1.4,0.2-2.6,0.6-3.7c0.4-1.1,0.9-1.9,1.5-2.6s1.4-1.3,2.3-1.6c0.9-0.4,1.8-0.6,2.8-0.6c1,0,1.9,0.2,2.8,0.5
		c0.9,0.4,1.6,0.9,2.2,1.6c0.6,0.7,1.1,1.6,1.5,2.6C250.1,43.3,250.3,44.5,250.3,45.9z M248,45.9c0-2.2-0.4-3.8-1.3-4.8
		c-0.9-1.1-2-1.6-3.4-1.6s-2.6,0.5-3.4,1.6s-1.3,2.7-1.3,4.8c0,2.2,0.4,3.8,1.3,4.9s2,1.6,3.4,1.6s2.6-0.5,3.4-1.6
		C247.5,49.7,248,48.1,248,45.9z"/>
	<path id="XMLID_157_" class="st0" d="M260.6,54.1h-2l-5.8-16.2h2.5l4.1,12.8l0.2,0.8l0.2-0.8l4.1-12.8h2.4L260.6,54.1z"/>
	<path id="XMLID_154_" class="st0" d="M272.6,33.3c0,0.5-0.2,0.8-0.5,1.2c-0.3,0.3-0.7,0.5-1.1,0.5c-0.5,0-0.9-0.2-1.2-0.5
		c-0.3-0.3-0.5-0.7-0.5-1.2c0-0.5,0.2-0.9,0.5-1.2s0.7-0.5,1.2-0.5c0.4,0,0.8,0.2,1.1,0.5C272.5,32.4,272.6,32.8,272.6,33.3z
		 M269.8,54.1V37.9h2.4v16.2H269.8z"/>
	<path id="XMLID_151_" class="st0" d="M286.7,54.1v-2c-0.6,0.6-1.3,1.2-2,1.6s-1.7,0.7-2.8,0.7c-0.8,0-1.6-0.2-2.3-0.5
		c-0.7-0.3-1.3-0.8-1.9-1.5c-0.5-0.7-0.9-1.5-1.2-2.6c-0.3-1-0.4-2.3-0.4-3.7c0-1.4,0.2-2.7,0.5-3.8c0.3-1.1,0.8-2,1.3-2.7
		c0.6-0.7,1.2-1.3,2-1.7s1.5-0.6,2.4-0.6c1,0,1.9,0.2,2.6,0.6c0.7,0.4,1.4,0.9,1.9,1.6v-6.8l2.4-1.3v22.6H286.7z M286.7,42
		c-0.5-0.7-1.1-1.3-1.8-1.7c-0.8-0.5-1.6-0.7-2.6-0.7c-1.4,0-2.4,0.6-3,1.7c-0.7,1.1-1,2.8-1,5c0,2.1,0.4,3.6,1.1,4.7
		c0.7,1,1.7,1.6,3,1.6c0.9,0,1.7-0.2,2.4-0.6s1.4-1,1.9-1.7V42z"/>
	<path id="XMLID_148_" class="st0" d="M306,45.5c0,0.3,0,0.5,0,0.7c0,0.2,0,0.4-0.1,0.6h-10.8c0.1,1.8,0.5,3.2,1.3,4.2
		c0.8,1,1.8,1.5,3.2,1.5c0.9,0,1.7-0.1,2.4-0.4c0.6-0.3,1.3-0.6,2.1-1.1l1.1,1.7c-0.5,0.3-1,0.6-1.4,0.8c-0.4,0.2-0.9,0.4-1.3,0.6
		c-0.5,0.2-0.9,0.3-1.4,0.4c-0.5,0.1-1.1,0.1-1.7,0.1c-0.7,0-1.5-0.1-2.3-0.4s-1.5-0.8-2.1-1.4c-0.6-0.7-1.2-1.6-1.6-2.6
		s-0.6-2.4-0.6-4c0-1.3,0.2-2.5,0.5-3.5c0.3-1,0.8-1.9,1.4-2.6c0.6-0.7,1.3-1.3,2.1-1.7c0.8-0.4,1.7-0.6,2.7-0.6c1,0,2,0.2,2.8,0.6
		c0.8,0.4,1.5,0.9,2.1,1.7s1,1.6,1.3,2.5C305.9,43.3,306,44.4,306,45.5z M303.9,44.9c-0.1-1.6-0.5-2.9-1.2-3.9
		c-0.7-1-1.8-1.5-3.2-1.5c-1.2,0-2.2,0.4-3,1.3c-0.8,0.9-1.2,2.2-1.4,4.1H303.9z"/>
	<path id="XMLID_146_" class="st0" d="M319.9,49.9c0,0.8-0.2,1.5-0.5,2.1c-0.3,0.6-0.7,1.1-1.3,1.4c-0.5,0.4-1.1,0.6-1.8,0.8
		c-0.7,0.2-1.4,0.3-2.1,0.3c-1.1,0-2.2-0.2-3.1-0.6c-1-0.4-1.8-0.9-2.6-1.5l1.4-1.7c0.7,0.6,1.4,1,2.1,1.3c0.7,0.3,1.5,0.5,2.3,0.5
		c1.1,0,1.9-0.2,2.5-0.7c0.5-0.4,0.8-1.1,0.8-1.8c0-0.3-0.1-0.6-0.2-0.9s-0.4-0.5-0.6-0.8c-0.3-0.3-0.7-0.5-1.2-0.8
		c-0.5-0.3-1.1-0.5-1.8-0.9c-0.8-0.4-1.5-0.7-2.1-1c-0.6-0.3-1.1-0.7-1.4-1s-0.6-0.8-0.8-1.3c-0.2-0.5-0.3-1-0.3-1.7
		c0-0.6,0.1-1.2,0.4-1.7c0.3-0.5,0.6-0.9,1.1-1.3c0.4-0.4,1-0.7,1.6-0.9c0.6-0.2,1.3-0.3,2-0.3c1.1,0,2.1,0.2,3,0.5
		c0.9,0.3,1.6,0.7,2.2,1.3l-1.3,1.7c-0.6-0.5-1.3-0.9-1.9-1.1s-1.3-0.4-2.2-0.4c-0.9,0-1.5,0.2-2,0.6c-0.5,0.4-0.7,0.9-0.7,1.5
		c0,0.4,0.1,0.6,0.2,0.9s0.3,0.5,0.6,0.7c0.3,0.2,0.7,0.5,1.1,0.7c0.5,0.2,1,0.5,1.7,0.8c0.8,0.4,1.4,0.7,2,1s1.1,0.7,1.5,1
		s0.7,0.8,1,1.3C319.8,48.5,319.9,49.2,319.9,49.9z"/>
	<path id="XMLID_144_" class="st0" d="M341.4,49.9c0,0.8-0.2,1.5-0.5,2.1c-0.3,0.6-0.7,1.1-1.3,1.4c-0.5,0.4-1.1,0.6-1.8,0.8
		c-0.7,0.2-1.4,0.3-2.1,0.3c-1.1,0-2.2-0.2-3.1-0.6c-1-0.4-1.8-0.9-2.6-1.5l1.4-1.7c0.7,0.6,1.4,1,2.1,1.3c0.7,0.3,1.5,0.5,2.3,0.5
		c1.1,0,1.9-0.2,2.5-0.7c0.5-0.4,0.8-1.1,0.8-1.8c0-0.3-0.1-0.6-0.2-0.9s-0.4-0.5-0.6-0.8c-0.3-0.3-0.7-0.5-1.2-0.8
		c-0.5-0.3-1.1-0.5-1.8-0.9c-0.8-0.4-1.5-0.7-2.1-1c-0.6-0.3-1.1-0.7-1.4-1s-0.6-0.8-0.8-1.3c-0.2-0.5-0.3-1-0.3-1.7
		c0-0.6,0.1-1.2,0.4-1.7c0.3-0.5,0.6-0.9,1.1-1.3c0.4-0.4,1-0.7,1.6-0.9c0.6-0.2,1.3-0.3,2-0.3c1.1,0,2.1,0.2,3,0.5
		c0.9,0.3,1.6,0.7,2.2,1.3l-1.3,1.7c-0.6-0.5-1.3-0.9-1.9-1.1s-1.3-0.4-2.2-0.4c-0.9,0-1.5,0.2-2,0.6c-0.5,0.4-0.7,0.9-0.7,1.5
		c0,0.4,0.1,0.6,0.2,0.9s0.3,0.5,0.6,0.7c0.3,0.2,0.7,0.5,1.1,0.7c0.5,0.2,1,0.5,1.7,0.8c0.8,0.4,1.4,0.7,2,1s1.1,0.7,1.5,1
		s0.7,0.8,1,1.3C341.3,48.5,341.4,49.2,341.4,49.9z"/>
	<path id="XMLID_141_" class="st0" d="M348.2,33.3c0,0.5-0.2,0.8-0.5,1.2c-0.3,0.3-0.7,0.5-1.1,0.5c-0.5,0-0.9-0.2-1.2-0.5
		c-0.3-0.3-0.5-0.7-0.5-1.2c0-0.5,0.2-0.9,0.5-1.2s0.7-0.5,1.2-0.5c0.4,0,0.8,0.2,1.1,0.5C348.1,32.4,348.2,32.8,348.2,33.3z
		 M345.4,54.1V37.9h2.4v16.2H345.4z"/>
	<path id="XMLID_138_" class="st0" d="M364.7,52.7c0,1.2-0.1,2.3-0.4,3.2c-0.3,0.9-0.8,1.7-1.4,2.3c-0.7,0.6-1.5,1.1-2.6,1.4
		c-1.1,0.3-2.3,0.5-3.8,0.5l-0.7-1.8c1.4,0,2.5-0.2,3.3-0.4c0.9-0.2,1.5-0.5,2-0.9c0.5-0.4,0.8-1,1-1.6c0.2-0.7,0.3-1.5,0.3-2.4
		v-0.8c-0.6,0.6-1.3,1.2-2,1.6s-1.7,0.7-2.8,0.7c-0.8,0-1.6-0.2-2.3-0.5c-0.7-0.3-1.3-0.8-1.9-1.5c-0.5-0.7-0.9-1.5-1.2-2.6
		c-0.3-1-0.4-2.3-0.4-3.7c0-1.4,0.2-2.7,0.5-3.8c0.3-1.1,0.8-2,1.3-2.7c0.6-0.7,1.2-1.3,2-1.7s1.5-0.6,2.4-0.6c1,0,1.9,0.2,2.6,0.6
		c0.7,0.4,1.4,0.9,1.9,1.6v-1.8h2.4V52.7z M362.3,42c-0.5-0.7-1.1-1.3-1.8-1.7c-0.8-0.5-1.6-0.7-2.6-0.7c-1.4,0-2.4,0.6-3,1.7
		c-0.7,1.1-1,2.8-1,5c0,2.1,0.4,3.6,1.1,4.7c0.7,1,1.7,1.6,3,1.6c0.9,0,1.7-0.2,2.4-0.6s1.4-1,1.9-1.7V42z"/>
	<path id="XMLID_136_" class="st0" d="M379.4,54.1v-9.5c0-1.8-0.3-3-0.9-3.9c-0.6-0.8-1.6-1.2-2.9-1.2c-1.1,0-2.1,0.4-2.9,1.2
		s-1.2,2.1-1.2,3.9v9.5h-2.4V37.9h2.4l0,2c0.5-0.7,1.1-1.2,1.8-1.7c0.7-0.4,1.6-0.6,2.7-0.6c0.9,0,1.7,0.1,2.4,0.4
		c0.7,0.3,1.3,0.7,1.8,1.2c0.5,0.5,0.9,1.2,1.1,2.1c0.3,0.8,0.4,1.8,0.4,3v9.9H379.4z"/>
	<path id="XMLID_133_" class="st0" d="M389.3,33.3c0,0.5-0.2,0.8-0.5,1.2c-0.3,0.3-0.7,0.5-1.1,0.5c-0.5,0-0.9-0.2-1.2-0.5
		c-0.3-0.3-0.5-0.7-0.5-1.2c0-0.5,0.2-0.9,0.5-1.2s0.7-0.5,1.2-0.5c0.4,0,0.8,0.2,1.1,0.5C389.1,32.4,389.3,32.8,389.3,33.3z
		 M386.4,54.1V37.9h2.4v16.2H386.4z"/>
	<path id="XMLID_129_" class="st0" d="M400.5,34.1c-0.5-0.2-1.2-0.4-1.9-0.4c-0.5,0-0.9,0.1-1.2,0.3s-0.5,0.7-0.5,1.4v2.4h3.2v2H397
		v14.3h-2.4V39.8h-2.2v-2h2.2v-2.2c0-1.4,0.4-2.5,1.1-3.1c0.7-0.6,1.6-0.9,2.8-0.9c0.5,0,0.9,0,1.2,0.1c0.3,0,0.6,0.1,0.9,0.2V34.1z
		 M407.2,33.3c0,0.5-0.2,0.8-0.5,1.2c-0.3,0.3-0.7,0.5-1.1,0.5c-0.5,0-0.9-0.2-1.2-0.5c-0.3-0.3-0.5-0.7-0.5-1.2
		c0-0.5,0.2-0.9,0.5-1.2s0.7-0.5,1.2-0.5c0.4,0,0.8,0.2,1.1,0.5C407,32.4,407.2,32.8,407.2,33.3z M404.4,54.1V37.9h2.4v16.2H404.4z"
		/>
	<path id="XMLID_127_" class="st0" d="M421.4,41.1c-0.6-0.5-1.2-0.9-1.8-1.2c-0.6-0.3-1.3-0.4-2.1-0.4c-0.6,0-1.2,0.1-1.8,0.4
		s-1,0.7-1.4,1.2s-0.7,1.2-0.9,2c-0.2,0.8-0.3,1.7-0.3,2.7c0,2,0.4,3.6,1.2,4.8c0.8,1.2,1.9,1.8,3.4,1.8c0.8,0,1.5-0.2,2-0.5
		c0.6-0.3,1.1-0.7,1.7-1.3l1.4,1.5c-0.7,0.7-1.4,1.2-2.3,1.6s-1.8,0.6-3,0.6c-0.9,0-1.7-0.2-2.6-0.5c-0.8-0.3-1.6-0.9-2.2-1.6
		c-0.6-0.7-1.1-1.6-1.5-2.6c-0.4-1-0.6-2.3-0.6-3.7c0-1.5,0.2-2.8,0.6-3.9c0.4-1.1,0.9-2,1.6-2.6c0.7-0.7,1.4-1.2,2.2-1.5
		c0.8-0.3,1.7-0.5,2.5-0.5c1.1,0,2.1,0.2,2.9,0.5c0.8,0.4,1.6,0.8,2.2,1.4L421.4,41.1z"/>
	<path id="XMLID_124_" class="st0" d="M435.6,54.1v-2c-0.6,0.6-1.3,1.2-2.1,1.6s-1.8,0.7-3,0.7c-0.6,0-1.3-0.1-1.9-0.3
		c-0.6-0.2-1.2-0.5-1.7-0.9s-0.9-0.9-1.2-1.6c-0.3-0.7-0.4-1.5-0.4-2.5c0-0.9,0.2-1.7,0.5-2.4c0.4-0.7,0.8-1.2,1.4-1.6
		s1.2-0.7,2-0.9c0.8-0.2,1.5-0.3,2.3-0.3c0.8,0,1.6,0.1,2.3,0.3c0.7,0.2,1.3,0.4,1.8,0.7v-1.9c0-2.4-1.2-3.6-3.5-3.6
		c-0.9,0-1.6,0.1-2.4,0.3c-0.7,0.2-1.4,0.5-2,0.9l-0.9-1.9c0.7-0.4,1.5-0.7,2.5-1s1.9-0.4,3-0.4c1.8,0,3.1,0.4,4.2,1.2
		c1,0.8,1.5,2.2,1.5,4v11.3H435.6z M435.6,46.8c-0.5-0.3-1.1-0.5-1.7-0.7c-0.6-0.2-1.4-0.2-2.4-0.2c-1.2,0-2.1,0.3-2.8,0.8
		c-0.7,0.5-1,1.3-1,2.4c0,1.2,0.3,2.1,0.9,2.6c0.6,0.5,1.4,0.8,2.4,0.8c1,0,2-0.2,2.7-0.7s1.4-1.1,1.9-1.7V46.8z"/>
	<path id="XMLID_122_" class="st0" d="M452.6,54.1v-9.5c0-1.8-0.3-3-0.9-3.9c-0.6-0.8-1.6-1.2-2.9-1.2c-1.1,0-2.1,0.4-2.9,1.2
		s-1.2,2.1-1.2,3.9v9.5h-2.4V37.9h2.4l0,2c0.5-0.7,1.1-1.2,1.8-1.7c0.7-0.4,1.6-0.6,2.7-0.6c0.9,0,1.7,0.1,2.4,0.4
		c0.7,0.3,1.3,0.7,1.8,1.2c0.5,0.5,0.9,1.2,1.1,2.1c0.3,0.8,0.4,1.8,0.4,3v9.9H452.6z"/>
	<path id="XMLID_120_" class="st0" d="M462.5,39.8v10.6c0,0.7,0.1,1.2,0.4,1.5c0.2,0.3,0.7,0.4,1.3,0.4c0.5,0,0.9,0,1.2-0.1
		c0.3-0.1,0.7-0.2,1.1-0.4l-0.2,2c-0.5,0.2-0.9,0.3-1.4,0.4c-0.5,0.1-1,0.1-1.6,0.1c-1,0-1.8-0.3-2.3-0.8s-0.8-1.5-0.8-2.9V39.8h-2
		v-2h2v-5l2.4-1.3v6.3h4v2H462.5z"/>
	<path id="XMLID_118_" class="st0" d="M486.3,40.3c-0.3-0.2-0.7-0.3-1.1-0.4c-0.4-0.1-0.8-0.2-1.4-0.2c-1.1,0-2,0.4-2.6,1.3
		s-0.9,2.1-0.9,3.6v9.5H478V37.9h2.4v2c0.4-0.7,0.9-1.2,1.6-1.7c0.7-0.5,1.5-0.7,2.4-0.7c0.6,0,1.1,0,1.5,0.1s0.7,0.2,1,0.3
		L486.3,40.3z"/>
	<path id="XMLID_115_" class="st0" d="M502.4,45.5c0,0.3,0,0.5,0,0.7c0,0.2,0,0.4-0.1,0.6h-10.8c0.1,1.8,0.5,3.2,1.3,4.2
		c0.8,1,1.8,1.5,3.2,1.5c0.9,0,1.7-0.1,2.4-0.4c0.6-0.3,1.3-0.6,2.1-1.1l1.1,1.7c-0.5,0.3-1,0.6-1.4,0.8c-0.4,0.2-0.9,0.4-1.3,0.6
		c-0.5,0.2-0.9,0.3-1.4,0.4c-0.5,0.1-1.1,0.1-1.7,0.1c-0.7,0-1.5-0.1-2.3-0.4s-1.5-0.8-2.1-1.4c-0.6-0.7-1.2-1.6-1.6-2.6
		s-0.6-2.4-0.6-4c0-1.3,0.2-2.5,0.5-3.5c0.3-1,0.8-1.9,1.4-2.6c0.6-0.7,1.3-1.3,2.1-1.7c0.8-0.4,1.7-0.6,2.7-0.6c1,0,2,0.2,2.8,0.6
		c0.8,0.4,1.5,0.9,2.1,1.7s1,1.6,1.3,2.5C502.2,43.3,502.4,44.4,502.4,45.5z M500.2,44.9c-0.1-1.6-0.5-2.9-1.2-3.9
		c-0.7-1-1.8-1.5-3.2-1.5c-1.2,0-2.2,0.4-3,1.3c-0.8,0.9-1.2,2.2-1.4,4.1H500.2z"/>
	<path id="XMLID_112_" class="st0" d="M516.1,54.1v-2c-0.6,0.6-1.3,1.2-2,1.6s-1.7,0.7-2.8,0.7c-0.8,0-1.6-0.2-2.3-0.5
		c-0.7-0.3-1.3-0.8-1.9-1.5c-0.5-0.7-0.9-1.5-1.2-2.6c-0.3-1-0.4-2.3-0.4-3.7c0-1.4,0.2-2.7,0.5-3.8c0.3-1.1,0.8-2,1.3-2.7
		c0.6-0.7,1.2-1.3,2-1.7s1.5-0.6,2.4-0.6c1,0,1.9,0.2,2.6,0.6c0.7,0.4,1.4,0.9,1.9,1.6v-6.8l2.4-1.3v22.6H516.1z M516.1,42
		c-0.5-0.7-1.1-1.3-1.8-1.7c-0.8-0.5-1.6-0.7-2.6-0.7c-1.4,0-2.4,0.6-3,1.7c-0.7,1.1-1,2.8-1,5c0,2.1,0.4,3.6,1.1,4.7
		c0.7,1,1.7,1.6,3,1.6c0.9,0,1.7-0.2,2.4-0.6s1.4-1,1.9-1.7V42z"/>
	<path id="XMLID_110_" class="st0" d="M533.1,54.1v-2c-0.5,0.7-1.1,1.2-1.8,1.7c-0.7,0.4-1.6,0.6-2.7,0.6c-0.9,0-1.7-0.1-2.4-0.4
		c-0.7-0.3-1.3-0.7-1.8-1.2c-0.5-0.5-0.9-1.2-1.1-2.1c-0.3-0.8-0.4-1.8-0.4-3v-9.9h2.4v9.5c0,1.8,0.3,3,0.9,3.9s1.6,1.2,2.9,1.2
		c1.1,0,2.1-0.4,2.9-1.2c0.8-0.8,1.2-2.1,1.2-3.9v-9.5h2.4v16.2H533.1z"/>
	<path id="XMLID_108_" class="st0" d="M549.9,41.1c-0.6-0.5-1.2-0.9-1.8-1.2c-0.6-0.3-1.3-0.4-2.1-0.4c-0.6,0-1.2,0.1-1.8,0.4
		s-1,0.7-1.4,1.2s-0.7,1.2-0.9,2c-0.2,0.8-0.3,1.7-0.3,2.7c0,2,0.4,3.6,1.2,4.8c0.8,1.2,1.9,1.8,3.4,1.8c0.8,0,1.5-0.2,2-0.5
		c0.6-0.3,1.1-0.7,1.7-1.3l1.4,1.5c-0.7,0.7-1.4,1.2-2.3,1.6s-1.8,0.6-3,0.6c-0.9,0-1.7-0.2-2.6-0.5c-0.8-0.3-1.6-0.9-2.2-1.6
		c-0.6-0.7-1.1-1.6-1.5-2.6c-0.4-1-0.6-2.3-0.6-3.7c0-1.5,0.2-2.8,0.6-3.9c0.4-1.1,0.9-2,1.6-2.6c0.7-0.7,1.4-1.2,2.2-1.5
		c0.8-0.3,1.7-0.5,2.5-0.5c1.1,0,2.1,0.2,2.9,0.5c0.8,0.4,1.6,0.8,2.2,1.4L549.9,41.1z"/>
	<path id="XMLID_106_" class="st0" d="M557.8,39.8v10.6c0,0.7,0.1,1.2,0.4,1.5c0.2,0.3,0.7,0.4,1.3,0.4c0.5,0,0.9,0,1.2-0.1
		c0.3-0.1,0.7-0.2,1.1-0.4l-0.2,2c-0.5,0.2-0.9,0.3-1.4,0.4c-0.5,0.1-1,0.1-1.6,0.1c-1,0-1.8-0.3-2.3-0.8s-0.8-1.5-0.8-2.9V39.8h-2
		v-2h2v-5l2.4-1.3v6.3h4v2H557.8z"/>
	<path id="XMLID_103_" class="st0" d="M568.8,33.3c0,0.5-0.2,0.8-0.5,1.2c-0.3,0.3-0.7,0.5-1.1,0.5c-0.5,0-0.9-0.2-1.2-0.5
		c-0.3-0.3-0.5-0.7-0.5-1.2c0-0.5,0.2-0.9,0.5-1.2s0.7-0.5,1.2-0.5c0.4,0,0.8,0.2,1.1,0.5C568.6,32.4,568.8,32.8,568.8,33.3z
		 M566,54.1V37.9h2.4v16.2H566z"/>
	<path id="XMLID_100_" class="st0" d="M586.3,45.9c0,1.4-0.2,2.6-0.6,3.7c-0.4,1.1-0.9,2-1.5,2.7c-0.6,0.7-1.4,1.3-2.3,1.7
		c-0.9,0.4-1.8,0.6-2.8,0.6c-1,0-1.9-0.2-2.8-0.5c-0.9-0.4-1.6-0.9-2.2-1.6c-0.6-0.7-1.1-1.6-1.5-2.6c-0.4-1.1-0.5-2.3-0.5-3.7
		c0-1.4,0.2-2.6,0.6-3.7c0.4-1.1,0.9-1.9,1.5-2.6s1.4-1.3,2.3-1.6c0.9-0.4,1.8-0.6,2.8-0.6c1,0,1.9,0.2,2.8,0.5
		c0.9,0.4,1.6,0.9,2.2,1.6c0.6,0.7,1.1,1.6,1.5,2.6C586.1,43.3,586.3,44.5,586.3,45.9z M584,45.9c0-2.2-0.4-3.8-1.3-4.8
		c-0.9-1.1-2-1.6-3.4-1.6s-2.6,0.5-3.4,1.6s-1.3,2.7-1.3,4.8c0,2.2,0.4,3.8,1.3,4.9s2,1.6,3.4,1.6s2.6-0.5,3.4-1.6
		C583.5,49.7,584,48.1,584,45.9z"/>
	<path id="XMLID_98_" class="st0" d="M600.2,54.1v-9.5c0-1.8-0.3-3-0.9-3.9c-0.6-0.8-1.6-1.2-2.9-1.2c-1.1,0-2.1,0.4-2.9,1.2
		s-1.2,2.1-1.2,3.9v9.5H590V37.9h2.4l0,2c0.5-0.7,1.1-1.2,1.8-1.7c0.7-0.4,1.6-0.6,2.7-0.6c0.9,0,1.7,0.1,2.4,0.4
		c0.7,0.3,1.3,0.7,1.8,1.2c0.5,0.5,0.9,1.2,1.1,2.1c0.3,0.8,0.4,1.8,0.4,3v9.9H600.2z"/>
	<path id="XMLID_95_" class="st0" d="M617.5,33.3c0,0.5-0.2,0.8-0.5,1.2c-0.3,0.3-0.7,0.5-1.1,0.5c-0.5,0-0.9-0.2-1.2-0.5
		c-0.3-0.3-0.5-0.7-0.5-1.2c0-0.5,0.2-0.9,0.5-1.2s0.7-0.5,1.2-0.5c0.4,0,0.8,0.2,1.1,0.5C617.4,32.4,617.5,32.8,617.5,33.3z
		 M614.7,54.1V37.9h2.4v16.2H614.7z"/>
	<path id="XMLID_93_" class="st0" d="M632,54.1v-9.5c0-1.8-0.3-3-0.9-3.9c-0.6-0.8-1.6-1.2-2.9-1.2c-1.1,0-2.1,0.4-2.9,1.2
		s-1.2,2.1-1.2,3.9v9.5h-2.4V37.9h2.4l0,2c0.5-0.7,1.1-1.2,1.8-1.7c0.7-0.4,1.6-0.6,2.7-0.6c0.9,0,1.7,0.1,2.4,0.4
		c0.7,0.3,1.3,0.7,1.8,1.2c0.5,0.5,0.9,1.2,1.1,2.1c0.3,0.8,0.4,1.8,0.4,3v9.9H632z"/>
	<path id="XMLID_90_" class="st0" d="M659.4,45.7c0,1.4-0.2,2.7-0.5,3.8c-0.3,1.1-0.8,2-1.3,2.7c-0.6,0.7-1.2,1.3-1.9,1.7
		c-0.7,0.4-1.5,0.6-2.4,0.6c-1,0-1.9-0.2-2.6-0.6c-0.7-0.4-1.4-0.9-1.9-1.6v6.5l-2.4,1.3V37.9h2.4l0,2c0.6-0.6,1.3-1.2,2-1.6
		s1.7-0.7,2.8-0.7c0.8,0,1.6,0.2,2.3,0.5s1.3,0.8,1.9,1.5c0.5,0.7,0.9,1.5,1.2,2.6C659.2,43.1,659.4,44.3,659.4,45.7z M657.1,45.8
		c0-2.1-0.4-3.6-1.1-4.7c-0.7-1-1.7-1.6-3-1.6c-0.9,0-1.6,0.2-2.4,0.6c-0.7,0.4-1.4,1-1.9,1.7V50c0.5,0.7,1.1,1.3,1.8,1.7
		c0.8,0.5,1.6,0.7,2.6,0.7c1.4,0,2.4-0.6,3-1.7C656.8,49.6,657.1,48,657.1,45.8z"/>
	<path id="XMLID_87_" class="st0" d="M672.5,54.1v-2c-0.6,0.6-1.3,1.2-2.1,1.6s-1.8,0.7-3,0.7c-0.6,0-1.3-0.1-1.9-0.3
		c-0.6-0.2-1.2-0.5-1.7-0.9s-0.9-0.9-1.2-1.6c-0.3-0.7-0.4-1.5-0.4-2.5c0-0.9,0.2-1.7,0.5-2.4c0.4-0.7,0.8-1.2,1.4-1.6
		s1.2-0.7,2-0.9c0.8-0.2,1.5-0.3,2.3-0.3c0.8,0,1.6,0.1,2.3,0.3c0.7,0.2,1.3,0.4,1.8,0.7v-1.9c0-2.4-1.2-3.6-3.5-3.6
		c-0.9,0-1.6,0.1-2.4,0.3c-0.7,0.2-1.4,0.5-2,0.9l-0.9-1.9c0.7-0.4,1.5-0.7,2.5-1s1.9-0.4,3-0.4c1.8,0,3.1,0.4,4.2,1.2
		c1,0.8,1.5,2.2,1.5,4v11.3H672.5z M672.5,46.8c-0.5-0.3-1.1-0.5-1.7-0.7c-0.6-0.2-1.4-0.2-2.4-0.2c-1.2,0-2.1,0.3-2.8,0.8
		c-0.7,0.5-1,1.3-1,2.4c0,1.2,0.3,2.1,0.9,2.6c0.6,0.5,1.4,0.8,2.4,0.8c1,0,2-0.2,2.7-0.7s1.4-1.1,1.9-1.7V46.8z"/>
	<path id="XMLID_85_" class="st0" d="M687.6,40.3c-0.3-0.2-0.7-0.3-1.1-0.4c-0.4-0.1-0.8-0.2-1.4-0.2c-1.1,0-2,0.4-2.6,1.3
		s-0.9,2.1-0.9,3.6v9.5h-2.4V37.9h2.4v2c0.4-0.7,0.9-1.2,1.6-1.7c0.7-0.5,1.5-0.7,2.4-0.7c0.6,0,1.1,0,1.5,0.1s0.7,0.2,1,0.3
		L687.6,40.3z"/>
	<path id="XMLID_83_" class="st0" d="M694.4,39.8v10.6c0,0.7,0.1,1.2,0.4,1.5c0.2,0.3,0.7,0.4,1.3,0.4c0.5,0,0.9,0,1.2-0.1
		c0.3-0.1,0.7-0.2,1.1-0.4l-0.2,2c-0.5,0.2-0.9,0.3-1.4,0.4c-0.5,0.1-1,0.1-1.6,0.1c-1,0-1.8-0.3-2.3-0.8s-0.8-1.5-0.8-2.9V39.8h-2
		v-2h2v-5l2.4-1.3v6.3h4v2H694.4z"/>
	<path id="XMLID_80_" class="st0" d="M705.3,33.3c0,0.5-0.2,0.8-0.5,1.2c-0.3,0.3-0.7,0.5-1.1,0.5c-0.5,0-0.9-0.2-1.2-0.5
		c-0.3-0.3-0.5-0.7-0.5-1.2c0-0.5,0.2-0.9,0.5-1.2s0.7-0.5,1.2-0.5c0.4,0,0.8,0.2,1.1,0.5C705.2,32.4,705.3,32.8,705.3,33.3z
		 M702.5,54.1V37.9h2.4v16.2H702.5z"/>
	<path id="XMLID_77_" class="st0" d="M718.9,54.1v-2c-0.6,0.6-1.3,1.2-2.1,1.6s-1.8,0.7-3,0.7c-0.6,0-1.3-0.1-1.9-0.3
		c-0.6-0.2-1.2-0.5-1.7-0.9s-0.9-0.9-1.2-1.6c-0.3-0.7-0.4-1.5-0.4-2.5c0-0.9,0.2-1.7,0.5-2.4c0.4-0.7,0.8-1.2,1.4-1.6
		s1.2-0.7,2-0.9c0.8-0.2,1.5-0.3,2.3-0.3c0.8,0,1.6,0.1,2.3,0.3c0.7,0.2,1.3,0.4,1.8,0.7v-1.9c0-2.4-1.2-3.6-3.5-3.6
		c-0.9,0-1.6,0.1-2.4,0.3c-0.7,0.2-1.4,0.5-2,0.9l-0.9-1.9c0.7-0.4,1.5-0.7,2.5-1s1.9-0.4,3-0.4c1.8,0,3.1,0.4,4.2,1.2
		c1,0.8,1.5,2.2,1.5,4v11.3H718.9z M718.9,46.8c-0.5-0.3-1.1-0.5-1.7-0.7c-0.6-0.2-1.4-0.2-2.4-0.2c-1.2,0-2.1,0.3-2.8,0.8
		c-0.7,0.5-1,1.3-1,2.4c0,1.2,0.3,2.1,0.9,2.6c0.6,0.5,1.4,0.8,2.4,0.8c1,0,2-0.2,2.7-0.7s1.4-1.1,1.9-1.7V46.8z"/>
	<path id="XMLID_75_" class="st0" d="M725.9,54.1V32.8l2.4-1.3v22.6H725.9z"/>
	<path id="XMLID_72_" class="st0" d="M752.9,45.5c0,0.3,0,0.5,0,0.7c0,0.2,0,0.4-0.1,0.6H742c0.1,1.8,0.5,3.2,1.3,4.2
		c0.8,1,1.8,1.5,3.2,1.5c0.9,0,1.7-0.1,2.4-0.4c0.6-0.3,1.3-0.6,2.1-1.1l1.1,1.7c-0.5,0.3-1,0.6-1.4,0.8c-0.4,0.2-0.9,0.4-1.3,0.6
		c-0.5,0.2-0.9,0.3-1.4,0.4c-0.5,0.1-1.1,0.1-1.7,0.1c-0.7,0-1.5-0.1-2.3-0.4s-1.5-0.8-2.1-1.4c-0.6-0.7-1.2-1.6-1.6-2.6
		s-0.6-2.4-0.6-4c0-1.3,0.2-2.5,0.5-3.5c0.3-1,0.8-1.9,1.4-2.6c0.6-0.7,1.3-1.3,2.1-1.7c0.8-0.4,1.7-0.6,2.7-0.6c1,0,2,0.2,2.8,0.6
		c0.8,0.4,1.5,0.9,2.1,1.7s1,1.6,1.3,2.5C752.7,43.3,752.9,44.4,752.9,45.5z M750.7,44.9c-0.1-1.6-0.5-2.9-1.2-3.9
		c-0.7-1-1.8-1.5-3.2-1.5c-1.2,0-2.2,0.4-3,1.3c-0.8,0.9-1.2,2.2-1.4,4.1H750.7z"/>
	<path id="XMLID_69_" class="st0" d="M769.7,45.7c0,1.4-0.2,2.7-0.5,3.8c-0.3,1.1-0.8,2-1.3,2.7c-0.6,0.7-1.2,1.3-1.9,1.7
		c-0.7,0.4-1.5,0.6-2.4,0.6c-1,0-1.9-0.2-2.6-0.6c-0.7-0.4-1.4-0.9-1.9-1.6v6.5l-2.4,1.3V37.9h2.4l0,2c0.6-0.6,1.3-1.2,2-1.6
		s1.7-0.7,2.8-0.7c0.8,0,1.6,0.2,2.3,0.5s1.3,0.8,1.9,1.5c0.5,0.7,0.9,1.5,1.2,2.6C769.6,43.1,769.7,44.3,769.7,45.7z M767.4,45.8
		c0-2.1-0.4-3.6-1.1-4.7c-0.7-1-1.7-1.6-3-1.6c-0.9,0-1.6,0.2-2.4,0.6c-0.7,0.4-1.4,1-1.9,1.7V50c0.5,0.7,1.1,1.3,1.8,1.7
		c0.8,0.5,1.6,0.7,2.6,0.7c1.4,0,2.4-0.6,3-1.7C767.1,49.6,767.4,48,767.4,45.8z"/>
	<path id="XMLID_66_" class="st0" d="M776.4,33.3c0,0.5-0.2,0.8-0.5,1.2c-0.3,0.3-0.7,0.5-1.1,0.5c-0.5,0-0.9-0.2-1.2-0.5
		c-0.3-0.3-0.5-0.7-0.5-1.2c0-0.5,0.2-0.9,0.5-1.2s0.7-0.5,1.2-0.5c0.4,0,0.8,0.2,1.1,0.5C776.3,32.4,776.4,32.8,776.4,33.3z
		 M773.6,54.1V37.9h2.4v16.2H773.6z"/>
	<path id="XMLID_64_" class="st0" d="M780.9,54.1V32.8l2.4-1.3v22.6H780.9z"/>
	<path id="XMLID_61_" class="st0" d="M800.3,45.5c0,0.3,0,0.5,0,0.7c0,0.2,0,0.4-0.1,0.6h-10.8c0.1,1.8,0.5,3.2,1.3,4.2
		c0.8,1,1.8,1.5,3.2,1.5c0.9,0,1.7-0.1,2.4-0.4c0.6-0.3,1.3-0.6,2.1-1.1l1.1,1.7c-0.5,0.3-1,0.6-1.4,0.8c-0.4,0.2-0.9,0.4-1.3,0.6
		c-0.5,0.2-0.9,0.3-1.4,0.4c-0.5,0.1-1.1,0.1-1.7,0.1c-0.7,0-1.5-0.1-2.3-0.4s-1.5-0.8-2.1-1.4c-0.6-0.7-1.2-1.6-1.6-2.6
		s-0.6-2.4-0.6-4c0-1.3,0.2-2.5,0.5-3.5c0.3-1,0.8-1.9,1.4-2.6c0.6-0.7,1.3-1.3,2.1-1.7c0.8-0.4,1.7-0.6,2.7-0.6c1,0,2,0.2,2.8,0.6
		c0.8,0.4,1.5,0.9,2.1,1.7s1,1.6,1.3,2.5C800.2,43.3,800.3,44.4,800.3,45.5z M798.2,44.9c-0.1-1.6-0.5-2.9-1.2-3.9
		c-0.7-1-1.8-1.5-3.2-1.5c-1.2,0-2.2,0.4-3,1.3c-0.8,0.9-1.2,2.2-1.4,4.1H798.2z"/>
	<path id="XMLID_58_" class="st0" d="M817.2,45.7c0,1.4-0.2,2.7-0.5,3.8c-0.3,1.1-0.8,2-1.3,2.7c-0.6,0.7-1.2,1.3-1.9,1.7
		c-0.7,0.4-1.5,0.6-2.4,0.6c-1,0-1.9-0.2-2.6-0.6c-0.7-0.4-1.4-0.9-1.9-1.6v6.5l-2.4,1.3V37.9h2.4l0,2c0.6-0.6,1.3-1.2,2-1.6
		s1.7-0.7,2.8-0.7c0.8,0,1.6,0.2,2.3,0.5s1.3,0.8,1.9,1.5c0.5,0.7,0.9,1.5,1.2,2.6C817,43.1,817.2,44.3,817.2,45.7z M814.9,45.8
		c0-2.1-0.4-3.6-1.1-4.7c-0.7-1-1.7-1.6-3-1.6c-0.9,0-1.6,0.2-2.4,0.6c-0.7,0.4-1.4,1-1.9,1.7V50c0.5,0.7,1.1,1.3,1.8,1.7
		c0.8,0.5,1.6,0.7,2.6,0.7c1.4,0,2.4-0.6,3-1.7C814.6,49.6,814.9,48,814.9,45.8z"/>
	<path id="XMLID_56_" class="st0" d="M831,49.9c0,0.8-0.2,1.5-0.5,2.1c-0.3,0.6-0.7,1.1-1.3,1.4c-0.5,0.4-1.1,0.6-1.8,0.8
		c-0.7,0.2-1.4,0.3-2.1,0.3c-1.1,0-2.2-0.2-3.1-0.6c-1-0.4-1.8-0.9-2.6-1.5l1.4-1.7c0.7,0.6,1.4,1,2.1,1.3c0.7,0.3,1.5,0.5,2.3,0.5
		c1.1,0,1.9-0.2,2.5-0.7c0.5-0.4,0.8-1.1,0.8-1.8c0-0.3-0.1-0.6-0.2-0.9s-0.4-0.5-0.6-0.8c-0.3-0.3-0.7-0.5-1.2-0.8
		c-0.5-0.3-1.1-0.5-1.8-0.9c-0.8-0.4-1.5-0.7-2.1-1c-0.6-0.3-1.1-0.7-1.4-1s-0.6-0.8-0.8-1.3c-0.2-0.5-0.3-1-0.3-1.7
		c0-0.6,0.1-1.2,0.4-1.7c0.3-0.5,0.6-0.9,1.1-1.3c0.4-0.4,1-0.7,1.6-0.9c0.6-0.2,1.3-0.3,2-0.3c1.1,0,2.1,0.2,3,0.5
		c0.9,0.3,1.6,0.7,2.2,1.3l-1.3,1.7c-0.6-0.5-1.3-0.9-1.9-1.1s-1.3-0.4-2.2-0.4c-0.9,0-1.5,0.2-2,0.6c-0.5,0.4-0.7,0.9-0.7,1.5
		c0,0.4,0.1,0.6,0.2,0.9s0.3,0.5,0.6,0.7c0.3,0.2,0.7,0.5,1.1,0.7c0.5,0.2,1,0.5,1.7,0.8c0.8,0.4,1.4,0.7,2,1s1.1,0.7,1.5,1
		s0.7,0.8,1,1.3C830.9,48.5,831,49.2,831,49.9z"/>
	<path id="XMLID_54_" class="st0" d="M839.4,59.8h-2.3l2.2-5.9l-5.8-16.1h2.4l4,11.8l0.6,1.7l0.6-1.6l4-11.8h2.4L839.4,59.8z"/>
</g>
<linearGradient id="XMLID_167_" gradientUnits="userSpaceOnUse" x1="0" y1="43.9462" x2="182.1864" y2="43.9462">
	<stop  offset="0" style="stop-color:#4B257A"/>
	<stop  offset="1" style="stop-color:#964C8E"/>
</linearGradient>
<rect id="XMLID_52_" y="0.5" class="st1" width="182.2" height="87"/>
<rect id="XMLID_51_" x="182.4" y="0.5" class="st2" width="691.5" height="87"/>
<g id="XMLID_1_">
	<polygon id="XMLID_50_" class="st3" points="27,46.2 20.8,35.2 17.7,38.9 17.7,46.2 13,46.2 13,22 17.7,22 17.7,32.5 26.2,22 
		32,22 23.9,31.6 32.5,46.2 	"/>
	<path id="XMLID_47_" class="st3" d="M65.3,26.2h-4.4v6.6h4.4c2.1,0,3.5-1.3,3.5-3.3C68.8,27.6,67.4,26.2,65.3,26.2 M65.5,37.1h-4.7
		v9.1h-4.7V22h9.4c5,0,8,3.4,8,7.5S70.5,37.1,65.5,37.1"/>
	<path id="XMLID_44_" class="st3" d="M86.6,26.2h-4.5v6.4h4.5c2.1,0,3.4-1.3,3.4-3.2C90.1,27.5,88.7,26.2,86.6,26.2 M90.3,46.2
		l-4.7-9.7h-3.4v9.7h-4.7V22h9.5c4.9,0,7.8,3.4,7.8,7.4c0,3.4-2.1,5.5-4.4,6.4l5.4,10.4H90.3z"/>
	<path id="XMLID_41_" class="st3" d="M107.8,29.1l-3.1,8.8h6L107.8,29.1z M113.5,46.2l-1.4-4.3h-8.6l-1.5,4.3H97l8.8-24.2h3.7
		l8.8,24.2H113.5z"/>
	<path id="XMLID_38_" class="st3" d="M133.2,27.7c-0.8-1-1.9-1.5-3.5-1.5h-3.6V42h3.6c1.6,0,2.7-0.5,3.5-1.5c0.9-1.1,1-2.8,1-6.5
		C134.2,30.3,134.1,28.8,133.2,27.7 M136.5,43.9c-1.6,1.6-3.9,2.3-6.4,2.3h-8.7V22h8.7c2.5,0,4.8,0.7,6.4,2.3c2.7,2.7,2.4,6,2.4,9.7
		C139,37.6,139.2,41.1,136.5,43.9"/>
	<rect id="XMLID_37_" x="143.8" y="22" class="st3" width="4.7" height="24.2"/>
	<polygon id="XMLID_36_" class="st3" points="154.1,46.2 154.1,22 158.9,22 158.9,42 169.8,42 169.8,46.2 	"/>
	<polygon id="XMLID_35_" class="st3" points="12.3,49.7 14,49.7 14,64 24,64 24,65.6 12.3,65.6 	"/>
	<path id="XMLID_32_" class="st3" d="M36.1,58.9c-0.5-2.8-2.6-3.9-4.8-3.9c-2.1,0-4.4,1.1-4.8,3.9H36.1z M37.4,61.9
		c-0.7,2-2.4,4-6.2,4c-4.7,0-6.3-3.3-6.3-6.1c0-3.2,2-6.1,6.3-6.1c3,0,6.5,1.3,6.5,6.5H26.5c0,2.4,1.7,4.4,4.6,4.4
		c2.8,0,4-0.9,4.6-2.7H37.4z"/>
	<polygon id="XMLID_31_" class="st3" points="49.1,54 50.9,54 45.5,65.6 43.7,65.6 38.3,54 40.1,54 44.6,63.7 	"/>
	<path id="XMLID_28_" class="st3" d="M62.8,58.9C62.3,56.1,60.2,55,58,55c-2.1,0-4.4,1.1-4.8,3.9H62.8z M64.1,61.9
		c-0.7,2-2.4,4-6.2,4c-4.7,0-6.3-3.3-6.3-6.1c0-3.2,2-6.1,6.3-6.1c3,0,6.5,1.3,6.5,6.5H53.3c0,2.4,1.7,4.4,4.6,4.4
		c2.8,0,4-0.9,4.6-2.7H64.1z"/>
	<path id="XMLID_27_" class="st3" d="M67.5,50.4h1.6V54h3.3v1.2h-3.3v7.6c0,1,0.3,1.5,1.6,1.5c0.8,0,1.3-0.1,1.6-0.1v1.4
		c-0.6,0.1-1.3,0.1-1.8,0.1c-2.6,0-3.1-1-3.1-2.9v-7.6H65V54h2.5V50.4z"/>
	<path id="XMLID_24_" class="st3" d="M74.2,54h1.6v11.5h-1.6V54z M74.2,49.6h1.6V52h-1.6V49.6z"/>
	<path id="XMLID_23_" class="st3" d="M78.3,54H80v2.6h0c0.6-1.4,1.7-3,4.4-3c0.5,0,0.7,0,1,0.1v1.7c-0.5-0.1-1-0.1-1.5-0.1
		c-1.8,0-3.9,1.1-3.9,4.4v5.9h-1.6V54z"/>
	<path id="XMLID_20_" class="st3" d="M95.7,59.3c-0.7,0.5-1.8,0.6-5.1,0.9c-1.9,0.2-3,0.8-3,2.1c0,1.8,1.6,2.3,3.3,2.3
		c2.2,0,4.8-1.2,4.8-3.6V59.3z M86.4,57.6c0.2-2.4,1.6-3.9,5.5-3.9c3.9,0,5.3,1.2,5.3,3.4v6c0,1,0.3,1.3,0.9,1.3c0.3,0,0.6,0,0.9,0
		v1.1c-0.3,0.1-0.8,0.2-1.4,0.2c-1.7,0-1.8-1.1-1.8-2h0c-0.5,0.8-1.6,2.3-5.4,2.3c-2,0-4.5-0.9-4.5-3.5c0-3.1,3.2-3.5,5.8-3.6
		c3.6-0.2,4-0.4,4-1.5c0-1.7-1.1-2.3-3.8-2.3c-2.6,0-3.8,0.7-4,2.5H86.4z"/>
	<path id="XMLID_19_" class="st3" d="M111.8,61.4c-0.3,1.5-1.6,4.5-5.8,4.5c-4.2,0-6.5-2.5-6.5-6.1c0-3.5,2.1-6.1,6.5-6.1
		c4,0,5.5,2.5,5.7,4.1h-1.6c-0.5-2-2.1-2.8-4.1-2.8c-3.3,0-4.9,2.1-4.9,4.7c0,2.9,1.7,4.8,4.9,4.8c2.4,0,3.8-1.3,4.2-3.1H111.8z"/>
	<path id="XMLID_16_" class="st3" d="M124.4,58.9c-0.5-2.8-2.6-3.9-4.8-3.9c-2.1,0-4.4,1.1-4.8,3.9H124.4z M125.8,61.9
		c-0.7,2-2.4,4-6.2,4c-4.7,0-6.3-3.3-6.3-6.1c0-3.2,2-6.1,6.3-6.1c3,0,6.5,1.3,6.5,6.5h-11.1c0,2.4,1.7,4.4,4.6,4.4
		c2.8,0,4-0.9,4.6-2.7H125.8z"/>
	<path id="XMLID_15_" class="st3" d="M129.2,50.4h1.6V54h3.3v1.2h-3.3v7.6c0,1,0.3,1.5,1.6,1.5c0.8,0,1.3-0.1,1.6-0.1v1.4
		c-0.6,0.1-1.3,0.1-1.8,0.1c-2.6,0-3.1-1-3.1-2.9v-7.6h-2.5V54h2.5V50.4z"/>
	<path id="XMLID_12_" class="st3" d="M145.1,59.3c-0.7,0.5-1.8,0.6-5.1,0.9c-1.9,0.2-3,0.8-3,2.1c0,1.8,1.6,2.3,3.3,2.3
		c2.2,0,4.8-1.2,4.8-3.6V59.3z M135.8,57.6c0.2-2.4,1.6-3.9,5.5-3.9c3.9,0,5.3,1.2,5.3,3.4v6c0,1,0.3,1.3,0.9,1.3c0.3,0,0.6,0,0.9,0
		v1.1c-0.3,0.1-0.8,0.2-1.4,0.2c-1.7,0-1.8-1.1-1.8-2h0c-0.5,0.8-1.6,2.3-5.4,2.3c-2,0-4.5-0.9-4.5-3.5c0-3.1,3.2-3.5,5.8-3.6
		c3.6-0.2,4-0.4,4-1.5c0-1.7-1.1-2.3-3.8-2.3c-2.6,0-3.8,0.7-4,2.5H135.8z"/>
	<path id="XMLID_11_" class="st3" d="M167.5,58.2c0-2.1-1.1-3.2-3.4-3.2c-2.5,0-3.9,1.5-3.9,3.7v6.8h-1.6v-7.8c0-1.5-1-2.7-3.3-2.7
		c-2.4,0-4.1,1.4-4.1,4v6.5h-1.6V54h1.6v2.1h0c0.7-1.2,1.9-2.5,4.6-2.5c2.6,0,3.8,1.4,4.1,2.5c0.6-1.2,2.2-2.5,4.5-2.5
		c3.2,0,4.8,1.6,4.8,4v7.9h-1.6V58.2z"/>
	<path id="XMLID_6_" class="st3" d="M165.3,25.8c0.5,0,1,0,1-0.6c0-0.5-0.4-0.5-0.8-0.5h-0.8v1.1H165.3z M164.1,24.2h1.4
		c0.8,0,1.3,0.3,1.3,1.1c0,0.7-0.4,1-1,1l1.1,1.6h-0.6l-1-1.5h-0.6v1.5h-0.6V24.2z M168,26c0-1.5-1.2-2.7-2.6-2.7
		c-1.4,0-2.6,1.2-2.6,2.7c0,1.5,1.2,2.7,2.6,2.7C166.8,28.7,168,27.5,168,26 M165.4,22.8c1.7,0,3.2,1.4,3.2,3.2
		c0,1.7-1.4,3.2-3.2,3.2c-1.7,0-3.2-1.4-3.2-3.2C162.2,24.3,163.7,22.8,165.4,22.8"/>
	<polygon id="XMLID_5_" class="st3" points="35.6,46.2 51.6,46.2 51.6,42 40.3,42 40.3,37.1 35.6,37.1 	"/>
	<path id="XMLID_4_" class="st3" d="M33.6,35.1c0,0,2-4.4,9.6-4.4c7.6,0,11.8-2.6,11.8-2.6s-5.4,5.6-10.7,5.6
		C38.9,33.7,35.7,33.7,33.6,35.1"/>
	<path id="XMLID_3_" class="st3" d="M31.4,39.3c0,0,2-4.4,9.6-4.4c7.6,0,11.8-2.6,11.8-2.6s-5.4,5.6-10.7,5.6
		C36.8,37.8,33.6,37.8,31.4,39.3"/>
	<polygon id="XMLID_2_" class="st3" points="35.6,32.8 40.3,32.8 40.3,26.2 51.6,26.2 51.6,22 35.6,22 	"/>
</g>
</svg>
