<!-- Generator: Adobe Illustrator 22.1.0, SVG Export Plug-In  -->
<svg version="1.1"
	 xmlns="http://www.w3.org/2000/svg" xmlns:xlink="http://www.w3.org/1999/xlink" xmlns:a="http://ns.adobe.com/AdobeSVGViewerExtensions/3.0/"
	 x="0px" y="0px" width="779.6px" height="23px" viewBox="0 0 779.6 23" style="enable-background:new 0 0 779.6 23;"
	 xml:space="preserve">
<style type="text/css">
	.st0{fill:#532D6D;}
	.st1{fill:#266093;}
</style>
<defs>
</defs>
<g id="XMLID_3_">
	<path id="XMLID_150_" class="st0" d="M65.6,14.5c-1.1,1.2-2.7,1.8-4.6,1.8c-0.9,0-1.8-0.2-2.6-0.5c-0.8-0.3-1.4-0.8-2-1.4
		c-0.5-0.6-1-1.3-1.3-2.2c-0.3-0.9-0.5-1.9-0.5-3V0.6h3.1v8.7c0,1.3,0.3,2.2,0.8,3c0.6,0.7,1.3,1.1,2.3,1.1c1,0,1.8-0.4,2.3-1.1
		c0.6-0.7,0.9-1.7,0.9-2.9V0.6h3.1v8.7C67.2,11.6,66.7,13.3,65.6,14.5z"/>
	<path id="XMLID_148_" class="st0" d="M77.6,16.1V9.9c0-1-0.2-1.7-0.5-2.1s-0.8-0.6-1.5-0.6s-1.1,0.2-1.5,0.6
		c-0.3,0.4-0.5,1.1-0.5,2.1v6.4h-3.1V4.5h3.1v0.8c0.3-0.3,0.6-0.5,1.1-0.7s1-0.3,1.6-0.3c1.5,0,2.6,0.5,3.3,1.4s1,2.2,1,3.9v6.6
		H77.6z"/>
	<path id="XMLID_145_" class="st0" d="M86.9,1.8c0,0.5-0.2,0.9-0.5,1.2c-0.3,0.3-0.8,0.5-1.2,0.5S84.3,3.4,84,3
		c-0.3-0.3-0.5-0.8-0.5-1.2s0.2-0.9,0.5-1.2c0.3-0.3,0.8-0.5,1.2-0.5s0.9,0.2,1.2,0.5C86.8,0.9,86.9,1.3,86.9,1.8z M83.7,16.1V4.5
		h3.1v11.6H83.7z"/>
	<path id="XMLID_142_" class="st0" d="M96.2,20.4v-5c-0.3,0.3-0.6,0.5-1,0.7c-0.4,0.2-0.9,0.3-1.4,0.3c-0.6,0-1.2-0.1-1.7-0.4
		c-0.5-0.2-1-0.6-1.4-1.1c-0.4-0.5-0.7-1.2-1-1.9c-0.2-0.8-0.4-1.7-0.4-2.8c0-0.9,0.1-1.7,0.3-2.4c0.2-0.7,0.5-1.3,0.9-1.9
		c0.4-0.5,0.9-0.9,1.4-1.2s1.2-0.4,1.9-0.4c0.5,0,1,0.1,1.4,0.3c0.4,0.2,0.8,0.4,1.1,0.6V4.5h3.1v14.4L96.2,20.4z M96.2,8.1
		c-0.5-0.7-1.2-1-2.1-1c-1.2,0-1.8,1-1.8,3c0,1.2,0.2,2.1,0.5,2.6c0.4,0.5,0.8,0.8,1.5,0.8c0.5,0,0.8-0.1,1.1-0.3
		c0.3-0.2,0.5-0.4,0.8-0.7V8.1z"/>
	<path id="XMLID_140_" class="st0" d="M109.1,16.1v-0.8c-0.3,0.3-0.6,0.5-1.1,0.7s-1,0.3-1.6,0.3c-1.5,0-2.6-0.5-3.3-1.4
		s-1-2.2-1-3.9V4.5h3.1v6.3c0,0.5,0,0.9,0.1,1.3c0.1,0.3,0.2,0.6,0.4,0.8c0.2,0.2,0.4,0.4,0.6,0.4c0.3,0.1,0.5,0.1,0.8,0.1
		c0.6,0,1.1-0.2,1.5-0.6c0.3-0.4,0.5-1.1,0.5-2.1V4.5h3.1v11.6H109.1z"/>
	<path id="XMLID_137_" class="st0" d="M124.6,10.3c0,0.2,0,0.4,0,0.6c0,0.2,0,0.3,0,0.4h-7c0,0.4,0.1,0.7,0.3,1s0.3,0.5,0.6,0.7
		c0.2,0.2,0.5,0.3,0.7,0.4s0.5,0.1,0.8,0.1c0.4,0,0.8-0.1,1.2-0.2c0.3-0.1,0.6-0.3,0.8-0.6l2.2,1.8c-0.5,0.6-1.1,1.1-1.8,1.4
		c-0.8,0.3-1.5,0.5-2.3,0.5c-0.8,0-1.6-0.1-2.3-0.4s-1.2-0.7-1.7-1.2c-0.5-0.5-0.8-1.2-1.1-1.9s-0.4-1.6-0.4-2.5
		c0-0.9,0.1-1.7,0.4-2.4c0.3-0.7,0.6-1.4,1.1-1.9c0.5-0.5,1-1,1.6-1.3c0.6-0.3,1.3-0.4,2-0.4c0.8,0,1.5,0.2,2.1,0.5
		c0.6,0.3,1.1,0.8,1.5,1.3c0.4,0.6,0.7,1.2,1,1.9C124.5,8.7,124.6,9.5,124.6,10.3z M121.7,9c0-0.3-0.1-0.5-0.2-0.8
		c-0.1-0.2-0.2-0.5-0.4-0.7c-0.2-0.2-0.4-0.4-0.6-0.5c-0.3-0.1-0.5-0.2-0.9-0.2c-0.6,0-1,0.2-1.3,0.6c-0.3,0.4-0.5,0.9-0.6,1.5
		H121.7z"/>
	<path id="XMLID_134_" class="st0" d="M146.6,8.4c0,1.4-0.2,2.5-0.7,3.5c-0.5,1-1,1.8-1.8,2.4c-0.7,0.6-1.6,1.1-2.5,1.4
		c-1,0.3-1.9,0.4-2.9,0.4H134V0.6h4.8c1.1,0,2.1,0.1,3.1,0.4c0.9,0.3,1.7,0.7,2.4,1.3s1.2,1.4,1.6,2.4C146.4,5.8,146.6,7,146.6,8.4z
		 M143.4,8.4c0-1.6-0.4-2.8-1.1-3.6c-0.7-0.8-1.9-1.2-3.5-1.2h-1.6v9.5h1.5c0.8,0,1.5-0.1,2.1-0.3c0.6-0.2,1.1-0.5,1.5-1
		c0.4-0.4,0.7-0.9,0.9-1.5C143.3,9.7,143.4,9.1,143.4,8.4z"/>
	<path id="XMLID_131_" class="st0" d="M152.5,1.8c0,0.5-0.2,0.9-0.5,1.2c-0.3,0.3-0.8,0.5-1.2,0.5s-0.9-0.2-1.2-0.5
		c-0.3-0.3-0.5-0.8-0.5-1.2s0.2-0.9,0.5-1.2c0.3-0.3,0.8-0.5,1.2-0.5s0.9,0.2,1.2,0.5C152.4,0.9,152.5,1.3,152.5,1.8z M149.3,16.1
		V4.5h3.1v11.6H149.3z"/>
	<path id="XMLID_129_" class="st0" d="M164.6,12.8c0,0.7-0.1,1.2-0.4,1.7s-0.6,0.8-1,1.1c-0.4,0.3-0.9,0.5-1.5,0.6
		c-0.6,0.1-1.2,0.2-1.8,0.2c-0.9,0-1.8-0.1-2.7-0.4c-0.8-0.2-1.6-0.6-2.2-1l1-2.3c0.6,0.3,1.3,0.6,1.9,0.8s1.4,0.3,2.1,0.3
		c0.6,0,1-0.1,1.2-0.2s0.3-0.4,0.3-0.7c0-0.3-0.1-0.5-0.4-0.6c-0.2-0.2-0.7-0.3-1.3-0.5c-0.7-0.2-1.3-0.4-1.9-0.6
		c-0.6-0.2-1.1-0.5-1.5-0.8c-0.4-0.3-0.7-0.6-0.9-1.1c-0.2-0.4-0.3-0.9-0.3-1.5c0-0.6,0.1-1.1,0.3-1.6c0.2-0.4,0.5-0.8,1-1.1
		c0.4-0.3,0.9-0.5,1.5-0.6s1.2-0.2,1.9-0.2c0.7,0,1.5,0.1,2.2,0.3c0.8,0.2,1.4,0.5,2.1,0.8l-1,2.4c-0.6-0.3-1.2-0.5-1.8-0.7
		c-0.6-0.2-1.1-0.2-1.6-0.2c-0.6,0-1,0.1-1.3,0.2c-0.2,0.1-0.3,0.3-0.3,0.6c0,0.1,0,0.2,0.1,0.3c0.1,0.1,0.2,0.2,0.3,0.3
		s0.4,0.2,0.7,0.3s0.7,0.3,1.3,0.4c0.5,0.2,1,0.4,1.5,0.6c0.5,0.2,0.9,0.4,1.2,0.7s0.6,0.6,0.8,1C164.5,11.7,164.6,12.2,164.6,12.8z
		"/>
	<path id="XMLID_127_" class="st0" d="M173.8,15.7c-0.3,0.2-0.6,0.4-1,0.5c-0.4,0.1-0.9,0.2-1.4,0.2s-0.9-0.1-1.3-0.3
		c-0.4-0.2-0.7-0.4-1-0.7c-0.3-0.3-0.5-0.7-0.6-1.1c-0.1-0.4-0.2-0.9-0.2-1.4V7.4h-1.9V4.5h1.9v-3l3.1-1.5v4.5h2.8v2.9h-2.8v4.7
		c0,0.6,0.1,0.9,0.3,1.1c0.2,0.2,0.5,0.3,0.8,0.3c0.3,0,0.5-0.1,0.8-0.2c0.2-0.1,0.6-0.4,0.9-0.7L173.8,15.7z"/>
	<path id="XMLID_124_" class="st0" d="M180.5,1.8c0,0.5-0.2,0.9-0.5,1.2c-0.3,0.3-0.8,0.5-1.2,0.5s-0.9-0.2-1.2-0.5
		c-0.3-0.3-0.5-0.8-0.5-1.2s0.2-0.9,0.5-1.2c0.3-0.3,0.8-0.5,1.2-0.5s0.9,0.2,1.2,0.5C180.3,0.9,180.5,1.3,180.5,1.8z M177.2,16.1
		V4.5h3.1v11.6H177.2z"/>
	<path id="XMLID_122_" class="st0" d="M190.3,16.1V9.9c0-1-0.2-1.7-0.5-2.1s-0.8-0.6-1.5-0.6s-1.1,0.2-1.5,0.6
		c-0.3,0.4-0.5,1.1-0.5,2.1v6.4h-3.1V4.5h3.1v0.8c0.3-0.3,0.6-0.5,1.1-0.7s1-0.3,1.6-0.3c1.5,0,2.6,0.5,3.3,1.4s1,2.2,1,3.9v6.6
		H190.3z"/>
	<path id="XMLID_120_" class="st0" d="M205,14.8c-0.3,0.3-0.7,0.6-1,0.8c-0.4,0.2-0.8,0.4-1.3,0.5c-0.5,0.1-1,0.2-1.6,0.2
		c-0.8,0-1.5-0.1-2.1-0.4c-0.7-0.3-1.2-0.7-1.7-1.2c-0.5-0.5-0.9-1.2-1.2-1.9c-0.3-0.7-0.4-1.6-0.4-2.4s0.1-1.7,0.4-2.4
		c0.3-0.7,0.7-1.4,1.2-1.9c0.5-0.5,1.1-1,1.8-1.3c0.7-0.3,1.4-0.4,2.2-0.4c1.1,0,2,0.2,2.8,0.7c0.7,0.5,1.4,1.1,1.8,1.8l-2,2
		c-0.3-0.5-0.7-0.9-1.1-1.2s-0.9-0.5-1.5-0.5c-0.7,0-1.3,0.3-1.8,0.8c-0.4,0.6-0.7,1.3-0.7,2.3c0,0.9,0.2,1.7,0.7,2.3
		c0.4,0.6,1,0.9,1.8,0.9c0.6,0,1.1-0.1,1.5-0.4c0.4-0.3,0.8-0.6,1.2-1.1l1.9,1.8C205.6,14.2,205.3,14.5,205,14.8z"/>
	<path id="XMLID_118_" class="st0" d="M214.6,15.7c-0.3,0.2-0.6,0.4-1,0.5c-0.4,0.1-0.9,0.2-1.4,0.2s-0.9-0.1-1.3-0.3
		c-0.4-0.2-0.7-0.4-1-0.7c-0.3-0.3-0.5-0.7-0.6-1.1c-0.1-0.4-0.2-0.9-0.2-1.4V7.4h-1.9V4.5h1.9v-3l3.1-1.5v4.5h2.8v2.9h-2.8v4.7
		c0,0.6,0.1,0.9,0.3,1.1c0.2,0.2,0.5,0.3,0.8,0.3c0.3,0,0.5-0.1,0.8-0.2c0.2-0.1,0.6-0.4,0.9-0.7L214.6,15.7z"/>
	<path id="XMLID_115_" class="st0" d="M221.3,1.8c0,0.5-0.2,0.9-0.5,1.2c-0.3,0.3-0.8,0.5-1.2,0.5s-0.9-0.2-1.2-0.5
		c-0.3-0.3-0.5-0.8-0.5-1.2s0.2-0.9,0.5-1.2c0.3-0.3,0.8-0.5,1.2-0.5s0.9,0.2,1.2,0.5C221.2,0.9,221.3,1.3,221.3,1.8z M218.1,16.1
		V4.5h3.1v11.6H218.1z"/>
	<path id="XMLID_113_" class="st0" d="M230.6,16.1h-3.1l-4.2-11.6h3.4l1.7,5.4c0.1,0.4,0.3,0.9,0.4,1.4s0.2,0.9,0.3,1.2
		c0.1-0.3,0.2-0.7,0.3-1.2c0.1-0.5,0.3-0.9,0.4-1.4l1.7-5.4h3.3L230.6,16.1z"/>
	<path id="XMLID_110_" class="st0" d="M246.3,10.3c0,0.2,0,0.4,0,0.6c0,0.2,0,0.3,0,0.4h-7c0,0.4,0.1,0.7,0.3,1s0.3,0.5,0.6,0.7
		c0.2,0.2,0.5,0.3,0.7,0.4s0.5,0.1,0.8,0.1c0.4,0,0.8-0.1,1.2-0.2c0.3-0.1,0.6-0.3,0.8-0.6l2.2,1.8c-0.5,0.6-1.1,1.1-1.8,1.4
		c-0.8,0.3-1.5,0.5-2.3,0.5c-0.8,0-1.6-0.1-2.3-0.4s-1.2-0.7-1.7-1.2c-0.5-0.5-0.8-1.2-1.1-1.9s-0.4-1.6-0.4-2.5
		c0-0.9,0.1-1.7,0.4-2.4c0.3-0.7,0.6-1.4,1.1-1.9c0.5-0.5,1-1,1.6-1.3c0.6-0.3,1.3-0.4,2-0.4c0.8,0,1.5,0.2,2.1,0.5
		c0.6,0.3,1.1,0.8,1.5,1.3c0.4,0.6,0.7,1.2,1,1.9C246.2,8.7,246.3,9.5,246.3,10.3z M243.3,9c0-0.3-0.1-0.5-0.2-0.8
		c-0.1-0.2-0.2-0.5-0.4-0.7c-0.2-0.2-0.4-0.4-0.6-0.5c-0.3-0.1-0.5-0.2-0.9-0.2c-0.6,0-1,0.2-1.3,0.6c-0.3,0.4-0.5,0.9-0.6,1.5
		H243.3z"/>
	<path id="XMLID_108_" class="st0" d="M267.1,16.1v-5.7c0-0.2,0-0.5,0-0.8c0-0.3,0-0.7,0-1c0-0.3,0-0.7,0-1c0-0.3,0-0.5,0-0.7
		c-0.1,0.3-0.3,0.7-0.5,1.2s-0.4,1-0.6,1.4l-3.1,6.9l-3.1-6.9c-0.2-0.4-0.4-0.9-0.6-1.4c-0.2-0.5-0.4-0.9-0.5-1.2c0,0.1,0,0.4,0,0.7
		c0,0.3,0,0.6,0,1c0,0.3,0,0.7,0,1c0,0.3,0,0.6,0,0.8v5.7h-3.1V0.6h3l3.2,7c0.1,0.2,0.2,0.5,0.3,0.7c0.1,0.2,0.2,0.5,0.3,0.7
		c0.1,0.2,0.2,0.5,0.3,0.7c0.1,0.2,0.1,0.4,0.2,0.5c0.1-0.3,0.3-0.7,0.4-1.2c0.2-0.5,0.4-1,0.6-1.4l3.1-7h3.1v15.5H267.1z"/>
	<path id="XMLID_105_" class="st0" d="M283.1,10.3c0,0.2,0,0.4,0,0.6c0,0.2,0,0.3,0,0.4h-7c0,0.4,0.1,0.7,0.3,1s0.3,0.5,0.6,0.7
		c0.2,0.2,0.5,0.3,0.7,0.4s0.5,0.1,0.8,0.1c0.4,0,0.8-0.1,1.2-0.2c0.3-0.1,0.6-0.3,0.8-0.6l2.2,1.8c-0.5,0.6-1.1,1.1-1.8,1.4
		c-0.8,0.3-1.5,0.5-2.3,0.5c-0.8,0-1.6-0.1-2.3-0.4s-1.2-0.7-1.7-1.2c-0.5-0.5-0.8-1.2-1.1-1.9s-0.4-1.6-0.4-2.5
		c0-0.9,0.1-1.7,0.4-2.4c0.3-0.7,0.6-1.4,1.1-1.9c0.5-0.5,1-1,1.6-1.3c0.6-0.3,1.3-0.4,2-0.4c0.8,0,1.5,0.2,2.1,0.5
		c0.6,0.3,1.1,0.8,1.5,1.3c0.4,0.6,0.7,1.2,1,1.9C283,8.7,283.1,9.5,283.1,10.3z M280.1,9c0-0.3-0.1-0.5-0.2-0.8
		c-0.1-0.2-0.2-0.5-0.4-0.7c-0.2-0.2-0.4-0.4-0.6-0.5c-0.3-0.1-0.5-0.2-0.9-0.2c-0.6,0-1,0.2-1.3,0.6c-0.3,0.4-0.5,0.9-0.6,1.5
		H280.1z"/>
	<path id="XMLID_103_" class="st0" d="M294.3,14.8c-0.3,0.3-0.7,0.6-1,0.8c-0.4,0.2-0.8,0.4-1.3,0.5c-0.5,0.1-1,0.2-1.6,0.2
		c-0.8,0-1.5-0.1-2.1-0.4c-0.7-0.3-1.2-0.7-1.7-1.2c-0.5-0.5-0.9-1.2-1.2-1.9c-0.3-0.7-0.4-1.6-0.4-2.4s0.1-1.7,0.4-2.4
		c0.3-0.7,0.7-1.4,1.2-1.9c0.5-0.5,1.1-1,1.8-1.3c0.7-0.3,1.4-0.4,2.2-0.4c1.1,0,2,0.2,2.8,0.7c0.7,0.5,1.4,1.1,1.8,1.8l-2,2
		c-0.3-0.5-0.7-0.9-1.1-1.2s-0.9-0.5-1.5-0.5c-0.7,0-1.3,0.3-1.8,0.8c-0.4,0.6-0.7,1.3-0.7,2.3c0,0.9,0.2,1.7,0.7,2.3
		c0.4,0.6,1,0.9,1.8,0.9c0.6,0,1.1-0.1,1.5-0.4c0.4-0.3,0.8-0.6,1.2-1.1l1.9,1.8C294.9,14.2,294.6,14.5,294.3,14.8z"/>
	<path id="XMLID_101_" class="st0" d="M304.5,16.1V9.9c0-1-0.2-1.7-0.5-2.1s-0.8-0.6-1.5-0.6s-1.1,0.2-1.5,0.6
		c-0.3,0.4-0.5,1.1-0.5,2.1v6.4h-3.1V1.5l3.1-1.5v5.3c0.3-0.3,0.6-0.5,1.1-0.7s1-0.3,1.6-0.3c1.5,0,2.6,0.5,3.3,1.4s1,2.2,1,3.9v6.6
		H304.5z"/>
	<path id="XMLID_98_" class="st0" d="M316.8,16.1v-0.8c-0.3,0.3-0.7,0.5-1.1,0.7c-0.5,0.2-1,0.3-1.5,0.3c-0.5,0-1.1-0.1-1.6-0.3
		c-0.5-0.2-1-0.4-1.4-0.8c-0.4-0.3-0.7-0.8-1-1.3s-0.4-1.1-0.4-1.8c0-0.6,0.1-1.2,0.4-1.7c0.2-0.5,0.6-0.9,1-1.2
		c0.4-0.3,0.9-0.6,1.5-0.7s1.2-0.2,1.8-0.2c0.5,0,1,0,1.3,0.1s0.7,0.2,0.9,0.3V8.3c0-0.4-0.1-0.8-0.4-1.1s-0.7-0.4-1.3-0.4
		c-0.4,0-0.7,0-0.9,0s-0.5,0.1-0.8,0.1c-0.2,0.1-0.5,0.1-0.7,0.2c-0.2,0.1-0.5,0.2-0.8,0.4l-1.2-2.1c0.3-0.2,0.7-0.4,1-0.5
		s0.6-0.3,1-0.4s0.7-0.2,1.1-0.2c0.4-0.1,0.8-0.1,1.3-0.1c0.7,0,1.4,0.1,1.9,0.3c0.6,0.2,1.1,0.4,1.5,0.8s0.7,0.8,1,1.3
		c0.2,0.5,0.3,1.1,0.3,1.7v7.8H316.8z M316.8,11.3c-0.3-0.2-0.6-0.3-0.9-0.4c-0.3-0.1-0.7-0.1-1.3-0.1c-0.6,0-1,0.1-1.3,0.4
		c-0.3,0.3-0.5,0.6-0.5,1.1c0,0.4,0.1,0.8,0.4,1.1c0.3,0.3,0.7,0.5,1.4,0.5c0.5,0,0.9-0.1,1.3-0.3c0.4-0.2,0.6-0.5,0.8-0.7V11.3z"/>
	<path id="XMLID_96_" class="st0" d="M329.7,16.1V9.9c0-1-0.2-1.7-0.5-2.1s-0.8-0.6-1.5-0.6s-1.1,0.2-1.5,0.6
		c-0.3,0.4-0.5,1.1-0.5,2.1v6.4h-3.1V4.5h3.1v0.8c0.3-0.3,0.6-0.5,1.1-0.7s1-0.3,1.6-0.3c1.5,0,2.6,0.5,3.3,1.4s1,2.2,1,3.9v6.6
		H329.7z"/>
	<path id="XMLID_93_" class="st0" d="M339,1.8c0,0.5-0.2,0.9-0.5,1.2c-0.3,0.3-0.8,0.5-1.2,0.5S336.4,3.4,336,3
		c-0.3-0.3-0.5-0.8-0.5-1.2s0.2-0.9,0.5-1.2c0.3-0.3,0.8-0.5,1.2-0.5s0.9,0.2,1.2,0.5C338.8,0.9,339,1.3,339,1.8z M335.7,16.1V4.5
		h3.1v11.6H335.7z"/>
	<path id="XMLID_91_" class="st0" d="M351.1,12.8c0,0.7-0.1,1.2-0.4,1.7s-0.6,0.8-1,1.1c-0.4,0.3-0.9,0.5-1.5,0.6
		c-0.6,0.1-1.2,0.2-1.8,0.2c-0.9,0-1.8-0.1-2.7-0.4c-0.8-0.2-1.6-0.6-2.2-1l1-2.3c0.6,0.3,1.3,0.6,1.9,0.8s1.4,0.3,2.1,0.3
		c0.6,0,1-0.1,1.2-0.2s0.3-0.4,0.3-0.7c0-0.3-0.1-0.5-0.4-0.6c-0.2-0.2-0.7-0.3-1.3-0.5c-0.7-0.2-1.3-0.4-1.9-0.6
		c-0.6-0.2-1.1-0.5-1.5-0.8c-0.4-0.3-0.7-0.6-0.9-1.1c-0.2-0.4-0.3-0.9-0.3-1.5c0-0.6,0.1-1.1,0.3-1.6c0.2-0.4,0.5-0.8,1-1.1
		c0.4-0.3,0.9-0.5,1.5-0.6s1.2-0.2,1.9-0.2c0.7,0,1.5,0.1,2.2,0.3c0.8,0.2,1.4,0.5,2.1,0.8l-1,2.4c-0.6-0.3-1.2-0.5-1.8-0.7
		c-0.6-0.2-1.1-0.2-1.6-0.2c-0.6,0-1,0.1-1.3,0.2c-0.2,0.1-0.3,0.3-0.3,0.6c0,0.1,0,0.2,0.1,0.3c0.1,0.1,0.2,0.2,0.3,0.3
		s0.4,0.2,0.7,0.3s0.7,0.3,1.3,0.4c0.5,0.2,1,0.4,1.5,0.6c0.5,0.2,0.9,0.4,1.2,0.7s0.6,0.6,0.8,1C350.9,11.7,351.1,12.2,351.1,12.8z
		"/>
	<path id="XMLID_89_" class="st0" d="M367.3,16.1V9.9c0-1-0.2-1.7-0.5-2.1c-0.3-0.4-0.8-0.6-1.4-0.6c-0.6,0-1.1,0.2-1.4,0.6
		c-0.3,0.4-0.5,1.1-0.5,2.1v6.4h-3.1V9.9c0-1-0.2-1.7-0.5-2.1s-0.8-0.6-1.4-0.6s-1.1,0.2-1.4,0.6c-0.3,0.4-0.5,1.1-0.5,2.1v6.4h-3.1
		V4.5h3.1v0.8c0.3-0.3,0.6-0.5,1-0.7s0.9-0.3,1.5-0.3c0.7,0,1.4,0.1,1.8,0.3c0.5,0.2,0.9,0.6,1.4,1.1c0.4-0.4,0.9-0.8,1.4-1.1
		s1.3-0.4,2.3-0.4c0.7,0,1.4,0.1,1.9,0.4c0.5,0.2,1,0.6,1.3,1.1c0.3,0.5,0.6,1,0.7,1.7c0.2,0.7,0.2,1.4,0.2,2.2v6.6H367.3z"/>
	<path id="XMLID_86_" class="st0" d="M389.6,10.3c0,0.9-0.1,1.7-0.4,2.4c-0.3,0.7-0.6,1.4-1.1,1.9c-0.5,0.5-1,0.9-1.7,1.2
		c-0.7,0.3-1.4,0.4-2.1,0.4s-1.5-0.1-2.1-0.4c-0.6-0.3-1.2-0.7-1.7-1.2c-0.5-0.5-0.8-1.2-1.1-1.9c-0.3-0.7-0.4-1.6-0.4-2.4
		s0.1-1.7,0.4-2.4c0.3-0.7,0.6-1.4,1.1-1.9c0.5-0.5,1-1,1.7-1.3c0.6-0.3,1.3-0.4,2.1-0.4s1.5,0.1,2.1,0.4c0.6,0.3,1.2,0.7,1.7,1.3
		c0.5,0.5,0.8,1.2,1.1,1.9C389.5,8.6,389.6,9.5,389.6,10.3z M386.5,10.3c0-0.9-0.2-1.6-0.5-2.2c-0.4-0.6-0.9-0.9-1.6-0.9
		s-1.3,0.3-1.6,0.9c-0.3,0.6-0.5,1.3-0.5,2.3s0.2,1.7,0.5,2.2c0.3,0.6,0.9,0.9,1.6,0.9c0.4,0,0.7-0.1,1-0.3c0.3-0.2,0.5-0.4,0.7-0.7
		c0.2-0.3,0.3-0.6,0.4-1C386.5,11.1,386.5,10.7,386.5,10.3z"/>
	<path id="XMLID_84_" class="st0" d="M397.5,2.7c-0.2,0-0.4-0.1-0.6-0.1c-0.5,0-0.8,0.1-0.9,0.2s-0.2,0.4-0.2,0.7v1h2v2.9h-2v8.7
		h-3.1V7.4h-1.4V4.5h1.4V3.1c0-1.1,0.3-1.9,0.9-2.3c0.6-0.5,1.4-0.7,2.5-0.7c0.8,0,1.4,0.1,1.9,0.3v2.5
		C397.8,2.8,397.7,2.7,397.5,2.7z"/>
	<path id="XMLID_81_" class="st0" d="M417.4,16.1l-1.2-3.5h-5.7l-1.2,3.5H406l5.9-15.5h3l5.9,15.5H417.4z M414.1,6.9
		c-0.2-0.5-0.3-0.9-0.5-1.3s-0.2-0.8-0.3-1.1c-0.1,0.3-0.2,0.7-0.3,1.1c-0.1,0.4-0.3,0.9-0.5,1.3l-1,2.8h3.5L414.1,6.9z"/>
	<path id="XMLID_79_" class="st0" d="M431.9,14.8c-0.3,0.3-0.7,0.6-1,0.8c-0.4,0.2-0.8,0.4-1.3,0.5c-0.5,0.1-1,0.2-1.6,0.2
		c-0.8,0-1.5-0.1-2.1-0.4c-0.7-0.3-1.2-0.7-1.7-1.2c-0.5-0.5-0.9-1.2-1.2-1.9c-0.3-0.7-0.4-1.6-0.4-2.4s0.1-1.7,0.4-2.4
		c0.3-0.7,0.7-1.4,1.2-1.9c0.5-0.5,1.1-1,1.8-1.3c0.7-0.3,1.4-0.4,2.2-0.4c1.1,0,2,0.2,2.8,0.7c0.7,0.5,1.4,1.1,1.8,1.8l-2,2
		c-0.3-0.5-0.7-0.9-1.1-1.2s-0.9-0.5-1.5-0.5c-0.7,0-1.3,0.3-1.8,0.8c-0.4,0.6-0.7,1.3-0.7,2.3c0,0.9,0.2,1.7,0.7,2.3
		c0.4,0.6,1,0.9,1.8,0.9c0.6,0,1.1-0.1,1.5-0.4c0.4-0.3,0.8-0.6,1.2-1.1l1.9,1.8C432.5,14.2,432.2,14.5,431.9,14.8z"/>
	<path id="XMLID_77_" class="st0" d="M441.6,15.7c-0.3,0.2-0.6,0.4-1,0.5c-0.4,0.1-0.9,0.2-1.4,0.2s-0.9-0.1-1.3-0.3
		c-0.4-0.2-0.7-0.4-1-0.7c-0.3-0.3-0.5-0.7-0.6-1.1c-0.1-0.4-0.2-0.9-0.2-1.4V7.4h-1.9V4.5h1.9v-3l3.1-1.5v4.5h2.8v2.9h-2.8v4.7
		c0,0.6,0.1,0.9,0.3,1.1c0.2,0.2,0.5,0.3,0.8,0.3c0.3,0,0.5-0.1,0.8-0.2c0.2-0.1,0.6-0.4,0.9-0.7L441.6,15.7z"/>
	<path id="XMLID_74_" class="st0" d="M448.3,1.8c0,0.5-0.2,0.9-0.5,1.2c-0.3,0.3-0.8,0.5-1.2,0.5s-0.9-0.2-1.2-0.5
		c-0.3-0.3-0.5-0.8-0.5-1.2s0.2-0.9,0.5-1.2c0.3-0.3,0.8-0.5,1.2-0.5s0.9,0.2,1.2,0.5C448.1,0.9,448.3,1.3,448.3,1.8z M445,16.1V4.5
		h3.1v11.6H445z"/>
	<path id="XMLID_71_" class="st0" d="M461,10.3c0,0.9-0.1,1.7-0.4,2.4c-0.3,0.7-0.6,1.4-1.1,1.9c-0.5,0.5-1,0.9-1.7,1.2
		c-0.7,0.3-1.4,0.4-2.1,0.4s-1.5-0.1-2.1-0.4c-0.6-0.3-1.2-0.7-1.7-1.2c-0.5-0.5-0.8-1.2-1.1-1.9c-0.3-0.7-0.4-1.6-0.4-2.4
		s0.1-1.7,0.4-2.4c0.3-0.7,0.6-1.4,1.1-1.9c0.5-0.5,1-1,1.7-1.3c0.6-0.3,1.3-0.4,2.1-0.4s1.5,0.1,2.1,0.4c0.6,0.3,1.2,0.7,1.7,1.3
		c0.5,0.5,0.8,1.2,1.1,1.9C460.9,8.6,461,9.5,461,10.3z M457.9,10.3c0-0.9-0.2-1.6-0.5-2.2c-0.4-0.6-0.9-0.9-1.6-0.9
		s-1.3,0.3-1.6,0.9c-0.3,0.6-0.5,1.3-0.5,2.3s0.2,1.7,0.5,2.2c0.3,0.6,0.9,0.9,1.6,0.9c0.4,0,0.7-0.1,1-0.3c0.3-0.2,0.5-0.4,0.7-0.7
		c0.2-0.3,0.3-0.6,0.4-1C457.9,11.1,457.9,10.7,457.9,10.3z"/>
	<path id="XMLID_69_" class="st0" d="M470.4,16.1V9.9c0-1-0.2-1.7-0.5-2.1s-0.8-0.6-1.5-0.6s-1.1,0.2-1.5,0.6
		c-0.3,0.4-0.5,1.1-0.5,2.1v6.4h-3.1V4.5h3.1v0.8c0.3-0.3,0.6-0.5,1.1-0.7s1-0.3,1.6-0.3c1.5,0,2.6,0.5,3.3,1.4s1,2.2,1,3.9v6.6
		H470.4z"/>
	<path id="XMLID_66_" class="st0" d="M489.2,16.1v-0.8c-0.3,0.3-0.7,0.5-1.1,0.7c-0.5,0.2-1,0.3-1.5,0.3c-0.5,0-1.1-0.1-1.6-0.3
		c-0.5-0.2-1-0.4-1.4-0.8c-0.4-0.3-0.7-0.8-1-1.3s-0.4-1.1-0.4-1.8c0-0.6,0.1-1.2,0.4-1.7c0.2-0.5,0.6-0.9,1-1.2
		c0.4-0.3,0.9-0.6,1.5-0.7s1.2-0.2,1.8-0.2c0.5,0,1,0,1.3,0.1s0.7,0.2,0.9,0.3V8.3c0-0.4-0.1-0.8-0.4-1.1s-0.7-0.4-1.3-0.4
		c-0.4,0-0.7,0-0.9,0S486,6.9,485.8,7c-0.2,0.1-0.5,0.1-0.7,0.2c-0.2,0.1-0.5,0.2-0.8,0.4l-1.2-2.1c0.3-0.2,0.7-0.4,1-0.5
		s0.6-0.3,1-0.4s0.7-0.2,1.1-0.2c0.4-0.1,0.8-0.1,1.3-0.1c0.7,0,1.4,0.1,1.9,0.3c0.6,0.2,1.1,0.4,1.5,0.8s0.7,0.8,1,1.3
		c0.2,0.5,0.3,1.1,0.3,1.7v7.8H489.2z M489.2,11.3c-0.3-0.2-0.6-0.3-0.9-0.4c-0.3-0.1-0.7-0.1-1.3-0.1c-0.6,0-1,0.1-1.3,0.4
		c-0.3,0.3-0.5,0.6-0.5,1.1c0,0.4,0.1,0.8,0.4,1.1c0.3,0.3,0.7,0.5,1.4,0.5c0.5,0,0.9-0.1,1.3-0.3c0.4-0.2,0.6-0.5,0.8-0.7V11.3z"/>
	<path id="XMLID_64_" class="st0" d="M502.1,16.1V9.9c0-1-0.2-1.7-0.5-2.1s-0.8-0.6-1.5-0.6s-1.1,0.2-1.5,0.6
		c-0.3,0.4-0.5,1.1-0.5,2.1v6.4h-3.1V4.5h3.1v0.8c0.3-0.3,0.6-0.5,1.1-0.7s1-0.3,1.6-0.3c1.5,0,2.6,0.5,3.3,1.4s1,2.2,1,3.9v6.6
		H502.1z"/>
	<path id="XMLID_61_" class="st0" d="M514.4,16.1v-0.7c-0.3,0.3-0.6,0.5-1,0.7c-0.4,0.2-0.9,0.3-1.4,0.3c-0.6,0-1.2-0.1-1.7-0.4
		c-0.5-0.2-1-0.6-1.4-1.1c-0.4-0.5-0.7-1.2-1-1.9c-0.2-0.8-0.4-1.7-0.4-2.8c0-0.9,0.1-1.7,0.3-2.4c0.2-0.7,0.5-1.3,0.9-1.9
		c0.4-0.5,0.9-0.9,1.4-1.2s1.2-0.4,1.9-0.4c0.5,0,1,0.1,1.4,0.3c0.4,0.2,0.8,0.4,1.1,0.6V1.5l3.1-1.5v16.1H514.4z M514.4,8.1
		c-0.5-0.7-1.2-1-2.1-1c-1.2,0-1.8,1-1.8,3c0,1.2,0.2,2.1,0.5,2.6c0.4,0.5,0.8,0.8,1.5,0.8c0.5,0,0.8-0.1,1.1-0.3
		c0.3-0.2,0.5-0.4,0.8-0.7V8.1z"/>
	<path id="XMLID_58_" class="st0" d="M539.5,5.6c0,0.9-0.1,1.7-0.4,2.3c-0.3,0.6-0.7,1.2-1.2,1.6s-1.1,0.7-1.8,0.9
		c-0.7,0.2-1.4,0.3-2.2,0.3h-3.4v5.5h-3.1V0.6h6.8c0.7,0,1.4,0.1,2.1,0.3c0.6,0.2,1.2,0.5,1.7,0.9s0.9,0.9,1.2,1.5
		S539.5,4.7,539.5,5.6z M536.3,5.6c0-0.7-0.2-1.2-0.6-1.5c-0.4-0.3-1-0.5-1.7-0.5h-3.6v4h3.6C535.6,7.6,536.3,7,536.3,5.6z"/>
	<path id="XMLID_56_" class="st0" d="M549,16.1V9.9c0-1-0.2-1.7-0.5-2.1s-0.8-0.6-1.5-0.6s-1.1,0.2-1.5,0.6
		c-0.3,0.4-0.5,1.1-0.5,2.1v6.4h-3.1V1.5L545,0v5.3c0.3-0.3,0.6-0.5,1.1-0.7s1-0.3,1.6-0.3c1.5,0,2.6,0.5,3.3,1.4s1,2.2,1,3.9v6.6
		H549z"/>
	<path id="XMLID_53_" class="st0" d="M561.3,16.1v-0.8c-0.3,0.3-0.7,0.5-1.1,0.7c-0.5,0.2-1,0.3-1.5,0.3c-0.5,0-1.1-0.1-1.6-0.3
		c-0.5-0.2-1-0.4-1.4-0.8c-0.4-0.3-0.7-0.8-1-1.3s-0.4-1.1-0.4-1.8c0-0.6,0.1-1.2,0.4-1.7c0.2-0.5,0.6-0.9,1-1.2
		c0.4-0.3,0.9-0.6,1.5-0.7s1.2-0.2,1.8-0.2c0.5,0,1,0,1.3,0.1s0.7,0.2,0.9,0.3V8.3c0-0.4-0.1-0.8-0.4-1.1s-0.7-0.4-1.3-0.4
		c-0.4,0-0.7,0-0.9,0s-0.5,0.1-0.8,0.1c-0.2,0.1-0.5,0.1-0.7,0.2c-0.2,0.1-0.5,0.2-0.8,0.4l-1.2-2.1c0.3-0.2,0.7-0.4,1-0.5
		s0.6-0.3,1-0.4s0.7-0.2,1.1-0.2c0.4-0.1,0.8-0.1,1.3-0.1c0.7,0,1.4,0.1,1.9,0.3c0.6,0.2,1.1,0.4,1.5,0.8s0.7,0.8,1,1.3
		c0.2,0.5,0.3,1.1,0.3,1.7v7.8H561.3z M561.3,11.3c-0.3-0.2-0.6-0.3-0.9-0.4c-0.3-0.1-0.7-0.1-1.3-0.1c-0.6,0-1,0.1-1.3,0.4
		c-0.3,0.3-0.5,0.6-0.5,1.1c0,0.4,0.1,0.8,0.4,1.1c0.3,0.3,0.7,0.5,1.4,0.5c0.5,0,0.9-0.1,1.3-0.3c0.4-0.2,0.6-0.5,0.8-0.7V11.3z"/>
	<path id="XMLID_51_" class="st0" d="M574,8.1c-0.3-0.2-0.5-0.4-0.8-0.5c-0.3-0.1-0.6-0.2-1-0.2c-0.3,0-0.6,0-0.8,0.1
		c-0.2,0.1-0.5,0.2-0.6,0.4c-0.2,0.2-0.3,0.5-0.4,0.8c-0.1,0.3-0.1,0.7-0.1,1.2v6.3h-3.1V4.5h3.1v0.8c0.3-0.3,0.6-0.5,1-0.7
		c0.4-0.2,0.9-0.3,1.4-0.3c0.5,0,0.9,0.1,1.3,0.3c0.4,0.2,0.6,0.4,0.9,0.6L574,8.1z"/>
	<path id="XMLID_49_" class="st0" d="M590.3,16.1V9.9c0-1-0.2-1.7-0.5-2.1c-0.3-0.4-0.8-0.6-1.4-0.6c-0.6,0-1.1,0.2-1.4,0.6
		c-0.3,0.4-0.5,1.1-0.5,2.1v6.4h-3.1V9.9c0-1-0.2-1.7-0.5-2.1s-0.8-0.6-1.4-0.6s-1.1,0.2-1.4,0.6c-0.3,0.4-0.5,1.1-0.5,2.1v6.4h-3.1
		V4.5h3.1v0.8c0.3-0.3,0.6-0.5,1-0.7s0.9-0.3,1.5-0.3c0.7,0,1.4,0.1,1.8,0.3c0.5,0.2,0.9,0.6,1.4,1.1c0.4-0.4,0.9-0.8,1.4-1.1
		s1.3-0.4,2.3-0.4c0.7,0,1.4,0.1,1.9,0.4c0.5,0.2,1,0.6,1.3,1.1c0.3,0.5,0.6,1,0.7,1.7c0.2,0.7,0.2,1.4,0.2,2.2v6.6H590.3z"/>
	<path id="XMLID_46_" class="st0" d="M602.6,16.1v-0.8c-0.3,0.3-0.7,0.5-1.1,0.7c-0.5,0.2-1,0.3-1.5,0.3c-0.5,0-1.1-0.1-1.6-0.3
		c-0.5-0.2-1-0.4-1.4-0.8c-0.4-0.3-0.7-0.8-1-1.3s-0.4-1.1-0.4-1.8c0-0.6,0.1-1.2,0.4-1.7c0.2-0.5,0.6-0.9,1-1.2
		c0.4-0.3,0.9-0.6,1.5-0.7s1.2-0.2,1.8-0.2c0.5,0,1,0,1.3,0.1s0.7,0.2,0.9,0.3V8.3c0-0.4-0.1-0.8-0.4-1.1s-0.7-0.4-1.3-0.4
		c-0.4,0-0.7,0-0.9,0s-0.5,0.1-0.8,0.1c-0.2,0.1-0.5,0.1-0.7,0.2c-0.2,0.1-0.5,0.2-0.8,0.4l-1.2-2.1c0.3-0.2,0.7-0.4,1-0.5
		s0.6-0.3,1-0.4s0.7-0.2,1.1-0.2c0.4-0.1,0.8-0.1,1.3-0.1c0.7,0,1.4,0.1,1.9,0.3c0.6,0.2,1.1,0.4,1.5,0.8s0.7,0.8,1,1.3
		c0.2,0.5,0.3,1.1,0.3,1.7v7.8H602.6z M602.6,11.3c-0.3-0.2-0.6-0.3-0.9-0.4c-0.3-0.1-0.7-0.1-1.3-0.1c-0.6,0-1,0.1-1.3,0.4
		c-0.3,0.3-0.5,0.6-0.5,1.1c0,0.4,0.1,0.8,0.4,1.1c0.3,0.3,0.7,0.5,1.4,0.5c0.5,0,0.9-0.1,1.3-0.3c0.4-0.2,0.6-0.5,0.8-0.7V11.3z"/>
	<path id="XMLID_44_" class="st0" d="M617.2,14.8c-0.3,0.3-0.7,0.6-1,0.8c-0.4,0.2-0.8,0.4-1.3,0.5c-0.5,0.1-1,0.2-1.6,0.2
		c-0.8,0-1.5-0.1-2.1-0.4c-0.7-0.3-1.2-0.7-1.7-1.2c-0.5-0.5-0.9-1.2-1.2-1.9c-0.3-0.7-0.4-1.6-0.4-2.4s0.1-1.7,0.4-2.4
		c0.3-0.7,0.7-1.4,1.2-1.9c0.5-0.5,1.1-1,1.8-1.3c0.7-0.3,1.4-0.4,2.2-0.4c1.1,0,2,0.2,2.8,0.7c0.7,0.5,1.4,1.1,1.8,1.8l-2,2
		c-0.3-0.5-0.7-0.9-1.1-1.2s-0.9-0.5-1.5-0.5c-0.7,0-1.3,0.3-1.8,0.8c-0.4,0.6-0.7,1.3-0.7,2.3c0,0.9,0.2,1.7,0.7,2.3
		c0.4,0.6,1,0.9,1.8,0.9c0.6,0,1.1-0.1,1.5-0.4c0.4-0.3,0.8-0.6,1.2-1.1l1.9,1.8C617.8,14.2,617.5,14.5,617.2,14.8z"/>
	<path id="XMLID_41_" class="st0" d="M630.3,10.3c0,0.9-0.1,1.7-0.4,2.4c-0.3,0.7-0.6,1.4-1.1,1.9c-0.5,0.5-1,0.9-1.7,1.2
		c-0.7,0.3-1.4,0.4-2.1,0.4s-1.5-0.1-2.1-0.4c-0.6-0.3-1.2-0.7-1.7-1.2c-0.5-0.5-0.8-1.2-1.1-1.9c-0.3-0.7-0.4-1.6-0.4-2.4
		s0.1-1.7,0.4-2.4c0.3-0.7,0.6-1.4,1.1-1.9c0.5-0.5,1-1,1.7-1.3c0.6-0.3,1.3-0.4,2.1-0.4s1.5,0.1,2.1,0.4c0.6,0.3,1.2,0.7,1.7,1.3
		c0.5,0.5,0.8,1.2,1.1,1.9C630.2,8.6,630.3,9.5,630.3,10.3z M627.2,10.3c0-0.9-0.2-1.6-0.5-2.2c-0.4-0.6-0.9-0.9-1.6-0.9
		s-1.3,0.3-1.6,0.9c-0.3,0.6-0.5,1.3-0.5,2.3s0.2,1.7,0.5,2.2c0.3,0.6,0.9,0.9,1.6,0.9c0.4,0,0.7-0.1,1-0.3c0.3-0.2,0.5-0.4,0.7-0.7
		c0.2-0.3,0.3-0.6,0.4-1C627.1,11.1,627.2,10.7,627.2,10.3z"/>
	<path id="XMLID_39_" class="st0" d="M632.8,16.1V1.5l3.1-1.5v16.1H632.8z"/>
	<path id="XMLID_36_" class="st0" d="M648.8,10.3c0,0.9-0.1,1.7-0.4,2.4c-0.3,0.7-0.6,1.4-1.1,1.9c-0.5,0.5-1,0.9-1.7,1.2
		c-0.7,0.3-1.4,0.4-2.1,0.4s-1.5-0.1-2.1-0.4c-0.6-0.3-1.2-0.7-1.7-1.2c-0.5-0.5-0.8-1.2-1.1-1.9c-0.3-0.7-0.4-1.6-0.4-2.4
		s0.1-1.7,0.4-2.4c0.3-0.7,0.6-1.4,1.1-1.9c0.5-0.5,1-1,1.7-1.3c0.6-0.3,1.3-0.4,2.1-0.4s1.5,0.1,2.1,0.4c0.6,0.3,1.2,0.7,1.7,1.3
		c0.5,0.5,0.8,1.2,1.1,1.9C648.7,8.6,648.8,9.5,648.8,10.3z M645.7,10.3c0-0.9-0.2-1.6-0.5-2.2c-0.4-0.6-0.9-0.9-1.6-0.9
		s-1.3,0.3-1.6,0.9c-0.3,0.6-0.5,1.3-0.5,2.3s0.2,1.7,0.5,2.2c0.3,0.6,0.9,0.9,1.6,0.9c0.4,0,0.7-0.1,1-0.3c0.3-0.2,0.5-0.4,0.7-0.7
		c0.2-0.3,0.3-0.6,0.4-1C645.7,11.1,645.7,10.7,645.7,10.3z"/>
	<path id="XMLID_33_" class="st0" d="M660.6,14.2c0,1-0.1,1.8-0.2,2.5c-0.1,0.7-0.4,1.4-0.8,1.9c-0.4,0.5-0.9,0.9-1.5,1.2
		c-0.6,0.3-1.5,0.5-2.5,0.6l-1.1-2.3c0.6-0.1,1.1-0.2,1.5-0.3c0.4-0.1,0.7-0.3,0.9-0.5c0.2-0.2,0.4-0.5,0.5-0.8
		c0.1-0.3,0.1-0.7,0.1-1.1c-0.3,0.3-0.6,0.5-1,0.7c-0.4,0.2-0.9,0.3-1.4,0.3c-0.6,0-1.2-0.1-1.7-0.4c-0.5-0.2-1-0.6-1.4-1.1
		c-0.4-0.5-0.7-1.2-1-1.9c-0.2-0.8-0.4-1.7-0.4-2.8c0-0.9,0.1-1.7,0.3-2.4c0.2-0.7,0.5-1.3,0.9-1.9c0.4-0.5,0.9-0.9,1.4-1.2
		s1.2-0.4,1.9-0.4c0.5,0,1,0.1,1.4,0.3c0.4,0.2,0.8,0.4,1.1,0.6V4.5h3.1V14.2z M657.6,8.1c-0.5-0.7-1.2-1-2.1-1c-1.2,0-1.8,1-1.8,3
		c0,1.2,0.2,2.1,0.5,2.6c0.4,0.5,0.8,0.8,1.5,0.8c0.5,0,0.8-0.1,1.1-0.3c0.3-0.2,0.5-0.4,0.8-0.7V8.1z"/>
	<path id="XMLID_30_" class="st0" d="M667,1.8c0,0.5-0.2,0.9-0.5,1.2c-0.3,0.3-0.8,0.5-1.2,0.5s-0.9-0.2-1.2-0.5
		c-0.3-0.3-0.5-0.8-0.5-1.2s0.2-0.9,0.5-1.2c0.3-0.3,0.8-0.5,1.2-0.5s0.9,0.2,1.2,0.5C666.9,0.9,667,1.3,667,1.8z M663.8,16.1V4.5
		h3.1v11.6H663.8z"/>
	<path id="XMLID_28_" class="st0" d="M678.6,14.8c-0.3,0.3-0.7,0.6-1,0.8c-0.4,0.2-0.8,0.4-1.3,0.5c-0.5,0.1-1,0.2-1.6,0.2
		c-0.8,0-1.5-0.1-2.1-0.4c-0.7-0.3-1.2-0.7-1.7-1.2c-0.5-0.5-0.9-1.2-1.2-1.9c-0.3-0.7-0.4-1.6-0.4-2.4s0.1-1.7,0.4-2.4
		c0.3-0.7,0.7-1.4,1.2-1.9c0.5-0.5,1.1-1,1.8-1.3c0.7-0.3,1.4-0.4,2.2-0.4c1.1,0,2,0.2,2.8,0.7c0.7,0.5,1.4,1.1,1.8,1.8l-2,2
		c-0.3-0.5-0.7-0.9-1.1-1.2s-0.9-0.5-1.5-0.5c-0.7,0-1.3,0.3-1.8,0.8c-0.4,0.6-0.7,1.3-0.7,2.3c0,0.9,0.2,1.7,0.7,2.3
		c0.4,0.6,1,0.9,1.8,0.9c0.6,0,1.1-0.1,1.5-0.4c0.4-0.3,0.8-0.6,1.2-1.1l1.9,1.8C679.2,14.2,678.9,14.5,678.6,14.8z"/>
	<path id="XMLID_25_" class="st0" d="M688.2,16.1v-0.8c-0.3,0.3-0.7,0.5-1.1,0.7c-0.5,0.2-1,0.3-1.5,0.3c-0.5,0-1.1-0.1-1.6-0.3
		c-0.5-0.2-1-0.4-1.4-0.8c-0.4-0.3-0.7-0.8-1-1.3s-0.4-1.1-0.4-1.8c0-0.6,0.1-1.2,0.4-1.7c0.2-0.5,0.6-0.9,1-1.2
		c0.4-0.3,0.9-0.6,1.5-0.7s1.2-0.2,1.8-0.2c0.5,0,1,0,1.3,0.1s0.7,0.2,0.9,0.3V8.3c0-0.4-0.1-0.8-0.4-1.1s-0.7-0.4-1.3-0.4
		c-0.4,0-0.7,0-0.9,0S685,6.9,684.8,7c-0.2,0.1-0.5,0.1-0.7,0.2c-0.2,0.1-0.5,0.2-0.8,0.4l-1.2-2.1c0.3-0.2,0.7-0.4,1-0.5
		s0.6-0.3,1-0.4s0.7-0.2,1.1-0.2c0.4-0.1,0.8-0.1,1.3-0.1c0.7,0,1.4,0.1,1.9,0.3c0.6,0.2,1.1,0.4,1.5,0.8s0.7,0.8,1,1.3
		c0.2,0.5,0.3,1.1,0.3,1.7v7.8H688.2z M688.2,11.3c-0.3-0.2-0.6-0.3-0.9-0.4c-0.3-0.1-0.7-0.1-1.3-0.1c-0.6,0-1,0.1-1.3,0.4
		c-0.3,0.3-0.5,0.6-0.5,1.1c0,0.4,0.1,0.8,0.4,1.1c0.3,0.3,0.7,0.5,1.4,0.5c0.5,0,0.9-0.1,1.3-0.3c0.4-0.2,0.6-0.5,0.8-0.7V11.3z"/>
	<path id="XMLID_23_" class="st0" d="M694.2,16.1V1.5l3.1-1.5v16.1H694.2z"/>
	<path id="XMLID_20_" class="st0" d="M719.4,5.6c0,0.9-0.1,1.7-0.4,2.3c-0.3,0.6-0.7,1.2-1.2,1.6s-1.1,0.7-1.8,0.9
		c-0.7,0.2-1.4,0.3-2.2,0.3h-3.4v5.5h-3.1V0.6h6.8c0.7,0,1.4,0.1,2.1,0.3c0.6,0.2,1.2,0.5,1.7,0.9s0.9,0.9,1.2,1.5
		S719.4,4.7,719.4,5.6z M716.2,5.6c0-0.7-0.2-1.2-0.6-1.5c-0.4-0.3-1-0.5-1.7-0.5h-3.6v4h3.6C715.5,7.6,716.2,7,716.2,5.6z"/>
	<path id="XMLID_18_" class="st0" d="M728.6,8.1c-0.3-0.2-0.5-0.4-0.8-0.5c-0.3-0.1-0.6-0.2-1-0.2c-0.3,0-0.6,0-0.8,0.1
		c-0.2,0.1-0.5,0.2-0.6,0.4c-0.2,0.2-0.3,0.5-0.4,0.8c-0.1,0.3-0.1,0.7-0.1,1.2v6.3h-3.1V4.5h3.1v0.8c0.3-0.3,0.6-0.5,1-0.7
		c0.4-0.2,0.9-0.3,1.4-0.3c0.5,0,0.9,0.1,1.3,0.3c0.4,0.2,0.6,0.4,0.9,0.6L728.6,8.1z"/>
	<path id="XMLID_15_" class="st0" d="M741.2,10.3c0,0.9-0.1,1.7-0.4,2.4c-0.3,0.7-0.6,1.4-1.1,1.9c-0.5,0.5-1,0.9-1.7,1.2
		c-0.7,0.3-1.4,0.4-2.1,0.4s-1.5-0.1-2.1-0.4c-0.6-0.3-1.2-0.7-1.7-1.2c-0.5-0.5-0.8-1.2-1.1-1.9c-0.3-0.7-0.4-1.6-0.4-2.4
		s0.1-1.7,0.4-2.4c0.3-0.7,0.6-1.4,1.1-1.9c0.5-0.5,1-1,1.7-1.3c0.6-0.3,1.3-0.4,2.1-0.4s1.5,0.1,2.1,0.4c0.6,0.3,1.2,0.7,1.7,1.3
		c0.5,0.5,0.8,1.2,1.1,1.9C741.1,8.6,741.2,9.5,741.2,10.3z M738.1,10.3c0-0.9-0.2-1.6-0.5-2.2c-0.4-0.6-0.9-0.9-1.6-0.9
		s-1.3,0.3-1.6,0.9c-0.3,0.6-0.5,1.3-0.5,2.3s0.2,1.7,0.5,2.2c0.3,0.6,0.9,0.9,1.6,0.9c0.4,0,0.7-0.1,1-0.3c0.3-0.2,0.5-0.4,0.7-0.7
		c0.2-0.3,0.3-0.6,0.4-1C738.1,11.1,738.1,10.7,738.1,10.3z"/>
	<path id="XMLID_11_" class="st0" d="M749.6,2.9c-0.2-0.1-0.3-0.1-0.5-0.2c-0.2,0-0.4-0.1-0.6-0.1c-0.5,0-0.8,0.1-0.9,0.2
		s-0.2,0.4-0.2,0.7v1h2v2.9h-2v8.7h-3.1V7.4h-1.4V4.5h1.4V3.1c0-1.1,0.3-1.9,0.9-2.3c0.6-0.5,1.4-0.7,2.5-0.7c0.8,0,1.4,0.1,1.9,0.3
		V2.9z M755,1.8c0,0.5-0.2,0.9-0.5,1.2s-0.8,0.5-1.2,0.5c-0.5,0-0.9-0.2-1.2-0.5s-0.5-0.8-0.5-1.2s0.2-0.9,0.5-1.2s0.8-0.5,1.2-0.5
		c0.5,0,0.9,0.2,1.2,0.5S755,1.3,755,1.8z M751.7,16.1V4.5h3.1v11.6H751.7z"/>
	<path id="XMLID_9_" class="st0" d="M758,16.1V1.5L761,0v16.1H758z"/>
	<path id="XMLID_6_" class="st0" d="M773.6,10.3c0,0.2,0,0.4,0,0.6c0,0.2,0,0.3,0,0.4h-7c0,0.4,0.1,0.7,0.3,1s0.3,0.5,0.6,0.7
		c0.2,0.2,0.5,0.3,0.7,0.4s0.5,0.1,0.8,0.1c0.4,0,0.8-0.1,1.2-0.2c0.3-0.1,0.6-0.3,0.8-0.6l2.2,1.8c-0.5,0.6-1.1,1.1-1.8,1.4
		c-0.8,0.3-1.5,0.5-2.3,0.5c-0.8,0-1.6-0.1-2.3-0.4s-1.2-0.7-1.7-1.2c-0.5-0.5-0.8-1.2-1.1-1.9s-0.4-1.6-0.4-2.5
		c0-0.9,0.1-1.7,0.4-2.4c0.3-0.7,0.6-1.4,1.1-1.9c0.5-0.5,1-1,1.6-1.3c0.6-0.3,1.3-0.4,2-0.4c0.8,0,1.5,0.2,2.1,0.5
		c0.6,0.3,1.1,0.8,1.5,1.3c0.4,0.6,0.7,1.2,1,1.9C773.5,8.7,773.6,9.5,773.6,10.3z M770.6,9c0-0.3-0.1-0.5-0.2-0.8
		c-0.1-0.2-0.2-0.5-0.4-0.7c-0.2-0.2-0.4-0.4-0.6-0.5c-0.3-0.1-0.5-0.2-0.9-0.2c-0.6,0-1,0.2-1.3,0.6c-0.3,0.4-0.5,0.9-0.6,1.5
		H770.6z"/>
	<path id="XMLID_4_" class="st0" d="M779.6,14.3c0,0.3-0.1,0.5-0.2,0.8c-0.1,0.3-0.3,0.5-0.5,0.7c-0.2,0.2-0.4,0.3-0.7,0.5
		c-0.3,0.1-0.5,0.2-0.8,0.2s-0.5-0.1-0.8-0.2c-0.3-0.1-0.5-0.3-0.7-0.5c-0.2-0.2-0.3-0.4-0.5-0.7c-0.1-0.3-0.2-0.5-0.2-0.8
		s0.1-0.5,0.2-0.8c0.1-0.3,0.3-0.5,0.5-0.7c0.2-0.2,0.4-0.3,0.7-0.5c0.3-0.1,0.5-0.2,0.8-0.2s0.5,0.1,0.8,0.2
		c0.3,0.1,0.5,0.3,0.7,0.5c0.2,0.2,0.3,0.4,0.5,0.7C779.6,13.8,779.6,14,779.6,14.3z"/>
</g>
<path id="XMLID_2_" class="st0" d="M4,15.5c0,0,3.7-8,17.5-8c13.8,0,21.5-4.8,21.5-4.8s-9.8,10.2-19.5,10.2C13.8,12.8,8,12.8,4,15.5
	"/>
<path id="XMLID_1_" class="st1" d="M0,23c0,0,3.7-8,17.5-8C31.3,15,39,10.2,39,10.2s-9.8,10.2-19.5,10.2C9.8,20.4,4,20.4,0,23"/>
</svg>
