<!-- Generator: Adobe Illustrator 22.1.0, SVG Export Plug-In  -->
<svg version="1.1"
	 xmlns="http://www.w3.org/2000/svg" xmlns:xlink="http://www.w3.org/1999/xlink" xmlns:a="http://ns.adobe.com/AdobeSVGViewerExtensions/3.0/"
	 x="0px" y="0px" width="603.1px" height="22.2px" viewBox="0 0 603.1 22.2" style="enable-background:new 0 0 603.1 22.2;"
	 xml:space="preserve">
<style type="text/css">
	.st0{fill:#522D6D;}
	.st1{fill:#236092;}
</style>
<defs>
</defs>
<g id="XMLID_4_">
	<g id="XMLID_6_">
		<path id="XMLID_96_" class="st0" d="M53.3,1.4V21h-4.5V1.4H53.3z"/>
		<path id="XMLID_94_" class="st0" d="M57.1,11.3C57.1,9.5,57,8,57,6.8h3.8l0.2,2h0.1c0.6-0.9,2-2.3,4.4-2.3c2.9,0,5.1,1.9,5.1,6.1
			V21h-4.4v-7.9c0-1.8-0.6-3.1-2.2-3.1c-1.2,0-1.9,0.8-2.2,1.7c-0.1,0.3-0.2,0.7-0.2,1.1V21h-4.4V11.3z"/>
		<path id="XMLID_92_" class="st0" d="M74.1,17.1c0.8,0.5,2.5,1.1,3.8,1.1c1.3,0,1.9-0.5,1.9-1.2s-0.4-1.1-2.1-1.6
			c-2.9-1-4.1-2.6-4-4.3c0-2.6,2.3-4.7,5.8-4.7c1.7,0,3.1,0.4,4,0.8l-0.8,3.1c-0.6-0.3-1.9-0.8-3.1-0.8c-1.1,0-1.7,0.4-1.7,1.2
			c0,0.7,0.6,1,2.3,1.6c2.7,0.9,3.8,2.3,3.9,4.4c0,2.6-2.1,4.6-6.2,4.6c-1.9,0-3.5-0.4-4.6-1L74.1,17.1z"/>
		<path id="XMLID_90_" class="st0" d="M100.2,16.4c0,1.9,0.1,3.4,0.1,4.6h-3.8l-0.2-2h-0.1c-0.6,0.9-1.9,2.3-4.5,2.3
			c-2.9,0-5-1.8-5-6.2V6.8h4.5v7.7c0,2.1,0.7,3.3,2.2,3.3c1.2,0,1.9-0.8,2.2-1.5c0.1-0.3,0.1-0.6,0.1-1V6.8h4.5V16.4z"/>
		<path id="XMLID_88_" class="st0" d="M103.8,11.4c0-2.1-0.1-3.5-0.1-4.7h3.8l0.1,2.6h0.1c0.7-2.1,2.5-2.9,3.8-2.9
			c0.4,0,0.6,0,0.9,0.1v4.2c-0.3-0.1-0.7-0.1-1.2-0.1c-1.6,0-2.7,0.9-3,2.2c-0.1,0.3-0.1,0.6-0.1,1V21h-4.4V11.4z"/>
		<path id="XMLID_85_" class="st0" d="M118,15.3c0.1,1.8,1.9,2.7,4,2.7c1.5,0,2.7-0.2,3.9-0.6l0.6,3c-1.5,0.6-3.2,0.9-5.2,0.9
			c-4.8,0-7.6-2.8-7.6-7.2c0-3.6,2.2-7.6,7.2-7.6c4.6,0,6.3,3.6,6.3,7.1c0,0.8-0.1,1.4-0.1,1.7H118z M123.2,12.3
			c0-1.1-0.5-2.9-2.5-2.9c-1.9,0-2.6,1.7-2.7,2.9H123.2z"/>
		<path id="XMLID_83_" class="st0" d="M136.1,16.4c1.2,0.6,3,1.2,4.9,1.2c2,0,3.1-0.8,3.1-2.1c0-1.2-0.9-1.9-3.3-2.8
			c-3.3-1.1-5.4-2.9-5.4-5.8c0-3.3,2.8-5.9,7.4-5.9c2.2,0,3.8,0.5,5,1l-1,3.6c-0.8-0.4-2.2-0.9-4.1-0.9S140,5.6,140,6.6
			c0,1.3,1.1,1.8,3.6,2.8c3.5,1.3,5.1,3.1,5.1,5.8c0,3.3-2.5,6.1-7.9,6.1c-2.2,0-4.5-0.6-5.6-1.2L136.1,16.4z"/>
		<path id="XMLID_81_" class="st0" d="M156.3,2.7v4.1h3.2V10h-3.2v5.2c0,1.7,0.4,2.5,1.7,2.5c0.6,0,1-0.1,1.3-0.1l0,3.3
			c-0.6,0.2-1.6,0.4-2.9,0.4c-1.4,0-2.6-0.5-3.3-1.2c-0.8-0.8-1.2-2.2-1.2-4.2V10h-1.9V6.8h1.9V3.7L156.3,2.7z"/>
		<path id="XMLID_78_" class="st0" d="M170.2,21l-0.3-1.4h-0.1c-0.9,1.1-2.4,1.7-4.1,1.7c-2.9,0-4.6-2.1-4.6-4.4
			c0-3.7,3.3-5.5,8.4-5.4v-0.2c0-0.8-0.4-1.8-2.6-1.8c-1.5,0-3,0.5-3.9,1.1l-0.8-2.9c1-0.6,2.9-1.3,5.5-1.3c4.7,0,6.3,2.8,6.3,6.1
			v4.9c0,1.4,0.1,2.7,0.2,3.5H170.2z M169.7,14.3c-2.3,0-4.1,0.5-4.1,2.2c0,1.1,0.8,1.7,1.7,1.7c1.1,0,2-0.7,2.3-1.6
			c0.1-0.2,0.1-0.5,0.1-0.8V14.3z"/>
		<path id="XMLID_75_" class="st0" d="M177.3,21c0.1-0.9,0.1-2.6,0.1-4.2V0.3h4.4v8.1h0.1c0.8-1.2,2.3-2,4.3-2
			c3.4,0,5.9,2.8,5.9,7.2c0,5.1-3.3,7.7-6.5,7.7c-1.7,0-3.3-0.6-4.3-2.3h-0.1l-0.2,2H177.3z M181.9,14.9c0,0.3,0,0.6,0.1,0.8
			c0.3,1.2,1.3,2.1,2.6,2.1c1.9,0,3.1-1.5,3.1-4c0-2.2-1-4-3.1-4c-1.2,0-2.3,0.9-2.6,2.2c-0.1,0.3-0.1,0.5-0.1,0.8V14.9z"/>
		<path id="XMLID_73_" class="st0" d="M194.9,0.3h4.4V21h-4.4V0.3z"/>
		<path id="XMLID_70_" class="st0" d="M206.3,15.3c0.1,1.8,1.9,2.7,4,2.7c1.5,0,2.7-0.2,3.9-0.6l0.6,3c-1.5,0.6-3.2,0.9-5.2,0.9
			c-4.8,0-7.6-2.8-7.6-7.2c0-3.6,2.2-7.6,7.2-7.6c4.6,0,6.3,3.6,6.3,7.1c0,0.8-0.1,1.4-0.1,1.7H206.3z M211.5,12.3
			c0-1.1-0.5-2.9-2.5-2.9c-1.9,0-2.6,1.7-2.7,2.9H211.5z"/>
		<path id="XMLID_67_" class="st0" d="M224.3,1.6c1.4-0.2,3.3-0.4,6-0.4c2.7,0,4.7,0.5,6,1.6c1.3,1,2.1,2.6,2.1,4.5
			c0,1.9-0.6,3.5-1.8,4.7c-1.5,1.4-3.8,2.1-6.4,2.1c-0.6,0-1.1,0-1.5-0.1v7h-4.4V1.6z M228.6,10.5c0.4,0.1,0.8,0.1,1.5,0.1
			c2.4,0,3.8-1.2,3.8-3.2c0-1.8-1.3-2.9-3.5-2.9c-0.9,0-1.5,0.1-1.8,0.2V10.5z"/>
		<path id="XMLID_65_" class="st0" d="M241,0.3h4.4V21H241V0.3z"/>
		<path id="XMLID_62_" class="st0" d="M257.1,21l-0.3-1.4h-0.1c-0.9,1.1-2.4,1.7-4.1,1.7c-2.9,0-4.6-2.1-4.6-4.4
			c0-3.7,3.3-5.5,8.4-5.4v-0.2c0-0.8-0.4-1.8-2.6-1.8c-1.5,0-3,0.5-3.9,1.1l-0.8-2.9c1-0.6,2.9-1.3,5.5-1.3c4.7,0,6.3,2.8,6.3,6.1
			v4.9c0,1.4,0.1,2.7,0.2,3.5H257.1z M256.6,14.3c-2.3,0-4.1,0.5-4.1,2.2c0,1.1,0.8,1.7,1.7,1.7c1.1,0,2-0.7,2.3-1.6
			c0.1-0.2,0.1-0.5,0.1-0.8V14.3z"/>
		<path id="XMLID_60_" class="st0" d="M264.4,17.1c0.8,0.5,2.5,1.1,3.8,1.1c1.3,0,1.9-0.5,1.9-1.2s-0.4-1.1-2.1-1.6
			c-2.9-1-4.1-2.6-4-4.3c0-2.6,2.3-4.7,5.8-4.7c1.7,0,3.1,0.4,4,0.8l-0.8,3.1c-0.6-0.3-1.9-0.8-3.1-0.8c-1.1,0-1.7,0.4-1.7,1.2
			c0,0.7,0.6,1,2.3,1.6c2.7,0.9,3.8,2.3,3.9,4.4c0,2.6-2.1,4.6-6.2,4.6c-1.9,0-3.5-0.4-4.6-1L264.4,17.1z"/>
		<path id="XMLID_58_" class="st0" d="M277,11.3c0-1.8-0.1-3.3-0.1-4.5h3.7l0.2,1.9h0.1c0.6-0.9,1.9-2.2,4.3-2.2
			c1.8,0,3.3,0.9,3.9,2.4h0.1c0.5-0.7,1.2-1.3,1.8-1.7c0.8-0.5,1.7-0.7,2.7-0.7c2.7,0,4.8,1.9,4.8,6.2V21h-4.3v-7.7
			c0-2.1-0.7-3.3-2.1-3.3c-1,0-1.7,0.7-2,1.5c-0.1,0.3-0.2,0.8-0.2,1.1V21h-4.3v-8c0-1.8-0.6-3-2-3c-1.1,0-1.8,0.9-2.1,1.6
			c-0.1,0.3-0.2,0.8-0.2,1.1V21H277V11.3z"/>
		<path id="XMLID_55_" class="st0" d="M310.1,21l-0.3-1.4h-0.1c-0.9,1.1-2.4,1.7-4.1,1.7c-2.9,0-4.6-2.1-4.6-4.4
			c0-3.7,3.3-5.5,8.4-5.4v-0.2c0-0.8-0.4-1.8-2.6-1.8c-1.5,0-3,0.5-3.9,1.1l-0.8-2.9c1-0.6,2.9-1.3,5.5-1.3c4.7,0,6.3,2.8,6.3,6.1
			v4.9c0,1.4,0.1,2.7,0.2,3.5H310.1z M309.6,14.3c-2.3,0-4.1,0.5-4.1,2.2c0,1.1,0.8,1.7,1.7,1.7c1.1,0,2-0.7,2.3-1.6
			c0.1-0.2,0.1-0.5,0.1-0.8V14.3z"/>
		<path id="XMLID_53_" class="st0" d="M337.8,20.4c-0.8,0.4-2.6,0.8-5,0.8c-6.8,0-10.3-4.2-10.3-9.8c0-6.7,4.8-10.4,10.7-10.4
			c2.3,0,4,0.5,4.8,0.9l-0.9,3.5c-0.9-0.4-2.2-0.7-3.7-0.7c-3.5,0-6.3,2.1-6.3,6.5c0,3.9,2.3,6.4,6.3,6.4c1.3,0,2.8-0.3,3.7-0.6
			L337.8,20.4z"/>
		<path id="XMLID_50_" class="st0" d="M354.1,13.7c0,5.2-3.7,7.6-7.5,7.6c-4.2,0-7.4-2.7-7.4-7.3s3-7.5,7.6-7.5
			C351.2,6.4,354.1,9.4,354.1,13.7z M343.8,13.9c0,2.4,1,4.3,2.9,4.3c1.7,0,2.8-1.7,2.8-4.3c0-2.1-0.8-4.3-2.8-4.3
			C344.6,9.6,343.8,11.8,343.8,13.9z"/>
		<path id="XMLID_48_" class="st0" d="M356.9,11.3c0-1.8-0.1-3.3-0.1-4.5h3.8l0.2,2h0.1c0.6-0.9,2-2.3,4.4-2.3
			c2.9,0,5.1,1.9,5.1,6.1V21h-4.4v-7.9c0-1.8-0.6-3.1-2.2-3.1c-1.2,0-1.9,0.8-2.2,1.7c-0.1,0.3-0.2,0.7-0.2,1.1V21h-4.4V11.3z"/>
		<path id="XMLID_46_" class="st0" d="M384.6,20.6c-0.8,0.3-2.3,0.6-4,0.6c-4.6,0-7.5-2.8-7.5-7.3c0-4.2,2.9-7.6,8.1-7.6
			c1.2,0,2.4,0.2,3.4,0.6l-0.7,3.3c-0.5-0.2-1.3-0.4-2.5-0.4c-2.3,0-3.8,1.7-3.8,4c0,2.6,1.7,4,3.9,4c1,0,1.9-0.2,2.5-0.4
			L384.6,20.6z"/>
		<path id="XMLID_43_" class="st0" d="M390.1,15.3c0.1,1.8,1.9,2.7,4,2.7c1.5,0,2.7-0.2,3.9-0.6l0.6,3c-1.5,0.6-3.2,0.9-5.2,0.9
			c-4.8,0-7.6-2.8-7.6-7.2c0-3.6,2.2-7.6,7.2-7.6c4.6,0,6.3,3.6,6.3,7.1c0,0.8-0.1,1.4-0.1,1.7H390.1z M395.3,12.3
			c0-1.1-0.5-2.9-2.5-2.9c-1.9,0-2.6,1.7-2.7,2.9H395.3z"/>
		<path id="XMLID_41_" class="st0" d="M402.1,11.3c0-1.8-0.1-3.3-0.1-4.5h3.8l0.2,2h0.1c0.6-0.9,2-2.3,4.4-2.3
			c2.9,0,5.1,1.9,5.1,6.1V21h-4.4v-7.9c0-1.8-0.6-3.1-2.2-3.1c-1.2,0-1.9,0.8-2.2,1.7c-0.1,0.3-0.2,0.7-0.2,1.1V21h-4.4V11.3z"/>
		<path id="XMLID_39_" class="st0" d="M423.9,2.7v4.1h3.2V10h-3.2v5.2c0,1.7,0.4,2.5,1.7,2.5c0.6,0,1-0.1,1.3-0.1l0,3.3
			c-0.6,0.2-1.6,0.4-2.9,0.4c-1.4,0-2.6-0.5-3.3-1.2c-0.8-0.8-1.2-2.2-1.2-4.2V10h-1.9V6.8h1.9V3.7L423.9,2.7z"/>
		<path id="XMLID_37_" class="st0" d="M429.7,11.4c0-2.1-0.1-3.5-0.1-4.7h3.8l0.1,2.6h0.1c0.7-2.1,2.5-2.9,3.8-2.9
			c0.4,0,0.6,0,0.9,0.1v4.2c-0.3-0.1-0.7-0.1-1.2-0.1c-1.6,0-2.7,0.9-3,2.2c-0.1,0.3-0.1,0.6-0.1,1V21h-4.4V11.4z"/>
		<path id="XMLID_34_" class="st0" d="M448.5,21l-0.3-1.4h-0.1c-0.9,1.1-2.4,1.7-4.1,1.7c-2.9,0-4.6-2.1-4.6-4.4
			c0-3.7,3.3-5.5,8.4-5.4v-0.2c0-0.8-0.4-1.8-2.6-1.8c-1.5,0-3,0.5-3.9,1.1l-0.8-2.9c1-0.6,2.9-1.3,5.5-1.3c4.7,0,6.3,2.8,6.3,6.1
			v4.9c0,1.4,0.1,2.7,0.2,3.5H448.5z M448,14.3c-2.3,0-4.1,0.5-4.1,2.2c0,1.1,0.8,1.7,1.7,1.7c1.1,0,2-0.7,2.3-1.6
			c0.1-0.2,0.1-0.5,0.1-0.8V14.3z"/>
		<path id="XMLID_32_" class="st0" d="M460.5,2.7v4.1h3.2V10h-3.2v5.2c0,1.7,0.4,2.5,1.7,2.5c0.6,0,1-0.1,1.3-0.1l0,3.3
			c-0.6,0.2-1.6,0.4-2.9,0.4c-1.4,0-2.6-0.5-3.3-1.2c-0.8-0.8-1.2-2.2-1.2-4.2V10h-1.9V6.8h1.9V3.7L460.5,2.7z"/>
		<path id="XMLID_29_" class="st0" d="M470.8,2.8c0,1.2-0.9,2.2-2.4,2.2c-1.4,0-2.3-1-2.3-2.2c0-1.3,0.9-2.2,2.3-2.2
			S470.7,1.5,470.8,2.8z M466.2,21V6.8h4.4V21H466.2z"/>
		<path id="XMLID_26_" class="st0" d="M488.2,13.7c0,5.2-3.7,7.6-7.5,7.6c-4.2,0-7.4-2.7-7.4-7.3s3-7.5,7.6-7.5
			C485.3,6.4,488.2,9.4,488.2,13.7z M477.9,13.9c0,2.4,1,4.3,2.9,4.3c1.7,0,2.8-1.7,2.8-4.3c0-2.1-0.8-4.3-2.8-4.3
			C478.7,9.6,477.9,11.8,477.9,13.9z"/>
		<path id="XMLID_24_" class="st0" d="M491,11.3c0-1.8-0.1-3.3-0.1-4.5h3.8l0.2,2h0.1c0.6-0.9,2-2.3,4.4-2.3c2.9,0,5.1,1.9,5.1,6.1
			V21h-4.4v-7.9c0-1.8-0.6-3.1-2.2-3.1c-1.2,0-1.9,0.8-2.2,1.7c-0.1,0.3-0.2,0.7-0.2,1.1V21H491V11.3z"/>
		<path id="XMLID_21_" class="st0" d="M514.1,1.6c1.4-0.2,3.3-0.4,6-0.4c2.7,0,4.7,0.5,6,1.6c1.3,1,2.1,2.6,2.1,4.5
			c0,1.9-0.6,3.5-1.8,4.7c-1.5,1.4-3.8,2.1-6.4,2.1c-0.6,0-1.1,0-1.5-0.1v7h-4.4V1.6z M518.5,10.5c0.4,0.1,0.8,0.1,1.5,0.1
			c2.4,0,3.8-1.2,3.8-3.2c0-1.8-1.3-2.9-3.5-2.9c-0.9,0-1.5,0.1-1.8,0.2V10.5z"/>
		<path id="XMLID_19_" class="st0" d="M530.6,11.4c0-2.1-0.1-3.5-0.1-4.7h3.8l0.1,2.6h0.1c0.7-2.1,2.5-2.9,3.8-2.9
			c0.4,0,0.6,0,0.9,0.1v4.2c-0.3-0.1-0.7-0.1-1.2-0.1c-1.6,0-2.7,0.9-3,2.2c-0.1,0.3-0.1,0.6-0.1,1V21h-4.4V11.4z"/>
		<path id="XMLID_16_" class="st0" d="M555.4,13.7c0,5.2-3.7,7.6-7.5,7.6c-4.2,0-7.4-2.7-7.4-7.3s3-7.5,7.6-7.5
			C552.5,6.4,555.4,9.4,555.4,13.7z M545.1,13.9c0,2.4,1,4.3,2.9,4.3c1.7,0,2.8-1.7,2.8-4.3c0-2.1-0.8-4.3-2.8-4.3
			C545.9,9.6,545.1,11.8,545.1,13.9z"/>
		<path id="XMLID_14_" class="st0" d="M558.7,21V10h-1.9V6.8h1.9V6.1c0-3.9,3.1-6.1,7.4-6.1c1.5,0,3.3,0.3,4.2,0.9l-0.8,3.3
			c-0.7-0.4-1.8-0.7-3.2-0.7c-2.3,0-3.1,1.2-3.1,2.8v0.5h8.6V21h-4.4V10h-4.2v11H558.7z"/>
		<path id="XMLID_12_" class="st0" d="M575.3,0.3h4.4V21h-4.4V0.3z"/>
		<path id="XMLID_9_" class="st0" d="M586.7,15.3c0.1,1.8,1.9,2.7,4,2.7c1.5,0,2.7-0.2,3.9-0.6l0.6,3c-1.5,0.6-3.2,0.9-5.2,0.9
			c-4.8,0-7.6-2.8-7.6-7.2c0-3.6,2.2-7.6,7.2-7.6c4.6,0,6.3,3.6,6.3,7.1c0,0.8-0.1,1.4-0.1,1.7H586.7z M591.9,12.3
			c0-1.1-0.5-2.9-2.5-2.9c-1.9,0-2.6,1.7-2.7,2.9H591.9z"/>
		<path id="XMLID_7_" class="st0" d="M597.9,18.6c0-1.6,1.1-2.7,2.6-2.7c1.5,0,2.6,1.1,2.6,2.7c0,1.5-1,2.7-2.6,2.7
			C599,21.3,597.9,20.2,597.9,18.6z"/>
	</g>
</g>
<g id="XMLID_1_">
	<path id="XMLID_3_" class="st0" d="M3.8,15c0,0,3.5-7.6,16.7-7.6C33.7,7.3,41,2.7,41,2.7s-9.4,9.7-18.6,9.7
		C13.2,12.4,7.6,12.4,3.8,15"/>
	<path id="XMLID_2_" class="st1" d="M0,22.2c0,0,3.5-7.6,16.7-7.6c13.2,0,20.5-4.6,20.5-4.6s-9.4,9.7-18.6,9.7
		C9.4,19.6,3.8,19.6,0,22.2"/>
</g>
</svg>
