<!-- Generator: Adobe Illustrator 22.1.0, SVG Export Plug-In  -->
<svg version="1.1"
	 xmlns="http://www.w3.org/2000/svg" xmlns:xlink="http://www.w3.org/1999/xlink" xmlns:a="http://ns.adobe.com/AdobeSVGViewerExtensions/3.0/"
	 x="0px" y="0px" width="184.6px" height="188.3px" viewBox="0 0 184.6 188.3" style="enable-background:new 0 0 184.6 188.3;"
	 xml:space="preserve">
<style type="text/css">
	.st0{fill:url(#XMLID_83_);}
	.st1{fill:#FFFFFF;}
	.st2{fill:url(#XMLID_84_);}
	.st3{fill:url(#XMLID_85_);}
	.st4{fill:#595A5C;}
	.st5{fill:url(#XMLID_86_);}
	.st6{fill:url(#XMLID_87_);}
	.st7{fill:url(#XMLID_88_);}
</style>
<defs>
</defs>
<g id="XMLID_18_">
	<linearGradient id="XMLID_83_" gradientUnits="userSpaceOnUse" x1="53.3512" y1="21.2242" x2="237.9886" y2="21.2242">
		<stop  offset="0" style="stop-color:#4B257A"/>
		<stop  offset="1" style="stop-color:#964C8E"/>
	</linearGradient>
	<path id="XMLID_82_" class="st0" d="M183.2,16.9L170.2,0v0H0v42.4h170.2l13-16.9C185.1,23,185.1,19.5,183.2,16.9z"/>
	<path id="XMLID_63_" class="st1" d="M144.8,20.2h-3.3c0.1-1,0.7-1.7,1.6-1.7C144.2,18.5,144.7,19.4,144.8,20.2 M147.2,21.3
		c0-2.7-1.5-5-4-5c-2.4,0-4.3,2.1-4.3,5c0,3,1.8,5,4.5,5c1.3,0,2.7-0.6,3.4-1.5l-1.8-1.5c-0.4,0.4-0.9,0.7-1.6,0.7
		c-0.9,0-1.9-0.5-2-1.8h5.7C147.2,22,147.2,21.7,147.2,21.3 M137.4,23.3c0-1.9-1.5-2.5-3.2-3.1c-1.7-0.5-2-0.7-2-1.1
		c0-0.4,0.3-0.6,1.3-0.6c0.8,0,1.8,0.3,2.8,0.8l0.8-2c-1-0.6-2.3-0.9-3.5-0.9c-2.2,0-3.8,0.9-3.8,2.8c0,2,1.5,2.6,3.8,3.3
		c1.1,0.3,1.4,0.5,1.4,1c0,0.5-0.3,0.7-1.3,0.7c-1.2,0-2.3-0.3-3.3-0.9l-0.8,1.9c1,0.7,2.5,1.1,4,1.1
		C135.7,26.3,137.4,25.5,137.4,23.3 M125.5,21.3c0,1.3-0.6,2.5-1.8,2.5c-1.2,0-1.8-1.1-1.8-2.5c0-1.5,0.6-2.6,1.8-2.6
		C125,18.8,125.5,19.9,125.5,21.3 M128.1,21.3c0-2.9-1.8-5-4.3-5c-2.5,0-4.3,2.1-4.3,5c0,2.9,1.8,5,4.3,5
		C126.3,26.3,128.1,24.3,128.1,21.3 M115,23.1c-0.4,0.5-0.8,0.8-1.5,0.8c-1,0-1.6-0.8-1.6-2.8c0-1.6,0.5-2.4,1.5-2.4
		c0.7,0,1.3,0.3,1.7,0.8V23.1z M117.5,26.1V12.8l-2.5,1.3v3c-0.5-0.4-1.2-0.7-2-0.7c-2.4,0-3.7,2-3.7,4.9c0,3.6,1.7,5.1,3.7,5.1
		c0.9,0,1.5-0.4,2-0.8v0.6H117.5z M99.5,23.1c-0.4,0.5-0.8,0.8-1.5,0.8c-1,0-1.6-0.8-1.6-2.8c0-1.6,0.5-2.4,1.5-2.4
		c0.7,0,1.3,0.3,1.7,0.8V23.1z M102,24.5v-7.9h-2.5v0.5c-0.5-0.4-1.2-0.7-2-0.7c-2.4,0-3.7,2-3.7,4.9c0,3.6,1.7,5.1,3.7,5.1
		c0.9,0,1.5-0.4,2-0.8c0,1.5-0.5,1.9-2.5,2.2l0.9,1.9C101.2,29.2,102,27.6,102,24.5 M91.9,26.1v-5.4c0-2.7-1.1-4.4-3.5-4.4
		c-1,0-1.8,0.4-2.2,0.8v-0.6h-2.5v9.5h2.5v-5.2c0-1.7,0.6-2.2,1.6-2.2c1,0,1.6,0.5,1.6,2.2v5.2H91.9z M81.1,16.6h-2.5v9.5h2.5V16.6z
		 M81.3,14.3c0-0.8-0.7-1.4-1.4-1.4c-0.8,0-1.4,0.7-1.4,1.4c0,0.8,0.7,1.4,1.4,1.4C80.6,15.8,81.3,15.1,81.3,14.3 M76.2,23.2
		c-0.6,0.5-1,0.7-1.4,0.7c-0.6,0-0.9-0.2-0.9-1.1v-3.8h2.3v-2.4h-2.3v-3.7l-2.5,1.3v2.5h-1.6v2.4h1.6v4.5c0,1.7,1,2.9,2.5,2.9
		c0.8,0,1.5-0.3,1.9-0.6L76.2,23.2z M68.6,17c-0.3-0.3-0.9-0.7-1.8-0.7c-0.9,0-1.5,0.4-2,0.8v-0.6h-2.5v9.5h2.5v-5.2
		c0-1.7,0.6-2.1,1.6-2.1c0.6,0,1.1,0.3,1.5,0.6L68.6,17z M57.5,23.3c-0.3,0.5-0.9,0.9-1.7,0.9c-1.1,0-1.5-0.6-1.5-1.3
		c0-0.8,0.5-1.2,1.5-1.2c0.9,0,1.3,0.1,1.7,0.4V23.3z M60,26.1v-6.4c0-2.1-1.6-3.3-3.9-3.3c-1.5,0-2.5,0.3-3.6,1l1,1.7
		c0.9-0.5,1.5-0.6,2.6-0.6c0.9,0,1.4,0.5,1.4,1.2v0.5c-0.4-0.2-1-0.4-1.8-0.4c-2.2,0-3.9,1.1-3.9,3.2c0,2.3,1.8,3.4,3.6,3.4
		c0.9,0,1.7-0.4,2.1-0.8v0.6H60z M50.2,23.2c-0.6,0.5-1,0.7-1.4,0.7c-0.6,0-0.9-0.2-0.9-1.1v-3.8h2.3v-2.4h-2.3v-3.7l-2.5,1.3v2.5
		h-1.6v2.4h1.6v4.5c0,1.7,1,2.9,2.5,2.9c0.8,0,1.5-0.3,1.9-0.6L50.2,23.2z M42.5,22.2c0-2.8-2.2-3.5-4.3-3.9c-2-0.5-2.6-0.7-2.6-1.5
		c0-0.6,0.5-1.1,1.8-1.1c1.2,0,2.1,0.5,2.9,1.3l1.8-1.8c-1.2-1.3-2.7-2-4.6-2c-2.5,0-4.5,1.4-4.5,3.7c0,2.5,1.6,3.3,4,3.8
		c2.4,0.5,2.8,0.9,2.8,1.7c0,1-0.7,1.4-2.2,1.4c-1.2,0-2.4-0.4-3.3-1.5L32.6,24c1,1.4,2.8,2.3,4.9,2.3C41,26.3,42.5,24.7,42.5,22.2"
		/>
	<linearGradient id="XMLID_84_" gradientUnits="userSpaceOnUse" x1="53.3512" y1="83.0568" x2="237.9886" y2="83.0568">
		<stop  offset="0" style="stop-color:#2B3990"/>
		<stop  offset="1" style="stop-color:#27AAE1"/>
	</linearGradient>
	<path id="XMLID_62_" class="st2" d="M183.2,78.8l-13-16.9v0H0v42.4h170.2l13-16.9C185.1,84.8,185.1,81.3,183.2,78.8z"/>
	<path id="XMLID_42_" class="st1" d="M149.4,82.2l-2.2-1l2.2-1l-0.8-1.4l-1.8,1.3l0.2-2.2h-1.6l0.2,2.2l-1.8-1.3l-0.8,1.4l2.1,1
		l-2.1,1l0.8,1.4l1.8-1.2l-0.2,2.2h1.6l-0.2-2.2l1.8,1.2L149.4,82.2z M141.2,88.5v-11l-2.1,1v10H141.2z M135,86.2
		c-0.2,0.4-0.8,0.7-1.5,0.7c-0.9,0-1.2-0.5-1.2-1.1c0-0.6,0.4-1,1.2-1c0.7,0,1.1,0.1,1.5,0.3V86.2z M137.1,88.5v-5.3
		c0-1.8-1.3-2.8-3.2-2.8c-1.3,0-2.1,0.3-3,0.8l0.8,1.5c0.7-0.4,1.2-0.5,2.2-0.5c0.8,0,1.1,0.5,1.1,1v0.4c-0.3-0.2-0.8-0.3-1.5-0.3
		c-1.8,0-3.2,0.9-3.2,2.6c0,1.9,1.5,2.8,3,2.8c0.7,0,1.4-0.3,1.8-0.7v0.5H137.1z M129.6,80.5h-2.2l-1.2,3.7
		c-0.2,0.6-0.4,1.3-0.5,1.7c-0.1-0.4-0.3-1.1-0.5-1.7l-1.2-3.7h-2.3l2.9,7.9h2.2L129.6,80.5z M121,80.9c-0.3-0.3-0.8-0.6-1.5-0.6
		c-0.7,0-1.3,0.3-1.6,0.7v-0.5h-2.1v7.9h2.1v-4.3c0-1.4,0.5-1.7,1.3-1.7c0.5,0,0.9,0.2,1.2,0.5L121,80.9z M112.1,83.6h-2.7
		c0.1-0.8,0.5-1.4,1.3-1.4C111.6,82.2,112,82.9,112.1,83.6 M114.1,84.5c0-2.3-1.2-4.1-3.3-4.1c-2,0-3.5,1.7-3.5,4.1
		c0,2.5,1.5,4.1,3.7,4.1c1.1,0,2.2-0.5,2.8-1.3l-1.5-1.2c-0.3,0.3-0.8,0.6-1.4,0.6c-0.8,0-1.6-0.4-1.6-1.5h4.7
		C114.1,85,114.1,84.8,114.1,84.5 M106,86.1c-0.5,0.4-0.8,0.6-1.2,0.6c-0.5,0-0.8-0.2-0.8-1v-3.2h1.9v-2H104v-3.1l-2.1,1v2h-1.3v2
		h1.3v3.8c0,1.4,0.8,2.4,2.1,2.4c0.7,0,1.3-0.2,1.6-0.5L106,86.1z M99.4,88.5V84c0-2.2-0.9-3.6-2.9-3.6c-0.8,0-1.5,0.3-1.9,0.7v-0.5
		h-2.1v7.9h2.1v-4.3c0-1.4,0.5-1.8,1.4-1.8s1.3,0.4,1.3,1.8v4.3H99.4z M90,77.9h-2.1v10.6H90V77.9z M73.5,88.5l-2.3-5.4l2-2.5h-2.5
		l-1.3,1.7c-0.3,0.4-0.6,0.8-0.8,1.2c0-0.4,0-1.2,0-1.7v-4.2l-2.1,1v10h2.1v-2.4l1-1.3l1.5,3.7H73.5z M62.9,83.6h-2.7
		c0.1-0.8,0.5-1.4,1.3-1.4C62.4,82.2,62.8,82.9,62.9,83.6 M64.9,84.5c0-2.3-1.2-4.1-3.3-4.1c-2,0-3.5,1.7-3.5,4.1
		c0,2.5,1.5,4.1,3.7,4.1c1.1,0,2.2-0.5,2.8-1.3l-1.5-1.2c-0.3,0.3-0.8,0.6-1.4,0.6c-0.8,0-1.6-0.4-1.6-1.5h4.8
		C64.9,85,64.9,84.8,64.9,84.5 M54.7,83.6H52c0.1-0.8,0.5-1.4,1.3-1.4C54.3,82.2,54.7,82.9,54.7,83.6 M56.8,84.5
		c0-2.3-1.2-4.1-3.3-4.1c-2,0-3.5,1.7-3.5,4.1c0,2.5,1.5,4.1,3.7,4.1c1.1,0,2.2-0.5,2.8-1.3L55,86.1c-0.3,0.3-0.8,0.6-1.4,0.6
		c-0.8,0-1.6-0.4-1.6-1.5h4.7C56.8,85,56.8,84.8,56.8,84.5 M49.2,80.5h-2.1l-0.7,2.9c-0.1,0.6-0.3,1.4-0.4,1.8
		c-0.1-0.4-0.3-1.2-0.4-1.8l-0.8-2.9h-1.7l-0.8,2.9c-0.2,0.6-0.4,1.4-0.4,1.8c-0.1-0.4-0.2-1.2-0.4-1.8l-0.7-2.9h-2.1l2.3,7.9h1.7
		l0.8-3.1c0.2-0.6,0.4-1.5,0.4-1.9c0.1,0.4,0.3,1.3,0.4,1.9l0.8,3.1h1.7L49.2,80.5z M35.6,88.5v-2h-5.6c0.2-0.8,0.9-1.5,2.8-2.4
		c1.8-0.8,2.7-1.6,2.7-3.3c0-2-1.4-3-3.9-3c-1.7,0-3.2,0.6-4.3,1.8l1.4,1.6c0.7-0.7,1.8-1.3,3-1.3c1.3,0,1.7,0.5,1.7,1.1
		c0,0.5-0.3,0.9-1.2,1.3c-2.6,1.1-4.8,2.7-4.9,6.3H35.6z M81.1,86.2c0-1.6-1.2-2.1-2.7-2.6c-1.4-0.5-1.6-0.6-1.6-0.9
		c0-0.4,0.2-0.5,1.1-0.5c0.7,0,1.5,0.2,2.3,0.6l0.7-1.7c-0.8-0.5-1.9-0.8-2.9-0.8c-1.9,0-3.2,0.7-3.2,2.4c0,1.7,1.2,2.1,3.1,2.7
		c0.9,0.3,1.2,0.4,1.2,0.8c0,0.4-0.2,0.6-1.1,0.6c-1,0-1.9-0.3-2.8-0.7l-0.7,1.6c0.8,0.6,2.1,0.9,3.3,0.9
		C79.7,88.7,81.1,88,81.1,86.2"/>
	<linearGradient id="XMLID_85_" gradientUnits="userSpaceOnUse" x1="53.3512" y1="143.7528" x2="237.9886" y2="143.7528">
		<stop  offset="0" style="stop-color:#BE1E2D"/>
		<stop  offset="1" style="stop-color:#EF3742"/>
	</linearGradient>
	<path id="XMLID_41_" class="st3" d="M183.2,139.5l-13-16.9v0H0V165h170.2l13-16.9C185.1,145.5,185.1,142,183.2,139.5z"/>
	<g id="XMLID_19_">
		<polygon id="XMLID_40_" class="st1" points="148.5,142.9 146.3,141.9 148.5,140.9 147.7,139.5 145.9,140.8 146,138.6 144.4,138.6 
			144.6,140.8 142.7,139.5 142,140.9 144.1,141.9 142,142.9 142.7,144.2 144.6,143 144.4,145.2 146,145.2 145.9,143 147.7,144.2 		
			"/>
		<path id="XMLID_37_" class="st1" d="M140.8,145.2c0-2.3-1.2-4.1-3.3-4.1c-2,0-3.5,1.7-3.5,4.1c0,2.5,1.5,4.1,3.7,4.1
			c1.1,0,2.2-0.5,2.8-1.3l-1.5-1.2c-0.3,0.3-0.8,0.6-1.4,0.6c-0.8,0-1.6-0.4-1.6-1.5h4.8C140.8,145.7,140.8,145.5,140.8,145.2z
			 M136.1,144.3c0.1-0.8,0.5-1.4,1.3-1.4c0.9,0,1.4,0.7,1.4,1.4H136.1z"/>
		<path id="XMLID_36_" class="st1" d="M132.6,146.8c0-1.6-1.2-2.1-2.7-2.6c-1.4-0.5-1.6-0.6-1.6-0.9c0-0.4,0.2-0.5,1.1-0.5
			c0.7,0,1.5,0.2,2.3,0.6l0.7-1.7c-0.8-0.5-1.9-0.8-2.9-0.8c-1.9,0-3.2,0.7-3.2,2.4c0,1.7,1.2,2.1,3.1,2.7c0.9,0.3,1.2,0.4,1.2,0.8
			c0,0.4-0.2,0.6-1.1,0.6c-1,0-1.9-0.3-2.8-0.7l-0.7,1.6c0.8,0.6,2.1,0.9,3.3,0.9C131.2,149.3,132.6,148.7,132.6,146.8"/>
		<path id="XMLID_33_" class="st1" d="M121.3,141c-2.1,0-3.6,1.7-3.6,4.1c0,2.4,1.5,4.1,3.6,4.1c2.1,0,3.6-1.7,3.6-4.1
			C124.9,142.7,123.4,141,121.3,141z M121.3,147.3c-1,0-1.5-0.9-1.5-2.1c0-1.2,0.5-2.1,1.5-2.1c1,0,1.5,0.9,1.5,2.1
			C122.8,146.3,122.3,147.3,121.3,147.3z"/>
		<path id="XMLID_30_" class="st1" d="M114,139.2v2.5c-0.4-0.3-1-0.6-1.7-0.6c-2,0-3.1,1.7-3.1,4c0,3,1.4,4.2,3.1,4.2
			c0.8,0,1.3-0.3,1.7-0.7v0.5h2.1v-11L114,139.2z M114,146.7c-0.3,0.4-0.6,0.7-1.3,0.7c-0.8,0-1.4-0.7-1.4-2.3c0-1.3,0.4-2,1.2-2
			c0.6,0,1.1,0.2,1.4,0.7V146.7z"/>
		<path id="XMLID_29_" class="st1" d="M103.3,149.1v-4.5c0-2.2-0.8-3.6-2.8-3.6c-1.3,0-2,0.5-2.5,1c-0.6-0.7-1.2-1-2.2-1
			c-0.8,0-1.4,0.3-1.7,0.7v-0.5h-2.1v7.9H94v-4.3c0-1.4,0.4-1.8,1.3-1.8c0.9,0,1.3,0.4,1.3,1.8v4.3h2.1v-4.3c0-1.4,0.4-1.8,1.3-1.8
			c0.9,0,1.3,0.4,1.3,1.8v4.3H103.3z"/>
		<path id="XMLID_28_" class="st1" d="M89.9,149.1v-7.9h-2.1v4.3c0,1.4-0.5,1.8-1.4,1.8c-0.9,0-1.3-0.4-1.3-1.8v-4.3H83v4.5
			c0,2.2,0.9,3.6,2.9,3.6c0.8,0,1.5-0.3,1.9-0.7v0.5H89.9z"/>
		<path id="XMLID_27_" class="st1" d="M81.1,149.1v-4.5c0-2.2-0.8-3.6-2.8-3.6c-1.3,0-2,0.5-2.5,1c-0.6-0.7-1.2-1-2.2-1
			c-0.8,0-1.4,0.3-1.7,0.7v-0.5h-2.1v7.9h2.1v-4.3c0-1.4,0.4-1.8,1.3-1.8s1.3,0.4,1.3,1.8v4.3h2.1v-4.3c0-1.4,0.4-1.8,1.3-1.8
			c0.9,0,1.3,0.4,1.3,1.8v4.3H81.1z"/>
		<rect id="XMLID_26_" x="65.6" y="141.2" class="st1" width="2.1" height="7.9"/>
		<path id="XMLID_25_" class="st1" d="M67.8,139.4c0-0.7-0.5-1.2-1.2-1.2c-0.6,0-1.2,0.5-1.2,1.2c0,0.6,0.5,1.2,1.2,1.2
			C67.3,140.6,67.8,140,67.8,139.4"/>
		<path id="XMLID_24_" class="st1" d="M64.1,149.1l-2.8-4.3l2.4-3.6h-2.5l-0.4,0.6c-0.3,0.5-0.6,1-0.7,1.3c-0.1-0.3-0.4-0.8-0.7-1.3
			l-0.4-0.6h-2.5l2.4,3.6l-2.8,4.3h2.5l0.8-1.3c0.3-0.5,0.6-1,0.7-1.3c0.2,0.3,0.4,0.8,0.7,1.3l0.8,1.3H64.1z"/>
		<path id="XMLID_21_" class="st1" d="M51.6,141c-1.3,0-2.1,0.3-3,0.8l0.8,1.5c0.7-0.4,1.2-0.5,2.2-0.5c0.8,0,1.1,0.5,1.1,1v0.4
			c-0.3-0.2-0.8-0.3-1.5-0.3c-1.8,0-3.2,0.9-3.2,2.6c0,1.9,1.5,2.8,3,2.8c0.7,0,1.4-0.3,1.8-0.7v0.5h2.1v-5.3
			C54.9,142,53.6,141,51.6,141z M52.8,146.8c-0.2,0.4-0.8,0.7-1.5,0.7c-0.9,0-1.2-0.5-1.2-1.1c0-0.6,0.4-1,1.2-1
			c0.7,0,1.1,0.1,1.5,0.3V146.8z"/>
		<path id="XMLID_20_" class="st1" d="M46,149.1v-10.6h-2.1l-2.1,4.8c-0.3,0.6-0.6,1.4-0.7,1.8c-0.1-0.4-0.5-1.2-0.7-1.8l-2.2-4.8
			h-2v10.6h2.1v-3.9c0-0.6,0-1.9,0-2.3c0.1,0.4,0.5,1.1,0.7,1.8l2.2,4.7l2.1-4.7c0.3-0.6,0.6-1.4,0.7-1.8c0,0.4,0,1.8,0,2.3v3.9H46z
			"/>
	</g>
</g>
<path id="XMLID_1_" class="st4" d="M93.7,182.4h-0.9l-0.7,2.1c-0.1,0.4-0.3,1-0.4,1.3c0-0.2-0.2-0.9-0.4-1.3l-0.7-2.1h-0.9l1.6,4.3
	l-0.6,1.6h0.9L93.7,182.4z M89.1,182.5c-0.2-0.1-0.4-0.2-0.7-0.2c-0.4,0-0.8,0.2-1,0.5v-0.4h-0.9v4.4h0.9v-2.5
	c0-0.7,0.3-1.1,0.9-1.1c0.3,0,0.5,0.1,0.7,0.2L89.1,182.5z M84.4,185.5c-0.2,0.3-0.6,0.6-1.1,0.6c-0.6,0-0.8-0.3-0.8-0.7
	c0-0.4,0.3-0.6,0.9-0.6c0.5,0,0.8,0.1,1,0.2V185.5z M85.3,186.8v-3c0-1-0.7-1.5-1.6-1.5c-0.6,0-1.1,0.1-1.5,0.4l0.3,0.6
	c0.3-0.2,0.7-0.3,1.1-0.3c0.5,0,0.8,0.3,0.8,0.7v0.3c-0.2-0.1-0.6-0.2-1-0.2c-1,0-1.7,0.4-1.7,1.4c0,1.1,0.8,1.5,1.5,1.5
	c0.5,0,0.9-0.2,1.2-0.5v0.4H85.3z M80.9,185.6c0-0.8-0.5-1.1-1.5-1.5c-0.7-0.3-0.8-0.4-0.8-0.6c0-0.2,0.2-0.4,0.6-0.4
	c0.4,0,0.8,0.1,1.1,0.4l0.4-0.7c-0.4-0.3-0.9-0.5-1.5-0.5c-0.9,0-1.5,0.4-1.5,1.2c0,0.7,0.3,1,1.3,1.4c0.6,0.2,1,0.4,1,0.7
	c0,0.3-0.3,0.5-0.8,0.5c-0.4,0-0.9-0.1-1.3-0.4l-0.4,0.6c0.4,0.3,1.1,0.6,1.7,0.6C80.1,186.9,80.9,186.5,80.9,185.6 M76.8,185.6
	c0-0.8-0.5-1.1-1.5-1.5c-0.7-0.3-0.8-0.4-0.8-0.6c0-0.2,0.2-0.4,0.6-0.4c0.4,0,0.8,0.1,1.1,0.4l0.4-0.7c-0.4-0.3-0.9-0.5-1.5-0.5
	c-0.9,0-1.5,0.4-1.5,1.2c0,0.7,0.3,1,1.3,1.4c0.6,0.2,1,0.4,1,0.7c0,0.3-0.3,0.5-0.8,0.5c-0.4,0-0.9-0.1-1.3-0.4l-0.4,0.6
	c0.4,0.3,1.1,0.6,1.7,0.6C76.1,186.9,76.8,186.5,76.8,185.6 M72,184.2h-2c0.1-0.7,0.4-1.1,1-1.1C71.6,183.1,71.9,183.6,72,184.2
	 M72.8,184.5c0-1.2-0.6-2.2-1.8-2.2c-1.1,0-1.9,0.8-1.9,2.3c0,1.4,0.9,2.3,1.9,2.3c0.7,0,1.1-0.2,1.5-0.6l-0.5-0.5
	c-0.3,0.2-0.6,0.4-0.9,0.4c-0.5,0-1-0.4-1.1-1.2h2.9C72.8,184.8,72.8,184.7,72.8,184.5 M68.3,183.1c-0.4-0.5-0.9-0.7-1.5-0.7
	c-1.1,0-1.9,0.8-1.9,2.3c0,1.4,0.8,2.3,1.9,2.3c0.8,0,1.2-0.4,1.6-0.8l-0.5-0.5c-0.3,0.4-0.6,0.5-1,0.5c-0.7,0-1-0.6-1-1.5
	c0-0.9,0.4-1.4,1-1.4c0.4,0,0.7,0.2,1.1,0.5L68.3,183.1z M63.2,184.2h-2c0.1-0.7,0.4-1.1,1-1.1C62.9,183.1,63.1,183.6,63.2,184.2
	 M64,184.5c0-1.2-0.6-2.2-1.8-2.2c-1.1,0-1.9,0.8-1.9,2.3c0,1.4,0.9,2.3,1.9,2.3c0.7,0,1.1-0.2,1.5-0.6l-0.5-0.5
	c-0.3,0.2-0.6,0.4-0.9,0.4c-0.5,0-1-0.4-1.1-1.2H64C64,184.8,64,184.7,64,184.5 M59.3,186.8v-2.5c0-1.3-0.5-1.9-1.5-1.9
	c-0.4,0-0.9,0.2-1.1,0.5v-0.4h-0.9v4.4h0.9v-2.5c0-0.7,0.3-1.1,0.9-1.1c0.6,0,0.9,0.3,0.9,1.2v2.5H59.3z M52.6,181.6v-0.7
	c-0.2,0-0.4-0.1-0.6-0.1c-0.6,0-1.1,0.3-1.1,1.1v0.6h-0.6v0.8h0.6v3.6h0.9v-3.6h0.8v-0.8h-0.8v-0.5c0-0.3,0.1-0.4,0.4-0.4
	C52.2,181.5,52.4,181.5,52.6,181.6 M49.2,182.4h-0.9v4.4h0.9V182.4z M49.4,181.3c0-0.3-0.2-0.6-0.5-0.6c-0.3,0-0.6,0.3-0.6,0.6
	c0,0.3,0.2,0.5,0.6,0.5C49.1,181.9,49.4,181.6,49.4,181.3 M42.8,183.2l-1.2-0.5l1.2-0.5l-0.4-0.6l-1,0.7l0.1-1.3h-0.7l0.1,1.3
	l-1-0.8l-0.4,0.6l1.2,0.5l-1.2,0.5l0.4,0.6l1-0.7l-0.1,1.3h0.7l-0.1-1.3l1,0.7L42.8,183.2z"/>
</svg>
