<!-- Generator: Adobe Illustrator 22.1.0, SVG Export Plug-In  -->
<svg version="1.1"
	 xmlns="http://www.w3.org/2000/svg" xmlns:xlink="http://www.w3.org/1999/xlink" xmlns:a="http://ns.adobe.com/AdobeSVGViewerExtensions/3.0/"
	 x="0px" y="0px" width="842.7px" height="42.1px" viewBox="0 0 842.7 42.1" style="enable-background:new 0 0 842.7 42.1;"
	 xml:space="preserve">
<style type="text/css">
	.st0{fill:url(#XMLID_231_);}
	.st1{fill:#FFFFFF;}
	.st2{fill:url(#XMLID_232_);}
</style>
<defs>
</defs>
<linearGradient id="XMLID_231_" gradientUnits="userSpaceOnUse" x1="0" y1="21.0535" x2="842.7466" y2="21.0535">
	<stop  offset="0" style="stop-color:#4B257A"/>
	<stop  offset="1" style="stop-color:#954C8D"/>
</linearGradient>
<rect id="XMLID_230_" class="st0" width="842.7" height="42.1"/>
<g id="XMLID_164_">
	<path id="XMLID_228_" class="st1" d="M300,33.5v-7.7c0-1.3-0.2-2.1-0.6-2.6c-0.4-0.5-1-0.7-1.8-0.7c-0.8,0-1.4,0.2-1.8,0.7
		c-0.4,0.5-0.6,1.3-0.6,2.5v7.7h-3.7V15.7l3.7-1.9v6.4c0.3-0.3,0.8-0.6,1.3-0.9s1.2-0.4,2-0.4c1.8,0,3.1,0.6,4,1.7
		c0.8,1.2,1.3,2.7,1.3,4.7v8H300z"/>
	<path id="XMLID_225_" class="st1" d="M315,33.5v-0.9c-0.3,0.4-0.8,0.7-1.3,0.9c-0.6,0.2-1.2,0.4-1.8,0.4c-0.7,0-1.3-0.1-1.9-0.3
		c-0.6-0.2-1.2-0.5-1.7-0.9c-0.5-0.4-0.9-0.9-1.2-1.6c-0.3-0.6-0.5-1.4-0.5-2.2c0-0.8,0.1-1.5,0.4-2.1c0.3-0.6,0.7-1.1,1.2-1.5
		c0.5-0.4,1.1-0.7,1.8-0.9c0.7-0.2,1.4-0.3,2.3-0.3c0.6,0,1.2,0.1,1.6,0.2s0.8,0.2,1.1,0.4v-0.7c0-0.5-0.2-0.9-0.5-1.3
		c-0.3-0.4-0.8-0.5-1.5-0.5c-0.4,0-0.8,0-1.1,0.1c-0.3,0-0.6,0.1-0.9,0.2c-0.3,0.1-0.6,0.2-0.9,0.3c-0.3,0.1-0.6,0.3-0.9,0.4
		l-1.4-2.6c0.4-0.2,0.8-0.4,1.2-0.6c0.4-0.2,0.8-0.3,1.2-0.4c0.4-0.1,0.9-0.2,1.3-0.3c0.5-0.1,1-0.1,1.6-0.1c0.9,0,1.6,0.1,2.3,0.3
		c0.7,0.2,1.3,0.5,1.8,1c0.5,0.4,0.9,0.9,1.2,1.6s0.4,1.3,0.4,2.1v9.5H315z M315,27.6c-0.3-0.2-0.7-0.3-1-0.4
		c-0.4-0.1-0.9-0.1-1.6-0.1c-0.7,0-1.2,0.2-1.6,0.5c-0.4,0.3-0.6,0.7-0.6,1.3c0,0.5,0.2,0.9,0.5,1.3c0.3,0.4,0.9,0.6,1.7,0.6
		c0.6,0,1.1-0.1,1.6-0.4c0.5-0.3,0.8-0.6,1-0.9V27.6z"/>
	<path id="XMLID_223_" class="st1" d="M333.4,29.4c0,0.8-0.2,1.5-0.5,2.1c-0.3,0.6-0.7,1-1.2,1.4c-0.5,0.4-1.1,0.6-1.8,0.8
		c-0.7,0.2-1.4,0.2-2.2,0.2c-1.1,0-2.2-0.1-3.3-0.4s-1.9-0.7-2.7-1.2l1.2-2.8c0.8,0.4,1.5,0.7,2.3,1c0.8,0.2,1.7,0.3,2.6,0.3
		c0.7,0,1.2-0.1,1.5-0.3s0.4-0.4,0.4-0.8c0-0.3-0.1-0.6-0.4-0.8c-0.3-0.2-0.8-0.4-1.6-0.6c-0.8-0.3-1.6-0.5-2.3-0.8
		c-0.7-0.3-1.3-0.6-1.8-0.9c-0.5-0.4-0.9-0.8-1.1-1.3c-0.3-0.5-0.4-1.1-0.4-1.9c0-0.7,0.1-1.4,0.4-1.9c0.3-0.5,0.7-1,1.2-1.3
		c0.5-0.3,1.1-0.6,1.8-0.8c0.7-0.2,1.5-0.2,2.3-0.2c0.9,0,1.8,0.1,2.7,0.4c0.9,0.3,1.8,0.6,2.5,1l-1.2,2.9c-0.7-0.4-1.4-0.7-2.1-0.8
		c-0.7-0.2-1.4-0.3-2-0.3c-0.8,0-1.3,0.1-1.5,0.2c-0.3,0.2-0.4,0.4-0.4,0.7c0,0.1,0,0.3,0.1,0.4c0.1,0.1,0.2,0.2,0.4,0.4
		c0.2,0.1,0.5,0.2,0.9,0.4c0.4,0.1,0.9,0.3,1.5,0.5c0.6,0.2,1.2,0.4,1.8,0.7c0.6,0.2,1.1,0.5,1.5,0.9c0.4,0.3,0.8,0.8,1,1.3
		C333.3,28.1,333.4,28.7,333.4,29.4z"/>
	<path id="XMLID_220_" class="st1" d="M348.6,16c0,0.6-0.2,1.1-0.6,1.5c-0.4,0.4-0.9,0.6-1.5,0.6s-1.1-0.2-1.5-0.6
		c-0.4-0.4-0.6-0.9-0.6-1.5c0-0.6,0.2-1.1,0.6-1.5c0.4-0.4,0.9-0.6,1.5-0.6s1.1,0.2,1.5,0.6C348.4,15,348.6,15.5,348.6,16z
		 M344.6,33.5V19.3h3.7v14.2H344.6z"/>
	<path id="XMLID_217_" class="st1" d="M359.9,33.5v-0.9c-0.4,0.3-0.8,0.6-1.3,0.8c-0.5,0.2-1.1,0.4-1.7,0.4c-0.8,0-1.5-0.1-2.1-0.4
		s-1.3-0.7-1.8-1.4c-0.5-0.6-0.9-1.4-1.2-2.3c-0.3-0.9-0.4-2.1-0.4-3.4c0-1.1,0.1-2,0.4-2.9s0.6-1.6,1.1-2.3c0.5-0.6,1-1.1,1.7-1.5
		c0.7-0.4,1.5-0.5,2.3-0.5c0.6,0,1.2,0.1,1.7,0.3c0.5,0.2,0.9,0.5,1.3,0.8v-4.5l3.7-1.9v19.7H359.9z M359.9,23.8
		c-0.6-0.8-1.4-1.2-2.5-1.2c-1.5,0-2.2,1.2-2.2,3.6c0,1.5,0.2,2.5,0.7,3.2c0.4,0.6,1,1,1.8,1c0.6,0,1-0.1,1.4-0.3s0.6-0.5,0.9-0.9
		V23.8z"/>
	<path id="XMLID_214_" class="st1" d="M378.8,26.4c0,0.3,0,0.5,0,0.7c0,0.2,0,0.4,0,0.5h-8.5c0,0.5,0.1,0.9,0.3,1.2
		c0.2,0.3,0.4,0.6,0.7,0.8c0.3,0.2,0.6,0.4,0.9,0.5c0.3,0.1,0.7,0.1,1,0.1c0.5,0,1-0.1,1.4-0.3c0.4-0.2,0.8-0.4,1-0.7l2.6,2.2
		c-0.6,0.7-1.3,1.3-2.3,1.7s-1.9,0.6-2.8,0.6c-1,0-1.9-0.2-2.8-0.5c-0.8-0.4-1.5-0.8-2.1-1.5c-0.6-0.6-1-1.4-1.3-2.3
		c-0.3-0.9-0.5-1.9-0.5-3c0-1.1,0.2-2.1,0.5-3c0.3-0.9,0.8-1.7,1.3-2.3c0.6-0.7,1.2-1.2,2-1.5c0.8-0.4,1.6-0.5,2.5-0.5
		c0.9,0,1.8,0.2,2.5,0.6s1.4,0.9,1.9,1.6c0.5,0.7,0.9,1.5,1.2,2.4C378.7,24.5,378.8,25.4,378.8,26.4z M375.2,24.8
		c0-0.3-0.1-0.6-0.2-0.9c-0.1-0.3-0.3-0.6-0.5-0.8c-0.2-0.2-0.5-0.4-0.8-0.6c-0.3-0.1-0.7-0.2-1.1-0.2c-0.7,0-1.2,0.2-1.6,0.7
		c-0.4,0.5-0.6,1.1-0.7,1.8H375.2z"/>
	<path id="XMLID_211_" class="st1" d="M389.4,33.5v-0.9c-0.3,0.4-0.8,0.7-1.3,0.9c-0.6,0.2-1.2,0.4-1.8,0.4c-0.7,0-1.3-0.1-1.9-0.3
		c-0.6-0.2-1.2-0.5-1.7-0.9c-0.5-0.4-0.9-0.9-1.2-1.6c-0.3-0.6-0.5-1.4-0.5-2.2c0-0.8,0.1-1.5,0.4-2.1c0.3-0.6,0.7-1.1,1.2-1.5
		c0.5-0.4,1.1-0.7,1.8-0.9c0.7-0.2,1.4-0.3,2.3-0.3c0.6,0,1.2,0.1,1.6,0.2s0.8,0.2,1.1,0.4v-0.7c0-0.5-0.2-0.9-0.5-1.3
		c-0.3-0.4-0.8-0.5-1.5-0.5c-0.4,0-0.8,0-1.1,0.1c-0.3,0-0.6,0.1-0.9,0.2c-0.3,0.1-0.6,0.2-0.9,0.3c-0.3,0.1-0.6,0.3-0.9,0.4
		l-1.4-2.6c0.4-0.2,0.8-0.4,1.2-0.6c0.4-0.2,0.8-0.3,1.2-0.4c0.4-0.1,0.9-0.2,1.3-0.3c0.5-0.1,1-0.1,1.6-0.1c0.9,0,1.6,0.1,2.3,0.3
		c0.7,0.2,1.3,0.5,1.8,1c0.5,0.4,0.9,0.9,1.2,1.6s0.4,1.3,0.4,2.1v9.5H389.4z M389.4,27.6c-0.3-0.2-0.7-0.3-1-0.4
		c-0.4-0.1-0.9-0.1-1.6-0.1c-0.7,0-1.2,0.2-1.6,0.5c-0.4,0.3-0.6,0.7-0.6,1.3c0,0.5,0.2,0.9,0.5,1.3c0.3,0.4,0.9,0.6,1.7,0.6
		c0.6,0,1.1-0.1,1.6-0.4c0.5-0.3,0.8-0.6,1-0.9V27.6z"/>
	<path id="XMLID_209_" class="st1" d="M396.8,33.5V15.7l3.7-1.9v19.7H396.8z"/>
	<path id="XMLID_206_" class="st1" d="M424.3,26.6c0,1.1-0.1,2-0.4,2.9c-0.2,0.9-0.6,1.6-1.1,2.3c-0.5,0.6-1,1.1-1.7,1.5
		c-0.7,0.4-1.5,0.5-2.3,0.5c-0.6,0-1.2-0.1-1.7-0.3c-0.5-0.2-0.9-0.5-1.3-0.8v4.2l-3.7,1.9V19.3h3.7v0.9c0.4-0.3,0.8-0.6,1.3-0.8
		s1.1-0.4,1.7-0.4c0.8,0,1.5,0.1,2.1,0.4c0.7,0.3,1.2,0.7,1.8,1.4c0.5,0.6,0.9,1.4,1.2,2.4C424.1,24.1,424.3,25.3,424.3,26.6z
		 M420.5,26.7c0-1.5-0.2-2.5-0.7-3.2s-1-1-1.8-1c-0.6,0-1,0.1-1.4,0.3c-0.3,0.2-0.6,0.5-0.9,0.9v5.3c0.6,0.8,1.4,1.2,2.5,1.2
		C419.8,30.3,420.5,29.1,420.5,26.7z"/>
	<path id="XMLID_204_" class="st1" d="M435.8,33.5v-7.7c0-1.3-0.2-2.1-0.6-2.6c-0.4-0.5-1-0.7-1.8-0.7c-0.8,0-1.4,0.2-1.8,0.7
		c-0.4,0.5-0.6,1.3-0.6,2.5v7.7h-3.7V15.7l3.7-1.9v6.4c0.3-0.3,0.8-0.6,1.3-0.9s1.2-0.4,2-0.4c1.8,0,3.1,0.6,4,1.7
		c0.8,1.2,1.3,2.7,1.3,4.7v8H435.8z"/>
	<path id="XMLID_201_" class="st1" d="M450.8,33.5v-0.9c-0.3,0.4-0.8,0.7-1.3,0.9c-0.6,0.2-1.2,0.4-1.8,0.4c-0.7,0-1.3-0.1-1.9-0.3
		c-0.6-0.2-1.2-0.5-1.7-0.9c-0.5-0.4-0.9-0.9-1.2-1.6c-0.3-0.6-0.5-1.4-0.5-2.2c0-0.8,0.1-1.5,0.4-2.1c0.3-0.6,0.7-1.1,1.2-1.5
		c0.5-0.4,1.1-0.7,1.8-0.9c0.7-0.2,1.4-0.3,2.3-0.3c0.6,0,1.2,0.1,1.6,0.2s0.8,0.2,1.1,0.4v-0.7c0-0.5-0.2-0.9-0.5-1.3
		c-0.3-0.4-0.8-0.5-1.5-0.5c-0.4,0-0.8,0-1.1,0.1c-0.3,0-0.6,0.1-0.9,0.2c-0.3,0.1-0.6,0.2-0.9,0.3c-0.3,0.1-0.6,0.3-0.9,0.4
		l-1.4-2.6c0.4-0.2,0.8-0.4,1.2-0.6c0.4-0.2,0.8-0.3,1.2-0.4c0.4-0.1,0.9-0.2,1.3-0.3c0.5-0.1,1-0.1,1.6-0.1c0.9,0,1.6,0.1,2.3,0.3
		c0.7,0.2,1.3,0.5,1.8,1c0.5,0.4,0.9,0.9,1.2,1.6s0.4,1.3,0.4,2.1v9.5H450.8z M450.8,27.6c-0.3-0.2-0.7-0.3-1-0.4
		c-0.4-0.1-0.9-0.1-1.6-0.1c-0.7,0-1.2,0.2-1.6,0.5c-0.4,0.3-0.6,0.7-0.6,1.3c0,0.5,0.2,0.9,0.5,1.3c0.3,0.4,0.9,0.6,1.7,0.6
		c0.6,0,1.1-0.1,1.6-0.4c0.5-0.3,0.8-0.6,1-0.9V27.6z"/>
	<path id="XMLID_199_" class="st1" d="M466.3,23.7c-0.3-0.3-0.6-0.5-1-0.7c-0.4-0.2-0.7-0.3-1.2-0.3c-0.4,0-0.7,0-1,0.1
		s-0.5,0.3-0.8,0.5c-0.2,0.2-0.4,0.5-0.5,0.9c-0.1,0.4-0.2,0.9-0.2,1.5v7.7H458V19.3h3.7v0.9c0.3-0.3,0.7-0.6,1.2-0.9
		c0.5-0.2,1-0.4,1.7-0.4c0.6,0,1.1,0.1,1.6,0.3c0.4,0.2,0.8,0.4,1,0.7L466.3,23.7z"/>
	<path id="XMLID_197_" class="st1" d="M486.1,33.5v-7.7c0-1.3-0.2-2.1-0.6-2.6c-0.4-0.5-0.9-0.7-1.7-0.7s-1.3,0.2-1.7,0.7
		c-0.4,0.5-0.6,1.3-0.6,2.5v7.7h-3.7v-7.7c0-1.3-0.2-2.1-0.6-2.6c-0.4-0.5-0.9-0.7-1.7-0.7c-0.8,0-1.3,0.2-1.7,0.7
		c-0.4,0.5-0.6,1.3-0.6,2.5v7.7h-3.7V19.3h3.7v0.9c0.3-0.3,0.7-0.6,1.2-0.9s1.1-0.4,1.9-0.4c0.9,0,1.6,0.1,2.2,0.4
		c0.6,0.3,1.2,0.7,1.7,1.4c0.5-0.5,1.1-0.9,1.7-1.3c0.7-0.4,1.6-0.5,2.8-0.5c0.9,0,1.7,0.1,2.3,0.4c0.6,0.3,1.2,0.7,1.6,1.3
		c0.4,0.6,0.7,1.3,0.9,2.1s0.3,1.7,0.3,2.7v8H486.1z"/>
	<path id="XMLID_194_" class="st1" d="M501.1,33.5v-0.9c-0.3,0.4-0.8,0.7-1.3,0.9c-0.6,0.2-1.2,0.4-1.8,0.4c-0.7,0-1.3-0.1-1.9-0.3
		c-0.6-0.2-1.2-0.5-1.7-0.9c-0.5-0.4-0.9-0.9-1.2-1.6c-0.3-0.6-0.5-1.4-0.5-2.2c0-0.8,0.1-1.5,0.4-2.1c0.3-0.6,0.7-1.1,1.2-1.5
		c0.5-0.4,1.1-0.7,1.8-0.9c0.7-0.2,1.4-0.3,2.3-0.3c0.6,0,1.2,0.1,1.6,0.2s0.8,0.2,1.1,0.4v-0.7c0-0.5-0.2-0.9-0.5-1.3
		c-0.3-0.4-0.8-0.5-1.5-0.5c-0.4,0-0.8,0-1.1,0.1c-0.3,0-0.6,0.1-0.9,0.2c-0.3,0.1-0.6,0.2-0.9,0.3c-0.3,0.1-0.6,0.3-0.9,0.4
		l-1.4-2.6c0.4-0.2,0.8-0.4,1.2-0.6c0.4-0.2,0.8-0.3,1.2-0.4c0.4-0.1,0.9-0.2,1.3-0.3c0.5-0.1,1-0.1,1.6-0.1c0.9,0,1.6,0.1,2.3,0.3
		c0.7,0.2,1.3,0.5,1.8,1c0.5,0.4,0.9,0.9,1.2,1.6s0.4,1.3,0.4,2.1v9.5H501.1z M501.1,27.6c-0.3-0.2-0.7-0.3-1-0.4
		c-0.4-0.1-0.9-0.1-1.6-0.1c-0.7,0-1.2,0.2-1.6,0.5c-0.4,0.3-0.6,0.7-0.6,1.3c0,0.5,0.2,0.9,0.5,1.3c0.3,0.4,0.9,0.6,1.7,0.6
		c0.6,0,1.1-0.1,1.6-0.4c0.5-0.3,0.8-0.6,1-0.9V27.6z"/>
	<path id="XMLID_192_" class="st1" d="M518.9,31.9c-0.4,0.4-0.8,0.7-1.3,1c-0.5,0.3-1,0.5-1.5,0.7c-0.6,0.2-1.2,0.2-1.9,0.2
		c-0.9,0-1.8-0.2-2.6-0.5c-0.8-0.4-1.5-0.9-2.1-1.5c-0.6-0.6-1.1-1.4-1.4-2.3c-0.3-0.9-0.5-1.9-0.5-3s0.2-2.1,0.5-3
		c0.3-0.9,0.8-1.7,1.4-2.3s1.3-1.2,2.1-1.5c0.8-0.4,1.7-0.5,2.7-0.5c1.3,0,2.5,0.3,3.4,0.9c0.9,0.6,1.6,1.3,2.2,2.2l-2.5,2.5
		c-0.4-0.6-0.9-1.1-1.4-1.5c-0.5-0.4-1.1-0.6-1.9-0.6c-0.9,0-1.6,0.3-2.1,1c-0.5,0.7-0.8,1.6-0.8,2.8c0,1.1,0.3,2.1,0.8,2.8
		c0.5,0.7,1.2,1,2.1,1c0.7,0,1.4-0.2,1.9-0.5c0.5-0.3,1-0.8,1.5-1.3l2.4,2.2C519.7,31.1,519.3,31.5,518.9,31.9z"/>
	<path id="XMLID_189_" class="st1" d="M534.5,26.4c0,1.1-0.2,2.1-0.5,3s-0.8,1.7-1.3,2.3c-0.6,0.6-1.2,1.2-2,1.5
		c-0.8,0.4-1.6,0.5-2.6,0.5c-0.9,0-1.8-0.2-2.5-0.5c-0.8-0.4-1.5-0.9-2-1.5c-0.6-0.6-1-1.4-1.3-2.3s-0.5-1.9-0.5-3s0.2-2.1,0.5-3
		c0.3-0.9,0.8-1.7,1.3-2.3c0.6-0.7,1.2-1.2,2-1.5c0.8-0.4,1.6-0.5,2.5-0.5c0.9,0,1.8,0.2,2.6,0.5c0.8,0.4,1.5,0.9,2,1.5
		c0.6,0.7,1,1.4,1.3,2.3C534.4,24.4,534.5,25.3,534.5,26.4z M530.8,26.4c0-1.1-0.2-2-0.6-2.7s-1.1-1.1-2-1.1s-1.6,0.4-2,1.1
		c-0.4,0.7-0.6,1.6-0.6,2.7c0,1.1,0.2,2,0.6,2.7c0.4,0.7,1.1,1.1,2,1.1c0.4,0,0.8-0.1,1.2-0.3c0.3-0.2,0.6-0.5,0.8-0.8
		c0.2-0.4,0.4-0.8,0.5-1.2S530.8,26.9,530.8,26.4z"/>
	<path id="XMLID_187_" class="st1" d="M545.6,33.5L543,27l-1.8,2.2v4.3h-3.7V15.7l3.7-1.9v7.5c0,0.2,0,0.5,0,0.7s0,0.6,0,0.8
		c0,0.3,0,0.5,0,0.8c0,0.3,0,0.5,0,0.6c0.2-0.3,0.4-0.6,0.7-1c0.3-0.4,0.5-0.7,0.8-1.1l2.3-3h4.4l-3.6,4.5l4.1,9.7H545.6z"/>
	<path id="XMLID_184_" class="st1" d="M556.4,16c0,0.6-0.2,1.1-0.6,1.5c-0.4,0.4-0.9,0.6-1.5,0.6s-1.1-0.2-1.5-0.6
		c-0.4-0.4-0.6-0.9-0.6-1.5c0-0.6,0.2-1.1,0.6-1.5c0.4-0.4,0.9-0.6,1.5-0.6s1.1,0.2,1.5,0.6C556.2,15,556.4,15.5,556.4,16z
		 M552.4,33.5V19.3h3.7v14.2H552.4z"/>
	<path id="XMLID_182_" class="st1" d="M568.4,33.5v-7.7c0-1.3-0.2-2.1-0.6-2.6c-0.4-0.5-1-0.7-1.8-0.7c-0.8,0-1.4,0.2-1.8,0.7
		c-0.4,0.5-0.6,1.3-0.6,2.5v7.7h-3.7V19.3h3.7v0.9c0.3-0.3,0.8-0.6,1.3-0.9s1.2-0.4,2-0.4c1.8,0,3.1,0.6,4,1.7
		c0.8,1.2,1.3,2.7,1.3,4.7v8H568.4z"/>
	<path id="XMLID_179_" class="st1" d="M587.2,26.4c0,0.3,0,0.5,0,0.7c0,0.2,0,0.4,0,0.5h-8.5c0,0.5,0.1,0.9,0.3,1.2
		c0.2,0.3,0.4,0.6,0.7,0.8c0.3,0.2,0.6,0.4,0.9,0.5c0.3,0.1,0.7,0.1,1,0.1c0.5,0,1-0.1,1.4-0.3c0.4-0.2,0.8-0.4,1-0.7l2.6,2.2
		c-0.6,0.7-1.3,1.3-2.3,1.7s-1.9,0.6-2.8,0.6c-1,0-1.9-0.2-2.8-0.5c-0.8-0.4-1.5-0.8-2.1-1.5c-0.6-0.6-1-1.4-1.3-2.3
		c-0.3-0.9-0.5-1.9-0.5-3c0-1.1,0.2-2.1,0.5-3c0.3-0.9,0.8-1.7,1.3-2.3c0.6-0.7,1.2-1.2,2-1.5c0.8-0.4,1.6-0.5,2.5-0.5
		c0.9,0,1.8,0.2,2.5,0.6s1.4,0.9,1.9,1.6c0.5,0.7,0.9,1.5,1.2,2.4C587.1,24.5,587.2,25.4,587.2,26.4z M583.6,24.8
		c0-0.3-0.1-0.6-0.2-0.9c-0.1-0.3-0.3-0.6-0.5-0.8c-0.2-0.2-0.5-0.4-0.8-0.6c-0.3-0.1-0.7-0.2-1.1-0.2c-0.7,0-1.2,0.2-1.6,0.7
		c-0.4,0.5-0.6,1.1-0.7,1.8H583.6z"/>
	<path id="XMLID_177_" class="st1" d="M597.8,32.9c-0.3,0.3-0.7,0.5-1.2,0.6c-0.5,0.2-1.1,0.2-1.6,0.2s-1.1-0.1-1.6-0.3
		c-0.5-0.2-0.9-0.5-1.2-0.9c-0.3-0.4-0.6-0.8-0.8-1.3c-0.2-0.5-0.3-1.1-0.3-1.7v-6.7h-2.4v-3.5h2.4v-3.6l3.7-1.9v5.5h3.4v3.5h-3.4
		v5.7c0,0.7,0.1,1.1,0.4,1.4c0.2,0.2,0.6,0.3,1,0.3c0.3,0,0.7-0.1,1-0.2c0.3-0.2,0.7-0.4,1.1-0.8L597.8,32.9z"/>
	<path id="XMLID_174_" class="st1" d="M606,16c0,0.6-0.2,1.1-0.6,1.5c-0.4,0.4-0.9,0.6-1.5,0.6s-1.1-0.2-1.5-0.6
		c-0.4-0.4-0.6-0.9-0.6-1.5c0-0.6,0.2-1.1,0.6-1.5c0.4-0.4,0.9-0.6,1.5-0.6s1.1,0.2,1.5,0.6C605.8,15,606,15.5,606,16z M602,33.5
		V19.3h3.7v14.2H602z"/>
	<path id="XMLID_172_" class="st1" d="M620.1,31.9c-0.4,0.4-0.8,0.7-1.3,1c-0.5,0.3-1,0.5-1.5,0.7c-0.6,0.2-1.2,0.2-1.9,0.2
		c-0.9,0-1.8-0.2-2.6-0.5c-0.8-0.4-1.5-0.9-2.1-1.5c-0.6-0.6-1.1-1.4-1.4-2.3c-0.3-0.9-0.5-1.9-0.5-3s0.2-2.1,0.5-3
		c0.3-0.9,0.8-1.7,1.4-2.3s1.3-1.2,2.1-1.5c0.8-0.4,1.7-0.5,2.7-0.5c1.3,0,2.5,0.3,3.4,0.9c0.9,0.6,1.6,1.3,2.2,2.2l-2.5,2.5
		c-0.4-0.6-0.9-1.1-1.4-1.5c-0.5-0.4-1.1-0.6-1.9-0.6c-0.9,0-1.6,0.3-2.1,1c-0.5,0.7-0.8,1.6-0.8,2.8c0,1.1,0.3,2.1,0.8,2.8
		c0.5,0.7,1.2,1,2.1,1c0.7,0,1.4-0.2,1.9-0.5c0.5-0.3,1-0.8,1.5-1.3l2.4,2.2C620.8,31.1,620.5,31.5,620.1,31.9z"/>
	<path id="XMLID_170_" class="st1" d="M635.1,29.4c0,0.8-0.2,1.5-0.5,2.1c-0.3,0.6-0.7,1-1.2,1.4c-0.5,0.4-1.1,0.6-1.8,0.8
		c-0.7,0.2-1.4,0.2-2.2,0.2c-1.1,0-2.2-0.1-3.3-0.4s-1.9-0.7-2.7-1.2l1.2-2.8c0.8,0.4,1.5,0.7,2.3,1c0.8,0.2,1.7,0.3,2.6,0.3
		c0.7,0,1.2-0.1,1.5-0.3s0.4-0.4,0.4-0.8c0-0.3-0.1-0.6-0.4-0.8c-0.3-0.2-0.8-0.4-1.6-0.6c-0.8-0.3-1.6-0.5-2.3-0.8
		c-0.7-0.3-1.3-0.6-1.8-0.9c-0.5-0.4-0.9-0.8-1.1-1.3c-0.3-0.5-0.4-1.1-0.4-1.9c0-0.7,0.1-1.4,0.4-1.9c0.3-0.5,0.7-1,1.2-1.3
		c0.5-0.3,1.1-0.6,1.8-0.8c0.7-0.2,1.5-0.2,2.3-0.2c0.9,0,1.8,0.1,2.7,0.4c0.9,0.3,1.8,0.6,2.5,1l-1.2,2.9c-0.7-0.4-1.4-0.7-2.1-0.8
		c-0.7-0.2-1.4-0.3-2-0.3c-0.8,0-1.3,0.1-1.5,0.2c-0.3,0.2-0.4,0.4-0.4,0.7c0,0.1,0,0.3,0.1,0.4c0.1,0.1,0.2,0.2,0.4,0.4
		c0.2,0.1,0.5,0.2,0.9,0.4c0.4,0.1,0.9,0.3,1.5,0.5c0.6,0.2,1.2,0.4,1.8,0.7c0.6,0.2,1.1,0.5,1.5,0.9c0.4,0.3,0.8,0.8,1,1.3
		C634.9,28.1,635.1,28.7,635.1,29.4z"/>
	<path id="XMLID_168_" class="st1" d="M644,20.1c0,0.5-0.1,0.9-0.3,1.2c-0.2,0.4-0.4,0.7-0.7,0.9c-0.3,0.2-0.7,0.4-1.1,0.5
		c-0.4,0.1-0.9,0.2-1.5,0.2c-0.7,0-1.3-0.1-1.9-0.4c-0.6-0.3-1.1-0.7-1.6-1.3l1.3-1.1c0.4,0.4,0.7,0.7,1.1,0.8
		c0.4,0.2,0.8,0.2,1.2,0.2c0.6,0,1-0.1,1.3-0.3c0.3-0.2,0.4-0.5,0.4-0.8c0-0.3-0.1-0.6-0.3-0.8c-0.2-0.2-0.5-0.2-1-0.2h-1v-1.7h0.9
		c0.4,0,0.6-0.1,0.8-0.2c0.2-0.2,0.2-0.4,0.2-0.7c0-0.1,0-0.2-0.1-0.3c-0.1-0.1-0.1-0.2-0.2-0.3c-0.1-0.1-0.3-0.1-0.5-0.2
		c-0.2,0-0.4-0.1-0.7-0.1c-0.7,0-1.2,0.2-1.7,0.7l-1.3-1.2c0.4-0.4,0.9-0.8,1.3-1c0.5-0.2,1-0.3,1.7-0.3c0.5,0,0.9,0.1,1.3,0.2
		c0.4,0.1,0.7,0.3,1,0.5c0.3,0.2,0.5,0.5,0.7,0.8s0.3,0.7,0.3,1.1c0,0.5-0.1,0.9-0.3,1.2s-0.4,0.5-0.7,0.6c0.1,0.1,0.3,0.1,0.5,0.2
		c0.2,0.1,0.3,0.2,0.4,0.4c0.1,0.2,0.3,0.3,0.3,0.6C644,19.5,644,19.8,644,20.1z"/>
	<path id="XMLID_165_" class="st1" d="M651,21.6c0,0.3-0.1,0.7-0.2,1c-0.1,0.3-0.3,0.6-0.6,0.8c-0.2,0.2-0.5,0.4-0.8,0.6
		c-0.3,0.1-0.6,0.2-1,0.2c-0.3,0-0.7-0.1-1-0.2c-0.3-0.1-0.6-0.3-0.8-0.6c-0.2-0.2-0.4-0.5-0.6-0.8c-0.1-0.3-0.2-0.6-0.2-1
		c0-0.3,0.1-0.7,0.2-1c0.1-0.3,0.3-0.6,0.6-0.8c0.2-0.2,0.5-0.4,0.8-0.6c0.3-0.1,0.6-0.2,1-0.2c0.3,0,0.7,0.1,1,0.2
		c0.3,0.1,0.6,0.3,0.8,0.6c0.2,0.2,0.4,0.5,0.6,0.8C651,20.9,651,21.2,651,21.6z M651,31.3c0,0.3-0.1,0.7-0.2,1
		c-0.1,0.3-0.3,0.6-0.6,0.8c-0.2,0.2-0.5,0.4-0.8,0.6c-0.3,0.1-0.6,0.2-1,0.2c-0.3,0-0.7-0.1-1-0.2c-0.3-0.1-0.6-0.3-0.8-0.6
		c-0.2-0.2-0.4-0.5-0.6-0.8c-0.1-0.3-0.2-0.6-0.2-1c0-0.3,0.1-0.7,0.2-1c0.1-0.3,0.3-0.6,0.6-0.8c0.2-0.2,0.5-0.4,0.8-0.6
		c0.3-0.1,0.6-0.2,1-0.2c0.3,0,0.7,0.1,1,0.2c0.3,0.1,0.6,0.3,0.8,0.6c0.2,0.2,0.4,0.5,0.6,0.8C651,30.6,651,30.9,651,31.3z"/>
</g>
<g id="XMLID_1_">
	<g id="XMLID_3_">
		<polygon id="XMLID_57_" class="st1" points="181.4,24 182.5,24 182.5,33.2 188.9,33.2 188.9,34.1 181.4,34.1 		"/>
		<path id="XMLID_54_" class="st1" d="M196.7,29.9c-0.3-1.8-1.6-2.5-3.1-2.5c-1.4,0-2.8,0.7-3,2.5H196.7z M197.5,31.8
			c-0.4,1.3-1.5,2.6-4,2.6c-3,0-4-2.1-4-3.9c0-2.1,1.3-3.9,4-3.9c1.9,0,4.2,0.8,4.2,4.2h-7.2c0,1.5,1.1,2.8,3,2.8
			c1.8,0,2.6-0.6,2.9-1.7H197.5z"/>
		<polygon id="XMLID_53_" class="st1" points="205,26.8 206.2,26.8 202.7,34.1 201.6,34.1 198.1,26.8 199.2,26.8 202.1,32.9 		"/>
		<path id="XMLID_50_" class="st1" d="M213.8,29.9c-0.3-1.8-1.6-2.5-3.1-2.5c-1.4,0-2.8,0.7-3,2.5H213.8z M214.7,31.8
			c-0.4,1.3-1.5,2.6-4,2.6c-3,0-4-2.1-4-3.9c0-2.1,1.3-3.9,4-3.9c1.9,0,4.2,0.8,4.2,4.2h-7.2c0,1.5,1.1,2.8,3,2.8
			c1.8,0,2.6-0.6,2.9-1.7H214.7z"/>
		<path id="XMLID_49_" class="st1" d="M216.9,24.5h1.1v2.3h2.1v0.8h-2.1v4.9c0,0.6,0.2,0.9,1.1,0.9c0.5,0,0.8,0,1-0.1v0.9
			c-0.4,0.1-0.8,0.1-1.2,0.1c-1.6,0-2-0.6-2-1.8v-4.8h-1.6v-0.8h1.6V24.5z"/>
		<path id="XMLID_45_" class="st1" d="M221.1,26.8h1.1v7.3h-1.1V26.8z M221.1,24h1.1v1.6h-1.1V24z"/>
		<path id="XMLID_44_" class="st1" d="M223.8,26.8h1.1v1.7h0c0.4-0.9,1.1-1.9,2.8-1.9c0.3,0,0.5,0,0.6,0.1v1.1
			c-0.3-0.1-0.6-0.1-1-0.1c-1.1,0-2.5,0.7-2.5,2.8v3.7h-1.1V26.8z"/>
		<path id="XMLID_41_" class="st1" d="M235,30.2c-0.5,0.3-1.2,0.3-3.3,0.5c-1.2,0.1-1.9,0.5-1.9,1.4c0,1.1,1,1.5,2.1,1.5
			c1.4,0,3.1-0.8,3.1-2.3V30.2z M229,29c0.2-1.5,1-2.5,3.5-2.5c2.5,0,3.4,0.8,3.4,2.2v3.8c0,0.6,0.2,0.8,0.6,0.8c0.2,0,0.4,0,0.5,0
			v0.7c-0.2,0-0.5,0.1-0.9,0.1c-1.1,0-1.1-0.7-1.1-1.3h0c-0.3,0.5-1,1.5-3.5,1.5c-1.3,0-2.9-0.6-2.9-2.2c0-2,2.1-2.2,3.7-2.3
			c2.3-0.1,2.6-0.3,2.6-1c0-1.1-0.7-1.4-2.5-1.4c-1.7,0-2.5,0.4-2.5,1.6H229z"/>
		<path id="XMLID_40_" class="st1" d="M245.3,31.5c-0.2,1-1.1,2.8-3.8,2.8c-2.7,0-4.2-1.6-4.2-3.9c0-2.2,1.4-3.9,4.2-3.9
			c2.5,0,3.5,1.6,3.7,2.6h-1.1c-0.3-1.3-1.3-1.8-2.6-1.8c-2.1,0-3.1,1.3-3.1,3c0,1.8,1.1,3,3.1,3c1.6,0,2.4-0.8,2.7-2H245.3z"/>
		<path id="XMLID_37_" class="st1" d="M253.4,29.9c-0.3-1.8-1.6-2.5-3.1-2.5c-1.4,0-2.8,0.7-3.1,2.5H253.4z M254.2,31.8
			c-0.4,1.3-1.5,2.6-4,2.6c-3,0-4-2.1-4-3.9c0-2.1,1.3-3.9,4-3.9c1.9,0,4.2,0.8,4.2,4.2h-7.2c0,1.5,1.1,2.8,3,2.8
			c1.8,0,2.6-0.6,2.9-1.7H254.2z"/>
		<path id="XMLID_36_" class="st1" d="M256.4,24.5h1.1v2.3h2.1v0.8h-2.1v4.9c0,0.6,0.2,0.9,1.1,0.9c0.5,0,0.8,0,1-0.1v0.9
			c-0.4,0.1-0.8,0.1-1.2,0.1c-1.6,0-2-0.6-2-1.8v-4.8h-1.6v-0.8h1.6V24.5z"/>
		<path id="XMLID_33_" class="st1" d="M266.6,30.2c-0.5,0.3-1.2,0.3-3.3,0.5c-1.2,0.1-1.9,0.5-1.9,1.4c0,1.1,1,1.5,2.1,1.5
			c1.4,0,3.1-0.8,3.1-2.3V30.2z M260.7,29c0.2-1.5,1-2.5,3.5-2.5c2.5,0,3.4,0.8,3.4,2.2v3.8c0,0.6,0.2,0.8,0.6,0.8
			c0.2,0,0.4,0,0.6,0v0.7c-0.2,0-0.5,0.1-0.9,0.1c-1.1,0-1.1-0.7-1.1-1.3h0c-0.3,0.5-1,1.5-3.5,1.5c-1.3,0-2.9-0.6-2.9-2.2
			c0-2,2.1-2.2,3.7-2.3c2.3-0.1,2.6-0.3,2.6-1c0-1.1-0.7-1.4-2.4-1.4c-1.7,0-2.5,0.4-2.5,1.6H260.7z"/>
		<path id="XMLID_32_" class="st1" d="M281,29.5c0-1.3-0.7-2-2.2-2c-1.6,0-2.5,0.9-2.5,2.4v4.3h-1.1v-5c0-0.9-0.7-1.7-2.1-1.7
			c-1.5,0-2.6,0.9-2.6,2.6v4.1h-1.1v-7.3h1.1v1.4h0c0.4-0.8,1.2-1.6,2.9-1.6c1.7,0,2.4,0.9,2.7,1.6c0.4-0.7,1.4-1.6,2.9-1.6
			c2.1,0,3,1,3,2.6v5H281V29.5z"/>
		<polygon id="XMLID_31_" class="st1" points="270.7,22.1 267.7,22.1 265.4,18.1 263,22.1 260.2,22.1 264,16.1 260.4,10.4 
			263.3,10.4 265.4,14.2 267.6,10.4 270.4,10.4 266.8,16 		"/>
		<path id="XMLID_28_" class="st1" d="M277.5,15.5c1.3,0,1.9-0.4,1.9-1.6c0-0.6-0.3-1.5-1.7-1.5h-3.1v3.1H277.5z M272.2,10.4h6
			c3.1,0,3.7,2.3,3.7,3.3c0,1.3-0.7,2.4-1.8,2.8c1,0.4,1.5,0.8,1.5,3c0,1.7,0,2.1,0.5,2.3v0.3h-2.7c-0.2-0.6-0.3-1.2-0.3-2.4
			c0-1.6-0.1-2.2-1.9-2.2h-2.6v4.6h-2.4V10.4z"/>
		<polygon id="XMLID_27_" class="st1" points="187.8,22 184.8,16.7 183.2,18.5 183.2,22 181,22 181,10.4 183.2,10.4 183.2,15.4 
			187.4,10.4 190.1,10.4 186.3,15 190.4,22 		"/>
		<path id="XMLID_24_" class="st1" d="M206.2,12.4h-2.1v3.2h2.1c1,0,1.7-0.6,1.7-1.6C207.9,13,207.3,12.4,206.2,12.4 M206.4,17.6
			h-2.3V22h-2.3V10.4h4.5c2.4,0,3.9,1.6,3.9,3.6C210.2,16,208.8,17.6,206.4,17.6"/>
		<path id="XMLID_21_" class="st1" d="M216.6,12.4h-2.1v3.1h2.1c1,0,1.7-0.6,1.7-1.5C218.2,13,217.6,12.4,216.6,12.4 M218.3,22
			l-2.3-4.6h-1.6V22h-2.3V10.4h4.6c2.4,0,3.8,1.6,3.8,3.5c0,1.6-1,2.6-2.1,3l2.6,5H218.3z"/>
		<path id="XMLID_18_" class="st1" d="M226.8,13.8l-1.5,4.2h2.9L226.8,13.8z M229.5,22l-0.7-2.1h-4.1L224,22h-2.4l4.2-11.6h1.8
			l4.3,11.6H229.5z"/>
		<path id="XMLID_15_" class="st1" d="M239.1,13.1c-0.4-0.5-0.9-0.7-1.7-0.7h-1.7v7.6h1.7c0.8,0,1.3-0.2,1.7-0.7
			c0.4-0.5,0.5-1.4,0.5-3.1C239.6,14.4,239.5,13.6,239.1,13.1 M240.7,20.9c-0.8,0.8-1.9,1.1-3.1,1.1h-4.2V10.4h4.2
			c1.2,0,2.3,0.3,3.1,1.1c1.3,1.3,1.2,2.9,1.2,4.6C241.8,17.9,242,19.6,240.7,20.9"/>
		<rect id="XMLID_14_" x="244.2" y="10.4" class="st1" width="2.3" height="11.6"/>
		<polygon id="XMLID_13_" class="st1" points="249.2,22 249.2,10.4 251.5,10.4 251.5,19.9 256.8,19.9 256.8,22 		"/>
		<path id="XMLID_8_" class="st1" d="M254.6,12.2c0.2,0,0.5,0,0.5-0.3c0-0.2-0.2-0.3-0.4-0.3h-0.4v0.5H254.6z M254,11.4h0.7
			c0.4,0,0.6,0.2,0.6,0.5c0,0.3-0.2,0.5-0.5,0.5l0.5,0.8h-0.3l-0.5-0.7h-0.3v0.7H254V11.4z M255.9,12.3c0-0.7-0.6-1.3-1.3-1.3
			c-0.7,0-1.3,0.6-1.3,1.3c0,0.7,0.6,1.3,1.3,1.3C255.3,13.6,255.9,13,255.9,12.3 M254.6,10.8c0.8,0,1.5,0.7,1.5,1.5
			c0,0.8-0.7,1.5-1.5,1.5c-0.8,0-1.5-0.7-1.5-1.5C253.1,11.5,253.8,10.8,254.6,10.8"/>
		<polygon id="XMLID_7_" class="st1" points="191.9,22 199.6,22 199.6,19.9 194.2,19.9 194.2,17.6 191.9,17.6 		"/>
		<path id="XMLID_6_" class="st1" d="M190.9,16.7c0,0,1-2.1,4.6-2.1s5.7-1.3,5.7-1.3s-2.6,2.7-5.2,2.7C193.5,16,192,16,190.9,16.7"
			/>
		<path id="XMLID_5_" class="st1" d="M189.9,18.7c0,0,1-2.1,4.6-2.1c3.7,0,5.7-1.3,5.7-1.3S197.6,18,195,18
			C192.5,18,190.9,18,189.9,18.7"/>
		<polygon id="XMLID_4_" class="st1" points="191.9,15.6 194.2,15.6 194.2,12.4 199.6,12.4 199.6,10.4 191.9,10.4 		"/>
	</g>
</g>
</svg>
