<!-- Generator: Adobe Illustrator 22.1.0, SVG Export Plug-In  -->
<svg version="1.1"
	 xmlns="http://www.w3.org/2000/svg" xmlns:xlink="http://www.w3.org/1999/xlink" xmlns:a="http://ns.adobe.com/AdobeSVGViewerExtensions/3.0/"
	 x="0px" y="0px" width="770px" height="61.5px" viewBox="0 0 770 61.5" style="enable-background:new 0 0 770 61.5;"
	 xml:space="preserve">
<style type="text/css">
	.st0{fill:#236092;}
	.st1{fill:url(#XMLID_363_);}
	.st2{fill:none;stroke:#236092;stroke-width:1.2633;stroke-miterlimit:10;}
	.st3{fill:#FFFFFF;}
	.st4{fill:url(#XMLID_364_);}
</style>
<defs>
</defs>
<g id="XMLID_57_">
	<g>
		<path id="XMLID_208_" class="st0" d="M162.2,27.8c0,0.6-0.1,1.2-0.3,1.7c-0.2,0.5-0.5,0.9-0.9,1.2c-0.4,0.3-0.9,0.6-1.4,0.8
			c-0.6,0.2-1.1,0.3-1.8,0.3h-3.2v5h-1.5V23.9h4.9c0.6,0,1.2,0.1,1.7,0.2c0.5,0.2,0.9,0.4,1.3,0.7c0.4,0.3,0.7,0.7,0.9,1.2
			C162.1,26.6,162.2,27.1,162.2,27.8z M160.7,27.8c0-0.8-0.2-1.5-0.7-1.9c-0.5-0.4-1.2-0.7-2.1-0.7h-3.4v5.2h3.2
			C159.7,30.4,160.7,29.6,160.7,27.8z"/>
		<path id="XMLID_206_" class="st0" d="M169.2,28.6c-0.2-0.1-0.4-0.2-0.6-0.3c-0.2-0.1-0.5-0.1-0.8-0.1c-0.7,0-1.2,0.3-1.6,0.8
			c-0.4,0.5-0.6,1.2-0.6,2.1v5.7h-1.4v-9.6h1.4v1.2c0.2-0.4,0.6-0.7,1-1c0.4-0.3,0.9-0.4,1.4-0.4c0.4,0,0.7,0,0.9,0.1
			s0.5,0.1,0.6,0.2L169.2,28.6z"/>
		<path id="XMLID_203_" class="st0" d="M179.5,31.9c0,0.8-0.1,1.5-0.3,2.2c-0.2,0.6-0.5,1.2-0.9,1.6c-0.4,0.4-0.8,0.8-1.4,1
			c-0.5,0.2-1.1,0.3-1.7,0.3s-1.2-0.1-1.7-0.3c-0.5-0.2-1-0.5-1.3-1c-0.4-0.4-0.7-0.9-0.9-1.6c-0.2-0.6-0.3-1.3-0.3-2.2
			c0-0.8,0.1-1.5,0.3-2.2c0.2-0.6,0.5-1.1,0.9-1.6c0.4-0.4,0.8-0.7,1.4-1c0.5-0.2,1.1-0.3,1.7-0.3c0.6,0,1.2,0.1,1.7,0.3
			c0.5,0.2,1,0.5,1.3,0.9c0.4,0.4,0.7,0.9,0.9,1.6C179.4,30.4,179.5,31.1,179.5,31.9z M178.1,31.9c0-1.3-0.3-2.2-0.8-2.9
			c-0.5-0.6-1.2-1-2.1-1c-0.9,0-1.6,0.3-2.1,1c-0.5,0.6-0.8,1.6-0.8,2.9c0,1.3,0.3,2.2,0.8,2.9c0.5,0.7,1.2,1,2.1,1
			c0.9,0,1.6-0.3,2.1-1C177.9,34.2,178.1,33.2,178.1,31.9z"/>
		<path id="XMLID_201_" class="st0" d="M185.7,36.8h-1.2l-3.5-9.6h1.5l2.5,7.6l0.1,0.5l0.2-0.5l2.5-7.6h1.5L185.7,36.8z"/>
		<path id="XMLID_198_" class="st0" d="M193.1,24.5c0,0.3-0.1,0.5-0.3,0.7c-0.2,0.2-0.4,0.3-0.7,0.3c-0.3,0-0.5-0.1-0.7-0.3
			c-0.2-0.2-0.3-0.4-0.3-0.7c0-0.3,0.1-0.5,0.3-0.7c0.2-0.2,0.4-0.3,0.7-0.3c0.3,0,0.5,0.1,0.7,0.3S193.1,24.2,193.1,24.5z
			 M191.3,36.8v-9.6h1.4v9.6H191.3z"/>
		<path id="XMLID_195_" class="st0" d="M201.6,36.8v-1.2c-0.3,0.4-0.8,0.7-1.2,1c-0.5,0.3-1,0.4-1.7,0.4c-0.5,0-0.9-0.1-1.4-0.3
			c-0.4-0.2-0.8-0.5-1.1-0.9c-0.3-0.4-0.6-0.9-0.7-1.5c-0.2-0.6-0.3-1.3-0.3-2.2c0-0.9,0.1-1.6,0.3-2.2s0.5-1.2,0.8-1.6
			s0.7-0.8,1.2-1s0.9-0.3,1.4-0.3c0.6,0,1.2,0.1,1.6,0.3c0.4,0.2,0.8,0.5,1.2,0.9v-4.1l1.4-0.8v13.4H201.6z M201.6,29.6
			c-0.3-0.4-0.6-0.8-1.1-1c-0.5-0.3-1-0.4-1.6-0.4c-0.8,0-1.4,0.3-1.8,1s-0.6,1.7-0.6,3c0,1.2,0.2,2.2,0.7,2.8
			c0.4,0.6,1,0.9,1.8,0.9c0.5,0,1-0.1,1.4-0.4s0.8-0.6,1.2-1V29.6z"/>
		<path id="XMLID_192_" class="st0" d="M213.3,31.7c0,0.2,0,0.3,0,0.4c0,0.1,0,0.2,0,0.3h-6.5c0.1,1,0.3,1.9,0.8,2.5
			c0.5,0.6,1.1,0.9,1.9,0.9c0.6,0,1.1-0.1,1.5-0.2s0.8-0.4,1.3-0.7l0.7,1c-0.3,0.2-0.6,0.3-0.8,0.5c-0.3,0.1-0.5,0.3-0.8,0.3
			s-0.6,0.2-0.9,0.2c-0.3,0-0.6,0.1-1,0.1c-0.4,0-0.9-0.1-1.4-0.3c-0.5-0.2-0.9-0.5-1.3-0.9c-0.4-0.4-0.7-0.9-1-1.6
			c-0.3-0.6-0.4-1.4-0.4-2.4c0-0.8,0.1-1.5,0.3-2.1s0.5-1.1,0.9-1.6c0.4-0.4,0.8-0.8,1.3-1s1-0.3,1.6-0.3c0.6,0,1.2,0.1,1.7,0.3
			c0.5,0.2,0.9,0.6,1.2,1c0.3,0.4,0.6,0.9,0.8,1.5C213.2,30.4,213.3,31,213.3,31.7z M212,31.3c-0.1-0.9-0.3-1.7-0.7-2.3
			s-1.1-0.9-1.9-0.9c-0.7,0-1.3,0.3-1.8,0.8s-0.7,1.3-0.8,2.4H212z"/>
		<path id="XMLID_190_" class="st0" d="M221.7,34.3c0,0.5-0.1,0.9-0.3,1.2s-0.4,0.6-0.8,0.8c-0.3,0.2-0.7,0.4-1.1,0.5
			c-0.4,0.1-0.8,0.2-1.2,0.2c-0.7,0-1.3-0.1-1.9-0.3s-1.1-0.5-1.6-0.9l0.8-1c0.4,0.3,0.8,0.6,1.3,0.8s0.9,0.3,1.4,0.3
			c0.7,0,1.2-0.1,1.5-0.4c0.3-0.3,0.5-0.6,0.5-1.1c0-0.2,0-0.4-0.1-0.5c-0.1-0.2-0.2-0.3-0.4-0.5c-0.2-0.2-0.4-0.3-0.7-0.5
			c-0.3-0.2-0.7-0.3-1.1-0.5c-0.5-0.2-0.9-0.4-1.3-0.6s-0.6-0.4-0.9-0.6c-0.2-0.2-0.4-0.5-0.5-0.7c-0.1-0.3-0.2-0.6-0.2-1
			c0-0.4,0.1-0.7,0.2-1c0.2-0.3,0.4-0.6,0.6-0.8c0.3-0.2,0.6-0.4,1-0.5c0.4-0.1,0.8-0.2,1.2-0.2c0.7,0,1.3,0.1,1.8,0.3
			s1,0.4,1.3,0.7l-0.8,1c-0.4-0.3-0.8-0.5-1.1-0.7s-0.8-0.2-1.3-0.2s-0.9,0.1-1.2,0.3c-0.3,0.2-0.4,0.5-0.4,0.9c0,0.2,0,0.4,0.1,0.5
			c0.1,0.1,0.2,0.3,0.4,0.4c0.2,0.1,0.4,0.3,0.7,0.4s0.6,0.3,1,0.5c0.5,0.2,0.9,0.4,1.2,0.6c0.4,0.2,0.7,0.4,0.9,0.6
			c0.3,0.2,0.4,0.5,0.6,0.8S221.7,33.8,221.7,34.3z"/>
		<path id="XMLID_188_" class="st0" d="M234.7,34.3c0,0.5-0.1,0.9-0.3,1.2s-0.4,0.6-0.8,0.8c-0.3,0.2-0.7,0.4-1.1,0.5
			c-0.4,0.1-0.8,0.2-1.2,0.2c-0.7,0-1.3-0.1-1.9-0.3s-1.1-0.5-1.6-0.9l0.8-1c0.4,0.3,0.8,0.6,1.3,0.8s0.9,0.3,1.4,0.3
			c0.7,0,1.2-0.1,1.5-0.4c0.3-0.3,0.5-0.6,0.5-1.1c0-0.2,0-0.4-0.1-0.5c-0.1-0.2-0.2-0.3-0.4-0.5c-0.2-0.2-0.4-0.3-0.7-0.5
			c-0.3-0.2-0.7-0.3-1.1-0.5c-0.5-0.2-0.9-0.4-1.3-0.6s-0.6-0.4-0.9-0.6c-0.2-0.2-0.4-0.5-0.5-0.7c-0.1-0.3-0.2-0.6-0.2-1
			c0-0.4,0.1-0.7,0.2-1c0.2-0.3,0.4-0.6,0.6-0.8c0.3-0.2,0.6-0.4,1-0.5c0.4-0.1,0.8-0.2,1.2-0.2c0.7,0,1.3,0.1,1.8,0.3
			s1,0.4,1.3,0.7l-0.8,1c-0.4-0.3-0.8-0.5-1.1-0.7s-0.8-0.2-1.3-0.2s-0.9,0.1-1.2,0.3c-0.3,0.2-0.4,0.5-0.4,0.9c0,0.2,0,0.4,0.1,0.5
			c0.1,0.1,0.2,0.3,0.4,0.4c0.2,0.1,0.4,0.3,0.7,0.4s0.6,0.3,1,0.5c0.5,0.2,0.9,0.4,1.2,0.6c0.4,0.2,0.7,0.4,0.9,0.6
			c0.3,0.2,0.4,0.5,0.6,0.8S234.7,33.8,234.7,34.3z"/>
		<path id="XMLID_185_" class="st0" d="M238.8,24.5c0,0.3-0.1,0.5-0.3,0.7c-0.2,0.2-0.4,0.3-0.7,0.3c-0.3,0-0.5-0.1-0.7-0.3
			c-0.2-0.2-0.3-0.4-0.3-0.7c0-0.3,0.1-0.5,0.3-0.7c0.2-0.2,0.4-0.3,0.7-0.3c0.3,0,0.5,0.1,0.7,0.3S238.8,24.2,238.8,24.5z
			 M237.1,36.8v-9.6h1.4v9.6H237.1z"/>
		<path id="XMLID_182_" class="st0" d="M248.8,35.9c0,0.7-0.1,1.4-0.3,1.9s-0.5,1-0.9,1.4s-0.9,0.6-1.5,0.8
			c-0.6,0.2-1.4,0.3-2.3,0.3l-0.5-1c0.8,0,1.5-0.1,2-0.2c0.5-0.1,0.9-0.3,1.2-0.6s0.5-0.6,0.6-1s0.2-0.9,0.2-1.4v-0.5
			c-0.3,0.4-0.8,0.7-1.2,1c-0.5,0.3-1,0.4-1.7,0.4c-0.5,0-0.9-0.1-1.4-0.3c-0.4-0.2-0.8-0.5-1.1-0.9c-0.3-0.4-0.6-0.9-0.7-1.5
			s-0.3-1.3-0.3-2.2c0-0.9,0.1-1.6,0.3-2.2s0.5-1.2,0.8-1.6s0.7-0.8,1.2-1s0.9-0.3,1.4-0.3c0.6,0,1.2,0.1,1.6,0.3
			c0.4,0.2,0.8,0.5,1.2,0.9v-1.1h1.4V35.9z M247.4,29.6c-0.3-0.4-0.6-0.8-1.1-1c-0.5-0.3-1-0.4-1.6-0.4c-0.8,0-1.4,0.3-1.8,1
			s-0.6,1.7-0.6,3c0,1.2,0.2,2.2,0.7,2.8c0.4,0.6,1,0.9,1.8,0.9c0.5,0,1-0.1,1.4-0.4s0.8-0.6,1.2-1V29.6z"/>
		<path id="XMLID_180_" class="st0" d="M257.7,36.8v-5.7c0-1-0.2-1.8-0.6-2.3c-0.4-0.5-1-0.7-1.7-0.7c-0.7,0-1.3,0.2-1.7,0.7
			s-0.7,1.2-0.7,2.3v5.7h-1.4v-9.6h1.4l0,1.2c0.3-0.4,0.7-0.7,1.1-1c0.5-0.3,1-0.4,1.6-0.4c0.5,0,1,0.1,1.4,0.2
			c0.4,0.2,0.8,0.4,1.1,0.7c0.3,0.3,0.5,0.7,0.7,1.2c0.2,0.5,0.2,1.1,0.2,1.8v5.9H257.7z"/>
		<path id="XMLID_177_" class="st0" d="M263.7,24.5c0,0.3-0.1,0.5-0.3,0.7c-0.2,0.2-0.4,0.3-0.7,0.3c-0.3,0-0.5-0.1-0.7-0.3
			c-0.2-0.2-0.3-0.4-0.3-0.7c0-0.3,0.1-0.5,0.3-0.7c0.2-0.2,0.4-0.3,0.7-0.3c0.3,0,0.5,0.1,0.7,0.3S263.7,24.2,263.7,24.5z
			 M262,36.8v-9.6h1.4v9.6H262z"/>
		<path id="XMLID_173_" class="st0" d="M270.5,24.9c-0.3-0.1-0.7-0.2-1.1-0.2c-0.3,0-0.5,0.1-0.7,0.2c-0.2,0.1-0.3,0.4-0.3,0.8v1.4
			h1.9v1.2h-1.9v8.5h-1.4v-8.5h-1.3v-1.2h1.3v-1.3c0-0.9,0.2-1.5,0.6-1.8c0.4-0.4,1-0.5,1.7-0.5c0.3,0,0.5,0,0.7,0s0.4,0.1,0.5,0.1
			V24.9z M274.5,24.5c0,0.3-0.1,0.5-0.3,0.7c-0.2,0.2-0.4,0.3-0.7,0.3c-0.3,0-0.5-0.1-0.7-0.3c-0.2-0.2-0.3-0.4-0.3-0.7
			c0-0.3,0.1-0.5,0.3-0.7c0.2-0.2,0.4-0.3,0.7-0.3c0.3,0,0.5,0.1,0.7,0.3S274.5,24.2,274.5,24.5z M272.8,36.8v-9.6h1.4v9.6H272.8z"
			/>
		<path id="XMLID_171_" class="st0" d="M283.1,29.1c-0.4-0.3-0.7-0.6-1.1-0.7c-0.4-0.2-0.8-0.2-1.3-0.2c-0.4,0-0.7,0.1-1.1,0.2
			c-0.3,0.2-0.6,0.4-0.9,0.7s-0.4,0.7-0.6,1.2c-0.1,0.5-0.2,1-0.2,1.6c0,1.2,0.2,2.1,0.7,2.9s1.2,1.1,2,1.1c0.5,0,0.9-0.1,1.2-0.3
			c0.3-0.2,0.7-0.4,1-0.8l0.8,0.9c-0.4,0.4-0.9,0.7-1.4,1c-0.5,0.2-1.1,0.4-1.8,0.4c-0.5,0-1.1-0.1-1.6-0.3
			c-0.5-0.2-0.9-0.5-1.3-0.9c-0.4-0.4-0.7-0.9-0.9-1.6c-0.2-0.6-0.3-1.3-0.3-2.2c0-0.9,0.1-1.7,0.4-2.3s0.6-1.2,1-1.6
			s0.9-0.7,1.4-0.9c0.5-0.2,1-0.3,1.5-0.3c0.7,0,1.3,0.1,1.8,0.3c0.5,0.2,1,0.5,1.3,0.8L283.1,29.1z"/>
		<path id="XMLID_168_" class="st0" d="M291.7,36.8v-1.2c-0.4,0.4-0.8,0.7-1.3,1c-0.5,0.3-1.1,0.4-1.8,0.4c-0.4,0-0.8-0.1-1.1-0.2
			c-0.4-0.1-0.7-0.3-1-0.5c-0.3-0.2-0.5-0.6-0.7-0.9c-0.2-0.4-0.3-0.9-0.3-1.5c0-0.5,0.1-1,0.3-1.4c0.2-0.4,0.5-0.7,0.8-1
			s0.7-0.4,1.2-0.6c0.5-0.1,0.9-0.2,1.4-0.2c0.5,0,1,0.1,1.4,0.2c0.4,0.1,0.8,0.2,1.1,0.4v-1.1c0-1.4-0.7-2.1-2.1-2.1
			c-0.5,0-1,0.1-1.4,0.2c-0.4,0.1-0.8,0.3-1.2,0.5l-0.5-1.1c0.4-0.2,0.9-0.4,1.5-0.6c0.6-0.1,1.2-0.2,1.8-0.2c1.1,0,1.9,0.2,2.5,0.7
			c0.6,0.5,0.9,1.3,0.9,2.4v6.7H291.7z M291.7,32.5c-0.3-0.2-0.7-0.3-1.1-0.4c-0.4-0.1-0.9-0.1-1.5-0.1c-0.7,0-1.3,0.2-1.7,0.5
			c-0.4,0.3-0.6,0.8-0.6,1.4c0,0.7,0.2,1.2,0.6,1.6c0.4,0.3,0.8,0.5,1.4,0.5c0.6,0,1.2-0.1,1.7-0.4c0.5-0.3,0.9-0.6,1.2-1V32.5z"/>
		<path id="XMLID_166_" class="st0" d="M302,36.8v-5.7c0-1-0.2-1.8-0.6-2.3c-0.4-0.5-1-0.7-1.7-0.7c-0.7,0-1.3,0.2-1.7,0.7
			s-0.7,1.2-0.7,2.3v5.7h-1.4v-9.6h1.4l0,1.2c0.3-0.4,0.7-0.7,1.1-1c0.5-0.3,1-0.4,1.6-0.4c0.5,0,1,0.1,1.4,0.2
			c0.4,0.2,0.8,0.4,1.1,0.7c0.3,0.3,0.5,0.7,0.7,1.2c0.2,0.5,0.2,1.1,0.2,1.8v5.9H302z"/>
		<path id="XMLID_164_" class="st0" d="M308,28.3v6.3c0,0.4,0.1,0.7,0.2,0.9c0.1,0.2,0.4,0.3,0.8,0.3c0.3,0,0.5,0,0.7-0.1
			c0.2,0,0.4-0.1,0.6-0.2l-0.1,1.2c-0.3,0.1-0.6,0.2-0.8,0.2c-0.3,0.1-0.6,0.1-1,0.1c-0.6,0-1.1-0.2-1.4-0.5
			c-0.3-0.3-0.5-0.9-0.5-1.7v-6.5h-1.2v-1.2h1.2v-3l1.4-0.8v3.7h2.4v1.2H308z"/>
		<path id="XMLID_162_" class="st0" d="M322.4,28.6c-0.2-0.1-0.4-0.2-0.6-0.3c-0.2-0.1-0.5-0.1-0.8-0.1c-0.7,0-1.2,0.3-1.6,0.8
			c-0.4,0.5-0.6,1.2-0.6,2.1v5.7h-1.4v-9.6h1.4v1.2c0.2-0.4,0.6-0.7,1-1c0.4-0.3,0.9-0.4,1.4-0.4c0.4,0,0.7,0,0.9,0.1
			s0.5,0.1,0.6,0.2L322.4,28.6z"/>
		<path id="XMLID_159_" class="st0" d="M332.2,31.7c0,0.2,0,0.3,0,0.4c0,0.1,0,0.2,0,0.3h-6.5c0.1,1,0.3,1.9,0.8,2.5
			c0.5,0.6,1.1,0.9,1.9,0.9c0.6,0,1.1-0.1,1.5-0.2s0.8-0.4,1.3-0.7l0.7,1c-0.3,0.2-0.6,0.3-0.8,0.5c-0.3,0.1-0.5,0.3-0.8,0.3
			s-0.6,0.2-0.9,0.2c-0.3,0-0.6,0.1-1,0.1c-0.4,0-0.9-0.1-1.4-0.3c-0.5-0.2-0.9-0.5-1.3-0.9c-0.4-0.4-0.7-0.9-1-1.6
			c-0.3-0.6-0.4-1.4-0.4-2.4c0-0.8,0.1-1.5,0.3-2.1s0.5-1.1,0.9-1.6c0.4-0.4,0.8-0.8,1.3-1s1-0.3,1.6-0.3c0.6,0,1.2,0.1,1.7,0.3
			c0.5,0.2,0.9,0.6,1.2,1c0.3,0.4,0.6,0.9,0.8,1.5C332.1,30.4,332.2,31,332.2,31.7z M330.9,31.3c-0.1-0.9-0.3-1.7-0.7-2.3
			s-1.1-0.9-1.9-0.9c-0.7,0-1.3,0.3-1.8,0.8s-0.7,1.3-0.8,2.4H330.9z"/>
		<path id="XMLID_156_" class="st0" d="M340.5,36.8v-1.2c-0.3,0.4-0.8,0.7-1.2,1c-0.5,0.3-1,0.4-1.7,0.4c-0.5,0-0.9-0.1-1.4-0.3
			c-0.4-0.2-0.8-0.5-1.1-0.9c-0.3-0.4-0.6-0.9-0.7-1.5S334,33,334,32.1c0-0.9,0.1-1.6,0.3-2.2s0.5-1.2,0.8-1.6s0.7-0.8,1.2-1
			s0.9-0.3,1.4-0.3c0.6,0,1.2,0.1,1.6,0.3c0.4,0.2,0.8,0.5,1.2,0.9v-4.1l1.4-0.8v13.4H340.5z M340.5,29.6c-0.3-0.4-0.6-0.8-1.1-1
			c-0.5-0.3-1-0.4-1.6-0.4c-0.8,0-1.4,0.3-1.8,1s-0.6,1.7-0.6,3c0,1.2,0.2,2.2,0.7,2.8c0.4,0.6,1,0.9,1.8,0.9c0.5,0,1-0.1,1.4-0.4
			s0.8-0.6,1.2-1V29.6z"/>
		<path id="XMLID_154_" class="st0" d="M350.8,36.8v-1.2c-0.3,0.4-0.7,0.7-1.1,1c-0.5,0.3-1,0.4-1.6,0.4c-0.5,0-1-0.1-1.4-0.2
			c-0.4-0.2-0.8-0.4-1.1-0.7c-0.3-0.3-0.5-0.7-0.7-1.2c-0.2-0.5-0.2-1.1-0.2-1.8v-5.9h1.4v5.7c0,1,0.2,1.8,0.6,2.3
			c0.4,0.5,1,0.7,1.7,0.7c0.7,0,1.3-0.2,1.7-0.7c0.5-0.5,0.7-1.2,0.7-2.3v-5.7h1.4v9.6H350.8z"/>
		<path id="XMLID_152_" class="st0" d="M361,29.1c-0.4-0.3-0.7-0.6-1.1-0.7c-0.4-0.2-0.8-0.2-1.3-0.2c-0.4,0-0.7,0.1-1.1,0.2
			c-0.3,0.2-0.6,0.4-0.9,0.7s-0.4,0.7-0.6,1.2c-0.1,0.5-0.2,1-0.2,1.6c0,1.2,0.2,2.1,0.7,2.9s1.2,1.1,2,1.1c0.5,0,0.9-0.1,1.2-0.3
			c0.3-0.2,0.7-0.4,1-0.8l0.8,0.9c-0.4,0.4-0.9,0.7-1.4,1c-0.5,0.2-1.1,0.4-1.8,0.4c-0.5,0-1.1-0.1-1.6-0.3
			c-0.5-0.2-0.9-0.5-1.3-0.9c-0.4-0.4-0.7-0.9-0.9-1.6c-0.2-0.6-0.3-1.3-0.3-2.2c0-0.9,0.1-1.7,0.4-2.3s0.6-1.2,1-1.6
			s0.9-0.7,1.4-0.9c0.5-0.2,1-0.3,1.5-0.3c0.7,0,1.3,0.1,1.8,0.3c0.5,0.2,1,0.5,1.3,0.8L361,29.1z"/>
		<path id="XMLID_150_" class="st0" d="M365.8,28.3v6.3c0,0.4,0.1,0.7,0.2,0.9c0.1,0.2,0.4,0.3,0.8,0.3c0.3,0,0.5,0,0.7-0.1
			c0.2,0,0.4-0.1,0.6-0.2l-0.1,1.2c-0.3,0.1-0.6,0.2-0.8,0.2c-0.3,0.1-0.6,0.1-1,0.1c-0.6,0-1.1-0.2-1.4-0.5
			c-0.3-0.3-0.5-0.9-0.5-1.7v-6.5h-1.2v-1.2h1.2v-3l1.4-0.8v3.7h2.4v1.2H365.8z"/>
		<path id="XMLID_147_" class="st0" d="M372.4,24.5c0,0.3-0.1,0.5-0.3,0.7c-0.2,0.2-0.4,0.3-0.7,0.3c-0.3,0-0.5-0.1-0.7-0.3
			c-0.2-0.2-0.3-0.4-0.3-0.7c0-0.3,0.1-0.5,0.3-0.7c0.2-0.2,0.4-0.3,0.7-0.3c0.3,0,0.5,0.1,0.7,0.3S372.4,24.2,372.4,24.5z
			 M370.7,36.8v-9.6h1.4v9.6H370.7z"/>
		<path id="XMLID_144_" class="st0" d="M383,31.9c0,0.8-0.1,1.5-0.3,2.2c-0.2,0.6-0.5,1.2-0.9,1.6c-0.4,0.4-0.8,0.8-1.4,1
			c-0.5,0.2-1.1,0.3-1.7,0.3s-1.2-0.1-1.7-0.3c-0.5-0.2-1-0.5-1.3-1c-0.4-0.4-0.7-0.9-0.9-1.6c-0.2-0.6-0.3-1.3-0.3-2.2
			c0-0.8,0.1-1.5,0.3-2.2c0.2-0.6,0.5-1.1,0.9-1.6c0.4-0.4,0.8-0.7,1.4-1c0.5-0.2,1.1-0.3,1.7-0.3c0.6,0,1.2,0.1,1.7,0.3
			c0.5,0.2,1,0.5,1.3,0.9c0.4,0.4,0.7,0.9,0.9,1.6C382.9,30.4,383,31.1,383,31.9z M381.6,31.9c0-1.3-0.3-2.2-0.8-2.9
			c-0.5-0.6-1.2-1-2.1-1c-0.9,0-1.6,0.3-2.1,1c-0.5,0.6-0.8,1.6-0.8,2.9c0,1.3,0.3,2.2,0.8,2.9c0.5,0.7,1.2,1,2.1,1
			c0.9,0,1.6-0.3,2.1-1C381.3,34.2,381.6,33.2,381.6,31.9z"/>
		<path id="XMLID_142_" class="st0" d="M391.4,36.8v-5.7c0-1-0.2-1.8-0.6-2.3c-0.4-0.5-1-0.7-1.7-0.7c-0.7,0-1.3,0.2-1.7,0.7
			s-0.7,1.2-0.7,2.3v5.7h-1.4v-9.6h1.4l0,1.2c0.3-0.4,0.7-0.7,1.1-1c0.5-0.3,1-0.4,1.6-0.4c0.5,0,1,0.1,1.4,0.2
			c0.4,0.2,0.8,0.4,1.1,0.7c0.3,0.3,0.5,0.7,0.7,1.2c0.2,0.5,0.2,1.1,0.2,1.8v5.9H391.4z"/>
		<path id="XMLID_139_" class="st0" d="M401.9,24.5c0,0.3-0.1,0.5-0.3,0.7c-0.2,0.2-0.4,0.3-0.7,0.3c-0.3,0-0.5-0.1-0.7-0.3
			c-0.2-0.2-0.3-0.4-0.3-0.7c0-0.3,0.1-0.5,0.3-0.7c0.2-0.2,0.4-0.3,0.7-0.3c0.3,0,0.5,0.1,0.7,0.3S401.9,24.2,401.9,24.5z
			 M400.2,36.8v-9.6h1.4v9.6H400.2z"/>
		<path id="XMLID_137_" class="st0" d="M410.7,36.8v-5.7c0-1-0.2-1.8-0.6-2.3c-0.4-0.5-1-0.7-1.7-0.7c-0.7,0-1.3,0.2-1.7,0.7
			s-0.7,1.2-0.7,2.3v5.7h-1.4v-9.6h1.4l0,1.2c0.3-0.4,0.7-0.7,1.1-1c0.5-0.3,1-0.4,1.6-0.4c0.5,0,1,0.1,1.4,0.2
			c0.4,0.2,0.8,0.4,1.1,0.7c0.3,0.3,0.5,0.7,0.7,1.2c0.2,0.5,0.2,1.1,0.2,1.8v5.9H410.7z"/>
		<path id="XMLID_134_" class="st0" d="M427.3,31.8c0,0.9-0.1,1.6-0.3,2.2c-0.2,0.6-0.5,1.2-0.8,1.6s-0.7,0.8-1.2,1
			c-0.4,0.2-0.9,0.3-1.4,0.3c-0.6,0-1.2-0.1-1.6-0.3s-0.8-0.5-1.2-0.9v3.9l-1.4,0.8V27.2h1.4l0,1.2c0.3-0.4,0.8-0.7,1.2-1
			c0.5-0.3,1-0.4,1.7-0.4c0.5,0,0.9,0.1,1.4,0.3s0.8,0.5,1.1,0.9c0.3,0.4,0.6,0.9,0.8,1.5C427.2,30.2,427.3,31,427.3,31.8z
			 M425.9,31.8c0-1.2-0.2-2.2-0.7-2.8c-0.4-0.6-1-0.9-1.8-0.9c-0.5,0-1,0.1-1.4,0.4c-0.4,0.3-0.8,0.6-1.2,1v4.8
			c0.3,0.4,0.6,0.8,1.1,1c0.5,0.3,1,0.4,1.6,0.4c0.8,0,1.4-0.3,1.8-1C425.7,34.1,425.9,33.1,425.9,31.8z"/>
		<path id="XMLID_131_" class="st0" d="M435.2,36.8v-1.2c-0.4,0.4-0.8,0.7-1.3,1c-0.5,0.3-1.1,0.4-1.8,0.4c-0.4,0-0.8-0.1-1.1-0.2
			c-0.4-0.1-0.7-0.3-1-0.5c-0.3-0.2-0.5-0.6-0.7-0.9c-0.2-0.4-0.3-0.9-0.3-1.5c0-0.5,0.1-1,0.3-1.4c0.2-0.4,0.5-0.7,0.8-1
			s0.7-0.4,1.2-0.6c0.5-0.1,0.9-0.2,1.4-0.2c0.5,0,1,0.1,1.4,0.2c0.4,0.1,0.8,0.2,1.1,0.4v-1.1c0-1.4-0.7-2.1-2.1-2.1
			c-0.5,0-1,0.1-1.4,0.2c-0.4,0.1-0.8,0.3-1.2,0.5l-0.5-1.1c0.4-0.2,0.9-0.4,1.5-0.6c0.6-0.1,1.2-0.2,1.8-0.2c1.1,0,1.9,0.2,2.5,0.7
			c0.6,0.5,0.9,1.3,0.9,2.4v6.7H435.2z M435.2,32.5c-0.3-0.2-0.7-0.3-1.1-0.4c-0.4-0.1-0.9-0.1-1.5-0.1c-0.7,0-1.3,0.2-1.7,0.5
			c-0.4,0.3-0.6,0.8-0.6,1.4c0,0.7,0.2,1.2,0.6,1.6c0.4,0.3,0.8,0.5,1.4,0.5c0.6,0,1.2-0.1,1.7-0.4c0.5-0.3,0.9-0.6,1.2-1V32.5z"/>
		<path id="XMLID_129_" class="st0" d="M444.4,28.6c-0.2-0.1-0.4-0.2-0.6-0.3c-0.2-0.1-0.5-0.1-0.8-0.1c-0.7,0-1.2,0.3-1.6,0.8
			c-0.4,0.5-0.6,1.2-0.6,2.1v5.7h-1.4v-9.6h1.4v1.2c0.2-0.4,0.6-0.7,1-1c0.4-0.3,0.9-0.4,1.4-0.4c0.4,0,0.7,0,0.9,0.1
			s0.5,0.1,0.6,0.2L444.4,28.6z"/>
		<path id="XMLID_127_" class="st0" d="M448.5,28.3v6.3c0,0.4,0.1,0.7,0.2,0.9c0.1,0.2,0.4,0.3,0.8,0.3c0.3,0,0.5,0,0.7-0.1
			c0.2,0,0.4-0.1,0.6-0.2l-0.1,1.2c-0.3,0.1-0.6,0.2-0.8,0.2c-0.3,0.1-0.6,0.1-1,0.1c-0.6,0-1.1-0.2-1.4-0.5
			c-0.3-0.3-0.5-0.9-0.5-1.7v-6.5h-1.2v-1.2h1.2v-3l1.4-0.8v3.7h2.4v1.2H448.5z"/>
		<path id="XMLID_124_" class="st0" d="M455.1,24.5c0,0.3-0.1,0.5-0.3,0.7c-0.2,0.2-0.4,0.3-0.7,0.3c-0.3,0-0.5-0.1-0.7-0.3
			c-0.2-0.2-0.3-0.4-0.3-0.7c0-0.3,0.1-0.5,0.3-0.7c0.2-0.2,0.4-0.3,0.7-0.3c0.3,0,0.5,0.1,0.7,0.3S455.1,24.2,455.1,24.5z
			 M453.4,36.8v-9.6h1.4v9.6H453.4z"/>
		<path id="XMLID_121_" class="st0" d="M463.3,36.8v-1.2c-0.4,0.4-0.8,0.7-1.3,1c-0.5,0.3-1.1,0.4-1.8,0.4c-0.4,0-0.8-0.1-1.1-0.2
			c-0.4-0.1-0.7-0.3-1-0.5c-0.3-0.2-0.5-0.6-0.7-0.9c-0.2-0.4-0.3-0.9-0.3-1.5c0-0.5,0.1-1,0.3-1.4c0.2-0.4,0.5-0.7,0.8-1
			s0.7-0.4,1.2-0.6c0.5-0.1,0.9-0.2,1.4-0.2c0.5,0,1,0.1,1.4,0.2c0.4,0.1,0.8,0.2,1.1,0.4v-1.1c0-1.4-0.7-2.1-2.1-2.1
			c-0.5,0-1,0.1-1.4,0.2c-0.4,0.1-0.8,0.3-1.2,0.5l-0.5-1.1c0.4-0.2,0.9-0.4,1.5-0.6c0.6-0.1,1.2-0.2,1.8-0.2c1.1,0,1.9,0.2,2.5,0.7
			c0.6,0.5,0.9,1.3,0.9,2.4v6.7H463.3z M463.3,32.5c-0.3-0.2-0.7-0.3-1.1-0.4c-0.4-0.1-0.9-0.1-1.5-0.1c-0.7,0-1.3,0.2-1.7,0.5
			c-0.4,0.3-0.6,0.8-0.6,1.4c0,0.7,0.2,1.2,0.6,1.6c0.4,0.3,0.8,0.5,1.4,0.5c0.6,0,1.2-0.1,1.7-0.4c0.5-0.3,0.9-0.6,1.2-1V32.5z"/>
		<path id="XMLID_119_" class="st0" d="M467.6,36.8V24.2l1.4-0.8v13.4H467.6z"/>
		<path id="XMLID_117_" class="st0" d="M482.5,34.3c0,0.5-0.1,0.9-0.3,1.2s-0.4,0.6-0.8,0.8c-0.3,0.2-0.7,0.4-1.1,0.5
			c-0.4,0.1-0.8,0.2-1.2,0.2c-0.7,0-1.3-0.1-1.9-0.3s-1.1-0.5-1.6-0.9l0.8-1c0.4,0.3,0.8,0.6,1.3,0.8s0.9,0.3,1.4,0.3
			c0.7,0,1.2-0.1,1.5-0.4c0.3-0.3,0.5-0.6,0.5-1.1c0-0.2,0-0.4-0.1-0.5c-0.1-0.2-0.2-0.3-0.4-0.5c-0.2-0.2-0.4-0.3-0.7-0.5
			c-0.3-0.2-0.7-0.3-1.1-0.5c-0.5-0.2-0.9-0.4-1.3-0.6s-0.6-0.4-0.9-0.6c-0.2-0.2-0.4-0.5-0.5-0.7c-0.1-0.3-0.2-0.6-0.2-1
			c0-0.4,0.1-0.7,0.2-1c0.2-0.3,0.4-0.6,0.6-0.8c0.3-0.2,0.6-0.4,1-0.5c0.4-0.1,0.8-0.2,1.2-0.2c0.7,0,1.3,0.1,1.8,0.3
			s1,0.4,1.3,0.7l-0.8,1c-0.4-0.3-0.8-0.5-1.1-0.7s-0.8-0.2-1.3-0.2s-0.9,0.1-1.2,0.3c-0.3,0.2-0.4,0.5-0.4,0.9c0,0.2,0,0.4,0.1,0.5
			c0.1,0.1,0.2,0.3,0.4,0.4c0.2,0.1,0.4,0.3,0.7,0.4s0.6,0.3,1,0.5c0.5,0.2,0.9,0.4,1.2,0.6c0.4,0.2,0.7,0.4,0.9,0.6
			c0.3,0.2,0.4,0.5,0.6,0.8S482.5,33.8,482.5,34.3z"/>
		<path id="XMLID_114_" class="st0" d="M492.3,31.7c0,0.2,0,0.3,0,0.4c0,0.1,0,0.2,0,0.3h-6.5c0.1,1,0.3,1.9,0.8,2.5
			c0.5,0.6,1.1,0.9,1.9,0.9c0.6,0,1.1-0.1,1.5-0.2s0.8-0.4,1.3-0.7l0.7,1c-0.3,0.2-0.6,0.3-0.8,0.5c-0.3,0.1-0.5,0.3-0.8,0.3
			s-0.6,0.2-0.9,0.2c-0.3,0-0.6,0.1-1,0.1c-0.4,0-0.9-0.1-1.4-0.3c-0.5-0.2-0.9-0.5-1.3-0.9c-0.4-0.4-0.7-0.9-1-1.6
			c-0.3-0.6-0.4-1.4-0.4-2.4c0-0.8,0.1-1.5,0.3-2.1s0.5-1.1,0.9-1.6c0.4-0.4,0.8-0.8,1.3-1s1-0.3,1.6-0.3c0.6,0,1.2,0.1,1.7,0.3
			c0.5,0.2,0.9,0.6,1.2,1c0.3,0.4,0.6,0.9,0.8,1.5C492.2,30.4,492.3,31,492.3,31.7z M491,31.3c-0.1-0.9-0.3-1.7-0.7-2.3
			s-1.1-0.9-1.9-0.9c-0.7,0-1.3,0.3-1.8,0.8s-0.7,1.3-0.8,2.4H491z"/>
		<path id="XMLID_111_" class="st0" d="M496.4,24.5c0,0.3-0.1,0.5-0.3,0.7c-0.2,0.2-0.4,0.3-0.7,0.3c-0.3,0-0.5-0.1-0.7-0.3
			c-0.2-0.2-0.3-0.4-0.3-0.7c0-0.3,0.1-0.5,0.3-0.7c0.2-0.2,0.4-0.3,0.7-0.3c0.3,0,0.5,0.1,0.7,0.3S496.4,24.2,496.4,24.5z
			 M494.7,36.8v-9.6h1.4v9.6H494.7z"/>
		<path id="XMLID_109_" class="st0" d="M498.5,36.8v-1l5.4-7.5h-4.9v-1.2h6.5v1l-5.4,7.5h5.4v1.2H498.5z"/>
		<path id="XMLID_107_" class="st0" d="M514,36.8v-1.2c-0.3,0.4-0.7,0.7-1.1,1c-0.5,0.3-1,0.4-1.6,0.4c-0.5,0-1-0.1-1.4-0.2
			c-0.4-0.2-0.8-0.4-1.1-0.7c-0.3-0.3-0.5-0.7-0.7-1.2c-0.2-0.5-0.2-1.1-0.2-1.8v-5.9h1.4v5.7c0,1,0.2,1.8,0.6,2.3
			c0.4,0.5,1,0.7,1.7,0.7c0.7,0,1.3-0.2,1.7-0.7c0.5-0.5,0.7-1.2,0.7-2.3v-5.7h1.4v9.6H514z"/>
		<path id="XMLID_105_" class="st0" d="M523.3,28.6c-0.2-0.1-0.4-0.2-0.6-0.3c-0.2-0.1-0.5-0.1-0.8-0.1c-0.7,0-1.2,0.3-1.6,0.8
			c-0.4,0.5-0.6,1.2-0.6,2.1v5.7h-1.4v-9.6h1.4v1.2c0.2-0.4,0.6-0.7,1-1c0.4-0.3,0.9-0.4,1.4-0.4c0.4,0,0.7,0,0.9,0.1
			s0.5,0.1,0.6,0.2L523.3,28.6z"/>
		<path id="XMLID_102_" class="st0" d="M533,31.7c0,0.2,0,0.3,0,0.4c0,0.1,0,0.2,0,0.3h-6.5c0.1,1,0.3,1.9,0.8,2.5
			c0.5,0.6,1.1,0.9,1.9,0.9c0.6,0,1.1-0.1,1.5-0.2s0.8-0.4,1.3-0.7l0.7,1c-0.3,0.2-0.6,0.3-0.8,0.5c-0.3,0.1-0.5,0.3-0.8,0.3
			s-0.6,0.2-0.9,0.2c-0.3,0-0.6,0.1-1,0.1c-0.4,0-0.9-0.1-1.4-0.3c-0.5-0.2-0.9-0.5-1.3-0.9c-0.4-0.4-0.7-0.9-1-1.6
			c-0.3-0.6-0.4-1.4-0.4-2.4c0-0.8,0.1-1.5,0.3-2.1s0.5-1.1,0.9-1.6c0.4-0.4,0.8-0.8,1.3-1s1-0.3,1.6-0.3c0.6,0,1.2,0.1,1.7,0.3
			c0.5,0.2,0.9,0.6,1.2,1c0.3,0.4,0.6,0.9,0.8,1.5C532.9,30.4,533,31,533,31.7z M531.7,31.3c-0.1-0.9-0.3-1.7-0.7-2.3
			s-1.1-0.9-1.9-0.9c-0.7,0-1.3,0.3-1.8,0.8s-0.7,1.3-0.8,2.4H531.7z"/>
		<path id="XMLID_100_" class="st0" d="M543,24.7c-0.3,0-0.5,0.1-0.7,0.2c-0.2,0.1-0.3,0.4-0.3,0.8v1.4h1.9v1.2H542v8.5h-1.4v-8.5
			h-1.3v-1.2h1.3v-1.3c0-0.9,0.2-1.5,0.7-1.8c0.4-0.4,1-0.5,1.7-0.5c0.3,0,0.5,0,0.7,0s0.4,0.1,0.5,0.1v1.3
			C543.8,24.8,543.4,24.7,543,24.7z"/>
		<path id="XMLID_98_" class="st0" d="M551.3,28.6c-0.2-0.1-0.4-0.2-0.6-0.3c-0.2-0.1-0.5-0.1-0.8-0.1c-0.7,0-1.2,0.3-1.6,0.8
			c-0.4,0.5-0.6,1.2-0.6,2.1v5.7h-1.4v-9.6h1.4v1.2c0.2-0.4,0.6-0.7,1-1c0.4-0.3,0.9-0.4,1.4-0.4c0.4,0,0.7,0,0.9,0.1
			s0.5,0.1,0.6,0.2L551.3,28.6z"/>
		<path id="XMLID_95_" class="st0" d="M561,31.7c0,0.2,0,0.3,0,0.4c0,0.1,0,0.2,0,0.3h-6.5c0.1,1,0.3,1.9,0.8,2.5
			c0.5,0.6,1.1,0.9,1.9,0.9c0.6,0,1.1-0.1,1.5-0.2s0.8-0.4,1.3-0.7l0.7,1c-0.3,0.2-0.6,0.3-0.8,0.5c-0.3,0.1-0.5,0.3-0.8,0.3
			s-0.6,0.2-0.9,0.2c-0.3,0-0.6,0.1-1,0.1c-0.4,0-0.9-0.1-1.4-0.3c-0.5-0.2-0.9-0.5-1.3-0.9c-0.4-0.4-0.7-0.9-1-1.6
			c-0.3-0.6-0.4-1.4-0.4-2.4c0-0.8,0.1-1.5,0.3-2.1s0.5-1.1,0.9-1.6c0.4-0.4,0.8-0.8,1.3-1s1-0.3,1.6-0.3c0.6,0,1.2,0.1,1.7,0.3
			c0.5,0.2,0.9,0.6,1.2,1c0.3,0.4,0.6,0.9,0.8,1.5C561,30.4,561,31,561,31.7z M559.8,31.3c-0.1-0.9-0.3-1.7-0.7-2.3
			s-1.1-0.9-1.9-0.9c-0.7,0-1.3,0.3-1.8,0.8s-0.7,1.3-0.8,2.4H559.8z"/>
		<path id="XMLID_92_" class="st0" d="M569.3,40.3v-4.7c-0.3,0.4-0.8,0.7-1.2,1c-0.5,0.3-1,0.4-1.7,0.4c-0.5,0-0.9-0.1-1.4-0.3
			c-0.4-0.2-0.8-0.5-1.1-0.9c-0.3-0.4-0.6-0.9-0.7-1.5s-0.3-1.3-0.3-2.2c0-0.9,0.1-1.6,0.3-2.2s0.5-1.2,0.8-1.6s0.7-0.8,1.2-1
			s0.9-0.3,1.4-0.3c0.6,0,1.2,0.1,1.6,0.3c0.4,0.2,0.8,0.5,1.2,0.9v-1.1h1.4v12.4L569.3,40.3z M569.3,29.6c-0.3-0.4-0.6-0.8-1.1-1
			c-0.5-0.3-1-0.4-1.6-0.4c-0.8,0-1.4,0.3-1.8,1s-0.6,1.7-0.6,3c0,1.2,0.2,2.2,0.7,2.8c0.4,0.6,1,0.9,1.8,0.9c0.5,0,1-0.1,1.4-0.4
			s0.8-0.6,1.2-1V29.6z"/>
		<path id="XMLID_90_" class="st0" d="M579.6,36.8v-1.2c-0.3,0.4-0.7,0.7-1.1,1c-0.5,0.3-1,0.4-1.6,0.4c-0.5,0-1-0.1-1.4-0.2
			c-0.4-0.2-0.8-0.4-1.1-0.7c-0.3-0.3-0.5-0.7-0.7-1.2c-0.2-0.5-0.2-1.1-0.2-1.8v-5.9h1.4v5.7c0,1,0.2,1.8,0.6,2.3
			c0.4,0.5,1,0.7,1.7,0.7c0.7,0,1.3-0.2,1.7-0.7c0.5-0.5,0.7-1.2,0.7-2.3v-5.7h1.4v9.6H579.6z"/>
		<path id="XMLID_87_" class="st0" d="M591.3,31.7c0,0.2,0,0.3,0,0.4c0,0.1,0,0.2,0,0.3h-6.5c0.1,1,0.3,1.9,0.8,2.5
			c0.5,0.6,1.1,0.9,1.9,0.9c0.6,0,1.1-0.1,1.5-0.2s0.8-0.4,1.3-0.7l0.7,1c-0.3,0.2-0.6,0.3-0.8,0.5c-0.3,0.1-0.5,0.3-0.8,0.3
			s-0.6,0.2-0.9,0.2c-0.3,0-0.6,0.1-1,0.1c-0.4,0-0.9-0.1-1.4-0.3c-0.5-0.2-0.9-0.5-1.3-0.9c-0.4-0.4-0.7-0.9-1-1.6
			c-0.3-0.6-0.4-1.4-0.4-2.4c0-0.8,0.1-1.5,0.3-2.1s0.5-1.1,0.9-1.6c0.4-0.4,0.8-0.8,1.3-1s1-0.3,1.6-0.3c0.6,0,1.2,0.1,1.7,0.3
			c0.5,0.2,0.9,0.6,1.2,1c0.3,0.4,0.6,0.9,0.8,1.5C591.2,30.4,591.3,31,591.3,31.7z M590,31.3c-0.1-0.9-0.3-1.7-0.7-2.3
			s-1.1-0.9-1.9-0.9c-0.7,0-1.3,0.3-1.8,0.8s-0.7,1.3-0.8,2.4H590z"/>
		<path id="XMLID_85_" class="st0" d="M599.8,36.8v-5.7c0-1-0.2-1.8-0.6-2.3c-0.4-0.5-1-0.7-1.7-0.7c-0.7,0-1.3,0.2-1.7,0.7
			s-0.7,1.2-0.7,2.3v5.7h-1.4v-9.6h1.4l0,1.2c0.3-0.4,0.7-0.7,1.1-1c0.5-0.3,1-0.4,1.6-0.4c0.5,0,1,0.1,1.4,0.2
			c0.4,0.2,0.8,0.4,1.1,0.7c0.3,0.3,0.5,0.7,0.7,1.2c0.2,0.5,0.2,1.1,0.2,1.8v5.9H599.8z"/>
		<path id="XMLID_83_" class="st0" d="M609.9,29.1c-0.4-0.3-0.7-0.6-1.1-0.7c-0.4-0.2-0.8-0.2-1.3-0.2c-0.4,0-0.7,0.1-1.1,0.2
			c-0.3,0.2-0.6,0.4-0.9,0.7s-0.4,0.7-0.6,1.2c-0.1,0.5-0.2,1-0.2,1.6c0,1.2,0.2,2.1,0.7,2.9s1.2,1.1,2,1.1c0.5,0,0.9-0.1,1.2-0.3
			c0.3-0.2,0.7-0.4,1-0.8l0.8,0.9c-0.4,0.4-0.9,0.7-1.4,1c-0.5,0.2-1.1,0.4-1.8,0.4c-0.5,0-1.1-0.1-1.6-0.3
			c-0.5-0.2-0.9-0.5-1.3-0.9c-0.4-0.4-0.7-0.9-0.9-1.6c-0.2-0.6-0.3-1.3-0.3-2.2c0-0.9,0.1-1.7,0.4-2.3s0.6-1.2,1-1.6
			s0.9-0.7,1.4-0.9c0.5-0.2,1-0.3,1.5-0.3c0.7,0,1.3,0.1,1.8,0.3c0.5,0.2,1,0.5,1.3,0.8L609.9,29.1z"/>
		<path id="XMLID_81_" class="st0" d="M615.7,40.2h-1.4l1.3-3.5l-3.5-9.5h1.5l2.4,7l0.3,1l0.3-1l2.4-7h1.5L615.7,40.2z"/>
		<path id="XMLID_79_" class="st0" d="M633.2,36.8v-1.2c-0.3,0.4-0.7,0.7-1.1,1c-0.5,0.3-1,0.4-1.6,0.4c-0.5,0-1-0.1-1.4-0.2
			c-0.4-0.2-0.8-0.4-1.1-0.7c-0.3-0.3-0.5-0.7-0.7-1.2c-0.2-0.5-0.2-1.1-0.2-1.8v-5.9h1.4v5.7c0,1,0.2,1.8,0.6,2.3
			c0.4,0.5,1,0.7,1.7,0.7c0.7,0,1.3-0.2,1.7-0.7c0.5-0.5,0.7-1.2,0.7-2.3v-5.7h1.4v9.6H633.2z"/>
		<path id="XMLID_76_" class="st0" d="M645.3,31.8c0,0.9-0.1,1.6-0.3,2.2c-0.2,0.6-0.5,1.2-0.8,1.6s-0.7,0.8-1.2,1
			c-0.4,0.2-0.9,0.3-1.4,0.3c-0.6,0-1.2-0.1-1.6-0.3s-0.8-0.5-1.2-0.9v3.9l-1.4,0.8V27.2h1.4l0,1.2c0.3-0.4,0.8-0.7,1.2-1
			c0.5-0.3,1-0.4,1.7-0.4c0.5,0,0.9,0.1,1.4,0.3s0.8,0.5,1.1,0.9c0.3,0.4,0.6,0.9,0.8,1.5C645.2,30.2,645.3,31,645.3,31.8z
			 M643.9,31.8c0-1.2-0.2-2.2-0.7-2.8c-0.4-0.6-1-0.9-1.8-0.9c-0.5,0-1,0.1-1.4,0.4c-0.4,0.3-0.8,0.6-1.2,1v4.8
			c0.3,0.4,0.6,0.8,1.1,1c0.5,0.3,1,0.4,1.6,0.4c0.8,0,1.4-0.3,1.8-1C643.7,34.1,643.9,33.1,643.9,31.8z"/>
		<path id="XMLID_74_" class="st0" d="M653.9,28.3v6.3c0,0.4,0.1,0.7,0.2,0.9c0.1,0.2,0.4,0.3,0.8,0.3c0.3,0,0.5,0,0.7-0.1
			c0.2,0,0.4-0.1,0.6-0.2l-0.1,1.2c-0.3,0.1-0.6,0.2-0.8,0.2c-0.3,0.1-0.6,0.1-1,0.1c-0.6,0-1.1-0.2-1.4-0.5
			c-0.3-0.3-0.5-0.9-0.5-1.7v-6.5h-1.2v-1.2h1.2v-3l1.4-0.8v3.7h2.4v1.2H653.9z"/>
		<path id="XMLID_71_" class="st0" d="M666.8,31.9c0,0.8-0.1,1.5-0.3,2.2c-0.2,0.6-0.5,1.2-0.9,1.6c-0.4,0.4-0.8,0.8-1.4,1
			c-0.5,0.2-1.1,0.3-1.7,0.3s-1.2-0.1-1.7-0.3c-0.5-0.2-1-0.5-1.3-1c-0.4-0.4-0.7-0.9-0.9-1.6c-0.2-0.6-0.3-1.3-0.3-2.2
			c0-0.8,0.1-1.5,0.3-2.2c0.2-0.6,0.5-1.1,0.9-1.6c0.4-0.4,0.8-0.7,1.4-1c0.5-0.2,1.1-0.3,1.7-0.3c0.6,0,1.2,0.1,1.7,0.3
			c0.5,0.2,1,0.5,1.3,0.9c0.4,0.4,0.7,0.9,0.9,1.6C666.7,30.4,666.8,31.1,666.8,31.9z M665.4,31.9c0-1.3-0.3-2.2-0.8-2.9
			c-0.5-0.6-1.2-1-2.1-1c-0.9,0-1.6,0.3-2.1,1c-0.5,0.6-0.8,1.6-0.8,2.9c0,1.3,0.3,2.2,0.8,2.9c0.5,0.7,1.2,1,2.1,1
			c0.9,0,1.6-0.3,2.1-1C665.1,34.2,665.4,33.2,665.4,31.9z"/>
		<path id="XMLID_68_" class="st0" d="M691.9,30.5c0,1.1-0.2,2-0.6,2.9c-0.4,0.8-1,1.5-1.8,2.1c-0.7,0.6-1.6,1-2.6,1.3
			c-1,0.3-2.1,0.4-3.3,0.4c-1.1,0-2.1-0.2-3.1-0.5c-1-0.3-1.8-0.8-2.5-1.4s-1.3-1.5-1.7-2.4c-0.4-1-0.6-2.1-0.6-3.5
			c0-0.8,0.1-1.7,0.3-2.7c0.2-0.9,0.5-1.8,0.9-2.7c0.4-0.9,1-1.8,1.6-2.6s1.5-1.5,2.5-2.2c1-0.6,2.1-1.1,3.5-1.5
			c1.3-0.4,2.8-0.5,4.5-0.5v3.8c-2.3,0-4.2,0.4-5.6,1.1c-1.4,0.8-2.4,1.9-3,3.4c0.6-0.4,1.3-0.7,2-0.9c0.7-0.2,1.5-0.3,2.5-0.3
			c1,0,1.9,0.1,2.7,0.4s1.6,0.6,2.2,1.1c0.6,0.5,1.1,1.2,1.5,2C691.7,28.5,691.9,29.4,691.9,30.5z M687.9,30.6c0-1-0.3-1.7-1-2.2
			s-1.7-0.7-2.9-0.7c-1.4,0-2.4,0.2-3.1,0.7c-0.7,0.5-1,1.2-1,2.2c0,0.9,0.3,1.6,1,2.1c0.7,0.5,1.6,0.8,2.9,0.8
			c1.3,0,2.3-0.3,3.1-0.8C687.5,32.2,687.9,31.5,687.9,30.6z"/>
		<path id="XMLID_65_" class="st0" d="M710.5,25c0,0.8-0.1,1.7-0.3,2.7c-0.2,0.9-0.5,1.8-0.9,2.7s-1,1.8-1.6,2.6
			c-0.7,0.8-1.5,1.5-2.5,2.2c-1,0.6-2.1,1.1-3.5,1.5c-1.3,0.4-2.8,0.5-4.5,0.5v-3.8c2.3,0,4.2-0.4,5.6-1.1c1.4-0.8,2.4-1.9,3-3.4
			c-0.6,0.4-1.3,0.7-2,0.9s-1.5,0.3-2.5,0.3c-1,0-1.9-0.1-2.7-0.4c-0.8-0.2-1.6-0.6-2.2-1.1c-0.6-0.5-1.1-1.2-1.5-2
			c-0.4-0.8-0.5-1.7-0.5-2.8s0.2-2,0.6-2.8c0.4-0.8,1-1.5,1.8-2.1c0.7-0.6,1.6-1,2.6-1.3c1-0.3,2.1-0.4,3.3-0.4
			c1.1,0,2.1,0.2,3.1,0.5c1,0.3,1.8,0.8,2.5,1.4c0.7,0.6,1.3,1.5,1.7,2.4C710.3,22.4,710.5,23.6,710.5,25z M706.4,23.6
			c0-0.9-0.3-1.6-1-2.1s-1.6-0.8-2.9-0.8c-1.3,0-2.3,0.3-3.1,0.8c-0.7,0.5-1.1,1.2-1.1,2.1c0,1,0.3,1.7,1,2.2
			c0.7,0.5,1.7,0.7,2.9,0.7c1.4,0,2.4-0.2,3.1-0.7C706,25.4,706.4,24.6,706.4,23.6z"/>
		<path id="XMLID_59_" class="st0" d="M721.3,23.9c0,3.8-2,5.7-4.4,5.7c-2.3,0-4.3-1.8-4.3-5.4c0-3.6,2-5.6,4.4-5.6
			C719.7,18.5,721.3,20.5,721.3,23.9z M714.6,24c-0.1,2.3,0.8,4,2.4,4c1.6,0,2.4-1.7,2.4-4.1c0-2.2-0.6-4-2.4-4
			C715.4,20,714.6,21.8,714.6,24z M716.8,37.1l10.8-18.6h1.6l-10.8,18.6H716.8z M733.3,31.3c0,3.8-2,5.7-4.4,5.7
			c-2.3,0-4.3-1.8-4.3-5.4c0-3.6,2-5.6,4.4-5.6C731.6,26,733.3,27.9,733.3,31.3z M726.6,31.5c0,2.3,0.9,4,2.4,4
			c1.6,0,2.4-1.7,2.4-4.1c0-2.2-0.6-4-2.4-4C727.4,27.4,726.6,29.2,726.6,31.5z"/>
	</g>
</g>
<linearGradient id="XMLID_363_" gradientUnits="userSpaceOnUse" x1="0" y1="30.7605" x2="128.8573" y2="30.7605">
	<stop  offset="0" style="stop-color:#4B257A"/>
	<stop  offset="1" style="stop-color:#954C8D"/>
</linearGradient>
<rect id="XMLID_56_" y="0.6" class="st1" width="128.9" height="60.3"/>
<rect id="XMLID_55_" x="129" y="0.6" class="st2" width="640.4" height="60.3"/>
<g id="XMLID_1_">
	<polygon id="XMLID_54_" class="st3" points="5.7,32.7 6.9,32.7 6.9,43.2 14.5,43.2 14.5,44.3 5.7,44.3 	"/>
	<path id="XMLID_51_" class="st3" d="M23.5,39.4c-0.4-2.1-1.9-2.9-3.6-2.9c-1.6,0-3.3,0.8-3.6,2.9H23.5z M24.6,41.6
		c-0.5,1.5-1.8,3-4.7,3c-3.6,0-4.7-2.4-4.7-4.5c0-2.4,1.5-4.5,4.7-4.5c2.2,0,4.9,1,4.9,4.8h-8.4c0,1.8,1.3,3.2,3.5,3.2
		c2.1,0,3-0.7,3.4-1.9H24.6z"/>
	<polygon id="XMLID_50_" class="st3" points="33.4,35.8 34.7,35.8 30.6,44.3 29.3,44.3 25.2,35.8 26.6,35.8 30,42.9 	"/>
	<path id="XMLID_47_" class="st3" d="M43.7,39.4c-0.4-2.1-1.9-2.9-3.6-2.9c-1.6,0-3.3,0.8-3.6,2.9H43.7z M44.7,41.6
		c-0.5,1.5-1.8,3-4.7,3c-3.6,0-4.7-2.4-4.7-4.5c0-2.4,1.5-4.5,4.7-4.5c2.2,0,4.9,1,4.9,4.8h-8.4c0,1.8,1.3,3.2,3.5,3.2
		c2.1,0,3-0.7,3.4-1.9H44.7z"/>
	<path id="XMLID_46_" class="st3" d="M47.2,33.2h1.2v2.7h2.5v0.9h-2.5v5.6c0,0.7,0.2,1.1,1.2,1.1c0.6,0,1-0.1,1.2-0.1v1
		c-0.5,0.1-1,0.1-1.4,0.1c-1.9,0-2.3-0.7-2.3-2.1v-5.6h-1.9v-0.9h1.9V33.2z"/>
	<path id="XMLID_43_" class="st3" d="M52.3,35.8h1.2v8.4h-1.2V35.8z M52.3,32.6h1.2v1.8h-1.2V32.6z"/>
	<path id="XMLID_42_" class="st3" d="M55.4,35.8h1.2v1.9h0c0.5-1,1.3-2.2,3.3-2.2c0.3,0,0.5,0,0.7,0.1v1.2c-0.4-0.1-0.8-0.1-1.1-0.1
		c-1.3,0-3,0.8-3,3.2v4.3h-1.2V35.8z"/>
	<path id="XMLID_39_" class="st3" d="M68.5,39.7c-0.5,0.3-1.4,0.4-3.9,0.6c-1.4,0.1-2.3,0.6-2.3,1.6c0,1.3,1.2,1.7,2.5,1.7
		c1.7,0,3.6-0.9,3.6-2.6V39.7z M61.5,38.4c0.2-1.8,1.2-2.9,4.1-2.9c2.9,0,4,0.9,4,2.5v4.4c0,0.7,0.2,0.9,0.7,0.9c0.2,0,0.4,0,0.6,0
		v0.8c-0.2,0-0.6,0.1-1,0.1c-1.3,0-1.3-0.8-1.3-1.5h0c-0.4,0.5-1.2,1.7-4.1,1.7c-1.5,0-3.4-0.6-3.4-2.5c0-2.3,2.4-2.5,4.3-2.6
		c2.7-0.1,3-0.3,3-1.1c0-1.2-0.8-1.7-2.9-1.7c-2,0-2.9,0.5-3,1.9H61.5z"/>
	<path id="XMLID_38_" class="st3" d="M80.6,41.3c-0.2,1.1-1.2,3.3-4.4,3.3c-3.1,0-4.9-1.8-4.9-4.5c0-2.5,1.6-4.5,4.9-4.5
		c3,0,4.1,1.8,4.3,3h-1.2c-0.4-1.4-1.6-2-3.1-2c-2.5,0-3.7,1.5-3.7,3.5c0,2.1,1.3,3.5,3.7,3.5c1.8,0,2.8-1,3.2-2.3H80.6z"/>
	<path id="XMLID_35_" class="st3" d="M90.1,39.4c-0.3-2.1-1.9-2.9-3.6-2.9c-1.6,0-3.3,0.8-3.6,2.9H90.1z M91.1,41.6
		c-0.5,1.5-1.8,3-4.7,3c-3.6,0-4.7-2.4-4.7-4.5c0-2.4,1.5-4.5,4.7-4.5c2.2,0,4.9,1,4.9,4.8h-8.4c0,1.8,1.3,3.2,3.5,3.2
		c2.1,0,3-0.7,3.4-1.9H91.1z"/>
	<path id="XMLID_34_" class="st3" d="M93.6,33.2h1.2v2.7h2.5v0.9h-2.5v5.6c0,0.7,0.2,1.1,1.2,1.1c0.6,0,1-0.1,1.2-0.1v1
		c-0.5,0.1-1,0.1-1.4,0.1c-1.9,0-2.3-0.7-2.3-2.1v-5.6h-1.9v-0.9h1.9V33.2z"/>
	<path id="XMLID_31_" class="st3" d="M105.6,39.7c-0.5,0.3-1.4,0.4-3.9,0.6c-1.4,0.1-2.3,0.6-2.3,1.6c0,1.3,1.2,1.7,2.5,1.7
		c1.7,0,3.6-0.9,3.6-2.6V39.7z M98.6,38.4c0.2-1.8,1.2-2.9,4.1-2.9c2.9,0,4,0.9,4,2.5v4.4c0,0.7,0.2,0.9,0.7,0.9c0.2,0,0.4,0,0.7,0
		v0.8c-0.3,0-0.6,0.1-1,0.1c-1.3,0-1.3-0.8-1.3-1.5h0c-0.4,0.5-1.2,1.7-4.1,1.7c-1.5,0-3.4-0.6-3.4-2.5c0-2.3,2.4-2.5,4.3-2.6
		c2.7-0.1,3-0.3,3-1.1c0-1.2-0.8-1.7-2.9-1.7c-2,0-2.9,0.5-3,1.9H98.6z"/>
	<path id="XMLID_30_" class="st3" d="M122.5,38.9c0-1.5-0.8-2.3-2.6-2.3c-1.9,0-3,1.1-3,2.7v5h-1.2v-5.7c0-1.1-0.8-2-2.5-2
		c-1.8,0-3.1,1-3.1,2.9v4.8h-1.2v-8.4h1.2v1.6h0c0.5-0.9,1.5-1.8,3.4-1.8c2,0,2.9,1,3.1,1.9c0.4-0.8,1.7-1.9,3.4-1.9
		c2.4,0,3.6,1.2,3.6,2.9v5.8h-1.2V38.9z"/>
	<polygon id="XMLID_29_" class="st3" points="110.4,30.4 106.8,30.4 104.2,25.8 101.4,30.4 98,30.4 102.5,23.6 98.3,17 101.7,17 
		104.2,21.3 106.7,17 110.1,17 105.9,23.5 	"/>
	<path id="XMLID_26_" class="st3" d="M118.3,22.9c1.5,0,2.2-0.5,2.2-1.8c0-0.7-0.3-1.8-2-1.8h-3.6v3.6H118.3z M112.1,17h7
		c3.7,0,4.4,2.6,4.4,3.8c0,1.5-0.8,2.8-2.1,3.2c1.1,0.5,1.8,0.9,1.8,3.4c0,2,0,2.5,0.6,2.7v0.4h-3.2c-0.2-0.6-0.3-1.3-0.3-2.7
		c0-1.8-0.1-2.6-2.3-2.6h-3v5.3h-2.8V17z"/>
	<polygon id="XMLID_25_" class="st3" points="13.1,30.3 9.6,24.2 7.8,26.3 7.8,30.3 5.1,30.3 5.1,17 7.8,17 7.8,22.8 12.7,17 
		15.9,17 11.4,22.3 16.2,30.3 	"/>
	<path id="XMLID_22_" class="st3" d="M34.8,19.3h-2.5v3.6h2.5c1.2,0,2-0.7,2-1.8C36.8,20,36,19.3,34.8,19.3 M34.9,25.3h-2.6v5h-2.7
		V17h5.3c2.8,0,4.5,1.9,4.5,4.1C39.4,23.4,37.7,25.3,34.9,25.3"/>
	<path id="XMLID_19_" class="st3" d="M46.9,19.3h-2.5v3.5h2.5c1.2,0,1.9-0.7,1.9-1.8C48.8,20,48.1,19.3,46.9,19.3 M49,30.3L46.3,25
		h-1.9v5.3h-2.7V17h5.4c2.8,0,4.4,1.8,4.4,4.1c0,1.9-1.2,3-2.5,3.5l3.1,5.7H49z"/>
	<path id="XMLID_16_" class="st3" d="M58.9,20.9l-1.7,4.8h3.4L58.9,20.9z M62.1,30.3l-0.8-2.4h-4.9l-0.8,2.4h-2.8l5-13.3h2.1l5,13.3
		H62.1z"/>
	<path id="XMLID_13_" class="st3" d="M73.3,20.1c-0.5-0.5-1.1-0.8-2-0.8h-2V28h2c0.9,0,1.5-0.3,2-0.8c0.5-0.6,0.6-1.6,0.6-3.6
		C73.9,21.6,73.8,20.7,73.3,20.1 M75.1,29c-0.9,0.9-2.2,1.3-3.6,1.3h-4.9V17h4.9c1.4,0,2.7,0.4,3.6,1.3c1.5,1.5,1.4,3.3,1.4,5.3
		C76.5,25.6,76.7,27.5,75.1,29"/>
	<rect id="XMLID_12_" x="79.3" y="17" class="st3" width="2.7" height="13.3"/>
	<polygon id="XMLID_11_" class="st3" points="85.1,30.3 85.1,17 87.8,17 87.8,28 94,28 94,30.3 	"/>
	<path id="XMLID_6_" class="st3" d="M91.5,19.1c0.3,0,0.5,0,0.5-0.3c0-0.3-0.2-0.3-0.5-0.3h-0.4v0.6H91.5z M90.8,18.2h0.8
		c0.5,0,0.7,0.2,0.7,0.6c0,0.4-0.2,0.5-0.6,0.6l0.6,0.9H92l-0.6-0.9h-0.3v0.9h-0.3V18.2z M93,19.2c0-0.8-0.7-1.5-1.5-1.5
		c-0.8,0-1.5,0.7-1.5,1.5c0,0.8,0.7,1.5,1.5,1.5C92.3,20.7,93,20,93,19.2 M91.5,17.5c1,0,1.8,0.8,1.8,1.7c0,1-0.8,1.7-1.8,1.7
		s-1.8-0.8-1.8-1.7C89.7,18.2,90.5,17.5,91.5,17.5"/>
	<polygon id="XMLID_5_" class="st3" points="18,30.3 27,30.3 27,28 20.7,28 20.7,25.3 18,25.3 	"/>
	<path id="XMLID_4_" class="st3" d="M16.8,24.2c0,0,1.1-2.4,5.4-2.4c4.3,0,6.7-1.5,6.7-1.5s-3.1,3.1-6.1,3.1
		C19.9,23.4,18.1,23.4,16.8,24.2"/>
	<path id="XMLID_3_" class="st3" d="M15.6,26.5c0,0,1.1-2.4,5.4-2.4c4.3,0,6.7-1.5,6.7-1.5s-3.1,3.1-6.1,3.1
		C18.6,25.7,16.8,25.7,15.6,26.5"/>
	<polygon id="XMLID_2_" class="st3" points="18,22.9 20.7,22.9 20.7,19.3 27,19.3 27,17 18,17 	"/>
</g>
</svg>
