<!-- Generator: Adobe Illustrator 22.1.0, SVG Export Plug-In  -->
<svg version="1.1"
	 xmlns="http://www.w3.org/2000/svg" xmlns:xlink="http://www.w3.org/1999/xlink" xmlns:a="http://ns.adobe.com/AdobeSVGViewerExtensions/3.0/"
	 x="0px" y="0px" width="864.4px" height="81.1px" viewBox="0 0 864.4 81.1" style="enable-background:new 0 0 864.4 81.1;"
	 xml:space="preserve">
<style type="text/css">
	.st0{fill:#522D6D;}
	.st1{font-family:'Interstate-Light';}
	.st2{font-size:14.2272px;}
</style>
<defs>
</defs>
<g id="XMLID_310_">
	<path id="XMLID_470_" class="st0" d="M1.3,17.8V0.7h10.3v1.7H3.2v5.4h4.9v1.7H3.2v6.5H12v1.7H1.3z"/>
	<path id="XMLID_468_" class="st0" d="M22.4,17.8l-2.5-4.4l-0.4-0.7l-0.4,0.7l-2.6,4.4h-1.9l4-6.6L14.9,5h2l2.3,4l0.4,0.7L20,9
		l2.3-4h1.9l-3.7,6.1l4,6.7H22.4z"/>
	<path id="XMLID_466_" class="st0" d="M30.1,6.5v8.3c0,0.6,0.1,1,0.3,1.2c0.2,0.2,0.5,0.3,1,0.3c0.4,0,0.7,0,1-0.1
		c0.3-0.1,0.5-0.2,0.8-0.3L33,17.6c-0.4,0.1-0.7,0.3-1.1,0.3c-0.4,0.1-0.8,0.1-1.3,0.1c-0.8,0-1.4-0.2-1.8-0.6s-0.6-1.2-0.6-2.3V6.5
		h-1.6V5h1.6V1l1.9-1v5h3.2v1.6H30.1z"/>
	<path id="XMLID_463_" class="st0" d="M46,11c0,0.2,0,0.4,0,0.6c0,0.1,0,0.3-0.1,0.4h-8.5c0.1,1.4,0.4,2.5,1,3.3
		c0.6,0.8,1.5,1.2,2.5,1.2c0.7,0,1.4-0.1,1.9-0.3c0.5-0.2,1.1-0.5,1.6-0.9l0.9,1.3c-0.4,0.2-0.8,0.5-1.1,0.6s-0.7,0.3-1,0.5
		c-0.4,0.1-0.7,0.2-1.1,0.3c-0.4,0.1-0.8,0.1-1.3,0.1c-0.6,0-1.2-0.1-1.8-0.3c-0.6-0.2-1.2-0.6-1.7-1.1c-0.5-0.5-0.9-1.2-1.2-2.1
		c-0.3-0.9-0.5-1.9-0.5-3.2c0-1,0.1-1.9,0.4-2.8s0.6-1.5,1.1-2.1c0.5-0.6,1-1,1.7-1.3c0.6-0.3,1.3-0.5,2.1-0.5
		c0.8,0,1.6,0.2,2.2,0.5c0.6,0.3,1.2,0.7,1.6,1.3c0.4,0.6,0.8,1.2,1,2S46,10.1,46,11z M44.3,10.5c-0.1-1.3-0.4-2.3-0.9-3.1
		c-0.6-0.8-1.4-1.2-2.5-1.2c-1,0-1.7,0.3-2.3,1c-0.6,0.7-1,1.8-1.1,3.2H44.3z"/>
	<path id="XMLID_461_" class="st0" d="M57.5,17.8v-7.5c0-1.4-0.2-2.4-0.7-3c-0.5-0.6-1.3-1-2.3-1c-0.9,0-1.6,0.3-2.2,1
		s-0.9,1.7-0.9,3.1v7.5h-1.9V5h1.9l0,1.6c0.4-0.5,0.9-1,1.4-1.3c0.6-0.3,1.3-0.5,2.1-0.5c0.7,0,1.3,0.1,1.9,0.3c0.6,0.2,1,0.5,1.4,1
		c0.4,0.4,0.7,1,0.9,1.6s0.3,1.5,0.3,2.4v7.8H57.5z"/>
	<path id="XMLID_458_" class="st0" d="M71.1,17.8v-1.6c-0.5,0.5-1,0.9-1.6,1.3c-0.6,0.4-1.4,0.5-2.2,0.5c-0.6,0-1.2-0.1-1.8-0.4
		c-0.6-0.3-1-0.6-1.5-1.2c-0.4-0.5-0.7-1.2-1-2s-0.4-1.8-0.4-2.9c0-1.1,0.1-2.1,0.4-3c0.3-0.9,0.6-1.6,1-2.1c0.4-0.6,1-1,1.5-1.3
		c0.6-0.3,1.2-0.4,1.9-0.4c0.8,0,1.5,0.2,2.1,0.5c0.6,0.3,1.1,0.7,1.5,1.2V1l1.9-1v17.8H71.1z M71.1,8.2c-0.4-0.5-0.8-1-1.4-1.4
		c-0.6-0.4-1.3-0.6-2-0.6c-1.1,0-1.9,0.4-2.4,1.3c-0.5,0.9-0.8,2.2-0.8,3.9c0,1.6,0.3,2.9,0.9,3.7c0.6,0.8,1.4,1.2,2.4,1.2
		c0.7,0,1.3-0.2,1.9-0.5c0.6-0.3,1.1-0.8,1.5-1.4V8.2z"/>
	<path id="XMLID_455_" class="st0" d="M86.7,11c0,0.2,0,0.4,0,0.6c0,0.1,0,0.3-0.1,0.4h-8.5c0.1,1.4,0.4,2.5,1,3.3
		c0.6,0.8,1.5,1.2,2.5,1.2c0.7,0,1.4-0.1,1.9-0.3c0.5-0.2,1.1-0.5,1.6-0.9l0.9,1.3c-0.4,0.2-0.8,0.5-1.1,0.6s-0.7,0.3-1,0.5
		c-0.4,0.1-0.7,0.2-1.1,0.3c-0.4,0.1-0.8,0.1-1.3,0.1c-0.6,0-1.2-0.1-1.8-0.3c-0.6-0.2-1.2-0.6-1.7-1.1c-0.5-0.5-0.9-1.2-1.2-2.1
		c-0.3-0.9-0.5-1.9-0.5-3.2c0-1,0.1-1.9,0.4-2.8s0.6-1.5,1.1-2.1c0.5-0.6,1-1,1.7-1.3c0.6-0.3,1.3-0.5,2.1-0.5
		c0.8,0,1.6,0.2,2.2,0.5c0.6,0.3,1.2,0.7,1.6,1.3c0.4,0.6,0.8,1.2,1,2S86.7,10.1,86.7,11z M85,10.5c-0.1-1.3-0.4-2.3-0.9-3.1
		c-0.6-0.8-1.4-1.2-2.5-1.2c-1,0-1.7,0.3-2.3,1c-0.6,0.7-1,1.8-1.1,3.2H85z"/>
	<path id="XMLID_452_" class="st0" d="M97.9,17.8v-1.6c-0.5,0.5-1,0.9-1.6,1.3c-0.6,0.4-1.4,0.5-2.2,0.5c-0.6,0-1.2-0.1-1.8-0.4
		c-0.6-0.3-1-0.6-1.5-1.2c-0.4-0.5-0.7-1.2-1-2s-0.4-1.8-0.4-2.9c0-1.1,0.1-2.1,0.4-3c0.3-0.9,0.6-1.6,1-2.1c0.4-0.6,1-1,1.5-1.3
		c0.6-0.3,1.2-0.4,1.9-0.4c0.8,0,1.5,0.2,2.1,0.5c0.6,0.3,1.1,0.7,1.5,1.2V1l1.9-1v17.8H97.9z M97.9,8.2c-0.4-0.5-0.8-1-1.4-1.4
		c-0.6-0.4-1.3-0.6-2-0.6c-1.1,0-1.9,0.4-2.4,1.3c-0.5,0.9-0.8,2.2-0.8,3.9c0,1.6,0.3,2.9,0.9,3.7c0.6,0.8,1.4,1.2,2.4,1.2
		c0.7,0,1.3-0.2,1.9-0.5c0.6-0.3,1.1-0.8,1.5-1.4V8.2z"/>
	<path id="XMLID_449_" class="st0" d="M122.4,5.5c0,1.3-0.4,2.4-1.1,3.2c-0.7,0.8-1.7,1.4-2.9,1.6l3.8,7.4h-2.2l-3.7-7.3h-4.1v7.3
		h-1.9V0.7h6.8c0.7,0,1.4,0.1,2.1,0.3c0.7,0.2,1.2,0.5,1.7,0.9c0.5,0.4,0.8,0.9,1.1,1.5C122.3,4,122.4,4.7,122.4,5.5z M120.5,5.6
		c0-1.1-0.3-1.8-0.9-2.4c-0.6-0.5-1.5-0.8-2.6-0.8h-4.8v6.3h4.5c1.3,0,2.2-0.3,2.8-0.8C120.2,7.5,120.5,6.7,120.5,5.6z"/>
	<path id="XMLID_446_" class="st0" d="M135.2,11c0,0.2,0,0.4,0,0.6c0,0.1,0,0.3-0.1,0.4h-8.5c0.1,1.4,0.4,2.5,1,3.3
		c0.6,0.8,1.5,1.2,2.5,1.2c0.7,0,1.4-0.1,1.9-0.3c0.5-0.2,1.1-0.5,1.6-0.9l0.9,1.3c-0.4,0.2-0.8,0.5-1.1,0.6s-0.7,0.3-1,0.5
		c-0.4,0.1-0.7,0.2-1.1,0.3c-0.4,0.1-0.8,0.1-1.3,0.1c-0.6,0-1.2-0.1-1.8-0.3c-0.6-0.2-1.2-0.6-1.7-1.1c-0.5-0.5-0.9-1.2-1.2-2.1
		c-0.3-0.9-0.5-1.9-0.5-3.2c0-1,0.1-1.9,0.4-2.8s0.6-1.5,1.1-2.1c0.5-0.6,1-1,1.7-1.3c0.6-0.3,1.3-0.5,2.1-0.5
		c0.8,0,1.6,0.2,2.2,0.5c0.6,0.3,1.2,0.7,1.6,1.3c0.4,0.6,0.8,1.2,1,2S135.2,10.1,135.2,11z M133.5,10.5c-0.1-1.3-0.4-2.3-0.9-3.1
		c-0.6-0.8-1.4-1.2-2.5-1.2c-1,0-1.7,0.3-2.3,1c-0.6,0.7-1,1.8-1.1,3.2H133.5z"/>
	<path id="XMLID_444_" class="st0" d="M138.8,17.8V1l1.9-1v17.8H138.8z"/>
	<path id="XMLID_441_" class="st0" d="M154.5,11c0,0.2,0,0.4,0,0.6c0,0.1,0,0.3-0.1,0.4h-8.5c0.1,1.4,0.4,2.5,1,3.3
		c0.6,0.8,1.5,1.2,2.5,1.2c0.7,0,1.4-0.1,1.9-0.3c0.5-0.2,1.1-0.5,1.6-0.9l0.9,1.3c-0.4,0.2-0.8,0.5-1.1,0.6s-0.7,0.3-1,0.5
		c-0.4,0.1-0.7,0.2-1.1,0.3c-0.4,0.1-0.8,0.1-1.3,0.1c-0.6,0-1.2-0.1-1.8-0.3c-0.6-0.2-1.2-0.6-1.7-1.1c-0.5-0.5-0.9-1.2-1.2-2.1
		c-0.3-0.9-0.5-1.9-0.5-3.2c0-1,0.1-1.9,0.4-2.8s0.6-1.5,1.1-2.1c0.5-0.6,1-1,1.7-1.3c0.6-0.3,1.3-0.5,2.1-0.5
		c0.8,0,1.6,0.2,2.2,0.5c0.6,0.3,1.2,0.7,1.6,1.3c0.4,0.6,0.8,1.2,1,2S154.5,10.1,154.5,11z M152.8,10.5c-0.1-1.3-0.4-2.3-0.9-3.1
		c-0.6-0.8-1.4-1.2-2.5-1.2c-1,0-1.7,0.3-2.3,1c-0.6,0.7-1,1.8-1.1,3.2H152.8z"/>
	<path id="XMLID_438_" class="st0" d="M165.1,17.8v-1.6c-0.5,0.5-1,0.9-1.6,1.3c-0.6,0.4-1.4,0.5-2.4,0.5c-0.5,0-1-0.1-1.5-0.2
		c-0.5-0.1-0.9-0.4-1.3-0.7c-0.4-0.3-0.7-0.7-0.9-1.3c-0.2-0.5-0.4-1.2-0.4-2c0-0.7,0.1-1.3,0.4-1.9c0.3-0.5,0.6-0.9,1.1-1.3
		c0.4-0.3,1-0.6,1.6-0.7c0.6-0.2,1.2-0.2,1.8-0.2c0.7,0,1.3,0.1,1.8,0.2c0.6,0.1,1,0.3,1.4,0.5V9.1c0-1.9-0.9-2.8-2.8-2.8
		c-0.7,0-1.3,0.1-1.9,0.3c-0.6,0.2-1.1,0.4-1.6,0.7l-0.7-1.5c0.6-0.3,1.2-0.6,2-0.8c0.7-0.2,1.5-0.3,2.3-0.3c1.4,0,2.5,0.3,3.3,1
		s1.2,1.7,1.2,3.2v8.9H165.1z M165.1,12.1c-0.4-0.2-0.9-0.4-1.4-0.5s-1.1-0.2-1.9-0.2c-0.9,0-1.7,0.2-2.2,0.6
		c-0.5,0.4-0.8,1.1-0.8,1.9c0,1,0.2,1.7,0.7,2.1c0.5,0.4,1.1,0.6,1.9,0.6c0.8,0,1.5-0.2,2.2-0.6s1.1-0.8,1.5-1.4V12.1z"/>
	<path id="XMLID_436_" class="st0" d="M178.9,14.4c0,0.6-0.1,1.2-0.4,1.6c-0.3,0.5-0.6,0.8-1,1.1s-0.9,0.5-1.4,0.6
		c-0.5,0.1-1.1,0.2-1.6,0.2c-0.9,0-1.7-0.2-2.5-0.5c-0.8-0.3-1.4-0.7-2.1-1.2l1.1-1.3c0.5,0.5,1.1,0.8,1.7,1
		c0.6,0.2,1.2,0.4,1.8,0.4c0.9,0,1.5-0.2,2-0.5c0.4-0.3,0.6-0.8,0.6-1.5c0-0.3-0.1-0.5-0.2-0.7c-0.1-0.2-0.3-0.4-0.5-0.6
		c-0.2-0.2-0.5-0.4-0.9-0.6s-0.9-0.4-1.4-0.7c-0.6-0.3-1.2-0.5-1.6-0.8c-0.5-0.3-0.8-0.5-1.1-0.8s-0.5-0.6-0.6-1s-0.2-0.8-0.2-1.3
		c0-0.5,0.1-0.9,0.3-1.3c0.2-0.4,0.5-0.7,0.8-1c0.3-0.3,0.8-0.5,1.3-0.7c0.5-0.2,1-0.2,1.6-0.2c0.9,0,1.7,0.1,2.3,0.4
		c0.7,0.3,1.3,0.6,1.8,1l-1,1.3c-0.5-0.4-1-0.7-1.5-0.9c-0.5-0.2-1-0.3-1.7-0.3c-0.7,0-1.2,0.1-1.6,0.4c-0.4,0.3-0.5,0.7-0.5,1.1
		c0,0.3,0,0.5,0.1,0.7c0.1,0.2,0.2,0.4,0.5,0.6c0.2,0.2,0.5,0.4,0.9,0.6c0.4,0.2,0.8,0.4,1.4,0.6c0.6,0.3,1.1,0.5,1.6,0.8
		c0.5,0.2,0.9,0.5,1.2,0.8c0.3,0.3,0.6,0.7,0.8,1C178.8,13.4,178.9,13.9,178.9,14.4z"/>
	<path id="XMLID_433_" class="st0" d="M191.8,11c0,0.2,0,0.4,0,0.6c0,0.1,0,0.3-0.1,0.4h-8.5c0.1,1.4,0.4,2.5,1,3.3
		c0.6,0.8,1.5,1.2,2.5,1.2c0.7,0,1.4-0.1,1.9-0.3c0.5-0.2,1.1-0.5,1.6-0.9l0.9,1.3c-0.4,0.2-0.8,0.5-1.1,0.6s-0.7,0.3-1,0.5
		c-0.4,0.1-0.7,0.2-1.1,0.3c-0.4,0.1-0.8,0.1-1.3,0.1c-0.6,0-1.2-0.1-1.8-0.3c-0.6-0.2-1.2-0.6-1.7-1.1c-0.5-0.5-0.9-1.2-1.2-2.1
		c-0.3-0.9-0.5-1.9-0.5-3.2c0-1,0.1-1.9,0.4-2.8s0.6-1.5,1.1-2.1c0.5-0.6,1-1,1.7-1.3c0.6-0.3,1.3-0.5,2.1-0.5
		c0.8,0,1.6,0.2,2.2,0.5c0.6,0.3,1.2,0.7,1.6,1.3c0.4,0.6,0.8,1.2,1,2S191.8,10.1,191.8,11z M190.1,10.5c-0.1-1.3-0.4-2.3-0.9-3.1
		c-0.6-0.8-1.4-1.2-2.5-1.2c-1,0-1.7,0.3-2.3,1c-0.6,0.7-1,1.8-1.1,3.2H190.1z"/>
	<path id="XMLID_431_" class="st0" d="M205.7,1.7c-0.4,0-0.7,0.1-0.9,0.3c-0.3,0.2-0.4,0.5-0.4,1.1V5h2.5v1.6h-2.5v11.3h-1.9V6.5
		h-1.8V5h1.8V3.2c0-1.1,0.3-1.9,0.9-2.4c0.6-0.5,1.3-0.7,2.2-0.7c0.4,0,0.7,0,0.9,0s0.5,0.1,0.7,0.2V2
		C206.7,1.8,206.2,1.7,205.7,1.7z"/>
	<path id="XMLID_428_" class="st0" d="M220.3,11.3c0,1.1-0.1,2.1-0.4,2.9s-0.7,1.5-1.2,2.1c-0.5,0.6-1.1,1-1.8,1.3
		c-0.7,0.3-1.4,0.4-2.2,0.4c-0.8,0-1.5-0.1-2.2-0.4c-0.7-0.3-1.3-0.7-1.7-1.3c-0.5-0.6-0.9-1.3-1.2-2.1c-0.3-0.8-0.4-1.8-0.4-2.9
		s0.1-2,0.4-2.9s0.7-1.5,1.2-2.1c0.5-0.6,1.1-1,1.8-1.3c0.7-0.3,1.4-0.4,2.2-0.4c0.8,0,1.5,0.1,2.2,0.4c0.7,0.3,1.3,0.7,1.7,1.2
		c0.5,0.6,0.9,1.2,1.2,2.1S220.3,10.2,220.3,11.3z M218.4,11.3c0-1.7-0.3-3-1-3.8c-0.7-0.8-1.6-1.3-2.7-1.3s-2,0.4-2.7,1.3
		c-0.7,0.8-1,2.1-1,3.8s0.3,3,1,3.8c0.7,0.9,1.6,1.3,2.7,1.3s2-0.4,2.7-1.3C218.1,14.3,218.4,13,218.4,11.3z"/>
	<path id="XMLID_426_" class="st0" d="M230.2,6.9c-0.3-0.1-0.5-0.3-0.8-0.4c-0.3-0.1-0.7-0.1-1.1-0.1c-0.9,0-1.6,0.3-2.1,1
		c-0.5,0.7-0.7,1.6-0.7,2.9v7.5h-1.9V5h1.9v1.6c0.3-0.5,0.7-1,1.3-1.3c0.6-0.4,1.2-0.5,1.9-0.5c0.5,0,0.9,0,1.2,0.1
		c0.3,0.1,0.6,0.1,0.8,0.2L230.2,6.9z"/>
	<path id="XMLID_424_" class="st0" d="M248.4,17.8v-7.5c0-1.5-0.2-2.5-0.7-3.1c-0.5-0.6-1.1-0.9-2.1-0.9c-0.9,0-1.5,0.3-2.1,0.9
		c-0.5,0.6-0.8,1.7-0.8,3.1v7.5H241v-7.5c0-1.5-0.2-2.5-0.7-3.1c-0.5-0.6-1.2-0.9-2-0.9c-0.9,0-1.6,0.3-2.1,0.9s-0.8,1.7-0.8,3.1
		v7.5h-1.9V5h1.9l0,1.6c0.3-0.6,0.8-1,1.3-1.3c0.5-0.3,1.2-0.5,2-0.5c0.9,0,1.6,0.2,2.2,0.6c0.6,0.4,1,0.9,1.3,1.6
		c0.2-0.3,0.4-0.6,0.6-0.9c0.2-0.3,0.5-0.5,0.8-0.7c0.3-0.2,0.7-0.4,1.1-0.5c0.4-0.1,0.9-0.2,1.4-0.2c1.3,0,2.3,0.4,3.1,1.2
		s1.2,2.2,1.2,4v7.8H248.4z"/>
	<path id="XMLID_422_" class="st0" d="M262.2,17.8v-1.6c-0.4,0.5-0.9,1-1.4,1.3c-0.6,0.3-1.3,0.5-2.1,0.5c-0.7,0-1.3-0.1-1.9-0.3
		c-0.6-0.2-1-0.5-1.4-1c-0.4-0.4-0.7-1-0.9-1.6c-0.2-0.7-0.3-1.5-0.3-2.4V5h1.9v7.5c0,1.4,0.2,2.4,0.7,3c0.5,0.6,1.3,1,2.3,1
		c0.9,0,1.6-0.3,2.2-1s0.9-1.7,0.9-3.1V5h1.9v12.8H262.2z"/>
	<path id="XMLID_420_" class="st0" d="M268.2,17.8V1l1.9-1v17.8H268.2z"/>
	<path id="XMLID_417_" class="st0" d="M281.5,17.8v-1.6c-0.5,0.5-1,0.9-1.6,1.3c-0.6,0.4-1.4,0.5-2.4,0.5c-0.5,0-1-0.1-1.5-0.2
		c-0.5-0.1-0.9-0.4-1.3-0.7c-0.4-0.3-0.7-0.7-0.9-1.3c-0.2-0.5-0.4-1.2-0.4-2c0-0.7,0.1-1.3,0.4-1.9c0.3-0.5,0.6-0.9,1.1-1.3
		c0.4-0.3,1-0.6,1.6-0.7c0.6-0.2,1.2-0.2,1.8-0.2c0.7,0,1.3,0.1,1.8,0.2c0.6,0.1,1,0.3,1.4,0.5V9.1c0-1.9-0.9-2.8-2.8-2.8
		c-0.7,0-1.3,0.1-1.9,0.3c-0.6,0.2-1.1,0.4-1.6,0.7l-0.7-1.5c0.6-0.3,1.2-0.6,2-0.8c0.7-0.2,1.5-0.3,2.3-0.3c1.4,0,2.5,0.3,3.3,1
		s1.2,1.7,1.2,3.2v8.9H281.5z M281.5,12.1c-0.4-0.2-0.9-0.4-1.4-0.5s-1.1-0.2-1.9-0.2c-0.9,0-1.7,0.2-2.2,0.6
		c-0.5,0.4-0.8,1.1-0.8,1.9c0,1,0.2,1.7,0.7,2.1c0.5,0.4,1.1,0.6,1.9,0.6c0.8,0,1.5-0.2,2.2-0.6s1.1-0.8,1.5-1.4V12.1z"/>
	<path id="XMLID_415_" class="st0" d="M289.7,6.5v8.3c0,0.6,0.1,1,0.3,1.2c0.2,0.2,0.5,0.3,1,0.3c0.4,0,0.7,0,1-0.1
		c0.3-0.1,0.5-0.2,0.8-0.3l-0.1,1.6c-0.4,0.1-0.7,0.3-1.1,0.3c-0.4,0.1-0.8,0.1-1.3,0.1c-0.8,0-1.4-0.2-1.8-0.6s-0.6-1.2-0.6-2.3
		V6.5h-1.6V5h1.6V1l1.9-1v5h3.2v1.6H289.7z"/>
	<path id="XMLID_412_" class="st0" d="M298.8,1.4c0,0.4-0.1,0.7-0.4,0.9c-0.3,0.3-0.5,0.4-0.9,0.4c-0.4,0-0.7-0.1-1-0.4
		c-0.3-0.3-0.4-0.6-0.4-0.9c0-0.4,0.1-0.7,0.4-0.9c0.3-0.3,0.6-0.4,1-0.4c0.3,0,0.6,0.1,0.9,0.4C298.6,0.7,298.8,1,298.8,1.4z
		 M296.5,17.8V5h1.9v12.8H296.5z"/>
	<path id="XMLID_409_" class="st0" d="M313,11.3c0,1.1-0.1,2.1-0.4,2.9s-0.7,1.5-1.2,2.1c-0.5,0.6-1.1,1-1.8,1.3
		c-0.7,0.3-1.4,0.4-2.2,0.4c-0.8,0-1.5-0.1-2.2-0.4c-0.7-0.3-1.3-0.7-1.7-1.3c-0.5-0.6-0.9-1.3-1.2-2.1c-0.3-0.8-0.4-1.8-0.4-2.9
		s0.1-2,0.4-2.9s0.7-1.5,1.2-2.1c0.5-0.6,1.1-1,1.8-1.3c0.7-0.3,1.4-0.4,2.2-0.4c0.8,0,1.5,0.1,2.2,0.4c0.7,0.3,1.3,0.7,1.7,1.2
		c0.5,0.6,0.9,1.2,1.2,2.1S313,10.2,313,11.3z M311.2,11.3c0-1.7-0.3-3-1-3.8c-0.7-0.8-1.6-1.3-2.7-1.3s-2,0.4-2.7,1.3
		c-0.7,0.8-1,2.1-1,3.8s0.3,3,1,3.8c0.7,0.9,1.6,1.3,2.7,1.3s2-0.4,2.7-1.3C310.8,14.3,311.2,13,311.2,11.3z"/>
	<path id="XMLID_407_" class="st0" d="M324.4,17.8v-7.5c0-1.4-0.2-2.4-0.7-3c-0.5-0.6-1.3-1-2.3-1c-0.9,0-1.6,0.3-2.2,1
		s-0.9,1.7-0.9,3.1v7.5h-1.9V5h1.9l0,1.6c0.4-0.5,0.9-1,1.4-1.3c0.6-0.3,1.3-0.5,2.1-0.5c0.7,0,1.3,0.1,1.9,0.3c0.6,0.2,1,0.5,1.4,1
		c0.4,0.4,0.7,1,0.9,1.6s0.3,1.5,0.3,2.4v7.8H324.4z"/>
	<path id="XMLID_405_" class="st0" d="M338.1,14.4c0,0.6-0.1,1.2-0.4,1.6c-0.3,0.5-0.6,0.8-1,1.1s-0.9,0.5-1.4,0.6
		c-0.5,0.1-1.1,0.2-1.6,0.2c-0.9,0-1.7-0.2-2.5-0.5c-0.8-0.3-1.4-0.7-2.1-1.2l1.1-1.3c0.5,0.5,1.1,0.8,1.7,1
		c0.6,0.2,1.2,0.4,1.8,0.4c0.9,0,1.5-0.2,2-0.5c0.4-0.3,0.6-0.8,0.6-1.5c0-0.3-0.1-0.5-0.2-0.7c-0.1-0.2-0.3-0.4-0.5-0.6
		c-0.2-0.2-0.5-0.4-0.9-0.6s-0.9-0.4-1.4-0.7c-0.6-0.3-1.2-0.5-1.6-0.8c-0.5-0.3-0.8-0.5-1.1-0.8s-0.5-0.6-0.6-1s-0.2-0.8-0.2-1.3
		c0-0.5,0.1-0.9,0.3-1.3c0.2-0.4,0.5-0.7,0.8-1c0.3-0.3,0.8-0.5,1.3-0.7c0.5-0.2,1-0.2,1.6-0.2c0.9,0,1.7,0.1,2.3,0.4
		c0.7,0.3,1.3,0.6,1.8,1l-1,1.3c-0.5-0.4-1-0.7-1.5-0.9c-0.5-0.2-1-0.3-1.7-0.3c-0.7,0-1.2,0.1-1.6,0.4c-0.4,0.3-0.5,0.7-0.5,1.1
		c0,0.3,0,0.5,0.1,0.7c0.1,0.2,0.2,0.4,0.5,0.6c0.2,0.2,0.5,0.4,0.9,0.6c0.4,0.2,0.8,0.4,1.4,0.6c0.6,0.3,1.1,0.5,1.6,0.8
		c0.5,0.2,0.9,0.5,1.2,0.8c0.3,0.3,0.6,0.7,0.8,1C338,13.4,338.1,13.9,338.1,14.4z"/>
	<path id="XMLID_403_" class="st0" d="M354.5,6.9c-0.3-0.1-0.5-0.3-0.8-0.4c-0.3-0.1-0.7-0.1-1.1-0.1c-0.9,0-1.6,0.3-2.1,1
		c-0.5,0.7-0.7,1.6-0.7,2.9v7.5h-1.9V5h1.9v1.6c0.3-0.5,0.7-1,1.3-1.3c0.6-0.4,1.2-0.5,1.9-0.5c0.5,0,0.9,0,1.2,0.1
		c0.3,0.1,0.6,0.1,0.8,0.2L354.5,6.9z"/>
	<path id="XMLID_400_" class="st0" d="M367,11c0,0.2,0,0.4,0,0.6c0,0.1,0,0.3-0.1,0.4h-8.5c0.1,1.4,0.4,2.5,1,3.3
		c0.6,0.8,1.5,1.2,2.5,1.2c0.7,0,1.4-0.1,1.9-0.3c0.5-0.2,1.1-0.5,1.6-0.9l0.9,1.3c-0.4,0.2-0.8,0.5-1.1,0.6s-0.7,0.3-1,0.5
		c-0.4,0.1-0.7,0.2-1.1,0.3c-0.4,0.1-0.8,0.1-1.3,0.1c-0.6,0-1.2-0.1-1.8-0.3c-0.6-0.2-1.2-0.6-1.7-1.1c-0.5-0.5-0.9-1.2-1.2-2.1
		c-0.3-0.9-0.5-1.9-0.5-3.2c0-1,0.1-1.9,0.4-2.8s0.6-1.5,1.1-2.1c0.5-0.6,1-1,1.7-1.3c0.6-0.3,1.3-0.5,2.1-0.5
		c0.8,0,1.6,0.2,2.2,0.5c0.6,0.3,1.2,0.7,1.6,1.3c0.4,0.6,0.8,1.2,1,2S367,10.1,367,11z M365.3,10.5c-0.1-1.3-0.4-2.3-0.9-3.1
		c-0.6-0.8-1.4-1.2-2.5-1.2c-1,0-1.7,0.3-2.3,1c-0.6,0.7-1,1.8-1.1,3.2H365.3z"/>
	<path id="XMLID_397_" class="st0" d="M378.2,17.8v-1.6c-0.5,0.5-1,0.9-1.6,1.3c-0.6,0.4-1.4,0.5-2.2,0.5c-0.6,0-1.2-0.1-1.8-0.4
		c-0.6-0.3-1-0.6-1.5-1.2c-0.4-0.5-0.7-1.2-1-2s-0.4-1.8-0.4-2.9c0-1.1,0.1-2.1,0.4-3c0.3-0.9,0.6-1.6,1-2.1c0.4-0.6,1-1,1.5-1.3
		c0.6-0.3,1.2-0.4,1.9-0.4c0.8,0,1.5,0.2,2.1,0.5c0.6,0.3,1.1,0.7,1.5,1.2V1l1.9-1v17.8H378.2z M378.2,8.2c-0.4-0.5-0.8-1-1.4-1.4
		c-0.6-0.4-1.3-0.6-2-0.6c-1.1,0-1.9,0.4-2.4,1.3c-0.5,0.9-0.8,2.2-0.8,3.9c0,1.6,0.3,2.9,0.9,3.7c0.6,0.8,1.4,1.2,2.4,1.2
		c0.7,0,1.3-0.2,1.9-0.5c0.6-0.3,1.1-0.8,1.5-1.4V8.2z"/>
	<path id="XMLID_395_" class="st0" d="M392,17.8v-1.6c-0.4,0.5-0.9,1-1.4,1.3c-0.6,0.3-1.3,0.5-2.1,0.5c-0.7,0-1.3-0.1-1.9-0.3
		c-0.6-0.2-1-0.5-1.4-1c-0.4-0.4-0.7-1-0.9-1.6c-0.2-0.7-0.3-1.5-0.3-2.4V5h1.9v7.5c0,1.4,0.2,2.4,0.7,3c0.5,0.6,1.3,1,2.3,1
		c0.9,0,1.6-0.3,2.2-1s0.9-1.7,0.9-3.1V5h1.9v12.8H392z"/>
	<path id="XMLID_393_" class="st0" d="M405.7,7.6c-0.5-0.4-0.9-0.7-1.4-1c-0.5-0.2-1-0.3-1.7-0.3c-0.5,0-1,0.1-1.4,0.3
		s-0.8,0.5-1.1,1c-0.3,0.4-0.6,1-0.7,1.6c-0.2,0.6-0.3,1.3-0.3,2.1c0,1.6,0.3,2.8,1,3.8c0.6,0.9,1.5,1.4,2.7,1.4
		c0.6,0,1.2-0.1,1.6-0.4c0.5-0.2,0.9-0.6,1.3-1l1.1,1.2c-0.5,0.5-1.1,1-1.8,1.3c-0.7,0.3-1.4,0.5-2.3,0.5c-0.7,0-1.4-0.1-2-0.4
		c-0.7-0.3-1.2-0.7-1.7-1.2c-0.5-0.6-0.9-1.2-1.2-2.1s-0.5-1.8-0.5-2.9c0-1.2,0.2-2.2,0.5-3.1c0.3-0.8,0.7-1.5,1.3-2.1
		s1.1-0.9,1.8-1.2c0.7-0.3,1.3-0.4,2-0.4c0.9,0,1.6,0.1,2.3,0.4c0.7,0.3,1.2,0.6,1.7,1.1L405.7,7.6z"/>
	<path id="XMLID_390_" class="st0" d="M419.3,11c0,0.2,0,0.4,0,0.6c0,0.1,0,0.3-0.1,0.4h-8.5c0.1,1.4,0.4,2.5,1,3.3
		c0.6,0.8,1.5,1.2,2.5,1.2c0.7,0,1.4-0.1,1.9-0.3c0.5-0.2,1.1-0.5,1.6-0.9l0.9,1.3c-0.4,0.2-0.8,0.5-1.1,0.6s-0.7,0.3-1,0.5
		c-0.4,0.1-0.7,0.2-1.1,0.3c-0.4,0.1-0.8,0.1-1.3,0.1c-0.6,0-1.2-0.1-1.8-0.3c-0.6-0.2-1.2-0.6-1.7-1.1c-0.5-0.5-0.9-1.2-1.2-2.1
		c-0.3-0.9-0.5-1.9-0.5-3.2c0-1,0.1-1.9,0.4-2.8s0.6-1.5,1.1-2.1c0.5-0.6,1-1,1.7-1.3c0.6-0.3,1.3-0.5,2.1-0.5
		c0.8,0,1.6,0.2,2.2,0.5c0.6,0.3,1.2,0.7,1.6,1.3c0.4,0.6,0.8,1.2,1,2S419.3,10.1,419.3,11z M417.6,10.5c-0.1-1.3-0.4-2.3-0.9-3.1
		c-0.6-0.8-1.4-1.2-2.5-1.2c-1,0-1.7,0.3-2.3,1c-0.6,0.7-1,1.8-1.1,3.2H417.6z"/>
	<path id="XMLID_387_" class="st0" d="M439.4,11.2c0,1.1-0.1,2.1-0.4,3c-0.3,0.9-0.6,1.6-1,2.1c-0.4,0.6-0.9,1-1.5,1.3
		s-1.2,0.4-1.9,0.4c-0.8,0-1.5-0.2-2.1-0.5s-1.1-0.7-1.5-1.2v5.1l-1.9,1V5h1.9l0,1.6c0.5-0.5,1-0.9,1.6-1.3s1.4-0.5,2.2-0.5
		c0.6,0,1.2,0.1,1.8,0.4c0.6,0.3,1,0.6,1.5,1.2c0.4,0.5,0.7,1.2,1,2S439.4,10.1,439.4,11.2z M437.6,11.2c0-1.6-0.3-2.9-0.9-3.7
		c-0.6-0.8-1.4-1.2-2.4-1.2c-0.7,0-1.3,0.2-1.9,0.5s-1.1,0.8-1.5,1.4v6.4c0.4,0.5,0.8,1,1.4,1.4s1.3,0.6,2,0.6
		c1.1,0,1.9-0.5,2.4-1.3C437.3,14.2,437.6,12.9,437.6,11.2z"/>
	<path id="XMLID_384_" class="st0" d="M452.5,11c0,0.2,0,0.4,0,0.6c0,0.1,0,0.3-0.1,0.4h-8.5c0.1,1.4,0.4,2.5,1,3.3
		c0.6,0.8,1.5,1.2,2.5,1.2c0.7,0,1.4-0.1,1.9-0.3c0.5-0.2,1.1-0.5,1.6-0.9l0.9,1.3c-0.4,0.2-0.8,0.5-1.1,0.6s-0.7,0.3-1,0.5
		c-0.4,0.1-0.7,0.2-1.1,0.3c-0.4,0.1-0.8,0.1-1.3,0.1c-0.6,0-1.2-0.1-1.8-0.3c-0.6-0.2-1.2-0.6-1.7-1.1c-0.5-0.5-0.9-1.2-1.2-2.1
		c-0.3-0.9-0.5-1.9-0.5-3.2c0-1,0.1-1.9,0.4-2.8s0.6-1.5,1.1-2.1c0.5-0.6,1-1,1.7-1.3c0.6-0.3,1.3-0.5,2.1-0.5
		c0.8,0,1.6,0.2,2.2,0.5c0.6,0.3,1.2,0.7,1.6,1.3c0.4,0.6,0.8,1.2,1,2S452.5,10.1,452.5,11z M450.8,10.5c-0.1-1.3-0.4-2.3-0.9-3.1
		c-0.6-0.8-1.4-1.2-2.5-1.2c-1,0-1.7,0.3-2.3,1c-0.6,0.7-1,1.8-1.1,3.2H450.8z"/>
	<path id="XMLID_381_" class="st0" d="M463.1,17.8v-1.6c-0.5,0.5-1,0.9-1.6,1.3c-0.6,0.4-1.4,0.5-2.4,0.5c-0.5,0-1-0.1-1.5-0.2
		c-0.5-0.1-0.9-0.4-1.3-0.7c-0.4-0.3-0.7-0.7-0.9-1.3c-0.2-0.5-0.4-1.2-0.4-2c0-0.7,0.1-1.3,0.4-1.9c0.3-0.5,0.6-0.9,1.1-1.3
		c0.4-0.3,1-0.6,1.6-0.7c0.6-0.2,1.2-0.2,1.8-0.2c0.7,0,1.3,0.1,1.8,0.2c0.6,0.1,1,0.3,1.4,0.5V9.1c0-1.9-0.9-2.8-2.8-2.8
		c-0.7,0-1.3,0.1-1.9,0.3c-0.6,0.2-1.1,0.4-1.6,0.7l-0.7-1.5c0.6-0.3,1.2-0.6,2-0.8c0.7-0.2,1.5-0.3,2.3-0.3c1.4,0,2.5,0.3,3.3,1
		s1.2,1.7,1.2,3.2v8.9H463.1z M463.1,12.1c-0.4-0.2-0.9-0.4-1.4-0.5s-1.1-0.2-1.9-0.2c-0.9,0-1.7,0.2-2.2,0.6
		c-0.5,0.4-0.8,1.1-0.8,1.9c0,1,0.2,1.7,0.7,2.1c0.5,0.4,1.1,0.6,1.9,0.6c0.8,0,1.5-0.2,2.2-0.6s1.1-0.8,1.5-1.4V12.1z"/>
	<path id="XMLID_379_" class="st0" d="M476.2,17.8l-3.2-6.7l-2.2,3.1v3.7h-1.9V1l1.9-1v11.1v0.7l0.5-0.8l4.2-6h2.1l-3.4,4.5l4.1,8.3
		H476.2z"/>
	<path id="XMLID_377_" class="st0" d="M489.9,6.5v8.3c0,0.6,0.1,1,0.3,1.2c0.2,0.2,0.5,0.3,1,0.3c0.4,0,0.7,0,1-0.1
		c0.3-0.1,0.5-0.2,0.8-0.3l-0.1,1.6c-0.4,0.1-0.7,0.3-1.1,0.3c-0.4,0.1-0.8,0.1-1.3,0.1c-0.8,0-1.4-0.2-1.8-0.6s-0.6-1.2-0.6-2.3
		V6.5h-1.6V5h1.6V1l1.9-1v5h3.2v1.6H489.9z"/>
	<path id="XMLID_374_" class="st0" d="M506.6,11.3c0,1.1-0.1,2.1-0.4,2.9s-0.7,1.5-1.2,2.1c-0.5,0.6-1.1,1-1.8,1.3
		c-0.7,0.3-1.4,0.4-2.2,0.4c-0.8,0-1.5-0.1-2.2-0.4c-0.7-0.3-1.3-0.7-1.7-1.3c-0.5-0.6-0.9-1.3-1.2-2.1c-0.3-0.8-0.4-1.8-0.4-2.9
		s0.1-2,0.4-2.9s0.7-1.5,1.2-2.1c0.5-0.6,1.1-1,1.8-1.3c0.7-0.3,1.4-0.4,2.2-0.4c0.8,0,1.5,0.1,2.2,0.4c0.7,0.3,1.3,0.7,1.7,1.2
		c0.5,0.6,0.9,1.2,1.2,2.1S506.6,10.2,506.6,11.3z M504.8,11.3c0-1.7-0.3-3-1-3.8c-0.7-0.8-1.6-1.3-2.7-1.3s-2,0.4-2.7,1.3
		c-0.7,0.8-1,2.1-1,3.8s0.3,3,1,3.8c0.7,0.9,1.6,1.3,2.7,1.3s2-0.4,2.7-1.3C504.4,14.3,504.8,13,504.8,11.3z"/>
	<path id="XMLID_372_" class="st0" d="M509.2,9.8V8h5.4v1.8H509.2z"/>
	<path id="XMLID_370_" class="st0" d="M526.5,6.5v8.3c0,0.6,0.1,1,0.3,1.2c0.2,0.2,0.5,0.3,1,0.3c0.4,0,0.7,0,1-0.1
		c0.3-0.1,0.5-0.2,0.8-0.3l-0.1,1.6c-0.4,0.1-0.7,0.3-1.1,0.3c-0.4,0.1-0.8,0.1-1.3,0.1c-0.8,0-1.4-0.2-1.8-0.6s-0.6-1.2-0.6-2.3
		V6.5h-1.6V5h1.6V1l1.9-1v5h3.2v1.6H526.5z"/>
	<path id="XMLID_368_" class="st0" d="M539.8,6.9c-0.3-0.1-0.5-0.3-0.8-0.4c-0.3-0.1-0.7-0.1-1.1-0.1c-0.9,0-1.6,0.3-2.1,1
		c-0.5,0.7-0.7,1.6-0.7,2.9v7.5h-1.9V5h1.9v1.6c0.3-0.5,0.7-1,1.3-1.3c0.6-0.4,1.2-0.5,1.9-0.5c0.5,0,0.9,0,1.2,0.1
		c0.3,0.1,0.6,0.1,0.8,0.2L539.8,6.9z"/>
	<path id="XMLID_365_" class="st0" d="M553.1,11.3c0,1.1-0.1,2.1-0.4,2.9s-0.7,1.5-1.2,2.1c-0.5,0.6-1.1,1-1.8,1.3
		c-0.7,0.3-1.4,0.4-2.2,0.4c-0.8,0-1.5-0.1-2.2-0.4c-0.7-0.3-1.3-0.7-1.7-1.3c-0.5-0.6-0.9-1.3-1.2-2.1c-0.3-0.8-0.4-1.8-0.4-2.9
		s0.1-2,0.4-2.9s0.7-1.5,1.2-2.1c0.5-0.6,1.1-1,1.8-1.3c0.7-0.3,1.4-0.4,2.2-0.4c0.8,0,1.5,0.1,2.2,0.4c0.7,0.3,1.3,0.7,1.7,1.2
		c0.5,0.6,0.9,1.2,1.2,2.1S553.1,10.2,553.1,11.3z M551.2,11.3c0-1.7-0.3-3-1-3.8c-0.7-0.8-1.6-1.3-2.7-1.3s-2,0.4-2.7,1.3
		c-0.7,0.8-1,2.1-1,3.8s0.3,3,1,3.8c0.7,0.9,1.6,1.3,2.7,1.3s2-0.4,2.7-1.3C550.9,14.3,551.2,13,551.2,11.3z"/>
	<path id="XMLID_363_" class="st0" d="M564.4,17.8v-1.6c-0.4,0.5-0.9,1-1.4,1.3c-0.6,0.3-1.3,0.5-2.1,0.5c-0.7,0-1.3-0.1-1.9-0.3
		c-0.6-0.2-1-0.5-1.4-1c-0.4-0.4-0.7-1-0.9-1.6c-0.2-0.7-0.3-1.5-0.3-2.4V5h1.9v7.5c0,1.4,0.2,2.4,0.7,3c0.5,0.6,1.3,1,2.3,1
		c0.9,0,1.6-0.3,2.2-1s0.9-1.7,0.9-3.1V5h1.9v12.8H564.4z"/>
	<path id="XMLID_360_" class="st0" d="M579.9,16.6c0,1-0.1,1.8-0.3,2.5s-0.6,1.3-1.1,1.8c-0.5,0.5-1.2,0.9-2,1.1
		c-0.8,0.3-1.8,0.4-3,0.4l-0.6-1.4c1.1,0,1.9-0.1,2.6-0.3c0.7-0.2,1.2-0.4,1.6-0.7c0.4-0.3,0.7-0.8,0.8-1.3c0.1-0.5,0.2-1.2,0.2-1.9
		v-0.7c-0.5,0.5-1,0.9-1.6,1.3c-0.6,0.4-1.4,0.5-2.2,0.5c-0.6,0-1.2-0.1-1.8-0.4c-0.6-0.3-1-0.6-1.5-1.2c-0.4-0.5-0.7-1.2-1-2
		s-0.4-1.8-0.4-2.9c0-1.1,0.1-2.1,0.4-3c0.3-0.9,0.6-1.6,1-2.1c0.4-0.6,1-1,1.5-1.3c0.6-0.3,1.2-0.4,1.9-0.4c0.8,0,1.5,0.2,2.1,0.5
		c0.6,0.3,1.1,0.7,1.5,1.2V5h1.9V16.6z M578,8.2c-0.4-0.5-0.8-1-1.4-1.4c-0.6-0.4-1.3-0.6-2-0.6c-1.1,0-1.9,0.4-2.4,1.3
		c-0.5,0.9-0.8,2.2-0.8,3.9c0,1.6,0.3,2.9,0.9,3.7c0.6,0.8,1.4,1.2,2.4,1.2c0.7,0,1.3-0.2,1.9-0.5c0.6-0.3,1.1-0.8,1.5-1.4V8.2z"/>
	<path id="XMLID_358_" class="st0" d="M591.9,17.8v-7.5c0-1.4-0.2-2.4-0.7-3c-0.5-0.6-1.3-1-2.3-1c-0.9,0-1.6,0.3-2.2,1
		s-0.9,1.7-0.9,3.1v7.5h-1.9V1l1.9-1l0,6.5c0.4-0.5,0.9-1,1.4-1.3c0.6-0.3,1.3-0.5,2.1-0.5c0.7,0,1.3,0.1,1.9,0.3
		c0.6,0.2,1,0.5,1.4,1c0.4,0.4,0.7,1,0.9,1.6s0.3,1.5,0.3,2.4v7.8H591.9z"/>
	<path id="XMLID_355_" class="st0" d="M609.6,2c-0.4-0.2-0.9-0.3-1.5-0.3c-0.4,0-0.7,0.1-0.9,0.3c-0.3,0.2-0.4,0.5-0.4,1.1V5h2.5
		v1.6h-2.5v11.3H605V6.5h-1.8V5h1.8V3.2c0-1.1,0.3-1.9,0.8-2.4c0.6-0.5,1.3-0.7,2.2-0.7c0.4,0,0.7,0,0.9,0s0.5,0.1,0.7,0.2V2z
		 M612.6,17.8V1l1.9-1v17.8H612.6z"/>
	<path id="XMLID_353_" class="st0" d="M626.6,17.8v-1.6c-0.4,0.5-0.9,1-1.4,1.3c-0.6,0.3-1.3,0.5-2.1,0.5c-0.7,0-1.3-0.1-1.9-0.3
		c-0.6-0.2-1-0.5-1.4-1c-0.4-0.4-0.7-1-0.9-1.6c-0.2-0.7-0.3-1.5-0.3-2.4V5h1.9v7.5c0,1.4,0.2,2.4,0.7,3c0.5,0.6,1.3,1,2.3,1
		c0.9,0,1.6-0.3,2.2-1s0.9-1.7,0.9-3.1V5h1.9v12.8H626.6z"/>
	<path id="XMLID_351_" class="st0" d="M640.3,7.6c-0.5-0.4-0.9-0.7-1.4-1c-0.5-0.2-1-0.3-1.7-0.3c-0.5,0-1,0.1-1.4,0.3
		s-0.8,0.5-1.1,1c-0.3,0.4-0.6,1-0.7,1.6c-0.2,0.6-0.3,1.3-0.3,2.1c0,1.6,0.3,2.8,1,3.8c0.6,0.9,1.5,1.4,2.7,1.4
		c0.6,0,1.2-0.1,1.6-0.4c0.5-0.2,0.9-0.6,1.3-1l1.1,1.2c-0.5,0.5-1.1,1-1.8,1.3c-0.7,0.3-1.4,0.5-2.3,0.5c-0.7,0-1.4-0.1-2-0.4
		c-0.7-0.3-1.2-0.7-1.7-1.2c-0.5-0.6-0.9-1.2-1.2-2.1s-0.5-1.8-0.5-2.9c0-1.2,0.2-2.2,0.5-3.1c0.3-0.8,0.7-1.5,1.3-2.1
		s1.1-0.9,1.8-1.2c0.7-0.3,1.3-0.4,2-0.4c0.9,0,1.6,0.1,2.3,0.4c0.7,0.3,1.2,0.6,1.7,1.1L640.3,7.6z"/>
	<path id="XMLID_349_" class="st0" d="M646.9,6.5v8.3c0,0.6,0.1,1,0.3,1.2c0.2,0.2,0.5,0.3,1,0.3c0.4,0,0.7,0,1-0.1
		c0.3-0.1,0.5-0.2,0.8-0.3l-0.1,1.6c-0.4,0.1-0.7,0.3-1.1,0.3c-0.4,0.1-0.8,0.1-1.3,0.1c-0.8,0-1.4-0.2-1.8-0.6s-0.6-1.2-0.6-2.3
		V6.5h-1.6V5h1.6V1l1.9-1v5h3.2v1.6H646.9z"/>
	<path id="XMLID_347_" class="st0" d="M661.4,17.8v-1.6c-0.4,0.5-0.9,1-1.4,1.3c-0.6,0.3-1.3,0.5-2.1,0.5c-0.7,0-1.3-0.1-1.9-0.3
		c-0.6-0.2-1-0.5-1.4-1c-0.4-0.4-0.7-1-0.9-1.6c-0.2-0.7-0.3-1.5-0.3-2.4V5h1.9v7.5c0,1.4,0.2,2.4,0.7,3c0.5,0.6,1.3,1,2.3,1
		c0.9,0,1.6-0.3,2.2-1s0.9-1.7,0.9-3.1V5h1.9v12.8H661.4z"/>
	<path id="XMLID_344_" class="st0" d="M674.6,17.8v-1.6c-0.5,0.5-1,0.9-1.6,1.3c-0.6,0.4-1.4,0.5-2.4,0.5c-0.5,0-1-0.1-1.5-0.2
		c-0.5-0.1-0.9-0.4-1.3-0.7c-0.4-0.3-0.7-0.7-0.9-1.3c-0.2-0.5-0.4-1.2-0.4-2c0-0.7,0.1-1.3,0.4-1.9c0.3-0.5,0.6-0.9,1.1-1.3
		c0.4-0.3,1-0.6,1.6-0.7c0.6-0.2,1.2-0.2,1.8-0.2c0.7,0,1.3,0.1,1.8,0.2c0.6,0.1,1,0.3,1.4,0.5V9.1c0-1.9-0.9-2.8-2.8-2.8
		c-0.7,0-1.3,0.1-1.9,0.3c-0.6,0.2-1.1,0.4-1.6,0.7l-0.7-1.5c0.6-0.3,1.2-0.6,2-0.8c0.7-0.2,1.5-0.3,2.3-0.3c1.4,0,2.5,0.3,3.3,1
		s1.2,1.7,1.2,3.2v8.9H674.6z M674.6,12.1c-0.4-0.2-0.9-0.4-1.4-0.5s-1.1-0.2-1.9-0.2c-0.9,0-1.7,0.2-2.2,0.6
		c-0.5,0.4-0.8,1.1-0.8,1.9c0,1,0.2,1.7,0.7,2.1c0.5,0.4,1.1,0.6,1.9,0.6c0.8,0,1.5-0.2,2.2-0.6s1.1-0.8,1.5-1.4V12.1z"/>
	<path id="XMLID_342_" class="st0" d="M682.8,6.5v8.3c0,0.6,0.1,1,0.3,1.2c0.2,0.2,0.5,0.3,1,0.3c0.4,0,0.7,0,1-0.1
		c0.3-0.1,0.5-0.2,0.8-0.3l-0.1,1.6c-0.4,0.1-0.7,0.3-1.1,0.3c-0.4,0.1-0.8,0.1-1.3,0.1c-0.8,0-1.4-0.2-1.8-0.6s-0.6-1.2-0.6-2.3
		V6.5h-1.6V5h1.6V1l1.9-1v5h3.2v1.6H682.8z"/>
	<path id="XMLID_339_" class="st0" d="M691.9,1.4c0,0.4-0.1,0.7-0.4,0.9c-0.3,0.3-0.5,0.4-0.9,0.4c-0.4,0-0.7-0.1-1-0.4
		c-0.3-0.3-0.4-0.6-0.4-0.9c0-0.4,0.1-0.7,0.4-0.9c0.3-0.3,0.6-0.4,1-0.4c0.3,0,0.6,0.1,0.9,0.4C691.7,0.7,691.9,1,691.9,1.4z
		 M689.6,17.8V5h1.9v12.8H689.6z"/>
	<path id="XMLID_336_" class="st0" d="M706.1,11.3c0,1.1-0.1,2.1-0.4,2.9s-0.7,1.5-1.2,2.1c-0.5,0.6-1.1,1-1.8,1.3
		c-0.7,0.3-1.4,0.4-2.2,0.4c-0.8,0-1.5-0.1-2.2-0.4c-0.7-0.3-1.3-0.7-1.7-1.3c-0.5-0.6-0.9-1.3-1.2-2.1c-0.3-0.8-0.4-1.8-0.4-2.9
		s0.1-2,0.4-2.9s0.7-1.5,1.2-2.1c0.5-0.6,1.1-1,1.8-1.3c0.7-0.3,1.4-0.4,2.2-0.4c0.8,0,1.5,0.1,2.2,0.4c0.7,0.3,1.3,0.7,1.7,1.2
		c0.5,0.6,0.9,1.2,1.2,2.1S706.1,10.2,706.1,11.3z M704.2,11.3c0-1.7-0.3-3-1-3.8c-0.7-0.8-1.6-1.3-2.7-1.3s-2,0.4-2.7,1.3
		c-0.7,0.8-1,2.1-1,3.8s0.3,3,1,3.8c0.7,0.9,1.6,1.3,2.7,1.3s2-0.4,2.7-1.3C703.9,14.3,704.2,13,704.2,11.3z"/>
	<path id="XMLID_334_" class="st0" d="M717.5,17.8v-7.5c0-1.4-0.2-2.4-0.7-3c-0.5-0.6-1.3-1-2.3-1c-0.9,0-1.6,0.3-2.2,1
		s-0.9,1.7-0.9,3.1v7.5h-1.9V5h1.9l0,1.6c0.4-0.5,0.9-1,1.4-1.3c0.6-0.3,1.3-0.5,2.1-0.5c0.7,0,1.3,0.1,1.9,0.3c0.6,0.2,1,0.5,1.4,1
		c0.4,0.4,0.7,1,0.9,1.6s0.3,1.5,0.3,2.4v7.8H717.5z"/>
	<path id="XMLID_332_" class="st0" d="M724,20.7h-1.3l0.4-5.7h2.5L724,20.7z"/>
	<path id="XMLID_330_" class="st0" d="M746.7,17.8h-1.7l-2.3-8.6c0-0.1-0.1-0.2-0.1-0.4c0-0.2-0.1-0.3-0.1-0.5
		c0-0.2-0.1-0.3-0.1-0.5c0-0.2-0.1-0.3-0.1-0.4c0,0.1,0,0.3-0.1,0.4c0,0.2-0.1,0.3-0.1,0.5s-0.1,0.3-0.1,0.5c0,0.2-0.1,0.3-0.1,0.4
		l-2.3,8.6H738L734.6,5h1.9l2,8.5c0,0.1,0,0.2,0.1,0.4c0,0.2,0.1,0.3,0.1,0.5s0.1,0.3,0.1,0.5c0,0.2,0.1,0.3,0.1,0.4
		c0-0.1,0-0.3,0.1-0.4c0-0.2,0.1-0.3,0.1-0.5c0-0.2,0.1-0.3,0.1-0.5c0-0.2,0.1-0.3,0.1-0.4l2.3-8.5h1.7l2.3,8.5
		c0,0.1,0.1,0.2,0.1,0.4c0,0.2,0.1,0.3,0.1,0.5c0,0.2,0.1,0.3,0.1,0.5c0,0.2,0.1,0.3,0.1,0.4c0-0.1,0-0.3,0.1-0.4
		c0-0.2,0.1-0.3,0.1-0.5c0-0.2,0.1-0.3,0.1-0.5c0-0.2,0.1-0.3,0.1-0.4l2-8.5h1.8L746.7,17.8z"/>
	<path id="XMLID_328_" class="st0" d="M761.3,17.8v-7.5c0-1.4-0.2-2.4-0.7-3c-0.5-0.6-1.3-1-2.3-1c-0.9,0-1.6,0.3-2.2,1
		s-0.9,1.7-0.9,3.1v7.5h-1.9V1l1.9-1l0,6.5c0.4-0.5,0.9-1,1.4-1.3c0.6-0.3,1.3-0.5,2.1-0.5c0.7,0,1.3,0.1,1.9,0.3
		c0.6,0.2,1,0.5,1.4,1c0.4,0.4,0.7,1,0.9,1.6s0.3,1.5,0.3,2.4v7.8H761.3z"/>
	<path id="XMLID_325_" class="st0" d="M769.5,1.4c0,0.4-0.1,0.7-0.4,0.9c-0.3,0.3-0.5,0.4-0.9,0.4c-0.4,0-0.7-0.1-1-0.4
		c-0.3-0.3-0.4-0.6-0.4-0.9c0-0.4,0.1-0.7,0.4-0.9c0.3-0.3,0.6-0.4,1-0.4c0.3,0,0.6,0.1,0.9,0.4C769.4,0.7,769.5,1,769.5,1.4z
		 M767.3,17.8V5h1.9v12.8H767.3z"/>
	<path id="XMLID_323_" class="st0" d="M781,7.6c-0.5-0.4-0.9-0.7-1.4-1c-0.5-0.2-1-0.3-1.7-0.3c-0.5,0-1,0.1-1.4,0.3s-0.8,0.5-1.1,1
		c-0.3,0.4-0.6,1-0.7,1.6c-0.2,0.6-0.3,1.3-0.3,2.1c0,1.6,0.3,2.8,1,3.8c0.6,0.9,1.5,1.4,2.7,1.4c0.6,0,1.2-0.1,1.6-0.4
		c0.5-0.2,0.9-0.6,1.3-1l1.1,1.2c-0.5,0.5-1.1,1-1.8,1.3c-0.7,0.3-1.4,0.5-2.3,0.5c-0.7,0-1.4-0.1-2-0.4c-0.7-0.3-1.2-0.7-1.7-1.2
		c-0.5-0.6-0.9-1.2-1.2-2.1s-0.5-1.8-0.5-2.9c0-1.2,0.2-2.2,0.5-3.1c0.3-0.8,0.7-1.5,1.3-2.1s1.1-0.9,1.8-1.2c0.7-0.3,1.3-0.4,2-0.4
		c0.9,0,1.6,0.1,2.3,0.4c0.7,0.3,1.2,0.6,1.7,1.1L781,7.6z"/>
	<path id="XMLID_321_" class="st0" d="M793.4,17.8v-7.5c0-1.4-0.2-2.4-0.7-3c-0.5-0.6-1.3-1-2.3-1c-0.9,0-1.6,0.3-2.2,1
		s-0.9,1.7-0.9,3.1v7.5h-1.9V1l1.9-1l0,6.5c0.4-0.5,0.9-1,1.4-1.3c0.6-0.3,1.3-0.5,2.1-0.5c0.7,0,1.3,0.1,1.9,0.3
		c0.6,0.2,1,0.5,1.4,1c0.4,0.4,0.7,1,0.9,1.6s0.3,1.5,0.3,2.4v7.8H793.4z"/>
	<path id="XMLID_318_" class="st0" d="M807.9,1.4c0,0.4-0.1,0.7-0.4,0.9c-0.3,0.3-0.5,0.4-0.9,0.4c-0.4,0-0.7-0.1-1-0.4
		c-0.3-0.3-0.4-0.6-0.4-0.9c0-0.4,0.1-0.7,0.4-0.9c0.3-0.3,0.6-0.4,1-0.4c0.3,0,0.6,0.1,0.9,0.4C807.7,0.7,807.9,1,807.9,1.4z
		 M805.6,17.8V5h1.9v12.8H805.6z"/>
	<path id="XMLID_316_" class="st0" d="M819.6,14.4c0,0.6-0.1,1.2-0.4,1.6c-0.3,0.5-0.6,0.8-1,1.1s-0.9,0.5-1.4,0.6
		c-0.5,0.1-1.1,0.2-1.6,0.2c-0.9,0-1.7-0.2-2.5-0.5c-0.8-0.3-1.4-0.7-2.1-1.2l1.1-1.3c0.5,0.5,1.1,0.8,1.7,1
		c0.6,0.2,1.2,0.4,1.8,0.4c0.9,0,1.5-0.2,2-0.5c0.4-0.3,0.6-0.8,0.6-1.5c0-0.3-0.1-0.5-0.2-0.7c-0.1-0.2-0.3-0.4-0.5-0.6
		c-0.2-0.2-0.5-0.4-0.9-0.6s-0.9-0.4-1.4-0.7c-0.6-0.3-1.2-0.5-1.6-0.8c-0.5-0.3-0.8-0.5-1.1-0.8s-0.5-0.6-0.6-1s-0.2-0.8-0.2-1.3
		c0-0.5,0.1-0.9,0.3-1.3c0.2-0.4,0.5-0.7,0.8-1c0.3-0.3,0.8-0.5,1.3-0.7c0.5-0.2,1-0.2,1.6-0.2c0.9,0,1.7,0.1,2.3,0.4
		c0.7,0.3,1.3,0.6,1.8,1l-1,1.3c-0.5-0.4-1-0.7-1.5-0.9c-0.5-0.2-1-0.3-1.7-0.3c-0.7,0-1.2,0.1-1.6,0.4c-0.4,0.3-0.5,0.7-0.5,1.1
		c0,0.3,0,0.5,0.1,0.7c0.1,0.2,0.2,0.4,0.5,0.6c0.2,0.2,0.5,0.4,0.9,0.6c0.4,0.2,0.8,0.4,1.4,0.6c0.6,0.3,1.1,0.5,1.6,0.8
		c0.5,0.2,0.9,0.5,1.2,0.8c0.3,0.3,0.6,0.7,0.8,1C819.5,13.4,819.6,13.9,819.6,14.4z"/>
	<path id="XMLID_313_" class="st0" d="M836.7,17.8v-1.6c-0.5,0.5-1,0.9-1.6,1.3c-0.6,0.4-1.4,0.5-2.4,0.5c-0.5,0-1-0.1-1.5-0.2
		c-0.5-0.1-0.9-0.4-1.3-0.7c-0.4-0.3-0.7-0.7-0.9-1.3c-0.2-0.5-0.4-1.2-0.4-2c0-0.7,0.1-1.3,0.4-1.9c0.3-0.5,0.6-0.9,1.1-1.3
		c0.4-0.3,1-0.6,1.6-0.7c0.6-0.2,1.2-0.2,1.8-0.2c0.7,0,1.3,0.1,1.8,0.2c0.6,0.1,1,0.3,1.4,0.5V9.1c0-1.9-0.9-2.8-2.8-2.8
		c-0.7,0-1.3,0.1-1.9,0.3c-0.6,0.2-1.1,0.4-1.6,0.7l-0.7-1.5c0.6-0.3,1.2-0.6,2-0.8c0.7-0.2,1.5-0.3,2.3-0.3c1.4,0,2.5,0.3,3.3,1
		s1.2,1.7,1.2,3.2v8.9H836.7z M836.7,12.1c-0.4-0.2-0.9-0.4-1.4-0.5s-1.1-0.2-1.9-0.2c-0.9,0-1.7,0.2-2.2,0.6
		c-0.5,0.4-0.8,1.1-0.8,1.9c0,1,0.2,1.7,0.7,2.1c0.5,0.4,1.1,0.6,1.9,0.6c0.8,0,1.5-0.2,2.2-0.6s1.1-0.8,1.5-1.4V12.1z"/>
	<path id="XMLID_311_" class="st0" d="M850.6,17.8v-7.5c0-1.4-0.2-2.4-0.7-3c-0.5-0.6-1.3-1-2.3-1c-0.9,0-1.6,0.3-2.2,1
		s-0.9,1.7-0.9,3.1v7.5h-1.9V5h1.9l0,1.6c0.4-0.5,0.9-1,1.4-1.3c0.6-0.3,1.3-0.5,2.1-0.5c0.7,0,1.3,0.1,1.9,0.3c0.6,0.2,1,0.5,1.4,1
		c0.4,0.4,0.7,1,0.9,1.6s0.3,1.5,0.3,2.4v7.8H850.6z"/>
</g>
<g id="XMLID_139_">
	<path id="XMLID_307_" class="st0" d="M8.4,47.1v-1.6c-0.5,0.5-1,0.9-1.6,1.3c-0.6,0.4-1.4,0.5-2.4,0.5c-0.5,0-1-0.1-1.5-0.2
		C2.4,47,2,46.8,1.6,46.5c-0.4-0.3-0.7-0.7-0.9-1.3c-0.2-0.5-0.4-1.2-0.4-2c0-0.7,0.1-1.3,0.4-1.9c0.3-0.5,0.6-0.9,1.1-1.3
		c0.4-0.3,1-0.6,1.6-0.7c0.6-0.2,1.2-0.2,1.8-0.2c0.7,0,1.3,0.1,1.8,0.2c0.6,0.1,1,0.3,1.4,0.5v-1.5c0-1.9-0.9-2.8-2.8-2.8
		c-0.7,0-1.3,0.1-1.9,0.3c-0.6,0.2-1.1,0.4-1.6,0.7L1.5,35c0.6-0.3,1.2-0.6,2-0.8C4.2,34.1,5,34,5.8,34c1.4,0,2.5,0.3,3.3,1
		s1.2,1.7,1.2,3.2v8.9H8.4z M8.4,41.3C8,41.1,7.5,40.9,7,40.8s-1.1-0.2-1.9-0.2c-0.9,0-1.7,0.2-2.2,0.6c-0.5,0.4-0.8,1.1-0.8,1.9
		c0,1,0.2,1.7,0.7,2.1c0.5,0.4,1.1,0.6,1.9,0.6c0.8,0,1.5-0.2,2.2-0.6s1.1-0.8,1.5-1.4V41.3z"/>
	<path id="XMLID_304_" class="st0" d="M22,47.1v-1.6c-0.5,0.5-1,0.9-1.6,1.3c-0.6,0.4-1.4,0.5-2.2,0.5c-0.6,0-1.2-0.1-1.8-0.4
		c-0.6-0.3-1-0.6-1.5-1.2c-0.4-0.5-0.7-1.2-1-2s-0.4-1.8-0.4-2.9c0-1.1,0.1-2.1,0.4-3c0.3-0.9,0.6-1.6,1-2.1c0.4-0.6,1-1,1.5-1.3
		c0.6-0.3,1.2-0.4,1.9-0.4c0.8,0,1.5,0.2,2.1,0.5c0.6,0.3,1.1,0.7,1.5,1.2v-5.4l1.9-1v17.8H22z M22,37.5c-0.4-0.5-0.8-1-1.4-1.4
		c-0.6-0.4-1.3-0.6-2-0.6c-1.1,0-1.9,0.4-2.4,1.3c-0.5,0.9-0.8,2.2-0.8,3.9c0,1.6,0.3,2.9,0.9,3.7c0.6,0.8,1.4,1.2,2.4,1.2
		c0.7,0,1.3-0.2,1.9-0.5c0.6-0.3,1.1-0.8,1.5-1.4V37.5z"/>
	<path id="XMLID_302_" class="st0" d="M33,47.1h-1.6l-4.6-12.8h2L32,44.3l0.2,0.6l0.2-0.6l3.3-10.1h1.9L33,47.1z"/>
	<path id="XMLID_299_" class="st0" d="M47.3,47.1v-1.6c-0.5,0.5-1,0.9-1.6,1.3c-0.6,0.4-1.4,0.5-2.4,0.5c-0.5,0-1-0.1-1.5-0.2
		c-0.5-0.1-0.9-0.4-1.3-0.7c-0.4-0.3-0.7-0.7-0.9-1.3c-0.2-0.5-0.4-1.2-0.4-2c0-0.7,0.1-1.3,0.4-1.9c0.3-0.5,0.6-0.9,1.1-1.3
		c0.4-0.3,1-0.6,1.6-0.7c0.6-0.2,1.2-0.2,1.8-0.2c0.7,0,1.3,0.1,1.8,0.2c0.6,0.1,1,0.3,1.4,0.5v-1.5c0-1.9-0.9-2.8-2.8-2.8
		c-0.7,0-1.3,0.1-1.9,0.3c-0.6,0.2-1.1,0.4-1.6,0.7L40.3,35c0.6-0.3,1.2-0.6,2-0.8c0.7-0.2,1.5-0.3,2.3-0.3c1.4,0,2.5,0.3,3.3,1
		s1.2,1.7,1.2,3.2v8.9H47.3z M47.3,41.3c-0.4-0.2-0.9-0.4-1.4-0.5s-1.1-0.2-1.9-0.2c-0.9,0-1.7,0.2-2.2,0.6
		c-0.5,0.4-0.8,1.1-0.8,1.9c0,1,0.2,1.7,0.7,2.1c0.5,0.4,1.1,0.6,1.9,0.6c0.8,0,1.5-0.2,2.2-0.6s1.1-0.8,1.5-1.4V41.3z"/>
	<path id="XMLID_297_" class="st0" d="M61.1,47.1v-7.5c0-1.4-0.2-2.4-0.7-3c-0.5-0.6-1.3-1-2.3-1c-0.9,0-1.6,0.3-2.2,1
		s-0.9,1.7-0.9,3.1v7.5h-1.9V34.3h1.9l0,1.6c0.4-0.5,0.9-1,1.4-1.3c0.6-0.3,1.3-0.5,2.1-0.5c0.7,0,1.3,0.1,1.9,0.3
		c0.6,0.2,1,0.5,1.4,1c0.4,0.4,0.7,1,0.9,1.6s0.3,1.5,0.3,2.4v7.8H61.1z"/>
	<path id="XMLID_295_" class="st0" d="M69.2,35.8v8.3c0,0.6,0.1,1,0.3,1.2c0.2,0.2,0.5,0.3,1,0.3c0.4,0,0.7,0,1-0.1
		c0.3-0.1,0.5-0.2,0.8-0.3l-0.1,1.6c-0.4,0.1-0.7,0.3-1.1,0.3c-0.4,0.1-0.8,0.1-1.3,0.1c-0.8,0-1.4-0.2-1.8-0.6s-0.6-1.2-0.6-2.3
		v-8.6h-1.6v-1.6h1.6v-4l1.9-1v5h3.2v1.6H69.2z"/>
	<path id="XMLID_292_" class="st0" d="M82.9,47.1v-1.6c-0.5,0.5-1,0.9-1.6,1.3c-0.6,0.4-1.4,0.5-2.4,0.5c-0.5,0-1-0.1-1.5-0.2
		c-0.5-0.1-0.9-0.4-1.3-0.7c-0.4-0.3-0.7-0.7-0.9-1.3c-0.2-0.5-0.4-1.2-0.4-2c0-0.7,0.1-1.3,0.4-1.9c0.3-0.5,0.6-0.9,1.1-1.3
		c0.4-0.3,1-0.6,1.6-0.7c0.6-0.2,1.2-0.2,1.8-0.2c0.7,0,1.3,0.1,1.8,0.2c0.6,0.1,1,0.3,1.4,0.5v-1.5c0-1.9-0.9-2.8-2.8-2.8
		c-0.7,0-1.3,0.1-1.9,0.3c-0.6,0.2-1.1,0.4-1.6,0.7L76,35c0.6-0.3,1.2-0.6,2-0.8c0.7-0.2,1.5-0.3,2.3-0.3c1.4,0,2.5,0.3,3.3,1
		s1.2,1.7,1.2,3.2v8.9H82.9z M82.9,41.3c-0.4-0.2-0.9-0.4-1.4-0.5s-1.1-0.2-1.9-0.2c-0.9,0-1.7,0.2-2.2,0.6
		c-0.5,0.4-0.8,1.1-0.8,1.9c0,1,0.2,1.7,0.7,2.1c0.5,0.4,1.1,0.6,1.9,0.6c0.8,0,1.5-0.2,2.2-0.6s1.1-0.8,1.5-1.4V41.3z"/>
	<path id="XMLID_289_" class="st0" d="M98.3,45.9c0,1-0.1,1.8-0.3,2.5s-0.6,1.3-1.1,1.8c-0.5,0.5-1.2,0.9-2,1.1
		c-0.8,0.3-1.8,0.4-3,0.4l-0.6-1.4c1.1,0,1.9-0.1,2.6-0.3c0.7-0.2,1.2-0.4,1.6-0.7c0.4-0.3,0.7-0.8,0.8-1.3c0.1-0.5,0.2-1.2,0.2-1.9
		v-0.7c-0.5,0.5-1,0.9-1.6,1.3c-0.6,0.4-1.4,0.5-2.2,0.5c-0.6,0-1.2-0.1-1.8-0.4c-0.6-0.3-1-0.6-1.5-1.2c-0.4-0.5-0.7-1.2-1-2
		S88,42,88,40.9c0-1.1,0.1-2.1,0.4-3c0.3-0.9,0.6-1.6,1-2.1c0.4-0.6,1-1,1.5-1.3c0.6-0.3,1.2-0.4,1.9-0.4c0.8,0,1.5,0.2,2.1,0.5
		c0.6,0.3,1.1,0.7,1.5,1.2v-1.4h1.9V45.9z M96.5,37.5c-0.4-0.5-0.8-1-1.4-1.4c-0.6-0.4-1.3-0.6-2-0.6c-1.1,0-1.9,0.4-2.4,1.3
		c-0.5,0.9-0.8,2.2-0.8,3.9c0,1.6,0.3,2.9,0.9,3.7c0.6,0.8,1.4,1.2,2.4,1.2c0.7,0,1.3-0.2,1.9-0.5c0.6-0.3,1.1-0.8,1.5-1.4V37.5z"/>
	<path id="XMLID_286_" class="st0" d="M112.1,40.3c0,0.2,0,0.4,0,0.6c0,0.1,0,0.3-0.1,0.4h-8.5c0.1,1.4,0.4,2.5,1,3.3
		c0.6,0.8,1.5,1.2,2.5,1.2c0.7,0,1.4-0.1,1.9-0.3c0.5-0.2,1.1-0.5,1.6-0.9l0.9,1.3c-0.4,0.2-0.8,0.5-1.1,0.6s-0.7,0.3-1,0.5
		c-0.4,0.1-0.7,0.2-1.1,0.3c-0.4,0.1-0.8,0.1-1.3,0.1c-0.6,0-1.2-0.1-1.8-0.3c-0.6-0.2-1.2-0.6-1.7-1.1c-0.5-0.5-0.9-1.2-1.2-2.1
		c-0.3-0.9-0.5-1.9-0.5-3.2c0-1,0.1-1.9,0.4-2.8s0.6-1.5,1.1-2.1c0.5-0.6,1-1,1.7-1.3c0.6-0.3,1.3-0.5,2.1-0.5
		c0.8,0,1.6,0.2,2.2,0.5c0.6,0.3,1.2,0.7,1.6,1.3c0.4,0.6,0.8,1.2,1,2S112.1,39.4,112.1,40.3z M110.4,39.8c-0.1-1.3-0.4-2.3-0.9-3.1
		c-0.6-0.8-1.4-1.2-2.5-1.2c-1,0-1.7,0.3-2.3,1c-0.6,0.7-1,1.8-1.1,3.2H110.4z"/>
	<path id="XMLID_283_" class="st0" d="M124.2,30.7c0,0.4-0.1,0.7-0.4,0.9c-0.3,0.3-0.5,0.4-0.9,0.4c-0.4,0-0.7-0.1-1-0.4
		c-0.3-0.3-0.4-0.6-0.4-0.9c0-0.4,0.1-0.7,0.4-0.9c0.3-0.3,0.6-0.4,1-0.4c0.3,0,0.6,0.1,0.9,0.4C124.1,30,124.2,30.3,124.2,30.7z
		 M122,47.1V34.3h1.9v12.8H122z"/>
	<path id="XMLID_281_" class="st0" d="M136,47.1v-7.5c0-1.4-0.2-2.4-0.7-3c-0.5-0.6-1.3-1-2.3-1c-0.9,0-1.6,0.3-2.2,1
		s-0.9,1.7-0.9,3.1v7.5H128V34.3h1.9l0,1.6c0.4-0.5,0.9-1,1.4-1.3c0.6-0.3,1.3-0.5,2.1-0.5c0.7,0,1.3,0.1,1.9,0.3
		c0.6,0.2,1,0.5,1.4,1c0.4,0.4,0.7,1,0.9,1.6s0.3,1.5,0.3,2.4v7.8H136z"/>
	<path id="XMLID_279_" class="st0" d="M150.5,35.8v8.3c0,0.6,0.1,1,0.3,1.2c0.2,0.2,0.5,0.3,1,0.3c0.4,0,0.7,0,1-0.1
		c0.3-0.1,0.5-0.2,0.8-0.3l-0.1,1.6c-0.4,0.1-0.7,0.3-1.1,0.3c-0.4,0.1-0.8,0.1-1.3,0.1c-0.8,0-1.4-0.2-1.8-0.6s-0.6-1.2-0.6-2.3
		v-8.6h-1.6v-1.6h1.6v-4l1.9-1v5h3.2v1.6H150.5z"/>
	<path id="XMLID_276_" class="st0" d="M166.5,40.3c0,0.2,0,0.4,0,0.6c0,0.1,0,0.3-0.1,0.4h-8.5c0.1,1.4,0.4,2.5,1,3.3
		c0.6,0.8,1.5,1.2,2.5,1.2c0.7,0,1.4-0.1,1.9-0.3c0.5-0.2,1.1-0.5,1.6-0.9l0.9,1.3c-0.4,0.2-0.8,0.5-1.1,0.6s-0.7,0.3-1,0.5
		c-0.4,0.1-0.7,0.2-1.1,0.3c-0.4,0.1-0.8,0.1-1.3,0.1c-0.6,0-1.2-0.1-1.8-0.3c-0.6-0.2-1.2-0.6-1.7-1.1c-0.5-0.5-0.9-1.2-1.2-2.1
		c-0.3-0.9-0.5-1.9-0.5-3.2c0-1,0.1-1.9,0.4-2.8s0.6-1.5,1.1-2.1c0.5-0.6,1-1,1.7-1.3c0.6-0.3,1.3-0.5,2.1-0.5
		c0.8,0,1.6,0.2,2.2,0.5c0.6,0.3,1.2,0.7,1.6,1.3c0.4,0.6,0.8,1.2,1,2S166.5,39.4,166.5,40.3z M164.8,39.8c-0.1-1.3-0.4-2.3-0.9-3.1
		c-0.6-0.8-1.4-1.2-2.5-1.2c-1,0-1.7,0.3-2.3,1c-0.6,0.7-1,1.8-1.1,3.2H164.8z"/>
	<path id="XMLID_274_" class="st0" d="M176.5,36.2c-0.3-0.1-0.5-0.3-0.8-0.4c-0.3-0.1-0.7-0.1-1.1-0.1c-0.9,0-1.6,0.3-2.1,1
		c-0.5,0.7-0.7,1.6-0.7,2.9v7.5h-1.9V34.3h1.9v1.6c0.3-0.5,0.7-1,1.3-1.3c0.6-0.4,1.2-0.5,1.9-0.5c0.5,0,0.9,0,1.2,0.1
		c0.3,0.1,0.6,0.1,0.8,0.2L176.5,36.2z"/>
	<path id="XMLID_272_" class="st0" d="M194.8,47.1v-7.5c0-1.5-0.2-2.5-0.7-3.1c-0.5-0.6-1.1-0.9-2.1-0.9c-0.9,0-1.5,0.3-2.1,0.9
		c-0.5,0.6-0.8,1.7-0.8,3.1v7.5h-1.9v-7.5c0-1.5-0.2-2.5-0.7-3.1c-0.5-0.6-1.2-0.9-2-0.9c-0.9,0-1.6,0.3-2.1,0.9s-0.8,1.7-0.8,3.1
		v7.5h-1.9V34.3h1.9l0,1.6c0.3-0.6,0.8-1,1.3-1.3c0.5-0.3,1.2-0.5,2-0.5c0.9,0,1.6,0.2,2.2,0.6c0.6,0.4,1,0.9,1.3,1.6
		c0.2-0.3,0.4-0.6,0.6-0.9c0.2-0.3,0.5-0.5,0.8-0.7c0.3-0.2,0.7-0.4,1.1-0.5c0.4-0.1,0.9-0.2,1.4-0.2c1.3,0,2.3,0.4,3.1,1.2
		s1.2,2.2,1.2,4v7.8H194.8z"/>
	<path id="XMLID_270_" class="st0" d="M208.5,43.7c0,0.6-0.1,1.2-0.4,1.6c-0.3,0.5-0.6,0.8-1,1.1s-0.9,0.5-1.4,0.6
		c-0.5,0.1-1.1,0.2-1.6,0.2c-0.9,0-1.7-0.2-2.5-0.5c-0.8-0.3-1.4-0.7-2.1-1.2l1.1-1.3c0.5,0.5,1.1,0.8,1.7,1
		c0.6,0.2,1.2,0.4,1.8,0.4c0.9,0,1.5-0.2,2-0.5c0.4-0.3,0.6-0.8,0.6-1.5c0-0.3-0.1-0.5-0.2-0.7c-0.1-0.2-0.3-0.4-0.5-0.6
		c-0.2-0.2-0.5-0.4-0.9-0.6s-0.9-0.4-1.4-0.7c-0.6-0.3-1.2-0.5-1.6-0.8c-0.5-0.3-0.8-0.5-1.1-0.8s-0.5-0.6-0.6-1s-0.2-0.8-0.2-1.3
		c0-0.5,0.1-0.9,0.3-1.3c0.2-0.4,0.5-0.7,0.8-1c0.3-0.3,0.8-0.5,1.3-0.7c0.5-0.2,1-0.2,1.6-0.2c0.9,0,1.7,0.1,2.3,0.4
		c0.7,0.3,1.3,0.6,1.8,1l-1,1.3c-0.5-0.4-1-0.7-1.5-0.9c-0.5-0.2-1-0.3-1.7-0.3c-0.7,0-1.2,0.1-1.6,0.4c-0.4,0.3-0.5,0.7-0.5,1.1
		c0,0.3,0,0.5,0.1,0.7c0.1,0.2,0.2,0.4,0.5,0.6c0.2,0.2,0.5,0.4,0.9,0.6c0.4,0.2,0.8,0.4,1.4,0.6c0.6,0.3,1.1,0.5,1.6,0.8
		c0.5,0.2,0.9,0.5,1.2,0.8c0.3,0.3,0.6,0.7,0.8,1C208.4,42.7,208.5,43.2,208.5,43.7z"/>
	<path id="XMLID_267_" class="st0" d="M228.8,40.6c0,1.1-0.1,2.1-0.4,2.9s-0.7,1.5-1.2,2.1c-0.5,0.6-1.1,1-1.8,1.3
		c-0.7,0.3-1.4,0.4-2.2,0.4c-0.8,0-1.5-0.1-2.2-0.4c-0.7-0.3-1.3-0.7-1.7-1.3c-0.5-0.6-0.9-1.3-1.2-2.1c-0.3-0.8-0.4-1.8-0.4-2.9
		s0.1-2,0.4-2.9s0.7-1.5,1.2-2.1c0.5-0.6,1.1-1,1.8-1.3c0.7-0.3,1.4-0.4,2.2-0.4c0.8,0,1.5,0.1,2.2,0.4c0.7,0.3,1.3,0.7,1.7,1.2
		c0.5,0.6,0.9,1.2,1.2,2.1S228.8,39.5,228.8,40.6z M226.9,40.6c0-1.7-0.3-3-1-3.8c-0.7-0.8-1.6-1.3-2.7-1.3s-2,0.4-2.7,1.3
		c-0.7,0.8-1,2.1-1,3.8s0.3,3,1,3.8c0.7,0.9,1.6,1.3,2.7,1.3s2-0.4,2.7-1.3C226.6,43.6,226.9,42.3,226.9,40.6z"/>
	<path id="XMLID_265_" class="st0" d="M235.8,31c-0.4,0-0.7,0.1-0.9,0.3c-0.3,0.2-0.4,0.5-0.4,1.1v1.9h2.5v1.6h-2.5v11.3h-1.9V35.8
		h-1.8v-1.6h1.8v-1.8c0-1.1,0.3-1.9,0.9-2.4c0.6-0.5,1.3-0.7,2.2-0.7c0.4,0,0.7,0,0.9,0s0.5,0.1,0.7,0.2v1.7
		C236.9,31.1,236.4,31,235.8,31z"/>
	<path id="XMLID_263_" class="st0" d="M249.2,35.8v8.3c0,0.6,0.1,1,0.3,1.2c0.2,0.2,0.5,0.3,1,0.3c0.4,0,0.7,0,1-0.1
		c0.3-0.1,0.5-0.2,0.8-0.3l-0.1,1.6c-0.4,0.1-0.7,0.3-1.1,0.3c-0.4,0.1-0.8,0.1-1.3,0.1c-0.8,0-1.4-0.2-1.8-0.6s-0.6-1.2-0.6-2.3
		v-8.6h-1.6v-1.6h1.6v-4l1.9-1v5h3.2v1.6H249.2z"/>
	<path id="XMLID_260_" class="st0" d="M265.9,40.6c0,1.1-0.1,2.1-0.4,2.9s-0.7,1.5-1.2,2.1c-0.5,0.6-1.1,1-1.8,1.3
		c-0.7,0.3-1.4,0.4-2.2,0.4c-0.8,0-1.5-0.1-2.2-0.4c-0.7-0.3-1.3-0.7-1.7-1.3c-0.5-0.6-0.9-1.3-1.2-2.1c-0.3-0.8-0.4-1.8-0.4-2.9
		s0.1-2,0.4-2.9s0.7-1.5,1.2-2.1c0.5-0.6,1.1-1,1.8-1.3c0.7-0.3,1.4-0.4,2.2-0.4c0.8,0,1.5,0.1,2.2,0.4c0.7,0.3,1.3,0.7,1.7,1.2
		c0.5,0.6,0.9,1.2,1.2,2.1S265.9,39.5,265.9,40.6z M264,40.6c0-1.7-0.3-3-1-3.8c-0.7-0.8-1.6-1.3-2.7-1.3s-2,0.4-2.7,1.3
		c-0.7,0.8-1,2.1-1,3.8s0.3,3,1,3.8c0.7,0.9,1.6,1.3,2.7,1.3s2-0.4,2.7-1.3C263.7,43.6,264,42.3,264,40.6z"/>
	<path id="XMLID_258_" class="st0" d="M269.3,47.1V30.3l1.9-1v17.8H269.3z"/>
	<path id="XMLID_255_" class="st0" d="M285.1,40.3c0,0.2,0,0.4,0,0.6c0,0.1,0,0.3-0.1,0.4h-8.5c0.1,1.4,0.4,2.5,1,3.3
		c0.6,0.8,1.5,1.2,2.5,1.2c0.7,0,1.4-0.1,1.9-0.3c0.5-0.2,1.1-0.5,1.6-0.9l0.9,1.3c-0.4,0.2-0.8,0.5-1.1,0.6s-0.7,0.3-1,0.5
		c-0.4,0.1-0.7,0.2-1.1,0.3c-0.4,0.1-0.8,0.1-1.3,0.1c-0.6,0-1.2-0.1-1.8-0.3c-0.6-0.2-1.2-0.6-1.7-1.1c-0.5-0.5-0.9-1.2-1.2-2.1
		c-0.3-0.9-0.5-1.9-0.5-3.2c0-1,0.1-1.9,0.4-2.8s0.6-1.5,1.1-2.1c0.5-0.6,1-1,1.7-1.3c0.6-0.3,1.3-0.5,2.1-0.5
		c0.8,0,1.6,0.2,2.2,0.5c0.6,0.3,1.2,0.7,1.6,1.3c0.4,0.6,0.8,1.2,1,2S285.1,39.4,285.1,40.3z M283.4,39.8c-0.1-1.3-0.4-2.3-0.9-3.1
		c-0.6-0.8-1.4-1.2-2.5-1.2c-1,0-1.7,0.3-2.3,1c-0.6,0.7-1,1.8-1.1,3.2H283.4z"/>
	<path id="XMLID_253_" class="st0" d="M295.1,36.2c-0.3-0.1-0.5-0.3-0.8-0.4c-0.3-0.1-0.7-0.1-1.1-0.1c-0.9,0-1.6,0.3-2.1,1
		c-0.5,0.7-0.7,1.6-0.7,2.9v7.5h-1.9V34.3h1.9v1.6c0.3-0.5,0.7-1,1.3-1.3c0.6-0.4,1.2-0.5,1.9-0.5c0.5,0,0.9,0,1.2,0.1
		c0.3,0.1,0.6,0.1,0.8,0.2L295.1,36.2z"/>
	<path id="XMLID_250_" class="st0" d="M305,47.1v-1.6c-0.5,0.5-1,0.9-1.6,1.3c-0.6,0.4-1.4,0.5-2.4,0.5c-0.5,0-1-0.1-1.5-0.2
		c-0.5-0.1-0.9-0.4-1.3-0.7c-0.4-0.3-0.7-0.7-0.9-1.3c-0.2-0.5-0.4-1.2-0.4-2c0-0.7,0.1-1.3,0.4-1.9c0.3-0.5,0.6-0.9,1.1-1.3
		c0.4-0.3,1-0.6,1.6-0.7c0.6-0.2,1.2-0.2,1.8-0.2c0.7,0,1.3,0.1,1.8,0.2c0.6,0.1,1,0.3,1.4,0.5v-1.5c0-1.9-0.9-2.8-2.8-2.8
		c-0.7,0-1.3,0.1-1.9,0.3c-0.6,0.2-1.1,0.4-1.6,0.7L298,35c0.6-0.3,1.2-0.6,2-0.8c0.7-0.2,1.5-0.3,2.3-0.3c1.4,0,2.5,0.3,3.3,1
		s1.2,1.7,1.2,3.2v8.9H305z M305,41.3c-0.4-0.2-0.9-0.4-1.4-0.5s-1.1-0.2-1.9-0.2c-0.9,0-1.7,0.2-2.2,0.6c-0.5,0.4-0.8,1.1-0.8,1.9
		c0,1,0.2,1.7,0.7,2.1c0.5,0.4,1.1,0.6,1.9,0.6c0.8,0,1.5-0.2,2.2-0.6s1.1-0.8,1.5-1.4V41.3z"/>
	<path id="XMLID_247_" class="st0" d="M321,40.5c0,1.1-0.1,2.1-0.4,3c-0.3,0.9-0.6,1.6-1,2.1c-0.4,0.6-0.9,1-1.5,1.3
		s-1.2,0.4-1.9,0.4c-0.8,0-1.5-0.2-2.1-0.5s-1.1-0.7-1.5-1.2v1.4h-1.9V30.3l1.9-1l0,6.5c0.5-0.5,1-0.9,1.6-1.3s1.4-0.5,2.2-0.5
		c0.6,0,1.2,0.1,1.8,0.4c0.6,0.3,1,0.6,1.5,1.2c0.4,0.5,0.7,1.2,1,2S321,39.3,321,40.5z M319.2,40.5c0-1.6-0.3-2.9-0.9-3.7
		c-0.6-0.8-1.4-1.2-2.4-1.2c-0.7,0-1.3,0.2-1.9,0.5s-1.1,0.8-1.5,1.4v6.4c0.4,0.5,0.8,1,1.4,1.4s1.3,0.6,2,0.6
		c1.1,0,1.9-0.5,2.4-1.3C319,43.5,319.2,42.2,319.2,40.5z"/>
	<path id="XMLID_244_" class="st0" d="M326.8,30.7c0,0.4-0.1,0.7-0.4,0.9c-0.3,0.3-0.5,0.4-0.9,0.4c-0.4,0-0.7-0.1-1-0.4
		c-0.3-0.3-0.4-0.6-0.4-0.9c0-0.4,0.1-0.7,0.4-0.9c0.3-0.3,0.6-0.4,1-0.4c0.3,0,0.6,0.1,0.9,0.4C326.6,30,326.8,30.3,326.8,30.7z
		 M324.5,47.1V34.3h1.9v12.8H324.5z"/>
	<path id="XMLID_242_" class="st0" d="M330.7,47.1V30.3l1.9-1v17.8H330.7z"/>
	<path id="XMLID_239_" class="st0" d="M339,30.7c0,0.4-0.1,0.7-0.4,0.9c-0.3,0.3-0.5,0.4-0.9,0.4c-0.4,0-0.7-0.1-1-0.4
		c-0.3-0.3-0.4-0.6-0.4-0.9c0-0.4,0.1-0.7,0.4-0.9c0.3-0.3,0.6-0.4,1-0.4c0.3,0,0.6,0.1,0.9,0.4C338.9,30,339,30.3,339,30.7z
		 M336.8,47.1V34.3h1.9v12.8H336.8z"/>
	<path id="XMLID_237_" class="st0" d="M345.2,35.8v8.3c0,0.6,0.1,1,0.3,1.2c0.2,0.2,0.5,0.3,1,0.3c0.4,0,0.7,0,1-0.1
		c0.3-0.1,0.5-0.2,0.8-0.3l-0.1,1.6c-0.4,0.1-0.7,0.3-1.1,0.3c-0.4,0.1-0.8,0.1-1.3,0.1c-0.8,0-1.4-0.2-1.8-0.6s-0.6-1.2-0.6-2.3
		v-8.6h-1.6v-1.6h1.6v-4l1.9-1v5h3.2v1.6H345.2z"/>
	<path id="XMLID_235_" class="st0" d="M355,51.6h-1.8l1.8-4.7l-4.6-12.7h1.9l3.1,9.3l0.4,1.3l0.4-1.3l3.1-9.3h1.9L355,51.6z"/>
	<path id="XMLID_233_" class="st0" d="M364.8,45.8c0,0.4-0.2,0.8-0.5,1.1s-0.7,0.5-1.1,0.5s-0.8-0.2-1.1-0.5s-0.5-0.7-0.5-1.1
		s0.2-0.8,0.5-1.1c0.3-0.3,0.7-0.5,1.1-0.5s0.8,0.2,1.1,0.5C364.6,45,364.8,45.4,364.8,45.8z"/>
	<path id="XMLID_231_" class="st0" d="M374.8,47.1V30h1.9v17.1H374.8z"/>
	<path id="XMLID_229_" class="st0" d="M396,47.1v-7.5c0-1.5-0.2-2.5-0.7-3.1c-0.5-0.6-1.1-0.9-2.1-0.9c-0.9,0-1.5,0.3-2.1,0.9
		c-0.5,0.6-0.8,1.7-0.8,3.1v7.5h-1.9v-7.5c0-1.5-0.2-2.5-0.7-3.1c-0.5-0.6-1.2-0.9-2-0.9c-0.9,0-1.6,0.3-2.1,0.9s-0.8,1.7-0.8,3.1
		v7.5h-1.9V34.3h1.9l0,1.6c0.3-0.6,0.8-1,1.3-1.3c0.5-0.3,1.2-0.5,2-0.5c0.9,0,1.6,0.2,2.2,0.6c0.6,0.4,1,0.9,1.3,1.6
		c0.2-0.3,0.4-0.6,0.6-0.9c0.2-0.3,0.5-0.5,0.8-0.7c0.3-0.2,0.7-0.4,1.1-0.5c0.4-0.1,0.9-0.2,1.4-0.2c1.3,0,2.3,0.4,3.1,1.2
		s1.2,2.2,1.2,4v7.8H396z"/>
	<path id="XMLID_226_" class="st0" d="M412.1,40.5c0,1.1-0.1,2.1-0.4,3c-0.3,0.9-0.6,1.6-1,2.1c-0.4,0.6-0.9,1-1.5,1.3
		s-1.2,0.4-1.9,0.4c-0.8,0-1.5-0.2-2.1-0.5s-1.1-0.7-1.5-1.2v5.1l-1.9,1V34.3h1.9l0,1.6c0.5-0.5,1-0.9,1.6-1.3s1.4-0.5,2.2-0.5
		c0.6,0,1.2,0.1,1.8,0.4c0.6,0.3,1,0.6,1.5,1.2c0.4,0.5,0.7,1.2,1,2S412.1,39.3,412.1,40.5z M410.3,40.5c0-1.6-0.3-2.9-0.9-3.7
		c-0.6-0.8-1.4-1.2-2.4-1.2c-0.7,0-1.3,0.2-1.9,0.5s-1.1,0.8-1.5,1.4v6.4c0.4,0.5,0.8,1,1.4,1.4s1.3,0.6,2,0.6
		c1.1,0,1.9-0.5,2.4-1.3C410,43.5,410.3,42.2,410.3,40.5z"/>
	<path id="XMLID_224_" class="st0" d="M422,36.2c-0.3-0.1-0.5-0.3-0.8-0.4c-0.3-0.1-0.7-0.1-1.1-0.1c-0.9,0-1.6,0.3-2.1,1
		c-0.5,0.7-0.7,1.6-0.7,2.9v7.5h-1.9V34.3h1.9v1.6c0.3-0.5,0.7-1,1.3-1.3c0.6-0.4,1.2-0.5,1.9-0.5c0.5,0,0.9,0,1.2,0.1
		c0.3,0.1,0.6,0.1,0.8,0.2L422,36.2z"/>
	<path id="XMLID_221_" class="st0" d="M435.3,40.6c0,1.1-0.1,2.1-0.4,2.9s-0.7,1.5-1.2,2.1c-0.5,0.6-1.1,1-1.8,1.3
		c-0.7,0.3-1.4,0.4-2.2,0.4c-0.8,0-1.5-0.1-2.2-0.4c-0.7-0.3-1.3-0.7-1.7-1.3c-0.5-0.6-0.9-1.3-1.2-2.1c-0.3-0.8-0.4-1.8-0.4-2.9
		s0.1-2,0.4-2.9s0.7-1.5,1.2-2.1c0.5-0.6,1.1-1,1.8-1.3c0.7-0.3,1.4-0.4,2.2-0.4c0.8,0,1.5,0.1,2.2,0.4c0.7,0.3,1.3,0.7,1.7,1.2
		c0.5,0.6,0.9,1.2,1.2,2.1S435.3,39.5,435.3,40.6z M433.4,40.6c0-1.7-0.3-3-1-3.8c-0.7-0.8-1.6-1.3-2.7-1.3s-2,0.4-2.7,1.3
		c-0.7,0.8-1,2.1-1,3.8s0.3,3,1,3.8c0.7,0.9,1.6,1.3,2.7,1.3s2-0.4,2.7-1.3C433.1,43.6,433.4,42.3,433.4,40.6z"/>
	<path id="XMLID_219_" class="st0" d="M443.3,47.1h-1.6l-4.6-12.8h2l3.3,10.1l0.2,0.6l0.2-0.6l3.3-10.1h1.9L443.3,47.1z"/>
	<path id="XMLID_216_" class="st0" d="M460.2,40.3c0,0.2,0,0.4,0,0.6c0,0.1,0,0.3-0.1,0.4h-8.5c0.1,1.4,0.4,2.5,1,3.3
		c0.6,0.8,1.5,1.2,2.5,1.2c0.7,0,1.4-0.1,1.9-0.3c0.5-0.2,1.1-0.5,1.6-0.9l0.9,1.3c-0.4,0.2-0.8,0.5-1.1,0.6s-0.7,0.3-1,0.5
		c-0.4,0.1-0.7,0.2-1.1,0.3c-0.4,0.1-0.8,0.1-1.3,0.1c-0.6,0-1.2-0.1-1.8-0.3c-0.6-0.2-1.2-0.6-1.7-1.1c-0.5-0.5-0.9-1.2-1.2-2.1
		c-0.3-0.9-0.5-1.9-0.5-3.2c0-1,0.1-1.9,0.4-2.8s0.6-1.5,1.1-2.1c0.5-0.6,1-1,1.7-1.3c0.6-0.3,1.3-0.5,2.1-0.5
		c0.8,0,1.6,0.2,2.2,0.5c0.6,0.3,1.2,0.7,1.6,1.3c0.4,0.6,0.8,1.2,1,2S460.2,39.4,460.2,40.3z M458.5,39.8c-0.1-1.3-0.4-2.3-0.9-3.1
		c-0.6-0.8-1.4-1.2-2.5-1.2c-1,0-1.7,0.3-2.3,1c-0.6,0.7-1,1.8-1.1,3.2H458.5z"/>
	<path id="XMLID_213_" class="st0" d="M471.4,47.1v-1.6c-0.5,0.5-1,0.9-1.6,1.3c-0.6,0.4-1.4,0.5-2.2,0.5c-0.6,0-1.2-0.1-1.8-0.4
		c-0.6-0.3-1-0.6-1.5-1.2c-0.4-0.5-0.7-1.2-1-2S463,42,463,40.9c0-1.1,0.1-2.1,0.4-3c0.3-0.9,0.6-1.6,1-2.1c0.4-0.6,1-1,1.5-1.3
		c0.6-0.3,1.2-0.4,1.9-0.4c0.8,0,1.5,0.2,2.1,0.5c0.6,0.3,1.1,0.7,1.5,1.2v-5.4l1.9-1v17.8H471.4z M471.4,37.5
		c-0.4-0.5-0.8-1-1.4-1.4c-0.6-0.4-1.3-0.6-2-0.6c-1.1,0-1.9,0.4-2.4,1.3c-0.5,0.9-0.8,2.2-0.8,3.9c0,1.6,0.3,2.9,0.9,3.7
		c0.6,0.8,1.4,1.2,2.4,1.2c0.7,0,1.3-0.2,1.9-0.5c0.6-0.3,1.1-0.8,1.5-1.4V37.5z"/>
	<path id="XMLID_210_" class="st0" d="M491,47.1v-1.6c-0.5,0.5-1,0.9-1.6,1.3c-0.6,0.4-1.4,0.5-2.4,0.5c-0.5,0-1-0.1-1.5-0.2
		c-0.5-0.1-0.9-0.4-1.3-0.7c-0.4-0.3-0.7-0.7-0.9-1.3c-0.2-0.5-0.4-1.2-0.4-2c0-0.7,0.1-1.3,0.4-1.9c0.3-0.5,0.6-0.9,1.1-1.3
		c0.4-0.3,1-0.6,1.6-0.7c0.6-0.2,1.2-0.2,1.8-0.2c0.7,0,1.3,0.1,1.8,0.2c0.6,0.1,1,0.3,1.4,0.5v-1.5c0-1.9-0.9-2.8-2.8-2.8
		c-0.7,0-1.3,0.1-1.9,0.3c-0.6,0.2-1.1,0.4-1.6,0.7l-0.7-1.5c0.6-0.3,1.2-0.6,2-0.8c0.7-0.2,1.5-0.3,2.3-0.3c1.4,0,2.5,0.3,3.3,1
		s1.2,1.7,1.2,3.2v8.9H491z M491,41.3c-0.4-0.2-0.9-0.4-1.4-0.5s-1.1-0.2-1.9-0.2c-0.9,0-1.7,0.2-2.2,0.6c-0.5,0.4-0.8,1.1-0.8,1.9
		c0,1,0.2,1.7,0.7,2.1c0.5,0.4,1.1,0.6,1.9,0.6c0.8,0,1.5-0.2,2.2-0.6s1.1-0.8,1.5-1.4V41.3z"/>
	<path id="XMLID_207_" class="st0" d="M504.6,47.1v-1.6c-0.5,0.5-1,0.9-1.6,1.3c-0.6,0.4-1.4,0.5-2.2,0.5c-0.6,0-1.2-0.1-1.8-0.4
		c-0.6-0.3-1-0.6-1.5-1.2c-0.4-0.5-0.7-1.2-1-2s-0.4-1.8-0.4-2.9c0-1.1,0.1-2.1,0.4-3c0.3-0.9,0.6-1.6,1-2.1c0.4-0.6,1-1,1.5-1.3
		c0.6-0.3,1.2-0.4,1.9-0.4c0.8,0,1.5,0.2,2.1,0.5c0.6,0.3,1.1,0.7,1.5,1.2v-5.4l1.9-1v17.8H504.6z M504.6,37.5
		c-0.4-0.5-0.8-1-1.4-1.4c-0.6-0.4-1.3-0.6-2-0.6c-1.1,0-1.9,0.4-2.4,1.3c-0.5,0.9-0.8,2.2-0.8,3.9c0,1.6,0.3,2.9,0.9,3.7
		c0.6,0.8,1.4,1.2,2.4,1.2c0.7,0,1.3-0.2,1.9-0.5c0.6-0.3,1.1-0.8,1.5-1.4V37.5z"/>
	<path id="XMLID_205_" class="st0" d="M515.6,47.1H514l-4.6-12.8h2l3.3,10.1l0.2,0.6l0.2-0.6l3.3-10.1h1.9L515.6,47.1z"/>
	<path id="XMLID_202_" class="st0" d="M532.5,40.3c0,0.2,0,0.4,0,0.6c0,0.1,0,0.3-0.1,0.4h-8.5c0.1,1.4,0.4,2.5,1,3.3
		c0.6,0.8,1.5,1.2,2.5,1.2c0.7,0,1.4-0.1,1.9-0.3c0.5-0.2,1.1-0.5,1.6-0.9l0.9,1.3c-0.4,0.2-0.8,0.5-1.1,0.6s-0.7,0.3-1,0.5
		c-0.4,0.1-0.7,0.2-1.1,0.3c-0.4,0.1-0.8,0.1-1.3,0.1c-0.6,0-1.2-0.1-1.8-0.3c-0.6-0.2-1.2-0.6-1.7-1.1c-0.5-0.5-0.9-1.2-1.2-2.1
		c-0.3-0.9-0.5-1.9-0.5-3.2c0-1,0.1-1.9,0.4-2.8s0.6-1.5,1.1-2.1c0.5-0.6,1-1,1.7-1.3c0.6-0.3,1.3-0.5,2.1-0.5
		c0.8,0,1.6,0.2,2.2,0.5c0.6,0.3,1.2,0.7,1.6,1.3c0.4,0.6,0.8,1.2,1,2S532.5,39.4,532.5,40.3z M530.8,39.8c-0.1-1.3-0.4-2.3-0.9-3.1
		c-0.6-0.8-1.4-1.2-2.5-1.2c-1,0-1.7,0.3-2.3,1c-0.6,0.7-1,1.8-1.1,3.2H530.8z"/>
	<path id="XMLID_200_" class="st0" d="M542.5,36.2c-0.3-0.1-0.5-0.3-0.8-0.4c-0.3-0.1-0.7-0.1-1.1-0.1c-0.9,0-1.6,0.3-2.1,1
		c-0.5,0.7-0.7,1.6-0.7,2.9v7.5h-1.9V34.3h1.9v1.6c0.3-0.5,0.7-1,1.3-1.3c0.6-0.4,1.2-0.5,1.9-0.5c0.5,0,0.9,0,1.2,0.1
		c0.3,0.1,0.6,0.1,0.8,0.2L542.5,36.2z"/>
	<path id="XMLID_198_" class="st0" d="M553.3,43.7c0,0.6-0.1,1.2-0.4,1.6c-0.3,0.5-0.6,0.8-1,1.1s-0.9,0.5-1.4,0.6
		c-0.5,0.1-1.1,0.2-1.6,0.2c-0.9,0-1.7-0.2-2.5-0.5c-0.8-0.3-1.4-0.7-2.1-1.2l1.1-1.3c0.5,0.5,1.1,0.8,1.7,1
		c0.6,0.2,1.2,0.4,1.8,0.4c0.9,0,1.5-0.2,2-0.5c0.4-0.3,0.6-0.8,0.6-1.5c0-0.3-0.1-0.5-0.2-0.7c-0.1-0.2-0.3-0.4-0.5-0.6
		c-0.2-0.2-0.5-0.4-0.9-0.6s-0.9-0.4-1.4-0.7c-0.6-0.3-1.2-0.5-1.6-0.8c-0.5-0.3-0.8-0.5-1.1-0.8s-0.5-0.6-0.6-1s-0.2-0.8-0.2-1.3
		c0-0.5,0.1-0.9,0.3-1.3c0.2-0.4,0.5-0.7,0.8-1c0.3-0.3,0.8-0.5,1.3-0.7c0.5-0.2,1-0.2,1.6-0.2c0.9,0,1.7,0.1,2.3,0.4
		c0.7,0.3,1.3,0.6,1.8,1l-1,1.3c-0.5-0.4-1-0.7-1.5-0.9c-0.5-0.2-1-0.3-1.7-0.3c-0.7,0-1.2,0.1-1.6,0.4c-0.4,0.3-0.5,0.7-0.5,1.1
		c0,0.3,0,0.5,0.1,0.7c0.1,0.2,0.2,0.4,0.5,0.6c0.2,0.2,0.5,0.4,0.9,0.6c0.4,0.2,0.8,0.4,1.4,0.6c0.6,0.3,1.1,0.5,1.6,0.8
		c0.5,0.2,0.9,0.5,1.2,0.8c0.3,0.3,0.6,0.7,0.8,1C553.2,42.7,553.3,43.2,553.3,43.7z"/>
	<path id="XMLID_195_" class="st0" d="M566.2,40.3c0,0.2,0,0.4,0,0.6c0,0.1,0,0.3-0.1,0.4h-8.5c0.1,1.4,0.4,2.5,1,3.3
		c0.6,0.8,1.5,1.2,2.5,1.2c0.7,0,1.4-0.1,1.9-0.3c0.5-0.2,1.1-0.5,1.6-0.9l0.9,1.3c-0.4,0.2-0.8,0.5-1.1,0.6s-0.7,0.3-1,0.5
		c-0.4,0.1-0.7,0.2-1.1,0.3c-0.4,0.1-0.8,0.1-1.3,0.1c-0.6,0-1.2-0.1-1.8-0.3c-0.6-0.2-1.2-0.6-1.7-1.1c-0.5-0.5-0.9-1.2-1.2-2.1
		c-0.3-0.9-0.5-1.9-0.5-3.2c0-1,0.1-1.9,0.4-2.8s0.6-1.5,1.1-2.1c0.5-0.6,1-1,1.7-1.3c0.6-0.3,1.3-0.5,2.1-0.5
		c0.8,0,1.6,0.2,2.2,0.5c0.6,0.3,1.2,0.7,1.6,1.3c0.4,0.6,0.8,1.2,1,2S566.2,39.4,566.2,40.3z M564.6,39.8c-0.1-1.3-0.4-2.3-0.9-3.1
		c-0.6-0.8-1.4-1.2-2.5-1.2c-1,0-1.7,0.3-2.3,1c-0.6,0.7-1,1.8-1.1,3.2H564.6z"/>
	<path id="XMLID_192_" class="st0" d="M585.8,40.3c0,0.2,0,0.4,0,0.6c0,0.1,0,0.3-0.1,0.4h-8.5c0.1,1.4,0.4,2.5,1,3.3
		c0.6,0.8,1.5,1.2,2.5,1.2c0.7,0,1.4-0.1,1.9-0.3c0.5-0.2,1.1-0.5,1.6-0.9l0.9,1.3c-0.4,0.2-0.8,0.5-1.1,0.6s-0.7,0.3-1,0.5
		c-0.4,0.1-0.7,0.2-1.1,0.3c-0.4,0.1-0.8,0.1-1.3,0.1c-0.6,0-1.2-0.1-1.8-0.3c-0.6-0.2-1.2-0.6-1.7-1.1c-0.5-0.5-0.9-1.2-1.2-2.1
		c-0.3-0.9-0.5-1.9-0.5-3.2c0-1,0.1-1.9,0.4-2.8s0.6-1.5,1.1-2.1c0.5-0.6,1-1,1.7-1.3c0.6-0.3,1.3-0.5,2.1-0.5
		c0.8,0,1.6,0.2,2.2,0.5c0.6,0.3,1.2,0.7,1.6,1.3c0.4,0.6,0.8,1.2,1,2S585.8,39.4,585.8,40.3z M584.1,39.8c-0.1-1.3-0.4-2.3-0.9-3.1
		c-0.6-0.8-1.4-1.2-2.5-1.2c-1,0-1.7,0.3-2.3,1c-0.6,0.7-1,1.8-1.1,3.2H584.1z"/>
	<path id="XMLID_190_" class="st0" d="M593.9,47.1h-1.6l-4.6-12.8h2l3.3,10.1l0.2,0.6l0.2-0.6l3.3-10.1h1.9L593.9,47.1z"/>
	<path id="XMLID_187_" class="st0" d="M610.8,40.3c0,0.2,0,0.4,0,0.6c0,0.1,0,0.3-0.1,0.4h-8.5c0.1,1.4,0.4,2.5,1,3.3
		c0.6,0.8,1.5,1.2,2.5,1.2c0.7,0,1.4-0.1,1.9-0.3c0.5-0.2,1.1-0.5,1.6-0.9l0.9,1.3c-0.4,0.2-0.8,0.5-1.1,0.6s-0.7,0.3-1,0.5
		c-0.4,0.1-0.7,0.2-1.1,0.3c-0.4,0.1-0.8,0.1-1.3,0.1c-0.6,0-1.2-0.1-1.8-0.3c-0.6-0.2-1.2-0.6-1.7-1.1c-0.5-0.5-0.9-1.2-1.2-2.1
		c-0.3-0.9-0.5-1.9-0.5-3.2c0-1,0.1-1.9,0.4-2.8s0.6-1.5,1.1-2.1c0.5-0.6,1-1,1.7-1.3c0.6-0.3,1.3-0.5,2.1-0.5
		c0.8,0,1.6,0.2,2.2,0.5c0.6,0.3,1.2,0.7,1.6,1.3c0.4,0.6,0.8,1.2,1,2S610.8,39.4,610.8,40.3z M609.1,39.8c-0.1-1.3-0.4-2.3-0.9-3.1
		c-0.6-0.8-1.4-1.2-2.5-1.2c-1,0-1.7,0.3-2.3,1c-0.6,0.7-1,1.8-1.1,3.2H609.1z"/>
	<path id="XMLID_185_" class="st0" d="M622.3,47.1v-7.5c0-1.4-0.2-2.4-0.7-3c-0.5-0.6-1.3-1-2.3-1c-0.9,0-1.6,0.3-2.2,1
		s-0.9,1.7-0.9,3.1v7.5h-1.9V34.3h1.9l0,1.6c0.4-0.5,0.9-1,1.4-1.3c0.6-0.3,1.3-0.5,2.1-0.5c0.7,0,1.3,0.1,1.9,0.3
		c0.6,0.2,1,0.5,1.4,1c0.4,0.4,0.7,1,0.9,1.6s0.3,1.5,0.3,2.4v7.8H622.3z"/>
	<path id="XMLID_183_" class="st0" d="M630.3,35.8v8.3c0,0.6,0.1,1,0.3,1.2c0.2,0.2,0.5,0.3,1,0.3c0.4,0,0.7,0,1-0.1
		c0.3-0.1,0.5-0.2,0.8-0.3l-0.1,1.6c-0.4,0.1-0.7,0.3-1.1,0.3c-0.4,0.1-0.8,0.1-1.3,0.1c-0.8,0-1.4-0.2-1.8-0.6s-0.6-1.2-0.6-2.3
		v-8.6h-1.6v-1.6h1.6v-4l1.9-1v5h3.2v1.6H630.3z"/>
	<path id="XMLID_181_" class="st0" d="M644.8,43.7c0,0.6-0.1,1.2-0.4,1.6c-0.3,0.5-0.6,0.8-1,1.1s-0.9,0.5-1.4,0.6
		c-0.5,0.1-1.1,0.2-1.6,0.2c-0.9,0-1.7-0.2-2.5-0.5c-0.8-0.3-1.4-0.7-2.1-1.2l1.1-1.3c0.5,0.5,1.1,0.8,1.7,1
		c0.6,0.2,1.2,0.4,1.8,0.4c0.9,0,1.5-0.2,2-0.5c0.4-0.3,0.6-0.8,0.6-1.5c0-0.3-0.1-0.5-0.2-0.7c-0.1-0.2-0.3-0.4-0.5-0.6
		c-0.2-0.2-0.5-0.4-0.9-0.6s-0.9-0.4-1.4-0.7c-0.6-0.3-1.2-0.5-1.6-0.8c-0.5-0.3-0.8-0.5-1.1-0.8s-0.5-0.6-0.6-1s-0.2-0.8-0.2-1.3
		c0-0.5,0.1-0.9,0.3-1.3c0.2-0.4,0.5-0.7,0.8-1c0.3-0.3,0.8-0.5,1.3-0.7c0.5-0.2,1-0.2,1.6-0.2c0.9,0,1.7,0.1,2.3,0.4
		c0.7,0.3,1.3,0.6,1.8,1l-1,1.3c-0.5-0.4-1-0.7-1.5-0.9c-0.5-0.2-1-0.3-1.7-0.3c-0.7,0-1.2,0.1-1.6,0.4c-0.4,0.3-0.5,0.7-0.5,1.1
		c0,0.3,0,0.5,0.1,0.7c0.1,0.2,0.2,0.4,0.5,0.6c0.2,0.2,0.5,0.4,0.9,0.6c0.4,0.2,0.8,0.4,1.4,0.6c0.6,0.3,1.1,0.5,1.6,0.8
		c0.5,0.2,0.9,0.5,1.2,0.8c0.3,0.3,0.6,0.7,0.8,1C644.7,42.7,644.8,43.2,644.8,43.7z"/>
	<path id="XMLID_178_" class="st0" d="M664.9,40.5c0,1.1-0.1,2.1-0.4,3c-0.3,0.9-0.6,1.6-1,2.1c-0.4,0.6-0.9,1-1.5,1.3
		s-1.2,0.4-1.9,0.4c-0.8,0-1.5-0.2-2.1-0.5s-1.1-0.7-1.5-1.2v5.1l-1.9,1V34.3h1.9l0,1.6c0.5-0.5,1-0.9,1.6-1.3s1.4-0.5,2.2-0.5
		c0.6,0,1.2,0.1,1.8,0.4c0.6,0.3,1,0.6,1.5,1.2c0.4,0.5,0.7,1.2,1,2S664.9,39.3,664.9,40.5z M663.1,40.5c0-1.6-0.3-2.9-0.9-3.7
		c-0.6-0.8-1.4-1.2-2.4-1.2c-0.7,0-1.3,0.2-1.9,0.5s-1.1,0.8-1.5,1.4v6.4c0.4,0.5,0.8,1,1.4,1.4s1.3,0.6,2,0.6
		c1.1,0,1.9-0.5,2.4-1.3C662.8,43.5,663.1,42.2,663.1,40.5z"/>
	<path id="XMLID_176_" class="st0" d="M674.8,36.2c-0.3-0.1-0.5-0.3-0.8-0.4c-0.3-0.1-0.7-0.1-1.1-0.1c-0.9,0-1.6,0.3-2.1,1
		c-0.5,0.7-0.7,1.6-0.7,2.9v7.5h-1.9V34.3h1.9v1.6c0.3-0.5,0.7-1,1.3-1.3c0.6-0.4,1.2-0.5,1.9-0.5c0.5,0,0.9,0,1.2,0.1
		c0.3,0.1,0.6,0.1,0.8,0.2L674.8,36.2z"/>
	<path id="XMLID_173_" class="st0" d="M688.1,40.6c0,1.1-0.1,2.1-0.4,2.9s-0.7,1.5-1.2,2.1c-0.5,0.6-1.1,1-1.8,1.3
		c-0.7,0.3-1.4,0.4-2.2,0.4c-0.8,0-1.5-0.1-2.2-0.4c-0.7-0.3-1.3-0.7-1.7-1.3c-0.5-0.6-0.9-1.3-1.2-2.1c-0.3-0.8-0.4-1.8-0.4-2.9
		s0.1-2,0.4-2.9s0.7-1.5,1.2-2.1c0.5-0.6,1.1-1,1.8-1.3c0.7-0.3,1.4-0.4,2.2-0.4c0.8,0,1.5,0.1,2.2,0.4c0.7,0.3,1.3,0.7,1.7,1.2
		c0.5,0.6,0.9,1.2,1.2,2.1S688.1,39.5,688.1,40.6z M686.2,40.6c0-1.7-0.3-3-1-3.8c-0.7-0.8-1.6-1.3-2.7-1.3s-2,0.4-2.7,1.3
		c-0.7,0.8-1,2.1-1,3.8s0.3,3,1,3.8c0.7,0.9,1.6,1.3,2.7,1.3s2-0.4,2.7-1.3C685.9,43.6,686.2,42.3,686.2,40.6z"/>
	<path id="XMLID_169_" class="st0" d="M696.6,31.3c-0.4-0.2-0.9-0.3-1.5-0.3c-0.4,0-0.7,0.1-0.9,0.3c-0.3,0.2-0.4,0.5-0.4,1.1v1.9
		h2.5v1.6h-2.5v11.3h-1.9V35.8h-1.8v-1.6h1.8v-1.8c0-1.1,0.3-1.9,0.8-2.4c0.6-0.5,1.3-0.7,2.2-0.7c0.4,0,0.7,0,0.9,0
		s0.5,0.1,0.7,0.2V31.3z M701.9,30.7c0,0.4-0.1,0.7-0.4,0.9c-0.3,0.3-0.5,0.4-0.9,0.4c-0.4,0-0.7-0.1-1-0.4
		c-0.3-0.3-0.4-0.6-0.4-0.9c0-0.4,0.1-0.7,0.4-0.9c0.3-0.3,0.6-0.4,1-0.4c0.3,0,0.6,0.1,0.9,0.4C701.7,30,701.9,30.3,701.9,30.7z
		 M699.6,47.1V34.3h1.9v12.8H699.6z"/>
	<path id="XMLID_167_" class="st0" d="M705.8,47.1V30.3l1.9-1v17.8H705.8z"/>
	<path id="XMLID_164_" class="st0" d="M721.5,40.3c0,0.2,0,0.4,0,0.6c0,0.1,0,0.3-0.1,0.4h-8.5c0.1,1.4,0.4,2.5,1,3.3
		c0.6,0.8,1.5,1.2,2.5,1.2c0.7,0,1.4-0.1,1.9-0.3c0.5-0.2,1.1-0.5,1.6-0.9l0.9,1.3c-0.4,0.2-0.8,0.5-1.1,0.6s-0.7,0.3-1,0.5
		c-0.4,0.1-0.7,0.2-1.1,0.3c-0.4,0.1-0.8,0.1-1.3,0.1c-0.6,0-1.2-0.1-1.8-0.3c-0.6-0.2-1.2-0.6-1.7-1.1c-0.5-0.5-0.9-1.2-1.2-2.1
		c-0.3-0.9-0.5-1.9-0.5-3.2c0-1,0.1-1.9,0.4-2.8s0.6-1.5,1.1-2.1c0.5-0.6,1-1,1.7-1.3c0.6-0.3,1.3-0.5,2.1-0.5
		c0.8,0,1.6,0.2,2.2,0.5c0.6,0.3,1.2,0.7,1.6,1.3c0.4,0.6,0.8,1.2,1,2S721.5,39.4,721.5,40.3z M719.8,39.8c-0.1-1.3-0.4-2.3-0.9-3.1
		c-0.6-0.8-1.4-1.2-2.5-1.2c-1,0-1.7,0.3-2.3,1c-0.6,0.7-1,1.8-1.1,3.2H719.8z"/>
	<path id="XMLID_162_" class="st0" d="M732.6,43.7c0,0.6-0.1,1.2-0.4,1.6c-0.3,0.5-0.6,0.8-1,1.1s-0.9,0.5-1.4,0.6
		c-0.5,0.1-1.1,0.2-1.6,0.2c-0.9,0-1.7-0.2-2.5-0.5c-0.8-0.3-1.4-0.7-2.1-1.2l1.1-1.3c0.5,0.5,1.1,0.8,1.7,1
		c0.6,0.2,1.2,0.4,1.8,0.4c0.9,0,1.5-0.2,2-0.5c0.4-0.3,0.6-0.8,0.6-1.5c0-0.3-0.1-0.5-0.2-0.7c-0.1-0.2-0.3-0.4-0.5-0.6
		c-0.2-0.2-0.5-0.4-0.9-0.6s-0.9-0.4-1.4-0.7c-0.6-0.3-1.2-0.5-1.6-0.8c-0.5-0.3-0.8-0.5-1.1-0.8s-0.5-0.6-0.6-1s-0.2-0.8-0.2-1.3
		c0-0.5,0.1-0.9,0.3-1.3c0.2-0.4,0.5-0.7,0.8-1c0.3-0.3,0.8-0.5,1.3-0.7c0.5-0.2,1-0.2,1.6-0.2c0.9,0,1.7,0.1,2.3,0.4
		c0.7,0.3,1.3,0.6,1.8,1l-1,1.3c-0.5-0.4-1-0.7-1.5-0.9c-0.5-0.2-1-0.3-1.7-0.3c-0.7,0-1.2,0.1-1.6,0.4c-0.4,0.3-0.5,0.7-0.5,1.1
		c0,0.3,0,0.5,0.1,0.7c0.1,0.2,0.2,0.4,0.5,0.6c0.2,0.2,0.5,0.4,0.9,0.6c0.4,0.2,0.8,0.4,1.4,0.6c0.6,0.3,1.1,0.5,1.6,0.8
		c0.5,0.2,0.9,0.5,1.2,0.8c0.3,0.3,0.6,0.7,0.8,1C732.5,42.7,732.6,43.2,732.6,43.7z"/>
	<path id="XMLID_160_" class="st0" d="M757.3,47.1v-7.5c0-1.5-0.2-2.5-0.7-3.1c-0.5-0.6-1.1-0.9-2.1-0.9c-0.9,0-1.5,0.3-2.1,0.9
		c-0.5,0.6-0.8,1.7-0.8,3.1v7.5h-1.9v-7.5c0-1.5-0.2-2.5-0.7-3.1c-0.5-0.6-1.2-0.9-2-0.9c-0.9,0-1.6,0.3-2.1,0.9s-0.8,1.7-0.8,3.1
		v7.5h-1.9V34.3h1.9l0,1.6c0.3-0.6,0.8-1,1.3-1.3c0.5-0.3,1.2-0.5,2-0.5c0.9,0,1.6,0.2,2.2,0.6c0.6,0.4,1,0.9,1.3,1.6
		c0.2-0.3,0.4-0.6,0.6-0.9c0.2-0.3,0.5-0.5,0.8-0.7c0.3-0.2,0.7-0.4,1.1-0.5c0.4-0.1,0.9-0.2,1.4-0.2c1.3,0,2.3,0.4,3.1,1.2
		s1.2,2.2,1.2,4v7.8H757.3z"/>
	<path id="XMLID_157_" class="st0" d="M770.5,47.1v-1.6c-0.5,0.5-1,0.9-1.6,1.3c-0.6,0.4-1.4,0.5-2.4,0.5c-0.5,0-1-0.1-1.5-0.2
		c-0.5-0.1-0.9-0.4-1.3-0.7c-0.4-0.3-0.7-0.7-0.9-1.3c-0.2-0.5-0.4-1.2-0.4-2c0-0.7,0.1-1.3,0.4-1.9c0.3-0.5,0.6-0.9,1.1-1.3
		c0.4-0.3,1-0.6,1.6-0.7c0.6-0.2,1.2-0.2,1.8-0.2c0.7,0,1.3,0.1,1.8,0.2c0.6,0.1,1,0.3,1.4,0.5v-1.5c0-1.9-0.9-2.8-2.8-2.8
		c-0.7,0-1.3,0.1-1.9,0.3c-0.6,0.2-1.1,0.4-1.6,0.7l-0.7-1.5c0.6-0.3,1.2-0.6,2-0.8c0.7-0.2,1.5-0.3,2.3-0.3c1.4,0,2.5,0.3,3.3,1
		s1.2,1.7,1.2,3.2v8.9H770.5z M770.5,41.3c-0.4-0.2-0.9-0.4-1.4-0.5s-1.1-0.2-1.9-0.2c-0.9,0-1.7,0.2-2.2,0.6
		c-0.5,0.4-0.8,1.1-0.8,1.9c0,1,0.2,1.7,0.7,2.1c0.5,0.4,1.1,0.6,1.9,0.6c0.8,0,1.5-0.2,2.2-0.6s1.1-0.8,1.5-1.4V41.3z"/>
	<path id="XMLID_155_" class="st0" d="M779.5,51.6h-1.8l1.8-4.7l-4.6-12.7h1.9l3.1,9.3l0.4,1.3l0.4-1.3l3.1-9.3h1.9L779.5,51.6z"/>
	<path id="XMLID_152_" class="st0" d="M805.5,40.5c0,1.1-0.1,2.1-0.4,3c-0.3,0.9-0.6,1.6-1,2.1c-0.4,0.6-0.9,1-1.5,1.3
		s-1.2,0.4-1.9,0.4c-0.8,0-1.5-0.2-2.1-0.5s-1.1-0.7-1.5-1.2v5.1l-1.9,1V34.3h1.9l0,1.6c0.5-0.5,1-0.9,1.6-1.3s1.4-0.5,2.2-0.5
		c0.6,0,1.2,0.1,1.8,0.4c0.6,0.3,1,0.6,1.5,1.2c0.4,0.5,0.7,1.2,1,2S805.5,39.3,805.5,40.5z M803.7,40.5c0-1.6-0.3-2.9-0.9-3.7
		c-0.6-0.8-1.4-1.2-2.4-1.2c-0.7,0-1.3,0.2-1.9,0.5s-1.1,0.8-1.5,1.4v6.4c0.4,0.5,0.8,1,1.4,1.4s1.3,0.6,2,0.6
		c1.1,0,1.9-0.5,2.4-1.3C803.5,43.5,803.7,42.2,803.7,40.5z"/>
	<path id="XMLID_149_" class="st0" d="M818.6,40.3c0,0.2,0,0.4,0,0.6c0,0.1,0,0.3-0.1,0.4h-8.5c0.1,1.4,0.4,2.5,1,3.3
		c0.6,0.8,1.5,1.2,2.5,1.2c0.7,0,1.4-0.1,1.9-0.3c0.5-0.2,1.1-0.5,1.6-0.9l0.9,1.3c-0.4,0.2-0.8,0.5-1.1,0.6s-0.7,0.3-1,0.5
		c-0.4,0.1-0.7,0.2-1.1,0.3c-0.4,0.1-0.8,0.1-1.3,0.1c-0.6,0-1.2-0.1-1.8-0.3c-0.6-0.2-1.2-0.6-1.7-1.1c-0.5-0.5-0.9-1.2-1.2-2.1
		c-0.3-0.9-0.5-1.9-0.5-3.2c0-1,0.1-1.9,0.4-2.8s0.6-1.5,1.1-2.1c0.5-0.6,1-1,1.7-1.3c0.6-0.3,1.3-0.5,2.1-0.5
		c0.8,0,1.6,0.2,2.2,0.5c0.6,0.3,1.2,0.7,1.6,1.3c0.4,0.6,0.8,1.2,1,2S818.6,39.4,818.6,40.3z M816.9,39.8c-0.1-1.3-0.4-2.3-0.9-3.1
		c-0.6-0.8-1.4-1.2-2.5-1.2c-1,0-1.7,0.3-2.3,1c-0.6,0.7-1,1.8-1.1,3.2H816.9z"/>
	<path id="XMLID_147_" class="st0" d="M828.6,36.2c-0.3-0.1-0.5-0.3-0.8-0.4c-0.3-0.1-0.7-0.1-1.1-0.1c-0.9,0-1.6,0.3-2.1,1
		c-0.5,0.7-0.7,1.6-0.7,2.9v7.5h-1.9V34.3h1.9v1.6c0.3-0.5,0.7-1,1.3-1.3c0.6-0.4,1.2-0.5,1.9-0.5c0.5,0,0.9,0,1.2,0.1
		c0.3,0.1,0.6,0.1,0.8,0.2L828.6,36.2z"/>
	<path id="XMLID_145_" class="st0" d="M846.9,47.1v-7.5c0-1.5-0.2-2.5-0.7-3.1c-0.5-0.6-1.1-0.9-2.1-0.9c-0.9,0-1.5,0.3-2.1,0.9
		c-0.5,0.6-0.8,1.7-0.8,3.1v7.5h-1.9v-7.5c0-1.5-0.2-2.5-0.7-3.1c-0.5-0.6-1.2-0.9-2-0.9c-0.9,0-1.6,0.3-2.1,0.9s-0.8,1.7-0.8,3.1
		v7.5H832V34.3h1.9l0,1.6c0.3-0.6,0.8-1,1.3-1.3c0.5-0.3,1.2-0.5,2-0.5c0.9,0,1.6,0.2,2.2,0.6c0.6,0.4,1,0.9,1.3,1.6
		c0.2-0.3,0.4-0.6,0.6-0.9c0.2-0.3,0.5-0.5,0.8-0.7c0.3-0.2,0.7-0.4,1.1-0.5c0.4-0.1,0.9-0.2,1.4-0.2c1.3,0,2.3,0.4,3.1,1.2
		s1.2,2.2,1.2,4v7.8H846.9z"/>
	<path id="XMLID_142_" class="st0" d="M855,30.7c0,0.4-0.1,0.7-0.4,0.9c-0.3,0.3-0.5,0.4-0.9,0.4c-0.4,0-0.7-0.1-1-0.4
		c-0.3-0.3-0.4-0.6-0.4-0.9c0-0.4,0.1-0.7,0.4-0.9c0.3-0.3,0.6-0.4,1-0.4c0.3,0,0.6,0.1,0.9,0.4C854.9,30,855,30.3,855,30.7z
		 M852.8,47.1V34.3h1.9v12.8H852.8z"/>
	<path id="XMLID_140_" class="st0" d="M861.2,35.8v8.3c0,0.6,0.1,1,0.3,1.2c0.2,0.2,0.5,0.3,1,0.3c0.4,0,0.7,0,1-0.1
		c0.3-0.1,0.5-0.2,0.8-0.3l-0.1,1.6c-0.4,0.1-0.7,0.3-1.1,0.3c-0.4,0.1-0.8,0.1-1.3,0.1c-0.8,0-1.4-0.2-1.8-0.6s-0.6-1.2-0.6-2.3
		v-8.6h-1.6v-1.6h1.6v-4l1.9-1v5h3.2v1.6H861.2z"/>
</g>
<g id="XMLID_2_">
	<path id="XMLID_137_" class="st0" d="M3.4,65.1v8.3c0,0.6,0.1,1,0.3,1.2c0.2,0.2,0.5,0.3,1,0.3c0.4,0,0.7,0,1-0.1
		c0.3-0.1,0.5-0.2,0.8-0.3l-0.1,1.6c-0.4,0.1-0.7,0.3-1.1,0.3c-0.4,0.1-0.8,0.1-1.3,0.1c-0.8,0-1.4-0.2-1.8-0.6s-0.6-1.2-0.6-2.3
		v-8.6H0v-1.6h1.6v-4l1.9-1v5h3.2v1.6H3.4z"/>
	<path id="XMLID_135_" class="st0" d="M18.2,76.4v-7.5c0-1.4-0.2-2.4-0.7-3c-0.5-0.6-1.3-1-2.3-1c-0.9,0-1.6,0.3-2.2,1
		S12,67.4,12,68.9v7.5h-1.9V59.6l1.9-1l0,6.5c0.4-0.5,0.9-1,1.4-1.3c0.6-0.3,1.3-0.5,2.1-0.5c0.7,0,1.3,0.1,1.9,0.3
		c0.6,0.2,1,0.5,1.4,1c0.4,0.4,0.7,1,0.9,1.6s0.3,1.5,0.3,2.4v7.8H18.2z"/>
	<path id="XMLID_132_" class="st0" d="M33.7,69.6c0,0.2,0,0.4,0,0.6c0,0.1,0,0.3-0.1,0.4h-8.5c0.1,1.4,0.4,2.5,1,3.3
		c0.6,0.8,1.5,1.2,2.5,1.2c0.7,0,1.4-0.1,1.9-0.3c0.5-0.2,1.1-0.5,1.6-0.9l0.9,1.3c-0.4,0.2-0.8,0.5-1.1,0.6s-0.7,0.3-1,0.5
		c-0.4,0.1-0.7,0.2-1.1,0.3c-0.4,0.1-0.8,0.1-1.3,0.1c-0.6,0-1.2-0.1-1.8-0.3c-0.6-0.2-1.2-0.6-1.7-1.1c-0.5-0.5-0.9-1.2-1.2-2.1
		c-0.3-0.9-0.5-1.9-0.5-3.2c0-1,0.1-1.9,0.4-2.8s0.6-1.5,1.1-2.1c0.5-0.6,1-1,1.7-1.3c0.6-0.3,1.3-0.5,2.1-0.5
		c0.8,0,1.6,0.2,2.2,0.5c0.6,0.3,1.2,0.7,1.6,1.3c0.4,0.6,0.8,1.2,1,2S33.7,68.7,33.7,69.6z M32,69.1c-0.1-1.3-0.4-2.3-0.9-3.1
		c-0.6-0.8-1.4-1.2-2.5-1.2c-1,0-1.7,0.3-2.3,1c-0.6,0.7-1,1.8-1.1,3.2H32z"/>
	<path id="XMLID_129_" class="st0" d="M50.9,76.4v-1.6c-0.5,0.5-1,0.9-1.6,1.3c-0.6,0.4-1.4,0.5-2.4,0.5c-0.5,0-1-0.1-1.5-0.2
		c-0.5-0.1-0.9-0.4-1.3-0.7c-0.4-0.3-0.7-0.7-0.9-1.3c-0.2-0.5-0.4-1.2-0.4-2c0-0.7,0.1-1.3,0.4-1.9c0.3-0.5,0.6-0.9,1.1-1.3
		c0.4-0.3,1-0.6,1.6-0.7c0.6-0.2,1.2-0.2,1.8-0.2c0.7,0,1.3,0.1,1.8,0.2c0.6,0.1,1,0.3,1.4,0.5v-1.5c0-1.9-0.9-2.8-2.8-2.8
		c-0.7,0-1.3,0.1-1.9,0.3c-0.6,0.2-1.1,0.4-1.6,0.7l-0.7-1.5c0.6-0.3,1.2-0.6,2-0.8c0.7-0.2,1.5-0.3,2.3-0.3c1.4,0,2.5,0.3,3.3,1
		s1.2,1.7,1.2,3.2v8.9H50.9z M50.9,70.6c-0.4-0.2-0.9-0.4-1.4-0.5s-1.1-0.2-1.9-0.2c-0.9,0-1.7,0.2-2.2,0.6
		c-0.5,0.4-0.8,1.1-0.8,1.9c0,1,0.2,1.7,0.7,2.1c0.5,0.4,1.1,0.6,1.9,0.6c0.8,0,1.5-0.2,2.2-0.6s1.1-0.8,1.5-1.4V70.6z"/>
	<path id="XMLID_126_" class="st0" d="M64.4,76.4v-1.6c-0.5,0.5-1,0.9-1.6,1.3c-0.6,0.4-1.4,0.5-2.2,0.5c-0.6,0-1.2-0.1-1.8-0.4
		c-0.6-0.3-1-0.6-1.5-1.2c-0.4-0.5-0.7-1.2-1-2S56,71.3,56,70.2c0-1.1,0.1-2.1,0.4-3c0.3-0.9,0.6-1.6,1-2.1c0.4-0.6,1-1,1.5-1.3
		c0.6-0.3,1.2-0.4,1.9-0.4c0.8,0,1.5,0.2,2.1,0.5c0.6,0.3,1.1,0.7,1.5,1.2v-5.4l1.9-1v17.8H64.4z M64.4,66.8c-0.4-0.5-0.8-1-1.4-1.4
		c-0.6-0.4-1.3-0.6-2-0.6c-1.1,0-1.9,0.4-2.4,1.3c-0.5,0.9-0.8,2.2-0.8,3.9c0,1.6,0.3,2.9,0.9,3.7c0.6,0.8,1.4,1.2,2.4,1.2
		c0.7,0,1.3-0.2,1.9-0.5c0.6-0.3,1.1-0.8,1.5-1.4V66.8z"/>
	<path id="XMLID_124_" class="st0" d="M85.2,76.4v-7.5c0-1.5-0.2-2.5-0.7-3.1c-0.5-0.6-1.1-0.9-2.1-0.9c-0.9,0-1.5,0.3-2.1,0.9
		c-0.5,0.6-0.8,1.7-0.8,3.1v7.5h-1.9v-7.5c0-1.5-0.2-2.5-0.7-3.1c-0.5-0.6-1.2-0.9-2-0.9c-0.9,0-1.6,0.3-2.1,0.9s-0.8,1.7-0.8,3.1
		v7.5h-1.9V63.5h1.9l0,1.6c0.3-0.6,0.8-1,1.3-1.3c0.5-0.3,1.2-0.5,2-0.5c0.9,0,1.6,0.2,2.2,0.6c0.6,0.4,1,0.9,1.3,1.6
		c0.2-0.3,0.4-0.6,0.6-0.9c0.2-0.3,0.5-0.5,0.8-0.7c0.3-0.2,0.7-0.4,1.1-0.5c0.4-0.1,0.9-0.2,1.4-0.2c1.3,0,2.3,0.4,3.1,1.2
		s1.2,2.2,1.2,4v7.8H85.2z"/>
	<path id="XMLID_121_" class="st0" d="M93.3,60c0,0.4-0.1,0.7-0.4,0.9c-0.3,0.3-0.5,0.4-0.9,0.4c-0.4,0-0.7-0.1-1-0.4
		c-0.3-0.3-0.4-0.6-0.4-0.9c0-0.4,0.1-0.7,0.4-0.9c0.3-0.3,0.6-0.4,1-0.4c0.3,0,0.6,0.1,0.9,0.4C93.2,59.3,93.3,59.6,93.3,60z
		 M91.1,76.4V63.5H93v12.8H91.1z"/>
	<path id="XMLID_119_" class="st0" d="M105.2,76.4v-7.5c0-1.4-0.2-2.4-0.7-3c-0.5-0.6-1.3-1-2.3-1c-0.9,0-1.6,0.3-2.2,1
		S99,67.4,99,68.9v7.5h-1.9V63.5H99l0,1.6c0.4-0.5,0.9-1,1.4-1.3c0.6-0.3,1.3-0.5,2.1-0.5c0.7,0,1.3,0.1,1.9,0.3
		c0.6,0.2,1,0.5,1.4,1c0.4,0.4,0.7,1,0.9,1.6s0.3,1.5,0.3,2.4v7.8H105.2z"/>
	<path id="XMLID_116_" class="st0" d="M113.3,60c0,0.4-0.1,0.7-0.4,0.9c-0.3,0.3-0.5,0.4-0.9,0.4c-0.4,0-0.7-0.1-1-0.4
		c-0.3-0.3-0.4-0.6-0.4-0.9c0-0.4,0.1-0.7,0.4-0.9c0.3-0.3,0.6-0.4,1-0.4c0.3,0,0.6,0.1,0.9,0.4C113.2,59.3,113.3,59.6,113.3,60z
		 M111.1,76.4V63.5h1.9v12.8H111.1z"/>
	<path id="XMLID_114_" class="st0" d="M125,73c0,0.6-0.1,1.2-0.4,1.6c-0.3,0.5-0.6,0.8-1,1.1s-0.9,0.5-1.4,0.6
		c-0.5,0.1-1.1,0.2-1.6,0.2c-0.9,0-1.7-0.2-2.5-0.5c-0.8-0.3-1.4-0.7-2.1-1.2l1.1-1.3c0.5,0.5,1.1,0.8,1.7,1
		c0.6,0.2,1.2,0.4,1.8,0.4c0.9,0,1.5-0.2,2-0.5c0.4-0.3,0.6-0.8,0.6-1.5c0-0.3-0.1-0.5-0.2-0.7c-0.1-0.2-0.3-0.4-0.5-0.6
		c-0.2-0.2-0.5-0.4-0.9-0.6s-0.9-0.4-1.4-0.7c-0.6-0.3-1.2-0.5-1.6-0.8c-0.5-0.3-0.8-0.5-1.1-0.8s-0.5-0.6-0.6-1s-0.2-0.8-0.2-1.3
		c0-0.5,0.1-0.9,0.3-1.3c0.2-0.4,0.5-0.7,0.8-1c0.3-0.3,0.8-0.5,1.3-0.7c0.5-0.2,1-0.2,1.6-0.2c0.9,0,1.7,0.1,2.3,0.4
		c0.7,0.3,1.3,0.6,1.8,1l-1,1.3c-0.5-0.4-1-0.7-1.5-0.9c-0.5-0.2-1-0.3-1.7-0.3c-0.7,0-1.2,0.1-1.6,0.4c-0.4,0.3-0.5,0.7-0.5,1.1
		c0,0.3,0,0.5,0.1,0.7c0.1,0.2,0.2,0.4,0.5,0.6c0.2,0.2,0.5,0.4,0.9,0.6c0.4,0.2,0.8,0.4,1.4,0.6c0.6,0.3,1.1,0.5,1.6,0.8
		c0.5,0.2,0.9,0.5,1.2,0.8c0.3,0.3,0.6,0.7,0.8,1C124.9,72,125,72.4,125,73z"/>
	<path id="XMLID_112_" class="st0" d="M130.6,65.1v8.3c0,0.6,0.1,1,0.3,1.2c0.2,0.2,0.5,0.3,1,0.3c0.4,0,0.7,0,1-0.1
		c0.3-0.1,0.5-0.2,0.8-0.3l-0.1,1.6c-0.4,0.1-0.7,0.3-1.1,0.3c-0.4,0.1-0.8,0.1-1.3,0.1c-0.8,0-1.4-0.2-1.8-0.6s-0.6-1.2-0.6-2.3
		v-8.6h-1.6v-1.6h1.6v-4l1.9-1v5h3.2v1.6H130.6z"/>
	<path id="XMLID_110_" class="st0" d="M143.9,65.5c-0.3-0.1-0.5-0.3-0.8-0.4c-0.3-0.1-0.7-0.1-1.1-0.1c-0.9,0-1.6,0.3-2.1,1
		c-0.5,0.7-0.7,1.6-0.7,2.9v7.5h-1.9V63.5h1.9v1.6c0.3-0.5,0.7-1,1.3-1.3c0.6-0.4,1.2-0.5,1.9-0.5c0.5,0,0.9,0,1.2,0.1
		c0.3,0.1,0.6,0.1,0.8,0.2L143.9,65.5z"/>
	<path id="XMLID_107_" class="st0" d="M153.8,76.4v-1.6c-0.5,0.5-1,0.9-1.6,1.3c-0.6,0.4-1.4,0.5-2.4,0.5c-0.5,0-1-0.1-1.5-0.2
		c-0.5-0.1-0.9-0.4-1.3-0.7c-0.4-0.3-0.7-0.7-0.9-1.3c-0.2-0.5-0.4-1.2-0.4-2c0-0.7,0.1-1.3,0.4-1.9c0.3-0.5,0.6-0.9,1.1-1.3
		c0.4-0.3,1-0.6,1.6-0.7c0.6-0.2,1.2-0.2,1.8-0.2c0.7,0,1.3,0.1,1.8,0.2c0.6,0.1,1,0.3,1.4,0.5v-1.5c0-1.9-0.9-2.8-2.8-2.8
		c-0.7,0-1.3,0.1-1.9,0.3c-0.6,0.2-1.1,0.4-1.6,0.7l-0.7-1.5c0.6-0.3,1.2-0.6,2-0.8c0.7-0.2,1.5-0.3,2.3-0.3c1.4,0,2.5,0.3,3.3,1
		s1.2,1.7,1.2,3.2v8.9H153.8z M153.8,70.6c-0.4-0.2-0.9-0.4-1.4-0.5s-1.1-0.2-1.9-0.2c-0.9,0-1.7,0.2-2.2,0.6
		c-0.5,0.4-0.8,1.1-0.8,1.9c0,1,0.2,1.7,0.7,2.1c0.5,0.4,1.1,0.6,1.9,0.6c0.8,0,1.5-0.2,2.2-0.6s1.1-0.8,1.5-1.4V70.6z"/>
	<path id="XMLID_105_" class="st0" d="M161.9,65.1v8.3c0,0.6,0.1,1,0.3,1.2c0.2,0.2,0.5,0.3,1,0.3c0.4,0,0.7,0,1-0.1
		c0.3-0.1,0.5-0.2,0.8-0.3l-0.1,1.6c-0.4,0.1-0.7,0.3-1.1,0.3c-0.4,0.1-0.8,0.1-1.3,0.1c-0.8,0-1.4-0.2-1.8-0.6s-0.6-1.2-0.6-2.3
		v-8.6h-1.6v-1.6h1.6v-4l1.9-1v5h3.2v1.6H161.9z"/>
	<path id="XMLID_102_" class="st0" d="M171,60c0,0.4-0.1,0.7-0.4,0.9c-0.3,0.3-0.5,0.4-0.9,0.4c-0.4,0-0.7-0.1-1-0.4
		c-0.3-0.3-0.4-0.6-0.4-0.9c0-0.4,0.1-0.7,0.4-0.9c0.3-0.3,0.6-0.4,1-0.4c0.3,0,0.6,0.1,0.9,0.4C170.9,59.3,171,59.6,171,60z
		 M168.8,76.4V63.5h1.9v12.8H168.8z"/>
	<path id="XMLID_99_" class="st0" d="M185.2,69.9c0,1.1-0.1,2.1-0.4,2.9s-0.7,1.5-1.2,2.1c-0.5,0.6-1.1,1-1.8,1.3
		c-0.7,0.3-1.4,0.4-2.2,0.4c-0.8,0-1.5-0.1-2.2-0.4c-0.7-0.3-1.3-0.7-1.7-1.3c-0.5-0.6-0.9-1.3-1.2-2.1c-0.3-0.8-0.4-1.8-0.4-2.9
		s0.1-2,0.4-2.9s0.7-1.5,1.2-2.1c0.5-0.6,1.1-1,1.8-1.3c0.7-0.3,1.4-0.4,2.2-0.4c0.8,0,1.5,0.1,2.2,0.4c0.7,0.3,1.3,0.7,1.7,1.2
		c0.5,0.6,0.9,1.2,1.2,2.1S185.2,68.8,185.2,69.9z M183.4,69.9c0-1.7-0.3-3-1-3.8c-0.7-0.8-1.6-1.3-2.7-1.3s-2,0.4-2.7,1.3
		c-0.7,0.8-1,2.1-1,3.8s0.3,3,1,3.8c0.7,0.9,1.6,1.3,2.7,1.3s2-0.4,2.7-1.3C183,72.9,183.4,71.6,183.4,69.9z"/>
	<path id="XMLID_97_" class="st0" d="M196.6,76.4v-7.5c0-1.4-0.2-2.4-0.7-3c-0.5-0.6-1.3-1-2.3-1c-0.9,0-1.6,0.3-2.2,1
		s-0.9,1.7-0.9,3.1v7.5h-1.9V63.5h1.9l0,1.6c0.4-0.5,0.9-1,1.4-1.3c0.6-0.3,1.3-0.5,2.1-0.5c0.7,0,1.3,0.1,1.9,0.3
		c0.6,0.2,1,0.5,1.4,1c0.4,0.4,0.7,1,0.9,1.6s0.3,1.5,0.3,2.4v7.8H196.6z"/>
	<path id="XMLID_94_" class="st0" d="M219.2,69.9c0,1.1-0.1,2.1-0.4,2.9s-0.7,1.5-1.2,2.1c-0.5,0.6-1.1,1-1.8,1.3
		c-0.7,0.3-1.4,0.4-2.2,0.4c-0.8,0-1.5-0.1-2.2-0.4c-0.7-0.3-1.3-0.7-1.7-1.3c-0.5-0.6-0.9-1.3-1.2-2.1c-0.3-0.8-0.4-1.8-0.4-2.9
		s0.1-2,0.4-2.9s0.7-1.5,1.2-2.1c0.5-0.6,1.1-1,1.8-1.3c0.7-0.3,1.4-0.4,2.2-0.4c0.8,0,1.5,0.1,2.2,0.4c0.7,0.3,1.3,0.7,1.7,1.2
		c0.5,0.6,0.9,1.2,1.2,2.1S219.2,68.8,219.2,69.9z M217.4,69.9c0-1.7-0.3-3-1-3.8c-0.7-0.8-1.6-1.3-2.7-1.3s-2,0.4-2.7,1.3
		c-0.7,0.8-1,2.1-1,3.8s0.3,3,1,3.8c0.7,0.9,1.6,1.3,2.7,1.3s2-0.4,2.7-1.3C217,72.9,217.4,71.6,217.4,69.9z"/>
	<path id="XMLID_92_" class="st0" d="M226.3,60.3c-0.4,0-0.7,0.1-0.9,0.3c-0.3,0.2-0.4,0.5-0.4,1.1v1.9h2.5v1.6h-2.5v11.3h-1.9V65.1
		h-1.8v-1.6h1.8v-1.8c0-1.1,0.3-1.9,0.9-2.4c0.6-0.5,1.3-0.7,2.2-0.7c0.4,0,0.7,0,0.9,0s0.5,0.1,0.7,0.2v1.7
		C227.3,60.4,226.8,60.3,226.3,60.3z"/>
	<path id="XMLID_90_" class="st0" d="M245.3,76.4v-7.5c0-1.4-0.2-2.4-0.7-3c-0.5-0.6-1.3-1-2.3-1c-0.9,0-1.6,0.3-2.2,1
		s-0.9,1.7-0.9,3.1v7.5h-1.9V59.6l1.9-1l0,6.5c0.4-0.5,0.9-1,1.4-1.3c0.6-0.3,1.3-0.5,2.1-0.5c0.7,0,1.3,0.1,1.9,0.3
		c0.6,0.2,1,0.5,1.4,1c0.4,0.4,0.7,1,0.9,1.6s0.3,1.5,0.3,2.4v7.8H245.3z"/>
	<path id="XMLID_87_" class="st0" d="M253.4,60c0,0.4-0.1,0.7-0.4,0.9c-0.3,0.3-0.5,0.4-0.9,0.4c-0.4,0-0.7-0.1-1-0.4
		c-0.3-0.3-0.4-0.6-0.4-0.9c0-0.4,0.1-0.7,0.4-0.9c0.3-0.3,0.6-0.4,1-0.4c0.3,0,0.6,0.1,0.9,0.4C253.3,59.3,253.4,59.6,253.4,60z
		 M251.2,76.4V63.5h1.9v12.8H251.2z"/>
	<path id="XMLID_84_" class="st0" d="M266.8,75.2c0,1-0.1,1.8-0.3,2.5s-0.6,1.3-1.1,1.8c-0.5,0.5-1.2,0.9-2,1.1
		c-0.8,0.3-1.8,0.4-3,0.4l-0.6-1.4c1.1,0,1.9-0.1,2.6-0.3c0.7-0.2,1.2-0.4,1.6-0.7c0.4-0.3,0.7-0.8,0.8-1.3c0.1-0.5,0.2-1.2,0.2-1.9
		v-0.7c-0.5,0.5-1,0.9-1.6,1.3c-0.6,0.4-1.4,0.5-2.2,0.5c-0.6,0-1.2-0.1-1.8-0.4c-0.6-0.3-1-0.6-1.5-1.2c-0.4-0.5-0.7-1.2-1-2
		s-0.4-1.8-0.4-2.9c0-1.1,0.1-2.1,0.4-3c0.3-0.9,0.6-1.6,1-2.1c0.4-0.6,1-1,1.5-1.3c0.6-0.3,1.2-0.4,1.9-0.4c0.8,0,1.5,0.2,2.1,0.5
		c0.6,0.3,1.1,0.7,1.5,1.2v-1.4h1.9V75.2z M265,66.8c-0.4-0.5-0.8-1-1.4-1.4c-0.6-0.4-1.3-0.6-2-0.6c-1.1,0-1.9,0.4-2.4,1.3
		c-0.5,0.9-0.8,2.2-0.8,3.9c0,1.6,0.3,2.9,0.9,3.7c0.6,0.8,1.4,1.2,2.4,1.2c0.7,0,1.3-0.2,1.9-0.5c0.6-0.3,1.1-0.8,1.5-1.4V66.8z"/>
	<path id="XMLID_82_" class="st0" d="M278.9,76.4v-7.5c0-1.4-0.2-2.4-0.7-3c-0.5-0.6-1.3-1-2.3-1c-0.9,0-1.6,0.3-2.2,1
		s-0.9,1.7-0.9,3.1v7.5h-1.9V59.6l1.9-1l0,6.5c0.4-0.5,0.9-1,1.4-1.3c0.6-0.3,1.3-0.5,2.1-0.5c0.7,0,1.3,0.1,1.9,0.3
		c0.6,0.2,1,0.5,1.4,1c0.4,0.4,0.7,1,0.9,1.6s0.3,1.5,0.3,2.4v7.8H278.9z"/>
	<path id="XMLID_79_" class="st0" d="M294.4,69.6c0,0.2,0,0.4,0,0.6c0,0.1,0,0.3-0.1,0.4h-8.5c0.1,1.4,0.4,2.5,1,3.3
		c0.6,0.8,1.5,1.2,2.5,1.2c0.7,0,1.4-0.1,1.9-0.3c0.5-0.2,1.1-0.5,1.6-0.9l0.9,1.3c-0.4,0.2-0.8,0.5-1.1,0.6s-0.7,0.3-1,0.5
		c-0.4,0.1-0.7,0.2-1.1,0.3c-0.4,0.1-0.8,0.1-1.3,0.1c-0.6,0-1.2-0.1-1.8-0.3c-0.6-0.2-1.2-0.6-1.7-1.1c-0.5-0.5-0.9-1.2-1.2-2.1
		c-0.3-0.9-0.5-1.9-0.5-3.2c0-1,0.1-1.9,0.4-2.8s0.6-1.5,1.1-2.1c0.5-0.6,1-1,1.7-1.3c0.6-0.3,1.3-0.5,2.1-0.5
		c0.8,0,1.6,0.2,2.2,0.5c0.6,0.3,1.2,0.7,1.6,1.3c0.4,0.6,0.8,1.2,1,2S294.4,68.7,294.4,69.6z M292.7,69.1c-0.1-1.3-0.4-2.3-0.9-3.1
		c-0.6-0.8-1.4-1.2-2.5-1.2c-1,0-1.7,0.3-2.3,1c-0.6,0.7-1,1.8-1.1,3.2H292.7z"/>
	<path id="XMLID_77_" class="st0" d="M304.4,65.5c-0.3-0.1-0.5-0.3-0.8-0.4c-0.3-0.1-0.7-0.1-1.1-0.1c-0.9,0-1.6,0.3-2.1,1
		c-0.5,0.7-0.7,1.6-0.7,2.9v7.5h-1.9V63.5h1.9v1.6c0.3-0.5,0.7-1,1.3-1.3c0.6-0.4,1.2-0.5,1.9-0.5c0.5,0,0.9,0,1.2,0.1
		c0.3,0.1,0.6,0.1,0.8,0.2L304.4,65.5z"/>
	<path id="XMLID_74_" class="st0" d="M321.9,76.4v-1.6c-0.5,0.5-1,0.9-1.6,1.3c-0.6,0.4-1.4,0.5-2.2,0.5c-0.6,0-1.2-0.1-1.8-0.4
		c-0.6-0.3-1-0.6-1.5-1.2c-0.4-0.5-0.7-1.2-1-2s-0.4-1.8-0.4-2.9c0-1.1,0.1-2.1,0.4-3c0.3-0.9,0.6-1.6,1-2.1c0.4-0.6,1-1,1.5-1.3
		c0.6-0.3,1.2-0.4,1.9-0.4c0.8,0,1.5,0.2,2.1,0.5c0.6,0.3,1.1,0.7,1.5,1.2v-5.4l1.9-1v17.8H321.9z M321.9,66.8
		c-0.4-0.5-0.8-1-1.4-1.4c-0.6-0.4-1.3-0.6-2-0.6c-1.1,0-1.9,0.4-2.4,1.3c-0.5,0.9-0.8,2.2-0.8,3.9c0,1.6,0.3,2.9,0.9,3.7
		c0.6,0.8,1.4,1.2,2.4,1.2c0.7,0,1.3-0.2,1.9-0.5c0.6-0.3,1.1-0.8,1.5-1.4V66.8z"/>
	<path id="XMLID_71_" class="st0" d="M338.3,69.9c0,1.1-0.1,2.1-0.4,2.9s-0.7,1.5-1.2,2.1c-0.5,0.6-1.1,1-1.8,1.3
		c-0.7,0.3-1.4,0.4-2.2,0.4c-0.8,0-1.5-0.1-2.2-0.4c-0.7-0.3-1.3-0.7-1.7-1.3c-0.5-0.6-0.9-1.3-1.2-2.1c-0.3-0.8-0.4-1.8-0.4-2.9
		s0.1-2,0.4-2.9s0.7-1.5,1.2-2.1c0.5-0.6,1.1-1,1.8-1.3c0.7-0.3,1.4-0.4,2.2-0.4c0.8,0,1.5,0.1,2.2,0.4c0.7,0.3,1.3,0.7,1.7,1.2
		c0.5,0.6,0.9,1.2,1.2,2.1S338.3,68.8,338.3,69.9z M336.4,69.9c0-1.7-0.3-3-1-3.8c-0.7-0.8-1.6-1.3-2.7-1.3s-2,0.4-2.7,1.3
		c-0.7,0.8-1,2.1-1,3.8s0.3,3,1,3.8c0.7,0.9,1.6,1.3,2.7,1.3s2-0.4,2.7-1.3C336.1,72.9,336.4,71.6,336.4,69.9z"/>
	<path id="XMLID_69_" class="st0" d="M349.3,73c0,0.6-0.1,1.2-0.4,1.6c-0.3,0.5-0.6,0.8-1,1.1s-0.9,0.5-1.4,0.6
		c-0.5,0.1-1.1,0.2-1.6,0.2c-0.9,0-1.7-0.2-2.5-0.5c-0.8-0.3-1.4-0.7-2.1-1.2l1.1-1.3c0.5,0.5,1.1,0.8,1.7,1
		c0.6,0.2,1.2,0.4,1.8,0.4c0.9,0,1.5-0.2,2-0.5c0.4-0.3,0.6-0.8,0.6-1.5c0-0.3-0.1-0.5-0.2-0.7c-0.1-0.2-0.3-0.4-0.5-0.6
		c-0.2-0.2-0.5-0.4-0.9-0.6s-0.9-0.4-1.4-0.7c-0.6-0.3-1.2-0.5-1.6-0.8c-0.5-0.3-0.8-0.5-1.1-0.8s-0.5-0.6-0.6-1s-0.2-0.8-0.2-1.3
		c0-0.5,0.1-0.9,0.3-1.3c0.2-0.4,0.5-0.7,0.8-1c0.3-0.3,0.8-0.5,1.3-0.7c0.5-0.2,1-0.2,1.6-0.2c0.9,0,1.7,0.1,2.3,0.4
		c0.7,0.3,1.3,0.6,1.8,1l-1,1.3c-0.5-0.4-1-0.7-1.5-0.9c-0.5-0.2-1-0.3-1.7-0.3c-0.7,0-1.2,0.1-1.6,0.4c-0.4,0.3-0.5,0.7-0.5,1.1
		c0,0.3,0,0.5,0.1,0.7c0.1,0.2,0.2,0.4,0.5,0.6c0.2,0.2,0.5,0.4,0.9,0.6c0.4,0.2,0.8,0.4,1.4,0.6c0.6,0.3,1.1,0.5,1.6,0.8
		c0.5,0.2,0.9,0.5,1.2,0.8c0.3,0.3,0.6,0.7,0.8,1C349.2,72,349.3,72.4,349.3,73z"/>
	<path id="XMLID_66_" class="st0" d="M362.2,69.6c0,0.2,0,0.4,0,0.6c0,0.1,0,0.3-0.1,0.4h-8.5c0.1,1.4,0.4,2.5,1,3.3
		c0.6,0.8,1.5,1.2,2.5,1.2c0.7,0,1.4-0.1,1.9-0.3c0.5-0.2,1.1-0.5,1.6-0.9l0.9,1.3c-0.4,0.2-0.8,0.5-1.1,0.6s-0.7,0.3-1,0.5
		c-0.4,0.1-0.7,0.2-1.1,0.3c-0.4,0.1-0.8,0.1-1.3,0.1c-0.6,0-1.2-0.1-1.8-0.3c-0.6-0.2-1.2-0.6-1.7-1.1c-0.5-0.5-0.9-1.2-1.2-2.1
		c-0.3-0.9-0.5-1.9-0.5-3.2c0-1,0.1-1.9,0.4-2.8s0.6-1.5,1.1-2.1c0.5-0.6,1-1,1.7-1.3c0.6-0.3,1.3-0.5,2.1-0.5
		c0.8,0,1.6,0.2,2.2,0.5c0.6,0.3,1.2,0.7,1.6,1.3c0.4,0.6,0.8,1.2,1,2S362.2,68.7,362.2,69.6z M360.6,69.1c-0.1-1.3-0.4-2.3-0.9-3.1
		c-0.6-0.8-1.4-1.2-2.5-1.2c-1,0-1.7,0.3-2.3,1c-0.6,0.7-1,1.8-1.1,3.2H360.6z"/>
	<path id="XMLID_64_" class="st0" d="M373.4,73c0,0.6-0.1,1.2-0.4,1.6c-0.3,0.5-0.6,0.8-1,1.1s-0.9,0.5-1.4,0.6
		c-0.5,0.1-1.1,0.2-1.6,0.2c-0.9,0-1.7-0.2-2.5-0.5c-0.8-0.3-1.4-0.7-2.1-1.2l1.1-1.3c0.5,0.5,1.1,0.8,1.7,1
		c0.6,0.2,1.2,0.4,1.8,0.4c0.9,0,1.5-0.2,2-0.5c0.4-0.3,0.6-0.8,0.6-1.5c0-0.3-0.1-0.5-0.2-0.7c-0.1-0.2-0.3-0.4-0.5-0.6
		c-0.2-0.2-0.5-0.4-0.9-0.6s-0.9-0.4-1.4-0.7c-0.6-0.3-1.2-0.5-1.6-0.8c-0.5-0.3-0.8-0.5-1.1-0.8s-0.5-0.6-0.6-1s-0.2-0.8-0.2-1.3
		c0-0.5,0.1-0.9,0.3-1.3c0.2-0.4,0.5-0.7,0.8-1c0.3-0.3,0.8-0.5,1.3-0.7c0.5-0.2,1-0.2,1.6-0.2c0.9,0,1.7,0.1,2.3,0.4
		c0.7,0.3,1.3,0.6,1.8,1l-1,1.3c-0.5-0.4-1-0.7-1.5-0.9c-0.5-0.2-1-0.3-1.7-0.3c-0.7,0-1.2,0.1-1.6,0.4c-0.4,0.3-0.5,0.7-0.5,1.1
		c0,0.3,0,0.5,0.1,0.7c0.1,0.2,0.2,0.4,0.5,0.6c0.2,0.2,0.5,0.4,0.9,0.6c0.4,0.2,0.8,0.4,1.4,0.6c0.6,0.3,1.1,0.5,1.6,0.8
		c0.5,0.2,0.9,0.5,1.2,0.8c0.3,0.3,0.6,0.7,0.8,1C373.3,72,373.4,72.4,373.4,73z"/>
	<path id="XMLID_61_" class="st0" d="M385.5,60c0,0.4-0.1,0.7-0.4,0.9c-0.3,0.3-0.5,0.4-0.9,0.4c-0.4,0-0.7-0.1-1-0.4
		c-0.3-0.3-0.4-0.6-0.4-0.9c0-0.4,0.1-0.7,0.4-0.9c0.3-0.3,0.6-0.4,1-0.4c0.3,0,0.6,0.1,0.9,0.4C385.4,59.3,385.5,59.6,385.5,60z
		 M383.3,76.4V63.5h1.9v12.8H383.3z"/>
	<path id="XMLID_59_" class="st0" d="M397.3,76.4v-7.5c0-1.4-0.2-2.4-0.7-3c-0.5-0.6-1.3-1-2.3-1c-0.9,0-1.6,0.3-2.2,1
		s-0.9,1.7-0.9,3.1v7.5h-1.9V63.5h1.9l0,1.6c0.4-0.5,0.9-1,1.4-1.3c0.6-0.3,1.3-0.5,2.1-0.5c0.7,0,1.3,0.1,1.9,0.3
		c0.6,0.2,1,0.5,1.4,1c0.4,0.4,0.7,1,0.9,1.6s0.3,1.5,0.3,2.4v7.8H397.3z"/>
	<path id="XMLID_56_" class="st0" d="M419.8,69.7c0,1.1-0.1,2.1-0.4,3c-0.3,0.9-0.6,1.6-1,2.1c-0.4,0.6-0.9,1-1.5,1.3
		s-1.2,0.4-1.9,0.4c-0.8,0-1.5-0.2-2.1-0.5s-1.1-0.7-1.5-1.2V80l-1.9,1V63.5h1.9l0,1.6c0.5-0.5,1-0.9,1.6-1.3s1.4-0.5,2.2-0.5
		c0.6,0,1.2,0.1,1.8,0.4c0.6,0.3,1,0.6,1.5,1.2c0.4,0.5,0.7,1.2,1,2S419.8,68.6,419.8,69.7z M418,69.8c0-1.6-0.3-2.9-0.9-3.7
		c-0.6-0.8-1.4-1.2-2.4-1.2c-0.7,0-1.3,0.2-1.9,0.5s-1.1,0.8-1.5,1.4v6.4c0.4,0.5,0.8,1,1.4,1.4s1.3,0.6,2,0.6
		c1.1,0,1.9-0.5,2.4-1.3C417.7,72.8,418,71.5,418,69.8z"/>
	<path id="XMLID_53_" class="st0" d="M430.3,76.4v-1.6c-0.5,0.5-1,0.9-1.6,1.3c-0.6,0.4-1.4,0.5-2.4,0.5c-0.5,0-1-0.1-1.5-0.2
		c-0.5-0.1-0.9-0.4-1.3-0.7c-0.4-0.3-0.7-0.7-0.9-1.3c-0.2-0.5-0.4-1.2-0.4-2c0-0.7,0.1-1.3,0.4-1.9c0.3-0.5,0.6-0.9,1.1-1.3
		c0.4-0.3,1-0.6,1.6-0.7c0.6-0.2,1.2-0.2,1.8-0.2c0.7,0,1.3,0.1,1.8,0.2c0.6,0.1,1,0.3,1.4,0.5v-1.5c0-1.9-0.9-2.8-2.8-2.8
		c-0.7,0-1.3,0.1-1.9,0.3c-0.6,0.2-1.1,0.4-1.6,0.7l-0.7-1.5c0.6-0.3,1.2-0.6,2-0.8c0.7-0.2,1.5-0.3,2.3-0.3c1.4,0,2.5,0.3,3.3,1
		s1.2,1.7,1.2,3.2v8.9H430.3z M430.3,70.6c-0.4-0.2-0.9-0.4-1.4-0.5s-1.1-0.2-1.9-0.2c-0.9,0-1.7,0.2-2.2,0.6
		c-0.5,0.4-0.8,1.1-0.8,1.9c0,1,0.2,1.7,0.7,2.1c0.5,0.4,1.1,0.6,1.9,0.6c0.8,0,1.5-0.2,2.2-0.6s1.1-0.8,1.5-1.4V70.6z"/>
	<path id="XMLID_51_" class="st0" d="M438.4,65.1v8.3c0,0.6,0.1,1,0.3,1.2c0.2,0.2,0.5,0.3,1,0.3c0.4,0,0.7,0,1-0.1
		c0.3-0.1,0.5-0.2,0.8-0.3l-0.1,1.6c-0.4,0.1-0.7,0.3-1.1,0.3c-0.4,0.1-0.8,0.1-1.3,0.1c-0.8,0-1.4-0.2-1.8-0.6s-0.6-1.2-0.6-2.3
		v-8.6H435v-1.6h1.6v-4l1.9-1v5h3.2v1.6H438.4z"/>
	<path id="XMLID_48_" class="st0" d="M447.5,60c0,0.4-0.1,0.7-0.4,0.9c-0.3,0.3-0.5,0.4-0.9,0.4c-0.4,0-0.7-0.1-1-0.4
		c-0.3-0.3-0.4-0.6-0.4-0.9c0-0.4,0.1-0.7,0.4-0.9c0.3-0.3,0.6-0.4,1-0.4c0.3,0,0.6,0.1,0.9,0.4C447.4,59.3,447.5,59.6,447.5,60z
		 M445.3,76.4V63.5h1.9v12.8H445.3z"/>
	<path id="XMLID_45_" class="st0" d="M461,69.6c0,0.2,0,0.4,0,0.6c0,0.1,0,0.3-0.1,0.4h-8.5c0.1,1.4,0.4,2.5,1,3.3
		c0.6,0.8,1.5,1.2,2.5,1.2c0.7,0,1.4-0.1,1.9-0.3c0.5-0.2,1.1-0.5,1.6-0.9l0.9,1.3c-0.4,0.2-0.8,0.5-1.1,0.6s-0.7,0.3-1,0.5
		c-0.4,0.1-0.7,0.2-1.1,0.3c-0.4,0.1-0.8,0.1-1.3,0.1c-0.6,0-1.2-0.1-1.8-0.3c-0.6-0.2-1.2-0.6-1.7-1.1c-0.5-0.5-0.9-1.2-1.2-2.1
		c-0.3-0.9-0.5-1.9-0.5-3.2c0-1,0.1-1.9,0.4-2.8s0.6-1.5,1.1-2.1c0.5-0.6,1-1,1.7-1.3c0.6-0.3,1.3-0.5,2.1-0.5
		c0.8,0,1.6,0.2,2.2,0.5c0.6,0.3,1.2,0.7,1.6,1.3c0.4,0.6,0.8,1.2,1,2S461,68.7,461,69.6z M459.3,69.1c-0.1-1.3-0.4-2.3-0.9-3.1
		c-0.6-0.8-1.4-1.2-2.5-1.2c-1,0-1.7,0.3-2.3,1c-0.6,0.7-1,1.8-1.1,3.2H459.3z"/>
	<path id="XMLID_43_" class="st0" d="M472.5,76.4v-7.5c0-1.4-0.2-2.4-0.7-3c-0.5-0.6-1.3-1-2.3-1c-0.9,0-1.6,0.3-2.2,1
		s-0.9,1.7-0.9,3.1v7.5h-1.9V63.5h1.9l0,1.6c0.4-0.5,0.9-1,1.4-1.3c0.6-0.3,1.3-0.5,2.1-0.5c0.7,0,1.3,0.1,1.9,0.3
		c0.6,0.2,1,0.5,1.4,1c0.4,0.4,0.7,1,0.9,1.6s0.3,1.5,0.3,2.4v7.8H472.5z"/>
	<path id="XMLID_41_" class="st0" d="M480.6,65.1v8.3c0,0.6,0.1,1,0.3,1.2c0.2,0.2,0.5,0.3,1,0.3c0.4,0,0.7,0,1-0.1
		c0.3-0.1,0.5-0.2,0.8-0.3l-0.1,1.6c-0.4,0.1-0.7,0.3-1.1,0.3c-0.4,0.1-0.8,0.1-1.3,0.1c-0.8,0-1.4-0.2-1.8-0.6s-0.6-1.2-0.6-2.3
		v-8.6h-1.6v-1.6h1.6v-4l1.9-1v5h3.2v1.6H480.6z"/>
	<path id="XMLID_39_" class="st0" d="M495.1,73c0,0.6-0.1,1.2-0.4,1.6c-0.3,0.5-0.6,0.8-1,1.1s-0.9,0.5-1.4,0.6
		c-0.5,0.1-1.1,0.2-1.6,0.2c-0.9,0-1.7-0.2-2.5-0.5c-0.8-0.3-1.4-0.7-2.1-1.2l1.1-1.3c0.5,0.5,1.1,0.8,1.7,1
		c0.6,0.2,1.2,0.4,1.8,0.4c0.9,0,1.5-0.2,2-0.5c0.4-0.3,0.6-0.8,0.6-1.5c0-0.3-0.1-0.5-0.2-0.7c-0.1-0.2-0.3-0.4-0.5-0.6
		c-0.2-0.2-0.5-0.4-0.9-0.6s-0.9-0.4-1.4-0.7c-0.6-0.3-1.2-0.5-1.6-0.8c-0.5-0.3-0.8-0.5-1.1-0.8s-0.5-0.6-0.6-1s-0.2-0.8-0.2-1.3
		c0-0.5,0.1-0.9,0.3-1.3c0.2-0.4,0.5-0.7,0.8-1c0.3-0.3,0.8-0.5,1.3-0.7c0.5-0.2,1-0.2,1.6-0.2c0.9,0,1.7,0.1,2.3,0.4
		c0.7,0.3,1.3,0.6,1.8,1l-1,1.3c-0.5-0.4-1-0.7-1.5-0.9c-0.5-0.2-1-0.3-1.7-0.3c-0.7,0-1.2,0.1-1.6,0.4c-0.4,0.3-0.5,0.7-0.5,1.1
		c0,0.3,0,0.5,0.1,0.7c0.1,0.2,0.2,0.4,0.5,0.6c0.2,0.2,0.5,0.4,0.9,0.6c0.4,0.2,0.8,0.4,1.4,0.6c0.6,0.3,1.1,0.5,1.6,0.8
		c0.5,0.2,0.9,0.5,1.2,0.8c0.3,0.3,0.6,0.7,0.8,1C495,72,495.1,72.4,495.1,73z"/>
	<path id="XMLID_37_" class="st0" d="M516.1,76.4h-1.7l-2.3-8.6c0-0.1-0.1-0.2-0.1-0.4c0-0.2-0.1-0.3-0.1-0.5c0-0.2-0.1-0.3-0.1-0.5
		c0-0.2-0.1-0.3-0.1-0.4c0,0.1,0,0.3-0.1,0.4c0,0.2-0.1,0.3-0.1,0.5s-0.1,0.3-0.1,0.5c0,0.2-0.1,0.3-0.1,0.4l-2.3,8.6h-1.6L504,63.5
		h1.9l2,8.5c0,0.1,0,0.2,0.1,0.4c0,0.2,0.1,0.3,0.1,0.5s0.1,0.3,0.1,0.5c0,0.2,0.1,0.3,0.1,0.4c0-0.1,0-0.3,0.1-0.4
		c0-0.2,0.1-0.3,0.1-0.5c0-0.2,0.1-0.3,0.1-0.5c0-0.2,0.1-0.3,0.1-0.4l2.3-8.5h1.7l2.3,8.5c0,0.1,0.1,0.2,0.1,0.4
		c0,0.2,0.1,0.3,0.1,0.5c0,0.2,0.1,0.3,0.1,0.5c0,0.2,0.1,0.3,0.1,0.4c0-0.1,0-0.3,0.1-0.4c0-0.2,0.1-0.3,0.1-0.5
		c0-0.2,0.1-0.3,0.1-0.5c0-0.2,0.1-0.3,0.1-0.4l2-8.5h1.8L516.1,76.4z"/>
	<path id="XMLID_35_" class="st0" d="M530.7,76.4v-7.5c0-1.4-0.2-2.4-0.7-3c-0.5-0.6-1.3-1-2.3-1c-0.9,0-1.6,0.3-2.2,1
		s-0.9,1.7-0.9,3.1v7.5h-1.9V59.6l1.9-1l0,6.5c0.4-0.5,0.9-1,1.4-1.3c0.6-0.3,1.3-0.5,2.1-0.5c0.7,0,1.3,0.1,1.9,0.3
		c0.6,0.2,1,0.5,1.4,1c0.4,0.4,0.7,1,0.9,1.6s0.3,1.5,0.3,2.4v7.8H530.7z"/>
	<path id="XMLID_32_" class="st0" d="M547,69.9c0,1.1-0.1,2.1-0.4,2.9s-0.7,1.5-1.2,2.1c-0.5,0.6-1.1,1-1.8,1.3
		c-0.7,0.3-1.4,0.4-2.2,0.4c-0.8,0-1.5-0.1-2.2-0.4c-0.7-0.3-1.3-0.7-1.7-1.3c-0.5-0.6-0.9-1.3-1.2-2.1c-0.3-0.8-0.4-1.8-0.4-2.9
		s0.1-2,0.4-2.9s0.7-1.5,1.2-2.1c0.5-0.6,1.1-1,1.8-1.3c0.7-0.3,1.4-0.4,2.2-0.4c0.8,0,1.5,0.1,2.2,0.4c0.7,0.3,1.3,0.7,1.7,1.2
		c0.5,0.6,0.9,1.2,1.2,2.1S547,68.8,547,69.9z M545.1,69.9c0-1.7-0.3-3-1-3.8c-0.7-0.8-1.6-1.3-2.7-1.3s-2,0.4-2.7,1.3
		c-0.7,0.8-1,2.1-1,3.8s0.3,3,1,3.8c0.7,0.9,1.6,1.3,2.7,1.3s2-0.4,2.7-1.3C544.8,72.9,545.1,71.6,545.1,69.9z"/>
	<path id="XMLID_30_" class="st0" d="M563.2,65.5c-0.3-0.1-0.5-0.3-0.8-0.4c-0.3-0.1-0.7-0.1-1.1-0.1c-0.9,0-1.6,0.3-2.1,1
		c-0.5,0.7-0.7,1.6-0.7,2.9v7.5h-1.9V63.5h1.9v1.6c0.3-0.5,0.7-1,1.3-1.3c0.6-0.4,1.2-0.5,1.9-0.5c0.5,0,0.9,0,1.2,0.1
		c0.3,0.1,0.6,0.1,0.8,0.2L563.2,65.5z"/>
	<path id="XMLID_27_" class="st0" d="M575.7,69.6c0,0.2,0,0.4,0,0.6c0,0.1,0,0.3-0.1,0.4h-8.5c0.1,1.4,0.4,2.5,1,3.3
		c0.6,0.8,1.5,1.2,2.5,1.2c0.7,0,1.4-0.1,1.9-0.3c0.5-0.2,1.1-0.5,1.6-0.9l0.9,1.3c-0.4,0.2-0.8,0.5-1.1,0.6s-0.7,0.3-1,0.5
		c-0.4,0.1-0.7,0.2-1.1,0.3c-0.4,0.1-0.8,0.1-1.3,0.1c-0.6,0-1.2-0.1-1.8-0.3c-0.6-0.2-1.2-0.6-1.7-1.1c-0.5-0.5-0.9-1.2-1.2-2.1
		c-0.3-0.9-0.5-1.9-0.5-3.2c0-1,0.1-1.9,0.4-2.8s0.6-1.5,1.1-2.1c0.5-0.6,1-1,1.7-1.3c0.6-0.3,1.3-0.5,2.1-0.5
		c0.8,0,1.6,0.2,2.2,0.5c0.6,0.3,1.2,0.7,1.6,1.3c0.4,0.6,0.8,1.2,1,2S575.7,68.7,575.7,69.6z M574.1,69.1c-0.1-1.3-0.4-2.3-0.9-3.1
		c-0.6-0.8-1.4-1.2-2.5-1.2c-1,0-1.7,0.3-2.3,1c-0.6,0.7-1,1.8-1.1,3.2H574.1z"/>
	<path id="XMLID_24_" class="st0" d="M586.9,81.1v-6.3c-0.5,0.5-1,0.9-1.6,1.3c-0.6,0.4-1.4,0.5-2.2,0.5c-0.6,0-1.2-0.1-1.8-0.4
		c-0.6-0.3-1-0.6-1.5-1.2c-0.4-0.5-0.7-1.2-1-2s-0.4-1.8-0.4-2.9c0-1.1,0.1-2.1,0.4-3c0.3-0.9,0.6-1.6,1-2.1c0.4-0.6,1-1,1.5-1.3
		c0.6-0.3,1.2-0.4,1.9-0.4c0.8,0,1.5,0.2,2.1,0.5c0.6,0.3,1.1,0.7,1.5,1.2v-1.4h1.9V80L586.9,81.1z M586.9,66.8
		c-0.4-0.5-0.8-1-1.4-1.4c-0.6-0.4-1.3-0.6-2-0.6c-1.1,0-1.9,0.4-2.4,1.3c-0.5,0.9-0.8,2.2-0.8,3.9c0,1.6,0.3,2.9,0.9,3.7
		c0.6,0.8,1.4,1.2,2.4,1.2c0.7,0,1.3-0.2,1.9-0.5c0.6-0.3,1.1-0.8,1.5-1.4V66.8z"/>
	<path id="XMLID_22_" class="st0" d="M600.8,76.4v-1.6c-0.4,0.5-0.9,1-1.4,1.3c-0.6,0.3-1.3,0.5-2.1,0.5c-0.7,0-1.3-0.1-1.9-0.3
		c-0.6-0.2-1-0.5-1.4-1c-0.4-0.4-0.7-1-0.9-1.6c-0.2-0.7-0.3-1.5-0.3-2.4v-7.8h1.9v7.5c0,1.4,0.2,2.4,0.7,3c0.5,0.6,1.3,1,2.3,1
		c0.9,0,1.6-0.3,2.2-1s0.9-1.7,0.9-3.1v-7.5h1.9v12.8H600.8z"/>
	<path id="XMLID_19_" class="st0" d="M609,60c0,0.4-0.1,0.7-0.4,0.9c-0.3,0.3-0.5,0.4-0.9,0.4c-0.4,0-0.7-0.1-1-0.4
		c-0.3-0.3-0.4-0.6-0.4-0.9c0-0.4,0.1-0.7,0.4-0.9c0.3-0.3,0.6-0.4,1-0.4c0.3,0,0.6,0.1,0.9,0.4C608.9,59.3,609,59.6,609,60z
		 M606.8,76.4V63.5h1.9v12.8H606.8z"/>
	<path id="XMLID_17_" class="st0" d="M619.3,65.5c-0.3-0.1-0.5-0.3-0.8-0.4c-0.3-0.1-0.7-0.1-1.1-0.1c-0.9,0-1.6,0.3-2.1,1
		c-0.5,0.7-0.7,1.6-0.7,2.9v7.5h-1.9V63.5h1.9v1.6c0.3-0.5,0.7-1,1.3-1.3c0.6-0.4,1.2-0.5,1.9-0.5c0.5,0,0.9,0,1.2,0.1
		c0.3,0.1,0.6,0.1,0.8,0.2L619.3,65.5z"/>
	<path id="XMLID_14_" class="st0" d="M631.9,69.6c0,0.2,0,0.4,0,0.6c0,0.1,0,0.3-0.1,0.4h-8.5c0.1,1.4,0.4,2.5,1,3.3
		c0.6,0.8,1.5,1.2,2.5,1.2c0.7,0,1.4-0.1,1.9-0.3c0.5-0.2,1.1-0.5,1.6-0.9l0.9,1.3c-0.4,0.2-0.8,0.5-1.1,0.6s-0.7,0.3-1,0.5
		c-0.4,0.1-0.7,0.2-1.1,0.3c-0.4,0.1-0.8,0.1-1.3,0.1c-0.6,0-1.2-0.1-1.8-0.3c-0.6-0.2-1.2-0.6-1.7-1.1c-0.5-0.5-0.9-1.2-1.2-2.1
		c-0.3-0.9-0.5-1.9-0.5-3.2c0-1,0.1-1.9,0.4-2.8s0.6-1.5,1.1-2.1c0.5-0.6,1-1,1.7-1.3c0.6-0.3,1.3-0.5,2.1-0.5
		c0.8,0,1.6,0.2,2.2,0.5c0.6,0.3,1.2,0.7,1.6,1.3c0.4,0.6,0.8,1.2,1,2S631.9,68.7,631.9,69.6z M630.2,69.1c-0.1-1.3-0.4-2.3-0.9-3.1
		c-0.6-0.8-1.4-1.2-2.5-1.2c-1,0-1.7,0.3-2.3,1c-0.6,0.7-1,1.8-1.1,3.2H630.2z"/>
	<path id="XMLID_12_" class="st0" d="M644,65.1v8.3c0,0.6,0.1,1,0.3,1.2c0.2,0.2,0.5,0.3,1,0.3c0.4,0,0.7,0,1-0.1
		c0.3-0.1,0.5-0.2,0.8-0.3l-0.1,1.6c-0.4,0.1-0.7,0.3-1.1,0.3c-0.4,0.1-0.8,0.1-1.3,0.1c-0.8,0-1.4-0.2-1.8-0.6s-0.6-1.2-0.6-2.3
		v-8.6h-1.6v-1.6h1.6v-4l1.9-1v5h3.2v1.6H644z"/>
	<path id="XMLID_10_" class="st0" d="M658.8,76.4v-7.5c0-1.4-0.2-2.4-0.7-3c-0.5-0.6-1.3-1-2.3-1c-0.9,0-1.6,0.3-2.2,1
		s-0.9,1.7-0.9,3.1v7.5h-1.9V59.6l1.9-1l0,6.5c0.4-0.5,0.9-1,1.4-1.3c0.6-0.3,1.3-0.5,2.1-0.5c0.7,0,1.3,0.1,1.9,0.3
		c0.6,0.2,1,0.5,1.4,1c0.4,0.4,0.7,1,0.9,1.6s0.3,1.5,0.3,2.4v7.8H658.8z"/>
	<path id="XMLID_7_" class="st0" d="M674.3,69.6c0,0.2,0,0.4,0,0.6c0,0.1,0,0.3-0.1,0.4h-8.5c0.1,1.4,0.4,2.5,1,3.3
		c0.6,0.8,1.5,1.2,2.5,1.2c0.7,0,1.4-0.1,1.9-0.3c0.5-0.2,1.1-0.5,1.6-0.9l0.9,1.3c-0.4,0.2-0.8,0.5-1.1,0.6s-0.7,0.3-1,0.5
		c-0.4,0.1-0.7,0.2-1.1,0.3c-0.4,0.1-0.8,0.1-1.3,0.1c-0.6,0-1.2-0.1-1.8-0.3c-0.6-0.2-1.2-0.6-1.7-1.1c-0.5-0.5-0.9-1.2-1.2-2.1
		c-0.3-0.9-0.5-1.9-0.5-3.2c0-1,0.1-1.9,0.4-2.8s0.6-1.5,1.1-2.1c0.5-0.6,1-1,1.7-1.3c0.6-0.3,1.3-0.5,2.1-0.5
		c0.8,0,1.6,0.2,2.2,0.5c0.6,0.3,1.2,0.7,1.6,1.3c0.4,0.6,0.8,1.2,1,2S674.3,68.7,674.3,69.6z M672.6,69.1c-0.1-1.3-0.4-2.3-0.9-3.1
		c-0.6-0.8-1.4-1.2-2.5-1.2c-1,0-1.7,0.3-2.3,1c-0.6,0.7-1,1.8-1.1,3.2H672.6z"/>
	<path id="XMLID_5_" class="st0" d="M692.6,76.4v-7.5c0-1.5-0.2-2.5-0.7-3.1c-0.5-0.6-1.1-0.9-2.1-0.9c-0.9,0-1.5,0.3-2.1,0.9
		c-0.5,0.6-0.8,1.7-0.8,3.1v7.5h-1.9v-7.5c0-1.5-0.2-2.5-0.7-3.1c-0.5-0.6-1.2-0.9-2-0.9c-0.9,0-1.6,0.3-2.1,0.9s-0.8,1.7-0.8,3.1
		v7.5h-1.9V63.5h1.9l0,1.6c0.3-0.6,0.8-1,1.3-1.3c0.5-0.3,1.2-0.5,2-0.5c0.9,0,1.6,0.2,2.2,0.6c0.6,0.4,1,0.9,1.3,1.6
		c0.2-0.3,0.4-0.6,0.6-0.9c0.2-0.3,0.5-0.5,0.8-0.7c0.3-0.2,0.7-0.4,1.1-0.5c0.4-0.1,0.9-0.2,1.4-0.2c1.3,0,2.3,0.4,3.1,1.2
		s1.2,2.2,1.2,4v7.8H692.6z"/>
	<path id="XMLID_3_" class="st0" d="M700.9,75.1c0,0.4-0.2,0.8-0.5,1.1s-0.7,0.5-1.1,0.5s-0.8-0.2-1.1-0.5s-0.5-0.7-0.5-1.1
		s0.2-0.8,0.5-1.1c0.3-0.3,0.7-0.5,1.1-0.5s0.8,0.2,1.1,0.5C700.8,74.3,700.9,74.6,700.9,75.1z"/>
</g>
<text id="XMLID_1_" transform="matrix(1 0 0 1 702.1812 68.2324)" class="st0 st1 st2">22</text>
</svg>
