<!-- Generator: Adobe Illustrator 22.1.0, SVG Export Plug-In  -->
<svg version="1.1"
	 xmlns="http://www.w3.org/2000/svg" xmlns:xlink="http://www.w3.org/1999/xlink" xmlns:a="http://ns.adobe.com/AdobeSVGViewerExtensions/3.0/"
	 x="0px" y="0px" width="965.6px" height="450.1px" viewBox="0 0 965.6 450.1" style="enable-background:new 0 0 965.6 450.1;"
	 xml:space="preserve">
<style type="text/css">
	.st0{fill:url(#XMLID_522_);}
	.st1{fill:#00ADEE;}
	.st2{fill:#522D6D;}
	.st3{fill:#236092;}
	.st4{fill:#FFFFFF;stroke:url(#XMLID_523_);stroke-width:2.0067;stroke-miterlimit:10;}
	.st5{fill:#FFF100;}
	.st6{fill:#5C2D90;}
	.st7{fill:none;stroke:url(#XMLID_524_);stroke-width:1.992;stroke-miterlimit:10;}
	.st8{fill:none;stroke:url(#XMLID_525_);stroke-width:1.992;stroke-miterlimit:10;}
	.st9{fill:none;stroke:url(#XMLID_526_);stroke-width:1.992;stroke-miterlimit:10;}
	.st10{fill:url(#XMLID_527_);stroke:url(#XMLID_528_);stroke-width:1.6242;stroke-miterlimit:10;}
	.st11{fill:#FFFFFF;}
	.st12{fill:none;stroke:#FFFFFF;stroke-width:1.992;stroke-miterlimit:10;}
	.st13{fill:none;stroke:url(#XMLID_529_);stroke-width:2.0067;stroke-miterlimit:10;}
	.st14{fill:url(#XMLID_530_);}
	.st15{fill:url(#XMLID_531_);}
	.st16{fill:#FFFFFF;stroke:url(#XMLID_532_);stroke-width:2.0067;stroke-miterlimit:10;}
	.st17{fill:none;stroke:url(#XMLID_533_);stroke-width:1.992;stroke-miterlimit:10;}
	.st18{fill:none;stroke:url(#XMLID_534_);stroke-width:1.992;stroke-miterlimit:10;}
	.st19{fill:none;stroke:url(#XMLID_535_);stroke-width:1.992;stroke-miterlimit:10;}
	.st20{fill:url(#XMLID_536_);stroke:url(#XMLID_537_);stroke-width:1.6242;stroke-miterlimit:10;}
	.st21{fill:none;stroke:url(#XMLID_538_);stroke-width:2.0067;stroke-miterlimit:10;}
	.st22{fill:url(#XMLID_539_);}
</style>
<defs>
</defs>
<g id="XMLID_1_">
	<g id="XMLID_56_">
		
			<radialGradient id="XMLID_522_" cx="-1755.0198" cy="6003.8315" r="348.5686" gradientTransform="matrix(-1 0 0 -2.799702e-02 -1215.4739 461.9008)" gradientUnits="userSpaceOnUse">
			<stop  offset="0" style="stop-color:#231F20"/>
			<stop  offset="1" style="stop-color:#FFFFFF"/>
		</radialGradient>
		<ellipse id="XMLID_521_" class="st0" cx="539.5" cy="293.8" rx="351.9" ry="7.9"/>
		<polygon id="XMLID_520_" class="st1" points="1.3,362.8 0,362.8 0,362.8 1.3,362.8 		"/>
		<g id="XMLID_381_">
			<path id="XMLID_518_" class="st2" d="M132.9,356v17.2h-3V356H124v-3h14.8v3H132.9z"/>
			<path id="XMLID_516_" class="st2" d="M151.1,373.2v-8.6c0-1.5-0.3-2.6-0.8-3.2s-1.3-0.9-2.3-0.9c-1,0-1.8,0.3-2.3,1
				c-0.5,0.7-0.8,1.6-0.8,2.9v8.8h-3v-19.5l3-1.6v7.4c0.4-0.6,0.9-1,1.6-1.3c0.7-0.3,1.4-0.5,2.2-0.5c1.8,0,3.1,0.6,4,1.7
				c0.9,1.1,1.4,2.8,1.4,5.1v8.7H151.1z"/>
			<path id="XMLID_513_" class="st2" d="M170.6,365.3c0,0.3,0,0.5,0,0.8c0,0.2,0,0.4-0.1,0.6h-10c0.1,0.7,0.2,1.4,0.5,1.9
				c0.2,0.5,0.5,0.9,0.9,1.3s0.7,0.6,1.2,0.8c0.4,0.2,0.9,0.2,1.3,0.2c0.6,0,1.2-0.1,1.7-0.3c0.5-0.2,1-0.5,1.5-0.9l1.8,1.9
				c-0.7,0.6-1.4,1.1-2.3,1.5s-1.8,0.5-3,0.5c-0.9,0-1.7-0.2-2.5-0.5s-1.5-0.9-2.1-1.5s-1.1-1.5-1.4-2.5c-0.3-1-0.5-2.1-0.5-3.3
				c0-1.3,0.2-2.4,0.5-3.4c0.3-1,0.8-1.8,1.4-2.5c0.6-0.7,1.3-1.2,2.1-1.5c0.8-0.3,1.7-0.5,2.7-0.5c1.1,0,2,0.2,2.8,0.6s1.5,1,2,1.6
				c0.5,0.7,0.9,1.5,1.2,2.4C170.5,363.3,170.6,364.3,170.6,365.3z M167.7,364.2c0-0.5-0.1-1-0.3-1.5c-0.1-0.5-0.4-0.9-0.7-1.2
				s-0.6-0.6-1.1-0.8s-1-0.3-1.6-0.3c-1,0-1.8,0.3-2.4,1c-0.6,0.7-0.9,1.6-1.1,2.8H167.7z"/>
			<path id="XMLID_510_" class="st2" d="M195.9,373.2l-1.7-4.8h-8.1l-1.7,4.8h-3.1l7.3-20.2h3.2l7.4,20.2H195.9z M191.7,361.1
				c-0.1-0.4-0.3-0.8-0.4-1.2c-0.2-0.4-0.3-0.9-0.4-1.3c-0.1-0.4-0.3-0.9-0.4-1.2c-0.1-0.4-0.2-0.7-0.3-0.9
				c-0.1,0.2-0.1,0.5-0.3,0.9c-0.1,0.4-0.2,0.8-0.4,1.2s-0.3,0.9-0.4,1.3s-0.3,0.9-0.4,1.2l-1.6,4.6h6.2L191.7,361.1z"/>
			<path id="XMLID_507_" class="st2" d="M211.4,373.2v-1.4c-0.6,0.5-1.2,0.9-1.8,1.3c-0.6,0.3-1.4,0.5-2.2,0.5s-1.6-0.2-2.3-0.5
				c-0.7-0.3-1.3-0.8-1.9-1.4c-0.5-0.7-0.9-1.5-1.2-2.5c-0.3-1-0.4-2.3-0.4-3.7c0-1.3,0.2-2.4,0.5-3.4c0.3-1,0.8-1.8,1.3-2.4
				c0.5-0.6,1.2-1.1,1.9-1.4c0.7-0.3,1.5-0.5,2.3-0.5c0.8,0,1.5,0.2,2.2,0.5c0.7,0.4,1.2,0.8,1.6,1.2v-5.8l3-1.5v21H211.4z
				 M211.5,362.5c-0.2-0.2-0.4-0.5-0.6-0.7c-0.3-0.2-0.5-0.4-0.8-0.6s-0.6-0.3-1-0.5c-0.4-0.1-0.7-0.2-1.1-0.2
				c-1.1,0-1.9,0.4-2.5,1.2c-0.6,0.8-0.8,2-0.8,3.6c0,1.9,0.3,3.3,0.9,4.2c0.6,0.9,1.4,1.3,2.5,1.3c0.7,0,1.4-0.2,2-0.6
				s1.1-0.8,1.5-1.3V362.5z"/>
			<path id="XMLID_505_" class="st2" d="M225.9,373.2h-3l-5.4-15.2h3.1l2.7,8.2c0.3,0.7,0.5,1.4,0.7,2.1c0.2,0.7,0.4,1.2,0.4,1.6
				c0.1-0.4,0.2-1,0.4-1.6c0.2-0.7,0.4-1.4,0.6-2.1l2.6-8.2h3.1L225.9,373.2z"/>
			<path id="XMLID_502_" class="st2" d="M246.2,365.3c0,0.3,0,0.5,0,0.8c0,0.2,0,0.4-0.1,0.6h-10c0.1,0.7,0.2,1.4,0.5,1.9
				c0.2,0.5,0.5,0.9,0.9,1.3s0.7,0.6,1.2,0.8c0.4,0.2,0.9,0.2,1.3,0.2c0.6,0,1.2-0.1,1.7-0.3c0.5-0.2,1-0.5,1.5-0.9l1.8,1.9
				c-0.7,0.6-1.4,1.1-2.3,1.5s-1.8,0.5-3,0.5c-0.9,0-1.7-0.2-2.5-0.5s-1.5-0.9-2.1-1.5s-1.1-1.5-1.4-2.5c-0.3-1-0.5-2.1-0.5-3.3
				c0-1.3,0.2-2.4,0.5-3.4c0.3-1,0.8-1.8,1.4-2.5c0.6-0.7,1.3-1.2,2.1-1.5c0.8-0.3,1.7-0.5,2.7-0.5c1.1,0,2,0.2,2.8,0.6s1.5,1,2,1.6
				c0.5,0.7,0.9,1.5,1.2,2.4C246,363.3,246.2,364.3,246.2,365.3z M243.2,364.2c0-0.5-0.1-1-0.3-1.5c-0.1-0.5-0.4-0.9-0.7-1.2
				s-0.6-0.6-1.1-0.8s-1-0.3-1.6-0.3c-1,0-1.8,0.3-2.4,1c-0.6,0.7-0.9,1.6-1.1,2.8H243.2z"/>
			<path id="XMLID_500_" class="st2" d="M258.1,361.2c-0.3-0.2-0.7-0.3-1-0.4c-0.3-0.1-0.8-0.1-1.3-0.1c-0.9,0-1.7,0.3-2.2,1
				c-0.5,0.7-0.8,1.6-0.8,2.9v8.7h-3v-15.2h3v1.4c0.3-0.5,0.8-0.9,1.4-1.3s1.3-0.5,2-0.5c0.6,0,1.1,0.1,1.5,0.2
				c0.4,0.1,0.7,0.3,1.1,0.5L258.1,361.2z"/>
			<path id="XMLID_498_" class="st2" d="M272,369.1c0,0.8-0.2,1.6-0.5,2.1c-0.3,0.6-0.7,1-1.3,1.4c-0.5,0.3-1.1,0.6-1.8,0.8
				c-0.7,0.2-1.4,0.2-2.2,0.2c-1,0-2.1-0.2-3.1-0.5c-1-0.4-1.9-0.8-2.7-1.4l1.4-2.3c0.7,0.5,1.4,0.9,2.2,1.1
				c0.8,0.3,1.5,0.4,2.2,0.4c1.8,0,2.8-0.6,2.8-1.7c0-0.6-0.3-1-0.9-1.4c-0.6-0.3-1.5-0.7-2.6-1.2c-0.8-0.3-1.5-0.6-2.1-0.9
				c-0.6-0.3-1-0.7-1.4-1c-0.4-0.4-0.6-0.8-0.8-1.2c-0.2-0.5-0.2-1-0.2-1.6c0-0.7,0.1-1.3,0.4-1.8c0.2-0.5,0.6-1,1.1-1.3
				c0.5-0.3,1-0.6,1.6-0.8c0.6-0.2,1.3-0.3,2.1-0.3c1,0,1.9,0.2,2.8,0.5c0.9,0.3,1.7,0.7,2.4,1.2l-1.3,2.3c-0.6-0.4-1.2-0.8-1.9-1
				c-0.6-0.2-1.3-0.3-2.1-0.3c-0.7,0-1.3,0.1-1.6,0.4c-0.3,0.3-0.5,0.6-0.5,1c0,0.2,0,0.4,0.1,0.5c0.1,0.2,0.2,0.3,0.4,0.5
				c0.2,0.2,0.5,0.4,0.9,0.5c0.4,0.2,0.8,0.4,1.4,0.6c0.9,0.3,1.6,0.6,2.2,0.9c0.6,0.3,1.2,0.6,1.6,1c0.4,0.4,0.8,0.8,1,1.3
				C271.9,367.7,272,368.4,272,369.1z"/>
			<path id="XMLID_495_" class="st2" d="M287.8,365.3c0,0.3,0,0.5,0,0.8c0,0.2,0,0.4-0.1,0.6h-10c0.1,0.7,0.2,1.4,0.5,1.9
				c0.2,0.5,0.5,0.9,0.9,1.3s0.7,0.6,1.2,0.8c0.4,0.2,0.9,0.2,1.3,0.2c0.6,0,1.2-0.1,1.7-0.3c0.5-0.2,1-0.5,1.5-0.9l1.8,1.9
				c-0.7,0.6-1.4,1.1-2.3,1.5s-1.8,0.5-3,0.5c-0.9,0-1.7-0.2-2.5-0.5s-1.5-0.9-2.1-1.5s-1.1-1.5-1.4-2.5c-0.3-1-0.5-2.1-0.5-3.3
				c0-1.3,0.2-2.4,0.5-3.4c0.3-1,0.8-1.8,1.4-2.5c0.6-0.7,1.3-1.2,2.1-1.5c0.8-0.3,1.7-0.5,2.7-0.5c1.1,0,2,0.2,2.8,0.6s1.5,1,2,1.6
				c0.5,0.7,0.9,1.5,1.2,2.4C287.7,363.3,287.8,364.3,287.8,365.3z M284.8,364.2c0-0.5-0.1-1-0.3-1.5c-0.1-0.5-0.4-0.9-0.7-1.2
				s-0.6-0.6-1.1-0.8s-1-0.3-1.6-0.3c-1,0-1.8,0.3-2.4,1c-0.6,0.7-0.9,1.6-1.1,2.8H284.8z"/>
			<path id="XMLID_493_" class="st2" d="M299.7,373.2V353h13v2.9h-10v5h5.8v2.9h-5.8v6.4h10.4v2.9H299.7z"/>
			<path id="XMLID_491_" class="st2" d="M322.8,373.2h-3l-5.4-15.2h3.1l2.7,8.2c0.3,0.7,0.5,1.4,0.7,2.1c0.2,0.7,0.4,1.2,0.4,1.6
				c0.1-0.4,0.2-1,0.4-1.6c0.2-0.7,0.4-1.4,0.6-2.1l2.6-8.2h3.1L322.8,373.2z"/>
			<path id="XMLID_488_" class="st2" d="M343,365.3c0,0.3,0,0.5,0,0.8c0,0.2,0,0.4-0.1,0.6h-10c0.1,0.7,0.2,1.4,0.5,1.9
				c0.2,0.5,0.5,0.9,0.9,1.3s0.7,0.6,1.2,0.8c0.4,0.2,0.9,0.2,1.3,0.2c0.6,0,1.2-0.1,1.7-0.3c0.5-0.2,1-0.5,1.5-0.9l1.8,1.9
				c-0.7,0.6-1.4,1.1-2.3,1.5s-1.8,0.5-3,0.5c-0.9,0-1.7-0.2-2.5-0.5s-1.5-0.9-2.1-1.5s-1.1-1.5-1.4-2.5c-0.3-1-0.5-2.1-0.5-3.3
				c0-1.3,0.2-2.4,0.5-3.4c0.3-1,0.8-1.8,1.4-2.5c0.6-0.7,1.3-1.2,2.1-1.5c0.8-0.3,1.7-0.5,2.7-0.5c1.1,0,2,0.2,2.8,0.6s1.5,1,2,1.6
				c0.5,0.7,0.9,1.5,1.2,2.4C342.9,363.3,343,364.3,343,365.3z M340.1,364.2c0-0.5-0.1-1-0.3-1.5c-0.1-0.5-0.4-0.9-0.7-1.2
				s-0.6-0.6-1.1-0.8s-1-0.3-1.6-0.3c-1,0-1.8,0.3-2.4,1c-0.6,0.7-0.9,1.6-1.1,2.8H340.1z"/>
			<path id="XMLID_485_" class="st2" d="M356,373.2v-8.6c0-1.5-0.3-2.6-0.8-3.2s-1.3-0.9-2.3-0.9c-1,0-1.8,0.3-2.3,1
				c-0.5,0.7-0.8,1.6-0.8,2.9v8.8h-3v-15.1h3v1.4c0.4-0.6,0.9-1,1.6-1.3c0.7-0.3,1.4-0.5,2.2-0.5c1.8,0,3.1,0.6,4,1.7
				c0.9,1.1,1.4,2.8,1.4,5.1v8.7H356z"/>
			<path id="XMLID_482_" class="st2" d="M370.3,372.9c-0.4,0.2-0.8,0.4-1.3,0.5c-0.5,0.1-1,0.2-1.6,0.2c-1.1,0-1.9-0.3-2.5-1
				s-0.9-1.7-0.9-3v-8.8h-2.2v-2.7h2.2v-4.3l2.9-1.6v5.9h3.8v2.7h-3.8v8.2c0,0.7,0.1,1.2,0.4,1.4c0.2,0.3,0.6,0.4,1.2,0.4
				c0.4,0,0.8-0.1,1.2-0.2c0.4-0.1,0.7-0.3,1-0.4L370.3,372.9z"/>
			<path id="XMLID_480_" class="st2" d="M385.1,369.1c0,0.8-0.2,1.6-0.5,2.1c-0.3,0.6-0.7,1-1.3,1.4c-0.5,0.3-1.1,0.6-1.8,0.8
				c-0.7,0.2-1.4,0.2-2.2,0.2c-1,0-2.1-0.2-3.1-0.5c-1-0.4-1.9-0.8-2.7-1.4l1.4-2.3c0.7,0.5,1.4,0.9,2.2,1.1
				c0.8,0.3,1.5,0.4,2.2,0.4c1.8,0,2.8-0.6,2.8-1.7c0-0.6-0.3-1-0.9-1.4c-0.6-0.3-1.5-0.7-2.6-1.2c-0.8-0.3-1.5-0.6-2.1-0.9
				c-0.6-0.3-1-0.7-1.4-1c-0.4-0.4-0.6-0.8-0.8-1.2c-0.2-0.5-0.2-1-0.2-1.6c0-0.7,0.1-1.3,0.4-1.8c0.2-0.5,0.6-1,1.1-1.3
				c0.5-0.3,1-0.6,1.6-0.8c0.6-0.2,1.3-0.3,2.1-0.3c1,0,1.9,0.2,2.8,0.5c0.9,0.3,1.7,0.7,2.4,1.2l-1.3,2.3c-0.6-0.4-1.2-0.8-1.9-1
				c-0.6-0.2-1.3-0.3-2.1-0.3c-0.7,0-1.3,0.1-1.6,0.4c-0.3,0.3-0.5,0.6-0.5,1c0,0.2,0,0.4,0.1,0.5c0.1,0.2,0.2,0.3,0.4,0.5
				c0.2,0.2,0.5,0.4,0.9,0.5c0.4,0.2,0.8,0.4,1.4,0.6c0.9,0.3,1.6,0.6,2.2,0.9c0.6,0.3,1.2,0.6,1.6,1c0.4,0.4,0.8,0.8,1,1.3
				C385,367.7,385.1,368.4,385.1,369.1z"/>
			<path id="XMLID_478_" class="st2" d="M413.9,373.2h-3.1l-3.1-13.1c0-0.2-0.1-0.4-0.1-0.7s-0.1-0.5-0.2-0.8
				c-0.1-0.3-0.1-0.5-0.2-0.7c0-0.2-0.1-0.4-0.1-0.5c0,0.1-0.1,0.3-0.1,0.5c0,0.2-0.1,0.5-0.2,0.7c-0.1,0.3-0.1,0.5-0.2,0.8
				s-0.1,0.5-0.1,0.7l-3.3,13.1h-3l-4.1-20.2h3.1l2.4,12.8c0,0.2,0.1,0.3,0.1,0.6c0,0.2,0.1,0.5,0.1,0.7s0.1,0.5,0.1,0.7
				c0,0.2,0.1,0.4,0.1,0.6c0-0.2,0.1-0.4,0.1-0.6c0-0.2,0.1-0.5,0.2-0.7c0.1-0.3,0.1-0.5,0.2-0.7s0.1-0.4,0.1-0.6l3.2-12.8h2.6
				l3.3,13.1c0.1,0.3,0.2,0.6,0.3,1.1c0.1,0.5,0.2,0.9,0.2,1.2c0.1-0.4,0.2-0.8,0.2-1.3c0.1-0.5,0.1-0.8,0.2-1.1l2.5-13.1h2.9
				L413.9,373.2z"/>
			<path id="XMLID_475_" class="st2" d="M432.6,365.3c0,0.3,0,0.5,0,0.8c0,0.2,0,0.4-0.1,0.6h-10c0.1,0.7,0.2,1.4,0.5,1.9
				c0.2,0.5,0.5,0.9,0.9,1.3s0.7,0.6,1.2,0.8c0.4,0.2,0.9,0.2,1.3,0.2c0.6,0,1.2-0.1,1.7-0.3c0.5-0.2,1-0.5,1.5-0.9l1.8,1.9
				c-0.7,0.6-1.4,1.1-2.3,1.5s-1.8,0.5-3,0.5c-0.9,0-1.7-0.2-2.5-0.5s-1.5-0.9-2.1-1.5s-1.1-1.5-1.4-2.5c-0.3-1-0.5-2.1-0.5-3.3
				c0-1.3,0.2-2.4,0.5-3.4c0.3-1,0.8-1.8,1.4-2.5c0.6-0.7,1.3-1.2,2.1-1.5c0.8-0.3,1.7-0.5,2.7-0.5c1.1,0,2,0.2,2.8,0.6s1.5,1,2,1.6
				c0.5,0.7,0.9,1.5,1.2,2.4C432.5,363.3,432.6,364.3,432.6,365.3z M429.6,364.2c0-0.5-0.1-1-0.3-1.5c-0.1-0.5-0.4-0.9-0.7-1.2
				s-0.6-0.6-1.1-0.8s-1-0.3-1.6-0.3c-1,0-1.8,0.3-2.4,1c-0.6,0.7-0.9,1.6-1.1,2.8H429.6z"/>
			<path id="XMLID_473_" class="st2" d="M444.6,361.2c-0.3-0.2-0.7-0.3-1-0.4c-0.3-0.1-0.8-0.1-1.3-0.1c-0.9,0-1.7,0.3-2.2,1
				c-0.5,0.7-0.8,1.6-0.8,2.9v8.7h-3v-15.2h3v1.4c0.3-0.5,0.8-0.9,1.4-1.3s1.3-0.5,2-0.5c0.6,0,1.1,0.1,1.5,0.2
				c0.4,0.1,0.7,0.3,1.1,0.5L444.6,361.2z"/>
			<path id="XMLID_470_" class="st2" d="M460,365.3c0,0.3,0,0.5,0,0.8c0,0.2,0,0.4-0.1,0.6h-10c0.1,0.7,0.2,1.4,0.5,1.9
				c0.2,0.5,0.5,0.9,0.9,1.3s0.7,0.6,1.2,0.8c0.4,0.2,0.9,0.2,1.3,0.2c0.6,0,1.2-0.1,1.7-0.3c0.5-0.2,1-0.5,1.5-0.9l1.8,1.9
				c-0.7,0.6-1.4,1.1-2.3,1.5s-1.8,0.5-3,0.5c-0.9,0-1.7-0.2-2.5-0.5s-1.5-0.9-2.1-1.5s-1.1-1.5-1.4-2.5c-0.3-1-0.5-2.1-0.5-3.3
				c0-1.3,0.2-2.4,0.5-3.4c0.3-1,0.8-1.8,1.4-2.5c0.6-0.7,1.3-1.2,2.1-1.5c0.8-0.3,1.7-0.5,2.7-0.5c1.1,0,2,0.2,2.8,0.6s1.5,1,2,1.6
				c0.5,0.7,0.9,1.5,1.2,2.4C459.8,363.3,460,364.3,460,365.3z M457,364.2c0-0.5-0.1-1-0.3-1.5c-0.1-0.5-0.4-0.9-0.7-1.2
				s-0.6-0.6-1.1-0.8s-1-0.3-1.6-0.3c-1,0-1.8,0.3-2.4,1c-0.6,0.7-0.9,1.6-1.1,2.8H457z"/>
			<path id="XMLID_468_" class="st3" d="M478.7,372.9c-0.4,0.2-0.8,0.4-1.3,0.5c-0.5,0.1-1,0.2-1.6,0.2c-1.1,0-1.9-0.3-2.5-1
				s-0.9-1.7-0.9-3v-8.8h-2.2v-2.7h2.2v-4.3l2.9-1.6v5.9h3.8v2.7h-3.8v8.2c0,0.7,0.1,1.2,0.4,1.4c0.2,0.3,0.6,0.4,1.2,0.4
				c0.4,0,0.8-0.1,1.2-0.2c0.4-0.1,0.7-0.3,1-0.4L478.7,372.9z"/>
			<path id="XMLID_466_" class="st3" d="M491.4,361.2c-0.3-0.2-0.7-0.3-1-0.4c-0.3-0.1-0.8-0.1-1.3-0.1c-0.9,0-1.7,0.3-2.2,1
				c-0.5,0.7-0.8,1.6-0.8,2.9v8.7h-3v-15.2h3v1.4c0.3-0.5,0.8-0.9,1.4-1.3s1.3-0.5,2-0.5c0.6,0,1.1,0.1,1.5,0.2
				c0.4,0.1,0.7,0.3,1.1,0.5L491.4,361.2z"/>
			<path id="XMLID_463_" class="st3" d="M502.9,373.2v-1.5c-0.5,0.5-1.1,1-1.8,1.3c-0.7,0.3-1.5,0.5-2.3,0.5c-0.6,0-1.2-0.1-1.9-0.3
				c-0.6-0.2-1.2-0.5-1.7-0.9s-0.9-0.9-1.2-1.6c-0.3-0.7-0.5-1.4-0.5-2.4c0-0.8,0.2-1.6,0.5-2.2c0.3-0.6,0.7-1.1,1.3-1.5
				c0.5-0.4,1.2-0.7,1.9-0.9c0.7-0.2,1.5-0.3,2.4-0.3c1.4,0,2.5,0.2,3.4,0.6V363c0-0.8-0.2-1.5-0.7-1.9c-0.5-0.4-1.2-0.7-2.1-0.7
				c-0.8,0-1.5,0.1-2.1,0.2c-0.6,0.2-1.2,0.4-1.8,0.7l-1.2-2.3c0.7-0.4,1.5-0.8,2.3-1c0.8-0.2,1.8-0.3,2.9-0.3
				c1.7,0,3.1,0.4,4.1,1.3c1,0.8,1.6,2.1,1.6,3.8v10.4H502.9z M502.9,366.8c-0.4-0.2-0.9-0.4-1.4-0.5c-0.5-0.1-1.2-0.2-2-0.2
				c-1,0-1.7,0.2-2.3,0.6s-0.8,1-0.8,1.6c0,0.8,0.2,1.4,0.7,1.8c0.5,0.5,1.2,0.7,2.2,0.7c0.8,0,1.5-0.2,2.2-0.6
				c0.6-0.4,1.1-0.8,1.5-1.3V366.8z"/>
			<path id="XMLID_461_" class="st3" d="M519.3,373.2v-8.6c0-1.5-0.3-2.6-0.8-3.2s-1.3-0.9-2.3-0.9c-1,0-1.8,0.3-2.3,1
				c-0.5,0.7-0.8,1.6-0.8,2.9v8.8h-3v-15.1h3v1.4c0.4-0.6,0.9-1,1.6-1.3c0.7-0.3,1.4-0.5,2.2-0.5c1.8,0,3.1,0.6,4,1.7
				c0.9,1.1,1.4,2.8,1.4,5.1v8.7H519.3z"/>
			<path id="XMLID_459_" class="st3" d="M537.2,369.1c0,0.8-0.2,1.6-0.5,2.1c-0.3,0.6-0.7,1-1.3,1.4c-0.5,0.3-1.1,0.6-1.8,0.8
				c-0.7,0.2-1.4,0.2-2.2,0.2c-1,0-2.1-0.2-3.1-0.5c-1-0.4-1.9-0.8-2.7-1.4l1.4-2.3c0.7,0.5,1.4,0.9,2.2,1.1
				c0.8,0.3,1.5,0.4,2.2,0.4c1.8,0,2.8-0.6,2.8-1.7c0-0.6-0.3-1-0.9-1.4c-0.6-0.3-1.5-0.7-2.6-1.2c-0.8-0.3-1.5-0.6-2.1-0.9
				c-0.6-0.3-1-0.7-1.4-1c-0.4-0.4-0.6-0.8-0.8-1.2c-0.2-0.5-0.2-1-0.2-1.6c0-0.7,0.1-1.3,0.4-1.8c0.2-0.5,0.6-1,1.1-1.3
				c0.5-0.3,1-0.6,1.6-0.8c0.6-0.2,1.3-0.3,2.1-0.3c1,0,1.9,0.2,2.8,0.5c0.9,0.3,1.7,0.7,2.4,1.2l-1.3,2.3c-0.6-0.4-1.2-0.8-1.9-1
				c-0.6-0.2-1.3-0.3-2.1-0.3c-0.7,0-1.3,0.1-1.6,0.4c-0.3,0.3-0.5,0.6-0.5,1c0,0.2,0,0.4,0.1,0.5c0.1,0.2,0.2,0.3,0.4,0.5
				c0.2,0.2,0.5,0.4,0.9,0.5c0.4,0.2,0.8,0.4,1.4,0.6c0.9,0.3,1.6,0.6,2.2,0.9c0.6,0.3,1.2,0.6,1.6,1c0.4,0.4,0.8,0.8,1,1.3
				C537.1,367.7,537.2,368.4,537.2,369.1z"/>
			<path id="XMLID_456_" class="st3" d="M544.5,354.2c0,0.5-0.2,1-0.6,1.3c-0.4,0.4-0.8,0.6-1.3,0.6c-0.5,0-1-0.2-1.4-0.6
				c-0.4-0.4-0.6-0.8-0.6-1.3c0-0.5,0.2-1,0.6-1.4c0.4-0.4,0.8-0.6,1.4-0.6c0.5,0,1,0.2,1.3,0.6
				C544.3,353.2,544.5,353.7,544.5,354.2z M541.1,373.2v-15.2h3v15.2H541.1z"/>
			<path id="XMLID_453_" class="st3" d="M560.9,365.3c0,0.3,0,0.5,0,0.8c0,0.2,0,0.4-0.1,0.6h-10c0.1,0.7,0.2,1.4,0.5,1.9
				c0.2,0.5,0.5,0.9,0.9,1.3s0.7,0.6,1.2,0.8c0.4,0.2,0.9,0.2,1.3,0.2c0.6,0,1.2-0.1,1.7-0.3c0.5-0.2,1-0.5,1.5-0.9l1.8,1.9
				c-0.7,0.6-1.4,1.1-2.3,1.5s-1.8,0.5-3,0.5c-0.9,0-1.7-0.2-2.5-0.5s-1.5-0.9-2.1-1.5s-1.1-1.5-1.4-2.5c-0.3-1-0.5-2.1-0.5-3.3
				c0-1.3,0.2-2.4,0.5-3.4c0.3-1,0.8-1.8,1.4-2.5c0.6-0.7,1.3-1.2,2.1-1.5c0.8-0.3,1.7-0.5,2.7-0.5c1.1,0,2,0.2,2.8,0.6s1.5,1,2,1.6
				c0.5,0.7,0.9,1.5,1.2,2.4C560.8,363.3,560.9,364.3,560.9,365.3z M557.9,364.2c0-0.5-0.1-1-0.3-1.5c-0.1-0.5-0.4-0.9-0.7-1.2
				s-0.6-0.6-1.1-0.8s-1-0.3-1.6-0.3c-1,0-1.8,0.3-2.4,1c-0.6,0.7-0.9,1.6-1.1,2.8H557.9z"/>
			<path id="XMLID_451_" class="st3" d="M573.8,373.2v-8.6c0-1.5-0.3-2.6-0.8-3.2s-1.3-0.9-2.3-0.9c-1,0-1.8,0.3-2.3,1
				c-0.5,0.7-0.8,1.6-0.8,2.9v8.8h-3v-15.1h3v1.4c0.4-0.6,0.9-1,1.6-1.3c0.7-0.3,1.4-0.5,2.2-0.5c1.8,0,3.1,0.6,4,1.7
				c0.9,1.1,1.4,2.8,1.4,5.1v8.7H573.8z"/>
			<path id="XMLID_449_" class="st3" d="M588.2,372.9c-0.4,0.2-0.8,0.4-1.3,0.5c-0.5,0.1-1,0.2-1.6,0.2c-1.1,0-1.9-0.3-2.5-1
				s-0.9-1.7-0.9-3v-8.8h-2.2v-2.7h2.2v-4.3l2.9-1.6v5.9h3.8v2.7h-3.8v8.2c0,0.7,0.1,1.2,0.4,1.4c0.2,0.3,0.6,0.4,1.2,0.4
				c0.4,0,0.8-0.1,1.2-0.2c0.4-0.1,0.7-0.3,1-0.4L588.2,372.9z"/>
			<path id="XMLID_446_" class="st2" d="M609.1,373.2v-1.5c-0.5,0.5-1.1,1-1.8,1.3c-0.7,0.3-1.5,0.5-2.3,0.5c-0.6,0-1.2-0.1-1.9-0.3
				c-0.6-0.2-1.2-0.5-1.7-0.9s-0.9-0.9-1.2-1.6c-0.3-0.7-0.5-1.4-0.5-2.4c0-0.8,0.2-1.6,0.5-2.2c0.3-0.6,0.7-1.1,1.3-1.5
				c0.5-0.4,1.2-0.7,1.9-0.9c0.7-0.2,1.5-0.3,2.4-0.3c1.4,0,2.5,0.2,3.4,0.6V363c0-0.8-0.2-1.5-0.7-1.9c-0.5-0.4-1.2-0.7-2.1-0.7
				c-0.8,0-1.5,0.1-2.1,0.2c-0.6,0.2-1.2,0.4-1.8,0.7l-1.2-2.3c0.7-0.4,1.5-0.8,2.3-1c0.8-0.2,1.8-0.3,2.9-0.3
				c1.7,0,3.1,0.4,4.1,1.3c1,0.8,1.6,2.1,1.6,3.8v10.4H609.1z M609.1,366.8c-0.4-0.2-0.9-0.4-1.4-0.5c-0.5-0.1-1.2-0.2-2-0.2
				c-1,0-1.7,0.2-2.3,0.6s-0.8,1-0.8,1.6c0,0.8,0.2,1.4,0.7,1.8c0.5,0.5,1.2,0.7,2.2,0.7c0.8,0,1.5-0.2,2.2-0.6
				c0.6-0.4,1.1-0.8,1.5-1.3V366.8z"/>
			<path id="XMLID_444_" class="st2" d="M625.5,373.2v-8.6c0-1.5-0.3-2.6-0.8-3.2s-1.3-0.9-2.3-0.9c-1,0-1.8,0.3-2.3,1
				c-0.5,0.7-0.8,1.6-0.8,2.9v8.8h-3v-15.1h3v1.4c0.4-0.6,0.9-1,1.6-1.3c0.7-0.3,1.4-0.5,2.2-0.5c1.8,0,3.1,0.6,4,1.7
				c0.9,1.1,1.4,2.8,1.4,5.1v8.7H625.5z"/>
			<path id="XMLID_441_" class="st2" d="M641.8,373.2v-1.4c-0.6,0.5-1.2,0.9-1.8,1.3c-0.6,0.3-1.4,0.5-2.2,0.5s-1.6-0.2-2.3-0.5
				c-0.7-0.3-1.3-0.8-1.9-1.4c-0.5-0.7-0.9-1.5-1.2-2.5c-0.3-1-0.4-2.3-0.4-3.7c0-1.3,0.2-2.4,0.5-3.4c0.3-1,0.8-1.8,1.3-2.4
				c0.5-0.6,1.2-1.1,1.9-1.4c0.7-0.3,1.5-0.5,2.3-0.5c0.8,0,1.5,0.2,2.2,0.5c0.7,0.4,1.2,0.8,1.6,1.2v-5.8l3-1.5v21H641.8z
				 M641.9,362.5c-0.2-0.2-0.4-0.5-0.6-0.7c-0.3-0.2-0.5-0.4-0.8-0.6s-0.6-0.3-1-0.5c-0.4-0.1-0.7-0.2-1.1-0.2
				c-1.1,0-1.9,0.4-2.5,1.2c-0.6,0.8-0.8,2-0.8,3.6c0,1.9,0.3,3.3,0.9,4.2c0.6,0.9,1.4,1.3,2.5,1.3c0.7,0,1.4-0.2,2-0.6
				s1.1-0.8,1.5-1.3V362.5z"/>
			<path id="XMLID_439_" class="st2" d="M674.6,373.2v-8.6c0-1.5-0.2-2.6-0.7-3.2s-1.2-0.9-2.2-0.9c-1,0-1.7,0.3-2.2,1
				c-0.5,0.7-0.7,1.6-0.7,2.9v8.8h-3v-8.6c0-1.5-0.2-2.6-0.7-3.2s-1.2-0.9-2.2-0.9c-1,0-1.7,0.3-2.2,1c-0.5,0.7-0.7,1.6-0.7,2.9v8.8
				h-3v-15.1h3v1.4c0.4-0.6,0.9-1,1.5-1.3c0.6-0.3,1.3-0.5,2.1-0.5c1,0,1.9,0.2,2.6,0.6c0.7,0.4,1.2,0.9,1.6,1.7
				c0.3-0.4,0.6-0.7,0.9-0.9c0.3-0.3,0.6-0.5,1-0.7c0.4-0.2,0.8-0.3,1.2-0.5c0.5-0.1,1-0.2,1.6-0.2c1.8,0,3.1,0.6,3.9,1.7
				c0.8,1.1,1.3,2.8,1.3,5.1v8.7H674.6z"/>
			<path id="XMLID_436_" class="st2" d="M694.6,365.6c0,1.3-0.2,2.4-0.5,3.4c-0.3,1-0.8,1.8-1.4,2.5c-0.6,0.7-1.3,1.2-2.2,1.6
				c-0.8,0.4-1.7,0.5-2.7,0.5c-1,0-1.8-0.2-2.7-0.6c-0.8-0.4-1.5-0.9-2.1-1.6s-1.1-1.5-1.4-2.5c-0.3-1-0.5-2-0.5-3.2
				c0-1.2,0.2-2.3,0.5-3.3c0.3-1,0.8-1.8,1.4-2.5c0.6-0.7,1.3-1.2,2.1-1.6c0.8-0.4,1.7-0.5,2.7-0.5c1,0,1.9,0.2,2.7,0.6
				s1.5,0.9,2.1,1.6s1.1,1.5,1.4,2.5C694.4,363.3,694.6,364.4,694.6,365.6z M691.6,365.7c0-1.6-0.3-2.8-1-3.7
				c-0.7-0.9-1.6-1.4-2.9-1.4c-1.1,0-2,0.5-2.7,1.4c-0.6,0.9-1,2.1-1,3.6c0,1.7,0.3,3,1,3.8c0.7,0.9,1.6,1.3,2.8,1.3
				c0.6,0,1.1-0.1,1.5-0.4s0.9-0.6,1.2-1.1s0.6-1,0.8-1.6S691.6,366.4,691.6,365.7z"/>
			<path id="XMLID_434_" class="st2" d="M708.6,369.1c0,0.8-0.2,1.6-0.5,2.1c-0.3,0.6-0.7,1-1.3,1.4c-0.5,0.3-1.1,0.6-1.8,0.8
				c-0.7,0.2-1.4,0.2-2.2,0.2c-1,0-2.1-0.2-3.1-0.5c-1-0.4-1.9-0.8-2.7-1.4l1.4-2.3c0.7,0.5,1.4,0.9,2.2,1.1
				c0.8,0.3,1.5,0.4,2.2,0.4c1.8,0,2.8-0.6,2.8-1.7c0-0.6-0.3-1-0.9-1.4c-0.6-0.3-1.5-0.7-2.6-1.2c-0.8-0.3-1.5-0.6-2.1-0.9
				c-0.6-0.3-1-0.7-1.4-1c-0.4-0.4-0.6-0.8-0.8-1.2c-0.2-0.5-0.2-1-0.2-1.6c0-0.7,0.1-1.3,0.4-1.8c0.2-0.5,0.6-1,1.1-1.3
				c0.5-0.3,1-0.6,1.6-0.8c0.6-0.2,1.3-0.3,2.1-0.3c1,0,1.9,0.2,2.8,0.5c0.9,0.3,1.7,0.7,2.4,1.2l-1.3,2.3c-0.6-0.4-1.2-0.8-1.9-1
				c-0.6-0.2-1.3-0.3-2.1-0.3c-0.7,0-1.3,0.1-1.6,0.4c-0.3,0.3-0.5,0.6-0.5,1c0,0.2,0,0.4,0.1,0.5c0.1,0.2,0.2,0.3,0.4,0.5
				c0.2,0.2,0.5,0.4,0.9,0.5c0.4,0.2,0.8,0.4,1.4,0.6c0.9,0.3,1.6,0.6,2.2,0.9c0.6,0.3,1.2,0.6,1.6,1c0.4,0.4,0.8,0.8,1,1.3
				C708.5,367.7,708.6,368.4,708.6,369.1z"/>
			<path id="XMLID_432_" class="st2" d="M719.4,372.9c-0.4,0.2-0.8,0.4-1.3,0.5c-0.5,0.1-1,0.2-1.6,0.2c-1.1,0-1.9-0.3-2.5-1
				s-0.9-1.7-0.9-3v-8.8h-2.2v-2.7h2.2v-4.3l2.9-1.6v5.9h3.8v2.7H716v8.2c0,0.7,0.1,1.2,0.4,1.4c0.2,0.3,0.6,0.4,1.2,0.4
				c0.4,0,0.8-0.1,1.2-0.2c0.4-0.1,0.7-0.3,1-0.4L719.4,372.9z"/>
			<path id="XMLID_430_" class="st2" d="M731.7,373.2v-19.5l3-1.6v21.1H731.7z"/>
			<path id="XMLID_427_" class="st2" d="M742.8,354.2c0,0.5-0.2,1-0.6,1.3c-0.4,0.4-0.8,0.6-1.3,0.6c-0.5,0-1-0.2-1.4-0.6
				c-0.4-0.4-0.6-0.8-0.6-1.3c0-0.5,0.2-1,0.6-1.4c0.4-0.4,0.8-0.6,1.4-0.6c0.5,0,1,0.2,1.3,0.6
				C742.6,353.2,742.8,353.7,742.8,354.2z M739.4,373.2v-15.2h3v15.2H739.4z"/>
			<path id="XMLID_425_" class="st2" d="M755.5,373.2l-3.3-7.5l-2.3,3.1v4.5h-3v-19.5l3-1.6v9.6c0,0.2,0,0.5,0,0.8s0,0.6,0,0.9
				s0,0.6,0,0.9s0,0.5,0,0.7c0.2-0.3,0.5-0.7,0.8-1.2c0.3-0.5,0.6-0.9,0.9-1.3l3.1-4.4h3.4l-3.8,5.1l4.6,10.1H755.5z"/>
			<path id="XMLID_419_" class="st2" d="M773.7,365.3c0,0.3,0,0.5,0,0.8c0,0.2,0,0.4-0.1,0.6h-10c0.1,0.7,0.2,1.4,0.5,1.9
				c0.2,0.5,0.5,0.9,0.9,1.3s0.7,0.6,1.2,0.8c0.4,0.2,0.9,0.2,1.3,0.2c0.6,0,1.2-0.1,1.7-0.3c0.5-0.2,1-0.5,1.5-0.9l1.8,1.9
				c-0.7,0.6-1.4,1.1-2.3,1.5s-1.8,0.5-3,0.5c-0.9,0-1.7-0.2-2.5-0.5s-1.5-0.9-2.1-1.5s-1.1-1.5-1.4-2.5c-0.3-1-0.5-2.1-0.5-3.3
				c0-1.3,0.2-2.4,0.5-3.4c0.3-1,0.8-1.8,1.4-2.5c0.6-0.7,1.3-1.2,2.1-1.5c0.8-0.3,1.7-0.5,2.7-0.5c1.1,0,2,0.2,2.8,0.6s1.5,1,2,1.6
				c0.5,0.7,0.9,1.5,1.2,2.4C773.6,363.3,773.7,364.3,773.7,365.3z M770.7,364.2c0-0.5-0.1-1-0.3-1.5c-0.1-0.5-0.4-0.9-0.7-1.2
				s-0.6-0.6-1.1-0.8s-1-0.3-1.6-0.3c-1,0-1.8,0.3-2.4,1c-0.6,0.7-0.9,1.6-1.1,2.8H770.7z"/>
			<path id="XMLID_415_" class="st2" d="M777.6,373.2v-19.5l3-1.6v21.1H777.6z"/>
			<path id="XMLID_411_" class="st2" d="M790.4,378.6h-3.1l2.2-5.6l-5.6-14.9h3.3l2.5,7.4c0.1,0.3,0.2,0.7,0.4,1.1
				c0.1,0.4,0.3,0.8,0.4,1.3c0.1,0.4,0.2,0.8,0.3,1.2c0.1,0.4,0.2,0.6,0.2,0.9c0.1-0.2,0.1-0.5,0.2-0.9c0.1-0.4,0.2-0.7,0.3-1.1
				c0.1-0.4,0.3-0.8,0.4-1.2s0.3-0.8,0.4-1.1l2.6-7.5h3.1L790.4,378.6z"/>
			<path id="XMLID_406_" class="st2" d="M817.2,361.2c-0.3-0.2-0.7-0.3-1-0.4c-0.3-0.1-0.8-0.1-1.3-0.1c-0.9,0-1.7,0.3-2.2,1
				c-0.5,0.7-0.8,1.6-0.8,2.9v8.7h-3v-15.2h3v1.4c0.3-0.5,0.8-0.9,1.4-1.3s1.3-0.5,2-0.5c0.6,0,1.1,0.1,1.5,0.2
				c0.4,0.1,0.7,0.3,1.1,0.5L817.2,361.2z"/>
			<path id="XMLID_403_" class="st2" d="M832.6,365.3c0,0.3,0,0.5,0,0.8c0,0.2,0,0.4-0.1,0.6h-10c0.1,0.7,0.2,1.4,0.5,1.9
				c0.2,0.5,0.5,0.9,0.9,1.3s0.7,0.6,1.2,0.8c0.4,0.2,0.9,0.2,1.3,0.2c0.6,0,1.2-0.1,1.7-0.3c0.5-0.2,1-0.5,1.5-0.9l1.8,1.9
				c-0.7,0.6-1.4,1.1-2.3,1.5s-1.8,0.5-3,0.5c-0.9,0-1.7-0.2-2.5-0.5s-1.5-0.9-2.1-1.5s-1.1-1.5-1.4-2.5c-0.3-1-0.5-2.1-0.5-3.3
				c0-1.3,0.2-2.4,0.5-3.4c0.3-1,0.8-1.8,1.4-2.5c0.6-0.7,1.3-1.2,2.1-1.5c0.8-0.3,1.7-0.5,2.7-0.5c1.1,0,2,0.2,2.8,0.6s1.5,1,2,1.6
				c0.5,0.7,0.9,1.5,1.2,2.4C832.4,363.3,832.6,364.3,832.6,365.3z M829.6,364.2c0-0.5-0.1-1-0.3-1.5c-0.1-0.5-0.4-0.9-0.7-1.2
				s-0.6-0.6-1.1-0.8s-1-0.3-1.6-0.3c-1,0-1.8,0.3-2.4,1c-0.6,0.7-0.9,1.6-1.1,2.8H829.6z"/>
			<path id="XMLID_401_" class="st2" d="M836.4,373.2v-19.5l3-1.6v21.1H836.4z"/>
			<path id="XMLID_398_" class="st2" d="M852.6,373.2v-1.5c-0.5,0.5-1.1,1-1.8,1.3c-0.7,0.3-1.5,0.5-2.3,0.5c-0.6,0-1.2-0.1-1.9-0.3
				c-0.6-0.2-1.2-0.5-1.7-0.9s-0.9-0.9-1.2-1.6c-0.3-0.7-0.5-1.4-0.5-2.4c0-0.8,0.2-1.6,0.5-2.2c0.3-0.6,0.7-1.1,1.3-1.5
				c0.5-0.4,1.2-0.7,1.9-0.9c0.7-0.2,1.5-0.3,2.4-0.3c1.4,0,2.5,0.2,3.4,0.6V363c0-0.8-0.2-1.5-0.7-1.9c-0.5-0.4-1.2-0.7-2.1-0.7
				c-0.8,0-1.5,0.1-2.1,0.2c-0.6,0.2-1.2,0.4-1.8,0.7l-1.2-2.3c0.7-0.4,1.5-0.8,2.3-1c0.8-0.2,1.8-0.3,2.9-0.3
				c1.7,0,3.1,0.4,4.1,1.3c1,0.8,1.6,2.1,1.6,3.8v10.4H852.6z M852.6,366.8c-0.4-0.2-0.9-0.4-1.4-0.5c-0.5-0.1-1.2-0.2-2-0.2
				c-1,0-1.7,0.2-2.3,0.6s-0.8,1-0.8,1.6c0,0.8,0.2,1.4,0.7,1.8c0.5,0.5,1.2,0.7,2.2,0.7c0.8,0,1.5-0.2,2.2-0.6
				c0.6-0.4,1.1-0.8,1.5-1.3V366.8z"/>
			<path id="XMLID_396_" class="st2" d="M867.1,372.9c-0.4,0.2-0.8,0.4-1.3,0.5c-0.5,0.1-1,0.2-1.6,0.2c-1.1,0-1.9-0.3-2.5-1
				s-0.9-1.7-0.9-3v-8.8h-2.2v-2.7h2.2v-4.3l2.9-1.6v5.9h3.8v2.7h-3.8v8.2c0,0.7,0.1,1.2,0.4,1.4c0.2,0.3,0.6,0.4,1.2,0.4
				c0.4,0,0.8-0.1,1.2-0.2c0.4-0.1,0.7-0.3,1-0.4L867.1,372.9z"/>
			<path id="XMLID_393_" class="st2" d="M883.2,365.3c0,0.3,0,0.5,0,0.8c0,0.2,0,0.4-0.1,0.6h-10c0.1,0.7,0.2,1.4,0.5,1.9
				c0.2,0.5,0.5,0.9,0.9,1.3s0.7,0.6,1.2,0.8c0.4,0.2,0.9,0.2,1.3,0.2c0.6,0,1.2-0.1,1.7-0.3c0.5-0.2,1-0.5,1.5-0.9l1.8,1.9
				c-0.7,0.6-1.4,1.1-2.3,1.5s-1.8,0.5-3,0.5c-0.9,0-1.7-0.2-2.5-0.5s-1.5-0.9-2.1-1.5s-1.1-1.5-1.4-2.5c-0.3-1-0.5-2.1-0.5-3.3
				c0-1.3,0.2-2.4,0.5-3.4c0.3-1,0.8-1.8,1.4-2.5c0.6-0.7,1.3-1.2,2.1-1.5c0.8-0.3,1.7-0.5,2.7-0.5c1.1,0,2,0.2,2.8,0.6s1.5,1,2,1.6
				c0.5,0.7,0.9,1.5,1.2,2.4C883,363.3,883.2,364.3,883.2,365.3z M880.2,364.2c0-0.5-0.1-1-0.3-1.5c-0.1-0.5-0.4-0.9-0.7-1.2
				s-0.6-0.6-1.1-0.8s-1-0.3-1.6-0.3c-1,0-1.8,0.3-2.4,1c-0.6,0.7-0.9,1.6-1.1,2.8H880.2z"/>
			<path id="XMLID_390_" class="st2" d="M896,373.2v-1.4c-0.6,0.5-1.2,0.9-1.8,1.3c-0.6,0.3-1.4,0.5-2.2,0.5s-1.6-0.2-2.3-0.5
				c-0.7-0.3-1.3-0.8-1.9-1.4c-0.5-0.7-0.9-1.5-1.2-2.5c-0.3-1-0.4-2.3-0.4-3.7c0-1.3,0.2-2.4,0.5-3.4c0.3-1,0.8-1.8,1.3-2.4
				c0.5-0.6,1.2-1.1,1.9-1.4c0.7-0.3,1.5-0.5,2.3-0.5c0.8,0,1.5,0.2,2.2,0.5c0.7,0.4,1.2,0.8,1.6,1.2v-5.8l3-1.5v21H896z M896,362.5
				c-0.2-0.2-0.4-0.5-0.6-0.7c-0.3-0.2-0.5-0.4-0.8-0.6s-0.6-0.3-1-0.5c-0.4-0.1-0.7-0.2-1.1-0.2c-1.1,0-1.9,0.4-2.5,1.2
				c-0.6,0.8-0.8,2-0.8,3.6c0,1.9,0.3,3.3,0.9,4.2c0.6,0.9,1.4,1.3,2.5,1.3c0.7,0,1.4-0.2,2-0.6s1.1-0.8,1.5-1.3V362.5z"/>
			<path id="XMLID_388_" class="st2" d="M918.4,372.9c-0.4,0.2-0.8,0.4-1.3,0.5c-0.5,0.1-1,0.2-1.6,0.2c-1.1,0-1.9-0.3-2.5-1
				s-0.9-1.7-0.9-3v-8.8h-2.2v-2.7h2.2v-4.3l2.9-1.6v5.9h3.8v2.7H915v8.2c0,0.7,0.1,1.2,0.4,1.4c0.2,0.3,0.6,0.4,1.2,0.4
				c0.4,0,0.8-0.1,1.2-0.2c0.4-0.1,0.7-0.3,1-0.4L918.4,372.9z"/>
			<path id="XMLID_385_" class="st2" d="M935,365.6c0,1.3-0.2,2.4-0.5,3.4c-0.3,1-0.8,1.8-1.4,2.5c-0.6,0.7-1.3,1.2-2.2,1.6
				c-0.8,0.4-1.7,0.5-2.7,0.5c-1,0-1.8-0.2-2.7-0.6c-0.8-0.4-1.5-0.9-2.1-1.6s-1.1-1.5-1.4-2.5c-0.3-1-0.5-2-0.5-3.2
				c0-1.2,0.2-2.3,0.5-3.3c0.3-1,0.8-1.8,1.4-2.5c0.6-0.7,1.3-1.2,2.1-1.6c0.8-0.4,1.7-0.5,2.7-0.5c1,0,1.9,0.2,2.7,0.6
				s1.5,0.9,2.1,1.6s1.1,1.5,1.4,2.5C934.8,363.3,935,364.4,935,365.6z M932,365.7c0-1.6-0.3-2.8-1-3.7c-0.7-0.9-1.6-1.4-2.9-1.4
				c-1.1,0-2,0.5-2.7,1.4c-0.6,0.9-1,2.1-1,3.6c0,1.7,0.3,3,1,3.8c0.7,0.9,1.6,1.3,2.8,1.3c0.6,0,1.1-0.1,1.5-0.4s0.9-0.6,1.2-1.1
				s0.6-1,0.8-1.6S932,366.4,932,365.7z"/>
			<path id="XMLID_382_" class="st2" d="M942.4,360.1c0,0.6-0.2,1.2-0.7,1.6s-1,0.7-1.6,0.7s-1.2-0.2-1.6-0.7
				c-0.5-0.5-0.7-1-0.7-1.6c0-0.3,0.1-0.6,0.2-0.9c0.1-0.3,0.3-0.5,0.5-0.7s0.4-0.4,0.7-0.5c0.3-0.1,0.6-0.2,0.9-0.2
				c0.3,0,0.6,0.1,0.9,0.2c0.3,0.1,0.5,0.3,0.7,0.5s0.4,0.5,0.5,0.7C942.4,359.5,942.4,359.7,942.4,360.1z M942.4,371.3
				c0,0.6-0.2,1.2-0.7,1.6s-1,0.7-1.6,0.7s-1.2-0.2-1.6-0.7c-0.5-0.5-0.7-1-0.7-1.6c0-0.3,0.1-0.6,0.2-0.9c0.1-0.3,0.3-0.5,0.5-0.7
				s0.4-0.4,0.7-0.5c0.3-0.1,0.6-0.2,0.9-0.2c0.3,0,0.6,0.1,0.9,0.2c0.3,0.1,0.5,0.3,0.7,0.5s0.4,0.5,0.5,0.7S942.4,371,942.4,371.3
				z"/>
		</g>
		<g id="XMLID_182_">
			<linearGradient id="XMLID_523_" gradientUnits="userSpaceOnUse" x1="84.5144" y1="148.1454" x2="965.6004" y2="148.1454">
				<stop  offset="0" style="stop-color:#4B257A"/>
				<stop  offset="1" style="stop-color:#954C8D"/>
			</linearGradient>
			<path id="XMLID_380_" class="st4" d="M964.6,18c0-9.4-7.4-17-16.6-17H102.2C93,1,85.5,8.6,85.5,18v260.3c0,9.4,7.4,17,16.6,17
				H948c9.2,0,16.6-7.6,16.6-17V18z"/>
			<rect id="XMLID_379_" x="380.1" y="69.6" class="st5" width="289.8" height="222.3"/>
			<g id="XMLID_349_">
				<path id="XMLID_377_" class="st6" d="M126.4,248.3v-33.7h3.8v33.7H126.4z"/>
				<path id="XMLID_375_" class="st6" d="M151.8,226.7c-0.5-0.3-1.1-0.5-1.7-0.7c-0.6-0.2-1.3-0.3-2.1-0.3c-1.8,0-3.1,0.7-4.1,2
					c-0.9,1.3-1.4,3.2-1.4,5.6v14.8h-3.7V223h3.7v3.1c0.6-1,1.4-1.9,2.6-2.6s2.4-1.1,3.7-1.1c0.9,0,1.7,0.1,2.3,0.2
					c0.6,0.1,1.2,0.3,1.6,0.5L151.8,226.7z"/>
				<path id="XMLID_373_" class="st6" d="M171.4,226.7c-0.5-0.3-1.1-0.5-1.7-0.7c-0.6-0.2-1.3-0.3-2.1-0.3c-1.8,0-3.1,0.7-4.1,2
					c-0.9,1.3-1.4,3.2-1.4,5.6v14.8h-3.7V223h3.7v3.1c0.6-1,1.4-1.9,2.6-2.6s2.4-1.1,3.7-1.1c0.9,0,1.7,0.1,2.3,0.2
					c0.6,0.1,1.2,0.3,1.6,0.5L171.4,226.7z"/>
				<path id="XMLID_370_" class="st6" d="M182.6,215.9c0,0.7-0.2,1.3-0.7,1.8c-0.5,0.5-1.1,0.7-1.8,0.7c-0.7,0-1.4-0.2-1.9-0.7
					c-0.5-0.5-0.8-1.1-0.8-1.8c0-0.7,0.3-1.4,0.8-1.9c0.5-0.5,1.1-0.7,1.9-0.7c0.7,0,1.3,0.2,1.8,0.7
					C182.4,214.5,182.6,215.1,182.6,215.9z M178.3,248.3V223h3.7v25.3H178.3z"/>
				<path id="XMLID_368_" class="st6" d="M194.8,226v16.4c0,1.1,0.2,1.9,0.6,2.4c0.4,0.4,1,0.7,2,0.7c0.7,0,1.4-0.1,1.9-0.2
					c0.5-0.1,1.1-0.3,1.7-0.6l-0.2,3.1c-0.7,0.3-1.4,0.5-2.1,0.7s-1.6,0.2-2.5,0.2c-1.6,0-2.8-0.4-3.6-1.3c-0.8-0.8-1.2-2.3-1.2-4.4
					v-17H188V223h3.1v-7.8l3.7-2v9.8h6.3v3.1H194.8z"/>
				<path id="XMLID_365_" class="st6" d="M221.8,248.3v-3.1c-0.9,1-2,1.8-3.3,2.5c-1.3,0.7-2.8,1.1-4.6,1.1c-1,0-2-0.1-2.9-0.4
					c-1-0.3-1.8-0.7-2.6-1.3s-1.4-1.5-1.9-2.5c-0.5-1-0.7-2.3-0.7-3.9c0-1.4,0.3-2.6,0.8-3.7c0.5-1,1.3-1.9,2.1-2.5s1.9-1.1,3.1-1.4
					c1.2-0.3,2.4-0.5,3.6-0.5c1.3,0,2.5,0.1,3.6,0.4c1.1,0.3,2,0.6,2.7,1v-3c0-3.7-1.8-5.6-5.5-5.6c-1.3,0-2.6,0.2-3.7,0.5
					c-1.1,0.3-2.2,0.8-3.2,1.4l-1.3-3c1.1-0.6,2.4-1.1,3.9-1.5c1.4-0.4,3-0.6,4.6-0.6c2.7,0,4.9,0.6,6.5,1.9s2.4,3.4,2.4,6.3v17.6
					H221.8z M221.8,236.9c-0.8-0.4-1.7-0.8-2.7-1.1c-1-0.3-2.2-0.4-3.8-0.4c-1.9,0-3.3,0.4-4.3,1.3c-1,0.9-1.6,2.1-1.6,3.7
					c0,1.9,0.5,3.3,1.4,4.1c0.9,0.9,2.2,1.3,3.7,1.3c1.6,0,3.1-0.4,4.3-1.1c1.2-0.7,2.2-1.6,3-2.7V236.9z"/>
				<path id="XMLID_362_" class="st6" d="M253.5,235.2c0,2.2-0.2,4.2-0.7,5.9c-0.5,1.7-1.2,3.1-2,4.2c-0.9,1.1-1.9,2-3,2.6
					c-1.2,0.6-2.4,0.9-3.7,0.9c-1.6,0-3-0.3-4.1-0.9c-1.1-0.6-2.1-1.4-3-2.5v2.8h-3.7v-33.1l3.7-2l0,12.9c0.9-1,2-1.8,3.2-2.5
					c1.2-0.7,2.7-1.1,4.4-1.1c1.3,0,2.4,0.2,3.5,0.7c1.1,0.5,2.1,1.3,2.9,2.3c0.8,1,1.5,2.4,1.9,4
					C253.3,231.1,253.5,233,253.5,235.2z M250,235.2c0-3.2-0.6-5.7-1.7-7.3c-1.1-1.6-2.7-2.4-4.7-2.4c-1.3,0-2.6,0.3-3.7,1
					c-1.1,0.7-2.1,1.6-3,2.7v12.7c0.7,1.1,1.6,2,2.8,2.7c1.2,0.7,2.5,1.1,4,1.1c2.1,0,3.7-0.9,4.7-2.7
					C249.5,241.3,250,238.7,250,235.2z"/>
				<path id="XMLID_359_" class="st6" d="M264.8,215.9c0,0.7-0.2,1.3-0.7,1.8c-0.5,0.5-1.1,0.7-1.8,0.7c-0.7,0-1.4-0.2-1.9-0.7
					c-0.5-0.5-0.8-1.1-0.8-1.8c0-0.7,0.3-1.4,0.8-1.9c0.5-0.5,1.1-0.7,1.9-0.7c0.7,0,1.3,0.2,1.8,0.7
					C264.6,214.5,264.8,215.1,264.8,215.9z M260.4,248.3V223h3.7v25.3H260.4z"/>
				<path id="XMLID_357_" class="st6" d="M272.5,248.3v-33.1l3.7-2v35.1H272.5z"/>
				<path id="XMLID_354_" class="st6" d="M289,215.9c0,0.7-0.2,1.3-0.7,1.8c-0.5,0.5-1.1,0.7-1.8,0.7c-0.7,0-1.4-0.2-1.9-0.7
					c-0.5-0.5-0.8-1.1-0.8-1.8c0-0.7,0.3-1.4,0.8-1.9c0.5-0.5,1.1-0.7,1.9-0.7c0.7,0,1.3,0.2,1.8,0.7
					C288.7,214.5,289,215.1,289,215.9z M284.6,248.3V223h3.7v25.3H284.6z"/>
				<path id="XMLID_352_" class="st6" d="M301.1,226v16.4c0,1.1,0.2,1.9,0.6,2.4c0.4,0.4,1,0.7,2,0.7c0.7,0,1.4-0.1,1.9-0.2
					c0.5-0.1,1.1-0.3,1.7-0.6l-0.2,3.1c-0.7,0.3-1.4,0.5-2.1,0.7s-1.6,0.2-2.5,0.2c-1.6,0-2.8-0.4-3.6-1.3c-0.8-0.8-1.2-2.3-1.2-4.4
					v-17h-3.1V223h3.1v-7.8l3.7-2v9.8h6.3v3.1H301.1z"/>
				<path id="XMLID_350_" class="st6" d="M320.5,257.2h-3.6l3.5-9.2l-9-25h3.8l6.2,18.4l0.9,2.6l0.9-2.6l6.2-18.4h3.8L320.5,257.2z"
					/>
			</g>
			<g id="XMLID_331_">
				<g>
					<path id="XMLID_339_" class="st6" d="M784.6,148.2v-27h-6.1v-2.4c1.9-0.1,3.4-0.5,4.7-1.1c1.3-0.6,2-1.7,2.3-3.3h2.8v33.7
						H784.6z"/>
					<path id="XMLID_337_" class="st6" d="M801.6,145.6c0,0.8-0.3,1.6-0.9,2.2c-0.6,0.6-1.3,0.9-2.2,0.9s-1.6-0.3-2.2-0.9
						c-0.6-0.6-0.9-1.3-0.9-2.2c0-0.8,0.3-1.6,0.9-2.2c0.6-0.6,1.3-1,2.2-1s1.6,0.3,2.2,1C801.3,144.1,801.6,144.8,801.6,145.6z"/>
					<path id="XMLID_333_" class="st6" d="M832.1,138.7c0,1.6-0.3,3.1-0.9,4.3c-0.6,1.2-1.4,2.3-2.5,3.1c-1.1,0.9-2.4,1.5-3.9,1.9
						c-1.5,0.4-3.3,0.6-5.2,0.6c-1.9,0-3.6-0.2-5.2-0.6c-1.5-0.4-2.8-1-3.9-1.9c-1.1-0.8-1.9-1.8-2.5-3.1c-0.6-1.2-0.9-2.7-0.9-4.3
						c0-2.2,0.6-4.1,1.8-5.5c1.2-1.4,2.8-2.5,4.9-3.2c-1.5-0.6-2.8-1.5-3.8-2.6c-1-1.1-1.5-2.6-1.5-4.5c0-1.3,0.2-2.5,0.7-3.6
						c0.5-1.1,1.2-2.1,2.1-2.9c0.9-0.8,2.1-1.4,3.5-1.9c1.4-0.4,3-0.7,4.8-0.7c1.8,0,3.4,0.2,4.7,0.6c1.4,0.4,2.5,1.1,3.4,1.9
						c0.9,0.8,1.6,1.7,2.1,2.8c0.5,1.1,0.7,2.3,0.7,3.6c0,1.8-0.5,3.3-1.4,4.4c-0.9,1.1-2.2,2-3.8,2.7c2.1,0.7,3.8,1.8,4.9,3.2
						C831.6,134.7,832.1,136.5,832.1,138.7z M828.4,138.8c0-2-0.8-3.6-2.3-4.9c-1.5-1.3-3.7-1.9-6.6-1.9c-2.8,0-5,0.6-6.5,1.9
						c-1.5,1.2-2.3,2.9-2.3,4.8s0.7,3.6,2.2,4.8c1.5,1.2,3.7,1.8,6.7,1.8c3,0,5.2-0.6,6.6-1.8C827.7,142.4,828.4,140.8,828.4,138.8z
						 M827,123c0-0.7-0.1-1.4-0.4-2.1c-0.3-0.7-0.7-1.3-1.3-1.8s-1.3-0.9-2.3-1.3s-2.1-0.5-3.4-0.5s-2.5,0.2-3.4,0.5
						c-0.9,0.3-1.7,0.7-2.3,1.2c-0.6,0.5-1,1.1-1.3,1.8s-0.4,1.4-0.4,2.1c0,1.6,0.7,3,2,4.1c1.3,1.1,3.1,1.6,5.4,1.6
						c2.2,0,4-0.5,5.3-1.6C826.4,125.9,827,124.6,827,123z"/>
				</g>
			</g>
			<g id="XMLID_323_">
				<g>
					<path id="XMLID_325_" class="st6" d="M831,234.1c0,2.8-0.3,5.3-0.9,7.4c-0.6,2.2-1.5,4-2.6,5.4c-1.1,1.5-2.4,2.6-4,3.3
						s-3.3,1.2-5.1,1.2c-1.9,0-3.6-0.4-5.1-1.2s-2.9-1.9-4-3.3s-2-3.3-2.6-5.4c-0.6-2.2-0.9-4.6-0.9-7.4s0.3-5.3,0.9-7.4
						c0.6-2.2,1.5-4,2.6-5.4c1.1-1.5,2.4-2.6,4-3.3c1.5-0.8,3.3-1.2,5.1-1.2c1.9,0,3.6,0.4,5.1,1.2c1.6,0.8,2.9,1.9,4,3.3
						c1.1,1.5,2,3.3,2.6,5.4C830.7,228.8,831,231.3,831,234.1z M827.3,234.1c0-4.4-0.8-7.8-2.3-10.2c-1.5-2.5-3.7-3.7-6.7-3.7
						c-2.9,0-5.2,1.2-6.7,3.7c-1.5,2.5-2.3,5.9-2.3,10.2c0,4.4,0.8,7.8,2.3,10.2c1.5,2.5,3.7,3.7,6.7,3.7c2.9,0,5.2-1.2,6.7-3.7
						C826.6,241.9,827.3,238.4,827.3,234.1z"/>
				</g>
			</g>
			<g id="XMLID_305_">
				<g>
					<path id="XMLID_313_" class="st6" d="M479.5,144.8v-27h-6.1v-2.4c1.9-0.1,3.4-0.5,4.7-1.1c1.3-0.6,2-1.7,2.3-3.3h2.8v33.7
						H479.5z"/>
					<path id="XMLID_311_" class="st6" d="M511.6,135.2c0,3.2-1.1,5.7-3.2,7.5c-2.1,1.8-5,2.7-8.8,2.7c-1.1,0-2.1-0.1-3.1-0.4
						c-1-0.3-2-0.6-2.9-1.1c-0.9-0.4-1.7-0.9-2.5-1.5c-0.8-0.6-1.4-1.2-2-1.8l2.5-2.5c1.1,1.1,2.3,2,3.6,2.7
						c1.4,0.7,2.9,1.1,4.5,1.1c2.8,0,4.8-0.6,6.1-1.7c1.3-1.2,2-2.8,2-5c0-2.1-0.7-3.7-2.2-4.8s-3.4-1.6-5.8-1.6h-2.2v-3.2h2.3
						c2.2,0,3.9-0.5,4.9-1.6s1.6-2.5,1.6-4.3c0-0.8-0.1-1.6-0.4-2.3c-0.2-0.7-0.6-1.3-1.2-1.8c-0.5-0.5-1.3-0.9-2.1-1.2
						c-0.9-0.3-2-0.4-3.3-0.4c-1.4,0-2.7,0.3-3.9,0.9c-1.1,0.6-2.1,1.3-2.9,2.2l-2.4-2.4c0.5-0.5,1-1,1.7-1.5
						c0.6-0.5,1.4-0.9,2.1-1.3c0.8-0.4,1.6-0.7,2.5-0.9c0.9-0.2,1.9-0.3,2.9-0.3c1.5,0,2.9,0.2,4.1,0.5c1.3,0.4,2.4,0.9,3.3,1.6
						c0.9,0.7,1.7,1.6,2.2,2.7c0.5,1.1,0.8,2.3,0.8,3.8c0,2.1-0.4,3.7-1.3,4.9c-0.9,1.2-2,2.2-3.4,3c0.8,0.2,1.6,0.5,2.3,0.9
						c0.7,0.4,1.4,0.9,2,1.6c0.6,0.7,1,1.4,1.3,2.4C511.5,132.8,511.6,133.9,511.6,135.2z"/>
					<path id="XMLID_309_" class="st6" d="M522.7,142.3c0,0.8-0.3,1.6-0.9,2.2c-0.6,0.6-1.3,0.9-2.2,0.9s-1.6-0.3-2.2-0.9
						c-0.6-0.6-0.9-1.3-0.9-2.2c0-0.8,0.3-1.6,0.9-2.2c0.6-0.6,1.3-1,2.2-1s1.6,0.3,2.2,1C522.4,140.7,522.7,141.5,522.7,142.3z"/>
					<path id="XMLID_307_" class="st6" d="M550.1,135.2c0,3.2-1.1,5.7-3.2,7.5c-2.1,1.8-5,2.7-8.8,2.7c-1.1,0-2.1-0.1-3.1-0.4
						c-1-0.3-2-0.6-2.9-1.1c-0.9-0.4-1.7-0.9-2.5-1.5c-0.8-0.6-1.4-1.2-2-1.8l2.5-2.5c1.1,1.1,2.3,2,3.6,2.7
						c1.4,0.7,2.9,1.1,4.5,1.1c2.8,0,4.8-0.6,6.1-1.7c1.3-1.2,2-2.8,2-5c0-2.1-0.7-3.7-2.2-4.8s-3.4-1.6-5.8-1.6h-2.2v-3.2h2.3
						c2.2,0,3.9-0.5,4.9-1.6s1.6-2.5,1.6-4.3c0-0.8-0.1-1.6-0.4-2.3c-0.2-0.7-0.6-1.3-1.2-1.8c-0.5-0.5-1.3-0.9-2.1-1.2
						c-0.9-0.3-2-0.4-3.3-0.4c-1.4,0-2.7,0.3-3.9,0.9c-1.1,0.6-2.1,1.3-2.9,2.2l-2.4-2.4c0.5-0.5,1-1,1.7-1.5
						c0.6-0.5,1.4-0.9,2.1-1.3c0.8-0.4,1.6-0.7,2.5-0.9c0.9-0.2,1.9-0.3,2.9-0.3c1.5,0,2.9,0.2,4.1,0.5c1.3,0.4,2.4,0.9,3.3,1.6
						c0.9,0.7,1.7,1.6,2.2,2.7c0.5,1.1,0.8,2.3,0.8,3.8c0,2.1-0.4,3.7-1.3,4.9c-0.9,1.2-2,2.2-3.4,3c0.8,0.2,1.6,0.5,2.3,0.9
						c0.7,0.4,1.4,0.9,2,1.6c0.6,0.7,1,1.4,1.3,2.4C549.9,132.8,550.1,133.9,550.1,135.2z"/>
				</g>
			</g>
			<g id="XMLID_279_">
				<path id="XMLID_303_" class="st6" d="M124.9,136c0,1.3-0.2,2.6-0.7,3.7c-0.5,1.2-1.2,2.2-2.2,3c-1,0.8-2.1,1.5-3.5,2
					c-1.4,0.5-3,0.7-4.7,0.7c-2.3,0-4.4-0.4-6.4-1.3c-1.9-0.9-3.6-2-4.9-3.3l2.5-2.8c1.3,1.2,2.7,2.2,4.1,2.9
					c1.5,0.7,3.1,1.1,4.8,1.1c2.2,0,4-0.5,5.3-1.5c1.3-1,2-2.4,2-4.2c0-0.8-0.1-1.5-0.4-2.1c-0.3-0.6-0.7-1.2-1.3-1.8
					c-0.6-0.5-1.5-1.1-2.5-1.6c-1-0.5-2.3-1.1-3.9-1.6c-1.8-0.6-3.4-1.3-4.6-2c-1.2-0.7-2.2-1.4-3-2.1c-0.8-0.8-1.3-1.6-1.6-2.5
					c-0.3-0.9-0.5-2-0.5-3.2c0-1.3,0.3-2.6,0.8-3.6c0.5-1.1,1.2-2,2.1-2.7c0.9-0.8,2-1.3,3.3-1.7s2.7-0.6,4.3-0.6
					c2.2,0,4.2,0.3,5.8,1c1.6,0.6,3.1,1.5,4.5,2.6l-2.4,2.9c-1.2-1-2.4-1.8-3.7-2.3s-2.7-0.8-4.4-0.8c-1.2,0-2.2,0.1-3,0.4
					c-0.8,0.3-1.5,0.6-2,1.1c-0.5,0.4-0.9,1-1.2,1.6c-0.2,0.6-0.4,1.2-0.4,1.9c0,0.7,0.1,1.3,0.3,1.9c0.2,0.6,0.6,1.1,1.2,1.6
					c0.6,0.5,1.4,1.1,2.4,1.6c1,0.5,2.4,1.1,4.1,1.7c1.9,0.7,3.4,1.3,4.7,2c1.3,0.7,2.3,1.4,3,2.2c0.8,0.8,1.3,1.7,1.6,2.6
					C124.7,133.6,124.9,134.7,124.9,136z"/>
				<path id="XMLID_300_" class="st6" d="M152.5,132c0,2.2-0.3,4.1-0.9,5.7c-0.6,1.7-1.4,3.1-2.4,4.2c-1,1.1-2.2,2-3.5,2.6
					c-1.4,0.6-2.8,0.9-4.3,0.9s-3-0.3-4.3-0.8s-2.5-1.4-3.5-2.5c-1-1.1-1.7-2.5-2.3-4.1c-0.6-1.6-0.8-3.5-0.8-5.7
					c0-2.2,0.3-4,0.9-5.7c0.6-1.6,1.4-3,2.4-4.1s2.2-2,3.5-2.5s2.8-0.9,4.3-0.9c1.5,0,3,0.3,4.3,0.8c1.3,0.5,2.5,1.4,3.5,2.5
					c1,1.1,1.7,2.4,2.3,4.1C152.2,128,152.5,129.9,152.5,132z M148.9,132.1c0-3.4-0.7-5.9-2-7.5c-1.3-1.7-3.1-2.5-5.3-2.5
					s-4,0.8-5.3,2.5c-1.3,1.7-2,4.2-2,7.5s0.7,5.9,2,7.6c1.3,1.7,3.1,2.6,5.3,2.6s4-0.9,5.3-2.6S148.9,135.5,148.9,132.1z"/>
				<path id="XMLID_298_" class="st6" d="M188.5,144.8V130c0-2.9-0.4-4.9-1.3-6.1c-0.9-1.2-2.3-1.8-4.1-1.8c-1.7,0-3.1,0.6-4.1,1.9
					c-1,1.2-1.5,3.3-1.5,6.1v14.8h-3.7V130c0-2.9-0.5-4.9-1.4-6.1c-0.9-1.2-2.3-1.8-4-1.8c-1.7,0-3.1,0.6-4.1,1.9
					c-1,1.2-1.5,3.3-1.5,6.1v14.8h-3.7v-25.3h3.7l0,3.1c0.6-1.1,1.5-2,2.6-2.6c1.1-0.7,2.3-1,3.9-1c1.8,0,3.3,0.4,4.4,1.3
					c1.1,0.8,2,1.9,2.6,3.1c0.4-0.6,0.8-1.2,1.3-1.7c0.5-0.5,1-1,1.6-1.4c0.6-0.4,1.3-0.7,2.1-0.9s1.7-0.3,2.7-0.3
					c2.6,0,4.6,0.8,6.1,2.4c1.5,1.6,2.3,4.3,2.3,8v15.4H188.5z"/>
				<path id="XMLID_296_" class="st6" d="M215.8,144.8V130c0-2.7-0.5-4.7-1.5-6c-1-1.3-2.5-1.9-4.5-1.9c-1.8,0-3.2,0.6-4.4,1.9
					c-1.2,1.3-1.8,3.3-1.8,6v14.8H200v-25.3h3.7l0,3.1c0.7-1.1,1.7-1.9,2.8-2.6s2.5-1,4.2-1c1.4,0,2.6,0.2,3.7,0.6
					c1.1,0.4,2,1,2.8,1.9c0.8,0.9,1.4,1.9,1.8,3.2c0.4,1.3,0.6,2.9,0.6,4.7v15.4H215.8z"/>
				<path id="XMLID_292_" class="st6" d="M247.9,132c0,2.2-0.3,4.1-0.9,5.7c-0.6,1.7-1.4,3.1-2.4,4.2c-1,1.1-2.2,2-3.5,2.6
					c-1.4,0.6-2.8,0.9-4.3,0.9s-3-0.3-4.3-0.8s-2.5-1.4-3.5-2.5c-1-1.1-1.7-2.5-2.3-4.1c-0.6-1.6-0.8-3.5-0.8-5.7
					c0-2.2,0.3-4,0.9-5.7c0.6-1.6,1.4-3,2.4-4.1s2.2-2,3.5-2.5s2.8-0.9,4.3-0.9c1.5,0,3,0.3,4.3,0.8c1.3,0.5,2.5,1.4,3.5,2.5
					c1,1.1,1.7,2.4,2.3,4.1C247.7,128,247.9,129.9,247.9,132z M244.3,132.1c0-3.4-0.7-5.9-2-7.5c-1.3-1.7-3.1-2.5-5.3-2.5
					s-4,0.8-5.3,2.5c-1.3,1.7-2,4.2-2,7.5s0.7,5.9,2,7.6c1.3,1.7,3.1,2.6,5.3,2.6s4-0.9,5.3-2.6S244.3,135.5,244.3,132.1z"/>
				<path id="XMLID_290_" class="st6" d="M254.8,144.8v-33.1l3.7-2v35.1H254.8z"/>
				<path id="XMLID_287_" class="st6" d="M285.9,131.5c0,0.5,0,0.8,0,1.1c0,0.3-0.1,0.6-0.1,0.9h-16.8c0.2,2.7,0.9,4.9,2.1,6.5
					c1.2,1.6,2.9,2.4,5,2.4c1.5,0,2.7-0.2,3.7-0.6c1-0.4,2.1-1,3.3-1.8l1.7,2.6c-0.8,0.5-1.5,0.9-2.2,1.3c-0.7,0.4-1.4,0.7-2.1,0.9
					c-0.7,0.2-1.4,0.4-2.2,0.5s-1.6,0.2-2.6,0.2c-1.2,0-2.3-0.2-3.6-0.7s-2.3-1.2-3.3-2.2c-1-1-1.8-2.4-2.5-4.1
					c-0.7-1.7-1-3.8-1-6.3c0-2,0.3-3.8,0.8-5.4c0.5-1.6,1.3-3,2.2-4.1s2-2,3.3-2.6c1.3-0.6,2.7-0.9,4.2-0.9c1.6,0,3.1,0.3,4.3,0.9
					c1.3,0.6,2.3,1.5,3.2,2.6s1.5,2.4,1.9,4C285.6,128,285.9,129.7,285.9,131.5z M282.5,130.5c-0.2-2.5-0.8-4.5-1.9-6.1
					c-1.1-1.6-2.7-2.3-4.9-2.3c-1.9,0-3.4,0.7-4.6,2.1c-1.2,1.4-1.9,3.5-2.1,6.3H282.5z"/>
				<path id="XMLID_285_" class="st6" d="M308.5,144.8V130c0-2.7-0.5-4.7-1.5-6c-1-1.3-2.5-1.9-4.5-1.9c-1.8,0-3.2,0.6-4.4,1.9
					c-1.2,1.3-1.8,3.3-1.8,6v14.8h-3.7v-25.3h3.7l0,3.1c0.7-1.1,1.7-1.9,2.8-2.6s2.5-1,4.2-1c1.4,0,2.6,0.2,3.7,0.6
					c1.1,0.4,2,1,2.8,1.9c0.8,0.9,1.4,1.9,1.8,3.2c0.4,1.3,0.6,2.9,0.6,4.7v15.4H308.5z"/>
				<path id="XMLID_283_" class="st6" d="M335.3,124.7c-0.9-0.8-1.9-1.5-2.8-1.9c-0.9-0.4-2-0.6-3.3-0.6c-1,0-1.9,0.2-2.8,0.7
					c-0.9,0.4-1.6,1.1-2.2,1.9c-0.6,0.9-1.1,1.9-1.5,3.1c-0.4,1.2-0.5,2.6-0.5,4.2c0,3.1,0.6,5.6,1.9,7.5c1.3,1.9,3,2.8,5.3,2.8
					c1.2,0,2.3-0.2,3.2-0.7c0.9-0.5,1.8-1.1,2.6-2l2.2,2.3c-1.1,1.1-2.2,1.9-3.5,2.5c-1.3,0.6-2.8,0.9-4.6,0.9c-1.4,0-2.7-0.3-4-0.8
					c-1.3-0.5-2.4-1.3-3.4-2.4s-1.8-2.4-2.4-4.1c-0.6-1.6-0.9-3.5-0.9-5.8c0-2.3,0.3-4.4,1-6c0.6-1.7,1.5-3,2.5-4.1
					c1-1.1,2.2-1.9,3.5-2.4c1.3-0.5,2.6-0.8,3.9-0.8c1.7,0,3.3,0.3,4.6,0.8c1.3,0.6,2.4,1.3,3.4,2.1L335.3,124.7z"/>
				<path id="XMLID_280_" class="st6" d="M362.2,131.5c0,0.5,0,0.8,0,1.1c0,0.3-0.1,0.6-0.1,0.9h-16.8c0.2,2.7,0.9,4.9,2.1,6.5
					c1.2,1.6,2.9,2.4,5,2.4c1.5,0,2.7-0.2,3.7-0.6c1-0.4,2.1-1,3.3-1.8l1.7,2.6c-0.8,0.5-1.5,0.9-2.2,1.3c-0.7,0.4-1.4,0.7-2.1,0.9
					c-0.7,0.2-1.4,0.4-2.2,0.5s-1.6,0.2-2.6,0.2c-1.2,0-2.3-0.2-3.6-0.7s-2.3-1.2-3.3-2.2c-1-1-1.8-2.4-2.5-4.1
					c-0.7-1.7-1-3.8-1-6.3c0-2,0.3-3.8,0.8-5.4c0.5-1.6,1.3-3,2.2-4.1s2-2,3.3-2.6c1.3-0.6,2.7-0.9,4.2-0.9c1.6,0,3.1,0.3,4.3,0.9
					c1.3,0.6,2.3,1.5,3.2,2.6s1.5,2.4,1.9,4C362,128,362.2,129.7,362.2,131.5z M358.9,130.5c-0.2-2.5-0.8-4.5-1.9-6.1
					c-1.1-1.6-2.7-2.3-4.9-2.3c-1.9,0-3.4,0.7-4.6,2.1c-1.2,1.4-1.9,3.5-2.1,6.3H358.9z"/>
			</g>
			<linearGradient id="XMLID_524_" gradientUnits="userSpaceOnUse" x1="377.5474" y1="147.3401" x2="379.5394" y2="147.3401">
				<stop  offset="0" style="stop-color:#4B257A"/>
				<stop  offset="1" style="stop-color:#954C8D"/>
			</linearGradient>
			<line id="XMLID_278_" class="st7" x1="378.5" y1="0" x2="378.5" y2="294.7"/>
			<linearGradient id="XMLID_525_" gradientUnits="userSpaceOnUse" x1="670.5692" y1="146.7749" x2="672.5611" y2="146.7749">
				<stop  offset="0" style="stop-color:#4B257A"/>
				<stop  offset="1" style="stop-color:#954C8D"/>
			</linearGradient>
			<line id="XMLID_277_" class="st8" x1="671.6" y1="1" x2="671.6" y2="292.5"/>
			<linearGradient id="XMLID_526_" gradientUnits="userSpaceOnUse" x1="85.5178" y1="72.6207" x2="964.597" y2="72.6207">
				<stop  offset="0" style="stop-color:#4B257A"/>
				<stop  offset="1" style="stop-color:#954C8D"/>
			</linearGradient>
			<line id="XMLID_276_" class="st9" x1="85.5" y1="72.6" x2="964.6" y2="72.6"/>
			<linearGradient id="XMLID_527_" gradientUnits="userSpaceOnUse" x1="85.5178" y1="37.1804" x2="964.4838" y2="37.1804">
				<stop  offset="0" style="stop-color:#4B257A"/>
				<stop  offset="1" style="stop-color:#954C8D"/>
			</linearGradient>
			<linearGradient id="XMLID_528_" gradientUnits="userSpaceOnUse" x1="84.7057" y1="37.1804" x2="965.296" y2="37.1804">
				<stop  offset="0" style="stop-color:#4B257A"/>
				<stop  offset="1" style="stop-color:#954C8D"/>
			</linearGradient>
			<path id="XMLID_275_" class="st10" d="M964.5,73.3V9.5c0-4.7-3.8-8.5-8.5-8.5H94c-4.7,0-8.5,3.8-8.5,8.5v63.8H964.5z"/>
			<g id="XMLID_235_">
				<g>
					<path id="XMLID_253_" class="st11" d="M766.7,30.8c0,1.7-0.3,3.2-0.8,4.4s-1.3,2.2-2.2,3c-1,0.8-2.1,1.4-3.4,1.7
						c-1.3,0.4-2.7,0.6-4.3,0.6h-6.5v10.5h-5.9V21.4h13c1.4,0,2.7,0.2,3.9,0.6c1.2,0.4,2.3,1,3.3,1.8c0.9,0.8,1.7,1.8,2.2,2.9
						C766.5,27.9,766.7,29.3,766.7,30.8z M760.6,31c0-1.3-0.4-2.3-1.2-2.9c-0.8-0.6-1.8-0.9-3.2-0.9h-6.8v7.6h6.9
						C759.2,34.8,760.6,33.5,760.6,31z"/>
					<path id="XMLID_251_" class="st11" d="M771.6,51.1v-28l5.8-2.9v30.9H771.6z"/>
					<path id="XMLID_248_" class="st11" d="M795.6,51.1v-1.5c-0.5,0.6-1.2,1-2.1,1.4c-0.9,0.4-1.8,0.6-2.9,0.6c-1,0-2.1-0.2-3.1-0.5
						c-1-0.3-1.9-0.8-2.6-1.5c-0.8-0.6-1.4-1.5-1.9-2.5c-0.5-1-0.7-2.2-0.7-3.5c0-1.2,0.2-2.3,0.7-3.2s1.1-1.7,1.9-2.3
						s1.8-1.1,2.9-1.4c1.1-0.3,2.3-0.5,3.5-0.5c1,0,1.9,0.1,2.5,0.3c0.7,0.2,1.3,0.4,1.7,0.6v-1.1c0-0.8-0.3-1.5-0.8-2
						c-0.5-0.6-1.3-0.8-2.4-0.8c-0.7,0-1.3,0-1.8,0.1c-0.5,0.1-1,0.1-1.5,0.3c-0.5,0.1-0.9,0.3-1.4,0.4c-0.5,0.2-0.9,0.4-1.4,0.7
						l-2.2-4.1c0.6-0.4,1.3-0.7,1.9-1c0.6-0.3,1.2-0.5,1.9-0.7c0.7-0.2,1.4-0.3,2.1-0.4c0.7-0.1,1.6-0.1,2.5-0.1
						c1.4,0,2.6,0.2,3.7,0.5s2,0.8,2.8,1.5c0.8,0.7,1.4,1.5,1.8,2.5c0.4,1,0.7,2.1,0.7,3.3v14.9H795.6z M795.6,41.8
						c-0.5-0.3-1.1-0.5-1.6-0.7c-0.6-0.2-1.4-0.2-2.4-0.2c-1.1,0-1.9,0.2-2.5,0.7c-0.6,0.5-0.9,1.2-0.9,2.1c0,0.8,0.3,1.5,0.8,2.1
						c0.5,0.6,1.4,0.9,2.6,0.9c1,0,1.8-0.2,2.5-0.6c0.7-0.4,1.2-0.9,1.5-1.4V41.8z"/>
					<path id="XMLID_246_" class="st11" d="M823.6,48.6c-0.6,0.6-1.3,1.1-2,1.6c-0.7,0.4-1.5,0.8-2.4,1s-1.9,0.4-3,0.4
						c-1.4,0-2.8-0.3-4.1-0.8c-1.3-0.6-2.4-1.4-3.3-2.4c-0.9-1-1.7-2.2-2.2-3.7c-0.5-1.4-0.8-3-0.8-4.7s0.3-3.3,0.8-4.7
						c0.5-1.4,1.3-2.7,2.2-3.7c0.9-1,2.1-1.8,3.4-2.4c1.3-0.6,2.7-0.8,4.3-0.8c2.1,0,3.9,0.5,5.3,1.4c1.4,0.9,2.6,2.1,3.5,3.5
						l-3.9,3.9c-0.7-0.9-1.4-1.7-2.1-2.3c-0.8-0.6-1.8-0.9-2.9-0.9c-1.4,0-2.5,0.5-3.4,1.6s-1.3,2.5-1.3,4.4c0,1.8,0.4,3.2,1.3,4.3
						c0.8,1.1,2,1.6,3.4,1.6c1.2,0,2.1-0.2,2.9-0.7c0.8-0.5,1.6-1.2,2.3-2.1l3.7,3.5C824.7,47.4,824.2,48,823.6,48.6z"/>
					<path id="XMLID_243_" class="st11" d="M847.3,40c0,0.4,0,0.8,0,1.1c0,0.3,0,0.6-0.1,0.8h-13.3c0.1,0.8,0.2,1.4,0.5,1.9
						c0.3,0.5,0.6,1,1.1,1.3c0.4,0.3,0.9,0.6,1.4,0.7c0.5,0.2,1.1,0.2,1.6,0.2c0.8,0,1.6-0.1,2.2-0.4s1.2-0.7,1.6-1.1l4.2,3.5
						c-0.9,1.2-2.1,2-3.5,2.7c-1.5,0.6-2.9,0.9-4.4,0.9c-1.6,0-3.1-0.3-4.3-0.8s-2.4-1.3-3.3-2.3c-0.9-1-1.6-2.2-2.1-3.6
						s-0.7-3-0.7-4.8c0-1.7,0.3-3.3,0.8-4.7c0.5-1.4,1.2-2.7,2.1-3.7c0.9-1,1.9-1.8,3.1-2.4c1.2-0.6,2.5-0.8,3.9-0.8
						c1.5,0,2.8,0.3,4,0.9c1.2,0.6,2.2,1.4,2.9,2.5c0.8,1.1,1.4,2.3,1.8,3.7C847.1,36.9,847.3,38.4,847.3,40z M841.6,37.5
						c-0.1-0.5-0.2-1-0.3-1.5c-0.2-0.5-0.4-0.9-0.7-1.3c-0.3-0.4-0.7-0.7-1.2-0.9c-0.5-0.2-1.1-0.3-1.7-0.3c-1.1,0-1.9,0.4-2.6,1.1
						c-0.6,0.8-1,1.7-1.1,2.8H841.6z"/>
					<path id="XMLID_240_" class="st11" d="M871.1,40.3c0,1.7-0.2,3.2-0.6,4.6c-0.4,1.4-0.9,2.6-1.7,3.6c-0.7,1-1.6,1.8-2.7,2.3
						s-2.3,0.8-3.7,0.8c-1,0-1.9-0.2-2.7-0.5s-1.5-0.7-2-1.2v1.3h-5.8v-28l5.8-2.9v10c0.6-0.5,1.2-0.9,2-1.3
						c0.7-0.4,1.7-0.6,2.7-0.6c1.2,0,2.3,0.2,3.3,0.7c1,0.5,2,1.2,2.8,2.1c0.8,1,1.4,2.2,1.9,3.7C870.9,36.4,871.1,38.2,871.1,40.3z
						 M865.2,40.4c0-2.3-0.3-3.9-1-5c-0.7-1-1.6-1.5-2.8-1.5c-0.9,0-1.6,0.2-2.2,0.5c-0.5,0.3-1,0.8-1.4,1.4v8.4
						c0.9,1.3,2.2,1.9,3.9,1.9C864,46.1,865.2,44.2,865.2,40.4z"/>
					<path id="XMLID_237_" class="st11" d="M894.7,40c0,1.7-0.3,3.3-0.8,4.7c-0.5,1.4-1.2,2.6-2.1,3.7c-0.9,1-2,1.8-3.2,2.4
						c-1.2,0.6-2.6,0.8-4,0.8s-2.8-0.3-4-0.8c-1.2-0.6-2.3-1.4-3.2-2.4c-0.9-1-1.6-2.2-2.1-3.7c-0.5-1.4-0.8-3-0.8-4.7
						s0.3-3.3,0.8-4.7c0.5-1.4,1.2-2.7,2.1-3.7c0.9-1,1.9-1.8,3.2-2.4c1.2-0.6,2.6-0.8,4-0.8s2.8,0.3,4,0.8c1.2,0.6,2.3,1.4,3.2,2.4
						c0.9,1,1.6,2.3,2.1,3.7C894.5,36.7,894.7,38.3,894.7,40z M888.8,40c0-1.7-0.3-3.1-1-4.3c-0.7-1.2-1.7-1.7-3.1-1.7
						c-1.4,0-2.5,0.6-3.1,1.7c-0.7,1.1-1,2.6-1,4.3c0,1.7,0.3,3.2,1,4.3c0.7,1.1,1.7,1.7,3.1,1.7c0.7,0,1.3-0.2,1.8-0.5
						s1-0.8,1.3-1.3s0.6-1.2,0.8-1.9C888.7,41.5,888.8,40.8,888.8,40z"/>
				</g>
			</g>
			<g id="XMLID_205_">
				<path id="XMLID_232_" class="st11" d="M135.5,48.1l-1.8-5.2h-8.5l-1.8,5.2h-5l8.9-23.3h4.5l8.9,23.3H135.5z M130.6,34.3
					c-0.2-0.7-0.5-1.4-0.7-2c-0.2-0.6-0.4-1.2-0.5-1.6c-0.1,0.4-0.3,1-0.5,1.6c-0.2,0.6-0.4,1.3-0.7,2l-1.5,4.2h5.3L130.6,34.3z"/>
				<path id="XMLID_229_" class="st11" d="M153.3,48.1V47c-0.4,0.4-1,0.7-1.5,1c-0.6,0.3-1.3,0.4-2.1,0.4c-0.9,0-1.8-0.2-2.6-0.5
					c-0.8-0.4-1.5-0.9-2.2-1.7s-1.1-1.7-1.5-2.9c-0.4-1.2-0.5-2.6-0.5-4.2c0-1.3,0.2-2.5,0.4-3.6c0.3-1.1,0.7-2,1.3-2.8
					c0.6-0.8,1.3-1.4,2.1-1.8c0.8-0.4,1.8-0.6,2.9-0.6c0.8,0,1.5,0.1,2.1,0.4c0.6,0.3,1.2,0.6,1.6,1v-5.5l4.6-2.3v24.3H153.3z
					 M153.3,36.1c-0.7-1-1.8-1.5-3.1-1.5c-1.8,0-2.7,1.5-2.7,4.5c0,1.8,0.3,3.1,0.8,3.9c0.5,0.8,1.3,1.2,2.2,1.2
					c0.7,0,1.3-0.1,1.7-0.4c0.4-0.3,0.8-0.6,1.1-1.1V36.1z"/>
				<path id="XMLID_227_" class="st11" d="M172,48.1h-4.7L161,30.6h5.1l2.6,8.1c0.2,0.7,0.4,1.4,0.6,2.1c0.2,0.7,0.4,1.3,0.5,1.7
					c0.1-0.4,0.3-1,0.5-1.7c0.2-0.7,0.4-1.4,0.6-2.1l2.6-8.1h4.9L172,48.1z"/>
				<path id="XMLID_224_" class="st11" d="M195.1,39.4c0,0.3,0,0.6,0,0.8c0,0.2,0,0.4,0,0.6h-10.5c0,0.6,0.2,1.1,0.4,1.5
					c0.2,0.4,0.5,0.8,0.8,1c0.3,0.3,0.7,0.4,1.1,0.6c0.4,0.1,0.8,0.2,1.2,0.2c0.6,0,1.2-0.1,1.7-0.3c0.5-0.2,0.9-0.5,1.3-0.9
					l3.3,2.7c-0.7,0.9-1.6,1.6-2.8,2.1s-2.3,0.7-3.5,0.7c-1.3,0-2.4-0.2-3.4-0.6c-1-0.4-1.9-1-2.6-1.8s-1.3-1.7-1.6-2.9
					c-0.4-1.1-0.6-2.4-0.6-3.7c0-1.3,0.2-2.6,0.6-3.7c0.4-1.1,0.9-2.1,1.6-2.9c0.7-0.8,1.5-1.4,2.5-1.9c0.9-0.4,2-0.7,3.1-0.7
					c1.2,0,2.2,0.2,3.1,0.7c0.9,0.5,1.7,1.1,2.3,2s1.1,1.8,1.4,2.9C194.9,37,195.1,38.2,195.1,39.4z M190.6,37.4
					c0-0.4-0.1-0.8-0.3-1.1c-0.1-0.4-0.3-0.7-0.6-1c-0.3-0.3-0.6-0.5-1-0.7c-0.4-0.2-0.8-0.3-1.3-0.3c-0.8,0-1.5,0.3-2,0.9
					s-0.8,1.3-0.9,2.2H190.6z"/>
				<path id="XMLID_222_" class="st11" d="M209,36c-0.4-0.3-0.8-0.6-1.2-0.8c-0.4-0.2-0.9-0.3-1.4-0.3c-0.4,0-0.8,0.1-1.2,0.2
					c-0.4,0.1-0.7,0.3-0.9,0.6c-0.3,0.3-0.5,0.7-0.6,1.2c-0.1,0.5-0.2,1.1-0.2,1.9v9.5h-4.6V30.6h4.6v1.2c0.4-0.4,0.9-0.8,1.5-1.1
					c0.6-0.3,1.3-0.4,2.1-0.4c0.8,0,1.4,0.1,1.9,0.4c0.5,0.3,1,0.5,1.3,0.8L209,36z"/>
				<path id="XMLID_220_" class="st11" d="M226.1,43c0,1-0.2,1.8-0.6,2.5c-0.4,0.7-0.9,1.3-1.5,1.7c-0.6,0.4-1.4,0.7-2.3,0.9
					c-0.9,0.2-1.8,0.3-2.8,0.3c-1.4,0-2.7-0.2-4-0.5s-2.4-0.9-3.3-1.5l1.5-3.5c0.9,0.5,1.9,0.9,2.9,1.2c1,0.3,2,0.4,3.2,0.4
					c0.9,0,1.5-0.1,1.8-0.3s0.5-0.6,0.5-1c0-0.4-0.2-0.7-0.5-1c-0.4-0.2-1-0.5-2-0.8c-1-0.3-2-0.6-2.8-0.9c-0.9-0.3-1.6-0.7-2.2-1.1
					c-0.6-0.4-1.1-1-1.4-1.6c-0.3-0.6-0.5-1.4-0.5-2.3c0-0.9,0.2-1.7,0.5-2.3c0.3-0.7,0.8-1.2,1.4-1.6s1.4-0.7,2.2-0.9
					c0.9-0.2,1.8-0.3,2.8-0.3c1.1,0,2.2,0.2,3.4,0.5c1.1,0.3,2.2,0.7,3.1,1.2l-1.5,3.6c-0.9-0.5-1.7-0.8-2.6-1
					c-0.9-0.2-1.7-0.3-2.4-0.3c-0.9,0-1.6,0.1-1.9,0.3c-0.3,0.2-0.5,0.5-0.5,0.8c0,0.2,0,0.3,0.1,0.5c0.1,0.1,0.3,0.3,0.5,0.4
					c0.3,0.1,0.6,0.3,1.1,0.5c0.5,0.2,1.1,0.4,1.9,0.6c0.8,0.3,1.5,0.5,2.2,0.8c0.7,0.3,1.3,0.6,1.9,1.1c0.5,0.4,1,0.9,1.3,1.5
					C225.9,41.4,226.1,42.2,226.1,43z"/>
				<path id="XMLID_217_" class="st11" d="M244.1,39.4c0,0.3,0,0.6,0,0.8c0,0.2,0,0.4,0,0.6h-10.5c0,0.6,0.2,1.1,0.4,1.5
					c0.2,0.4,0.5,0.8,0.8,1c0.3,0.3,0.7,0.4,1.1,0.6c0.4,0.1,0.8,0.2,1.2,0.2c0.6,0,1.2-0.1,1.7-0.3c0.5-0.2,0.9-0.5,1.3-0.9
					l3.3,2.7c-0.7,0.9-1.6,1.6-2.8,2.1s-2.3,0.7-3.5,0.7c-1.3,0-2.4-0.2-3.4-0.6c-1-0.4-1.9-1-2.6-1.8s-1.3-1.7-1.6-2.9
					c-0.4-1.1-0.6-2.4-0.6-3.7c0-1.3,0.2-2.6,0.6-3.7c0.4-1.1,0.9-2.1,1.6-2.9c0.7-0.8,1.5-1.4,2.5-1.9c0.9-0.4,2-0.7,3.1-0.7
					c1.2,0,2.2,0.2,3.1,0.7c0.9,0.5,1.7,1.1,2.3,2s1.1,1.8,1.4,2.9C243.9,37,244.1,38.2,244.1,39.4z M239.6,37.4
					c0-0.4-0.1-0.8-0.3-1.1c-0.1-0.4-0.3-0.7-0.6-1c-0.3-0.3-0.6-0.5-1-0.7c-0.4-0.2-0.8-0.3-1.3-0.3c-0.8,0-1.5,0.3-2,0.9
					s-0.8,1.3-0.9,2.2H239.6z"/>
				<path id="XMLID_215_" class="st11" d="M258.1,48.1V24.8h16.2v4.6h-11.5v4h6.7v4.5h-6.7v5.6h12v4.6H258.1z"/>
				<path id="XMLID_213_" class="st11" d="M286.9,48.1h-4.7l-6.3-17.5h5.1l2.6,8.1c0.2,0.7,0.4,1.4,0.6,2.1c0.2,0.7,0.4,1.3,0.5,1.7
					c0.1-0.4,0.3-1,0.5-1.7c0.2-0.7,0.4-1.4,0.6-2.1l2.6-8.1h4.9L286.9,48.1z"/>
				<path id="XMLID_210_" class="st11" d="M309.9,39.4c0,0.3,0,0.6,0,0.8c0,0.2,0,0.4,0,0.6h-10.5c0,0.6,0.2,1.1,0.4,1.5
					c0.2,0.4,0.5,0.8,0.8,1c0.3,0.3,0.7,0.4,1.1,0.6c0.4,0.1,0.8,0.2,1.2,0.2c0.6,0,1.2-0.1,1.7-0.3c0.5-0.2,0.9-0.5,1.3-0.9
					l3.3,2.7c-0.7,0.9-1.6,1.6-2.8,2.1s-2.3,0.7-3.5,0.7c-1.3,0-2.4-0.2-3.4-0.6c-1-0.4-1.9-1-2.6-1.8s-1.3-1.7-1.6-2.9
					c-0.4-1.1-0.6-2.4-0.6-3.7c0-1.3,0.2-2.6,0.6-3.7c0.4-1.1,0.9-2.1,1.6-2.9c0.7-0.8,1.5-1.4,2.5-1.9c0.9-0.4,2-0.7,3.1-0.7
					c1.2,0,2.2,0.2,3.1,0.7c0.9,0.5,1.7,1.1,2.3,2s1.1,1.8,1.4,2.9C309.8,37,309.9,38.2,309.9,39.4z M305.5,37.4
					c0-0.4-0.1-0.8-0.3-1.1c-0.1-0.4-0.3-0.7-0.6-1c-0.3-0.3-0.6-0.5-1-0.7c-0.4-0.2-0.8-0.3-1.3-0.3c-0.8,0-1.5,0.3-2,0.9
					s-0.8,1.3-0.9,2.2H305.5z"/>
				<path id="XMLID_208_" class="st11" d="M324.1,48.1v-9.5c0-1.6-0.3-2.6-0.8-3.2c-0.5-0.6-1.2-0.9-2.2-0.9s-1.7,0.3-2.2,0.8
					c-0.5,0.6-0.8,1.6-0.8,3.1v9.6h-4.6V30.6h4.6v1.2c0.4-0.4,0.9-0.8,1.6-1.1c0.7-0.3,1.5-0.4,2.4-0.4c2.2,0,3.8,0.7,4.9,2.1
					c1,1.4,1.6,3.4,1.6,5.8v9.9H324.1z"/>
				<path id="XMLID_206_" class="st11" d="M342.6,47.4c-0.4,0.3-0.9,0.6-1.5,0.8s-1.3,0.3-2,0.3c-0.7,0-1.4-0.1-1.9-0.4
					s-1.1-0.6-1.5-1.1c-0.4-0.5-0.7-1-0.9-1.7c-0.2-0.6-0.3-1.4-0.3-2.1V35h-2.9v-4.3h2.9v-4.5l4.6-2.3v6.8h4.2V35H339v7
					c0,0.8,0.1,1.4,0.4,1.7c0.3,0.3,0.7,0.4,1.3,0.4c0.4,0,0.8-0.1,1.2-0.3s0.8-0.5,1.4-1L342.6,47.4z"/>
			</g>
			<line id="XMLID_204_" class="st12" x1="378.5" y1="0" x2="378.5" y2="73.3"/>
			<line id="XMLID_203_" class="st12" x1="671.6" y1="0" x2="671.6" y2="73.3"/>
			<linearGradient id="XMLID_529_" gradientUnits="userSpaceOnUse" x1="85.5178" y1="175.7119" x2="964.4838" y2="175.7119">
				<stop  offset="0" style="stop-color:#4B257A"/>
				<stop  offset="1" style="stop-color:#954C8D"/>
			</linearGradient>
			<line id="XMLID_202_" class="st13" x1="85.5" y1="175.7" x2="964.5" y2="175.7"/>
			<g id="XMLID_184_">
				<g>
					<path id="XMLID_192_" class="st6" d="M499.1,240.4v-27H493v-2.4c1.9-0.1,3.4-0.5,4.7-1.1c1.3-0.6,2-1.7,2.3-3.3h2.8v33.7H499.1
						z"/>
					<path id="XMLID_190_" class="st6" d="M514.1,240.4v-27H508v-2.4c1.9-0.1,3.4-0.5,4.7-1.1c1.3-0.6,2-1.7,2.3-3.3h2.8v33.7H514.1
						z"/>
					<path id="XMLID_188_" class="st6" d="M531.2,237.9c0,0.8-0.3,1.6-0.9,2.2c-0.6,0.6-1.3,0.9-2.2,0.9s-1.6-0.3-2.2-0.9
						c-0.6-0.6-0.9-1.3-0.9-2.2s0.3-1.6,0.9-2.2s1.3-1,2.2-1s1.6,0.3,2.2,1C530.9,236.3,531.2,237,531.2,237.9z"/>
					<path id="XMLID_186_" class="st6" d="M549.7,216.2c-1.3,2.1-2.5,4.4-3.5,6.9c-1,2.5-1.8,5.2-2.5,8c-0.6,2.9-1,6-1,9.3h-3.8
						c0.1-3,0.4-5.9,1-8.7c0.6-2.8,1.3-5.4,2.3-7.9c1-2.5,2.1-4.9,3.4-7.2s2.7-4.4,4.3-6.4h-18.1v-3.6h22.2v3.5
						C552.4,212.1,551,214,549.7,216.2z"/>
				</g>
			</g>
		</g>
		<g id="XMLID_57_">
			<g id="XMLID_179_">
				<linearGradient id="XMLID_530_" gradientUnits="userSpaceOnUse" x1="156.8862" y1="423.5877" x2="893.2274" y2="423.5877">
					<stop  offset="0" style="stop-color:#4B257A"/>
					<stop  offset="1" style="stop-color:#954C8D"/>
				</linearGradient>
				<rect id="XMLID_181_" x="156.9" y="397.1" class="st14" width="736.3" height="53"/>
			</g>
			<g id="XMLID_58_">
				<path id="XMLID_173_" class="st11" d="M233.6,433.6l-4.7-9.5h-5.3v9.5h-5.3v-26.4h12.3c1.2,0,2.4,0.2,3.5,0.5
					c1.1,0.3,2.1,0.9,2.9,1.6c0.8,0.7,1.5,1.6,2,2.6s0.7,2.3,0.7,3.7c0,2-0.4,3.6-1.3,4.9c-0.8,1.3-2.1,2.2-3.8,2.9l5.1,10.3H233.6z
					 M234.2,415.7c0-1.2-0.3-2.1-1-2.6c-0.7-0.5-1.6-0.8-2.8-0.8h-6.9v6.8h6.9C233,419.1,234.2,418,234.2,415.7z"/>
				<path id="XMLID_167_" class="st11" d="M254.2,433.6v-1.3c-0.5,0.5-1.1,0.9-1.9,1.2c-0.8,0.3-1.6,0.5-2.6,0.5
					c-0.9,0-1.8-0.1-2.7-0.4c-0.9-0.3-1.7-0.7-2.4-1.3c-0.7-0.6-1.3-1.3-1.7-2.2c-0.4-0.9-0.6-1.9-0.6-3.1c0-1.1,0.2-2,0.6-2.9
					c0.4-0.8,1-1.5,1.7-2.1c0.7-0.5,1.6-1,2.5-1.2s2-0.4,3.2-0.4c0.9,0,1.7,0.1,2.3,0.2s1.1,0.3,1.5,0.5v-1c0-0.7-0.2-1.3-0.7-1.8
					s-1.2-0.7-2.1-0.7c-0.6,0-1.1,0-1.6,0.1s-0.9,0.1-1.3,0.2c-0.4,0.1-0.8,0.2-1.2,0.4c-0.4,0.2-0.8,0.4-1.3,0.6l-2-3.6
					c0.6-0.3,1.1-0.6,1.7-0.9c0.5-0.3,1.1-0.5,1.7-0.6c0.6-0.2,1.2-0.3,1.9-0.4c0.7-0.1,1.4-0.1,2.2-0.1c1.2,0,2.3,0.2,3.3,0.5
					c1,0.3,1.8,0.8,2.5,1.3s1.3,1.3,1.6,2.2c0.4,0.9,0.6,1.9,0.6,3v13.3H254.2z M254.2,425.3c-0.5-0.3-0.9-0.5-1.5-0.6
					c-0.5-0.1-1.2-0.2-2.2-0.2c-1,0-1.7,0.2-2.2,0.6c-0.5,0.4-0.8,1-0.8,1.9c0,0.7,0.2,1.3,0.7,1.9c0.5,0.5,1.2,0.8,2.3,0.8
					c0.9,0,1.6-0.2,2.2-0.5s1.1-0.8,1.4-1.3V425.3z"/>
				<path id="XMLID_164_" class="st11" d="M281.4,424c0,1.5-0.2,2.8-0.5,4.1c-0.3,1.2-0.8,2.3-1.5,3.2c-0.7,0.9-1.5,1.6-2.4,2.1
					s-2.1,0.7-3.3,0.7c-0.9,0-1.7-0.2-2.4-0.5c-0.7-0.3-1.3-0.7-1.8-1.1v5.8l-5.2,2.6v-27.1h5.2v1.2c0.5-0.4,1.1-0.8,1.8-1.2
					c0.7-0.3,1.5-0.5,2.4-0.5c1.1,0,2.1,0.2,3,0.6c0.9,0.4,1.8,1,2.5,1.9c0.7,0.9,1.3,2,1.7,3.3C281.2,420.5,281.4,422.1,281.4,424z
					 M276.1,424.1c0-2-0.3-3.5-0.9-4.4c-0.6-0.9-1.4-1.4-2.5-1.4c-0.8,0-1.4,0.2-1.9,0.5c-0.5,0.3-0.9,0.7-1.3,1.2v7.5
					c0.8,1.1,2,1.7,3.5,1.7C275.1,429.1,276.1,427.4,276.1,424.1z"/>
				<path id="XMLID_160_" class="st11" d="M291.3,409.2c0,0.8-0.3,1.5-0.9,2.1s-1.3,0.9-2.1,0.9c-0.8,0-1.5-0.3-2.1-0.9
					s-0.9-1.3-0.9-2.1c0-0.8,0.3-1.5,0.9-2.1c0.6-0.6,1.3-0.9,2.1-0.9c0.8,0,1.5,0.3,2.1,0.9C291,407.7,291.3,408.4,291.3,409.2z
					 M285.7,433.6v-19.8h5.2v19.8H285.7z"/>
				<path id="XMLID_156_" class="st11" d="M307,433.6v-1.2c-0.5,0.4-1.1,0.8-1.8,1.2s-1.5,0.5-2.4,0.5c-1.1,0-2.1-0.2-3-0.6
					c-0.9-0.4-1.8-1-2.5-1.9c-0.7-0.9-1.3-2-1.7-3.3c-0.4-1.3-0.6-2.9-0.6-4.8c0-1.5,0.2-2.8,0.5-4.1c0.3-1.2,0.8-2.3,1.5-3.2
					c0.7-0.9,1.5-1.6,2.4-2.1s2.1-0.7,3.3-0.7c0.9,0,1.7,0.2,2.4,0.5c0.7,0.3,1.3,0.7,1.8,1.1v-6.2l5.2-2.6v27.5H307z M307,420
					c-0.8-1.1-2-1.7-3.5-1.7c-2.1,0-3.1,1.7-3.1,5.1c0,2,0.3,3.5,0.9,4.4c0.6,0.9,1.4,1.4,2.5,1.4c0.8,0,1.4-0.2,1.9-0.5
					c0.5-0.3,0.9-0.7,1.3-1.2V420z"/>
				<path id="XMLID_153_" class="st11" d="M340.1,433.6v-1.3c-0.5,0.5-1.1,0.9-1.9,1.2c-0.8,0.3-1.7,0.5-2.8,0.5
					c-2.5,0-4.4-0.8-5.6-2.4c-1.2-1.6-1.8-3.8-1.8-6.6v-11.2h5.2v10.7c0,0.9,0.1,1.6,0.2,2.2c0.2,0.6,0.4,1.1,0.6,1.4
					c0.3,0.4,0.6,0.6,1.1,0.8c0.4,0.2,0.9,0.2,1.4,0.2c1.1,0,1.9-0.3,2.5-1c0.6-0.6,0.9-1.8,0.9-3.5v-10.8h5.2v19.8H340.1z"/>
				<path id="XMLID_145_" class="st11" d="M367.5,424c0,1.5-0.2,2.8-0.5,4.1c-0.3,1.2-0.8,2.3-1.5,3.2c-0.7,0.9-1.5,1.6-2.4,2.1
					s-2.1,0.7-3.3,0.7c-0.9,0-1.7-0.2-2.4-0.5c-0.7-0.3-1.3-0.7-1.8-1.1v5.8l-5.2,2.6v-27.1h5.2v1.2c0.5-0.4,1.1-0.8,1.8-1.2
					c0.7-0.3,1.5-0.5,2.4-0.5c1.1,0,2.1,0.2,3,0.6c0.9,0.4,1.8,1,2.5,1.9c0.7,0.9,1.3,2,1.7,3.3C367.3,420.5,367.5,422.1,367.5,424z
					 M362.2,424.1c0-2-0.3-3.5-0.9-4.4c-0.6-0.9-1.4-1.4-2.5-1.4c-0.8,0-1.4,0.2-1.9,0.5c-0.5,0.3-0.9,0.7-1.3,1.2v7.5
					c0.8,1.1,2,1.7,3.5,1.7C361.2,429.1,362.2,427.4,362.2,424.1z"/>
				<path id="XMLID_133_" class="st11" d="M371.4,422.5v-5.2h10.8v5.2H371.4z"/>
				<path id="XMLID_131_" class="st11" d="M398.1,432.8c-0.4,0.4-1,0.6-1.7,0.9c-0.7,0.2-1.5,0.3-2.3,0.3c-0.8,0-1.5-0.1-2.2-0.4
					c-0.7-0.3-1.2-0.7-1.7-1.2c-0.5-0.5-0.8-1.2-1.1-1.9c-0.3-0.7-0.4-1.5-0.4-2.4v-9.4h-3.3v-4.9h3.3v-5.1l5.2-2.6v7.7h4.8v4.9H394
					v8c0,1,0.2,1.6,0.5,1.9c0.3,0.3,0.8,0.5,1.4,0.5c0.5,0,0.9-0.1,1.3-0.3c0.4-0.2,1-0.6,1.6-1.2L398.1,432.8z"/>
				<path id="XMLID_128_" class="st11" d="M409.5,409.2c0,0.8-0.3,1.5-0.9,2.1s-1.3,0.9-2.1,0.9c-0.8,0-1.5-0.3-2.1-0.9
					s-0.9-1.3-0.9-2.1c0-0.8,0.3-1.5,0.9-2.1c0.6-0.6,1.3-0.9,2.1-0.9c0.8,0,1.5,0.3,2.1,0.9C409.2,407.7,409.5,408.4,409.5,409.2z
					 M403.9,433.6v-19.8h5.2v19.8H403.9z"/>
				<path id="XMLID_126_" class="st11" d="M425.4,432.8c-0.4,0.4-1,0.6-1.7,0.9c-0.7,0.2-1.5,0.3-2.3,0.3c-0.8,0-1.5-0.1-2.2-0.4
					c-0.7-0.3-1.2-0.7-1.7-1.2c-0.5-0.5-0.8-1.2-1.1-1.9c-0.3-0.7-0.4-1.5-0.4-2.4v-9.4h-3.3v-4.9h3.3v-5.1l5.2-2.6v7.7h4.8v4.9
					h-4.8v8c0,1,0.2,1.6,0.5,1.9c0.3,0.3,0.8,0.5,1.4,0.5c0.5,0,0.9-0.1,1.3-0.3c0.4-0.2,1-0.6,1.6-1.2L425.4,432.8z"/>
				<path id="XMLID_124_" class="st11" d="M442.7,419.9c-0.4-0.4-0.9-0.7-1.4-0.9s-1-0.4-1.6-0.4c-0.5,0-1,0.1-1.4,0.2
					c-0.4,0.1-0.8,0.4-1.1,0.7c-0.3,0.3-0.5,0.8-0.7,1.3c-0.2,0.6-0.2,1.3-0.2,2.1v10.7h-5.2v-19.8h5.2v1.3c0.5-0.5,1-0.9,1.7-1.2
					c0.7-0.3,1.5-0.5,2.4-0.5c0.9,0,1.6,0.1,2.2,0.4c0.6,0.3,1.1,0.6,1.5,1L442.7,419.9z"/>
				<path id="XMLID_110_" class="st11" d="M457.2,433.6v-1.3c-0.5,0.5-1.1,0.9-1.9,1.2c-0.8,0.3-1.6,0.5-2.6,0.5
					c-0.9,0-1.8-0.1-2.7-0.4c-0.9-0.3-1.7-0.7-2.4-1.3c-0.7-0.6-1.3-1.3-1.7-2.2c-0.4-0.9-0.6-1.9-0.6-3.1c0-1.1,0.2-2,0.6-2.9
					c0.4-0.8,1-1.5,1.7-2.1c0.7-0.5,1.6-1,2.5-1.2s2-0.4,3.2-0.4c0.9,0,1.7,0.1,2.3,0.2s1.1,0.3,1.5,0.5v-1c0-0.7-0.2-1.3-0.7-1.8
					s-1.2-0.7-2.1-0.7c-0.6,0-1.1,0-1.6,0.1s-0.9,0.1-1.3,0.2c-0.4,0.1-0.8,0.2-1.2,0.4c-0.4,0.2-0.8,0.4-1.3,0.6l-2-3.6
					c0.6-0.3,1.1-0.6,1.7-0.9c0.5-0.3,1.1-0.5,1.7-0.6c0.6-0.2,1.2-0.3,1.9-0.4c0.7-0.1,1.4-0.1,2.2-0.1c1.2,0,2.3,0.2,3.3,0.5
					c1,0.3,1.8,0.8,2.5,1.3s1.3,1.3,1.6,2.2c0.4,0.9,0.6,1.9,0.6,3v13.3H457.2z M457.2,425.3c-0.5-0.3-0.9-0.5-1.5-0.6
					c-0.5-0.1-1.2-0.2-2.2-0.2c-1,0-1.7,0.2-2.2,0.6c-0.5,0.4-0.8,1-0.8,1.9c0,0.7,0.2,1.3,0.7,1.9c0.5,0.5,1.2,0.8,2.3,0.8
					c0.9,0,1.6-0.2,2.2-0.5s1.1-0.8,1.4-1.3V425.3z"/>
				<path id="XMLID_108_" class="st11" d="M478.4,432.8c-0.4,0.4-1,0.6-1.7,0.9c-0.7,0.2-1.5,0.3-2.3,0.3c-0.8,0-1.5-0.1-2.2-0.4
					c-0.7-0.3-1.2-0.7-1.7-1.2c-0.5-0.5-0.8-1.2-1.1-1.9c-0.3-0.7-0.4-1.5-0.4-2.4v-9.4h-3.3v-4.9h3.3v-5.1l5.2-2.6v7.7h4.8v4.9
					h-4.8v8c0,1,0.2,1.6,0.5,1.9c0.3,0.3,0.8,0.5,1.4,0.5c0.5,0,0.9-0.1,1.3-0.3c0.4-0.2,1-0.6,1.6-1.2L478.4,432.8z"/>
				<path id="XMLID_105_" class="st11" d="M489.8,409.2c0,0.8-0.3,1.5-0.9,2.1s-1.3,0.9-2.1,0.9c-0.8,0-1.5-0.3-2.1-0.9
					s-0.9-1.3-0.9-2.1c0-0.8,0.3-1.5,0.9-2.1c0.6-0.6,1.3-0.9,2.1-0.9c0.8,0,1.5,0.3,2.1,0.9C489.5,407.7,489.8,408.4,489.8,409.2z
					 M484.2,433.6v-19.8h5.2v19.8H484.2z"/>
				<path id="XMLID_102_" class="st11" d="M511.6,423.7c0,1.5-0.2,2.9-0.7,4.2s-1.1,2.4-1.9,3.3c-0.8,0.9-1.7,1.6-2.9,2.1
					c-1.1,0.5-2.3,0.8-3.6,0.8c-1.3,0-2.5-0.3-3.6-0.8c-1.1-0.5-2-1.2-2.8-2.1c-0.8-0.9-1.4-2-1.9-3.3s-0.7-2.7-0.7-4.2
					c0-1.5,0.2-2.9,0.7-4.2c0.5-1.3,1.1-2.4,1.9-3.3c0.8-0.9,1.7-1.6,2.8-2.1s2.3-0.8,3.6-0.8c1.3,0,2.5,0.3,3.6,0.8
					s2.1,1.2,2.9,2.1c0.8,0.9,1.4,2,1.9,3.3C511.4,420.8,511.6,422.2,511.6,423.7z M506.3,423.7c0-1.5-0.3-2.8-0.9-3.8
					s-1.5-1.5-2.8-1.5c-1.3,0-2.2,0.5-2.8,1.5c-0.6,1-0.9,2.3-0.9,3.8s0.3,2.8,0.9,3.8s1.5,1.5,2.8,1.5c0.6,0,1.2-0.1,1.6-0.4
					c0.5-0.3,0.8-0.7,1.2-1.2c0.3-0.5,0.5-1.1,0.7-1.7C506.2,425.1,506.3,424.4,506.3,423.7z"/>
				<path id="XMLID_100_" class="st11" d="M527.6,433.6v-10.7c0-1.8-0.3-3-0.9-3.6c-0.6-0.7-1.4-1-2.5-1s-1.9,0.3-2.5,1
					s-0.9,1.8-0.9,3.5v10.8h-5.2v-19.8h5.2v1.3c0.5-0.5,1.1-0.9,1.9-1.2c0.8-0.3,1.7-0.5,2.8-0.5c2.5,0,4.4,0.8,5.6,2.4
					c1.2,1.6,1.8,3.8,1.8,6.6v11.2H527.6z"/>
				<path id="XMLID_97_" class="st11" d="M565.6,423.7c0,1.5-0.2,2.9-0.7,4.2s-1.1,2.4-1.9,3.3c-0.8,0.9-1.7,1.6-2.9,2.1
					c-1.1,0.5-2.3,0.8-3.6,0.8c-1.3,0-2.5-0.3-3.6-0.8c-1.1-0.5-2-1.2-2.8-2.1c-0.8-0.9-1.4-2-1.9-3.3s-0.7-2.7-0.7-4.2
					c0-1.5,0.2-2.9,0.7-4.2c0.5-1.3,1.1-2.4,1.9-3.3c0.8-0.9,1.7-1.6,2.8-2.1s2.3-0.8,3.6-0.8c1.3,0,2.5,0.3,3.6,0.8
					s2.1,1.2,2.9,2.1c0.8,0.9,1.4,2,1.9,3.3C565.4,420.8,565.6,422.2,565.6,423.7z M560.3,423.7c0-1.5-0.3-2.8-0.9-3.8
					s-1.5-1.5-2.8-1.5c-1.3,0-2.2,0.5-2.8,1.5c-0.6,1-0.9,2.3-0.9,3.8s0.3,2.8,0.9,3.8s1.5,1.5,2.8,1.5c0.6,0,1.2-0.1,1.6-0.4
					c0.5-0.3,0.8-0.7,1.2-1.2c0.3-0.5,0.5-1.1,0.7-1.7C560.2,425.1,560.3,424.4,560.3,423.7z"/>
				<path id="XMLID_95_" class="st11" d="M578.5,410.7c-0.3-0.1-0.6-0.1-1-0.1c-0.8,0-1.3,0.1-1.5,0.4c-0.3,0.3-0.4,0.7-0.4,1.2v1.7
					h3.4v4.9h-3.4v14.9h-5.2v-14.9H568v-4.9h2.4v-2.4c0-1.9,0.5-3.2,1.5-4c1-0.8,2.4-1.2,4.2-1.2c1.3,0,2.4,0.2,3.3,0.6v4.2
					C579,410.8,578.7,410.7,578.5,410.7z"/>
				<path id="XMLID_93_" class="st11" d="M594.2,433.6v-24.9l5.2-2.6v27.5H594.2z"/>
				<path id="XMLID_90_" class="st11" d="M620.8,423.7c0,0.4,0,0.7,0,1s0,0.5-0.1,0.7h-11.9c0,0.7,0.2,1.3,0.5,1.7
					c0.3,0.5,0.6,0.9,0.9,1.2c0.4,0.3,0.8,0.5,1.3,0.6c0.5,0.1,0.9,0.2,1.4,0.2c0.7,0,1.4-0.1,2-0.4c0.6-0.3,1.1-0.6,1.4-1l3.7,3.1
					c-0.8,1-1.9,1.8-3.2,2.4c-1.3,0.6-2.6,0.8-3.9,0.8c-1.4,0-2.7-0.2-3.9-0.7c-1.1-0.5-2.1-1.2-2.9-2.1c-0.8-0.9-1.4-2-1.9-3.2
					c-0.4-1.3-0.7-2.7-0.7-4.3c0-1.5,0.2-2.9,0.7-4.2c0.5-1.3,1.1-2.4,1.9-3.3c0.8-0.9,1.7-1.6,2.8-2.1c1.1-0.5,2.2-0.8,3.5-0.8
					c1.3,0,2.5,0.3,3.5,0.8c1,0.5,1.9,1.3,2.6,2.2c0.7,0.9,1.2,2,1.6,3.3C620.6,421,620.8,422.3,620.8,423.7z M615.8,421.5
					c-0.1-0.5-0.2-0.9-0.3-1.3c-0.2-0.4-0.4-0.8-0.7-1.1c-0.3-0.3-0.7-0.6-1.1-0.8c-0.4-0.2-0.9-0.3-1.5-0.3c-1,0-1.7,0.3-2.3,1
					c-0.6,0.7-0.9,1.5-1,2.5H615.8z"/>
				<path id="XMLID_88_" class="st11" d="M634.9,433.6h-5.4l-7.1-19.8h5.7l2.9,9.2c0.3,0.8,0.5,1.5,0.7,2.4s0.4,1.5,0.5,2
					c0.1-0.5,0.3-1.2,0.5-2c0.2-0.8,0.5-1.6,0.7-2.4l2.9-9.2h5.6L634.9,433.6z"/>
				<path id="XMLID_85_" class="st11" d="M661.1,423.7c0,0.4,0,0.7,0,1s0,0.5-0.1,0.7h-11.9c0,0.7,0.2,1.3,0.5,1.7
					c0.3,0.5,0.6,0.9,0.9,1.2c0.4,0.3,0.8,0.5,1.3,0.6c0.5,0.1,0.9,0.2,1.4,0.2c0.7,0,1.4-0.1,2-0.4c0.6-0.3,1.1-0.6,1.4-1l3.7,3.1
					c-0.8,1-1.9,1.8-3.2,2.4c-1.3,0.6-2.6,0.8-3.9,0.8c-1.4,0-2.7-0.2-3.9-0.7c-1.1-0.5-2.1-1.2-2.9-2.1c-0.8-0.9-1.4-2-1.9-3.2
					c-0.4-1.3-0.7-2.7-0.7-4.3c0-1.5,0.2-2.9,0.7-4.2c0.5-1.3,1.1-2.4,1.9-3.3c0.8-0.9,1.7-1.6,2.8-2.1c1.1-0.5,2.2-0.8,3.5-0.8
					c1.3,0,2.5,0.3,3.5,0.8c1,0.5,1.9,1.3,2.6,2.2c0.7,0.9,1.2,2,1.6,3.3C660.9,421,661.1,422.3,661.1,423.7z M656,421.5
					c-0.1-0.5-0.2-0.9-0.3-1.3c-0.2-0.4-0.4-0.8-0.7-1.1c-0.3-0.3-0.7-0.6-1.1-0.8c-0.4-0.2-0.9-0.3-1.5-0.3c-1,0-1.7,0.3-2.3,1
					c-0.6,0.7-0.9,1.5-1,2.5H656z"/>
				<path id="XMLID_82_" class="st11" d="M676,432.8c-0.4,0.4-1,0.6-1.7,0.9c-0.7,0.2-1.5,0.3-2.3,0.3c-0.8,0-1.5-0.1-2.2-0.4
					c-0.7-0.3-1.2-0.7-1.7-1.2c-0.5-0.5-0.8-1.2-1.1-1.9c-0.3-0.7-0.4-1.5-0.4-2.4v-9.4h-3.3v-4.9h3.3v-5.1l5.2-2.6v7.7h4.8v4.9
					h-4.8v8c0,1,0.2,1.6,0.5,1.9c0.3,0.3,0.8,0.5,1.4,0.5c0.5,0,0.9-0.1,1.3-0.3c0.4-0.2,1-0.6,1.6-1.2L676,432.8z"/>
				<path id="XMLID_76_" class="st11" d="M687.4,409.2c0,0.8-0.3,1.5-0.9,2.1s-1.3,0.9-2.1,0.9c-0.8,0-1.5-0.3-2.1-0.9
					s-0.9-1.3-0.9-2.1c0-0.8,0.3-1.5,0.9-2.1c0.6-0.6,1.3-0.9,2.1-0.9c0.8,0,1.5,0.3,2.1,0.9C687.1,407.7,687.4,408.4,687.4,409.2z
					 M681.8,433.6v-19.8h5.2v19.8H681.8z"/>
				<path id="XMLID_74_" class="st11" d="M703.9,419.9c-0.4-0.4-0.9-0.7-1.4-0.9s-1-0.4-1.6-0.4c-0.5,0-1,0.1-1.4,0.2
					c-0.4,0.1-0.8,0.4-1.1,0.7c-0.3,0.3-0.5,0.8-0.7,1.3c-0.2,0.6-0.2,1.3-0.2,2.1v10.7h-5.2v-19.8h5.2v1.3c0.5-0.5,1-0.9,1.7-1.2
					c0.7-0.3,1.5-0.5,2.4-0.5c0.9,0,1.6,0.1,2.2,0.4c0.6,0.3,1.1,0.6,1.5,1L703.9,419.9z"/>
				<path id="XMLID_71_" class="st11" d="M718.4,433.6v-1.3c-0.5,0.5-1.1,0.9-1.9,1.2c-0.8,0.3-1.6,0.5-2.6,0.5
					c-0.9,0-1.8-0.1-2.7-0.4c-0.9-0.3-1.7-0.7-2.4-1.3c-0.7-0.6-1.3-1.3-1.7-2.2c-0.4-0.9-0.6-1.9-0.6-3.1c0-1.1,0.2-2,0.6-2.9
					c0.4-0.8,1-1.5,1.7-2.1c0.7-0.5,1.6-1,2.5-1.2s2-0.4,3.2-0.4c0.9,0,1.7,0.1,2.3,0.2s1.1,0.3,1.5,0.5v-1c0-0.7-0.2-1.3-0.7-1.8
					s-1.2-0.7-2.1-0.7c-0.6,0-1.1,0-1.6,0.1s-0.9,0.1-1.3,0.2c-0.4,0.1-0.8,0.2-1.2,0.4c-0.4,0.2-0.8,0.4-1.3,0.6l-2-3.6
					c0.6-0.3,1.1-0.6,1.7-0.9c0.5-0.3,1.1-0.5,1.7-0.6c0.6-0.2,1.2-0.3,1.9-0.4c0.7-0.1,1.4-0.1,2.2-0.1c1.2,0,2.3,0.2,3.3,0.5
					c1,0.3,1.8,0.8,2.5,1.3s1.3,1.3,1.6,2.2c0.4,0.9,0.6,1.9,0.6,3v13.3H718.4z M718.4,425.3c-0.5-0.3-0.9-0.5-1.5-0.6
					c-0.5-0.1-1.2-0.2-2.2-0.2c-1,0-1.7,0.2-2.2,0.6c-0.5,0.4-0.8,1-0.8,1.9c0,0.7,0.2,1.3,0.7,1.9c0.5,0.5,1.2,0.8,2.3,0.8
					c0.9,0,1.6-0.2,2.2-0.5s1.1-0.8,1.4-1.3V425.3z"/>
				<path id="XMLID_69_" class="st11" d="M743.4,431.4c-0.5,0.5-1.1,1-1.8,1.4c-0.6,0.4-1.4,0.7-2.2,0.9c-0.8,0.2-1.7,0.3-2.7,0.3
					c-1.3,0-2.5-0.3-3.6-0.8c-1.1-0.5-2.1-1.2-3-2.1c-0.8-0.9-1.5-2-2-3.3c-0.5-1.3-0.7-2.7-0.7-4.2c0-1.5,0.2-2.9,0.7-4.2
					c0.5-1.3,1.1-2.4,2-3.3c0.8-0.9,1.8-1.6,3-2.1c1.2-0.5,2.4-0.8,3.8-0.8c1.9,0,3.5,0.4,4.7,1.2c1.3,0.8,2.3,1.9,3.1,3.1l-3.4,3.5
					c-0.6-0.8-1.2-1.5-1.9-2c-0.7-0.5-1.6-0.8-2.6-0.8c-1.3,0-2.3,0.5-3,1.4s-1.1,2.3-1.1,3.9c0,1.6,0.4,2.9,1.1,3.9s1.7,1.5,3,1.5
					c1,0,1.9-0.2,2.6-0.7s1.4-1.1,2.1-1.9l3.3,3.1C744.4,430.3,743.9,430.9,743.4,431.4z"/>
				<path id="XMLID_66_" class="st11" d="M764.5,423.7c0,0.4,0,0.7,0,1s0,0.5-0.1,0.7h-11.9c0,0.7,0.2,1.3,0.5,1.7
					c0.3,0.5,0.6,0.9,0.9,1.2c0.4,0.3,0.8,0.5,1.3,0.6c0.5,0.1,0.9,0.2,1.4,0.2c0.7,0,1.4-0.1,2-0.4c0.6-0.3,1.1-0.6,1.4-1l3.7,3.1
					c-0.8,1-1.9,1.8-3.2,2.4c-1.3,0.6-2.6,0.8-3.9,0.8c-1.4,0-2.7-0.2-3.9-0.7c-1.1-0.5-2.1-1.2-2.9-2.1c-0.8-0.9-1.4-2-1.9-3.2
					c-0.4-1.3-0.7-2.7-0.7-4.3c0-1.5,0.2-2.9,0.7-4.2c0.5-1.3,1.1-2.4,1.9-3.3c0.8-0.9,1.7-1.6,2.8-2.1c1.1-0.5,2.2-0.8,3.5-0.8
					c1.3,0,2.5,0.3,3.5,0.8c1,0.5,1.9,1.3,2.6,2.2c0.7,0.9,1.2,2,1.6,3.3C764.3,421,764.5,422.3,764.5,423.7z M759.5,421.5
					c-0.1-0.5-0.2-0.9-0.3-1.3c-0.2-0.4-0.4-0.8-0.7-1.1c-0.3-0.3-0.7-0.6-1.1-0.8c-0.4-0.2-0.9-0.3-1.5-0.3c-1,0-1.7,0.3-2.3,1
					c-0.6,0.7-0.9,1.5-1,2.5H759.5z"/>
				<path id="XMLID_64_" class="st11" d="M779.5,432.8c-0.4,0.4-1,0.6-1.7,0.9c-0.7,0.2-1.5,0.3-2.3,0.3c-0.8,0-1.5-0.1-2.2-0.4
					c-0.7-0.3-1.2-0.7-1.7-1.2c-0.5-0.5-0.8-1.2-1.1-1.9c-0.3-0.7-0.4-1.5-0.4-2.4v-9.4h-3.3v-4.9h3.3v-5.1l5.2-2.6v7.7h4.8v4.9
					h-4.8v8c0,1,0.2,1.6,0.5,1.9c0.3,0.3,0.8,0.5,1.4,0.5c0.5,0,0.9-0.1,1.3-0.3c0.4-0.2,1-0.6,1.6-1.2L779.5,432.8z"/>
				<path id="XMLID_61_" class="st11" d="M795.4,433.6v-1.3c-0.5,0.5-1.1,0.9-1.9,1.2c-0.8,0.3-1.6,0.5-2.6,0.5
					c-0.9,0-1.8-0.1-2.7-0.4c-0.9-0.3-1.7-0.7-2.4-1.3c-0.7-0.6-1.3-1.3-1.7-2.2c-0.4-0.9-0.6-1.9-0.6-3.1c0-1.1,0.2-2,0.6-2.9
					c0.4-0.8,1-1.5,1.7-2.1c0.7-0.5,1.6-1,2.5-1.2s2-0.4,3.2-0.4c0.9,0,1.7,0.1,2.3,0.2s1.1,0.3,1.5,0.5v-1c0-0.7-0.2-1.3-0.7-1.8
					s-1.2-0.7-2.1-0.7c-0.6,0-1.1,0-1.6,0.1s-0.9,0.1-1.3,0.2c-0.4,0.1-0.8,0.2-1.2,0.4c-0.4,0.2-0.8,0.4-1.3,0.6l-2-3.6
					c0.6-0.3,1.1-0.6,1.7-0.9c0.5-0.3,1.1-0.5,1.7-0.6c0.6-0.2,1.2-0.3,1.9-0.4c0.7-0.1,1.4-0.1,2.2-0.1c1.2,0,2.3,0.2,3.3,0.5
					c1,0.3,1.8,0.8,2.5,1.3s1.3,1.3,1.6,2.2c0.4,0.9,0.6,1.9,0.6,3v13.3H795.4z M795.4,425.3c-0.5-0.3-0.9-0.5-1.5-0.6
					c-0.5-0.1-1.2-0.2-2.2-0.2c-1,0-1.7,0.2-2.2,0.6c-0.5,0.4-0.8,1-0.8,1.9c0,0.7,0.2,1.3,0.7,1.9c0.5,0.5,1.2,0.8,2.3,0.8
					c0.9,0,1.6-0.2,2.2-0.5s1.1-0.8,1.4-1.3V425.3z"/>
				<path id="XMLID_59_" class="st11" d="M828.7,433.6v-10.7c0-1.8-0.3-3-0.8-3.6c-0.5-0.7-1.3-1-2.4-1s-1.9,0.3-2.4,1
					s-0.8,1.8-0.8,3.5v10.8h-5.2v-10.7c0-1.8-0.3-3-0.8-3.6c-0.5-0.7-1.3-1-2.4-1c-1.1,0-1.9,0.3-2.4,1c-0.5,0.6-0.8,1.8-0.8,3.5
					v10.8h-5.2v-19.8h5.2v1.3c0.5-0.5,1-0.9,1.7-1.2c0.7-0.3,1.6-0.5,2.6-0.5c1.3,0,2.3,0.2,3.1,0.6c0.8,0.4,1.6,1,2.3,1.9
					c0.7-0.7,1.5-1.3,2.4-1.8c0.9-0.5,2.2-0.7,3.9-0.7c1.3,0,2.3,0.2,3.2,0.6c0.9,0.4,1.6,1,2.2,1.8c0.6,0.8,1,1.8,1.2,2.9
					c0.3,1.1,0.4,2.4,0.4,3.8v11.2H828.7z"/>
			</g>
		</g>
	</g>
	<g id="XMLID_2_">
		<polygon id="XMLID_55_" class="st11" points="421.5,40.2 423.8,40.2 423.8,59.4 437.3,59.4 437.3,61.4 421.5,61.4 		"/>
		<path id="XMLID_52_" class="st11" d="M453.5,52.5c-0.6-3.8-3.5-5.2-6.4-5.2c-2.8,0-5.9,1.4-6.4,5.2H453.5z M455.4,56.4
			c-0.9,2.7-3.2,5.4-8.4,5.4c-6.4,0-8.5-4.4-8.5-8.2c0-4.3,2.7-8.2,8.5-8.2c4,0,8.8,1.7,8.8,8.7h-15c0,3.2,2.3,5.8,6.3,5.8
			c3.7,0,5.4-1.2,6.2-3.6H455.4z"/>
		<polygon id="XMLID_51_" class="st11" points="471.2,45.9 473.6,45.9 466.3,61.4 463.9,61.4 456.5,45.9 458.9,45.9 465.1,58.9 		
			"/>
		<path id="XMLID_48_" class="st11" d="M489.6,52.5c-0.6-3.8-3.4-5.2-6.4-5.2c-2.8,0-5.9,1.4-6.4,5.2H489.6z M491.4,56.4
			c-0.9,2.7-3.2,5.4-8.4,5.4c-6.4,0-8.5-4.4-8.5-8.2c0-4.3,2.7-8.2,8.5-8.2c4,0,8.8,1.7,8.8,8.7h-15c0,3.2,2.3,5.8,6.3,5.8
			c3.7,0,5.4-1.2,6.2-3.6H491.4z"/>
		<path id="XMLID_47_" class="st11" d="M496,41.1h2.2v4.9h4.4v1.7h-4.4v10.2c0,1.3,0.4,2,2.2,2c1.1,0,1.8-0.1,2.2-0.2v1.8
			c-0.8,0.1-1.7,0.2-2.4,0.2c-3.4,0-4.2-1.3-4.2-3.8V47.6h-3.4v-1.7h3.4V41.1z"/>
		<path id="XMLID_44_" class="st11" d="M505,45.9h2.2v15.4H505V45.9z M505,40h2.2v3.3H505V40z"/>
		<path id="XMLID_43_" class="st11" d="M510.5,45.9h2.2v3.5h0.1c0.8-1.8,2.3-4,6-4c0.6,0,1,0.1,1.3,0.1v2.3c-0.7-0.1-1.3-0.2-2-0.2
			c-2.4,0-5.3,1.5-5.3,5.8v7.9h-2.2V45.9z"/>
		<path id="XMLID_40_" class="st11" d="M534,53.1c-1,0.6-2.5,0.7-6.9,1.1c-2.6,0.2-4.1,1-4.1,2.9c0,2.4,2.1,3.1,4.5,3.1
			c3,0,6.5-1.6,6.5-4.8V53.1z M521.5,50.7c0.3-3.2,2.1-5.2,7.4-5.2c5.2,0,7.1,1.6,7.1,4.6v8.1c0,1.3,0.4,1.7,1.2,1.7
			c0.4,0,0.8,0,1.2-0.1v1.5c-0.4,0.1-1.1,0.2-1.9,0.2c-2.2,0-2.4-1.5-2.4-2.7h-0.1c-0.7,1-2.2,3.1-7.3,3.1c-2.7,0-6-1.2-6-4.6
			c0-4.2,4.4-4.7,7.8-4.8c4.8-0.3,5.4-0.5,5.4-2c0-2.2-1.5-3-5.1-3c-3.5,0-5.2,0.9-5.3,3.4H521.5z"/>
		<path id="XMLID_39_" class="st11" d="M555.8,55.9c-0.4,2-2.2,6-7.9,6c-5.6,0-8.8-3.3-8.8-8.2c0-4.6,2.9-8.2,8.8-8.2
			c5.3,0,7.4,3.3,7.8,5.5h-2.2c-0.7-2.6-2.8-3.7-5.5-3.7c-4.5,0-6.6,2.8-6.6,6.3c0,3.8,2.3,6.3,6.6,6.3c3.3,0,5.1-1.7,5.7-4.1H555.8
			z"/>
		<path id="XMLID_36_" class="st11" d="M572.7,52.5c-0.6-3.8-3.4-5.2-6.4-5.2c-2.8,0-5.9,1.4-6.4,5.2H572.7z M574.5,56.4
			c-0.9,2.7-3.2,5.4-8.4,5.4c-6.4,0-8.5-4.4-8.5-8.2c0-4.3,2.7-8.2,8.5-8.2c4,0,8.8,1.7,8.8,8.7h-15c0,3.2,2.3,5.8,6.3,5.8
			c3.7,0,5.4-1.2,6.2-3.6H574.5z"/>
		<path id="XMLID_35_" class="st11" d="M579.1,41.1h2.2v4.9h4.4v1.7h-4.4v10.2c0,1.3,0.4,2,2.2,2c1.1,0,1.8-0.1,2.2-0.2v1.8
			c-0.8,0.1-1.7,0.2-2.4,0.2c-3.4,0-4.2-1.3-4.2-3.8V47.6h-3.4v-1.7h3.4V41.1z"/>
		<path id="XMLID_32_" class="st11" d="M600.5,53.1c-1,0.6-2.5,0.7-6.9,1.1c-2.6,0.2-4.1,1-4.1,2.9c0,2.4,2.1,3.1,4.5,3.1
			c3,0,6.5-1.6,6.5-4.8V53.1z M588,50.7c0.3-3.2,2.1-5.2,7.4-5.2c5.2,0,7.1,1.6,7.1,4.6v8.1c0,1.3,0.4,1.7,1.2,1.7
			c0.4,0,0.8,0,1.2-0.1v1.5c-0.5,0.1-1.1,0.2-1.9,0.2c-2.2,0-2.4-1.5-2.4-2.7h-0.1c-0.7,1-2.2,3.1-7.3,3.1c-2.7,0-6.1-1.2-6.1-4.6
			c0-4.2,4.3-4.7,7.8-4.8c4.9-0.3,5.5-0.5,5.5-2c0-2.2-1.5-3-5.1-3c-3.5,0-5.2,0.9-5.3,3.4H588z"/>
		<path id="XMLID_31_" class="st11" d="M630.8,51.6c0-2.8-1.4-4.3-4.6-4.3c-3.4,0-5.3,2-5.3,5v9.1h-2.2V50.9c0-2-1.4-3.6-4.4-3.6
			c-3.2,0-5.5,1.8-5.5,5.4v8.7h-2.2V45.9h2.2v2.8h0.1c0.9-1.6,2.6-3.3,6.2-3.3c3.5,0,5.1,1.8,5.6,3.4c0.7-1.5,3-3.4,6.1-3.4
			c4.4,0,6.4,2.2,6.4,5.4v10.5h-2.2V51.6z"/>
		<polygon id="XMLID_30_" class="st11" points="609.1,36.1 602.7,36.1 598,27.7 593,36.1 587,36.1 595,23.5 587.4,11.5 593.6,11.5 
			598,19.4 602.6,11.5 608.6,11.5 601,23.3 		"/>
		<path id="XMLID_27_" class="st11" d="M623.4,22.3c2.7,0,4-0.9,4-3.4c0-1.3-0.6-3.2-3.6-3.2h-6.5v6.6H623.4z M612.2,11.5h12.6
			c6.6,0,7.8,4.8,7.8,7c0,2.7-1.4,5-3.8,5.9c2,0.9,3.1,1.6,3.1,6.2c0,3.6,0,4.5,1.1,4.9v0.7h-5.7c-0.3-1.2-0.5-2.4-0.5-5
			c0-3.4-0.2-4.7-4.1-4.7h-5.4v9.6h-5.1V11.5z"/>
		<polygon id="XMLID_26_" class="st11" points="434.9,35.8 428.6,24.7 425.4,28.5 425.4,35.8 420.6,35.8 420.6,11.5 425.4,11.5 
			425.4,22.1 434,11.5 439.9,11.5 431.7,21.1 440.5,35.8 		"/>
		<path id="XMLID_23_" class="st11" d="M473.7,15.7h-4.5v6.7h4.5c2.2,0,3.6-1.3,3.6-3.3C477.2,17.1,475.8,15.7,473.7,15.7
			 M473.9,26.6h-4.7v9.2h-4.8V11.5h9.5c5.1,0,8.1,3.4,8.1,7.6C482,23.2,479,26.6,473.9,26.6"/>
		<path id="XMLID_20_" class="st11" d="M495.4,15.7h-4.5v6.4h4.5c2.1,0,3.5-1.3,3.5-3.2C498.9,17,497.5,15.7,495.4,15.7 M499.1,35.8
			l-4.8-9.7h-3.4v9.7h-4.8V11.5h9.6c5,0,8,3.4,8,7.4c0,3.4-2.1,5.5-4.5,6.4l5.5,10.5H499.1z"/>
		<path id="XMLID_17_" class="st11" d="M516.9,18.6l-3.1,8.8h6.1L516.9,18.6z M522.6,35.8l-1.5-4.3h-8.7l-1.5,4.3h-5l8.9-24.3h3.8
			l9,24.3H522.6z"/>
		<path id="XMLID_14_" class="st11" d="M542.6,17.2c-0.8-1-1.9-1.5-3.6-1.5h-3.6v15.9h3.6c1.7,0,2.8-0.5,3.6-1.5
			c0.9-1.1,1-2.8,1-6.5C543.7,19.8,543.5,18.3,542.6,17.2 M546,33.5c-1.6,1.6-3.9,2.3-6.5,2.3h-8.9V11.5h8.9c2.6,0,4.9,0.7,6.5,2.3
			c2.8,2.7,2.5,6.1,2.5,9.7C548.5,27.2,548.7,30.7,546,33.5"/>
		<rect id="XMLID_13_" x="553.4" y="11.5" class="st11" width="4.8" height="24.3"/>
		<polygon id="XMLID_12_" class="st11" points="563.9,35.8 563.9,11.5 568.7,11.5 568.7,31.6 579.8,31.6 579.8,35.8 		"/>
		<path id="XMLID_7_" class="st11" d="M575.2,15.3c0.5,0,1,0,1-0.6c0-0.5-0.4-0.6-0.8-0.6h-0.8v1.1H575.2z M574,13.7h1.5
			c0.8,0,1.3,0.4,1.3,1.1c0,0.7-0.4,1-1,1l1.1,1.6h-0.6l-1-1.6h-0.6v1.6H574V13.7z M577.9,15.5c0-1.5-1.2-2.7-2.6-2.7
			c-1.5,0-2.6,1.2-2.6,2.7c0,1.5,1.2,2.7,2.6,2.7C576.8,18.2,577.9,17,577.9,15.5 M575.3,12.3c1.8,0,3.2,1.4,3.2,3.2
			c0,1.8-1.4,3.2-3.2,3.2c-1.8,0-3.2-1.4-3.2-3.2C572.1,13.8,573.5,12.3,575.3,12.3"/>
		<polygon id="XMLID_6_" class="st11" points="443.6,35.8 459.8,35.8 459.8,31.6 448.4,31.6 448.4,26.6 443.6,26.6 		"/>
		<path id="XMLID_5_" class="st11" d="M441.5,24.7c0,0,2-4.4,9.7-4.4c7.7,0,12-2.7,12-2.7s-5.5,5.6-10.8,5.6
			C447,23.2,443.7,23.2,441.5,24.7"/>
		<path id="XMLID_4_" class="st11" d="M439.3,28.9c0,0,2-4.4,9.7-4.4c7.7,0,12-2.7,12-2.7s-5.5,5.6-10.9,5.6
			C444.8,27.4,441.5,27.4,439.3,28.9"/>
		<polygon id="XMLID_3_" class="st11" points="443.6,22.4 448.4,22.4 448.4,15.7 459.8,15.7 459.8,11.5 443.6,11.5 		"/>
	</g>
</g>
</svg>
