<!-- Generator: Adobe Illustrator 22.1.0, SVG Export Plug-In  -->
<svg version="1.1"
	 xmlns="http://www.w3.org/2000/svg" xmlns:xlink="http://www.w3.org/1999/xlink" xmlns:a="http://ns.adobe.com/AdobeSVGViewerExtensions/3.0/"
	 x="0px" y="0px" width="77.9px" height="240.8px" viewBox="0 0 77.9 240.8" style="enable-background:new 0 0 77.9 240.8;"
	 xml:space="preserve">
<style type="text/css">
	.st0{fill:url(#XMLID_26_);}
	.st1{fill:#FFFFFF;}
	.st2{fill:url(#XMLID_27_);}
</style>
<defs>
</defs>
<g id="XMLID_1_">
	<linearGradient id="XMLID_26_" gradientUnits="userSpaceOnUse" x1="0" y1="120.3977" x2="77.9426" y2="120.3977">
		<stop  offset="0" style="stop-color:#4B257A"/>
		<stop  offset="1" style="stop-color:#954C8D"/>
	</linearGradient>
	<path id="XMLID_25_" class="st0" d="M53.9,1.7c0-0.6,0-1.1,0.1-1.7H23.5c0,0.6-0.1,1.1-0.1,1.7v184.5H0l39,54.6l39-54.6h-24V1.7z"
		/>
	<g id="XMLID_2_">
		<g id="XMLID_4_">
			<path id="XMLID_12_" class="st1" d="M28.9,204.7v3.5h-2.3v-3.5H18v-2.3l8.2-10.1h2.7v10.2H31v2.1H28.9z M26.6,195.1
				c-0.2,0.2-0.4,0.5-0.6,0.8c-0.3,0.4-0.5,0.7-0.8,1l-3,3.9c-0.2,0.3-0.5,0.6-0.8,1c-0.3,0.3-0.5,0.6-0.7,0.8c0.1,0,0.3,0,0.5,0
				c0.2,0,0.4,0,0.7,0c0.2,0,0.5,0,0.7,0s0.5,0,0.7,0h3.3V198c0-0.2,0-0.5,0-0.7s0-0.5,0-0.8s0-0.5,0-0.8
				C26.6,195.5,26.6,195.3,26.6,195.1z"/>
			<path id="XMLID_9_" class="st1" d="M45.5,203.3c0,0.9-0.2,1.6-0.5,2.3c-0.3,0.7-0.8,1.2-1.3,1.6c-0.6,0.4-1.2,0.8-2,1
				s-1.6,0.3-2.4,0.3c-0.8,0-1.6-0.1-2.3-0.4s-1.4-0.6-1.9-1.1c-0.5-0.5-1-1.2-1.3-2c-0.3-0.8-0.5-1.8-0.5-2.9
				c0-0.7,0.1-1.4,0.2-2.2c0.1-0.8,0.4-1.5,0.7-2.2c0.3-0.7,0.7-1.4,1.2-2.1c0.5-0.7,1.1-1.2,1.8-1.8c0.7-0.5,1.6-0.9,2.5-1.2
				c1-0.3,2.1-0.5,3.3-0.5v2.2c-1.8,0.1-3.3,0.5-4.6,1.4s-2.1,2.1-2.6,3.7c0.6-0.4,1.1-0.8,1.8-1c0.6-0.2,1.4-0.3,2.4-0.3
				c0.7,0,1.4,0.1,2,0.3c0.6,0.2,1.2,0.5,1.7,0.9c0.5,0.4,0.9,0.9,1.2,1.5C45.4,201.7,45.5,202.4,45.5,203.3z M43.1,203.3
				c0-0.9-0.3-1.6-0.9-2.1c-0.6-0.4-1.5-0.7-2.6-0.7c-1.2,0-2.1,0.2-2.7,0.7s-1,1.2-1,2.1c0,0.4,0.1,0.8,0.2,1.1s0.4,0.7,0.7,0.9
				c0.3,0.3,0.7,0.5,1.1,0.6c0.5,0.2,1,0.2,1.6,0.2c1.2,0,2.1-0.3,2.8-0.8C42.8,204.9,43.1,204.2,43.1,203.3z"/>
			<path id="XMLID_7_" class="st1" d="M51.2,206.7c0,0.5-0.2,0.9-0.5,1.3c-0.4,0.4-0.8,0.5-1.3,0.5s-0.9-0.2-1.3-0.5
				c-0.4-0.4-0.5-0.8-0.5-1.3c0-0.2,0-0.5,0.1-0.7c0.1-0.2,0.2-0.4,0.4-0.6c0.2-0.2,0.3-0.3,0.6-0.4c0.2-0.1,0.4-0.1,0.7-0.1
				s0.5,0,0.7,0.1c0.2,0.1,0.4,0.2,0.6,0.4c0.2,0.2,0.3,0.4,0.4,0.6C51.1,206.3,51.2,206.5,51.2,206.7z"/>
			<path id="XMLID_5_" class="st1" d="M55.5,208.3v-12.1h-2.8v-1.6c0.8-0.1,1.5-0.2,2.1-0.5c0.6-0.3,1-0.8,1.1-1.5h1.9v15.8H55.5z"
				/>
		</g>
	</g>
</g>
</svg>
