<!-- Generator: Adobe Illustrator 22.1.0, SVG Export Plug-In  -->
<svg version="1.1"
	 xmlns="http://www.w3.org/2000/svg" xmlns:xlink="http://www.w3.org/1999/xlink" xmlns:a="http://ns.adobe.com/AdobeSVGViewerExtensions/3.0/"
	 x="0px" y="0px" width="84.4px" height="176.3px" viewBox="0 0 84.4 176.3" style="enable-background:new 0 0 84.4 176.3;"
	 xml:space="preserve">
<style type="text/css">
	.st0{fill:url(#XMLID_89_);}
	.st1{fill:#58595B;}
	.st2{fill:none;stroke:#231F20;stroke-miterlimit:10;}
	.st3{fill:url(#XMLID_90_);}
</style>
<defs>
</defs>
<linearGradient id="XMLID_89_" gradientUnits="userSpaceOnUse" x1="36.0863" y1="89.6062" x2="61.1937" y2="89.6062">
	<stop  offset="0" style="stop-color:#4B257A"/>
	<stop  offset="1" style="stop-color:#954C8D"/>
</linearGradient>
<rect id="XMLID_88_" x="36.1" y="22.9" class="st0" width="25.1" height="133.4"/>
<g id="XMLID_67_">
	<g id="XMLID_69_">
		<path id="XMLID_77_" class="st1" d="M34.5,14.2c0-0.7,0.1-1.3,0.3-1.8c0.2-0.5,0.5-1,0.8-1.4c0.3-0.4,0.7-0.7,1.1-1
			c0.4-0.3,0.9-0.6,1.3-0.9c0.3-0.2,0.6-0.4,0.8-0.5c0.2-0.2,0.4-0.3,0.5-0.4c0.1-0.1,0.2-0.3,0.2-0.4c0-0.1,0.1-0.3,0.1-0.5
			c0-0.4-0.1-0.7-0.4-0.9c-0.3-0.2-0.7-0.3-1.4-0.3c-0.4,0-0.8,0.1-1.2,0.3c-0.4,0.2-0.8,0.4-1.1,0.7L34.8,6
			c0.4-0.4,0.9-0.7,1.5-0.9c0.6-0.2,1.1-0.3,1.7-0.3c1,0,1.8,0.2,2.3,0.6c0.6,0.4,0.9,1.1,0.9,1.9c0,0.4,0,0.7-0.1,1
			c-0.1,0.3-0.2,0.5-0.4,0.7c-0.2,0.2-0.4,0.4-0.7,0.7c-0.3,0.2-0.7,0.4-1.1,0.7c-0.4,0.3-0.8,0.5-1.1,0.7c-0.3,0.2-0.5,0.4-0.7,0.6
			s-0.3,0.4-0.4,0.6c-0.1,0.2-0.2,0.4-0.2,0.6h5v1.4H34.5z"/>
		<path id="XMLID_74_" class="st1" d="M49.4,12.1v2.1H48v-2.1h-5.1v-1.3l4.8-6h1.6v6h1.2v1.2H49.4z M48,6.4
			c-0.1,0.1-0.2,0.3-0.4,0.5s-0.3,0.4-0.5,0.6l-1.8,2.3c-0.1,0.2-0.3,0.4-0.5,0.6c-0.2,0.2-0.3,0.4-0.4,0.5c0.1,0,0.2,0,0.3,0
			c0.1,0,0.3,0,0.4,0c0.1,0,0.3,0,0.4,0s0.3,0,0.4,0h2V8.2c0-0.1,0-0.3,0-0.4c0-0.2,0-0.3,0-0.5c0-0.2,0-0.3,0-0.4
			C48,6.6,48,6.5,48,6.4z"/>
		<path id="XMLID_72_" class="st1" d="M54.1,13.3c0,0.3-0.1,0.5-0.3,0.7s-0.5,0.3-0.7,0.3s-0.5-0.1-0.7-0.3S52,13.6,52,13.3
			c0-0.1,0-0.3,0.1-0.4c0.1-0.1,0.1-0.2,0.2-0.3c0.1-0.1,0.2-0.2,0.3-0.2c0.1-0.1,0.3-0.1,0.4-0.1c0.1,0,0.3,0,0.4,0.1
			c0.1,0.1,0.2,0.1,0.3,0.2c0.1,0.1,0.2,0.2,0.2,0.3C54.1,13.1,54.1,13.2,54.1,13.3z"/>
		<path id="XMLID_70_" class="st1" d="M56.6,14.2V7.1H55v-1c0.5,0,0.9-0.1,1.3-0.3s0.6-0.5,0.7-0.9h1.1v9.4H56.6z"/>
	</g>
</g>
<rect id="XMLID_66_" x="32.9" y="0.5" class="st2" width="31.5" height="18.7"/>
<g id="XMLID_1_">
	<g id="XMLID_3_">
		<path id="XMLID_33_" class="st1" d="M5.4,169.6c-0.4,0.6-0.7,1.2-1,1.8c-0.3,0.7-0.5,1.4-0.7,2.2c-0.2,0.8-0.3,1.6-0.3,2.5H2
			c0-0.8,0.1-1.6,0.2-2.3c0.1-0.7,0.3-1.4,0.6-2.1c0.3-0.7,0.6-1.3,0.9-1.9c0.4-0.6,0.7-1.2,1.2-1.8H0v-1.4h6.6v1.4
			C6.2,168.6,5.8,169.1,5.4,169.6z"/>
		<path id="XMLID_31_" class="st1" d="M15.3,172.9c0,0.6-0.1,1.1-0.3,1.5c-0.2,0.4-0.4,0.8-0.8,1c-0.3,0.3-0.7,0.5-1.2,0.6
			s-1,0.2-1.5,0.2c-0.6,0-1.2-0.1-1.7-0.2c-0.5-0.1-1.1-0.4-1.6-0.7l0.7-1.2c0.4,0.2,0.8,0.4,1.3,0.5c0.5,0.1,0.9,0.2,1.3,0.2
			c0.7,0,1.3-0.2,1.7-0.5c0.4-0.3,0.6-0.8,0.6-1.4c0-0.6-0.2-1-0.5-1.3c-0.3-0.3-0.8-0.4-1.4-0.4c-0.4,0-0.7,0.1-1,0.2
			c-0.3,0.1-0.5,0.3-0.8,0.4l-1.5-0.6l0.3-4.6h5.8v1.3h-4.5l-0.2,2.4c0.3-0.2,0.6-0.3,0.9-0.4c0.3-0.1,0.7-0.1,1.1-0.1
			c0.5,0,1,0.1,1.4,0.2c0.4,0.1,0.7,0.4,1,0.6c0.3,0.3,0.5,0.6,0.6,0.9C15.3,172.1,15.3,172.5,15.3,172.9z"/>
		<path id="XMLID_25_" class="st1" d="M20.7,169.8c0,1.8-1,2.7-2.1,2.7c-1.1,0-2-0.9-2-2.6c0-1.7,1-2.7,2.1-2.7
			C19.9,167.2,20.7,168.2,20.7,169.8z M17.5,169.9c0,1.1,0.4,2,1.1,2c0.8,0,1.1-0.8,1.1-2c0-1.1-0.3-1.9-1.1-1.9
			C17.9,168,17.5,168.8,17.5,169.9z M18.5,176.3l5.1-9h0.8l-5.1,9H18.5z M26.4,173.5c0,1.8-1,2.7-2.1,2.7c-1.1,0-2-0.9-2-2.6
			c0-1.8,1-2.7,2.1-2.7C25.6,170.8,26.4,171.8,26.4,173.5z M23.2,173.5c0,1.1,0.4,2,1.1,2c0.8,0,1.1-0.8,1.1-2
			c0-1.1-0.3-1.9-1.1-1.9C23.6,171.6,23.2,172.4,23.2,173.5z"/>
		<path id="XMLID_23_" class="st1" d="M34,175.9c-0.2,0.1-0.4,0.2-0.6,0.2c-0.2,0.1-0.5,0.1-0.8,0.1c-0.5,0-0.9-0.2-1.2-0.5
			c-0.3-0.3-0.4-0.8-0.4-1.4v-4.1h-1v-1.3h1v-2l1.4-0.7v2.7h1.7v1.3h-1.7v3.8c0,0.3,0.1,0.6,0.2,0.7c0.1,0.1,0.3,0.2,0.6,0.2
			c0.2,0,0.4,0,0.5-0.1s0.3-0.1,0.5-0.2L34,175.9z"/>
		<path id="XMLID_20_" class="st1" d="M42,172.6c0,0.6-0.1,1.1-0.2,1.6c-0.2,0.5-0.4,0.8-0.7,1.2s-0.6,0.6-1,0.7s-0.8,0.2-1.3,0.2
			c-0.4,0-0.9-0.1-1.2-0.3c-0.4-0.2-0.7-0.4-1-0.7s-0.5-0.7-0.6-1.2s-0.2-0.9-0.2-1.5c0-0.6,0.1-1.1,0.2-1.5s0.4-0.8,0.7-1.2
			c0.3-0.3,0.6-0.6,1-0.7c0.4-0.2,0.8-0.2,1.2-0.2s0.9,0.1,1.2,0.3c0.4,0.2,0.7,0.4,1,0.7s0.5,0.7,0.7,1.1
			C41.9,171.5,42,172,42,172.6z M40.6,172.6c0-0.7-0.2-1.3-0.5-1.7s-0.8-0.6-1.3-0.6c-0.5,0-0.9,0.2-1.2,0.6s-0.5,1-0.5,1.7
			c0,0.8,0.2,1.4,0.5,1.8c0.3,0.4,0.8,0.6,1.3,0.6c0.3,0,0.5-0.1,0.7-0.2c0.2-0.1,0.4-0.3,0.6-0.5s0.3-0.5,0.4-0.7
			C40.6,173.2,40.6,172.9,40.6,172.6z"/>
		<path id="XMLID_18_" class="st1" d="M47.1,172.1v-1.2l3.9-3.4v1.7l-2.6,2.2l2.6,2.2v1.8L47.1,172.1z"/>
		<path id="XMLID_16_" class="st1" d="M53.8,176.1v-7.2h-1.7v-1c0.5,0,0.9-0.1,1.3-0.3s0.6-0.5,0.7-0.9h1.1v9.4H53.8z"/>
		<path id="XMLID_13_" class="st1" d="M64.6,171.4c0,0.7-0.1,1.4-0.2,2s-0.4,1.1-0.7,1.5c-0.3,0.4-0.7,0.8-1.2,1
			c-0.5,0.2-1,0.4-1.6,0.4s-1.1-0.1-1.6-0.4c-0.5-0.2-0.8-0.6-1.2-1s-0.5-0.9-0.7-1.5c-0.2-0.6-0.2-1.2-0.2-2c0-0.7,0.1-1.4,0.2-2
			c0.2-0.6,0.4-1.1,0.7-1.5c0.3-0.4,0.7-0.8,1.2-1c0.5-0.2,1-0.4,1.6-0.4c0.6,0,1.1,0.1,1.6,0.4c0.5,0.2,0.8,0.6,1.2,1
			s0.5,0.9,0.7,1.5C64.5,170,64.6,170.7,64.6,171.4z M63.2,171.4c0-0.5,0-1-0.1-1.4c-0.1-0.4-0.2-0.8-0.4-1.1s-0.4-0.6-0.7-0.7
			c-0.3-0.2-0.6-0.3-1.1-0.3s-0.8,0.1-1,0.3s-0.5,0.4-0.7,0.7c-0.2,0.3-0.3,0.7-0.4,1.1c-0.1,0.4-0.1,0.9-0.1,1.4s0,1,0.1,1.4
			c0.1,0.4,0.2,0.8,0.4,1.1c0.2,0.3,0.4,0.6,0.7,0.7c0.3,0.2,0.6,0.3,1.1,0.3c0.4,0,0.8-0.1,1-0.3s0.5-0.4,0.7-0.7
			c0.2-0.3,0.3-0.7,0.4-1.1C63.1,172.4,63.2,171.9,63.2,171.4z"/>
		<path id="XMLID_10_" class="st1" d="M73.5,171.4c0,0.7-0.1,1.4-0.2,2s-0.4,1.1-0.7,1.5c-0.3,0.4-0.7,0.8-1.2,1
			c-0.5,0.2-1,0.4-1.6,0.4s-1.1-0.1-1.6-0.4c-0.5-0.2-0.8-0.6-1.2-1s-0.5-0.9-0.7-1.5c-0.2-0.6-0.2-1.2-0.2-2c0-0.7,0.1-1.4,0.2-2
			c0.2-0.6,0.4-1.1,0.7-1.5c0.3-0.4,0.7-0.8,1.2-1c0.5-0.2,1-0.4,1.6-0.4c0.6,0,1.1,0.1,1.6,0.4c0.5,0.2,0.8,0.6,1.2,1
			s0.5,0.9,0.7,1.5C73.4,170,73.5,170.7,73.5,171.4z M72,171.4c0-0.5,0-1-0.1-1.4c-0.1-0.4-0.2-0.8-0.4-1.1s-0.4-0.6-0.7-0.7
			c-0.3-0.2-0.6-0.3-1.1-0.3s-0.8,0.1-1,0.3s-0.5,0.4-0.7,0.7c-0.2,0.3-0.3,0.7-0.4,1.1c-0.1,0.4-0.1,0.9-0.1,1.4s0,1,0.1,1.4
			c0.1,0.4,0.2,0.8,0.4,1.1c0.2,0.3,0.4,0.6,0.7,0.7c0.3,0.2,0.6,0.3,1.1,0.3c0.4,0,0.8-0.1,1-0.3s0.5-0.4,0.7-0.7
			c0.2-0.3,0.3-0.7,0.4-1.1C72,172.4,72,171.9,72,171.4z"/>
		<path id="XMLID_4_" class="st1" d="M78.7,169.8c0,1.8-1,2.7-2.1,2.7c-1.1,0-2-0.9-2-2.6c0-1.7,1-2.7,2.1-2.7
			C77.9,167.2,78.7,168.2,78.7,169.8z M75.5,169.9c0,1.1,0.4,2,1.1,2c0.8,0,1.1-0.8,1.1-2c0-1.1-0.3-1.9-1.1-1.9
			C75.9,168,75.5,168.8,75.5,169.9z M76.6,176.3l5.1-9h0.8l-5.1,9H76.6z M84.4,173.5c0,1.8-1,2.7-2.1,2.7c-1.1,0-2-0.9-2-2.6
			c0-1.8,1-2.7,2.1-2.7C83.6,170.8,84.4,171.8,84.4,173.5z M81.2,173.5c0,1.1,0.4,2,1.1,2c0.8,0,1.1-0.8,1.1-2
			c0-1.1-0.3-1.9-1.1-1.9C81.6,171.6,81.2,172.4,81.2,173.5z"/>
	</g>
</g>
</svg>
