<!-- Generator: Adobe Illustrator 22.1.0, SVG Export Plug-In  -->
<svg version="1.1"
	 xmlns="http://www.w3.org/2000/svg" xmlns:xlink="http://www.w3.org/1999/xlink" xmlns:a="http://ns.adobe.com/AdobeSVGViewerExtensions/3.0/"
	 x="0px" y="0px" width="486.9px" height="27.1px" viewBox="0 0 486.9 27.1" style="enable-background:new 0 0 486.9 27.1;"
	 xml:space="preserve">
<style type="text/css">
	.st0{fill:#522D6D;}
	.st1{fill:#236092;}
</style>
<defs>
</defs>
<g id="XMLID_4_">
	<g id="XMLID_6_">
		<path id="XMLID_72_" class="st0" d="M50.9,16.1c1.2,0.6,3,1.2,4.9,1.2c2,0,3.1-0.8,3.1-2.1c0-1.2-0.9-1.9-3.3-2.8
			c-3.3-1.1-5.4-2.9-5.4-5.8c0-3.3,2.8-5.9,7.4-5.9c2.2,0,3.8,0.5,5,1l-1,3.6c-0.8-0.4-2.2-0.9-4.1-0.9s-2.9,0.9-2.9,1.9
			c0,1.3,1.1,1.8,3.6,2.8c3.5,1.3,5.1,3.1,5.1,5.8c0,3.3-2.5,6.1-7.9,6.1c-2.2,0-4.5-0.6-5.6-1.2L50.9,16.1z"/>
		<path id="XMLID_69_" class="st0" d="M70.9,2.5c0,1.2-0.9,2.2-2.4,2.2c-1.4,0-2.3-1-2.3-2.2c0-1.3,0.9-2.2,2.3-2.2
			S70.9,1.2,70.9,2.5z M66.4,20.7V6.4h4.4v14.2H66.4z"/>
		<path id="XMLID_67_" class="st0" d="M74.3,11c0-1.8-0.1-3.3-0.1-4.5h3.7l0.2,1.9h0.1c0.6-0.9,1.9-2.2,4.3-2.2
			c1.8,0,3.3,0.9,3.9,2.4h0.1c0.5-0.7,1.2-1.3,1.8-1.7C89.1,6.3,90,6.1,91,6.1c2.7,0,4.8,1.9,4.8,6.2v8.4h-4.3v-7.7
			c0-2.1-0.7-3.3-2.1-3.3c-1,0-1.7,0.7-2,1.5c-0.1,0.3-0.2,0.8-0.2,1.1v8.3h-4.3v-8c0-1.8-0.6-3-2-3c-1.1,0-1.8,0.9-2.1,1.6
			c-0.1,0.3-0.2,0.8-0.2,1.1v8.3h-4.3V11z"/>
		<path id="XMLID_64_" class="st0" d="M99.4,11.2c0-1.9-0.1-3.5-0.1-4.8h3.8l0.2,2h0.1c1-1.5,2.7-2.3,4.7-2.3c3.1,0,5.9,2.7,5.9,7.2
			c0,5.2-3.3,7.6-6.5,7.6c-1.7,0-3.1-0.7-3.7-1.6h-0.1v7.1h-4.4V11.2z M103.8,14.5c0,0.3,0,0.7,0.1,0.9c0.3,1.2,1.3,2.1,2.6,2.1
			c1.9,0,3.1-1.6,3.1-4c0-2.3-1-4-3-4c-1.3,0-2.4,0.9-2.6,2.2c-0.1,0.2-0.1,0.5-0.1,0.8V14.5z"/>
		<path id="XMLID_62_" class="st0" d="M116.8,0h4.4v20.7h-4.4V0z"/>
		<path id="XMLID_59_" class="st0" d="M128.2,15c0.1,1.8,1.9,2.7,4,2.7c1.5,0,2.7-0.2,3.9-0.6l0.6,3c-1.5,0.6-3.2,0.9-5.2,0.9
			c-4.8,0-7.6-2.8-7.6-7.2c0-3.6,2.2-7.6,7.2-7.6c4.6,0,6.3,3.6,6.3,7.1c0,0.8-0.1,1.4-0.1,1.7H128.2z M133.4,11.9
			c0-1.1-0.5-2.9-2.5-2.9c-1.9,0-2.6,1.7-2.7,2.9H133.4z"/>
		<path id="XMLID_57_" class="st0" d="M151,2.4v4.1h3.2v3.3H151v5.2c0,1.7,0.4,2.5,1.7,2.5c0.6,0,1-0.1,1.3-0.1l0,3.3
			c-0.6,0.2-1.6,0.4-2.9,0.4c-1.4,0-2.6-0.5-3.3-1.2c-0.8-0.8-1.2-2.2-1.2-4.2V9.7h-1.9V6.4h1.9V3.3L151,2.4z"/>
		<path id="XMLID_54_" class="st0" d="M170.6,13.4c0,5.2-3.7,7.6-7.5,7.6c-4.2,0-7.4-2.7-7.4-7.3s3-7.5,7.6-7.5
			C167.7,6.1,170.6,9.1,170.6,13.4z M160.3,13.5c0,2.4,1,4.3,2.9,4.3c1.7,0,2.8-1.7,2.8-4.3c0-2.1-0.8-4.3-2.8-4.3
			C161.1,9.3,160.3,11.4,160.3,13.5z"/>
		<path id="XMLID_52_" class="st0" d="M182,4.8h-5.3V1h15.1v3.7h-5.4v15.9H182V4.8z"/>
		<path id="XMLID_49_" class="st0" d="M200.2,20.7l-0.3-1.4h-0.1c-0.9,1.1-2.4,1.7-4.1,1.7c-2.9,0-4.6-2.1-4.6-4.4
			c0-3.7,3.3-5.5,8.4-5.4V11c0-0.8-0.4-1.8-2.6-1.8c-1.5,0-3,0.5-3.9,1.1l-0.8-2.9c1-0.6,2.9-1.3,5.5-1.3c4.7,0,6.3,2.8,6.3,6.1v4.9
			c0,1.4,0.1,2.7,0.2,3.5H200.2z M199.7,13.9c-2.3,0-4.1,0.5-4.1,2.2c0,1.1,0.8,1.7,1.7,1.7c1.1,0,2-0.7,2.3-1.6
			c0.1-0.2,0.1-0.5,0.1-0.8V13.9z"/>
		<path id="XMLID_47_" class="st0" d="M211.9,12.4L211.9,12.4c0.4-0.6,0.7-1.2,1.1-1.7l2.9-4.3h5.3l-5.1,5.8l5.8,8.5h-5.4l-3.4-5.8
			l-1.1,1.4v4.5h-4.4V0h4.4V12.4z"/>
		<path id="XMLID_44_" class="st0" d="M226.3,15c0.1,1.8,1.9,2.7,4,2.7c1.5,0,2.7-0.2,3.9-0.6l0.6,3c-1.5,0.6-3.2,0.9-5.2,0.9
			c-4.8,0-7.6-2.8-7.6-7.2c0-3.6,2.2-7.6,7.2-7.6c4.6,0,6.3,3.6,6.3,7.1c0,0.8-0.1,1.4-0.1,1.7H226.3z M231.5,11.9
			c0-1.1-0.5-2.9-2.5-2.9c-1.9,0-2.6,1.7-2.7,2.9H231.5z"/>
		<path id="XMLID_42_" class="st0" d="M255.9,12.4h-7.2V17h8.1v3.6h-12.5V1h12.1v3.6h-7.7v4.1h7.2V12.4z"/>
		<path id="XMLID_39_" class="st0" d="M267.7,20.7l-0.3-1.4h-0.1c-0.9,1.1-2.4,1.7-4.1,1.7c-2.9,0-4.6-2.1-4.6-4.4
			c0-3.7,3.3-5.5,8.4-5.4V11c0-0.8-0.4-1.8-2.6-1.8c-1.5,0-3,0.5-3.9,1.1l-0.8-2.9c1-0.6,2.9-1.3,5.5-1.3c4.7,0,6.3,2.8,6.3,6.1v4.9
			c0,1.4,0.1,2.7,0.2,3.5H267.7z M267.2,13.9c-2.3,0-4.1,0.5-4.1,2.2c0,1.1,0.8,1.7,1.7,1.7c1.1,0,2-0.7,2.3-1.6
			c0.1-0.2,0.1-0.5,0.1-0.8V13.9z"/>
		<path id="XMLID_37_" class="st0" d="M275,16.8c0.8,0.5,2.5,1.1,3.8,1.1c1.3,0,1.9-0.5,1.9-1.2s-0.4-1.1-2.1-1.6
			c-2.9-1-4.1-2.6-4-4.3c0-2.6,2.3-4.7,5.8-4.7c1.7,0,3.1,0.4,4,0.8l-0.8,3.1c-0.6-0.3-1.9-0.8-3.1-0.8c-1.1,0-1.7,0.4-1.7,1.2
			c0,0.7,0.6,1,2.3,1.6c2.7,0.9,3.8,2.3,3.9,4.4c0,2.6-2.1,4.6-6.2,4.6c-1.9,0-3.5-0.4-4.6-1L275,16.8z"/>
		<path id="XMLID_35_" class="st0" d="M291,6.4l2.1,7c0.2,0.8,0.5,1.9,0.7,2.6h0.1c0.2-0.8,0.4-1.8,0.6-2.6l1.7-7h4.7l-3.3,9.4
			c-2,5.6-3.4,7.9-5,9.3c-1.5,1.3-3.2,1.8-4.3,1.9l-0.9-3.8c0.6-0.1,1.3-0.3,1.9-0.8c0.7-0.3,1.4-1,1.8-1.8c0.1-0.2,0.2-0.4,0.2-0.6
			c0-0.1,0-0.4-0.2-0.7l-5.2-13H291z"/>
		<path id="XMLID_33_" class="st0" d="M313.7,2.4v4.1h3.2v3.3h-3.2v5.2c0,1.7,0.4,2.5,1.7,2.5c0.6,0,1-0.1,1.3-0.1l0,3.3
			c-0.6,0.2-1.6,0.4-2.9,0.4c-1.4,0-2.6-0.5-3.3-1.2c-0.8-0.8-1.2-2.2-1.2-4.2V9.7h-1.9V6.4h1.9V3.3L313.7,2.4z"/>
		<path id="XMLID_30_" class="st0" d="M333.3,13.4c0,5.2-3.7,7.6-7.5,7.6c-4.2,0-7.4-2.7-7.4-7.3s3-7.5,7.6-7.5
			C330.4,6.1,333.3,9.1,333.3,13.4z M323,13.5c0,2.4,1,4.3,2.9,4.3c1.7,0,2.8-1.7,2.8-4.3c0-2.1-0.8-4.3-2.8-4.3
			C323.8,9.3,323,11.4,323,13.5z"/>
		<path id="XMLID_27_" class="st0" d="M342.1,1.3c1.4-0.2,3.6-0.4,5.9-0.4c2.9,0,4.9,0.4,6.3,1.5c1.2,0.9,1.8,2.3,1.8,4.1
			c0,2.5-1.8,4.2-3.5,4.8v0.1c1.4,0.6,2.1,1.9,2.6,3.7c0.6,2.2,1.2,4.8,1.6,5.5h-4.5c-0.3-0.6-0.8-2.2-1.4-4.6
			c-0.5-2.4-1.4-3.1-3.2-3.1h-1.3v7.7h-4.4V1.3z M346.5,9.7h1.7c2.2,0,3.5-1.1,3.5-2.8c0-1.8-1.2-2.7-3.3-2.7c-1.1,0-1.7,0.1-2,0.1
			V9.7z"/>
		<path id="XMLID_24_" class="st0" d="M362.6,15c0.1,1.8,1.9,2.7,4,2.7c1.5,0,2.7-0.2,3.9-0.6l0.6,3c-1.5,0.6-3.2,0.9-5.2,0.9
			c-4.8,0-7.6-2.8-7.6-7.2c0-3.6,2.2-7.6,7.2-7.6c4.6,0,6.3,3.6,6.3,7.1c0,0.8-0.1,1.4-0.1,1.7H362.6z M367.8,11.9
			c0-1.1-0.5-2.9-2.5-2.9c-1.9,0-2.6,1.7-2.7,2.9H367.8z"/>
		<path id="XMLID_22_" class="st0" d="M374.6,11c0-1.8-0.1-3.3-0.1-4.5h3.7l0.2,1.9h0.1c0.6-0.9,1.9-2.2,4.3-2.2
			c1.8,0,3.3,0.9,3.9,2.4h0.1c0.5-0.7,1.2-1.3,1.8-1.7c0.8-0.5,1.7-0.7,2.7-0.7c2.7,0,4.8,1.9,4.8,6.2v8.4h-4.3v-7.7
			c0-2.1-0.7-3.3-2.1-3.3c-1,0-1.7,0.7-2,1.5c-0.1,0.3-0.2,0.8-0.2,1.1v8.3h-4.3v-8c0-1.8-0.6-3-2-3c-1.1,0-1.8,0.9-2.1,1.6
			c-0.1,0.3-0.2,0.8-0.2,1.1v8.3h-4.3V11z"/>
		<path id="XMLID_19_" class="st0" d="M403,15c0.1,1.8,1.9,2.7,4,2.7c1.5,0,2.7-0.2,3.9-0.6l0.6,3c-1.5,0.6-3.2,0.9-5.2,0.9
			c-4.8,0-7.6-2.8-7.6-7.2c0-3.6,2.2-7.6,7.2-7.6c4.6,0,6.3,3.6,6.3,7.1c0,0.8-0.1,1.4-0.1,1.7H403z M408.2,11.9
			c0-1.1-0.5-2.9-2.5-2.9c-1.9,0-2.6,1.7-2.7,2.9H408.2z"/>
		<path id="XMLID_17_" class="st0" d="M415,11c0-1.8-0.1-3.3-0.1-4.5h3.7l0.2,1.9h0.1c0.6-0.9,1.9-2.2,4.3-2.2
			c1.8,0,3.3,0.9,3.9,2.4h0.1c0.5-0.7,1.2-1.3,1.8-1.7c0.8-0.5,1.7-0.7,2.7-0.7c2.7,0,4.8,1.9,4.8,6.2v8.4h-4.3v-7.7
			c0-2.1-0.7-3.3-2.1-3.3c-1,0-1.7,0.7-2,1.5c-0.1,0.3-0.2,0.8-0.2,1.1v8.3h-4.3v-8c0-1.8-0.6-3-2-3c-1.1,0-1.8,0.9-2.1,1.6
			c-0.1,0.3-0.2,0.8-0.2,1.1v8.3H415V11z"/>
		<path id="XMLID_14_" class="st0" d="M439.9,20.7c0.1-0.9,0.1-2.6,0.1-4.2V0h4.4v8.1h0.1c0.8-1.2,2.3-2,4.3-2
			c3.4,0,5.9,2.8,5.9,7.2c0,5.1-3.3,7.7-6.5,7.7c-1.7,0-3.3-0.6-4.3-2.3h-0.1l-0.2,2H439.9z M444.4,14.6c0,0.3,0,0.6,0.1,0.8
			c0.3,1.2,1.3,2.1,2.6,2.1c1.9,0,3.1-1.5,3.1-4c0-2.2-1-4-3.1-4c-1.2,0-2.3,0.9-2.6,2.2c-0.1,0.3-0.1,0.5-0.1,0.8V14.6z"/>
		<path id="XMLID_11_" class="st0" d="M460.9,15c0.1,1.8,1.9,2.7,4,2.7c1.5,0,2.7-0.2,3.9-0.6l0.6,3c-1.5,0.6-3.2,0.9-5.2,0.9
			c-4.8,0-7.6-2.8-7.6-7.2c0-3.6,2.2-7.6,7.2-7.6c4.6,0,6.3,3.6,6.3,7.1c0,0.8-0.1,1.4-0.1,1.7H460.9z M466.1,11.9
			c0-1.1-0.5-2.9-2.5-2.9c-1.9,0-2.6,1.7-2.7,2.9H466.1z"/>
		<path id="XMLID_9_" class="st0" d="M472.9,11.1c0-2.1-0.1-3.5-0.1-4.7h3.8l0.1,2.6h0.1c0.7-2.1,2.5-2.9,3.8-2.9
			c0.4,0,0.6,0,0.9,0.1v4.2c-0.3-0.1-0.7-0.1-1.2-0.1c-1.6,0-2.7,0.9-3,2.2c-0.1,0.3-0.1,0.6-0.1,1v7.2h-4.4V11.1z"/>
		<path id="XMLID_7_" class="st0" d="M481.7,18.3c0-1.6,1.1-2.7,2.6-2.7c1.5,0,2.6,1.1,2.6,2.7c0,1.5-1,2.7-2.6,2.7
			C482.8,21,481.7,19.8,481.7,18.3z"/>
	</g>
</g>
<g id="XMLID_1_">
	<path id="XMLID_3_" class="st0" d="M3.8,14.6c0,0,3.5-7.6,16.7-7.6C33.7,7,41,2.4,41,2.4s-9.4,9.7-18.6,9.7
		C13.2,12.1,7.6,12.1,3.8,14.6"/>
	<path id="XMLID_2_" class="st1" d="M0,21.9c0,0,3.5-7.6,16.7-7.6c13.2,0,20.5-4.6,20.5-4.6s-9.4,9.7-18.6,9.7
		C9.4,19.3,3.8,19.3,0,21.9"/>
</g>
</svg>
