<!-- Generator: Adobe Illustrator 22.1.0, SVG Export Plug-In  -->
<svg version="1.1"
	 xmlns="http://www.w3.org/2000/svg" xmlns:xlink="http://www.w3.org/1999/xlink" xmlns:a="http://ns.adobe.com/AdobeSVGViewerExtensions/3.0/"
	 x="0px" y="0px" width="130.9px" height="130px" viewBox="0 0 130.9 130" style="enable-background:new 0 0 130.9 130;"
	 xml:space="preserve">
<style type="text/css">
	.st0{fill:url(#XMLID_52_);}
	.st1{fill:url(#XMLID_53_);}
	.st2{fill:#FFFFFF;}
	.st3{fill:url(#XMLID_54_);}
	.st4{fill:url(#XMLID_55_);}
</style>
<defs>
</defs>
<g id="XMLID_1_">
	<g id="XMLID_49_">
		<linearGradient id="XMLID_52_" gradientUnits="userSpaceOnUse" x1="0" y1="65.0244" x2="130.9353" y2="65.0244">
			<stop  offset="0" style="stop-color:#BBBDBF"/>
			<stop  offset="1.386994e-02" style="stop-color:#C0C1C3"/>
			<stop  offset="0.1127" style="stop-color:#DBDCDD"/>
			<stop  offset="0.2122" style="stop-color:#EFF0F0"/>
			<stop  offset="0.312" style="stop-color:#FBFBFB"/>
			<stop  offset="0.4127" style="stop-color:#FFFFFF"/>
			<stop  offset="0.6981" style="stop-color:#FDFDFD"/>
			<stop  offset="0.8009" style="stop-color:#F6F7F7"/>
			<stop  offset="0.8742" style="stop-color:#EBEBEC"/>
			<stop  offset="0.9334" style="stop-color:#DADBDC"/>
			<stop  offset="0.9836" style="stop-color:#C4C6C7"/>
			<stop  offset="1" style="stop-color:#BBBDBF"/>
		</linearGradient>
		<path id="XMLID_51_" class="st0" d="M130.9,65c0-35.9-29.3-65-65.5-65C29.3,0,0,29.1,0,65c0,35.9,29.3,65,65.5,65
			C101.6,130,130.9,100.9,130.9,65z"/>
		<linearGradient id="XMLID_53_" gradientUnits="userSpaceOnUse" x1="7.2897" y1="65.0257" x2="123.6468" y2="65.0257">
			<stop  offset="0" style="stop-color:#4B257A"/>
			<stop  offset="1" style="stop-color:#954C8D"/>
		</linearGradient>
		<path id="XMLID_50_" class="st1" d="M123.6,65c0-31.9-26-57.8-58.2-57.8C33.3,7.2,7.3,33.1,7.3,65c0,31.9,26,57.8,58.2,57.8
			C97.6,122.8,123.6,96.9,123.6,65z"/>
	</g>
	<g id="XMLID_32_">
		<path id="XMLID_46_" class="st2" d="M88.8,72.8c0,6.4-2.6,10.8-8,10.8c-5.4,0-7.8-4.8-7.8-10.7c0-6,2.6-10.8,8-10.8
			C86.6,62.1,88.8,67.1,88.8,72.8z M77.9,72.9c0,4.8,1.1,7,3,7c1.9,0,2.9-2.4,2.9-7.1c0-4.6-1-7-3-7C79.1,65.8,77.9,68.1,77.9,72.9z
			"/>
		<path id="XMLID_44_" class="st2" d="M19.2,77.9c0.9,0.4,2.9,1.3,4.9,1.3c2.6,0,3.8-1.2,3.8-2.8c0-2-2.1-3-4.2-3h-2V70h1.9
			c1.6,0,3.7-0.6,3.7-2.4c0-1.2-1-2.2-3.1-2.2c-1.7,0-3.5,0.7-4.4,1.3l-1-3.5c1.3-0.8,3.8-1.6,6.5-1.6c4.5,0,7,2.3,7,5.2
			c0,2.2-1.3,3.9-3.8,4.8v0.1c2.5,0.4,4.5,2.3,4.5,5.1c0,3.7-3.3,6.4-8.6,6.4c-2.7,0-5-0.7-6.2-1.5L19.2,77.9z"/>
		<path id="XMLID_41_" class="st2" d="M51.8,72.2c0,6.4-2.6,10.8-8,10.8c-5.4,0-7.8-4.8-7.8-10.7c0-6,2.6-10.8,8-10.8
			C49.6,61.6,51.8,66.5,51.8,72.2z M40.9,72.3c0,4.8,1.1,7,3,7c1.9,0,2.9-2.4,2.9-7.1c0-4.6-1-7-3-7C42.1,65.2,40.9,67.5,40.9,72.3z
			"/>
		<path id="XMLID_38_" class="st2" d="M69.7,72.2c0,6.4-2.6,10.8-8,10.8c-5.4,0-7.8-4.8-7.8-10.7c0-6,2.6-10.8,8-10.8
			C67.5,61.6,69.7,66.5,69.7,72.2z M58.8,72.3c0,4.8,1.1,7,3,7c1.9,0,2.9-2.4,2.9-7.1c0-4.6-1-7-3-7C60,65.2,58.8,67.5,58.8,72.3z"
			/>
		<path id="XMLID_36_" class="st2" d="M92.2,76c0-1.1,0-2.1-0.1-2.9h2.4l0.1,1.2h0.1c0.4-0.6,1.2-1.4,2.8-1.4c1.2,0,2.1,0.6,2.5,1.5
			h0c0.3-0.5,0.8-0.8,1.2-1.1c0.5-0.3,1.1-0.4,1.8-0.4c1.8,0,3.1,1.2,3.1,4v5.4h-2.8v-5c0-1.3-0.4-2.1-1.4-2.1c-0.7,0-1.1,0.5-1.3,1
			c-0.1,0.2-0.1,0.5-0.1,0.7v5.3h-2.8v-5.1c0-1.2-0.4-1.9-1.3-1.9c-0.7,0-1.2,0.6-1.3,1C95,76.4,95,76.6,95,76.9v5.3h-2.8V76z"/>
		<path id="XMLID_33_" class="st2" d="M117.2,73.1c0,0.6-0.1,1.3-0.1,2.7v5.1c0,1.8-0.4,3.2-1.4,4.1c-1,0.9-2.4,1.1-3.7,1.1
			c-1.2,0-2.5-0.2-3.3-0.7l0.6-2.1c0.6,0.3,1.6,0.7,2.7,0.7c1.4,0,2.4-0.7,2.4-2.4v-0.6h0c-0.5,0.8-1.4,1.2-2.5,1.2
			c-2.3,0-3.9-1.8-3.9-4.5c0-2.9,1.9-4.8,4.2-4.8c1.3,0,2.1,0.5,2.5,1.3h0l0.1-1.1H117.2z M114.2,76.8c0-0.2,0-0.4-0.1-0.5
			c-0.2-0.7-0.8-1.3-1.5-1.3c-1,0-1.9,0.9-1.9,2.6c0,1.4,0.7,2.4,1.9,2.4c0.7,0,1.3-0.5,1.5-1.2c0.1-0.2,0.1-0.5,0.1-0.7V76.8z"/>
	</g>
	<g id="XMLID_2_">
		<path id="XMLID_30_" class="st2" d="M30.5,48.8c0-0.9-0.1-2.1-0.1-3.2h0c-0.2,1-0.6,2.1-0.9,3l-0.9,3h-1.4l-0.8-3
			c-0.3-0.9-0.5-2-0.7-3h0c0,1-0.1,2.2-0.1,3.2l-0.1,2.9h-1.6l0.5-7.7h2.3l0.8,2.6c0.2,0.9,0.5,1.9,0.7,2.8h0
			c0.2-0.9,0.5-1.9,0.7-2.8l0.8-2.6h2.3l0.4,7.7h-1.7L30.5,48.8z"/>
		<path id="XMLID_27_" class="st2" d="M36.8,51.8l-0.1-0.6h0c-0.4,0.4-0.9,0.7-1.6,0.7c-1.1,0-1.8-0.8-1.8-1.7
			c0-1.5,1.3-2.2,3.3-2.1V48c0-0.3-0.2-0.7-1-0.7c-0.6,0-1.2,0.2-1.5,0.4l-0.3-1.1c0.4-0.2,1.2-0.5,2.2-0.5c1.9,0,2.5,1.1,2.5,2.4
			v1.9c0,0.5,0,1.1,0.1,1.4H36.8z M36.6,49.1c-0.9,0-1.6,0.2-1.6,0.9c0,0.4,0.3,0.7,0.7,0.7c0.4,0,0.8-0.3,0.9-0.6
			c0-0.1,0-0.2,0-0.3V49.1z"/>
		<path id="XMLID_25_" class="st2" d="M41,46.2l0.5,0.9c0.2,0.3,0.3,0.6,0.5,0.8h0c0.1-0.3,0.3-0.6,0.4-0.9l0.5-0.9h1.9L43,48.9
			l1.9,2.9h-2l-0.6-1c-0.2-0.3-0.3-0.6-0.4-0.8h0c-0.1,0.3-0.3,0.6-0.4,0.8l-0.5,1H39l1.9-2.9l-1.9-2.8H41z"/>
		<path id="XMLID_22_" class="st2" d="M47.4,44.6c0,0.5-0.4,0.9-0.9,0.9c-0.6,0-0.9-0.4-0.9-0.9c0-0.5,0.4-0.9,0.9-0.9
			S47.4,44.1,47.4,44.6z M45.6,51.8v-5.6h1.7v5.6H45.6z"/>
		<path id="XMLID_20_" class="st2" d="M48.8,48c0-0.7,0-1.3,0-1.8h1.5l0.1,0.8h0c0.2-0.4,0.7-0.9,1.7-0.9c0.7,0,1.3,0.4,1.5,1h0
			c0.2-0.3,0.5-0.5,0.7-0.7c0.3-0.2,0.7-0.3,1.1-0.3c1.1,0,1.9,0.8,1.9,2.4v3.3h-1.7v-3c0-0.8-0.3-1.3-0.8-1.3
			c-0.4,0-0.7,0.3-0.8,0.6c0,0.1-0.1,0.3-0.1,0.4v3.3h-1.7v-3.1c0-0.7-0.3-1.2-0.8-1.2c-0.4,0-0.7,0.3-0.8,0.6
			c-0.1,0.1-0.1,0.3-0.1,0.4v3.3h-1.7V48z"/>
		<path id="XMLID_18_" class="st2" d="M63.9,50c0,0.7,0,1.3,0,1.8h-1.5L62.4,51h0c-0.2,0.3-0.7,0.9-1.8,0.9c-1.1,0-2-0.7-2-2.4v-3.3
			h1.8v3c0,0.8,0.3,1.3,0.9,1.3c0.5,0,0.8-0.3,0.9-0.6c0-0.1,0.1-0.2,0.1-0.4v-3.3h1.8V50z"/>
		<path id="XMLID_16_" class="st2" d="M65.3,48c0-0.7,0-1.3,0-1.8h1.5l0.1,0.8h0c0.2-0.4,0.7-0.9,1.7-0.9c0.7,0,1.3,0.4,1.5,1h0
			c0.2-0.3,0.5-0.5,0.7-0.7c0.3-0.2,0.7-0.3,1.1-0.3c1.1,0,1.9,0.8,1.9,2.4v3.3h-1.7v-3c0-0.8-0.3-1.3-0.8-1.3
			c-0.4,0-0.7,0.3-0.8,0.6c0,0.1-0.1,0.3-0.1,0.4v3.3h-1.7v-3.1c0-0.7-0.3-1.2-0.8-1.2c-0.4,0-0.7,0.3-0.8,0.6
			C67,48.2,67,48.4,67,48.5v3.3h-1.7V48z"/>
		<path id="XMLID_13_" class="st2" d="M77.5,44.2c0.6-0.1,1.5-0.2,2.4-0.2c1.5,0,2.4,0.3,3.2,0.8c0.8,0.6,1.3,1.5,1.3,2.9
			c0,1.5-0.5,2.5-1.3,3.1c-0.8,0.7-2.1,1-3.6,1c-0.9,0-1.5-0.1-2-0.1V44.2z M79.3,50.5c0.1,0,0.4,0,0.6,0c1.6,0,2.6-0.9,2.6-2.7
			c0-1.6-0.9-2.5-2.4-2.5c-0.4,0-0.6,0-0.8,0.1V50.5z"/>
		<path id="XMLID_10_" class="st2" d="M91,48.9c0,2.1-1.5,3-3,3c-1.6,0-2.9-1.1-2.9-2.9s1.2-3,3-3C89.8,46.1,91,47.2,91,48.9z
			 M86.9,49c0,1,0.4,1.7,1.1,1.7c0.7,0,1.1-0.7,1.1-1.7c0-0.8-0.3-1.7-1.1-1.7C87.2,47.3,86.9,48.2,86.9,49z"/>
		<path id="XMLID_8_" class="st2" d="M92,50.3c0.3,0.2,1,0.4,1.5,0.4c0.5,0,0.7-0.2,0.7-0.5c0-0.3-0.2-0.4-0.8-0.6
			c-1.2-0.4-1.6-1-1.6-1.7c0-1,0.9-1.8,2.3-1.8c0.7,0,1.2,0.1,1.6,0.3l-0.3,1.2c-0.3-0.1-0.7-0.3-1.2-0.3c-0.4,0-0.7,0.2-0.7,0.5
			c0,0.3,0.2,0.4,0.9,0.6c1.1,0.4,1.5,0.9,1.5,1.7c0,1-0.8,1.8-2.4,1.8c-0.7,0-1.4-0.2-1.8-0.4L92,50.3z"/>
		<path id="XMLID_5_" class="st2" d="M98.4,49.5c0.1,0.7,0.8,1.1,1.6,1.1c0.6,0,1.1-0.1,1.5-0.2l0.2,1.2c-0.6,0.2-1.3,0.3-2,0.3
			c-1.9,0-3-1.1-3-2.9c0-1.4,0.9-3,2.8-3c1.8,0,2.5,1.4,2.5,2.8c0,0.3,0,0.6-0.1,0.7H98.4z M100.4,48.3c0-0.4-0.2-1.1-1-1.1
			c-0.7,0-1,0.7-1.1,1.1H100.4z"/>
		<path id="XMLID_3_" class="st2" d="M107.2,43.7l-0.7,0.8l0,0l1.1-0.2v0.7l-1.1-0.2l0,0l0.7,0.8l-0.6,0.3l-0.4-1l0,0l-0.4,1
			l-0.6-0.3l0.7-0.8v0l-1,0.2v-0.7l1,0.2l0,0l-0.7-0.8l0.6-0.3l0.4,1h0l0.4-1L107.2,43.7z"/>
	</g>
</g>
</svg>
