<!-- Generator: Adobe Illustrator 22.1.0, SVG Export Plug-In  -->
<svg version="1.1"
	 xmlns="http://www.w3.org/2000/svg" xmlns:xlink="http://www.w3.org/1999/xlink" xmlns:a="http://ns.adobe.com/AdobeSVGViewerExtensions/3.0/"
	 x="0px" y="0px" width="418.9px" height="458px" viewBox="0 0 418.9 458" style="enable-background:new 0 0 418.9 458;"
	 xml:space="preserve">
<style type="text/css">
	.st0{fill:#FFFFFF;}
	.st1{fill:none;stroke:#522D6D;stroke-width:0.8878;}
	.st2{fill:none;stroke:#BBBDBF;stroke-width:0.222;}
	.st3{fill:#522D6D;}
	.st4{fill:none;stroke:#BBBDBF;stroke-width:0.4439;}
	.st5{fill:#58595B;}
	.st6{fill:#236092;}
	.st7{fill:#F5333F;}
</style>
<defs>
</defs>
<polygon id="XMLID_450_" class="st0" points="0.4,0.4 0.4,32.1 0.4,53.6 0.4,341.2 418.3,341.2 418.3,0.4 "/>
<polygon id="XMLID_449_" class="st1" points="0.4,0.4 0.4,32.1 0.4,53.6 0.4,341.2 418.3,341.2 418.3,0.4 "/>
<line id="XMLID_448_" class="st2" x1="41.1" y1="207" x2="418.9" y2="207"/>
<line id="XMLID_447_" class="st2" x1="41.1" y1="139" x2="418.9" y2="139"/>
<line id="XMLID_446_" class="st2" x1="41.1" y1="173.3" x2="418.9" y2="173.3"/>
<line id="XMLID_445_" class="st2" x1="41.1" y1="105.3" x2="418.9" y2="105.3"/>
<g id="XMLID_362_">
	<path id="XMLID_443_" class="st3" d="M7.4,358.8v14.7H5.5v-14.7H0.7v-1.7h11.5v1.7H7.4z"/>
	<path id="XMLID_441_" class="st3" d="M19.6,363.1c-0.3-0.1-0.5-0.3-0.8-0.3c-0.3-0.1-0.6-0.1-1-0.1c-0.9,0-1.5,0.3-2,1
		c-0.5,0.7-0.7,1.6-0.7,2.7v7.2h-1.8v-12.3h1.8v1.5c0.3-0.5,0.7-0.9,1.2-1.3c0.5-0.3,1.1-0.5,1.8-0.5c0.5,0,0.8,0,1.1,0.1
		c0.3,0.1,0.6,0.1,0.8,0.2L19.6,363.1z"/>
	<path id="XMLID_438_" class="st3" d="M29.1,373.6v-1.5c-0.4,0.5-1,0.9-1.6,1.2c-0.6,0.4-1.4,0.5-2.3,0.5c-0.5,0-1-0.1-1.4-0.2
		c-0.5-0.1-0.9-0.4-1.3-0.7c-0.4-0.3-0.7-0.7-0.9-1.2c-0.2-0.5-0.3-1.1-0.3-1.9c0-0.7,0.1-1.3,0.4-1.8c0.3-0.5,0.6-0.9,1-1.2
		c0.4-0.3,0.9-0.6,1.5-0.7s1.2-0.2,1.8-0.2c0.6,0,1.2,0.1,1.7,0.2c0.5,0.1,1,0.3,1.3,0.5v-1.4c0-1.8-0.9-2.7-2.7-2.7
		c-0.7,0-1.2,0.1-1.8,0.2c-0.5,0.2-1.1,0.4-1.5,0.7l-0.7-1.4c0.5-0.3,1.2-0.5,1.9-0.7c0.7-0.2,1.5-0.3,2.2-0.3
		c1.3,0,2.4,0.3,3.1,0.9c0.8,0.6,1.2,1.6,1.2,3.1v8.6H29.1z M29.1,368.1c-0.4-0.2-0.8-0.4-1.3-0.5c-0.5-0.1-1.1-0.2-1.8-0.2
		c-0.9,0-1.6,0.2-2.1,0.6c-0.5,0.4-0.8,1-0.8,1.8c0,0.9,0.2,1.6,0.7,2c0.5,0.4,1.1,0.6,1.8,0.6c0.8,0,1.5-0.2,2.1-0.5
		c0.6-0.4,1.1-0.8,1.4-1.3V368.1z"/>
	<path id="XMLID_435_" class="st3" d="M42.1,373.6v-1.5c-0.4,0.5-1,0.9-1.5,1.2c-0.6,0.4-1.3,0.5-2.2,0.5c-0.6,0-1.2-0.1-1.7-0.4
		c-0.5-0.2-1-0.6-1.4-1.1c-0.4-0.5-0.7-1.1-0.9-1.9c-0.2-0.8-0.3-1.7-0.3-2.8c0-1.1,0.1-2,0.4-2.9c0.2-0.8,0.6-1.5,1-2.1
		c0.4-0.6,0.9-1,1.5-1.3c0.6-0.3,1.2-0.4,1.8-0.4c0.8,0,1.4,0.1,2,0.4s1,0.7,1.5,1.2v-5.2l1.8-1v17.1H42.1z M42.1,364.4
		c-0.3-0.5-0.8-1-1.4-1.3s-1.2-0.5-2-0.5c-1,0-1.8,0.4-2.3,1.3c-0.5,0.9-0.7,2.1-0.7,3.8c0,1.6,0.3,2.7,0.8,3.5s1.3,1.2,2.3,1.2
		c0.7,0,1.3-0.2,1.8-0.5s1-0.8,1.5-1.3V364.4z"/>
	<path id="XMLID_432_" class="st3" d="M50,357.8c0,0.3-0.1,0.6-0.4,0.9c-0.2,0.2-0.5,0.4-0.9,0.4c-0.4,0-0.7-0.1-0.9-0.4
		c-0.3-0.2-0.4-0.5-0.4-0.9c0-0.4,0.1-0.7,0.4-0.9c0.2-0.2,0.6-0.4,0.9-0.4c0.3,0,0.6,0.1,0.9,0.4C49.8,357.2,50,357.5,50,357.8z
		 M47.8,373.6v-12.3h1.8v12.3H47.8z"/>
	<path id="XMLID_430_" class="st3" d="M55.9,362.8v8c0,0.5,0.1,0.9,0.3,1.1c0.2,0.2,0.5,0.3,1,0.3c0.4,0,0.7,0,0.9-0.1
		c0.3-0.1,0.5-0.1,0.8-0.3l-0.1,1.5c-0.3,0.1-0.7,0.2-1,0.3c-0.4,0.1-0.8,0.1-1.2,0.1c-0.8,0-1.4-0.2-1.8-0.6
		c-0.4-0.4-0.6-1.1-0.6-2.2v-8.3h-1.5v-1.5h1.5v-3.8l1.8-1v4.8h3v1.5H55.9z"/>
	<path id="XMLID_427_" class="st3" d="M64.5,357.8c0,0.3-0.1,0.6-0.4,0.9c-0.2,0.2-0.5,0.4-0.9,0.4c-0.4,0-0.7-0.1-0.9-0.4
		c-0.3-0.2-0.4-0.5-0.4-0.9c0-0.4,0.1-0.7,0.4-0.9c0.2-0.2,0.6-0.4,0.9-0.4c0.3,0,0.6,0.1,0.9,0.4C64.4,357.2,64.5,357.5,64.5,357.8
		z M62.4,373.6v-12.3h1.8v12.3H62.4z"/>
	<path id="XMLID_424_" class="st3" d="M78.2,367.3c0,1-0.1,2-0.4,2.8c-0.3,0.8-0.7,1.5-1.1,2c-0.5,0.6-1.1,1-1.7,1.3
		c-0.7,0.3-1.4,0.4-2.1,0.4c-0.8,0-1.5-0.1-2.1-0.4c-0.6-0.3-1.2-0.7-1.7-1.2s-0.8-1.2-1.1-2c-0.3-0.8-0.4-1.7-0.4-2.8
		s0.1-2,0.4-2.8c0.3-0.8,0.7-1.5,1.1-2s1.1-0.9,1.7-1.2c0.7-0.3,1.4-0.4,2.1-0.4c0.8,0,1.5,0.1,2.1,0.4s1.2,0.7,1.7,1.2
		s0.8,1.2,1.1,2C78.1,365.4,78.2,366.3,78.2,367.3z M76.4,367.4c0-1.6-0.3-2.8-1-3.7c-0.7-0.8-1.5-1.2-2.6-1.2s-1.9,0.4-2.6,1.2
		c-0.6,0.8-1,2-1,3.7c0,1.6,0.3,2.9,1,3.7c0.6,0.8,1.5,1.2,2.6,1.2s1.9-0.4,2.6-1.2C76.1,370.2,76.4,369,76.4,367.4z"/>
	<path id="XMLID_422_" class="st3" d="M89.1,373.6v-7.2c0-1.3-0.2-2.3-0.7-2.9s-1.2-0.9-2.2-0.9c-0.9,0-1.6,0.3-2.2,0.9
		c-0.6,0.6-0.9,1.6-0.9,2.9v7.2h-1.8v-12.3h1.8l0,1.5c0.4-0.5,0.8-0.9,1.4-1.3c0.6-0.3,1.2-0.5,2-0.5c0.7,0,1.3,0.1,1.8,0.3
		c0.5,0.2,1,0.5,1.4,0.9c0.4,0.4,0.7,0.9,0.9,1.6c0.2,0.6,0.3,1.4,0.3,2.3v7.5H89.1z"/>
	<path id="XMLID_419_" class="st3" d="M101.7,373.6v-1.5c-0.4,0.5-1,0.9-1.6,1.2c-0.6,0.4-1.4,0.5-2.3,0.5c-0.5,0-1-0.1-1.4-0.2
		c-0.5-0.1-0.9-0.4-1.3-0.7c-0.4-0.3-0.7-0.7-0.9-1.2c-0.2-0.5-0.3-1.1-0.3-1.9c0-0.7,0.1-1.3,0.4-1.8c0.3-0.5,0.6-0.9,1-1.2
		c0.4-0.3,0.9-0.6,1.5-0.7s1.2-0.2,1.8-0.2c0.6,0,1.2,0.1,1.7,0.2c0.5,0.1,1,0.3,1.3,0.5v-1.4c0-1.8-0.9-2.7-2.7-2.7
		c-0.7,0-1.2,0.1-1.8,0.2c-0.5,0.2-1.1,0.4-1.5,0.7l-0.7-1.4c0.5-0.3,1.2-0.5,1.9-0.7c0.7-0.2,1.5-0.3,2.2-0.3
		c1.3,0,2.4,0.3,3.1,0.9c0.8,0.6,1.2,1.6,1.2,3.1v8.6H101.7z M101.7,368.1c-0.4-0.2-0.8-0.4-1.3-0.5c-0.5-0.1-1.1-0.2-1.8-0.2
		c-0.9,0-1.6,0.2-2.1,0.6c-0.5,0.4-0.8,1-0.8,1.8c0,0.9,0.2,1.6,0.7,2c0.5,0.4,1.1,0.6,1.8,0.6c0.8,0,1.5-0.2,2.1-0.5
		c0.6-0.4,1.1-0.8,1.4-1.3V368.1z"/>
	<path id="XMLID_417_" class="st3" d="M107.4,373.6v-16.1l1.8-1v17.1H107.4z"/>
	<path id="XMLID_415_" class="st3" d="M131.8,373.6v-11.1v-1.8c0,0.2-0.1,0.3-0.2,0.6c-0.1,0.2-0.2,0.5-0.2,0.7s-0.2,0.5-0.3,0.7
		c-0.1,0.3-0.2,0.5-0.3,0.7l-4.4,10.6l-4.3-10.6c-0.1-0.2-0.2-0.4-0.3-0.7c-0.1-0.3-0.2-0.5-0.3-0.7c-0.1-0.2-0.2-0.5-0.2-0.7
		c-0.1-0.2-0.1-0.4-0.2-0.6v1.8v11.1h-1.8v-16.4h2l3.9,9.8c0.1,0.3,0.2,0.5,0.3,0.8s0.2,0.6,0.3,0.9c0.1,0.3,0.2,0.6,0.3,0.8
		c0.1,0.3,0.2,0.5,0.2,0.6c0-0.2,0.1-0.4,0.2-0.7c0.1-0.3,0.2-0.5,0.3-0.8c0.1-0.3,0.2-0.6,0.3-0.9c0.1-0.3,0.2-0.6,0.3-0.8l3.9-9.8
		h2v16.4H131.8z"/>
	<path id="XMLID_412_" class="st3" d="M147,367c0,0.2,0,0.4,0,0.5s0,0.3-0.1,0.4h-8.1c0.1,1.3,0.4,2.4,1,3.2s1.4,1.2,2.4,1.2
		c0.7,0,1.3-0.1,1.8-0.3c0.5-0.2,1-0.5,1.6-0.9l0.8,1.3c-0.4,0.2-0.7,0.4-1.1,0.6c-0.3,0.2-0.7,0.3-1,0.4c-0.3,0.1-0.7,0.2-1.1,0.3
		s-0.8,0.1-1.3,0.1c-0.6,0-1.1-0.1-1.7-0.3c-0.6-0.2-1.1-0.6-1.6-1.1s-0.9-1.2-1.2-2c-0.3-0.8-0.5-1.8-0.5-3c0-1,0.1-1.9,0.4-2.6
		c0.3-0.8,0.6-1.4,1.1-2c0.5-0.5,1-1,1.6-1.3c0.6-0.3,1.3-0.4,2-0.4c0.8,0,1.5,0.1,2.1,0.4c0.6,0.3,1.1,0.7,1.6,1.3s0.7,1.2,0.9,1.9
		S147,366.2,147,367z M145.4,366.6c-0.1-1.2-0.4-2.2-0.9-2.9s-1.3-1.1-2.4-1.1c-0.9,0-1.7,0.3-2.3,1c-0.6,0.7-0.9,1.7-1,3.1H145.4z"
		/>
	<path id="XMLID_410_" class="st3" d="M152.4,362.8v8c0,0.5,0.1,0.9,0.3,1.1c0.2,0.2,0.5,0.3,1,0.3c0.4,0,0.7,0,0.9-0.1
		c0.3-0.1,0.5-0.1,0.8-0.3l-0.1,1.5c-0.3,0.1-0.7,0.2-1,0.3c-0.4,0.1-0.8,0.1-1.2,0.1c-0.8,0-1.4-0.2-1.8-0.6
		c-0.4-0.4-0.6-1.1-0.6-2.2v-8.3h-1.5v-1.5h1.5v-3.8l1.8-1v4.8h3v1.5H152.4z"/>
	<path id="XMLID_407_" class="st3" d="M165.5,373.6v-1.5c-0.4,0.5-1,0.9-1.6,1.2c-0.6,0.4-1.4,0.5-2.3,0.5c-0.5,0-1-0.1-1.4-0.2
		c-0.5-0.1-0.9-0.4-1.3-0.7c-0.4-0.3-0.7-0.7-0.9-1.2c-0.2-0.5-0.3-1.1-0.3-1.9c0-0.7,0.1-1.3,0.4-1.8c0.3-0.5,0.6-0.9,1-1.2
		c0.4-0.3,0.9-0.6,1.5-0.7s1.2-0.2,1.8-0.2c0.6,0,1.2,0.1,1.7,0.2c0.5,0.1,1,0.3,1.3,0.5v-1.4c0-1.8-0.9-2.7-2.7-2.7
		c-0.7,0-1.2,0.1-1.8,0.2c-0.5,0.2-1.1,0.4-1.5,0.7l-0.7-1.4c0.5-0.3,1.2-0.5,1.9-0.7c0.7-0.2,1.5-0.3,2.2-0.3
		c1.3,0,2.4,0.3,3.1,0.9c0.8,0.6,1.2,1.6,1.2,3.1v8.6H165.5z M165.5,368.1c-0.4-0.2-0.8-0.4-1.3-0.5c-0.5-0.1-1.1-0.2-1.8-0.2
		c-0.9,0-1.6,0.2-2.1,0.6c-0.5,0.4-0.8,1-0.8,1.8c0,0.9,0.2,1.6,0.7,2c0.5,0.4,1.1,0.6,1.8,0.6c0.8,0,1.5-0.2,2.1-0.5
		c0.6-0.4,1.1-0.8,1.4-1.3V368.1z"/>
	<path id="XMLID_405_" class="st3" d="M170.4,365.9v-1.7h5.1v1.7H170.4z"/>
	<path id="XMLID_402_" class="st3" d="M188,373.6l-1.4-4.2h-6.8l-1.4,4.2h-1.9l5.7-16.4h2l5.7,16.4H188z M184.2,362.3
		c-0.1-0.3-0.2-0.6-0.3-0.9c-0.1-0.3-0.2-0.6-0.3-0.9c-0.1-0.3-0.2-0.6-0.2-0.8c-0.1-0.3-0.1-0.5-0.2-0.6c0,0.2-0.1,0.4-0.2,0.6
		c-0.1,0.3-0.2,0.5-0.2,0.8c-0.1,0.3-0.2,0.6-0.3,0.9c-0.1,0.3-0.2,0.6-0.3,0.9l-1.8,5.3h5.6L184.2,362.3z"/>
	<path id="XMLID_400_" class="st3" d="M200.8,373.6v-7.2c0-1.3-0.2-2.3-0.7-2.9s-1.2-0.9-2.2-0.9c-0.9,0-1.6,0.3-2.2,0.9
		c-0.6,0.6-0.9,1.6-0.9,2.9v7.2h-1.8v-12.3h1.8l0,1.5c0.4-0.5,0.8-0.9,1.4-1.3c0.6-0.3,1.2-0.5,2-0.5c0.7,0,1.3,0.1,1.8,0.3
		c0.5,0.2,1,0.5,1.4,0.9c0.4,0.4,0.7,0.9,0.9,1.6c0.2,0.6,0.3,1.4,0.3,2.3v7.5H200.8z"/>
	<path id="XMLID_397_" class="st3" d="M213.4,373.6v-1.5c-0.4,0.5-1,0.9-1.6,1.2c-0.6,0.4-1.4,0.5-2.3,0.5c-0.5,0-1-0.1-1.4-0.2
		c-0.5-0.1-0.9-0.4-1.3-0.7c-0.4-0.3-0.7-0.7-0.9-1.2c-0.2-0.5-0.3-1.1-0.3-1.9c0-0.7,0.1-1.3,0.4-1.8c0.3-0.5,0.6-0.9,1-1.2
		c0.4-0.3,0.9-0.6,1.5-0.7s1.2-0.2,1.8-0.2c0.6,0,1.2,0.1,1.7,0.2c0.5,0.1,1,0.3,1.3,0.5v-1.4c0-1.8-0.9-2.7-2.7-2.7
		c-0.7,0-1.2,0.1-1.8,0.2c-0.5,0.2-1.1,0.4-1.5,0.7l-0.7-1.4c0.5-0.3,1.2-0.5,1.9-0.7c0.7-0.2,1.5-0.3,2.2-0.3
		c1.3,0,2.4,0.3,3.1,0.9c0.8,0.6,1.2,1.6,1.2,3.1v8.6H213.4z M213.4,368.1c-0.4-0.2-0.8-0.4-1.3-0.5c-0.5-0.1-1.1-0.2-1.8-0.2
		c-0.9,0-1.6,0.2-2.1,0.6c-0.5,0.4-0.8,1-0.8,1.8c0,0.9,0.2,1.6,0.7,2c0.5,0.4,1.1,0.6,1.8,0.6c0.8,0,1.5-0.2,2.1-0.5
		c0.6-0.4,1.1-0.8,1.4-1.3V368.1z"/>
	<path id="XMLID_395_" class="st3" d="M219.1,373.6v-16.1l1.8-1v17.1H219.1z"/>
	<path id="XMLID_393_" class="st3" d="M228.3,377.9h-1.8l1.7-4.5l-4.4-12.1h1.8l3,8.9l0.4,1.3l0.4-1.2l3-8.9h1.8L228.3,377.9z"/>
	<path id="XMLID_391_" class="st3" d="M244.4,370.3c0,0.6-0.1,1.1-0.4,1.6c-0.2,0.4-0.6,0.8-0.9,1.1c-0.4,0.3-0.8,0.5-1.3,0.6
		c-0.5,0.1-1,0.2-1.6,0.2c-0.8,0-1.6-0.1-2.4-0.4c-0.7-0.3-1.4-0.7-2-1.1l1-1.3c0.5,0.4,1,0.8,1.6,1s1.1,0.4,1.8,0.4
		c0.8,0,1.5-0.2,1.9-0.5c0.4-0.3,0.6-0.8,0.6-1.4c0-0.2-0.1-0.5-0.2-0.7c-0.1-0.2-0.3-0.4-0.5-0.6c-0.2-0.2-0.5-0.4-0.9-0.6
		c-0.4-0.2-0.8-0.4-1.4-0.6c-0.6-0.3-1.1-0.5-1.6-0.8c-0.4-0.2-0.8-0.5-1.1-0.8c-0.3-0.3-0.5-0.6-0.6-0.9c-0.1-0.4-0.2-0.8-0.2-1.3
		c0-0.5,0.1-0.9,0.3-1.3c0.2-0.4,0.5-0.7,0.8-1c0.3-0.3,0.7-0.5,1.2-0.6c0.5-0.1,1-0.2,1.5-0.2c0.8,0,1.6,0.1,2.2,0.4
		s1.2,0.6,1.7,0.9l-1,1.3c-0.5-0.4-1-0.7-1.4-0.8c-0.5-0.2-1-0.3-1.7-0.3s-1.2,0.1-1.5,0.4c-0.4,0.3-0.5,0.6-0.5,1.1
		c0,0.3,0,0.5,0.1,0.7c0.1,0.2,0.2,0.4,0.4,0.5c0.2,0.2,0.5,0.4,0.8,0.5c0.4,0.2,0.8,0.4,1.3,0.6c0.6,0.3,1.1,0.5,1.5,0.7
		s0.8,0.5,1.2,0.8c0.3,0.3,0.6,0.6,0.7,1C244.3,369.3,244.4,369.8,244.4,370.3z"/>
	<path id="XMLID_388_" class="st3" d="M250,357.8c0,0.3-0.1,0.6-0.4,0.9c-0.2,0.2-0.5,0.4-0.9,0.4c-0.4,0-0.7-0.1-0.9-0.4
		c-0.3-0.2-0.4-0.5-0.4-0.9c0-0.4,0.1-0.7,0.4-0.9c0.2-0.2,0.6-0.4,0.9-0.4c0.3,0,0.6,0.1,0.9,0.4C249.9,357.2,250,357.5,250,357.8z
		 M247.9,373.6v-12.3h1.8v12.3H247.9z"/>
	<path id="XMLID_386_" class="st3" d="M261.2,370.3c0,0.6-0.1,1.1-0.4,1.6c-0.2,0.4-0.6,0.8-0.9,1.1c-0.4,0.3-0.8,0.5-1.3,0.6
		c-0.5,0.1-1,0.2-1.6,0.2c-0.8,0-1.6-0.1-2.4-0.4c-0.7-0.3-1.4-0.7-2-1.1l1-1.3c0.5,0.4,1,0.8,1.6,1s1.1,0.4,1.8,0.4
		c0.8,0,1.5-0.2,1.9-0.5c0.4-0.3,0.6-0.8,0.6-1.4c0-0.2-0.1-0.5-0.2-0.7c-0.1-0.2-0.3-0.4-0.5-0.6c-0.2-0.2-0.5-0.4-0.9-0.6
		c-0.4-0.2-0.8-0.4-1.4-0.6c-0.6-0.3-1.1-0.5-1.6-0.8c-0.4-0.2-0.8-0.5-1.1-0.8c-0.3-0.3-0.5-0.6-0.6-0.9c-0.1-0.4-0.2-0.8-0.2-1.3
		c0-0.5,0.1-0.9,0.3-1.3c0.2-0.4,0.5-0.7,0.8-1c0.3-0.3,0.7-0.5,1.2-0.6c0.5-0.1,1-0.2,1.5-0.2c0.8,0,1.6,0.1,2.2,0.4
		s1.2,0.6,1.7,0.9l-1,1.3c-0.5-0.4-1-0.7-1.4-0.8c-0.5-0.2-1-0.3-1.7-0.3s-1.2,0.1-1.5,0.4c-0.4,0.3-0.5,0.6-0.5,1.1
		c0,0.3,0,0.5,0.1,0.7c0.1,0.2,0.2,0.4,0.4,0.5c0.2,0.2,0.5,0.4,0.8,0.5c0.4,0.2,0.8,0.4,1.3,0.6c0.6,0.3,1.1,0.5,1.5,0.7
		s0.8,0.5,1.2,0.8c0.3,0.3,0.6,0.6,0.7,1C261.1,369.3,261.2,369.8,261.2,370.3z"/>
	<path id="XMLID_384_" class="st3" d="M274.9,376.1c-0.6-0.5-1.2-1.1-1.7-1.8c-0.6-0.7-1.1-1.4-1.5-2.2c-0.4-0.8-0.8-1.7-1.1-2.6
		s-0.4-1.9-0.4-3c0-1.1,0.1-2.2,0.4-3.1s0.6-1.8,1.1-2.6c0.4-0.8,0.9-1.5,1.5-2.2c0.6-0.7,1.1-1.3,1.7-1.8l0.8,0.7
		c-0.6,0.6-1.1,1.2-1.5,1.8c-0.5,0.6-0.8,1.3-1.2,2c-0.3,0.7-0.6,1.5-0.8,2.3c-0.2,0.8-0.3,1.7-0.3,2.7c0,1,0.1,1.9,0.3,2.7
		c0.2,0.9,0.4,1.6,0.8,2.4s0.7,1.4,1.2,2c0.5,0.6,1,1.2,1.5,1.8L274.9,376.1z"/>
	<path id="XMLID_382_" class="st3" d="M280.8,358.8v5.4h4.5v1.7h-4.5v7.6H279v-16.4h9.6v1.7H280.8z"/>
	<path id="XMLID_379_" class="st3" d="M293.8,357.8c0,0.3-0.1,0.6-0.4,0.9c-0.2,0.2-0.5,0.4-0.9,0.4c-0.4,0-0.7-0.1-0.9-0.4
		c-0.3-0.2-0.4-0.5-0.4-0.9c0-0.4,0.1-0.7,0.4-0.9c0.2-0.2,0.6-0.4,0.9-0.4c0.3,0,0.6,0.1,0.9,0.4
		C293.7,357.2,293.8,357.5,293.8,357.8z M291.7,373.6v-12.3h1.8v12.3H291.7z"/>
	<path id="XMLID_377_" class="st3" d="M301.3,358.2c-0.4,0-0.7,0.1-0.9,0.3c-0.2,0.2-0.4,0.5-0.4,1v1.8h2.4v1.5h-2.4v10.8h-1.8
		v-10.8h-1.7v-1.5h1.7v-1.7c0-1.1,0.3-1.9,0.8-2.3c0.5-0.5,1.2-0.7,2.1-0.7c0.4,0,0.7,0,0.9,0c0.2,0,0.4,0.1,0.7,0.2v1.7
		C302.4,358.3,301.9,358.2,301.3,358.2z"/>
	<path id="XMLID_375_" class="st3" d="M308,362.8v8c0,0.5,0.1,0.9,0.3,1.1c0.2,0.2,0.5,0.3,1,0.3c0.4,0,0.7,0,0.9-0.1
		c0.3-0.1,0.5-0.1,0.8-0.3l-0.1,1.5c-0.3,0.1-0.7,0.2-1,0.3c-0.4,0.1-0.8,0.1-1.2,0.1c-0.8,0-1.4-0.2-1.8-0.6
		c-0.4-0.4-0.6-1.1-0.6-2.2v-8.3h-1.5v-1.5h1.5v-3.8l1.8-1v4.8h3v1.5H308z"/>
	<path id="XMLID_373_" class="st3" d="M317.5,377.9h-1.8l1.7-4.5l-4.4-12.1h1.8l3,8.9l0.4,1.3l0.4-1.2l3-8.9h1.8L317.5,377.9z"/>
	<path id="XMLID_371_" class="st3" d="M325.5,365.9v-1.7h5.1v1.7H325.5z"/>
	<path id="XMLID_368_" class="st3" d="M343.8,367.3c0,1-0.1,2-0.4,2.8c-0.3,0.8-0.7,1.5-1.1,2c-0.5,0.6-1.1,1-1.7,1.3
		c-0.7,0.3-1.4,0.4-2.1,0.4c-0.8,0-1.5-0.1-2.1-0.4c-0.6-0.3-1.2-0.7-1.7-1.2s-0.8-1.2-1.1-2c-0.3-0.8-0.4-1.7-0.4-2.8
		s0.1-2,0.4-2.8c0.3-0.8,0.7-1.5,1.1-2s1.1-0.9,1.7-1.2c0.7-0.3,1.4-0.4,2.1-0.4c0.8,0,1.5,0.1,2.1,0.4s1.2,0.7,1.7,1.2
		s0.8,1.2,1.1,2C343.7,365.4,343.8,366.3,343.8,367.3z M342,367.4c0-1.6-0.3-2.8-1-3.7c-0.7-0.8-1.5-1.2-2.6-1.2s-1.9,0.4-2.6,1.2
		c-0.6,0.8-1,2-1,3.7c0,1.6,0.3,2.9,1,3.7c0.6,0.8,1.5,1.2,2.6,1.2s1.9-0.4,2.6-1.2C341.7,370.2,342,369,342,367.4z"/>
	<path id="XMLID_366_" class="st3" d="M354.7,373.6v-7.2c0-1.3-0.2-2.3-0.7-2.9s-1.2-0.9-2.2-0.9c-0.9,0-1.6,0.3-2.2,0.9
		c-0.6,0.6-0.9,1.6-0.9,2.9v7.2H347v-12.3h1.8l0,1.5c0.4-0.5,0.8-0.9,1.4-1.3c0.6-0.3,1.2-0.5,2-0.5c0.7,0,1.3,0.1,1.8,0.3
		c0.5,0.2,1,0.5,1.4,0.9c0.4,0.4,0.7,0.9,0.9,1.6c0.2,0.6,0.3,1.4,0.3,2.3v7.5H354.7z"/>
	<path id="XMLID_363_" class="st3" d="M369.6,367c0,0.2,0,0.4,0,0.5s0,0.3-0.1,0.4h-8.1c0.1,1.3,0.4,2.4,1,3.2s1.4,1.2,2.4,1.2
		c0.7,0,1.3-0.1,1.8-0.3c0.5-0.2,1-0.5,1.6-0.9l0.8,1.3c-0.4,0.2-0.7,0.4-1.1,0.6c-0.3,0.2-0.7,0.3-1,0.4c-0.3,0.1-0.7,0.2-1.1,0.3
		s-0.8,0.1-1.3,0.1c-0.6,0-1.1-0.1-1.7-0.3c-0.6-0.2-1.1-0.6-1.6-1.1s-0.9-1.2-1.2-2c-0.3-0.8-0.5-1.8-0.5-3c0-1,0.1-1.9,0.4-2.6
		c0.3-0.8,0.6-1.4,1.1-2c0.5-0.5,1-1,1.6-1.3c0.6-0.3,1.3-0.4,2-0.4c0.8,0,1.5,0.1,2.1,0.4c0.6,0.3,1.1,0.7,1.6,1.3s0.7,1.2,0.9,1.9
		S369.6,366.2,369.6,367z M368,366.6c-0.1-1.2-0.4-2.2-0.9-2.9s-1.3-1.1-2.4-1.1c-0.9,0-1.7,0.3-2.3,1c-0.6,0.7-0.9,1.7-1,3.1H368z"
		/>
</g>
<g id="XMLID_281_">
	<path id="XMLID_360_" class="st3" d="M9.1,398.4c0,0.6-0.1,1.1-0.4,1.6c-0.2,0.4-0.6,0.8-0.9,1.1c-0.4,0.3-0.8,0.5-1.3,0.6
		c-0.5,0.1-1,0.2-1.6,0.2c-0.8,0-1.6-0.1-2.4-0.4c-0.7-0.3-1.4-0.7-2-1.1l1-1.3c0.5,0.4,1,0.8,1.6,1s1.1,0.4,1.8,0.4
		c0.8,0,1.5-0.2,1.9-0.5c0.4-0.3,0.6-0.8,0.6-1.4c0-0.2-0.1-0.5-0.2-0.7c-0.1-0.2-0.3-0.4-0.5-0.6c-0.2-0.2-0.5-0.4-0.9-0.6
		c-0.4-0.2-0.8-0.4-1.4-0.6c-0.6-0.3-1.1-0.5-1.6-0.8c-0.4-0.2-0.8-0.5-1.1-0.8c-0.3-0.3-0.5-0.6-0.6-0.9c-0.1-0.4-0.2-0.8-0.2-1.3
		c0-0.5,0.1-0.9,0.3-1.3c0.2-0.4,0.5-0.7,0.8-1c0.3-0.3,0.7-0.5,1.2-0.6c0.5-0.1,1-0.2,1.5-0.2c0.8,0,1.6,0.1,2.2,0.4
		s1.2,0.6,1.7,0.9l-1,1.3c-0.5-0.4-1-0.7-1.4-0.8c-0.5-0.2-1-0.3-1.7-0.3s-1.2,0.1-1.5,0.4c-0.4,0.3-0.5,0.6-0.5,1.1
		c0,0.3,0,0.5,0.1,0.7c0.1,0.2,0.2,0.4,0.4,0.5c0.2,0.2,0.5,0.4,0.8,0.5c0.4,0.2,0.8,0.4,1.3,0.6c0.6,0.3,1.1,0.5,1.5,0.7
		s0.8,0.5,1.2,0.8c0.3,0.3,0.6,0.6,0.7,1C9,397.4,9.1,397.9,9.1,398.4z"/>
	<path id="XMLID_358_" class="st3" d="M14.5,390.8v8c0,0.5,0.1,0.9,0.3,1.1c0.2,0.2,0.5,0.3,1,0.3c0.4,0,0.7,0,0.9-0.1
		c0.3-0.1,0.5-0.1,0.8-0.3l-0.1,1.5c-0.3,0.1-0.7,0.2-1,0.3c-0.4,0.1-0.8,0.1-1.2,0.1c-0.8,0-1.4-0.2-1.8-0.6
		c-0.4-0.4-0.6-1.1-0.6-2.2v-8.3h-1.5v-1.5h1.5v-3.8l1.8-1v4.8h3v1.5H14.5z"/>
	<path id="XMLID_356_" class="st3" d="M28.4,401.6v-1.5c-0.4,0.5-0.8,0.9-1.4,1.3c-0.6,0.3-1.2,0.5-2,0.5c-0.7,0-1.2-0.1-1.8-0.3
		c-0.5-0.2-1-0.5-1.4-0.9c-0.4-0.4-0.7-0.9-0.9-1.6c-0.2-0.6-0.3-1.4-0.3-2.3v-7.5h1.8v7.2c0,1.3,0.2,2.3,0.7,2.9s1.2,0.9,2.2,0.9
		c0.9,0,1.6-0.3,2.2-0.9c0.6-0.6,0.9-1.6,0.9-2.9v-7.2h1.8v12.3H28.4z"/>
	<path id="XMLID_353_" class="st3" d="M41.4,401.6v-1.5c-0.4,0.5-1,0.9-1.5,1.2c-0.6,0.4-1.3,0.5-2.2,0.5c-0.6,0-1.2-0.1-1.7-0.4
		c-0.5-0.2-1-0.6-1.4-1.1c-0.4-0.5-0.7-1.1-0.9-1.9c-0.2-0.8-0.3-1.7-0.3-2.8c0-1.1,0.1-2,0.4-2.9c0.2-0.8,0.6-1.5,1-2.1
		c0.4-0.6,0.9-1,1.5-1.3c0.6-0.3,1.2-0.4,1.8-0.4c0.8,0,1.4,0.1,2,0.4s1,0.7,1.5,1.2v-5.2l1.8-1v17.1H41.4z M41.4,392.4
		c-0.3-0.5-0.8-1-1.4-1.3s-1.2-0.5-2-0.5c-1,0-1.8,0.4-2.3,1.3c-0.5,0.9-0.7,2.1-0.7,3.8c0,1.6,0.3,2.7,0.8,3.5s1.3,1.2,2.3,1.2
		c0.7,0,1.3-0.2,1.8-0.5s1-0.8,1.5-1.3V392.4z"/>
	<path id="XMLID_350_" class="st3" d="M49.3,385.9c0,0.3-0.1,0.6-0.4,0.9c-0.2,0.2-0.5,0.4-0.9,0.4c-0.4,0-0.7-0.1-0.9-0.4
		c-0.3-0.2-0.4-0.5-0.4-0.9c0-0.4,0.1-0.7,0.4-0.9c0.2-0.2,0.6-0.4,0.9-0.4c0.3,0,0.6,0.1,0.9,0.4C49.2,385.2,49.3,385.5,49.3,385.9
		z M47.2,401.6v-12.3H49v12.3H47.2z"/>
	<path id="XMLID_347_" class="st3" d="M62.3,395.1c0,0.2,0,0.4,0,0.5s0,0.3-0.1,0.4h-8.1c0.1,1.3,0.4,2.4,1,3.2s1.4,1.2,2.4,1.2
		c0.7,0,1.3-0.1,1.8-0.3c0.5-0.2,1-0.5,1.6-0.9l0.8,1.3c-0.4,0.2-0.7,0.4-1.1,0.6c-0.3,0.2-0.7,0.3-1,0.4c-0.3,0.1-0.7,0.2-1.1,0.3
		s-0.8,0.1-1.3,0.1c-0.6,0-1.1-0.1-1.7-0.3c-0.6-0.2-1.1-0.6-1.6-1.1s-0.9-1.2-1.2-2c-0.3-0.8-0.5-1.8-0.5-3c0-1,0.1-1.9,0.4-2.6
		c0.3-0.8,0.6-1.4,1.1-2c0.5-0.5,1-1,1.6-1.3c0.6-0.3,1.3-0.4,2-0.4c0.8,0,1.5,0.1,2.1,0.4c0.6,0.3,1.1,0.7,1.6,1.3s0.7,1.2,0.9,1.9
		S62.3,394.3,62.3,395.1z M60.7,394.7c-0.1-1.2-0.4-2.2-0.9-2.9s-1.3-1.1-2.4-1.1c-0.9,0-1.7,0.3-2.3,1c-0.6,0.7-0.9,1.7-1,3.1H60.7
		z"/>
	<path id="XMLID_345_" class="st3" d="M73,398.4c0,0.6-0.1,1.1-0.4,1.6c-0.2,0.4-0.6,0.8-0.9,1.1c-0.4,0.3-0.8,0.5-1.3,0.6
		c-0.5,0.1-1,0.2-1.6,0.2c-0.8,0-1.6-0.1-2.4-0.4c-0.7-0.3-1.4-0.7-2-1.1l1-1.3c0.5,0.4,1,0.8,1.6,1s1.1,0.4,1.8,0.4
		c0.8,0,1.5-0.2,1.9-0.5c0.4-0.3,0.6-0.8,0.6-1.4c0-0.2-0.1-0.5-0.2-0.7c-0.1-0.2-0.3-0.4-0.5-0.6c-0.2-0.2-0.5-0.4-0.9-0.6
		c-0.4-0.2-0.8-0.4-1.4-0.6c-0.6-0.3-1.1-0.5-1.6-0.8c-0.4-0.2-0.8-0.5-1.1-0.8c-0.3-0.3-0.5-0.6-0.6-0.9c-0.1-0.4-0.2-0.8-0.2-1.3
		c0-0.5,0.1-0.9,0.3-1.3c0.2-0.4,0.5-0.7,0.8-1c0.3-0.3,0.7-0.5,1.2-0.6c0.5-0.1,1-0.2,1.5-0.2c0.8,0,1.6,0.1,2.2,0.4
		s1.2,0.6,1.7,0.9l-1,1.3c-0.5-0.4-1-0.7-1.4-0.8c-0.5-0.2-1-0.3-1.7-0.3s-1.2,0.1-1.5,0.4c-0.4,0.3-0.5,0.6-0.5,1.1
		c0,0.3,0,0.5,0.1,0.7c0.1,0.2,0.2,0.4,0.4,0.5c0.2,0.2,0.5,0.4,0.8,0.5c0.4,0.2,0.8,0.4,1.3,0.6c0.6,0.3,1.1,0.5,1.5,0.7
		s0.8,0.5,1.2,0.8c0.3,0.3,0.6,0.6,0.7,1C72.9,397.4,73,397.9,73,398.4z"/>
	<path id="XMLID_343_" class="st3" d="M80.2,394.5c0,1.1-0.1,2.2-0.4,3.1c-0.3,1-0.6,1.8-1.1,2.6c-0.4,0.8-0.9,1.5-1.5,2.2
		c-0.6,0.7-1.2,1.3-1.7,1.8l-0.8-0.7c1.1-1.1,2-2.4,2.7-3.9c0.7-1.4,1-3.1,1-5c0-1-0.1-1.9-0.3-2.7c-0.2-0.8-0.4-1.6-0.8-2.4
		c-0.3-0.7-0.7-1.4-1.2-2s-1-1.2-1.5-1.8l0.8-0.7c0.6,0.5,1.2,1.2,1.7,1.8s1.1,1.4,1.5,2.2c0.4,0.8,0.8,1.7,1.1,2.6
		C80.1,392.4,80.2,393.4,80.2,394.5z"/>
	<path id="XMLID_340_" class="st3" d="M99.8,395.4c0,1-0.1,2-0.4,2.8c-0.3,0.8-0.7,1.5-1.1,2c-0.5,0.6-1.1,1-1.7,1.3
		c-0.7,0.3-1.4,0.4-2.1,0.4c-0.8,0-1.5-0.1-2.1-0.4c-0.6-0.3-1.2-0.7-1.7-1.2s-0.8-1.2-1.1-2c-0.3-0.8-0.4-1.7-0.4-2.8
		s0.1-2,0.4-2.8c0.3-0.8,0.7-1.5,1.1-2s1.1-0.9,1.7-1.2c0.7-0.3,1.4-0.4,2.1-0.4c0.8,0,1.5,0.1,2.1,0.4s1.2,0.7,1.7,1.2
		s0.8,1.2,1.1,2C99.6,393.4,99.8,394.4,99.8,395.4z M98,395.5c0-1.6-0.3-2.8-1-3.7c-0.7-0.8-1.5-1.2-2.6-1.2s-1.9,0.4-2.6,1.2
		c-0.6,0.8-1,2-1,3.7c0,1.6,0.3,2.9,1,3.7c0.6,0.8,1.5,1.2,2.6,1.2s1.9-0.4,2.6-1.2C97.7,398.3,98,397.1,98,395.5z"/>
	<path id="XMLID_338_" class="st3" d="M106.5,386.2c-0.4,0-0.7,0.1-0.9,0.3c-0.2,0.2-0.4,0.5-0.4,1v1.8h2.4v1.5h-2.4v10.8h-1.8
		v-10.8h-1.7v-1.5h1.7v-1.7c0-1.1,0.3-1.9,0.8-2.3c0.5-0.5,1.2-0.7,2.1-0.7c0.4,0,0.7,0,0.9,0c0.2,0,0.4,0.1,0.7,0.2v1.7
		C107.6,386.3,107.1,386.2,106.5,386.2z"/>
	<path id="XMLID_335_" class="st3" d="M129.1,393.3c0,1.5-0.2,2.7-0.6,3.8s-0.9,1.9-1.6,2.6c-0.7,0.7-1.5,1.2-2.5,1.5
		c-1,0.3-2,0.5-3.1,0.5h-4v-16.4h4.3c1.1,0,2.1,0.2,3,0.5c0.9,0.3,1.7,0.8,2.4,1.5c0.7,0.7,1.2,1.5,1.6,2.5
		C128.9,390.7,129.1,391.9,129.1,393.3z M127.2,393.4c0-2.1-0.5-3.7-1.5-4.8s-2.4-1.7-4.3-1.7h-2.4V400h2.4c0.9,0,1.7-0.1,2.4-0.4
		c0.7-0.2,1.3-0.6,1.8-1.2s0.9-1.2,1.1-2C127.1,395.6,127.2,394.6,127.2,393.4z"/>
	<path id="XMLID_332_" class="st3" d="M142.5,395.4c0,1-0.1,2-0.4,2.8c-0.3,0.8-0.7,1.5-1.1,2c-0.5,0.6-1.1,1-1.7,1.3
		c-0.7,0.3-1.4,0.4-2.1,0.4c-0.8,0-1.5-0.1-2.1-0.4c-0.6-0.3-1.2-0.7-1.7-1.2s-0.8-1.2-1.1-2c-0.3-0.8-0.4-1.7-0.4-2.8
		s0.1-2,0.4-2.8c0.3-0.8,0.7-1.5,1.1-2s1.1-0.9,1.7-1.2c0.7-0.3,1.4-0.4,2.1-0.4c0.8,0,1.5,0.1,2.1,0.4s1.2,0.7,1.7,1.2
		s0.8,1.2,1.1,2C142.4,393.4,142.5,394.4,142.5,395.4z M140.7,395.5c0-1.6-0.3-2.8-1-3.7c-0.7-0.8-1.5-1.2-2.6-1.2s-1.9,0.4-2.6,1.2
		c-0.6,0.8-1,2-1,3.7c0,1.6,0.3,2.9,1,3.7c0.6,0.8,1.5,1.2,2.6,1.2s1.9-0.4,2.6-1.2C140.4,398.3,140.7,397.1,140.7,395.5z"/>
	<path id="XMLID_330_" class="st3" d="M153.1,398.4c0,0.6-0.1,1.1-0.4,1.6c-0.2,0.4-0.6,0.8-0.9,1.1c-0.4,0.3-0.8,0.5-1.3,0.6
		c-0.5,0.1-1,0.2-1.6,0.2c-0.8,0-1.6-0.1-2.4-0.4c-0.7-0.3-1.4-0.7-2-1.1l1-1.3c0.5,0.4,1,0.8,1.6,1s1.1,0.4,1.8,0.4
		c0.8,0,1.5-0.2,1.9-0.5c0.4-0.3,0.6-0.8,0.6-1.4c0-0.2-0.1-0.5-0.2-0.7c-0.1-0.2-0.3-0.4-0.5-0.6c-0.2-0.2-0.5-0.4-0.9-0.6
		c-0.4-0.2-0.8-0.4-1.4-0.6c-0.6-0.3-1.1-0.5-1.6-0.8c-0.4-0.2-0.8-0.5-1.1-0.8c-0.3-0.3-0.5-0.6-0.6-0.9c-0.1-0.4-0.2-0.8-0.2-1.3
		c0-0.5,0.1-0.9,0.3-1.3c0.2-0.4,0.5-0.7,0.8-1c0.3-0.3,0.7-0.5,1.2-0.6c0.5-0.1,1-0.2,1.5-0.2c0.8,0,1.6,0.1,2.2,0.4
		s1.2,0.6,1.7,0.9l-1,1.3c-0.5-0.4-1-0.7-1.4-0.8c-0.5-0.2-1-0.3-1.7-0.3s-1.2,0.1-1.5,0.4c-0.4,0.3-0.5,0.6-0.5,1.1
		c0,0.3,0,0.5,0.1,0.7c0.1,0.2,0.2,0.4,0.4,0.5c0.2,0.2,0.5,0.4,0.8,0.5c0.4,0.2,0.8,0.4,1.3,0.6c0.6,0.3,1.1,0.5,1.5,0.7
		s0.8,0.5,1.2,0.8c0.3,0.3,0.6,0.6,0.7,1C153,397.4,153.1,397.9,153.1,398.4z"/>
	<path id="XMLID_327_" class="st3" d="M158.6,385.9c0,0.3-0.1,0.6-0.4,0.9c-0.2,0.2-0.5,0.4-0.9,0.4c-0.4,0-0.7-0.1-0.9-0.4
		c-0.3-0.2-0.4-0.5-0.4-0.9c0-0.4,0.1-0.7,0.4-0.9c0.2-0.2,0.6-0.4,0.9-0.4c0.3,0,0.6,0.1,0.9,0.4
		C158.5,385.2,158.6,385.5,158.6,385.9z M156.5,401.6v-12.3h1.8v12.3H156.5z"/>
	<path id="XMLID_325_" class="st3" d="M170,401.6v-7.2c0-1.3-0.2-2.3-0.7-2.9s-1.2-0.9-2.2-0.9c-0.9,0-1.6,0.3-2.2,0.9
		c-0.6,0.6-0.9,1.6-0.9,2.9v7.2h-1.8v-12.3h1.8l0,1.5c0.4-0.5,0.8-0.9,1.4-1.3c0.6-0.3,1.2-0.5,2-0.5c0.7,0,1.3,0.1,1.8,0.3
		c0.5,0.2,1,0.5,1.4,0.9c0.4,0.4,0.7,0.9,0.9,1.6c0.2,0.6,0.3,1.4,0.3,2.3v7.5H170z"/>
	<path id="XMLID_322_" class="st3" d="M184.7,400.5c0,0.9-0.1,1.7-0.3,2.4c-0.2,0.7-0.6,1.3-1.1,1.7s-1.1,0.8-1.9,1.1
		s-1.8,0.4-2.9,0.4l-0.6-1.3c1,0,1.9-0.1,2.5-0.3c0.6-0.2,1.2-0.4,1.5-0.7c0.4-0.3,0.6-0.7,0.8-1.2c0.1-0.5,0.2-1.1,0.2-1.8v-0.6
		c-0.4,0.5-1,0.9-1.5,1.2c-0.6,0.4-1.3,0.5-2.2,0.5c-0.6,0-1.2-0.1-1.7-0.4c-0.5-0.2-1-0.6-1.4-1.1c-0.4-0.5-0.7-1.1-0.9-1.9
		c-0.2-0.8-0.3-1.7-0.3-2.8c0-1.1,0.1-2,0.4-2.9c0.2-0.8,0.6-1.5,1-2.1c0.4-0.6,0.9-1,1.5-1.3c0.6-0.3,1.2-0.4,1.8-0.4
		c0.8,0,1.4,0.1,2,0.4s1,0.7,1.5,1.2v-1.4h1.8V400.5z M183,392.4c-0.3-0.5-0.8-1-1.4-1.3s-1.2-0.5-2-0.5c-1,0-1.8,0.4-2.3,1.3
		c-0.5,0.9-0.7,2.1-0.7,3.8c0,1.6,0.3,2.7,0.8,3.5s1.3,1.2,2.3,1.2c0.7,0,1.3-0.2,1.8-0.5s1-0.8,1.5-1.3V392.4z"/>
	<path id="XMLID_320_" class="st3" d="M196.7,386.9v5.4h4.5v1.7h-4.5v7.6h-1.8v-16.4h9.6v1.7H196.7z"/>
	<path id="XMLID_318_" class="st3" d="M212.2,391.2c-0.3-0.1-0.5-0.3-0.8-0.3c-0.3-0.1-0.6-0.1-1-0.1c-0.9,0-1.5,0.3-2,1
		c-0.5,0.7-0.7,1.6-0.7,2.7v7.2h-1.8v-12.3h1.8v1.5c0.3-0.5,0.7-0.9,1.2-1.3c0.5-0.3,1.1-0.5,1.8-0.5c0.5,0,0.8,0,1.1,0.1
		c0.3,0.1,0.6,0.1,0.8,0.2L212.2,391.2z"/>
	<path id="XMLID_315_" class="st3" d="M224.2,395.1c0,0.2,0,0.4,0,0.5s0,0.3-0.1,0.4H216c0.1,1.3,0.4,2.4,1,3.2s1.4,1.2,2.4,1.2
		c0.7,0,1.3-0.1,1.8-0.3c0.5-0.2,1-0.5,1.6-0.9l0.8,1.3c-0.4,0.2-0.7,0.4-1.1,0.6c-0.3,0.2-0.7,0.3-1,0.4c-0.3,0.1-0.7,0.2-1.1,0.3
		s-0.8,0.1-1.3,0.1c-0.6,0-1.1-0.1-1.7-0.3c-0.6-0.2-1.1-0.6-1.6-1.1s-0.9-1.2-1.2-2c-0.3-0.8-0.5-1.8-0.5-3c0-1,0.1-1.9,0.4-2.6
		c0.3-0.8,0.6-1.4,1.1-2c0.5-0.5,1-1,1.6-1.3c0.6-0.3,1.3-0.4,2-0.4c0.8,0,1.5,0.1,2.1,0.4c0.6,0.3,1.1,0.7,1.6,1.3s0.7,1.2,0.9,1.9
		S224.2,394.3,224.2,395.1z M222.6,394.7c-0.1-1.2-0.4-2.2-0.9-2.9s-1.3-1.1-2.4-1.1c-0.9,0-1.7,0.3-2.3,1c-0.6,0.7-0.9,1.7-1,3.1
		H222.6z"/>
	<path id="XMLID_312_" class="st3" d="M234.9,406.1v-6c-0.4,0.5-1,0.9-1.5,1.2c-0.6,0.4-1.3,0.5-2.2,0.5c-0.6,0-1.2-0.1-1.7-0.4
		c-0.5-0.2-1-0.6-1.4-1.1c-0.4-0.5-0.7-1.1-0.9-1.9c-0.2-0.8-0.3-1.7-0.3-2.8c0-1.1,0.1-2,0.4-2.9c0.2-0.8,0.6-1.5,1-2.1
		c0.4-0.6,0.9-1,1.5-1.3c0.6-0.3,1.2-0.4,1.8-0.4c0.8,0,1.4,0.1,2,0.4s1,0.7,1.5,1.2v-1.4h1.8v15.8L234.9,406.1z M234.9,392.4
		c-0.3-0.5-0.8-1-1.4-1.3s-1.2-0.5-2-0.5c-1,0-1.8,0.4-2.3,1.3c-0.5,0.9-0.7,2.1-0.7,3.8c0,1.6,0.3,2.7,0.8,3.5s1.3,1.2,2.3,1.2
		c0.7,0,1.3-0.2,1.8-0.5s1-0.8,1.5-1.3V392.4z"/>
	<path id="XMLID_310_" class="st3" d="M248.2,401.6v-1.5c-0.4,0.5-0.8,0.9-1.4,1.3c-0.6,0.3-1.2,0.5-2,0.5c-0.7,0-1.2-0.1-1.8-0.3
		c-0.5-0.2-1-0.5-1.4-0.9c-0.4-0.4-0.7-0.9-0.9-1.6c-0.2-0.6-0.3-1.4-0.3-2.3v-7.5h1.8v7.2c0,1.3,0.2,2.3,0.7,2.9s1.2,0.9,2.2,0.9
		c0.9,0,1.6-0.3,2.2-0.9c0.6-0.6,0.9-1.6,0.9-2.9v-7.2h1.8v12.3H248.2z"/>
	<path id="XMLID_307_" class="st3" d="M263.2,395.1c0,0.2,0,0.4,0,0.5s0,0.3-0.1,0.4H255c0.1,1.3,0.4,2.4,1,3.2s1.4,1.2,2.4,1.2
		c0.7,0,1.3-0.1,1.8-0.3c0.5-0.2,1-0.5,1.6-0.9l0.8,1.3c-0.4,0.2-0.7,0.4-1.1,0.6c-0.3,0.2-0.7,0.3-1,0.4c-0.3,0.1-0.7,0.2-1.1,0.3
		s-0.8,0.1-1.3,0.1c-0.6,0-1.1-0.1-1.7-0.3c-0.6-0.2-1.1-0.6-1.6-1.1s-0.9-1.2-1.2-2c-0.3-0.8-0.5-1.8-0.5-3c0-1,0.1-1.9,0.4-2.6
		c0.3-0.8,0.6-1.4,1.1-2c0.5-0.5,1-1,1.6-1.3c0.6-0.3,1.3-0.4,2-0.4c0.8,0,1.5,0.1,2.1,0.4c0.6,0.3,1.1,0.7,1.6,1.3s0.7,1.2,0.9,1.9
		S263.2,394.3,263.2,395.1z M261.6,394.7c-0.1-1.2-0.4-2.2-0.9-2.9s-1.3-1.1-2.4-1.1c-0.9,0-1.7,0.3-2.3,1c-0.6,0.7-0.9,1.7-1,3.1
		H261.6z"/>
	<path id="XMLID_305_" class="st3" d="M274.2,401.6v-7.2c0-1.3-0.2-2.3-0.7-2.9s-1.2-0.9-2.2-0.9c-0.9,0-1.6,0.3-2.2,0.9
		c-0.6,0.6-0.9,1.6-0.9,2.9v7.2h-1.8v-12.3h1.8l0,1.5c0.4-0.5,0.8-0.9,1.4-1.3c0.6-0.3,1.2-0.5,2-0.5c0.7,0,1.3,0.1,1.8,0.3
		c0.5,0.2,1,0.5,1.4,0.9c0.4,0.4,0.7,0.9,0.9,1.6c0.2,0.6,0.3,1.4,0.3,2.3v7.5H274.2z"/>
	<path id="XMLID_303_" class="st3" d="M287.2,391.8c-0.5-0.4-0.9-0.7-1.3-0.9c-0.4-0.2-1-0.3-1.6-0.3c-0.5,0-0.9,0.1-1.3,0.3
		c-0.4,0.2-0.8,0.5-1.1,0.9c-0.3,0.4-0.5,0.9-0.7,1.5c-0.2,0.6-0.3,1.3-0.3,2c0,1.5,0.3,2.7,0.9,3.6c0.6,0.9,1.5,1.4,2.5,1.4
		c0.6,0,1.1-0.1,1.5-0.4s0.9-0.6,1.3-1l1.1,1.1c-0.5,0.5-1.1,0.9-1.7,1.2c-0.6,0.3-1.4,0.5-2.2,0.5c-0.7,0-1.3-0.1-1.9-0.4
		c-0.6-0.3-1.2-0.7-1.6-1.2c-0.5-0.5-0.9-1.2-1.1-2c-0.3-0.8-0.4-1.7-0.4-2.8c0-1.1,0.2-2.1,0.5-2.9c0.3-0.8,0.7-1.5,1.2-2
		s1.1-0.9,1.7-1.2c0.6-0.2,1.3-0.4,1.9-0.4c0.8,0,1.6,0.1,2.2,0.4c0.6,0.3,1.2,0.6,1.7,1L287.2,391.8z"/>
	<path id="XMLID_301_" class="st3" d="M294.6,406h-1.8l1.7-4.5l-4.4-12.1h1.8l3,8.9l0.4,1.3l0.4-1.2l3-8.9h1.8L294.6,406z"/>
	<path id="XMLID_298_" class="st3" d="M320.4,401.6l-1.4-4.2h-6.8l-1.4,4.2h-1.9l5.7-16.4h2l5.7,16.4H320.4z M316.6,390.4
		c-0.1-0.3-0.2-0.6-0.3-0.9c-0.1-0.3-0.2-0.6-0.3-0.9c-0.1-0.3-0.2-0.6-0.2-0.8c-0.1-0.3-0.1-0.5-0.2-0.6c0,0.2-0.1,0.4-0.2,0.6
		c-0.1,0.3-0.2,0.5-0.2,0.8c-0.1,0.3-0.2,0.6-0.3,0.9c-0.1,0.3-0.2,0.6-0.3,0.9l-1.8,5.3h5.6L316.6,390.4z"/>
	<path id="XMLID_296_" class="st3" d="M333.2,401.6v-7.2c0-1.3-0.2-2.3-0.7-2.9s-1.2-0.9-2.2-0.9c-0.9,0-1.6,0.3-2.2,0.9
		c-0.6,0.6-0.9,1.6-0.9,2.9v7.2h-1.8v-12.3h1.8l0,1.5c0.4-0.5,0.8-0.9,1.4-1.3c0.6-0.3,1.2-0.5,2-0.5c0.7,0,1.3,0.1,1.8,0.3
		c0.5,0.2,1,0.5,1.4,0.9c0.4,0.4,0.7,0.9,0.9,1.6c0.2,0.6,0.3,1.4,0.3,2.3v7.5H333.2z"/>
	<path id="XMLID_293_" class="st3" d="M345.8,401.6v-1.5c-0.4,0.5-1,0.9-1.6,1.2c-0.6,0.4-1.4,0.5-2.3,0.5c-0.5,0-1-0.1-1.4-0.2
		c-0.5-0.1-0.9-0.4-1.3-0.7c-0.4-0.3-0.7-0.7-0.9-1.2c-0.2-0.5-0.3-1.1-0.3-1.9c0-0.7,0.1-1.3,0.4-1.8c0.3-0.5,0.6-0.9,1-1.2
		c0.4-0.3,0.9-0.6,1.5-0.7s1.2-0.2,1.8-0.2c0.6,0,1.2,0.1,1.7,0.2c0.5,0.1,1,0.3,1.3,0.5v-1.4c0-1.8-0.9-2.7-2.7-2.7
		c-0.7,0-1.2,0.1-1.8,0.2c-0.5,0.2-1.1,0.4-1.5,0.7l-0.7-1.4c0.5-0.3,1.2-0.5,1.9-0.7c0.7-0.2,1.5-0.3,2.2-0.3
		c1.3,0,2.4,0.3,3.1,0.9c0.8,0.6,1.2,1.6,1.2,3.1v8.6H345.8z M345.8,396.1c-0.4-0.2-0.8-0.4-1.3-0.5c-0.5-0.1-1.1-0.2-1.8-0.2
		c-0.9,0-1.6,0.2-2.1,0.6c-0.5,0.4-0.8,1-0.8,1.8c0,0.9,0.2,1.6,0.7,2c0.5,0.4,1.1,0.6,1.8,0.6c0.8,0,1.5-0.2,2.1-0.5
		c0.6-0.4,1.1-0.8,1.4-1.3V396.1z"/>
	<path id="XMLID_291_" class="st3" d="M351.5,401.6v-16.1l1.8-1v17.1H351.5z"/>
	<path id="XMLID_289_" class="st3" d="M360.7,406h-1.8l1.7-4.5l-4.4-12.1h1.8l3,8.9l0.4,1.3l0.4-1.2l3-8.9h1.8L360.7,406z"/>
	<path id="XMLID_287_" class="st3" d="M376.8,398.4c0,0.6-0.1,1.1-0.4,1.6c-0.2,0.4-0.6,0.8-0.9,1.1c-0.4,0.3-0.8,0.5-1.3,0.6
		c-0.5,0.1-1,0.2-1.6,0.2c-0.8,0-1.6-0.1-2.4-0.4c-0.7-0.3-1.4-0.7-2-1.1l1-1.3c0.5,0.4,1,0.8,1.6,1s1.1,0.4,1.8,0.4
		c0.8,0,1.5-0.2,1.9-0.5c0.4-0.3,0.6-0.8,0.6-1.4c0-0.2-0.1-0.5-0.2-0.7c-0.1-0.2-0.3-0.4-0.5-0.6c-0.2-0.2-0.5-0.4-0.9-0.6
		c-0.4-0.2-0.8-0.4-1.4-0.6c-0.6-0.3-1.1-0.5-1.6-0.8c-0.4-0.2-0.8-0.5-1.1-0.8c-0.3-0.3-0.5-0.6-0.6-0.9c-0.1-0.4-0.2-0.8-0.2-1.3
		c0-0.5,0.1-0.9,0.3-1.3c0.2-0.4,0.5-0.7,0.8-1c0.3-0.3,0.7-0.5,1.2-0.6c0.5-0.1,1-0.2,1.5-0.2c0.8,0,1.6,0.1,2.2,0.4
		s1.2,0.6,1.7,0.9l-1,1.3c-0.5-0.4-1-0.7-1.4-0.8c-0.5-0.2-1-0.3-1.7-0.3s-1.2,0.1-1.5,0.4c-0.4,0.3-0.5,0.6-0.5,1.1
		c0,0.3,0,0.5,0.1,0.7c0.1,0.2,0.2,0.4,0.4,0.5c0.2,0.2,0.5,0.4,0.8,0.5c0.4,0.2,0.8,0.4,1.3,0.6c0.6,0.3,1.1,0.5,1.5,0.7
		s0.8,0.5,1.2,0.8c0.3,0.3,0.6,0.6,0.7,1C376.7,397.4,376.8,397.9,376.8,398.4z"/>
	<path id="XMLID_284_" class="st3" d="M382.4,385.9c0,0.3-0.1,0.6-0.4,0.9c-0.2,0.2-0.5,0.4-0.9,0.4c-0.4,0-0.7-0.1-0.9-0.4
		c-0.3-0.2-0.4-0.5-0.4-0.9c0-0.4,0.1-0.7,0.4-0.9c0.2-0.2,0.6-0.4,0.9-0.4c0.3,0,0.6,0.1,0.9,0.4
		C382.3,385.2,382.4,385.5,382.4,385.9z M380.2,401.6v-12.3h1.8v12.3H380.2z"/>
	<path id="XMLID_282_" class="st3" d="M393.6,398.4c0,0.6-0.1,1.1-0.4,1.6c-0.2,0.4-0.6,0.8-0.9,1.1c-0.4,0.3-0.8,0.5-1.3,0.6
		c-0.5,0.1-1,0.2-1.6,0.2c-0.8,0-1.6-0.1-2.4-0.4c-0.7-0.3-1.4-0.7-2-1.1l1-1.3c0.5,0.4,1,0.8,1.6,1s1.1,0.4,1.8,0.4
		c0.8,0,1.5-0.2,1.9-0.5c0.4-0.3,0.6-0.8,0.6-1.4c0-0.2-0.1-0.5-0.2-0.7c-0.1-0.2-0.3-0.4-0.5-0.6c-0.2-0.2-0.5-0.4-0.9-0.6
		c-0.4-0.2-0.8-0.4-1.4-0.6c-0.6-0.3-1.1-0.5-1.6-0.8c-0.4-0.2-0.8-0.5-1.1-0.8c-0.3-0.3-0.5-0.6-0.6-0.9c-0.1-0.4-0.2-0.8-0.2-1.3
		c0-0.5,0.1-0.9,0.3-1.3c0.2-0.4,0.5-0.7,0.8-1c0.3-0.3,0.7-0.5,1.2-0.6c0.5-0.1,1-0.2,1.5-0.2c0.8,0,1.6,0.1,2.2,0.4
		s1.2,0.6,1.7,0.9l-1,1.3c-0.5-0.4-1-0.7-1.4-0.8c-0.5-0.2-1-0.3-1.7-0.3s-1.2,0.1-1.5,0.4c-0.4,0.3-0.5,0.6-0.5,1.1
		c0,0.3,0,0.5,0.1,0.7c0.1,0.2,0.2,0.4,0.4,0.5c0.2,0.2,0.5,0.4,0.8,0.5c0.4,0.2,0.8,0.4,1.3,0.6c0.6,0.3,1.1,0.5,1.5,0.7
		s0.8,0.5,1.2,0.8c0.3,0.3,0.6,0.6,0.7,1C393.5,397.4,393.6,397.9,393.6,398.4z"/>
</g>
<g id="XMLID_214_">
	<path id="XMLID_278_" class="st3" d="M11.6,423.5c0,1-0.1,2-0.4,2.8c-0.3,0.8-0.7,1.5-1.1,2c-0.5,0.6-1.1,1-1.7,1.3
		c-0.7,0.3-1.4,0.4-2.1,0.4c-0.8,0-1.5-0.1-2.1-0.4c-0.6-0.3-1.2-0.7-1.7-1.2s-0.8-1.2-1.1-2c-0.3-0.8-0.4-1.7-0.4-2.8
		s0.1-2,0.4-2.8c0.3-0.8,0.7-1.5,1.1-2s1.1-0.9,1.7-1.2c0.7-0.3,1.4-0.4,2.1-0.4c0.8,0,1.5,0.1,2.1,0.4s1.2,0.7,1.7,1.2
		s0.8,1.2,1.1,2C11.4,421.5,11.6,422.4,11.6,423.5z M9.8,423.5c0-1.6-0.3-2.8-1-3.7c-0.7-0.8-1.5-1.2-2.6-1.2s-1.9,0.4-2.6,1.2
		c-0.6,0.8-1,2-1,3.7c0,1.6,0.3,2.9,1,3.7c0.6,0.8,1.5,1.2,2.6,1.2s1.9-0.4,2.6-1.2C9.4,426.4,9.8,425.2,9.8,423.5z"/>
	<path id="XMLID_276_" class="st3" d="M18.3,414.3c-0.4,0-0.7,0.1-0.9,0.3c-0.2,0.2-0.4,0.5-0.4,1v1.8h2.4v1.5h-2.4v10.8h-1.8v-10.8
		h-1.7v-1.5h1.7v-1.7c0-1.1,0.3-1.9,0.8-2.3c0.5-0.5,1.2-0.7,2.1-0.7c0.4,0,0.7,0,0.9,0c0.2,0,0.4,0.1,0.7,0.2v1.7
		C19.3,414.4,18.9,414.3,18.3,414.3z"/>
	<path id="XMLID_274_" class="st3" d="M34.7,415v14.7h-1.8V415H28v-1.7h11.5v1.7H34.7z"/>
	<path id="XMLID_271_" class="st3" d="M47.2,429.7v-1.5c-0.4,0.5-1,0.9-1.6,1.2c-0.6,0.4-1.4,0.5-2.3,0.5c-0.5,0-1-0.1-1.4-0.2
		c-0.5-0.1-0.9-0.4-1.3-0.7c-0.4-0.3-0.7-0.7-0.9-1.2c-0.2-0.5-0.3-1.1-0.3-1.9c0-0.7,0.1-1.3,0.4-1.8c0.3-0.5,0.6-0.9,1-1.2
		c0.4-0.3,0.9-0.6,1.5-0.7s1.2-0.2,1.8-0.2c0.6,0,1.2,0.1,1.7,0.2c0.5,0.1,1,0.3,1.3,0.5v-1.4c0-1.8-0.9-2.7-2.7-2.7
		c-0.7,0-1.2,0.1-1.8,0.2c-0.5,0.2-1.1,0.4-1.5,0.7l-0.7-1.4c0.5-0.3,1.2-0.5,1.9-0.7c0.7-0.2,1.5-0.3,2.2-0.3
		c1.3,0,2.4,0.3,3.1,0.9c0.8,0.6,1.2,1.6,1.2,3.1v8.6H47.2z M47.2,424.2c-0.4-0.2-0.8-0.4-1.3-0.5c-0.5-0.1-1.1-0.2-1.8-0.2
		c-0.9,0-1.6,0.2-2.1,0.6c-0.5,0.4-0.8,1-0.8,1.8c0,0.9,0.2,1.6,0.7,2c0.5,0.4,1.1,0.6,1.8,0.6c0.8,0,1.5-0.2,2.1-0.5
		c0.6-0.4,1.1-0.8,1.4-1.3V424.2z"/>
	<path id="XMLID_269_" class="st3" d="M59.8,429.7l-3.1-6.5l-2.1,2.9v3.5h-1.8v-16.1l1.8-1v10.6v0.6l0.5-0.7l4-5.7h2l-3.2,4.4
		l3.9,7.9H59.8z"/>
	<path id="XMLID_266_" class="st3" d="M66.8,414c0,0.3-0.1,0.6-0.4,0.9c-0.2,0.2-0.5,0.4-0.9,0.4c-0.4,0-0.7-0.1-0.9-0.4
		c-0.3-0.2-0.4-0.5-0.4-0.9c0-0.4,0.1-0.7,0.4-0.9c0.2-0.2,0.6-0.4,0.9-0.4c0.3,0,0.6,0.1,0.9,0.4C66.7,413.3,66.8,413.6,66.8,414z
		 M64.7,429.7v-12.3h1.8v12.3H64.7z"/>
	<path id="XMLID_264_" class="st3" d="M78.1,429.7v-7.2c0-1.3-0.2-2.3-0.7-2.9s-1.2-0.9-2.2-0.9c-0.9,0-1.6,0.3-2.2,0.9
		c-0.6,0.6-0.9,1.6-0.9,2.9v7.2h-1.8v-12.3h1.8l0,1.5c0.4-0.5,0.8-0.9,1.4-1.3c0.6-0.3,1.2-0.5,2-0.5c0.7,0,1.3,0.1,1.8,0.3
		c0.5,0.2,1,0.5,1.4,0.9c0.4,0.4,0.7,0.9,0.9,1.6c0.2,0.6,0.3,1.4,0.3,2.3v7.5H78.1z"/>
	<path id="XMLID_261_" class="st3" d="M92.9,428.6c0,0.9-0.1,1.7-0.3,2.4c-0.2,0.7-0.6,1.3-1.1,1.7s-1.1,0.8-1.9,1.1
		s-1.8,0.4-2.9,0.4l-0.6-1.3c1,0,1.9-0.1,2.5-0.3c0.6-0.2,1.2-0.4,1.5-0.7c0.4-0.3,0.6-0.7,0.8-1.2c0.1-0.5,0.2-1.1,0.2-1.8v-0.6
		c-0.4,0.5-1,0.9-1.5,1.2c-0.6,0.4-1.3,0.5-2.2,0.5c-0.6,0-1.2-0.1-1.7-0.4c-0.5-0.2-1-0.6-1.4-1.1c-0.4-0.5-0.7-1.1-0.9-1.9
		c-0.2-0.8-0.3-1.7-0.3-2.8c0-1.1,0.1-2,0.4-2.9c0.2-0.8,0.6-1.5,1-2.1c0.4-0.6,0.9-1,1.5-1.3c0.6-0.3,1.2-0.4,1.8-0.4
		c0.8,0,1.4,0.1,2,0.4s1,0.7,1.5,1.2v-1.4h1.8V428.6z M91.1,420.5c-0.3-0.5-0.8-1-1.4-1.3s-1.2-0.5-2-0.5c-1,0-1.8,0.4-2.3,1.3
		c-0.5,0.9-0.7,2.1-0.7,3.8c0,1.6,0.3,2.7,0.8,3.5s1.3,1.2,2.3,1.2c0.7,0,1.3-0.2,1.8-0.5s1-0.8,1.5-1.3V420.5z"/>
	<path id="XMLID_259_" class="st3" d="M97.5,432.5h-1.2l0.4-5.5H99L97.5,432.5z"/>
	<path id="XMLID_256_" class="st3" d="M126.3,418c0,1.3-0.4,2.3-1.1,3.1c-0.7,0.8-1.6,1.3-2.8,1.5l3.6,7.1H124l-3.5-7h-3.9v7h-1.8
		v-16.4h6.5c0.7,0,1.4,0.1,2,0.3c0.6,0.2,1.2,0.5,1.6,0.9c0.5,0.4,0.8,0.9,1.1,1.4C126.2,416.5,126.3,417.2,126.3,418z M124.5,418
		c0-1-0.3-1.8-0.9-2.3c-0.6-0.5-1.4-0.8-2.5-0.8h-4.6v6.1h4.4c1.2,0,2.1-0.3,2.7-0.8S124.5,419,124.5,418z"/>
	<path id="XMLID_253_" class="st3" d="M138.6,423.2c0,0.2,0,0.4,0,0.5s0,0.3-0.1,0.4h-8.1c0.1,1.3,0.4,2.4,1,3.2s1.4,1.2,2.4,1.2
		c0.7,0,1.3-0.1,1.8-0.3c0.5-0.2,1-0.5,1.6-0.9l0.8,1.3c-0.4,0.2-0.7,0.4-1.1,0.6c-0.3,0.2-0.7,0.3-1,0.4c-0.3,0.1-0.7,0.2-1.1,0.3
		s-0.8,0.1-1.3,0.1c-0.6,0-1.1-0.1-1.7-0.3c-0.6-0.2-1.1-0.6-1.6-1.1s-0.9-1.2-1.2-2c-0.3-0.8-0.5-1.8-0.5-3c0-1,0.1-1.9,0.4-2.6
		c0.3-0.8,0.6-1.4,1.1-2c0.5-0.5,1-1,1.6-1.3c0.6-0.3,1.3-0.4,2-0.4c0.8,0,1.5,0.1,2.1,0.4c0.6,0.3,1.1,0.7,1.6,1.3s0.7,1.2,0.9,1.9
		S138.6,422.3,138.6,423.2z M137,422.7c-0.1-1.2-0.4-2.2-0.9-2.9s-1.3-1.1-2.4-1.1c-0.9,0-1.7,0.3-2.3,1c-0.6,0.7-0.9,1.7-1,3.1H137
		z"/>
	<path id="XMLID_250_" class="st3" d="M151.1,428.6c0,0.9-0.1,1.7-0.3,2.4c-0.2,0.7-0.6,1.3-1.1,1.7s-1.1,0.8-1.9,1.1
		s-1.8,0.4-2.9,0.4l-0.6-1.3c1,0,1.9-0.1,2.5-0.3c0.6-0.2,1.2-0.4,1.5-0.7c0.4-0.3,0.6-0.7,0.8-1.2c0.1-0.5,0.2-1.1,0.2-1.8v-0.6
		c-0.4,0.5-1,0.9-1.5,1.2c-0.6,0.4-1.3,0.5-2.2,0.5c-0.6,0-1.2-0.1-1.7-0.4c-0.5-0.2-1-0.6-1.4-1.1c-0.4-0.5-0.7-1.1-0.9-1.9
		c-0.2-0.8-0.3-1.7-0.3-2.8c0-1.1,0.1-2,0.4-2.9c0.2-0.8,0.6-1.5,1-2.1c0.4-0.6,0.9-1,1.5-1.3c0.6-0.3,1.2-0.4,1.8-0.4
		c0.8,0,1.4,0.1,2,0.4s1,0.7,1.5,1.2v-1.4h1.8V428.6z M149.4,420.5c-0.3-0.5-0.8-1-1.4-1.3s-1.2-0.5-2-0.5c-1,0-1.8,0.4-2.3,1.3
		c-0.5,0.9-0.7,2.1-0.7,3.8c0,1.6,0.3,2.7,0.8,3.5s1.3,1.2,2.3,1.2c0.7,0,1.3-0.2,1.8-0.5s1-0.8,1.5-1.3V420.5z"/>
	<path id="XMLID_247_" class="st3" d="M157.3,414c0,0.3-0.1,0.6-0.4,0.9c-0.2,0.2-0.5,0.4-0.9,0.4c-0.4,0-0.7-0.1-0.9-0.4
		c-0.3-0.2-0.4-0.5-0.4-0.9c0-0.4,0.1-0.7,0.4-0.9c0.2-0.2,0.6-0.4,0.9-0.4c0.3,0,0.6,0.1,0.9,0.4
		C157.1,413.3,157.3,413.6,157.3,414z M155.1,429.7v-12.3h1.8v12.3H155.1z"/>
	<path id="XMLID_245_" class="st3" d="M175.1,429.7v-7.2c0-1.4-0.2-2.4-0.7-3c-0.4-0.6-1.1-0.9-2-0.9c-0.8,0-1.5,0.3-2,0.9
		s-0.7,1.6-0.7,2.9v7.2H168v-7.2c0-1.4-0.2-2.4-0.7-3s-1.1-0.9-2-0.9c-0.8,0-1.5,0.3-2,0.9s-0.7,1.6-0.7,2.9v7.2h-1.8v-12.3h1.8
		l0,1.5c0.3-0.5,0.7-1,1.2-1.3s1.1-0.5,1.9-0.5c0.9,0,1.6,0.2,2.1,0.6c0.5,0.4,1,0.9,1.3,1.5c0.2-0.3,0.4-0.6,0.6-0.8
		c0.2-0.3,0.5-0.5,0.8-0.7c0.3-0.2,0.6-0.3,1-0.4c0.4-0.1,0.8-0.2,1.3-0.2c1.3,0,2.2,0.4,3,1.2c0.7,0.8,1.1,2.1,1.1,3.9v7.5H175.1z"
		/>
	<path id="XMLID_242_" class="st3" d="M190.1,423.2c0,0.2,0,0.4,0,0.5s0,0.3-0.1,0.4h-8.1c0.1,1.3,0.4,2.4,1,3.2s1.4,1.2,2.4,1.2
		c0.7,0,1.3-0.1,1.8-0.3c0.5-0.2,1-0.5,1.6-0.9l0.8,1.3c-0.4,0.2-0.7,0.4-1.1,0.6c-0.3,0.2-0.7,0.3-1,0.4c-0.3,0.1-0.7,0.2-1.1,0.3
		s-0.8,0.1-1.3,0.1c-0.6,0-1.1-0.1-1.7-0.3c-0.6-0.2-1.1-0.6-1.6-1.1s-0.9-1.2-1.2-2c-0.3-0.8-0.5-1.8-0.5-3c0-1,0.1-1.9,0.4-2.6
		c0.3-0.8,0.6-1.4,1.1-2c0.5-0.5,1-1,1.6-1.3c0.6-0.3,1.3-0.4,2-0.4c0.8,0,1.5,0.1,2.1,0.4c0.6,0.3,1.1,0.7,1.6,1.3s0.7,1.2,0.9,1.9
		S190.1,422.3,190.1,423.2z M188.4,422.7c-0.1-1.2-0.4-2.2-0.9-2.9s-1.3-1.1-2.4-1.1c-0.9,0-1.7,0.3-2.3,1c-0.6,0.7-0.9,1.7-1,3.1
		H188.4z"/>
	<path id="XMLID_240_" class="st3" d="M201,429.7v-7.2c0-1.3-0.2-2.3-0.7-2.9s-1.2-0.9-2.2-0.9c-0.9,0-1.6,0.3-2.2,0.9
		c-0.6,0.6-0.9,1.6-0.9,2.9v7.2h-1.8v-12.3h1.8l0,1.5c0.4-0.5,0.8-0.9,1.4-1.3c0.6-0.3,1.2-0.5,2-0.5c0.7,0,1.3,0.1,1.8,0.3
		c0.5,0.2,1,0.5,1.4,0.9c0.4,0.4,0.7,0.9,0.9,1.6c0.2,0.6,0.3,1.4,0.3,2.3v7.5H201z"/>
	<path id="XMLID_238_" class="st3" d="M207.3,432.5h-1.2l0.4-5.5h2.4L207.3,432.5z"/>
	<path id="XMLID_235_" class="st3" d="M225.4,429.7v-1.5c-0.4,0.5-1,0.9-1.6,1.2c-0.6,0.4-1.4,0.5-2.3,0.5c-0.5,0-1-0.1-1.4-0.2
		c-0.5-0.1-0.9-0.4-1.3-0.7c-0.4-0.3-0.7-0.7-0.9-1.2c-0.2-0.5-0.3-1.1-0.3-1.9c0-0.7,0.1-1.3,0.4-1.8c0.3-0.5,0.6-0.9,1-1.2
		c0.4-0.3,0.9-0.6,1.5-0.7s1.2-0.2,1.8-0.2c0.6,0,1.2,0.1,1.7,0.2c0.5,0.1,1,0.3,1.3,0.5v-1.4c0-1.8-0.9-2.7-2.7-2.7
		c-0.7,0-1.2,0.1-1.8,0.2c-0.5,0.2-1.1,0.4-1.5,0.7l-0.7-1.4c0.5-0.3,1.2-0.5,1.9-0.7c0.7-0.2,1.5-0.3,2.2-0.3
		c1.3,0,2.4,0.3,3.1,0.9c0.8,0.6,1.2,1.6,1.2,3.1v8.6H225.4z M225.4,424.2c-0.4-0.2-0.8-0.4-1.3-0.5c-0.5-0.1-1.1-0.2-1.8-0.2
		c-0.9,0-1.6,0.2-2.1,0.6c-0.5,0.4-0.8,1-0.8,1.8c0,0.9,0.2,1.6,0.7,2c0.5,0.4,1.1,0.6,1.8,0.6c0.8,0,1.5-0.2,2.1-0.5
		c0.6-0.4,1.1-0.8,1.4-1.3V424.2z"/>
	<path id="XMLID_233_" class="st3" d="M238.6,429.7v-7.2c0-1.3-0.2-2.3-0.7-2.9s-1.2-0.9-2.2-0.9c-0.9,0-1.6,0.3-2.2,0.9
		c-0.6,0.6-0.9,1.6-0.9,2.9v7.2h-1.8v-12.3h1.8l0,1.5c0.4-0.5,0.8-0.9,1.4-1.3c0.6-0.3,1.2-0.5,2-0.5c0.7,0,1.3,0.1,1.8,0.3
		c0.5,0.2,1,0.5,1.4,0.9c0.4,0.4,0.7,0.9,0.9,1.6c0.2,0.6,0.3,1.4,0.3,2.3v7.5H238.6z"/>
	<path id="XMLID_230_" class="st3" d="M251.6,429.7v-1.5c-0.4,0.5-1,0.9-1.5,1.2c-0.6,0.4-1.3,0.5-2.2,0.5c-0.6,0-1.2-0.1-1.7-0.4
		c-0.5-0.2-1-0.6-1.4-1.1c-0.4-0.5-0.7-1.1-0.9-1.9c-0.2-0.8-0.3-1.7-0.3-2.8c0-1.1,0.1-2,0.4-2.9c0.2-0.8,0.6-1.5,1-2.1
		c0.4-0.6,0.9-1,1.5-1.3c0.6-0.3,1.2-0.4,1.8-0.4c0.8,0,1.4,0.1,2,0.4s1,0.7,1.5,1.2v-5.2l1.8-1v17.1H251.6z M251.6,420.5
		c-0.3-0.5-0.8-1-1.4-1.3s-1.2-0.5-2-0.5c-1,0-1.8,0.4-2.3,1.3c-0.5,0.9-0.7,2.1-0.7,3.8c0,1.6,0.3,2.7,0.8,3.5s1.3,1.2,2.3,1.2
		c0.7,0,1.3-0.2,1.8-0.5s1-0.8,1.5-1.3V420.5z"/>
	<path id="XMLID_228_" class="st3" d="M269.2,415v14.7h-1.8V415h-4.8v-1.7H274v1.7H269.2z"/>
	<path id="XMLID_225_" class="st3" d="M279.2,414c0,0.3-0.1,0.6-0.4,0.9c-0.2,0.2-0.5,0.4-0.9,0.4c-0.4,0-0.7-0.1-0.9-0.4
		c-0.3-0.2-0.4-0.5-0.4-0.9c0-0.4,0.1-0.7,0.4-0.9c0.2-0.2,0.6-0.4,0.9-0.4c0.3,0,0.6,0.1,0.9,0.4C279,413.3,279.2,413.6,279.2,414z
		 M277,429.7v-12.3h1.8v12.3H277z"/>
	<path id="XMLID_223_" class="st3" d="M297.1,429.7v-7.2c0-1.4-0.2-2.4-0.7-3c-0.4-0.6-1.1-0.9-2-0.9c-0.8,0-1.5,0.3-2,0.9
		s-0.7,1.6-0.7,2.9v7.2h-1.8v-7.2c0-1.4-0.2-2.4-0.7-3s-1.1-0.9-2-0.9c-0.8,0-1.5,0.3-2,0.9s-0.7,1.6-0.7,2.9v7.2h-1.8v-12.3h1.8
		l0,1.5c0.3-0.5,0.7-1,1.2-1.3s1.1-0.5,1.9-0.5c0.9,0,1.6,0.2,2.1,0.6c0.5,0.4,1,0.9,1.3,1.5c0.2-0.3,0.4-0.6,0.6-0.8
		c0.2-0.3,0.5-0.5,0.8-0.7c0.3-0.2,0.6-0.3,1-0.4c0.4-0.1,0.8-0.2,1.3-0.2c1.3,0,2.2,0.4,3,1.2c0.7,0.8,1.1,2.1,1.1,3.9v7.5H297.1z"
		/>
	<path id="XMLID_220_" class="st3" d="M304.9,414c0,0.3-0.1,0.6-0.4,0.9c-0.2,0.2-0.5,0.4-0.9,0.4c-0.4,0-0.7-0.1-0.9-0.4
		c-0.3-0.2-0.4-0.5-0.4-0.9c0-0.4,0.1-0.7,0.4-0.9c0.2-0.2,0.6-0.4,0.9-0.4c0.3,0,0.6,0.1,0.9,0.4
		C304.7,413.3,304.9,413.6,304.9,414z M302.7,429.7v-12.3h1.8v12.3H302.7z"/>
	<path id="XMLID_218_" class="st3" d="M316.2,429.7v-7.2c0-1.3-0.2-2.3-0.7-2.9s-1.2-0.9-2.2-0.9c-0.9,0-1.6,0.3-2.2,0.9
		c-0.6,0.6-0.9,1.6-0.9,2.9v7.2h-1.8v-12.3h1.8l0,1.5c0.4-0.5,0.8-0.9,1.4-1.3c0.6-0.3,1.2-0.5,2-0.5c0.7,0,1.3,0.1,1.8,0.3
		c0.5,0.2,1,0.5,1.4,0.9c0.4,0.4,0.7,0.9,0.9,1.6c0.2,0.6,0.3,1.4,0.3,2.3v7.5H316.2z"/>
	<path id="XMLID_215_" class="st3" d="M331,428.6c0,0.9-0.1,1.7-0.3,2.4c-0.2,0.7-0.6,1.3-1.1,1.7s-1.1,0.8-1.9,1.1
		s-1.8,0.4-2.9,0.4l-0.6-1.3c1,0,1.9-0.1,2.5-0.3c0.6-0.2,1.2-0.4,1.5-0.7c0.4-0.3,0.6-0.7,0.8-1.2c0.1-0.5,0.2-1.1,0.2-1.8v-0.6
		c-0.4,0.5-1,0.9-1.5,1.2c-0.6,0.4-1.3,0.5-2.2,0.5c-0.6,0-1.2-0.1-1.7-0.4c-0.5-0.2-1-0.6-1.4-1.1c-0.4-0.5-0.7-1.1-0.9-1.9
		c-0.2-0.8-0.3-1.7-0.3-2.8c0-1.1,0.1-2,0.4-2.9c0.2-0.8,0.6-1.5,1-2.1c0.4-0.6,0.9-1,1.5-1.3c0.6-0.3,1.2-0.4,1.8-0.4
		c0.8,0,1.4,0.1,2,0.4s1,0.7,1.5,1.2v-1.4h1.8V428.6z M329.2,420.5c-0.3-0.5-0.8-1-1.4-1.3s-1.2-0.5-2-0.5c-1,0-1.8,0.4-2.3,1.3
		c-0.5,0.9-0.7,2.1-0.7,3.8c0,1.6,0.3,2.7,0.8,3.5s1.3,1.2,2.3,1.2c0.7,0,1.3-0.2,1.8-0.5s1-0.8,1.5-1.3V420.5z"/>
</g>
<g id="XMLID_190_">
	<path id="XMLID_211_" class="st3" d="M12.3,457.8l-1.4-4.2H4.1l-1.4,4.2H0.8l5.7-16.4h2l5.7,16.4H12.3z M8.5,446.6
		c-0.1-0.3-0.2-0.6-0.3-0.9c-0.1-0.3-0.2-0.6-0.3-0.9c-0.1-0.3-0.2-0.6-0.2-0.8c-0.1-0.3-0.1-0.5-0.2-0.6c0,0.2-0.1,0.4-0.2,0.6
		c-0.1,0.3-0.2,0.5-0.2,0.8c-0.1,0.3-0.2,0.6-0.3,0.9c-0.1,0.3-0.2,0.6-0.3,0.9l-1.8,5.3h5.6L8.5,446.6z"/>
	<path id="XMLID_208_" class="st3" d="M24.6,457.8v-1.5c-0.4,0.5-1,0.9-1.5,1.2c-0.6,0.4-1.3,0.5-2.2,0.5c-0.6,0-1.2-0.1-1.7-0.4
		c-0.5-0.2-1-0.6-1.4-1.1c-0.4-0.5-0.7-1.1-0.9-1.9c-0.2-0.8-0.3-1.7-0.3-2.8c0-1.1,0.1-2,0.4-2.9c0.2-0.8,0.6-1.5,1-2.1
		c0.4-0.6,0.9-1,1.5-1.3c0.6-0.3,1.2-0.4,1.8-0.4c0.8,0,1.4,0.1,2,0.4s1,0.7,1.5,1.2v-5.2l1.8-1v17.1H24.6z M24.6,448.6
		c-0.3-0.5-0.8-1-1.4-1.3s-1.2-0.5-2-0.5c-1,0-1.8,0.4-2.3,1.3c-0.5,0.9-0.7,2.1-0.7,3.8c0,1.6,0.3,2.7,0.8,3.5s1.3,1.2,2.3,1.2
		c0.7,0,1.3-0.2,1.8-0.5s1-0.8,1.5-1.3V448.6z"/>
	<path id="XMLID_206_" class="st3" d="M37.9,457.8v-7.2c0-1.3-0.2-2.3-0.7-2.9s-1.2-0.9-2.2-0.9c-0.9,0-1.6,0.3-2.2,0.9
		c-0.6,0.6-0.9,1.6-0.9,2.9v7.2h-1.8v-16.1l1.8-1l0,6.3c0.4-0.5,0.8-0.9,1.4-1.3c0.6-0.3,1.2-0.5,2-0.5c0.7,0,1.3,0.1,1.8,0.3
		c0.5,0.2,1,0.5,1.4,0.9c0.4,0.4,0.7,0.9,0.9,1.6c0.2,0.6,0.3,1.4,0.3,2.3v7.5H37.9z"/>
	<path id="XMLID_203_" class="st3" d="M52.8,451.3c0,0.2,0,0.4,0,0.5s0,0.3-0.1,0.4h-8.1c0.1,1.3,0.4,2.4,1,3.2s1.4,1.2,2.4,1.2
		c0.7,0,1.3-0.1,1.8-0.3c0.5-0.2,1-0.5,1.6-0.9l0.8,1.3c-0.4,0.2-0.7,0.4-1.1,0.6c-0.3,0.2-0.7,0.3-1,0.4c-0.3,0.1-0.7,0.2-1.1,0.3
		s-0.8,0.1-1.3,0.1c-0.6,0-1.1-0.1-1.7-0.3c-0.6-0.2-1.1-0.6-1.6-1.1s-0.9-1.2-1.2-2c-0.3-0.8-0.5-1.8-0.5-3c0-1,0.1-1.9,0.4-2.6
		c0.3-0.8,0.6-1.4,1.1-2c0.5-0.5,1-1,1.6-1.3c0.6-0.3,1.3-0.4,2-0.4c0.8,0,1.5,0.1,2.1,0.4c0.6,0.3,1.1,0.7,1.6,1.3s0.7,1.2,0.9,1.9
		S52.8,450.4,52.8,451.3z M51.2,450.8c-0.1-1.2-0.4-2.2-0.9-2.9s-1.3-1.1-2.4-1.1c-0.9,0-1.7,0.3-2.3,1c-0.6,0.7-0.9,1.7-1,3.1H51.2
		z"/>
	<path id="XMLID_201_" class="st3" d="M62.4,447.3c-0.3-0.1-0.5-0.3-0.8-0.3c-0.3-0.1-0.6-0.1-1-0.1c-0.9,0-1.5,0.3-2,1
		c-0.5,0.7-0.7,1.6-0.7,2.7v7.2h-1.8v-12.3h1.8v1.5c0.3-0.5,0.7-0.9,1.2-1.3c0.5-0.3,1.1-0.5,1.8-0.5c0.5,0,0.8,0,1.1,0.1
		c0.3,0.1,0.6,0.1,0.8,0.2L62.4,447.3z"/>
	<path id="XMLID_198_" class="st3" d="M74.4,451.3c0,0.2,0,0.4,0,0.5s0,0.3-0.1,0.4h-8.1c0.1,1.3,0.4,2.4,1,3.2s1.4,1.2,2.4,1.2
		c0.7,0,1.3-0.1,1.8-0.3c0.5-0.2,1-0.5,1.6-0.9l0.8,1.3c-0.4,0.2-0.7,0.4-1.1,0.6c-0.3,0.2-0.7,0.3-1,0.4c-0.3,0.1-0.7,0.2-1.1,0.3
		s-0.8,0.1-1.3,0.1c-0.6,0-1.1-0.1-1.7-0.3c-0.6-0.2-1.1-0.6-1.6-1.1s-0.9-1.2-1.2-2c-0.3-0.8-0.5-1.8-0.5-3c0-1,0.1-1.9,0.4-2.6
		c0.3-0.8,0.6-1.4,1.1-2c0.5-0.5,1-1,1.6-1.3c0.6-0.3,1.3-0.4,2-0.4c0.8,0,1.5,0.1,2.1,0.4c0.6,0.3,1.1,0.7,1.6,1.3s0.7,1.2,0.9,1.9
		S74.4,450.4,74.4,451.3z M72.8,450.8c-0.1-1.2-0.4-2.2-0.9-2.9s-1.3-1.1-2.4-1.1c-0.9,0-1.7,0.3-2.3,1c-0.6,0.7-0.9,1.7-1,3.1H72.8
		z"/>
	<path id="XMLID_196_" class="st3" d="M85.4,457.8v-7.2c0-1.3-0.2-2.3-0.7-2.9s-1.2-0.9-2.2-0.9c-0.9,0-1.6,0.3-2.2,0.9
		c-0.6,0.6-0.9,1.6-0.9,2.9v7.2h-1.8v-12.3h1.8l0,1.5c0.4-0.5,0.8-0.9,1.4-1.3c0.6-0.3,1.2-0.5,2-0.5c0.7,0,1.3,0.1,1.8,0.3
		c0.5,0.2,1,0.5,1.4,0.9c0.4,0.4,0.7,0.9,0.9,1.6c0.2,0.6,0.3,1.4,0.3,2.3v7.5H85.4z"/>
	<path id="XMLID_194_" class="st3" d="M98.4,448c-0.5-0.4-0.9-0.7-1.3-0.9c-0.4-0.2-1-0.3-1.6-0.3c-0.5,0-0.9,0.1-1.3,0.3
		c-0.4,0.2-0.8,0.5-1.1,0.9c-0.3,0.4-0.5,0.9-0.7,1.5c-0.2,0.6-0.3,1.3-0.3,2c0,1.5,0.3,2.7,0.9,3.6c0.6,0.9,1.5,1.4,2.5,1.4
		c0.6,0,1.1-0.1,1.5-0.4s0.9-0.6,1.3-1l1.1,1.1c-0.5,0.5-1.1,0.9-1.7,1.2c-0.6,0.3-1.4,0.5-2.2,0.5c-0.7,0-1.3-0.1-1.9-0.4
		c-0.6-0.3-1.2-0.7-1.6-1.2c-0.5-0.5-0.9-1.2-1.1-2c-0.3-0.8-0.4-1.7-0.4-2.8c0-1.1,0.2-2.1,0.5-2.9c0.3-0.8,0.7-1.5,1.2-2
		s1.1-0.9,1.7-1.2c0.6-0.2,1.3-0.4,1.9-0.4c0.8,0,1.6,0.1,2.2,0.4c0.6,0.3,1.2,0.6,1.7,1L98.4,448z"/>
	<path id="XMLID_191_" class="st3" d="M111.5,451.3c0,0.2,0,0.4,0,0.5s0,0.3-0.1,0.4h-8.1c0.1,1.3,0.4,2.4,1,3.2s1.4,1.2,2.4,1.2
		c0.7,0,1.3-0.1,1.8-0.3c0.5-0.2,1-0.5,1.6-0.9l0.8,1.3c-0.4,0.2-0.7,0.4-1.1,0.6c-0.3,0.2-0.7,0.3-1,0.4c-0.3,0.1-0.7,0.2-1.1,0.3
		s-0.8,0.1-1.3,0.1c-0.6,0-1.1-0.1-1.7-0.3c-0.6-0.2-1.1-0.6-1.6-1.1s-0.9-1.2-1.2-2c-0.3-0.8-0.5-1.8-0.5-3c0-1,0.1-1.9,0.4-2.6
		c0.3-0.8,0.6-1.4,1.1-2c0.5-0.5,1-1,1.6-1.3c0.6-0.3,1.3-0.4,2-0.4c0.8,0,1.5,0.1,2.1,0.4c0.6,0.3,1.1,0.7,1.6,1.3s0.7,1.2,0.9,1.9
		S111.5,450.4,111.5,451.3z M109.9,450.8c-0.1-1.2-0.4-2.2-0.9-2.9s-1.3-1.1-2.4-1.1c-0.9,0-1.7,0.3-2.3,1c-0.6,0.7-0.9,1.7-1,3.1
		H109.9z"/>
</g>
<line id="XMLID_189_" class="st4" x1="41.1" y1="308.7" x2="418.9" y2="308.7"/>
<line id="XMLID_188_" class="st2" x1="41.1" y1="275" x2="418.9" y2="275"/>
<line id="XMLID_187_" class="st2" x1="41.1" y1="241.3" x2="418.9" y2="241.3"/>
<line id="XMLID_186_" class="st2" x1="41.1" y1="64.7" x2="418.9" y2="64.7"/>
<g id="XMLID_180_">
	<path id="XMLID_184_" class="st5" d="M27.4,310.5c0,0.5-0.1,0.9-0.2,1.3c-0.2,0.4-0.4,0.7-0.7,0.9c-0.3,0.2-0.6,0.4-1,0.5
		s-0.8,0.2-1.3,0.2c-0.5,0-1-0.1-1.5-0.2s-0.9-0.3-1.4-0.6l0.6-1c0.4,0.2,0.7,0.3,1.1,0.5c0.4,0.1,0.8,0.2,1.2,0.2
		c0.6,0,1.1-0.1,1.5-0.4c0.3-0.3,0.5-0.7,0.5-1.2c0-0.5-0.1-0.9-0.4-1.1c-0.3-0.2-0.7-0.4-1.2-0.4c-0.4,0-0.6,0-0.9,0.1
		c-0.2,0.1-0.5,0.2-0.7,0.4l-1.3-0.5l0.3-4h5v1.2H23l-0.2,2.1c0.2-0.1,0.5-0.2,0.8-0.3c0.3-0.1,0.6-0.1,1-0.1c0.5,0,0.9,0.1,1.2,0.2
		c0.4,0.1,0.6,0.3,0.9,0.5c0.2,0.2,0.4,0.5,0.5,0.8C27.4,309.8,27.4,310.2,27.4,310.5z"/>
	<path id="XMLID_181_" class="st5" d="M35.3,309.2c0,0.6-0.1,1.2-0.2,1.7c-0.1,0.5-0.3,1-0.6,1.3c-0.3,0.4-0.6,0.7-1,0.9
		c-0.4,0.2-0.9,0.3-1.4,0.3s-1-0.1-1.4-0.3c-0.4-0.2-0.7-0.5-1-0.9c-0.3-0.4-0.5-0.8-0.6-1.3c-0.1-0.5-0.2-1.1-0.2-1.7
		c0-0.6,0.1-1.2,0.2-1.7c0.1-0.5,0.3-1,0.6-1.3c0.3-0.4,0.6-0.7,1-0.9c0.4-0.2,0.9-0.3,1.4-0.3s1,0.1,1.4,0.3c0.4,0.2,0.7,0.5,1,0.9
		c0.3,0.4,0.5,0.8,0.6,1.3S35.3,308.6,35.3,309.2z M34,309.2c0-0.4,0-0.8-0.1-1.2s-0.2-0.7-0.4-1c-0.2-0.3-0.4-0.5-0.6-0.6
		c-0.3-0.2-0.6-0.2-0.9-0.2c-0.4,0-0.7,0.1-0.9,0.2c-0.2,0.2-0.5,0.4-0.6,0.6c-0.2,0.3-0.3,0.6-0.3,1s-0.1,0.8-0.1,1.2
		s0,0.8,0.1,1.2c0.1,0.4,0.2,0.7,0.4,1c0.2,0.3,0.4,0.5,0.6,0.6c0.3,0.2,0.6,0.2,0.9,0.2c0.4,0,0.7-0.1,0.9-0.2
		c0.2-0.2,0.5-0.4,0.6-0.6c0.2-0.3,0.3-0.6,0.3-1C34,310.1,34,309.7,34,309.2z"/>
</g>
<g id="XMLID_171_">
	<path id="XMLID_178_" class="st5" d="M18.1,69.8v-6.3h-1.5v-0.9c0.4,0,0.8-0.1,1.1-0.3c0.3-0.2,0.5-0.4,0.6-0.8h1v8.2H18.1z"/>
	<path id="XMLID_175_" class="st5" d="M27.5,65.7c0,0.6-0.1,1.2-0.2,1.7s-0.3,1-0.6,1.3c-0.3,0.4-0.6,0.7-1,0.9S24.8,70,24.3,70
		s-1-0.1-1.4-0.3c-0.4-0.2-0.7-0.5-1-0.9c-0.3-0.4-0.5-0.8-0.6-1.3c-0.1-0.5-0.2-1.1-0.2-1.7c0-0.6,0.1-1.2,0.2-1.7
		c0.1-0.5,0.3-1,0.6-1.3c0.3-0.4,0.6-0.7,1-0.9c0.4-0.2,0.9-0.3,1.4-0.3s1,0.1,1.4,0.3s0.7,0.5,1,0.9c0.3,0.4,0.5,0.8,0.6,1.3
		C27.4,64.5,27.5,65.1,27.5,65.7z M26.3,65.7c0-0.4,0-0.8-0.1-1.2s-0.2-0.7-0.4-1c-0.2-0.3-0.4-0.5-0.6-0.6
		c-0.3-0.2-0.6-0.2-0.9-0.2c-0.4,0-0.7,0.1-0.9,0.2c-0.2,0.2-0.5,0.4-0.6,0.6c-0.2,0.3-0.3,0.6-0.3,1c-0.1,0.4-0.1,0.8-0.1,1.2
		c0,0.4,0,0.8,0.1,1.2c0.1,0.4,0.2,0.7,0.4,1c0.2,0.3,0.4,0.5,0.6,0.6c0.3,0.2,0.6,0.2,0.9,0.2c0.4,0,0.7-0.1,0.9-0.2
		c0.2-0.2,0.5-0.4,0.6-0.6c0.2-0.3,0.3-0.6,0.3-1S26.3,66.2,26.3,65.7z"/>
	<path id="XMLID_172_" class="st5" d="M35.3,65.7c0,0.6-0.1,1.2-0.2,1.7s-0.3,1-0.6,1.3c-0.3,0.4-0.6,0.7-1,0.9S32.5,70,32,70
		s-1-0.1-1.4-0.3c-0.4-0.2-0.7-0.5-1-0.9c-0.3-0.4-0.5-0.8-0.6-1.3c-0.1-0.5-0.2-1.1-0.2-1.7c0-0.6,0.1-1.2,0.2-1.7
		c0.1-0.5,0.3-1,0.6-1.3c0.3-0.4,0.6-0.7,1-0.9c0.4-0.2,0.9-0.3,1.4-0.3s1,0.1,1.4,0.3s0.7,0.5,1,0.9c0.3,0.4,0.5,0.8,0.6,1.3
		C35.2,64.5,35.3,65.1,35.3,65.7z M34,65.7c0-0.4,0-0.8-0.1-1.2s-0.2-0.7-0.4-1c-0.2-0.3-0.4-0.5-0.6-0.6c-0.3-0.2-0.6-0.2-0.9-0.2
		c-0.4,0-0.7,0.1-0.9,0.2c-0.2,0.2-0.5,0.4-0.6,0.6c-0.2,0.3-0.3,0.6-0.3,1c-0.1,0.4-0.1,0.8-0.1,1.2c0,0.4,0,0.8,0.1,1.2
		c0.1,0.4,0.2,0.7,0.4,1c0.2,0.3,0.4,0.5,0.6,0.6c0.3,0.2,0.6,0.2,0.9,0.2c0.4,0,0.7-0.1,0.9-0.2c0.2-0.2,0.5-0.4,0.6-0.6
		c0.2-0.3,0.3-0.6,0.3-1S34,66.2,34,65.7z"/>
</g>
<g id="XMLID_145_">
	<path id="XMLID_168_" class="st5" d="M320.8,20.4c0,0.5-0.1,1-0.2,1.4c-0.1,0.4-0.3,0.7-0.6,1s-0.5,0.5-0.9,0.6
		c-0.3,0.1-0.7,0.2-1.1,0.2c-0.4,0-0.7-0.1-1.1-0.2c-0.3-0.2-0.6-0.4-0.9-0.6s-0.4-0.6-0.6-1c-0.1-0.4-0.2-0.8-0.2-1.3
		c0-0.5,0.1-0.9,0.2-1.3c0.1-0.4,0.3-0.7,0.6-1c0.2-0.3,0.5-0.5,0.9-0.6c0.3-0.1,0.7-0.2,1.1-0.2c0.4,0,0.8,0.1,1.1,0.2
		c0.3,0.2,0.6,0.4,0.9,0.6c0.2,0.3,0.4,0.6,0.6,1C320.7,19.5,320.8,19.9,320.8,20.4z M319.6,20.5c0-0.6-0.1-1.1-0.4-1.5
		c-0.3-0.4-0.7-0.6-1.2-0.6c-0.5,0-0.8,0.2-1.1,0.6c-0.3,0.4-0.4,0.9-0.4,1.5c0,0.7,0.1,1.2,0.4,1.5c0.3,0.4,0.7,0.5,1.1,0.5
		c0.2,0,0.4-0.1,0.6-0.2c0.2-0.1,0.3-0.3,0.5-0.4c0.1-0.2,0.2-0.4,0.3-0.6C319.6,21,319.6,20.7,319.6,20.5z"/>
	<path id="XMLID_165_" class="st5" d="M326,23.5v-3.5c0-0.6-0.1-1.1-0.3-1.3c-0.2-0.2-0.5-0.4-0.9-0.4c-0.4,0-0.7,0.1-0.9,0.4
		c-0.2,0.3-0.3,0.7-0.3,1.2v3.6h-1.2v-6.1h1.2V18c0.2-0.2,0.4-0.4,0.6-0.5c0.3-0.1,0.6-0.2,0.9-0.2c0.7,0,1.3,0.2,1.6,0.7
		s0.6,1.1,0.6,2.1v3.5H326z"/>
	<path id="XMLID_163_" class="st5" d="M332.8,19.1c-0.3-0.3-0.5-0.4-0.7-0.6c-0.2-0.1-0.5-0.2-0.8-0.2c-0.4,0-0.8,0.2-1.1,0.5
		c-0.3,0.4-0.4,0.9-0.4,1.5c0,0.3,0,0.6,0.1,0.8c0.1,0.3,0.2,0.5,0.3,0.7s0.3,0.3,0.5,0.4c0.2,0.1,0.4,0.2,0.6,0.2
		c0.3,0,0.5-0.1,0.7-0.2c0.2-0.1,0.4-0.3,0.7-0.6l0.8,0.8c-0.1,0.2-0.2,0.3-0.4,0.4c-0.1,0.1-0.3,0.3-0.5,0.4
		c-0.2,0.1-0.4,0.2-0.6,0.3c-0.2,0.1-0.5,0.1-0.7,0.1c-0.4,0-0.7-0.1-1-0.2c-0.3-0.2-0.6-0.4-0.8-0.6s-0.4-0.6-0.6-1
		c-0.1-0.4-0.2-0.8-0.2-1.3c0-0.5,0.1-1,0.2-1.4c0.1-0.4,0.3-0.7,0.6-1c0.2-0.3,0.5-0.5,0.8-0.6c0.3-0.1,0.7-0.2,1.1-0.2
		c0.5,0,0.9,0.1,1.2,0.3c0.4,0.2,0.7,0.4,1,0.8L332.8,19.1z"/>
	<path id="XMLID_160_" class="st5" d="M339.8,20.3c0,0.1,0,0.2,0,0.3s0,0.2,0,0.2h-4.1c0,0.3,0.1,0.5,0.2,0.8
		c0.1,0.2,0.2,0.4,0.4,0.5c0.1,0.1,0.3,0.2,0.5,0.3c0.2,0.1,0.4,0.1,0.5,0.1c0.3,0,0.5,0,0.7-0.1c0.2-0.1,0.4-0.2,0.6-0.4l0.7,0.8
		c-0.3,0.3-0.6,0.5-0.9,0.6c-0.3,0.1-0.7,0.2-1.2,0.2c-0.4,0-0.7-0.1-1-0.2c-0.3-0.1-0.6-0.3-0.8-0.6c-0.2-0.3-0.4-0.6-0.6-1
		c-0.1-0.4-0.2-0.8-0.2-1.4c0-0.5,0.1-1,0.2-1.4c0.1-0.4,0.3-0.7,0.5-1c0.2-0.3,0.5-0.5,0.8-0.6c0.3-0.1,0.7-0.2,1.1-0.2
		c0.4,0,0.8,0.1,1.1,0.2c0.3,0.2,0.6,0.4,0.8,0.7s0.4,0.6,0.5,1C339.8,19.5,339.8,19.9,339.8,20.3z M338.6,19.9
		c0-0.2-0.1-0.4-0.1-0.6c-0.1-0.2-0.1-0.4-0.3-0.5c-0.1-0.1-0.3-0.3-0.4-0.3c-0.2-0.1-0.4-0.1-0.6-0.1c-0.4,0-0.7,0.1-1,0.4
		c-0.2,0.3-0.4,0.6-0.4,1.1H338.6z"/>
	<path id="XMLID_157_" class="st5" d="M348.2,23.5v-0.6c-0.2,0.2-0.5,0.4-0.7,0.5c-0.3,0.1-0.5,0.2-0.9,0.2c-0.3,0-0.6-0.1-0.9-0.2
		c-0.3-0.1-0.5-0.3-0.8-0.6c-0.2-0.3-0.4-0.6-0.5-1c-0.1-0.4-0.2-0.9-0.2-1.5c0-0.5,0.1-1,0.2-1.4c0.1-0.4,0.3-0.7,0.5-1
		c0.2-0.3,0.5-0.4,0.8-0.6c0.3-0.1,0.6-0.2,0.9-0.2c0.3,0,0.6,0.1,0.9,0.2c0.3,0.1,0.5,0.3,0.7,0.5v-2.3l1.2-0.6v8.5H348.2z
		 M348.2,19.2c-0.1-0.1-0.2-0.2-0.3-0.3c-0.1-0.1-0.2-0.2-0.3-0.3c-0.1-0.1-0.3-0.1-0.4-0.2c-0.1-0.1-0.3-0.1-0.4-0.1
		c-0.4,0-0.8,0.2-1,0.5c-0.2,0.3-0.3,0.8-0.3,1.5c0,0.8,0.1,1.3,0.4,1.7c0.2,0.3,0.6,0.5,1,0.5c0.3,0,0.6-0.1,0.8-0.2
		c0.2-0.2,0.4-0.3,0.6-0.5V19.2z"/>
	<path id="XMLID_154_" class="st5" d="M354.7,23.5v-0.6c-0.2,0.2-0.5,0.4-0.7,0.5c-0.3,0.1-0.6,0.2-0.9,0.2c-0.3,0-0.5,0-0.8-0.1
		c-0.3-0.1-0.5-0.2-0.7-0.4c-0.2-0.2-0.4-0.4-0.5-0.6c-0.1-0.3-0.2-0.6-0.2-1c0-0.3,0.1-0.6,0.2-0.9c0.1-0.2,0.3-0.5,0.5-0.6
		c0.2-0.2,0.5-0.3,0.8-0.4c0.3-0.1,0.6-0.1,1-0.1c0.6,0,1,0.1,1.4,0.2v-0.5c0-0.3-0.1-0.6-0.3-0.8c-0.2-0.2-0.5-0.3-0.9-0.3
		c-0.3,0-0.6,0-0.9,0.1c-0.3,0.1-0.5,0.2-0.7,0.3l-0.5-0.9c0.3-0.2,0.6-0.3,0.9-0.4s0.7-0.1,1.2-0.1c0.7,0,1.2,0.2,1.7,0.5
		c0.4,0.3,0.6,0.9,0.6,1.5v4.2H354.7z M354.7,20.9c-0.2-0.1-0.4-0.2-0.6-0.2c-0.2,0-0.5-0.1-0.8-0.1c-0.4,0-0.7,0.1-0.9,0.2
		s-0.3,0.4-0.3,0.7c0,0.3,0.1,0.5,0.3,0.7c0.2,0.2,0.5,0.3,0.9,0.3c0.3,0,0.6-0.1,0.9-0.2c0.3-0.2,0.5-0.3,0.6-0.5V20.9z"/>
	<path id="XMLID_151_" class="st5" d="M359,15.8c0,0.2-0.1,0.4-0.2,0.5s-0.3,0.2-0.5,0.2c-0.2,0-0.4-0.1-0.6-0.2s-0.2-0.3-0.2-0.5
		c0-0.2,0.1-0.4,0.2-0.6s0.3-0.2,0.6-0.2c0.2,0,0.4,0.1,0.5,0.2S359,15.6,359,15.8z M357.7,23.5v-6.1h1.2v6.1H357.7z"/>
	<path id="XMLID_148_" class="st5" d="M360.8,23.5v-7.9L362,15v8.5H360.8z"/>
	<path id="XMLID_146_" class="st5" d="M365.9,25.7h-1.3l0.9-2.3l-2.3-6h1.3l1,3c0,0.1,0.1,0.3,0.2,0.5c0.1,0.2,0.1,0.3,0.2,0.5
		c0.1,0.2,0.1,0.3,0.1,0.5c0,0.1,0.1,0.3,0.1,0.3c0-0.1,0.1-0.2,0.1-0.4c0-0.1,0.1-0.3,0.1-0.5c0.1-0.2,0.1-0.3,0.2-0.5
		c0.1-0.2,0.1-0.3,0.2-0.5l1-3h1.3L365.9,25.7z"/>
</g>
<g id="XMLID_119_">
	<path id="XMLID_143_" class="st5" d="M318.9,33.1v7h-1.2v-7h-2.4v-1.2h6v1.2H318.9z"/>
	<path id="XMLID_141_" class="st5" d="M327,40.1h-1l-0.8-3.1c-0.1-0.2-0.1-0.5-0.2-0.7s-0.1-0.4-0.1-0.6c0,0.1-0.1,0.3-0.1,0.6
		c-0.1,0.3-0.1,0.5-0.2,0.7l-0.8,3.1h-1l-1.7-6.1h1.2l0.7,3c0.1,0.2,0.1,0.5,0.2,0.7s0.1,0.5,0.1,0.6c0-0.2,0.1-0.4,0.2-0.6
		c0.1-0.2,0.1-0.5,0.2-0.7l0.8-3h1l0.8,3c0.1,0.2,0.1,0.5,0.2,0.7s0.1,0.4,0.1,0.6c0-0.2,0.1-0.4,0.1-0.6c0-0.3,0.1-0.5,0.2-0.7
		l0.7-3h1.2L327,40.1z"/>
	<path id="XMLID_138_" class="st5" d="M331.5,32.4c0,0.2-0.1,0.4-0.2,0.5s-0.3,0.2-0.5,0.2c-0.2,0-0.4-0.1-0.6-0.2s-0.2-0.3-0.2-0.5
		c0-0.2,0.1-0.4,0.2-0.6s0.3-0.2,0.6-0.2c0.2,0,0.4,0.1,0.5,0.2S331.5,32.1,331.5,32.4z M330.2,40.1v-6.1h1.2v6.1H330.2z"/>
	<path id="XMLID_136_" class="st5" d="M337.1,35.7c-0.3-0.3-0.5-0.4-0.7-0.6c-0.2-0.1-0.5-0.2-0.8-0.2c-0.4,0-0.8,0.2-1.1,0.5
		c-0.3,0.4-0.4,0.9-0.4,1.5c0,0.3,0,0.6,0.1,0.8c0.1,0.3,0.2,0.5,0.3,0.7s0.3,0.3,0.5,0.4c0.2,0.1,0.4,0.2,0.6,0.2
		c0.3,0,0.5-0.1,0.7-0.2c0.2-0.1,0.4-0.3,0.7-0.6l0.8,0.8c-0.1,0.2-0.2,0.3-0.4,0.4c-0.1,0.1-0.3,0.3-0.5,0.4
		c-0.2,0.1-0.4,0.2-0.6,0.3c-0.2,0.1-0.5,0.1-0.7,0.1c-0.4,0-0.7-0.1-1-0.2c-0.3-0.2-0.6-0.4-0.8-0.6s-0.4-0.6-0.6-1
		c-0.1-0.4-0.2-0.8-0.2-1.3c0-0.5,0.1-1,0.2-1.4c0.1-0.4,0.3-0.7,0.6-1c0.2-0.3,0.5-0.5,0.8-0.6c0.3-0.1,0.7-0.2,1.1-0.2
		c0.5,0,0.9,0.1,1.2,0.3c0.4,0.2,0.7,0.4,1,0.8L337.1,35.7z"/>
	<path id="XMLID_133_" class="st5" d="M344.1,36.9c0,0.1,0,0.2,0,0.3s0,0.2,0,0.2H340c0,0.3,0.1,0.5,0.2,0.8
		c0.1,0.2,0.2,0.4,0.4,0.5c0.1,0.1,0.3,0.2,0.5,0.3c0.2,0.1,0.4,0.1,0.5,0.1c0.3,0,0.5,0,0.7-0.1c0.2-0.1,0.4-0.2,0.6-0.4l0.7,0.8
		c-0.3,0.3-0.6,0.5-0.9,0.6c-0.3,0.1-0.7,0.2-1.2,0.2c-0.4,0-0.7-0.1-1-0.2c-0.3-0.1-0.6-0.3-0.8-0.6c-0.2-0.3-0.4-0.6-0.6-1
		c-0.1-0.4-0.2-0.8-0.2-1.4c0-0.5,0.1-1,0.2-1.4c0.1-0.4,0.3-0.7,0.5-1c0.2-0.3,0.5-0.5,0.8-0.6c0.3-0.1,0.7-0.2,1.1-0.2
		c0.4,0,0.8,0.1,1.1,0.2c0.3,0.2,0.6,0.4,0.8,0.7s0.4,0.6,0.5,1C344,36.1,344.1,36.5,344.1,36.9z M342.9,36.4c0-0.2-0.1-0.4-0.1-0.6
		c-0.1-0.2-0.1-0.4-0.3-0.5c-0.1-0.1-0.3-0.3-0.4-0.3c-0.2-0.1-0.4-0.1-0.6-0.1c-0.4,0-0.7,0.1-1,0.4c-0.2,0.3-0.4,0.6-0.4,1.1
		H342.9z"/>
	<path id="XMLID_130_" class="st5" d="M352.4,40.1v-0.6c-0.2,0.2-0.5,0.4-0.7,0.5c-0.3,0.1-0.5,0.2-0.9,0.2c-0.3,0-0.6-0.1-0.9-0.2
		c-0.3-0.1-0.5-0.3-0.8-0.6c-0.2-0.3-0.4-0.6-0.5-1c-0.1-0.4-0.2-0.9-0.2-1.5c0-0.5,0.1-1,0.2-1.4c0.1-0.4,0.3-0.7,0.5-1
		c0.2-0.3,0.5-0.4,0.8-0.6c0.3-0.1,0.6-0.2,0.9-0.2c0.3,0,0.6,0.1,0.9,0.2c0.3,0.1,0.5,0.3,0.7,0.5v-2.3l1.2-0.6v8.5H352.4z
		 M352.5,35.7c-0.1-0.1-0.2-0.2-0.3-0.3c-0.1-0.1-0.2-0.2-0.3-0.3c-0.1-0.1-0.3-0.1-0.4-0.2c-0.1-0.1-0.3-0.1-0.4-0.1
		c-0.4,0-0.8,0.2-1,0.5c-0.2,0.3-0.3,0.8-0.3,1.5c0,0.8,0.1,1.3,0.4,1.7c0.2,0.3,0.6,0.5,1,0.5c0.3,0,0.6-0.1,0.8-0.2
		c0.2-0.2,0.4-0.3,0.6-0.5V35.7z"/>
	<path id="XMLID_127_" class="st5" d="M358.9,40.1v-0.6c-0.2,0.2-0.5,0.4-0.7,0.5c-0.3,0.1-0.6,0.2-0.9,0.2c-0.3,0-0.5,0-0.8-0.1
		c-0.3-0.1-0.5-0.2-0.7-0.4c-0.2-0.2-0.4-0.4-0.5-0.6c-0.1-0.3-0.2-0.6-0.2-1c0-0.3,0.1-0.6,0.2-0.9c0.1-0.2,0.3-0.5,0.5-0.6
		c0.2-0.2,0.5-0.3,0.8-0.4c0.3-0.1,0.6-0.1,1-0.1c0.6,0,1,0.1,1.4,0.2v-0.5c0-0.3-0.1-0.6-0.3-0.8c-0.2-0.2-0.5-0.3-0.9-0.3
		c-0.3,0-0.6,0-0.9,0.1c-0.3,0.1-0.5,0.2-0.7,0.3l-0.5-0.9c0.3-0.2,0.6-0.3,0.9-0.4s0.7-0.1,1.2-0.1c0.7,0,1.2,0.2,1.7,0.5
		c0.4,0.3,0.6,0.9,0.6,1.5v4.2H358.9z M358.9,37.5c-0.2-0.1-0.4-0.2-0.6-0.2c-0.2,0-0.5-0.1-0.8-0.1c-0.4,0-0.7,0.1-0.9,0.2
		s-0.3,0.4-0.3,0.7c0,0.3,0.1,0.5,0.3,0.7c0.2,0.2,0.5,0.3,0.9,0.3c0.3,0,0.6-0.1,0.9-0.2c0.3-0.2,0.5-0.3,0.6-0.5V37.5z"/>
	<path id="XMLID_124_" class="st5" d="M363.3,32.4c0,0.2-0.1,0.4-0.2,0.5s-0.3,0.2-0.5,0.2c-0.2,0-0.4-0.1-0.6-0.2s-0.2-0.3-0.2-0.5
		c0-0.2,0.1-0.4,0.2-0.6s0.3-0.2,0.6-0.2c0.2,0,0.4,0.1,0.5,0.2S363.3,32.1,363.3,32.4z M361.9,40.1v-6.1h1.2v6.1H361.9z"/>
	<path id="XMLID_122_" class="st5" d="M365,40.1v-7.9l1.2-0.6v8.5H365z"/>
	<path id="XMLID_120_" class="st5" d="M370.2,42.2h-1.3l0.9-2.3l-2.3-6h1.3l1,3c0,0.1,0.1,0.3,0.2,0.5c0.1,0.2,0.1,0.3,0.2,0.5
		c0.1,0.2,0.1,0.3,0.1,0.5c0,0.1,0.1,0.3,0.1,0.3c0-0.1,0.1-0.2,0.1-0.4c0-0.1,0.1-0.3,0.1-0.5c0.1-0.2,0.1-0.3,0.2-0.5
		c0.1-0.2,0.1-0.3,0.2-0.5l1-3h1.3L370.2,42.2z"/>
</g>
<g id="XMLID_81_">
	<path id="XMLID_117_" class="st5" d="M318.9,49.9v7h-1.2v-7h-2.4v-1.2h6v1.2H318.9z"/>
	<path id="XMLID_115_" class="st5" d="M326.3,56.9v-3.5c0-0.6-0.1-1.1-0.3-1.3c-0.2-0.2-0.5-0.4-0.9-0.4c-0.4,0-0.7,0.1-0.9,0.4
		c-0.2,0.3-0.3,0.7-0.3,1.2v3.6h-1.2V49l1.2-0.6v3c0.2-0.2,0.4-0.4,0.6-0.5c0.3-0.1,0.6-0.2,0.9-0.2c0.7,0,1.3,0.2,1.6,0.7
		s0.6,1.1,0.6,2.1v3.5H326.3z"/>
	<path id="XMLID_113_" class="st5" d="M332.6,52.1c-0.1-0.1-0.3-0.1-0.4-0.2s-0.3-0.1-0.5-0.1c-0.4,0-0.7,0.1-0.9,0.4
		c-0.2,0.3-0.3,0.7-0.3,1.2v3.5h-1.2v-6.1h1.2v0.6c0.1-0.2,0.3-0.4,0.6-0.5s0.5-0.2,0.8-0.2c0.3,0,0.5,0,0.6,0.1
		c0.2,0,0.3,0.1,0.4,0.2L332.6,52.1z"/>
	<path id="XMLID_110_" class="st5" d="M338.8,53.7c0,0.1,0,0.2,0,0.3s0,0.2,0,0.2h-4.1c0,0.3,0.1,0.5,0.2,0.8
		c0.1,0.2,0.2,0.4,0.4,0.5c0.1,0.1,0.3,0.2,0.5,0.3c0.2,0.1,0.4,0.1,0.5,0.1c0.3,0,0.5,0,0.7-0.1c0.2-0.1,0.4-0.2,0.6-0.4l0.7,0.8
		c-0.3,0.3-0.6,0.5-0.9,0.6c-0.3,0.1-0.7,0.2-1.2,0.2c-0.4,0-0.7-0.1-1-0.2c-0.3-0.1-0.6-0.3-0.8-0.6c-0.2-0.3-0.4-0.6-0.6-1
		c-0.1-0.4-0.2-0.8-0.2-1.4c0-0.5,0.1-1,0.2-1.4c0.1-0.4,0.3-0.7,0.5-1c0.2-0.3,0.5-0.5,0.8-0.6c0.3-0.1,0.7-0.2,1.1-0.2
		c0.4,0,0.8,0.1,1.1,0.2c0.3,0.2,0.6,0.4,0.8,0.7s0.4,0.6,0.5,1C338.8,52.9,338.8,53.3,338.8,53.7z M337.6,53.3
		c0-0.2-0.1-0.4-0.1-0.6c-0.1-0.2-0.1-0.4-0.3-0.5c-0.1-0.1-0.3-0.3-0.4-0.3c-0.2-0.1-0.4-0.1-0.6-0.1c-0.4,0-0.7,0.1-1,0.4
		c-0.2,0.3-0.4,0.6-0.4,1.1H337.6z"/>
	<path id="XMLID_107_" class="st5" d="M345.3,53.7c0,0.1,0,0.2,0,0.3s0,0.2,0,0.2h-4.1c0,0.3,0.1,0.5,0.2,0.8
		c0.1,0.2,0.2,0.4,0.4,0.5c0.1,0.1,0.3,0.2,0.5,0.3c0.2,0.1,0.4,0.1,0.5,0.1c0.3,0,0.5,0,0.7-0.1c0.2-0.1,0.4-0.2,0.6-0.4l0.7,0.8
		c-0.3,0.3-0.6,0.5-0.9,0.6c-0.3,0.1-0.7,0.2-1.2,0.2c-0.4,0-0.7-0.1-1-0.2c-0.3-0.1-0.6-0.3-0.8-0.6c-0.2-0.3-0.4-0.6-0.6-1
		c-0.1-0.4-0.2-0.8-0.2-1.4c0-0.5,0.1-1,0.2-1.4c0.1-0.4,0.3-0.7,0.5-1c0.2-0.3,0.5-0.5,0.8-0.6c0.3-0.1,0.7-0.2,1.1-0.2
		c0.4,0,0.8,0.1,1.1,0.2c0.3,0.2,0.6,0.4,0.8,0.7s0.4,0.6,0.5,1C345.2,52.9,345.3,53.3,345.3,53.7z M344.1,53.3
		c0-0.2-0.1-0.4-0.1-0.6c-0.1-0.2-0.1-0.4-0.3-0.5c-0.1-0.1-0.3-0.3-0.4-0.3c-0.2-0.1-0.4-0.1-0.6-0.1c-0.4,0-0.7,0.1-1,0.4
		c-0.2,0.3-0.4,0.6-0.4,1.1H344.1z"/>
	<path id="XMLID_105_" class="st5" d="M352.9,56.8c-0.1,0.1-0.3,0.2-0.5,0.2c-0.2,0.1-0.4,0.1-0.7,0.1c-0.4,0-0.8-0.1-1-0.4
		c-0.2-0.3-0.4-0.7-0.4-1.2v-3.5h-0.9v-1.1h0.9V49l1.2-0.6v2.4h1.5v1.1h-1.5v3.3c0,0.3,0,0.5,0.1,0.6c0.1,0.1,0.3,0.2,0.5,0.2
		c0.2,0,0.3,0,0.5-0.1c0.2-0.1,0.3-0.1,0.4-0.2L352.9,56.8z"/>
	<path id="XMLID_102_" class="st5" d="M356.1,49.2c0,0.2-0.1,0.4-0.2,0.5s-0.3,0.2-0.5,0.2c-0.2,0-0.4-0.1-0.6-0.2s-0.2-0.3-0.2-0.5
		c0-0.2,0.1-0.4,0.2-0.6s0.3-0.2,0.6-0.2c0.2,0,0.4,0.1,0.5,0.2S356.1,49,356.1,49.2z M354.7,56.9v-6.1h1.2v6.1H354.7z"/>
	<path id="XMLID_100_" class="st5" d="M364.9,56.9v-3.5c0-0.6-0.1-1.1-0.3-1.3c-0.2-0.2-0.5-0.4-0.9-0.4c-0.4,0-0.7,0.1-0.9,0.4
		c-0.2,0.3-0.3,0.7-0.3,1.2v3.6h-1.2v-3.5c0-0.6-0.1-1.1-0.3-1.3c-0.2-0.2-0.5-0.4-0.9-0.4c-0.4,0-0.7,0.1-0.9,0.4
		c-0.2,0.3-0.3,0.7-0.3,1.2v3.6h-1.2v-6.1h1.2v0.6c0.2-0.2,0.4-0.4,0.6-0.5c0.2-0.1,0.5-0.2,0.9-0.2c0.4,0,0.8,0.1,1,0.2
		c0.3,0.2,0.5,0.4,0.6,0.7c0.1-0.1,0.2-0.3,0.3-0.4c0.1-0.1,0.3-0.2,0.4-0.3c0.1-0.1,0.3-0.1,0.5-0.2c0.2,0,0.4-0.1,0.6-0.1
		c0.7,0,1.2,0.2,1.6,0.7c0.3,0.5,0.5,1.1,0.5,2.1v3.5H364.9z"/>
	<path id="XMLID_97_" class="st5" d="M372.8,53.7c0,0.1,0,0.2,0,0.3s0,0.2,0,0.2h-4.1c0,0.3,0.1,0.5,0.2,0.8
		c0.1,0.2,0.2,0.4,0.4,0.5c0.1,0.1,0.3,0.2,0.5,0.3c0.2,0.1,0.4,0.1,0.5,0.1c0.3,0,0.5,0,0.7-0.1c0.2-0.1,0.4-0.2,0.6-0.4l0.7,0.8
		c-0.3,0.3-0.6,0.5-0.9,0.6c-0.3,0.1-0.7,0.2-1.2,0.2c-0.4,0-0.7-0.1-1-0.2c-0.3-0.1-0.6-0.3-0.8-0.6c-0.2-0.3-0.4-0.6-0.6-1
		c-0.1-0.4-0.2-0.8-0.2-1.4c0-0.5,0.1-1,0.2-1.4c0.1-0.4,0.3-0.7,0.5-1c0.2-0.3,0.5-0.5,0.8-0.6c0.3-0.1,0.7-0.2,1.1-0.2
		c0.4,0,0.8,0.1,1.1,0.2c0.3,0.2,0.6,0.4,0.8,0.7s0.4,0.6,0.5,1C372.8,52.9,372.8,53.3,372.8,53.7z M371.6,53.3
		c0-0.2-0.1-0.4-0.1-0.6c-0.1-0.2-0.1-0.4-0.3-0.5c-0.1-0.1-0.3-0.3-0.4-0.3c-0.2-0.1-0.4-0.1-0.6-0.1c-0.4,0-0.7,0.1-1,0.4
		c-0.2,0.3-0.4,0.6-0.4,1.1H371.6z"/>
	<path id="XMLID_95_" class="st5" d="M378.5,55.2c0,0.3-0.1,0.6-0.2,0.9c-0.1,0.2-0.3,0.4-0.5,0.6c-0.2,0.1-0.5,0.2-0.7,0.3
		s-0.6,0.1-0.9,0.1c-0.4,0-0.8-0.1-1.3-0.2c-0.4-0.1-0.8-0.3-1.1-0.6l0.5-0.9c0.3,0.2,0.6,0.4,0.9,0.5c0.3,0.1,0.6,0.2,0.9,0.2
		c0.7,0,1.1-0.2,1.1-0.7c0-0.2-0.1-0.4-0.4-0.6c-0.3-0.1-0.6-0.3-1-0.5c-0.3-0.1-0.6-0.3-0.8-0.4c-0.2-0.1-0.4-0.3-0.6-0.4
		c-0.1-0.1-0.2-0.3-0.3-0.5s-0.1-0.4-0.1-0.6c0-0.3,0-0.5,0.2-0.7s0.2-0.4,0.4-0.5c0.2-0.1,0.4-0.2,0.7-0.3s0.5-0.1,0.8-0.1
		c0.4,0,0.8,0.1,1.1,0.2c0.4,0.1,0.7,0.3,1,0.5l-0.5,0.9c-0.3-0.2-0.5-0.3-0.8-0.4c-0.3-0.1-0.5-0.1-0.8-0.1c-0.3,0-0.5,0.1-0.6,0.2
		s-0.2,0.2-0.2,0.4c0,0.1,0,0.2,0,0.2c0,0.1,0.1,0.1,0.2,0.2c0.1,0.1,0.2,0.1,0.3,0.2c0.1,0.1,0.3,0.2,0.6,0.3
		c0.3,0.1,0.6,0.3,0.9,0.4c0.3,0.1,0.5,0.3,0.7,0.4c0.2,0.2,0.3,0.3,0.4,0.5C378.5,54.7,378.5,54.9,378.5,55.2z"/>
	<path id="XMLID_92_" class="st5" d="M386.9,56.9v-0.6c-0.2,0.2-0.5,0.4-0.7,0.5c-0.3,0.1-0.5,0.2-0.9,0.2c-0.3,0-0.6-0.1-0.9-0.2
		c-0.3-0.1-0.5-0.3-0.8-0.6c-0.2-0.3-0.4-0.6-0.5-1c-0.1-0.4-0.2-0.9-0.2-1.5c0-0.5,0.1-1,0.2-1.4c0.1-0.4,0.3-0.7,0.5-1
		c0.2-0.3,0.5-0.4,0.8-0.6c0.3-0.1,0.6-0.2,0.9-0.2c0.3,0,0.6,0.1,0.9,0.2c0.3,0.1,0.5,0.3,0.7,0.5V49l1.2-0.6v8.5H386.9z
		 M386.9,52.6c-0.1-0.1-0.2-0.2-0.3-0.3c-0.1-0.1-0.2-0.2-0.3-0.3c-0.1-0.1-0.3-0.1-0.4-0.2c-0.1-0.1-0.3-0.1-0.4-0.1
		c-0.4,0-0.8,0.2-1,0.5c-0.2,0.3-0.3,0.8-0.3,1.5c0,0.8,0.1,1.3,0.4,1.7c0.2,0.3,0.6,0.5,1,0.5c0.3,0,0.6-0.1,0.8-0.2
		c0.2-0.2,0.4-0.3,0.6-0.5V52.6z"/>
	<path id="XMLID_89_" class="st5" d="M393.4,56.9v-0.6c-0.2,0.2-0.5,0.4-0.7,0.5c-0.3,0.1-0.6,0.2-0.9,0.2c-0.3,0-0.5,0-0.8-0.1
		c-0.3-0.1-0.5-0.2-0.7-0.4c-0.2-0.2-0.4-0.4-0.5-0.6c-0.1-0.3-0.2-0.6-0.2-1c0-0.3,0.1-0.6,0.2-0.9c0.1-0.2,0.3-0.5,0.5-0.6
		c0.2-0.2,0.5-0.3,0.8-0.4c0.3-0.1,0.6-0.1,1-0.1c0.6,0,1,0.1,1.4,0.2v-0.5c0-0.3-0.1-0.6-0.3-0.8c-0.2-0.2-0.5-0.3-0.9-0.3
		c-0.3,0-0.6,0-0.9,0.1c-0.3,0.1-0.5,0.2-0.7,0.3l-0.5-0.9c0.3-0.2,0.6-0.3,0.9-0.4s0.7-0.1,1.2-0.1c0.7,0,1.2,0.2,1.7,0.5
		c0.4,0.3,0.6,0.9,0.6,1.5v4.2H393.4z M393.4,54.3c-0.2-0.1-0.4-0.2-0.6-0.2c-0.2,0-0.5-0.1-0.8-0.1c-0.4,0-0.7,0.1-0.9,0.2
		s-0.3,0.4-0.3,0.7c0,0.3,0.1,0.5,0.3,0.7c0.2,0.2,0.5,0.3,0.9,0.3c0.3,0,0.6-0.1,0.9-0.2c0.3-0.2,0.5-0.3,0.6-0.5V54.3z"/>
	<path id="XMLID_86_" class="st5" d="M397.7,49.2c0,0.2-0.1,0.4-0.2,0.5S397.2,50,397,50c-0.2,0-0.4-0.1-0.6-0.2s-0.2-0.3-0.2-0.5
		c0-0.2,0.1-0.4,0.2-0.6s0.3-0.2,0.6-0.2c0.2,0,0.4,0.1,0.5,0.2S397.7,49,397.7,49.2z M396.4,56.9v-6.1h1.2v6.1H396.4z"/>
	<path id="XMLID_84_" class="st5" d="M399.5,56.9V49l1.2-0.6v8.5H399.5z"/>
	<path id="XMLID_82_" class="st5" d="M404.6,59.1h-1.3l0.9-2.3l-2.3-6h1.3l1,3c0,0.1,0.1,0.3,0.2,0.5c0.1,0.2,0.1,0.3,0.2,0.5
		c0.1,0.2,0.1,0.3,0.1,0.5c0,0.1,0.1,0.3,0.1,0.3c0-0.1,0.1-0.2,0.1-0.4c0-0.1,0.1-0.3,0.1-0.5c0.1-0.2,0.1-0.3,0.2-0.5
		c0.1-0.2,0.1-0.3,0.2-0.5l1-3h1.3L404.6,59.1z"/>
</g>
<rect id="XMLID_80_" x="77.2" y="76.9" class="st3" width="76.3" height="231.7"/>
<rect id="XMLID_79_" x="181.2" y="96.6" class="st6" width="76.3" height="211.7"/>
<rect id="XMLID_78_" x="286.9" y="105.9" class="st7" width="76.3" height="202.4"/>
<rect id="XMLID_77_" x="302.3" y="14.5" class="st3" width="9.4" height="9.4"/>
<rect id="XMLID_76_" x="302.3" y="31.6" class="st6" width="9.4" height="9.4"/>
<rect id="XMLID_75_" x="302.3" y="47.5" class="st7" width="9.4" height="9.4"/>
<g id="XMLID_64_">
	<path id="XMLID_72_" class="st5" d="M108.3,67.1c0,0.4,0,0.9-0.1,1.4c-0.1,0.5-0.2,0.9-0.4,1.4c-0.2,0.5-0.5,0.9-0.8,1.3
		s-0.7,0.8-1.2,1.1s-1.1,0.6-1.7,0.7c-0.7,0.2-1.4,0.3-2.3,0.3v-1.9c1.1,0,2.1-0.2,2.8-0.6s1.2-1,1.5-1.7c-0.3,0.2-0.6,0.4-1,0.5
		s-0.8,0.1-1.3,0.1c-0.5,0-0.9-0.1-1.4-0.2s-0.8-0.3-1.1-0.6c-0.3-0.3-0.6-0.6-0.7-1c-0.2-0.4-0.3-0.9-0.3-1.4c0-0.5,0.1-1,0.3-1.4
		c0.2-0.4,0.5-0.8,0.9-1.1c0.4-0.3,0.8-0.5,1.3-0.6c0.5-0.1,1-0.2,1.6-0.2c0.5,0,1.1,0.1,1.5,0.2s0.9,0.4,1.2,0.7
		c0.4,0.3,0.6,0.7,0.8,1.2S108.3,66.4,108.3,67.1z M106.2,66.4c0-0.5-0.2-0.8-0.5-1.1c-0.3-0.3-0.8-0.4-1.5-0.4
		c-0.7,0-1.2,0.1-1.5,0.4c-0.4,0.3-0.5,0.6-0.5,1.1c0,0.5,0.2,0.9,0.5,1.1c0.3,0.2,0.8,0.4,1.4,0.4c0.7,0,1.2-0.1,1.5-0.4
		C106.1,67.3,106.2,66.9,106.2,66.4z"/>
	<path id="XMLID_70_" class="st5" d="M117.3,70.1c0,0.5-0.1,1-0.3,1.4c-0.2,0.4-0.5,0.7-0.8,1s-0.8,0.5-1.3,0.6
		c-0.5,0.1-1.1,0.2-1.7,0.2c-0.7,0-1.4-0.1-2.1-0.4s-1.3-0.8-1.8-1.4l1.5-1.2c0.4,0.4,0.8,0.7,1.2,0.9c0.4,0.2,0.9,0.3,1.4,0.3
		c0.6,0,1.1-0.1,1.4-0.3c0.3-0.2,0.5-0.5,0.5-0.9c0-0.4-0.1-0.7-0.4-0.8s-0.6-0.3-1.1-0.3h-1.2v-1.9h1.1c0.4,0,0.7-0.1,0.9-0.3
		s0.3-0.4,0.3-0.7c0-0.1,0-0.2-0.1-0.4c-0.1-0.1-0.1-0.2-0.3-0.3c-0.1-0.1-0.3-0.2-0.5-0.2c-0.2-0.1-0.5-0.1-0.8-0.1
		c-0.7,0-1.4,0.3-1.9,0.8l-1.4-1.3c0.5-0.5,1-0.8,1.5-1.1c0.5-0.2,1.2-0.4,1.9-0.4c0.5,0,1,0.1,1.4,0.2c0.4,0.1,0.8,0.3,1.1,0.5
		c0.3,0.2,0.6,0.5,0.8,0.9c0.2,0.4,0.3,0.8,0.3,1.2c0,0.5-0.1,1-0.4,1.3c-0.2,0.3-0.5,0.6-0.8,0.7c0.2,0.1,0.3,0.1,0.5,0.3
		s0.3,0.3,0.5,0.4s0.3,0.4,0.4,0.6C117.3,69.5,117.3,69.8,117.3,70.1z"/>
	<path id="XMLID_68_" class="st5" d="M121.5,72c0,0.2,0,0.3-0.1,0.5s-0.2,0.3-0.3,0.4c-0.1,0.1-0.3,0.2-0.4,0.3
		c-0.2,0.1-0.3,0.1-0.5,0.1s-0.3,0-0.5-0.1c-0.2-0.1-0.3-0.2-0.4-0.3c-0.1-0.1-0.2-0.3-0.3-0.4c-0.1-0.2-0.1-0.3-0.1-0.5
		s0-0.3,0.1-0.5c0.1-0.2,0.2-0.3,0.3-0.4c0.1-0.1,0.3-0.2,0.4-0.3c0.2-0.1,0.3-0.1,0.5-0.1s0.3,0,0.5,0.1c0.2,0.1,0.3,0.2,0.4,0.3
		c0.1,0.1,0.2,0.3,0.3,0.4S121.5,71.8,121.5,72z"/>
	<path id="XMLID_65_" class="st5" d="M130.5,68.2c0,0.7-0.1,1.4-0.3,2.1c-0.2,0.6-0.4,1.2-0.8,1.6c-0.4,0.4-0.8,0.8-1.3,1.1
		s-1.1,0.4-1.8,0.4s-1.3-0.1-1.8-0.4c-0.5-0.2-0.9-0.6-1.3-1c-0.3-0.4-0.6-1-0.8-1.6c-0.2-0.6-0.3-1.3-0.3-2.1
		c0-0.7,0.1-1.4,0.3-2.1c0.2-0.6,0.4-1.2,0.8-1.6c0.4-0.4,0.8-0.8,1.3-1c0.5-0.2,1.1-0.4,1.8-0.4s1.3,0.1,1.8,0.4
		c0.5,0.2,0.9,0.6,1.3,1c0.4,0.4,0.6,1,0.8,1.6S130.5,67.4,130.5,68.2z M128.5,68.2c0-0.4,0-0.9-0.1-1.2c-0.1-0.4-0.2-0.7-0.4-1
		s-0.4-0.5-0.7-0.7c-0.3-0.2-0.6-0.2-1-0.2c-0.4,0-0.7,0.1-1,0.2s-0.5,0.4-0.7,0.7c-0.2,0.3-0.3,0.6-0.4,1c-0.1,0.4-0.1,0.8-0.1,1.2
		s0,0.9,0.1,1.2c0.1,0.4,0.2,0.7,0.4,1c0.2,0.3,0.4,0.5,0.7,0.7s0.6,0.2,1,0.2s0.7-0.1,1-0.2s0.5-0.4,0.7-0.7c0.2-0.3,0.3-0.6,0.4-1
		C128.4,69.1,128.5,68.6,128.5,68.2z"/>
</g>
<g id="XMLID_52_">
	<path id="XMLID_60_" class="st5" d="M211.9,89.1c0,0.5-0.1,0.9-0.3,1.3c-0.2,0.4-0.5,0.7-0.8,1c-0.4,0.3-0.8,0.5-1.3,0.6
		c-0.5,0.1-1.1,0.2-1.7,0.2c-0.6,0-1.2-0.1-1.7-0.2c-0.5-0.1-0.9-0.3-1.3-0.6c-0.4-0.3-0.6-0.6-0.8-1c-0.2-0.4-0.3-0.8-0.3-1.3
		c0-0.3,0-0.6,0.1-0.9c0.1-0.3,0.2-0.5,0.4-0.7c0.1-0.2,0.3-0.4,0.5-0.5c0.2-0.1,0.4-0.2,0.6-0.3c-0.4-0.2-0.6-0.4-0.8-0.7
		c-0.2-0.3-0.3-0.6-0.3-1c0-0.5,0.1-0.9,0.3-1.3c0.2-0.4,0.5-0.7,0.8-0.9c0.3-0.2,0.7-0.4,1.2-0.5c0.4-0.1,0.9-0.2,1.4-0.2
		c0.5,0,1,0.1,1.4,0.2c0.4,0.1,0.8,0.3,1.2,0.5s0.6,0.5,0.8,0.9c0.2,0.4,0.3,0.8,0.3,1.2c0,0.4-0.1,0.7-0.3,1
		c-0.2,0.3-0.5,0.6-0.9,0.8c0.2,0.1,0.4,0.2,0.6,0.3c0.2,0.1,0.4,0.3,0.5,0.5c0.1,0.2,0.3,0.4,0.4,0.6
		C211.9,88.5,211.9,88.8,211.9,89.1z M210,89.2c0-0.4-0.2-0.8-0.5-1c-0.3-0.2-0.9-0.4-1.6-0.4c-0.7,0-1.3,0.1-1.6,0.4
		c-0.3,0.3-0.5,0.6-0.5,1c0,0.4,0.2,0.8,0.6,1c0.4,0.2,0.9,0.4,1.5,0.4c0.7,0,1.2-0.1,1.6-0.4S210,89.6,210,89.2z M209.6,85.1
		c0-0.2,0-0.3-0.1-0.4s-0.2-0.3-0.3-0.4c-0.1-0.1-0.3-0.2-0.5-0.3c-0.2-0.1-0.5-0.1-0.8-0.1c-0.6,0-1,0.1-1.3,0.3
		c-0.3,0.2-0.4,0.5-0.4,0.8c0,0.3,0.1,0.6,0.4,0.8s0.7,0.3,1.3,0.3c0.6,0,1-0.1,1.3-0.3C209.4,85.7,209.6,85.4,209.6,85.1z"/>
	<path id="XMLID_58_" class="st5" d="M221.1,88.7c0,0.6-0.1,1.1-0.3,1.6c-0.2,0.4-0.5,0.8-0.8,1.1s-0.8,0.5-1.3,0.7
		c-0.5,0.1-1.1,0.2-1.7,0.2c-0.7,0-1.4-0.1-2-0.2c-0.6-0.2-1.2-0.4-1.8-0.8l1-1.7c0.5,0.3,0.9,0.5,1.4,0.6s1,0.2,1.5,0.2
		c0.7,0,1.2-0.1,1.6-0.4c0.4-0.3,0.5-0.7,0.5-1.2c0-0.3,0-0.5-0.1-0.7c-0.1-0.2-0.2-0.3-0.4-0.5c-0.1-0.1-0.3-0.2-0.5-0.3
		s-0.4-0.1-0.7-0.1c-0.4,0-0.8,0.1-1.1,0.2c-0.3,0.1-0.6,0.3-0.8,0.4l-1.9-0.7l0.3-4.9h6.5v1.9h-4.7l-0.1,1.7
		c0.3-0.1,0.6-0.3,0.9-0.3c0.3-0.1,0.7-0.1,1.2-0.1c0.6,0,1,0.1,1.5,0.2c0.4,0.2,0.8,0.4,1.1,0.7c0.3,0.3,0.5,0.6,0.6,1
		C221,87.8,221.1,88.3,221.1,88.7z"/>
	<path id="XMLID_56_" class="st5" d="M225,91c0,0.2,0,0.3-0.1,0.5s-0.2,0.3-0.3,0.4c-0.1,0.1-0.3,0.2-0.4,0.3
		c-0.2,0.1-0.3,0.1-0.5,0.1s-0.3,0-0.5-0.1c-0.2-0.1-0.3-0.2-0.4-0.3c-0.1-0.1-0.2-0.3-0.3-0.4c-0.1-0.2-0.1-0.3-0.1-0.5
		s0-0.3,0.1-0.5c0.1-0.2,0.2-0.3,0.3-0.4c0.1-0.1,0.3-0.2,0.4-0.3c0.2-0.1,0.3-0.1,0.5-0.1s0.3,0,0.5,0.1c0.2,0.1,0.3,0.2,0.4,0.3
		c0.1,0.1,0.2,0.3,0.3,0.4S225,90.8,225,91z"/>
	<path id="XMLID_53_" class="st5" d="M234.3,88.9c0,0.6-0.1,1-0.3,1.5c-0.2,0.4-0.5,0.8-0.9,1.1c-0.4,0.3-0.8,0.5-1.3,0.6
		c-0.5,0.1-1,0.2-1.6,0.2c-0.6,0-1.1-0.1-1.5-0.2c-0.5-0.2-0.9-0.4-1.2-0.7c-0.4-0.3-0.6-0.7-0.8-1.2c-0.2-0.5-0.3-1.1-0.3-1.8
		c0-0.4,0-0.9,0.1-1.4s0.2-0.9,0.4-1.4c0.2-0.5,0.5-0.9,0.8-1.3c0.3-0.4,0.7-0.8,1.2-1.1s1.1-0.6,1.7-0.7c0.7-0.2,1.4-0.3,2.3-0.3
		v1.9c-1.1,0-2.1,0.2-2.8,0.6c-0.7,0.4-1.2,1-1.5,1.7c0.3-0.2,0.6-0.4,1-0.5s0.8-0.1,1.3-0.1c0.5,0,0.9,0.1,1.4,0.2
		c0.4,0.1,0.8,0.3,1.1,0.6c0.3,0.3,0.6,0.6,0.7,1C234.2,87.9,234.3,88.4,234.3,88.9z M232.3,89c0-0.5-0.2-0.9-0.5-1.1
		c-0.3-0.2-0.8-0.4-1.4-0.4c-0.7,0-1.2,0.1-1.5,0.4c-0.3,0.2-0.5,0.6-0.5,1.1c0,0.5,0.2,0.8,0.5,1.1c0.3,0.3,0.8,0.4,1.5,0.4
		c0.7,0,1.2-0.1,1.5-0.4C232.1,89.8,232.3,89.5,232.3,89z"/>
</g>
<g id="XMLID_40_">
	<path id="XMLID_48_" class="st5" d="M319.8,99.2c0,0.5-0.1,0.9-0.3,1.3c-0.2,0.4-0.5,0.7-0.8,1c-0.4,0.3-0.8,0.5-1.3,0.6
		c-0.5,0.1-1.1,0.2-1.7,0.2c-0.6,0-1.2-0.1-1.7-0.2c-0.5-0.1-0.9-0.3-1.3-0.6c-0.4-0.3-0.6-0.6-0.8-1c-0.2-0.4-0.3-0.8-0.3-1.3
		c0-0.3,0-0.6,0.1-0.9c0.1-0.3,0.2-0.5,0.4-0.7c0.1-0.2,0.3-0.4,0.5-0.5c0.2-0.1,0.4-0.2,0.6-0.3c-0.4-0.2-0.6-0.4-0.8-0.7
		c-0.2-0.3-0.3-0.6-0.3-1c0-0.5,0.1-0.9,0.3-1.3c0.2-0.4,0.5-0.7,0.8-0.9c0.3-0.2,0.7-0.4,1.2-0.5c0.4-0.1,0.9-0.2,1.4-0.2
		c0.5,0,1,0.1,1.4,0.2c0.4,0.1,0.8,0.3,1.2,0.5s0.6,0.5,0.8,0.9c0.2,0.4,0.3,0.8,0.3,1.2c0,0.4-0.1,0.7-0.3,1
		c-0.2,0.3-0.5,0.6-0.9,0.8c0.2,0.1,0.4,0.2,0.6,0.3c0.2,0.1,0.4,0.3,0.5,0.5c0.1,0.2,0.3,0.4,0.4,0.6
		C319.7,98.6,319.8,98.9,319.8,99.2z M317.8,99.3c0-0.4-0.2-0.8-0.5-1c-0.3-0.2-0.9-0.4-1.6-0.4c-0.7,0-1.3,0.1-1.6,0.4
		c-0.3,0.3-0.5,0.6-0.5,1c0,0.4,0.2,0.8,0.6,1c0.4,0.2,0.9,0.4,1.5,0.4c0.7,0,1.2-0.1,1.6-0.4S317.8,99.7,317.8,99.3z M317.4,95.2
		c0-0.2,0-0.3-0.1-0.4s-0.2-0.3-0.3-0.4c-0.1-0.1-0.3-0.2-0.5-0.3c-0.2-0.1-0.5-0.1-0.8-0.1c-0.6,0-1,0.1-1.3,0.3
		c-0.3,0.2-0.4,0.5-0.4,0.8c0,0.3,0.1,0.6,0.4,0.8s0.7,0.3,1.3,0.3c0.6,0,1-0.1,1.3-0.3C317.3,95.7,317.4,95.5,317.4,95.2z"/>
	<path id="XMLID_45_" class="st5" d="M329.1,97.3c0,0.7-0.1,1.4-0.3,2.1c-0.2,0.6-0.4,1.2-0.8,1.6c-0.4,0.4-0.8,0.8-1.3,1.1
		s-1.1,0.4-1.8,0.4s-1.3-0.1-1.8-0.4c-0.5-0.2-0.9-0.6-1.3-1c-0.3-0.4-0.6-1-0.8-1.6c-0.2-0.6-0.3-1.3-0.3-2.1
		c0-0.7,0.1-1.4,0.3-2.1c0.2-0.6,0.4-1.2,0.8-1.6c0.4-0.4,0.8-0.8,1.3-1c0.5-0.2,1.1-0.4,1.8-0.4s1.3,0.1,1.8,0.4
		c0.5,0.2,0.9,0.6,1.3,1c0.4,0.4,0.6,1,0.8,1.6S329.1,96.6,329.1,97.3z M327.1,97.3c0-0.4,0-0.9-0.1-1.2c-0.1-0.4-0.2-0.7-0.4-1
		s-0.4-0.5-0.7-0.7c-0.3-0.2-0.6-0.2-1-0.2c-0.4,0-0.7,0.1-1,0.2s-0.5,0.4-0.7,0.7c-0.2,0.3-0.3,0.6-0.4,1c-0.1,0.4-0.1,0.8-0.1,1.2
		s0,0.9,0.1,1.2c0.1,0.4,0.2,0.7,0.4,1c0.2,0.3,0.4,0.5,0.7,0.7s0.6,0.2,1,0.2s0.7-0.1,1-0.2s0.5-0.4,0.7-0.7c0.2-0.3,0.3-0.6,0.4-1
		C327.1,98.2,327.1,97.8,327.1,97.3z"/>
	<path id="XMLID_43_" class="st5" d="M332.9,101.1c0,0.2,0,0.3-0.1,0.5s-0.2,0.3-0.3,0.4c-0.1,0.1-0.3,0.2-0.4,0.3
		c-0.2,0.1-0.3,0.1-0.5,0.1s-0.3,0-0.5-0.1c-0.2-0.1-0.3-0.2-0.4-0.3c-0.1-0.1-0.2-0.3-0.3-0.4c-0.1-0.2-0.1-0.3-0.1-0.5
		s0-0.3,0.1-0.5c0.1-0.2,0.2-0.3,0.3-0.4c0.1-0.1,0.3-0.2,0.4-0.3c0.2-0.1,0.3-0.1,0.5-0.1s0.3,0,0.5,0.1c0.2,0.1,0.3,0.2,0.4,0.3
		c0.1,0.1,0.2,0.3,0.3,0.4S332.9,100.9,332.9,101.1z"/>
	<path id="XMLID_41_" class="st5" d="M337,102.3v-7.1h-1.7v-1.4c0.6,0,1-0.1,1.3-0.4c0.3-0.2,0.6-0.5,0.7-0.9h1.6v9.8H337z"/>
</g>
<g id="XMLID_1_">
	<path id="XMLID_38_" class="st5" d="M176.8,318.9v7h-1.2v-7h-2.4v-1.2h6v1.2H176.8z"/>
	<path id="XMLID_35_" class="st5" d="M182.6,325.9v-0.6c-0.2,0.2-0.5,0.4-0.7,0.5s-0.6,0.2-0.9,0.2c-0.3,0-0.5,0-0.8-0.1
		c-0.3-0.1-0.5-0.2-0.7-0.4c-0.2-0.2-0.4-0.4-0.5-0.6c-0.1-0.3-0.2-0.6-0.2-1c0-0.3,0.1-0.6,0.2-0.9c0.1-0.2,0.3-0.5,0.5-0.6
		c0.2-0.2,0.5-0.3,0.8-0.4s0.6-0.1,1-0.1c0.6,0,1,0.1,1.4,0.2v-0.5c0-0.3-0.1-0.6-0.3-0.8c-0.2-0.2-0.5-0.3-0.9-0.3
		c-0.3,0-0.6,0-0.9,0.1c-0.3,0.1-0.5,0.2-0.7,0.3l-0.5-0.9c0.3-0.2,0.6-0.3,0.9-0.4c0.3-0.1,0.7-0.1,1.2-0.1c0.7,0,1.2,0.2,1.7,0.5
		c0.4,0.3,0.6,0.9,0.6,1.5v4.2H182.6z M182.6,323.2c-0.2-0.1-0.4-0.2-0.6-0.2c-0.2,0-0.5-0.1-0.8-0.1c-0.4,0-0.7,0.1-0.9,0.2
		s-0.3,0.4-0.3,0.7c0,0.3,0.1,0.5,0.3,0.7c0.2,0.2,0.5,0.3,0.9,0.3c0.3,0,0.6-0.1,0.9-0.2c0.3-0.2,0.5-0.3,0.6-0.5V323.2z"/>
	<path id="XMLID_33_" class="st5" d="M189.1,325.9l-1.4-3.1l-0.9,1.2v1.8h-1.2V318l1.2-0.6v3.9c0,0.1,0,0.2,0,0.3s0,0.2,0,0.4
		c0,0.1,0,0.2,0,0.3s0,0.2,0,0.3c0.1-0.1,0.2-0.3,0.3-0.5c0.1-0.2,0.2-0.4,0.4-0.5l1.3-1.8h1.4l-1.6,2.1l1.8,4.1H189.1z"/>
	<path id="XMLID_30_" class="st5" d="M193.2,318.1c0,0.2-0.1,0.4-0.2,0.5c-0.2,0.2-0.3,0.2-0.5,0.2c-0.2,0-0.4-0.1-0.6-0.2
		c-0.2-0.2-0.2-0.3-0.2-0.5c0-0.2,0.1-0.4,0.2-0.6c0.2-0.2,0.3-0.2,0.6-0.2c0.2,0,0.4,0.1,0.5,0.2
		C193.1,317.7,193.2,317.9,193.2,318.1z M191.8,325.9v-6.1h1.2v6.1H191.8z"/>
	<path id="XMLID_28_" class="st5" d="M198.6,325.9v-3.5c0-0.6-0.1-1.1-0.3-1.3s-0.5-0.4-0.9-0.4c-0.4,0-0.7,0.1-0.9,0.4
		c-0.2,0.3-0.3,0.7-0.3,1.2v3.6h-1.2v-6.1h1.2v0.6c0.2-0.2,0.4-0.4,0.6-0.5c0.3-0.1,0.6-0.2,0.9-0.2c0.7,0,1.3,0.2,1.6,0.7
		c0.4,0.5,0.6,1.1,0.6,2.1v3.5H198.6z"/>
	<path id="XMLID_25_" class="st5" d="M206.4,325.3c0,0.5,0,0.9-0.1,1.2c-0.1,0.3-0.3,0.6-0.5,0.9c-0.2,0.2-0.5,0.4-0.9,0.5
		c-0.4,0.1-0.8,0.2-1.4,0.2l-0.4-0.9c0.4,0,0.8-0.1,1.1-0.1c0.3-0.1,0.5-0.2,0.6-0.3c0.2-0.1,0.3-0.3,0.3-0.6
		c0.1-0.2,0.1-0.5,0.1-0.8v-0.1c-0.2,0.2-0.5,0.4-0.7,0.5c-0.3,0.1-0.5,0.2-0.9,0.2c-0.3,0-0.6-0.1-0.9-0.2s-0.5-0.3-0.7-0.6
		c-0.2-0.3-0.4-0.6-0.5-1c-0.1-0.4-0.2-0.9-0.2-1.5c0-0.5,0.1-1,0.2-1.4c0.1-0.4,0.3-0.7,0.5-1c0.2-0.3,0.5-0.4,0.8-0.6
		c0.3-0.1,0.6-0.2,0.9-0.2c0.3,0,0.6,0.1,0.9,0.2c0.3,0.1,0.5,0.3,0.7,0.5v-0.6h1.2V325.3z M205.2,321.5c-0.1-0.1-0.2-0.2-0.3-0.3
		c-0.1-0.1-0.2-0.2-0.3-0.3c-0.1-0.1-0.3-0.1-0.4-0.2c-0.1,0-0.3-0.1-0.4-0.1c-0.4,0-0.8,0.2-1,0.5c-0.2,0.3-0.3,0.8-0.3,1.5
		c0,0.8,0.1,1.3,0.4,1.7c0.2,0.3,0.6,0.5,1,0.5c0.3,0,0.6-0.1,0.8-0.2c0.2-0.2,0.4-0.3,0.6-0.5V321.5z"/>
	<path id="XMLID_22_" class="st5" d="M216.9,325.9l-0.7-1.9H213l-0.7,1.9H211l2.9-8.2h1.3l3,8.2H216.9z M215.2,320.9
		c0-0.1-0.1-0.3-0.2-0.5c-0.1-0.2-0.1-0.4-0.2-0.5c-0.1-0.2-0.1-0.3-0.2-0.5s-0.1-0.3-0.1-0.4c0,0.1-0.1,0.2-0.1,0.4
		c0,0.2-0.1,0.3-0.2,0.5c-0.1,0.2-0.1,0.4-0.2,0.5c-0.1,0.2-0.1,0.4-0.2,0.5l-0.7,1.9h2.5L215.2,320.9z"/>
	<path id="XMLID_19_" class="st5" d="M223.2,325.8v-0.6c-0.2,0.2-0.5,0.4-0.7,0.5c-0.3,0.1-0.5,0.2-0.9,0.2c-0.3,0-0.6-0.1-0.9-0.2
		s-0.5-0.3-0.8-0.6c-0.2-0.3-0.4-0.6-0.5-1c-0.1-0.4-0.2-0.9-0.2-1.5c0-0.5,0.1-1,0.2-1.4c0.1-0.4,0.3-0.7,0.5-1
		c0.2-0.3,0.5-0.4,0.8-0.6c0.3-0.1,0.6-0.2,0.9-0.2c0.3,0,0.6,0.1,0.9,0.2c0.3,0.1,0.5,0.3,0.7,0.5v-2.3l1.2-0.6v8.5H223.2z
		 M223.2,321.5c-0.1-0.1-0.2-0.2-0.3-0.3c-0.1-0.1-0.2-0.2-0.3-0.3c-0.1-0.1-0.3-0.1-0.4-0.2c-0.1,0-0.3-0.1-0.4-0.1
		c-0.4,0-0.8,0.2-1,0.5c-0.2,0.3-0.3,0.8-0.3,1.5c0,0.8,0.1,1.3,0.4,1.7c0.2,0.3,0.6,0.5,1,0.5c0.3,0,0.6-0.1,0.8-0.2
		c0.2-0.2,0.4-0.3,0.6-0.5V321.5z"/>
	<path id="XMLID_17_" class="st5" d="M229.9,325.9v-3.5c0-0.6-0.1-1.1-0.3-1.3s-0.5-0.4-0.9-0.4c-0.4,0-0.7,0.1-0.9,0.4
		c-0.2,0.3-0.3,0.7-0.3,1.2v3.6h-1.2V318l1.2-0.6v3c0.2-0.2,0.4-0.4,0.6-0.5c0.3-0.1,0.6-0.2,0.9-0.2c0.7,0,1.3,0.2,1.6,0.7
		c0.4,0.5,0.6,1.1,0.6,2.1v3.5H229.9z"/>
	<path id="XMLID_14_" class="st5" d="M237.8,322.7c0,0.1,0,0.2,0,0.3c0,0.1,0,0.2,0,0.2h-4.1c0,0.3,0.1,0.5,0.2,0.8
		c0.1,0.2,0.2,0.4,0.4,0.5c0.1,0.1,0.3,0.2,0.5,0.3c0.2,0.1,0.4,0.1,0.5,0.1c0.3,0,0.5,0,0.7-0.1c0.2-0.1,0.4-0.2,0.6-0.4l0.7,0.8
		c-0.3,0.3-0.6,0.5-0.9,0.6c-0.3,0.1-0.7,0.2-1.2,0.2c-0.4,0-0.7-0.1-1-0.2c-0.3-0.1-0.6-0.3-0.8-0.6c-0.2-0.3-0.4-0.6-0.6-1
		c-0.1-0.4-0.2-0.8-0.2-1.4c0-0.5,0.1-1,0.2-1.4c0.1-0.4,0.3-0.7,0.5-1c0.2-0.3,0.5-0.5,0.8-0.6c0.3-0.1,0.7-0.2,1.1-0.2
		c0.4,0,0.8,0.1,1.1,0.2c0.3,0.2,0.6,0.4,0.8,0.7c0.2,0.3,0.4,0.6,0.5,1C237.8,321.9,237.8,322.2,237.8,322.7z M236.6,322.2
		c0-0.2-0.1-0.4-0.1-0.6c-0.1-0.2-0.1-0.4-0.3-0.5s-0.3-0.3-0.4-0.3c-0.2-0.1-0.4-0.1-0.6-0.1c-0.4,0-0.7,0.1-1,0.4
		c-0.2,0.3-0.4,0.6-0.4,1.1H236.6z"/>
	<path id="XMLID_12_" class="st5" d="M242.7,321c-0.1-0.1-0.3-0.1-0.4-0.2c-0.1,0-0.3-0.1-0.5-0.1c-0.4,0-0.7,0.1-0.9,0.4
		c-0.2,0.3-0.3,0.7-0.3,1.2v3.5h-1.2v-6.1h1.2v0.6c0.1-0.2,0.3-0.4,0.6-0.5c0.2-0.1,0.5-0.2,0.8-0.2c0.3,0,0.5,0,0.6,0.1
		c0.2,0,0.3,0.1,0.4,0.2L242.7,321z"/>
	<path id="XMLID_9_" class="st5" d="M248.9,322.7c0,0.1,0,0.2,0,0.3c0,0.1,0,0.2,0,0.2h-4.1c0,0.3,0.1,0.5,0.2,0.8
		c0.1,0.2,0.2,0.4,0.4,0.5c0.1,0.1,0.3,0.2,0.5,0.3c0.2,0.1,0.4,0.1,0.5,0.1c0.3,0,0.5,0,0.7-0.1c0.2-0.1,0.4-0.2,0.6-0.4l0.7,0.8
		c-0.3,0.3-0.6,0.5-0.9,0.6c-0.3,0.1-0.7,0.2-1.2,0.2c-0.4,0-0.7-0.1-1-0.2c-0.3-0.1-0.6-0.3-0.8-0.6c-0.2-0.3-0.4-0.6-0.6-1
		c-0.1-0.4-0.2-0.8-0.2-1.4c0-0.5,0.1-1,0.2-1.4c0.1-0.4,0.3-0.7,0.5-1c0.2-0.3,0.5-0.5,0.8-0.6c0.3-0.1,0.7-0.2,1.1-0.2
		c0.4,0,0.8,0.1,1.1,0.2c0.3,0.2,0.6,0.4,0.8,0.7c0.2,0.3,0.4,0.6,0.5,1C248.8,321.9,248.9,322.2,248.9,322.7z M247.7,322.2
		c0-0.2-0.1-0.4-0.1-0.6c-0.1-0.2-0.1-0.4-0.3-0.5s-0.3-0.3-0.4-0.3c-0.2-0.1-0.4-0.1-0.6-0.1c-0.4,0-0.7,0.1-1,0.4
		c-0.2,0.3-0.4,0.6-0.4,1.1H247.7z"/>
	<path id="XMLID_7_" class="st5" d="M254.1,325.9v-3.5c0-0.6-0.1-1.1-0.3-1.3s-0.5-0.4-0.9-0.4c-0.4,0-0.7,0.1-0.9,0.4
		c-0.2,0.3-0.3,0.7-0.3,1.2v3.6h-1.2v-6.1h1.2v0.6c0.2-0.2,0.4-0.4,0.6-0.5c0.3-0.1,0.6-0.2,0.9-0.2c0.7,0,1.3,0.2,1.6,0.7
		c0.4,0.5,0.6,1.1,0.6,2.1v3.5H254.1z"/>
	<path id="XMLID_5_" class="st5" d="M260.9,321.5c-0.3-0.3-0.5-0.4-0.7-0.6c-0.2-0.1-0.5-0.2-0.8-0.2c-0.4,0-0.8,0.2-1.1,0.5
		c-0.3,0.4-0.4,0.9-0.4,1.5c0,0.3,0,0.6,0.1,0.8c0.1,0.3,0.2,0.5,0.3,0.7s0.3,0.3,0.5,0.4c0.2,0.1,0.4,0.2,0.6,0.2
		c0.3,0,0.5-0.1,0.7-0.2c0.2-0.1,0.4-0.3,0.7-0.6l0.8,0.8c-0.1,0.2-0.2,0.3-0.4,0.4c-0.1,0.1-0.3,0.3-0.5,0.4
		c-0.2,0.1-0.4,0.2-0.6,0.3c-0.2,0.1-0.5,0.1-0.7,0.1c-0.4,0-0.7-0.1-1-0.2s-0.6-0.4-0.8-0.6c-0.2-0.3-0.4-0.6-0.6-1
		c-0.1-0.4-0.2-0.8-0.2-1.3c0-0.5,0.1-1,0.2-1.4c0.1-0.4,0.3-0.7,0.6-1c0.2-0.3,0.5-0.5,0.8-0.6c0.3-0.1,0.7-0.2,1.1-0.2
		c0.5,0,0.9,0.1,1.2,0.3c0.4,0.2,0.7,0.4,1,0.8L260.9,321.5z"/>
	<path id="XMLID_2_" class="st5" d="M268,322.7c0,0.1,0,0.2,0,0.3c0,0.1,0,0.2,0,0.2h-4.1c0,0.3,0.1,0.5,0.2,0.8
		c0.1,0.2,0.2,0.4,0.4,0.5c0.1,0.1,0.3,0.2,0.5,0.3c0.2,0.1,0.4,0.1,0.5,0.1c0.3,0,0.5,0,0.7-0.1c0.2-0.1,0.4-0.2,0.6-0.4l0.7,0.8
		c-0.3,0.3-0.6,0.5-0.9,0.6c-0.3,0.1-0.7,0.2-1.2,0.2c-0.4,0-0.7-0.1-1-0.2c-0.3-0.1-0.6-0.3-0.8-0.6c-0.2-0.3-0.4-0.6-0.6-1
		c-0.1-0.4-0.2-0.8-0.2-1.4c0-0.5,0.1-1,0.2-1.4c0.1-0.4,0.3-0.7,0.5-1c0.2-0.3,0.5-0.5,0.8-0.6c0.3-0.1,0.7-0.2,1.1-0.2
		c0.4,0,0.8,0.1,1.1,0.2c0.3,0.2,0.6,0.4,0.8,0.7c0.2,0.3,0.4,0.6,0.5,1C267.9,321.9,268,322.2,268,322.7z M266.7,322.2
		c0-0.2-0.1-0.4-0.1-0.6c-0.1-0.2-0.1-0.4-0.3-0.5s-0.3-0.3-0.4-0.3c-0.2-0.1-0.4-0.1-0.6-0.1c-0.4,0-0.7,0.1-1,0.4
		c-0.2,0.3-0.4,0.6-0.4,1.1H266.7z"/>
</g>
</svg>
