<!-- Generator: Adobe Illustrator 22.1.0, SVG Export Plug-In  -->
<svg version="1.1"
	 xmlns="http://www.w3.org/2000/svg" xmlns:xlink="http://www.w3.org/1999/xlink" xmlns:a="http://ns.adobe.com/AdobeSVGViewerExtensions/3.0/"
	 x="0px" y="0px" width="79.5px" height="287.2px" viewBox="0 0 79.5 287.2" style="enable-background:new 0 0 79.5 287.2;"
	 xml:space="preserve">
<style type="text/css">
	.st0{fill:url(#XMLID_83_);}
	.st1{fill:#58595B;}
	.st2{fill:none;stroke:#231F20;stroke-miterlimit:10;}
	.st3{fill:url(#XMLID_84_);}
</style>
<defs>
</defs>
<linearGradient id="XMLID_83_" gradientUnits="userSpaceOnUse" x1="40.8256" y1="145.0513" x2="65.9329" y2="145.0513">
	<stop  offset="0" style="stop-color:#4B257A"/>
	<stop  offset="1" style="stop-color:#954C8D"/>
</linearGradient>
<rect id="XMLID_82_" x="40.8" y="22.9" class="st0" width="25.1" height="244.3"/>
<g id="XMLID_59_">
	<g id="XMLID_61_">
		<path id="XMLID_69_" class="st1" d="M45.6,12.1v2.1h-1.4v-2.1h-5.1v-1.3l4.8-6h1.6v6h1.2v1.2H45.6z M44.3,6.4
			c-0.1,0.1-0.2,0.3-0.4,0.5s-0.3,0.4-0.5,0.6l-1.8,2.3c-0.1,0.2-0.3,0.4-0.5,0.6c-0.2,0.2-0.3,0.4-0.4,0.5c0.1,0,0.2,0,0.3,0
			c0.1,0,0.3,0,0.4,0c0.1,0,0.3,0,0.4,0s0.3,0,0.4,0h2V8.2c0-0.1,0-0.3,0-0.4c0-0.2,0-0.3,0-0.5c0-0.2,0-0.3,0-0.4
			C44.3,6.6,44.3,6.5,44.3,6.4z"/>
		<path id="XMLID_66_" class="st1" d="M54.6,12.1v2.1h-1.4v-2.1h-5.1v-1.3l4.8-6h1.6v6h1.2v1.2H54.6z M53.2,6.4
			c-0.1,0.1-0.2,0.3-0.4,0.5s-0.3,0.4-0.5,0.6l-1.8,2.3c-0.1,0.2-0.3,0.4-0.5,0.6c-0.2,0.2-0.3,0.4-0.4,0.5c0.1,0,0.2,0,0.3,0
			c0.1,0,0.3,0,0.4,0c0.1,0,0.3,0,0.4,0s0.3,0,0.4,0h2V8.2c0-0.1,0-0.3,0-0.4c0-0.2,0-0.3,0-0.5c0-0.2,0-0.3,0-0.4
			C53.2,6.6,53.2,6.5,53.2,6.4z"/>
		<path id="XMLID_64_" class="st1" d="M59.3,13.3c0,0.3-0.1,0.5-0.3,0.7s-0.5,0.3-0.7,0.3s-0.5-0.1-0.7-0.3s-0.3-0.5-0.3-0.7
			c0-0.1,0-0.3,0.1-0.4c0.1-0.1,0.1-0.2,0.2-0.3c0.1-0.1,0.2-0.2,0.3-0.2c0.1-0.1,0.3-0.1,0.4-0.1c0.1,0,0.3,0,0.4,0.1
			c0.1,0.1,0.2,0.1,0.3,0.2c0.1,0.1,0.2,0.2,0.2,0.3C59.3,13.1,59.3,13.2,59.3,13.3z"/>
		<path id="XMLID_62_" class="st1" d="M67.2,11.5c0,1-0.3,1.7-0.9,2.2c-0.6,0.5-1.5,0.7-2.6,0.7c-0.3,0-0.7,0-1-0.1
			c-0.3-0.1-0.6-0.2-0.9-0.3c-0.3-0.1-0.6-0.3-0.8-0.5c-0.3-0.2-0.5-0.4-0.6-0.7l1.1-0.9c0.3,0.4,0.6,0.6,1,0.8s0.8,0.3,1.3,0.3
			c0.8,0,1.3-0.1,1.6-0.4s0.5-0.7,0.5-1.1s-0.2-0.8-0.5-1.1c-0.3-0.2-0.7-0.3-1.2-0.3h-0.9V8.7H64c0.4,0,0.8-0.1,1-0.4
			s0.3-0.6,0.3-0.9c0-0.1,0-0.3-0.1-0.4c-0.1-0.2-0.1-0.3-0.3-0.4c-0.1-0.1-0.3-0.2-0.5-0.3c-0.2-0.1-0.5-0.1-0.9-0.1
			c-0.4,0-0.7,0.1-1,0.2C62.2,6.5,62,6.7,61.7,7l-1-1C61.1,5.6,61.5,5.3,62,5c0.5-0.2,1-0.3,1.6-0.3c0.4,0,0.9,0.1,1.2,0.2
			c0.4,0.1,0.7,0.3,1,0.5c0.3,0.2,0.5,0.5,0.7,0.8s0.3,0.7,0.3,1.1c0,0.6-0.1,1-0.3,1.3c-0.2,0.3-0.5,0.6-0.8,0.7
			c0.4,0.1,0.8,0.4,1.1,0.7C67,10.4,67.2,10.9,67.2,11.5z"/>
	</g>
</g>
<rect id="XMLID_58_" x="37.6" y="0.5" class="st2" width="31.5" height="18.7"/>
<g id="XMLID_1_">
	<g id="XMLID_3_">
		<path id="XMLID_29_" class="st1" d="M0,287c0-0.7,0.1-1.3,0.3-1.8c0.2-0.5,0.5-1,0.8-1.4c0.3-0.4,0.7-0.7,1.1-1
			c0.4-0.3,0.9-0.6,1.3-0.9c0.3-0.2,0.6-0.4,0.8-0.5c0.2-0.2,0.4-0.3,0.5-0.4c0.1-0.1,0.2-0.3,0.2-0.4c0-0.1,0.1-0.3,0.1-0.5
			c0-0.4-0.1-0.7-0.4-0.9c-0.3-0.2-0.7-0.3-1.4-0.3c-0.4,0-0.8,0.1-1.2,0.3c-0.4,0.2-0.8,0.4-1.1,0.7l-0.9-1.1
			c0.4-0.4,0.9-0.7,1.5-0.9c0.6-0.2,1.1-0.3,1.7-0.3c1,0,1.8,0.2,2.3,0.6c0.6,0.4,0.9,1.1,0.9,1.9c0,0.4,0,0.7-0.1,1
			c-0.1,0.3-0.2,0.5-0.4,0.7c-0.2,0.2-0.4,0.4-0.7,0.7c-0.3,0.2-0.7,0.4-1.1,0.7c-0.4,0.3-0.8,0.5-1.1,0.7c-0.3,0.2-0.5,0.4-0.7,0.6
			S2.1,284.8,2,285c-0.1,0.2-0.2,0.4-0.2,0.6h5v1.4H0z"/>
		<path id="XMLID_27_" class="st1" d="M15.5,283.8c0,0.6-0.1,1.1-0.3,1.5c-0.2,0.4-0.4,0.8-0.8,1c-0.3,0.3-0.7,0.5-1.2,0.6
			s-1,0.2-1.5,0.2c-0.6,0-1.2-0.1-1.7-0.2c-0.5-0.1-1.1-0.4-1.6-0.7l0.7-1.2c0.4,0.2,0.8,0.4,1.3,0.5c0.5,0.1,0.9,0.2,1.3,0.2
			c0.7,0,1.3-0.2,1.7-0.5c0.4-0.3,0.6-0.8,0.6-1.4c0-0.6-0.2-1-0.5-1.3c-0.3-0.3-0.8-0.4-1.4-0.4c-0.4,0-0.7,0.1-1,0.2
			c-0.3,0.1-0.5,0.3-0.8,0.4l-1.5-0.6l0.3-4.6H15v1.3h-4.5l-0.2,2.4c0.3-0.2,0.6-0.3,0.9-0.4c0.3-0.1,0.7-0.1,1.1-0.1
			c0.5,0,1,0.1,1.4,0.2c0.4,0.1,0.7,0.4,1,0.6c0.3,0.3,0.5,0.6,0.6,0.9C15.5,283,15.5,283.4,15.5,283.8z"/>
		<path id="XMLID_21_" class="st1" d="M20.9,280.8c0,1.8-1,2.7-2.1,2.7c-1.1,0-2-0.9-2-2.6c0-1.7,1-2.7,2.1-2.7
			C20.1,278.2,20.9,279.1,20.9,280.8z M17.7,280.8c0,1.1,0.4,2,1.1,2c0.8,0,1.1-0.8,1.1-2c0-1.1-0.3-1.9-1.1-1.9
			C18.1,278.9,17.7,279.7,17.7,280.8z M18.7,287.2l5.1-9h0.8l-5.1,9H18.7z M26.6,284.4c0,1.8-1,2.7-2.1,2.7c-1.1,0-2-0.9-2-2.6
			c0-1.8,1-2.7,2.1-2.7C25.8,281.8,26.6,282.7,26.6,284.4z M23.4,284.4c0,1.1,0.4,2,1.1,2c0.8,0,1.1-0.8,1.1-2
			c0-1.1-0.3-1.9-1.1-1.9C23.8,282.5,23.4,283.3,23.4,284.4z"/>
		<path id="XMLID_19_" class="st1" d="M35,286.8c-0.2,0.1-0.4,0.2-0.6,0.2c-0.2,0.1-0.5,0.1-0.8,0.1c-0.5,0-0.9-0.2-1.2-0.5
			c-0.3-0.3-0.4-0.8-0.4-1.4v-4.1h-1V280h1v-2l1.4-0.7v2.7h1.7v1.3h-1.7v3.8c0,0.3,0.1,0.6,0.2,0.7c0.1,0.1,0.3,0.2,0.6,0.2
			c0.2,0,0.4,0,0.5-0.1s0.3-0.1,0.5-0.2L35,286.8z"/>
		<path id="XMLID_16_" class="st1" d="M43,283.5c0,0.6-0.1,1.1-0.2,1.6c-0.2,0.5-0.4,0.8-0.7,1.2s-0.6,0.6-1,0.7s-0.8,0.2-1.3,0.2
			c-0.4,0-0.9-0.1-1.2-0.3c-0.4-0.2-0.7-0.4-1-0.7s-0.5-0.7-0.6-1.2s-0.2-0.9-0.2-1.5c0-0.6,0.1-1.1,0.2-1.5s0.4-0.8,0.7-1.2
			c0.3-0.3,0.6-0.6,1-0.7c0.4-0.2,0.8-0.2,1.2-0.2s0.9,0.1,1.2,0.3c0.4,0.2,0.7,0.4,1,0.7s0.5,0.7,0.7,1.1
			C42.9,282.4,43,282.9,43,283.5z M41.6,283.5c0-0.7-0.2-1.3-0.5-1.7s-0.8-0.6-1.3-0.6c-0.5,0-0.9,0.2-1.2,0.6s-0.5,1-0.5,1.7
			c0,0.8,0.2,1.4,0.5,1.8c0.3,0.4,0.8,0.6,1.3,0.6c0.3,0,0.5-0.1,0.7-0.2c0.2-0.1,0.4-0.3,0.6-0.5s0.3-0.5,0.4-0.7
			C41.5,284.1,41.6,283.8,41.6,283.5z"/>
		<path id="XMLID_14_" class="st1" d="M48.1,283v-1.2l3.9-3.4v1.7l-2.6,2.2l2.6,2.2v1.8L48.1,283z"/>
		<path id="XMLID_12_" class="st1" d="M58.6,280.6c-0.4,0.6-0.7,1.2-1,1.8c-0.3,0.7-0.5,1.4-0.7,2.2c-0.2,0.8-0.3,1.6-0.3,2.5h-1.4
			c0-0.8,0.1-1.6,0.2-2.3c0.1-0.7,0.3-1.4,0.6-2.1c0.3-0.7,0.6-1.3,0.9-1.9c0.4-0.6,0.7-1.2,1.2-1.8h-4.9v-1.4h6.6v1.4
			C59.3,279.5,58.9,280,58.6,280.6z"/>
		<path id="XMLID_10_" class="st1" d="M68.5,283.8c0,0.6-0.1,1.1-0.3,1.5c-0.2,0.4-0.4,0.8-0.8,1c-0.3,0.3-0.7,0.5-1.2,0.6
			s-1,0.2-1.5,0.2c-0.6,0-1.2-0.1-1.7-0.2c-0.5-0.1-1.1-0.4-1.6-0.7l0.7-1.2c0.4,0.2,0.8,0.4,1.3,0.5c0.5,0.1,0.9,0.2,1.3,0.2
			c0.7,0,1.3-0.2,1.7-0.5c0.4-0.3,0.6-0.8,0.6-1.4c0-0.6-0.2-1-0.5-1.3c-0.3-0.3-0.8-0.4-1.4-0.4c-0.4,0-0.7,0.1-1,0.2
			c-0.3,0.1-0.5,0.3-0.8,0.4l-1.5-0.6l0.3-4.6h5.8v1.3h-4.5l-0.2,2.4c0.3-0.2,0.6-0.3,0.9-0.4c0.3-0.1,0.7-0.1,1.1-0.1
			c0.5,0,1,0.1,1.4,0.2c0.4,0.1,0.7,0.4,1,0.6c0.3,0.3,0.5,0.6,0.6,0.9C68.4,283,68.5,283.4,68.5,283.8z"/>
		<path id="XMLID_4_" class="st1" d="M73.9,280.8c0,1.8-1,2.7-2.1,2.7c-1.1,0-2-0.9-2-2.6c0-1.7,1-2.7,2.1-2.7
			C73.1,278.2,73.9,279.1,73.9,280.8z M70.7,280.8c0,1.1,0.4,2,1.1,2c0.8,0,1.1-0.8,1.1-2c0-1.1-0.3-1.9-1.1-1.9
			C71.1,278.9,70.7,279.7,70.7,280.8z M71.7,287.2l5.1-9h0.8l-5.1,9H71.7z M79.5,284.4c0,1.8-1,2.7-2.1,2.7c-1.1,0-2-0.9-2-2.6
			c0-1.8,1-2.7,2.1-2.7C78.8,281.8,79.5,282.7,79.5,284.4z M76.4,284.4c0,1.1,0.4,2,1.1,2c0.8,0,1.1-0.8,1.1-2
			c0-1.1-0.3-1.9-1.1-1.9C76.8,282.5,76.4,283.3,76.4,284.4z"/>
	</g>
</g>
</svg>
