<!-- Generator: Adobe Illustrator 22.1.0, SVG Export Plug-In  -->
<svg version="1.1"
	 xmlns="http://www.w3.org/2000/svg" xmlns:xlink="http://www.w3.org/1999/xlink" xmlns:a="http://ns.adobe.com/AdobeSVGViewerExtensions/3.0/"
	 x="0px" y="0px" width="130.9px" height="130.1px" viewBox="0 0 130.9 130.1" style="enable-background:new 0 0 130.9 130.1;"
	 xml:space="preserve">
<style type="text/css">
	.st0{fill:url(#XMLID_59_);}
	.st1{fill:url(#XMLID_60_);}
	.st2{fill:#FFFFFF;}
	.st3{fill:url(#XMLID_61_);}
	.st4{fill:url(#XMLID_62_);}
</style>
<defs>
</defs>
<g id="XMLID_1_">
	<g id="XMLID_56_">
		<linearGradient id="XMLID_59_" gradientUnits="userSpaceOnUse" x1="0" y1="65.0257" x2="130.9316" y2="65.0257">
			<stop  offset="0" style="stop-color:#BBBDBF"/>
			<stop  offset="1.386994e-02" style="stop-color:#C0C1C3"/>
			<stop  offset="0.1127" style="stop-color:#DBDCDD"/>
			<stop  offset="0.2122" style="stop-color:#EFF0F0"/>
			<stop  offset="0.312" style="stop-color:#FBFBFB"/>
			<stop  offset="0.4127" style="stop-color:#FFFFFF"/>
			<stop  offset="0.6981" style="stop-color:#FDFDFD"/>
			<stop  offset="0.8009" style="stop-color:#F6F7F7"/>
			<stop  offset="0.8742" style="stop-color:#EBEBEC"/>
			<stop  offset="0.9334" style="stop-color:#DADBDC"/>
			<stop  offset="0.9836" style="stop-color:#C4C6C7"/>
			<stop  offset="1" style="stop-color:#BBBDBF"/>
		</linearGradient>
		<path id="XMLID_58_" class="st0" d="M130.9,65c0-35.9-29.3-65-65.5-65C29.3,0,0,29.1,0,65c0,35.9,29.3,65,65.5,65
			C101.6,130.1,130.9,100.9,130.9,65z"/>
		<linearGradient id="XMLID_60_" gradientUnits="userSpaceOnUse" x1="7.2885" y1="65.0257" x2="123.6443" y2="65.0257">
			<stop  offset="0" style="stop-color:#2B388F"/>
			<stop  offset="1" style="stop-color:#26A9E0"/>
		</linearGradient>
		<path id="XMLID_57_" class="st1" d="M123.6,65c0-31.9-26-57.8-58.2-57.8S7.3,33.1,7.3,65c0,31.9,26,57.8,58.2,57.8
			S123.6,96.9,123.6,65z"/>
	</g>
	<g id="XMLID_20_">
		<path id="XMLID_54_" class="st2" d="M19.6,48.8v-1.1l1-0.9c1.7-1.6,2.6-2.5,2.6-3.4c0-0.7-0.4-1.2-1.3-1.2c-0.7,0-1.3,0.3-1.7,0.7
			l-0.5-1.3c0.6-0.5,1.5-0.8,2.6-0.8c1.8,0,2.8,1.1,2.8,2.5c0,1.3-1,2.4-2.1,3.4l-0.7,0.6v0h3v1.5H19.6z"/>
		<path id="XMLID_52_" class="st2" d="M30.4,42.8l0.5,2.5c0.1,0.6,0.2,1.3,0.3,2h0c0.1-0.7,0.3-1.4,0.4-2l0.6-2.5h1.5l0.6,2.4
			c0.2,0.7,0.3,1.3,0.4,2h0c0.1-0.7,0.2-1.4,0.3-2l0.5-2.4h1.8l-1.8,6h-1.8l-0.6-2.1c-0.1-0.6-0.3-1.1-0.4-1.9h0
			c-0.1,0.7-0.2,1.3-0.4,1.9L32,48.8h-1.8l-1.7-6H30.4z"/>
		<path id="XMLID_49_" class="st2" d="M39.7,46.4c0.1,0.8,0.8,1.1,1.7,1.1c0.6,0,1.2-0.1,1.7-0.2l0.2,1.3c-0.6,0.2-1.4,0.4-2.2,0.4
			c-2,0-3.2-1.2-3.2-3.1c0-1.5,0.9-3.2,3-3.2c1.9,0,2.7,1.5,2.7,3c0,0.3,0,0.6-0.1,0.7H39.7z M41.9,45.2c0-0.5-0.2-1.2-1.1-1.2
			c-0.8,0-1.1,0.7-1.2,1.2H41.9z"/>
		<path id="XMLID_46_" class="st2" d="M46.1,46.4c0.1,0.8,0.8,1.1,1.7,1.1c0.6,0,1.2-0.1,1.7-0.2l0.2,1.3c-0.6,0.2-1.4,0.4-2.2,0.4
			c-2,0-3.2-1.2-3.2-3.1c0-1.5,0.9-3.2,3-3.2c1.9,0,2.7,1.5,2.7,3c0,0.3,0,0.6-0.1,0.7H46.1z M48.3,45.2c0-0.5-0.2-1.2-1.1-1.2
			c-0.8,0-1.1,0.7-1.2,1.2H48.3z"/>
		<path id="XMLID_44_" class="st2" d="M53,45.4L53,45.4c0.2-0.2,0.3-0.5,0.5-0.7l1.2-1.8H57l-2.1,2.4l2.5,3.6H55l-1.4-2.5L53,47v1.9
			h-1.9v-8.7H53V45.4z"/>
		<path id="XMLID_42_" class="st2" d="M57.8,47.2c0.3,0.2,1.1,0.5,1.6,0.5c0.6,0,0.8-0.2,0.8-0.5s-0.2-0.5-0.9-0.7
			c-1.2-0.4-1.7-1.1-1.7-1.8c0-1.1,1-2,2.4-2c0.7,0,1.3,0.2,1.7,0.3l-0.3,1.3c-0.3-0.1-0.8-0.3-1.3-0.3c-0.5,0-0.7,0.2-0.7,0.5
			c0,0.3,0.2,0.4,1,0.7c1.1,0.4,1.6,1,1.6,1.9c0,1.1-0.9,1.9-2.6,1.9c-0.8,0-1.5-0.2-1.9-0.4L57.8,47.2z"/>
		<path id="XMLID_39_" class="st2" d="M67.6,41.2c0,0.5-0.4,0.9-1,0.9c-0.6,0-1-0.4-1-0.9c0-0.5,0.4-0.9,1-0.9S67.6,40.6,67.6,41.2z
			 M65.6,48.8v-6h1.9v6H65.6z"/>
		<path id="XMLID_37_" class="st2" d="M69,44.8c0-0.7,0-1.4,0-1.9h1.6l0.1,0.8h0c0.2-0.4,0.9-1,1.9-1c1.2,0,2.1,0.8,2.1,2.6v3.6
			h-1.9v-3.3c0-0.8-0.3-1.3-0.9-1.3c-0.5,0-0.8,0.4-0.9,0.7c0,0.1-0.1,0.3-0.1,0.5v3.5H69V44.8z"/>
		<path id="XMLID_35_" class="st2" d="M78.2,41.1v1.7h1.3v1.4h-1.3v2.2c0,0.7,0.2,1.1,0.7,1.1c0.2,0,0.4,0,0.6,0l0,1.4
			c-0.2,0.1-0.7,0.2-1.2,0.2c-0.6,0-1.1-0.2-1.4-0.5c-0.3-0.4-0.5-0.9-0.5-1.8v-2.5h-0.8v-1.4h0.8v-1.3L78.2,41.1z"/>
		<path id="XMLID_32_" class="st2" d="M82,46.4c0.1,0.8,0.8,1.1,1.7,1.1c0.6,0,1.2-0.1,1.7-0.2l0.2,1.3C85,48.8,84.2,49,83.4,49
			c-2,0-3.2-1.2-3.2-3.1c0-1.5,0.9-3.2,3-3.2c1.9,0,2.7,1.5,2.7,3c0,0.3,0,0.6-0.1,0.7H82z M84.2,45.2c0-0.5-0.2-1.2-1.1-1.2
			c-0.8,0-1.1,0.7-1.2,1.2H84.2z"/>
		<path id="XMLID_30_" class="st2" d="M87.1,44.8c0-0.9,0-1.5,0-2h1.6l0.1,1.1h0c0.3-0.9,1-1.2,1.6-1.2c0.2,0,0.3,0,0.4,0v1.8
			c-0.1,0-0.3,0-0.5,0c-0.7,0-1.2,0.4-1.3,0.9c0,0.1,0,0.3,0,0.4v3h-1.9V44.8z"/>
		<path id="XMLID_28_" class="st2" d="M93.3,42.8l0.8,2.8c0.1,0.5,0.3,1,0.3,1.5h0c0.1-0.5,0.2-0.9,0.3-1.5l0.8-2.8h2l-2.2,6h-1.9
			l-2.2-6H93.3z"/>
		<path id="XMLID_25_" class="st2" d="M101.8,48.8l-0.1-0.6h0c-0.4,0.5-1,0.7-1.7,0.7c-1.2,0-1.9-0.9-1.9-1.8c0-1.6,1.4-2.3,3.5-2.3
			v-0.1c0-0.3-0.2-0.8-1.1-0.8c-0.6,0-1.3,0.2-1.7,0.5l-0.3-1.2c0.4-0.2,1.2-0.5,2.3-0.5c2,0,2.6,1.2,2.6,2.6v2.1
			c0,0.6,0,1.1,0.1,1.5H101.8z M101.5,46c-1,0-1.7,0.2-1.7,0.9c0,0.5,0.3,0.7,0.7,0.7c0.5,0,0.8-0.3,1-0.7c0-0.1,0-0.2,0-0.3V46z"/>
		<path id="XMLID_23_" class="st2" d="M104.8,40.1h1.9v8.7h-1.9V40.1z"/>
		<path id="XMLID_21_" class="st2" d="M112,41.1l-1.3,1.6l0,0l2-0.4v1.2l-2-0.3l0,0l1.3,1.5l-1.1,0.6l-0.7-1.9l0,0l-0.7,1.9
			l-1.1-0.6l1.3-1.5v0l-1.9,0.4v-1.2l1.9,0.4l0,0l-1.3-1.5l1.1-0.6l0.7,1.9h0l0.7-1.9L112,41.1z"/>
	</g>
	<g id="XMLID_2_">
		<g id="XMLID_5_">
			<path id="XMLID_17_" class="st2" d="M84.9,69.7c0,6.8-2.8,11.5-8.4,11.5c-5.7,0-8.3-5.1-8.3-11.3c0-6.4,2.7-11.4,8.5-11.4
				C82.6,58.5,84.9,63.7,84.9,69.7z M73.4,69.9c0,5,1.2,7.4,3.2,7.4c2,0,3.1-2.5,3.1-7.5c0-4.9-1.1-7.4-3.1-7.4
				C74.7,62.4,73.4,64.8,73.4,69.9z"/>
			<path id="XMLID_14_" class="st2" d="M45.8,69.2c0,6.8-2.8,11.5-8.4,11.5c-5.7,0-8.3-5.1-8.3-11.3c0-6.4,2.7-11.4,8.5-11.4
				C43.5,57.9,45.8,63.1,45.8,69.2z M34.3,69.3c0,5,1.2,7.4,3.2,7.4c2,0,3.1-2.5,3.1-7.5c0-4.9-1.1-7.4-3.1-7.4
				C35.6,61.8,34.3,64.2,34.3,69.3z"/>
			<path id="XMLID_11_" class="st2" d="M64.8,69.2c0,6.8-2.8,11.5-8.4,11.5c-5.7,0-8.3-5.1-8.3-11.3c0-6.4,2.7-11.4,8.5-11.4
				C62.4,57.9,64.8,63.1,64.8,69.2z M53.3,69.3c0,5,1.2,7.4,3.2,7.4c2,0,3.1-2.5,3.1-7.5c0-4.9-1.1-7.4-3.1-7.4
				C54.5,61.8,53.2,64.2,53.3,69.3z"/>
			<path id="XMLID_9_" class="st2" d="M88.6,73.1c0-1.2,0-2.2-0.1-3.1H91l0.1,1.3h0.1c0.4-0.6,1.3-1.5,2.9-1.5
				c1.2,0,2.2,0.6,2.7,1.6h0c0.4-0.5,0.8-0.9,1.3-1.2c0.5-0.3,1.1-0.5,1.9-0.5c1.9,0,3.3,1.3,3.3,4.2v5.7h-2.9v-5.2
				c0-1.4-0.5-2.2-1.4-2.2c-0.7,0-1.2,0.5-1.4,1c-0.1,0.2-0.1,0.5-0.1,0.8v5.6h-2.9v-5.4c0-1.2-0.4-2-1.4-2c-0.8,0-1.2,0.6-1.4,1.1
				c-0.1,0.2-0.1,0.5-0.1,0.7v5.6h-2.9V73.1z"/>
			<path id="XMLID_6_" class="st2" d="M114.9,70.1c0,0.6-0.1,1.4-0.1,2.9v5.4c0,1.8-0.4,3.4-1.5,4.3c-1.1,0.9-2.5,1.2-4,1.2
				c-1.3,0-2.6-0.3-3.5-0.7l0.6-2.3c0.6,0.4,1.7,0.7,2.8,0.7c1.4,0,2.5-0.8,2.5-2.5v-0.6h0c-0.6,0.8-1.5,1.3-2.6,1.3
				c-2.4,0-4.1-1.9-4.1-4.7c0-3.1,2-5.1,4.4-5.1c1.3,0,2.2,0.6,2.7,1.4h0l0.1-1.1H114.9z M111.8,74c0-0.2,0-0.4-0.1-0.5
				c-0.2-0.8-0.8-1.3-1.6-1.3c-1.1,0-2,1-2,2.7c0,1.4,0.7,2.6,2,2.6c0.8,0,1.4-0.5,1.6-1.2c0.1-0.2,0.1-0.5,0.1-0.8V74z"/>
		</g>
		<path id="XMLID_3_" class="st2" d="M12.1,80.1v-2.8l2.6-2.3c4.4-3.9,6.6-6.2,6.6-8.5c0-1.6-1-2.9-3.3-2.9c-1.7,0-3.3,0.9-4.3,1.7
			l-1.3-3.4c1.5-1.1,3.9-2.1,6.6-2.1c4.6,0,7.1,2.7,7.1,6.3c0,3.4-2.5,6.1-5.4,8.6l-1.9,1.5v0.1h7.6v3.9H12.1z"/>
	</g>
</g>
</svg>
