<!-- Generator: Adobe Illustrator 22.1.0, SVG Export Plug-In  -->
<svg version="1.1"
	 xmlns="http://www.w3.org/2000/svg" xmlns:xlink="http://www.w3.org/1999/xlink" xmlns:a="http://ns.adobe.com/AdobeSVGViewerExtensions/3.0/"
	 x="0px" y="0px" width="99.4px" height="30.6px" viewBox="0 0 99.4 30.6" style="enable-background:new 0 0 99.4 30.6;"
	 xml:space="preserve">
<style type="text/css">
	.st0{fill:#266093;}
</style>
<defs>
</defs>
<path id="XMLID_14_" class="st0" d="M18.9,12.5c0,2-0.3,3.8-1,5.3c-0.7,1.5-1.6,2.7-2.7,3.6c-1.1,0.9-2.4,1.6-3.8,2.1
	C9.9,24,8.5,24.2,7,24.2H0V0.9h7.3c1.7,0,3.2,0.2,4.6,0.6c1.4,0.4,2.6,1.1,3.7,2c1,0.9,1.8,2.1,2.4,3.6
	C18.6,8.6,18.9,10.4,18.9,12.5z M14.1,12.5c0-2.4-0.5-4.2-1.6-5.4C11.4,6,9.6,5.4,7.1,5.4H4.7v14.3H7c1.2,0,2.3-0.2,3.2-0.5
	c0.9-0.3,1.6-0.8,2.2-1.5c0.6-0.6,1-1.4,1.3-2.3S14.1,13.6,14.1,12.5z"/>
<path id="XMLID_11_" class="st0" d="M37.2,15.5c0,1.3-0.2,2.6-0.6,3.7c-0.4,1.1-1,2.1-1.7,2.9s-1.5,1.4-2.5,1.9
	c-1,0.4-2,0.7-3.2,0.7c-1.1,0-2.2-0.2-3.2-0.7s-1.8-1.1-2.5-1.9s-1.3-1.8-1.7-2.9c-0.4-1.1-0.6-2.4-0.6-3.7c0-1.3,0.2-2.6,0.6-3.7
	c0.4-1.1,1-2.1,1.7-2.9c0.7-0.8,1.5-1.4,2.5-1.9c1-0.4,2-0.7,3.2-0.7c1.1,0,2.2,0.2,3.2,0.7c1,0.4,1.8,1.1,2.5,1.9
	c0.7,0.8,1.3,1.8,1.7,2.9C37,12.9,37.2,14.1,37.2,15.5z M32.5,15.5c0-1.3-0.3-2.5-0.8-3.4c-0.5-0.9-1.4-1.4-2.5-1.4
	s-1.9,0.4-2.5,1.3c-0.5,0.9-0.8,2-0.8,3.4s0.3,2.5,0.8,3.4c0.5,0.9,1.3,1.3,2.5,1.3c0.6,0,1-0.1,1.5-0.4c0.4-0.3,0.8-0.6,1-1
	s0.5-0.9,0.6-1.5C32.4,16.7,32.5,16.1,32.5,15.5z"/>
<path id="XMLID_9_" class="st0" d="M54,19.1c0,1-0.2,1.8-0.6,2.5s-0.9,1.3-1.5,1.7c-0.6,0.4-1.4,0.7-2.3,0.9
	c-0.9,0.2-1.8,0.3-2.8,0.3c-1.4,0-2.7-0.2-4-0.6c-1.3-0.4-2.4-0.9-3.3-1.5l1.5-3.5c0.9,0.5,1.9,0.9,2.9,1.2c1,0.3,2.1,0.4,3.2,0.4
	c0.9,0,1.5-0.1,1.9-0.3c0.3-0.2,0.5-0.6,0.5-1c0-0.4-0.2-0.7-0.5-1c-0.4-0.2-1-0.5-2-0.8c-1-0.3-2-0.6-2.9-1
	c-0.9-0.3-1.6-0.7-2.2-1.1c-0.6-0.4-1.1-1-1.4-1.6c-0.3-0.6-0.5-1.4-0.5-2.3c0-0.9,0.2-1.7,0.5-2.3C40.9,8.5,41.3,8,42,7.6
	c0.6-0.4,1.4-0.7,2.2-0.9S46,6.3,47,6.3c1.1,0,2.2,0.2,3.4,0.5c1.1,0.3,2.2,0.7,3.1,1.2L52,11.7c-0.9-0.5-1.8-0.8-2.7-1.1
	c-0.9-0.2-1.7-0.3-2.5-0.3c-0.9,0-1.6,0.1-1.9,0.3c-0.3,0.2-0.5,0.5-0.5,0.9c0,0.2,0,0.3,0.1,0.5s0.3,0.3,0.5,0.4s0.6,0.3,1.1,0.5
	c0.5,0.2,1.1,0.4,1.9,0.6c0.8,0.3,1.5,0.5,2.2,0.8c0.7,0.3,1.3,0.6,1.9,1.1c0.5,0.4,1,0.9,1.3,1.6C53.9,17.5,54,18.2,54,19.1z"/>
<path id="XMLID_6_" class="st0" d="M62.6,2.6c0,0.7-0.3,1.3-0.8,1.9S60.7,5.3,60,5.3c-0.7,0-1.3-0.3-1.9-0.8
	c-0.5-0.5-0.8-1.1-0.8-1.9c0-0.7,0.3-1.3,0.8-1.8C58.6,0.3,59.3,0,60,0c0.7,0,1.3,0.3,1.8,0.8S62.6,1.9,62.6,2.6z M57.7,24.2V6.7
	h4.6v17.5H57.7z"/>
<path id="XMLID_4_" class="st0" d="M76.9,24.2v-9.5c0-1.6-0.3-2.6-0.8-3.2c-0.5-0.6-1.2-0.9-2.2-0.9c-1,0-1.7,0.3-2.2,0.8
	c-0.5,0.6-0.8,1.6-0.8,3.1v9.6h-4.6V6.7h4.6v1.2c0.4-0.4,1-0.8,1.7-1.1c0.7-0.3,1.5-0.5,2.5-0.5c2.2,0,3.9,0.7,4.9,2.2
	c1,1.4,1.6,3.4,1.6,5.9v9.9H76.9z"/>
<path id="XMLID_1_" class="st0" d="M99.4,21.2c0,1.4-0.1,2.7-0.3,3.8c-0.2,1.1-0.6,2-1.2,2.8s-1.3,1.4-2.3,1.9
	c-1,0.5-2.2,0.8-3.8,0.9l-1.6-3.5c0.9-0.1,1.6-0.3,2.2-0.5s1.1-0.4,1.4-0.7s0.6-0.7,0.7-1.2c0.1-0.5,0.2-1,0.2-1.7
	c-0.4,0.4-1,0.7-1.5,1c-0.6,0.3-1.3,0.5-2.2,0.5c-0.9,0-1.8-0.2-2.6-0.5c-0.8-0.4-1.5-0.9-2.2-1.7c-0.6-0.8-1.1-1.7-1.5-2.9
	c-0.4-1.2-0.5-2.6-0.5-4.2c0-1.3,0.1-2.5,0.4-3.6c0.3-1.1,0.7-2,1.3-2.8C86.7,8,87.4,7.4,88.2,7c0.8-0.4,1.8-0.6,2.9-0.6
	c0.8,0,1.5,0.1,2.1,0.4c0.6,0.3,1.2,0.6,1.6,1v-1h4.6V21.2z M94.8,12.2c-0.7-1-1.8-1.5-3.1-1.5c-1.8,0-2.7,1.5-2.7,4.5
	c0,1.8,0.3,3.1,0.8,3.9c0.5,0.8,1.3,1.2,2.2,1.2c0.7,0,1.3-0.1,1.7-0.4c0.4-0.3,0.8-0.6,1.1-1.1V12.2z"/>
</svg>
