<!-- Generator: Adobe Illustrator 22.1.0, SVG Export Plug-In  -->
<svg version="1.1"
	 xmlns="http://www.w3.org/2000/svg" xmlns:xlink="http://www.w3.org/1999/xlink" xmlns:a="http://ns.adobe.com/AdobeSVGViewerExtensions/3.0/"
	 x="0px" y="0px" width="887.7px" height="48.9px" viewBox="0 0 887.7 48.9" style="enable-background:new 0 0 887.7 48.9;"
	 xml:space="preserve">
<style type="text/css">
	.st0{fill:#236092;}
	.st1{fill:#522D6D;}
</style>
<defs>
</defs>
<g id="XMLID_1_">
	<g id="XMLID_3_">
		<path id="XMLID_376_" class="st0" d="M13.3,12.4c0,0.8-0.1,1.5-0.4,2.2c-0.3,0.7-0.7,1.2-1.2,1.7c-0.5,0.5-1.2,0.8-2.1,1.1
			s-1.8,0.4-3,0.4c-1.4,0-2.7-0.3-3.8-0.8c-1.2-0.5-2.1-1.3-2.7-2.2l2.4-2.2c0.6,0.7,1.3,1.2,2,1.5c0.7,0.3,1.5,0.4,2.3,0.4
			c1,0,1.8-0.1,2.2-0.4c0.5-0.3,0.7-0.8,0.7-1.4c0-0.3,0-0.5-0.1-0.7c-0.1-0.2-0.3-0.4-0.5-0.6s-0.6-0.3-1.1-0.5
			c-0.5-0.2-1.1-0.3-1.9-0.5C5.3,10.2,4.5,10,3.9,9.8C3.2,9.5,2.7,9.2,2.2,8.9C1.8,8.5,1.4,8,1.1,7.5C0.9,6.9,0.8,6.2,0.8,5.4
			c0-0.8,0.2-1.5,0.5-2.1C1.5,2.7,2,2.2,2.5,1.7s1.2-0.7,1.9-1c0.7-0.2,1.5-0.3,2.3-0.3c1.3,0,2.5,0.2,3.5,0.7
			c1,0.5,1.9,1.1,2.7,1.9l-2.4,2.4c-0.5-0.6-1.1-1-1.7-1.3C8.1,3.9,7.4,3.7,6.7,3.7c-0.4,0-0.8,0-1.1,0.1C5.2,3.9,5,4,4.8,4.2
			C4.6,4.3,4.4,4.5,4.4,4.7C4.3,4.8,4.2,5,4.2,5.2c0,0.3,0.1,0.5,0.2,0.7c0.1,0.2,0.3,0.3,0.5,0.5c0.3,0.1,0.6,0.3,1,0.4
			c0.4,0.1,1,0.3,1.7,0.4c0.7,0.2,1.3,0.3,2,0.6c0.7,0.2,1.3,0.5,1.8,0.9c0.5,0.4,1,0.9,1.3,1.5C13.1,10.8,13.3,11.5,13.3,12.4z"/>
		<path id="XMLID_374_" class="st0" d="M23.3,17c-0.3,0.2-0.6,0.4-1.1,0.6c-0.5,0.1-1,0.2-1.5,0.2c-0.5,0-1-0.1-1.4-0.3
			s-0.8-0.4-1.1-0.8c-0.3-0.3-0.5-0.7-0.7-1.2c-0.2-0.5-0.2-1-0.2-1.5V8h-2.1V4.9h2.1V1.7L20.7,0v4.9h3V8h-3v5.1
			c0,0.6,0.1,1,0.3,1.2c0.2,0.2,0.5,0.3,0.9,0.3c0.3,0,0.6-0.1,0.9-0.2c0.3-0.1,0.6-0.4,1-0.7L23.3,17z"/>
		<path id="XMLID_372_" class="st0" d="M34.4,17.5v-0.8c-0.3,0.3-0.7,0.6-1.2,0.8c-0.5,0.2-1.1,0.3-1.8,0.3c-1.6,0-2.8-0.5-3.5-1.6
			s-1.1-2.4-1.1-4.2V4.9h3.3v6.8c0,0.6,0,1,0.1,1.4c0.1,0.4,0.2,0.7,0.4,0.9c0.2,0.2,0.4,0.4,0.7,0.5s0.6,0.1,0.9,0.1
			c0.7,0,1.2-0.2,1.6-0.6c0.4-0.4,0.6-1.2,0.6-2.2V4.9h3.3v12.6H34.4z"/>
		<path id="XMLID_369_" class="st0" d="M47.9,17.5v-0.8c-0.3,0.3-0.7,0.5-1.1,0.7s-0.9,0.3-1.6,0.3c-0.7,0-1.3-0.1-1.9-0.4
			c-0.6-0.3-1.1-0.7-1.6-1.2c-0.4-0.6-0.8-1.3-1.1-2.1c-0.3-0.8-0.4-1.9-0.4-3c0-0.9,0.1-1.8,0.3-2.6s0.5-1.5,0.9-2
			c0.4-0.6,0.9-1,1.5-1.3c0.6-0.3,1.3-0.5,2.1-0.5c0.6,0,1.1,0.1,1.5,0.3s0.8,0.4,1.1,0.7v-4L51.2,0v17.5H47.9z M47.9,8.9
			c-0.5-0.7-1.3-1.1-2.2-1.1c-1.3,0-2,1.1-2,3.2c0,1.3,0.2,2.2,0.6,2.8c0.4,0.6,0.9,0.9,1.6,0.9c0.5,0,0.9-0.1,1.2-0.3
			c0.3-0.2,0.6-0.4,0.8-0.8V8.9z"/>
		<path id="XMLID_367_" class="st0" d="M59.9,22h-3.3l1.7-4.4L53.5,4.9h3.7l2.1,6.1c0.2,0.5,0.3,1,0.5,1.5c0.1,0.5,0.3,0.9,0.3,1.3
			c0.1-0.3,0.2-0.7,0.3-1.3c0.1-0.5,0.3-1,0.5-1.5l2.1-6.1h3.6L59.9,22z"/>
		<path id="XMLID_364_" class="st0" d="M82.5,17.5v-0.8c-0.3,0.3-0.7,0.5-1.1,0.7s-0.9,0.3-1.6,0.3c-0.7,0-1.3-0.1-1.9-0.4
			c-0.6-0.3-1.1-0.7-1.6-1.2c-0.4-0.6-0.8-1.3-1.1-2.1c-0.3-0.8-0.4-1.9-0.4-3c0-0.9,0.1-1.8,0.3-2.6s0.5-1.5,0.9-2
			c0.4-0.6,0.9-1,1.5-1.3c0.6-0.3,1.3-0.5,2.1-0.5c0.6,0,1.1,0.1,1.5,0.3s0.8,0.4,1.1,0.7v-4L85.9,0v17.5H82.5z M82.5,8.9
			c-0.5-0.7-1.3-1.1-2.2-1.1c-1.3,0-2,1.1-2,3.2c0,1.3,0.2,2.2,0.6,2.8c0.4,0.6,0.9,0.9,1.6,0.9c0.5,0,0.9-0.1,1.2-0.3
			c0.3-0.2,0.6-0.4,0.8-0.8V8.9z"/>
		<path id="XMLID_361_" class="st0" d="M99.4,11.2c0,0.2,0,0.4,0,0.6c0,0.2,0,0.3,0,0.4h-7.6c0,0.4,0.1,0.8,0.3,1.1
			c0.2,0.3,0.4,0.5,0.6,0.7c0.2,0.2,0.5,0.3,0.8,0.4c0.3,0.1,0.6,0.1,0.9,0.1c0.5,0,0.9-0.1,1.3-0.2c0.4-0.2,0.7-0.4,0.9-0.6l2.4,2
			c-0.5,0.7-1.2,1.2-2,1.5s-1.7,0.5-2.5,0.5c-0.9,0-1.7-0.2-2.5-0.5c-0.7-0.3-1.3-0.8-1.9-1.3c-0.5-0.6-0.9-1.3-1.2-2.1
			c-0.3-0.8-0.4-1.7-0.4-2.7c0-1,0.1-1.8,0.4-2.7c0.3-0.8,0.7-1.5,1.2-2.1c0.5-0.6,1.1-1,1.8-1.4s1.4-0.5,2.2-0.5
			c0.8,0,1.6,0.2,2.2,0.5C97,5.5,97.6,6,98,6.6c0.4,0.6,0.8,1.3,1,2.1C99.3,9.5,99.4,10.3,99.4,11.2z M96.2,9.8
			c0-0.3-0.1-0.6-0.2-0.8c-0.1-0.3-0.2-0.5-0.4-0.7s-0.4-0.4-0.7-0.5c-0.3-0.1-0.6-0.2-1-0.2c-0.6,0-1.1,0.2-1.5,0.6
			c-0.4,0.4-0.6,1-0.6,1.6H96.2z"/>
		<path id="XMLID_359_" class="st0" d="M112.1,13.9c0,0.7-0.1,1.3-0.4,1.8s-0.6,0.9-1.1,1.2c-0.5,0.3-1,0.5-1.6,0.7
			c-0.6,0.1-1.3,0.2-2,0.2c-1,0-2-0.1-2.9-0.4c-0.9-0.3-1.7-0.6-2.4-1.1l1.1-2.5c0.7,0.4,1.4,0.7,2.1,0.9c0.7,0.2,1.5,0.3,2.3,0.3
			c0.7,0,1.1-0.1,1.3-0.2c0.2-0.2,0.3-0.4,0.3-0.7c0-0.3-0.1-0.5-0.4-0.7c-0.3-0.2-0.8-0.4-1.5-0.6c-0.8-0.2-1.4-0.5-2.1-0.7
			c-0.6-0.2-1.1-0.5-1.6-0.8c-0.4-0.3-0.8-0.7-1-1.1c-0.2-0.4-0.3-1-0.3-1.7c0-0.7,0.1-1.2,0.4-1.7c0.2-0.5,0.6-0.9,1-1.2
			c0.4-0.3,1-0.5,1.6-0.7c0.6-0.1,1.3-0.2,2-0.2c0.8,0,1.6,0.1,2.4,0.3c0.8,0.2,1.6,0.5,2.2,0.9l-1.1,2.6c-0.6-0.3-1.3-0.6-1.9-0.8
			c-0.6-0.2-1.2-0.3-1.8-0.3c-0.7,0-1.1,0.1-1.4,0.2c-0.2,0.1-0.3,0.3-0.3,0.6c0,0.1,0,0.2,0.1,0.3c0.1,0.1,0.2,0.2,0.4,0.3
			c0.2,0.1,0.4,0.2,0.8,0.3c0.3,0.1,0.8,0.3,1.4,0.5c0.6,0.2,1.1,0.4,1.6,0.6s1,0.5,1.3,0.8s0.7,0.7,0.9,1.1
			C111.9,12.7,112.1,13.2,112.1,13.9z"/>
		<path id="XMLID_356_" class="st0" d="M118.7,2c0,0.5-0.2,1-0.6,1.3c-0.4,0.4-0.8,0.6-1.3,0.6c-0.5,0-1-0.2-1.3-0.6
			c-0.4-0.4-0.6-0.8-0.6-1.3s0.2-1,0.6-1.3c0.4-0.4,0.8-0.6,1.3-0.6c0.5,0,1,0.2,1.3,0.6C118.5,1,118.7,1.5,118.7,2z M115.1,17.5
			V4.9h3.3v12.6H115.1z"/>
		<path id="XMLID_353_" class="st0" d="M132,15.4c0,1-0.1,2-0.2,2.8c-0.2,0.8-0.4,1.5-0.8,2s-1,1-1.7,1.3c-0.7,0.3-1.6,0.6-2.7,0.7
			l-1.2-2.5c0.6-0.1,1.2-0.2,1.6-0.3c0.4-0.1,0.8-0.3,1-0.5c0.3-0.2,0.4-0.5,0.5-0.8c0.1-0.3,0.1-0.7,0.1-1.2
			c-0.3,0.3-0.7,0.5-1.1,0.7s-0.9,0.3-1.6,0.3c-0.7,0-1.3-0.1-1.9-0.4c-0.6-0.3-1.1-0.7-1.6-1.2c-0.4-0.6-0.8-1.3-1.1-2.1
			c-0.3-0.8-0.4-1.9-0.4-3c0-0.9,0.1-1.8,0.3-2.6s0.5-1.5,0.9-2c0.4-0.6,0.9-1,1.5-1.3c0.6-0.3,1.3-0.5,2.1-0.5
			c0.6,0,1.1,0.1,1.5,0.3s0.8,0.4,1.1,0.7V4.9h3.3V15.4z M128.7,8.9c-0.5-0.7-1.3-1.1-2.2-1.1c-1.3,0-2,1.1-2,3.2
			c0,1.3,0.2,2.2,0.6,2.8c0.4,0.6,0.9,0.9,1.6,0.9c0.5,0,0.9-0.1,1.2-0.3c0.3-0.2,0.6-0.4,0.8-0.8V8.9z"/>
		<path id="XMLID_351_" class="st0" d="M142.9,17.5v-6.8c0-1.1-0.2-1.9-0.6-2.3c-0.4-0.4-0.9-0.6-1.6-0.6s-1.2,0.2-1.6,0.6
			c-0.4,0.4-0.6,1.2-0.6,2.2v6.9h-3.3V4.9h3.3v0.8c0.3-0.3,0.7-0.6,1.2-0.8c0.5-0.2,1.1-0.3,1.8-0.3c1.6,0,2.8,0.5,3.5,1.6
			c0.8,1,1.1,2.4,1.1,4.2v7.1H142.9z"/>
		<path id="XMLID_348_" class="st0" d="M153.3,6.9c0,0.3-0.1,0.6-0.2,0.9c-0.1,0.3-0.3,0.5-0.5,0.7c-0.2,0.2-0.4,0.4-0.7,0.5
			c-0.3,0.1-0.6,0.2-0.9,0.2s-0.6-0.1-0.9-0.2c-0.3-0.1-0.5-0.3-0.7-0.5c-0.2-0.2-0.4-0.4-0.5-0.7s-0.2-0.6-0.2-0.9
			c0-0.3,0.1-0.6,0.2-0.9c0.1-0.3,0.3-0.5,0.5-0.7c0.2-0.2,0.4-0.4,0.7-0.5s0.6-0.2,0.9-0.2s0.6,0.1,0.9,0.2s0.5,0.3,0.7,0.5
			c0.2,0.2,0.4,0.4,0.5,0.7C153.2,6.3,153.3,6.6,153.3,6.9z M153.3,15.5c0,0.3-0.1,0.6-0.2,0.9c-0.1,0.3-0.3,0.5-0.5,0.7
			c-0.2,0.2-0.4,0.4-0.7,0.5c-0.3,0.1-0.6,0.2-0.9,0.2s-0.6-0.1-0.9-0.2c-0.3-0.1-0.5-0.3-0.7-0.5c-0.2-0.2-0.4-0.4-0.5-0.7
			c-0.1-0.3-0.2-0.6-0.2-0.9c0-0.3,0.1-0.6,0.2-0.9c0.1-0.3,0.3-0.5,0.5-0.7c0.2-0.2,0.4-0.4,0.7-0.5c0.3-0.1,0.6-0.2,0.9-0.2
			s0.6,0.1,0.9,0.2c0.3,0.1,0.5,0.3,0.7,0.5c0.2,0.2,0.4,0.4,0.5,0.7C153.2,14.9,153.3,15.2,153.3,15.5z"/>
		<path id="XMLID_346_" class="st1" d="M170.5,17.5V4.9h-2.9V3.8c0.9-0.1,1.6-0.2,2.2-0.5c0.6-0.3,0.9-0.8,1.1-1.5h1.3v15.7H170.5z"
			/>
		<path id="XMLID_343_" class="st1" d="M187.1,12.7c0,0.8-0.1,1.6-0.4,2.2s-0.7,1.2-1.2,1.6c-0.5,0.4-1.1,0.8-1.8,1
			s-1.5,0.3-2.3,0.3c-0.8,0-1.5-0.1-2.2-0.3c-0.7-0.2-1.3-0.6-1.8-1.1c-0.5-0.5-0.9-1.1-1.2-1.9c-0.3-0.8-0.4-1.7-0.4-2.9
			c0-0.7,0.1-1.4,0.2-2.1c0.1-0.7,0.3-1.5,0.6-2.2c0.3-0.7,0.7-1.4,1.1-2.1c0.5-0.7,1-1.2,1.7-1.8c0.7-0.5,1.5-0.9,2.3-1.3
			c0.9-0.3,1.9-0.5,3.1-0.6v1.6c-2.1,0.2-3.7,0.8-5,1.9s-2,2.7-2.5,4.7c0.5-0.5,1.1-1,1.8-1.3c0.7-0.3,1.6-0.5,2.7-0.5
			c0.7,0,1.4,0.1,2,0.3c0.6,0.2,1.2,0.5,1.7,0.9c0.5,0.4,0.8,0.9,1.1,1.5S187.1,11.9,187.1,12.7z M185.4,12.8c0-1.1-0.3-1.9-1-2.5
			s-1.7-0.9-2.9-0.9c-1.3,0-2.3,0.3-3,0.9s-1.1,1.4-1.1,2.4c0,0.5,0.1,0.9,0.3,1.4c0.2,0.4,0.5,0.8,0.8,1.1c0.4,0.3,0.8,0.5,1.3,0.7
			c0.5,0.2,1,0.3,1.6,0.3c1.3,0,2.3-0.3,3-1C185.1,14.6,185.4,13.8,185.4,12.8z"/>
		<path id="XMLID_341_" class="st1" d="M208.8,17.5h-2l-2.5-10.1c-0.1-0.3-0.1-0.5-0.2-0.9c-0.1-0.3-0.1-0.6-0.2-0.9
			c-0.1-0.3-0.1-0.6-0.2-0.9c-0.1-0.3-0.1-0.6-0.2-0.8c0,0.2-0.1,0.5-0.2,0.8s-0.1,0.6-0.2,0.9c-0.1,0.3-0.1,0.6-0.2,0.9
			c-0.1,0.3-0.1,0.6-0.2,0.9l-2.5,10.1h-1.9l-3.1-15.7h1.8l1.8,10.1c0,0.3,0.1,0.5,0.1,0.9c0.1,0.3,0.1,0.7,0.2,1
			c0.1,0.3,0.1,0.6,0.2,0.9c0.1,0.3,0.1,0.5,0.1,0.7c0-0.2,0.1-0.4,0.1-0.7c0.1-0.3,0.1-0.6,0.2-0.9c0.1-0.3,0.1-0.6,0.2-1
			c0.1-0.3,0.1-0.6,0.2-0.9l2.5-10.2h1.9l2.5,10.2c0.1,0.3,0.1,0.5,0.2,0.9c0.1,0.3,0.1,0.6,0.2,1c0.1,0.3,0.1,0.6,0.2,0.9
			c0.1,0.3,0.1,0.5,0.1,0.7c0-0.2,0.1-0.4,0.1-0.7c0.1-0.3,0.1-0.6,0.2-0.9c0.1-0.3,0.1-0.6,0.2-1c0.1-0.3,0.1-0.6,0.1-0.9l1.8-10.1
			h1.7L208.8,17.5z"/>
		<path id="XMLID_338_" class="st1" d="M224,11.3c0,0.2,0,0.4,0,0.5c0,0.1,0,0.3-0.1,0.4h-7.8c0.1,1.3,0.4,2.3,1,3
			c0.6,0.7,1.3,1.1,2.3,1.1c0.7,0,1.3-0.1,1.7-0.3s1-0.5,1.5-0.8l0.8,1.2c-0.4,0.2-0.7,0.4-1,0.6c-0.3,0.2-0.6,0.3-1,0.4
			c-0.3,0.1-0.7,0.2-1,0.3s-0.8,0.1-1.2,0.1c-0.5,0-1.1-0.1-1.7-0.3c-0.6-0.2-1.1-0.6-1.5-1c-0.5-0.5-0.8-1.1-1.1-1.9
			c-0.3-0.8-0.5-1.8-0.5-2.9c0-0.9,0.1-1.8,0.4-2.5s0.6-1.4,1-1.9c0.4-0.5,0.9-0.9,1.5-1.2c0.6-0.3,1.2-0.4,1.9-0.4
			c0.8,0,1.4,0.1,2,0.4c0.6,0.3,1.1,0.7,1.5,1.2s0.7,1.1,0.9,1.8C223.9,9.7,224,10.4,224,11.3z M222.5,10.8
			c-0.1-1.2-0.4-2.1-0.9-2.8c-0.5-0.7-1.3-1.1-2.3-1.1c-0.9,0-1.6,0.3-2.2,1s-0.9,1.6-1,3H222.5z"/>
		<path id="XMLID_335_" class="st1" d="M236.2,11.3c0,0.2,0,0.4,0,0.5c0,0.1,0,0.3-0.1,0.4h-7.8c0.1,1.3,0.4,2.3,1,3
			c0.6,0.7,1.3,1.1,2.3,1.1c0.7,0,1.3-0.1,1.7-0.3s1-0.5,1.5-0.8l0.8,1.2c-0.4,0.2-0.7,0.4-1,0.6c-0.3,0.2-0.6,0.3-1,0.4
			c-0.3,0.1-0.7,0.2-1,0.3s-0.8,0.1-1.2,0.1c-0.5,0-1.1-0.1-1.7-0.3c-0.6-0.2-1.1-0.6-1.5-1c-0.5-0.5-0.8-1.1-1.1-1.9
			c-0.3-0.8-0.5-1.8-0.5-2.9c0-0.9,0.1-1.8,0.4-2.5s0.6-1.4,1-1.9c0.4-0.5,0.9-0.9,1.5-1.2c0.6-0.3,1.2-0.4,1.9-0.4
			c0.8,0,1.4,0.1,2,0.4c0.6,0.3,1.1,0.7,1.5,1.2s0.7,1.1,0.9,1.8C236.1,9.7,236.2,10.4,236.2,11.3z M234.6,10.8
			c-0.1-1.2-0.4-2.1-0.9-2.8c-0.5-0.7-1.3-1.1-2.3-1.1c-0.9,0-1.6,0.3-2.2,1s-0.9,1.6-1,3H234.6z"/>
		<path id="XMLID_333_" class="st1" d="M246.1,17.5l-3-6.2l-2,2.8v3.4h-1.7V2.1l1.7-0.9v10.2v0.6l0.5-0.7l3.9-5.5h1.9l-3.1,4.2
			l3.7,7.6H246.1z"/>
		<path id="XMLID_331_" class="st1" d="M258,14.5c0,0.6-0.1,1.1-0.3,1.5c-0.2,0.4-0.5,0.8-0.9,1c-0.4,0.3-0.8,0.5-1.3,0.6
			c-0.5,0.1-1,0.2-1.5,0.2c-0.8,0-1.6-0.1-2.3-0.4c-0.7-0.3-1.3-0.6-1.9-1.1l1-1.2c0.5,0.4,1,0.7,1.5,1c0.5,0.2,1.1,0.3,1.7,0.3
			c0.8,0,1.4-0.2,1.8-0.5s0.6-0.8,0.6-1.3c0-0.2,0-0.5-0.1-0.7c-0.1-0.2-0.3-0.4-0.5-0.6c-0.2-0.2-0.5-0.4-0.9-0.6
			c-0.4-0.2-0.8-0.4-1.3-0.6c-0.6-0.3-1.1-0.5-1.5-0.7c-0.4-0.2-0.8-0.5-1-0.8c-0.3-0.3-0.5-0.6-0.6-0.9s-0.2-0.7-0.2-1.2
			c0-0.4,0.1-0.9,0.3-1.2c0.2-0.4,0.4-0.7,0.8-1c0.3-0.3,0.7-0.5,1.2-0.6c0.4-0.1,0.9-0.2,1.5-0.2c0.8,0,1.5,0.1,2.2,0.3
			c0.6,0.2,1.2,0.5,1.6,0.9L256.8,8c-0.5-0.4-0.9-0.6-1.3-0.8s-1-0.3-1.6-0.3s-1.1,0.1-1.5,0.4c-0.3,0.3-0.5,0.6-0.5,1.1
			c0,0.3,0,0.5,0.1,0.7c0.1,0.2,0.2,0.4,0.4,0.5c0.2,0.2,0.5,0.3,0.8,0.5s0.8,0.4,1.2,0.6c0.6,0.3,1,0.5,1.5,0.7
			c0.4,0.2,0.8,0.5,1.1,0.8c0.3,0.3,0.5,0.6,0.7,1C257.9,13.5,258,13.9,258,14.5z"/>
		<path id="XMLID_329_" class="st1" d="M279.2,17.5V6.9V5.2c0,0.1-0.1,0.3-0.2,0.6c-0.1,0.2-0.1,0.4-0.2,0.7
			c-0.1,0.2-0.2,0.5-0.3,0.7c-0.1,0.2-0.2,0.5-0.3,0.7L274,17.9l-4.1-10.1c-0.1-0.2-0.2-0.4-0.3-0.7c-0.1-0.2-0.2-0.5-0.3-0.7
			c-0.1-0.2-0.2-0.5-0.2-0.7S269,5.3,269,5.2v1.7v10.7h-1.7V1.8h2l3.7,9.4c0.1,0.2,0.2,0.5,0.3,0.8c0.1,0.3,0.2,0.6,0.3,0.9
			c0.1,0.3,0.2,0.6,0.3,0.8c0.1,0.2,0.2,0.5,0.2,0.6c0-0.2,0.1-0.4,0.2-0.6c0.1-0.3,0.2-0.5,0.3-0.8c0.1-0.3,0.2-0.6,0.3-0.9
			c0.1-0.3,0.2-0.5,0.3-0.8l3.8-9.4h1.9v15.7H279.2z"/>
		<path id="XMLID_327_" class="st1" d="M292.1,17.5v-1.4c-0.3,0.5-0.8,0.9-1.3,1.2c-0.5,0.3-1.2,0.5-1.9,0.5c-0.6,0-1.2-0.1-1.7-0.3
			c-0.5-0.2-0.9-0.5-1.3-0.9c-0.4-0.4-0.6-0.9-0.8-1.5s-0.3-1.3-0.3-2.2V5.7h1.7v6.9c0,1.3,0.2,2.2,0.7,2.8c0.5,0.6,1.2,0.9,2.1,0.9
			c0.8,0,1.5-0.3,2.1-0.9c0.6-0.6,0.8-1.5,0.8-2.8V5.7h1.7v11.8H292.1z"/>
		<path id="XMLID_325_" class="st1" d="M297.6,17.5V2.1l1.7-0.9v16.4H297.6z"/>
		<path id="XMLID_323_" class="st1" d="M305.3,7.2v7.7c0,0.5,0.1,0.9,0.3,1.1c0.2,0.2,0.5,0.3,0.9,0.3c0.3,0,0.6,0,0.9-0.1
			c0.2-0.1,0.5-0.1,0.8-0.3l-0.1,1.5c-0.3,0.1-0.7,0.2-1,0.3c-0.3,0.1-0.7,0.1-1.2,0.1c-0.7,0-1.3-0.2-1.7-0.6
			c-0.4-0.4-0.6-1.1-0.6-2.1V7.2h-1.5V5.7h1.5V2.1l1.7-0.9v4.6h2.9v1.4H305.3z"/>
		<path id="XMLID_320_" class="st1" d="M313.7,2.4c0,0.3-0.1,0.6-0.3,0.8s-0.5,0.3-0.8,0.3c-0.3,0-0.6-0.1-0.9-0.3s-0.4-0.5-0.4-0.8
			c0-0.3,0.1-0.6,0.4-0.9c0.2-0.2,0.5-0.3,0.9-0.3c0.3,0,0.6,0.1,0.8,0.3C313.6,1.8,313.7,2.1,313.7,2.4z M311.6,17.5V5.7h1.7v11.8
			H311.6z"/>
		<path id="XMLID_318_" class="st1" d="M324.3,8.1c-0.4-0.4-0.9-0.7-1.3-0.9s-0.9-0.3-1.5-0.3c-0.5,0-0.9,0.1-1.3,0.3
			c-0.4,0.2-0.7,0.5-1,0.9c-0.3,0.4-0.5,0.9-0.7,1.5s-0.2,1.2-0.2,2c0,1.5,0.3,2.6,0.9,3.5c0.6,0.9,1.4,1.3,2.5,1.3
			c0.6,0,1.1-0.1,1.5-0.3c0.4-0.2,0.8-0.5,1.2-0.9l1,1.1c-0.5,0.5-1,0.9-1.6,1.2c-0.6,0.3-1.3,0.4-2.2,0.4c-0.6,0-1.3-0.1-1.9-0.4
			c-0.6-0.2-1.1-0.6-1.6-1.1c-0.5-0.5-0.8-1.1-1.1-1.9s-0.4-1.7-0.4-2.7c0-1.1,0.1-2,0.4-2.8c0.3-0.8,0.7-1.4,1.2-1.9
			c0.5-0.5,1-0.9,1.6-1.1c0.6-0.2,1.2-0.4,1.8-0.4c0.8,0,1.5,0.1,2.1,0.4c0.6,0.3,1.1,0.6,1.6,1L324.3,8.1z"/>
		<path id="XMLID_315_" class="st1" d="M337.3,11.3c0,0.2,0,0.4,0,0.5c0,0.1,0,0.3-0.1,0.4h-7.8c0.1,1.3,0.4,2.3,1,3
			c0.6,0.7,1.3,1.1,2.3,1.1c0.7,0,1.3-0.1,1.7-0.3s1-0.5,1.5-0.8l0.8,1.2c-0.4,0.2-0.7,0.4-1,0.6c-0.3,0.2-0.6,0.3-1,0.4
			c-0.3,0.1-0.7,0.2-1,0.3s-0.8,0.1-1.2,0.1c-0.5,0-1.1-0.1-1.7-0.3c-0.6-0.2-1.1-0.6-1.5-1c-0.5-0.5-0.8-1.1-1.1-1.9
			c-0.3-0.8-0.5-1.8-0.5-2.9c0-0.9,0.1-1.8,0.4-2.5s0.6-1.4,1-1.9c0.4-0.5,0.9-0.9,1.5-1.2c0.6-0.3,1.2-0.4,1.9-0.4
			c0.8,0,1.4,0.1,2,0.4c0.6,0.3,1.1,0.7,1.5,1.2s0.7,1.1,0.9,1.8C337.2,9.7,337.3,10.4,337.3,11.3z M335.7,10.8
			c-0.1-1.2-0.4-2.1-0.9-2.8c-0.5-0.7-1.3-1.1-2.3-1.1c-0.9,0-1.6,0.3-2.2,1s-0.9,1.6-1,3H335.7z"/>
		<path id="XMLID_313_" class="st1" d="M347.8,17.5v-6.9c0-1.3-0.2-2.2-0.7-2.8c-0.5-0.6-1.2-0.9-2.1-0.9c-0.8,0-1.5,0.3-2.1,0.9
			c-0.6,0.6-0.8,1.5-0.8,2.8v6.9h-1.7V5.7h1.7l0,1.4c0.3-0.5,0.8-0.9,1.3-1.2c0.5-0.3,1.2-0.5,1.9-0.5c0.6,0,1.2,0.1,1.7,0.3
			c0.5,0.2,0.9,0.5,1.3,0.9c0.4,0.4,0.6,0.9,0.8,1.5s0.3,1.3,0.3,2.2v7.2H347.8z"/>
		<path id="XMLID_311_" class="st1" d="M355.4,7.2v7.7c0,0.5,0.1,0.9,0.3,1.1c0.2,0.2,0.5,0.3,0.9,0.3c0.3,0,0.6,0,0.9-0.1
			c0.2-0.1,0.5-0.1,0.8-0.3l-0.1,1.5c-0.3,0.1-0.7,0.2-1,0.3c-0.3,0.1-0.7,0.1-1.2,0.1c-0.7,0-1.3-0.2-1.7-0.6
			c-0.4-0.4-0.6-1.1-0.6-2.1V7.2h-1.5V5.7h1.5V2.1l1.7-0.9v4.6h2.9v1.4H355.4z"/>
		<path id="XMLID_308_" class="st1" d="M370.5,11.3c0,0.2,0,0.4,0,0.5c0,0.1,0,0.3-0.1,0.4h-7.8c0.1,1.3,0.4,2.3,1,3
			c0.6,0.7,1.3,1.1,2.3,1.1c0.7,0,1.3-0.1,1.7-0.3s1-0.5,1.5-0.8l0.8,1.2c-0.4,0.2-0.7,0.4-1,0.6c-0.3,0.2-0.6,0.3-1,0.4
			c-0.3,0.1-0.7,0.2-1,0.3s-0.8,0.1-1.2,0.1c-0.5,0-1.1-0.1-1.7-0.3c-0.6-0.2-1.1-0.6-1.5-1c-0.5-0.5-0.8-1.1-1.1-1.9
			c-0.3-0.8-0.5-1.8-0.5-2.9c0-0.9,0.1-1.8,0.4-2.5s0.6-1.4,1-1.9c0.4-0.5,0.9-0.9,1.5-1.2c0.6-0.3,1.2-0.4,1.9-0.4
			c0.8,0,1.4,0.1,2,0.4c0.6,0.3,1.1,0.7,1.5,1.2s0.7,1.1,0.9,1.8C370.4,9.7,370.5,10.4,370.5,11.3z M369,10.8
			c-0.1-1.2-0.4-2.1-0.9-2.8c-0.5-0.7-1.3-1.1-2.3-1.1c-0.9,0-1.6,0.3-2.2,1s-0.9,1.6-1,3H369z"/>
		<path id="XMLID_306_" class="st1" d="M379.7,7.5c-0.2-0.1-0.5-0.2-0.8-0.3c-0.3-0.1-0.6-0.1-1-0.1c-0.8,0-1.5,0.3-1.9,0.9
			c-0.4,0.6-0.7,1.5-0.7,2.6v6.9h-1.7V5.7h1.7v1.5c0.3-0.5,0.7-0.9,1.2-1.2c0.5-0.3,1.1-0.5,1.7-0.5c0.4,0,0.8,0,1.1,0.1
			c0.3,0.1,0.5,0.1,0.8,0.2L379.7,7.5z"/>
		<path id="XMLID_303_" class="st1" d="M395.8,17.5v-1.4c-0.4,0.4-0.9,0.8-1.5,1.2c-0.6,0.3-1.3,0.5-2.1,0.5c-0.6,0-1.1-0.1-1.7-0.3
			c-0.5-0.2-1-0.6-1.3-1.1s-0.7-1.1-0.9-1.9s-0.3-1.7-0.3-2.7c0-1,0.1-2,0.3-2.8c0.2-0.8,0.6-1.4,1-2s0.9-0.9,1.4-1.2
			c0.5-0.3,1.1-0.4,1.7-0.4c0.7,0,1.4,0.1,1.9,0.4c0.5,0.3,1,0.7,1.4,1.1v-5l1.7-0.9v16.4H395.8z M395.8,8.7
			c-0.3-0.5-0.8-0.9-1.3-1.3c-0.5-0.3-1.2-0.5-1.9-0.5c-1,0-1.7,0.4-2.2,1.2c-0.5,0.8-0.7,2-0.7,3.6c0,1.5,0.3,2.6,0.8,3.4
			c0.5,0.8,1.3,1.1,2.2,1.1c0.6,0,1.2-0.2,1.7-0.5c0.5-0.3,1-0.7,1.4-1.3V8.7z"/>
		<path id="XMLID_300_" class="st1" d="M410.9,11.6c0,1-0.1,1.9-0.4,2.7c-0.3,0.8-0.6,1.4-1.1,2c-0.5,0.5-1,0.9-1.6,1.2
			c-0.6,0.3-1.3,0.4-2,0.4c-0.7,0-1.4-0.1-2-0.4c-0.6-0.3-1.2-0.7-1.6-1.2c-0.5-0.5-0.8-1.2-1.1-1.9c-0.3-0.8-0.4-1.6-0.4-2.7
			c0-1,0.1-1.9,0.4-2.7c0.3-0.8,0.6-1.4,1.1-1.9s1-0.9,1.6-1.2c0.6-0.3,1.3-0.4,2-0.4s1.4,0.1,2,0.4c0.6,0.3,1.2,0.6,1.6,1.1
			c0.5,0.5,0.8,1.1,1.1,1.9C410.8,9.7,410.9,10.5,410.9,11.6z M409.2,11.6c0-1.6-0.3-2.7-0.9-3.5c-0.6-0.8-1.5-1.2-2.5-1.2
			s-1.9,0.4-2.5,1.2c-0.6,0.8-0.9,1.9-0.9,3.5s0.3,2.7,0.9,3.5c0.6,0.8,1.5,1.2,2.5,1.2s1.9-0.4,2.5-1.2
			C408.9,14.3,409.2,13.2,409.2,11.6z"/>
		<path id="XMLID_298_" class="st1" d="M421.3,17.5v-1.4c-0.3,0.5-0.8,0.9-1.3,1.2c-0.5,0.3-1.2,0.5-1.9,0.5c-0.6,0-1.2-0.1-1.7-0.3
			c-0.5-0.2-0.9-0.5-1.3-0.9c-0.4-0.4-0.6-0.9-0.8-1.5s-0.3-1.3-0.3-2.2V5.7h1.7v6.9c0,1.3,0.2,2.2,0.7,2.8c0.5,0.6,1.2,0.9,2.1,0.9
			c0.8,0,1.5-0.3,2.1-0.9c0.6-0.6,0.8-1.5,0.8-2.8V5.7h1.7v11.8H421.3z"/>
		<path id="XMLID_295_" class="st1" d="M436.2,11.4c0,1-0.1,2-0.3,2.8c-0.2,0.8-0.5,1.4-1,2c-0.4,0.5-0.9,0.9-1.4,1.2
			c-0.5,0.3-1.1,0.4-1.7,0.4c-0.7,0-1.4-0.1-1.9-0.4c-0.5-0.3-1-0.7-1.4-1.1v1.3h-1.7V2.1l1.7-0.9l0,6c0.4-0.4,0.9-0.8,1.5-1.2
			c0.6-0.3,1.3-0.5,2.1-0.5c0.6,0,1.1,0.1,1.7,0.3c0.5,0.2,1,0.6,1.3,1.1c0.4,0.5,0.7,1.1,0.9,1.9C436.1,9.5,436.2,10.4,436.2,11.4z
			 M434.5,11.5c0-1.5-0.3-2.6-0.8-3.4c-0.5-0.8-1.3-1.1-2.2-1.1c-0.6,0-1.2,0.2-1.7,0.5c-0.5,0.3-1,0.7-1.4,1.3v5.9
			c0.3,0.5,0.8,0.9,1.3,1.3c0.5,0.3,1.2,0.5,1.9,0.5c1,0,1.7-0.4,2.2-1.2C434.3,14.3,434.5,13.1,434.5,11.5z"/>
		<path id="XMLID_293_" class="st1" d="M439.4,17.5V2.1l1.7-0.9v16.4H439.4z"/>
		<path id="XMLID_290_" class="st1" d="M453.9,11.3c0,0.2,0,0.4,0,0.5c0,0.1,0,0.3-0.1,0.4H446c0.1,1.3,0.4,2.3,1,3
			c0.6,0.7,1.3,1.1,2.3,1.1c0.7,0,1.3-0.1,1.7-0.3s1-0.5,1.5-0.8l0.8,1.2c-0.4,0.2-0.7,0.4-1,0.6c-0.3,0.2-0.6,0.3-1,0.4
			c-0.3,0.1-0.7,0.2-1,0.3s-0.8,0.1-1.2,0.1c-0.5,0-1.1-0.1-1.7-0.3c-0.6-0.2-1.1-0.6-1.5-1c-0.5-0.5-0.8-1.1-1.1-1.9
			c-0.3-0.8-0.5-1.8-0.5-2.9c0-0.9,0.1-1.8,0.4-2.5s0.6-1.4,1-1.9c0.4-0.5,0.9-0.9,1.5-1.2c0.6-0.3,1.2-0.4,1.9-0.4
			c0.8,0,1.4,0.1,2,0.4c0.6,0.3,1.1,0.7,1.5,1.2s0.7,1.1,0.9,1.8C453.8,9.7,453.9,10.4,453.9,11.3z M452.4,10.8
			c-0.1-1.2-0.4-2.1-0.9-2.8c-0.5-0.7-1.3-1.1-2.3-1.1c-0.9,0-1.6,0.3-2.2,1s-0.9,1.6-1,3H452.4z"/>
		<path id="XMLID_288_" class="st1" d="M456.4,10.1V8.5h4.9v1.6H456.4z"/>
		<path id="XMLID_285_" class="st1" d="M473.8,11.4c0,1-0.1,2-0.3,2.8c-0.2,0.8-0.5,1.4-1,2c-0.4,0.5-0.9,0.9-1.4,1.2
			c-0.5,0.3-1.1,0.4-1.7,0.4c-0.7,0-1.4-0.1-1.9-0.4c-0.5-0.3-1-0.7-1.4-1.1v1.3h-1.7V2.1l1.7-0.9l0,6c0.4-0.4,0.9-0.8,1.5-1.2
			c0.6-0.3,1.3-0.5,2.1-0.5c0.6,0,1.1,0.1,1.7,0.3c0.5,0.2,1,0.6,1.3,1.1c0.4,0.5,0.7,1.1,0.9,1.9C473.7,9.5,473.8,10.4,473.8,11.4z
			 M472.1,11.5c0-1.5-0.3-2.6-0.8-3.4c-0.5-0.8-1.3-1.1-2.2-1.1c-0.6,0-1.2,0.2-1.7,0.5c-0.5,0.3-1,0.7-1.4,1.3v5.9
			c0.3,0.5,0.8,0.9,1.3,1.3c0.5,0.3,1.2,0.5,1.9,0.5c1,0,1.7-0.4,2.2-1.2C471.9,14.3,472.1,13.1,472.1,11.5z"/>
		<path id="XMLID_283_" class="st1" d="M477,17.5V2.1l1.7-0.9v16.4H477z"/>
		<path id="XMLID_280_" class="st1" d="M484.7,2.4c0,0.3-0.1,0.6-0.3,0.8s-0.5,0.3-0.8,0.3c-0.3,0-0.6-0.1-0.9-0.3s-0.4-0.5-0.4-0.8
			c0-0.3,0.1-0.6,0.4-0.9c0.2-0.2,0.5-0.3,0.9-0.3c0.3,0,0.6,0.1,0.8,0.3C484.6,1.8,484.7,2.1,484.7,2.4z M482.6,17.5V5.7h1.7v11.8
			H482.6z"/>
		<path id="XMLID_278_" class="st1" d="M495.6,17.5v-6.9c0-1.3-0.2-2.2-0.7-2.8c-0.5-0.6-1.2-0.9-2.1-0.9c-0.8,0-1.5,0.3-2.1,0.9
			c-0.6,0.6-0.8,1.5-0.8,2.8v6.9h-1.7V5.7h1.7l0,1.4c0.3-0.5,0.8-0.9,1.3-1.2c0.5-0.3,1.2-0.5,1.9-0.5c0.6,0,1.2,0.1,1.7,0.3
			c0.5,0.2,0.9,0.5,1.3,0.9c0.4,0.4,0.6,0.9,0.8,1.5s0.3,1.3,0.3,2.2v7.2H495.6z"/>
		<path id="XMLID_275_" class="st1" d="M508.1,17.5v-1.4c-0.4,0.4-0.9,0.8-1.5,1.2c-0.6,0.3-1.3,0.5-2.1,0.5c-0.6,0-1.1-0.1-1.7-0.3
			c-0.5-0.2-1-0.6-1.3-1.1s-0.7-1.1-0.9-1.9s-0.3-1.7-0.3-2.7c0-1,0.1-2,0.3-2.8c0.2-0.8,0.6-1.4,1-2s0.9-0.9,1.4-1.2
			c0.5-0.3,1.1-0.4,1.7-0.4c0.7,0,1.4,0.1,1.9,0.4c0.5,0.3,1,0.7,1.4,1.1v-5l1.7-0.9v16.4H508.1z M508.1,8.7
			c-0.3-0.5-0.8-0.9-1.3-1.3c-0.5-0.3-1.2-0.5-1.9-0.5c-1,0-1.7,0.4-2.2,1.2c-0.5,0.8-0.7,2-0.7,3.6c0,1.5,0.3,2.6,0.8,3.4
			c0.5,0.8,1.3,1.1,2.2,1.1c0.6,0,1.2-0.2,1.7-0.5c0.5-0.3,1-0.7,1.4-1.3V8.7z"/>
		<path id="XMLID_273_" class="st1" d="M514.1,20.2H513l0.3-5.2h2.3L514.1,20.2z"/>
		<path id="XMLID_271_" class="st1" d="M530.8,7.5c-0.2-0.1-0.5-0.2-0.8-0.3c-0.3-0.1-0.6-0.1-1-0.1c-0.8,0-1.5,0.3-1.9,0.9
			c-0.4,0.6-0.7,1.5-0.7,2.6v6.9h-1.7V5.7h1.7v1.5c0.3-0.5,0.7-0.9,1.2-1.2c0.5-0.3,1.1-0.5,1.7-0.5c0.4,0,0.8,0,1.1,0.1
			c0.3,0.1,0.5,0.1,0.8,0.2L530.8,7.5z"/>
		<path id="XMLID_268_" class="st1" d="M540.7,17.5v-1.4c-0.4,0.4-0.9,0.8-1.5,1.2c-0.6,0.3-1.3,0.5-2.2,0.5c-0.5,0-0.9-0.1-1.4-0.2
			c-0.4-0.1-0.9-0.3-1.2-0.6c-0.4-0.3-0.6-0.7-0.9-1.2c-0.2-0.5-0.3-1.1-0.3-1.8c0-0.7,0.1-1.2,0.4-1.7c0.3-0.5,0.6-0.9,1-1.2
			s0.9-0.5,1.4-0.7c0.5-0.1,1.1-0.2,1.7-0.2c0.6,0,1.2,0.1,1.7,0.2c0.5,0.1,0.9,0.3,1.3,0.5V9.5c0-1.7-0.9-2.6-2.6-2.6
			c-0.6,0-1.2,0.1-1.7,0.2c-0.5,0.2-1,0.4-1.5,0.7l-0.6-1.4c0.5-0.3,1.1-0.5,1.8-0.7c0.7-0.2,1.4-0.3,2.2-0.3c1.3,0,2.3,0.3,3,0.9
			c0.7,0.6,1.1,1.6,1.1,2.9v8.2H540.7z M540.7,12.2c-0.4-0.2-0.8-0.4-1.3-0.5c-0.5-0.1-1-0.2-1.8-0.2c-0.9,0-1.5,0.2-2,0.6
			c-0.5,0.4-0.7,1-0.7,1.7c0,0.9,0.2,1.5,0.7,1.9c0.4,0.4,1,0.6,1.7,0.6c0.8,0,1.4-0.2,2-0.5c0.6-0.3,1-0.8,1.4-1.3V12.2z"/>
		<path id="XMLID_266_" class="st1" d="M553.4,17.5v-6.9c0-1.3-0.2-2.2-0.7-2.8c-0.5-0.6-1.2-0.9-2.1-0.9c-0.8,0-1.5,0.3-2.1,0.9
			c-0.6,0.6-0.8,1.5-0.8,2.8v6.9H546V5.7h1.7l0,1.4c0.3-0.5,0.8-0.9,1.3-1.2c0.5-0.3,1.2-0.5,1.9-0.5c0.6,0,1.2,0.1,1.7,0.3
			c0.5,0.2,0.9,0.5,1.3,0.9c0.4,0.4,0.6,0.9,0.8,1.5s0.3,1.3,0.3,2.2v7.2H553.4z"/>
		<path id="XMLID_263_" class="st1" d="M565.9,17.5v-1.4c-0.4,0.4-0.9,0.8-1.5,1.2c-0.6,0.3-1.3,0.5-2.1,0.5c-0.6,0-1.1-0.1-1.7-0.3
			c-0.5-0.2-1-0.6-1.3-1.1s-0.7-1.1-0.9-1.9s-0.3-1.7-0.3-2.7c0-1,0.1-2,0.3-2.8c0.2-0.8,0.6-1.4,1-2s0.9-0.9,1.4-1.2
			c0.5-0.3,1.1-0.4,1.7-0.4c0.7,0,1.4,0.1,1.9,0.4c0.5,0.3,1,0.7,1.4,1.1v-5l1.7-0.9v16.4H565.9z M565.9,8.7
			c-0.3-0.5-0.8-0.9-1.3-1.3c-0.5-0.3-1.2-0.5-1.9-0.5c-1,0-1.7,0.4-2.2,1.2c-0.5,0.8-0.7,2-0.7,3.6c0,1.5,0.3,2.6,0.8,3.4
			c0.5,0.8,1.3,1.1,2.2,1.1c0.6,0,1.2-0.2,1.7-0.5c0.5-0.3,1-0.7,1.4-1.3V8.7z"/>
		<path id="XMLID_260_" class="st1" d="M581,11.6c0,1-0.1,1.9-0.4,2.7c-0.3,0.8-0.6,1.4-1.1,2c-0.5,0.5-1,0.9-1.6,1.2
			c-0.6,0.3-1.3,0.4-2,0.4c-0.7,0-1.4-0.1-2-0.4c-0.6-0.3-1.2-0.7-1.6-1.2c-0.5-0.5-0.8-1.2-1.1-1.9c-0.3-0.8-0.4-1.6-0.4-2.7
			c0-1,0.1-1.9,0.4-2.7c0.3-0.8,0.6-1.4,1.1-1.9s1-0.9,1.6-1.2c0.6-0.3,1.3-0.4,2-0.4s1.4,0.1,2,0.4c0.6,0.3,1.2,0.6,1.6,1.1
			c0.5,0.5,0.8,1.1,1.1,1.9C580.8,9.7,581,10.5,581,11.6z M579.3,11.6c0-1.6-0.3-2.7-0.9-3.5c-0.6-0.8-1.5-1.2-2.5-1.2
			s-1.9,0.4-2.5,1.2c-0.6,0.8-0.9,1.9-0.9,3.5s0.3,2.7,0.9,3.5c0.6,0.8,1.5,1.2,2.5,1.2s1.9-0.4,2.5-1.2
			C578.9,14.3,579.3,13.2,579.3,11.6z"/>
		<path id="XMLID_258_" class="st1" d="M597.8,17.5v-6.9c0-1.4-0.2-2.3-0.6-2.9s-1.1-0.8-1.9-0.8c-0.8,0-1.4,0.3-1.9,0.9
			s-0.7,1.5-0.7,2.8v6.9h-1.7v-6.9c0-1.4-0.2-2.3-0.6-2.9c-0.4-0.6-1.1-0.8-1.9-0.8c-0.8,0-1.4,0.3-1.9,0.9
			c-0.5,0.6-0.7,1.5-0.7,2.8v6.9H584V5.7h1.7l0,1.4c0.3-0.5,0.7-0.9,1.2-1.2c0.5-0.3,1.1-0.5,1.8-0.5c0.8,0,1.5,0.2,2,0.6
			c0.5,0.4,0.9,0.9,1.2,1.4c0.2-0.3,0.4-0.6,0.6-0.8c0.2-0.2,0.5-0.5,0.7-0.6c0.3-0.2,0.6-0.3,1-0.4s0.8-0.2,1.3-0.2
			c1.2,0,2.2,0.4,2.9,1.1c0.7,0.8,1.1,2,1.1,3.7v7.2H597.8z"/>
		<path id="XMLID_255_" class="st1" d="M605.3,2.4c0,0.3-0.1,0.6-0.3,0.8s-0.5,0.3-0.8,0.3c-0.3,0-0.6-0.1-0.9-0.3s-0.4-0.5-0.4-0.8
			c0-0.3,0.1-0.6,0.4-0.9c0.2-0.2,0.5-0.3,0.9-0.3c0.3,0,0.6,0.1,0.8,0.3C605.2,1.8,605.3,2.1,605.3,2.4z M603.2,17.5V5.7h1.7v11.8
			H603.2z"/>
		<path id="XMLID_253_" class="st1" d="M608.1,17.5v-1.2l6.5-9.1h-5.9V5.7h7.8V7l-6.5,9.1h6.5v1.4H608.1z"/>
		<path id="XMLID_250_" class="st1" d="M628.8,11.3c0,0.2,0,0.4,0,0.5c0,0.1,0,0.3-0.1,0.4h-7.8c0.1,1.3,0.4,2.3,1,3
			c0.6,0.7,1.3,1.1,2.3,1.1c0.7,0,1.3-0.1,1.7-0.3s1-0.5,1.5-0.8l0.8,1.2c-0.4,0.2-0.7,0.4-1,0.6c-0.3,0.2-0.6,0.3-1,0.4
			c-0.3,0.1-0.7,0.2-1,0.3s-0.8,0.1-1.2,0.1c-0.5,0-1.1-0.1-1.7-0.3c-0.6-0.2-1.1-0.6-1.5-1c-0.5-0.5-0.8-1.1-1.1-1.9
			c-0.3-0.8-0.5-1.8-0.5-2.9c0-0.9,0.1-1.8,0.4-2.5s0.6-1.4,1-1.9c0.4-0.5,0.9-0.9,1.5-1.2c0.6-0.3,1.2-0.4,1.9-0.4
			c0.8,0,1.4,0.1,2,0.4c0.6,0.3,1.1,0.7,1.5,1.2s0.7,1.1,0.9,1.8C628.7,9.7,628.8,10.4,628.8,11.3z M627.2,10.8
			c-0.1-1.2-0.4-2.1-0.9-2.8c-0.5-0.7-1.3-1.1-2.3-1.1c-0.9,0-1.6,0.3-2.2,1s-0.9,1.6-1,3H627.2z"/>
		<path id="XMLID_247_" class="st1" d="M639.1,17.5v-1.4c-0.4,0.4-0.9,0.8-1.5,1.2c-0.6,0.3-1.3,0.5-2.1,0.5c-0.6,0-1.1-0.1-1.7-0.3
			c-0.5-0.2-1-0.6-1.3-1.1s-0.7-1.1-0.9-1.9s-0.3-1.7-0.3-2.7c0-1,0.1-2,0.3-2.8c0.2-0.8,0.6-1.4,1-2s0.9-0.9,1.4-1.2
			c0.5-0.3,1.1-0.4,1.7-0.4c0.7,0,1.4,0.1,1.9,0.4c0.5,0.3,1,0.7,1.4,1.1v-5l1.7-0.9v16.4H639.1z M639.1,8.7
			c-0.3-0.5-0.8-0.9-1.3-1.3c-0.5-0.3-1.2-0.5-1.9-0.5c-1,0-1.7,0.4-2.2,1.2c-0.5,0.8-0.7,2-0.7,3.6c0,1.5,0.3,2.6,0.8,3.4
			c0.5,0.8,1.3,1.1,2.2,1.1c0.6,0,1.2-0.2,1.7-0.5c0.5-0.3,1-0.7,1.4-1.3V8.7z"/>
		<path id="XMLID_245_" class="st1" d="M645.2,20.2H644l0.3-5.2h2.3L645.2,20.2z"/>
		<path id="XMLID_242_" class="st1" d="M665.2,11.4c0,1-0.1,2-0.3,2.8c-0.2,0.8-0.5,1.4-1,2c-0.4,0.5-0.9,0.9-1.4,1.2
			c-0.5,0.3-1.1,0.4-1.7,0.4c-0.7,0-1.4-0.1-1.9-0.4c-0.5-0.3-1-0.7-1.4-1.1v4.7l-1.7,0.9V5.7h1.7l0,1.4c0.4-0.4,0.9-0.8,1.5-1.2
			c0.6-0.3,1.3-0.5,2.1-0.5c0.6,0,1.1,0.1,1.7,0.3c0.5,0.2,1,0.6,1.3,1.1c0.4,0.5,0.7,1.1,0.9,1.9C665.1,9.5,665.2,10.4,665.2,11.4z
			 M663.6,11.5c0-1.5-0.3-2.6-0.8-3.4c-0.5-0.8-1.3-1.1-2.2-1.1c-0.6,0-1.2,0.2-1.7,0.5c-0.5,0.3-1,0.7-1.4,1.3v5.9
			c0.3,0.5,0.8,0.9,1.3,1.3c0.5,0.3,1.2,0.5,1.9,0.5c1,0,1.7-0.4,2.2-1.2C663.3,14.3,663.6,13.1,663.6,11.5z"/>
		<path id="XMLID_240_" class="st1" d="M668.4,17.5V2.1l1.7-0.9v16.4H668.4z"/>
		<path id="XMLID_237_" class="st1" d="M680.7,17.5v-1.4c-0.4,0.4-0.9,0.8-1.5,1.2c-0.6,0.3-1.3,0.5-2.2,0.5c-0.5,0-0.9-0.1-1.4-0.2
			c-0.4-0.1-0.9-0.3-1.2-0.6c-0.4-0.3-0.6-0.7-0.9-1.2c-0.2-0.5-0.3-1.1-0.3-1.8c0-0.7,0.1-1.2,0.4-1.7c0.3-0.5,0.6-0.9,1-1.2
			s0.9-0.5,1.4-0.7c0.5-0.1,1.1-0.2,1.7-0.2c0.6,0,1.2,0.1,1.7,0.2c0.5,0.1,0.9,0.3,1.3,0.5V9.5c0-1.7-0.9-2.6-2.6-2.6
			c-0.6,0-1.2,0.1-1.7,0.2c-0.5,0.2-1,0.4-1.5,0.7l-0.6-1.4c0.5-0.3,1.1-0.5,1.8-0.7c0.7-0.2,1.4-0.3,2.2-0.3c1.3,0,2.3,0.3,3,0.9
			c0.7,0.6,1.1,1.6,1.1,2.9v8.2H680.7z M680.7,12.2c-0.4-0.2-0.8-0.4-1.3-0.5c-0.5-0.1-1-0.2-1.8-0.2c-0.9,0-1.5,0.2-2,0.6
			c-0.5,0.4-0.7,1-0.7,1.7c0,0.9,0.2,1.5,0.7,1.9c0.4,0.4,1,0.6,1.7,0.6c0.8,0,1.4-0.2,2-0.5c0.6-0.3,1-0.8,1.4-1.3V12.2z"/>
		<path id="XMLID_235_" class="st1" d="M693.3,8.1c-0.4-0.4-0.9-0.7-1.3-0.9s-0.9-0.3-1.5-0.3c-0.5,0-0.9,0.1-1.3,0.3
			c-0.4,0.2-0.7,0.5-1,0.9c-0.3,0.4-0.5,0.9-0.7,1.5s-0.2,1.2-0.2,2c0,1.5,0.3,2.6,0.9,3.5c0.6,0.9,1.4,1.3,2.5,1.3
			c0.6,0,1.1-0.1,1.5-0.3c0.4-0.2,0.8-0.5,1.2-0.9l1,1.1c-0.5,0.5-1,0.9-1.6,1.2c-0.6,0.3-1.3,0.4-2.2,0.4c-0.6,0-1.3-0.1-1.9-0.4
			c-0.6-0.2-1.1-0.6-1.6-1.1c-0.5-0.5-0.8-1.1-1.1-1.9s-0.4-1.7-0.4-2.7c0-1.1,0.1-2,0.4-2.8c0.3-0.8,0.7-1.4,1.2-1.9
			c0.5-0.5,1-0.9,1.6-1.1c0.6-0.2,1.2-0.4,1.8-0.4c0.8,0,1.5,0.1,2.1,0.4c0.6,0.3,1.1,0.6,1.6,1L693.3,8.1z"/>
		<path id="XMLID_232_" class="st1" d="M706.2,11.3c0,0.2,0,0.4,0,0.5c0,0.1,0,0.3-0.1,0.4h-7.8c0.1,1.3,0.4,2.3,1,3
			c0.6,0.7,1.3,1.1,2.3,1.1c0.7,0,1.3-0.1,1.7-0.3s1-0.5,1.5-0.8l0.8,1.2c-0.4,0.2-0.7,0.4-1,0.6c-0.3,0.2-0.6,0.3-1,0.4
			c-0.3,0.1-0.7,0.2-1,0.3s-0.8,0.1-1.2,0.1c-0.5,0-1.1-0.1-1.7-0.3c-0.6-0.2-1.1-0.6-1.5-1c-0.5-0.5-0.8-1.1-1.1-1.9
			c-0.3-0.8-0.5-1.8-0.5-2.9c0-0.9,0.1-1.8,0.4-2.5s0.6-1.4,1-1.9c0.4-0.5,0.9-0.9,1.5-1.2c0.6-0.3,1.2-0.4,1.9-0.4
			c0.8,0,1.4,0.1,2,0.4c0.6,0.3,1.1,0.7,1.5,1.2s0.7,1.1,0.9,1.8C706.1,9.7,706.2,10.4,706.2,11.3z M704.6,10.8
			c-0.1-1.2-0.4-2.1-0.9-2.8c-0.5-0.7-1.3-1.1-2.3-1.1c-0.9,0-1.6,0.3-2.2,1s-0.9,1.6-1,3H704.6z"/>
		<path id="XMLID_229_" class="st1" d="M718.8,11.4c0,1-0.1,2-0.3,2.8c-0.2,0.8-0.5,1.4-1,2c-0.4,0.5-0.9,0.9-1.4,1.2
			c-0.5,0.3-1.1,0.4-1.7,0.4c-0.7,0-1.4-0.1-1.9-0.4c-0.5-0.3-1-0.7-1.4-1.1v1.3h-1.7V2.1l1.7-0.9l0,6c0.4-0.4,0.9-0.8,1.5-1.2
			c0.6-0.3,1.3-0.5,2.1-0.5c0.6,0,1.1,0.1,1.7,0.3c0.5,0.2,1,0.6,1.3,1.1c0.4,0.5,0.7,1.1,0.9,1.9C718.7,9.5,718.8,10.4,718.8,11.4z
			 M717.2,11.5c0-1.5-0.3-2.6-0.8-3.4c-0.5-0.8-1.3-1.1-2.2-1.1c-0.6,0-1.2,0.2-1.7,0.5c-0.5,0.3-1,0.7-1.4,1.3v5.9
			c0.3,0.5,0.8,0.9,1.3,1.3c0.5,0.3,1.2,0.5,1.9,0.5c1,0,1.7-0.4,2.2-1.2C716.9,14.3,717.2,13.1,717.2,11.5z"/>
		<path id="XMLID_226_" class="st1" d="M731.6,11.6c0,1-0.1,1.9-0.4,2.7c-0.3,0.8-0.6,1.4-1.1,2c-0.5,0.5-1,0.9-1.6,1.2
			c-0.6,0.3-1.3,0.4-2,0.4c-0.7,0-1.4-0.1-2-0.4c-0.6-0.3-1.2-0.7-1.6-1.2c-0.5-0.5-0.8-1.2-1.1-1.9c-0.3-0.8-0.4-1.6-0.4-2.7
			c0-1,0.1-1.9,0.4-2.7c0.3-0.8,0.6-1.4,1.1-1.9s1-0.9,1.6-1.2c0.6-0.3,1.3-0.4,2-0.4s1.4,0.1,2,0.4c0.6,0.3,1.2,0.6,1.6,1.1
			c0.5,0.5,0.8,1.1,1.1,1.9C731.4,9.7,731.6,10.5,731.6,11.6z M729.9,11.6c0-1.6-0.3-2.7-0.9-3.5c-0.6-0.8-1.5-1.2-2.5-1.2
			s-1.9,0.4-2.5,1.2c-0.6,0.8-0.9,1.9-0.9,3.5s0.3,2.7,0.9,3.5c0.6,0.8,1.5,1.2,2.5,1.2s1.9-0.4,2.5-1.2
			C729.6,14.3,729.9,13.2,729.9,11.6z"/>
		<path id="XMLID_224_" class="st1" d="M733.9,10.1V8.5h4.9v1.6H733.9z"/>
		<path id="XMLID_222_" class="st1" d="M749.1,8.1c-0.4-0.4-0.9-0.7-1.3-0.9s-0.9-0.3-1.5-0.3c-0.5,0-0.9,0.1-1.3,0.3
			c-0.4,0.2-0.7,0.5-1,0.9c-0.3,0.4-0.5,0.9-0.7,1.5s-0.2,1.2-0.2,2c0,1.5,0.3,2.6,0.9,3.5c0.6,0.9,1.4,1.3,2.5,1.3
			c0.6,0,1.1-0.1,1.5-0.3c0.4-0.2,0.8-0.5,1.2-0.9l1,1.1c-0.5,0.5-1,0.9-1.6,1.2c-0.6,0.3-1.3,0.4-2.2,0.4c-0.6,0-1.3-0.1-1.9-0.4
			c-0.6-0.2-1.1-0.6-1.6-1.1c-0.5-0.5-0.8-1.1-1.1-1.9s-0.4-1.7-0.4-2.7c0-1.1,0.1-2,0.4-2.8c0.3-0.8,0.7-1.4,1.2-1.9
			c0.5-0.5,1-0.9,1.6-1.1c0.6-0.2,1.2-0.4,1.8-0.4c0.8,0,1.5,0.1,2.1,0.4c0.6,0.3,1.1,0.6,1.6,1L749.1,8.1z"/>
		<path id="XMLID_219_" class="st1" d="M762.7,11.6c0,1-0.1,1.9-0.4,2.7c-0.3,0.8-0.6,1.4-1.1,2c-0.5,0.5-1,0.9-1.6,1.2
			c-0.6,0.3-1.3,0.4-2,0.4c-0.7,0-1.4-0.1-2-0.4c-0.6-0.3-1.2-0.7-1.6-1.2c-0.5-0.5-0.8-1.2-1.1-1.9c-0.3-0.8-0.4-1.6-0.4-2.7
			c0-1,0.1-1.9,0.4-2.7c0.3-0.8,0.6-1.4,1.1-1.9s1-0.9,1.6-1.2c0.6-0.3,1.3-0.4,2-0.4s1.4,0.1,2,0.4c0.6,0.3,1.2,0.6,1.6,1.1
			c0.5,0.5,0.8,1.1,1.1,1.9C762.5,9.7,762.7,10.5,762.7,11.6z M761,11.6c0-1.6-0.3-2.7-0.9-3.5c-0.6-0.8-1.5-1.2-2.5-1.2
			s-1.9,0.4-2.5,1.2c-0.6,0.8-0.9,1.9-0.9,3.5s0.3,2.7,0.9,3.5c0.6,0.8,1.5,1.2,2.5,1.2s1.9-0.4,2.5-1.2
			C760.6,14.3,761,13.2,761,11.6z"/>
		<path id="XMLID_217_" class="st1" d="M773.1,17.5v-6.9c0-1.3-0.2-2.2-0.7-2.8c-0.5-0.6-1.2-0.9-2.1-0.9c-0.8,0-1.5,0.3-2.1,0.9
			c-0.6,0.6-0.8,1.5-0.8,2.8v6.9h-1.7V5.7h1.7l0,1.4c0.3-0.5,0.8-0.9,1.3-1.2c0.5-0.3,1.2-0.5,1.9-0.5c0.6,0,1.2,0.1,1.7,0.3
			c0.5,0.2,0.9,0.5,1.3,0.9c0.4,0.4,0.6,0.9,0.8,1.5s0.3,1.3,0.3,2.2v7.2H773.1z"/>
		<path id="XMLID_215_" class="st1" d="M780.7,7.2v7.7c0,0.5,0.1,0.9,0.3,1.1c0.2,0.2,0.5,0.3,0.9,0.3c0.3,0,0.6,0,0.9-0.1
			c0.2-0.1,0.5-0.1,0.8-0.3l-0.1,1.5c-0.3,0.1-0.7,0.2-1,0.3c-0.3,0.1-0.7,0.1-1.2,0.1c-0.7,0-1.3-0.2-1.7-0.6
			c-0.4-0.4-0.6-1.1-0.6-2.1V7.2h-1.5V5.7h1.5V2.1l1.7-0.9v4.6h2.9v1.4H780.7z"/>
		<path id="XMLID_213_" class="st1" d="M792.9,7.5c-0.2-0.1-0.5-0.2-0.8-0.3c-0.3-0.1-0.6-0.1-1-0.1c-0.8,0-1.5,0.3-1.9,0.9
			c-0.4,0.6-0.7,1.5-0.7,2.6v6.9h-1.7V5.7h1.7v1.5c0.3-0.5,0.7-0.9,1.2-1.2c0.5-0.3,1.1-0.5,1.7-0.5c0.4,0,0.8,0,1.1,0.1
			c0.3,0.1,0.5,0.1,0.8,0.2L792.9,7.5z"/>
		<path id="XMLID_210_" class="st1" d="M805.7,11.6c0,1-0.1,1.9-0.4,2.7c-0.3,0.8-0.6,1.4-1.1,2c-0.5,0.5-1,0.9-1.6,1.2
			c-0.6,0.3-1.3,0.4-2,0.4c-0.7,0-1.4-0.1-2-0.4c-0.6-0.3-1.2-0.7-1.6-1.2c-0.5-0.5-0.8-1.2-1.1-1.9c-0.3-0.8-0.4-1.6-0.4-2.7
			c0-1,0.1-1.9,0.4-2.7c0.3-0.8,0.6-1.4,1.1-1.9s1-0.9,1.6-1.2c0.6-0.3,1.3-0.4,2-0.4s1.4,0.1,2,0.4c0.6,0.3,1.2,0.6,1.6,1.1
			c0.5,0.5,0.8,1.1,1.1,1.9C805.5,9.7,805.7,10.5,805.7,11.6z M804,11.6c0-1.6-0.3-2.7-0.9-3.5c-0.6-0.8-1.5-1.2-2.5-1.2
			s-1.9,0.4-2.5,1.2c-0.6,0.8-0.9,1.9-0.9,3.5s0.3,2.7,0.9,3.5c0.6,0.8,1.5,1.2,2.5,1.2s1.9-0.4,2.5-1.2
			C803.6,14.3,804,13.2,804,11.6z"/>
		<path id="XMLID_208_" class="st1" d="M808.9,17.5V2.1l1.7-0.9v16.4H808.9z"/>
		<path id="XMLID_206_" class="st1" d="M814.5,17.5V2.1l1.7-0.9v16.4H814.5z"/>
		<path id="XMLID_203_" class="st1" d="M829,11.3c0,0.2,0,0.4,0,0.5c0,0.1,0,0.3-0.1,0.4h-7.8c0.1,1.3,0.4,2.3,1,3
			c0.6,0.7,1.3,1.1,2.3,1.1c0.7,0,1.3-0.1,1.7-0.3s1-0.5,1.5-0.8l0.8,1.2c-0.4,0.2-0.7,0.4-1,0.6c-0.3,0.2-0.6,0.3-1,0.4
			c-0.3,0.1-0.7,0.2-1,0.3s-0.8,0.1-1.2,0.1c-0.5,0-1.1-0.1-1.7-0.3c-0.6-0.2-1.1-0.6-1.5-1c-0.5-0.5-0.8-1.1-1.1-1.9
			c-0.3-0.8-0.5-1.8-0.5-2.9c0-0.9,0.1-1.8,0.4-2.5s0.6-1.4,1-1.9c0.4-0.5,0.9-0.9,1.5-1.2c0.6-0.3,1.2-0.4,1.9-0.4
			c0.8,0,1.4,0.1,2,0.4c0.6,0.3,1.1,0.7,1.5,1.2s0.7,1.1,0.9,1.8C828.9,9.7,829,10.4,829,11.3z M827.4,10.8
			c-0.1-1.2-0.4-2.1-0.9-2.8c-0.5-0.7-1.3-1.1-2.3-1.1c-0.9,0-1.6,0.3-2.2,1s-0.9,1.6-1,3H827.4z"/>
		<path id="XMLID_200_" class="st1" d="M839.3,17.5v-1.4c-0.4,0.4-0.9,0.8-1.5,1.2c-0.6,0.3-1.3,0.5-2.1,0.5c-0.6,0-1.1-0.1-1.7-0.3
			c-0.5-0.2-1-0.6-1.3-1.1s-0.7-1.1-0.9-1.9s-0.3-1.7-0.3-2.7c0-1,0.1-2,0.3-2.8c0.2-0.8,0.6-1.4,1-2s0.9-0.9,1.4-1.2
			c0.5-0.3,1.1-0.4,1.7-0.4c0.7,0,1.4,0.1,1.9,0.4c0.5,0.3,1,0.7,1.4,1.1v-5l1.7-0.9v16.4H839.3z M839.3,8.7
			c-0.3-0.5-0.8-0.9-1.3-1.3c-0.5-0.3-1.2-0.5-1.9-0.5c-1,0-1.7,0.4-2.2,1.2c-0.5,0.8-0.7,2-0.7,3.6c0,1.5,0.3,2.6,0.8,3.4
			c0.5,0.8,1.3,1.1,2.2,1.1c0.6,0,1.2-0.2,1.7-0.5c0.5-0.3,1-0.7,1.4-1.3V8.7z"/>
		<path id="XMLID_198_" class="st1" d="M852.8,7.2v7.7c0,0.5,0.1,0.9,0.3,1.1c0.2,0.2,0.5,0.3,0.9,0.3c0.3,0,0.6,0,0.9-0.1
			c0.2-0.1,0.5-0.1,0.8-0.3l-0.1,1.5c-0.3,0.1-0.7,0.2-1,0.3c-0.3,0.1-0.7,0.1-1.2,0.1c-0.7,0-1.3-0.2-1.7-0.6
			c-0.4-0.4-0.6-1.1-0.6-2.1V7.2h-1.5V5.7h1.5V2.1l1.7-0.9v4.6h2.9v1.4H852.8z"/>
		<path id="XMLID_196_" class="st1" d="M865,7.5c-0.2-0.1-0.5-0.2-0.8-0.3c-0.3-0.1-0.6-0.1-1-0.1c-0.8,0-1.5,0.3-1.9,0.9
			c-0.4,0.6-0.7,1.5-0.7,2.6v6.9h-1.7V5.7h1.7v1.5c0.3-0.5,0.7-0.9,1.2-1.2c0.5-0.3,1.1-0.5,1.7-0.5c0.4,0,0.8,0,1.1,0.1
			c0.3,0.1,0.5,0.1,0.8,0.2L865,7.5z"/>
		<path id="XMLID_193_" class="st1" d="M870.3,2.4c0,0.3-0.1,0.6-0.3,0.8s-0.5,0.3-0.8,0.3c-0.3,0-0.6-0.1-0.9-0.3s-0.4-0.5-0.4-0.8
			c0-0.3,0.1-0.6,0.4-0.9c0.2-0.2,0.5-0.3,0.9-0.3c0.3,0,0.6,0.1,0.8,0.3C870.1,1.8,870.3,2.1,870.3,2.4z M868.2,17.5V5.7h1.7v11.8
			H868.2z"/>
		<path id="XMLID_190_" class="st1" d="M880.5,17.5v-1.4c-0.4,0.4-0.9,0.8-1.5,1.2c-0.6,0.3-1.3,0.5-2.2,0.5c-0.5,0-0.9-0.1-1.4-0.2
			c-0.4-0.1-0.9-0.3-1.2-0.6c-0.4-0.3-0.6-0.7-0.9-1.2c-0.2-0.5-0.3-1.1-0.3-1.8c0-0.7,0.1-1.2,0.4-1.7c0.3-0.5,0.6-0.9,1-1.2
			s0.9-0.5,1.4-0.7c0.5-0.1,1.1-0.2,1.7-0.2c0.6,0,1.2,0.1,1.7,0.2c0.5,0.1,0.9,0.3,1.3,0.5V9.5c0-1.7-0.9-2.6-2.6-2.6
			c-0.6,0-1.2,0.1-1.7,0.2c-0.5,0.2-1,0.4-1.5,0.7l-0.6-1.4c0.5-0.3,1.1-0.5,1.8-0.7c0.7-0.2,1.4-0.3,2.2-0.3c1.3,0,2.3,0.3,3,0.9
			c0.7,0.6,1.1,1.6,1.1,2.9v8.2H880.5z M880.5,12.2c-0.4-0.2-0.8-0.4-1.3-0.5c-0.5-0.1-1-0.2-1.8-0.2c-0.9,0-1.5,0.2-2,0.6
			c-0.5,0.4-0.7,1-0.7,1.7c0,0.9,0.2,1.5,0.7,1.9c0.4,0.4,1,0.6,1.7,0.6c0.8,0,1.4-0.2,2-0.5c0.6-0.3,1-0.8,1.4-1.3V12.2z"/>
		<path id="XMLID_188_" class="st1" d="M886,17.5V2.1l1.7-0.9v16.4H886z"/>
		<path id="XMLID_185_" class="st1" d="M10.3,38.5c0,1-0.1,1.9-0.4,2.7c-0.3,0.8-0.6,1.4-1.1,2c-0.5,0.5-1,0.9-1.6,1.2
			c-0.6,0.3-1.3,0.4-2,0.4c-0.7,0-1.4-0.1-2-0.4c-0.6-0.3-1.2-0.7-1.6-1.2C1,42.7,0.7,42,0.4,41.3C0.1,40.5,0,39.6,0,38.6
			c0-1,0.1-1.9,0.4-2.7C0.7,35.2,1,34.6,1.5,34s1-0.9,1.6-1.2c0.6-0.3,1.3-0.4,2-0.4s1.4,0.1,2,0.4c0.6,0.3,1.2,0.6,1.6,1.1
			c0.5,0.5,0.8,1.1,1.1,1.9C10.1,36.6,10.3,37.5,10.3,38.5z M8.6,38.6c0-1.6-0.3-2.7-0.9-3.5c-0.6-0.8-1.5-1.2-2.5-1.2
			s-1.9,0.4-2.5,1.2C2,35.8,1.7,37,1.7,38.6s0.3,2.7,0.9,3.5c0.6,0.8,1.5,1.2,2.5,1.2s1.9-0.4,2.5-1.2C8.3,41.3,8.6,40.1,8.6,38.6z"
			/>
		<path id="XMLID_183_" class="st1" d="M17.1,29.7c-0.3,0-0.6,0.1-0.9,0.2c-0.2,0.2-0.3,0.5-0.3,1v1.8h2.3v1.4h-2.3v10.4h-1.7V34.1
			h-1.6v-1.4h1.6v-1.6c0-1,0.3-1.8,0.8-2.2c0.5-0.4,1.2-0.7,2-0.7c0.3,0,0.6,0,0.8,0c0.2,0,0.4,0.1,0.6,0.2V30
			C18.1,29.8,17.6,29.7,17.1,29.7z"/>
		<path id="XMLID_181_" class="st1" d="M27.3,44.5V29.1l1.7-0.9v16.4H27.3z"/>
		<path id="XMLID_178_" class="st1" d="M41.8,38.3c0,0.2,0,0.4,0,0.5c0,0.1,0,0.3-0.1,0.4h-7.8c0.1,1.3,0.4,2.3,1,3
			c0.6,0.7,1.3,1.1,2.3,1.1c0.7,0,1.3-0.1,1.7-0.3s1-0.5,1.5-0.8l0.8,1.2c-0.4,0.2-0.7,0.4-1,0.6c-0.3,0.2-0.6,0.3-1,0.4
			c-0.3,0.1-0.7,0.2-1,0.3s-0.8,0.1-1.2,0.1c-0.5,0-1.1-0.1-1.7-0.3c-0.6-0.2-1.1-0.6-1.5-1c-0.5-0.5-0.8-1.1-1.1-1.9
			c-0.3-0.8-0.5-1.8-0.5-2.9c0-0.9,0.1-1.8,0.4-2.5s0.6-1.4,1-1.9c0.4-0.5,0.9-0.9,1.5-1.2c0.6-0.3,1.2-0.4,1.9-0.4
			c0.8,0,1.4,0.1,2,0.4c0.6,0.3,1.1,0.7,1.5,1.2s0.7,1.1,0.9,1.8C41.7,36.6,41.8,37.4,41.8,38.3z M40.3,37.8
			c-0.1-1.2-0.4-2.1-0.9-2.8c-0.5-0.7-1.3-1.1-2.3-1.1c-0.9,0-1.6,0.3-2.2,1s-0.9,1.6-1,3H40.3z"/>
		<path id="XMLID_176_" class="st1" d="M49.7,44.5h-1.5L44,32.7h1.8l3,9.3l0.2,0.6l0.2-0.6l3-9.3H54L49.7,44.5z"/>
		<path id="XMLID_173_" class="st1" d="M65.7,38.3c0,0.2,0,0.4,0,0.5c0,0.1,0,0.3-0.1,0.4h-7.8c0.1,1.3,0.4,2.3,1,3
			c0.6,0.7,1.3,1.1,2.3,1.1c0.7,0,1.3-0.1,1.7-0.3s1-0.5,1.5-0.8l0.8,1.2c-0.4,0.2-0.7,0.4-1,0.6c-0.3,0.2-0.6,0.3-1,0.4
			c-0.3,0.1-0.7,0.2-1,0.3s-0.8,0.1-1.2,0.1c-0.5,0-1.1-0.1-1.7-0.3c-0.6-0.2-1.1-0.6-1.5-1c-0.5-0.5-0.8-1.1-1.1-1.9
			c-0.3-0.8-0.5-1.8-0.5-2.9c0-0.9,0.1-1.8,0.4-2.5s0.6-1.4,1-1.9c0.4-0.5,0.9-0.9,1.5-1.2c0.6-0.3,1.2-0.4,1.9-0.4
			c0.8,0,1.4,0.1,2,0.4c0.6,0.3,1.1,0.7,1.5,1.2s0.7,1.1,0.9,1.8C65.6,36.6,65.7,37.4,65.7,38.3z M64.1,37.8
			c-0.1-1.2-0.4-2.1-0.9-2.8c-0.5-0.7-1.3-1.1-2.3-1.1c-0.9,0-1.6,0.3-2.2,1s-0.9,1.6-1,3H64.1z"/>
		<path id="XMLID_170_" class="st1" d="M71,34.1v7.7c0,0.5,0.1,0.9,0.3,1.1c0.2,0.2,0.5,0.3,0.9,0.3c0.3,0,0.6,0,0.9-0.1
			c0.2-0.1,0.5-0.1,0.8-0.3l-0.1,1.5c-0.3,0.1-0.7,0.2-1,0.3c-0.3,0.1-0.7,0.1-1.2,0.1c-0.7,0-1.3-0.2-1.7-0.6
			c-0.4-0.4-0.6-1.1-0.6-2.1v-7.9h-1.5v-1.4h1.5v-3.6l1.7-0.9v4.6H74v1.4H71z"/>
		<path id="XMLID_167_" class="st1" d="M79.4,29.4c0,0.3-0.1,0.6-0.3,0.8s-0.5,0.3-0.8,0.3c-0.3,0-0.6-0.1-0.9-0.3S77,29.7,77,29.4
			c0-0.3,0.1-0.6,0.4-0.9c0.2-0.2,0.5-0.3,0.9-0.3c0.3,0,0.6,0.1,0.8,0.3C79.3,28.8,79.4,29.1,79.4,29.4z M77.3,44.5V32.7H79v11.8
			H77.3z"/>
		<path id="XMLID_165_" class="st1" d="M88.9,34.5c-0.2-0.1-0.5-0.2-0.8-0.3c-0.3-0.1-0.6-0.1-1-0.1c-0.8,0-1.5,0.3-1.9,0.9
			c-0.4,0.6-0.7,1.5-0.7,2.6v6.9h-1.7V32.7h1.7v1.5c0.3-0.5,0.7-0.9,1.2-1.2c0.5-0.3,1.1-0.5,1.7-0.5c0.4,0,0.8,0,1.1,0.1
			c0.3,0.1,0.5,0.1,0.8,0.2L88.9,34.5z"/>
		<path id="XMLID_162_" class="st1" d="M98.8,44.5v-1.4c-0.4,0.4-0.9,0.8-1.5,1.2c-0.6,0.3-1.3,0.5-2.2,0.5c-0.5,0-0.9-0.1-1.4-0.2
			c-0.4-0.1-0.9-0.3-1.2-0.6c-0.4-0.3-0.6-0.7-0.9-1.2c-0.2-0.5-0.3-1.1-0.3-1.8c0-0.7,0.1-1.2,0.4-1.7c0.3-0.5,0.6-0.9,1-1.2
			s0.9-0.5,1.4-0.7c0.5-0.1,1.1-0.2,1.7-0.2c0.6,0,1.2,0.1,1.7,0.2c0.5,0.1,0.9,0.3,1.3,0.5v-1.4c0-1.7-0.9-2.6-2.6-2.6
			c-0.6,0-1.2,0.1-1.7,0.2c-0.5,0.2-1,0.4-1.5,0.7l-0.6-1.4c0.5-0.3,1.1-0.5,1.8-0.7c0.7-0.2,1.4-0.3,2.2-0.3c1.3,0,2.3,0.3,3,0.9
			c0.7,0.6,1.1,1.6,1.1,2.9v8.2H98.8z M98.8,39.2c-0.4-0.2-0.8-0.4-1.3-0.5c-0.5-0.1-1-0.2-1.8-0.2c-0.9,0-1.5,0.2-2,0.6
			c-0.5,0.4-0.7,1-0.7,1.7c0,0.9,0.2,1.5,0.7,1.9c0.4,0.4,1,0.6,1.7,0.6c0.8,0,1.4-0.2,2-0.5c0.6-0.3,1-0.8,1.4-1.3V39.2z"/>
		<path id="XMLID_160_" class="st1" d="M111.3,35.1c-0.4-0.4-0.9-0.7-1.3-0.9s-0.9-0.3-1.5-0.3c-0.5,0-0.9,0.1-1.3,0.3
			c-0.4,0.2-0.7,0.5-1,0.9c-0.3,0.4-0.5,0.9-0.7,1.5s-0.2,1.2-0.2,2c0,1.5,0.3,2.6,0.9,3.5c0.6,0.9,1.4,1.3,2.5,1.3
			c0.6,0,1.1-0.1,1.5-0.3c0.4-0.2,0.8-0.5,1.2-0.9l1,1.1c-0.5,0.5-1,0.9-1.6,1.2c-0.6,0.3-1.3,0.4-2.2,0.4c-0.6,0-1.3-0.1-1.9-0.4
			c-0.6-0.2-1.1-0.6-1.6-1.1c-0.5-0.5-0.8-1.1-1.1-1.9s-0.4-1.7-0.4-2.7c0-1.1,0.1-2,0.4-2.8c0.3-0.8,0.7-1.4,1.2-1.9
			c0.5-0.5,1-0.9,1.6-1.1c0.6-0.2,1.2-0.4,1.8-0.4c0.8,0,1.5,0.1,2.1,0.4c0.6,0.3,1.1,0.6,1.6,1L111.3,35.1z"/>
		<path id="XMLID_157_" class="st1" d="M124.2,38.3c0,0.2,0,0.4,0,0.5c0,0.1,0,0.3-0.1,0.4h-7.8c0.1,1.3,0.4,2.3,1,3
			c0.6,0.7,1.3,1.1,2.3,1.1c0.7,0,1.3-0.1,1.7-0.3s1-0.5,1.5-0.8l0.8,1.2c-0.4,0.2-0.7,0.4-1,0.6c-0.3,0.2-0.6,0.3-1,0.4
			c-0.3,0.1-0.7,0.2-1,0.3s-0.8,0.1-1.2,0.1c-0.5,0-1.1-0.1-1.7-0.3c-0.6-0.2-1.1-0.6-1.5-1c-0.5-0.5-0.8-1.1-1.1-1.9
			c-0.3-0.8-0.5-1.8-0.5-2.9c0-0.9,0.1-1.8,0.4-2.5s0.6-1.4,1-1.9c0.4-0.5,0.9-0.9,1.5-1.2c0.6-0.3,1.2-0.4,1.9-0.4
			c0.8,0,1.4,0.1,2,0.4c0.6,0.3,1.1,0.7,1.5,1.2s0.7,1.1,0.9,1.8C124.1,36.6,124.2,37.4,124.2,38.3z M122.7,37.8
			c-0.1-1.2-0.4-2.1-0.9-2.8c-0.5-0.7-1.3-1.1-2.3-1.1c-0.9,0-1.6,0.3-2.2,1s-0.9,1.6-1,3H122.7z"/>
		<path id="XMLID_155_" class="st1" d="M129.6,34.1v7.7c0,0.5,0.1,0.9,0.3,1.1c0.2,0.2,0.5,0.3,0.9,0.3c0.3,0,0.6,0,0.9-0.1
			c0.2-0.1,0.5-0.1,0.8-0.3l-0.1,1.5c-0.3,0.1-0.7,0.2-1,0.3c-0.3,0.1-0.7,0.1-1.2,0.1c-0.7,0-1.3-0.2-1.7-0.6
			c-0.4-0.4-0.6-1.1-0.6-2.1v-7.9h-1.5v-1.4h1.5v-3.6l1.7-0.9v4.6h2.9v1.4H129.6z"/>
		<path id="XMLID_152_" class="st1" d="M142.5,44.5v-1.4c-0.4,0.4-0.9,0.8-1.5,1.2c-0.6,0.3-1.3,0.5-2.2,0.5c-0.5,0-0.9-0.1-1.4-0.2
			c-0.4-0.1-0.9-0.3-1.2-0.6c-0.4-0.3-0.6-0.7-0.9-1.2c-0.2-0.5-0.3-1.1-0.3-1.8c0-0.7,0.1-1.2,0.4-1.7c0.3-0.5,0.6-0.9,1-1.2
			s0.9-0.5,1.4-0.7c0.5-0.1,1.1-0.2,1.7-0.2c0.6,0,1.2,0.1,1.7,0.2c0.5,0.1,0.9,0.3,1.3,0.5v-1.4c0-1.7-0.9-2.6-2.6-2.6
			c-0.6,0-1.2,0.1-1.7,0.2c-0.5,0.2-1,0.4-1.5,0.7l-0.6-1.4c0.5-0.3,1.1-0.5,1.8-0.7c0.7-0.2,1.4-0.3,2.2-0.3c1.3,0,2.3,0.3,3,0.9
			c0.7,0.6,1.1,1.6,1.1,2.9v8.2H142.5z M142.5,39.2c-0.4-0.2-0.8-0.4-1.3-0.5c-0.5-0.1-1-0.2-1.8-0.2c-0.9,0-1.5,0.2-2,0.6
			c-0.5,0.4-0.7,1-0.7,1.7c0,0.9,0.2,1.5,0.7,1.9c0.4,0.4,1,0.6,1.7,0.6c0.8,0,1.4-0.2,2-0.5c0.6-0.3,1-0.8,1.4-1.3V39.2z"/>
		<path id="XMLID_150_" class="st1" d="M161.6,44.5v-6.9c0-1.4-0.2-2.3-0.6-2.9s-1.1-0.8-1.9-0.8c-0.8,0-1.4,0.3-1.9,0.9
			s-0.7,1.5-0.7,2.8v6.9h-1.7v-6.9c0-1.4-0.2-2.3-0.6-2.9c-0.4-0.6-1.1-0.8-1.9-0.8c-0.8,0-1.4,0.3-1.9,0.9
			c-0.5,0.6-0.7,1.5-0.7,2.8v6.9h-1.7V32.7h1.7l0,1.4c0.3-0.5,0.7-0.9,1.2-1.2c0.5-0.3,1.1-0.5,1.8-0.5c0.8,0,1.5,0.2,2,0.6
			c0.5,0.4,0.9,0.9,1.2,1.4c0.2-0.3,0.4-0.6,0.6-0.8c0.2-0.2,0.5-0.5,0.7-0.6c0.3-0.2,0.6-0.3,1-0.4s0.8-0.2,1.3-0.2
			c1.2,0,2.2,0.4,2.9,1.1c0.7,0.8,1.1,2,1.1,3.7v7.2H161.6z"/>
		<path id="XMLID_147_" class="st1" d="M179.6,44.5v-1.4c-0.4,0.4-0.9,0.8-1.5,1.2c-0.6,0.3-1.3,0.5-2.2,0.5c-0.5,0-0.9-0.1-1.4-0.2
			c-0.4-0.1-0.9-0.3-1.2-0.6c-0.4-0.3-0.6-0.7-0.9-1.2c-0.2-0.5-0.3-1.1-0.3-1.8c0-0.7,0.1-1.2,0.4-1.7c0.3-0.5,0.6-0.9,1-1.2
			s0.9-0.5,1.4-0.7c0.5-0.1,1.1-0.2,1.7-0.2c0.6,0,1.2,0.1,1.7,0.2c0.5,0.1,0.9,0.3,1.3,0.5v-1.4c0-1.7-0.9-2.6-2.6-2.6
			c-0.6,0-1.2,0.1-1.7,0.2c-0.5,0.2-1,0.4-1.5,0.7l-0.6-1.4c0.5-0.3,1.1-0.5,1.8-0.7c0.7-0.2,1.4-0.3,2.2-0.3c1.3,0,2.3,0.3,3,0.9
			c0.7,0.6,1.1,1.6,1.1,2.9v8.2H179.6z M179.6,39.2c-0.4-0.2-0.8-0.4-1.3-0.5c-0.5-0.1-1-0.2-1.8-0.2c-0.9,0-1.5,0.2-2,0.6
			c-0.5,0.4-0.7,1-0.7,1.7c0,0.9,0.2,1.5,0.7,1.9c0.4,0.4,1,0.6,1.7,0.6c0.8,0,1.4-0.2,2-0.5c0.6-0.3,1-0.8,1.4-1.3V39.2z"/>
		<path id="XMLID_145_" class="st1" d="M192.2,41.4c0,0.6-0.1,1.1-0.3,1.5c-0.2,0.4-0.5,0.8-0.9,1c-0.4,0.3-0.8,0.5-1.3,0.6
			c-0.5,0.1-1,0.2-1.5,0.2c-0.8,0-1.6-0.1-2.3-0.4c-0.7-0.3-1.3-0.6-1.9-1.1l1-1.2c0.5,0.4,1,0.7,1.5,1c0.5,0.2,1.1,0.3,1.7,0.3
			c0.8,0,1.4-0.2,1.8-0.5s0.6-0.8,0.6-1.3c0-0.2,0-0.5-0.1-0.7c-0.1-0.2-0.3-0.4-0.5-0.6c-0.2-0.2-0.5-0.4-0.9-0.6
			c-0.4-0.2-0.8-0.4-1.3-0.6c-0.6-0.3-1.1-0.5-1.5-0.7c-0.4-0.2-0.8-0.5-1-0.8c-0.3-0.3-0.5-0.6-0.6-0.9s-0.2-0.7-0.2-1.2
			c0-0.4,0.1-0.9,0.3-1.2c0.2-0.4,0.4-0.7,0.8-1c0.3-0.3,0.7-0.5,1.2-0.6c0.4-0.1,0.9-0.2,1.5-0.2c0.8,0,1.5,0.1,2.2,0.3
			c0.6,0.2,1.2,0.5,1.6,0.9L191,35c-0.5-0.4-0.9-0.6-1.3-0.8s-1-0.3-1.6-0.3s-1.1,0.1-1.5,0.4c-0.3,0.3-0.5,0.6-0.5,1.1
			c0,0.3,0,0.5,0.1,0.7c0.1,0.2,0.2,0.4,0.4,0.5c0.2,0.2,0.5,0.3,0.8,0.5s0.8,0.4,1.2,0.6c0.6,0.3,1,0.5,1.5,0.7
			c0.4,0.2,0.8,0.5,1.1,0.8c0.3,0.3,0.5,0.6,0.7,1C192.1,40.5,192.2,40.9,192.2,41.4z"/>
		<path id="XMLID_142_" class="st1" d="M208,44.5v-1.4c-0.4,0.4-0.9,0.8-1.5,1.2c-0.6,0.3-1.3,0.5-2.2,0.5c-0.5,0-0.9-0.1-1.4-0.2
			c-0.4-0.1-0.9-0.3-1.2-0.6c-0.4-0.3-0.6-0.7-0.9-1.2c-0.2-0.5-0.3-1.1-0.3-1.8c0-0.7,0.1-1.2,0.4-1.7c0.3-0.5,0.6-0.9,1-1.2
			s0.9-0.5,1.4-0.7c0.5-0.1,1.1-0.2,1.7-0.2c0.6,0,1.2,0.1,1.7,0.2c0.5,0.1,0.9,0.3,1.3,0.5v-1.4c0-1.7-0.9-2.6-2.6-2.6
			c-0.6,0-1.2,0.1-1.7,0.2c-0.5,0.2-1,0.4-1.5,0.7l-0.6-1.4c0.5-0.3,1.1-0.5,1.8-0.7c0.7-0.2,1.4-0.3,2.2-0.3c1.3,0,2.3,0.3,3,0.9
			c0.7,0.6,1.1,1.6,1.1,2.9v8.2H208z M208,39.2c-0.4-0.2-0.8-0.4-1.3-0.5c-0.5-0.1-1-0.2-1.8-0.2c-0.9,0-1.5,0.2-2,0.6
			c-0.5,0.4-0.7,1-0.7,1.7c0,0.9,0.2,1.5,0.7,1.9c0.4,0.4,1,0.6,1.7,0.6c0.8,0,1.4-0.2,2-0.5c0.6-0.3,1-0.8,1.4-1.3V39.2z"/>
		<path id="XMLID_139_" class="st1" d="M220.5,44.5v-1.4c-0.4,0.4-0.9,0.8-1.5,1.2c-0.6,0.3-1.3,0.5-2.1,0.5c-0.6,0-1.1-0.1-1.7-0.3
			c-0.5-0.2-1-0.6-1.3-1.1s-0.7-1.1-0.9-1.9s-0.3-1.7-0.3-2.7c0-1,0.1-2,0.3-2.8c0.2-0.8,0.6-1.4,1-2s0.9-0.9,1.4-1.2
			c0.5-0.3,1.1-0.4,1.7-0.4c0.7,0,1.4,0.1,1.9,0.4c0.5,0.3,1,0.7,1.4,1.1v-5l1.7-0.9v16.4H220.5z M220.5,35.7
			c-0.3-0.5-0.8-0.9-1.3-1.3c-0.5-0.3-1.2-0.5-1.9-0.5c-1,0-1.7,0.4-2.2,1.2c-0.5,0.8-0.7,2-0.7,3.6c0,1.5,0.3,2.6,0.8,3.4
			c0.5,0.8,1.3,1.1,2.2,1.1c0.6,0,1.2-0.2,1.7-0.5c0.5-0.3,1-0.7,1.4-1.3V35.7z"/>
		<path id="XMLID_136_" class="st1" d="M233.1,44.5v-1.4c-0.4,0.4-0.9,0.8-1.5,1.2c-0.6,0.3-1.3,0.5-2.1,0.5c-0.6,0-1.1-0.1-1.7-0.3
			c-0.5-0.2-1-0.6-1.3-1.1s-0.7-1.1-0.9-1.9s-0.3-1.7-0.3-2.7c0-1,0.1-2,0.3-2.8c0.2-0.8,0.6-1.4,1-2s0.9-0.9,1.4-1.2
			c0.5-0.3,1.1-0.4,1.7-0.4c0.7,0,1.4,0.1,1.9,0.4c0.5,0.3,1,0.7,1.4,1.1v-5l1.7-0.9v16.4H233.1z M233.1,35.7
			c-0.3-0.5-0.8-0.9-1.3-1.3c-0.5-0.3-1.2-0.5-1.9-0.5c-1,0-1.7,0.4-2.2,1.2c-0.5,0.8-0.7,2-0.7,3.6c0,1.5,0.3,2.6,0.8,3.4
			c0.5,0.8,1.3,1.1,2.2,1.1c0.6,0,1.2-0.2,1.7-0.5c0.5-0.3,1-0.7,1.4-1.3V35.7z"/>
		<path id="XMLID_134_" class="st1" d="M237.8,37.1v-1.6h4.9v1.6H237.8z"/>
		<path id="XMLID_131_" class="st1" d="M255.4,38.5c0,1-0.1,1.9-0.4,2.7c-0.3,0.8-0.6,1.4-1.1,2c-0.5,0.5-1,0.9-1.6,1.2
			c-0.6,0.3-1.3,0.4-2,0.4c-0.7,0-1.4-0.1-2-0.4c-0.6-0.3-1.2-0.7-1.6-1.2c-0.5-0.5-0.8-1.2-1.1-1.9c-0.3-0.8-0.4-1.6-0.4-2.7
			c0-1,0.1-1.9,0.4-2.7c0.3-0.8,0.6-1.4,1.1-1.9s1-0.9,1.6-1.2c0.6-0.3,1.3-0.4,2-0.4s1.4,0.1,2,0.4c0.6,0.3,1.2,0.6,1.6,1.1
			c0.5,0.5,0.8,1.1,1.1,1.9C255.3,36.6,255.4,37.5,255.4,38.5z M253.7,38.6c0-1.6-0.3-2.7-0.9-3.5c-0.6-0.8-1.5-1.2-2.5-1.2
			s-1.9,0.4-2.5,1.2c-0.6,0.8-0.9,1.9-0.9,3.5s0.3,2.7,0.9,3.5c0.6,0.8,1.5,1.2,2.5,1.2s1.9-0.4,2.5-1.2
			C253.4,41.3,253.7,40.1,253.7,38.6z"/>
		<path id="XMLID_129_" class="st1" d="M265.9,44.5v-6.9c0-1.3-0.2-2.2-0.7-2.8c-0.5-0.6-1.2-0.9-2.1-0.9c-0.8,0-1.5,0.3-2.1,0.9
			c-0.6,0.6-0.8,1.5-0.8,2.8v6.9h-1.7V32.7h1.7l0,1.4c0.3-0.5,0.8-0.9,1.3-1.2c0.5-0.3,1.2-0.5,1.9-0.5c0.6,0,1.2,0.1,1.7,0.3
			c0.5,0.2,0.9,0.5,1.3,0.9c0.4,0.4,0.6,0.9,0.8,1.5s0.3,1.3,0.3,2.2v7.2H265.9z"/>
		<path id="XMLID_127_" class="st1" d="M279.3,34.1v7.7c0,0.5,0.1,0.9,0.3,1.1c0.2,0.2,0.5,0.3,0.9,0.3c0.3,0,0.6,0,0.9-0.1
			c0.2-0.1,0.5-0.1,0.8-0.3l-0.1,1.5c-0.3,0.1-0.7,0.2-1,0.3c-0.3,0.1-0.7,0.1-1.2,0.1c-0.7,0-1.3-0.2-1.7-0.6
			c-0.4-0.4-0.6-1.1-0.6-2.1v-7.9h-1.5v-1.4h1.5v-3.6l1.7-0.9v4.6h2.9v1.4H279.3z"/>
		<path id="XMLID_125_" class="st1" d="M292.8,44.5v-6.9c0-1.3-0.2-2.2-0.7-2.8c-0.5-0.6-1.2-0.9-2.1-0.9c-0.8,0-1.5,0.3-2.1,0.9
			c-0.6,0.6-0.8,1.5-0.8,2.8v6.9h-1.7V29.1l1.7-0.9l0,6c0.3-0.5,0.8-0.9,1.3-1.2c0.5-0.3,1.2-0.5,1.9-0.5c0.6,0,1.2,0.1,1.7,0.3
			c0.5,0.2,0.9,0.5,1.3,0.9c0.4,0.4,0.6,0.9,0.8,1.5s0.3,1.3,0.3,2.2v7.2H292.8z"/>
		<path id="XMLID_122_" class="st1" d="M307.2,38.3c0,0.2,0,0.4,0,0.5c0,0.1,0,0.3-0.1,0.4h-7.8c0.1,1.3,0.4,2.3,1,3
			c0.6,0.7,1.3,1.1,2.3,1.1c0.7,0,1.3-0.1,1.7-0.3s1-0.5,1.5-0.8l0.8,1.2c-0.4,0.2-0.7,0.4-1,0.6c-0.3,0.2-0.6,0.3-1,0.4
			c-0.3,0.1-0.7,0.2-1,0.3s-0.8,0.1-1.2,0.1c-0.5,0-1.1-0.1-1.7-0.3c-0.6-0.2-1.1-0.6-1.5-1c-0.5-0.5-0.8-1.1-1.1-1.9
			c-0.3-0.8-0.5-1.8-0.5-2.9c0-0.9,0.1-1.8,0.4-2.5s0.6-1.4,1-1.9c0.4-0.5,0.9-0.9,1.5-1.2c0.6-0.3,1.2-0.4,1.9-0.4
			c0.8,0,1.4,0.1,2,0.4c0.6,0.3,1.1,0.7,1.5,1.2s0.7,1.1,0.9,1.8C307.1,36.6,307.2,37.4,307.2,38.3z M305.6,37.8
			c-0.1-1.2-0.4-2.1-0.9-2.8c-0.5-0.7-1.3-1.1-2.3-1.1c-0.9,0-1.6,0.3-2.2,1s-0.9,1.6-1,3H305.6z"/>
		<path id="XMLID_120_" class="st1" d="M316.4,34.5c-0.2-0.1-0.5-0.2-0.8-0.3c-0.3-0.1-0.6-0.1-1-0.1c-0.8,0-1.5,0.3-1.9,0.9
			c-0.4,0.6-0.7,1.5-0.7,2.6v6.9h-1.7V32.7h1.7v1.5c0.3-0.5,0.7-0.9,1.2-1.2c0.5-0.3,1.1-0.5,1.7-0.5c0.4,0,0.8,0,1.1,0.1
			c0.3,0.1,0.5,0.1,0.8,0.2L316.4,34.5z"/>
		<path id="XMLID_117_" class="st1" d="M326.2,44.5v-1.4c-0.4,0.4-0.9,0.8-1.5,1.2c-0.6,0.3-1.3,0.5-2.2,0.5c-0.5,0-0.9-0.1-1.4-0.2
			c-0.4-0.1-0.9-0.3-1.2-0.6c-0.4-0.3-0.6-0.7-0.9-1.2c-0.2-0.5-0.3-1.1-0.3-1.8c0-0.7,0.1-1.2,0.4-1.7c0.3-0.5,0.6-0.9,1-1.2
			s0.9-0.5,1.4-0.7c0.5-0.1,1.1-0.2,1.7-0.2c0.6,0,1.2,0.1,1.7,0.2c0.5,0.1,0.9,0.3,1.3,0.5v-1.4c0-1.7-0.9-2.6-2.6-2.6
			c-0.6,0-1.2,0.1-1.7,0.2c-0.5,0.2-1,0.4-1.5,0.7l-0.6-1.4c0.5-0.3,1.1-0.5,1.8-0.7c0.7-0.2,1.4-0.3,2.2-0.3c1.3,0,2.3,0.3,3,0.9
			c0.7,0.6,1.1,1.6,1.1,2.9v8.2H326.2z M326.2,39.2c-0.4-0.2-0.8-0.4-1.3-0.5c-0.5-0.1-1-0.2-1.8-0.2c-0.9,0-1.5,0.2-2,0.6
			c-0.5,0.4-0.7,1-0.7,1.7c0,0.9,0.2,1.5,0.7,1.9c0.4,0.4,1,0.6,1.7,0.6c0.8,0,1.4-0.2,2-0.5c0.6-0.3,1-0.8,1.4-1.3V39.2z"/>
		<path id="XMLID_114_" class="st1" d="M341.1,38.4c0,1-0.1,2-0.3,2.8c-0.2,0.8-0.5,1.4-1,2c-0.4,0.5-0.9,0.9-1.4,1.2
			c-0.5,0.3-1.1,0.4-1.7,0.4c-0.7,0-1.4-0.1-1.9-0.4c-0.5-0.3-1-0.7-1.4-1.1v4.7l-1.7,0.9V32.7h1.7l0,1.4c0.4-0.4,0.9-0.8,1.5-1.2
			c0.6-0.3,1.3-0.5,2.1-0.5c0.6,0,1.1,0.1,1.7,0.3c0.5,0.2,1,0.6,1.3,1.1c0.4,0.5,0.7,1.1,0.9,1.9C341,36.5,341.1,37.4,341.1,38.4z
			 M339.4,38.4c0-1.5-0.3-2.6-0.8-3.4c-0.5-0.8-1.3-1.1-2.2-1.1c-0.6,0-1.2,0.2-1.7,0.5c-0.5,0.3-1,0.7-1.4,1.3v5.9
			c0.3,0.5,0.8,0.9,1.3,1.3c0.5,0.3,1.2,0.5,1.9,0.5c1,0,1.7-0.4,2.2-1.2C339.2,41.2,339.4,40,339.4,38.4z"/>
		<path id="XMLID_112_" class="st1" d="M347.5,48.7h-1.7l1.6-4.3l-4.2-11.7h1.8l2.9,8.6l0.4,1.2l0.4-1.2l2.9-8.6h1.8L347.5,48.7z"/>
		<path id="XMLID_109_" class="st1" d="M364.1,29.4c0,0.3-0.1,0.6-0.3,0.8s-0.5,0.3-0.8,0.3c-0.3,0-0.6-0.1-0.9-0.3
			s-0.4-0.5-0.4-0.8c0-0.3,0.1-0.6,0.4-0.9c0.2-0.2,0.5-0.3,0.9-0.3c0.3,0,0.6,0.1,0.8,0.3C364,28.8,364.1,29.1,364.1,29.4z
			 M362.1,44.5V32.7h1.7v11.8H362.1z"/>
		<path id="XMLID_107_" class="st1" d="M375,44.5v-6.9c0-1.3-0.2-2.2-0.7-2.8c-0.5-0.6-1.2-0.9-2.1-0.9c-0.8,0-1.5,0.3-2.1,0.9
			c-0.6,0.6-0.8,1.5-0.8,2.8v6.9h-1.7V32.7h1.7l0,1.4c0.3-0.5,0.8-0.9,1.3-1.2c0.5-0.3,1.2-0.5,1.9-0.5c0.6,0,1.2,0.1,1.7,0.3
			c0.5,0.2,0.9,0.5,1.3,0.9c0.4,0.4,0.6,0.9,0.8,1.5s0.3,1.3,0.3,2.2v7.2H375z"/>
		<path id="XMLID_105_" class="st1" d="M397.7,39.6c0,0.9-0.2,1.6-0.5,2.2c-0.3,0.6-0.8,1.2-1.3,1.6c-0.6,0.4-1.3,0.7-2.1,1
			c-0.8,0.2-1.7,0.3-2.7,0.3c-1.2,0-2.3-0.2-3.3-0.7c-1-0.5-2-1.2-2.9-2.3l2.4-1.9c0.7,0.7,1.3,1.2,2,1.5c0.6,0.3,1.4,0.4,2.2,0.4
			c1,0,1.8-0.2,2.3-0.5c0.5-0.4,0.7-0.8,0.7-1.5c0-0.6-0.2-1.1-0.6-1.4c-0.4-0.3-1-0.4-1.7-0.4h-1.9v-3.1h1.7c0.7,0,1.1-0.1,1.4-0.4
			c0.3-0.3,0.4-0.7,0.4-1.2c0-0.2,0-0.4-0.1-0.6s-0.2-0.4-0.4-0.5c-0.2-0.1-0.5-0.3-0.8-0.4c-0.3-0.1-0.8-0.1-1.2-0.1
			c-1.2,0-2.2,0.4-3.1,1.3l-2.3-2.1c0.7-0.8,1.5-1.4,2.4-1.7c0.8-0.4,1.9-0.6,3-0.6c0.8,0,1.6,0.1,2.3,0.3c0.7,0.2,1.3,0.5,1.8,0.8
			c0.5,0.4,0.9,0.8,1.2,1.4c0.3,0.6,0.4,1.2,0.4,1.9c0,0.9-0.2,1.5-0.6,2.1c-0.4,0.5-0.8,0.9-1.3,1.1c0.3,0.1,0.5,0.2,0.8,0.4
			c0.3,0.2,0.6,0.4,0.8,0.7c0.2,0.3,0.5,0.6,0.6,1C397.7,38.7,397.7,39.1,397.7,39.6z"/>
		<path id="XMLID_103_" class="st1" d="M400.4,44.5c0-1.3,0.2-2.5,0.6-3.5c0.4-1,0.9-1.9,1.6-2.6c0.7-0.7,1.4-1.4,2.3-1.9
			c0.9-0.5,1.8-1,2.7-1.4c0.7-0.3,1.1-0.6,1.4-0.9c0.3-0.3,0.4-0.6,0.4-1c0-0.4-0.2-0.8-0.6-1.1c-0.4-0.3-1.1-0.5-2-0.5
			c-0.9,0-1.8,0.2-2.5,0.6c-0.7,0.4-1.4,0.8-1.9,1.3l-2-2.4c0.8-0.9,1.8-1.5,2.9-1.9c1.1-0.4,2.2-0.7,3.5-0.7c1.9,0,3.3,0.4,4.3,1.1
			s1.5,1.9,1.5,3.4c0,0.6-0.1,1.2-0.3,1.7c-0.2,0.5-0.4,0.9-0.8,1.3s-0.8,0.7-1.3,1c-0.5,0.3-1.1,0.6-1.8,0.9
			c-0.7,0.3-1.3,0.6-1.8,0.9c-0.5,0.3-0.9,0.6-1.2,0.9c-0.3,0.3-0.6,0.6-0.8,0.9c-0.2,0.3-0.3,0.6-0.4,0.9h8.4v3H400.4z"/>
		<path id="XMLID_100_" class="st1" d="M426.4,41.3v3.2h-3v-3.2h-8.6v-2.8l8.3-9.7h3.3v9.6h2.1v2.9H426.4z M423.4,32.4
			c-0.1,0.2-0.4,0.5-0.6,0.8c-0.3,0.3-0.5,0.7-0.8,1l-2.2,2.6c-0.1,0.1-0.3,0.3-0.4,0.5c-0.1,0.2-0.3,0.3-0.4,0.4
			c-0.1,0.1-0.3,0.3-0.4,0.4s-0.2,0.2-0.3,0.3c0.1,0,0.3,0,0.6,0c0.3,0,0.5,0,0.8,0s0.6,0,0.9,0c0.3,0,0.6,0,0.8,0h1.9v-2.6
			c0-0.2,0-0.5,0-0.8c0-0.3,0-0.7,0-1c0-0.3,0-0.7,0-0.9C423.4,32.7,423.4,32.5,423.4,32.4z"/>
		<path id="XMLID_97_" class="st1" d="M447.3,38.8c0,0.9-0.1,1.7-0.3,2.4c-0.2,0.7-0.5,1.4-0.9,1.9c-0.4,0.5-0.9,0.9-1.4,1.2
			c-0.6,0.3-1.2,0.4-2,0.4c-0.5,0-1-0.1-1.4-0.3c-0.4-0.2-0.8-0.4-1.1-0.7v3.5l-3.1,1.6V32.7h3.1v0.7c0.3-0.3,0.6-0.5,1-0.7
			c0.4-0.2,0.9-0.3,1.4-0.3c0.6,0,1.2,0.1,1.8,0.4c0.6,0.2,1,0.6,1.5,1.1c0.4,0.5,0.7,1.2,1,2S447.3,37.7,447.3,38.8z M444.1,38.8
			c0-1.2-0.2-2.1-0.6-2.6s-0.9-0.8-1.5-0.8c-0.5,0-0.9,0.1-1.1,0.3c-0.3,0.2-0.5,0.4-0.8,0.7v4.5c0.5,0.7,1.2,1,2.1,1
			C443.5,41.8,444.1,40.8,444.1,38.8z"/>
		<path id="XMLID_94_" class="st1" d="M456.2,44.5v-0.8c-0.3,0.3-0.7,0.5-1.1,0.7c-0.5,0.2-1,0.3-1.5,0.3c-0.6,0-1.1-0.1-1.6-0.3
			c-0.5-0.2-1-0.4-1.4-0.8c-0.4-0.3-0.7-0.8-1-1.3c-0.3-0.5-0.4-1.1-0.4-1.9c0-0.6,0.1-1.2,0.4-1.7c0.2-0.5,0.6-0.9,1-1.2
			c0.4-0.3,0.9-0.6,1.5-0.7c0.6-0.2,1.2-0.2,1.9-0.2c0.5,0,1,0,1.3,0.1c0.4,0.1,0.7,0.2,0.9,0.3v-0.6c0-0.4-0.1-0.8-0.4-1.1
			c-0.3-0.3-0.7-0.4-1.3-0.4c-0.4,0-0.7,0-1,0c-0.3,0-0.5,0.1-0.8,0.1c-0.2,0.1-0.5,0.1-0.7,0.2c-0.2,0.1-0.5,0.2-0.8,0.4l-1.2-2.2
			c0.3-0.2,0.7-0.4,1-0.5c0.3-0.1,0.7-0.3,1-0.4c0.4-0.1,0.7-0.2,1.1-0.2s0.8-0.1,1.3-0.1c0.7,0,1.4,0.1,2,0.3s1.1,0.4,1.5,0.8
			c0.4,0.4,0.7,0.8,1,1.3c0.2,0.5,0.3,1.1,0.3,1.8v7.9H456.2z M456.2,39.6c-0.3-0.2-0.6-0.3-0.9-0.4c-0.3-0.1-0.7-0.1-1.3-0.1
			c-0.6,0-1,0.1-1.3,0.4s-0.5,0.6-0.5,1.1c0,0.4,0.1,0.8,0.4,1.1c0.3,0.3,0.7,0.5,1.4,0.5c0.5,0,1-0.1,1.3-0.3
			c0.4-0.2,0.7-0.5,0.8-0.8V39.6z"/>
		<path id="XMLID_92_" class="st1" d="M468.8,44c-0.3,0.2-0.6,0.4-1,0.5s-0.9,0.2-1.4,0.2c-0.5,0-0.9-0.1-1.3-0.3
			c-0.4-0.2-0.7-0.4-1-0.7c-0.3-0.3-0.5-0.7-0.6-1.1c-0.2-0.4-0.2-0.9-0.2-1.4v-5.6h-2v-2.9h2v-3l3.1-1.6v4.6h2.8v2.9h-2.8v4.7
			c0,0.6,0.1,0.9,0.3,1.1s0.5,0.3,0.9,0.3c0.3,0,0.6-0.1,0.8-0.2c0.2-0.1,0.6-0.4,1-0.7L468.8,44z"/>
		<path id="XMLID_89_" class="st1" d="M475.6,30c0,0.5-0.2,0.9-0.5,1.2c-0.4,0.4-0.8,0.5-1.2,0.5c-0.5,0-0.9-0.2-1.2-0.5
			c-0.4-0.4-0.5-0.8-0.5-1.2c0-0.5,0.2-0.9,0.5-1.2c0.4-0.4,0.8-0.5,1.2-0.5c0.5,0,0.9,0.2,1.2,0.5C475.4,29.1,475.6,29.5,475.6,30z
			 M472.3,44.5V32.7h3.1v11.8H472.3z"/>
		<path id="XMLID_86_" class="st1" d="M488.1,38.6c0,0.2,0,0.4,0,0.6c0,0.2,0,0.3,0,0.4H481c0,0.4,0.1,0.7,0.3,1
			c0.1,0.3,0.3,0.5,0.6,0.7c0.2,0.2,0.5,0.3,0.8,0.4c0.3,0.1,0.6,0.1,0.8,0.1c0.4,0,0.8-0.1,1.2-0.2c0.3-0.1,0.6-0.4,0.9-0.6
			l2.2,1.8c-0.5,0.6-1.1,1.1-1.9,1.4c-0.8,0.3-1.6,0.5-2.3,0.5c-0.9,0-1.6-0.1-2.3-0.4c-0.7-0.3-1.3-0.7-1.7-1.2
			c-0.5-0.5-0.8-1.2-1.1-1.9c-0.3-0.8-0.4-1.6-0.4-2.5c0-0.9,0.1-1.7,0.4-2.5c0.3-0.8,0.6-1.4,1.1-2c0.5-0.5,1-1,1.7-1.3
			c0.6-0.3,1.3-0.4,2.1-0.4c0.8,0,1.5,0.2,2.1,0.5c0.6,0.3,1.1,0.8,1.6,1.3c0.4,0.6,0.7,1.2,1,2C488,37,488.1,37.8,488.1,38.6z
			 M485.1,37.3c0-0.3-0.1-0.5-0.2-0.8c-0.1-0.2-0.2-0.5-0.4-0.7c-0.2-0.2-0.4-0.4-0.6-0.5c-0.3-0.1-0.6-0.2-0.9-0.2
			c-0.6,0-1,0.2-1.4,0.6s-0.5,0.9-0.6,1.5H485.1z"/>
		<path id="XMLID_84_" class="st1" d="M497.7,44.5v-6.4c0-1-0.2-1.8-0.5-2.2c-0.3-0.4-0.8-0.6-1.5-0.6s-1.1,0.2-1.5,0.6
			c-0.4,0.4-0.5,1.1-0.5,2.1v6.5h-3.1V32.7h3.1v0.8c0.3-0.3,0.6-0.5,1.1-0.7c0.5-0.2,1-0.3,1.7-0.3c1.5,0,2.6,0.5,3.3,1.5
			c0.7,1,1.1,2.3,1.1,3.9v6.7H497.7z"/>
		<path id="XMLID_82_" class="st1" d="M510.3,44c-0.3,0.2-0.6,0.4-1,0.5s-0.9,0.2-1.4,0.2c-0.5,0-0.9-0.1-1.3-0.3
			c-0.4-0.2-0.7-0.4-1-0.7c-0.3-0.3-0.5-0.7-0.6-1.1c-0.2-0.4-0.2-0.9-0.2-1.4v-5.6h-2v-2.9h2v-3l3.1-1.6v4.6h2.8v2.9h-2.8v4.7
			c0,0.6,0.1,0.9,0.3,1.1s0.5,0.3,0.9,0.3c0.3,0,0.6-0.1,0.8-0.2c0.2-0.1,0.6-0.4,1-0.7L510.3,44z"/>
		<path id="XMLID_80_" class="st1" d="M523,41.1c0,0.7-0.1,1.2-0.4,1.7c-0.3,0.5-0.6,0.9-1,1.1c-0.4,0.3-0.9,0.5-1.5,0.6
			c-0.6,0.1-1.2,0.2-1.9,0.2c-0.9,0-1.8-0.1-2.7-0.4c-0.9-0.2-1.6-0.6-2.2-1l1-2.4c0.6,0.3,1.3,0.6,1.9,0.8s1.4,0.3,2.1,0.3
			c0.6,0,1-0.1,1.2-0.2s0.3-0.4,0.3-0.7c0-0.3-0.1-0.5-0.4-0.7c-0.2-0.2-0.7-0.3-1.4-0.5c-0.7-0.2-1.3-0.4-1.9-0.6s-1.1-0.5-1.5-0.8
			c-0.4-0.3-0.7-0.6-0.9-1.1c-0.2-0.4-0.3-0.9-0.3-1.6c0-0.6,0.1-1.1,0.3-1.6c0.2-0.4,0.6-0.8,1-1.1c0.4-0.3,0.9-0.5,1.5-0.6
			c0.6-0.1,1.2-0.2,1.9-0.2c0.7,0,1.5,0.1,2.3,0.3c0.8,0.2,1.5,0.5,2.1,0.8l-1,2.5c-0.6-0.3-1.2-0.6-1.8-0.7
			c-0.6-0.2-1.2-0.2-1.7-0.2c-0.6,0-1.1,0.1-1.3,0.2c-0.2,0.1-0.3,0.3-0.3,0.6c0,0.1,0,0.2,0.1,0.3c0.1,0.1,0.2,0.2,0.3,0.3
			c0.2,0.1,0.4,0.2,0.7,0.3c0.3,0.1,0.7,0.3,1.3,0.4c0.5,0.2,1,0.4,1.5,0.6c0.5,0.2,0.9,0.4,1.3,0.7c0.4,0.3,0.6,0.6,0.9,1
			C522.9,40,523,40.5,523,41.1z"/>
		<path id="XMLID_78_" class="st1" d="M542.3,44.5h-1.6l-2.1-7.9c0-0.1-0.1-0.2-0.1-0.4c0-0.1-0.1-0.3-0.1-0.4
			c0-0.2-0.1-0.3-0.1-0.5c0-0.1-0.1-0.3-0.1-0.4c0,0.1,0,0.2-0.1,0.4c0,0.1-0.1,0.3-0.1,0.5c0,0.2-0.1,0.3-0.1,0.4
			c0,0.1-0.1,0.3-0.1,0.4l-2.1,7.9h-1.5l-3.1-11.8h1.7l1.8,7.8c0,0.1,0,0.2,0.1,0.4c0,0.1,0.1,0.3,0.1,0.4c0,0.2,0.1,0.3,0.1,0.5
			c0,0.2,0,0.3,0.1,0.4c0-0.1,0-0.2,0.1-0.4c0-0.1,0.1-0.3,0.1-0.5c0-0.2,0.1-0.3,0.1-0.4c0-0.1,0.1-0.3,0.1-0.4l2.1-7.8h1.5
			l2.1,7.8c0,0.1,0.1,0.2,0.1,0.4c0,0.1,0.1,0.3,0.1,0.4c0,0.2,0.1,0.3,0.1,0.5c0,0.2,0.1,0.3,0.1,0.4c0-0.1,0-0.2,0.1-0.4
			c0-0.1,0.1-0.3,0.1-0.5c0-0.2,0.1-0.3,0.1-0.4s0-0.3,0.1-0.4l1.8-7.8h1.7L542.3,44.5z"/>
		<path id="XMLID_75_" class="st1" d="M550.5,29.4c0,0.3-0.1,0.6-0.3,0.8s-0.5,0.3-0.8,0.3c-0.3,0-0.6-0.1-0.9-0.3s-0.4-0.5-0.4-0.8
			c0-0.3,0.1-0.6,0.4-0.9c0.2-0.2,0.5-0.3,0.9-0.3c0.3,0,0.6,0.1,0.8,0.3C550.4,28.8,550.5,29.1,550.5,29.4z M548.4,44.5V32.7h1.7
			v11.8H548.4z"/>
		<path id="XMLID_73_" class="st1" d="M556.2,34.1v7.7c0,0.5,0.1,0.9,0.3,1.1c0.2,0.2,0.5,0.3,0.9,0.3c0.3,0,0.6,0,0.9-0.1
			c0.2-0.1,0.5-0.1,0.8-0.3l-0.1,1.5c-0.3,0.1-0.7,0.2-1,0.3c-0.3,0.1-0.7,0.1-1.2,0.1c-0.7,0-1.3-0.2-1.7-0.6
			c-0.4-0.4-0.6-1.1-0.6-2.1v-7.9H553v-1.4h1.5v-3.6l1.7-0.9v4.6h2.9v1.4H556.2z"/>
		<path id="XMLID_71_" class="st1" d="M569.7,44.5v-6.9c0-1.3-0.2-2.2-0.7-2.8c-0.5-0.6-1.2-0.9-2.1-0.9c-0.8,0-1.5,0.3-2.1,0.9
			c-0.6,0.6-0.8,1.5-0.8,2.8v6.9h-1.7V29.1l1.7-0.9l0,6c0.3-0.5,0.8-0.9,1.3-1.2c0.5-0.3,1.2-0.5,1.9-0.5c0.6,0,1.2,0.1,1.7,0.3
			c0.5,0.2,0.9,0.5,1.3,0.9c0.4,0.4,0.6,0.9,0.8,1.5s0.3,1.3,0.3,2.2v7.2H569.7z"/>
		<path id="XMLID_69_" class="st1" d="M587,34.5c-0.2-0.1-0.5-0.2-0.8-0.3c-0.3-0.1-0.6-0.1-1-0.1c-0.8,0-1.5,0.3-1.9,0.9
			c-0.4,0.6-0.7,1.5-0.7,2.6v6.9h-1.7V32.7h1.7v1.5c0.3-0.5,0.7-0.9,1.2-1.2c0.5-0.3,1.1-0.5,1.7-0.5c0.4,0,0.8,0,1.1,0.1
			c0.3,0.1,0.5,0.1,0.8,0.2L587,34.5z"/>
		<path id="XMLID_66_" class="st1" d="M599.1,38.3c0,0.2,0,0.4,0,0.5c0,0.1,0,0.3-0.1,0.4h-7.8c0.1,1.3,0.4,2.3,1,3
			c0.6,0.7,1.3,1.1,2.3,1.1c0.7,0,1.3-0.1,1.7-0.3s1-0.5,1.5-0.8l0.8,1.2c-0.4,0.2-0.7,0.4-1,0.6c-0.3,0.2-0.6,0.3-1,0.4
			c-0.3,0.1-0.7,0.2-1,0.3s-0.8,0.1-1.2,0.1c-0.5,0-1.1-0.1-1.7-0.3c-0.6-0.2-1.1-0.6-1.5-1c-0.5-0.5-0.8-1.1-1.1-1.9
			c-0.3-0.8-0.5-1.8-0.5-2.9c0-0.9,0.1-1.8,0.4-2.5s0.6-1.4,1-1.9c0.4-0.5,0.9-0.9,1.5-1.2c0.6-0.3,1.2-0.4,1.9-0.4
			c0.8,0,1.4,0.1,2,0.4c0.6,0.3,1.1,0.7,1.5,1.2s0.7,1.1,0.9,1.8C599,36.6,599.1,37.4,599.1,38.3z M597.5,37.8
			c-0.1-1.2-0.4-2.1-0.9-2.8c-0.5-0.7-1.3-1.1-2.3-1.1c-0.9,0-1.6,0.3-2.2,1s-0.9,1.6-1,3H597.5z"/>
		<path id="XMLID_64_" class="st1" d="M606,29.7c-0.3,0-0.6,0.1-0.9,0.2c-0.2,0.2-0.3,0.5-0.3,1v1.8h2.3v1.4h-2.3v10.4H603V34.1
			h-1.6v-1.4h1.6v-1.6c0-1,0.3-1.8,0.8-2.2c0.5-0.4,1.2-0.7,2-0.7c0.3,0,0.6,0,0.8,0c0.2,0,0.4,0.1,0.6,0.2V30
			C606.9,29.8,606.5,29.7,606,29.7z"/>
		<path id="XMLID_62_" class="st1" d="M616.3,34.5c-0.2-0.1-0.5-0.2-0.8-0.3c-0.3-0.1-0.6-0.1-1-0.1c-0.8,0-1.5,0.3-1.9,0.9
			c-0.4,0.6-0.7,1.5-0.7,2.6v6.9h-1.7V32.7h1.7v1.5c0.3-0.5,0.7-0.9,1.2-1.2c0.5-0.3,1.1-0.5,1.7-0.5c0.4,0,0.8,0,1.1,0.1
			c0.3,0.1,0.5,0.1,0.8,0.2L616.3,34.5z"/>
		<path id="XMLID_59_" class="st1" d="M626.1,44.5v-1.4c-0.4,0.4-0.9,0.8-1.5,1.2c-0.6,0.3-1.3,0.5-2.2,0.5c-0.5,0-0.9-0.1-1.4-0.2
			c-0.4-0.1-0.9-0.3-1.2-0.6c-0.4-0.3-0.6-0.7-0.9-1.2c-0.2-0.5-0.3-1.1-0.3-1.8c0-0.7,0.1-1.2,0.4-1.7c0.3-0.5,0.6-0.9,1-1.2
			s0.9-0.5,1.4-0.7c0.5-0.1,1.1-0.2,1.7-0.2c0.6,0,1.2,0.1,1.7,0.2c0.5,0.1,0.9,0.3,1.3,0.5v-1.4c0-1.7-0.9-2.6-2.6-2.6
			c-0.6,0-1.2,0.1-1.7,0.2c-0.5,0.2-1,0.4-1.5,0.7l-0.6-1.4c0.5-0.3,1.1-0.5,1.8-0.7c0.7-0.2,1.4-0.3,2.2-0.3c1.3,0,2.3,0.3,3,0.9
			c0.7,0.6,1.1,1.6,1.1,2.9v8.2H626.1z M626.1,39.2c-0.4-0.2-0.8-0.4-1.3-0.5c-0.5-0.1-1-0.2-1.8-0.2c-0.9,0-1.5,0.2-2,0.6
			c-0.5,0.4-0.7,1-0.7,1.7c0,0.9,0.2,1.5,0.7,1.9c0.4,0.4,1,0.6,1.7,0.6c0.8,0,1.4-0.2,2-0.5c0.6-0.3,1-0.8,1.4-1.3V39.2z"/>
		<path id="XMLID_57_" class="st1" d="M638.7,35.1c-0.4-0.4-0.9-0.7-1.3-0.9s-0.9-0.3-1.5-0.3c-0.5,0-0.9,0.1-1.3,0.3
			c-0.4,0.2-0.7,0.5-1,0.9c-0.3,0.4-0.5,0.9-0.7,1.5s-0.2,1.2-0.2,2c0,1.5,0.3,2.6,0.9,3.5c0.6,0.9,1.4,1.3,2.5,1.3
			c0.6,0,1.1-0.1,1.5-0.3c0.4-0.2,0.8-0.5,1.2-0.9l1,1.1c-0.5,0.5-1,0.9-1.6,1.2c-0.6,0.3-1.3,0.4-2.2,0.4c-0.6,0-1.3-0.1-1.9-0.4
			c-0.6-0.2-1.1-0.6-1.6-1.1c-0.5-0.5-0.8-1.1-1.1-1.9s-0.4-1.7-0.4-2.7c0-1.1,0.1-2,0.4-2.8c0.3-0.8,0.7-1.4,1.2-1.9
			c0.5-0.5,1-0.9,1.6-1.1c0.6-0.2,1.2-0.4,1.8-0.4c0.8,0,1.5,0.1,2.1,0.4c0.6,0.3,1.1,0.6,1.6,1L638.7,35.1z"/>
		<path id="XMLID_55_" class="st1" d="M644.8,34.1v7.7c0,0.5,0.1,0.9,0.3,1.1c0.2,0.2,0.5,0.3,0.9,0.3c0.3,0,0.6,0,0.9-0.1
			c0.2-0.1,0.5-0.1,0.8-0.3l-0.1,1.5c-0.3,0.1-0.7,0.2-1,0.3c-0.3,0.1-0.7,0.1-1.2,0.1c-0.7,0-1.3-0.2-1.7-0.6
			c-0.4-0.4-0.6-1.1-0.6-2.1v-7.9h-1.5v-1.4h1.5v-3.6l1.7-0.9v4.6h2.9v1.4H644.8z"/>
		<path id="XMLID_52_" class="st1" d="M660.6,38.5c0,1-0.1,1.9-0.4,2.7c-0.3,0.8-0.6,1.4-1.1,2c-0.5,0.5-1,0.9-1.6,1.2
			c-0.6,0.3-1.3,0.4-2,0.4c-0.7,0-1.4-0.1-2-0.4c-0.6-0.3-1.2-0.7-1.6-1.2c-0.5-0.5-0.8-1.2-1.1-1.9c-0.3-0.8-0.4-1.6-0.4-2.7
			c0-1,0.1-1.9,0.4-2.7c0.3-0.8,0.6-1.4,1.1-1.9s1-0.9,1.6-1.2c0.6-0.3,1.3-0.4,2-0.4s1.4,0.1,2,0.4c0.6,0.3,1.2,0.6,1.6,1.1
			c0.5,0.5,0.8,1.1,1.1,1.9C660.5,36.6,660.6,37.5,660.6,38.5z M658.9,38.6c0-1.6-0.3-2.7-0.9-3.5c-0.6-0.8-1.5-1.2-2.5-1.2
			s-1.9,0.4-2.5,1.2c-0.6,0.8-0.9,1.9-0.9,3.5s0.3,2.7,0.9,3.5c0.6,0.8,1.5,1.2,2.5,1.2s1.9-0.4,2.5-1.2
			C658.6,41.3,658.9,40.1,658.9,38.6z"/>
		<path id="XMLID_50_" class="st1" d="M669.8,34.5c-0.2-0.1-0.5-0.2-0.8-0.3c-0.3-0.1-0.6-0.1-1-0.1c-0.8,0-1.5,0.3-1.9,0.9
			c-0.4,0.6-0.7,1.5-0.7,2.6v6.9h-1.7V32.7h1.7v1.5c0.3-0.5,0.7-0.9,1.2-1.2c0.5-0.3,1.1-0.5,1.7-0.5c0.4,0,0.8,0,1.1,0.1
			c0.3,0.1,0.5,0.1,0.8,0.2L669.8,34.5z"/>
		<path id="XMLID_48_" class="st1" d="M676.2,48.7h-1.7l1.6-4.3l-4.2-11.7h1.8l2.9,8.6l0.4,1.2l0.4-1.2l2.9-8.6h1.8L676.2,48.7z"/>
		<path id="XMLID_45_" class="st1" d="M700.1,38.4c0,1-0.1,2-0.3,2.8c-0.2,0.8-0.5,1.4-1,2c-0.4,0.5-0.9,0.9-1.4,1.2
			c-0.5,0.3-1.1,0.4-1.7,0.4c-0.7,0-1.4-0.1-1.9-0.4c-0.5-0.3-1-0.7-1.4-1.1v4.7l-1.7,0.9V32.7h1.7l0,1.4c0.4-0.4,0.9-0.8,1.5-1.2
			c0.6-0.3,1.3-0.5,2.1-0.5c0.6,0,1.1,0.1,1.7,0.3c0.5,0.2,1,0.6,1.3,1.1c0.4,0.5,0.7,1.1,0.9,1.9C700,36.5,700.1,37.4,700.1,38.4z
			 M698.5,38.4c0-1.5-0.3-2.6-0.8-3.4c-0.5-0.8-1.3-1.1-2.2-1.1c-0.6,0-1.2,0.2-1.7,0.5c-0.5,0.3-1,0.7-1.4,1.3v5.9
			c0.3,0.5,0.8,0.9,1.3,1.3c0.5,0.3,1.2,0.5,1.9,0.5c1,0,1.7-0.4,2.2-1.2C698.2,41.2,698.5,40,698.5,38.4z"/>
		<path id="XMLID_42_" class="st1" d="M710,44.5v-1.4c-0.4,0.4-0.9,0.8-1.5,1.2c-0.6,0.3-1.3,0.5-2.2,0.5c-0.5,0-0.9-0.1-1.4-0.2
			c-0.4-0.1-0.9-0.3-1.2-0.6c-0.4-0.3-0.6-0.7-0.9-1.2c-0.2-0.5-0.3-1.1-0.3-1.8c0-0.7,0.1-1.2,0.4-1.7c0.3-0.5,0.6-0.9,1-1.2
			s0.9-0.5,1.4-0.7c0.5-0.1,1.1-0.2,1.7-0.2c0.6,0,1.2,0.1,1.7,0.2c0.5,0.1,0.9,0.3,1.3,0.5v-1.4c0-1.7-0.9-2.6-2.6-2.6
			c-0.6,0-1.2,0.1-1.7,0.2c-0.5,0.2-1,0.4-1.5,0.7l-0.6-1.4c0.5-0.3,1.1-0.5,1.8-0.7c0.7-0.2,1.4-0.3,2.2-0.3c1.3,0,2.3,0.3,3,0.9
			c0.7,0.6,1.1,1.6,1.1,2.9v8.2H710z M710,39.2c-0.4-0.2-0.8-0.4-1.3-0.5c-0.5-0.1-1-0.2-1.8-0.2c-0.9,0-1.5,0.2-2,0.6
			c-0.5,0.4-0.7,1-0.7,1.7c0,0.9,0.2,1.5,0.7,1.9c0.4,0.4,1,0.6,1.7,0.6c0.8,0,1.4-0.2,2-0.5c0.6-0.3,1-0.8,1.4-1.3V39.2z"/>
		<path id="XMLID_40_" class="st1" d="M721.4,34.5c-0.2-0.1-0.5-0.2-0.8-0.3c-0.3-0.1-0.6-0.1-1-0.1c-0.8,0-1.5,0.3-1.9,0.9
			c-0.4,0.6-0.7,1.5-0.7,2.6v6.9h-1.7V32.7h1.7v1.5c0.3-0.5,0.7-0.9,1.2-1.2c0.5-0.3,1.1-0.5,1.7-0.5c0.4,0,0.8,0,1.1,0.1
			c0.3,0.1,0.5,0.1,0.8,0.2L721.4,34.5z"/>
		<path id="XMLID_38_" class="st1" d="M726.7,34.1v7.7c0,0.5,0.1,0.9,0.3,1.1c0.2,0.2,0.5,0.3,0.9,0.3c0.3,0,0.6,0,0.9-0.1
			c0.2-0.1,0.5-0.1,0.8-0.3l-0.1,1.5c-0.3,0.1-0.7,0.2-1,0.3c-0.3,0.1-0.7,0.1-1.2,0.1c-0.7,0-1.3-0.2-1.7-0.6
			c-0.4-0.4-0.6-1.1-0.6-2.1v-7.9h-1.5v-1.4h1.5v-3.6l1.7-0.9v4.6h2.9v1.4H726.7z"/>
		<path id="XMLID_35_" class="st1" d="M735,29.4c0,0.3-0.1,0.6-0.3,0.8s-0.5,0.3-0.8,0.3c-0.3,0-0.6-0.1-0.9-0.3s-0.4-0.5-0.4-0.8
			c0-0.3,0.1-0.6,0.4-0.9c0.2-0.2,0.5-0.3,0.9-0.3c0.3,0,0.6,0.1,0.8,0.3C734.9,28.8,735,29.1,735,29.4z M733,44.5V32.7h1.7v11.8
			H733z"/>
		<path id="XMLID_32_" class="st1" d="M745.3,44.5v-1.4c-0.4,0.4-0.9,0.8-1.5,1.2c-0.6,0.3-1.3,0.5-2.2,0.5c-0.5,0-0.9-0.1-1.4-0.2
			c-0.4-0.1-0.9-0.3-1.2-0.6c-0.4-0.3-0.6-0.7-0.9-1.2c-0.2-0.5-0.3-1.1-0.3-1.8c0-0.7,0.1-1.2,0.4-1.7c0.3-0.5,0.6-0.9,1-1.2
			s0.9-0.5,1.4-0.7c0.5-0.1,1.1-0.2,1.7-0.2c0.6,0,1.2,0.1,1.7,0.2c0.5,0.1,0.9,0.3,1.3,0.5v-1.4c0-1.7-0.9-2.6-2.6-2.6
			c-0.6,0-1.2,0.1-1.7,0.2c-0.5,0.2-1,0.4-1.5,0.7l-0.6-1.4c0.5-0.3,1.1-0.5,1.8-0.7c0.7-0.2,1.4-0.3,2.2-0.3c1.3,0,2.3,0.3,3,0.9
			c0.7,0.6,1.1,1.6,1.1,2.9v8.2H745.3z M745.3,39.2c-0.4-0.2-0.8-0.4-1.3-0.5c-0.5-0.1-1-0.2-1.8-0.2c-0.9,0-1.5,0.2-2,0.6
			c-0.5,0.4-0.7,1-0.7,1.7c0,0.9,0.2,1.5,0.7,1.9c0.4,0.4,1,0.6,1.7,0.6c0.8,0,1.4-0.2,2-0.5c0.6-0.3,1-0.8,1.4-1.3V39.2z"/>
		<path id="XMLID_30_" class="st1" d="M750.7,44.5V29.1l1.7-0.9v16.4H750.7z"/>
		<path id="XMLID_28_" class="st1" d="M769.4,41.4c0,0.6-0.1,1.1-0.3,1.5c-0.2,0.4-0.5,0.8-0.9,1c-0.4,0.3-0.8,0.5-1.3,0.6
			c-0.5,0.1-1,0.2-1.5,0.2c-0.8,0-1.6-0.1-2.3-0.4c-0.7-0.3-1.3-0.6-1.9-1.1l1-1.2c0.5,0.4,1,0.7,1.5,1c0.5,0.2,1.1,0.3,1.7,0.3
			c0.8,0,1.4-0.2,1.8-0.5s0.6-0.8,0.6-1.3c0-0.2,0-0.5-0.1-0.7c-0.1-0.2-0.3-0.4-0.5-0.6c-0.2-0.2-0.5-0.4-0.9-0.6
			c-0.4-0.2-0.8-0.4-1.3-0.6c-0.6-0.3-1.1-0.5-1.5-0.7c-0.4-0.2-0.8-0.5-1-0.8c-0.3-0.3-0.5-0.6-0.6-0.9s-0.2-0.7-0.2-1.2
			c0-0.4,0.1-0.9,0.3-1.2c0.2-0.4,0.4-0.7,0.8-1c0.3-0.3,0.7-0.5,1.2-0.6c0.4-0.1,0.9-0.2,1.5-0.2c0.8,0,1.5,0.1,2.2,0.3
			c0.6,0.2,1.2,0.5,1.6,0.9l-0.9,1.2c-0.5-0.4-0.9-0.6-1.3-0.8s-1-0.3-1.6-0.3s-1.1,0.1-1.5,0.4c-0.3,0.3-0.5,0.6-0.5,1.1
			c0,0.3,0,0.5,0.1,0.7c0.1,0.2,0.2,0.4,0.4,0.5c0.2,0.2,0.5,0.3,0.8,0.5s0.8,0.4,1.2,0.6c0.6,0.3,1,0.5,1.5,0.7
			c0.4,0.2,0.8,0.5,1.1,0.8c0.3,0.3,0.5,0.6,0.7,1C769.3,40.5,769.4,40.9,769.4,41.4z"/>
		<path id="XMLID_25_" class="st1" d="M781.6,38.3c0,0.2,0,0.4,0,0.5c0,0.1,0,0.3-0.1,0.4h-7.8c0.1,1.3,0.4,2.3,1,3
			c0.6,0.7,1.3,1.1,2.3,1.1c0.7,0,1.3-0.1,1.7-0.3s1-0.5,1.5-0.8l0.8,1.2c-0.4,0.2-0.7,0.4-1,0.6c-0.3,0.2-0.6,0.3-1,0.4
			c-0.3,0.1-0.7,0.2-1,0.3s-0.8,0.1-1.2,0.1c-0.5,0-1.1-0.1-1.7-0.3c-0.6-0.2-1.1-0.6-1.5-1c-0.5-0.5-0.8-1.1-1.1-1.9
			c-0.3-0.8-0.5-1.8-0.5-2.9c0-0.9,0.1-1.8,0.4-2.5s0.6-1.4,1-1.9c0.4-0.5,0.9-0.9,1.5-1.2c0.6-0.3,1.2-0.4,1.9-0.4
			c0.8,0,1.4,0.1,2,0.4c0.6,0.3,1.1,0.7,1.5,1.2s0.7,1.1,0.9,1.8C781.5,36.6,781.6,37.4,781.6,38.3z M780,37.8
			c-0.1-1.2-0.4-2.1-0.9-2.8c-0.5-0.7-1.3-1.1-2.3-1.1c-0.9,0-1.6,0.3-2.2,1s-0.9,1.6-1,3H780z"/>
		<path id="XMLID_22_" class="st1" d="M786.9,29.4c0,0.3-0.1,0.6-0.3,0.8s-0.5,0.3-0.8,0.3c-0.3,0-0.6-0.1-0.9-0.3s-0.4-0.5-0.4-0.8
			c0-0.3,0.1-0.6,0.4-0.9c0.2-0.2,0.5-0.3,0.9-0.3c0.3,0,0.6,0.1,0.8,0.3C786.8,28.8,786.9,29.1,786.9,29.4z M784.9,44.5V32.7h1.7
			v11.8H784.9z"/>
		<path id="XMLID_19_" class="st1" d="M789.7,44.5v-1.2l6.5-9.1h-5.9v-1.4h7.8v1.2l-6.5,9.1h6.5v1.4H789.7z"/>
		<path id="XMLID_17_" class="st1" d="M808.8,44.5v-1.4c-0.3,0.5-0.8,0.9-1.3,1.2c-0.5,0.3-1.2,0.5-1.9,0.5c-0.6,0-1.2-0.1-1.7-0.3
			c-0.5-0.2-0.9-0.5-1.3-0.9c-0.4-0.4-0.6-0.9-0.8-1.5s-0.3-1.3-0.3-2.2v-7.2h1.7v6.9c0,1.3,0.2,2.2,0.7,2.8
			c0.5,0.6,1.2,0.9,2.1,0.9c0.8,0,1.5-0.3,2.1-0.9c0.6-0.6,0.8-1.5,0.8-2.8v-6.9h1.7v11.8H808.8z"/>
		<path id="XMLID_15_" class="st1" d="M820.2,34.5c-0.2-0.1-0.5-0.2-0.8-0.3c-0.3-0.1-0.6-0.1-1-0.1c-0.8,0-1.5,0.3-1.9,0.9
			c-0.4,0.6-0.7,1.5-0.7,2.6v6.9h-1.7V32.7h1.7v1.5c0.3-0.5,0.7-0.9,1.2-1.2c0.5-0.3,1.1-0.5,1.7-0.5c0.4,0,0.8,0,1.1,0.1
			c0.3,0.1,0.5,0.1,0.8,0.2L820.2,34.5z"/>
		<path id="XMLID_12_" class="st1" d="M832.3,38.3c0,0.2,0,0.4,0,0.5c0,0.1,0,0.3-0.1,0.4h-7.8c0.1,1.3,0.4,2.3,1,3
			c0.6,0.7,1.3,1.1,2.3,1.1c0.7,0,1.3-0.1,1.7-0.3s1-0.5,1.5-0.8l0.8,1.2c-0.4,0.2-0.7,0.4-1,0.6c-0.3,0.2-0.6,0.3-1,0.4
			c-0.3,0.1-0.7,0.2-1,0.3s-0.8,0.1-1.2,0.1c-0.5,0-1.1-0.1-1.7-0.3c-0.6-0.2-1.1-0.6-1.5-1c-0.5-0.5-0.8-1.1-1.1-1.9
			c-0.3-0.8-0.5-1.8-0.5-2.9c0-0.9,0.1-1.8,0.4-2.5s0.6-1.4,1-1.9c0.4-0.5,0.9-0.9,1.5-1.2c0.6-0.3,1.2-0.4,1.9-0.4
			c0.8,0,1.4,0.1,2,0.4c0.6,0.3,1.1,0.7,1.5,1.2s0.7,1.1,0.9,1.8C832.2,36.6,832.3,37.4,832.3,38.3z M830.8,37.8
			c-0.1-1.2-0.4-2.1-0.9-2.8c-0.5-0.7-1.3-1.1-2.3-1.1c-0.9,0-1.6,0.3-2.2,1s-0.9,1.6-1,3H830.8z"/>
		<path id="XMLID_10_" class="st1" d="M842.8,41.4c0,0.6-0.1,1.1-0.3,1.5c-0.2,0.4-0.5,0.8-0.9,1c-0.4,0.3-0.8,0.5-1.3,0.6
			c-0.5,0.1-1,0.2-1.5,0.2c-0.8,0-1.6-0.1-2.3-0.4c-0.7-0.3-1.3-0.6-1.9-1.1l1-1.2c0.5,0.4,1,0.7,1.5,1c0.5,0.2,1.1,0.3,1.7,0.3
			c0.8,0,1.4-0.2,1.8-0.5s0.6-0.8,0.6-1.3c0-0.2,0-0.5-0.1-0.7c-0.1-0.2-0.3-0.4-0.5-0.6c-0.2-0.2-0.5-0.4-0.9-0.6
			c-0.4-0.2-0.8-0.4-1.3-0.6c-0.6-0.3-1.1-0.5-1.5-0.7c-0.4-0.2-0.8-0.5-1-0.8c-0.3-0.3-0.5-0.6-0.6-0.9S835,36,835,35.5
			c0-0.4,0.1-0.9,0.3-1.2c0.2-0.4,0.4-0.7,0.8-1c0.3-0.3,0.7-0.5,1.2-0.6c0.4-0.1,0.9-0.2,1.5-0.2c0.8,0,1.5,0.1,2.2,0.3
			c0.6,0.2,1.2,0.5,1.6,0.9l-0.9,1.2c-0.5-0.4-0.9-0.6-1.3-0.8s-1-0.3-1.6-0.3s-1.1,0.1-1.5,0.4c-0.3,0.3-0.5,0.6-0.5,1.1
			c0,0.3,0,0.5,0.1,0.7c0.1,0.2,0.2,0.4,0.4,0.5c0.2,0.2,0.5,0.3,0.8,0.5s0.8,0.4,1.2,0.6c0.6,0.3,1,0.5,1.5,0.7
			c0.4,0.2,0.8,0.5,1.1,0.8c0.3,0.3,0.5,0.6,0.7,1C842.7,40.5,842.8,40.9,842.8,41.4z"/>
		<path id="XMLID_8_" class="st1" d="M847.6,38.5c-0.3-0.3-0.7-0.6-1-1c-0.3-0.4-0.6-0.8-0.8-1.2c-0.2-0.4-0.4-0.9-0.6-1.4
			c-0.2-0.5-0.2-1.1-0.2-1.7c0-0.6,0.1-1.2,0.2-1.7c0.2-0.5,0.3-1,0.6-1.5c0.2-0.4,0.5-0.9,0.8-1.2c0.3-0.4,0.6-0.7,1-1L848,28
			c-0.3,0.3-0.6,0.7-0.9,1c-0.3,0.4-0.5,0.7-0.7,1.1c-0.2,0.4-0.3,0.8-0.4,1.3c-0.1,0.5-0.2,1-0.2,1.5c0,0.6,0.1,1.1,0.2,1.5
			c0.1,0.5,0.2,0.9,0.4,1.3c0.2,0.4,0.4,0.8,0.7,1.1s0.5,0.7,0.9,1L847.6,38.5z"/>
		<path id="XMLID_6_" class="st1" d="M850.5,37v-7.3h-1.7V29c0.5,0,0.9-0.1,1.3-0.3s0.5-0.5,0.6-0.9h0.8V37H850.5z"/>
		<path id="XMLID_4_" class="st1" d="M856.5,33c0,0.6-0.1,1.2-0.2,1.7s-0.3,1-0.6,1.5s-0.5,0.9-0.8,1.2s-0.6,0.7-1,1l-0.4-0.4
			c0.6-0.6,1.1-1.4,1.5-2.2c0.4-0.8,0.6-1.7,0.6-2.8c0-0.6-0.1-1.1-0.2-1.5c-0.1-0.5-0.2-0.9-0.4-1.3c-0.2-0.4-0.4-0.8-0.7-1.1
			s-0.5-0.7-0.9-1l0.4-0.4c0.3,0.3,0.7,0.6,1,1s0.6,0.8,0.8,1.2c0.2,0.4,0.4,0.9,0.6,1.4S856.5,32.4,856.5,33z"/>
	</g>
</g>
</svg>
