<!-- Generator: Adobe Illustrator 22.1.0, SVG Export Plug-In  -->
<svg version="1.1"
	 xmlns="http://www.w3.org/2000/svg" xmlns:xlink="http://www.w3.org/1999/xlink" xmlns:a="http://ns.adobe.com/AdobeSVGViewerExtensions/3.0/"
	 x="0px" y="0px" width="74.5px" height="30.5px" viewBox="0 0 74.5 30.5" style="enable-background:new 0 0 74.5 30.5;"
	 xml:space="preserve">
<style type="text/css">
	.st0{fill:#266093;}
</style>
<defs>
</defs>
<path id="XMLID_11_" class="st0" d="M18.9,12.6c0,2-0.3,3.8-1,5.3c-0.7,1.5-1.6,2.7-2.7,3.6c-1.1,0.9-2.4,1.6-3.8,2.1
	c-1.4,0.4-2.9,0.7-4.4,0.7H0V1h7.3c1.7,0,3.2,0.2,4.6,0.6c1.4,0.4,2.6,1.1,3.7,2c1,0.9,1.8,2.1,2.4,3.6
	C18.6,8.7,18.9,10.5,18.9,12.6z M14.1,12.6c0-2.4-0.5-4.2-1.6-5.4c-1.1-1.2-2.9-1.8-5.3-1.8H4.7v14.3H7c1.2,0,2.3-0.2,3.2-0.5
	c0.9-0.3,1.6-0.8,2.2-1.5c0.6-0.6,1-1.4,1.3-2.3S14.1,13.7,14.1,12.6z"/>
<path id="XMLID_8_" class="st0" d="M31.9,24.3v-1.2c-0.4,0.4-1,0.8-1.7,1.1c-0.7,0.3-1.4,0.4-2.3,0.4s-1.6-0.1-2.4-0.4
	c-0.8-0.3-1.5-0.6-2.1-1.2c-0.6-0.5-1.1-1.2-1.5-1.9c-0.4-0.8-0.6-1.7-0.6-2.8c0-1,0.2-1.8,0.5-2.5c0.4-0.7,0.9-1.3,1.5-1.8
	c0.6-0.5,1.4-0.8,2.3-1.1c0.9-0.2,1.8-0.4,2.8-0.4c0.8,0,1.5,0.1,2,0.2c0.5,0.1,1,0.3,1.4,0.5v-0.9c0-0.6-0.2-1.2-0.6-1.6
	c-0.4-0.4-1-0.7-1.9-0.7c-0.5,0-1,0-1.4,0.1s-0.8,0.1-1.2,0.2c-0.4,0.1-0.7,0.2-1.1,0.3c-0.4,0.1-0.7,0.3-1.1,0.5l-1.8-3.2
	c0.5-0.3,1-0.5,1.5-0.8c0.5-0.2,1-0.4,1.5-0.5s1.1-0.3,1.7-0.3c0.6-0.1,1.2-0.1,1.9-0.1c1.1,0,2,0.1,2.9,0.4s1.6,0.7,2.2,1.2
	c0.6,0.5,1.1,1.2,1.5,1.9s0.5,1.6,0.5,2.6v11.7H31.9z M31.9,17c-0.4-0.2-0.8-0.4-1.3-0.5c-0.5-0.1-1.1-0.2-1.9-0.2
	c-0.9,0-1.5,0.2-2,0.6c-0.5,0.4-0.7,0.9-0.7,1.6c0,0.6,0.2,1.2,0.6,1.6c0.4,0.5,1.1,0.7,2.1,0.7c0.8,0,1.4-0.2,2-0.5
	c0.6-0.3,1-0.7,1.2-1.1V17z"/>
<path id="XMLID_5_" class="st0" d="M45.3,2.7c0,0.7-0.3,1.3-0.8,1.9s-1.1,0.8-1.8,0.8c-0.7,0-1.3-0.3-1.9-0.8
	C40.3,4.1,40,3.4,40,2.7c0-0.7,0.3-1.3,0.8-1.8c0.5-0.5,1.1-0.8,1.9-0.8c0.7,0,1.3,0.3,1.8,0.8S45.3,2,45.3,2.7z M40.4,24.3V6.8H45
	v17.5H40.4z"/>
<path id="XMLID_3_" class="st0" d="M49.2,24.3v-22L53.8,0v24.3H49.2z"/>
<path id="XMLID_1_" class="st0" d="M65.5,30.5h-4.5l2.3-6.2L56.5,6.8h5.1l2.9,8.4c0.2,0.7,0.5,1.4,0.7,2.1s0.4,1.3,0.5,1.7
	c0.1-0.4,0.3-1,0.5-1.7c0.2-0.7,0.4-1.4,0.7-2.1l2.9-8.4h4.9L65.5,30.5z"/>
</svg>
