<!-- Generator: Adobe Illustrator 22.1.0, SVG Export Plug-In  -->
<svg version="1.1"
	 xmlns="http://www.w3.org/2000/svg" xmlns:xlink="http://www.w3.org/1999/xlink" xmlns:a="http://ns.adobe.com/AdobeSVGViewerExtensions/3.0/"
	 x="0px" y="0px" width="595.4px" height="60.3px" viewBox="0 0 595.4 60.3" style="enable-background:new 0 0 595.4 60.3;"
	 xml:space="preserve">
<style type="text/css">
	.st0{fill:#266093;}
	.st1{fill:url(#XMLID_282_);}
	.st2{fill:none;stroke:#266093;stroke-width:0.7;stroke-miterlimit:10;}
	.st3{fill:#FFFFFF;}
	.st4{fill:url(#XMLID_283_);}
</style>
<defs>
</defs>
<g id="XMLID_53_">
	<g id="XMLID_55_">
		<path id="XMLID_167_" class="st0" d="M134.1,36.7V23.2h9.4v2.7h-6.7v2.3h3.9v2.6h-3.9v3.3h7v2.7H134.1z"/>
		<path id="XMLID_165_" class="st0" d="M150.7,25c-0.1,0-0.3-0.1-0.5-0.1c-0.4,0-0.7,0.1-0.8,0.2c-0.1,0.1-0.2,0.3-0.2,0.6v0.9h1.7
			v2.5h-1.7v7.6h-2.7v-7.6h-1.2v-2.5h1.2v-1.2c0-1,0.3-1.6,0.8-2.1s1.2-0.6,2.1-0.6c0.7,0,1.2,0.1,1.7,0.3v2.1
			C151,25,150.8,25,150.7,25z"/>
		<path id="XMLID_163_" class="st0" d="M157.5,25c-0.1,0-0.3-0.1-0.5-0.1c-0.4,0-0.7,0.1-0.8,0.2c-0.1,0.1-0.2,0.3-0.2,0.6v0.9h1.7
			v2.5H156v7.6h-2.7v-7.6h-1.2v-2.5h1.2v-1.2c0-1,0.3-1.6,0.8-2.1s1.2-0.6,2.1-0.6c0.7,0,1.2,0.1,1.7,0.3v2.1
			C157.8,25,157.7,25,157.5,25z"/>
		<path id="XMLID_160_" class="st0" d="M167.8,31.7c0,0.2,0,0.4,0,0.5c0,0.1,0,0.3,0,0.4h-6.1c0,0.3,0.1,0.6,0.2,0.9
			c0.1,0.2,0.3,0.4,0.5,0.6c0.2,0.1,0.4,0.3,0.6,0.3s0.5,0.1,0.7,0.1c0.4,0,0.7-0.1,1-0.2s0.5-0.3,0.7-0.5l1.9,1.6
			c-0.4,0.5-1,0.9-1.6,1.2c-0.7,0.3-1.3,0.4-2,0.4c-0.7,0-1.4-0.1-2-0.4c-0.6-0.3-1.1-0.6-1.5-1.1s-0.7-1-1-1.7
			c-0.2-0.7-0.3-1.4-0.3-2.2c0-0.8,0.1-1.5,0.3-2.1c0.2-0.7,0.6-1.2,1-1.7c0.4-0.5,0.9-0.8,1.4-1.1c0.5-0.3,1.1-0.4,1.8-0.4
			c0.7,0,1.3,0.1,1.8,0.4c0.5,0.3,1,0.7,1.3,1.1c0.4,0.5,0.6,1,0.8,1.7C167.7,30.2,167.8,30.9,167.8,31.7z M165.2,30.5
			c0-0.2-0.1-0.5-0.2-0.7c-0.1-0.2-0.2-0.4-0.3-0.6c-0.1-0.2-0.3-0.3-0.6-0.4c-0.2-0.1-0.5-0.2-0.8-0.2c-0.5,0-0.9,0.2-1.2,0.5
			c-0.3,0.3-0.5,0.8-0.5,1.3H165.2z"/>
		<path id="XMLID_158_" class="st0" d="M177.3,35.6c-0.3,0.3-0.6,0.5-0.9,0.7c-0.3,0.2-0.7,0.4-1.1,0.5c-0.4,0.1-0.9,0.2-1.4,0.2
			c-0.7,0-1.3-0.1-1.9-0.4c-0.6-0.3-1.1-0.6-1.5-1.1c-0.4-0.5-0.8-1-1-1.7c-0.2-0.7-0.4-1.4-0.4-2.1c0-0.8,0.1-1.5,0.4-2.1
			c0.2-0.7,0.6-1.2,1-1.7c0.4-0.5,0.9-0.8,1.5-1.1c0.6-0.3,1.2-0.4,2-0.4c1,0,1.8,0.2,2.4,0.6c0.6,0.4,1.2,1,1.6,1.6l-1.8,1.8
			c-0.3-0.4-0.6-0.8-1-1c-0.4-0.3-0.8-0.4-1.3-0.4c-0.6,0-1.2,0.2-1.5,0.7c-0.4,0.5-0.6,1.2-0.6,2c0,0.8,0.2,1.5,0.6,2
			c0.4,0.5,0.9,0.8,1.5,0.8c0.5,0,1-0.1,1.3-0.3c0.4-0.2,0.7-0.5,1.1-1l1.7,1.6C177.8,35,177.5,35.3,177.3,35.6z"/>
		<path id="XMLID_156_" class="st0" d="M185.4,36.3c-0.2,0.2-0.5,0.3-0.9,0.4s-0.8,0.2-1.2,0.2c-0.4,0-0.8-0.1-1.1-0.2
			c-0.3-0.1-0.6-0.4-0.9-0.6c-0.2-0.3-0.4-0.6-0.5-1c-0.1-0.4-0.2-0.8-0.2-1.2v-4.8h-1.7v-2.5h1.7v-2.6l2.7-1.3v4h2.4v2.5h-2.4v4.1
			c0,0.5,0.1,0.8,0.3,1c0.2,0.2,0.4,0.2,0.7,0.2c0.2,0,0.5-0.1,0.7-0.2s0.5-0.3,0.8-0.6L185.4,36.3z"/>
		<path id="XMLID_153_" class="st0" d="M190.9,24.2c0,0.4-0.2,0.8-0.5,1.1c-0.3,0.3-0.7,0.5-1.1,0.5c-0.4,0-0.8-0.2-1.1-0.5
			c-0.3-0.3-0.5-0.7-0.5-1.1s0.2-0.8,0.5-1.1c0.3-0.3,0.7-0.5,1.1-0.5c0.4,0,0.8,0.2,1.1,0.5C190.7,23.4,190.9,23.8,190.9,24.2z
			 M188,36.7V26.6h2.7v10.2H188z"/>
		<path id="XMLID_151_" class="st0" d="M198.7,36.7h-2.7l-3.7-10.2h2.9l1.5,4.7c0.1,0.4,0.3,0.8,0.4,1.2s0.2,0.8,0.3,1
			c0.1-0.3,0.2-0.6,0.3-1s0.2-0.8,0.4-1.2l1.5-4.7h2.9L198.7,36.7z"/>
		<path id="XMLID_148_" class="st0" d="M212.1,31.7c0,0.2,0,0.4,0,0.5c0,0.1,0,0.3,0,0.4h-6.1c0,0.3,0.1,0.6,0.2,0.9
			c0.1,0.2,0.3,0.4,0.5,0.6c0.2,0.1,0.4,0.3,0.6,0.3s0.5,0.1,0.7,0.1c0.4,0,0.7-0.1,1-0.2s0.5-0.3,0.7-0.5l1.9,1.6
			c-0.4,0.5-1,0.9-1.6,1.2c-0.7,0.3-1.3,0.4-2,0.4c-0.7,0-1.4-0.1-2-0.4c-0.6-0.3-1.1-0.6-1.5-1.1s-0.7-1-1-1.7
			c-0.2-0.7-0.3-1.4-0.3-2.2c0-0.8,0.1-1.5,0.3-2.1c0.2-0.7,0.6-1.2,1-1.7c0.4-0.5,0.9-0.8,1.4-1.1c0.5-0.3,1.1-0.4,1.8-0.4
			c0.7,0,1.3,0.1,1.8,0.4c0.5,0.3,1,0.7,1.3,1.1c0.4,0.5,0.6,1,0.8,1.7C212,30.2,212.1,30.9,212.1,31.7z M209.5,30.5
			c0-0.2-0.1-0.5-0.2-0.7c-0.1-0.2-0.2-0.4-0.3-0.6c-0.1-0.2-0.3-0.3-0.6-0.4c-0.2-0.1-0.5-0.2-0.8-0.2c-0.5,0-0.9,0.2-1.2,0.5
			c-0.3,0.3-0.5,0.8-0.5,1.3H209.5z"/>
		<path id="XMLID_146_" class="st0" d="M224,25c-0.1,0-0.3-0.1-0.5-0.1c-0.4,0-0.7,0.1-0.8,0.2c-0.1,0.1-0.2,0.3-0.2,0.6v0.9h1.7
			v2.5h-1.7v7.6h-2.7v-7.6h-1.2v-2.5h1.2v-1.2c0-1,0.3-1.6,0.8-2.1s1.2-0.6,2.1-0.6c0.7,0,1.2,0.1,1.7,0.3v2.1
			C224.2,25,224.1,25,224,25z"/>
		<path id="XMLID_143_" class="st0" d="M234.6,31.7c0,0.8-0.1,1.5-0.3,2.1c-0.2,0.7-0.6,1.2-1,1.7c-0.4,0.5-0.9,0.8-1.5,1.1
			c-0.6,0.3-1.2,0.4-1.8,0.4s-1.3-0.1-1.8-0.4c-0.6-0.3-1-0.6-1.5-1.1c-0.4-0.5-0.7-1-1-1.7c-0.2-0.7-0.3-1.4-0.3-2.1
			c0-0.8,0.1-1.5,0.3-2.1c0.2-0.7,0.6-1.2,1-1.7c0.4-0.5,0.9-0.8,1.5-1.1c0.6-0.3,1.2-0.4,1.8-0.4s1.3,0.1,1.8,0.4
			c0.6,0.3,1.1,0.6,1.5,1.1c0.4,0.5,0.7,1,1,1.7C234.5,30.2,234.6,30.9,234.6,31.7z M231.9,31.7c0-0.8-0.2-1.4-0.5-2
			c-0.3-0.5-0.8-0.8-1.4-0.8s-1.1,0.3-1.4,0.8c-0.3,0.5-0.5,1.2-0.5,2c0,0.8,0.2,1.4,0.5,2c0.3,0.5,0.8,0.8,1.4,0.8
			c0.3,0,0.6-0.1,0.8-0.2s0.4-0.4,0.6-0.6c0.2-0.3,0.3-0.5,0.3-0.9C231.9,32.3,231.9,32,231.9,31.7z"/>
		<path id="XMLID_141_" class="st0" d="M242.3,29.7c-0.2-0.2-0.5-0.4-0.7-0.5s-0.5-0.2-0.8-0.2c-0.3,0-0.5,0-0.7,0.1
			s-0.4,0.2-0.5,0.3c-0.1,0.2-0.3,0.4-0.3,0.7c-0.1,0.3-0.1,0.6-0.1,1.1v5.5h-2.7V26.6h2.7v0.7c0.2-0.2,0.5-0.5,0.9-0.6
			c0.3-0.2,0.8-0.3,1.2-0.3c0.4,0,0.8,0.1,1.1,0.2s0.6,0.3,0.7,0.5L242.3,29.7z"/>
		<path id="XMLID_139_" class="st0" d="M255.3,36.3c-0.2,0.2-0.5,0.3-0.9,0.4s-0.8,0.2-1.2,0.2c-0.4,0-0.8-0.1-1.1-0.2
			c-0.3-0.1-0.6-0.4-0.9-0.6c-0.2-0.3-0.4-0.6-0.5-1c-0.1-0.4-0.2-0.8-0.2-1.2v-4.8h-1.7v-2.5h1.7v-2.6l2.7-1.3v4h2.4v2.5h-2.4v4.1
			c0,0.5,0.1,0.8,0.3,1c0.2,0.2,0.4,0.2,0.7,0.2c0.2,0,0.5-0.1,0.7-0.2s0.5-0.3,0.8-0.6L255.3,36.3z"/>
		<path id="XMLID_137_" class="st0" d="M264,36.7v-5.5c0-0.9-0.1-1.5-0.4-1.9c-0.3-0.3-0.7-0.5-1.3-0.5c-0.6,0-1,0.2-1.3,0.5
			c-0.3,0.3-0.5,0.9-0.5,1.8v5.6h-2.7V23.9l2.7-1.3v4.6c0.2-0.2,0.6-0.5,1-0.6c0.4-0.2,0.9-0.3,1.4-0.3c1.3,0,2.2,0.4,2.8,1.2
			c0.6,0.8,0.9,2,0.9,3.4v5.7H264z"/>
		<path id="XMLID_134_" class="st0" d="M277.1,31.7c0,0.2,0,0.4,0,0.5c0,0.1,0,0.3,0,0.4H271c0,0.3,0.1,0.6,0.2,0.9
			c0.1,0.2,0.3,0.4,0.5,0.6c0.2,0.1,0.4,0.3,0.6,0.3s0.5,0.1,0.7,0.1c0.4,0,0.7-0.1,1-0.2s0.5-0.3,0.7-0.5l1.9,1.6
			c-0.4,0.5-1,0.9-1.6,1.2c-0.7,0.3-1.3,0.4-2,0.4c-0.7,0-1.4-0.1-2-0.4c-0.6-0.3-1.1-0.6-1.5-1.1s-0.7-1-1-1.7
			c-0.2-0.7-0.3-1.4-0.3-2.2c0-0.8,0.1-1.5,0.3-2.1c0.2-0.7,0.6-1.2,1-1.7c0.4-0.5,0.9-0.8,1.4-1.1c0.5-0.3,1.1-0.4,1.8-0.4
			c0.7,0,1.3,0.1,1.8,0.4c0.5,0.3,1,0.7,1.3,1.1c0.4,0.5,0.6,1,0.8,1.7C277,30.2,277.1,30.9,277.1,31.7z M274.5,30.5
			c0-0.2-0.1-0.5-0.2-0.7c-0.1-0.2-0.2-0.4-0.3-0.6c-0.1-0.2-0.3-0.3-0.6-0.4c-0.2-0.1-0.5-0.2-0.8-0.2c-0.5,0-0.9,0.2-1.2,0.5
			c-0.3,0.3-0.5,0.8-0.5,1.3H274.5z"/>
		<path id="XMLID_132_" class="st0" d="M289.9,36.3c-0.2,0.2-0.5,0.3-0.9,0.4s-0.8,0.2-1.2,0.2c-0.4,0-0.8-0.1-1.1-0.2
			c-0.3-0.1-0.6-0.4-0.9-0.6c-0.2-0.3-0.4-0.6-0.5-1c-0.1-0.4-0.2-0.8-0.2-1.2v-4.8h-1.7v-2.5h1.7v-2.6l2.7-1.3v4h2.4v2.5h-2.4v4.1
			c0,0.5,0.1,0.8,0.3,1c0.2,0.2,0.4,0.2,0.7,0.2c0.2,0,0.5-0.1,0.7-0.2s0.5-0.3,0.8-0.6L289.9,36.3z"/>
		<path id="XMLID_130_" class="st0" d="M298.4,29.7c-0.2-0.2-0.5-0.4-0.7-0.5s-0.5-0.2-0.8-0.2c-0.3,0-0.5,0-0.7,0.1
			s-0.4,0.2-0.5,0.3c-0.1,0.2-0.3,0.4-0.3,0.7c-0.1,0.3-0.1,0.6-0.1,1.1v5.5h-2.7V26.6h2.7v0.7c0.2-0.2,0.5-0.5,0.9-0.6
			c0.3-0.2,0.8-0.3,1.2-0.3c0.4,0,0.8,0.1,1.1,0.2s0.6,0.3,0.7,0.5L298.4,29.7z"/>
		<path id="XMLID_127_" class="st0" d="M308.7,31.7c0,0.2,0,0.4,0,0.5c0,0.1,0,0.3,0,0.4h-6.1c0,0.3,0.1,0.6,0.2,0.9
			c0.1,0.2,0.3,0.4,0.5,0.6c0.2,0.1,0.4,0.3,0.6,0.3s0.5,0.1,0.7,0.1c0.4,0,0.7-0.1,1-0.2s0.5-0.3,0.7-0.5l1.9,1.6
			c-0.4,0.5-1,0.9-1.6,1.2c-0.7,0.3-1.3,0.4-2,0.4c-0.7,0-1.4-0.1-2-0.4c-0.6-0.3-1.1-0.6-1.5-1.1s-0.7-1-1-1.7
			c-0.2-0.7-0.3-1.4-0.3-2.2c0-0.8,0.1-1.5,0.3-2.1c0.2-0.7,0.6-1.2,1-1.7c0.4-0.5,0.9-0.8,1.4-1.1c0.5-0.3,1.1-0.4,1.8-0.4
			c0.7,0,1.3,0.1,1.8,0.4c0.5,0.3,1,0.7,1.3,1.1c0.4,0.5,0.6,1,0.8,1.7C308.6,30.2,308.7,30.9,308.7,31.7z M306.1,30.5
			c0-0.2-0.1-0.5-0.2-0.7c-0.1-0.2-0.2-0.4-0.3-0.6c-0.1-0.2-0.3-0.3-0.6-0.4c-0.2-0.1-0.5-0.2-0.8-0.2c-0.5,0-0.9,0.2-1.2,0.5
			c-0.3,0.3-0.5,0.8-0.5,1.3H306.1z"/>
		<path id="XMLID_124_" class="st0" d="M316.1,36.7V36c-0.2,0.3-0.6,0.5-1,0.6c-0.4,0.2-0.8,0.3-1.3,0.3c-0.5,0-0.9-0.1-1.4-0.2
			c-0.5-0.1-0.9-0.4-1.2-0.7c-0.4-0.3-0.6-0.7-0.9-1.1c-0.2-0.5-0.3-1-0.3-1.6c0-0.6,0.1-1,0.3-1.5c0.2-0.4,0.5-0.8,0.9-1.1
			c0.4-0.3,0.8-0.5,1.3-0.6c0.5-0.1,1-0.2,1.6-0.2c0.5,0,0.9,0,1.2,0.1s0.6,0.2,0.8,0.3v-0.5c0-0.4-0.1-0.7-0.4-0.9
			c-0.2-0.3-0.6-0.4-1.1-0.4c-0.3,0-0.6,0-0.8,0c-0.2,0-0.5,0.1-0.7,0.1c-0.2,0.1-0.4,0.1-0.6,0.2c-0.2,0.1-0.4,0.2-0.7,0.3l-1-1.9
			c0.3-0.2,0.6-0.3,0.9-0.4c0.3-0.1,0.6-0.2,0.9-0.3s0.6-0.1,1-0.2c0.3,0,0.7-0.1,1.1-0.1c0.6,0,1.2,0.1,1.7,0.2
			c0.5,0.2,0.9,0.4,1.3,0.7c0.4,0.3,0.6,0.7,0.8,1.1c0.2,0.4,0.3,1,0.3,1.5v6.8H316.1z M316.1,32.5c-0.2-0.1-0.5-0.2-0.7-0.3
			c-0.3-0.1-0.6-0.1-1.1-0.1c-0.5,0-0.9,0.1-1.2,0.3c-0.3,0.2-0.4,0.5-0.4,0.9c0,0.4,0.1,0.7,0.3,0.9c0.2,0.3,0.6,0.4,1.2,0.4
			c0.4,0,0.8-0.1,1.2-0.3c0.3-0.2,0.6-0.4,0.7-0.6V32.5z"/>
		<path id="XMLID_122_" class="st0" d="M326.6,36.3c-0.2,0.2-0.5,0.3-0.9,0.4s-0.8,0.2-1.2,0.2c-0.4,0-0.8-0.1-1.1-0.2
			c-0.3-0.1-0.6-0.4-0.9-0.6c-0.2-0.3-0.4-0.6-0.5-1c-0.1-0.4-0.2-0.8-0.2-1.2v-4.8h-1.7v-2.5h1.7v-2.6l2.7-1.3v4h2.4v2.5h-2.4v4.1
			c0,0.5,0.1,0.8,0.3,1c0.2,0.2,0.4,0.2,0.7,0.2c0.2,0,0.5-0.1,0.7-0.2s0.5-0.3,0.8-0.6L326.6,36.3z"/>
		<path id="XMLID_120_" class="st0" d="M341,36.7v-5.5c0-0.9-0.1-1.5-0.4-1.9c-0.3-0.3-0.7-0.5-1.2-0.5c-0.6,0-1,0.2-1.2,0.5
			c-0.3,0.3-0.4,0.9-0.4,1.8v5.6h-2.7v-5.5c0-0.9-0.1-1.5-0.4-1.9c-0.3-0.3-0.7-0.5-1.2-0.5c-0.6,0-1,0.2-1.2,0.5
			c-0.3,0.3-0.4,0.9-0.4,1.8v5.6h-2.7V26.6h2.7v0.7c0.2-0.2,0.5-0.5,0.9-0.6c0.4-0.2,0.8-0.3,1.3-0.3c0.6,0,1.2,0.1,1.6,0.3
			s0.8,0.5,1.2,1c0.3-0.4,0.8-0.7,1.2-0.9c0.5-0.3,1.1-0.4,2-0.4c0.6,0,1.2,0.1,1.7,0.3s0.8,0.5,1.1,0.9c0.3,0.4,0.5,0.9,0.6,1.5
			c0.1,0.6,0.2,1.2,0.2,1.9v5.7H341z"/>
		<path id="XMLID_117_" class="st0" d="M354.2,31.7c0,0.2,0,0.4,0,0.5c0,0.1,0,0.3,0,0.4H348c0,0.3,0.1,0.6,0.2,0.9
			c0.1,0.2,0.3,0.4,0.5,0.6c0.2,0.1,0.4,0.3,0.6,0.3s0.5,0.1,0.7,0.1c0.4,0,0.7-0.1,1-0.2s0.5-0.3,0.7-0.5l1.9,1.6
			c-0.4,0.5-1,0.9-1.6,1.2c-0.7,0.3-1.3,0.4-2,0.4c-0.7,0-1.4-0.1-2-0.4c-0.6-0.3-1.1-0.6-1.5-1.1s-0.7-1-1-1.7
			c-0.2-0.7-0.3-1.4-0.3-2.2c0-0.8,0.1-1.5,0.3-2.1c0.2-0.7,0.6-1.2,1-1.7c0.4-0.5,0.9-0.8,1.4-1.1c0.5-0.3,1.1-0.4,1.8-0.4
			c0.7,0,1.3,0.1,1.8,0.4c0.5,0.3,1,0.7,1.3,1.1c0.4,0.5,0.6,1,0.8,1.7C354.1,30.2,354.2,30.9,354.2,31.7z M351.6,30.5
			c0-0.2-0.1-0.5-0.2-0.7c-0.1-0.2-0.2-0.4-0.3-0.6c-0.1-0.2-0.3-0.3-0.6-0.4c-0.2-0.1-0.5-0.2-0.8-0.2c-0.5,0-0.9,0.2-1.2,0.5
			c-0.3,0.3-0.5,0.8-0.5,1.3H351.6z"/>
		<path id="XMLID_115_" class="st0" d="M362.1,36.7v-5.5c0-0.9-0.1-1.5-0.4-1.9c-0.3-0.3-0.7-0.5-1.3-0.5c-0.6,0-1,0.2-1.3,0.5
			c-0.3,0.3-0.5,0.9-0.5,1.8v5.6H356V26.6h2.7v0.7c0.2-0.2,0.6-0.5,1-0.6c0.4-0.2,0.9-0.3,1.4-0.3c1.3,0,2.2,0.4,2.8,1.2
			c0.6,0.8,0.9,2,0.9,3.4v5.7H362.1z"/>
		<path id="XMLID_113_" class="st0" d="M372.6,36.3c-0.2,0.2-0.5,0.3-0.9,0.4s-0.8,0.2-1.2,0.2c-0.4,0-0.8-0.1-1.1-0.2
			c-0.3-0.1-0.6-0.4-0.9-0.6c-0.2-0.3-0.4-0.6-0.5-1c-0.1-0.4-0.2-0.8-0.2-1.2v-4.8h-1.7v-2.5h1.7v-2.6l2.7-1.3v4h2.4v2.5h-2.4v4.1
			c0,0.5,0.1,0.8,0.3,1c0.2,0.2,0.4,0.2,0.7,0.2c0.2,0,0.5-0.1,0.7-0.2s0.5-0.3,0.8-0.6L372.6,36.3z"/>
		<path id="XMLID_110_" class="st0" d="M389.1,31.7c0,0.8-0.1,1.5-0.3,2.1c-0.2,0.7-0.6,1.2-1,1.7c-0.4,0.5-0.9,0.8-1.5,1.1
			c-0.6,0.3-1.2,0.4-1.8,0.4s-1.3-0.1-1.8-0.4c-0.6-0.3-1-0.6-1.5-1.1c-0.4-0.5-0.7-1-1-1.7c-0.2-0.7-0.3-1.4-0.3-2.1
			c0-0.8,0.1-1.5,0.3-2.1c0.2-0.7,0.6-1.2,1-1.7c0.4-0.5,0.9-0.8,1.5-1.1c0.6-0.3,1.2-0.4,1.8-0.4s1.3,0.1,1.8,0.4
			c0.6,0.3,1.1,0.6,1.5,1.1c0.4,0.5,0.7,1,1,1.7C389,30.2,389.1,30.9,389.1,31.7z M386.4,31.7c0-0.8-0.2-1.4-0.5-2
			c-0.3-0.5-0.8-0.8-1.4-0.8s-1.1,0.3-1.4,0.8c-0.3,0.5-0.5,1.2-0.5,2c0,0.8,0.2,1.4,0.5,2c0.3,0.5,0.8,0.8,1.4,0.8
			c0.3,0,0.6-0.1,0.8-0.2s0.4-0.4,0.6-0.6c0.2-0.3,0.3-0.5,0.3-0.9C386.4,32.3,386.4,32,386.4,31.7z"/>
		<path id="XMLID_108_" class="st0" d="M395.7,25c-0.1,0-0.3-0.1-0.5-0.1c-0.4,0-0.7,0.1-0.8,0.2c-0.1,0.1-0.2,0.3-0.2,0.6v0.9h1.7
			v2.5h-1.7v7.6h-2.7v-7.6h-1.2v-2.5h1.2v-1.2c0-1,0.3-1.6,0.8-2.1s1.2-0.6,2.1-0.6c0.7,0,1.2,0.1,1.7,0.3v2.1
			C396,25,395.8,25,395.7,25z"/>
		<path id="XMLID_105_" class="st0" d="M411.2,35c0,0.8-0.1,1.6-0.2,2.2c-0.1,0.6-0.3,1.2-0.7,1.6s-0.8,0.8-1.3,1.1
			c-0.6,0.3-1.3,0.5-2.2,0.5l-0.9-2c0.5-0.1,0.9-0.2,1.3-0.3c0.3-0.1,0.6-0.2,0.8-0.4c0.2-0.2,0.3-0.4,0.4-0.7
			c0.1-0.3,0.1-0.6,0.1-1c-0.3,0.2-0.6,0.4-0.9,0.6c-0.3,0.2-0.8,0.3-1.2,0.3c-0.5,0-1.1-0.1-1.5-0.3s-0.9-0.5-1.3-1s-0.6-1-0.9-1.7
			s-0.3-1.5-0.3-2.4c0-0.8,0.1-1.5,0.3-2.1s0.4-1.2,0.8-1.6c0.3-0.5,0.7-0.8,1.2-1.1c0.5-0.3,1.1-0.4,1.7-0.4c0.5,0,0.9,0.1,1.2,0.2
			c0.4,0.2,0.7,0.3,0.9,0.6v-0.6h2.7V35z M408.6,29.7c-0.4-0.6-1-0.9-1.8-0.9c-1.1,0-1.6,0.9-1.6,2.6c0,1,0.2,1.8,0.5,2.3
			c0.3,0.5,0.7,0.7,1.3,0.7c0.4,0,0.7-0.1,1-0.2c0.2-0.2,0.5-0.4,0.7-0.6V29.7z"/>
		<path id="XMLID_102_" class="st0" d="M421.8,31.7c0,0.2,0,0.4,0,0.5c0,0.1,0,0.3,0,0.4h-6.1c0,0.3,0.1,0.6,0.2,0.9
			c0.1,0.2,0.3,0.4,0.5,0.6c0.2,0.1,0.4,0.3,0.6,0.3s0.5,0.1,0.7,0.1c0.4,0,0.7-0.1,1-0.2s0.5-0.3,0.7-0.5l1.9,1.6
			c-0.4,0.5-1,0.9-1.6,1.2c-0.7,0.3-1.3,0.4-2,0.4c-0.7,0-1.4-0.1-2-0.4c-0.6-0.3-1.1-0.6-1.5-1.1s-0.7-1-1-1.7
			c-0.2-0.7-0.3-1.4-0.3-2.2c0-0.8,0.1-1.5,0.3-2.1c0.2-0.7,0.6-1.2,1-1.7c0.4-0.5,0.9-0.8,1.4-1.1c0.5-0.3,1.1-0.4,1.8-0.4
			c0.7,0,1.3,0.1,1.8,0.4c0.5,0.3,1,0.7,1.3,1.1c0.4,0.5,0.6,1,0.8,1.7C421.7,30.2,421.8,30.9,421.8,31.7z M419.2,30.5
			c0-0.2-0.1-0.5-0.2-0.7c-0.1-0.2-0.2-0.4-0.3-0.6c-0.1-0.2-0.3-0.3-0.6-0.4c-0.2-0.1-0.5-0.2-0.8-0.2c-0.5,0-0.9,0.2-1.2,0.5
			c-0.3,0.3-0.5,0.8-0.5,1.3H419.2z"/>
		<path id="XMLID_100_" class="st0" d="M429.8,36.7v-5.5c0-0.9-0.1-1.5-0.4-1.9c-0.3-0.3-0.7-0.5-1.3-0.5c-0.6,0-1,0.2-1.3,0.5
			c-0.3,0.3-0.5,0.9-0.5,1.8v5.6h-2.7V26.6h2.7v0.7c0.2-0.2,0.6-0.5,1-0.6c0.4-0.2,0.9-0.3,1.4-0.3c1.3,0,2.2,0.4,2.8,1.2
			c0.6,0.8,0.9,2,0.9,3.4v5.7H429.8z"/>
		<path id="XMLID_97_" class="st0" d="M442.9,31.7c0,0.2,0,0.4,0,0.5c0,0.1,0,0.3,0,0.4h-6.1c0,0.3,0.1,0.6,0.2,0.9
			c0.1,0.2,0.3,0.4,0.5,0.6c0.2,0.1,0.4,0.3,0.6,0.3s0.5,0.1,0.7,0.1c0.4,0,0.7-0.1,1-0.2s0.5-0.3,0.7-0.5l1.9,1.6
			c-0.4,0.5-1,0.9-1.6,1.2c-0.7,0.3-1.3,0.4-2,0.4c-0.7,0-1.4-0.1-2-0.4c-0.6-0.3-1.1-0.6-1.5-1.1s-0.7-1-1-1.7
			c-0.2-0.7-0.3-1.4-0.3-2.2c0-0.8,0.1-1.5,0.3-2.1c0.2-0.7,0.6-1.2,1-1.7c0.4-0.5,0.9-0.8,1.4-1.1c0.5-0.3,1.1-0.4,1.8-0.4
			c0.7,0,1.3,0.1,1.8,0.4c0.5,0.3,1,0.7,1.3,1.1c0.4,0.5,0.6,1,0.8,1.7C442.8,30.2,442.9,30.9,442.9,31.7z M440.3,30.5
			c0-0.2-0.1-0.5-0.2-0.7c-0.1-0.2-0.2-0.4-0.3-0.6c-0.1-0.2-0.3-0.3-0.6-0.4c-0.2-0.1-0.5-0.2-0.8-0.2c-0.5,0-0.9,0.2-1.2,0.5
			c-0.3,0.3-0.5,0.8-0.5,1.3H440.3z"/>
		<path id="XMLID_95_" class="st0" d="M450.6,29.7c-0.2-0.2-0.5-0.4-0.7-0.5s-0.5-0.2-0.8-0.2c-0.3,0-0.5,0-0.7,0.1
			s-0.4,0.2-0.5,0.3c-0.1,0.2-0.3,0.4-0.3,0.7c-0.1,0.3-0.1,0.6-0.1,1.1v5.5h-2.7V26.6h2.7v0.7c0.2-0.2,0.5-0.5,0.9-0.6
			c0.3-0.2,0.8-0.3,1.2-0.3c0.4,0,0.8,0.1,1.1,0.2s0.6,0.3,0.7,0.5L450.6,29.7z"/>
		<path id="XMLID_92_" class="st0" d="M458.2,36.7V36c-0.2,0.3-0.6,0.5-1,0.6c-0.4,0.2-0.8,0.3-1.3,0.3c-0.5,0-0.9-0.1-1.4-0.2
			c-0.5-0.1-0.9-0.4-1.2-0.7c-0.4-0.3-0.6-0.7-0.9-1.1c-0.2-0.5-0.3-1-0.3-1.6c0-0.6,0.1-1,0.3-1.5c0.2-0.4,0.5-0.8,0.9-1.1
			c0.4-0.3,0.8-0.5,1.3-0.6c0.5-0.1,1-0.2,1.6-0.2c0.5,0,0.9,0,1.2,0.1s0.6,0.2,0.8,0.3v-0.5c0-0.4-0.1-0.7-0.4-0.9
			c-0.2-0.3-0.6-0.4-1.1-0.4c-0.3,0-0.6,0-0.8,0c-0.2,0-0.5,0.1-0.7,0.1c-0.2,0.1-0.4,0.1-0.6,0.2c-0.2,0.1-0.4,0.2-0.7,0.3l-1-1.9
			c0.3-0.2,0.6-0.3,0.9-0.4c0.3-0.1,0.6-0.2,0.9-0.3s0.6-0.1,1-0.2c0.3,0,0.7-0.1,1.1-0.1c0.6,0,1.2,0.1,1.7,0.2
			c0.5,0.2,0.9,0.4,1.3,0.7c0.4,0.3,0.6,0.7,0.8,1.1c0.2,0.4,0.3,1,0.3,1.5v6.8H458.2z M458.2,32.5c-0.2-0.1-0.5-0.2-0.7-0.3
			c-0.3-0.1-0.6-0.1-1.1-0.1c-0.5,0-0.9,0.1-1.2,0.3c-0.3,0.2-0.4,0.5-0.4,0.9c0,0.4,0.1,0.7,0.3,0.9c0.2,0.3,0.6,0.4,1.2,0.4
			c0.4,0,0.8-0.1,1.2-0.3c0.3-0.2,0.6-0.4,0.7-0.6V32.5z"/>
		<path id="XMLID_90_" class="st0" d="M463.2,36.7V23.9l2.7-1.3v14.1H463.2z"/>
		<path id="XMLID_87_" class="st0" d="M471.2,24.2c0,0.4-0.2,0.8-0.5,1.1c-0.3,0.3-0.7,0.5-1.1,0.5c-0.4,0-0.8-0.2-1.1-0.5
			c-0.3-0.3-0.5-0.7-0.5-1.1s0.2-0.8,0.5-1.1c0.3-0.3,0.7-0.5,1.1-0.5c0.4,0,0.8,0.2,1.1,0.5C471,23.4,471.2,23.8,471.2,24.2z
			 M468.3,36.7V26.6h2.7v10.2H468.3z"/>
		<path id="XMLID_85_" class="st0" d="M473.2,36.7v-1.9l3.7-4.4c0.2-0.2,0.4-0.5,0.7-0.8c0.3-0.3,0.4-0.5,0.6-0.7
			c-0.1,0-0.2,0-0.3,0c-0.1,0-0.3,0-0.4,0s-0.3,0-0.5,0c-0.2,0-0.3,0-0.4,0h-3v-2.4h8.1v1.9l-3.6,4.4c-0.2,0.3-0.4,0.5-0.7,0.8
			c-0.2,0.3-0.4,0.5-0.6,0.6c0.1,0,0.2,0,0.3,0c0.1,0,0.3,0,0.4,0s0.3,0,0.5,0c0.2,0,0.3,0,0.4,0h3.2v2.4H473.2z"/>
		<path id="XMLID_82_" class="st0" d="M492,31.7c0,0.2,0,0.4,0,0.5c0,0.1,0,0.3,0,0.4h-6.1c0,0.3,0.1,0.6,0.2,0.9
			c0.1,0.2,0.3,0.4,0.5,0.6c0.2,0.1,0.4,0.3,0.6,0.3s0.5,0.1,0.7,0.1c0.4,0,0.7-0.1,1-0.2s0.5-0.3,0.7-0.5l1.9,1.6
			c-0.4,0.5-1,0.9-1.6,1.2c-0.7,0.3-1.3,0.4-2,0.4c-0.7,0-1.4-0.1-2-0.4c-0.6-0.3-1.1-0.6-1.5-1.1s-0.7-1-1-1.7
			c-0.2-0.7-0.3-1.4-0.3-2.2c0-0.8,0.1-1.5,0.3-2.1c0.2-0.7,0.6-1.2,1-1.7c0.4-0.5,0.9-0.8,1.4-1.1c0.5-0.3,1.1-0.4,1.8-0.4
			c0.7,0,1.3,0.1,1.8,0.4c0.5,0.3,1,0.7,1.3,1.1c0.4,0.5,0.6,1,0.8,1.7C491.9,30.2,492,30.9,492,31.7z M489.4,30.5
			c0-0.2-0.1-0.5-0.2-0.7c-0.1-0.2-0.2-0.4-0.3-0.6c-0.1-0.2-0.3-0.3-0.6-0.4c-0.2-0.1-0.5-0.2-0.8-0.2c-0.5,0-0.9,0.2-1.2,0.5
			c-0.3,0.3-0.5,0.8-0.5,1.3H489.4z"/>
		<path id="XMLID_79_" class="st0" d="M499.4,36.7v-0.6c-0.3,0.2-0.6,0.4-0.9,0.6c-0.3,0.2-0.8,0.3-1.2,0.3c-0.5,0-1.1-0.1-1.5-0.3
			s-0.9-0.5-1.3-1s-0.6-1-0.9-1.7s-0.3-1.5-0.3-2.4c0-0.8,0.1-1.5,0.3-2.1s0.4-1.2,0.8-1.6c0.3-0.5,0.7-0.8,1.2-1.1
			c0.5-0.3,1.1-0.4,1.7-0.4c0.5,0,0.9,0.1,1.2,0.2c0.4,0.2,0.7,0.3,0.9,0.6v-3.2l2.7-1.3v14.1H499.4z M499.4,29.7
			c-0.4-0.6-1-0.9-1.8-0.9c-1.1,0-1.6,0.9-1.6,2.6c0,1,0.2,1.8,0.5,2.3c0.3,0.5,0.7,0.7,1.3,0.7c0.4,0,0.7-0.1,1-0.2
			c0.2-0.2,0.5-0.4,0.7-0.6V29.7z"/>
		<path id="XMLID_76_" class="st0" d="M517.9,31.7c0,0.2,0,0.4,0,0.5c0,0.1,0,0.3,0,0.4h-6.1c0,0.3,0.1,0.6,0.2,0.9
			c0.1,0.2,0.3,0.4,0.5,0.6c0.2,0.1,0.4,0.3,0.6,0.3s0.5,0.1,0.7,0.1c0.4,0,0.7-0.1,1-0.2s0.5-0.3,0.7-0.5l1.9,1.6
			c-0.4,0.5-1,0.9-1.6,1.2c-0.7,0.3-1.3,0.4-2,0.4c-0.7,0-1.4-0.1-2-0.4c-0.6-0.3-1.1-0.6-1.5-1.1s-0.7-1-1-1.7
			c-0.2-0.7-0.3-1.4-0.3-2.2c0-0.8,0.1-1.5,0.3-2.1c0.2-0.7,0.6-1.2,1-1.7c0.4-0.5,0.9-0.8,1.4-1.1c0.5-0.3,1.1-0.4,1.8-0.4
			c0.7,0,1.3,0.1,1.8,0.4c0.5,0.3,1,0.7,1.3,1.1c0.4,0.5,0.6,1,0.8,1.7C517.8,30.2,517.9,30.9,517.9,31.7z M515.4,30.5
			c0-0.2-0.1-0.5-0.2-0.7c-0.1-0.2-0.2-0.4-0.3-0.6c-0.1-0.2-0.3-0.3-0.6-0.4c-0.2-0.1-0.5-0.2-0.8-0.2c-0.5,0-0.9,0.2-1.2,0.5
			c-0.3,0.3-0.5,0.8-0.5,1.3H515.4z"/>
		<path id="XMLID_73_" class="st0" d="M528.5,31.8c0,0.8-0.1,1.5-0.3,2.1s-0.4,1.2-0.8,1.6c-0.3,0.5-0.7,0.8-1.2,1.1
			c-0.5,0.3-1.1,0.4-1.7,0.4c-0.5,0-0.9-0.1-1.2-0.2c-0.4-0.2-0.7-0.3-0.9-0.6v3l-2.7,1.3V26.6h2.7v0.6c0.3-0.2,0.6-0.4,0.9-0.6
			c0.3-0.2,0.8-0.3,1.2-0.3c0.5,0,1.1,0.1,1.5,0.3s0.9,0.5,1.3,1s0.6,1,0.9,1.7C528.4,30,528.5,30.8,528.5,31.8z M525.8,31.8
			c0-1-0.2-1.8-0.5-2.3c-0.3-0.5-0.7-0.7-1.3-0.7c-0.4,0-0.7,0.1-1,0.2c-0.2,0.2-0.5,0.4-0.7,0.6v3.8c0.4,0.6,1,0.9,1.8,0.9
			C525.3,34.4,525.8,33.6,525.8,31.8z"/>
		<path id="XMLID_70_" class="st0" d="M533.3,24.2c0,0.4-0.2,0.8-0.5,1.1c-0.3,0.3-0.7,0.5-1.1,0.5c-0.4,0-0.8-0.2-1.1-0.5
			c-0.3-0.3-0.5-0.7-0.5-1.1s0.2-0.8,0.5-1.1c0.3-0.3,0.7-0.5,1.1-0.5c0.4,0,0.8,0.2,1.1,0.5C533.1,23.4,533.3,23.8,533.3,24.2z
			 M530.4,36.7V26.6h2.7v10.2H530.4z"/>
		<path id="XMLID_68_" class="st0" d="M535.5,36.7V23.9l2.7-1.3v14.1H535.5z"/>
		<path id="XMLID_65_" class="st0" d="M548.8,31.7c0,0.2,0,0.4,0,0.5c0,0.1,0,0.3,0,0.4h-6.1c0,0.3,0.1,0.6,0.2,0.9
			c0.1,0.2,0.3,0.4,0.5,0.6c0.2,0.1,0.4,0.3,0.6,0.3s0.5,0.1,0.7,0.1c0.4,0,0.7-0.1,1-0.2s0.5-0.3,0.7-0.5l1.9,1.6
			c-0.4,0.5-1,0.9-1.6,1.2c-0.7,0.3-1.3,0.4-2,0.4c-0.7,0-1.4-0.1-2-0.4c-0.6-0.3-1.1-0.6-1.5-1.1s-0.7-1-1-1.7
			c-0.2-0.7-0.3-1.4-0.3-2.2c0-0.8,0.1-1.5,0.3-2.1c0.2-0.7,0.6-1.2,1-1.7c0.4-0.5,0.9-0.8,1.4-1.1c0.5-0.3,1.1-0.4,1.8-0.4
			c0.7,0,1.3,0.1,1.8,0.4c0.5,0.3,1,0.7,1.3,1.1c0.4,0.5,0.6,1,0.8,1.7C548.7,30.2,548.8,30.9,548.8,31.7z M546.3,30.5
			c0-0.2-0.1-0.5-0.2-0.7c-0.1-0.2-0.2-0.4-0.3-0.6c-0.1-0.2-0.3-0.3-0.6-0.4c-0.2-0.1-0.5-0.2-0.8-0.2c-0.5,0-0.9,0.2-1.2,0.5
			c-0.3,0.3-0.5,0.8-0.5,1.3H546.3z"/>
		<path id="XMLID_62_" class="st0" d="M559.4,31.8c0,0.8-0.1,1.5-0.3,2.1s-0.4,1.2-0.8,1.6c-0.3,0.5-0.7,0.8-1.2,1.1
			c-0.5,0.3-1.1,0.4-1.7,0.4c-0.5,0-0.9-0.1-1.2-0.2c-0.4-0.2-0.7-0.3-0.9-0.6v3l-2.7,1.3V26.6h2.7v0.6c0.3-0.2,0.6-0.4,0.9-0.6
			c0.3-0.2,0.8-0.3,1.2-0.3c0.5,0,1.1,0.1,1.5,0.3s0.9,0.5,1.3,1s0.6,1,0.9,1.7C559.3,30,559.4,30.8,559.4,31.8z M556.7,31.8
			c0-1-0.2-1.8-0.5-2.3c-0.3-0.5-0.7-0.7-1.3-0.7c-0.4,0-0.7,0.1-1,0.2c-0.2,0.2-0.5,0.4-0.7,0.6v3.8c0.4,0.6,1,0.9,1.8,0.9
			C556.2,34.4,556.7,33.6,556.7,31.8z"/>
		<path id="XMLID_60_" class="st0" d="M569.2,33.8c0,0.6-0.1,1.1-0.3,1.5c-0.2,0.4-0.5,0.7-0.9,1c-0.4,0.3-0.8,0.4-1.3,0.5
			c-0.5,0.1-1,0.2-1.6,0.2c-0.8,0-1.6-0.1-2.3-0.3s-1.4-0.5-1.9-0.9l0.9-2c0.5,0.3,1.1,0.5,1.7,0.7c0.6,0.2,1.2,0.2,1.8,0.2
			c0.5,0,0.9-0.1,1.1-0.2c0.2-0.1,0.3-0.3,0.3-0.6c0-0.2-0.1-0.4-0.3-0.6c-0.2-0.1-0.6-0.3-1.2-0.5c-0.6-0.2-1.2-0.4-1.7-0.6
			c-0.5-0.2-0.9-0.4-1.3-0.7c-0.3-0.3-0.6-0.6-0.8-0.9s-0.3-0.8-0.3-1.4c0-0.5,0.1-1,0.3-1.4c0.2-0.4,0.5-0.7,0.8-0.9
			c0.4-0.2,0.8-0.4,1.3-0.5c0.5-0.1,1-0.2,1.6-0.2c0.6,0,1.3,0.1,2,0.3s1.3,0.4,1.8,0.7l-0.9,2.1c-0.5-0.3-1-0.5-1.5-0.6
			c-0.5-0.1-1-0.2-1.4-0.2c-0.5,0-0.9,0.1-1.1,0.2c-0.2,0.1-0.3,0.3-0.3,0.5c0,0.1,0,0.2,0.1,0.3s0.2,0.2,0.3,0.3s0.4,0.2,0.6,0.3
			c0.3,0.1,0.6,0.2,1.1,0.4c0.5,0.2,0.9,0.3,1.3,0.5s0.8,0.4,1.1,0.6c0.3,0.2,0.6,0.5,0.7,0.9C569.1,32.8,569.2,33.3,569.2,33.8z"/>
		<path id="XMLID_58_" class="st0" d="M575.7,40.3H573l1.4-3.6l-3.9-10.2h2.9l1.7,4.9c0.1,0.4,0.3,0.8,0.4,1.2
			c0.1,0.4,0.2,0.8,0.3,1c0.1-0.3,0.2-0.6,0.3-1s0.2-0.8,0.4-1.2l1.7-4.9h2.9L575.7,40.3z"/>
		<path id="XMLID_56_" class="st0" d="M585.5,35.1c0,0.2,0,0.5-0.1,0.7c-0.1,0.2-0.2,0.4-0.4,0.6c-0.2,0.2-0.4,0.3-0.6,0.4
			c-0.2,0.1-0.5,0.1-0.7,0.1s-0.5,0-0.7-0.1c-0.2-0.1-0.4-0.2-0.6-0.4c-0.2-0.2-0.3-0.4-0.4-0.6c-0.1-0.2-0.1-0.5-0.1-0.7
			s0-0.5,0.1-0.7c0.1-0.2,0.2-0.4,0.4-0.6c0.2-0.2,0.4-0.3,0.6-0.4c0.2-0.1,0.5-0.1,0.7-0.1s0.5,0,0.7,0.1c0.2,0.1,0.4,0.2,0.6,0.4
			c0.2,0.2,0.3,0.4,0.4,0.6C585.5,34.6,585.5,34.9,585.5,35.1z"/>
	</g>
</g>
<linearGradient id="XMLID_282_" gradientUnits="userSpaceOnUse" x1="0" y1="30.1336" x2="124.8049" y2="30.1336">
	<stop  offset="0" style="stop-color:#4B257A"/>
	<stop  offset="1" style="stop-color:#964C8E"/>
</linearGradient>
<rect id="XMLID_52_" y="0.3" class="st1" width="124.8" height="59.6"/>
<rect id="XMLID_51_" x="125" y="0.3" class="st2" width="470.1" height="59.6"/>
<g id="XMLID_1_">
	<polygon id="XMLID_50_" class="st3" points="18.5,31.7 14.3,24.1 12.1,26.7 12.1,31.7 8.9,31.7 8.9,15.1 12.1,15.1 12.1,22.3 
		18,15.1 21.9,15.1 16.4,21.7 22.3,31.7 	"/>
	<path id="XMLID_47_" class="st3" d="M44.7,18h-3v4.5h3c1.5,0,2.4-0.9,2.4-2.3C47.1,18.9,46.2,18,44.7,18 M44.9,25.4h-3.2v6.2h-3.2
		V15.1h6.4c3.4,0,5.5,2.3,5.5,5.2C50.3,23.1,48.3,25.4,44.9,25.4"/>
	<path id="XMLID_44_" class="st3" d="M59.4,18h-3.1v4.4h3.1c1.4,0,2.4-0.9,2.4-2.2C61.7,18.9,60.8,18,59.4,18 M61.9,31.7L58.6,25
		h-2.3v6.6h-3.2V15.1h6.5c3.4,0,5.4,2.3,5.4,5.1c0,2.3-1.4,3.8-3,4.4l3.7,7.1H61.9z"/>
	<path id="XMLID_41_" class="st3" d="M73.9,20l-2.1,6h4.1L73.9,20z M77.7,31.7l-1-2.9h-5.9l-1,2.9h-3.4l6-16.6H75l6.1,16.6H77.7z"/>
	<path id="XMLID_38_" class="st3" d="M91.3,19c-0.6-0.7-1.3-1-2.4-1h-2.4v10.8h2.4c1.1,0,1.9-0.3,2.4-1c0.6-0.7,0.7-1.9,0.7-4.4
		C92,20.8,91.9,19.7,91.3,19 M93.5,30.1c-1.1,1.1-2.7,1.6-4.4,1.6h-6V15.1h6c1.7,0,3.3,0.5,4.4,1.6c1.9,1.9,1.7,4.1,1.7,6.6
		C95.2,25.8,95.4,28.2,93.5,30.1"/>
	<rect id="XMLID_37_" x="98.5" y="15.1" class="st3" width="3.2" height="16.6"/>
	<polygon id="XMLID_36_" class="st3" points="105.6,31.7 105.6,15.1 108.8,15.1 108.8,28.8 116.4,28.8 116.4,31.7 	"/>
	<polygon id="XMLID_35_" class="st3" points="8.5,34.1 9.6,34.1 9.6,43.9 16.5,43.9 16.5,44.9 8.5,44.9 	"/>
	<path id="XMLID_32_" class="st3" d="M24.7,40.4c-0.3-1.9-1.7-2.7-3.3-2.7c-1.4,0-3,0.7-3.3,2.7H24.7z M25.6,42.4
		c-0.5,1.4-1.6,2.8-4.3,2.8c-3.2,0-4.3-2.3-4.3-4.2c0-2.2,1.4-4.2,4.3-4.2c2,0,4.5,0.9,4.5,4.5h-7.6c0,1.6,1.2,3,3.2,3
		c1.9,0,2.7-0.6,3.1-1.8H25.6z"/>
	<polygon id="XMLID_31_" class="st3" points="33.7,37 34.9,37 31.2,44.9 29.9,44.9 26.2,37 27.5,37 30.6,43.6 	"/>
	<path id="XMLID_28_" class="st3" d="M43,40.4c-0.3-1.9-1.7-2.7-3.3-2.7c-1.4,0-3,0.7-3.3,2.7H43z M43.9,42.4
		c-0.5,1.4-1.6,2.8-4.3,2.8c-3.2,0-4.3-2.3-4.3-4.2c0-2.2,1.4-4.2,4.3-4.2c2,0,4.5,0.9,4.5,4.5h-7.6c0,1.6,1.2,3,3.2,3
		c1.9,0,2.7-0.6,3.1-1.8H43.9z"/>
	<path id="XMLID_27_" class="st3" d="M46.3,34.5h1.1V37h2.2v0.9h-2.2v5.2c0,0.7,0.2,1,1.1,1c0.5,0,0.9,0,1.1-0.1V45
		c-0.4,0.1-0.9,0.1-1.2,0.1c-1.8,0-2.1-0.7-2.1-2v-5.2h-1.7V37h1.7V34.5z"/>
	<path id="XMLID_24_" class="st3" d="M50.8,37H52v7.9h-1.1V37z M50.8,34H52v1.7h-1.1V34z"/>
	<path id="XMLID_23_" class="st3" d="M53.7,37h1.1v1.8h0c0.4-0.9,1.2-2.1,3-2.1c0.3,0,0.5,0,0.7,0.1V38c-0.4-0.1-0.7-0.1-1-0.1
		c-1.2,0-2.7,0.7-2.7,3v4h-1.1V37z"/>
	<path id="XMLID_20_" class="st3" d="M65.6,40.7c-0.5,0.3-1.3,0.4-3.5,0.6c-1.3,0.1-2.1,0.5-2.1,1.5c0,1.2,1.1,1.6,2.3,1.6
		c1.5,0,3.3-0.8,3.3-2.4V40.7z M59.2,39.5c0.2-1.7,1.1-2.7,3.8-2.7c2.6,0,3.6,0.8,3.6,2.3v4.1c0,0.7,0.2,0.9,0.6,0.9
		c0.2,0,0.4,0,0.6,0v0.8c-0.2,0-0.6,0.1-0.9,0.1c-1.1,0-1.2-0.8-1.2-1.4h0c-0.4,0.5-1.1,1.6-3.7,1.6c-1.4,0-3.1-0.6-3.1-2.4
		c0-2.1,2.2-2.4,3.9-2.5c2.5-0.1,2.8-0.3,2.8-1c0-1.1-0.8-1.6-2.6-1.6c-1.8,0-2.6,0.5-2.7,1.7H59.2z"/>
	<path id="XMLID_19_" class="st3" d="M76.6,42.1c-0.2,1-1.1,3.1-4,3.1c-2.9,0-4.5-1.7-4.5-4.2c0-2.4,1.5-4.2,4.5-4.2
		c2.7,0,3.8,1.7,3.9,2.8h-1.1c-0.3-1.4-1.4-1.9-2.8-1.9c-2.3,0-3.3,1.4-3.3,3.3c0,2,1.2,3.3,3.3,3.3c1.7,0,2.6-0.9,2.9-2.1H76.6z"/>
	<path id="XMLID_16_" class="st3" d="M85.2,40.4c-0.3-1.9-1.7-2.7-3.3-2.7c-1.4,0-3,0.7-3.3,2.7H85.2z M86.2,42.4
		c-0.5,1.4-1.6,2.8-4.3,2.8c-3.2,0-4.3-2.3-4.3-4.2c0-2.2,1.4-4.2,4.3-4.2c2,0,4.5,0.9,4.5,4.5h-7.6c0,1.6,1.2,3,3.2,3
		c1.9,0,2.7-0.6,3.1-1.8H86.2z"/>
	<path id="XMLID_15_" class="st3" d="M88.5,34.5h1.1V37h2.2v0.9h-2.2v5.2c0,0.7,0.2,1,1.1,1c0.5,0,0.9,0,1.1-0.1V45
		c-0.4,0.1-0.9,0.1-1.2,0.1c-1.8,0-2.1-0.7-2.1-2v-5.2h-1.7V37h1.7V34.5z"/>
	<path id="XMLID_12_" class="st3" d="M99.4,40.7c-0.5,0.3-1.3,0.4-3.5,0.6c-1.3,0.1-2.1,0.5-2.1,1.5c0,1.2,1.1,1.6,2.3,1.6
		c1.5,0,3.3-0.8,3.3-2.4V40.7z M93,39.5c0.2-1.7,1.1-2.7,3.8-2.7c2.6,0,3.6,0.8,3.6,2.3v4.1c0,0.7,0.2,0.9,0.6,0.9
		c0.2,0,0.4,0,0.6,0v0.8c-0.2,0-0.6,0.1-0.9,0.1c-1.1,0-1.2-0.8-1.2-1.4h0c-0.4,0.5-1.1,1.6-3.7,1.6c-1.4,0-3.1-0.6-3.1-2.4
		c0-2.1,2.2-2.4,3.9-2.5c2.5-0.1,2.8-0.3,2.8-1c0-1.1-0.8-1.6-2.6-1.6c-1.8,0-2.6,0.5-2.7,1.7H93z"/>
	<path id="XMLID_11_" class="st3" d="M114.7,39.9c0-1.4-0.7-2.2-2.4-2.2c-1.7,0-2.7,1-2.7,2.5v4.7h-1.1v-5.4c0-1-0.7-1.9-2.3-1.9
		c-1.6,0-2.8,0.9-2.8,2.8v4.5h-1.1V37h1.1v1.5h0c0.5-0.8,1.3-1.7,3.1-1.7c1.8,0,2.6,0.9,2.8,1.7c0.4-0.8,1.5-1.7,3.1-1.7
		c2.2,0,3.3,1.1,3.3,2.8v5.4h-1.1V39.9z"/>
	<path id="XMLID_6_" class="st3" d="M113.2,17.7c0.4,0,0.7,0,0.7-0.4c0-0.3-0.3-0.4-0.5-0.4h-0.5v0.8H113.2z M112.4,16.6h1
		c0.6,0,0.9,0.2,0.9,0.7c0,0.4-0.3,0.7-0.7,0.7l0.7,1.1h-0.4l-0.7-1.1h-0.4v1.1h-0.4V16.6z M115.1,17.8c0-1-0.8-1.8-1.8-1.8
		c-1,0-1.8,0.8-1.8,1.8c0,1,0.8,1.8,1.8,1.8C114.3,19.7,115.1,18.9,115.1,17.8 M113.3,15.7c1.2,0,2.2,1,2.2,2.2c0,1.2-1,2.2-2.2,2.2
		c-1.2,0-2.2-1-2.2-2.2C111.1,16.7,112.1,15.7,113.3,15.7"/>
	<polygon id="XMLID_5_" class="st3" points="24.4,31.7 35.3,31.7 35.3,28.8 27.6,28.8 27.6,25.4 24.4,25.4 	"/>
	<path id="XMLID_4_" class="st3" d="M23,24.1c0,0,1.4-3,6.6-3c5.2,0,8.1-1.8,8.1-1.8s-3.7,3.8-7.3,3.8C26.7,23.1,24.5,23.1,23,24.1"
		/>
	<path id="XMLID_3_" class="st3" d="M21.5,26.9c0,0,1.4-3,6.6-3c5.2,0,8.1-1.8,8.1-1.8s-3.7,3.8-7.3,3.8
		C25.2,25.9,23,25.9,21.5,26.9"/>
	<polygon id="XMLID_2_" class="st3" points="24.4,22.5 27.6,22.5 27.6,18 35.3,18 35.3,15.1 24.4,15.1 	"/>
</g>
</svg>
