<!-- Generator: Adobe Illustrator 22.1.0, SVG Export Plug-In  -->
<svg version="1.1"
	 xmlns="http://www.w3.org/2000/svg" xmlns:xlink="http://www.w3.org/1999/xlink" xmlns:a="http://ns.adobe.com/AdobeSVGViewerExtensions/3.0/"
	 x="0px" y="0px" width="285.1px" height="30.7px" viewBox="0 0 285.1 30.7" style="enable-background:new 0 0 285.1 30.7;"
	 xml:space="preserve">
<style type="text/css">
	.st0{fill:#266093;}
</style>
<defs>
</defs>
<path id="XMLID_40_" class="st0" d="M11.4,5.6v18.7H6.7V5.6H0V1h18.1v4.6H11.4z"/>
<path id="XMLID_38_" class="st0" d="M37.9,24.3H34l-1.7-6.9c-0.1-0.3-0.2-0.7-0.3-1.1s-0.2-0.8-0.3-1.2s-0.2-0.7-0.3-1.1
	c-0.1-0.3-0.1-0.6-0.2-0.8c0,0.2-0.1,0.5-0.2,0.8c-0.1,0.3-0.1,0.7-0.2,1.1c-0.1,0.4-0.2,0.8-0.3,1.2c-0.1,0.4-0.2,0.8-0.3,1.1
	l-1.7,6.9h-3.8l-5-17.5h4.7l1.5,6.5c0.1,0.3,0.1,0.7,0.2,1.1s0.2,0.8,0.3,1.1c0.1,0.4,0.1,0.7,0.2,1c0.1,0.3,0.1,0.6,0.2,0.8
	c0.1-0.4,0.2-1.1,0.4-1.8s0.4-1.5,0.6-2.2l1.7-6.5h3.8l1.7,6.5c0.2,0.7,0.4,1.4,0.5,2.2s0.3,1.4,0.4,1.8c0-0.2,0.1-0.5,0.1-0.8
	c0.1-0.3,0.1-0.7,0.2-1c0.1-0.4,0.2-0.7,0.3-1.1s0.2-0.7,0.2-1.1l1.5-6.5h4.5L37.9,24.3z"/>
<path id="XMLID_35_" class="st0" d="M50.5,2.7c0,0.7-0.3,1.3-0.8,1.9s-1.1,0.8-1.8,0.8c-0.7,0-1.3-0.3-1.9-0.8
	c-0.5-0.5-0.8-1.1-0.8-1.9c0-0.7,0.3-1.3,0.8-1.8c0.5-0.5,1.1-0.8,1.9-0.8c0.7,0,1.3,0.3,1.8,0.8S50.5,2,50.5,2.7z M45.6,24.3V6.8
	h4.6v17.5H45.6z"/>
<path id="XMLID_33_" class="st0" d="M67.4,22.4c-0.5,0.5-1,0.9-1.6,1.2c-0.6,0.4-1.2,0.6-1.9,0.8c-0.7,0.2-1.5,0.3-2.3,0.3
	c-1.1,0-2.2-0.2-3.2-0.7c-1-0.4-1.9-1.1-2.6-1.9c-0.7-0.8-1.3-1.8-1.8-2.9c-0.4-1.1-0.6-2.4-0.6-3.7c0-1.3,0.2-2.6,0.6-3.7
	c0.4-1.1,1-2.1,1.8-2.9c0.7-0.8,1.6-1.4,2.7-1.9c1-0.4,2.1-0.7,3.4-0.7c1.7,0,3.1,0.4,4.2,1.1s2,1.6,2.8,2.8l-3,3.1
	c-0.5-0.7-1.1-1.3-1.7-1.8c-0.6-0.5-1.4-0.7-2.3-0.7c-1.1,0-2,0.4-2.7,1.3c-0.7,0.9-1,2-1,3.5c0,1.4,0.3,2.5,1,3.4
	c0.7,0.9,1.5,1.3,2.7,1.3c0.9,0,1.7-0.2,2.3-0.6c0.6-0.4,1.2-0.9,1.8-1.7l2.9,2.8C68.3,21.4,67.8,21.9,67.4,22.4z"/>
<path id="XMLID_30_" class="st0" d="M85.8,15.6c0,0.3,0,0.6,0,0.8c0,0.2,0,0.4-0.1,0.6H75.3c0,0.6,0.2,1.1,0.4,1.5
	c0.2,0.4,0.5,0.8,0.8,1c0.3,0.3,0.7,0.4,1.1,0.6s0.8,0.2,1.3,0.2c0.6,0,1.2-0.1,1.7-0.3c0.5-0.2,0.9-0.5,1.3-0.9l3.3,2.7
	c-0.7,0.9-1.6,1.6-2.8,2.1c-1.1,0.5-2.3,0.7-3.5,0.7c-1.3,0-2.4-0.2-3.4-0.7s-1.9-1-2.6-1.8c-0.7-0.8-1.3-1.7-1.6-2.9
	c-0.4-1.1-0.6-2.4-0.6-3.8c0-1.3,0.2-2.6,0.6-3.7c0.4-1.1,1-2.1,1.7-2.9c0.7-0.8,1.5-1.4,2.5-1.9c0.9-0.4,2-0.7,3.1-0.7
	c1.2,0,2.2,0.2,3.1,0.7c0.9,0.5,1.7,1.1,2.3,2c0.6,0.8,1.1,1.8,1.4,2.9C85.7,13.1,85.8,14.3,85.8,15.6z M81.4,13.6
	c0-0.4-0.1-0.8-0.3-1.1c-0.1-0.4-0.3-0.7-0.6-1c-0.3-0.3-0.6-0.5-1-0.7c-0.4-0.2-0.8-0.3-1.3-0.3c-0.8,0-1.5,0.3-2,0.9
	c-0.5,0.6-0.8,1.3-0.9,2.2H81.4z"/>
<path id="XMLID_27_" class="st0" d="M117.7,12.6c0,2-0.3,3.8-1,5.3c-0.7,1.5-1.6,2.7-2.7,3.6c-1.1,0.9-2.4,1.6-3.8,2.1
	c-1.4,0.4-2.9,0.7-4.4,0.7h-7V1h7.3c1.7,0,3.2,0.2,4.6,0.6c1.4,0.4,2.6,1.1,3.7,2c1,0.9,1.8,2.1,2.4,3.6
	C117.4,8.7,117.7,10.5,117.7,12.6z M112.9,12.6c0-2.4-0.5-4.2-1.6-5.4c-1.1-1.2-2.9-1.8-5.3-1.8h-2.5v14.3h2.3
	c1.2,0,2.3-0.2,3.2-0.5c0.9-0.3,1.6-0.8,2.2-1.5c0.6-0.6,1-1.4,1.3-2.3S112.9,13.7,112.9,12.6z"/>
<path id="XMLID_24_" class="st0" d="M130.7,24.3v-1.2c-0.4,0.4-1,0.8-1.7,1.1c-0.7,0.3-1.4,0.4-2.3,0.4s-1.6-0.1-2.4-0.4
	c-0.8-0.3-1.5-0.6-2.1-1.2c-0.6-0.5-1.1-1.2-1.5-1.9c-0.4-0.8-0.6-1.7-0.6-2.8c0-1,0.2-1.8,0.5-2.5c0.4-0.7,0.9-1.3,1.5-1.8
	c0.6-0.5,1.4-0.8,2.3-1.1c0.9-0.2,1.8-0.4,2.8-0.4c0.8,0,1.5,0.1,2,0.2c0.5,0.1,1,0.3,1.4,0.5v-0.9c0-0.6-0.2-1.2-0.6-1.6
	c-0.4-0.4-1-0.7-1.9-0.7c-0.5,0-1,0-1.4,0.1s-0.8,0.1-1.2,0.2c-0.4,0.1-0.7,0.2-1.1,0.3c-0.4,0.1-0.7,0.3-1.1,0.5l-1.8-3.2
	c0.5-0.3,1-0.5,1.5-0.8c0.5-0.2,1-0.4,1.5-0.5s1.1-0.3,1.7-0.3c0.6-0.1,1.2-0.1,1.9-0.1c1.1,0,2,0.1,2.9,0.4s1.6,0.7,2.2,1.2
	c0.6,0.5,1.1,1.2,1.5,1.9s0.5,1.6,0.5,2.6v11.7H130.7z M130.7,17c-0.4-0.2-0.8-0.4-1.3-0.5c-0.5-0.1-1.1-0.2-1.9-0.2
	c-0.9,0-1.5,0.2-2,0.6c-0.5,0.4-0.7,0.9-0.7,1.6c0,0.6,0.2,1.2,0.6,1.6c0.4,0.5,1.1,0.7,2.1,0.7c0.8,0,1.4-0.2,2-0.5
	c0.6-0.3,1-0.7,1.2-1.1V17z"/>
<path id="XMLID_21_" class="st0" d="M144.1,2.7c0,0.7-0.3,1.3-0.8,1.9s-1.1,0.8-1.8,0.8c-0.7,0-1.3-0.3-1.9-0.8
	c-0.5-0.5-0.8-1.1-0.8-1.9c0-0.7,0.3-1.3,0.8-1.8c0.5-0.5,1.1-0.8,1.9-0.8c0.7,0,1.3,0.3,1.8,0.8S144.1,2,144.1,2.7z M139.2,24.3
	V6.8h4.6v17.5H139.2z"/>
<path id="XMLID_19_" class="st0" d="M148,24.3v-22l4.6-2.3v24.3H148z"/>
<path id="XMLID_17_" class="st0" d="M164.3,30.5h-4.5l2.3-6.2l-6.8-17.5h5.1l2.9,8.4c0.2,0.7,0.5,1.4,0.7,2.1s0.4,1.3,0.5,1.7
	c0.1-0.4,0.3-1,0.5-1.7c0.2-0.7,0.4-1.4,0.7-2.1l2.9-8.4h4.9L164.3,30.5z"/>
<path id="XMLID_14_" class="st0" d="M204.6,12.6c0,2-0.3,3.8-1,5.3c-0.7,1.5-1.6,2.7-2.7,3.6c-1.1,0.9-2.4,1.6-3.8,2.1
	c-1.4,0.4-2.9,0.7-4.4,0.7h-7V1h7.3c1.7,0,3.2,0.2,4.6,0.6c1.4,0.4,2.6,1.1,3.7,2c1,0.9,1.8,2.1,2.4,3.6
	C204.3,8.7,204.6,10.5,204.6,12.6z M199.8,12.6c0-2.4-0.5-4.2-1.6-5.4c-1.1-1.2-2.9-1.8-5.3-1.8h-2.5v14.3h2.3
	c1.2,0,2.3-0.2,3.2-0.5c0.9-0.3,1.6-0.8,2.2-1.5c0.6-0.6,1-1.4,1.3-2.3S199.8,13.7,199.8,12.6z"/>
<path id="XMLID_11_" class="st0" d="M222.8,15.6c0,1.3-0.2,2.6-0.6,3.7c-0.4,1.1-1,2.1-1.7,2.9s-1.5,1.4-2.5,1.9
	c-1,0.4-2,0.7-3.2,0.7c-1.1,0-2.2-0.2-3.2-0.7s-1.8-1.1-2.5-1.9s-1.3-1.8-1.7-2.9c-0.4-1.1-0.6-2.4-0.6-3.7c0-1.3,0.2-2.6,0.6-3.7
	c0.4-1.1,1-2.1,1.7-2.9c0.7-0.8,1.5-1.4,2.5-1.9c1-0.4,2-0.7,3.2-0.7c1.1,0,2.2,0.2,3.2,0.7c1,0.4,1.8,1.1,2.5,1.9
	c0.7,0.8,1.3,1.8,1.7,2.9C222.6,13,222.8,14.2,222.8,15.6z M218.2,15.6c0-1.3-0.3-2.5-0.8-3.4c-0.5-0.9-1.4-1.4-2.5-1.4
	s-1.9,0.4-2.5,1.3c-0.5,0.9-0.8,2-0.8,3.4s0.3,2.5,0.8,3.4c0.5,0.9,1.3,1.3,2.5,1.3c0.6,0,1-0.1,1.5-0.4c0.4-0.3,0.8-0.6,1-1
	s0.5-0.9,0.6-1.5C218.1,16.8,218.2,16.2,218.2,15.6z"/>
<path id="XMLID_9_" class="st0" d="M239.7,19.2c0,1-0.2,1.8-0.6,2.5s-0.9,1.3-1.5,1.7c-0.6,0.4-1.4,0.7-2.3,0.9
	c-0.9,0.2-1.8,0.3-2.8,0.3c-1.4,0-2.7-0.2-4-0.6c-1.3-0.4-2.4-0.9-3.3-1.5l1.5-3.5c0.9,0.5,1.9,0.9,2.9,1.2c1,0.3,2.1,0.4,3.2,0.4
	c0.9,0,1.5-0.1,1.9-0.3c0.3-0.2,0.5-0.6,0.5-1c0-0.4-0.2-0.7-0.5-1c-0.4-0.2-1-0.5-2-0.8c-1-0.3-2-0.6-2.9-1
	c-0.9-0.3-1.6-0.7-2.2-1.1c-0.6-0.4-1.1-1-1.4-1.6c-0.3-0.6-0.5-1.4-0.5-2.3c0-0.9,0.2-1.7,0.5-2.3c0.3-0.7,0.8-1.2,1.5-1.6
	c0.6-0.4,1.4-0.7,2.2-0.9s1.8-0.3,2.8-0.3c1.1,0,2.2,0.2,3.4,0.5c1.1,0.3,2.2,0.7,3.1,1.2l-1.5,3.6c-0.9-0.5-1.8-0.8-2.7-1.1
	c-0.9-0.2-1.7-0.3-2.5-0.3c-0.9,0-1.6,0.1-1.9,0.3c-0.3,0.2-0.5,0.5-0.5,0.9c0,0.2,0,0.3,0.1,0.5s0.3,0.3,0.5,0.4s0.6,0.3,1.1,0.5
	c0.5,0.2,1.1,0.4,1.9,0.6c0.8,0.3,1.5,0.5,2.2,0.8c0.7,0.3,1.3,0.6,1.9,1.1c0.5,0.4,1,0.9,1.3,1.6C239.5,17.6,239.7,18.3,239.7,19.2
	z"/>
<path id="XMLID_6_" class="st0" d="M248.3,2.7c0,0.7-0.3,1.3-0.8,1.9s-1.1,0.8-1.8,0.8c-0.7,0-1.3-0.3-1.9-0.8
	c-0.5-0.5-0.8-1.1-0.8-1.9c0-0.7,0.3-1.3,0.8-1.8c0.5-0.5,1.1-0.8,1.9-0.8c0.7,0,1.3,0.3,1.8,0.8S248.3,2,248.3,2.7z M243.3,24.3
	V6.8h4.6v17.5H243.3z"/>
<path id="XMLID_4_" class="st0" d="M262.6,24.3v-9.5c0-1.6-0.3-2.6-0.8-3.2c-0.5-0.6-1.2-0.9-2.2-0.9c-1,0-1.7,0.3-2.2,0.8
	c-0.5,0.6-0.8,1.6-0.8,3.1v9.6H252V6.8h4.6V8c0.4-0.4,1-0.8,1.7-1.1c0.7-0.3,1.5-0.5,2.5-0.5c2.2,0,3.9,0.7,4.9,2.2
	c1,1.4,1.6,3.4,1.6,5.9v9.9H262.6z"/>
<path id="XMLID_1_" class="st0" d="M285.1,21.3c0,1.4-0.1,2.7-0.3,3.8c-0.2,1.1-0.6,2-1.2,2.8s-1.3,1.4-2.3,1.9
	c-1,0.5-2.2,0.8-3.8,0.9l-1.6-3.5c0.9-0.1,1.6-0.3,2.2-0.5s1.1-0.4,1.4-0.7s0.6-0.7,0.7-1.2c0.1-0.5,0.2-1,0.2-1.7
	c-0.4,0.4-1,0.7-1.5,1c-0.6,0.3-1.3,0.5-2.2,0.5c-0.9,0-1.8-0.2-2.6-0.5c-0.8-0.4-1.5-0.9-2.2-1.7c-0.6-0.8-1.1-1.7-1.5-2.9
	c-0.4-1.2-0.5-2.6-0.5-4.2c0-1.3,0.1-2.5,0.4-3.6c0.3-1.1,0.7-2,1.3-2.8c0.6-0.8,1.3-1.4,2.1-1.8c0.8-0.4,1.8-0.6,2.9-0.6
	c0.8,0,1.5,0.1,2.1,0.4c0.6,0.3,1.2,0.6,1.6,1v-1h4.6V21.3z M280.5,12.3c-0.7-1-1.8-1.5-3.1-1.5c-1.8,0-2.7,1.5-2.7,4.5
	c0,1.8,0.3,3.1,0.8,3.9c0.5,0.8,1.3,1.2,2.2,1.2c0.7,0,1.3-0.1,1.7-0.4c0.4-0.3,0.8-0.6,1.1-1.1V12.3z"/>
</svg>
