<!-- Generator: Adobe Illustrator 22.1.0, SVG Export Plug-In  -->
<svg version="1.1"
	 xmlns="http://www.w3.org/2000/svg" xmlns:xlink="http://www.w3.org/1999/xlink" xmlns:a="http://ns.adobe.com/AdobeSVGViewerExtensions/3.0/"
	 x="0px" y="0px" width="794.8px" height="27.4px" viewBox="0 0 794.8 27.4" style="enable-background:new 0 0 794.8 27.4;"
	 xml:space="preserve">
<style type="text/css">
	.st0{fill:#522D6D;}
	.st1{fill:#236092;}
</style>
<defs>
</defs>
<g id="XMLID_4_">
	<path id="XMLID_130_" class="st0" d="M48.9,1.6c1.4-0.2,3.6-0.4,5.9-0.4c2.9,0,4.9,0.4,6.3,1.5c1.2,0.9,1.8,2.3,1.8,4.1
		c0,2.5-1.8,4.2-3.5,4.8v0.1c1.4,0.6,2.1,1.9,2.6,3.7c0.6,2.2,1.2,4.8,1.6,5.5h-4.5c-0.3-0.6-0.8-2.2-1.4-4.6
		c-0.5-2.4-1.4-3.1-3.2-3.1h-1.3V21h-4.4V1.6z M53.3,10.1H55c2.2,0,3.5-1.1,3.5-2.8c0-1.8-1.2-2.7-3.3-2.7c-1.1,0-1.7,0.1-2,0.1
		V10.1z"/>
	<path id="XMLID_127_" class="st0" d="M74.3,21l-0.3-1.4H74c-0.9,1.1-2.4,1.7-4.1,1.7c-2.9,0-4.6-2.1-4.6-4.4c0-3.7,3.3-5.5,8.4-5.4
		v-0.2c0-0.8-0.4-1.8-2.6-1.8c-1.5,0-3,0.5-3.9,1.1l-0.8-2.9c1-0.6,2.9-1.3,5.5-1.3c4.7,0,6.3,2.8,6.3,6.1v4.9
		c0,1.4,0.1,2.7,0.2,3.5H74.3z M73.8,14.3c-2.3,0-4.1,0.5-4.1,2.2c0,1.1,0.8,1.7,1.7,1.7c1.1,0,2-0.7,2.3-1.6
		c0.1-0.2,0.1-0.5,0.1-0.8V14.3z"/>
	<path id="XMLID_124_" class="st0" d="M81.6,11.5c0-1.9-0.1-3.5-0.1-4.8h3.8l0.2,2h0.1c1-1.5,2.7-2.3,4.7-2.3c3.1,0,5.9,2.7,5.9,7.2
		c0,5.2-3.3,7.6-6.5,7.6c-1.7,0-3.1-0.7-3.7-1.6H86v7.1h-4.4V11.5z M86,14.9c0,0.3,0,0.7,0.1,0.9c0.3,1.2,1.3,2.1,2.6,2.1
		c1.9,0,3.1-1.6,3.1-4c0-2.3-1-4-3-4c-1.3,0-2.4,0.9-2.6,2.2c-0.1,0.2-0.1,0.5-0.1,0.8V14.9z"/>
	<path id="XMLID_121_" class="st0" d="M103.6,2.8c0,1.2-0.9,2.2-2.4,2.2c-1.4,0-2.3-1-2.3-2.2c0-1.3,0.9-2.2,2.3-2.2
		S103.6,1.5,103.6,2.8z M99,21V6.8h4.4V21H99z"/>
	<path id="XMLID_118_" class="st0" d="M120.8,0.3v16.4c0,1.6,0.1,3.3,0.1,4.2H117l-0.2-2.1h-0.1c-0.9,1.6-2.6,2.4-4.5,2.4
		c-3.4,0-6.1-2.9-6.1-7.3c0-4.8,3-7.6,6.4-7.6c1.7,0,3.1,0.6,3.8,1.6h0.1V0.3H120.8z M116.4,12.8c0-0.2,0-0.6-0.1-0.8
		c-0.3-1.2-1.2-2.2-2.6-2.2c-2,0-3.1,1.8-3.1,4c0,2.4,1.2,3.9,3,3.9c1.3,0,2.3-0.9,2.6-2.1c0.1-0.3,0.1-0.6,0.1-1V12.8z"/>
	<path id="XMLID_115_" class="st0" d="M148.3,11c0,6.4-3.9,10.3-9.6,10.3c-5.8,0-9.2-4.4-9.2-10c0-5.9,3.8-10.3,9.5-10.3
		C145,1,148.3,5.6,148.3,11z M134.1,11.2c0,3.8,1.8,6.5,4.8,6.5c3,0,4.7-2.9,4.7-6.7c0-3.5-1.7-6.5-4.7-6.5
		C135.9,4.6,134.1,7.4,134.1,11.2z"/>
	<path id="XMLID_113_" class="st0" d="M151.2,11.3c0-1.8-0.1-3.3-0.1-4.5h3.8l0.2,2h0.1c0.6-0.9,2-2.3,4.4-2.3
		c2.9,0,5.1,1.9,5.1,6.1V21h-4.4v-7.9c0-1.8-0.6-3.1-2.2-3.1c-1.2,0-1.9,0.8-2.2,1.7c-0.1,0.3-0.2,0.7-0.2,1.1V21h-4.4V11.3z"/>
	<path id="XMLID_111_" class="st0" d="M168.2,17.1c0.8,0.5,2.5,1.1,3.8,1.1c1.3,0,1.9-0.5,1.9-1.2s-0.4-1.1-2.1-1.6
		c-2.9-1-4.1-2.6-4-4.3c0-2.6,2.3-4.7,5.8-4.7c1.7,0,3.1,0.4,4,0.8l-0.8,3.1c-0.6-0.3-1.9-0.8-3.1-0.8c-1.1,0-1.7,0.4-1.7,1.2
		c0,0.7,0.6,1,2.3,1.6c2.7,0.9,3.8,2.3,3.9,4.4c0,2.6-2.1,4.6-6.2,4.6c-1.9,0-3.5-0.4-4.6-1L168.2,17.1z"/>
	<path id="XMLID_108_" class="st0" d="M184.3,15.3c0.1,1.8,1.9,2.7,4,2.7c1.5,0,2.7-0.2,3.9-0.6l0.6,3c-1.5,0.6-3.2,0.9-5.2,0.9
		c-4.8,0-7.6-2.8-7.6-7.2c0-3.6,2.2-7.6,7.2-7.6c4.6,0,6.3,3.6,6.3,7.1c0,0.8-0.1,1.4-0.1,1.7H184.3z M189.5,12.3
		c0-1.1-0.5-2.9-2.5-2.9c-1.9,0-2.6,1.7-2.7,2.9H189.5z"/>
	<path id="XMLID_106_" class="st0" d="M201.2,2.7v4.1h3.2V10h-3.2v5.2c0,1.7,0.4,2.5,1.7,2.5c0.6,0,1-0.1,1.3-0.1l0,3.3
		c-0.6,0.2-1.6,0.4-2.9,0.4c-1.4,0-2.6-0.5-3.3-1.2c-0.8-0.8-1.2-2.2-1.2-4.2V10H195V6.8h1.9V3.7L201.2,2.7z"/>
	<path id="XMLID_103_" class="st0" d="M226.9,13.7c0,5.2-3.7,7.6-7.5,7.6c-4.2,0-7.4-2.7-7.4-7.3s3-7.5,7.6-7.5
		C224,6.4,226.9,9.4,226.9,13.7z M216.6,13.9c0,2.4,1,4.3,2.9,4.3c1.7,0,2.8-1.7,2.8-4.3c0-2.1-0.8-4.3-2.8-4.3
		C217.4,9.6,216.6,11.8,216.6,13.9z"/>
	<path id="XMLID_101_" class="st0" d="M230.1,21V10h-1.9V6.8h1.9V6.2c0-1.7,0.5-3.6,1.8-4.8c1.1-1,2.6-1.4,3.9-1.4
		c1,0,1.7,0.1,2.4,0.3L238,3.7c-0.4-0.1-0.8-0.2-1.4-0.2c-1.5,0-2.1,1.1-2.1,2.5v0.7h2.9V10h-2.8v11H230.1z"/>
	<path id="XMLID_98_" class="st0" d="M250.1,15.9l-1.4,5h-4.6l6-19.6h5.8L262,21h-4.8l-1.5-5H250.1z M255.1,12.6l-1.2-4.2
		c-0.3-1.2-0.7-2.6-1-3.8h-0.1c-0.3,1.2-0.6,2.6-0.9,3.8l-1.2,4.2H255.1z"/>
	<path id="XMLID_96_" class="st0" d="M274.8,20.6c-0.8,0.3-2.3,0.6-4,0.6c-4.6,0-7.5-2.8-7.5-7.3c0-4.2,2.9-7.6,8.1-7.6
		c1.2,0,2.4,0.2,3.4,0.6l-0.7,3.3c-0.5-0.2-1.3-0.4-2.5-0.4c-2.3,0-3.8,1.7-3.8,4c0,2.6,1.7,4,3.9,4c1,0,1.9-0.2,2.5-0.4L274.8,20.6
		z"/>
	<path id="XMLID_94_" class="st0" d="M282.6,2.7v4.1h3.2V10h-3.2v5.2c0,1.7,0.4,2.5,1.7,2.5c0.6,0,1-0.1,1.3-0.1l0,3.3
		c-0.6,0.2-1.6,0.4-2.9,0.4c-1.4,0-2.6-0.5-3.3-1.2c-0.8-0.8-1.2-2.2-1.2-4.2V10h-1.9V6.8h1.9V3.7L282.6,2.7z"/>
	<path id="XMLID_91_" class="st0" d="M292.9,2.8c0,1.2-0.9,2.2-2.4,2.2c-1.4,0-2.3-1-2.3-2.2c0-1.3,0.9-2.2,2.3-2.2
		S292.9,1.5,292.9,2.8z M288.4,21V6.8h4.4V21H288.4z"/>
	<path id="XMLID_88_" class="st0" d="M310.4,13.7c0,5.2-3.7,7.6-7.5,7.6c-4.2,0-7.4-2.7-7.4-7.3s3-7.5,7.6-7.5
		C307.5,6.4,310.4,9.4,310.4,13.7z M300.1,13.9c0,2.4,1,4.3,2.9,4.3c1.7,0,2.8-1.7,2.8-4.3c0-2.1-0.8-4.3-2.8-4.3
		C300.9,9.6,300.1,11.8,300.1,13.9z"/>
	<path id="XMLID_86_" class="st0" d="M313.1,11.3c0-1.8-0.1-3.3-0.1-4.5h3.8l0.2,2h0.1c0.6-0.9,2-2.3,4.4-2.3c2.9,0,5.1,1.9,5.1,6.1
		V21h-4.4v-7.9c0-1.8-0.6-3.1-2.2-3.1c-1.2,0-1.9,0.8-2.2,1.7c-0.1,0.3-0.2,0.7-0.2,1.1V21h-4.4V11.3z"/>
	<path id="XMLID_83_" class="st0" d="M340.6,2.8c0,1.2-0.9,2.2-2.4,2.2c-1.4,0-2.3-1-2.3-2.2c0-1.3,0.9-2.2,2.3-2.2
		S340.6,1.5,340.6,2.8z M336.1,21V6.8h4.4V21H336.1z"/>
	<path id="XMLID_81_" class="st0" d="M344.1,11.3c0-1.8-0.1-3.3-0.1-4.5h3.8l0.2,2h0.1c0.6-0.9,2-2.3,4.4-2.3c2.9,0,5.1,1.9,5.1,6.1
		V21h-4.4v-7.9c0-1.8-0.6-3.1-2.2-3.1c-1.2,0-1.9,0.8-2.2,1.7c-0.1,0.3-0.2,0.7-0.2,1.1V21h-4.4V11.3z"/>
	<path id="XMLID_78_" class="st0" d="M367.1,1.6c1.4-0.2,3.3-0.4,6-0.4c2.7,0,4.7,0.5,6,1.6c1.3,1,2.1,2.6,2.1,4.5
		c0,1.9-0.6,3.5-1.8,4.7c-1.5,1.4-3.8,2.1-6.4,2.1c-0.6,0-1.1,0-1.5-0.1v7h-4.4V1.6z M371.5,10.5c0.4,0.1,0.8,0.1,1.5,0.1
		c2.4,0,3.8-1.2,3.8-3.2c0-1.8-1.3-2.9-3.5-2.9c-0.9,0-1.5,0.1-1.8,0.2V10.5z"/>
	<path id="XMLID_75_" class="st0" d="M391.5,21l-0.3-1.4h-0.1c-0.9,1.1-2.4,1.7-4.1,1.7c-2.9,0-4.6-2.1-4.6-4.4
		c0-3.7,3.3-5.5,8.4-5.4v-0.2c0-0.8-0.4-1.8-2.6-1.8c-1.5,0-3,0.5-3.9,1.1l-0.8-2.9c1-0.6,2.9-1.3,5.5-1.3c4.7,0,6.3,2.8,6.3,6.1
		v4.9c0,1.4,0.1,2.7,0.2,3.5H391.5z M390.9,14.3c-2.3,0-4.1,0.5-4.1,2.2c0,1.1,0.8,1.7,1.7,1.7c1.1,0,2-0.7,2.3-1.6
		c0.1-0.2,0.1-0.5,0.1-0.8V14.3z"/>
	<path id="XMLID_73_" class="st0" d="M398.7,11.4c0-2.1-0.1-3.5-0.1-4.7h3.8l0.1,2.6h0.1c0.7-2.1,2.5-2.9,3.8-2.9
		c0.4,0,0.6,0,0.9,0.1v4.2c-0.3-0.1-0.7-0.1-1.2-0.1c-1.6,0-2.7,0.9-3,2.2c-0.1,0.3-0.1,0.6-0.1,1V21h-4.4V11.4z"/>
	<path id="XMLID_71_" class="st0" d="M415.4,2.7v4.1h3.2V10h-3.2v5.2c0,1.7,0.4,2.5,1.7,2.5c0.6,0,1-0.1,1.3-0.1l0,3.3
		c-0.6,0.2-1.6,0.4-2.9,0.4c-1.4,0-2.6-0.5-3.3-1.2c-0.8-0.8-1.2-2.2-1.2-4.2V10h-1.9V6.8h1.9V3.7L415.4,2.7z"/>
	<path id="XMLID_68_" class="st0" d="M425.7,2.8c0,1.2-0.9,2.2-2.4,2.2c-1.4,0-2.3-1-2.3-2.2c0-1.3,0.9-2.2,2.3-2.2
		S425.6,1.5,425.7,2.8z M421.1,21V6.8h4.4V21H421.1z"/>
	<path id="XMLID_65_" class="st0" d="M437.2,21l-0.3-1.4h-0.1c-0.9,1.1-2.4,1.7-4.1,1.7c-2.9,0-4.6-2.1-4.6-4.4
		c0-3.7,3.3-5.5,8.4-5.4v-0.2c0-0.8-0.4-1.8-2.6-1.8c-1.5,0-3,0.5-3.9,1.1l-0.8-2.9c1-0.6,2.9-1.3,5.5-1.3c4.7,0,6.3,2.8,6.3,6.1
		v4.9c0,1.4,0.1,2.7,0.2,3.5H437.2z M436.6,14.3c-2.3,0-4.1,0.5-4.1,2.2c0,1.1,0.8,1.7,1.7,1.7c1.1,0,2-0.7,2.3-1.6
		c0.1-0.2,0.1-0.5,0.1-0.8V14.3z"/>
	<path id="XMLID_63_" class="st0" d="M444.4,0.3h4.4V21h-4.4V0.3z"/>
	<path id="XMLID_60_" class="st0" d="M466.4,21l-0.3-1.4h-0.1c-0.9,1.1-2.4,1.7-4.1,1.7c-2.9,0-4.6-2.1-4.6-4.4
		c0-3.7,3.3-5.5,8.4-5.4v-0.2c0-0.8-0.4-1.8-2.6-1.8c-1.5,0-3,0.5-3.9,1.1l-0.8-2.9c1-0.6,2.9-1.3,5.5-1.3c4.7,0,6.3,2.8,6.3,6.1
		v4.9c0,1.4,0.1,2.7,0.2,3.5H466.4z M465.9,14.3c-2.3,0-4.1,0.5-4.1,2.2c0,1.1,0.8,1.7,1.7,1.7c1.1,0,2-0.7,2.3-1.6
		c0.1-0.2,0.1-0.5,0.1-0.8V14.3z"/>
	<path id="XMLID_58_" class="st0" d="M473.7,11.3c0-1.8-0.1-3.3-0.1-4.5h3.8l0.2,2h0.1c0.6-0.9,2-2.3,4.4-2.3c2.9,0,5.1,1.9,5.1,6.1
		V21h-4.4v-7.9c0-1.8-0.6-3.1-2.2-3.1c-1.2,0-1.9,0.8-2.2,1.7c-0.1,0.3-0.2,0.7-0.2,1.1V21h-4.4V11.3z"/>
	<path id="XMLID_55_" class="st0" d="M504.5,0.3v16.4c0,1.6,0.1,3.3,0.1,4.2h-3.9l-0.2-2.1h-0.1c-0.9,1.6-2.6,2.4-4.5,2.4
		c-3.4,0-6.1-2.9-6.1-7.3c0-4.8,3-7.6,6.4-7.6c1.7,0,3.1,0.6,3.8,1.6h0.1V0.3H504.5z M500.1,12.8c0-0.2,0-0.6-0.1-0.8
		c-0.3-1.2-1.2-2.2-2.6-2.2c-2,0-3.1,1.8-3.1,4c0,2.4,1.2,3.9,3,3.9c1.3,0,2.3-0.9,2.6-2.1c0.1-0.3,0.1-0.6,0.1-1V12.8z"/>
	<path id="XMLID_53_" class="st0" d="M536.4,20.1c-1.4,0.5-4,1.1-6.5,1.1c-3.6,0-6.2-0.9-8-2.6c-1.8-1.7-2.8-4.2-2.8-7.1
		c0-6.5,4.8-10.2,11.2-10.2c2.5,0,4.5,0.5,5.4,1l-0.9,3.5c-1.1-0.5-2.4-0.8-4.6-0.8c-3.7,0-6.5,2.1-6.5,6.3c0,4,2.5,6.4,6.2,6.4
		c1,0,1.8-0.1,2.2-0.3v-4.1h-3V9.7h7.3V20.1z"/>
	<path id="XMLID_50_" class="st0" d="M543.3,15.3c0.1,1.8,1.9,2.7,4,2.7c1.5,0,2.7-0.2,3.9-0.6l0.6,3c-1.5,0.6-3.2,0.9-5.2,0.9
		c-4.8,0-7.6-2.8-7.6-7.2c0-3.6,2.2-7.6,7.2-7.6c4.6,0,6.3,3.6,6.3,7.1c0,0.8-0.1,1.4-0.1,1.7H543.3z M548.5,12.3
		c0-1.1-0.5-2.9-2.5-2.9c-1.9,0-2.6,1.7-2.7,2.9H548.5z"/>
	<path id="XMLID_48_" class="st0" d="M555.2,11.3c0-1.8-0.1-3.3-0.1-4.5h3.8l0.2,2h0.1c0.6-0.9,2-2.3,4.4-2.3c2.9,0,5.1,1.9,5.1,6.1
		V21h-4.4v-7.9c0-1.8-0.6-3.1-2.2-3.1c-1.2,0-1.9,0.8-2.2,1.7c-0.1,0.3-0.2,0.7-0.2,1.1V21h-4.4V11.3z"/>
	<path id="XMLID_45_" class="st0" d="M575.7,15.3c0.1,1.8,1.9,2.7,4,2.7c1.5,0,2.7-0.2,3.9-0.6l0.6,3c-1.5,0.6-3.2,0.9-5.2,0.9
		c-4.8,0-7.6-2.8-7.6-7.2c0-3.6,2.2-7.6,7.2-7.6c4.6,0,6.3,3.6,6.3,7.1c0,0.8-0.1,1.4-0.1,1.7H575.7z M580.9,12.3
		c0-1.1-0.5-2.9-2.5-2.9c-1.9,0-2.6,1.7-2.7,2.9H580.9z"/>
	<path id="XMLID_43_" class="st0" d="M587.7,11.4c0-2.1-0.1-3.5-0.1-4.7h3.8l0.1,2.6h0.1c0.7-2.1,2.5-2.9,3.8-2.9
		c0.4,0,0.6,0,0.9,0.1v4.2c-0.3-0.1-0.7-0.1-1.2-0.1c-1.6,0-2.7,0.9-3,2.2c-0.1,0.3-0.1,0.6-0.1,1V21h-4.4V11.4z"/>
	<path id="XMLID_40_" class="st0" d="M606.5,21l-0.3-1.4h-0.1c-0.9,1.1-2.4,1.7-4.1,1.7c-2.9,0-4.6-2.1-4.6-4.4
		c0-3.7,3.3-5.5,8.4-5.4v-0.2c0-0.8-0.4-1.8-2.6-1.8c-1.5,0-3,0.5-3.9,1.1l-0.8-2.9c1-0.6,2.9-1.3,5.5-1.3c4.7,0,6.3,2.8,6.3,6.1
		v4.9c0,1.4,0.1,2.7,0.2,3.5H606.5z M606,14.3c-2.3,0-4.1,0.5-4.1,2.2c0,1.1,0.8,1.7,1.7,1.7c1.1,0,2-0.7,2.3-1.6
		c0.1-0.2,0.1-0.5,0.1-0.8V14.3z"/>
	<path id="XMLID_38_" class="st0" d="M613.8,0.3h4.4V21h-4.4V0.3z"/>
	<path id="XMLID_35_" class="st0" d="M626.3,2.8c0,1.2-0.9,2.2-2.4,2.2c-1.4,0-2.3-1-2.3-2.2c0-1.3,0.9-2.2,2.3-2.2
		S626.3,1.5,626.3,2.8z M621.8,21V6.8h4.4V21H621.8z"/>
	<path id="XMLID_33_" class="st0" d="M628.6,18.4l4.5-5.6c0.8-1,1.5-1.7,2.3-2.5v-0.1h-6.3V6.8h11.6v2.6l-4.3,5.4
		c-0.8,0.9-1.5,1.8-2.3,2.6v0.1h6.8V21h-12.4V18.4z"/>
	<path id="XMLID_30_" class="st0" d="M646.6,15.3c0.1,1.8,1.9,2.7,4,2.7c1.5,0,2.7-0.2,3.9-0.6l0.6,3c-1.5,0.6-3.2,0.9-5.2,0.9
		c-4.8,0-7.6-2.8-7.6-7.2c0-3.6,2.2-7.6,7.2-7.6c4.6,0,6.3,3.6,6.3,7.1c0,0.8-0.1,1.4-0.1,1.7H646.6z M651.8,12.3
		c0-1.1-0.5-2.9-2.5-2.9c-1.9,0-2.6,1.7-2.7,2.9H651.8z"/>
	<path id="XMLID_27_" class="st0" d="M672.4,0.3v16.4c0,1.6,0.1,3.3,0.1,4.2h-3.9l-0.2-2.1h-0.1c-0.9,1.6-2.6,2.4-4.5,2.4
		c-3.4,0-6.1-2.9-6.1-7.3c0-4.8,3-7.6,6.4-7.6c1.7,0,3.1,0.6,3.8,1.6h0.1V0.3H672.4z M667.9,12.8c0-0.2,0-0.6-0.1-0.8
		c-0.3-1.2-1.2-2.2-2.6-2.2c-2,0-3.1,1.8-3.1,4c0,2.4,1.2,3.9,3,3.9c1.3,0,2.3-0.9,2.6-2.1c0.1-0.3,0.1-0.6,0.1-1V12.8z"/>
	<path id="XMLID_25_" class="st0" d="M693.6,12.7h-7.2v4.7h8.1V21h-12.5V1.4H694V5h-7.7v4.1h7.2V12.7z"/>
	<path id="XMLID_22_" class="st0" d="M697.3,11.5c0-1.9-0.1-3.5-0.1-4.8h3.8l0.2,2h0.1c1-1.5,2.7-2.3,4.7-2.3c3.1,0,5.9,2.7,5.9,7.2
		c0,5.2-3.3,7.6-6.5,7.6c-1.7,0-3.1-0.7-3.7-1.6h-0.1v7.1h-4.4V11.5z M701.8,14.9c0,0.3,0,0.7,0.1,0.9c0.3,1.2,1.3,2.1,2.6,2.1
		c1.9,0,3.1-1.6,3.1-4c0-2.3-1-4-3-4c-1.3,0-2.4,0.9-2.6,2.2c-0.1,0.2-0.1,0.5-0.1,0.8V14.9z"/>
	<path id="XMLID_19_" class="st0" d="M719.3,2.8c0,1.2-0.9,2.2-2.4,2.2c-1.4,0-2.3-1-2.3-2.2c0-1.3,0.9-2.2,2.3-2.2
		S719.3,1.5,719.3,2.8z M714.7,21V6.8h4.4V21H714.7z"/>
	<path id="XMLID_17_" class="st0" d="M722.7,0.3h4.4V21h-4.4V0.3z"/>
	<path id="XMLID_14_" class="st0" d="M734.1,15.3c0.1,1.8,1.9,2.7,4,2.7c1.5,0,2.7-0.2,3.9-0.6l0.6,3c-1.5,0.6-3.2,0.9-5.2,0.9
		c-4.8,0-7.6-2.8-7.6-7.2c0-3.6,2.2-7.6,7.2-7.6c4.6,0,6.3,3.6,6.3,7.1c0,0.8-0.1,1.4-0.1,1.7H734.1z M739.3,12.3
		c0-1.1-0.5-2.9-2.5-2.9c-1.9,0-2.6,1.7-2.7,2.9H739.3z"/>
	<path id="XMLID_11_" class="st0" d="M746.1,11.5c0-1.9-0.1-3.5-0.1-4.8h3.8l0.2,2h0.1c1-1.5,2.7-2.3,4.7-2.3c3.1,0,5.9,2.7,5.9,7.2
		c0,5.2-3.3,7.6-6.5,7.6c-1.7,0-3.1-0.7-3.7-1.6h-0.1v7.1h-4.4V11.5z M750.5,14.9c0,0.3,0,0.7,0.1,0.9c0.3,1.2,1.3,2.1,2.6,2.1
		c1.9,0,3.1-1.6,3.1-4c0-2.3-1-4-3-4c-1.3,0-2.4,0.9-2.6,2.2c-0.1,0.2-0.1,0.5-0.1,0.8V14.9z"/>
	<path id="XMLID_9_" class="st0" d="M763.5,17.1c0.8,0.5,2.5,1.1,3.8,1.1c1.3,0,1.9-0.5,1.9-1.2s-0.4-1.1-2.1-1.6
		c-2.9-1-4.1-2.6-4-4.3c0-2.6,2.3-4.7,5.8-4.7c1.7,0,3.1,0.4,4,0.8l-0.8,3.1c-0.6-0.3-1.9-0.8-3.1-0.8c-1.1,0-1.7,0.4-1.7,1.2
		c0,0.7,0.6,1,2.3,1.6c2.7,0.9,3.8,2.3,3.9,4.4c0,2.6-2.1,4.6-6.2,4.6c-1.9,0-3.5-0.4-4.6-1L763.5,17.1z"/>
	<path id="XMLID_7_" class="st0" d="M779.4,6.8l2.1,7c0.2,0.8,0.5,1.9,0.7,2.6h0.1c0.2-0.8,0.4-1.8,0.6-2.6l1.7-7h4.7l-3.3,9.4
		c-2,5.6-3.4,7.9-5,9.3c-1.5,1.3-3.2,1.8-4.3,1.9l-0.9-3.8c0.6-0.1,1.3-0.3,1.9-0.8c0.7-0.3,1.4-1,1.8-1.8c0.1-0.2,0.2-0.4,0.2-0.6
		c0-0.1,0-0.4-0.2-0.7l-5.2-13H779.4z"/>
	<path id="XMLID_5_" class="st0" d="M789.6,18.6c0-1.6,1.1-2.7,2.6-2.7c1.5,0,2.6,1.1,2.6,2.7c0,1.5-1,2.7-2.6,2.7
		C790.7,21.3,789.6,20.2,789.6,18.6z"/>
</g>
<g id="XMLID_1_">
	<path id="XMLID_3_" class="st0" d="M3.8,18c0,0,3.5-7.6,16.7-7.6C33.7,10.4,41,5.8,41,5.8s-9.4,9.7-18.6,9.7
		C13.2,15.5,7.6,15.5,3.8,18"/>
	<path id="XMLID_2_" class="st1" d="M0,25.3c0,0,3.5-7.6,16.7-7.6c13.2,0,20.5-4.6,20.5-4.6s-9.4,9.7-18.6,9.7
		C9.4,22.7,3.8,22.7,0,25.3"/>
</g>
</svg>
