<!-- Generator: Adobe Illustrator 22.1.0, SVG Export Plug-In  -->
<svg version="1.1"
	 xmlns="http://www.w3.org/2000/svg" xmlns:xlink="http://www.w3.org/1999/xlink" xmlns:a="http://ns.adobe.com/AdobeSVGViewerExtensions/3.0/"
	 x="0px" y="0px" width="97.8px" height="197.6px" viewBox="0 0 97.8 197.6" style="enable-background:new 0 0 97.8 197.6;"
	 xml:space="preserve">
<style type="text/css">
	.st0{fill:url(#XMLID_16_);}
	.st1{fill:#A6A8AB;}
	.st2{fill:#58595B;}
	.st3{fill:url(#XMLID_17_);}
</style>
<defs>
</defs>
<linearGradient id="XMLID_16_" gradientUnits="userSpaceOnUse" x1="0" y1="80.3283" x2="47.5344" y2="80.3283">
	<stop  offset="0" style="stop-color:#4B257A"/>
	<stop  offset="1" style="stop-color:#954C8D"/>
</linearGradient>
<rect id="XMLID_15_" class="st0" width="47.5" height="160.7"/>
<rect id="XMLID_14_" x="50.3" class="st1" width="47.5" height="54.1"/>
<g id="XMLID_6_">
	<path id="XMLID_11_" class="st2" d="M17.9,175.6v2.9h-2.6v-2.9H7.9v-2.6l7.2-8.8h2.8v8.7h1.8v2.6H17.9z M15.3,167.5
		c-0.1,0.2-0.3,0.4-0.5,0.7c-0.2,0.3-0.4,0.6-0.7,0.9l-1.9,2.4c-0.1,0.1-0.2,0.3-0.3,0.4c-0.1,0.1-0.2,0.3-0.4,0.4s-0.2,0.3-0.3,0.4
		c-0.1,0.1-0.2,0.2-0.3,0.3c0.1,0,0.3,0,0.5,0c0.2,0,0.5,0,0.7,0c0.3,0,0.5,0,0.8,0c0.3,0,0.5,0,0.7,0h1.7v-2.3c0-0.2,0-0.5,0-0.8
		c0-0.3,0-0.6,0-0.9c0-0.3,0-0.6,0-0.9C15.3,167.9,15.3,167.7,15.3,167.5z"/>
	<path id="XMLID_9_" class="st2" d="M31.7,174.1c0,0.8-0.1,1.4-0.4,2c-0.3,0.6-0.7,1.1-1.1,1.4c-0.5,0.4-1.1,0.7-1.8,0.9
		s-1.5,0.3-2.3,0.3c-1,0-2-0.2-2.9-0.7c-0.9-0.4-1.7-1.1-2.5-2.1l2-1.7c0.6,0.6,1.1,1.1,1.7,1.3c0.6,0.3,1.2,0.4,1.9,0.4
		c0.9,0,1.5-0.2,2-0.5s0.6-0.8,0.6-1.3c0-0.6-0.2-1-0.5-1.2c-0.3-0.3-0.8-0.4-1.5-0.4h-1.6v-2.8h1.4c0.6,0,1-0.1,1.2-0.4
		c0.2-0.2,0.4-0.6,0.4-1.1c0-0.2,0-0.4-0.1-0.5c-0.1-0.2-0.2-0.3-0.4-0.5s-0.4-0.2-0.7-0.3c-0.3-0.1-0.6-0.1-1.1-0.1
		c-1,0-1.9,0.4-2.6,1.2l-2-1.9c0.6-0.7,1.3-1.2,2.1-1.6c0.7-0.3,1.6-0.5,2.6-0.5c0.7,0,1.3,0.1,1.9,0.3c0.6,0.2,1.1,0.4,1.6,0.8
		c0.5,0.3,0.8,0.8,1.1,1.3c0.3,0.5,0.4,1.1,0.4,1.8c0,0.8-0.2,1.4-0.5,1.9c-0.3,0.5-0.7,0.8-1.1,1c0.2,0.1,0.5,0.2,0.7,0.4
		c0.2,0.2,0.5,0.4,0.7,0.6s0.4,0.6,0.5,0.9S31.7,173.7,31.7,174.1z"/>
	<path id="XMLID_7_" class="st2" d="M23.3,196.3l-2.4-1.7l0.2,3h-2l0.2-3l-2.4,1.7l-1-1.8l2.7-1.3l-2.7-1.3l1-1.9l2.4,1.7l-0.2-3h2
		l-0.2,3l2.4-1.7l1,1.9l-2.8,1.3l2.8,1.3L23.3,196.3z"/>
</g>
<g id="XMLID_1_">
	<path id="XMLID_4_" class="st2" d="M69.9,71.7V61.4h-2.3v-2.1c0.8,0,1.4-0.2,1.8-0.5c0.5-0.3,0.8-0.7,0.9-1.3h2.2v14.2H69.9z"/>
	<path id="XMLID_2_" class="st2" d="M85,65.1c-0.8,1.9-1.2,4.1-1.2,6.5H81c0-2.3,0.3-4.4,1-6.4c0.7-1.9,1.7-3.7,2.9-5.2h-6.9v-2.7
		h10.1v2.7C86.8,61.6,85.8,63.2,85,65.1z"/>
</g>
</svg>
