<!-- Generator: Adobe Illustrator 22.1.0, SVG Export Plug-In  -->
<svg version="1.1"
	 xmlns="http://www.w3.org/2000/svg" xmlns:xlink="http://www.w3.org/1999/xlink" xmlns:a="http://ns.adobe.com/AdobeSVGViewerExtensions/3.0/"
	 x="0px" y="0px" width="130.9px" height="130px" viewBox="0 0 130.9 130" style="enable-background:new 0 0 130.9 130;"
	 xml:space="preserve">
<style type="text/css">
	.st0{fill:url(#XMLID_85_);}
	.st1{fill:url(#XMLID_86_);}
	.st2{fill:#FFFFFF;}
	.st3{fill:url(#XMLID_87_);}
	.st4{fill:url(#XMLID_88_);}
</style>
<defs>
</defs>
<g id="XMLID_1_">
	<g id="XMLID_82_">
		<linearGradient id="XMLID_85_" gradientUnits="userSpaceOnUse" x1="0" y1="65.0243" x2="130.9353" y2="65.0243">
			<stop  offset="0" style="stop-color:#BBBDBF"/>
			<stop  offset="1.386994e-02" style="stop-color:#C0C1C3"/>
			<stop  offset="0.1127" style="stop-color:#DBDCDD"/>
			<stop  offset="0.2122" style="stop-color:#EFF0F0"/>
			<stop  offset="0.312" style="stop-color:#FBFBFB"/>
			<stop  offset="0.4127" style="stop-color:#FFFFFF"/>
			<stop  offset="0.6981" style="stop-color:#FDFDFD"/>
			<stop  offset="0.8009" style="stop-color:#F6F7F7"/>
			<stop  offset="0.8742" style="stop-color:#EBEBEC"/>
			<stop  offset="0.9334" style="stop-color:#DADBDC"/>
			<stop  offset="0.9836" style="stop-color:#C4C6C7"/>
			<stop  offset="1" style="stop-color:#BBBDBF"/>
		</linearGradient>
		<path id="XMLID_84_" class="st0" d="M130.9,65c0-35.9-29.3-65-65.5-65C29.3,0,0,29.1,0,65c0,35.9,29.3,65,65.5,65
			C101.6,130,130.9,100.9,130.9,65z"/>
		<linearGradient id="XMLID_86_" gradientUnits="userSpaceOnUse" x1="7.2885" y1="65.0238" x2="123.6456" y2="65.0238">
			<stop  offset="0" style="stop-color:#BE1E2D"/>
			<stop  offset="1" style="stop-color:#F5333F"/>
		</linearGradient>
		<path id="XMLID_83_" class="st1" d="M123.6,65c0-31.9-26-57.8-58.2-57.8C33.3,7.2,7.3,33.1,7.3,65c0,31.9,26,57.8,58.2,57.8
			C97.6,122.8,123.6,96.9,123.6,65z"/>
	</g>
	<g id="XMLID_65_">
		<path id="XMLID_79_" class="st2" d="M84.9,64c0,6.4-2.6,10.8-8,10.8c-5.4,0-7.8-4.8-7.8-10.7c0-6,2.6-10.8,8-10.8
			C82.7,53.3,84.9,58.3,84.9,64z M74,64.1c0,4.8,1.1,7,3,7c1.9,0,2.9-2.4,2.9-7.1c0-4.6-1-7-3-7C75.2,57,74,59.3,74,64.1z"/>
		<path id="XMLID_76_" class="st2" d="M47.9,63.4c0,6.4-2.6,10.8-8,10.8c-5.4,0-7.8-4.8-7.8-10.7c0-6,2.6-10.8,8-10.8
			C45.7,52.8,47.9,57.7,47.9,63.4z M37,63.5c0,4.8,1.1,7,3,7c1.9,0,2.9-2.4,2.9-7.1c0-4.6-1-7-3-7C38.2,56.4,37,58.7,37,63.5z"/>
		<path id="XMLID_73_" class="st2" d="M65.8,63.4c0,6.4-2.6,10.8-8,10.8c-5.4,0-7.8-4.8-7.8-10.7c0-6,2.6-10.8,8-10.8
			C63.6,52.8,65.8,57.7,65.8,63.4z M54.9,63.5c0,4.8,1.1,7,3,7c1.9,0,2.9-2.4,2.9-7.1c0-4.6-1-7-3-7C56.1,56.4,54.9,58.7,54.9,63.5z
			"/>
		<path id="XMLID_71_" class="st2" d="M88.3,67.2c0-1.1,0-2.1-0.1-2.9h2.4l0.1,1.2h0.1c0.4-0.6,1.2-1.4,2.8-1.4
			c1.2,0,2.1,0.6,2.5,1.5h0c0.3-0.5,0.8-0.8,1.2-1.1c0.5-0.3,1.1-0.4,1.7-0.4c1.8,0,3.1,1.2,3.1,4v5.4h-2.8v-5
			c0-1.3-0.4-2.1-1.4-2.1c-0.7,0-1.1,0.4-1.3,1c-0.1,0.2-0.1,0.5-0.1,0.7v5.3h-2.8v-5.1c0-1.2-0.4-1.9-1.3-1.9c-0.7,0-1.2,0.6-1.3,1
			c-0.1,0.2-0.1,0.5-0.1,0.7v5.3h-2.8V67.2z"/>
		<path id="XMLID_68_" class="st2" d="M113.3,64.3c0,0.6-0.1,1.3-0.1,2.7v5.1c0,1.8-0.4,3.2-1.4,4.1c-1,0.9-2.4,1.1-3.7,1.1
			c-1.2,0-2.5-0.2-3.3-0.7l0.6-2.1c0.6,0.3,1.6,0.7,2.7,0.7c1.4,0,2.4-0.7,2.4-2.4v-0.6h0c-0.5,0.8-1.4,1.2-2.5,1.2
			c-2.3,0-3.9-1.8-3.9-4.5c0-2.9,1.9-4.8,4.2-4.8c1.3,0,2.1,0.5,2.5,1.3h0l0.1-1.1H113.3z M110.3,68c0-0.2,0-0.4-0.1-0.5
			c-0.2-0.7-0.8-1.3-1.5-1.3c-1,0-1.9,0.9-1.9,2.6c0,1.4,0.7,2.4,1.9,2.4c0.7,0,1.3-0.5,1.5-1.2c0.1-0.2,0.1-0.5,0.1-0.7V68z"/>
		<path id="XMLID_66_" class="st2" d="M22.3,57.7L22.3,57.7l-3.9,1.8l-0.8-3.5l5.3-2.4h3.9v19.7h-4.5V57.7z"/>
	</g>
	<g id="XMLID_2_">
		<g id="XMLID_4_">
			<path id="XMLID_33_" class="st2" d="M27,34.5c0.5,0.3,1.3,0.5,2.2,0.5c0.9,0,1.4-0.4,1.4-0.9c0-0.5-0.4-0.9-1.5-1.2
				c-1.5-0.5-2.4-1.3-2.4-2.6c0-1.5,1.2-2.6,3.3-2.6c1,0,1.7,0.2,2.2,0.4l-0.4,1.6c-0.4-0.2-1-0.4-1.8-0.4s-1.3,0.4-1.3,0.8
				c0,0.6,0.5,0.8,1.6,1.2c1.5,0.6,2.3,1.4,2.3,2.6c0,1.5-1.1,2.7-3.5,2.7c-1,0-2-0.3-2.5-0.5L27,34.5z"/>
			<path id="XMLID_31_" class="st2" d="M36,28.4v1.8h1.4v1.5H36V34c0,0.8,0.2,1.1,0.8,1.1c0.2,0,0.4,0,0.6-0.1l0,1.5
				c-0.3,0.1-0.7,0.2-1.3,0.2c-0.6,0-1.2-0.2-1.5-0.5c-0.4-0.4-0.5-1-0.5-1.9v-2.6h-0.8v-1.5H34v-1.4L36,28.4z"/>
			<path id="XMLID_28_" class="st2" d="M42.1,36.6L42,35.9h0c-0.4,0.5-1.1,0.8-1.8,0.8c-1.3,0-2-0.9-2-1.9c0-1.6,1.5-2.4,3.7-2.4
				v-0.1c0-0.3-0.2-0.8-1.2-0.8c-0.6,0-1.3,0.2-1.8,0.5l-0.4-1.3c0.4-0.2,1.3-0.6,2.5-0.6c2.1,0,2.8,1.2,2.8,2.7V35
				c0,0.6,0,1.2,0.1,1.5H42.1z M41.9,33.6c-1,0-1.8,0.2-1.8,1c0,0.5,0.3,0.8,0.8,0.8c0.5,0,0.9-0.3,1-0.7c0-0.1,0-0.2,0-0.3V33.6z"
				/>
			<path id="XMLID_26_" class="st2" d="M45.4,32.3c0-0.9,0-1.5-0.1-2.1H47l0.1,1.2h0.1c0.3-0.9,1.1-1.3,1.7-1.3c0.2,0,0.3,0,0.4,0
				V32c-0.1,0-0.3-0.1-0.5-0.1c-0.7,0-1.2,0.4-1.3,1c0,0.1,0,0.3,0,0.4v3.2h-2V32.3z"/>
			<path id="XMLID_24_" class="st2" d="M52.8,28.4v1.8h1.4v1.5h-1.4V34c0,0.8,0.2,1.1,0.8,1.1c0.2,0,0.4,0,0.6-0.1l0,1.5
				c-0.3,0.1-0.7,0.2-1.3,0.2c-0.6,0-1.2-0.2-1.5-0.5c-0.4-0.4-0.5-1-0.5-1.9v-2.6H50v-1.5h0.8v-1.4L52.8,28.4z"/>
			<path id="XMLID_21_" class="st2" d="M57.4,28.5c0,0.5-0.4,1-1.1,1c-0.6,0-1-0.4-1-1c0-0.6,0.4-1,1-1C57,27.5,57.4,27.9,57.4,28.5
				z M55.3,36.6v-6.3h2v6.3H55.3z"/>
			<path id="XMLID_19_" class="st2" d="M58.9,32.2c0-0.8,0-1.5-0.1-2h1.7l0.1,0.9h0c0.3-0.4,0.9-1,2-1c1.3,0,2.3,0.9,2.3,2.7v3.8h-2
				V33c0-0.8-0.3-1.4-1-1.4c-0.5,0-0.9,0.4-1,0.7c-0.1,0.1-0.1,0.3-0.1,0.5v3.7h-2V32.2z"/>
			<path id="XMLID_16_" class="st2" d="M72.6,30.2c0,0.4-0.1,0.9-0.1,1.9v3.5c0,1.2-0.2,2.2-1,2.9c-0.7,0.6-1.6,0.8-2.6,0.8
				c-0.8,0-1.7-0.2-2.3-0.5l0.4-1.5c0.4,0.2,1.1,0.5,1.8,0.5c0.9,0,1.6-0.5,1.6-1.7v-0.4h0c-0.4,0.5-1,0.8-1.7,0.8
				c-1.6,0-2.7-1.3-2.7-3.1c0-2,1.3-3.3,2.9-3.3c0.9,0,1.4,0.4,1.7,0.9h0l0.1-0.8H72.6z M70.5,32.8c0-0.1,0-0.3,0-0.4
				c-0.1-0.5-0.5-0.9-1.1-0.9c-0.7,0-1.3,0.6-1.3,1.8c0,0.9,0.5,1.7,1.3,1.7c0.5,0,0.9-0.3,1-0.8c0.1-0.1,0.1-0.4,0.1-0.5V32.8z"/>
			<path id="XMLID_13_" class="st2" d="M76.8,27.9c0.7-0.1,1.7-0.2,2.7-0.2c1.7,0,2.7,0.3,3.6,0.9c0.9,0.7,1.5,1.8,1.5,3.3
				c0,1.7-0.6,2.8-1.5,3.5c-0.9,0.8-2.3,1.1-4,1.1c-1,0-1.8-0.1-2.2-0.1V27.9z M78.8,35.1c0.2,0,0.4,0,0.7,0c1.8,0,3-1,3-3.1
				c0-1.8-1.1-2.8-2.7-2.8c-0.4,0-0.7,0-0.9,0.1V35.1z"/>
			<path id="XMLID_10_" class="st2" d="M92,33.3c0,2.3-1.6,3.4-3.3,3.4c-1.9,0-3.3-1.2-3.3-3.3c0-2,1.3-3.4,3.4-3.4
				C90.7,30.1,92,31.4,92,33.3z M87.4,33.4c0,1.1,0.5,1.9,1.3,1.9c0.8,0,1.3-0.8,1.3-1.9c0-0.9-0.4-1.9-1.3-1.9
				C87.8,31.5,87.4,32.4,87.4,33.4z"/>
			<path id="XMLID_8_" class="st2" d="M93.2,34.8c0.4,0.2,1.1,0.5,1.7,0.5c0.6,0,0.8-0.2,0.8-0.5s-0.2-0.5-0.9-0.7
				c-1.3-0.4-1.8-1.2-1.8-1.9c0-1.2,1-2.1,2.6-2.1c0.7,0,1.4,0.2,1.8,0.4L97,31.8c-0.3-0.2-0.8-0.4-1.4-0.4c-0.5,0-0.8,0.2-0.8,0.5
				c0,0.3,0.2,0.5,1,0.7c1.2,0.4,1.7,1,1.7,2c0,1.2-0.9,2-2.8,2c-0.8,0-1.6-0.2-2-0.4L93.2,34.8z"/>
			<path id="XMLID_5_" class="st2" d="M100.4,34c0.1,0.8,0.9,1.2,1.8,1.2c0.7,0,1.2-0.1,1.8-0.3l0.3,1.3c-0.6,0.3-1.4,0.4-2.3,0.4
				c-2.2,0-3.4-1.2-3.4-3.2c0-1.6,1-3.4,3.2-3.4c2,0,2.8,1.6,2.8,3.2c0,0.3,0,0.6-0.1,0.8H100.4z M102.7,32.7c0-0.5-0.2-1.3-1.1-1.3
				c-0.8,0-1.2,0.8-1.2,1.3H102.7z"/>
		</g>
	</g>
</g>
</svg>
