<!-- Generator: Adobe Illustrator 22.1.0, SVG Export Plug-In  -->
<svg version="1.1"
	 xmlns="http://www.w3.org/2000/svg" xmlns:xlink="http://www.w3.org/1999/xlink" xmlns:a="http://ns.adobe.com/AdobeSVGViewerExtensions/3.0/"
	 x="0px" y="0px" width="97.8px" height="345.3px" viewBox="0 0 97.8 345.3" style="enable-background:new 0 0 97.8 345.3;"
	 xml:space="preserve">
<style type="text/css">
	.st0{fill:#58595B;}
	.st1{fill:url(#XMLID_92_);}
	.st2{fill:#A6A8AB;}
	.st3{fill:url(#XMLID_93_);}
</style>
<defs>
</defs>
<g id="XMLID_69_">
	<path id="XMLID_90_" class="st0" d="M28.9,7.2c0,0.4-0.1,0.8-0.2,1.2S28.4,9,28.1,9.3s-0.6,0.5-1,0.6c-0.4,0.1-0.9,0.2-1.5,0.2
		c-0.7,0-1.3-0.1-1.8-0.4s-1-0.6-1.4-1.1l1-1c0.3,0.3,0.7,0.6,1.1,0.8c0.4,0.2,0.8,0.3,1.3,0.3c1.2,0,1.9-0.5,1.9-1.4
		c0-0.2,0-0.3-0.1-0.5c-0.1-0.1-0.2-0.3-0.3-0.4c-0.2-0.1-0.4-0.2-0.6-0.3c-0.3-0.1-0.6-0.2-1-0.3c-0.5-0.1-0.9-0.3-1.3-0.4
		c-0.4-0.2-0.6-0.3-0.9-0.5c-0.2-0.2-0.4-0.5-0.5-0.7s-0.2-0.6-0.2-1.1c0-0.4,0.1-0.8,0.2-1.1C23,1.5,23.3,1.2,23.5,1
		c0.3-0.2,0.6-0.4,0.9-0.5c0.4-0.1,0.8-0.2,1.2-0.2c0.6,0,1.2,0.1,1.6,0.3c0.5,0.2,0.9,0.5,1.3,1l-1,1C27.4,2.2,27,2,26.7,1.9
		c-0.3-0.1-0.7-0.2-1.2-0.2c-0.5,0-0.9,0.1-1.2,0.4S24,2.5,24,2.8c0,0.2,0,0.3,0.1,0.4c0.1,0.1,0.2,0.3,0.3,0.4
		C24.6,3.7,24.8,3.9,25,4c0.3,0.1,0.6,0.2,1,0.3c0.4,0.1,0.8,0.3,1.2,0.4s0.7,0.3,0.9,0.6s0.4,0.5,0.6,0.8
		C28.8,6.4,28.9,6.8,28.9,7.2z"/>
	<path id="XMLID_87_" class="st0" d="M36.1,6.2c0,0.1,0,0.2,0,0.4c0,0.1,0,0.2,0,0.3h-4.5c0,0.3,0.1,0.6,0.2,0.9
		C31.9,8,32,8.2,32.2,8.3c0.2,0.2,0.3,0.3,0.5,0.4c0.2,0.1,0.4,0.1,0.6,0.1c0.3,0,0.5,0,0.8-0.1c0.2-0.1,0.5-0.2,0.7-0.4l0.8,0.9
		c-0.3,0.3-0.6,0.5-1,0.7c-0.4,0.2-0.8,0.2-1.3,0.2c-0.4,0-0.8-0.1-1.1-0.2s-0.7-0.4-0.9-0.7s-0.5-0.7-0.6-1.2
		c-0.2-0.5-0.2-1-0.2-1.6c0-0.6,0.1-1.1,0.2-1.6c0.1-0.5,0.3-0.8,0.6-1.2C31.4,3.3,31.7,3,32,2.9s0.8-0.2,1.2-0.2
		c0.5,0,0.9,0.1,1.3,0.3s0.7,0.4,0.9,0.8c0.2,0.3,0.4,0.7,0.5,1.1S36.1,5.7,36.1,6.2z M34.8,5.7c0-0.2-0.1-0.5-0.1-0.7
		c-0.1-0.2-0.2-0.4-0.3-0.6S34.1,4.1,33.9,4c-0.2-0.1-0.4-0.1-0.7-0.1c-0.4,0-0.8,0.2-1.1,0.5c-0.3,0.3-0.4,0.8-0.5,1.3H34.8z"/>
	<path id="XMLID_85_" class="st0" d="M42,4.8c-0.3-0.3-0.5-0.5-0.8-0.7C40.9,4,40.6,4,40.3,4c-0.5,0-0.9,0.2-1.2,0.6
		c-0.3,0.4-0.4,1-0.4,1.7c0,0.4,0,0.7,0.1,1c0.1,0.3,0.2,0.5,0.3,0.8c0.1,0.2,0.3,0.4,0.5,0.5c0.2,0.1,0.4,0.2,0.7,0.2
		c0.3,0,0.6-0.1,0.8-0.2s0.5-0.4,0.7-0.7l0.9,0.9c-0.1,0.2-0.3,0.4-0.4,0.5c-0.2,0.2-0.3,0.3-0.5,0.4c-0.2,0.1-0.4,0.2-0.7,0.3
		c-0.2,0.1-0.5,0.1-0.8,0.1c-0.4,0-0.8-0.1-1.2-0.3c-0.4-0.2-0.7-0.4-0.9-0.7c-0.3-0.3-0.5-0.7-0.6-1.2c-0.1-0.5-0.2-1-0.2-1.5
		c0-0.6,0.1-1.1,0.2-1.6c0.2-0.5,0.4-0.9,0.6-1.2c0.3-0.3,0.6-0.6,0.9-0.7c0.4-0.2,0.7-0.3,1.2-0.3c0.5,0,0.9,0.1,1.3,0.3
		c0.4,0.2,0.7,0.5,1.1,0.9L42,4.8z"/>
	<path id="XMLID_82_" class="st0" d="M50,6.3c0,0.6-0.1,1.1-0.2,1.6c-0.2,0.5-0.4,0.9-0.6,1.2c-0.3,0.3-0.6,0.6-1,0.7
		s-0.8,0.3-1.2,0.3c-0.4,0-0.8-0.1-1.2-0.3c-0.4-0.2-0.7-0.4-0.9-0.8c-0.3-0.3-0.5-0.7-0.6-1.2c-0.2-0.5-0.2-1-0.2-1.5
		c0-0.6,0.1-1.1,0.2-1.6c0.2-0.5,0.4-0.9,0.6-1.2c0.3-0.3,0.6-0.6,1-0.7c0.4-0.2,0.8-0.3,1.2-0.3s0.8,0.1,1.2,0.3
		c0.4,0.2,0.7,0.4,1,0.7c0.3,0.3,0.5,0.7,0.6,1.2C49.9,5.2,50,5.8,50,6.3z M48.6,6.3c0-0.7-0.2-1.3-0.5-1.7C47.9,4.2,47.5,4,46.9,4
		c-0.5,0-0.9,0.2-1.2,0.6c-0.3,0.4-0.4,1-0.4,1.7c0,0.8,0.2,1.4,0.5,1.8c0.3,0.4,0.7,0.6,1.2,0.6c0.3,0,0.5-0.1,0.7-0.2
		C47.9,8.4,48,8.2,48.2,8c0.1-0.2,0.3-0.5,0.3-0.8S48.6,6.7,48.6,6.3z"/>
	<path id="XMLID_80_" class="st0" d="M55.7,9.9v-4c0-0.7-0.1-1.2-0.4-1.5c-0.2-0.3-0.6-0.4-1-0.4c-0.4,0-0.8,0.2-1,0.5
		C53.1,4.7,53,5.2,53,5.7v4.2h-1.3V2.8H53v0.7c0.2-0.3,0.4-0.5,0.7-0.6c0.3-0.1,0.6-0.2,1-0.2c0.8,0,1.4,0.3,1.8,0.8
		s0.6,1.3,0.6,2.4v4.1H55.7z"/>
	<path id="XMLID_77_" class="st0" d="M63.1,9.9V9.2c-0.2,0.2-0.5,0.4-0.8,0.6c-0.3,0.2-0.6,0.2-1,0.2s-0.7-0.1-1-0.2
		c-0.3-0.1-0.6-0.4-0.8-0.7C59.2,8.9,59,8.5,58.9,8c-0.1-0.5-0.2-1.1-0.2-1.7c0-0.6,0.1-1.1,0.2-1.6c0.1-0.5,0.3-0.8,0.6-1.1
		C59.7,3.2,60,3,60.3,2.8s0.7-0.2,1-0.2c0.3,0,0.7,0.1,1,0.2c0.3,0.2,0.5,0.4,0.7,0.6V0.7L64.4,0v9.9H63.1z M63.1,4.9
		c-0.1-0.1-0.2-0.2-0.3-0.3c-0.1-0.1-0.2-0.2-0.4-0.3C62.3,4.1,62.1,4.1,62,4s-0.3-0.1-0.5-0.1c-0.5,0-0.8,0.2-1.1,0.6
		C60.1,4.9,60,5.4,60,6.2c0,0.9,0.1,1.6,0.4,2c0.3,0.4,0.6,0.6,1.1,0.6c0.3,0,0.6-0.1,0.9-0.3c0.3-0.2,0.5-0.4,0.7-0.6V4.9z"/>
	<path id="XMLID_74_" class="st0" d="M70.2,9.9V9.2c-0.2,0.2-0.5,0.4-0.8,0.6s-0.7,0.2-1,0.2c-0.3,0-0.6,0-0.8-0.1S67,9.7,66.8,9.5
		c-0.2-0.2-0.4-0.4-0.5-0.7S66,8.1,66,7.7c0-0.4,0.1-0.7,0.2-1c0.1-0.3,0.3-0.5,0.6-0.7c0.2-0.2,0.5-0.3,0.9-0.4
		c0.3-0.1,0.7-0.1,1.1-0.1c0.6,0,1.1,0.1,1.5,0.3V5.1c0-0.4-0.1-0.7-0.3-0.9c-0.2-0.2-0.5-0.3-0.9-0.3c-0.4,0-0.7,0-0.9,0.1
		c-0.3,0.1-0.6,0.2-0.8,0.3l-0.5-1.1c0.3-0.2,0.7-0.4,1-0.5c0.4-0.1,0.8-0.2,1.3-0.2c0.8,0,1.4,0.2,1.8,0.6c0.5,0.4,0.7,1,0.7,1.8
		v4.9H70.2z M70.2,6.9c-0.2-0.1-0.4-0.2-0.6-0.2c-0.2-0.1-0.5-0.1-0.9-0.1c-0.4,0-0.8,0.1-1,0.3s-0.4,0.4-0.4,0.8
		c0,0.4,0.1,0.6,0.3,0.9c0.2,0.2,0.5,0.3,1,0.3c0.4,0,0.7-0.1,1-0.3c0.3-0.2,0.5-0.4,0.7-0.6V6.9z"/>
	<path id="XMLID_72_" class="st0" d="M77.1,4.3c-0.1-0.1-0.3-0.1-0.5-0.2S76.3,4,76.1,4c-0.4,0-0.7,0.2-1,0.5
		c-0.2,0.3-0.3,0.8-0.3,1.4v4.1h-1.3V2.8h1.3v0.7c0.2-0.2,0.4-0.4,0.6-0.6c0.3-0.2,0.6-0.2,0.9-0.2c0.3,0,0.5,0,0.7,0.1
		c0.2,0.1,0.3,0.1,0.5,0.2L77.1,4.3z"/>
	<path id="XMLID_70_" class="st0" d="M81.2,12.4h-1.4l1-2.7l-2.5-7h1.5l1.1,3.5C80.9,6.4,81,6.6,81,6.8c0.1,0.2,0.1,0.4,0.2,0.6
		c0.1,0.2,0.1,0.4,0.2,0.6c0,0.2,0.1,0.3,0.1,0.4c0-0.1,0.1-0.2,0.1-0.4c0-0.2,0.1-0.3,0.2-0.5c0.1-0.2,0.1-0.4,0.2-0.6
		C81.9,6.6,82,6.4,82,6.3l1.1-3.5h1.4L81.2,12.4z"/>
</g>
<g id="XMLID_39_">
	<path id="XMLID_66_" class="st0" d="M25.4,25.5c0,0.5-0.1,1-0.2,1.4c-0.1,0.4-0.3,0.7-0.5,1c-0.2,0.3-0.6,0.5-1,0.6
		c-0.4,0.1-0.9,0.2-1.5,0.2l-0.5-1.1c0.5,0,0.9-0.1,1.2-0.2c0.3-0.1,0.5-0.2,0.7-0.4c0.2-0.2,0.3-0.4,0.3-0.6C24,26.3,24,26,24,25.7
		v-0.1c-0.3,0.2-0.5,0.4-0.8,0.6c-0.3,0.2-0.6,0.2-1,0.2s-0.7-0.1-1-0.2c-0.3-0.1-0.6-0.4-0.8-0.7s-0.4-0.7-0.6-1.2
		c-0.1-0.5-0.2-1.1-0.2-1.7c0-0.6,0.1-1.1,0.2-1.6c0.1-0.5,0.3-0.8,0.6-1.1c0.2-0.3,0.5-0.5,0.9-0.7s0.7-0.2,1-0.2
		c0.3,0,0.7,0.1,1,0.2c0.3,0.2,0.5,0.4,0.7,0.6v-0.7h1.3V25.5z M24.1,21.2c-0.1-0.1-0.2-0.2-0.3-0.3c-0.1-0.1-0.2-0.2-0.4-0.3
		c-0.1-0.1-0.3-0.2-0.4-0.2s-0.3-0.1-0.5-0.1c-0.5,0-0.8,0.2-1.1,0.6c-0.2,0.4-0.4,0.9-0.4,1.7c0,0.9,0.1,1.6,0.4,2
		c0.3,0.4,0.6,0.6,1.1,0.6c0.3,0,0.6-0.1,0.9-0.3c0.3-0.2,0.5-0.4,0.7-0.6V21.2z"/>
	<path id="XMLID_63_" class="st0" d="M32.8,22.5c0,0.1,0,0.2,0,0.4c0,0.1,0,0.2,0,0.3h-4.5c0,0.3,0.1,0.6,0.2,0.9
		c0.1,0.2,0.2,0.4,0.4,0.6c0.2,0.2,0.3,0.3,0.5,0.4c0.2,0.1,0.4,0.1,0.6,0.1c0.3,0,0.5,0,0.8-0.1c0.2-0.1,0.5-0.2,0.7-0.4l0.8,0.9
		c-0.3,0.3-0.6,0.5-1,0.7c-0.4,0.2-0.8,0.2-1.3,0.2c-0.4,0-0.8-0.1-1.1-0.2s-0.7-0.4-0.9-0.7s-0.5-0.7-0.6-1.2
		c-0.2-0.5-0.2-1-0.2-1.6c0-0.6,0.1-1.1,0.2-1.6c0.1-0.5,0.3-0.8,0.6-1.2c0.3-0.3,0.6-0.6,0.9-0.7s0.8-0.2,1.2-0.2
		c0.5,0,0.9,0.1,1.3,0.3s0.7,0.4,0.9,0.8c0.2,0.3,0.4,0.7,0.5,1.1S32.8,22,32.8,22.5z M31.5,22c0-0.2-0.1-0.5-0.1-0.7
		c-0.1-0.2-0.2-0.4-0.3-0.6s-0.3-0.3-0.5-0.4c-0.2-0.1-0.4-0.1-0.7-0.1c-0.4,0-0.8,0.2-1.1,0.5c-0.3,0.3-0.4,0.8-0.5,1.3H31.5z"/>
	<path id="XMLID_61_" class="st0" d="M38.6,26.2v-4c0-0.7-0.1-1.2-0.4-1.5c-0.2-0.3-0.6-0.4-1-0.4c-0.4,0-0.8,0.2-1,0.5
		c-0.2,0.3-0.4,0.8-0.4,1.3v4.2h-1.3v-7.1h1.3v0.7c0.2-0.3,0.4-0.5,0.7-0.6c0.3-0.1,0.6-0.2,1-0.2c0.8,0,1.4,0.3,1.8,0.8
		s0.6,1.3,0.6,2.4v4.1H38.6z"/>
	<path id="XMLID_58_" class="st0" d="M47.3,22.5c0,0.1,0,0.2,0,0.4c0,0.1,0,0.2,0,0.3h-4.5c0,0.3,0.1,0.6,0.2,0.9
		c0.1,0.2,0.2,0.4,0.4,0.6c0.2,0.2,0.3,0.3,0.5,0.4c0.2,0.1,0.4,0.1,0.6,0.1c0.3,0,0.5,0,0.8-0.1c0.2-0.1,0.5-0.2,0.7-0.4l0.8,0.9
		c-0.3,0.3-0.6,0.5-1,0.7c-0.4,0.2-0.8,0.2-1.3,0.2c-0.4,0-0.8-0.1-1.1-0.2s-0.7-0.4-0.9-0.7s-0.5-0.7-0.6-1.2
		c-0.2-0.5-0.2-1-0.2-1.6c0-0.6,0.1-1.1,0.2-1.6c0.1-0.5,0.3-0.8,0.6-1.2c0.3-0.3,0.6-0.6,0.9-0.7s0.8-0.2,1.2-0.2
		c0.5,0,0.9,0.1,1.3,0.3s0.7,0.4,0.9,0.8c0.2,0.3,0.4,0.7,0.5,1.1S47.3,22,47.3,22.5z M46,22c0-0.2-0.1-0.5-0.1-0.7
		c-0.1-0.2-0.2-0.4-0.3-0.6s-0.3-0.3-0.5-0.4c-0.2-0.1-0.4-0.1-0.7-0.1c-0.4,0-0.8,0.2-1.1,0.5c-0.3,0.3-0.4,0.8-0.5,1.3H46z"/>
	<path id="XMLID_56_" class="st0" d="M52.7,20.6c-0.1-0.1-0.3-0.1-0.5-0.2c-0.2,0-0.3-0.1-0.6-0.1c-0.4,0-0.7,0.2-1,0.5
		c-0.2,0.3-0.3,0.8-0.3,1.4v4.1H49v-7.1h1.3v0.7c0.2-0.2,0.4-0.4,0.6-0.6c0.3-0.2,0.6-0.2,0.9-0.2c0.3,0,0.5,0,0.7,0.1
		c0.2,0.1,0.3,0.1,0.5,0.2L52.7,20.6z"/>
	<path id="XMLID_53_" class="st0" d="M57.8,26.2v-0.7c-0.2,0.2-0.5,0.4-0.8,0.6s-0.7,0.2-1,0.2c-0.3,0-0.6,0-0.8-0.1
		s-0.5-0.2-0.8-0.4c-0.2-0.2-0.4-0.4-0.5-0.7s-0.2-0.7-0.2-1.1c0-0.4,0.1-0.7,0.2-1c0.1-0.3,0.3-0.5,0.6-0.7
		c0.2-0.2,0.5-0.3,0.9-0.4c0.3-0.1,0.7-0.1,1.1-0.1c0.6,0,1.1,0.1,1.5,0.3v-0.5c0-0.4-0.1-0.7-0.3-0.9c-0.2-0.2-0.5-0.3-0.9-0.3
		c-0.4,0-0.7,0-0.9,0.1c-0.3,0.1-0.6,0.2-0.8,0.3l-0.5-1.1c0.3-0.2,0.7-0.4,1-0.5c0.4-0.1,0.8-0.2,1.3-0.2c0.8,0,1.4,0.2,1.8,0.6
		c0.5,0.4,0.7,1,0.7,1.8v4.9H57.8z M57.8,23.2c-0.2-0.1-0.4-0.2-0.6-0.2c-0.2-0.1-0.5-0.1-0.9-0.1c-0.4,0-0.8,0.1-1,0.3
		s-0.4,0.4-0.4,0.8c0,0.4,0.1,0.6,0.3,0.9c0.2,0.2,0.5,0.3,1,0.3c0.4,0,0.7-0.1,1-0.3c0.3-0.2,0.5-0.4,0.7-0.6V23.2z"/>
	<path id="XMLID_51_" class="st0" d="M61.1,26.2V17l1.3-0.7v9.9H61.1z"/>
	<path id="XMLID_48_" class="st0" d="M66,17.3c0,0.2-0.1,0.5-0.3,0.6s-0.4,0.3-0.6,0.3c-0.2,0-0.4-0.1-0.6-0.3
		c-0.2-0.2-0.3-0.4-0.3-0.6c0-0.3,0.1-0.5,0.3-0.6c0.2-0.2,0.4-0.3,0.6-0.3c0.2,0,0.4,0.1,0.6,0.3S66,17,66,17.3z M64.5,26.2v-7.1
		h1.3v7.1H64.5z"/>
	<path id="XMLID_46_" class="st0" d="M67.6,26.2v-1.1l2.9-3.7c0.1-0.2,0.3-0.4,0.4-0.6c0.2-0.2,0.3-0.4,0.4-0.5c-0.1,0-0.1,0-0.2,0
		c-0.1,0-0.2,0-0.3,0s-0.2,0-0.3,0s-0.2,0-0.3,0h-2.2v-1.2h5v1.1L70,23.9c-0.1,0.2-0.3,0.4-0.4,0.6c-0.2,0.2-0.3,0.4-0.4,0.5
		c0.1,0,0.1,0,0.3,0c0.1,0,0.2,0,0.3,0s0.2,0,0.3,0s0.2,0,0.3,0h2.4v1.2H67.6z"/>
	<path id="XMLID_43_" class="st0" d="M80,22.5c0,0.1,0,0.2,0,0.4c0,0.1,0,0.2,0,0.3h-4.5c0,0.3,0.1,0.6,0.2,0.9
		c0.1,0.2,0.2,0.4,0.4,0.6c0.2,0.2,0.3,0.3,0.5,0.4c0.2,0.1,0.4,0.1,0.6,0.1c0.3,0,0.5,0,0.8-0.1c0.2-0.1,0.5-0.2,0.7-0.4l0.8,0.9
		c-0.3,0.3-0.6,0.5-1,0.7c-0.4,0.2-0.8,0.2-1.3,0.2c-0.4,0-0.8-0.1-1.1-0.2s-0.7-0.4-0.9-0.7s-0.5-0.7-0.6-1.2
		c-0.2-0.5-0.2-1-0.2-1.6c0-0.6,0.1-1.1,0.2-1.6c0.1-0.5,0.3-0.8,0.6-1.2c0.3-0.3,0.6-0.6,0.9-0.7s0.8-0.2,1.2-0.2
		c0.5,0,0.9,0.1,1.3,0.3s0.7,0.4,0.9,0.8c0.2,0.3,0.4,0.7,0.5,1.1S80,22,80,22.5z M78.7,22c0-0.2-0.1-0.5-0.1-0.7
		c-0.1-0.2-0.2-0.4-0.3-0.6s-0.3-0.3-0.5-0.4c-0.2-0.1-0.4-0.1-0.7-0.1c-0.4,0-0.8,0.2-1.1,0.5c-0.3,0.3-0.4,0.8-0.5,1.3H78.7z"/>
	<path id="XMLID_40_" class="st0" d="M85.8,26.2v-0.7c-0.2,0.2-0.5,0.4-0.8,0.6c-0.3,0.2-0.6,0.2-1,0.2s-0.7-0.1-1-0.2
		c-0.3-0.1-0.6-0.4-0.8-0.7c-0.2-0.3-0.4-0.7-0.6-1.2c-0.1-0.5-0.2-1.1-0.2-1.7c0-0.6,0.1-1.1,0.2-1.6c0.1-0.5,0.3-0.8,0.6-1.1
		c0.2-0.3,0.5-0.5,0.9-0.7s0.7-0.2,1-0.2c0.3,0,0.7,0.1,1,0.2c0.3,0.2,0.5,0.4,0.7,0.6V17l1.3-0.7v9.9H85.8z M85.8,21.2
		c-0.1-0.1-0.2-0.2-0.3-0.3c-0.1-0.1-0.2-0.2-0.4-0.3c-0.1-0.1-0.3-0.2-0.4-0.2s-0.3-0.1-0.5-0.1c-0.5,0-0.8,0.2-1.1,0.6
		c-0.2,0.4-0.4,0.9-0.4,1.7c0,0.9,0.1,1.6,0.4,2c0.3,0.4,0.6,0.6,1.1,0.6c0.3,0,0.6-0.1,0.9-0.3c0.3-0.2,0.5-0.4,0.7-0.6V21.2z"/>
</g>
<g id="XMLID_19_">
	<path id="XMLID_37_" class="st0" d="M34.3,40.6c0,0.4-0.1,0.7-0.2,1c-0.1,0.3-0.3,0.5-0.6,0.6c-0.2,0.2-0.5,0.3-0.8,0.4
		c-0.3,0.1-0.6,0.1-1,0.1c-0.5,0-0.9-0.1-1.4-0.3c-0.5-0.2-0.9-0.4-1.2-0.7l0.6-1.1c0.3,0.2,0.6,0.4,1,0.5c0.3,0.1,0.7,0.2,1,0.2
		c0.8,0,1.2-0.3,1.2-0.8c0-0.3-0.1-0.5-0.4-0.7c-0.3-0.2-0.7-0.3-1.2-0.5c-0.4-0.1-0.7-0.3-0.9-0.4c-0.3-0.1-0.5-0.3-0.6-0.5
		c-0.2-0.2-0.3-0.4-0.3-0.6s-0.1-0.5-0.1-0.7c0-0.3,0.1-0.6,0.2-0.8s0.3-0.4,0.5-0.6c0.2-0.2,0.4-0.3,0.7-0.4s0.6-0.1,0.9-0.1
		c0.4,0,0.8,0.1,1.2,0.2c0.4,0.1,0.8,0.3,1.1,0.6l-0.6,1.1c-0.3-0.2-0.6-0.4-0.8-0.5c-0.3-0.1-0.6-0.1-0.9-0.1
		c-0.3,0-0.6,0.1-0.7,0.2c-0.1,0.1-0.2,0.3-0.2,0.5c0,0.1,0,0.2,0.1,0.3c0,0.1,0.1,0.2,0.2,0.2s0.2,0.2,0.4,0.3
		c0.2,0.1,0.4,0.2,0.6,0.3c0.4,0.2,0.7,0.3,1,0.4c0.3,0.1,0.5,0.3,0.7,0.5c0.2,0.2,0.3,0.4,0.4,0.6C34.3,40,34.3,40.2,34.3,40.6z"/>
	<path id="XMLID_34_" class="st0" d="M41.4,38.8c0,0.1,0,0.2,0,0.4c0,0.1,0,0.2,0,0.3h-4.5c0,0.3,0.1,0.6,0.2,0.9
		c0.1,0.2,0.2,0.4,0.4,0.6c0.2,0.2,0.3,0.3,0.5,0.4c0.2,0.1,0.4,0.1,0.6,0.1c0.3,0,0.5,0,0.8-0.1c0.2-0.1,0.5-0.2,0.7-0.4l0.8,0.9
		c-0.3,0.3-0.6,0.5-1,0.7c-0.4,0.2-0.8,0.2-1.3,0.2c-0.4,0-0.8-0.1-1.1-0.2s-0.7-0.4-0.9-0.7S36,41,35.8,40.5
		c-0.2-0.5-0.2-1-0.2-1.6c0-0.6,0.1-1.1,0.2-1.6c0.1-0.5,0.3-0.8,0.6-1.2c0.3-0.3,0.6-0.6,0.9-0.7s0.8-0.2,1.2-0.2
		c0.5,0,0.9,0.1,1.3,0.3s0.7,0.4,0.9,0.8c0.2,0.3,0.4,0.7,0.5,1.1S41.4,38.3,41.4,38.8z M40.1,38.3c0-0.2-0.1-0.5-0.1-0.7
		c-0.1-0.2-0.2-0.4-0.3-0.6s-0.3-0.3-0.5-0.4c-0.2-0.1-0.4-0.1-0.7-0.1c-0.4,0-0.8,0.2-1.1,0.5c-0.3,0.3-0.4,0.8-0.5,1.3H40.1z"/>
	<path id="XMLID_31_" class="st0" d="M44.7,33.6c0,0.2-0.1,0.5-0.3,0.6s-0.4,0.3-0.6,0.3c-0.2,0-0.4-0.1-0.6-0.3
		c-0.2-0.2-0.3-0.4-0.3-0.6c0-0.3,0.1-0.5,0.3-0.6c0.2-0.2,0.4-0.3,0.6-0.3c0.2,0,0.4,0.1,0.6,0.3S44.7,33.3,44.7,33.6z M43.1,42.5
		v-7.1h1.3v7.1H43.1z"/>
	<path id="XMLID_29_" class="st0" d="M46.3,42.5v-1.1l2.9-3.7c0.1-0.2,0.3-0.4,0.4-0.6c0.2-0.2,0.3-0.4,0.4-0.5c-0.1,0-0.1,0-0.2,0
		c-0.1,0-0.2,0-0.3,0s-0.2,0-0.3,0s-0.2,0-0.3,0h-2.2v-1.2h5v1.1l-2.8,3.7c-0.1,0.2-0.3,0.4-0.4,0.6c-0.2,0.2-0.3,0.4-0.4,0.5
		c0.1,0,0.1,0,0.3,0c0.1,0,0.2,0,0.3,0s0.2,0,0.3,0s0.2,0,0.3,0h2.4v1.2H46.3z"/>
	<path id="XMLID_27_" class="st0" d="M57.2,42.5v-0.7c-0.2,0.3-0.4,0.5-0.7,0.6c-0.3,0.1-0.6,0.2-1,0.2c-0.8,0-1.4-0.3-1.8-0.8
		s-0.6-1.3-0.6-2.4v-4.1h1.3v4c0,0.7,0.1,1.2,0.4,1.5c0.2,0.3,0.6,0.4,1,0.4c0.4,0,0.8-0.2,1-0.5c0.2-0.3,0.4-0.8,0.4-1.3v-4.2h1.3
		v7.1H57.2z"/>
	<path id="XMLID_25_" class="st0" d="M64.2,36.9c-0.1-0.1-0.3-0.1-0.5-0.2s-0.3-0.1-0.6-0.1c-0.4,0-0.7,0.2-1,0.5
		c-0.2,0.3-0.3,0.8-0.3,1.4v4.1h-1.3v-7.1h1.3v0.7c0.2-0.2,0.4-0.4,0.6-0.6c0.3-0.2,0.6-0.2,0.9-0.2c0.3,0,0.5,0,0.7,0.1
		c0.2,0.1,0.3,0.1,0.5,0.2L64.2,36.9z"/>
	<path id="XMLID_22_" class="st0" d="M71.1,38.8c0,0.1,0,0.2,0,0.4c0,0.1,0,0.2,0,0.3h-4.5c0,0.3,0.1,0.6,0.2,0.9
		c0.1,0.2,0.2,0.4,0.4,0.6c0.2,0.2,0.3,0.3,0.5,0.4c0.2,0.1,0.4,0.1,0.6,0.1c0.3,0,0.5,0,0.8-0.1c0.2-0.1,0.5-0.2,0.7-0.4l0.8,0.9
		c-0.3,0.3-0.6,0.5-1,0.7c-0.4,0.2-0.8,0.2-1.3,0.2c-0.4,0-0.8-0.1-1.1-0.2s-0.7-0.4-0.9-0.7s-0.5-0.7-0.6-1.2
		c-0.2-0.5-0.2-1-0.2-1.6c0-0.6,0.1-1.1,0.2-1.6c0.1-0.5,0.3-0.8,0.6-1.2c0.3-0.3,0.6-0.6,0.9-0.7s0.8-0.2,1.2-0.2
		c0.5,0,0.9,0.1,1.3,0.3s0.7,0.4,0.9,0.8c0.2,0.3,0.4,0.7,0.5,1.1S71.1,38.3,71.1,38.8z M69.8,38.3c0-0.2-0.1-0.5-0.1-0.7
		c-0.1-0.2-0.2-0.4-0.3-0.6s-0.3-0.3-0.5-0.4c-0.2-0.1-0.4-0.1-0.7-0.1c-0.4,0-0.8,0.2-1.1,0.5c-0.3,0.3-0.4,0.8-0.5,1.3H69.8z"/>
	<path id="XMLID_20_" class="st0" d="M77.4,40.6c0,0.4-0.1,0.7-0.2,1c-0.1,0.3-0.3,0.5-0.6,0.6c-0.2,0.2-0.5,0.3-0.8,0.4
		c-0.3,0.1-0.6,0.1-1,0.1c-0.5,0-0.9-0.1-1.4-0.3c-0.5-0.2-0.9-0.4-1.2-0.7l0.6-1.1c0.3,0.2,0.6,0.4,1,0.5c0.3,0.1,0.7,0.2,1,0.2
		c0.8,0,1.2-0.3,1.2-0.8c0-0.3-0.1-0.5-0.4-0.7c-0.3-0.2-0.7-0.3-1.2-0.5c-0.4-0.1-0.7-0.3-0.9-0.4c-0.3-0.1-0.5-0.3-0.6-0.5
		c-0.2-0.2-0.3-0.4-0.3-0.6s-0.1-0.5-0.1-0.7c0-0.3,0.1-0.6,0.2-0.8s0.3-0.4,0.5-0.6c0.2-0.2,0.4-0.3,0.7-0.4s0.6-0.1,0.9-0.1
		c0.4,0,0.8,0.1,1.2,0.2c0.4,0.1,0.8,0.3,1.1,0.6l-0.6,1.1c-0.3-0.2-0.6-0.4-0.8-0.5c-0.3-0.1-0.6-0.1-0.9-0.1
		c-0.3,0-0.6,0.1-0.7,0.2c-0.1,0.1-0.2,0.3-0.2,0.5c0,0.1,0,0.2,0.1,0.3c0,0.1,0.1,0.2,0.2,0.2s0.2,0.2,0.4,0.3
		c0.2,0.1,0.4,0.2,0.6,0.3c0.4,0.2,0.7,0.3,1,0.4c0.3,0.1,0.5,0.3,0.7,0.5c0.2,0.2,0.3,0.4,0.4,0.6C77.3,40,77.4,40.2,77.4,40.6z"/>
</g>
<linearGradient id="XMLID_92_" gradientUnits="userSpaceOnUse" x1="0" y1="179.1287" x2="47.535" y2="179.1287">
	<stop  offset="0" style="stop-color:#4B257A"/>
	<stop  offset="1" style="stop-color:#954C8D"/>
</linearGradient>
<rect id="XMLID_18_" y="51.2" class="st1" width="47.5" height="255.9"/>
<rect id="XMLID_17_" x="50.3" y="51.2" class="st2" width="47.5" height="88.6"/>
<g id="XMLID_6_">
	<path id="XMLID_14_" class="st0" d="M21.2,321.5c0,0.8-0.1,1.5-0.4,2.1c-0.3,0.6-0.7,1.1-1.2,1.5c-0.5,0.4-1.1,0.7-1.8,0.9
		s-1.4,0.3-2.2,0.3c-0.8,0-1.5-0.1-2.1-0.3c-0.6-0.2-1.2-0.6-1.7-1s-0.9-1.1-1.1-1.8s-0.4-1.6-0.4-2.6c0-0.6,0.1-1.3,0.2-2
		c0.1-0.7,0.3-1.4,0.6-2c0.3-0.7,0.7-1.3,1.1-1.9s1-1.1,1.7-1.6c0.7-0.5,1.5-0.8,2.4-1.1c0.9-0.3,1.9-0.4,3.1-0.4v2.8
		c-1.6,0-2.8,0.3-3.8,0.8c-1,0.6-1.7,1.4-2.1,2.5c0.4-0.3,0.9-0.5,1.4-0.7s1-0.2,1.7-0.2c0.7,0,1.3,0.1,1.9,0.3
		c0.6,0.2,1.1,0.5,1.5,0.8c0.4,0.4,0.8,0.9,1,1.4C21.1,320.1,21.2,320.7,21.2,321.5z M18.5,321.6c0-0.7-0.2-1.3-0.7-1.6
		s-1.1-0.5-2-0.5c-0.9,0-1.6,0.2-2.1,0.5c-0.5,0.3-0.7,0.9-0.7,1.6c0,0.7,0.2,1.2,0.7,1.6c0.5,0.4,1.1,0.6,2,0.6
		c0.9,0,1.6-0.2,2.1-0.6S18.5,322.3,18.5,321.6z"/>
	<path id="XMLID_11_" class="st0" d="M34,317.5c0,0.6-0.1,1.3-0.2,2c-0.1,0.7-0.3,1.4-0.6,2c-0.3,0.7-0.7,1.3-1.1,1.9
		c-0.5,0.6-1,1.1-1.7,1.6s-1.5,0.8-2.4,1.1c-0.9,0.3-1.9,0.4-3.1,0.4v-2.8c1.6,0,2.8-0.3,3.8-0.8s1.7-1.4,2.1-2.5
		c-0.4,0.3-0.9,0.5-1.4,0.7c-0.5,0.1-1,0.2-1.7,0.2c-0.7,0-1.3-0.1-1.9-0.3c-0.6-0.2-1.1-0.5-1.5-0.8c-0.4-0.4-0.8-0.9-1-1.4
		s-0.4-1.3-0.4-2c0-0.8,0.1-1.5,0.4-2.1c0.3-0.6,0.7-1.1,1.2-1.5c0.5-0.4,1.1-0.7,1.8-0.9c0.7-0.2,1.4-0.3,2.2-0.3
		c0.7,0,1.4,0.1,2.1,0.3c0.7,0.2,1.2,0.6,1.7,1s0.9,1.1,1.1,1.8S34,316.5,34,317.5z M31.2,316.5c0-0.7-0.2-1.2-0.7-1.6
		c-0.5-0.4-1.1-0.6-2-0.6c-0.9,0-1.6,0.2-2.1,0.6c-0.5,0.4-0.7,0.9-0.7,1.6c0,0.7,0.2,1.3,0.7,1.6c0.5,0.3,1.1,0.5,2,0.5
		c0.9,0,1.6-0.2,2.1-0.5C30.9,317.8,31.2,317.2,31.2,316.5z"/>
	<path id="XMLID_9_" class="st0" d="M20.4,344l-2.4-1.7l0.2,3h-2l0.2-3L14,344l-1-1.8l2.7-1.3l-2.7-1.3l1-1.9l2.4,1.7l-0.2-3h2
		l-0.2,3l2.4-1.7l1,1.9l-2.8,1.3l2.8,1.3L20.4,344z"/>
	<path id="XMLID_7_" class="st0" d="M30.1,344l-2.4-1.7l0.2,3h-2l0.2-3l-2.4,1.7l-1-1.8l2.7-1.3l-2.7-1.3l1-1.9l2.4,1.7l-0.2-3h2
		l-0.2,3l2.4-1.7l1,1.9l-2.8,1.3l2.8,1.3L30.1,344z"/>
</g>
<g id="XMLID_1_">
	<path id="XMLID_4_" class="st0" d="M62.7,164c0-1.2,0.2-2.3,0.5-3.2c0.3-0.9,0.8-1.7,1.4-2.3c0.6-0.7,1.2-1.2,2-1.7
		c0.7-0.5,1.5-0.9,2.4-1.3c0.6-0.3,1-0.5,1.2-0.8c0.2-0.3,0.3-0.6,0.3-0.9c0-0.4-0.2-0.7-0.5-1c-0.3-0.3-0.9-0.4-1.7-0.4
		s-1.5,0.2-2.2,0.5c-0.6,0.3-1.2,0.7-1.7,1.2l-1.7-2.1c0.7-0.8,1.5-1.4,2.5-1.8c0.9-0.4,1.9-0.6,3-0.6c1.6,0,2.8,0.3,3.7,1
		c0.9,0.7,1.3,1.7,1.3,3.1c0,0.6-0.1,1.1-0.2,1.5c-0.1,0.4-0.4,0.8-0.7,1.1s-0.7,0.6-1.1,0.9c-0.4,0.3-0.9,0.6-1.5,0.8
		c-0.6,0.3-1.1,0.6-1.5,0.8s-0.8,0.5-1.1,0.8c-0.3,0.3-0.5,0.5-0.7,0.8c-0.2,0.3-0.3,0.5-0.3,0.8h7.2v2.7H62.7z"/>
	<path id="XMLID_2_" class="st0" d="M86,159.6c0,0.8-0.1,1.4-0.4,2c-0.3,0.6-0.7,1.1-1.1,1.4c-0.5,0.4-1.1,0.7-1.8,0.9
		s-1.5,0.3-2.3,0.3c-1,0-2-0.2-2.9-0.7c-0.9-0.4-1.7-1.1-2.5-2.1l2-1.7c0.6,0.6,1.1,1.1,1.7,1.3c0.6,0.3,1.2,0.4,1.9,0.4
		c0.9,0,1.5-0.2,2-0.5s0.6-0.8,0.6-1.3c0-0.6-0.2-1-0.5-1.2c-0.3-0.3-0.8-0.4-1.5-0.4h-1.6v-2.8h1.4c0.6,0,1-0.1,1.2-0.4
		c0.2-0.2,0.4-0.6,0.4-1.1c0-0.2,0-0.4-0.1-0.5c-0.1-0.2-0.2-0.3-0.4-0.5s-0.4-0.2-0.7-0.3c-0.3-0.1-0.6-0.1-1.1-0.1
		c-1,0-1.9,0.4-2.6,1.2l-2-1.9c0.6-0.7,1.3-1.2,2.1-1.6c0.7-0.3,1.6-0.5,2.6-0.5c0.7,0,1.3,0.1,1.9,0.3c0.6,0.2,1.1,0.4,1.6,0.8
		s0.8,0.8,1.1,1.3c0.3,0.5,0.4,1.1,0.4,1.8c0,0.8-0.2,1.4-0.5,1.9c-0.3,0.5-0.7,0.8-1.1,1c0.2,0.1,0.5,0.2,0.7,0.4
		c0.2,0.2,0.5,0.4,0.7,0.6s0.4,0.6,0.5,0.9S86,159.1,86,159.6z"/>
</g>
</svg>
