<!-- Generator: Adobe Illustrator 22.1.0, SVG Export Plug-In  -->
<svg version="1.1"
	 xmlns="http://www.w3.org/2000/svg" xmlns:xlink="http://www.w3.org/1999/xlink" xmlns:a="http://ns.adobe.com/AdobeSVGViewerExtensions/3.0/"
	 x="0px" y="0px" width="85.2px" height="224.1px" viewBox="0 0 85.2 224.1" style="enable-background:new 0 0 85.2 224.1;"
	 xml:space="preserve">
<style type="text/css">
	.st0{fill:url(#XMLID_65_);}
	.st1{fill:#58595B;}
	.st2{fill:none;stroke:#231F20;stroke-miterlimit:10;}
	.st3{fill:url(#XMLID_66_);}
</style>
<defs>
</defs>
<linearGradient id="XMLID_65_" gradientUnits="userSpaceOnUse" x1="56.3016" y1="116.7326" x2="81.409" y2="116.7326">
	<stop  offset="0" style="stop-color:#4B257A"/>
	<stop  offset="1" style="stop-color:#954C8D"/>
</linearGradient>
<rect id="XMLID_64_" x="56.3" y="29.3" class="st0" width="25.1" height="174.9"/>
<g id="XMLID_44_">
	<g>
		<path id="XMLID_53_" class="st1" d="M63.2,11.7c0,1.1-0.3,1.9-1,2.5c-0.7,0.6-1.7,0.8-2.9,0.8c-0.4,0-0.7,0-1.1-0.1
			c-0.4-0.1-0.7-0.2-1.1-0.3s-0.7-0.3-0.9-0.6c-0.3-0.2-0.5-0.5-0.7-0.7l1.2-1c0.3,0.4,0.7,0.7,1.2,0.9c0.5,0.2,0.9,0.3,1.4,0.3
			c0.9,0,1.5-0.2,1.8-0.5c0.3-0.3,0.5-0.7,0.5-1.3s-0.2-0.9-0.5-1.2c-0.4-0.3-0.8-0.4-1.4-0.4h-1V8.5h1c0.5,0,0.9-0.1,1.1-0.4
			s0.4-0.6,0.4-1c0-0.2,0-0.3-0.1-0.5c-0.1-0.2-0.2-0.3-0.3-0.5C60.5,6,60.3,5.9,60,5.8c-0.3-0.1-0.6-0.1-1-0.1
			c-0.4,0-0.8,0.1-1.1,0.3C57.6,6,57.3,6.3,57,6.6l-1.2-1.1c0.5-0.5,1-0.8,1.5-1.1C57.8,4.2,58.4,4,59.1,4c0.5,0,1,0.1,1.4,0.2
			c0.4,0.1,0.8,0.3,1.2,0.6C62,5,62.2,5.3,62.4,5.7s0.3,0.8,0.3,1.2c0,0.6-0.1,1.1-0.4,1.5c-0.2,0.4-0.6,0.6-0.9,0.8
			c0.5,0.1,0.9,0.4,1.2,0.8C63,10.5,63.2,11,63.2,11.7z"/>
		<path id="XMLID_51_" class="st1" d="M66.4,14.8V6.7h-1.9V5.6c0.5,0,1-0.2,1.4-0.4c0.4-0.2,0.7-0.5,0.8-1H68v10.6H66.4z"/>
		<path id="XMLID_49_" class="st1" d="M72.6,13.8c0,0.3-0.1,0.6-0.4,0.8C72,14.9,71.7,15,71.4,15s-0.6-0.1-0.8-0.4
			c-0.2-0.2-0.4-0.5-0.4-0.8c0-0.2,0-0.3,0.1-0.5c0.1-0.1,0.2-0.3,0.3-0.4c0.1-0.1,0.2-0.2,0.4-0.3s0.3-0.1,0.5-0.1s0.3,0,0.5,0.1
			c0.1,0.1,0.3,0.2,0.4,0.3s0.2,0.2,0.3,0.4C72.5,13.5,72.6,13.6,72.6,13.8z"/>
		<path id="XMLID_46_" class="st1" d="M82.3,11.5c0,0.6-0.1,1.1-0.3,1.5c-0.2,0.4-0.5,0.8-0.9,1.1c-0.4,0.3-0.8,0.5-1.3,0.7
			S78.7,15,78.1,15c-0.6,0-1.1-0.1-1.6-0.2c-0.5-0.2-0.9-0.4-1.3-0.8c-0.4-0.3-0.6-0.8-0.8-1.3c-0.2-0.5-0.3-1.2-0.3-1.9
			c0-0.5,0-1,0.1-1.5c0.1-0.5,0.2-1,0.4-1.5c0.2-0.5,0.5-1,0.8-1.4s0.8-0.8,1.2-1.2c0.5-0.3,1.1-0.6,1.7-0.8
			c0.7-0.2,1.4-0.3,2.2-0.4v1.5c-1.2,0.1-2.2,0.4-3.1,0.9S76.3,7.9,75.9,9c0.4-0.3,0.8-0.5,1.2-0.6c0.4-0.1,1-0.2,1.6-0.2
			c0.5,0,0.9,0.1,1.4,0.2c0.4,0.1,0.8,0.3,1.1,0.6c0.3,0.3,0.6,0.6,0.8,1C82.2,10.4,82.3,10.9,82.3,11.5z M80.7,11.5
			c0-0.6-0.2-1.1-0.6-1.4c-0.4-0.3-1-0.4-1.8-0.4c-0.8,0-1.4,0.2-1.8,0.5c-0.4,0.3-0.7,0.8-0.7,1.4c0,0.3,0.1,0.5,0.2,0.7
			c0.1,0.2,0.3,0.4,0.5,0.6c0.2,0.2,0.5,0.3,0.8,0.4c0.3,0.1,0.7,0.2,1,0.2c0.8,0,1.4-0.2,1.9-0.5S80.7,12.1,80.7,11.5z"/>
	</g>
</g>
<rect id="XMLID_43_" x="53.2" y="0.5" class="st2" width="31.5" height="18.7"/>
<g id="XMLID_1_">
	<g>
		<path id="XMLID_20_" class="st1" d="M7.4,219.3c0,0.7-0.1,1.4-0.2,2s-0.4,1.1-0.7,1.5c-0.3,0.4-0.7,0.8-1.2,1
			c-0.5,0.2-1,0.4-1.6,0.4s-1.1-0.1-1.6-0.4c-0.5-0.2-0.8-0.6-1.2-1s-0.5-0.9-0.7-1.5c-0.2-0.6-0.2-1.2-0.2-2c0-0.7,0.1-1.4,0.2-2
			c0.2-0.6,0.4-1.1,0.7-1.5c0.3-0.4,0.7-0.8,1.2-1c0.5-0.2,1-0.4,1.6-0.4c0.6,0,1.1,0.1,1.6,0.4c0.5,0.2,0.8,0.6,1.2,1
			s0.5,0.9,0.7,1.5C7.3,217.9,7.4,218.5,7.4,219.3z M6,219.3c0-0.5,0-1-0.1-1.4c-0.1-0.4-0.2-0.8-0.4-1.1s-0.4-0.6-0.7-0.7
			c-0.3-0.2-0.6-0.3-1.1-0.3s-0.8,0.1-1,0.3s-0.5,0.4-0.7,0.7c-0.2,0.3-0.3,0.7-0.4,1.1c-0.1,0.4-0.1,0.9-0.1,1.4s0,1,0.1,1.4
			c0.1,0.4,0.2,0.8,0.4,1.1c0.2,0.3,0.4,0.6,0.7,0.7c0.3,0.2,0.6,0.3,1.1,0.3c0.4,0,0.8-0.1,1-0.3s0.5-0.4,0.7-0.7
			c0.2-0.3,0.3-0.7,0.4-1.1C5.9,220.2,6,219.8,6,219.3z"/>
		<path id="XMLID_18_" class="st1" d="M16.1,223.8c-0.2,0.1-0.4,0.2-0.6,0.2c-0.2,0.1-0.5,0.1-0.8,0.1c-0.5,0-0.9-0.2-1.2-0.5
			c-0.3-0.3-0.4-0.8-0.4-1.4v-4.1h-1v-1.3h1v-2l1.4-0.7v2.7h1.7v1.3h-1.7v3.8c0,0.3,0.1,0.6,0.2,0.7c0.1,0.1,0.3,0.2,0.6,0.2
			c0.2,0,0.4,0,0.5-0.1s0.3-0.1,0.5-0.2L16.1,223.8z"/>
		<path id="XMLID_15_" class="st1" d="M24.1,220.4c0,0.6-0.1,1.1-0.2,1.6c-0.2,0.5-0.4,0.8-0.7,1.2s-0.6,0.6-1,0.7s-0.8,0.2-1.3,0.2
			c-0.4,0-0.9-0.1-1.2-0.3c-0.4-0.2-0.7-0.4-1-0.7s-0.5-0.7-0.6-1.2s-0.2-0.9-0.2-1.5c0-0.6,0.1-1.1,0.2-1.5s0.4-0.8,0.7-1.2
			c0.3-0.3,0.6-0.6,1-0.7c0.4-0.2,0.8-0.2,1.2-0.2s0.9,0.1,1.2,0.3c0.4,0.2,0.7,0.4,1,0.7s0.5,0.7,0.7,1.1
			C24,219.4,24.1,219.9,24.1,220.4z M22.7,220.4c0-0.7-0.2-1.3-0.5-1.7s-0.8-0.6-1.3-0.6c-0.5,0-0.9,0.2-1.2,0.6s-0.5,1-0.5,1.7
			c0,0.8,0.2,1.4,0.5,1.8c0.3,0.4,0.8,0.6,1.3,0.6c0.3,0,0.5-0.1,0.7-0.2c0.2-0.1,0.4-0.3,0.6-0.5s0.3-0.5,0.4-0.7
			C22.7,221.1,22.7,220.8,22.7,220.4z"/>
		<path id="XMLID_13_" class="st1" d="M29.2,219.9v-1.2l3.9-3.4v1.7l-2.6,2.2l2.6,2.2v1.8L29.2,219.9z"/>
		<path id="XMLID_11_" class="st1" d="M34.6,224c0-0.7,0.1-1.3,0.3-1.8c0.2-0.5,0.5-1,0.8-1.4c0.3-0.4,0.7-0.7,1.1-1
			c0.4-0.3,0.9-0.6,1.3-0.9c0.3-0.2,0.6-0.4,0.8-0.5c0.2-0.2,0.4-0.3,0.5-0.4c0.1-0.1,0.2-0.3,0.2-0.4c0-0.1,0.1-0.3,0.1-0.5
			c0-0.4-0.1-0.7-0.4-0.9c-0.3-0.2-0.7-0.3-1.4-0.3c-0.4,0-0.8,0.1-1.2,0.3c-0.4,0.2-0.8,0.4-1.1,0.7l-0.9-1.1
			c0.4-0.4,0.9-0.7,1.5-0.9c0.6-0.2,1.1-0.3,1.7-0.3c1,0,1.8,0.2,2.3,0.6c0.6,0.4,0.9,1.1,0.9,1.9c0,0.4,0,0.7-0.1,1
			c-0.1,0.3-0.2,0.5-0.4,0.7c-0.2,0.2-0.4,0.4-0.7,0.7c-0.3,0.2-0.7,0.4-1.1,0.7c-0.4,0.3-0.8,0.5-1.1,0.7c-0.3,0.2-0.5,0.4-0.7,0.6
			s-0.3,0.4-0.4,0.6c-0.1,0.2-0.2,0.4-0.2,0.6h5v1.4H34.6z"/>
		<path id="XMLID_9_" class="st1" d="M50.2,220.8c0,0.6-0.1,1.1-0.3,1.5c-0.2,0.4-0.4,0.8-0.8,1c-0.3,0.3-0.7,0.5-1.2,0.6
			s-1,0.2-1.5,0.2c-0.6,0-1.2-0.1-1.7-0.2c-0.5-0.1-1.1-0.4-1.6-0.7l0.7-1.2c0.4,0.2,0.8,0.4,1.3,0.5c0.5,0.1,0.9,0.2,1.3,0.2
			c0.7,0,1.3-0.2,1.7-0.5c0.4-0.3,0.6-0.8,0.6-1.4c0-0.6-0.2-1-0.5-1.3c-0.3-0.3-0.8-0.4-1.4-0.4c-0.4,0-0.7,0.1-1,0.2
			c-0.3,0.1-0.5,0.3-0.8,0.4l-1.5-0.6l0.3-4.6h5.8v1.3h-4.5l-0.2,2.4c0.3-0.2,0.6-0.3,0.9-0.4c0.3-0.1,0.7-0.1,1.1-0.1
			c0.5,0,1,0.1,1.4,0.2c0.4,0.1,0.7,0.4,1,0.6c0.3,0.3,0.5,0.6,0.6,0.9C50.1,219.9,50.2,220.3,50.2,220.8z"/>
		<path id="XMLID_3_" class="st1" d="M55.5,217.7c0,1.8-1,2.7-2.1,2.7c-1.1,0-2-0.9-2-2.6c0-1.7,1-2.7,2.1-2.7
			C54.7,215.1,55.5,216,55.5,217.7z M52.3,217.8c0,1.1,0.4,2,1.1,2c0.8,0,1.1-0.8,1.1-2c0-1.1-0.3-1.9-1.1-1.9
			C52.7,215.8,52.3,216.7,52.3,217.8z M53.4,224.1l5.1-9h0.8l-5.1,9H53.4z M61.2,221.3c0,1.8-1,2.7-2.1,2.7c-1.1,0-2-0.9-2-2.6
			c0-1.8,1-2.7,2.1-2.7C60.4,218.7,61.2,219.6,61.2,221.3z M58,221.4c0,1.1,0.4,2,1.1,2c0.8,0,1.1-0.8,1.1-2c0-1.1-0.3-1.9-1.1-1.9
			C58.4,219.4,58,220.3,58,221.4z"/>
	</g>
</g>
</svg>
