<!-- Generator: Adobe Illustrator 22.1.0, SVG Export Plug-In  -->
<svg version="1.1"
	 xmlns="http://www.w3.org/2000/svg" xmlns:xlink="http://www.w3.org/1999/xlink" xmlns:a="http://ns.adobe.com/AdobeSVGViewerExtensions/3.0/"
	 x="0px" y="0px" width="683.7px" height="371.6px" viewBox="0 0 683.7 371.6" style="enable-background:new 0 0 683.7 371.6;"
	 xml:space="preserve">
<style type="text/css">
	.st0{fill:none;}
	.st1{fill:none;stroke:#231F20;}
	.st2{fill:#FFFFFF;stroke:#522D6D;stroke-width:2;}
	.st3{fill:#58595B;}
	.st4{fill:none;stroke:#BBBDBF;stroke-width:0.5;}
	.st5{fill:#EEEBF0;}
	.st6{fill:none;stroke:#231F20;stroke-linecap:round;stroke-linejoin:round;stroke-dasharray:0,2.983;}
	.st7{fill:none;stroke:#231F20;stroke-linecap:round;stroke-linejoin:round;}
	.st8{fill:none;stroke:#D1232A;stroke-miterlimit:10;stroke-dasharray:4.849,4.849;}
	.st9{fill:none;stroke:#D1232A;stroke-miterlimit:10;stroke-dasharray:5.692,5.692;}
	.st10{fill:none;stroke:#D1232A;stroke-miterlimit:10;stroke-dasharray:5.04,5.04;}
	.st11{fill:none;stroke:#D1232A;stroke-miterlimit:10;stroke-dasharray:5.327,5.327;}
	.st12{fill:none;stroke:#D1232A;stroke-miterlimit:10;stroke-dasharray:4.911,4.911;}
	.st13{fill:none;stroke:#D1232A;stroke-miterlimit:10;stroke-dasharray:5.859,5.859;}
	.st14{fill:none;stroke:#D1232A;stroke-miterlimit:10;stroke-dasharray:4.851,4.851;}
	.st15{fill:none;stroke:#D1232A;stroke-miterlimit:10;stroke-dasharray:6.148,6.148;}
	.st16{fill:none;stroke:#D1232A;stroke-miterlimit:10;stroke-dasharray:5.008,5.008;}
	.st17{fill:none;stroke:#D1232A;stroke-miterlimit:10;stroke-dasharray:5.802,5.802;}
	.st18{fill:none;stroke:#D1232A;stroke-miterlimit:10;stroke-dasharray:5.001,5.001;}
	.st19{fill:none;stroke:#D1232A;stroke-miterlimit:10;stroke-dasharray:4.585,4.585;}
	.st20{fill:none;stroke:#D1232A;stroke-miterlimit:10;stroke-dasharray:4.905,4.905;}
	.st21{fill:none;stroke:#D1232A;stroke-miterlimit:10;stroke-dasharray:5.498,5.498;}
	.st22{fill:none;stroke:#D1232A;stroke-miterlimit:10;stroke-dasharray:5.068,5.068;}
	.st23{fill:none;stroke:#D1232A;stroke-miterlimit:10;stroke-dasharray:4.224,4.224;}
	.st24{fill:none;stroke:#D1232A;stroke-miterlimit:10;stroke-dasharray:5.003,5.003;}
	.st25{fill:none;stroke:#D1232A;stroke-miterlimit:10;stroke-dasharray:5.803,5.803;}
	.st26{fill:none;stroke:#D1232A;stroke-miterlimit:10;stroke-dasharray:5.032,5.032;}
	.st27{fill:none;stroke:#D1232A;stroke-miterlimit:10;stroke-dasharray:5.641,5.641;}
	.st28{fill:none;stroke:#D1232A;stroke-miterlimit:10;stroke-dasharray:4.979,4.979;}
	.st29{fill:none;stroke:#D1232A;stroke-miterlimit:10;stroke-dasharray:5.79,5.79;}
	.st30{fill:none;stroke:#D1232A;stroke-miterlimit:10;stroke-dasharray:4.879,4.879;}
	.st31{fill:none;stroke:#D1232A;stroke-miterlimit:10;}
	.st32{fill:none;stroke:#236092;stroke-miterlimit:10;}
	.st33{fill:#231F20;}
	.st34{fill:none;stroke:#D1232A;stroke-miterlimit:10;stroke-dasharray:4.903,4.903;}
</style>
<defs>
</defs>
<polyline id="XMLID_484_" class="st0" points="679.1,12.5 0,12.5 0,357.3 679.1,357.3 "/>
<polyline id="XMLID_483_" class="st1" points="671.9,19.8 7.3,19.8 7.3,50.5 7.3,71.3 7.3,349.9 671.9,349.9 "/>
<polygon id="XMLID_482_" class="st2" points="682.7,370.6 3.7,370.6 3.7,58.7 3.7,35.4 3.7,1 682.7,1 "/>
<g id="XMLID_478_">
	<path id="XMLID_479_" class="st3" d="M96.9,315c0,0.7-0.1,1.2-0.2,1.8c-0.1,0.5-0.4,1-0.6,1.4c-0.3,0.4-0.6,0.7-1.1,0.9
		c-0.4,0.2-0.9,0.3-1.5,0.3s-1-0.1-1.5-0.3c-0.4-0.2-0.8-0.5-1-0.9c-0.3-0.4-0.5-0.8-0.6-1.4c-0.1-0.5-0.2-1.1-0.2-1.8
		c0-0.6,0.1-1.2,0.2-1.8c0.1-0.5,0.4-1,0.6-1.4c0.3-0.4,0.6-0.7,1.1-0.9s0.9-0.3,1.5-0.3s1,0.1,1.5,0.3c0.4,0.2,0.8,0.5,1,0.9
		c0.3,0.4,0.5,0.9,0.6,1.4C96.9,313.8,96.9,314.4,96.9,315z M95.6,315c0-0.4,0-0.9-0.1-1.3c-0.1-0.4-0.2-0.7-0.4-1
		c-0.2-0.3-0.4-0.5-0.6-0.7c-0.3-0.2-0.6-0.2-1-0.2c-0.4,0-0.7,0.1-1,0.2c-0.3,0.2-0.5,0.4-0.6,0.7c-0.2,0.3-0.3,0.6-0.4,1
		c-0.1,0.4-0.1,0.8-0.1,1.3c0,0.4,0,0.9,0.1,1.3c0.1,0.4,0.2,0.7,0.4,1c0.2,0.3,0.4,0.5,0.6,0.7c0.3,0.2,0.6,0.2,1,0.2
		s0.7-0.1,1-0.2c0.3-0.2,0.5-0.4,0.6-0.7c0.2-0.3,0.3-0.6,0.4-1C95.6,315.9,95.6,315.5,95.6,315z"/>
</g>
<g id="XMLID_473_">
	<path id="XMLID_474_" class="st3" d="M175.3,316.8c0,0.4-0.1,0.8-0.2,1.1s-0.4,0.6-0.7,0.8s-0.6,0.4-1.1,0.5
		c-0.4,0.1-0.9,0.2-1.4,0.2c-1,0-1.8-0.2-2.4-0.7c-0.6-0.5-0.9-1.1-0.9-1.9c0-1,0.5-1.7,1.5-2.1c-0.2-0.1-0.4-0.2-0.5-0.3
		c-0.1-0.1-0.3-0.3-0.4-0.4c-0.1-0.2-0.2-0.3-0.2-0.5c0-0.2-0.1-0.3-0.1-0.4c0-0.4,0.1-0.8,0.2-1.1c0.2-0.3,0.4-0.6,0.6-0.8
		c0.3-0.2,0.6-0.3,1-0.4c0.4-0.1,0.8-0.1,1.2-0.1c0.4,0,0.8,0,1.1,0.1s0.7,0.2,1,0.4c0.3,0.2,0.5,0.4,0.7,0.7
		c0.2,0.3,0.3,0.7,0.3,1.1c0,0.1,0,0.3-0.1,0.4c0,0.2-0.1,0.3-0.2,0.5c-0.1,0.2-0.2,0.3-0.4,0.4c-0.1,0.1-0.3,0.3-0.5,0.3
		c0.5,0.2,0.8,0.4,1.1,0.8C175.2,315.8,175.3,316.2,175.3,316.8z M174,316.8c0-0.5-0.2-0.8-0.5-1.1c-0.3-0.3-0.9-0.4-1.6-0.4
		c-0.7,0-1.2,0.1-1.5,0.4c-0.3,0.2-0.5,0.6-0.5,1c0,0.5,0.2,0.8,0.5,1.1c0.4,0.3,0.9,0.4,1.5,0.4c0.7,0,1.2-0.1,1.5-0.4
		S174,317.2,174,316.8z M173.7,313c0-0.2,0-0.3-0.1-0.5c-0.1-0.2-0.2-0.3-0.3-0.4c-0.1-0.1-0.3-0.2-0.5-0.3
		c-0.2-0.1-0.5-0.1-0.8-0.1s-0.6,0-0.8,0.1c-0.2,0.1-0.4,0.2-0.5,0.3c-0.1,0.1-0.2,0.2-0.3,0.4c-0.1,0.1-0.1,0.3-0.1,0.5
		c0,0.3,0.2,0.6,0.5,0.8c0.3,0.2,0.7,0.3,1.3,0.3c0.6,0,1-0.1,1.3-0.3S173.7,313.3,173.7,313z"/>
</g>
<g id="XMLID_467_">
	<path id="XMLID_471_" class="st3" d="M246.1,319.3v-6.5h-1.5v-0.9c0.4,0,0.8-0.1,1.1-0.3c0.3-0.2,0.5-0.4,0.6-0.8h1v8.5H246.1z"/>
	<path id="XMLID_468_" class="st3" d="M255.8,316.6c0,0.5-0.1,0.9-0.3,1.2c-0.2,0.4-0.4,0.7-0.7,0.9c-0.3,0.2-0.7,0.4-1.1,0.5
		s-0.8,0.2-1.3,0.2c-0.4,0-0.9-0.1-1.3-0.2c-0.4-0.1-0.7-0.3-1-0.6c-0.3-0.3-0.5-0.6-0.7-1.1c-0.2-0.4-0.3-0.9-0.3-1.5
		c0-0.4,0-0.8,0.1-1.2c0.1-0.4,0.2-0.8,0.4-1.2c0.2-0.4,0.4-0.8,0.7-1.1c0.3-0.4,0.6-0.7,1-1c0.4-0.3,0.8-0.5,1.4-0.7
		c0.5-0.2,1.1-0.3,1.8-0.3v1.2c-1,0-1.8,0.3-2.5,0.7c-0.7,0.5-1.1,1.1-1.4,2c0.3-0.2,0.6-0.4,1-0.5c0.3-0.1,0.8-0.2,1.3-0.2
		c0.4,0,0.8,0.1,1.1,0.2c0.3,0.1,0.6,0.3,0.9,0.5c0.3,0.2,0.5,0.5,0.6,0.8C255.7,315.7,255.8,316.1,255.8,316.6z M254.5,316.6
		c0-0.5-0.2-0.9-0.5-1.1c-0.3-0.2-0.8-0.4-1.4-0.4c-0.6,0-1.1,0.1-1.5,0.4c-0.4,0.2-0.5,0.6-0.5,1.1c0,0.2,0,0.4,0.1,0.6
		c0.1,0.2,0.2,0.4,0.4,0.5c0.2,0.1,0.4,0.3,0.6,0.3c0.2,0.1,0.5,0.1,0.8,0.1c0.7,0,1.1-0.1,1.5-0.4
		C254.3,317.5,254.5,317.1,254.5,316.6z"/>
</g>
<g id="XMLID_461_">
	<path id="XMLID_465_" class="st3" d="M321.8,319.3c0-0.6,0.1-1.2,0.3-1.6s0.4-0.9,0.7-1.2c0.3-0.4,0.6-0.7,1-1s0.8-0.5,1.2-0.8
		c0.3-0.2,0.5-0.3,0.7-0.5c0.2-0.1,0.3-0.3,0.4-0.4s0.2-0.3,0.2-0.4c0-0.1,0.1-0.3,0.1-0.4c0-0.3-0.1-0.6-0.4-0.8
		c-0.3-0.2-0.7-0.3-1.3-0.3c-0.4,0-0.7,0.1-1.1,0.2c-0.4,0.2-0.7,0.4-1,0.6l-0.8-1c0.4-0.4,0.8-0.7,1.3-0.9c0.5-0.2,1-0.3,1.6-0.3
		c0.9,0,1.6,0.2,2.1,0.6c0.5,0.4,0.8,1,0.8,1.8c0,0.3,0,0.6-0.1,0.9c-0.1,0.2-0.2,0.5-0.4,0.7c-0.2,0.2-0.4,0.4-0.7,0.6
		c-0.3,0.2-0.6,0.4-1,0.6c-0.4,0.2-0.7,0.5-1,0.7s-0.5,0.4-0.7,0.6c-0.2,0.2-0.3,0.4-0.4,0.5c-0.1,0.2-0.2,0.4-0.2,0.6h4.5v1.2
		H321.8z"/>
	<path id="XMLID_462_" class="st3" d="M334.5,317.4v1.9h-1.2v-1.9h-4.6v-1.2l4.4-5.4h1.5v5.5h1.1v1.1H334.5z M333.3,312.2
		c-0.1,0.1-0.2,0.3-0.3,0.5s-0.3,0.4-0.4,0.6l-1.6,2.1c-0.1,0.2-0.3,0.3-0.4,0.5c-0.2,0.2-0.3,0.3-0.4,0.4c0.1,0,0.2,0,0.3,0
		c0.1,0,0.2,0,0.4,0c0.1,0,0.3,0,0.4,0c0.1,0,0.2,0,0.4,0h1.8v-2.5c0-0.1,0-0.3,0-0.4c0-0.1,0-0.3,0-0.4c0-0.1,0-0.3,0-0.4
		C333.3,312.4,333.3,312.3,333.3,312.2z"/>
</g>
<g id="XMLID_456_">
	<path id="XMLID_459_" class="st3" d="M406.3,316.7c0,0.9-0.3,1.5-0.8,2c-0.6,0.5-1.3,0.7-2.4,0.7c-0.3,0-0.6,0-0.9-0.1
		c-0.3-0.1-0.6-0.2-0.9-0.3s-0.5-0.3-0.8-0.4s-0.4-0.4-0.6-0.6l1-0.8c0.3,0.3,0.6,0.6,1,0.7c0.4,0.2,0.8,0.2,1.1,0.2
		c0.7,0,1.2-0.1,1.4-0.4s0.4-0.6,0.4-1s-0.1-0.8-0.4-1c-0.3-0.2-0.7-0.3-1.1-0.3h-0.8v-1.2h0.8c0.4,0,0.7-0.1,0.9-0.3
		c0.2-0.2,0.3-0.5,0.3-0.8c0-0.1,0-0.3-0.1-0.4c0-0.1-0.1-0.3-0.3-0.4c-0.1-0.1-0.3-0.2-0.5-0.3c-0.2-0.1-0.5-0.1-0.8-0.1
		c-0.3,0-0.6,0.1-0.9,0.2c-0.3,0.1-0.5,0.3-0.8,0.6l-1-0.9c0.4-0.4,0.8-0.7,1.2-0.9c0.4-0.2,0.9-0.3,1.5-0.3c0.4,0,0.8,0.1,1.1,0.2
		c0.4,0.1,0.7,0.3,0.9,0.4c0.3,0.2,0.5,0.4,0.6,0.7c0.2,0.3,0.2,0.6,0.2,1c0,0.5-0.1,0.9-0.3,1.2c-0.2,0.3-0.4,0.5-0.7,0.7
		c0.4,0.1,0.7,0.3,1,0.7S406.3,316.2,406.3,316.7z"/>
	<path id="XMLID_457_" class="st3" d="M407.5,319.3c0-0.6,0.1-1.2,0.3-1.6s0.4-0.9,0.7-1.2c0.3-0.4,0.6-0.7,1-1s0.8-0.5,1.2-0.8
		c0.3-0.2,0.5-0.3,0.7-0.5c0.2-0.1,0.3-0.3,0.4-0.4s0.2-0.3,0.2-0.4c0-0.1,0.1-0.3,0.1-0.4c0-0.3-0.1-0.6-0.4-0.8
		c-0.3-0.2-0.7-0.3-1.3-0.3c-0.4,0-0.7,0.1-1.1,0.2c-0.4,0.2-0.7,0.4-1,0.6l-0.8-1c0.4-0.4,0.8-0.7,1.3-0.9c0.5-0.2,1-0.3,1.6-0.3
		c0.9,0,1.6,0.2,2.1,0.6c0.5,0.4,0.8,1,0.8,1.8c0,0.3,0,0.6-0.1,0.9c-0.1,0.2-0.2,0.5-0.4,0.7c-0.2,0.2-0.4,0.4-0.7,0.6
		c-0.3,0.2-0.6,0.4-1,0.6c-0.4,0.2-0.7,0.5-1,0.7s-0.5,0.4-0.7,0.6c-0.2,0.2-0.3,0.4-0.4,0.5c-0.1,0.2-0.2,0.4-0.2,0.6h4.5v1.2
		H407.5z"/>
</g>
<g id="XMLID_449_">
	<path id="XMLID_453_" class="st3" d="M483.8,317.4v1.9h-1.2v-1.9H478v-1.2l4.4-5.4h1.5v5.5h1.1v1.1H483.8z M482.6,312.2
		c-0.1,0.1-0.2,0.3-0.3,0.5s-0.3,0.4-0.4,0.6l-1.6,2.1c-0.1,0.2-0.3,0.3-0.4,0.5c-0.2,0.2-0.3,0.3-0.4,0.4c0.1,0,0.2,0,0.3,0
		c0.1,0,0.2,0,0.4,0c0.1,0,0.3,0,0.4,0c0.1,0,0.2,0,0.4,0h1.8v-2.5c0-0.1,0-0.3,0-0.4c0-0.1,0-0.3,0-0.4c0-0.1,0-0.3,0-0.4
		C482.6,312.4,482.6,312.3,482.6,312.2z"/>
	<path id="XMLID_450_" class="st3" d="M493,315c0,0.7-0.1,1.2-0.2,1.8c-0.1,0.5-0.4,1-0.6,1.4c-0.3,0.4-0.6,0.7-1.1,0.9
		c-0.4,0.2-0.9,0.3-1.5,0.3s-1-0.1-1.5-0.3c-0.4-0.2-0.8-0.5-1-0.9c-0.3-0.4-0.5-0.8-0.6-1.4c-0.1-0.5-0.2-1.1-0.2-1.8
		c0-0.6,0.1-1.2,0.2-1.8c0.1-0.5,0.4-1,0.6-1.4c0.3-0.4,0.6-0.7,1.1-0.9s0.9-0.3,1.5-0.3s1,0.1,1.5,0.3c0.4,0.2,0.8,0.5,1,0.9
		c0.3,0.4,0.5,0.9,0.6,1.4C492.9,313.8,493,314.4,493,315z M491.7,315c0-0.4,0-0.9-0.1-1.3c-0.1-0.4-0.2-0.7-0.4-1
		c-0.2-0.3-0.4-0.5-0.6-0.7c-0.3-0.2-0.6-0.2-1-0.2c-0.4,0-0.7,0.1-1,0.2c-0.3,0.2-0.5,0.4-0.6,0.7c-0.2,0.3-0.3,0.6-0.4,1
		c-0.1,0.4-0.1,0.8-0.1,1.3c0,0.4,0,0.9,0.1,1.3c0.1,0.4,0.2,0.7,0.4,1c0.2,0.3,0.4,0.5,0.6,0.7c0.3,0.2,0.6,0.2,1,0.2
		s0.7-0.1,1-0.2c0.3-0.2,0.5-0.4,0.6-0.7c0.2-0.3,0.3-0.6,0.4-1C491.7,315.9,491.7,315.5,491.7,315z"/>
</g>
<g id="XMLID_441_">
	<path id="XMLID_446_" class="st3" d="M562.2,317.4v1.9H561v-1.9h-4.6v-1.2l4.4-5.4h1.5v5.5h1.1v1.1H562.2z M561,312.2
		c-0.1,0.1-0.2,0.3-0.3,0.5s-0.3,0.4-0.4,0.6l-1.6,2.1c-0.1,0.2-0.3,0.3-0.4,0.5c-0.2,0.2-0.3,0.3-0.4,0.4c0.1,0,0.2,0,0.3,0
		c0.1,0,0.2,0,0.4,0c0.1,0,0.3,0,0.4,0c0.1,0,0.2,0,0.4,0h1.8v-2.5c0-0.1,0-0.3,0-0.4c0-0.1,0-0.3,0-0.4c0-0.1,0-0.3,0-0.4
		C561,312.4,561,312.3,561,312.2z"/>
	<path id="XMLID_442_" class="st3" d="M571.3,316.8c0,0.4-0.1,0.8-0.2,1.1s-0.4,0.6-0.7,0.8s-0.6,0.4-1.1,0.5
		c-0.4,0.1-0.9,0.2-1.4,0.2c-1,0-1.8-0.2-2.4-0.7c-0.6-0.5-0.9-1.1-0.9-1.9c0-1,0.5-1.7,1.5-2.1c-0.2-0.1-0.4-0.2-0.5-0.3
		c-0.1-0.1-0.3-0.3-0.4-0.4c-0.1-0.2-0.2-0.3-0.2-0.5c0-0.2-0.1-0.3-0.1-0.4c0-0.4,0.1-0.8,0.2-1.1c0.2-0.3,0.4-0.6,0.6-0.8
		c0.3-0.2,0.6-0.3,1-0.4c0.4-0.1,0.8-0.1,1.2-0.1c0.4,0,0.8,0,1.1,0.1s0.7,0.2,1,0.4c0.3,0.2,0.5,0.4,0.7,0.7
		c0.2,0.3,0.3,0.7,0.3,1.1c0,0.1,0,0.3-0.1,0.4c0,0.2-0.1,0.3-0.2,0.5c-0.1,0.2-0.2,0.3-0.4,0.4c-0.1,0.1-0.3,0.3-0.5,0.3
		c0.5,0.2,0.8,0.4,1.1,0.8C571.2,315.8,571.3,316.2,571.3,316.8z M570,316.8c0-0.5-0.2-0.8-0.5-1.1c-0.3-0.3-0.9-0.4-1.6-0.4
		c-0.7,0-1.2,0.1-1.5,0.4c-0.3,0.2-0.5,0.6-0.5,1c0,0.5,0.2,0.8,0.5,1.1c0.4,0.3,0.9,0.4,1.5,0.4c0.7,0,1.2-0.1,1.5-0.4
		S570,317.2,570,316.8z M569.7,313c0-0.2,0-0.3-0.1-0.5c-0.1-0.2-0.2-0.3-0.3-0.4c-0.1-0.1-0.3-0.2-0.5-0.3
		c-0.2-0.1-0.5-0.1-0.8-0.1s-0.6,0-0.8,0.1c-0.2,0.1-0.4,0.2-0.5,0.3c-0.1,0.1-0.2,0.2-0.3,0.4c-0.1,0.1-0.1,0.3-0.1,0.5
		c0,0.3,0.2,0.6,0.5,0.8c0.3,0.2,0.7,0.3,1.3,0.3c0.6,0,1-0.1,1.3-0.3S569.7,313.3,569.7,313z"/>
</g>
<g id="XMLID_430_">
	<path id="XMLID_438_" class="st3" d="M182.1,18.3c0,0.9-0.1,1.7-0.4,2.3c-0.3,0.6-0.7,1.2-1.2,1.6c-0.5,0.4-1.1,0.7-1.7,0.9
		c-0.6,0.2-1.3,0.3-1.9,0.3h-3.1V13.2h3.2c0.7,0,1.4,0.1,2,0.3c0.6,0.2,1.2,0.5,1.6,0.9c0.5,0.4,0.8,0.9,1.1,1.6
		C182,16.6,182.1,17.4,182.1,18.3z M180,18.3c0-1-0.2-1.8-0.7-2.4c-0.5-0.5-1.3-0.8-2.3-0.8h-1.1v6.3h1c0.5,0,1-0.1,1.4-0.2
		s0.7-0.4,1-0.6c0.3-0.3,0.4-0.6,0.6-1C180,19.2,180,18.8,180,18.3z"/>
	<path id="XMLID_435_" class="st3" d="M188,23.5v-0.5c-0.2,0.2-0.4,0.4-0.7,0.5c-0.3,0.1-0.6,0.2-1,0.2c-0.4,0-0.7-0.1-1.1-0.2
		c-0.3-0.1-0.6-0.3-0.9-0.5c-0.3-0.2-0.5-0.5-0.7-0.8c-0.2-0.3-0.2-0.7-0.2-1.2c0-0.4,0.1-0.8,0.2-1.1c0.2-0.3,0.4-0.6,0.7-0.8
		c0.3-0.2,0.6-0.4,1-0.5c0.4-0.1,0.8-0.2,1.2-0.2c0.4,0,0.6,0,0.9,0.1c0.2,0.1,0.4,0.1,0.6,0.2v-0.4c0-0.3-0.1-0.5-0.3-0.7
		c-0.2-0.2-0.5-0.3-0.8-0.3c-0.2,0-0.4,0-0.6,0c-0.2,0-0.4,0-0.5,0.1c-0.2,0-0.3,0.1-0.5,0.2c-0.2,0.1-0.3,0.1-0.5,0.2l-0.8-1.4
		c0.2-0.1,0.4-0.2,0.7-0.3c0.2-0.1,0.4-0.2,0.7-0.2c0.2-0.1,0.5-0.1,0.7-0.1s0.5-0.1,0.8-0.1c0.5,0,0.9,0.1,1.3,0.2
		c0.4,0.1,0.7,0.3,1,0.5c0.3,0.2,0.5,0.5,0.6,0.8c0.2,0.3,0.2,0.7,0.2,1.1v5.2H188z M188,20.2c-0.2-0.1-0.4-0.2-0.6-0.2
		c-0.2-0.1-0.5-0.1-0.8-0.1c-0.4,0-0.7,0.1-0.9,0.2s-0.3,0.4-0.3,0.7c0,0.3,0.1,0.5,0.3,0.7c0.2,0.2,0.5,0.3,0.9,0.3
		c0.3,0,0.6-0.1,0.9-0.2s0.4-0.3,0.5-0.5V20.2z"/>
	<path id="XMLID_433_" class="st3" d="M194.9,26.2h-2l1-2.7l-3-7.7h2.2l1.3,3.7c0.1,0.3,0.2,0.6,0.3,0.9c0.1,0.3,0.2,0.6,0.2,0.8
		c0-0.2,0.1-0.4,0.2-0.8s0.2-0.6,0.3-0.9l1.3-3.7h2.2L194.9,26.2z"/>
	<path id="XMLID_431_" class="st3" d="M207.9,23.5V16h-1.8v-1.5c0.6,0,1-0.2,1.4-0.4c0.4-0.2,0.6-0.5,0.7-1h1.7v10.2H207.9z"/>
</g>
<g id="XMLID_398_">
	<path id="XMLID_428_" class="st3" d="M49.9,237.2c-0.4,0.2-0.6,0.4-0.8,0.7c-0.2,0.3-0.3,0.7-0.3,1.1c0,0.4,0.1,0.7,0.2,1
		s0.4,0.6,0.7,0.8c0.3,0.2,0.6,0.4,1,0.5c0.4,0.1,0.8,0.2,1.3,0.2c0.5,0,0.9-0.1,1.3-0.2c0.4-0.1,0.7-0.3,1-0.5
		c0.3-0.2,0.5-0.5,0.7-0.8s0.2-0.6,0.2-1c0-0.5-0.1-0.9-0.3-1.1c-0.2-0.3-0.5-0.6-1-0.9l1-1.7c0.7,0.4,1.3,0.8,1.7,1.5
		c0.4,0.6,0.6,1.4,0.6,2.3c0,0.7-0.1,1.3-0.4,1.8c-0.2,0.5-0.6,1-1.1,1.4c-0.5,0.4-1,0.7-1.7,0.9c-0.6,0.2-1.4,0.3-2.2,0.3
		c-0.8,0-1.5-0.1-2.1-0.3c-0.6-0.2-1.2-0.5-1.7-0.9c-0.5-0.4-0.8-0.9-1.1-1.4c-0.3-0.6-0.4-1.2-0.4-1.8c0-0.5,0.1-0.9,0.2-1.3
		c0.1-0.4,0.3-0.7,0.5-1s0.4-0.6,0.7-0.8c0.3-0.2,0.6-0.4,0.9-0.6L49.9,237.2z"/>
	<path id="XMLID_425_" class="st3" d="M53.4,227.4c0.6,0,1.1,0.1,1.6,0.3c0.5,0.2,0.9,0.4,1.3,0.7c0.4,0.3,0.6,0.7,0.8,1.1
		c0.2,0.4,0.3,0.9,0.3,1.4s-0.1,1-0.3,1.4c-0.2,0.4-0.5,0.8-0.8,1.1s-0.8,0.5-1.3,0.7c-0.5,0.2-1,0.3-1.6,0.3
		c-0.6,0-1.1-0.1-1.6-0.3c-0.5-0.2-0.9-0.4-1.3-0.7s-0.6-0.7-0.8-1.1c-0.2-0.4-0.3-0.9-0.3-1.4s0.1-1,0.3-1.4
		c0.2-0.4,0.5-0.8,0.8-1.1c0.4-0.3,0.8-0.5,1.3-0.7C52.2,227.5,52.8,227.4,53.4,227.4z M53.4,229.4c-0.6,0-1.1,0.1-1.5,0.4
		c-0.4,0.2-0.6,0.6-0.6,1.1s0.2,0.8,0.6,1.1c0.4,0.2,0.9,0.3,1.5,0.3c0.6,0,1.1-0.1,1.5-0.3s0.6-0.6,0.6-1.1c0-0.2-0.1-0.5-0.2-0.6
		c-0.1-0.2-0.3-0.3-0.5-0.4c-0.2-0.1-0.4-0.2-0.7-0.3C53.9,229.5,53.6,229.4,53.4,229.4z"/>
	<path id="XMLID_423_" class="st3" d="M57.2,221.2H53c-0.7,0-1.2,0.1-1.4,0.3c-0.3,0.2-0.4,0.5-0.4,1s0.1,0.7,0.4,1s0.7,0.3,1.4,0.3
		h4.2v2h-7.7v-2H50c-0.2-0.2-0.3-0.4-0.5-0.7s-0.2-0.7-0.2-1.1c0-1,0.3-1.7,0.9-2.2c0.6-0.5,1.5-0.7,2.6-0.7h4.3V221.2z"/>
	<path id="XMLID_421_" class="st3" d="M56.3,211.5c0.2,0.2,0.4,0.4,0.5,0.7s0.3,0.5,0.4,0.8s0.1,0.7,0.1,1c0,0.5-0.1,1-0.3,1.4
		s-0.5,0.8-0.8,1.1s-0.8,0.6-1.3,0.8c-0.5,0.2-1,0.3-1.6,0.3c-0.6,0-1.1-0.1-1.6-0.3c-0.5-0.2-0.9-0.4-1.3-0.8s-0.6-0.7-0.8-1.2
		c-0.2-0.4-0.3-0.9-0.3-1.5c0-0.7,0.2-1.3,0.5-1.8c0.3-0.5,0.7-0.9,1.2-1.2l1.3,1.3c-0.3,0.2-0.6,0.5-0.8,0.7s-0.3,0.6-0.3,1
		c0,0.5,0.2,0.9,0.6,1.2s0.9,0.4,1.5,0.4c0.6,0,1.1-0.1,1.5-0.4s0.6-0.7,0.6-1.2c0-0.4-0.1-0.7-0.3-1c-0.2-0.3-0.4-0.5-0.7-0.8
		l1.2-1.3C55.9,211.1,56.1,211.3,56.3,211.5z"/>
	<path id="XMLID_418_" class="st3" d="M53.4,203.3c0.1,0,0.3,0,0.4,0c0.1,0,0.2,0,0.3,0v4.6c0.3,0,0.5-0.1,0.7-0.2
		c0.2-0.1,0.3-0.2,0.4-0.4s0.2-0.3,0.2-0.5s0.1-0.4,0.1-0.5c0-0.3,0-0.5-0.1-0.8s-0.2-0.4-0.4-0.6l1.2-1.4c0.4,0.3,0.7,0.7,0.9,1.2
		c0.2,0.5,0.3,1,0.3,1.5c0,0.6-0.1,1.1-0.3,1.5c-0.2,0.4-0.5,0.8-0.8,1.1c-0.3,0.3-0.8,0.5-1.3,0.7c-0.5,0.2-1,0.3-1.6,0.3
		c-0.6,0-1.1-0.1-1.6-0.3c-0.5-0.2-0.9-0.4-1.3-0.7s-0.6-0.7-0.8-1.1s-0.3-0.9-0.3-1.4c0-0.5,0.1-1,0.3-1.4s0.5-0.7,0.9-1
		s0.8-0.5,1.3-0.6S52.8,203.3,53.4,203.3z M52.5,205.2c-0.2,0-0.3,0.1-0.5,0.1c-0.2,0.1-0.3,0.1-0.4,0.3s-0.2,0.3-0.3,0.4
		c-0.1,0.2-0.1,0.4-0.1,0.6c0,0.4,0.1,0.7,0.4,0.9s0.6,0.3,1,0.4V205.2z"/>
	<path id="XMLID_416_" class="st3" d="M57.2,197H53c-0.7,0-1.2,0.1-1.4,0.3s-0.4,0.5-0.4,1c0,0.4,0.1,0.7,0.4,1s0.7,0.3,1.4,0.3h4.2
		v2h-7.7v-2H50c-0.2-0.2-0.3-0.4-0.5-0.7c-0.1-0.3-0.2-0.7-0.2-1.1c0-1,0.3-1.7,0.9-2.2c0.6-0.5,1.5-0.7,2.6-0.7h4.3V197z"/>
	<path id="XMLID_414_" class="st3" d="M56.9,188.9c0.1,0.2,0.2,0.4,0.3,0.7s0.1,0.6,0.1,0.9c0,0.3-0.1,0.6-0.2,0.8s-0.3,0.5-0.5,0.6
		c-0.2,0.2-0.4,0.3-0.7,0.4s-0.6,0.1-0.9,0.1h-3.6v1.3h-1.9v-1.3h-2l-1-2h3v-1.8h1.9v1.8h3.1c0.4,0,0.6-0.1,0.7-0.2
		c0.1-0.1,0.2-0.3,0.2-0.6c0-0.2,0-0.4-0.1-0.5c-0.1-0.2-0.2-0.4-0.5-0.6L56.9,188.9z"/>
	<path id="XMLID_412_" class="st3" d="M51.9,182.2c-0.1,0.2-0.3,0.3-0.4,0.5c-0.1,0.2-0.1,0.4-0.1,0.6c0,0.2,0,0.4,0.1,0.5
		s0.1,0.3,0.3,0.4s0.3,0.2,0.5,0.3c0.2,0.1,0.5,0.1,0.8,0.1h4.2v2h-7.7v-2H50c-0.2-0.2-0.3-0.4-0.5-0.7c-0.1-0.3-0.2-0.6-0.2-0.9
		c0-0.3,0.1-0.6,0.2-0.9s0.2-0.4,0.4-0.6L51.9,182.2z"/>
	<path id="XMLID_409_" class="st3" d="M57.2,176.6h-0.5c0.2,0.2,0.4,0.4,0.5,0.7c0.1,0.3,0.2,0.6,0.2,1c0,0.4-0.1,0.7-0.2,1.1
		c-0.1,0.3-0.3,0.6-0.5,0.9c-0.2,0.3-0.5,0.5-0.8,0.7c-0.3,0.2-0.7,0.2-1.2,0.2c-0.4,0-0.8-0.1-1.1-0.2c-0.3-0.2-0.6-0.4-0.8-0.7
		c-0.2-0.3-0.4-0.6-0.5-1c-0.1-0.4-0.2-0.8-0.2-1.2c0-0.4,0-0.6,0.1-0.9c0.1-0.2,0.1-0.4,0.2-0.6H52c-0.3,0-0.5,0.1-0.7,0.3
		c-0.2,0.2-0.3,0.5-0.3,0.8c0,0.2,0,0.4,0,0.6c0,0.2,0,0.4,0.1,0.5c0,0.2,0.1,0.3,0.2,0.5c0.1,0.2,0.1,0.3,0.2,0.5l-1.4,0.8
		c-0.1-0.2-0.2-0.4-0.3-0.7s-0.2-0.4-0.2-0.7c-0.1-0.2-0.1-0.5-0.1-0.7s-0.1-0.5-0.1-0.8c0-0.5,0.1-0.9,0.2-1.3
		c0.1-0.4,0.3-0.7,0.5-1c0.2-0.3,0.5-0.5,0.8-0.6c0.3-0.2,0.7-0.2,1.1-0.2h5.2V176.6z M54,176.6c-0.1,0.2-0.2,0.4-0.2,0.6
		c-0.1,0.2-0.1,0.5-0.1,0.8c0,0.4,0.1,0.7,0.2,0.9s0.4,0.3,0.7,0.3c0.3,0,0.5-0.1,0.7-0.3c0.2-0.2,0.3-0.5,0.3-0.9
		c0-0.3-0.1-0.6-0.2-0.9s-0.3-0.4-0.5-0.5H54z"/>
	<path id="XMLID_407_" class="st3" d="M56.9,168.4c0.1,0.2,0.2,0.4,0.3,0.7s0.1,0.6,0.1,0.9c0,0.3-0.1,0.6-0.2,0.8s-0.3,0.5-0.5,0.6
		c-0.2,0.2-0.4,0.3-0.7,0.4S55.4,172,55,172h-3.6v1.3h-1.9V172h-2l-1-2h3v-1.8h1.9v1.8h3.1c0.4,0,0.6-0.1,0.7-0.2
		c0.1-0.1,0.2-0.3,0.2-0.6c0-0.2,0-0.4-0.1-0.5c-0.1-0.2-0.2-0.4-0.5-0.6L56.9,168.4z"/>
	<path id="XMLID_404_" class="st3" d="M47.7,164c0.3,0,0.6,0.1,0.8,0.3s0.3,0.5,0.3,0.8s-0.1,0.6-0.3,0.8c-0.2,0.2-0.5,0.3-0.8,0.3
		c-0.3,0-0.6-0.1-0.8-0.3c-0.2-0.2-0.3-0.5-0.3-0.8s0.1-0.6,0.3-0.8C47.1,164.1,47.4,164,47.7,164z M57.2,166.1h-7.7v-2h7.7V166.1z"
		/>
	<path id="XMLID_401_" class="st3" d="M53.4,155.5c0.6,0,1.1,0.1,1.6,0.3c0.5,0.2,0.9,0.4,1.3,0.7s0.6,0.7,0.8,1.1s0.3,0.9,0.3,1.4
		c0,0.5-0.1,1-0.3,1.4c-0.2,0.4-0.5,0.8-0.8,1.1c-0.4,0.3-0.8,0.5-1.3,0.7c-0.5,0.2-1,0.3-1.6,0.3c-0.6,0-1.1-0.1-1.6-0.3
		c-0.5-0.2-0.9-0.4-1.3-0.7c-0.4-0.3-0.6-0.7-0.8-1.1c-0.2-0.4-0.3-0.9-0.3-1.4c0-0.5,0.1-1,0.3-1.4s0.5-0.8,0.8-1.1
		s0.8-0.5,1.3-0.7C52.2,155.6,52.8,155.5,53.4,155.5z M53.4,157.6c-0.6,0-1.1,0.1-1.5,0.4c-0.4,0.2-0.6,0.6-0.6,1.1
		c0,0.5,0.2,0.8,0.6,1.1c0.4,0.2,0.9,0.3,1.5,0.3c0.6,0,1.1-0.1,1.5-0.3s0.6-0.6,0.6-1.1c0-0.2-0.1-0.5-0.2-0.6
		c-0.1-0.2-0.3-0.3-0.5-0.4c-0.2-0.1-0.4-0.2-0.7-0.3C53.9,157.6,53.6,157.6,53.4,157.6z"/>
	<path id="XMLID_399_" class="st3" d="M57.2,149.3H53c-0.7,0-1.2,0.1-1.4,0.3s-0.4,0.5-0.4,1c0,0.4,0.1,0.7,0.4,1s0.7,0.3,1.4,0.3
		h4.2v2h-7.7v-2H50c-0.2-0.2-0.3-0.4-0.5-0.7c-0.1-0.3-0.2-0.7-0.2-1.1c0-1,0.3-1.7,0.9-2.2c0.6-0.5,1.5-0.7,2.6-0.7h4.3V149.3z"/>
</g>
<g id="XMLID_387_">
	<path id="XMLID_395_" class="st3" d="M460.8,17.5c0,0.9-0.1,1.7-0.4,2.3c-0.3,0.6-0.7,1.2-1.2,1.6c-0.5,0.4-1.1,0.7-1.7,0.9
		c-0.6,0.2-1.3,0.3-1.9,0.3h-3.1V12.4h3.2c0.7,0,1.4,0.1,2,0.3c0.6,0.2,1.2,0.5,1.6,0.9c0.5,0.4,0.8,0.9,1.1,1.6
		C460.6,15.8,460.8,16.6,460.8,17.5z M458.7,17.5c0-1-0.2-1.8-0.7-2.4c-0.5-0.5-1.3-0.8-2.3-0.8h-1.1v6.3h1c0.5,0,1-0.1,1.4-0.2
		s0.7-0.4,1-0.6c0.3-0.3,0.4-0.6,0.6-1C458.6,18.4,458.7,18,458.7,17.5z"/>
	<path id="XMLID_392_" class="st3" d="M466.7,22.7v-0.5c-0.2,0.2-0.4,0.4-0.7,0.5c-0.3,0.1-0.6,0.2-1,0.2c-0.4,0-0.7-0.1-1.1-0.2
		c-0.3-0.1-0.6-0.3-0.9-0.5c-0.3-0.2-0.5-0.5-0.7-0.8c-0.2-0.3-0.2-0.7-0.2-1.2c0-0.4,0.1-0.8,0.2-1.1c0.2-0.3,0.4-0.6,0.7-0.8
		c0.3-0.2,0.6-0.4,1-0.5c0.4-0.1,0.8-0.2,1.2-0.2c0.4,0,0.6,0,0.9,0.1c0.2,0.1,0.4,0.1,0.6,0.2v-0.4c0-0.3-0.1-0.5-0.3-0.7
		c-0.2-0.2-0.5-0.3-0.8-0.3c-0.2,0-0.4,0-0.6,0c-0.2,0-0.4,0-0.5,0.1c-0.2,0-0.3,0.1-0.5,0.2c-0.2,0.1-0.3,0.1-0.5,0.2l-0.8-1.4
		c0.2-0.1,0.4-0.2,0.7-0.3s0.4-0.2,0.7-0.2c0.2-0.1,0.5-0.1,0.7-0.1s0.5-0.1,0.8-0.1c0.5,0,0.9,0.1,1.3,0.2c0.4,0.1,0.7,0.3,1,0.5
		c0.3,0.2,0.5,0.5,0.6,0.8c0.2,0.3,0.2,0.7,0.2,1.1v5.2H466.7z M466.7,19.4c-0.2-0.1-0.4-0.2-0.6-0.2c-0.2-0.1-0.5-0.1-0.8-0.1
		c-0.4,0-0.7,0.1-0.9,0.2s-0.3,0.4-0.3,0.7c0,0.3,0.1,0.5,0.3,0.7c0.2,0.2,0.5,0.3,0.9,0.3c0.3,0,0.6-0.1,0.9-0.2s0.4-0.3,0.5-0.5
		V19.4z"/>
	<path id="XMLID_390_" class="st3" d="M473.6,25.4h-2l1-2.7l-3-7.7h2.2l1.3,3.7c0.1,0.3,0.2,0.6,0.3,0.9c0.1,0.3,0.2,0.6,0.2,0.8
		c0-0.2,0.1-0.4,0.2-0.8s0.2-0.6,0.3-0.9l1.3-3.7h2.2L473.6,25.4z"/>
	<path id="XMLID_388_" class="st3" d="M482.9,22.7c0-0.9,0.1-1.6,0.4-2.3c0.3-0.6,0.6-1.2,1-1.7c0.4-0.5,0.9-0.9,1.5-1.2
		c0.6-0.3,1.2-0.7,1.8-0.9c0.4-0.2,0.7-0.4,0.9-0.6c0.2-0.2,0.2-0.4,0.2-0.6c0-0.3-0.1-0.5-0.4-0.7c-0.3-0.2-0.7-0.3-1.3-0.3
		c-0.6,0-1.2,0.1-1.6,0.4c-0.5,0.2-0.9,0.5-1.3,0.9l-1.3-1.5c0.5-0.6,1.2-1,1.9-1.3c0.7-0.3,1.5-0.4,2.3-0.4c1.2,0,2.2,0.2,2.8,0.7
		c0.7,0.5,1,1.2,1,2.2c0,0.4-0.1,0.8-0.2,1.1c-0.1,0.3-0.3,0.6-0.5,0.8s-0.5,0.5-0.8,0.7c-0.3,0.2-0.7,0.4-1.1,0.6
		c-0.5,0.2-0.8,0.4-1.2,0.6c-0.3,0.2-0.6,0.4-0.8,0.6s-0.4,0.4-0.5,0.6s-0.2,0.4-0.2,0.6h5.4v2H482.9z"/>
</g>
<g id="XMLID_350_">
	<path id="XMLID_385_" class="st3" d="M396.1,274.3v9.2h-1.1v-9.2h-3v-1h7.2v1H396.1z"/>
	<path id="XMLID_383_" class="st3" d="M403.7,277c-0.2-0.1-0.3-0.2-0.5-0.2c-0.2-0.1-0.4-0.1-0.7-0.1c-0.5,0-0.9,0.2-1.2,0.6
		c-0.3,0.4-0.4,1-0.4,1.7v4.5h-1.1v-7.7h1.1v1c0.2-0.3,0.4-0.6,0.8-0.8c0.3-0.2,0.7-0.3,1.1-0.3c0.3,0,0.5,0,0.7,0.1
		c0.2,0,0.4,0.1,0.5,0.1L403.7,277z"/>
	<path id="XMLID_380_" class="st3" d="M411.7,279.7c0,0.7-0.1,1.2-0.3,1.7c-0.2,0.5-0.4,0.9-0.7,1.3c-0.3,0.3-0.7,0.6-1.1,0.8
		c-0.4,0.2-0.9,0.3-1.3,0.3s-0.9-0.1-1.3-0.3c-0.4-0.2-0.8-0.4-1-0.8c-0.3-0.3-0.5-0.8-0.7-1.3s-0.3-1.1-0.3-1.7
		c0-0.7,0.1-1.2,0.3-1.7c0.2-0.5,0.4-0.9,0.7-1.3c0.3-0.3,0.7-0.6,1.1-0.8c0.4-0.2,0.9-0.3,1.3-0.3c0.5,0,0.9,0.1,1.3,0.2
		c0.4,0.2,0.8,0.4,1,0.7s0.5,0.7,0.7,1.2C411.6,278.4,411.7,279,411.7,279.7z M410.6,279.7c0-1-0.2-1.8-0.6-2.3s-1-0.8-1.6-0.8
		c-0.7,0-1.2,0.3-1.6,0.8c-0.4,0.5-0.6,1.3-0.6,2.3c0,1,0.2,1.8,0.6,2.3c0.4,0.5,0.9,0.8,1.6,0.8c0.7,0,1.2-0.3,1.6-0.8
		S410.6,280.7,410.6,279.7z"/>
	<path id="XMLID_378_" class="st3" d="M418.4,283.5v-0.9c-0.2,0.3-0.5,0.6-0.9,0.8c-0.4,0.2-0.8,0.3-1.3,0.3c-0.4,0-0.8-0.1-1.1-0.2
		c-0.3-0.1-0.6-0.3-0.8-0.6c-0.2-0.3-0.4-0.6-0.5-1c-0.1-0.4-0.2-0.9-0.2-1.4v-4.7h1.1v4.5c0,0.8,0.1,1.4,0.4,1.8s0.8,0.6,1.4,0.6
		c0.5,0,1-0.2,1.3-0.6c0.4-0.4,0.5-1,0.5-1.8v-4.5h1.1v7.7H418.4z"/>
	<path id="XMLID_375_" class="st3" d="M427.7,282.9c0,0.6-0.1,1.1-0.2,1.5c-0.1,0.4-0.4,0.8-0.7,1.1s-0.7,0.5-1.2,0.7
		s-1.1,0.2-1.8,0.3l-0.4-0.8c0.6,0,1.2-0.1,1.6-0.2c0.4-0.1,0.7-0.2,1-0.4s0.4-0.5,0.5-0.8s0.1-0.7,0.1-1.1v-0.4
		c-0.3,0.3-0.6,0.5-1,0.8c-0.4,0.2-0.8,0.3-1.3,0.3c-0.4,0-0.7-0.1-1.1-0.2c-0.3-0.2-0.6-0.4-0.9-0.7c-0.2-0.3-0.4-0.7-0.6-1.2
		c-0.1-0.5-0.2-1.1-0.2-1.7c0-0.7,0.1-1.3,0.2-1.8s0.4-0.9,0.6-1.3c0.3-0.3,0.6-0.6,0.9-0.8c0.4-0.2,0.7-0.3,1.1-0.3
		c0.5,0,0.9,0.1,1.2,0.3c0.3,0.2,0.6,0.4,0.9,0.7v-0.9h1.1V282.9z M426.6,277.8c-0.2-0.3-0.5-0.6-0.9-0.8c-0.4-0.2-0.8-0.3-1.2-0.3
		c-0.6,0-1.1,0.3-1.4,0.8c-0.3,0.5-0.5,1.3-0.5,2.4c0,1,0.2,1.7,0.5,2.2c0.3,0.5,0.8,0.7,1.4,0.7c0.4,0,0.8-0.1,1.1-0.3
		c0.3-0.2,0.6-0.5,0.9-0.8V277.8z"/>
	<path id="XMLID_373_" class="st3" d="M435,283.5V279c0-0.8-0.1-1.4-0.4-1.8c-0.3-0.4-0.8-0.6-1.4-0.6c-0.5,0-1,0.2-1.3,0.6
		s-0.5,1-0.5,1.8v4.5h-1.1v-10.1l1.1-0.6l0,3.9c0.2-0.3,0.5-0.6,0.9-0.8s0.8-0.3,1.3-0.3c0.4,0,0.8,0.1,1.1,0.2s0.6,0.3,0.9,0.6
		c0.2,0.3,0.4,0.6,0.5,1c0.1,0.4,0.2,0.9,0.2,1.4v4.7H435z"/>
	<path id="XMLID_370_" class="st3" d="M439.9,276.7c0,0.3-0.1,0.5-0.3,0.7c-0.2,0.2-0.4,0.3-0.7,0.3s-0.5-0.1-0.7-0.3
		s-0.3-0.4-0.3-0.7s0.1-0.5,0.3-0.7c0.2-0.2,0.4-0.3,0.7-0.3s0.5,0.1,0.7,0.3C439.8,276.2,439.9,276.4,439.9,276.7z M439.9,282.8
		c0,0.3-0.1,0.5-0.3,0.7c-0.2,0.2-0.4,0.3-0.7,0.3s-0.5-0.1-0.7-0.3s-0.3-0.4-0.3-0.7c0-0.3,0.1-0.5,0.3-0.7s0.4-0.3,0.7-0.3
		s0.5,0.1,0.7,0.3C439.8,282.3,439.9,282.5,439.9,282.8z"/>
	<path id="XMLID_368_" class="st3" d="M452.2,280.9c0,0.4-0.1,0.8-0.2,1.1s-0.4,0.7-0.7,0.9s-0.6,0.5-1.1,0.6
		c-0.4,0.1-0.9,0.2-1.4,0.2c-0.7,0-1.3-0.1-1.9-0.4c-0.6-0.3-1.1-0.6-1.5-1l0.8-0.8c0.4,0.4,0.8,0.7,1.3,0.9
		c0.4,0.2,0.9,0.3,1.5,0.3c0.7,0,1.2-0.2,1.6-0.5c0.4-0.3,0.6-0.7,0.6-1.3c0-0.2,0-0.4-0.1-0.6c-0.1-0.2-0.2-0.4-0.4-0.5
		s-0.4-0.3-0.8-0.5s-0.7-0.3-1.2-0.5c-0.6-0.2-1-0.4-1.4-0.6c-0.4-0.2-0.7-0.4-0.9-0.6s-0.4-0.5-0.5-0.8s-0.2-0.6-0.2-1
		c0-0.4,0.1-0.8,0.2-1.1c0.2-0.3,0.4-0.6,0.7-0.8s0.6-0.4,1-0.5c0.4-0.1,0.8-0.2,1.3-0.2c0.7,0,1.3,0.1,1.8,0.3
		c0.5,0.2,0.9,0.5,1.4,0.8l-0.7,0.9c-0.4-0.3-0.7-0.5-1.1-0.7c-0.4-0.2-0.8-0.2-1.3-0.2c-0.4,0-0.7,0-0.9,0.1s-0.5,0.2-0.6,0.3
		c-0.2,0.1-0.3,0.3-0.4,0.5s-0.1,0.4-0.1,0.6c0,0.2,0,0.4,0.1,0.6s0.2,0.3,0.4,0.5c0.2,0.2,0.4,0.3,0.7,0.5c0.3,0.2,0.7,0.3,1.3,0.5
		c0.6,0.2,1,0.4,1.4,0.6c0.4,0.2,0.7,0.4,0.9,0.7c0.2,0.2,0.4,0.5,0.5,0.8S452.2,280.5,452.2,280.9z"/>
	<path id="XMLID_365_" class="st3" d="M460.2,279.5c0,0.1,0,0.2,0,0.3c0,0.1,0,0.2,0,0.3H455c0,0.8,0.3,1.5,0.6,2
		c0.4,0.5,0.9,0.7,1.5,0.7c0.4,0,0.8-0.1,1.1-0.2c0.3-0.1,0.6-0.3,1-0.5l0.5,0.8c-0.2,0.1-0.5,0.3-0.7,0.4c-0.2,0.1-0.4,0.2-0.6,0.3
		s-0.4,0.1-0.7,0.2s-0.5,0.1-0.8,0.1c-0.4,0-0.7-0.1-1.1-0.2s-0.7-0.4-1-0.7c-0.3-0.3-0.5-0.7-0.7-1.3s-0.3-1.2-0.3-1.9
		c0-0.6,0.1-1.2,0.2-1.7c0.2-0.5,0.4-0.9,0.7-1.2s0.6-0.6,1-0.8c0.4-0.2,0.8-0.3,1.3-0.3c0.5,0,0.9,0.1,1.3,0.3
		c0.4,0.2,0.7,0.4,1,0.8c0.3,0.3,0.5,0.7,0.6,1.2C460.1,278.4,460.2,278.9,460.2,279.5z M459.2,279.2c0-0.8-0.2-1.4-0.6-1.8
		s-0.8-0.7-1.5-0.7c-0.6,0-1,0.2-1.4,0.6c-0.4,0.4-0.6,1.1-0.6,1.9H459.2z"/>
	<path id="XMLID_362_" class="st3" d="M463.6,273.7c0,0.2-0.1,0.4-0.2,0.5s-0.3,0.2-0.5,0.2c-0.2,0-0.4-0.1-0.6-0.2
		c-0.2-0.2-0.2-0.3-0.2-0.5c0-0.2,0.1-0.4,0.2-0.6c0.2-0.2,0.3-0.2,0.6-0.2c0.2,0,0.4,0.1,0.5,0.2S463.6,273.5,463.6,273.7z
		 M462.3,283.5v-7.7h1.1v7.7H462.3z"/>
	<path id="XMLID_360_" class="st3" d="M465.5,283.5v-0.8l4.2-5.9h-3.9v-0.9h5.1v0.8l-4.2,5.9h4.2v0.9H465.5z"/>
	<path id="XMLID_358_" class="st3" d="M477.8,283.5v-0.9c-0.2,0.3-0.5,0.6-0.9,0.8c-0.4,0.2-0.8,0.3-1.3,0.3c-0.4,0-0.8-0.1-1.1-0.2
		c-0.3-0.1-0.6-0.3-0.8-0.6c-0.2-0.3-0.4-0.6-0.5-1c-0.1-0.4-0.2-0.9-0.2-1.4v-4.7h1.1v4.5c0,0.8,0.1,1.4,0.4,1.8s0.8,0.6,1.4,0.6
		c0.5,0,1-0.2,1.3-0.6c0.4-0.4,0.5-1,0.5-1.8v-4.5h1.1v7.7H477.8z"/>
	<path id="XMLID_356_" class="st3" d="M485.2,277c-0.2-0.1-0.3-0.2-0.5-0.2c-0.2-0.1-0.4-0.1-0.7-0.1c-0.5,0-0.9,0.2-1.2,0.6
		c-0.3,0.4-0.4,1-0.4,1.7v4.5h-1.1v-7.7h1.1v1c0.2-0.3,0.4-0.6,0.8-0.8c0.3-0.2,0.7-0.3,1.1-0.3c0.3,0,0.5,0,0.7,0.1
		c0.2,0,0.4,0.1,0.5,0.1L485.2,277z"/>
	<path id="XMLID_353_" class="st3" d="M492.7,279.5c0,0.1,0,0.2,0,0.3c0,0.1,0,0.2,0,0.3h-5.1c0,0.8,0.3,1.5,0.6,2
		c0.4,0.5,0.9,0.7,1.5,0.7c0.4,0,0.8-0.1,1.1-0.2c0.3-0.1,0.6-0.3,1-0.5l0.5,0.8c-0.2,0.1-0.5,0.3-0.7,0.4c-0.2,0.1-0.4,0.2-0.6,0.3
		s-0.4,0.1-0.7,0.2s-0.5,0.1-0.8,0.1c-0.4,0-0.7-0.1-1.1-0.2s-0.7-0.4-1-0.7c-0.3-0.3-0.5-0.7-0.7-1.3s-0.3-1.2-0.3-1.9
		c0-0.6,0.1-1.2,0.2-1.7c0.2-0.5,0.4-0.9,0.7-1.2s0.6-0.6,1-0.8c0.4-0.2,0.8-0.3,1.3-0.3c0.5,0,0.9,0.1,1.3,0.3
		c0.4,0.2,0.7,0.4,1,0.8c0.3,0.3,0.5,0.7,0.6,1.2C492.7,278.4,492.7,278.9,492.7,279.5z M491.7,279.2c0-0.8-0.2-1.4-0.6-1.8
		s-0.8-0.7-1.5-0.7c-0.6,0-1,0.2-1.4,0.6c-0.4,0.4-0.6,1.1-0.6,1.9H491.7z"/>
	<path id="XMLID_351_" class="st3" d="M499.4,281.5c0,0.4-0.1,0.7-0.2,1c-0.2,0.3-0.3,0.5-0.6,0.7s-0.5,0.3-0.8,0.4
		c-0.3,0.1-0.6,0.1-1,0.1c-0.5,0-1-0.1-1.5-0.3c-0.5-0.2-0.9-0.4-1.2-0.7l0.6-0.8c0.3,0.3,0.6,0.5,1,0.6c0.4,0.1,0.7,0.2,1.1,0.2
		c0.5,0,0.9-0.1,1.2-0.3s0.4-0.5,0.4-0.9c0-0.2,0-0.3-0.1-0.4c-0.1-0.1-0.2-0.3-0.3-0.4s-0.3-0.2-0.6-0.4c-0.2-0.1-0.5-0.3-0.9-0.4
		c-0.4-0.2-0.7-0.3-1-0.5s-0.5-0.3-0.7-0.5s-0.3-0.4-0.4-0.6s-0.1-0.5-0.1-0.8c0-0.3,0.1-0.6,0.2-0.8c0.1-0.2,0.3-0.4,0.5-0.6
		c0.2-0.2,0.5-0.3,0.8-0.4s0.6-0.1,1-0.1c0.5,0,1,0.1,1.4,0.2c0.4,0.2,0.8,0.3,1.1,0.6l-0.6,0.8c-0.3-0.2-0.6-0.4-0.9-0.5
		c-0.3-0.1-0.6-0.2-1-0.2s-0.7,0.1-0.9,0.3s-0.3,0.4-0.3,0.7c0,0.2,0,0.3,0.1,0.4c0.1,0.1,0.1,0.2,0.3,0.3s0.3,0.2,0.5,0.3
		c0.2,0.1,0.5,0.2,0.8,0.4c0.4,0.2,0.7,0.3,1,0.5c0.3,0.1,0.5,0.3,0.7,0.5s0.4,0.4,0.5,0.6S499.4,281.2,499.4,281.5z"/>
</g>
<g id="XMLID_309_">
	<path id="XMLID_347_" class="st3" d="M108.7,56.1c0,0.5-0.1,1-0.3,1.4c-0.2,0.4-0.4,0.7-0.7,1c-0.3,0.3-0.7,0.5-1.1,0.6
		s-0.9,0.2-1.4,0.2h-2.5v4h-1.1V53h3.8c0.5,0,0.9,0.1,1.3,0.2c0.4,0.1,0.7,0.3,1,0.6c0.3,0.3,0.5,0.6,0.7,1
		C108.6,55.1,108.7,55.6,108.7,56.1z M107.5,56.2c0-0.7-0.2-1.2-0.6-1.5s-0.9-0.5-1.6-0.5h-2.6v4.1h2.5
		C106.8,58.2,107.5,57.5,107.5,56.2z"/>
	<path id="XMLID_344_" class="st3" d="M116.1,59.2c0,0.1,0,0.2,0,0.3c0,0.1,0,0.2,0,0.3H111c0,0.8,0.3,1.5,0.6,2
		c0.4,0.5,0.9,0.7,1.5,0.7c0.4,0,0.8-0.1,1.1-0.2c0.3-0.1,0.6-0.3,1-0.5l0.5,0.8c-0.2,0.1-0.5,0.3-0.7,0.4c-0.2,0.1-0.4,0.2-0.6,0.3
		c-0.2,0.1-0.4,0.1-0.7,0.2c-0.2,0-0.5,0.1-0.8,0.1c-0.4,0-0.7-0.1-1.1-0.2s-0.7-0.4-1-0.7c-0.3-0.3-0.5-0.7-0.7-1.3
		s-0.3-1.2-0.3-1.9c0-0.6,0.1-1.2,0.2-1.7c0.2-0.5,0.4-0.9,0.7-1.2s0.6-0.6,1-0.8s0.8-0.3,1.3-0.3c0.5,0,0.9,0.1,1.3,0.3
		c0.4,0.2,0.7,0.4,1,0.8s0.5,0.7,0.6,1.2C116,58.2,116.1,58.7,116.1,59.2z M115.1,58.9c0-0.8-0.2-1.4-0.6-1.8s-0.8-0.7-1.5-0.7
		c-0.6,0-1,0.2-1.4,0.6c-0.4,0.4-0.6,1.1-0.6,1.9H115.1z"/>
	<path id="XMLID_341_" class="st3" d="M122.5,63.3v-0.9c-0.3,0.3-0.6,0.5-1,0.8c-0.4,0.2-0.9,0.3-1.4,0.3c-0.3,0-0.6,0-0.9-0.1
		s-0.6-0.2-0.8-0.4c-0.2-0.2-0.4-0.4-0.6-0.8s-0.2-0.7-0.2-1.2c0-0.4,0.1-0.8,0.2-1.1s0.4-0.6,0.7-0.8c0.3-0.2,0.6-0.3,0.9-0.4
		c0.4-0.1,0.7-0.1,1.1-0.1c0.4,0,0.8,0,1.1,0.1c0.3,0.1,0.6,0.2,0.8,0.3v-0.9c0-1.1-0.6-1.7-1.7-1.7c-0.4,0-0.8,0.1-1.1,0.2
		c-0.3,0.1-0.7,0.2-1,0.4l-0.4-0.9c0.3-0.2,0.7-0.3,1.2-0.5c0.4-0.1,0.9-0.2,1.4-0.2c0.8,0,1.5,0.2,2,0.6c0.5,0.4,0.7,1,0.7,1.9v5.4
		H122.5z M122.5,59.9c-0.3-0.1-0.5-0.2-0.8-0.3c-0.3-0.1-0.7-0.1-1.1-0.1c-0.6,0-1,0.1-1.3,0.4c-0.3,0.3-0.5,0.6-0.5,1.1
		c0,0.6,0.1,1,0.4,1.3c0.3,0.3,0.7,0.4,1.1,0.4c0.5,0,0.9-0.1,1.3-0.3s0.7-0.5,0.9-0.8V59.9z"/>
	<path id="XMLID_339_" class="st3" d="M130.3,63.3l-1.9-4l-1.3,1.8v2.2H126V53.2l1.1-0.6v6.6v0.4l0.3-0.5l2.5-3.6h1.2l-2,2.7l2.4,5
		H130.3z"/>
	<path id="XMLID_336_" class="st3" d="M134.8,56.4c0,0.3-0.1,0.5-0.3,0.7c-0.2,0.2-0.4,0.3-0.7,0.3s-0.5-0.1-0.7-0.3
		s-0.3-0.4-0.3-0.7s0.1-0.5,0.3-0.7s0.4-0.3,0.7-0.3s0.5,0.1,0.7,0.3C134.7,55.9,134.8,56.2,134.8,56.4z M134.8,62.5
		c0,0.3-0.1,0.5-0.3,0.7c-0.2,0.2-0.4,0.3-0.7,0.3s-0.5-0.1-0.7-0.3c-0.2-0.2-0.3-0.4-0.3-0.7s0.1-0.5,0.3-0.7
		c0.2-0.2,0.4-0.3,0.7-0.3s0.5,0.1,0.7,0.3C134.7,62,134.8,62.3,134.8,62.5z"/>
	<path id="XMLID_334_" class="st3" d="M147,60.6c0,0.4-0.1,0.8-0.2,1.1c-0.2,0.4-0.4,0.7-0.7,0.9s-0.6,0.5-1.1,0.6
		c-0.4,0.1-0.9,0.2-1.4,0.2c-0.7,0-1.3-0.1-1.9-0.4c-0.6-0.3-1.1-0.6-1.5-1l0.8-0.8c0.4,0.4,0.8,0.7,1.3,0.9
		c0.4,0.2,0.9,0.3,1.5,0.3c0.7,0,1.2-0.2,1.6-0.5c0.4-0.3,0.6-0.7,0.6-1.3c0-0.2,0-0.4-0.1-0.6s-0.2-0.4-0.4-0.5
		c-0.2-0.2-0.4-0.3-0.8-0.5s-0.7-0.3-1.2-0.5c-0.6-0.2-1-0.4-1.4-0.6c-0.4-0.2-0.7-0.4-0.9-0.6c-0.2-0.2-0.4-0.5-0.5-0.8
		s-0.2-0.6-0.2-1c0-0.4,0.1-0.8,0.2-1.1c0.2-0.3,0.4-0.6,0.7-0.8s0.6-0.4,1-0.5c0.4-0.1,0.8-0.2,1.3-0.2c0.7,0,1.3,0.1,1.8,0.3
		c0.5,0.2,0.9,0.5,1.4,0.8l-0.7,0.9c-0.4-0.3-0.7-0.5-1.1-0.7c-0.4-0.2-0.8-0.2-1.3-0.2c-0.4,0-0.7,0-0.9,0.1
		c-0.3,0.1-0.5,0.2-0.6,0.3c-0.2,0.1-0.3,0.3-0.4,0.5c-0.1,0.2-0.1,0.4-0.1,0.6c0,0.2,0,0.4,0.1,0.6c0.1,0.2,0.2,0.3,0.4,0.5
		c0.2,0.2,0.4,0.3,0.7,0.5c0.3,0.2,0.7,0.3,1.3,0.5c0.6,0.2,1,0.4,1.4,0.6c0.4,0.2,0.7,0.4,0.9,0.7c0.2,0.2,0.4,0.5,0.5,0.8
		C147,59.9,147,60.2,147,60.6z"/>
	<path id="XMLID_331_" class="st3" d="M150.7,53.5c0,0.2-0.1,0.4-0.2,0.5c-0.2,0.2-0.3,0.2-0.5,0.2c-0.2,0-0.4-0.1-0.6-0.2
		c-0.2-0.2-0.2-0.3-0.2-0.5c0-0.2,0.1-0.4,0.2-0.6c0.2-0.2,0.3-0.2,0.6-0.2c0.2,0,0.4,0.1,0.5,0.2C150.6,53,150.7,53.2,150.7,53.5z
		 M149.4,63.3v-7.7h1.1v7.7H149.4z"/>
	<path id="XMLID_328_" class="st3" d="M157.6,63.3v-0.9c-0.3,0.3-0.6,0.5-1,0.8c-0.4,0.2-0.8,0.3-1.3,0.3c-0.4,0-0.7-0.1-1.1-0.2
		c-0.3-0.2-0.6-0.4-0.9-0.7c-0.2-0.3-0.4-0.7-0.6-1.2c-0.1-0.5-0.2-1.1-0.2-1.8c0-0.7,0.1-1.3,0.2-1.8c0.2-0.5,0.4-0.9,0.6-1.3
		c0.3-0.3,0.6-0.6,0.9-0.8c0.4-0.2,0.7-0.3,1.1-0.3c0.5,0,0.9,0.1,1.2,0.3c0.3,0.2,0.6,0.4,0.9,0.7v-3.2l1.1-0.6v10.7H157.6z
		 M157.6,57.5c-0.2-0.3-0.5-0.6-0.9-0.8c-0.4-0.2-0.8-0.3-1.2-0.3c-0.6,0-1.1,0.3-1.4,0.8c-0.3,0.5-0.5,1.3-0.5,2.4
		c0,1,0.2,1.7,0.5,2.2c0.3,0.5,0.8,0.7,1.4,0.7c0.4,0,0.8-0.1,1.1-0.3c0.3-0.2,0.6-0.5,0.9-0.8V57.5z"/>
	<path id="XMLID_325_" class="st3" d="M167,59.2c0,0.1,0,0.2,0,0.3c0,0.1,0,0.2,0,0.3h-5.1c0,0.8,0.3,1.5,0.6,2
		c0.4,0.5,0.9,0.7,1.5,0.7c0.4,0,0.8-0.1,1.1-0.2c0.3-0.1,0.6-0.3,1-0.5l0.5,0.8c-0.2,0.1-0.5,0.3-0.7,0.4c-0.2,0.1-0.4,0.2-0.6,0.3
		c-0.2,0.1-0.4,0.1-0.7,0.2c-0.2,0-0.5,0.1-0.8,0.1c-0.4,0-0.7-0.1-1.1-0.2s-0.7-0.4-1-0.7c-0.3-0.3-0.5-0.7-0.7-1.3
		s-0.3-1.2-0.3-1.9c0-0.6,0.1-1.2,0.2-1.7c0.2-0.5,0.4-0.9,0.7-1.2s0.6-0.6,1-0.8s0.8-0.3,1.3-0.3c0.5,0,0.9,0.1,1.3,0.3
		c0.4,0.2,0.7,0.4,1,0.8s0.5,0.7,0.6,1.2C166.9,58.2,167,58.7,167,59.2z M166,58.9c0-0.8-0.2-1.4-0.6-1.8s-0.8-0.7-1.5-0.7
		c-0.6,0-1,0.2-1.4,0.6c-0.4,0.4-0.6,1.1-0.6,1.9H166z"/>
	<path id="XMLID_323_" class="st3" d="M173,63.3V53h6.2v1h-5.1v3.2h2.9v1h-2.9v3.9h5.3v1H173z"/>
	<path id="XMLID_321_" class="st3" d="M183.6,53.7c-0.2,0-0.4,0.1-0.6,0.2c-0.2,0.1-0.2,0.3-0.2,0.6v1.1h1.5v0.9h-1.5v6.8h-1.1v-6.8
		h-1.1v-0.9h1.1v-1.1c0-0.7,0.2-1.2,0.5-1.5c0.3-0.3,0.8-0.4,1.3-0.4c0.2,0,0.4,0,0.5,0c0.1,0,0.3,0.1,0.4,0.1v1
		C184.3,53.7,184,53.7,183.6,53.7z"/>
	<path id="XMLID_319_" class="st3" d="M188.6,53.7c-0.2,0-0.4,0.1-0.6,0.2c-0.2,0.1-0.2,0.3-0.2,0.6v1.1h1.5v0.9h-1.5v6.8h-1.1v-6.8
		h-1.1v-0.9h1.1v-1.1c0-0.7,0.2-1.2,0.5-1.5c0.3-0.3,0.8-0.4,1.3-0.4c0.2,0,0.4,0,0.5,0c0.1,0,0.3,0.1,0.4,0.1v1
		C189.3,53.7,189,53.7,188.6,53.7z"/>
	<path id="XMLID_316_" class="st3" d="M197,59.2c0,0.1,0,0.2,0,0.3c0,0.1,0,0.2,0,0.3h-5.1c0,0.8,0.3,1.5,0.6,2
		c0.4,0.5,0.9,0.7,1.5,0.7c0.4,0,0.8-0.1,1.1-0.2c0.3-0.1,0.6-0.3,1-0.5l0.5,0.8c-0.2,0.1-0.5,0.3-0.7,0.4c-0.2,0.1-0.4,0.2-0.6,0.3
		c-0.2,0.1-0.4,0.1-0.7,0.2c-0.2,0-0.5,0.1-0.8,0.1c-0.4,0-0.7-0.1-1.1-0.2s-0.7-0.4-1-0.7c-0.3-0.3-0.5-0.7-0.7-1.3
		s-0.3-1.2-0.3-1.9c0-0.6,0.1-1.2,0.2-1.7c0.2-0.5,0.4-0.9,0.7-1.2s0.6-0.6,1-0.8s0.8-0.3,1.3-0.3c0.5,0,0.9,0.1,1.3,0.3
		c0.4,0.2,0.7,0.4,1,0.8s0.5,0.7,0.6,1.2C196.9,58.2,197,58.7,197,59.2z M195.9,58.9c0-0.8-0.2-1.4-0.6-1.8s-0.8-0.7-1.5-0.7
		c-0.6,0-1,0.2-1.4,0.6c-0.4,0.4-0.6,1.1-0.6,1.9H195.9z"/>
	<path id="XMLID_314_" class="st3" d="M203.7,57.2c-0.3-0.3-0.6-0.4-0.8-0.6c-0.3-0.1-0.6-0.2-1-0.2c-0.3,0-0.6,0.1-0.8,0.2
		s-0.5,0.3-0.7,0.6c-0.2,0.3-0.3,0.6-0.4,0.9s-0.2,0.8-0.2,1.3c0,1,0.2,1.7,0.6,2.3c0.4,0.6,0.9,0.8,1.6,0.8c0.4,0,0.7-0.1,1-0.2
		c0.3-0.1,0.5-0.3,0.8-0.6l0.7,0.7c-0.3,0.3-0.7,0.6-1.1,0.8s-0.9,0.3-1.4,0.3c-0.4,0-0.8-0.1-1.2-0.2c-0.4-0.2-0.7-0.4-1-0.7
		s-0.5-0.7-0.7-1.2c-0.2-0.5-0.3-1.1-0.3-1.8c0-0.7,0.1-1.3,0.3-1.8c0.2-0.5,0.4-0.9,0.8-1.3c0.3-0.3,0.7-0.6,1.1-0.7
		c0.4-0.2,0.8-0.2,1.2-0.2c0.5,0,1,0.1,1.4,0.3s0.7,0.4,1,0.6L203.7,57.2z"/>
	<path id="XMLID_312_" class="st3" d="M207.7,56.5v5c0,0.3,0.1,0.6,0.2,0.7c0.1,0.1,0.3,0.2,0.6,0.2c0.2,0,0.4,0,0.6-0.1
		c0.2,0,0.3-0.1,0.5-0.2l-0.1,1c-0.2,0.1-0.4,0.2-0.7,0.2c-0.2,0-0.5,0.1-0.8,0.1c-0.5,0-0.8-0.1-1.1-0.4c-0.3-0.3-0.4-0.7-0.4-1.4
		v-5.2h-1v-0.9h1v-2.4l1.1-0.6v3h1.9v0.9H207.7z"/>
	<path id="XMLID_310_" class="st3" d="M216.4,61.3c0,0.4-0.1,0.7-0.2,1s-0.3,0.5-0.6,0.7s-0.5,0.3-0.8,0.4s-0.6,0.1-1,0.1
		c-0.5,0-1-0.1-1.5-0.3c-0.5-0.2-0.9-0.4-1.2-0.7l0.6-0.8c0.3,0.3,0.6,0.5,1,0.6s0.7,0.2,1.1,0.2c0.5,0,0.9-0.1,1.2-0.3
		s0.4-0.5,0.4-0.9c0-0.2,0-0.3-0.1-0.4c-0.1-0.1-0.2-0.3-0.3-0.4c-0.1-0.1-0.3-0.2-0.6-0.4c-0.2-0.1-0.5-0.3-0.9-0.4
		c-0.4-0.2-0.7-0.3-1-0.5s-0.5-0.3-0.7-0.5s-0.3-0.4-0.4-0.6c-0.1-0.2-0.1-0.5-0.1-0.8c0-0.3,0.1-0.6,0.2-0.8s0.3-0.4,0.5-0.6
		c0.2-0.2,0.5-0.3,0.8-0.4s0.6-0.1,1-0.1c0.5,0,1,0.1,1.4,0.2c0.4,0.2,0.8,0.3,1.1,0.6l-0.6,0.8c-0.3-0.2-0.6-0.4-0.9-0.5
		s-0.6-0.2-1-0.2s-0.7,0.1-0.9,0.3s-0.3,0.4-0.3,0.7c0,0.2,0,0.3,0.1,0.4s0.1,0.2,0.3,0.3s0.3,0.2,0.5,0.3c0.2,0.1,0.5,0.2,0.8,0.4
		c0.4,0.2,0.7,0.3,1,0.5c0.3,0.1,0.5,0.3,0.7,0.5s0.4,0.4,0.5,0.6S216.4,61,216.4,61.3z"/>
</g>
<g id="XMLID_253_">
	<path id="XMLID_307_" class="st3" d="M145.9,263.7v-10.2h1.1v10.2H145.9z"/>
	<path id="XMLID_305_" class="st3" d="M158.6,263.7v-4.5c0-0.9-0.1-1.5-0.4-1.9s-0.7-0.5-1.2-0.5c-0.5,0-0.9,0.2-1.2,0.6
		c-0.3,0.4-0.5,1-0.5,1.8v4.5h-1.1v-4.5c0-0.9-0.1-1.5-0.4-1.9s-0.7-0.5-1.2-0.5c-0.5,0-0.9,0.2-1.2,0.6c-0.3,0.4-0.5,1-0.5,1.8v4.5
		h-1.1V256h1.1l0,0.9c0.2-0.3,0.5-0.6,0.8-0.8c0.3-0.2,0.7-0.3,1.2-0.3c0.5,0,1,0.1,1.3,0.4c0.3,0.3,0.6,0.6,0.8,0.9
		c0.1-0.2,0.2-0.4,0.4-0.5s0.3-0.3,0.5-0.4s0.4-0.2,0.6-0.3c0.2-0.1,0.5-0.1,0.8-0.1c0.8,0,1.4,0.2,1.9,0.7c0.5,0.5,0.7,1.3,0.7,2.4
		v4.7H158.6z"/>
	<path id="XMLID_303_" class="st3" d="M171.1,263.7v-4.5c0-0.9-0.1-1.5-0.4-1.9s-0.7-0.5-1.2-0.5c-0.5,0-0.9,0.2-1.2,0.6
		c-0.3,0.4-0.5,1-0.5,1.8v4.5h-1.1v-4.5c0-0.9-0.1-1.5-0.4-1.9s-0.7-0.5-1.2-0.5c-0.5,0-0.9,0.2-1.2,0.6c-0.3,0.4-0.5,1-0.5,1.8v4.5
		h-1.1V256h1.1l0,0.9c0.2-0.3,0.5-0.6,0.8-0.8c0.3-0.2,0.7-0.3,1.2-0.3c0.5,0,1,0.1,1.3,0.4c0.3,0.3,0.6,0.6,0.8,0.9
		c0.1-0.2,0.2-0.4,0.4-0.5s0.3-0.3,0.5-0.4s0.4-0.2,0.6-0.3c0.2-0.1,0.5-0.1,0.8-0.1c0.8,0,1.4,0.2,1.9,0.7c0.5,0.5,0.7,1.3,0.7,2.4
		v4.7H171.1z"/>
	<path id="XMLID_300_" class="st3" d="M180.4,259.6c0,0.1,0,0.2,0,0.3c0,0.1,0,0.2,0,0.3h-5.1c0,0.8,0.3,1.5,0.6,2
		c0.4,0.5,0.9,0.7,1.5,0.7c0.4,0,0.8-0.1,1.1-0.2c0.3-0.1,0.6-0.3,1-0.5l0.5,0.8c-0.2,0.1-0.5,0.3-0.7,0.4c-0.2,0.1-0.4,0.2-0.6,0.3
		s-0.4,0.1-0.7,0.2s-0.5,0.1-0.8,0.1c-0.4,0-0.7-0.1-1.1-0.2s-0.7-0.4-1-0.7c-0.3-0.3-0.5-0.7-0.7-1.3s-0.3-1.2-0.3-1.9
		c0-0.6,0.1-1.2,0.2-1.7c0.2-0.5,0.4-0.9,0.7-1.2s0.6-0.6,1-0.8c0.4-0.2,0.8-0.3,1.3-0.3c0.5,0,0.9,0.1,1.3,0.3
		c0.4,0.2,0.7,0.4,1,0.8c0.3,0.3,0.5,0.7,0.6,1.2C180.3,258.6,180.4,259.1,180.4,259.6z M179.4,259.3c0-0.8-0.2-1.4-0.6-1.8
		s-0.8-0.7-1.5-0.7c-0.6,0-1,0.2-1.4,0.6c-0.4,0.4-0.6,1.1-0.6,1.9H179.4z"/>
	<path id="XMLID_297_" class="st3" d="M187.1,263.7v-0.9c-0.3,0.3-0.6,0.5-1,0.8c-0.4,0.2-0.8,0.3-1.3,0.3c-0.4,0-0.7-0.1-1.1-0.2
		c-0.3-0.2-0.6-0.4-0.9-0.7c-0.2-0.3-0.4-0.7-0.6-1.2c-0.1-0.5-0.2-1.1-0.2-1.7c0-0.7,0.1-1.3,0.2-1.8s0.4-0.9,0.6-1.3
		c0.3-0.3,0.6-0.6,0.9-0.8c0.4-0.2,0.7-0.3,1.1-0.3c0.5,0,0.9,0.1,1.2,0.3c0.3,0.2,0.6,0.4,0.9,0.7v-3.2l1.1-0.6v10.7H187.1z
		 M187.1,258c-0.2-0.3-0.5-0.6-0.9-0.8c-0.4-0.2-0.8-0.3-1.2-0.3c-0.6,0-1.1,0.3-1.4,0.8c-0.3,0.5-0.5,1.3-0.5,2.4
		c0,1,0.2,1.7,0.5,2.2c0.3,0.5,0.8,0.7,1.4,0.7c0.4,0,0.8-0.1,1.1-0.3c0.3-0.2,0.6-0.5,0.9-0.8V258z"/>
	<path id="XMLID_294_" class="st3" d="M192,253.9c0,0.2-0.1,0.4-0.2,0.5s-0.3,0.2-0.5,0.2c-0.2,0-0.4-0.1-0.6-0.2
		c-0.2-0.2-0.2-0.3-0.2-0.5c0-0.2,0.1-0.4,0.2-0.6c0.2-0.2,0.3-0.2,0.6-0.2c0.2,0,0.4,0.1,0.5,0.2S192,253.6,192,253.9z
		 M190.7,263.7V256h1.1v7.7H190.7z"/>
	<path id="XMLID_291_" class="st3" d="M198.7,263.7v-0.9c-0.3,0.3-0.6,0.5-1,0.8c-0.4,0.2-0.9,0.3-1.4,0.3c-0.3,0-0.6,0-0.9-0.1
		c-0.3-0.1-0.6-0.2-0.8-0.4c-0.2-0.2-0.4-0.4-0.6-0.8s-0.2-0.7-0.2-1.2c0-0.4,0.1-0.8,0.2-1.1s0.4-0.6,0.7-0.8
		c0.3-0.2,0.6-0.3,0.9-0.4c0.4-0.1,0.7-0.1,1.1-0.1c0.4,0,0.8,0,1.1,0.1c0.3,0.1,0.6,0.2,0.8,0.3v-0.9c0-1.1-0.6-1.7-1.7-1.7
		c-0.4,0-0.8,0.1-1.1,0.2c-0.3,0.1-0.7,0.2-1,0.4l-0.4-0.9c0.3-0.2,0.7-0.3,1.2-0.5c0.4-0.1,0.9-0.2,1.4-0.2c0.8,0,1.5,0.2,2,0.6
		c0.5,0.4,0.7,1,0.7,1.9v5.4H198.7z M198.7,260.3c-0.3-0.1-0.5-0.2-0.8-0.3c-0.3-0.1-0.7-0.1-1.1-0.1c-0.6,0-1,0.1-1.3,0.4
		s-0.5,0.6-0.5,1.1c0,0.6,0.1,1,0.4,1.3c0.3,0.3,0.7,0.4,1.1,0.4c0.5,0,0.9-0.1,1.3-0.3c0.4-0.2,0.7-0.5,0.9-0.8V260.3z"/>
	<path id="XMLID_289_" class="st3" d="M203.6,257v5c0,0.3,0.1,0.6,0.2,0.7c0.1,0.1,0.3,0.2,0.6,0.2c0.2,0,0.4,0,0.6-0.1
		c0.2,0,0.3-0.1,0.5-0.2l-0.1,1c-0.2,0.1-0.4,0.2-0.7,0.2c-0.2,0-0.5,0.1-0.8,0.1c-0.5,0-0.8-0.1-1.1-0.4c-0.3-0.3-0.4-0.7-0.4-1.4
		V257h-1V256h1v-2.4l1.1-0.6v3h1.9v0.9H203.6z"/>
	<path id="XMLID_286_" class="st3" d="M213.2,259.6c0,0.1,0,0.2,0,0.3c0,0.1,0,0.2,0,0.3h-5.1c0,0.8,0.3,1.5,0.6,2
		c0.4,0.5,0.9,0.7,1.5,0.7c0.4,0,0.8-0.1,1.1-0.2c0.3-0.1,0.6-0.3,1-0.5l0.5,0.8c-0.2,0.1-0.5,0.3-0.7,0.4c-0.2,0.1-0.4,0.2-0.6,0.3
		s-0.4,0.1-0.7,0.2s-0.5,0.1-0.8,0.1c-0.4,0-0.7-0.1-1.1-0.2s-0.7-0.4-1-0.7c-0.3-0.3-0.5-0.7-0.7-1.3s-0.3-1.2-0.3-1.9
		c0-0.6,0.1-1.2,0.2-1.7c0.2-0.5,0.4-0.9,0.7-1.2s0.6-0.6,1-0.8c0.4-0.2,0.8-0.3,1.3-0.3c0.5,0,0.9,0.1,1.3,0.3
		c0.4,0.2,0.7,0.4,1,0.8c0.3,0.3,0.5,0.7,0.6,1.2C213.1,258.6,213.2,259.1,213.2,259.6z M212.2,259.3c0-0.8-0.2-1.4-0.6-1.8
		s-0.8-0.7-1.5-0.7c-0.6,0-1,0.2-1.4,0.6c-0.4,0.4-0.6,1.1-0.6,1.9H212.2z"/>
	<path id="XMLID_284_" class="st3" d="M214.8,258.9v-1.1h3.2v1.1H214.8z"/>
	<path id="XMLID_282_" class="st3" d="M223.9,257.2c-0.2-0.1-0.3-0.2-0.5-0.2c-0.2-0.1-0.4-0.1-0.7-0.1c-0.5,0-0.9,0.2-1.2,0.6
		c-0.3,0.4-0.4,1-0.4,1.7v4.5H220V256h1.1v1c0.2-0.3,0.4-0.6,0.8-0.8c0.3-0.2,0.7-0.3,1.1-0.3c0.3,0,0.5,0,0.7,0.1
		c0.2,0,0.4,0.1,0.5,0.1L223.9,257.2z"/>
	<path id="XMLID_279_" class="st3" d="M231.4,259.6c0,0.1,0,0.2,0,0.3c0,0.1,0,0.2,0,0.3h-5.1c0,0.8,0.3,1.5,0.6,2
		c0.4,0.5,0.9,0.7,1.5,0.7c0.4,0,0.8-0.1,1.1-0.2c0.3-0.1,0.6-0.3,1-0.5l0.5,0.8c-0.2,0.1-0.5,0.3-0.7,0.4c-0.2,0.1-0.4,0.2-0.6,0.3
		s-0.4,0.1-0.7,0.2s-0.5,0.1-0.8,0.1c-0.4,0-0.7-0.1-1.1-0.2s-0.7-0.4-1-0.7c-0.3-0.3-0.5-0.7-0.7-1.3s-0.3-1.2-0.3-1.9
		c0-0.6,0.1-1.2,0.2-1.7c0.2-0.5,0.4-0.9,0.7-1.2s0.6-0.6,1-0.8c0.4-0.2,0.8-0.3,1.3-0.3c0.5,0,0.9,0.1,1.3,0.3
		c0.4,0.2,0.7,0.4,1,0.8c0.3,0.3,0.5,0.7,0.6,1.2C231.4,258.6,231.4,259.1,231.4,259.6z M230.4,259.3c0-0.8-0.2-1.4-0.6-1.8
		s-0.8-0.7-1.5-0.7c-0.6,0-1,0.2-1.4,0.6c-0.4,0.4-0.6,1.1-0.6,1.9H230.4z"/>
	<path id="XMLID_277_" class="st3" d="M233.6,263.7v-10.1l1.1-0.6v10.7H233.6z"/>
	<path id="XMLID_274_" class="st3" d="M243,259.6c0,0.1,0,0.2,0,0.3c0,0.1,0,0.2,0,0.3h-5.1c0,0.8,0.3,1.5,0.6,2
		c0.4,0.5,0.9,0.7,1.5,0.7c0.4,0,0.8-0.1,1.1-0.2c0.3-0.1,0.6-0.3,1-0.5l0.5,0.8c-0.2,0.1-0.5,0.3-0.7,0.4c-0.2,0.1-0.4,0.2-0.6,0.3
		s-0.4,0.1-0.7,0.2s-0.5,0.1-0.8,0.1c-0.4,0-0.7-0.1-1.1-0.2s-0.7-0.4-1-0.7c-0.3-0.3-0.5-0.7-0.7-1.3s-0.3-1.2-0.3-1.9
		c0-0.6,0.1-1.2,0.2-1.7c0.2-0.5,0.4-0.9,0.7-1.2s0.6-0.6,1-0.8c0.4-0.2,0.8-0.3,1.3-0.3c0.5,0,0.9,0.1,1.3,0.3
		c0.4,0.2,0.7,0.4,1,0.8c0.3,0.3,0.5,0.7,0.6,1.2C243,258.6,243,259.1,243,259.6z M242,259.3c0-0.8-0.2-1.4-0.6-1.8
		s-0.8-0.7-1.5-0.7c-0.6,0-1,0.2-1.4,0.6c-0.4,0.4-0.6,1.1-0.6,1.9H242z"/>
	<path id="XMLID_271_" class="st3" d="M249.4,263.7v-0.9c-0.3,0.3-0.6,0.5-1,0.8c-0.4,0.2-0.9,0.3-1.4,0.3c-0.3,0-0.6,0-0.9-0.1
		c-0.3-0.1-0.6-0.2-0.8-0.4c-0.2-0.2-0.4-0.4-0.6-0.8s-0.2-0.7-0.2-1.2c0-0.4,0.1-0.8,0.2-1.1s0.4-0.6,0.7-0.8
		c0.3-0.2,0.6-0.3,0.9-0.4c0.4-0.1,0.7-0.1,1.1-0.1c0.4,0,0.8,0,1.1,0.1c0.3,0.1,0.6,0.2,0.8,0.3v-0.9c0-1.1-0.6-1.7-1.7-1.7
		c-0.4,0-0.8,0.1-1.1,0.2c-0.3,0.1-0.7,0.2-1,0.4l-0.4-0.9c0.3-0.2,0.7-0.3,1.2-0.5c0.4-0.1,0.9-0.2,1.4-0.2c0.8,0,1.5,0.2,2,0.6
		c0.5,0.4,0.7,1,0.7,1.9v5.4H249.4z M249.4,260.3c-0.3-0.1-0.5-0.2-0.8-0.3c-0.3-0.1-0.7-0.1-1.1-0.1c-0.6,0-1,0.1-1.3,0.4
		s-0.5,0.6-0.5,1.1c0,0.6,0.1,1,0.4,1.3c0.3,0.3,0.7,0.4,1.1,0.4c0.5,0,0.9-0.1,1.3-0.3c0.4-0.2,0.7-0.5,0.9-0.8V260.3z"/>
	<path id="XMLID_269_" class="st3" d="M257.6,261.7c0,0.4-0.1,0.7-0.2,1c-0.2,0.3-0.3,0.5-0.6,0.7s-0.5,0.3-0.8,0.4
		c-0.3,0.1-0.6,0.1-1,0.1c-0.5,0-1-0.1-1.5-0.3c-0.5-0.2-0.9-0.4-1.2-0.7l0.6-0.8c0.3,0.3,0.6,0.5,1,0.6c0.4,0.1,0.7,0.2,1.1,0.2
		c0.5,0,0.9-0.1,1.2-0.3s0.4-0.5,0.4-0.9c0-0.2,0-0.3-0.1-0.4c-0.1-0.1-0.2-0.3-0.3-0.4s-0.3-0.2-0.6-0.4c-0.2-0.1-0.5-0.3-0.9-0.4
		c-0.4-0.2-0.7-0.3-1-0.5s-0.5-0.3-0.7-0.5s-0.3-0.4-0.4-0.6s-0.1-0.5-0.1-0.8c0-0.3,0.1-0.6,0.2-0.8c0.1-0.2,0.3-0.4,0.5-0.6
		c0.2-0.2,0.5-0.3,0.8-0.4s0.6-0.1,1-0.1c0.5,0,1,0.1,1.4,0.2c0.4,0.2,0.8,0.3,1.1,0.6l-0.6,0.8c-0.3-0.2-0.6-0.4-0.9-0.5
		c-0.3-0.1-0.6-0.2-1-0.2s-0.7,0.1-0.9,0.3s-0.3,0.4-0.3,0.7c0,0.2,0,0.3,0.1,0.4c0.1,0.1,0.1,0.2,0.3,0.3s0.3,0.2,0.5,0.3
		c0.2,0.1,0.5,0.2,0.8,0.4c0.4,0.2,0.7,0.3,1,0.5c0.3,0.1,0.5,0.3,0.7,0.5s0.4,0.4,0.5,0.6S257.6,261.4,257.6,261.7z"/>
	<path id="XMLID_266_" class="st3" d="M265.4,259.6c0,0.1,0,0.2,0,0.3c0,0.1,0,0.2,0,0.3h-5.1c0,0.8,0.3,1.5,0.6,2
		c0.4,0.5,0.9,0.7,1.5,0.7c0.4,0,0.8-0.1,1.1-0.2c0.3-0.1,0.6-0.3,1-0.5l0.5,0.8c-0.2,0.1-0.5,0.3-0.7,0.4c-0.2,0.1-0.4,0.2-0.6,0.3
		s-0.4,0.1-0.7,0.2s-0.5,0.1-0.8,0.1c-0.4,0-0.7-0.1-1.1-0.2s-0.7-0.4-1-0.7c-0.3-0.3-0.5-0.7-0.7-1.3s-0.3-1.2-0.3-1.9
		c0-0.6,0.1-1.2,0.2-1.7c0.2-0.5,0.4-0.9,0.7-1.2s0.6-0.6,1-0.8c0.4-0.2,0.8-0.3,1.3-0.3c0.5,0,0.9,0.1,1.3,0.3
		c0.4,0.2,0.7,0.4,1,0.8c0.3,0.3,0.5,0.7,0.6,1.2C265.4,258.6,265.4,259.1,265.4,259.6z M264.4,259.3c0-0.8-0.2-1.4-0.6-1.8
		s-0.8-0.7-1.5-0.7c-0.6,0-1,0.2-1.4,0.6c-0.4,0.4-0.6,1.1-0.6,1.9H264.4z"/>
	<path id="XMLID_264_" class="st3" d="M274,265.3c-0.4-0.3-0.7-0.7-1.1-1.1c-0.4-0.4-0.7-0.9-0.9-1.4c-0.3-0.5-0.5-1-0.7-1.6
		c-0.2-0.6-0.3-1.2-0.3-1.9c0-0.7,0.1-1.4,0.3-1.9s0.4-1.1,0.7-1.6s0.6-1,0.9-1.4c0.4-0.4,0.7-0.8,1.1-1.1l0.5,0.5
		c-0.4,0.4-0.7,0.7-1,1.1s-0.5,0.8-0.7,1.3c-0.2,0.5-0.4,0.9-0.5,1.5c-0.1,0.5-0.2,1.1-0.2,1.7c0,0.6,0.1,1.2,0.2,1.7s0.3,1,0.5,1.5
		c0.2,0.5,0.4,0.9,0.7,1.3c0.3,0.4,0.6,0.8,1,1.1L274,265.3z"/>
	<path id="XMLID_262_" class="st3" d="M277.5,257v5c0,0.3,0.1,0.6,0.2,0.7c0.1,0.1,0.3,0.2,0.6,0.2c0.2,0,0.4,0,0.6-0.1
		c0.2,0,0.3-0.1,0.5-0.2l-0.1,1c-0.2,0.1-0.4,0.2-0.7,0.2c-0.2,0-0.5,0.1-0.8,0.1c-0.5,0-0.8-0.1-1.1-0.4c-0.3-0.3-0.4-0.7-0.4-1.4
		V257h-1V256h1v-2.4l1.1-0.6v3h1.9v0.9H277.5z"/>
	<path id="XMLID_259_" class="st3" d="M282.9,253.9c0,0.2-0.1,0.4-0.2,0.5s-0.3,0.2-0.5,0.2c-0.2,0-0.4-0.1-0.6-0.2
		c-0.2-0.2-0.2-0.3-0.2-0.5c0-0.2,0.1-0.4,0.2-0.6c0.2-0.2,0.3-0.2,0.6-0.2c0.2,0,0.4,0.1,0.5,0.2S282.9,253.6,282.9,253.9z
		 M281.6,263.7V256h1.1v7.7H281.6z"/>
	<path id="XMLID_256_" class="st3" d="M289.9,263.7v-0.9c-0.3,0.3-0.6,0.5-1,0.8c-0.4,0.2-0.8,0.3-1.3,0.3c-0.4,0-0.7-0.1-1.1-0.2
		c-0.3-0.2-0.6-0.4-0.9-0.7c-0.2-0.3-0.4-0.7-0.6-1.2c-0.1-0.5-0.2-1.1-0.2-1.7c0-0.7,0.1-1.3,0.2-1.8s0.4-0.9,0.6-1.3
		c0.3-0.3,0.6-0.6,0.9-0.8c0.4-0.2,0.7-0.3,1.1-0.3c0.5,0,0.9,0.1,1.2,0.3c0.3,0.2,0.6,0.4,0.9,0.7v-3.2l1.1-0.6v10.7H289.9z
		 M289.9,258c-0.2-0.3-0.5-0.6-0.9-0.8c-0.4-0.2-0.8-0.3-1.2-0.3c-0.6,0-1.1,0.3-1.4,0.8c-0.3,0.5-0.5,1.3-0.5,2.4
		c0,1,0.2,1.7,0.5,2.2c0.3,0.5,0.8,0.7,1.4,0.7c0.4,0,0.8-0.1,1.1-0.3c0.3-0.2,0.6-0.5,0.9-0.8V258z"/>
	<path id="XMLID_254_" class="st3" d="M296.3,259.2c0,0.7-0.1,1.4-0.3,1.9c-0.2,0.6-0.4,1.1-0.7,1.6s-0.6,1-0.9,1.4
		c-0.4,0.4-0.7,0.8-1.1,1.1l-0.5-0.5c0.7-0.7,1.3-1.5,1.7-2.4c0.4-0.9,0.6-1.9,0.6-3.1c0-0.6-0.1-1.2-0.2-1.7
		c-0.1-0.5-0.3-1-0.5-1.5c-0.2-0.5-0.4-0.9-0.7-1.3c-0.3-0.4-0.6-0.8-1-1.1l0.5-0.5c0.4,0.3,0.7,0.7,1.1,1.1
		c0.4,0.4,0.7,0.9,0.9,1.4c0.3,0.5,0.5,1,0.7,1.6C296.3,257.9,296.3,258.6,296.3,259.2z"/>
</g>
<g id="XMLID_202_">
	<path id="XMLID_251_" class="st3" d="M144.4,288v-10.2h6.2v1h-5.1v3.2h2.9v1h-2.9v3.9h5.3v1H144.4z"/>
	<path id="XMLID_249_" class="st3" d="M157.1,288l-1.5-2.7l-0.2-0.4l-0.2,0.4l-1.5,2.7h-1.1l2.4-4l-2.2-3.7h1.2l1.4,2.4l0.2,0.4
		l0.2-0.4l1.4-2.4h1.1l-2.2,3.7l2.4,4H157.1z"/>
	<path id="XMLID_247_" class="st3" d="M161.7,281.2v5c0,0.3,0.1,0.6,0.2,0.7c0.1,0.1,0.3,0.2,0.6,0.2c0.2,0,0.4,0,0.6-0.1
		c0.2,0,0.3-0.1,0.5-0.2l-0.1,1c-0.2,0.1-0.4,0.2-0.7,0.2c-0.2,0-0.5,0.1-0.8,0.1c-0.5,0-0.8-0.1-1.1-0.4c-0.3-0.3-0.4-0.7-0.4-1.4
		v-5.2h-1v-0.9h1v-2.4l1.1-0.6v3h1.9v0.9H161.7z"/>
	<path id="XMLID_244_" class="st3" d="M171.2,283.9c0,0.1,0,0.2,0,0.3c0,0.1,0,0.2,0,0.3h-5.1c0,0.8,0.3,1.5,0.6,2
		c0.4,0.5,0.9,0.7,1.5,0.7c0.4,0,0.8-0.1,1.1-0.2c0.3-0.1,0.6-0.3,1-0.5l0.5,0.8c-0.2,0.1-0.5,0.3-0.7,0.4c-0.2,0.1-0.4,0.2-0.6,0.3
		s-0.4,0.1-0.7,0.2s-0.5,0.1-0.8,0.1c-0.4,0-0.7-0.1-1.1-0.2s-0.7-0.4-1-0.7c-0.3-0.3-0.5-0.7-0.7-1.3s-0.3-1.2-0.3-1.9
		c0-0.6,0.1-1.2,0.2-1.7c0.2-0.5,0.4-0.9,0.7-1.2s0.6-0.6,1-0.8c0.4-0.2,0.8-0.3,1.3-0.3c0.5,0,0.9,0.1,1.3,0.3
		c0.4,0.2,0.7,0.4,1,0.8c0.3,0.3,0.5,0.7,0.6,1.2C171.2,282.9,171.2,283.4,171.2,283.9z M170.2,283.6c0-0.8-0.2-1.4-0.6-1.8
		s-0.8-0.7-1.5-0.7c-0.6,0-1,0.2-1.4,0.6c-0.4,0.4-0.6,1.1-0.6,1.9H170.2z"/>
	<path id="XMLID_242_" class="st3" d="M178.1,288v-4.5c0-0.8-0.1-1.4-0.4-1.8c-0.3-0.4-0.8-0.6-1.4-0.6c-0.5,0-1,0.2-1.3,0.6
		s-0.5,1-0.5,1.8v4.5h-1.1v-7.7h1.1l0,0.9c0.2-0.3,0.5-0.6,0.9-0.8s0.8-0.3,1.3-0.3c0.4,0,0.8,0.1,1.1,0.2s0.6,0.3,0.9,0.6
		c0.2,0.3,0.4,0.6,0.5,1c0.1,0.4,0.2,0.9,0.2,1.4v4.7H178.1z"/>
	<path id="XMLID_239_" class="st3" d="M186.3,288v-0.9c-0.3,0.3-0.6,0.5-1,0.8c-0.4,0.2-0.8,0.3-1.3,0.3c-0.4,0-0.7-0.1-1.1-0.2
		c-0.3-0.2-0.6-0.4-0.9-0.7c-0.2-0.3-0.4-0.7-0.6-1.2c-0.1-0.5-0.2-1.1-0.2-1.7c0-0.7,0.1-1.3,0.2-1.8s0.4-0.9,0.6-1.3
		c0.3-0.3,0.6-0.6,0.9-0.8c0.4-0.2,0.7-0.3,1.1-0.3c0.5,0,0.9,0.1,1.2,0.3c0.3,0.2,0.6,0.4,0.9,0.7v-3.2l1.1-0.6V288H186.3z
		 M186.3,282.2c-0.2-0.3-0.5-0.6-0.9-0.8c-0.4-0.2-0.8-0.3-1.2-0.3c-0.6,0-1.1,0.3-1.4,0.8c-0.3,0.5-0.5,1.3-0.5,2.4
		c0,1,0.2,1.7,0.5,2.2c0.3,0.5,0.8,0.7,1.4,0.7c0.4,0,0.8-0.1,1.1-0.3c0.3-0.2,0.6-0.5,0.9-0.8V282.2z"/>
	<path id="XMLID_236_" class="st3" d="M195.6,283.9c0,0.1,0,0.2,0,0.3c0,0.1,0,0.2,0,0.3h-5.1c0,0.8,0.3,1.5,0.6,2
		c0.4,0.5,0.9,0.7,1.5,0.7c0.4,0,0.8-0.1,1.1-0.2c0.3-0.1,0.6-0.3,1-0.5l0.5,0.8c-0.2,0.1-0.5,0.3-0.7,0.4c-0.2,0.1-0.4,0.2-0.6,0.3
		s-0.4,0.1-0.7,0.2s-0.5,0.1-0.8,0.1c-0.4,0-0.7-0.1-1.1-0.2s-0.7-0.4-1-0.7c-0.3-0.3-0.5-0.7-0.7-1.3s-0.3-1.2-0.3-1.9
		c0-0.6,0.1-1.2,0.2-1.7c0.2-0.5,0.4-0.9,0.7-1.2s0.6-0.6,1-0.8c0.4-0.2,0.8-0.3,1.3-0.3c0.5,0,0.9,0.1,1.3,0.3
		c0.4,0.2,0.7,0.4,1,0.8c0.3,0.3,0.5,0.7,0.6,1.2C195.6,282.9,195.6,283.4,195.6,283.9z M194.6,283.6c0-0.8-0.2-1.4-0.6-1.8
		s-0.8-0.7-1.5-0.7c-0.6,0-1,0.2-1.4,0.6c-0.4,0.4-0.6,1.1-0.6,1.9H194.6z"/>
	<path id="XMLID_233_" class="st3" d="M202.4,288v-0.9c-0.3,0.3-0.6,0.5-1,0.8c-0.4,0.2-0.8,0.3-1.3,0.3c-0.4,0-0.7-0.1-1.1-0.2
		c-0.3-0.2-0.6-0.4-0.9-0.7c-0.2-0.3-0.4-0.7-0.6-1.2c-0.1-0.5-0.2-1.1-0.2-1.7c0-0.7,0.1-1.3,0.2-1.8s0.4-0.9,0.6-1.3
		c0.3-0.3,0.6-0.6,0.9-0.8c0.4-0.2,0.7-0.3,1.1-0.3c0.5,0,0.9,0.1,1.2,0.3c0.3,0.2,0.6,0.4,0.9,0.7v-3.2l1.1-0.6V288H202.4z
		 M202.4,282.2c-0.2-0.3-0.5-0.6-0.9-0.8c-0.4-0.2-0.8-0.3-1.2-0.3c-0.6,0-1.1,0.3-1.4,0.8c-0.3,0.5-0.5,1.3-0.5,2.4
		c0,1,0.2,1.7,0.5,2.2c0.3,0.5,0.8,0.7,1.4,0.7c0.4,0,0.8-0.1,1.1-0.3c0.3-0.2,0.6-0.5,0.9-0.8V282.2z"/>
	<path id="XMLID_231_" class="st3" d="M205.4,283.2v-1.1h3.2v1.1H205.4z"/>
	<path id="XMLID_229_" class="st3" d="M214.5,281.4c-0.2-0.1-0.3-0.2-0.5-0.2c-0.2-0.1-0.4-0.1-0.7-0.1c-0.5,0-0.9,0.2-1.2,0.6
		c-0.3,0.4-0.4,1-0.4,1.7v4.5h-1.1v-7.7h1.1v1c0.2-0.3,0.4-0.6,0.8-0.8c0.3-0.2,0.7-0.3,1.1-0.3c0.3,0,0.5,0,0.7,0.1
		c0.2,0,0.4,0.1,0.5,0.1L214.5,281.4z"/>
	<path id="XMLID_226_" class="st3" d="M222,283.9c0,0.1,0,0.2,0,0.3c0,0.1,0,0.2,0,0.3h-5.1c0,0.8,0.3,1.5,0.6,2
		c0.4,0.5,0.9,0.7,1.5,0.7c0.4,0,0.8-0.1,1.1-0.2c0.3-0.1,0.6-0.3,1-0.5l0.5,0.8c-0.2,0.1-0.5,0.3-0.7,0.4c-0.2,0.1-0.4,0.2-0.6,0.3
		s-0.4,0.1-0.7,0.2s-0.5,0.1-0.8,0.1c-0.4,0-0.7-0.1-1.1-0.2s-0.7-0.4-1-0.7c-0.3-0.3-0.5-0.7-0.7-1.3s-0.3-1.2-0.3-1.9
		c0-0.6,0.1-1.2,0.2-1.7c0.2-0.5,0.4-0.9,0.7-1.2s0.6-0.6,1-0.8c0.4-0.2,0.8-0.3,1.3-0.3c0.5,0,0.9,0.1,1.3,0.3
		c0.4,0.2,0.7,0.4,1,0.8c0.3,0.3,0.5,0.7,0.6,1.2C222,282.9,222,283.4,222,283.9z M221,283.6c0-0.8-0.2-1.4-0.6-1.8
		s-0.8-0.7-1.5-0.7c-0.6,0-1,0.2-1.4,0.6c-0.4,0.4-0.6,1.1-0.6,1.9H221z"/>
	<path id="XMLID_224_" class="st3" d="M224.2,288v-10.1l1.1-0.6V288H224.2z"/>
	<path id="XMLID_221_" class="st3" d="M233.6,283.9c0,0.1,0,0.2,0,0.3c0,0.1,0,0.2,0,0.3h-5.1c0,0.8,0.3,1.5,0.6,2
		c0.4,0.5,0.9,0.7,1.5,0.7c0.4,0,0.8-0.1,1.1-0.2c0.3-0.1,0.6-0.3,1-0.5l0.5,0.8c-0.2,0.1-0.5,0.3-0.7,0.4c-0.2,0.1-0.4,0.2-0.6,0.3
		s-0.4,0.1-0.7,0.2s-0.5,0.1-0.8,0.1c-0.4,0-0.7-0.1-1.1-0.2s-0.7-0.4-1-0.7c-0.3-0.3-0.5-0.7-0.7-1.3s-0.3-1.2-0.3-1.9
		c0-0.6,0.1-1.2,0.2-1.7c0.2-0.5,0.4-0.9,0.7-1.2s0.6-0.6,1-0.8c0.4-0.2,0.8-0.3,1.3-0.3c0.5,0,0.9,0.1,1.3,0.3
		c0.4,0.2,0.7,0.4,1,0.8c0.3,0.3,0.5,0.7,0.6,1.2C233.6,282.9,233.6,283.4,233.6,283.9z M232.6,283.6c0-0.8-0.2-1.4-0.6-1.8
		s-0.8-0.7-1.5-0.7c-0.6,0-1,0.2-1.4,0.6c-0.4,0.4-0.6,1.1-0.6,1.9H232.6z"/>
	<path id="XMLID_218_" class="st3" d="M240,288v-0.9c-0.3,0.3-0.6,0.5-1,0.8c-0.4,0.2-0.9,0.3-1.4,0.3c-0.3,0-0.6,0-0.9-0.1
		c-0.3-0.1-0.6-0.2-0.8-0.4c-0.2-0.2-0.4-0.4-0.6-0.8s-0.2-0.7-0.2-1.2c0-0.4,0.1-0.8,0.2-1.1s0.4-0.6,0.7-0.8
		c0.3-0.2,0.6-0.3,0.9-0.4c0.4-0.1,0.7-0.1,1.1-0.1c0.4,0,0.8,0,1.1,0.1c0.3,0.1,0.6,0.2,0.8,0.3v-0.9c0-1.1-0.6-1.7-1.7-1.7
		c-0.4,0-0.8,0.1-1.1,0.2c-0.3,0.1-0.7,0.2-1,0.4l-0.4-0.9c0.3-0.2,0.7-0.3,1.2-0.5c0.4-0.1,0.9-0.2,1.4-0.2c0.8,0,1.5,0.2,2,0.6
		c0.5,0.4,0.7,1,0.7,1.9v5.4H240z M240,284.6c-0.3-0.1-0.5-0.2-0.8-0.3c-0.3-0.1-0.7-0.1-1.1-0.1c-0.6,0-1,0.1-1.3,0.4
		s-0.5,0.6-0.5,1.1c0,0.6,0.1,1,0.4,1.3c0.3,0.3,0.7,0.4,1.1,0.4c0.5,0,0.9-0.1,1.3-0.3c0.4-0.2,0.7-0.5,0.9-0.8V284.6z"/>
	<path id="XMLID_216_" class="st3" d="M248.2,286c0,0.4-0.1,0.7-0.2,1c-0.2,0.3-0.3,0.5-0.6,0.7s-0.5,0.3-0.8,0.4
		c-0.3,0.1-0.6,0.1-1,0.1c-0.5,0-1-0.1-1.5-0.3c-0.5-0.2-0.9-0.4-1.2-0.7l0.6-0.8c0.3,0.3,0.6,0.5,1,0.6c0.4,0.1,0.7,0.2,1.1,0.2
		c0.5,0,0.9-0.1,1.2-0.3s0.4-0.5,0.4-0.9c0-0.2,0-0.3-0.1-0.4c-0.1-0.1-0.2-0.3-0.3-0.4s-0.3-0.2-0.6-0.4c-0.2-0.1-0.5-0.3-0.9-0.4
		c-0.4-0.2-0.7-0.3-1-0.5s-0.5-0.3-0.7-0.5s-0.3-0.4-0.4-0.6s-0.1-0.5-0.1-0.8c0-0.3,0.1-0.6,0.2-0.8c0.1-0.2,0.3-0.4,0.5-0.6
		c0.2-0.2,0.5-0.3,0.8-0.4s0.6-0.1,1-0.1c0.5,0,1,0.1,1.4,0.2c0.4,0.2,0.8,0.3,1.1,0.6l-0.6,0.8c-0.3-0.2-0.6-0.4-0.9-0.5
		c-0.3-0.1-0.6-0.2-1-0.2s-0.7,0.1-0.9,0.3s-0.3,0.4-0.3,0.7c0,0.2,0,0.3,0.1,0.4c0.1,0.1,0.1,0.2,0.3,0.3s0.3,0.2,0.5,0.3
		c0.2,0.1,0.5,0.2,0.8,0.4c0.4,0.2,0.7,0.3,1,0.5c0.3,0.1,0.5,0.3,0.7,0.5s0.4,0.4,0.5,0.6S248.2,285.6,248.2,286z"/>
	<path id="XMLID_213_" class="st3" d="M256,283.9c0,0.1,0,0.2,0,0.3c0,0.1,0,0.2,0,0.3h-5.1c0,0.8,0.3,1.5,0.6,2
		c0.4,0.5,0.9,0.7,1.5,0.7c0.4,0,0.8-0.1,1.1-0.2c0.3-0.1,0.6-0.3,1-0.5l0.5,0.8c-0.2,0.1-0.5,0.3-0.7,0.4c-0.2,0.1-0.4,0.2-0.6,0.3
		s-0.4,0.1-0.7,0.2s-0.5,0.1-0.8,0.1c-0.4,0-0.7-0.1-1.1-0.2s-0.7-0.4-1-0.7c-0.3-0.3-0.5-0.7-0.7-1.3s-0.3-1.2-0.3-1.9
		c0-0.6,0.1-1.2,0.2-1.7c0.2-0.5,0.4-0.9,0.7-1.2s0.6-0.6,1-0.8c0.4-0.2,0.8-0.3,1.3-0.3c0.5,0,0.9,0.1,1.3,0.3
		c0.4,0.2,0.7,0.4,1,0.8c0.3,0.3,0.5,0.7,0.6,1.2C255.9,282.9,256,283.4,256,283.9z M255,283.6c0-0.8-0.2-1.4-0.6-1.8
		s-0.8-0.7-1.5-0.7c-0.6,0-1,0.2-1.4,0.6c-0.4,0.4-0.6,1.1-0.6,1.9H255z"/>
	<path id="XMLID_211_" class="st3" d="M264.5,289.6c-0.4-0.3-0.7-0.7-1.1-1.1c-0.4-0.4-0.7-0.9-0.9-1.4c-0.3-0.5-0.5-1-0.7-1.6
		c-0.2-0.6-0.3-1.2-0.3-1.9c0-0.7,0.1-1.4,0.3-1.9s0.4-1.1,0.7-1.6s0.6-1,0.9-1.4c0.4-0.4,0.7-0.8,1.1-1.1l0.5,0.5
		c-0.4,0.4-0.7,0.7-1,1.1s-0.5,0.8-0.7,1.3c-0.2,0.5-0.4,0.9-0.5,1.5c-0.1,0.5-0.2,1.1-0.2,1.7c0,0.6,0.1,1.2,0.2,1.7s0.3,1,0.5,1.5
		c0.2,0.5,0.4,0.9,0.7,1.3c0.3,0.4,0.6,0.8,1,1.1L264.5,289.6z"/>
	<path id="XMLID_208_" class="st3" d="M271,290.8v-3.8c-0.3,0.3-0.6,0.5-1,0.8c-0.4,0.2-0.8,0.3-1.3,0.3c-0.4,0-0.7-0.1-1.1-0.2
		c-0.3-0.2-0.6-0.4-0.9-0.7c-0.2-0.3-0.4-0.7-0.6-1.2c-0.1-0.5-0.2-1.1-0.2-1.7c0-0.7,0.1-1.3,0.2-1.8s0.4-0.9,0.6-1.3
		c0.3-0.3,0.6-0.6,0.9-0.8c0.4-0.2,0.7-0.3,1.1-0.3c0.5,0,0.9,0.1,1.2,0.3c0.3,0.2,0.6,0.4,0.9,0.7v-0.9h1.1v9.9L271,290.8z
		 M271,282.2c-0.2-0.3-0.5-0.6-0.9-0.8c-0.4-0.2-0.8-0.3-1.2-0.3c-0.6,0-1.1,0.3-1.4,0.8c-0.3,0.5-0.5,1.3-0.5,2.4
		c0,1,0.2,1.7,0.5,2.2c0.3,0.5,0.8,0.7,1.4,0.7c0.4,0,0.8-0.1,1.1-0.3c0.3-0.2,0.6-0.5,0.9-0.8V282.2z"/>
	<path id="XMLID_205_" class="st3" d="M279.2,288v-0.9c-0.3,0.3-0.6,0.5-1,0.8c-0.4,0.2-0.8,0.3-1.3,0.3c-0.4,0-0.7-0.1-1.1-0.2
		c-0.3-0.2-0.6-0.4-0.9-0.7c-0.2-0.3-0.4-0.7-0.6-1.2c-0.1-0.5-0.2-1.1-0.2-1.7c0-0.7,0.1-1.3,0.2-1.8s0.4-0.9,0.6-1.3
		c0.3-0.3,0.6-0.6,0.9-0.8c0.4-0.2,0.7-0.3,1.1-0.3c0.5,0,0.9,0.1,1.2,0.3c0.3,0.2,0.6,0.4,0.9,0.7v-3.2l1.1-0.6V288H279.2z
		 M279.2,282.2c-0.2-0.3-0.5-0.6-0.9-0.8c-0.4-0.2-0.8-0.3-1.2-0.3c-0.6,0-1.1,0.3-1.4,0.8c-0.3,0.5-0.5,1.3-0.5,2.4
		c0,1,0.2,1.7,0.5,2.2c0.3,0.5,0.8,0.7,1.4,0.7c0.4,0,0.8-0.1,1.1-0.3c0.3-0.2,0.6-0.5,0.9-0.8V282.2z"/>
	<path id="XMLID_203_" class="st3" d="M285.7,283.5c0,0.7-0.1,1.4-0.3,1.9c-0.2,0.6-0.4,1.1-0.7,1.6s-0.6,1-0.9,1.4
		c-0.4,0.4-0.7,0.8-1.1,1.1l-0.5-0.5c0.7-0.7,1.3-1.5,1.7-2.4c0.4-0.9,0.6-1.9,0.6-3.1c0-0.6-0.1-1.2-0.2-1.7
		c-0.1-0.5-0.3-1-0.5-1.5c-0.2-0.5-0.4-0.9-0.7-1.3c-0.3-0.4-0.6-0.8-1-1.1l0.5-0.5c0.4,0.3,0.7,0.7,1.1,1.1
		c0.4,0.4,0.7,0.9,0.9,1.4c0.3,0.5,0.5,1,0.7,1.6C285.6,282.2,285.7,282.8,285.7,283.5z"/>
</g>
<g id="XMLID_185_">
	<path id="XMLID_200_" class="st3" d="M306.5,342.5v8.2h-2v-8.2h-2.9v-2h7.9v2H306.5z"/>
	<path id="XMLID_197_" class="st3" d="M313.2,341.2c0,0.3-0.1,0.6-0.3,0.8c-0.2,0.2-0.5,0.3-0.8,0.3s-0.6-0.1-0.8-0.3
		c-0.2-0.2-0.3-0.5-0.3-0.8s0.1-0.6,0.3-0.8c0.2-0.2,0.5-0.3,0.8-0.3s0.6,0.1,0.8,0.3S313.2,340.9,313.2,341.2z M311.1,350.7V343h2
		v7.7H311.1z"/>
	<path id="XMLID_195_" class="st3" d="M324.1,350.7v-4.2c0-0.7-0.1-1.2-0.3-1.4c-0.2-0.3-0.5-0.4-0.9-0.4s-0.7,0.1-0.9,0.4
		s-0.3,0.7-0.3,1.4v4.2h-2v-4.2c0-0.7-0.1-1.2-0.3-1.4c-0.2-0.3-0.5-0.4-0.9-0.4s-0.7,0.1-0.9,0.4s-0.3,0.7-0.3,1.4v4.2h-2V343h2
		v0.5c0.2-0.2,0.4-0.3,0.7-0.5c0.3-0.1,0.6-0.2,1-0.2c0.5,0,0.9,0.1,1.2,0.2c0.3,0.2,0.6,0.4,0.9,0.8c0.3-0.3,0.6-0.5,0.9-0.7
		s0.9-0.3,1.5-0.3c0.5,0,0.9,0.1,1.3,0.2c0.3,0.2,0.6,0.4,0.8,0.7c0.2,0.3,0.4,0.7,0.5,1.1c0.1,0.4,0.2,0.9,0.2,1.5v4.3H324.1z"/>
	<path id="XMLID_192_" class="st3" d="M334.3,346.9c0,0.1,0,0.3,0,0.4c0,0.1,0,0.2,0,0.3h-4.6c0,0.3,0.1,0.5,0.2,0.7
		c0.1,0.2,0.2,0.3,0.4,0.4c0.1,0.1,0.3,0.2,0.5,0.2c0.2,0.1,0.4,0.1,0.5,0.1c0.3,0,0.5,0,0.8-0.1c0.2-0.1,0.4-0.2,0.6-0.4l1.4,1.2
		c-0.3,0.4-0.7,0.7-1.2,0.9c-0.5,0.2-1,0.3-1.5,0.3c-0.6,0-1.1-0.1-1.5-0.3c-0.4-0.2-0.8-0.5-1.1-0.8s-0.5-0.8-0.7-1.3
		c-0.2-0.5-0.3-1-0.3-1.6c0-0.6,0.1-1.1,0.3-1.6s0.4-0.9,0.7-1.3c0.3-0.4,0.7-0.6,1.1-0.8c0.4-0.2,0.9-0.3,1.4-0.3
		c0.5,0,1,0.1,1.4,0.3s0.7,0.5,1,0.9c0.3,0.4,0.5,0.8,0.6,1.3C334.2,345.8,334.3,346.3,334.3,346.9z M332.3,346
		c0-0.2-0.1-0.3-0.1-0.5c-0.1-0.2-0.1-0.3-0.3-0.4s-0.3-0.2-0.4-0.3s-0.4-0.1-0.6-0.1c-0.4,0-0.7,0.1-0.9,0.4
		c-0.2,0.3-0.3,0.6-0.4,1H332.3z"/>
	<path id="XMLID_190_" class="st3" d="M342.6,352.3c-0.4-0.4-0.7-0.8-1-1.2c-0.3-0.4-0.6-0.9-0.8-1.3c-0.2-0.5-0.4-1-0.5-1.6
		c-0.1-0.6-0.2-1.2-0.2-1.9s0.1-1.3,0.2-1.9s0.3-1.1,0.5-1.6c0.2-0.5,0.5-0.9,0.8-1.4c0.3-0.4,0.7-0.8,1-1.3l1.3,0.9
		c-0.3,0.3-0.5,0.7-0.7,1.1s-0.4,0.7-0.5,1.2c-0.2,0.4-0.3,0.9-0.4,1.3s-0.1,1-0.1,1.6c0,0.6,0,1.1,0.1,1.6s0.2,0.9,0.4,1.3
		s0.3,0.8,0.5,1.2c0.2,0.4,0.5,0.7,0.7,1.1L342.6,352.3z"/>
	<path id="XMLID_188_" class="st3" d="M350.2,350.7v-4.2c0-0.7-0.1-1.2-0.3-1.4c-0.2-0.3-0.5-0.4-1-0.4c-0.4,0-0.7,0.1-1,0.4
		s-0.3,0.7-0.3,1.4v4.2h-2V341l2-1v3.5c0.2-0.2,0.4-0.3,0.7-0.5c0.3-0.1,0.7-0.2,1.1-0.2c1,0,1.7,0.3,2.2,0.9
		c0.5,0.6,0.7,1.5,0.7,2.6v4.3H350.2z"/>
	<path id="XMLID_186_" class="st3" d="M357.2,346.2c0,0.7-0.1,1.3-0.2,1.9c-0.1,0.6-0.3,1.1-0.5,1.6c-0.2,0.5-0.5,0.9-0.8,1.4
		s-0.7,0.8-1,1.3l-1.3-0.9c0.3-0.3,0.5-0.7,0.7-1c0.2-0.4,0.4-0.8,0.5-1.2s0.3-0.9,0.4-1.3c0.1-0.5,0.1-1,0.1-1.6
		c0-0.6,0-1.1-0.1-1.6s-0.2-0.9-0.4-1.3s-0.3-0.8-0.5-1.2c-0.2-0.4-0.5-0.7-0.7-1.1l1.3-0.9c0.4,0.4,0.7,0.8,1,1.2
		c0.3,0.4,0.6,0.9,0.8,1.4c0.2,0.5,0.4,1,0.5,1.6C357.2,344.9,357.2,345.5,357.2,346.2z"/>
</g>
<g id="XMLID_155_">
	<path id="XMLID_183_" class="st3" d="M582,146.8v9.2h-1.1v-9.2h-3v-1h7.2v1H582z"/>
	<path id="XMLID_181_" class="st3" d="M591.6,156v-4.5c0-0.8-0.1-1.4-0.4-1.8c-0.3-0.4-0.8-0.6-1.4-0.6c-0.5,0-1,0.2-1.3,0.6
		c-0.4,0.4-0.5,1-0.5,1.8v4.5h-1.1v-10.1l1.1-0.6l0,3.9c0.2-0.3,0.5-0.6,0.9-0.8s0.8-0.3,1.3-0.3c0.4,0,0.8,0.1,1.1,0.2
		s0.6,0.3,0.9,0.6c0.2,0.3,0.4,0.6,0.5,1c0.1,0.4,0.2,0.9,0.2,1.4v4.7H591.6z"/>
	<path id="XMLID_178_" class="st3" d="M600.9,151.9c0,0.1,0,0.2,0,0.3c0,0.1,0,0.2,0,0.3h-5.1c0,0.8,0.3,1.5,0.6,2
		c0.4,0.5,0.9,0.7,1.5,0.7c0.4,0,0.8-0.1,1.1-0.2c0.3-0.1,0.6-0.3,1-0.5l0.5,0.8c-0.2,0.1-0.5,0.3-0.7,0.4c-0.2,0.1-0.4,0.2-0.6,0.3
		c-0.2,0.1-0.4,0.1-0.7,0.2c-0.2,0-0.5,0.1-0.8,0.1c-0.4,0-0.7-0.1-1.1-0.2s-0.7-0.4-1-0.7c-0.3-0.3-0.5-0.7-0.7-1.3
		s-0.3-1.2-0.3-1.9c0-0.6,0.1-1.2,0.2-1.7c0.2-0.5,0.4-0.9,0.7-1.2s0.6-0.6,1-0.8s0.8-0.3,1.3-0.3c0.5,0,0.9,0.1,1.3,0.3
		c0.4,0.2,0.7,0.4,1,0.8s0.5,0.7,0.6,1.2C600.9,150.9,600.9,151.4,600.9,151.9z M599.9,151.6c0-0.8-0.2-1.4-0.6-1.8
		s-0.8-0.7-1.5-0.7c-0.6,0-1,0.2-1.4,0.6c-0.4,0.4-0.6,1.1-0.6,1.9H599.9z"/>
	<path id="XMLID_176_" class="st3" d="M606.9,149.5c-0.2-0.1-0.3-0.2-0.5-0.2s-0.4-0.1-0.7-0.1c-0.5,0-0.9,0.2-1.2,0.6
		c-0.3,0.4-0.4,1-0.4,1.7v4.5H603v-7.7h1.1v1c0.2-0.3,0.4-0.6,0.8-0.8s0.7-0.3,1.1-0.3c0.3,0,0.5,0,0.7,0.1c0.2,0,0.4,0.1,0.5,0.1
		L606.9,149.5z"/>
	<path id="XMLID_173_" class="st3" d="M612.9,156v-0.9c-0.3,0.3-0.6,0.5-1,0.8c-0.4,0.2-0.9,0.3-1.4,0.3c-0.3,0-0.6,0-0.9-0.1
		s-0.6-0.2-0.8-0.4c-0.2-0.2-0.4-0.4-0.6-0.8s-0.2-0.7-0.2-1.2c0-0.4,0.1-0.8,0.2-1.1s0.4-0.6,0.7-0.8c0.3-0.2,0.6-0.3,0.9-0.4
		c0.4-0.1,0.7-0.1,1.1-0.1c0.4,0,0.8,0,1.1,0.1c0.3,0.1,0.6,0.2,0.8,0.3v-0.9c0-1.1-0.6-1.7-1.7-1.7c-0.4,0-0.8,0.1-1.1,0.2
		c-0.3,0.1-0.7,0.2-1,0.4l-0.4-0.9c0.3-0.2,0.7-0.3,1.2-0.5c0.4-0.1,0.9-0.2,1.4-0.2c0.8,0,1.5,0.2,2,0.6c0.5,0.4,0.7,1,0.7,1.9v5.4
		H612.9z M612.9,152.6c-0.3-0.1-0.5-0.2-0.8-0.3c-0.3-0.1-0.7-0.1-1.1-0.1c-0.6,0-1,0.1-1.3,0.4c-0.3,0.3-0.5,0.6-0.5,1.1
		c0,0.6,0.1,1,0.4,1.3c0.3,0.3,0.7,0.4,1.1,0.4c0.5,0,0.9-0.1,1.3-0.3s0.7-0.5,0.9-0.8V152.6z"/>
	<path id="XMLID_169_" class="st3" d="M622.5,152c0,0.7-0.1,1.3-0.2,1.8c-0.2,0.5-0.4,0.9-0.6,1.3s-0.6,0.6-0.9,0.8
		c-0.4,0.2-0.7,0.3-1.1,0.3c-0.5,0-0.9-0.1-1.2-0.3c-0.3-0.2-0.6-0.4-0.9-0.7v3.1l-1.1,0.6v-10.5h1.1l0,0.9c0.3-0.3,0.6-0.5,1-0.8
		c0.4-0.2,0.8-0.3,1.3-0.3c0.4,0,0.7,0.1,1.1,0.2s0.6,0.4,0.9,0.7c0.2,0.3,0.4,0.7,0.6,1.2C622.5,150.8,622.5,151.4,622.5,152z
		 M621.4,152.1c0-1-0.2-1.7-0.5-2.2c-0.3-0.5-0.8-0.7-1.4-0.7c-0.4,0-0.8,0.1-1.1,0.3s-0.6,0.5-0.9,0.8v3.9c0.2,0.3,0.5,0.6,0.9,0.8
		c0.4,0.2,0.8,0.3,1.2,0.3c0.6,0,1.1-0.3,1.4-0.8C621.3,153.9,621.4,153.1,621.4,152.1z"/>
	<path id="XMLID_166_" class="st3" d="M630.4,151.9c0,0.1,0,0.2,0,0.3c0,0.1,0,0.2,0,0.3h-5.1c0,0.8,0.3,1.5,0.6,2
		c0.4,0.5,0.9,0.7,1.5,0.7c0.4,0,0.8-0.1,1.1-0.2c0.3-0.1,0.6-0.3,1-0.5l0.5,0.8c-0.2,0.1-0.5,0.3-0.7,0.4c-0.2,0.1-0.4,0.2-0.6,0.3
		c-0.2,0.1-0.4,0.1-0.7,0.2c-0.2,0-0.5,0.1-0.8,0.1c-0.4,0-0.7-0.1-1.1-0.2s-0.7-0.4-1-0.7c-0.3-0.3-0.5-0.7-0.7-1.3
		s-0.3-1.2-0.3-1.9c0-0.6,0.1-1.2,0.2-1.7c0.2-0.5,0.4-0.9,0.7-1.2s0.6-0.6,1-0.8s0.8-0.3,1.3-0.3c0.5,0,0.9,0.1,1.3,0.3
		c0.4,0.2,0.7,0.4,1,0.8s0.5,0.7,0.6,1.2C630.3,150.9,630.4,151.4,630.4,151.9z M629.4,151.6c0-0.8-0.2-1.4-0.6-1.8
		s-0.8-0.7-1.5-0.7c-0.6,0-1,0.2-1.4,0.6c-0.4,0.4-0.6,1.1-0.6,1.9H629.4z"/>
	<path id="XMLID_164_" class="st3" d="M637.2,156v-0.9c-0.2,0.3-0.5,0.6-0.9,0.8c-0.4,0.2-0.8,0.3-1.3,0.3c-0.4,0-0.8-0.1-1.1-0.2
		c-0.3-0.1-0.6-0.3-0.8-0.6c-0.2-0.3-0.4-0.6-0.5-1c-0.1-0.4-0.2-0.9-0.2-1.4v-4.7h1.1v4.5c0,0.8,0.1,1.4,0.4,1.8
		c0.3,0.4,0.8,0.6,1.4,0.6c0.5,0,1-0.2,1.3-0.6c0.4-0.4,0.5-1,0.5-1.8v-4.5h1.1v7.7H637.2z"/>
	<path id="XMLID_162_" class="st3" d="M642.2,149.3v5c0,0.3,0.1,0.6,0.2,0.7c0.1,0.1,0.3,0.2,0.6,0.2c0.2,0,0.4,0,0.6-0.1
		c0.2,0,0.3-0.1,0.5-0.2l-0.1,1c-0.2,0.1-0.4,0.2-0.7,0.2c-0.2,0-0.5,0.1-0.8,0.1c-0.5,0-0.8-0.1-1.1-0.4c-0.3-0.3-0.4-0.7-0.4-1.4
		v-5.2h-1v-0.9h1v-2.4l1.1-0.6v3h1.9v0.9H642.2z"/>
	<path id="XMLID_159_" class="st3" d="M647.6,146.2c0,0.2-0.1,0.4-0.2,0.5c-0.2,0.2-0.3,0.2-0.5,0.2c-0.2,0-0.4-0.1-0.6-0.2
		c-0.2-0.2-0.2-0.3-0.2-0.5c0-0.2,0.1-0.4,0.2-0.6c0.2-0.2,0.3-0.2,0.6-0.2c0.2,0,0.4,0.1,0.5,0.2
		C647.5,145.8,647.6,145.9,647.6,146.2z M646.3,156v-7.7h1.1v7.7H646.3z"/>
	<path id="XMLID_157_" class="st3" d="M654.5,149.9c-0.3-0.3-0.6-0.4-0.8-0.6c-0.3-0.1-0.6-0.2-1-0.2c-0.3,0-0.6,0.1-0.8,0.2
		s-0.5,0.3-0.7,0.6c-0.2,0.3-0.3,0.6-0.4,0.9s-0.2,0.8-0.2,1.3c0,1,0.2,1.7,0.6,2.3c0.4,0.6,0.9,0.8,1.6,0.8c0.4,0,0.7-0.1,1-0.2
		c0.3-0.1,0.5-0.3,0.8-0.6l0.7,0.7c-0.3,0.3-0.7,0.6-1.1,0.8s-0.9,0.3-1.4,0.3c-0.4,0-0.8-0.1-1.2-0.2c-0.4-0.2-0.7-0.4-1-0.7
		s-0.5-0.7-0.7-1.2c-0.2-0.5-0.3-1.1-0.3-1.8c0-0.7,0.1-1.3,0.3-1.8c0.2-0.5,0.4-0.9,0.8-1.3c0.3-0.3,0.7-0.6,1.1-0.7
		c0.4-0.2,0.8-0.2,1.2-0.2c0.5,0,1,0.1,1.4,0.3s0.7,0.4,1,0.6L654.5,149.9z"/>
</g>
<g id="XMLID_137_">
	<path id="XMLID_152_" class="st3" d="M578,173.6v-1l4.8-6.6c0.2-0.3,0.4-0.6,0.6-0.8s0.4-0.6,0.6-0.8H583h-4.6v-1h7v1l-4.8,6.6
		c-0.2,0.3-0.4,0.6-0.6,0.8c-0.2,0.3-0.4,0.6-0.6,0.8h1.2h4.9v1H578z"/>
	<path id="XMLID_148_" class="st3" d="M593.4,169.7c0,0.7-0.1,1.2-0.3,1.7c-0.2,0.5-0.4,0.9-0.7,1.3c-0.3,0.3-0.7,0.6-1.1,0.8
		c-0.4,0.2-0.9,0.3-1.3,0.3s-0.9-0.1-1.3-0.3c-0.4-0.2-0.8-0.4-1-0.8c-0.3-0.3-0.5-0.8-0.7-1.3c-0.2-0.5-0.3-1.1-0.3-1.7
		c0-0.7,0.1-1.2,0.3-1.7c0.2-0.5,0.4-0.9,0.7-1.3c0.3-0.3,0.7-0.6,1.1-0.8c0.4-0.2,0.9-0.3,1.3-0.3c0.5,0,0.9,0.1,1.3,0.2
		s0.8,0.4,1,0.7c0.3,0.3,0.5,0.7,0.7,1.2C593.3,168.5,593.4,169,593.4,169.7z M592.3,169.7c0-1-0.2-1.8-0.6-2.3s-1-0.8-1.6-0.8
		c-0.7,0-1.2,0.3-1.6,0.8c-0.4,0.5-0.6,1.3-0.6,2.3c0,1,0.2,1.8,0.6,2.3c0.4,0.5,0.9,0.8,1.6,0.8c0.7,0,1.2-0.3,1.6-0.8
		C592.1,171.5,592.3,170.7,592.3,169.7z"/>
	<path id="XMLID_146_" class="st3" d="M600.2,173.6v-4.5c0-0.8-0.1-1.4-0.4-1.8c-0.3-0.4-0.8-0.6-1.4-0.6c-0.5,0-1,0.2-1.3,0.6
		c-0.4,0.4-0.5,1-0.5,1.8v4.5h-1.1v-7.7h1.1l0,0.9c0.2-0.3,0.5-0.6,0.9-0.8s0.8-0.3,1.3-0.3c0.4,0,0.8,0.1,1.1,0.2s0.6,0.3,0.9,0.6
		c0.2,0.3,0.4,0.6,0.5,1c0.1,0.4,0.2,0.9,0.2,1.4v4.7H600.2z"/>
	<path id="XMLID_143_" class="st3" d="M609.6,169.5c0,0.1,0,0.2,0,0.3c0,0.1,0,0.2,0,0.3h-5.1c0,0.8,0.3,1.5,0.6,2
		c0.4,0.5,0.9,0.7,1.5,0.7c0.4,0,0.8-0.1,1.1-0.2c0.3-0.1,0.6-0.3,1-0.5l0.5,0.8c-0.2,0.1-0.5,0.3-0.7,0.4c-0.2,0.1-0.4,0.2-0.6,0.3
		c-0.2,0.1-0.4,0.1-0.7,0.2c-0.2,0-0.5,0.1-0.8,0.1c-0.4,0-0.7-0.1-1.1-0.2s-0.7-0.4-1-0.7c-0.3-0.3-0.5-0.7-0.7-1.3
		s-0.3-1.2-0.3-1.9c0-0.6,0.1-1.2,0.2-1.7c0.2-0.5,0.4-0.9,0.7-1.2s0.6-0.6,1-0.8s0.8-0.3,1.3-0.3c0.5,0,0.9,0.1,1.3,0.3
		c0.4,0.2,0.7,0.4,1,0.8s0.5,0.7,0.6,1.2C609.5,168.5,609.6,169,609.6,169.5z M608.5,169.2c0-0.8-0.2-1.4-0.6-1.8s-0.8-0.7-1.5-0.7
		c-0.6,0-1,0.2-1.4,0.6c-0.4,0.4-0.6,1.1-0.6,1.9H608.5z"/>
	<path id="XMLID_140_" class="st3" d="M621.7,169.7c0,0.7-0.1,1.2-0.3,1.7c-0.2,0.5-0.4,0.9-0.7,1.3c-0.3,0.3-0.7,0.6-1.1,0.8
		c-0.4,0.2-0.9,0.3-1.3,0.3s-0.9-0.1-1.3-0.3c-0.4-0.2-0.8-0.4-1-0.8c-0.3-0.3-0.5-0.8-0.7-1.3c-0.2-0.5-0.3-1.1-0.3-1.7
		c0-0.7,0.1-1.2,0.3-1.7c0.2-0.5,0.4-0.9,0.7-1.3c0.3-0.3,0.7-0.6,1.1-0.8c0.4-0.2,0.9-0.3,1.3-0.3c0.5,0,0.9,0.1,1.3,0.2
		s0.8,0.4,1,0.7c0.3,0.3,0.5,0.7,0.7,1.2C621.6,168.5,621.7,169,621.7,169.7z M620.6,169.7c0-1-0.2-1.8-0.6-2.3s-1-0.8-1.6-0.8
		c-0.7,0-1.2,0.3-1.6,0.8c-0.4,0.5-0.6,1.3-0.6,2.3c0,1,0.2,1.8,0.6,2.3c0.4,0.5,0.9,0.8,1.6,0.8c0.7,0,1.2-0.3,1.6-0.8
		C620.4,171.5,620.6,170.7,620.6,169.7z"/>
	<path id="XMLID_138_" class="st3" d="M625.9,163.9c-0.2,0-0.4,0.1-0.6,0.2c-0.2,0.1-0.2,0.3-0.2,0.6v1.1h1.5v0.9h-1.5v6.8H624v-6.8
		H623v-0.9h1.1v-1.1c0-0.7,0.2-1.2,0.5-1.5c0.3-0.3,0.8-0.4,1.3-0.4c0.2,0,0.4,0,0.5,0c0.1,0,0.3,0.1,0.4,0.1v1
		C626.6,164,626.3,163.9,625.9,163.9z"/>
</g>
<g id="XMLID_119_">
	<path id="XMLID_135_" class="st3" d="M584.8,188.5c0,0.4-0.1,0.8-0.2,1.1c-0.2,0.4-0.4,0.7-0.7,0.9s-0.6,0.5-1.1,0.6
		c-0.4,0.1-0.9,0.2-1.4,0.2c-0.7,0-1.3-0.1-1.9-0.4c-0.6-0.3-1.1-0.6-1.5-1l0.8-0.8c0.4,0.4,0.8,0.7,1.3,0.9
		c0.4,0.2,0.9,0.3,1.5,0.3c0.7,0,1.2-0.2,1.6-0.5c0.4-0.3,0.6-0.7,0.6-1.3c0-0.2,0-0.4-0.1-0.6s-0.2-0.4-0.4-0.5
		c-0.2-0.2-0.4-0.3-0.8-0.5s-0.7-0.3-1.2-0.5c-0.6-0.2-1-0.4-1.4-0.6c-0.4-0.2-0.7-0.4-0.9-0.6c-0.2-0.2-0.4-0.5-0.5-0.8
		s-0.2-0.6-0.2-1c0-0.4,0.1-0.8,0.2-1.1c0.2-0.3,0.4-0.6,0.7-0.8s0.6-0.4,1-0.5c0.4-0.1,0.8-0.2,1.3-0.2c0.7,0,1.3,0.1,1.8,0.3
		c0.5,0.2,0.9,0.5,1.4,0.8l-0.7,0.9c-0.4-0.3-0.7-0.5-1.1-0.7c-0.4-0.2-0.8-0.2-1.3-0.2c-0.4,0-0.7,0-0.9,0.1
		c-0.3,0.1-0.5,0.2-0.6,0.3c-0.2,0.1-0.3,0.3-0.4,0.5c-0.1,0.2-0.1,0.4-0.1,0.6c0,0.2,0,0.4,0.1,0.6c0.1,0.2,0.2,0.3,0.4,0.5
		c0.2,0.2,0.4,0.3,0.7,0.5c0.3,0.2,0.7,0.3,1.3,0.5c0.6,0.2,1,0.4,1.4,0.6c0.4,0.2,0.7,0.4,0.9,0.7c0.2,0.2,0.4,0.5,0.5,0.8
		C584.7,187.7,584.8,188.1,584.8,188.5z"/>
	<path id="XMLID_132_" class="st3" d="M592.7,187.1c0,0.1,0,0.2,0,0.3c0,0.1,0,0.2,0,0.3h-5.1c0,0.8,0.3,1.5,0.6,2
		c0.4,0.5,0.9,0.7,1.5,0.7c0.4,0,0.8-0.1,1.1-0.2c0.3-0.1,0.6-0.3,1-0.5l0.5,0.8c-0.2,0.1-0.5,0.3-0.7,0.4c-0.2,0.1-0.4,0.2-0.6,0.3
		c-0.2,0.1-0.4,0.1-0.7,0.2c-0.2,0-0.5,0.1-0.8,0.1c-0.4,0-0.7-0.1-1.1-0.2s-0.7-0.4-1-0.7c-0.3-0.3-0.5-0.7-0.7-1.3
		s-0.3-1.2-0.3-1.9c0-0.6,0.1-1.2,0.2-1.7c0.2-0.5,0.4-0.9,0.7-1.2s0.6-0.6,1-0.8s0.8-0.3,1.3-0.3c0.5,0,0.9,0.1,1.3,0.3
		c0.4,0.2,0.7,0.4,1,0.8s0.5,0.7,0.6,1.2C592.7,186,592.7,186.5,592.7,187.1z M591.7,186.8c0-0.8-0.2-1.4-0.6-1.8s-0.8-0.7-1.5-0.7
		c-0.6,0-1,0.2-1.4,0.6c-0.4,0.4-0.6,1.1-0.6,1.9H591.7z"/>
	<path id="XMLID_129_" class="st3" d="M596.2,181.3c0,0.2-0.1,0.4-0.2,0.5c-0.2,0.2-0.3,0.2-0.5,0.2c-0.2,0-0.4-0.1-0.6-0.2
		c-0.2-0.2-0.2-0.3-0.2-0.5c0-0.2,0.1-0.4,0.2-0.6c0.2-0.2,0.3-0.2,0.6-0.2c0.2,0,0.4,0.1,0.5,0.2
		C596.1,180.9,596.2,181.1,596.2,181.3z M594.9,191.1v-7.7h1.1v7.7H594.9z"/>
	<path id="XMLID_127_" class="st3" d="M598.1,191.1v-0.8l4.2-5.9h-3.9v-0.9h5.1v0.8l-4.2,5.9h4.2v0.9H598.1z"/>
	<path id="XMLID_125_" class="st3" d="M610.3,191.1v-0.9c-0.2,0.3-0.5,0.6-0.9,0.8c-0.4,0.2-0.8,0.3-1.3,0.3c-0.4,0-0.8-0.1-1.1-0.2
		c-0.3-0.1-0.6-0.3-0.8-0.6c-0.2-0.3-0.4-0.6-0.5-1c-0.1-0.4-0.2-0.9-0.2-1.4v-4.7h1.1v4.5c0,0.8,0.1,1.4,0.4,1.8
		c0.3,0.4,0.8,0.6,1.4,0.6c0.5,0,1-0.2,1.3-0.6c0.4-0.4,0.5-1,0.5-1.8v-4.5h1.1v7.7H610.3z"/>
	<path id="XMLID_123_" class="st3" d="M617.8,184.6c-0.2-0.1-0.3-0.2-0.5-0.2s-0.4-0.1-0.7-0.1c-0.5,0-0.9,0.2-1.2,0.6
		c-0.3,0.4-0.4,1-0.4,1.7v4.5h-1.1v-7.7h1.1v1c0.2-0.3,0.4-0.6,0.8-0.8s0.7-0.3,1.1-0.3c0.3,0,0.5,0,0.7,0.1c0.2,0,0.4,0.1,0.5,0.1
		L617.8,184.6z"/>
	<path id="XMLID_120_" class="st3" d="M625.3,187.1c0,0.1,0,0.2,0,0.3c0,0.1,0,0.2,0,0.3h-5.1c0,0.8,0.3,1.5,0.6,2
		c0.4,0.5,0.9,0.7,1.5,0.7c0.4,0,0.8-0.1,1.1-0.2c0.3-0.1,0.6-0.3,1-0.5l0.5,0.8c-0.2,0.1-0.5,0.3-0.7,0.4c-0.2,0.1-0.4,0.2-0.6,0.3
		c-0.2,0.1-0.4,0.1-0.7,0.2c-0.2,0-0.5,0.1-0.8,0.1c-0.4,0-0.7-0.1-1.1-0.2s-0.7-0.4-1-0.7c-0.3-0.3-0.5-0.7-0.7-1.3
		s-0.3-1.2-0.3-1.9c0-0.6,0.1-1.2,0.2-1.7c0.2-0.5,0.4-0.9,0.7-1.2s0.6-0.6,1-0.8s0.8-0.3,1.3-0.3c0.5,0,0.9,0.1,1.3,0.3
		c0.4,0.2,0.7,0.4,1,0.8s0.5,0.7,0.6,1.2C625.2,186,625.3,186.5,625.3,187.1z M624.3,186.8c0-0.8-0.2-1.4-0.6-1.8s-0.8-0.7-1.5-0.7
		c-0.6,0-1,0.2-1.4,0.6c-0.4,0.4-0.6,1.1-0.6,1.9H624.3z"/>
</g>
<g id="XMLID_102_">
	<path id="XMLID_117_" class="st3" d="M584.1,208.4c-0.6,0.3-1.2,0.5-2,0.5c-0.6,0-1.2-0.1-1.7-0.4c-0.5-0.3-0.9-0.6-1.3-1.1
		c-0.4-0.5-0.6-1-0.8-1.7c-0.2-0.6-0.3-1.3-0.3-2.1c0-0.8,0.1-1.5,0.3-2.1c0.2-0.6,0.5-1.2,0.9-1.7c0.4-0.5,0.8-0.8,1.3-1.1
		c0.5-0.3,1.1-0.4,1.7-0.4c1.4,0,2.5,0.5,3.3,1.6l-0.9,0.7c-0.3-0.4-0.7-0.8-1-1c-0.4-0.2-0.8-0.3-1.4-0.3c-0.4,0-0.8,0.1-1.2,0.3
		c-0.4,0.2-0.7,0.5-1,0.9c-0.3,0.4-0.5,0.8-0.6,1.3c-0.2,0.5-0.2,1.1-0.2,1.7c0,0.6,0.1,1.2,0.2,1.7c0.2,0.5,0.4,1,0.6,1.3
		c0.3,0.4,0.6,0.7,1,0.9c0.4,0.2,0.8,0.3,1.2,0.3c0.6,0,1-0.1,1.4-0.4c0.4-0.2,0.8-0.6,1.1-1l0.8,0.7
		C585.2,207.7,584.7,208.1,584.1,208.4z"/>
	<path id="XMLID_114_" class="st3" d="M593.6,204.8c0,0.7-0.1,1.2-0.3,1.7c-0.2,0.5-0.4,0.9-0.7,1.3c-0.3,0.3-0.7,0.6-1.1,0.8
		c-0.4,0.2-0.9,0.3-1.3,0.3s-0.9-0.1-1.3-0.3c-0.4-0.2-0.8-0.4-1-0.8c-0.3-0.3-0.5-0.8-0.7-1.3s-0.3-1.1-0.3-1.7s0.1-1.2,0.3-1.7
		c0.2-0.5,0.4-0.9,0.7-1.3c0.3-0.3,0.7-0.6,1.1-0.8c0.4-0.2,0.9-0.3,1.3-0.3c0.5,0,0.9,0.1,1.3,0.2s0.8,0.4,1,0.7
		c0.3,0.3,0.5,0.7,0.7,1.2C593.5,203.6,593.6,204.2,593.6,204.8z M592.5,204.9c0-1-0.2-1.8-0.6-2.3s-1-0.8-1.6-0.8
		c-0.7,0-1.2,0.3-1.6,0.8c-0.4,0.5-0.6,1.3-0.6,2.3c0,1,0.2,1.8,0.6,2.3c0.4,0.5,0.9,0.8,1.6,0.8c0.7,0,1.2-0.3,1.6-0.8
		S592.5,205.9,592.5,204.9z"/>
	<path id="XMLID_112_" class="st3" d="M600.4,208.7v-4.5c0-0.8-0.1-1.4-0.4-1.8c-0.3-0.4-0.8-0.6-1.4-0.6c-0.5,0-1,0.2-1.3,0.6
		c-0.4,0.4-0.5,1-0.5,1.8v4.5h-1.1V201h1.1l0,0.9c0.2-0.3,0.5-0.6,0.9-0.8s0.8-0.3,1.3-0.3c0.4,0,0.8,0.1,1.1,0.2s0.6,0.3,0.9,0.6
		c0.2,0.3,0.4,0.6,0.5,1c0.1,0.4,0.2,0.9,0.2,1.4v4.7H600.4z"/>
	<path id="XMLID_110_" class="st3" d="M605.2,202v5c0,0.3,0.1,0.6,0.2,0.7c0.1,0.1,0.3,0.2,0.6,0.2c0.2,0,0.4,0,0.6-0.1
		c0.2,0,0.3-0.1,0.5-0.2l-0.1,1c-0.2,0.1-0.4,0.2-0.7,0.2c-0.2,0-0.5,0.1-0.8,0.1c-0.5,0-0.8-0.1-1.1-0.4c-0.3-0.3-0.4-0.7-0.4-1.4
		V202h-1V201h1v-2.4l1.1-0.6v3h1.9v0.9H605.2z"/>
	<path id="XMLID_108_" class="st3" d="M613.2,202.2c-0.2-0.1-0.3-0.2-0.5-0.2s-0.4-0.1-0.7-0.1c-0.5,0-0.9,0.2-1.2,0.6
		c-0.3,0.4-0.4,1-0.4,1.7v4.5h-1.1V201h1.1v1c0.2-0.3,0.4-0.6,0.8-0.8s0.7-0.3,1.1-0.3c0.3,0,0.5,0,0.7,0.1c0.2,0,0.4,0.1,0.5,0.1
		L613.2,202.2z"/>
	<path id="XMLID_105_" class="st3" d="M621.2,204.8c0,0.7-0.1,1.2-0.3,1.7c-0.2,0.5-0.4,0.9-0.7,1.3c-0.3,0.3-0.7,0.6-1.1,0.8
		c-0.4,0.2-0.9,0.3-1.3,0.3s-0.9-0.1-1.3-0.3c-0.4-0.2-0.8-0.4-1-0.8c-0.3-0.3-0.5-0.8-0.7-1.3s-0.3-1.1-0.3-1.7s0.1-1.2,0.3-1.7
		c0.2-0.5,0.4-0.9,0.7-1.3c0.3-0.3,0.7-0.6,1.1-0.8c0.4-0.2,0.9-0.3,1.3-0.3c0.5,0,0.9,0.1,1.3,0.2s0.8,0.4,1,0.7
		c0.3,0.3,0.5,0.7,0.7,1.2C621.1,203.6,621.2,204.2,621.2,204.8z M620,204.9c0-1-0.2-1.8-0.6-2.3s-1-0.8-1.6-0.8
		c-0.7,0-1.2,0.3-1.6,0.8c-0.4,0.5-0.6,1.3-0.6,2.3c0,1,0.2,1.8,0.6,2.3c0.4,0.5,0.9,0.8,1.6,0.8c0.7,0,1.2-0.3,1.6-0.8
		S620,205.9,620,204.9z"/>
	<path id="XMLID_103_" class="st3" d="M623.2,208.7v-10.1l1.1-0.6v10.7H623.2z"/>
</g>
<line id="XMLID_101_" class="st4" x1="348.9" y1="289.5" x2="348.9" y2="294.4"/>
<rect id="XMLID_100_" x="76.9" y="112.3" class="st5" width="494.3" height="110.6"/>
<line id="XMLID_99_" class="st6" x1="328.8" y1="301.2" x2="328.8" y2="11.8"/>
<path id="XMLID_96_" class="st7" d="M328.8,10L328.8,10 M328.8,304.8L328.8,304.8"/>
<g id="XMLID_9_">
	<line id="XMLID_95_" class="st8" x1="85.8" y1="226.2" x2="113" y2="114"/>
	<path id="XMLID_94_" class="st9" d="M119.7,99.4c2.3-1.9,5-1.9,7.6,3.9"/>
	<path id="XMLID_93_" class="st10" d="M131.9,118.8c7.4,27.7,23,85.3,28,103.9"/>
	<path id="XMLID_92_" class="st11" d="M165.5,237.4c1.7,1.3,3.8,0.4,6.2-5.8"/>
	<path id="XMLID_91_" class="st12" d="M175.8,216.7c6.2-27.8,15.1-84.8,18-103.3"/>
	<path id="XMLID_90_" class="st13" d="M199.6,98c2.3-2.5,5-3.1,7.7,3.1"/>
	<path id="XMLID_89_" class="st14" d="M211.4,116.5c6.1,27.5,17.3,83.4,20.8,101.5"/>
	<path id="XMLID_88_" class="st15" d="M238.4,233.9c2.6,3.8,5.7,6.1,8.2,0.8"/>
	<path id="XMLID_87_" class="st16" d="M250.3,218.5c5.5-27.8,18.1-85.9,22.2-104.6"/>
	<path id="XMLID_86_" class="st17" d="M278,98.2c2.1-2.9,4.9-4.1,8.1,1.2"/>
	<path id="XMLID_85_" class="st18" d="M291.7,114.6c8.2,27,22.5,84.7,27,103.3"/>
	<path id="XMLID_84_" class="st19" d="M323.5,231.5c3,5.3,7.5,9.2,12.1-4.4"/>
	<path id="XMLID_83_" class="st20" d="M339,213c5.9-28.4,11.1-75.4,12.8-91.9"/>
	<path id="XMLID_82_" class="st21" d="M355.6,105.7c3.1-7.2,8-13.2,12.9,3.8"/>
	<path id="XMLID_81_" class="st22" d="M372.1,125.1c7,32.2,17.4,77.4,21,93.5"/>
	<path id="XMLID_80_" class="st23" d="M397.1,231.9c2.5,5.9,6.5,11.3,9.8-1.5"/>
	<path id="XMLID_79_" class="st24" d="M409.8,216.5c6-29.3,19.1-85.8,23.3-104.2"/>
	<path id="XMLID_78_" class="st25" d="M440,97.2c2.5-2.5,5.4-3.2,7.8,2.6"/>
	<path id="XMLID_77_" class="st26" d="M451.5,115.7c5.8,27.9,18.7,86.2,22.9,105"/>
	<path id="XMLID_76_" class="st27" d="M479.8,236.1c2,2.8,4.4,3.6,6.8-2.8"/>
	<path id="XMLID_75_" class="st28" d="M490.2,217.7c6-28,18.4-85.3,22.5-103.9"/>
	<path id="XMLID_72_" class="st29" d="M518.1,98.2c2-2.9,4.7-3.8,7.5,2.3"/>
	<path id="XMLID_57_" class="st30" d="M530.2,115.7c7.5,29,22.5,93.3,27.1,112.9"/>
	<path id="XMLID_10_" class="st31" d="M562.3,237.4c0.4,0.3,0.8,0.6,1.3,0.9 M557.9,231.5c0.4,1.9,0.7,2.9,0.7,2.9s0.2,0.4,1.1,1.1
		 M526.8,103.7c0.3,1,0.7,2.1,1,3.4c0.2,0.9,0.5,1.8,0.8,2.9 M513.3,110.9c0.4-1.9,0.6-3,0.6-3s0.4-1.5,1-3.4 M487.5,230
		c0.3-1,0.5-2.1,0.8-3.4c0.2-0.9,0.4-1.9,0.6-3 M475.1,223.7c0.4,1.9,0.7,3,0.7,3s0.4,1.4,1.1,3.3 M448.8,103.2
		c0.3,1,0.5,2.2,0.8,3.4c0.2,0.9,0.4,1.9,0.6,3 M433.8,109.2c0.4-1.9,0.7-3,0.7-3s0.6-1.4,1.5-3.2 M407.5,228
		c0.2-0.8,0.3-1.6,0.5-2.5c0.2-0.9,0.4-1.9,0.6-3 M393.8,221.6c0.4,1.9,0.7,3,0.7,3s0.3,1,0.7,2.5 M369.4,112.8
		c0.3,1,0.5,2.1,0.8,3.3c0.2,1,0.4,2,0.7,3 M352.2,118.2c0.2-1.9,0.3-3,0.3-3s0.3-1.3,0.9-3.2 M336.3,224.5c0.2-0.8,0.5-1.7,0.7-2.7
		c0.2-0.9,0.5-1.9,0.7-2.9 M319.5,220.8c0.5,1.9,0.7,3,0.7,3s0.3,1.1,0.9,2.6 M287.7,102.6c0.4,1,0.8,2.1,1.3,3.3
		c0.3,0.9,0.6,1.8,1,2.9 M273.2,110.9c0.4-1.9,0.7-3,0.7-3s0.4-1.5,1.1-3.4 M247.8,231.1c0.3-1.1,0.6-2.3,0.8-3.7
		c0.2-0.9,0.4-1.9,0.6-3 M232.9,220.9c0.4,1.9,0.6,2.9,0.6,2.9s0.5,1.5,1.4,3.5 M208.5,104.4c0.3,1,0.6,2.2,0.9,3.4
		c0.2,0.9,0.4,1.8,0.7,2.9 M194.3,110.4c0.3-1.9,0.5-3,0.5-3s0.5-1.5,1.3-3.3 M172.8,228.6c0.3-0.9,0.6-2,0.9-3.1
		c0.2-0.9,0.5-1.9,0.8-2.9 M160.7,225.7c0.5,1.9,0.8,3,0.8,3s0.3,1.4,0.9,3.1 M128.5,106.6c0.3,1,0.7,2.1,1,3.3
		c0.2,0.9,0.5,1.9,0.8,3 M113.7,111.2l0.7-2.9c0,0,0.5-1.4,1.4-3.2 M83.7,234.8l0.7-2.9"/>
</g>
<line id="XMLID_8_" class="st1" x1="76.9" y1="26.7" x2="76.9" y2="318.7"/>
<polyline id="XMLID_7_" class="st32" points="77.3,187.1 114.9,143.2 134.7,138.3 188.3,145.4 224.7,153.1 262.1,165.1 290.8,171.2 
	317.1,172.2 330.5,172.5 337.6,177.9 358.8,162.7 377,147.8 397.2,138.3 456.4,147.8 499.5,155.4 546.7,162.7 571,170 "/>
<polygon id="XMLID_6_" class="st33" points="124.5,92.8 124.5,86 125.5,85 125.5,91.1 129.3,87.3 145.9,70.7 146.6,71.4 130,88 
	126.2,91.8 132.4,91.8 131.4,92.8 "/>
<polygon id="XMLID_5_" class="st33" points="196.3,92.8 189.5,92.8 188.5,91.8 194.7,91.8 190.9,88 174.3,71.4 175,70.7 191.6,87.3 
	195.4,91.1 195.4,85 196.3,86 "/>
<polygon id="XMLID_4_" class="st33" points="480,244.7 480,251.6 479,252.5 479,246.4 475.2,250.2 458.6,266.8 457.9,266.1 
	474.5,249.5 478.3,245.7 472.1,245.7 473.1,244.7 "/>
<polygon id="XMLID_3_" class="st33" points="408.2,244.7 415,244.7 416,245.7 409.8,245.7 413.6,249.5 430.2,266.1 429.5,266.8 
	412.9,250.2 409.1,246.4 409.1,252.5 408.2,251.6 "/>
<line id="XMLID_2_" class="st34" x1="93.6" y1="258.4" x2="135.5" y2="258.4"/>
<line id="XMLID_1_" class="st32" x1="93.6" y1="285.1" x2="135.5" y2="285.1"/>
</svg>
