<!-- Generator: Adobe Illustrator 22.1.0, SVG Export Plug-In  -->
<svg version="1.1"
	 xmlns="http://www.w3.org/2000/svg" xmlns:xlink="http://www.w3.org/1999/xlink" xmlns:a="http://ns.adobe.com/AdobeSVGViewerExtensions/3.0/"
	 x="0px" y="0px" width="85.8px" height="24.6px" viewBox="0 0 85.8 24.6" style="enable-background:new 0 0 85.8 24.6;"
	 xml:space="preserve">
<style type="text/css">
	.st0{fill:#266093;}
</style>
<defs>
</defs>
<path id="XMLID_11_" class="st0" d="M11.4,5.5v18.7H6.7V5.5H0V0.9h18.1v4.6H11.4z"/>
<path id="XMLID_9_" class="st0" d="M37.9,24.2H34l-1.7-6.9c-0.1-0.3-0.2-0.7-0.3-1.1s-0.2-0.8-0.3-1.2s-0.2-0.7-0.3-1.1
	c-0.1-0.3-0.1-0.6-0.2-0.8c0,0.2-0.1,0.5-0.2,0.8c-0.1,0.3-0.1,0.7-0.2,1.1c-0.1,0.4-0.2,0.8-0.3,1.2c-0.1,0.4-0.2,0.8-0.3,1.1
	l-1.7,6.9h-3.8l-5-17.5h4.7l1.5,6.5c0.1,0.3,0.1,0.7,0.2,1.1s0.2,0.8,0.3,1.1c0.1,0.4,0.1,0.7,0.2,1c0.1,0.3,0.1,0.6,0.2,0.8
	c0.1-0.4,0.2-1.1,0.4-1.8s0.4-1.5,0.6-2.2l1.7-6.5h3.8l1.7,6.5c0.2,0.7,0.4,1.4,0.5,2.2s0.3,1.4,0.4,1.8c0-0.2,0.1-0.5,0.1-0.8
	c0.1-0.3,0.1-0.7,0.2-1c0.1-0.4,0.2-0.7,0.3-1.1s0.2-0.7,0.2-1.1l1.5-6.5h4.5L37.9,24.2z"/>
<path id="XMLID_6_" class="st0" d="M50.5,2.6c0,0.7-0.3,1.3-0.8,1.9s-1.1,0.8-1.8,0.8c-0.7,0-1.3-0.3-1.9-0.8
	c-0.5-0.5-0.8-1.1-0.8-1.9c0-0.7,0.3-1.3,0.8-1.8C46.5,0.3,47.2,0,47.9,0c0.7,0,1.3,0.3,1.8,0.8S50.5,1.9,50.5,2.6z M45.6,24.2V6.7
	h4.6v17.5H45.6z"/>
<path id="XMLID_4_" class="st0" d="M67.4,22.3c-0.5,0.5-1,0.9-1.6,1.2c-0.6,0.4-1.2,0.6-1.9,0.8c-0.7,0.2-1.5,0.3-2.3,0.3
	c-1.1,0-2.2-0.2-3.2-0.7c-1-0.4-1.9-1.1-2.6-1.9c-0.7-0.8-1.3-1.8-1.8-2.9c-0.4-1.1-0.6-2.4-0.6-3.7c0-1.3,0.2-2.6,0.6-3.7
	c0.4-1.1,1-2.1,1.8-2.9c0.7-0.8,1.6-1.4,2.7-1.9c1-0.4,2.1-0.7,3.4-0.7c1.7,0,3.1,0.4,4.2,1.1s2,1.6,2.8,2.8l-3,3.1
	c-0.5-0.7-1.1-1.3-1.7-1.8c-0.6-0.5-1.4-0.7-2.3-0.7c-1.1,0-2,0.4-2.7,1.3c-0.7,0.9-1,2-1,3.5c0,1.4,0.3,2.5,1,3.4
	c0.7,0.9,1.5,1.3,2.7,1.3c0.9,0,1.7-0.2,2.3-0.6c0.6-0.4,1.2-0.9,1.8-1.7l2.9,2.8C68.3,21.3,67.8,21.8,67.4,22.3z"/>
<path id="XMLID_1_" class="st0" d="M85.8,15.5c0,0.3,0,0.6,0,0.8c0,0.2,0,0.4-0.1,0.6H75.3c0,0.6,0.2,1.1,0.4,1.5
	c0.2,0.4,0.5,0.8,0.8,1c0.3,0.3,0.7,0.4,1.1,0.6s0.8,0.2,1.3,0.2c0.6,0,1.2-0.1,1.7-0.3c0.5-0.2,0.9-0.5,1.3-0.9l3.3,2.7
	c-0.7,0.9-1.6,1.6-2.8,2.1c-1.1,0.5-2.3,0.7-3.5,0.7c-1.3,0-2.4-0.2-3.4-0.7s-1.9-1-2.6-1.8c-0.7-0.8-1.3-1.7-1.6-2.9
	c-0.4-1.1-0.6-2.4-0.6-3.8c0-1.3,0.2-2.6,0.6-3.7c0.4-1.1,1-2.1,1.7-2.9c0.7-0.8,1.5-1.4,2.5-1.9c0.9-0.4,2-0.7,3.1-0.7
	c1.2,0,2.2,0.2,3.1,0.7c0.9,0.5,1.7,1.1,2.3,2c0.6,0.8,1.1,1.8,1.4,2.9C85.7,13,85.8,14.2,85.8,15.5z M81.4,13.5
	c0-0.4-0.1-0.8-0.3-1.1c-0.1-0.4-0.3-0.7-0.6-1c-0.3-0.3-0.6-0.5-1-0.7c-0.4-0.2-0.8-0.3-1.3-0.3c-0.8,0-1.5,0.3-2,0.9
	c-0.5,0.6-0.8,1.3-0.9,2.2H81.4z"/>
</svg>
