<!-- Generator: Adobe Illustrator 22.1.0, SVG Export Plug-In  -->
<svg version="1.1"
	 xmlns="http://www.w3.org/2000/svg" xmlns:xlink="http://www.w3.org/1999/xlink" xmlns:a="http://ns.adobe.com/AdobeSVGViewerExtensions/3.0/"
	 x="0px" y="0px" width="367.5px" height="27.4px" viewBox="0 0 367.5 27.4" style="enable-background:new 0 0 367.5 27.4;"
	 xml:space="preserve">
<style type="text/css">
	.st0{fill:#522D6D;}
	.st1{fill:#236092;}
</style>
<defs>
</defs>
<g id="XMLID_4_">
	<g id="XMLID_6_">
		<path id="XMLID_53_" class="st0" d="M48.9,1.6c1.2-0.2,3.5-0.4,5.7-0.4c2.7,0,4.4,0.3,5.8,1.1c1.4,0.7,2.4,2.1,2.4,3.8
			c0,1.7-1,3.4-3.2,4.2v0.1c2.2,0.6,3.9,2.3,3.9,4.8c0,1.8-0.8,3.2-2,4.2c-1.4,1.1-3.8,1.8-7.7,1.8c-2.2,0-3.8-0.1-4.8-0.3V1.6z
			 M53.3,9.1h1.5c2.3,0,3.6-1,3.6-2.4c0-1.5-1.1-2.3-3.1-2.3c-1,0-1.5,0.1-1.9,0.1V9.1z M53.3,17.8c0.4,0.1,1,0.1,1.7,0.1
			c2,0,3.8-0.8,3.8-2.8c0-2-1.8-2.8-4-2.8h-1.5V17.8z"/>
		<path id="XMLID_51_" class="st0" d="M66.3,11.4c0-2.1-0.1-3.5-0.1-4.7H70l0.1,2.6h0.1c0.7-2.1,2.5-2.9,3.8-2.9
			c0.4,0,0.6,0,0.9,0.1v4.2c-0.3-0.1-0.7-0.1-1.2-0.1c-1.6,0-2.7,0.9-3,2.2c-0.1,0.3-0.1,0.6-0.1,1V21h-4.4V11.4z"/>
		<path id="XMLID_48_" class="st0" d="M91.2,13.7c0,5.2-3.7,7.6-7.5,7.6c-4.2,0-7.4-2.7-7.4-7.3s3-7.5,7.6-7.5
			C88.3,6.4,91.2,9.4,91.2,13.7z M80.9,13.9c0,2.4,1,4.3,2.9,4.3c1.7,0,2.8-1.7,2.8-4.3c0-2.1-0.8-4.3-2.8-4.3
			C81.7,9.6,80.9,11.8,80.9,13.9z"/>
		<path id="XMLID_45_" class="st0" d="M102,21l-0.3-1.4h-0.1c-0.9,1.1-2.4,1.7-4.1,1.7c-2.9,0-4.6-2.1-4.6-4.4
			c0-3.7,3.3-5.5,8.4-5.4v-0.2c0-0.8-0.4-1.8-2.6-1.8c-1.5,0-3,0.5-3.9,1.1L94,7.7c1-0.6,2.9-1.3,5.5-1.3c4.7,0,6.3,2.8,6.3,6.1v4.9
			c0,1.4,0.1,2.7,0.2,3.5H102z M101.5,14.3c-2.3,0-4.1,0.5-4.1,2.2c0,1.1,0.8,1.7,1.7,1.7c1.1,0,2-0.7,2.3-1.6
			c0.1-0.2,0.1-0.5,0.1-0.8V14.3z"/>
		<path id="XMLID_42_" class="st0" d="M123.1,0.3v16.4c0,1.6,0.1,3.3,0.1,4.2h-3.9l-0.2-2.1H119c-0.9,1.6-2.6,2.4-4.5,2.4
			c-3.4,0-6.1-2.9-6.1-7.3c0-4.8,3-7.6,6.4-7.6c1.7,0,3.1,0.6,3.8,1.6h0.1V0.3H123.1z M118.7,12.8c0-0.2,0-0.6-0.1-0.8
			c-0.3-1.2-1.2-2.2-2.6-2.2c-2,0-3.1,1.8-3.1,4c0,2.4,1.2,3.9,3,3.9c1.3,0,2.3-0.9,2.6-2.1c0.1-0.3,0.1-0.6,0.1-1V12.8z"/>
		<path id="XMLID_40_" class="st0" d="M132.8,16.4c1.2,0.6,3,1.2,4.9,1.2c2,0,3.1-0.8,3.1-2.1c0-1.2-0.9-1.9-3.3-2.8
			c-3.3-1.1-5.4-2.9-5.4-5.8c0-3.3,2.8-5.9,7.4-5.9c2.2,0,3.8,0.5,5,1l-1,3.6c-0.8-0.4-2.2-0.9-4.1-0.9s-2.9,0.9-2.9,1.9
			c0,1.3,1.1,1.8,3.6,2.8c3.5,1.3,5.1,3.1,5.1,5.8c0,3.3-2.5,6.1-7.9,6.1c-2.2,0-4.5-0.6-5.6-1.2L132.8,16.4z"/>
		<path id="XMLID_37_" class="st0" d="M148.2,11.5c0-1.9-0.1-3.5-0.1-4.8h3.8l0.2,2h0.1c1-1.5,2.7-2.3,4.7-2.3
			c3.1,0,5.9,2.7,5.9,7.2c0,5.2-3.3,7.6-6.5,7.6c-1.7,0-3.1-0.7-3.7-1.6h-0.1v7.1h-4.4V11.5z M152.7,14.9c0,0.3,0,0.7,0.1,0.9
			c0.3,1.2,1.3,2.1,2.6,2.1c1.9,0,3.1-1.6,3.1-4c0-2.3-1-4-3-4c-1.3,0-2.4,0.9-2.6,2.2c-0.1,0.2-0.1,0.5-0.1,0.8V14.9z"/>
		<path id="XMLID_34_" class="st0" d="M169.1,15.3c0.1,1.8,1.9,2.7,4,2.7c1.5,0,2.7-0.2,3.9-0.6l0.6,3c-1.5,0.6-3.2,0.9-5.2,0.9
			c-4.8,0-7.6-2.8-7.6-7.2c0-3.6,2.2-7.6,7.2-7.6c4.6,0,6.3,3.6,6.3,7.1c0,0.8-0.1,1.4-0.1,1.7H169.1z M174.3,12.3
			c0-1.1-0.5-2.9-2.5-2.9c-1.9,0-2.6,1.7-2.7,2.9H174.3z"/>
		<path id="XMLID_32_" class="st0" d="M191.8,20.6c-0.8,0.3-2.3,0.6-4,0.6c-4.6,0-7.5-2.8-7.5-7.3c0-4.2,2.9-7.6,8.1-7.6
			c1.2,0,2.4,0.2,3.4,0.6l-0.7,3.3c-0.5-0.2-1.3-0.4-2.5-0.4c-2.3,0-3.8,1.7-3.8,4c0,2.6,1.7,4,3.9,4c1,0,1.9-0.2,2.5-0.4
			L191.8,20.6z"/>
		<path id="XMLID_30_" class="st0" d="M199.6,2.7v4.1h3.2V10h-3.2v5.2c0,1.7,0.4,2.5,1.7,2.5c0.6,0,1-0.1,1.3-0.1l0,3.3
			c-0.6,0.2-1.6,0.4-2.9,0.4c-1.4,0-2.6-0.5-3.3-1.2c-0.8-0.8-1.2-2.2-1.2-4.2V10h-1.9V6.8h1.9V3.7L199.6,2.7z"/>
		<path id="XMLID_28_" class="st0" d="M205.4,11.4c0-2.1-0.1-3.5-0.1-4.7h3.8l0.1,2.6h0.1c0.7-2.1,2.5-2.9,3.8-2.9
			c0.4,0,0.6,0,0.9,0.1v4.2c-0.3-0.1-0.7-0.1-1.2-0.1c-1.6,0-2.7,0.9-3,2.2c-0.1,0.3-0.1,0.6-0.1,1V21h-4.4V11.4z"/>
		<path id="XMLID_26_" class="st0" d="M229.8,16.4c0,1.9,0.1,3.4,0.1,4.6H226l-0.2-2h-0.1c-0.6,0.9-1.9,2.3-4.5,2.3
			c-2.9,0-5-1.8-5-6.2V6.8h4.5v7.7c0,2.1,0.7,3.3,2.2,3.3c1.2,0,1.9-0.8,2.2-1.5c0.1-0.3,0.1-0.6,0.1-1V6.8h4.5V16.4z"/>
		<path id="XMLID_24_" class="st0" d="M233.3,11.3c0-1.8-0.1-3.3-0.1-4.5h3.7l0.2,1.9h0.1c0.6-0.9,1.9-2.2,4.3-2.2
			c1.8,0,3.3,0.9,3.9,2.4h0.1c0.5-0.7,1.2-1.3,1.8-1.7c0.8-0.5,1.7-0.7,2.7-0.7c2.7,0,4.8,1.9,4.8,6.2V21h-4.3v-7.7
			c0-2.1-0.7-3.3-2.1-3.3c-1,0-1.7,0.7-2,1.5c-0.1,0.3-0.2,0.8-0.2,1.1V21h-4.3v-8c0-1.8-0.6-3-2-3c-1.1,0-1.8,0.9-2.1,1.6
			c-0.1,0.3-0.2,0.8-0.2,1.1V21h-4.3V11.3z"/>
		<path id="XMLID_22_" class="st0" d="M276,12.7h-7.2v4.7h8.1V21h-12.5V1.4h12.1V5h-7.7v4.1h7.2V12.7z"/>
		<path id="XMLID_20_" class="st0" d="M280.1,21V10h-1.9V6.8h1.9V6.2c0-1.7,0.5-3.6,1.8-4.8c1.1-1,2.6-1.4,3.9-1.4
			c1,0,1.7,0.1,2.4,0.3L288,3.7c-0.4-0.1-0.8-0.2-1.4-0.2c-1.5,0-2.1,1.1-2.1,2.5v0.7h2.9V10h-2.8v11H280.1z"/>
		<path id="XMLID_18_" class="st0" d="M290,21V10h-1.9V6.8h1.9V6.1c0-3.9,3.1-6.1,7.4-6.1c1.5,0,3.3,0.3,4.2,0.9l-0.8,3.3
			c-0.7-0.4-1.8-0.7-3.2-0.7c-2.3,0-3.1,1.2-3.1,2.8v0.5h8.6V21h-4.4V10h-4.2v11H290z"/>
		<path id="XMLID_16_" class="st0" d="M317.3,20.6c-0.8,0.3-2.3,0.6-4,0.6c-4.6,0-7.5-2.8-7.5-7.3c0-4.2,2.9-7.6,8.1-7.6
			c1.2,0,2.4,0.2,3.4,0.6l-0.7,3.3c-0.5-0.2-1.3-0.4-2.5-0.4c-2.3,0-3.8,1.7-3.8,4c0,2.6,1.7,4,3.9,4c1,0,1.9-0.2,2.5-0.4
			L317.3,20.6z"/>
		<path id="XMLID_13_" class="st0" d="M328,21l-0.3-1.4h-0.1c-0.9,1.1-2.4,1.7-4.1,1.7c-2.9,0-4.6-2.1-4.6-4.4
			c0-3.7,3.3-5.5,8.4-5.4v-0.2c0-0.8-0.4-1.8-2.6-1.8c-1.5,0-3,0.5-3.9,1.1L320,7.7c1-0.6,2.9-1.3,5.5-1.3c4.7,0,6.3,2.8,6.3,6.1
			v4.9c0,1.4,0.1,2.7,0.2,3.5H328z M327.5,14.3c-2.3,0-4.1,0.5-4.1,2.2c0,1.1,0.8,1.7,1.7,1.7c1.1,0,2-0.7,2.3-1.6
			c0.1-0.2,0.1-0.5,0.1-0.8V14.3z"/>
		<path id="XMLID_11_" class="st0" d="M345.9,20.6c-0.8,0.3-2.3,0.6-4,0.6c-4.6,0-7.5-2.8-7.5-7.3c0-4.2,2.9-7.6,8.1-7.6
			c1.2,0,2.4,0.2,3.4,0.6l-0.7,3.3c-0.5-0.2-1.3-0.4-2.5-0.4c-2.3,0-3.8,1.7-3.8,4c0,2.6,1.7,4,3.9,4c1,0,1.9-0.2,2.5-0.4
			L345.9,20.6z"/>
		<path id="XMLID_9_" class="st0" d="M352.1,6.8l2.1,7c0.2,0.8,0.5,1.9,0.7,2.6h0.1c0.2-0.8,0.4-1.8,0.6-2.6l1.7-7h4.7l-3.3,9.4
			c-2,5.6-3.4,7.9-5,9.3c-1.5,1.3-3.2,1.8-4.3,1.9l-0.9-3.8c0.6-0.1,1.3-0.3,1.9-0.8c0.7-0.3,1.4-1,1.8-1.8c0.1-0.2,0.2-0.4,0.2-0.6
			c0-0.1,0-0.4-0.2-0.7l-5.2-13H352.1z"/>
		<path id="XMLID_7_" class="st0" d="M362.3,18.6c0-1.6,1.1-2.7,2.6-2.7c1.5,0,2.6,1.1,2.6,2.7c0,1.5-1,2.7-2.6,2.7
			C363.4,21.3,362.3,20.2,362.3,18.6z"/>
	</g>
</g>
<g id="XMLID_1_">
	<path id="XMLID_3_" class="st0" d="M3.8,15c0,0,3.5-7.6,16.7-7.6C33.7,7.3,41,2.7,41,2.7s-9.4,9.7-18.6,9.7
		C13.2,12.4,7.6,12.4,3.8,15"/>
	<path id="XMLID_2_" class="st1" d="M0,22.2c0,0,3.5-7.6,16.7-7.6c13.2,0,20.5-4.6,20.5-4.6s-9.4,9.7-18.6,9.7
		C9.4,19.6,3.8,19.6,0,22.2"/>
</g>
</svg>
