<!-- Generator: Adobe Illustrator 22.1.0, SVG Export Plug-In  -->
<svg version="1.1"
	 xmlns="http://www.w3.org/2000/svg" xmlns:xlink="http://www.w3.org/1999/xlink" xmlns:a="http://ns.adobe.com/AdobeSVGViewerExtensions/3.0/"
	 x="0px" y="0px" width="206.4px" height="22.1px" viewBox="0 0 206.4 22.1" style="enable-background:new 0 0 206.4 22.1;"
	 xml:space="preserve">
<style type="text/css">
	.st0{fill:#5C2D91;}
</style>
<defs>
</defs>
<g id="XMLID_16_">
	<path id="XMLID_28_" class="st0" d="M11.7,13c0,0.9-0.1,1.6-0.4,2.3C11,16,10.6,16.5,10,17c-0.5,0.4-1.2,0.8-1.9,1
		c-0.7,0.2-1.6,0.3-2.4,0.3c-1.1,0-2-0.1-2.9-0.3c-0.9-0.2-1.8-0.6-2.7-1.2l1.4-2.5c0.7,0.4,1.4,0.7,2.1,0.9
		c0.7,0.2,1.4,0.3,2.2,0.3c1,0,1.8-0.2,2.3-0.6c0.5-0.4,0.8-1,0.8-1.8c0-0.4-0.1-0.7-0.2-1c-0.1-0.3-0.3-0.5-0.5-0.7
		c-0.2-0.2-0.5-0.3-0.8-0.4c-0.3-0.1-0.6-0.1-1-0.1c-0.7,0-1.2,0.1-1.7,0.3c-0.5,0.2-0.8,0.4-1.2,0.6l-2.8-1l0.5-7.3h9.7v2.8h-7
		L3.7,8.9C4.1,8.6,4.5,8.5,5,8.4c0.5-0.1,1.1-0.2,1.7-0.2c0.8,0,1.5,0.1,2.2,0.4s1.1,0.6,1.6,1s0.7,0.9,0.9,1.5
		C11.6,11.7,11.7,12.3,11.7,13z"/>
	<path id="XMLID_25_" class="st0" d="M25.7,10.8c0,1.1-0.1,2.1-0.4,3c-0.3,0.9-0.7,1.7-1.2,2.4s-1.2,1.2-1.9,1.6
		c-0.8,0.4-1.6,0.6-2.6,0.6c-1,0-1.9-0.2-2.6-0.5c-0.8-0.4-1.4-0.9-1.9-1.5c-0.5-0.7-0.9-1.4-1.2-2.4c-0.3-0.9-0.4-1.9-0.4-3
		c0-1.1,0.1-2.1,0.4-3c0.3-0.9,0.7-1.7,1.2-2.4c0.5-0.7,1.2-1.2,1.9-1.5c0.8-0.4,1.6-0.6,2.6-0.6s1.9,0.2,2.6,0.5
		c0.8,0.4,1.4,0.9,1.9,1.5c0.5,0.7,0.9,1.4,1.2,2.4S25.7,9.7,25.7,10.8z M22.8,10.8c0-0.7-0.1-1.3-0.2-1.8c-0.1-0.6-0.3-1.1-0.6-1.5
		c-0.3-0.4-0.6-0.7-1-1c-0.4-0.2-0.9-0.4-1.4-0.4c-0.6,0-1,0.1-1.4,0.4c-0.4,0.2-0.7,0.6-1,1c-0.3,0.4-0.4,0.9-0.6,1.5
		c-0.1,0.6-0.2,1.2-0.2,1.8s0.1,1.3,0.2,1.8c0.1,0.6,0.3,1.1,0.6,1.5c0.3,0.4,0.6,0.8,1,1s0.9,0.4,1.4,0.4c0.6,0,1-0.1,1.4-0.4
		s0.7-0.6,1-1s0.4-0.9,0.6-1.5C22.7,12.1,22.8,11.4,22.8,10.8z"/>
	<path id="XMLID_22_" class="st0" d="M39.5,10.8c0,1.1-0.1,2.1-0.4,3c-0.3,0.9-0.7,1.7-1.2,2.4s-1.2,1.2-1.9,1.6
		c-0.8,0.4-1.6,0.6-2.6,0.6c-1,0-1.9-0.2-2.6-0.5c-0.8-0.4-1.4-0.9-1.9-1.5c-0.5-0.7-0.9-1.4-1.2-2.4c-0.3-0.9-0.4-1.9-0.4-3
		c0-1.1,0.1-2.1,0.4-3C28,6.8,28.3,6,28.9,5.4c0.5-0.7,1.2-1.2,1.9-1.5c0.8-0.4,1.6-0.6,2.6-0.6s1.9,0.2,2.6,0.5
		c0.8,0.4,1.4,0.9,1.9,1.5c0.5,0.7,0.9,1.4,1.2,2.4S39.5,9.7,39.5,10.8z M36.6,10.8c0-0.7-0.1-1.3-0.2-1.8c-0.1-0.6-0.3-1.1-0.6-1.5
		c-0.3-0.4-0.6-0.7-1-1c-0.4-0.2-0.9-0.4-1.4-0.4c-0.6,0-1,0.1-1.4,0.4c-0.4,0.2-0.7,0.6-1,1c-0.3,0.4-0.4,0.9-0.6,1.5
		c-0.1,0.6-0.2,1.2-0.2,1.8s0.1,1.3,0.2,1.8c0.1,0.6,0.3,1.1,0.6,1.5c0.3,0.4,0.6,0.8,1,1s0.9,0.4,1.4,0.4c0.6,0,1-0.1,1.4-0.4
		s0.7-0.6,1-1s0.4-0.9,0.6-1.5C36.5,12.1,36.6,11.4,36.6,10.8z"/>
	<path id="XMLID_20_" class="st0" d="M60.4,18.1v-5.9c0-1-0.1-1.6-0.4-2c-0.3-0.4-0.7-0.5-1.3-0.5c-0.6,0-1,0.2-1.3,0.5
		c-0.3,0.4-0.4,1-0.4,1.9v6h-2.9v-5.9c0-1-0.1-1.6-0.4-2c-0.3-0.4-0.7-0.5-1.3-0.5s-1,0.2-1.3,0.5c-0.3,0.4-0.4,1-0.4,1.9v6h-2.9
		V7.2h2.9v0.7c0.2-0.3,0.6-0.5,0.9-0.7c0.4-0.2,0.9-0.3,1.4-0.3c0.7,0,1.3,0.1,1.7,0.3c0.5,0.2,0.9,0.6,1.3,1.1
		c0.4-0.4,0.8-0.7,1.3-1c0.5-0.3,1.2-0.4,2.1-0.4c0.7,0,1.3,0.1,1.8,0.3s0.9,0.6,1.2,1c0.3,0.4,0.5,1,0.7,1.6
		c0.1,0.6,0.2,1.3,0.2,2.1v6.1H60.4z"/>
	<path id="XMLID_17_" class="st0" d="M74.8,16.2c0,0.9-0.1,1.7-0.2,2.4c-0.1,0.7-0.4,1.3-0.7,1.7c-0.3,0.5-0.8,0.9-1.4,1.2
		c-0.6,0.3-1.4,0.5-2.3,0.6l-1-2.2c0.6-0.1,1-0.2,1.4-0.3s0.7-0.3,0.9-0.5c0.2-0.2,0.4-0.4,0.5-0.7c0.1-0.3,0.1-0.6,0.1-1.1
		c-0.3,0.2-0.6,0.4-1,0.6c-0.4,0.2-0.8,0.3-1.3,0.3c-0.6,0-1.1-0.1-1.6-0.3c-0.5-0.2-1-0.6-1.3-1c-0.4-0.5-0.7-1.1-0.9-1.8
		s-0.3-1.6-0.3-2.6c0-0.8,0.1-1.6,0.3-2.2s0.5-1.3,0.8-1.8c0.4-0.5,0.8-0.9,1.3-1.1c0.5-0.3,1.1-0.4,1.8-0.4c0.5,0,0.9,0.1,1.3,0.2
		s0.7,0.4,1,0.6V7.2h2.9V16.2z M71.9,10.6c-0.5-0.6-1.1-0.9-1.9-0.9c-1.1,0-1.7,0.9-1.7,2.8c0,1.1,0.2,1.9,0.5,2.4
		c0.3,0.5,0.8,0.7,1.4,0.7c0.4,0,0.8-0.1,1.1-0.2s0.5-0.4,0.7-0.7V10.6z"/>
</g>
<g id="XMLID_2_">
	<path id="XMLID_14_" class="st0" d="M143.3,13c0,0.9-0.1,1.6-0.4,2.3c-0.3,0.7-0.7,1.2-1.2,1.7c-0.5,0.4-1.2,0.8-1.9,1
		c-0.7,0.2-1.6,0.3-2.4,0.3c-1.1,0-2-0.1-2.9-0.3c-0.9-0.2-1.8-0.6-2.7-1.2l1.4-2.5c0.7,0.4,1.4,0.7,2.1,0.9
		c0.7,0.2,1.4,0.3,2.2,0.3c1,0,1.8-0.2,2.3-0.6c0.5-0.4,0.8-1,0.8-1.8c0-0.4-0.1-0.7-0.2-1c-0.1-0.3-0.3-0.5-0.5-0.7
		c-0.2-0.2-0.5-0.3-0.8-0.4c-0.3-0.1-0.6-0.1-1-0.1c-0.7,0-1.2,0.1-1.7,0.3c-0.5,0.2-0.8,0.4-1.2,0.6l-2.8-1l0.5-7.3h9.7v2.8h-7
		l-0.2,2.5c0.4-0.2,0.8-0.4,1.3-0.5c0.5-0.1,1.1-0.2,1.7-0.2c0.8,0,1.5,0.1,2.2,0.4s1.1,0.6,1.6,1s0.7,0.9,0.9,1.5
		C143.2,11.7,143.3,12.3,143.3,13z"/>
	<path id="XMLID_11_" class="st0" d="M157.4,10.8c0,1.1-0.1,2.1-0.4,3c-0.3,0.9-0.7,1.7-1.2,2.4s-1.2,1.2-1.9,1.6
		c-0.8,0.4-1.6,0.6-2.6,0.6c-1,0-1.9-0.2-2.6-0.5c-0.8-0.4-1.4-0.9-1.9-1.5c-0.5-0.7-0.9-1.4-1.2-2.4c-0.3-0.9-0.4-1.9-0.4-3
		c0-1.1,0.1-2.1,0.4-3c0.3-0.9,0.7-1.7,1.2-2.4c0.5-0.7,1.2-1.2,1.9-1.5c0.8-0.4,1.6-0.6,2.6-0.6s1.9,0.2,2.6,0.5
		c0.8,0.4,1.4,0.9,1.9,1.5c0.5,0.7,0.9,1.4,1.2,2.4S157.4,9.7,157.4,10.8z M154.4,10.8c0-0.7-0.1-1.3-0.2-1.8
		c-0.1-0.6-0.3-1.1-0.6-1.5c-0.3-0.4-0.6-0.7-1-1c-0.4-0.2-0.9-0.4-1.4-0.4c-0.6,0-1,0.1-1.4,0.4c-0.4,0.2-0.7,0.6-1,1
		c-0.3,0.4-0.4,0.9-0.6,1.5c-0.1,0.6-0.2,1.2-0.2,1.8s0.1,1.3,0.2,1.8c0.1,0.6,0.3,1.1,0.6,1.5c0.3,0.4,0.6,0.8,1,1s0.9,0.4,1.4,0.4
		c0.6,0,1-0.1,1.4-0.4s0.7-0.6,1-1s0.4-0.9,0.6-1.5C154.3,12.1,154.4,11.4,154.4,10.8z"/>
	<path id="XMLID_8_" class="st0" d="M171.1,10.8c0,1.1-0.1,2.1-0.4,3c-0.3,0.9-0.7,1.7-1.2,2.4s-1.2,1.2-1.9,1.6
		c-0.8,0.4-1.6,0.6-2.6,0.6c-1,0-1.9-0.2-2.6-0.5c-0.8-0.4-1.4-0.9-1.9-1.5c-0.5-0.7-0.9-1.4-1.2-2.4c-0.3-0.9-0.4-1.9-0.4-3
		c0-1.1,0.1-2.1,0.4-3c0.3-0.9,0.7-1.7,1.2-2.4c0.5-0.7,1.2-1.2,1.9-1.5c0.8-0.4,1.6-0.6,2.6-0.6s1.9,0.2,2.6,0.5
		c0.8,0.4,1.4,0.9,1.9,1.5c0.5,0.7,0.9,1.4,1.2,2.4S171.1,9.7,171.1,10.8z M168.2,10.8c0-0.7-0.1-1.3-0.2-1.8
		c-0.1-0.6-0.3-1.1-0.6-1.5c-0.3-0.4-0.6-0.7-1-1c-0.4-0.2-0.9-0.4-1.4-0.4c-0.6,0-1,0.1-1.4,0.4c-0.4,0.2-0.7,0.6-1,1
		c-0.3,0.4-0.4,0.9-0.6,1.5c-0.1,0.6-0.2,1.2-0.2,1.8s0.1,1.3,0.2,1.8c0.1,0.6,0.3,1.1,0.6,1.5c0.3,0.4,0.6,0.8,1,1s0.9,0.4,1.4,0.4
		c0.6,0,1-0.1,1.4-0.4s0.7-0.6,1-1s0.4-0.9,0.6-1.5C168.1,12.1,168.2,11.4,168.2,10.8z"/>
	<path id="XMLID_6_" class="st0" d="M192,18.1v-5.9c0-1-0.1-1.6-0.4-2c-0.3-0.4-0.7-0.5-1.3-0.5c-0.6,0-1,0.2-1.3,0.5
		c-0.3,0.4-0.4,1-0.4,1.9v6h-2.9v-5.9c0-1-0.1-1.6-0.4-2c-0.3-0.4-0.7-0.5-1.3-0.5s-1,0.2-1.3,0.5c-0.3,0.4-0.4,1-0.4,1.9v6h-2.9
		V7.2h2.9v0.7c0.2-0.3,0.6-0.5,0.9-0.7c0.4-0.2,0.9-0.3,1.4-0.3c0.7,0,1.3,0.1,1.7,0.3c0.5,0.2,0.9,0.6,1.3,1.1
		c0.4-0.4,0.8-0.7,1.3-1c0.5-0.3,1.2-0.4,2.1-0.4c0.7,0,1.3,0.1,1.8,0.3s0.9,0.6,1.2,1c0.3,0.4,0.5,1,0.7,1.6
		c0.1,0.6,0.2,1.3,0.2,2.1v6.1H192z"/>
	<path id="XMLID_3_" class="st0" d="M206.4,16.2c0,0.9-0.1,1.7-0.2,2.4c-0.1,0.7-0.4,1.3-0.7,1.7c-0.3,0.5-0.8,0.9-1.4,1.2
		c-0.6,0.3-1.4,0.5-2.3,0.6l-1-2.2c0.6-0.1,1-0.2,1.4-0.3s0.7-0.3,0.9-0.5c0.2-0.2,0.4-0.4,0.5-0.7c0.1-0.3,0.1-0.6,0.1-1.1
		c-0.3,0.2-0.6,0.4-1,0.6c-0.4,0.2-0.8,0.3-1.3,0.3c-0.6,0-1.1-0.1-1.6-0.3c-0.5-0.2-1-0.6-1.3-1c-0.4-0.5-0.7-1.1-0.9-1.8
		s-0.3-1.6-0.3-2.6c0-0.8,0.1-1.6,0.3-2.2s0.5-1.3,0.8-1.8c0.4-0.5,0.8-0.9,1.3-1.1c0.5-0.3,1.1-0.4,1.8-0.4c0.5,0,0.9,0.1,1.3,0.2
		s0.7,0.4,1,0.6V7.2h2.9V16.2z M203.6,10.6c-0.5-0.6-1.1-0.9-1.9-0.9c-1.1,0-1.7,0.9-1.7,2.8c0,1.1,0.2,1.9,0.5,2.4
		c0.3,0.5,0.8,0.7,1.4,0.7c0.4,0,0.8-0.1,1.1-0.2s0.5-0.4,0.7-0.7V10.6z"/>
</g>
</svg>
