<!-- Generator: Adobe Illustrator 22.1.0, SVG Export Plug-In  -->
<svg version="1.1"
	 xmlns="http://www.w3.org/2000/svg" xmlns:xlink="http://www.w3.org/1999/xlink" xmlns:a="http://ns.adobe.com/AdobeSVGViewerExtensions/3.0/"
	 x="0px" y="0px" width="391.8px" height="348.2px" viewBox="0 0 391.8 348.2" style="enable-background:new 0 0 391.8 348.2;"
	 xml:space="preserve">
<style type="text/css">
	.st0{fill:none;stroke:#BBBDBF;stroke-width:0.1543;}
	.st1{fill:#58595B;}
	.st2{fill:#231F20;}
	.st3{fill:none;stroke:url(#XMLID_203_);stroke-miterlimit:10;}
	.st4{fill:#236092;}
	.st5{fill:#522D6D;}
	.st6{fill:none;stroke:url(#XMLID_204_);stroke-miterlimit:10;}
</style>
<defs>
</defs>
<g id="XMLID_118_">
	<g id="XMLID_201_">
		<line id="XMLID_202_" class="st0" x1="64.1" y1="43.5" x2="64.1" y2="318.7"/>
	</g>
	<line id="XMLID_200_" class="st0" x1="64.7" y1="262.7" x2="368.4" y2="262.7"/>
	<line id="XMLID_199_" class="st0" x1="64.7" y1="207.3" x2="368.4" y2="207.3"/>
	<line id="XMLID_198_" class="st0" x1="64.7" y1="154.5" x2="368.4" y2="154.5"/>
	<line id="XMLID_197_" class="st0" x1="64.7" y1="99" x2="368.4" y2="99"/>
	<line id="XMLID_196_" class="st0" x1="63.5" y1="43.5" x2="368.4" y2="43.5"/>
	<line id="XMLID_195_" class="st0" x1="63.5" y1="318.2" x2="368.4" y2="318.2"/>
	<g id="XMLID_182_">
		<g id="XMLID_184_">
			<path id="XMLID_188_" class="st1" d="M49.2,211.3c0-0.5,0.1-0.9,0.2-1.2c0.1-0.3,0.3-0.6,0.5-0.9s0.5-0.5,0.8-0.7
				c0.3-0.2,0.6-0.4,0.9-0.6c0.2-0.1,0.4-0.2,0.5-0.3s0.2-0.2,0.3-0.3c0.1-0.1,0.1-0.2,0.2-0.3c0-0.1,0-0.2,0-0.3
				c0-0.3-0.1-0.5-0.3-0.6c-0.2-0.1-0.5-0.2-0.9-0.2c-0.3,0-0.5,0.1-0.8,0.2s-0.5,0.3-0.7,0.5l-0.6-0.7c0.3-0.3,0.6-0.5,1-0.6
				c0.4-0.1,0.8-0.2,1.2-0.2c0.7,0,1.2,0.1,1.6,0.4c0.4,0.3,0.6,0.7,0.6,1.3c0,0.2,0,0.5-0.1,0.6s-0.2,0.3-0.3,0.5
				c-0.1,0.2-0.3,0.3-0.5,0.4c-0.2,0.1-0.4,0.3-0.7,0.5c-0.3,0.2-0.5,0.3-0.7,0.5c-0.2,0.1-0.4,0.3-0.5,0.4s-0.2,0.3-0.3,0.4
				s-0.1,0.3-0.2,0.4h3.3v0.9H49.2z"/>
			<path id="XMLID_185_" class="st1" d="M59.8,208.2c0,0.5-0.1,0.9-0.2,1.3c-0.1,0.4-0.3,0.7-0.5,1s-0.5,0.5-0.8,0.7
				s-0.7,0.2-1.1,0.2s-0.8-0.1-1.1-0.2s-0.6-0.4-0.8-0.7c-0.2-0.3-0.4-0.6-0.5-1s-0.2-0.8-0.2-1.3c0-0.5,0.1-0.9,0.2-1.3
				c0.1-0.4,0.3-0.7,0.5-1c0.2-0.3,0.5-0.5,0.8-0.7c0.3-0.2,0.7-0.2,1.1-0.2c0.4,0,0.8,0.1,1.1,0.2c0.3,0.2,0.6,0.4,0.8,0.7
				s0.4,0.6,0.5,1C59.8,207.3,59.8,207.7,59.8,208.2z M58.9,208.2c0-0.3,0-0.6-0.1-0.9s-0.1-0.5-0.3-0.7c-0.1-0.2-0.3-0.4-0.5-0.5
				s-0.4-0.2-0.7-0.2s-0.5,0.1-0.7,0.2c-0.2,0.1-0.3,0.3-0.5,0.5c-0.1,0.2-0.2,0.5-0.3,0.7c-0.1,0.3-0.1,0.6-0.1,0.9
				c0,0.3,0,0.6,0.1,0.9c0.1,0.3,0.1,0.5,0.3,0.7c0.1,0.2,0.3,0.4,0.5,0.5c0.2,0.1,0.4,0.2,0.7,0.2c0.3,0,0.5-0.1,0.7-0.2
				c0.2-0.1,0.3-0.3,0.5-0.5c0.1-0.2,0.2-0.5,0.3-0.7S58.9,208.5,58.9,208.2z"/>
		</g>
	</g>
	<g id="XMLID_169_">
		<g id="XMLID_171_">
			<path id="XMLID_175_" class="st1" d="M50,267v-4.8h-1.1v-0.7c0.3,0,0.6-0.1,0.8-0.2c0.2-0.1,0.4-0.3,0.4-0.6H51v6.3H50z"/>
			<path id="XMLID_172_" class="st1" d="M57.2,263.8c0,0.5-0.1,0.9-0.2,1.3c-0.1,0.4-0.3,0.7-0.5,1s-0.5,0.5-0.8,0.7
				s-0.7,0.2-1.1,0.2s-0.8-0.1-1.1-0.2s-0.6-0.4-0.8-0.7c-0.2-0.3-0.4-0.6-0.5-1s-0.2-0.8-0.2-1.3c0-0.5,0.1-0.9,0.2-1.3
				c0.1-0.4,0.3-0.7,0.5-1c0.2-0.3,0.5-0.5,0.8-0.7c0.3-0.2,0.7-0.2,1.1-0.2c0.4,0,0.8,0.1,1.1,0.2c0.3,0.2,0.6,0.4,0.8,0.7
				s0.4,0.6,0.5,1C57.2,262.9,57.2,263.4,57.2,263.8z M56.3,263.9c0-0.3,0-0.6-0.1-0.9s-0.1-0.5-0.3-0.7c-0.1-0.2-0.3-0.4-0.5-0.5
				s-0.4-0.2-0.7-0.2s-0.5,0.1-0.7,0.2c-0.2,0.1-0.3,0.3-0.5,0.5c-0.1,0.2-0.2,0.5-0.3,0.7c-0.1,0.3-0.1,0.6-0.1,0.9
				c0,0.3,0,0.6,0.1,0.9c0.1,0.3,0.1,0.5,0.3,0.7c0.1,0.2,0.3,0.4,0.5,0.5c0.2,0.1,0.4,0.2,0.7,0.2c0.3,0,0.5-0.1,0.7-0.2
				c0.2-0.1,0.3-0.3,0.5-0.5c0.1-0.2,0.2-0.5,0.3-0.7S56.3,264.2,56.3,263.9z"/>
		</g>
	</g>
	<g id="XMLID_160_">
		<g id="XMLID_162_">
			<path id="XMLID_163_" class="st1" d="M54.2,316.3c0,0.5-0.1,0.9-0.2,1.3c-0.1,0.4-0.3,0.7-0.5,1s-0.5,0.5-0.8,0.7
				s-0.7,0.2-1.1,0.2s-0.8-0.1-1.1-0.2s-0.6-0.4-0.8-0.7c-0.2-0.3-0.4-0.6-0.5-1s-0.2-0.8-0.2-1.3c0-0.5,0.1-0.9,0.2-1.3
				c0.1-0.4,0.3-0.7,0.5-1c0.2-0.3,0.5-0.5,0.8-0.7c0.3-0.2,0.7-0.2,1.1-0.2c0.4,0,0.8,0.1,1.1,0.2c0.3,0.2,0.6,0.4,0.8,0.7
				s0.4,0.6,0.5,1C54.1,315.4,54.2,315.8,54.2,316.3z M53.2,316.3c0-0.3,0-0.6-0.1-0.9s-0.1-0.5-0.3-0.7c-0.1-0.2-0.3-0.4-0.5-0.5
				S52,314,51.7,314s-0.5,0.1-0.7,0.2c-0.2,0.1-0.3,0.3-0.5,0.5c-0.1,0.2-0.2,0.5-0.3,0.7c-0.1,0.3-0.1,0.6-0.1,0.9
				c0,0.3,0,0.6,0.1,0.9c0.1,0.3,0.1,0.5,0.3,0.7c0.1,0.2,0.3,0.4,0.5,0.5c0.2,0.1,0.4,0.2,0.7,0.2c0.3,0,0.5-0.1,0.7-0.2
				c0.2-0.1,0.3-0.3,0.5-0.5c0.1-0.2,0.2-0.5,0.3-0.7S53.2,316.6,53.2,316.3z"/>
		</g>
	</g>
	<g id="XMLID_147_">
		<g id="XMLID_149_">
			<path id="XMLID_153_" class="st1" d="M53.6,156.1c0,0.6-0.2,1.1-0.6,1.5c-0.4,0.3-1,0.5-1.7,0.5c-0.2,0-0.4,0-0.7-0.1
				s-0.4-0.1-0.6-0.2c-0.2-0.1-0.4-0.2-0.6-0.3c-0.2-0.1-0.3-0.3-0.4-0.4l0.7-0.6c0.2,0.2,0.4,0.4,0.7,0.5c0.3,0.1,0.6,0.2,0.8,0.2
				c0.5,0,0.9-0.1,1.1-0.3s0.3-0.4,0.3-0.8s-0.1-0.6-0.3-0.7c-0.2-0.2-0.5-0.2-0.8-0.2h-0.6v-0.9h0.6c0.3,0,0.5-0.1,0.7-0.3
				c0.1-0.2,0.2-0.4,0.2-0.6c0-0.1,0-0.2-0.1-0.3c0-0.1-0.1-0.2-0.2-0.3s-0.2-0.2-0.4-0.2s-0.3-0.1-0.6-0.1c-0.3,0-0.5,0.1-0.7,0.2
				s-0.4,0.2-0.6,0.4l-0.7-0.7c0.3-0.3,0.6-0.5,0.9-0.6c0.3-0.1,0.7-0.2,1.1-0.2c0.3,0,0.6,0,0.8,0.1s0.5,0.2,0.7,0.3
				c0.2,0.1,0.3,0.3,0.5,0.5c0.1,0.2,0.2,0.5,0.2,0.7c0,0.4-0.1,0.7-0.2,0.9c-0.1,0.2-0.3,0.4-0.5,0.5c0.3,0.1,0.5,0.2,0.7,0.5
				C53.5,155.4,53.6,155.7,53.6,156.1z"/>
			<path id="XMLID_150_" class="st1" d="M59.7,154.9c0,0.5-0.1,0.9-0.2,1.3c-0.1,0.4-0.3,0.7-0.5,1s-0.5,0.5-0.8,0.7
				s-0.7,0.2-1.1,0.2s-0.8-0.1-1.1-0.2s-0.6-0.4-0.8-0.7c-0.2-0.3-0.4-0.6-0.5-1s-0.2-0.8-0.2-1.3c0-0.5,0.1-0.9,0.2-1.3
				c0.1-0.4,0.3-0.7,0.5-1c0.2-0.3,0.5-0.5,0.8-0.7c0.3-0.2,0.7-0.2,1.1-0.2c0.4,0,0.8,0.1,1.1,0.2c0.3,0.2,0.6,0.4,0.8,0.7
				s0.4,0.6,0.5,1C59.6,153.9,59.7,154.4,59.7,154.9z M58.7,154.9c0-0.3,0-0.6-0.1-0.9s-0.1-0.5-0.3-0.7c-0.1-0.2-0.3-0.4-0.5-0.5
				s-0.4-0.2-0.7-0.2s-0.5,0.1-0.7,0.2c-0.2,0.1-0.3,0.3-0.5,0.5c-0.1,0.2-0.2,0.5-0.3,0.7c-0.1,0.3-0.1,0.6-0.1,0.9
				c0,0.3,0,0.6,0.1,0.9c0.1,0.3,0.1,0.5,0.3,0.7c0.1,0.2,0.3,0.4,0.5,0.5c0.2,0.1,0.4,0.2,0.7,0.2c0.3,0,0.5-0.1,0.7-0.2
				c0.2-0.1,0.3-0.3,0.5-0.5c0.1-0.2,0.2-0.5,0.3-0.7S58.7,155.2,58.7,154.9z"/>
		</g>
	</g>
	<g id="XMLID_132_">
		<g id="XMLID_134_">
			<path id="XMLID_138_" class="st1" d="M53.4,100.7v1.4h-0.9v-1.4h-3.4v-0.9l3.2-4h1.1v4h0.8v0.8H53.4z M52.5,96.9
				c-0.1,0.1-0.1,0.2-0.3,0.3c-0.1,0.1-0.2,0.3-0.3,0.4l-1.2,1.5c-0.1,0.1-0.2,0.2-0.3,0.4s-0.2,0.2-0.3,0.3c0.1,0,0.1,0,0.2,0
				c0.1,0,0.2,0,0.3,0s0.2,0,0.3,0s0.2,0,0.3,0h1.3v-1.8c0-0.1,0-0.2,0-0.3s0-0.2,0-0.3c0-0.1,0-0.2,0-0.3
				C52.5,97.1,52.5,97,52.5,96.9z"/>
			<path id="XMLID_135_" class="st1" d="M60.2,99c0,0.5-0.1,0.9-0.2,1.3c-0.1,0.4-0.3,0.7-0.5,1s-0.5,0.5-0.8,0.7s-0.7,0.2-1.1,0.2
				s-0.8-0.1-1.1-0.2s-0.6-0.4-0.8-0.7c-0.2-0.3-0.4-0.6-0.5-1s-0.2-0.8-0.2-1.3c0-0.5,0.1-0.9,0.2-1.3c0.1-0.4,0.3-0.7,0.5-1
				c0.2-0.3,0.5-0.5,0.8-0.7c0.3-0.2,0.7-0.2,1.1-0.2c0.4,0,0.8,0.1,1.1,0.2c0.3,0.2,0.6,0.4,0.8,0.7s0.4,0.6,0.5,1
				C60.1,98.1,60.2,98.5,60.2,99z M59.2,99c0-0.3,0-0.6-0.1-0.9s-0.1-0.5-0.3-0.7c-0.1-0.2-0.3-0.4-0.5-0.5s-0.4-0.2-0.7-0.2
				s-0.5,0.1-0.7,0.2c-0.2,0.1-0.3,0.3-0.5,0.5c-0.1,0.2-0.2,0.5-0.3,0.7c-0.1,0.3-0.1,0.6-0.1,0.9c0,0.3,0,0.6,0.1,0.9
				c0.1,0.3,0.1,0.5,0.3,0.7c0.1,0.2,0.3,0.4,0.5,0.5c0.2,0.1,0.4,0.2,0.7,0.2c0.3,0,0.5-0.1,0.7-0.2c0.2-0.1,0.3-0.3,0.5-0.5
				c0.1-0.2,0.2-0.5,0.3-0.7S59.2,99.3,59.2,99z"/>
		</g>
	</g>
	<g id="XMLID_119_">
		<g id="XMLID_121_">
			<path id="XMLID_125_" class="st1" d="M53.9,44.5c0,0.4-0.1,0.7-0.2,1s-0.3,0.5-0.5,0.7s-0.5,0.3-0.8,0.4c-0.3,0.1-0.6,0.1-1,0.1
				c-0.4,0-0.8,0-1.1-0.1s-0.7-0.3-1-0.5l0.5-0.8c0.3,0.1,0.6,0.3,0.9,0.4s0.6,0.1,0.9,0.1c0.5,0,0.9-0.1,1.1-0.3
				c0.3-0.2,0.4-0.5,0.4-0.9c0-0.4-0.1-0.7-0.3-0.8c-0.2-0.2-0.5-0.3-0.9-0.3c-0.3,0-0.5,0-0.7,0.1c-0.2,0.1-0.4,0.2-0.5,0.3l-1-0.4
				l0.2-3.1h3.9v0.9h-3l-0.1,1.6c0.2-0.1,0.4-0.2,0.6-0.2s0.5-0.1,0.8-0.1c0.4,0,0.7,0,0.9,0.1s0.5,0.2,0.7,0.4
				c0.2,0.2,0.3,0.4,0.4,0.6C53.8,44,53.9,44.2,53.9,44.5z"/>
			<path id="XMLID_122_" class="st1" d="M59.9,43.5c0,0.5-0.1,0.9-0.2,1.3c-0.1,0.4-0.3,0.7-0.5,1s-0.5,0.5-0.8,0.7
				s-0.7,0.2-1.1,0.2s-0.8-0.1-1.1-0.2s-0.6-0.4-0.8-0.7c-0.2-0.3-0.4-0.6-0.5-1s-0.2-0.8-0.2-1.3c0-0.5,0.1-0.9,0.2-1.3
				c0.1-0.4,0.3-0.7,0.5-1c0.2-0.3,0.5-0.5,0.8-0.7c0.3-0.2,0.7-0.2,1.1-0.2c0.4,0,0.8,0.1,1.1,0.2c0.3,0.2,0.6,0.4,0.8,0.7
				s0.4,0.6,0.5,1C59.8,42.6,59.9,43.1,59.9,43.5z M58.9,43.5c0-0.3,0-0.6-0.1-0.9s-0.1-0.5-0.3-0.7c-0.1-0.2-0.3-0.4-0.5-0.5
				s-0.4-0.2-0.7-0.2s-0.5,0.1-0.7,0.2c-0.2,0.1-0.3,0.3-0.5,0.5c-0.1,0.2-0.2,0.5-0.3,0.7c-0.1,0.3-0.1,0.6-0.1,0.9
				c0,0.3,0,0.6,0.1,0.9c0.1,0.3,0.1,0.5,0.3,0.7c0.1,0.2,0.3,0.4,0.5,0.5c0.2,0.1,0.4,0.2,0.7,0.2c0.3,0,0.5-0.1,0.7-0.2
				c0.2-0.1,0.3-0.3,0.5-0.5c0.1-0.2,0.2-0.5,0.3-0.7S58.9,43.9,58.9,43.5z"/>
		</g>
	</g>
</g>
<g id="XMLID_56_">
	<path id="XMLID_115_" class="st2" d="M21,264.2c0.8,0,1.5,0.1,2.1,0.3c0.6,0.2,1.1,0.4,1.5,0.7c0.4,0.3,0.7,0.7,0.9,1.1
		c0.2,0.4,0.3,0.8,0.3,1.3c0,0.6-0.1,1.1-0.3,1.5c-0.2,0.4-0.5,0.8-0.9,1.1h3.6l0.7,1.3H16.7v-1.3l1.1,0c-0.3-0.3-0.6-0.7-0.9-1.1
		c-0.3-0.4-0.4-1-0.4-1.6c0-0.4,0.1-0.9,0.3-1.3c0.2-0.4,0.4-0.7,0.8-1c0.4-0.3,0.8-0.5,1.4-0.7S20.2,264.2,21,264.2z M21,265.5
		c-1.1,0-2,0.2-2.6,0.6c-0.6,0.4-0.9,1-0.9,1.7c0,0.5,0.1,0.9,0.4,1.3c0.2,0.4,0.6,0.7,1,1.1h4.5c0.4-0.3,0.7-0.6,1-1
		c0.3-0.4,0.4-0.9,0.4-1.4c0-0.8-0.3-1.3-0.9-1.7C23.2,265.7,22.3,265.5,21,265.5z"/>
	<path id="XMLID_113_" class="st2" d="M18,257.3c-0.1,0.2-0.2,0.4-0.2,0.6c-0.1,0.2-0.1,0.5-0.1,0.8c0,0.6,0.2,1.1,0.7,1.4
		c0.5,0.3,1.1,0.5,2,0.5h5.3v1.3h-9v-1.3h1.1c-0.4-0.2-0.7-0.5-0.9-0.9c-0.3-0.4-0.4-0.8-0.4-1.3c0-0.3,0-0.6,0.1-0.8
		c0-0.2,0.1-0.4,0.2-0.6L18,257.3z"/>
	<path id="XMLID_110_" class="st2" d="M21.1,247.5c0.8,0,1.4,0.1,2,0.3c0.6,0.2,1.1,0.5,1.5,0.8c0.4,0.4,0.7,0.8,0.9,1.3
		s0.3,1,0.3,1.5c0,0.5-0.1,1.1-0.3,1.5c-0.2,0.5-0.5,0.9-0.9,1.2c-0.4,0.3-0.9,0.6-1.5,0.8c-0.6,0.2-1.3,0.3-2,0.3s-1.4-0.1-2-0.3
		c-0.6-0.2-1.1-0.5-1.5-0.8c-0.4-0.4-0.7-0.8-0.9-1.3c-0.2-0.5-0.3-1-0.3-1.5c0-0.5,0.1-1.1,0.3-1.5c0.2-0.5,0.5-0.9,0.9-1.2
		c0.4-0.3,0.9-0.6,1.4-0.8S20.3,247.5,21.1,247.5z M21.1,248.9c-1.2,0-2.1,0.2-2.7,0.7s-0.9,1.1-0.9,1.9s0.3,1.4,0.9,1.9
		s1.5,0.7,2.7,0.7s2.1-0.2,2.7-0.7s0.9-1.1,0.9-1.9s-0.3-1.4-0.9-1.9S22.3,248.9,21.1,248.9z"/>
	<path id="XMLID_107_" class="st2" d="M21,238c0.8,0,1.5,0.1,2.1,0.3c0.6,0.2,1.1,0.4,1.5,0.7c0.4,0.3,0.7,0.7,0.9,1.1
		c0.2,0.4,0.3,0.8,0.3,1.3c0,0.6-0.1,1.1-0.3,1.5c-0.2,0.4-0.5,0.8-0.9,1.1h3.6l0.7,1.3H16.7v-1.3l1.1,0c-0.3-0.3-0.6-0.7-0.9-1.1
		c-0.3-0.4-0.4-1-0.4-1.6c0-0.4,0.1-0.9,0.3-1.3c0.2-0.4,0.4-0.7,0.8-1c0.4-0.3,0.8-0.5,1.4-0.7S20.2,238,21,238z M21,239.3
		c-1.1,0-2,0.2-2.6,0.6c-0.6,0.4-0.9,1-0.9,1.7c0,0.5,0.1,0.9,0.4,1.3c0.2,0.4,0.6,0.7,1,1.1h4.5c0.4-0.3,0.7-0.6,1-1
		c0.3-0.4,0.4-0.9,0.4-1.4c0-0.8-0.3-1.3-0.9-1.7C23.2,239.4,22.3,239.3,21,239.3z"/>
	<path id="XMLID_104_" class="st2" d="M21.1,228.3c0.8,0,1.4,0.1,2,0.3c0.6,0.2,1.1,0.5,1.5,0.8c0.4,0.4,0.7,0.8,0.9,1.3
		s0.3,1,0.3,1.5c0,0.5-0.1,1.1-0.3,1.5c-0.2,0.5-0.5,0.9-0.9,1.2c-0.4,0.3-0.9,0.6-1.5,0.8c-0.6,0.2-1.3,0.3-2,0.3s-1.4-0.1-2-0.3
		c-0.6-0.2-1.1-0.5-1.5-0.8c-0.4-0.4-0.7-0.8-0.9-1.3c-0.2-0.5-0.3-1-0.3-1.5c0-0.5,0.1-1.1,0.3-1.5c0.2-0.5,0.5-0.9,0.9-1.2
		c0.4-0.3,0.9-0.6,1.4-0.8S20.3,228.3,21.1,228.3z M21.1,229.6c-1.2,0-2.1,0.2-2.7,0.7s-0.9,1.1-0.9,1.9s0.3,1.4,0.9,1.9
		s1.5,0.7,2.7,0.7s2.1-0.2,2.7-0.7s0.9-1.1,0.9-1.9s-0.3-1.4-0.9-1.9S22.3,229.6,21.1,229.6z"/>
	<path id="XMLID_102_" class="st2" d="M18,221.3c-0.1,0.2-0.2,0.4-0.2,0.6c-0.1,0.2-0.1,0.5-0.1,0.8c0,0.6,0.2,1.1,0.7,1.4
		c0.5,0.3,1.1,0.5,2,0.5h5.3v1.3h-9v-1.3h1.1c-0.4-0.2-0.7-0.5-0.9-0.9c-0.3-0.4-0.4-0.8-0.4-1.3c0-0.3,0-0.6,0.1-0.8
		c0-0.2,0.1-0.4,0.2-0.6L18,221.3z"/>
	<path id="XMLID_100_" class="st2" d="M17.8,217.3h5.8c0.4,0,0.7-0.1,0.8-0.2c0.2-0.1,0.2-0.4,0.2-0.7c0-0.3,0-0.5-0.1-0.7
		s-0.1-0.4-0.2-0.6l1.1,0.1c0.1,0.3,0.2,0.5,0.2,0.8c0.1,0.3,0.1,0.6,0.1,0.9c0,0.6-0.2,1-0.5,1.3s-0.8,0.4-1.6,0.4h-6.1v1.1h-1.1
		v-1.1h-2.8l-0.7-1.3h3.5V215h1.1V217.3z"/>
	<path id="XMLID_97_" class="st2" d="M14.2,210.9c0.3,0,0.5,0.1,0.6,0.3c0.2,0.2,0.3,0.4,0.3,0.6c0,0.3-0.1,0.5-0.3,0.7
		c-0.2,0.2-0.4,0.3-0.6,0.3c-0.3,0-0.5-0.1-0.7-0.3c-0.2-0.2-0.3-0.4-0.3-0.7c0-0.2,0.1-0.4,0.3-0.6C13.7,211,13.9,210.9,14.2,210.9
		z M25.7,212.5h-9v-1.3h9V212.5z"/>
	<path id="XMLID_94_" class="st2" d="M21.1,200.9c0.8,0,1.4,0.1,2,0.3c0.6,0.2,1.1,0.5,1.5,0.8c0.4,0.4,0.7,0.8,0.9,1.3
		s0.3,1,0.3,1.5c0,0.5-0.1,1.1-0.3,1.5c-0.2,0.5-0.5,0.9-0.9,1.2c-0.4,0.3-0.9,0.6-1.5,0.8c-0.6,0.2-1.3,0.3-2,0.3s-1.4-0.1-2-0.3
		c-0.6-0.2-1.1-0.5-1.5-0.8c-0.4-0.4-0.7-0.8-0.9-1.3c-0.2-0.5-0.3-1-0.3-1.5c0-0.5,0.1-1.1,0.3-1.5c0.2-0.5,0.5-0.9,0.9-1.2
		c0.4-0.3,0.9-0.6,1.4-0.8S20.3,200.9,21.1,200.9z M21.1,202.2c-1.2,0-2.1,0.2-2.7,0.7s-0.9,1.1-0.9,1.9s0.3,1.4,0.9,1.9
		s1.5,0.7,2.7,0.7s2.1-0.2,2.7-0.7s0.9-1.1,0.9-1.9s-0.3-1.4-0.9-1.9S22.3,202.2,21.1,202.2z"/>
	<path id="XMLID_92_" class="st2" d="M25.7,192.9h-5.3c-1,0-1.7,0.2-2.1,0.5c-0.5,0.3-0.7,0.9-0.7,1.6c0,0.6,0.2,1.2,0.7,1.6
		c0.4,0.4,1.2,0.6,2.1,0.6h5.3v1.3h-9v-1.3l1.1,0c-0.4-0.3-0.7-0.6-0.9-1s-0.4-0.9-0.4-1.5c0-0.5,0.1-0.9,0.2-1.3
		c0.1-0.4,0.4-0.7,0.7-1c0.3-0.3,0.7-0.5,1.1-0.6s1-0.2,1.7-0.2h5.5V192.9z"/>
	<path id="XMLID_89_" class="st2" d="M21.1,177c0.8,0,1.4,0.1,2,0.3c0.6,0.2,1.1,0.5,1.5,0.8c0.4,0.4,0.7,0.8,0.9,1.3s0.3,1,0.3,1.5
		c0,0.5-0.1,1.1-0.3,1.5c-0.2,0.5-0.5,0.9-0.9,1.2c-0.4,0.3-0.9,0.6-1.5,0.8c-0.6,0.2-1.3,0.3-2,0.3s-1.4-0.1-2-0.3
		c-0.6-0.2-1.1-0.5-1.5-0.8c-0.4-0.4-0.7-0.8-0.9-1.3c-0.2-0.5-0.3-1-0.3-1.5c0-0.5,0.1-1.1,0.3-1.5c0.2-0.5,0.5-0.9,0.9-1.2
		c0.4-0.3,0.9-0.6,1.4-0.8S20.3,177,21.1,177z M21.1,178.3c-1.2,0-2.1,0.2-2.7,0.7s-0.9,1.1-0.9,1.9s0.3,1.4,0.9,1.9
		s1.5,0.7,2.7,0.7s2.1-0.2,2.7-0.7s0.9-1.1,0.9-1.9s-0.3-1.4-0.9-1.9S22.3,178.3,21.1,178.3z"/>
	<path id="XMLID_87_" class="st2" d="M14.4,171.8c0,0.3,0.1,0.5,0.2,0.7s0.4,0.3,0.8,0.3h1.3V171h1.1v1.8h7.9v1.3h-7.9v1.2h-1.1
		v-1.2h-1.2c-0.8,0-1.4-0.2-1.7-0.6c-0.3-0.4-0.5-0.9-0.5-1.5c0-0.3,0-0.5,0-0.6c0-0.2,0.1-0.3,0.1-0.5h1.2
		C14.5,171.1,14.4,171.4,14.4,171.8z"/>
	<path id="XMLID_84_" class="st2" d="M21,156.9c0.8,0,1.5,0.1,2.1,0.3c0.6,0.2,1.1,0.4,1.5,0.7c0.4,0.3,0.7,0.7,0.9,1.1
		c0.2,0.4,0.3,0.8,0.3,1.3c0,0.6-0.1,1.1-0.3,1.5c-0.2,0.4-0.5,0.8-0.9,1.1h3.6l0.7,1.3H16.7v-1.3l1.1,0c-0.3-0.3-0.6-0.7-0.9-1.1
		c-0.3-0.4-0.4-1-0.4-1.6c0-0.4,0.1-0.9,0.3-1.3c0.2-0.4,0.4-0.7,0.8-1c0.4-0.3,0.8-0.5,1.4-0.7S20.2,156.9,21,156.9z M21,158.2
		c-1.1,0-2,0.2-2.6,0.6c-0.6,0.4-0.9,1-0.9,1.7c0,0.5,0.1,0.9,0.4,1.3c0.2,0.4,0.6,0.7,1,1.1h4.5c0.4-0.3,0.7-0.6,1-1
		c0.3-0.4,0.4-0.9,0.4-1.4c0-0.8-0.3-1.3-0.9-1.7C23.2,158.4,22.3,158.2,21,158.2z"/>
	<path id="XMLID_81_" class="st2" d="M25.7,149.4h-1.1c0.3,0.3,0.6,0.7,0.9,1.2c0.3,0.5,0.4,1,0.4,1.7c0,0.4,0,0.7-0.1,1
		s-0.3,0.7-0.5,0.9c-0.2,0.3-0.5,0.5-0.9,0.7c-0.4,0.2-0.8,0.2-1.4,0.2c-0.5,0-0.9-0.1-1.3-0.3c-0.4-0.2-0.7-0.4-0.9-0.8
		c-0.2-0.3-0.4-0.7-0.5-1.1c-0.1-0.4-0.2-0.8-0.2-1.3c0-0.5,0-0.9,0.1-1.3c0.1-0.4,0.2-0.7,0.4-1h-1.1c-1.3,0-2,0.6-2,1.9
		c0,0.5,0.1,0.9,0.2,1.3s0.3,0.8,0.5,1.1l-1.1,0.5c-0.2-0.4-0.4-0.9-0.5-1.4c-0.1-0.5-0.2-1.1-0.2-1.6c0-1,0.2-1.7,0.7-2.3
		c0.5-0.6,1.2-0.8,2.2-0.8h6.3V149.4z M21.6,149.4c-0.2,0.3-0.3,0.6-0.4,1c-0.1,0.3-0.1,0.8-0.1,1.3c0,0.7,0.2,1.2,0.5,1.5
		c0.3,0.4,0.7,0.6,1.3,0.6c0.7,0,1.2-0.2,1.5-0.5s0.5-0.8,0.5-1.3c0-0.6-0.1-1.1-0.4-1.5s-0.6-0.8-1-1.1H21.6z"/>
	<path id="XMLID_79_" class="st2" d="M17.8,143.6h5.8c0.4,0,0.7-0.1,0.8-0.2c0.2-0.1,0.2-0.4,0.2-0.7c0-0.3,0-0.5-0.1-0.7
		s-0.1-0.4-0.2-0.6l1.1,0.1c0.1,0.3,0.2,0.5,0.2,0.8c0.1,0.3,0.1,0.6,0.1,0.9c0,0.6-0.2,1-0.5,1.3s-0.8,0.4-1.6,0.4h-6.1v1.1h-1.1
		v-1.1h-2.8l-0.7-1.3h3.5v-2.2h1.1V143.6z"/>
	<path id="XMLID_76_" class="st2" d="M14.2,137.3c0.3,0,0.5,0.1,0.6,0.3c0.2,0.2,0.3,0.4,0.3,0.6c0,0.3-0.1,0.5-0.3,0.7
		c-0.2,0.2-0.4,0.3-0.6,0.3c-0.3,0-0.5-0.1-0.7-0.3c-0.2-0.2-0.3-0.4-0.3-0.7c0-0.2,0.1-0.4,0.3-0.6
		C13.7,137.4,13.9,137.3,14.2,137.3z M25.7,138.8h-9v-1.3h9V138.8z"/>
	<path id="XMLID_73_" class="st2" d="M20.9,127.8c0.2,0,0.3,0,0.4,0c0.1,0,0.2,0,0.3,0v6c1-0.1,1.7-0.3,2.3-0.7
		c0.6-0.4,0.8-1,0.8-1.8c0-0.5-0.1-1-0.2-1.3c-0.1-0.4-0.4-0.7-0.6-1.2l0.9-0.6c0.2,0.3,0.3,0.5,0.4,0.8c0.1,0.2,0.2,0.5,0.3,0.7
		c0.1,0.3,0.1,0.5,0.2,0.8c0,0.3,0.1,0.6,0.1,0.9c0,0.4-0.1,0.8-0.2,1.3c-0.2,0.4-0.4,0.8-0.8,1.2c-0.4,0.4-0.9,0.6-1.5,0.9
		c-0.6,0.2-1.3,0.3-2.2,0.3c-0.7,0-1.4-0.1-1.9-0.3c-0.6-0.2-1.1-0.4-1.5-0.8c-0.4-0.3-0.7-0.7-0.9-1.2c-0.2-0.5-0.3-0.9-0.3-1.5
		c0-0.6,0.1-1.1,0.3-1.5s0.5-0.8,0.9-1.1c0.4-0.3,0.9-0.5,1.4-0.7C19.7,127.9,20.3,127.8,20.9,127.8z M20.6,129
		c-0.9,0.1-1.6,0.3-2.2,0.7s-0.8,1-0.8,1.8c0,0.7,0.2,1.2,0.7,1.6c0.5,0.4,1.2,0.7,2.3,0.8V129z"/>
	<path id="XMLID_71_" class="st2" d="M25.7,119.7h-5.3c-1,0-1.7,0.2-2.1,0.5c-0.5,0.3-0.7,0.9-0.7,1.6c0,0.6,0.2,1.2,0.7,1.6
		c0.4,0.4,1.2,0.6,2.1,0.6h5.3v1.3h-9v-1.3l1.1,0c-0.4-0.3-0.7-0.6-0.9-1s-0.4-0.9-0.4-1.5c0-0.5,0.1-0.9,0.2-1.3
		c0.1-0.4,0.4-0.7,0.7-1c0.3-0.3,0.7-0.5,1.1-0.6s1-0.2,1.7-0.2h5.5V119.7z"/>
	<path id="XMLID_69_" class="st2" d="M17.8,114h5.8c0.4,0,0.7-0.1,0.8-0.2c0.2-0.1,0.2-0.4,0.2-0.7c0-0.3,0-0.5-0.1-0.7
		s-0.1-0.4-0.2-0.6l1.1,0.1c0.1,0.3,0.2,0.5,0.2,0.8c0.1,0.3,0.1,0.6,0.1,0.9c0,0.6-0.2,1-0.5,1.3s-0.8,0.4-1.6,0.4h-6.1v1.1h-1.1
		v-1.1h-2.8l-0.7-1.3h3.5v-2.2h1.1V114z"/>
	<path id="XMLID_67_" class="st2" d="M23.3,103.7c0.4,0,0.8,0.1,1.1,0.3c0.3,0.2,0.6,0.4,0.8,0.7c0.2,0.3,0.4,0.6,0.5,1
		c0.1,0.4,0.1,0.8,0.1,1.1c0,0.6-0.1,1.2-0.3,1.7c-0.2,0.5-0.5,1-0.8,1.4l-0.9-0.8c0.3-0.4,0.6-0.8,0.7-1.2c0.2-0.4,0.3-0.8,0.3-1.3
		c0-0.6-0.1-1.1-0.4-1.4c-0.2-0.3-0.6-0.4-1-0.4c-0.2,0-0.3,0-0.5,0.1c-0.1,0.1-0.3,0.2-0.4,0.4c-0.1,0.2-0.3,0.4-0.4,0.7
		c-0.1,0.3-0.3,0.6-0.5,1c-0.2,0.4-0.4,0.8-0.6,1.2c-0.2,0.3-0.4,0.6-0.6,0.8c-0.2,0.2-0.4,0.4-0.7,0.5s-0.6,0.1-0.9,0.1
		c-0.3,0-0.7-0.1-0.9-0.2c-0.3-0.1-0.5-0.3-0.7-0.6c-0.2-0.2-0.4-0.5-0.5-0.9s-0.2-0.7-0.2-1.1c0-0.6,0.1-1.2,0.3-1.6
		c0.2-0.5,0.4-0.9,0.7-1.2l0.9,0.7c-0.3,0.4-0.5,0.7-0.6,1c-0.1,0.3-0.2,0.7-0.2,1.2s0.1,0.8,0.3,1.1c0.2,0.3,0.5,0.4,0.8,0.4
		c0.2,0,0.4,0,0.5-0.1c0.1-0.1,0.3-0.2,0.4-0.3c0.1-0.2,0.3-0.4,0.4-0.6c0.1-0.3,0.3-0.6,0.5-1c0.2-0.4,0.4-0.8,0.5-1.1
		c0.2-0.3,0.4-0.6,0.6-0.8c0.2-0.2,0.5-0.4,0.7-0.5S22.9,103.7,23.3,103.7z"/>
	<path id="XMLID_65_" class="st2" d="M27.6,93.7c-0.4,0.4-0.8,0.9-1.3,1.3c-0.5,0.4-1,0.8-1.6,1.1c-0.6,0.3-1.2,0.6-1.9,0.8
		c-0.7,0.2-1.4,0.3-2.2,0.3c-0.8,0-1.6-0.1-2.3-0.3c-0.7-0.2-1.3-0.5-1.9-0.8c-0.6-0.3-1.1-0.7-1.6-1.1c-0.5-0.4-0.9-0.8-1.3-1.3
		l0.5-0.6c0.4,0.4,0.9,0.8,1.3,1.1s1,0.6,1.5,0.9c0.5,0.2,1.1,0.4,1.7,0.6c0.6,0.1,1.3,0.2,2,0.2c0.7,0,1.4-0.1,2-0.2
		c0.6-0.1,1.2-0.3,1.7-0.6c0.5-0.2,1-0.5,1.5-0.9s0.9-0.7,1.3-1.1L27.6,93.7z"/>
	<path id="XMLID_59_" class="st2" d="M25.9,89.2l-11.5-6.5v-1l11.5,6.5V89.2z M17.7,86.5c2.3,0,3.5,1.2,3.5,2.7
		c0,1.4-1.1,2.6-3.4,2.6c-2.2,0-3.5-1.2-3.5-2.7C14.3,87.5,15.5,86.5,17.7,86.5z M17.8,90.5c1.4,0,2.5-0.5,2.5-1.4
		c0-1-1.1-1.4-2.5-1.4c-1.4,0-2.5,0.4-2.5,1.4C15.3,90,16.4,90.5,17.8,90.5z M22.3,79.2c2.3,0,3.5,1.2,3.5,2.7
		c0,1.4-1.1,2.6-3.3,2.6c-2.2,0-3.5-1.2-3.5-2.7C19,80.2,20.2,79.2,22.3,79.2z M22.4,83.3c1.4,0,2.5-0.5,2.5-1.5
		c0-1-1.1-1.4-2.5-1.4c-1.4,0-2.5,0.4-2.5,1.4C19.9,82.8,21,83.3,22.4,83.3z"/>
	<path id="XMLID_57_" class="st2" d="M20.4,73.8c0.8,0,1.6,0.1,2.3,0.3c0.7,0.2,1.3,0.5,1.9,0.8c0.6,0.3,1.1,0.7,1.6,1.1
		s0.9,0.8,1.3,1.3L27,77.8c-0.8-0.8-1.8-1.5-2.8-2c-1.1-0.5-2.3-0.8-3.7-0.8c-0.7,0-1.4,0.1-2,0.2c-0.6,0.1-1.2,0.3-1.7,0.6
		c-0.5,0.2-1,0.5-1.5,0.9s-0.9,0.7-1.3,1.1l-0.5-0.6c0.4-0.4,0.8-0.9,1.3-1.3s1-0.8,1.6-1.1c0.6-0.3,1.2-0.6,1.9-0.8
		S19.6,73.8,20.4,73.8z"/>
</g>
<linearGradient id="XMLID_203_" gradientUnits="userSpaceOnUse" x1="0" y1="174.1105" x2="391.8179" y2="174.1105">
	<stop  offset="0" style="stop-color:#4B257A"/>
	<stop  offset="1" style="stop-color:#954C8D"/>
</linearGradient>
<rect id="XMLID_55_" x="0.5" y="0.5" class="st3" width="390.8" height="347.2"/>
<g id="XMLID_1_">
	<polygon id="XMLID_54_" class="st4" points="165.2,22.8 165.9,22.8 165.9,28.8 170.1,28.8 170.1,29.4 165.2,29.4 	"/>
	<path id="XMLID_51_" class="st4" d="M175.1,26.7c-0.2-1.2-1.1-1.6-2-1.6c-0.9,0-1.8,0.5-2,1.6H175.1z M175.7,27.9
		c-0.3,0.8-1,1.7-2.6,1.7c-2,0-2.6-1.4-2.6-2.5c0-1.3,0.8-2.5,2.6-2.5c1.2,0,2.7,0.5,2.7,2.7h-4.7c0,1,0.7,1.8,1.9,1.8
		c1.1,0,1.7-0.4,1.9-1.1H175.7z"/>
	<polygon id="XMLID_50_" class="st4" points="180.6,24.6 181.4,24.6 179.1,29.4 178.3,29.4 176.1,24.6 176.8,24.6 178.7,28.6 	"/>
	<path id="XMLID_47_" class="st4" d="M186.3,26.7c-0.2-1.2-1.1-1.6-2-1.6c-0.9,0-1.8,0.5-2,1.6H186.3z M186.9,27.9
		c-0.3,0.8-1,1.7-2.6,1.7c-2,0-2.6-1.4-2.6-2.5c0-1.3,0.8-2.5,2.6-2.5c1.2,0,2.7,0.5,2.7,2.7h-4.7c0,1,0.7,1.8,1.9,1.8
		c1.1,0,1.7-0.4,1.9-1.1H186.9z"/>
	<path id="XMLID_46_" class="st4" d="M188.3,23.1h0.7v1.5h1.4v0.5H189v3.2c0,0.4,0.1,0.6,0.7,0.6c0.3,0,0.5,0,0.7-0.1v0.6
		c-0.3,0-0.5,0.1-0.8,0.1c-1.1,0-1.3-0.4-1.3-1.2v-3.2h-1v-0.5h1V23.1z"/>
	<path id="XMLID_43_" class="st4" d="M191.1,24.6h0.7v4.8h-0.7V24.6z M191.1,22.8h0.7v1h-0.7V22.8z"/>
	<path id="XMLID_42_" class="st4" d="M192.8,24.6h0.7v1.1h0c0.3-0.6,0.7-1.2,1.8-1.2c0.2,0,0.3,0,0.4,0v0.7c-0.2,0-0.4-0.1-0.6-0.1
		c-0.7,0-1.6,0.5-1.6,1.8v2.4h-0.7V24.6z"/>
	<path id="XMLID_39_" class="st4" d="M200.1,26.8c-0.3,0.2-0.8,0.2-2.1,0.4c-0.8,0.1-1.3,0.3-1.3,0.9c0,0.7,0.7,1,1.4,1
		c0.9,0,2-0.5,2-1.5V26.8z M196.2,26.1c0.1-1,0.6-1.6,2.3-1.6c1.6,0,2.2,0.5,2.2,1.4v2.5c0,0.4,0.1,0.5,0.4,0.5c0.1,0,0.2,0,0.4,0
		v0.5c-0.1,0-0.4,0.1-0.6,0.1c-0.7,0-0.7-0.5-0.7-0.8h0c-0.2,0.3-0.7,1-2.3,1c-0.8,0-1.9-0.4-1.9-1.4c0-1.3,1.3-1.4,2.4-1.5
		c1.5-0.1,1.7-0.2,1.7-0.6c0-0.7-0.5-0.9-1.6-0.9c-1.1,0-1.6,0.3-1.7,1H196.2z"/>
	<path id="XMLID_38_" class="st4" d="M206.8,27.7c-0.1,0.6-0.7,1.9-2.4,1.9c-1.7,0-2.7-1-2.7-2.5c0-1.4,0.9-2.5,2.7-2.5
		c1.7,0,2.3,1,2.4,1.7h-0.7c-0.2-0.8-0.9-1.1-1.7-1.1c-1.4,0-2,0.9-2,2c0,1.2,0.7,2,2,2c1,0,1.6-0.5,1.8-1.3H206.8z"/>
	<path id="XMLID_35_" class="st4" d="M212.1,26.7c-0.2-1.2-1.1-1.6-2-1.6c-0.9,0-1.8,0.5-2,1.6H212.1z M212.6,27.9
		c-0.3,0.8-1,1.7-2.6,1.7c-2,0-2.6-1.4-2.6-2.5c0-1.3,0.8-2.5,2.6-2.5c1.2,0,2.7,0.5,2.7,2.7h-4.7c0,1,0.7,1.8,1.9,1.8
		c1.2,0,1.7-0.4,1.9-1.1H212.6z"/>
	<path id="XMLID_34_" class="st4" d="M214.1,23.1h0.7v1.5h1.4v0.5h-1.4v3.2c0,0.4,0.1,0.6,0.7,0.6c0.3,0,0.5,0,0.7-0.1v0.6
		c-0.3,0-0.5,0.1-0.8,0.1c-1.1,0-1.3-0.4-1.3-1.2v-3.2H213v-0.5h1.1V23.1z"/>
	<path id="XMLID_31_" class="st4" d="M220.7,26.8c-0.3,0.2-0.8,0.2-2.1,0.4c-0.8,0.1-1.3,0.3-1.3,0.9c0,0.7,0.7,1,1.4,1
		c0.9,0,2-0.5,2-1.5V26.8z M216.8,26.1c0.1-1,0.6-1.6,2.3-1.6c1.6,0,2.2,0.5,2.2,1.4v2.5c0,0.4,0.1,0.5,0.4,0.5c0.1,0,0.2,0,0.4,0
		v0.5c-0.1,0-0.4,0.1-0.6,0.1c-0.7,0-0.7-0.5-0.7-0.8h0c-0.2,0.3-0.7,1-2.3,1c-0.8,0-1.9-0.4-1.9-1.4c0-1.3,1.3-1.4,2.4-1.5
		c1.5-0.1,1.7-0.2,1.7-0.6c0-0.7-0.5-0.9-1.6-0.9c-1.1,0-1.6,0.3-1.7,1H216.8z"/>
	<path id="XMLID_30_" class="st4" d="M230.1,26.4c0-0.9-0.4-1.3-1.4-1.3c-1.1,0-1.6,0.6-1.6,1.5v2.8h-0.7v-3.2
		c0-0.6-0.4-1.1-1.4-1.1c-1,0-1.7,0.6-1.7,1.7v2.7h-0.7v-4.8h0.7v0.9h0c0.3-0.5,0.8-1,1.9-1c1.1,0,1.6,0.6,1.7,1.1
		c0.2-0.5,0.9-1.1,1.9-1.1c1.4,0,2,0.7,2,1.7v3.3h-0.7V26.4z"/>
	<polygon id="XMLID_29_" class="st5" points="223.3,21.6 221.4,21.6 219.9,19 218.4,21.6 216.5,21.6 219,17.7 216.6,13.9 
		218.5,13.9 219.9,16.4 221.3,13.9 223.2,13.9 220.8,17.6 	"/>
	<path id="XMLID_26_" class="st5" d="M227.8,17.3c0.8,0,1.2-0.3,1.2-1c0-0.4-0.2-1-1.1-1h-2v2H227.8z M224.3,13.9h3.9
		c2,0,2.4,1.5,2.4,2.2c0,0.8-0.4,1.6-1.2,1.8c0.6,0.3,1,0.5,1,1.9c0,1.1,0,1.4,0.3,1.5v0.2H229c-0.1-0.4-0.2-0.8-0.2-1.5
		c0-1-0.1-1.4-1.3-1.4h-1.7v3h-1.6V13.9z"/>
	<polygon id="XMLID_25_" class="st5" points="169.4,21.5 167.4,18.1 166.4,19.2 166.4,21.5 164.9,21.5 164.9,13.9 166.4,13.9 
		166.4,17.2 169.1,13.9 170.9,13.9 168.4,16.9 171.1,21.5 	"/>
	<path id="XMLID_22_" class="st5" d="M181.4,15.3H180v2.1h1.4c0.7,0,1.1-0.4,1.1-1C182.5,15.7,182.1,15.3,181.4,15.3 M181.5,18.6
		H180v2.8h-1.5v-7.5h3c1.6,0,2.5,1.1,2.5,2.3C184,17.6,183,18.6,181.5,18.6"/>
	<path id="XMLID_19_" class="st5" d="M188.1,15.3h-1.4v2h1.4c0.7,0,1.1-0.4,1.1-1C189.2,15.7,188.8,15.3,188.1,15.3 M189.3,21.5
		l-1.5-3h-1.1v3h-1.5v-7.5h3c1.5,0,2.5,1,2.5,2.3c0,1.1-0.7,1.7-1.4,2l1.7,3.3H189.3z"/>
	<path id="XMLID_16_" class="st5" d="M194.8,16.2l-1,2.7h1.9L194.8,16.2z M196.5,21.5l-0.4-1.3h-2.7l-0.5,1.3h-1.5l2.8-7.5h1.2
		l2.8,7.5H196.5z"/>
	<path id="XMLID_13_" class="st5" d="M202.8,15.7c-0.3-0.3-0.6-0.5-1.1-0.5h-1.1v4.9h1.1c0.5,0,0.9-0.2,1.1-0.5
		c0.3-0.3,0.3-0.9,0.3-2C203.1,16.5,203,16.1,202.8,15.7 M203.8,20.8c-0.5,0.5-1.2,0.7-2,0.7H199v-7.5h2.7c0.8,0,1.5,0.2,2,0.7
		c0.9,0.8,0.8,1.9,0.8,3C204.6,18.8,204.6,19.9,203.8,20.8"/>
	<rect id="XMLID_12_" x="206.1" y="13.9" class="st5" width="1.5" height="7.5"/>
	<polygon id="XMLID_11_" class="st5" points="209.3,21.5 209.3,13.9 210.8,13.9 210.8,20.2 214.3,20.2 214.3,21.5 	"/>
	<path id="XMLID_6_" d="M212.9,15.1c0.2,0,0.3,0,0.3-0.2c0-0.1-0.1-0.2-0.3-0.2h-0.2v0.4H212.9z M212.5,14.6h0.4
		c0.3,0,0.4,0.1,0.4,0.3c0,0.2-0.1,0.3-0.3,0.3l0.3,0.5h-0.2l-0.3-0.5h-0.2v0.5h-0.2V14.6z M213.7,15.2c0-0.5-0.4-0.8-0.8-0.8
		c-0.5,0-0.8,0.4-0.8,0.8c0,0.5,0.4,0.8,0.8,0.8C213.3,16,213.7,15.7,213.7,15.2 M212.9,14.2c0.5,0,1,0.4,1,1c0,0.5-0.4,1-1,1
		c-0.5,0-1-0.4-1-1C211.9,14.7,212.3,14.2,212.9,14.2"/>
	<polygon id="XMLID_5_" class="st4" points="172.1,21.5 177.1,21.5 177.1,20.2 173.5,20.2 173.5,18.6 172.1,18.6 	"/>
	<path id="XMLID_4_" class="st5" d="M171.4,18c0,0,0.6-1.4,3-1.4c2.4,0,3.7-0.8,3.7-0.8s-1.7,1.7-3.4,1.7
		C173.1,17.6,172.1,17.6,171.4,18"/>
	<path id="XMLID_3_" class="st4" d="M170.7,19.3c0,0,0.6-1.4,3-1.4s3.7-0.8,3.7-0.8s-1.7,1.7-3.4,1.7
		C172.4,18.9,171.4,18.9,170.7,19.3"/>
	<polygon id="XMLID_2_" class="st5" points="172.1,17.3 173.5,17.3 173.5,15.3 177.1,15.3 177.1,13.9 172.1,13.9 	"/>
</g>
</svg>
