<!-- Generator: Adobe Illustrator 22.1.0, SVG Export Plug-In  -->
<svg version="1.1"
	 xmlns="http://www.w3.org/2000/svg" xmlns:xlink="http://www.w3.org/1999/xlink" xmlns:a="http://ns.adobe.com/AdobeSVGViewerExtensions/3.0/"
	 x="0px" y="0px" width="583.6px" height="26.3px" viewBox="0 0 583.6 26.3" style="enable-background:new 0 0 583.6 26.3;"
	 xml:space="preserve">
<style type="text/css">
	.st0{fill:#532D6D;}
	.st1{fill:#266093;}
</style>
<defs>
</defs>
<g id="XMLID_5_">
	<path id="XMLID_118_" class="st0" d="M69.4,5.6c0,0.9-0.1,1.7-0.4,2.3c-0.3,0.6-0.7,1.2-1.2,1.6s-1.1,0.7-1.8,0.9
		c-0.7,0.2-1.4,0.3-2.2,0.3h-3.4v5.5h-3.1V0.6H64c0.7,0,1.4,0.1,2.1,0.3c0.6,0.2,1.2,0.5,1.7,0.9s0.9,0.9,1.2,1.5S69.4,4.7,69.4,5.6
		z M66.2,5.6c0-0.7-0.2-1.2-0.6-1.5c-0.4-0.3-1-0.5-1.7-0.5h-3.6v4H64C65.5,7.6,66.2,7,66.2,5.6z"/>
	<path id="XMLID_116_" class="st0" d="M78.6,8.1c-0.3-0.2-0.5-0.4-0.8-0.5c-0.3-0.1-0.6-0.2-1-0.2c-0.3,0-0.6,0-0.8,0.1
		c-0.2,0.1-0.5,0.2-0.6,0.4C75.2,8,75.1,8.3,75,8.6c-0.1,0.3-0.1,0.7-0.1,1.2v6.3h-3.1V4.5h3.1v0.8c0.3-0.3,0.6-0.5,1-0.7
		c0.4-0.2,0.9-0.3,1.4-0.3c0.5,0,0.9,0.1,1.3,0.3c0.4,0.2,0.6,0.4,0.9,0.6L78.6,8.1z"/>
	<path id="XMLID_113_" class="st0" d="M91.2,10.3c0,0.9-0.1,1.7-0.4,2.4c-0.3,0.7-0.6,1.4-1.1,1.9c-0.5,0.5-1,0.9-1.7,1.2
		c-0.7,0.3-1.4,0.4-2.1,0.4s-1.5-0.1-2.1-0.4c-0.6-0.3-1.2-0.7-1.7-1.2c-0.5-0.5-0.8-1.2-1.1-1.9c-0.3-0.7-0.4-1.6-0.4-2.4
		s0.1-1.7,0.4-2.4c0.3-0.7,0.6-1.4,1.1-1.9c0.5-0.5,1-1,1.7-1.3c0.6-0.3,1.3-0.4,2.1-0.4s1.5,0.1,2.1,0.4C88.7,5,89.3,5.4,89.7,6
		c0.5,0.5,0.8,1.2,1.1,1.9C91.1,8.6,91.2,9.5,91.2,10.3z M88.1,10.3c0-0.9-0.2-1.6-0.5-2.2c-0.4-0.6-0.9-0.9-1.6-0.9
		s-1.3,0.3-1.6,0.9c-0.3,0.6-0.5,1.3-0.5,2.3s0.2,1.7,0.5,2.2c0.3,0.6,0.9,0.9,1.6,0.9c0.4,0,0.7-0.1,1-0.3c0.3-0.2,0.5-0.4,0.7-0.7
		c0.2-0.3,0.3-0.6,0.4-1C88.1,11.1,88.1,10.7,88.1,10.3z"/>
	<path id="XMLID_111_" class="st0" d="M100,16.1h-3.1L92.7,4.5H96l1.7,5.4c0.1,0.4,0.3,0.9,0.4,1.4s0.2,0.9,0.3,1.2
		c0.1-0.3,0.2-0.7,0.3-1.2c0.1-0.5,0.3-0.9,0.4-1.4l1.7-5.4h3.3L100,16.1z"/>
	<path id="XMLID_108_" class="st0" d="M109.6,1.8c0,0.5-0.2,0.9-0.5,1.2c-0.3,0.3-0.8,0.5-1.2,0.5S107,3.4,106.6,3
		c-0.3-0.3-0.5-0.8-0.5-1.2s0.2-0.9,0.5-1.2c0.3-0.3,0.8-0.5,1.2-0.5s0.9,0.2,1.2,0.5C109.4,0.9,109.6,1.3,109.6,1.8z M106.3,16.1
		V4.5h3.1v11.6H106.3z"/>
	<path id="XMLID_105_" class="st0" d="M118.8,16.1v-0.7c-0.3,0.3-0.6,0.5-1,0.7c-0.4,0.2-0.9,0.3-1.4,0.3c-0.6,0-1.2-0.1-1.7-0.4
		c-0.5-0.2-1-0.6-1.4-1.1c-0.4-0.5-0.7-1.2-1-1.9c-0.2-0.8-0.4-1.7-0.4-2.8c0-0.9,0.1-1.7,0.3-2.4c0.2-0.7,0.5-1.3,0.9-1.9
		c0.4-0.5,0.9-0.9,1.4-1.2s1.2-0.4,1.9-0.4c0.5,0,1,0.1,1.4,0.3c0.4,0.2,0.8,0.4,1.1,0.6V1.5l3.1-1.5v16.1H118.8z M118.8,8.1
		c-0.5-0.7-1.2-1-2.1-1c-1.2,0-1.8,1-1.8,3c0,1.2,0.2,2.1,0.5,2.6c0.4,0.5,0.8,0.8,1.5,0.8c0.5,0,0.8-0.1,1.1-0.3
		c0.3-0.2,0.5-0.4,0.8-0.7V8.1z"/>
	<path id="XMLID_102_" class="st0" d="M134.4,10.3c0,0.2,0,0.4,0,0.6c0,0.2,0,0.3,0,0.4h-7c0,0.4,0.1,0.7,0.3,1s0.3,0.5,0.6,0.7
		c0.2,0.2,0.5,0.3,0.7,0.4s0.5,0.1,0.8,0.1c0.4,0,0.8-0.1,1.2-0.2c0.3-0.1,0.6-0.3,0.8-0.6l2.2,1.8c-0.5,0.6-1.1,1.1-1.8,1.4
		c-0.8,0.3-1.5,0.5-2.3,0.5c-0.8,0-1.6-0.1-2.3-0.4c-0.7-0.3-1.2-0.7-1.7-1.2c-0.5-0.5-0.8-1.2-1.1-1.9s-0.4-1.6-0.4-2.5
		c0-0.9,0.1-1.7,0.4-2.4c0.3-0.7,0.6-1.4,1.1-1.9c0.5-0.5,1-1,1.6-1.3c0.6-0.3,1.3-0.4,2-0.4c0.8,0,1.5,0.2,2.1,0.5
		c0.6,0.3,1.1,0.8,1.5,1.3c0.4,0.6,0.7,1.2,1,1.9C134.3,8.7,134.4,9.5,134.4,10.3z M131.4,9c0-0.3-0.1-0.5-0.2-0.8
		c-0.1-0.2-0.2-0.5-0.4-0.7c-0.2-0.2-0.4-0.4-0.6-0.5c-0.3-0.1-0.5-0.2-0.9-0.2c-0.6,0-1,0.2-1.3,0.6c-0.3,0.4-0.5,0.9-0.6,1.5
		H131.4z"/>
	<path id="XMLID_100_" class="st0" d="M146,12.8c0,0.7-0.1,1.2-0.4,1.7s-0.6,0.8-1,1.1c-0.4,0.3-0.9,0.5-1.5,0.6
		c-0.6,0.1-1.2,0.2-1.8,0.2c-0.9,0-1.8-0.1-2.7-0.4c-0.8-0.2-1.6-0.6-2.2-1l1-2.3c0.6,0.3,1.3,0.6,1.9,0.8s1.4,0.3,2.1,0.3
		c0.6,0,1-0.1,1.2-0.2s0.3-0.4,0.3-0.7c0-0.3-0.1-0.5-0.4-0.6c-0.2-0.2-0.7-0.3-1.3-0.5c-0.7-0.2-1.3-0.4-1.9-0.6
		c-0.6-0.2-1.1-0.5-1.5-0.8c-0.4-0.3-0.7-0.6-0.9-1.1c-0.2-0.4-0.3-0.9-0.3-1.5c0-0.6,0.1-1.1,0.3-1.6c0.2-0.4,0.5-0.8,1-1.1
		c0.4-0.3,0.9-0.5,1.5-0.6s1.2-0.2,1.9-0.2c0.7,0,1.5,0.1,2.2,0.3c0.8,0.2,1.4,0.5,2.1,0.8l-1,2.4c-0.6-0.3-1.2-0.5-1.8-0.7
		c-0.6-0.2-1.1-0.2-1.6-0.2c-0.6,0-1,0.1-1.3,0.2c-0.2,0.1-0.3,0.3-0.3,0.6c0,0.1,0,0.2,0.1,0.3c0.1,0.1,0.2,0.2,0.3,0.3
		s0.4,0.2,0.7,0.3s0.7,0.3,1.3,0.4c0.5,0.2,1,0.4,1.5,0.6c0.5,0.2,0.9,0.4,1.2,0.7s0.6,0.6,0.8,1C145.9,11.7,146,12.2,146,12.8z"/>
	<path id="XMLID_98_" class="st0" d="M167,11.4c0,0.7-0.1,1.4-0.4,2s-0.6,1.1-1.1,1.6s-1.1,0.8-1.9,1c-0.8,0.2-1.7,0.4-2.7,0.4
		c-1.3,0-2.5-0.3-3.5-0.8c-1.1-0.5-1.9-1.2-2.5-2.1l2.2-2c0.5,0.6,1.2,1.1,1.8,1.4c0.7,0.3,1.4,0.4,2.1,0.4c0.9,0,1.6-0.1,2-0.4
		c0.4-0.3,0.7-0.7,0.7-1.3c0-0.3,0-0.5-0.1-0.7c-0.1-0.2-0.3-0.4-0.5-0.5c-0.2-0.2-0.6-0.3-1.1-0.5c-0.5-0.1-1-0.3-1.8-0.5
		c-0.7-0.2-1.4-0.4-2-0.6c-0.6-0.2-1.1-0.5-1.5-0.8c-0.4-0.3-0.8-0.8-1-1.3s-0.4-1.2-0.4-1.9c0-0.7,0.1-1.3,0.4-1.9
		c0.3-0.6,0.7-1,1.2-1.4c0.5-0.4,1.1-0.7,1.8-0.9s1.4-0.3,2.2-0.3c1.2,0,2.3,0.2,3.2,0.6c0.9,0.4,1.7,1,2.5,1.8L164.4,5
		c-0.5-0.5-1-0.9-1.6-1.2s-1.2-0.4-1.9-0.4c-0.4,0-0.8,0-1,0.1s-0.5,0.2-0.7,0.3s-0.3,0.3-0.4,0.4c-0.1,0.2-0.1,0.3-0.1,0.5
		c0,0.3,0,0.5,0.1,0.6c0.1,0.2,0.3,0.3,0.5,0.5c0.2,0.1,0.6,0.3,1,0.4c0.4,0.1,0.9,0.3,1.5,0.4c0.6,0.1,1.2,0.3,1.8,0.5
		c0.6,0.2,1.2,0.5,1.7,0.8c0.5,0.4,0.9,0.8,1.2,1.4C166.8,9.9,167,10.6,167,11.4z"/>
	<path id="XMLID_95_" class="st0" d="M173.2,1.8c0,0.5-0.2,0.9-0.5,1.2c-0.3,0.3-0.8,0.5-1.2,0.5s-0.9-0.2-1.2-0.5
		c-0.3-0.3-0.5-0.8-0.5-1.2s0.2-0.9,0.5-1.2c0.3-0.3,0.8-0.5,1.2-0.5s0.9,0.2,1.2,0.5C173,0.9,173.2,1.3,173.2,1.8z M169.9,16.1V4.5
		h3.1v11.6H169.9z"/>
	<path id="XMLID_92_" class="st0" d="M185.4,14.2c0,1-0.1,1.8-0.2,2.5c-0.1,0.7-0.4,1.4-0.8,1.9c-0.4,0.5-0.9,0.9-1.5,1.2
		c-0.6,0.3-1.5,0.5-2.5,0.6l-1.1-2.3c0.6-0.1,1.1-0.2,1.5-0.3c0.4-0.1,0.7-0.3,0.9-0.5c0.2-0.2,0.4-0.5,0.5-0.8
		c0.1-0.3,0.1-0.7,0.1-1.1c-0.3,0.3-0.6,0.5-1,0.7c-0.4,0.2-0.9,0.3-1.4,0.3c-0.6,0-1.2-0.1-1.7-0.4c-0.5-0.2-1-0.6-1.4-1.1
		c-0.4-0.5-0.7-1.2-1-1.9c-0.2-0.8-0.4-1.7-0.4-2.8c0-0.9,0.1-1.7,0.3-2.4c0.2-0.7,0.5-1.3,0.9-1.9c0.4-0.5,0.9-0.9,1.4-1.2
		s1.2-0.4,1.9-0.4c0.5,0,1,0.1,1.4,0.3c0.4,0.2,0.8,0.4,1.1,0.6V4.5h3.1V14.2z M182.4,8.1c-0.5-0.7-1.2-1-2.1-1c-1.2,0-1.8,1-1.8,3
		c0,1.2,0.2,2.1,0.5,2.6c0.4,0.5,0.8,0.8,1.5,0.8c0.5,0,0.8-0.1,1.1-0.3c0.3-0.2,0.5-0.4,0.8-0.7V8.1z"/>
	<path id="XMLID_90_" class="st0" d="M195.5,16.1V9.9c0-1-0.2-1.7-0.5-2.1s-0.8-0.6-1.5-0.6s-1.1,0.2-1.5,0.6
		c-0.3,0.4-0.5,1.1-0.5,2.1v6.4h-3.1V4.5h3.1v0.8c0.3-0.3,0.6-0.5,1.1-0.7s1-0.3,1.6-0.3c1.5,0,2.6,0.5,3.3,1.4s1,2.2,1,3.9v6.6
		H195.5z"/>
	<path id="XMLID_87_" class="st0" d="M204.8,1.8c0,0.5-0.2,0.9-0.5,1.2c-0.3,0.3-0.8,0.5-1.2,0.5s-0.9-0.2-1.2-0.5
		c-0.3-0.3-0.5-0.8-0.5-1.2s0.2-0.9,0.5-1.2c0.3-0.3,0.8-0.5,1.2-0.5s0.9,0.2,1.2,0.5C204.6,0.9,204.8,1.3,204.8,1.8z M201.5,16.1
		V4.5h3.1v11.6H201.5z"/>
	<path id="XMLID_83_" class="st0" d="M213.6,2.9c-0.2-0.1-0.3-0.1-0.5-0.2c-0.2,0-0.4-0.1-0.6-0.1c-0.5,0-0.8,0.1-0.9,0.2
		s-0.2,0.4-0.2,0.7v1h2v2.9h-2v8.7h-3.1V7.4H207V4.5h1.4V3.1c0-1.1,0.3-1.9,0.9-2.3c0.6-0.5,1.4-0.7,2.5-0.7c0.8,0,1.4,0.1,1.9,0.3
		V2.9z M219.1,1.8c0,0.5-0.2,0.9-0.5,1.2s-0.8,0.5-1.2,0.5c-0.5,0-0.9-0.2-1.2-0.5s-0.5-0.8-0.5-1.2s0.2-0.9,0.5-1.2
		s0.8-0.5,1.2-0.5c0.5,0,0.9,0.2,1.2,0.5S219.1,1.3,219.1,1.8z M215.8,16.1V4.5h3.1v11.6H215.8z"/>
	<path id="XMLID_81_" class="st0" d="M230.6,14.8c-0.3,0.3-0.7,0.6-1,0.8c-0.4,0.2-0.8,0.4-1.3,0.5c-0.5,0.1-1,0.2-1.6,0.2
		c-0.8,0-1.5-0.1-2.1-0.4c-0.7-0.3-1.2-0.7-1.7-1.2c-0.5-0.5-0.9-1.2-1.2-1.9c-0.3-0.7-0.4-1.6-0.4-2.4s0.1-1.7,0.4-2.4
		c0.3-0.7,0.7-1.4,1.2-1.9c0.5-0.5,1.1-1,1.8-1.3c0.7-0.3,1.4-0.4,2.2-0.4c1.1,0,2,0.2,2.8,0.7c0.7,0.5,1.4,1.1,1.8,1.8l-2,2
		c-0.3-0.5-0.7-0.9-1.1-1.2s-0.9-0.5-1.5-0.5c-0.7,0-1.3,0.3-1.8,0.8c-0.4,0.6-0.7,1.3-0.7,2.3c0,0.9,0.2,1.7,0.7,2.3
		c0.4,0.6,1,0.9,1.8,0.9c0.6,0,1.1-0.1,1.5-0.4c0.4-0.3,0.8-0.6,1.2-1.1l1.9,1.8C231.2,14.2,230.9,14.5,230.6,14.8z"/>
	<path id="XMLID_78_" class="st0" d="M240.2,16.1v-0.8c-0.3,0.3-0.7,0.5-1.1,0.7c-0.5,0.2-1,0.3-1.5,0.3c-0.5,0-1.1-0.1-1.6-0.3
		c-0.5-0.2-1-0.4-1.4-0.8c-0.4-0.3-0.7-0.8-1-1.3s-0.4-1.1-0.4-1.8c0-0.6,0.1-1.2,0.4-1.7c0.2-0.5,0.6-0.9,1-1.2
		c0.4-0.3,0.9-0.6,1.5-0.7s1.2-0.2,1.8-0.2c0.5,0,1,0,1.3,0.1s0.7,0.2,0.9,0.3V8.3c0-0.4-0.1-0.8-0.4-1.1s-0.7-0.4-1.3-0.4
		c-0.4,0-0.7,0-0.9,0s-0.5,0.1-0.8,0.1c-0.2,0.1-0.5,0.1-0.7,0.2c-0.2,0.1-0.5,0.2-0.8,0.4l-1.2-2.1c0.3-0.2,0.7-0.4,1-0.5
		s0.6-0.3,1-0.4s0.7-0.2,1.1-0.2c0.4-0.1,0.8-0.1,1.3-0.1c0.7,0,1.4,0.1,1.9,0.3c0.6,0.2,1.1,0.4,1.5,0.8s0.7,0.8,1,1.3
		c0.2,0.5,0.3,1.1,0.3,1.7v7.8H240.2z M240.2,11.3c-0.3-0.2-0.6-0.3-0.9-0.4c-0.3-0.1-0.7-0.1-1.3-0.1c-0.6,0-1,0.1-1.3,0.4
		c-0.3,0.3-0.5,0.6-0.5,1.1c0,0.4,0.1,0.8,0.4,1.1c0.3,0.3,0.7,0.5,1.4,0.5c0.5,0,0.9-0.1,1.3-0.3c0.4-0.2,0.6-0.5,0.8-0.7V11.3z"/>
	<path id="XMLID_76_" class="st0" d="M253.1,16.1V9.9c0-1-0.2-1.7-0.5-2.1s-0.8-0.6-1.5-0.6s-1.1,0.2-1.5,0.6
		c-0.3,0.4-0.5,1.1-0.5,2.1v6.4h-3.1V4.5h3.1v0.8c0.3-0.3,0.6-0.5,1.1-0.7s1-0.3,1.6-0.3c1.5,0,2.6,0.5,3.3,1.4s1,2.2,1,3.9v6.6
		H253.1z"/>
	<path id="XMLID_74_" class="st0" d="M265.5,15.7c-0.3,0.2-0.6,0.4-1,0.5c-0.4,0.1-0.9,0.2-1.4,0.2s-0.9-0.1-1.3-0.3
		c-0.4-0.2-0.7-0.4-1-0.7c-0.3-0.3-0.5-0.7-0.6-1.1c-0.1-0.4-0.2-0.9-0.2-1.4V7.4h-1.9V4.5h1.9v-3l3.1-1.5v4.5h2.8v2.9h-2.8v4.7
		c0,0.6,0.1,0.9,0.3,1.1c0.2,0.2,0.5,0.3,0.8,0.3c0.3,0,0.5-0.1,0.8-0.2c0.2-0.1,0.6-0.4,0.9-0.7L265.5,15.7z"/>
	<path id="XMLID_71_" class="st0" d="M284.8,16.1l-2.8-5.6h-3.1v5.6h-3.1V0.6h7.2c0.7,0,1.4,0.1,2.1,0.3s1.2,0.5,1.7,0.9
		s0.9,0.9,1.2,1.5s0.4,1.3,0.4,2.2c0,1.2-0.2,2.1-0.7,2.9c-0.5,0.7-1.2,1.3-2.2,1.7l3,6H284.8z M285.1,5.6c0-0.7-0.2-1.2-0.6-1.5
		c-0.4-0.3-0.9-0.5-1.6-0.5h-4.1v4h4.1C284.4,7.6,285.1,7,285.1,5.6z"/>
	<path id="XMLID_68_" class="st0" d="M300.5,10.3c0,0.2,0,0.4,0,0.6c0,0.2,0,0.3,0,0.4h-7c0,0.4,0.1,0.7,0.3,1s0.3,0.5,0.6,0.7
		c0.2,0.2,0.5,0.3,0.7,0.4s0.5,0.1,0.8,0.1c0.4,0,0.8-0.1,1.2-0.2c0.3-0.1,0.6-0.3,0.8-0.6l2.2,1.8c-0.5,0.6-1.1,1.1-1.8,1.4
		c-0.8,0.3-1.5,0.5-2.3,0.5c-0.8,0-1.6-0.1-2.3-0.4s-1.2-0.7-1.7-1.2c-0.5-0.5-0.8-1.2-1.1-1.9s-0.4-1.6-0.4-2.5
		c0-0.9,0.1-1.7,0.4-2.4c0.3-0.7,0.6-1.4,1.1-1.9c0.5-0.5,1-1,1.6-1.3c0.6-0.3,1.3-0.4,2-0.4c0.8,0,1.5,0.2,2.1,0.5
		c0.6,0.3,1.1,0.8,1.5,1.3c0.4,0.6,0.7,1.2,1,1.9C300.4,8.7,300.5,9.5,300.5,10.3z M297.6,9c0-0.3-0.1-0.5-0.2-0.8
		c-0.1-0.2-0.2-0.5-0.4-0.7c-0.2-0.2-0.4-0.4-0.6-0.5c-0.3-0.1-0.5-0.2-0.9-0.2c-0.6,0-1,0.2-1.3,0.6c-0.3,0.4-0.5,0.9-0.6,1.5
		H297.6z"/>
	<path id="XMLID_65_" class="st0" d="M309.4,16.1v-0.7c-0.3,0.3-0.6,0.5-1,0.7c-0.4,0.2-0.9,0.3-1.4,0.3c-0.6,0-1.2-0.1-1.7-0.4
		c-0.5-0.2-1-0.6-1.4-1.1c-0.4-0.5-0.7-1.2-1-1.9c-0.2-0.8-0.4-1.7-0.4-2.8c0-0.9,0.1-1.7,0.3-2.4c0.2-0.7,0.5-1.3,0.9-1.9
		c0.4-0.5,0.9-0.9,1.4-1.2s1.2-0.4,1.9-0.4c0.5,0,1,0.1,1.4,0.3c0.4,0.2,0.8,0.4,1.1,0.6V1.5l3.1-1.5v16.1H309.4z M309.4,8.1
		c-0.5-0.7-1.2-1-2.1-1c-1.2,0-1.8,1-1.8,3c0,1.2,0.2,2.1,0.5,2.6c0.4,0.5,0.8,0.8,1.5,0.8c0.5,0,0.8-0.1,1.1-0.3
		c0.3-0.2,0.5-0.4,0.8-0.7V8.1z"/>
	<path id="XMLID_63_" class="st0" d="M322.3,16.1v-0.8c-0.3,0.3-0.6,0.5-1.1,0.7s-1,0.3-1.6,0.3c-1.5,0-2.6-0.5-3.3-1.4
		s-1-2.2-1-3.9V4.5h3.1v6.3c0,0.5,0,0.9,0.1,1.3c0.1,0.3,0.2,0.6,0.4,0.8c0.2,0.2,0.4,0.4,0.6,0.4c0.3,0.1,0.5,0.1,0.8,0.1
		c0.6,0,1.1-0.2,1.5-0.6c0.3-0.4,0.5-1.1,0.5-2.1V4.5h3.1v11.6H322.3z"/>
	<path id="XMLID_61_" class="st0" d="M337.1,14.8c-0.3,0.3-0.7,0.6-1,0.8c-0.4,0.2-0.8,0.4-1.3,0.5c-0.5,0.1-1,0.2-1.6,0.2
		c-0.8,0-1.5-0.1-2.1-0.4c-0.7-0.3-1.2-0.7-1.7-1.2c-0.5-0.5-0.9-1.2-1.2-1.9c-0.3-0.7-0.4-1.6-0.4-2.4s0.1-1.7,0.4-2.4
		c0.3-0.7,0.7-1.4,1.2-1.9c0.5-0.5,1.1-1,1.8-1.3c0.7-0.3,1.4-0.4,2.2-0.4c1.1,0,2,0.2,2.8,0.7c0.7,0.5,1.4,1.1,1.8,1.8l-2,2
		c-0.3-0.5-0.7-0.9-1.1-1.2s-0.9-0.5-1.5-0.5c-0.7,0-1.3,0.3-1.8,0.8c-0.4,0.6-0.7,1.3-0.7,2.3c0,0.9,0.2,1.7,0.7,2.3
		c0.4,0.6,1,0.9,1.8,0.9c0.6,0,1.1-0.1,1.5-0.4c0.4-0.3,0.8-0.6,1.2-1.1l1.9,1.8C337.7,14.2,337.4,14.5,337.1,14.8z"/>
	<path id="XMLID_59_" class="st0" d="M346.7,15.7c-0.3,0.2-0.6,0.4-1,0.5c-0.4,0.1-0.9,0.2-1.4,0.2s-0.9-0.1-1.3-0.3
		c-0.4-0.2-0.7-0.4-1-0.7c-0.3-0.3-0.5-0.7-0.6-1.1c-0.1-0.4-0.2-0.9-0.2-1.4V7.4h-1.9V4.5h1.9v-3l3.1-1.5v4.5h2.8v2.9h-2.8v4.7
		c0,0.6,0.1,0.9,0.3,1.1c0.2,0.2,0.5,0.3,0.8,0.3c0.3,0,0.5-0.1,0.8-0.2c0.2-0.1,0.6-0.4,0.9-0.7L346.7,15.7z"/>
	<path id="XMLID_56_" class="st0" d="M353.4,1.8c0,0.5-0.2,0.9-0.5,1.2c-0.3,0.3-0.8,0.5-1.2,0.5s-0.9-0.2-1.2-0.5
		c-0.3-0.3-0.5-0.8-0.5-1.2s0.2-0.9,0.5-1.2c0.3-0.3,0.8-0.5,1.2-0.5s0.9,0.2,1.2,0.5C353.3,0.9,353.4,1.3,353.4,1.8z M350.2,16.1
		V4.5h3.1v11.6H350.2z"/>
	<path id="XMLID_53_" class="st0" d="M366.2,10.3c0,0.9-0.1,1.7-0.4,2.4c-0.3,0.7-0.6,1.4-1.1,1.9c-0.5,0.5-1,0.9-1.7,1.2
		c-0.7,0.3-1.4,0.4-2.1,0.4s-1.5-0.1-2.1-0.4c-0.6-0.3-1.2-0.7-1.7-1.2c-0.5-0.5-0.8-1.2-1.1-1.9c-0.3-0.7-0.4-1.6-0.4-2.4
		s0.1-1.7,0.4-2.4c0.3-0.7,0.6-1.4,1.1-1.9c0.5-0.5,1-1,1.7-1.3c0.6-0.3,1.3-0.4,2.1-0.4s1.5,0.1,2.1,0.4c0.6,0.3,1.2,0.7,1.7,1.3
		c0.5,0.5,0.8,1.2,1.1,1.9C366.1,8.6,366.2,9.5,366.2,10.3z M363.1,10.3c0-0.9-0.2-1.6-0.5-2.2c-0.4-0.6-0.9-0.9-1.6-0.9
		s-1.3,0.3-1.6,0.9c-0.3,0.6-0.5,1.3-0.5,2.3s0.2,1.7,0.5,2.2c0.3,0.6,0.9,0.9,1.6,0.9c0.4,0,0.7-0.1,1-0.3c0.3-0.2,0.5-0.4,0.7-0.7
		c0.2-0.3,0.3-0.6,0.4-1C363.1,11.1,363.1,10.7,363.1,10.3z"/>
	<path id="XMLID_51_" class="st0" d="M375.6,16.1V9.9c0-1-0.2-1.7-0.5-2.1s-0.8-0.6-1.5-0.6s-1.1,0.2-1.5,0.6
		c-0.3,0.4-0.5,1.1-0.5,2.1v6.4h-3.1V4.5h3.1v0.8c0.3-0.3,0.6-0.5,1.1-0.7s1-0.3,1.6-0.3c1.5,0,2.6,0.5,3.3,1.4s1,2.2,1,3.9v6.6
		H375.6z"/>
	<path id="XMLID_48_" class="st0" d="M391.3,1.8c0,0.5-0.2,0.9-0.5,1.2c-0.3,0.3-0.8,0.5-1.2,0.5s-0.9-0.2-1.2-0.5
		c-0.3-0.3-0.5-0.8-0.5-1.2s0.2-0.9,0.5-1.2c0.3-0.3,0.8-0.5,1.2-0.5s0.9,0.2,1.2,0.5C391.1,0.9,391.3,1.3,391.3,1.8z M388,16.1V4.5
		h3.1v11.6H388z"/>
	<path id="XMLID_46_" class="st0" d="M401.2,16.1V9.9c0-1-0.2-1.7-0.5-2.1s-0.8-0.6-1.5-0.6s-1.1,0.2-1.5,0.6
		c-0.3,0.4-0.5,1.1-0.5,2.1v6.4h-3.1V4.5h3.1v0.8c0.3-0.3,0.6-0.5,1.1-0.7s1-0.3,1.6-0.3c1.5,0,2.6,0.5,3.3,1.4s1,2.2,1,3.9v6.6
		H401.2z"/>
	<path id="XMLID_43_" class="st0" d="M426.2,5.6c0,0.9-0.1,1.7-0.4,2.3c-0.3,0.6-0.7,1.2-1.2,1.6s-1.1,0.7-1.8,0.9
		c-0.7,0.2-1.4,0.3-2.2,0.3h-3.4v5.5H414V0.6h6.8c0.7,0,1.4,0.1,2.1,0.3c0.6,0.2,1.2,0.5,1.7,0.9s0.9,0.9,1.2,1.5
		S426.2,4.7,426.2,5.6z M423,5.6c0-0.7-0.2-1.2-0.6-1.5c-0.4-0.3-1-0.5-1.7-0.5h-3.6v4h3.6C422.2,7.6,423,7,423,5.6z"/>
	<path id="XMLID_40_" class="st0" d="M435,16.1v-0.8c-0.3,0.3-0.7,0.5-1.1,0.7c-0.5,0.2-1,0.3-1.5,0.3c-0.5,0-1.1-0.1-1.6-0.3
		c-0.5-0.2-1-0.4-1.4-0.8c-0.4-0.3-0.7-0.8-1-1.3S428,13,428,12.2c0-0.6,0.1-1.2,0.4-1.7c0.2-0.5,0.6-0.9,1-1.2
		c0.4-0.3,0.9-0.6,1.5-0.7s1.2-0.2,1.8-0.2c0.5,0,1,0,1.3,0.1s0.7,0.2,0.9,0.3V8.3c0-0.4-0.1-0.8-0.4-1.1s-0.7-0.4-1.3-0.4
		c-0.4,0-0.7,0-0.9,0s-0.5,0.1-0.8,0.1c-0.2,0.1-0.5,0.1-0.7,0.2c-0.2,0.1-0.5,0.2-0.8,0.4L429,5.4c0.3-0.2,0.7-0.4,1-0.5
		s0.6-0.3,1-0.4s0.7-0.2,1.1-0.2c0.4-0.1,0.8-0.1,1.3-0.1c0.7,0,1.4,0.1,1.9,0.3c0.6,0.2,1.1,0.4,1.5,0.8s0.7,0.8,1,1.3
		c0.2,0.5,0.3,1.1,0.3,1.7v7.8H435z M435,11.3c-0.3-0.2-0.6-0.3-0.9-0.4c-0.3-0.1-0.7-0.1-1.3-0.1c-0.6,0-1,0.1-1.3,0.4
		c-0.3,0.3-0.5,0.6-0.5,1.1c0,0.4,0.1,0.8,0.4,1.1c0.3,0.3,0.7,0.5,1.4,0.5c0.5,0,0.9-0.1,1.3-0.3c0.4-0.2,0.6-0.5,0.8-0.7V11.3z"/>
	<path id="XMLID_38_" class="st0" d="M447.7,8.1c-0.3-0.2-0.5-0.4-0.8-0.5c-0.3-0.1-0.6-0.2-1-0.2c-0.3,0-0.6,0-0.8,0.1
		c-0.2,0.1-0.5,0.2-0.6,0.4c-0.2,0.2-0.3,0.5-0.4,0.8C444,8.9,444,9.4,444,9.9v6.3h-3.1V4.5h3.1v0.8c0.3-0.3,0.6-0.5,1-0.7
		c0.4-0.2,0.9-0.3,1.4-0.3c0.5,0,0.9,0.1,1.3,0.3c0.4,0.2,0.6,0.4,0.9,0.6L447.7,8.1z"/>
	<path id="XMLID_36_" class="st0" d="M456.9,15.7c-0.3,0.2-0.6,0.4-1,0.5c-0.4,0.1-0.9,0.2-1.4,0.2s-0.9-0.1-1.3-0.3
		c-0.4-0.2-0.7-0.4-1-0.7c-0.3-0.3-0.5-0.7-0.6-1.1c-0.1-0.4-0.2-0.9-0.2-1.4V7.4h-1.9V4.5h1.9v-3l3.1-1.5v4.5h2.8v2.9h-2.8v4.7
		c0,0.6,0.1,0.9,0.3,1.1c0.2,0.2,0.5,0.3,0.8,0.3c0.3,0,0.5-0.1,0.8-0.2c0.2-0.1,0.6-0.4,0.9-0.7L456.9,15.7z"/>
	<path id="XMLID_33_" class="st0" d="M463.6,1.8c0,0.5-0.2,0.9-0.5,1.2c-0.3,0.3-0.8,0.5-1.2,0.5s-0.9-0.2-1.2-0.5
		c-0.3-0.3-0.5-0.8-0.5-1.2s0.2-0.9,0.5-1.2c0.3-0.3,0.8-0.5,1.2-0.5s0.9,0.2,1.2,0.5C463.4,0.9,463.6,1.3,463.6,1.8z M460.3,16.1
		V4.5h3.1v11.6H460.3z"/>
	<path id="XMLID_30_" class="st0" d="M472.8,16.1v-0.8c-0.3,0.3-0.7,0.5-1.1,0.7c-0.5,0.2-1,0.3-1.5,0.3c-0.5,0-1.1-0.1-1.6-0.3
		c-0.5-0.2-1-0.4-1.4-0.8c-0.4-0.3-0.7-0.8-1-1.3s-0.4-1.1-0.4-1.8c0-0.6,0.1-1.2,0.4-1.7c0.2-0.5,0.6-0.9,1-1.2
		c0.4-0.3,0.9-0.6,1.5-0.7s1.2-0.2,1.8-0.2c0.5,0,1,0,1.3,0.1s0.7,0.2,0.9,0.3V8.3c0-0.4-0.1-0.8-0.4-1.1s-0.7-0.4-1.3-0.4
		c-0.4,0-0.7,0-0.9,0s-0.5,0.1-0.8,0.1c-0.2,0.1-0.5,0.1-0.7,0.2c-0.2,0.1-0.5,0.2-0.8,0.4l-1.2-2.1c0.3-0.2,0.7-0.4,1-0.5
		s0.6-0.3,1-0.4s0.7-0.2,1.1-0.2c0.4-0.1,0.8-0.1,1.3-0.1c0.7,0,1.4,0.1,1.9,0.3c0.6,0.2,1.1,0.4,1.5,0.8s0.7,0.8,1,1.3
		c0.2,0.5,0.3,1.1,0.3,1.7v7.8H472.8z M472.8,11.3c-0.3-0.2-0.6-0.3-0.9-0.4c-0.3-0.1-0.7-0.1-1.3-0.1c-0.6,0-1,0.1-1.3,0.4
		c-0.3,0.3-0.5,0.6-0.5,1.1c0,0.4,0.1,0.8,0.4,1.1c0.3,0.3,0.7,0.5,1.4,0.5c0.5,0,0.9-0.1,1.3-0.3c0.4-0.2,0.6-0.5,0.8-0.7V11.3z"/>
	<path id="XMLID_28_" class="st0" d="M478.8,16.1V1.5l3.1-1.5v16.1H478.8z"/>
	<path id="XMLID_26_" class="st0" d="M491.9,16.1V0.6h10.8v3H495v2.7h4.5v3H495v3.7h8v3H491.9z"/>
	<path id="XMLID_23_" class="st0" d="M515.8,10.5c0,0.9-0.1,1.7-0.3,2.4c-0.2,0.7-0.5,1.3-0.9,1.9c-0.4,0.5-0.9,0.9-1.4,1.2
		c-0.6,0.3-1.2,0.4-1.9,0.4c-0.5,0-1-0.1-1.4-0.3c-0.4-0.2-0.8-0.4-1.1-0.6v3.4l-3.1,1.5V4.5h3.1v0.7c0.3-0.3,0.6-0.5,1-0.7
		c0.4-0.2,0.9-0.3,1.4-0.3c0.6,0,1.2,0.1,1.7,0.4c0.5,0.2,1,0.6,1.4,1.1c0.4,0.5,0.7,1.2,1,1.9C515.7,8.5,515.8,9.4,515.8,10.5z
		 M512.7,10.5c0-1.2-0.2-2.1-0.5-2.6c-0.4-0.5-0.8-0.8-1.5-0.8c-0.5,0-0.8,0.1-1.1,0.3c-0.3,0.2-0.5,0.4-0.8,0.7v4.4
		c0.5,0.7,1.2,1,2.1,1C512.1,13.5,512.7,12.5,512.7,10.5z"/>
	<path id="XMLID_20_" class="st0" d="M521.6,1.8c0,0.5-0.2,0.9-0.5,1.2c-0.3,0.3-0.8,0.5-1.2,0.5S519,3.4,518.6,3
		c-0.3-0.3-0.5-0.8-0.5-1.2s0.2-0.9,0.5-1.2c0.3-0.3,0.8-0.5,1.2-0.5s0.9,0.2,1.2,0.5C521.4,0.9,521.6,1.3,521.6,1.8z M518.3,16.1
		V4.5h3.1v11.6H518.3z"/>
	<path id="XMLID_18_" class="st0" d="M524.6,16.1V1.5l3.1-1.5v16.1H524.6z"/>
	<path id="XMLID_15_" class="st0" d="M540.2,10.3c0,0.2,0,0.4,0,0.6c0,0.2,0,0.3,0,0.4h-7c0,0.4,0.1,0.7,0.3,1s0.3,0.5,0.6,0.7
		c0.2,0.2,0.5,0.3,0.7,0.4s0.5,0.1,0.8,0.1c0.4,0,0.8-0.1,1.2-0.2c0.3-0.1,0.6-0.3,0.8-0.6l2.2,1.8c-0.5,0.6-1.1,1.1-1.8,1.4
		c-0.8,0.3-1.5,0.5-2.3,0.5c-0.8,0-1.6-0.1-2.3-0.4s-1.2-0.7-1.7-1.2c-0.5-0.5-0.8-1.2-1.1-1.9s-0.4-1.6-0.4-2.5
		c0-0.9,0.1-1.7,0.4-2.4c0.3-0.7,0.6-1.4,1.1-1.9c0.5-0.5,1-1,1.6-1.3c0.6-0.3,1.3-0.4,2-0.4c0.8,0,1.5,0.2,2.1,0.5
		c0.6,0.3,1.1,0.8,1.5,1.3c0.4,0.6,0.7,1.2,1,1.9C540.1,8.7,540.2,9.5,540.2,10.3z M537.2,9c0-0.3-0.1-0.5-0.2-0.8
		c-0.1-0.2-0.2-0.5-0.4-0.7c-0.2-0.2-0.4-0.4-0.6-0.5c-0.3-0.1-0.5-0.2-0.9-0.2c-0.6,0-1,0.2-1.3,0.6c-0.3,0.4-0.5,0.9-0.6,1.5
		H537.2z"/>
	<path id="XMLID_12_" class="st0" d="M552.7,10.5c0,0.9-0.1,1.7-0.3,2.4c-0.2,0.7-0.5,1.3-0.9,1.9c-0.4,0.5-0.9,0.9-1.4,1.2
		c-0.6,0.3-1.2,0.4-1.9,0.4c-0.5,0-1-0.1-1.4-0.3c-0.4-0.2-0.8-0.4-1.1-0.6v3.4l-3.1,1.5V4.5h3.1v0.7c0.3-0.3,0.6-0.5,1-0.7
		c0.4-0.2,0.9-0.3,1.4-0.3c0.6,0,1.2,0.1,1.7,0.4c0.5,0.2,1,0.6,1.4,1.1c0.4,0.5,0.7,1.2,1,1.9C552.5,8.5,552.7,9.4,552.7,10.5z
		 M549.6,10.5c0-1.2-0.2-2.1-0.5-2.6c-0.4-0.5-0.8-0.8-1.5-0.8c-0.5,0-0.8,0.1-1.1,0.3c-0.3,0.2-0.5,0.4-0.8,0.7v4.4
		c0.5,0.7,1.2,1,2.1,1C549,13.5,549.6,12.5,549.6,10.5z"/>
	<path id="XMLID_10_" class="st0" d="M564.3,12.8c0,0.7-0.1,1.2-0.4,1.7s-0.6,0.8-1,1.1c-0.4,0.3-0.9,0.5-1.5,0.6
		c-0.6,0.1-1.2,0.2-1.8,0.2c-0.9,0-1.8-0.1-2.7-0.4c-0.8-0.2-1.6-0.6-2.2-1l1-2.3c0.6,0.3,1.3,0.6,1.9,0.8s1.4,0.3,2.1,0.3
		c0.6,0,1-0.1,1.2-0.2s0.3-0.4,0.3-0.7c0-0.3-0.1-0.5-0.4-0.6c-0.2-0.2-0.7-0.3-1.3-0.5c-0.7-0.2-1.3-0.4-1.9-0.6
		c-0.6-0.2-1.1-0.5-1.5-0.8c-0.4-0.3-0.7-0.6-0.9-1.1c-0.2-0.4-0.3-0.9-0.3-1.5c0-0.6,0.1-1.1,0.3-1.6c0.2-0.4,0.5-0.8,1-1.1
		c0.4-0.3,0.9-0.5,1.5-0.6s1.2-0.2,1.9-0.2c0.7,0,1.5,0.1,2.2,0.3c0.8,0.2,1.4,0.5,2.1,0.8l-1,2.4c-0.6-0.3-1.2-0.5-1.8-0.7
		c-0.6-0.2-1.1-0.2-1.6-0.2c-0.6,0-1,0.1-1.3,0.2c-0.2,0.1-0.3,0.3-0.3,0.6c0,0.1,0,0.2,0.1,0.3c0.1,0.1,0.2,0.2,0.3,0.3
		s0.4,0.2,0.7,0.3s0.7,0.3,1.3,0.4c0.5,0.2,1,0.4,1.5,0.6c0.5,0.2,0.9,0.4,1.2,0.7s0.6,0.6,0.8,1C564.2,11.7,564.3,12.2,564.3,12.8z
		"/>
	<path id="XMLID_8_" class="st0" d="M572,20.2h-3l1.5-4.1L566,4.5h3.4l1.9,5.6c0.2,0.4,0.3,0.9,0.4,1.4s0.2,0.9,0.3,1.2
		c0.1-0.3,0.2-0.7,0.3-1.2s0.3-0.9,0.4-1.4l1.9-5.6h3.3L572,20.2z"/>
	<path id="XMLID_6_" class="st0" d="M583.6,14.3c0,0.3-0.1,0.5-0.2,0.8c-0.1,0.3-0.3,0.5-0.5,0.7c-0.2,0.2-0.4,0.3-0.7,0.5
		c-0.3,0.1-0.5,0.2-0.8,0.2s-0.5-0.1-0.8-0.2c-0.3-0.1-0.5-0.3-0.7-0.5c-0.2-0.2-0.3-0.4-0.5-0.7c-0.1-0.3-0.2-0.5-0.2-0.8
		s0.1-0.5,0.2-0.8c0.1-0.3,0.3-0.5,0.5-0.7c0.2-0.2,0.4-0.3,0.7-0.5c0.3-0.1,0.5-0.2,0.8-0.2s0.5,0.1,0.8,0.2
		c0.3,0.1,0.5,0.3,0.7,0.5c0.2,0.2,0.3,0.4,0.5,0.7C583.6,13.8,583.6,14,583.6,14.3z"/>
</g>
<g id="XMLID_2_">
	<path id="XMLID_4_" class="st0" d="M4,18.8c0,0,3.7-8,17.5-8C35.3,10.8,42.9,6,42.9,6s-9.8,10.2-19.5,10.2C13.8,16.1,8,16.1,4,18.8
		"/>
	<path id="XMLID_3_" class="st1" d="M0,26.3c0,0,3.7-8,17.5-8c13.8,0,21.5-4.8,21.5-4.8s-9.8,10.2-19.5,10.2C9.8,23.7,4,23.7,0,26.3
		"/>
</g>
</svg>
