<!-- Generator: Adobe Illustrator 22.1.0, SVG Export Plug-In  -->
<svg version="1.1"
	 xmlns="http://www.w3.org/2000/svg" xmlns:xlink="http://www.w3.org/1999/xlink" xmlns:a="http://ns.adobe.com/AdobeSVGViewerExtensions/3.0/"
	 x="0px" y="0px" width="95.7px" height="39.2px" viewBox="0 0 95.7 39.2" style="enable-background:new 0 0 95.7 39.2;"
	 xml:space="preserve">
<style type="text/css">
	.st0{fill:#236092;}
</style>
<defs>
</defs>
<path id="XMLID_11_" class="st0" d="M24.3,16.2c0,2.6-0.4,4.9-1.3,6.8c-0.9,1.9-2,3.5-3.5,4.7c-1.4,1.2-3.1,2.1-4.9,2.7
	s-3.7,0.9-5.6,0.9H0v-30h9.4c2.1,0,4.1,0.3,5.9,0.8c1.8,0.5,3.4,1.4,4.7,2.6c1.3,1.2,2.4,2.8,3.1,4.6C23.9,11.2,24.3,13.5,24.3,16.2
	z M18.1,16.2c0-3.1-0.7-5.3-2.1-6.9c-1.4-1.5-3.7-2.3-6.9-2.3H6v18.3h3c1.6,0,2.9-0.2,4.1-0.7c1.2-0.4,2.1-1.1,2.8-1.9
	c0.7-0.8,1.3-1.8,1.7-2.9C17.9,18.9,18.1,17.6,18.1,16.2z"/>
<path id="XMLID_8_" class="st0" d="M41,31.2v-1.5c-0.5,0.6-1.3,1-2.1,1.4c-0.9,0.4-1.9,0.6-2.9,0.6c-1.1,0-2.1-0.2-3.1-0.5
	c-1-0.3-1.9-0.8-2.7-1.5c-0.8-0.7-1.4-1.5-1.9-2.5c-0.5-1-0.7-2.2-0.7-3.6c0-1.2,0.2-2.3,0.7-3.3s1.1-1.7,1.9-2.3
	c0.8-0.6,1.8-1.1,2.9-1.4c1.1-0.3,2.3-0.5,3.6-0.5c1,0,1.9,0.1,2.6,0.3c0.7,0.2,1.3,0.4,1.8,0.6V16c0-0.8-0.3-1.5-0.8-2
	c-0.5-0.6-1.3-0.8-2.4-0.8c-0.7,0-1.3,0-1.8,0.1c-0.5,0.1-1,0.1-1.5,0.3s-0.9,0.3-1.4,0.5c-0.5,0.2-0.9,0.4-1.5,0.7l-2.3-4.1
	c0.7-0.4,1.3-0.7,1.9-1c0.6-0.3,1.3-0.5,1.9-0.7c0.7-0.2,1.4-0.3,2.1-0.4c0.7-0.1,1.6-0.1,2.5-0.1c1.4,0,2.6,0.2,3.7,0.5
	s2.1,0.9,2.9,1.5c0.8,0.7,1.4,1.5,1.9,2.5c0.4,1,0.7,2.1,0.7,3.4v15.1H41z M41,21.8c-0.5-0.3-1.1-0.5-1.6-0.7
	c-0.6-0.2-1.4-0.2-2.5-0.2c-1.1,0-2,0.2-2.5,0.7c-0.6,0.5-0.9,1.2-0.9,2.1c0,0.8,0.3,1.5,0.8,2.1s1.4,0.9,2.7,0.9
	c1,0,1.8-0.2,2.5-0.6c0.7-0.4,1.2-0.9,1.6-1.4V21.8z"/>
<path id="XMLID_5_" class="st0" d="M58.2,3.5c0,0.9-0.3,1.7-1,2.4c-0.7,0.7-1.5,1-2.4,1c-0.9,0-1.7-0.3-2.4-1c-0.7-0.7-1-1.5-1-2.4
	s0.3-1.7,1-2.4c0.7-0.7,1.5-1,2.4-1c0.9,0,1.7,0.3,2.4,1C57.9,1.8,58.2,2.6,58.2,3.5z M51.9,31.2V8.7h5.9v22.5H51.9z"/>
<path id="XMLID_3_" class="st0" d="M63.2,31.2V3l5.9-3v31.2H63.2z"/>
<path id="XMLID_1_" class="st0" d="M84.1,39.2h-5.8l3-7.9L72.6,8.7h6.5l3.7,10.8c0.3,0.9,0.6,1.8,0.9,2.7c0.3,0.9,0.5,1.7,0.6,2.2
	c0.1-0.6,0.3-1.3,0.6-2.2c0.3-0.9,0.5-1.8,0.9-2.7l3.7-10.8h6.3L84.1,39.2z"/>
</svg>
