<!-- Generator: Adobe Illustrator 22.1.0, SVG Export Plug-In  -->
<svg version="1.1"
	 xmlns="http://www.w3.org/2000/svg" xmlns:xlink="http://www.w3.org/1999/xlink" xmlns:a="http://ns.adobe.com/AdobeSVGViewerExtensions/3.0/"
	 x="0px" y="0px" width="611.5px" height="25.4px" viewBox="0 0 611.5 25.4" style="enable-background:new 0 0 611.5 25.4;"
	 xml:space="preserve">
<style type="text/css">
	.st0{fill:#236092;}
</style>
<defs>
</defs>
<g id="XMLID_1_">
	<g>
		<path id="XMLID_80_" class="st0" d="M0,25.1V1h16.7v4.7H4.8v4.2h6.9v4.7H4.8v5.8h12.4v4.7H0z"/>
		<path id="XMLID_78_" class="st0" d="M32,25.1l-1.8-3c-0.3-0.5-0.6-1.1-0.9-1.6c-0.3-0.5-0.5-1-0.7-1.3c-0.2,0.3-0.4,0.8-0.7,1.3
			c-0.3,0.5-0.6,1.1-0.9,1.6l-1.8,3h-5.6l6.4-9.8L20.4,7H26l0.9,1.5c0.3,0.5,0.6,1.1,0.9,1.6c0.3,0.5,0.5,1,0.7,1.3
			c0.2-0.3,0.4-0.8,0.7-1.3s0.6-1.1,0.9-1.6L31,7h5.6l-5.4,8.3l6.4,9.8H32z"/>
		<path id="XMLID_76_" class="st0" d="M53.7,23.1c-0.5,0.5-1,0.9-1.6,1.3c-0.6,0.4-1.2,0.6-2,0.8c-0.7,0.2-1.5,0.3-2.4,0.3
			c-1.2,0-2.3-0.2-3.3-0.7c-1-0.5-1.9-1.1-2.7-1.9c-0.8-0.8-1.4-1.8-1.8-3c-0.4-1.2-0.7-2.4-0.7-3.8c0-1.4,0.2-2.6,0.7-3.8
			c0.4-1.2,1-2.2,1.8-3c0.8-0.8,1.7-1.5,2.7-1.9c1.1-0.5,2.2-0.7,3.5-0.7c1.7,0,3.2,0.4,4.3,1.1s2.1,1.7,2.9,2.8l-3.1,3.2
			c-0.5-0.8-1.1-1.4-1.7-1.9c-0.6-0.5-1.4-0.7-2.4-0.7c-1.1,0-2.1,0.4-2.7,1.3c-0.7,0.9-1,2.1-1,3.6c0,1.5,0.3,2.6,1,3.5
			c0.7,0.9,1.6,1.3,2.7,1.3c0.9,0,1.7-0.2,2.4-0.6c0.6-0.4,1.3-1,1.9-1.7l3,2.8C54.6,22,54.1,22.6,53.7,23.1z"/>
		<path id="XMLID_73_" class="st0" d="M72.7,16.1c0,0.3,0,0.6,0,0.9c0,0.2,0,0.5-0.1,0.6H61.8c0,0.6,0.2,1.1,0.4,1.6
			c0.2,0.4,0.5,0.8,0.9,1c0.3,0.3,0.7,0.5,1.2,0.6c0.4,0.1,0.9,0.2,1.3,0.2c0.7,0,1.3-0.1,1.8-0.3c0.5-0.2,1-0.5,1.3-0.9l3.4,2.8
			c-0.7,0.9-1.7,1.7-2.9,2.2s-2.4,0.8-3.6,0.8c-1.3,0-2.5-0.2-3.5-0.7c-1-0.4-1.9-1.1-2.7-1.9c-0.7-0.8-1.3-1.8-1.7-3
			c-0.4-1.2-0.6-2.4-0.6-3.9c0-1.4,0.2-2.6,0.6-3.8c0.4-1.2,1-2.2,1.7-3c0.7-0.8,1.6-1.5,2.5-1.9c1-0.5,2-0.7,3.2-0.7
			c1.2,0,2.3,0.2,3.2,0.7c1,0.5,1.7,1.2,2.4,2c0.6,0.9,1.1,1.9,1.5,3C72.5,13.6,72.7,14.8,72.7,16.1z M68.1,14
			c0-0.4-0.1-0.8-0.3-1.2c-0.1-0.4-0.3-0.7-0.6-1c-0.3-0.3-0.6-0.6-1-0.7c-0.4-0.2-0.9-0.3-1.4-0.3c-0.9,0-1.6,0.3-2.1,0.9
			c-0.5,0.6-0.8,1.4-0.9,2.3H68.1z"/>
		<path id="XMLID_71_" class="st0" d="M76.1,25.1V2.4L80.8,0v25.1H76.1z"/>
		<path id="XMLID_69_" class="st0" d="M85.2,25.1V2.4L89.9,0v25.1H85.2z"/>
		<path id="XMLID_66_" class="st0" d="M108.9,16.1c0,0.3,0,0.6,0,0.9c0,0.2,0,0.5-0.1,0.6H98c0,0.6,0.2,1.1,0.4,1.6
			c0.2,0.4,0.5,0.8,0.9,1c0.3,0.3,0.7,0.5,1.2,0.6c0.4,0.1,0.9,0.2,1.3,0.2c0.7,0,1.3-0.1,1.8-0.3c0.5-0.2,1-0.5,1.3-0.9l3.4,2.8
			c-0.7,0.9-1.7,1.7-2.9,2.2s-2.4,0.8-3.6,0.8c-1.3,0-2.5-0.2-3.5-0.7c-1-0.4-1.9-1.1-2.7-1.9c-0.7-0.8-1.3-1.8-1.7-3
			c-0.4-1.2-0.6-2.4-0.6-3.9c0-1.4,0.2-2.6,0.6-3.8c0.4-1.2,1-2.2,1.7-3c0.7-0.8,1.6-1.5,2.5-1.9c1-0.5,2-0.7,3.2-0.7
			c1.2,0,2.3,0.2,3.2,0.7c1,0.5,1.7,1.2,2.4,2c0.6,0.9,1.1,1.9,1.5,3C108.7,13.6,108.9,14.8,108.9,16.1z M104.3,14
			c0-0.4-0.1-0.8-0.3-1.2c-0.1-0.4-0.3-0.7-0.6-1c-0.3-0.3-0.6-0.6-1-0.7c-0.4-0.2-0.9-0.3-1.4-0.3c-0.9,0-1.6,0.3-2.1,0.9
			c-0.5,0.6-0.8,1.4-0.9,2.3H104.3z"/>
		<path id="XMLID_64_" class="st0" d="M123,25.1v-9.8c0-1.6-0.3-2.7-0.8-3.3c-0.5-0.6-1.3-0.9-2.3-0.9c-1,0-1.7,0.3-2.3,0.9
			c-0.5,0.6-0.8,1.7-0.8,3.2v9.9h-4.7V7h4.7v1.2c0.4-0.4,1-0.8,1.7-1.1c0.7-0.3,1.6-0.5,2.5-0.5c2.3,0,4,0.7,5.1,2.2s1.6,3.5,1.6,6
			v10.2H123z"/>
		<path id="XMLID_62_" class="st0" d="M141.6,24.3c-0.4,0.3-0.9,0.6-1.6,0.8c-0.7,0.2-1.4,0.3-2.1,0.3c-0.7,0-1.4-0.1-2-0.4
			c-0.6-0.3-1.1-0.6-1.5-1.1c-0.4-0.5-0.7-1.1-1-1.7c-0.2-0.7-0.3-1.4-0.3-2.2v-8.5h-3V7h3V2.4l4.7-2.4v7h4.3v4.5h-4.3v7.3
			c0,0.9,0.1,1.5,0.4,1.7c0.3,0.3,0.7,0.4,1.3,0.4c0.4,0,0.8-0.1,1.2-0.3c0.4-0.2,0.9-0.6,1.5-1.1L141.6,24.3z"/>
		<path id="XMLID_60_" class="st0" d="M170.1,8c-0.4-0.8-1-1.5-1.7-1.9c-0.7-0.5-1.6-0.7-2.7-0.7c-0.9,0-1.7,0.2-2.4,0.6
			c-0.7,0.4-1.3,0.9-1.8,1.6c-0.5,0.7-0.8,1.5-1.1,2.4c-0.3,0.9-0.4,2-0.4,3.1c0,1.1,0.1,2.1,0.4,3c0.3,0.9,0.6,1.7,1.1,2.4
			c0.5,0.7,1.1,1.2,1.8,1.6c0.7,0.4,1.5,0.6,2.4,0.6c1.1,0,2-0.2,2.7-0.7s1.4-1.3,2-2.3l4.1,2.4c-0.8,1.7-2,3.1-3.4,4
			c-1.5,1-3.3,1.4-5.5,1.4c-1.6,0-3-0.3-4.3-0.9c-1.3-0.6-2.4-1.4-3.3-2.5c-0.9-1.1-1.6-2.4-2.1-3.9c-0.5-1.5-0.8-3.2-0.8-5.1
			c0-1.8,0.3-3.5,0.8-5c0.5-1.5,1.3-2.8,2.2-3.9s2.1-1.9,3.4-2.5s2.8-0.9,4.3-0.9c1.1,0,2.1,0.1,3.1,0.4c0.9,0.3,1.7,0.6,2.5,1.1
			c0.7,0.5,1.4,1,1.9,1.7c0.5,0.7,1,1.4,1.4,2.1L170.1,8z"/>
		<path id="XMLID_58_" class="st0" d="M188.9,25.1v-9.8c0-1.6-0.3-2.7-0.8-3.3c-0.5-0.6-1.3-0.9-2.3-0.9c-1,0-1.7,0.3-2.3,0.9
			c-0.5,0.6-0.8,1.7-0.8,3.2v9.9H178V2.4l4.7-2.4v8.2c0.4-0.4,1-0.8,1.7-1.1c0.7-0.3,1.6-0.5,2.5-0.5c2.3,0,4,0.7,5.1,2.2
			s1.6,3.5,1.6,6v10.2H188.9z"/>
		<path id="XMLID_55_" class="st0" d="M212.9,16.1c0,1.4-0.2,2.6-0.6,3.8c-0.4,1.2-1,2.1-1.7,3s-1.6,1.5-2.6,1.9
			c-1,0.5-2.1,0.7-3.3,0.7s-2.3-0.2-3.2-0.7c-1-0.5-1.9-1.1-2.6-1.9s-1.3-1.8-1.7-3c-0.4-1.2-0.6-2.4-0.6-3.8c0-1.4,0.2-2.6,0.6-3.8
			c0.4-1.2,1-2.2,1.7-3c0.7-0.8,1.6-1.5,2.6-1.9c1-0.5,2.1-0.7,3.2-0.7s2.3,0.2,3.3,0.7c1,0.5,1.9,1.1,2.6,1.9
			c0.7,0.8,1.3,1.8,1.7,3C212.7,13.4,212.9,14.7,212.9,16.1z M208.1,16.1c0-1.4-0.3-2.5-0.8-3.5c-0.5-0.9-1.4-1.4-2.5-1.4
			c-1.1,0-2,0.5-2.5,1.4c-0.5,0.9-0.8,2.1-0.8,3.5c0,1.4,0.3,2.6,0.8,3.5c0.5,0.9,1.4,1.4,2.5,1.4c0.6,0,1.1-0.1,1.5-0.4
			c0.4-0.3,0.8-0.6,1-1.1c0.3-0.5,0.5-1,0.6-1.6S208.1,16.7,208.1,16.1z"/>
		<path id="XMLID_52_" class="st0" d="M221.3,2.8c0,0.7-0.3,1.4-0.8,1.9c-0.5,0.5-1.2,0.8-1.9,0.8s-1.4-0.3-1.9-0.8
			c-0.5-0.5-0.8-1.2-0.8-1.9c0-0.7,0.3-1.4,0.8-1.9c0.5-0.5,1.2-0.8,1.9-0.8s1.4,0.3,1.9,0.8C221,1.5,221.3,2.1,221.3,2.8z
			 M216.2,25.1V7h4.7v18.1H216.2z"/>
		<path id="XMLID_50_" class="st0" d="M238.6,23.1c-0.5,0.5-1,0.9-1.6,1.3c-0.6,0.4-1.2,0.6-2,0.8c-0.7,0.2-1.5,0.3-2.4,0.3
			c-1.2,0-2.3-0.2-3.3-0.7c-1-0.5-1.9-1.1-2.7-1.9c-0.8-0.8-1.4-1.8-1.8-3c-0.4-1.2-0.7-2.4-0.7-3.8c0-1.4,0.2-2.6,0.7-3.8
			c0.4-1.2,1-2.2,1.8-3c0.8-0.8,1.7-1.5,2.7-1.9c1.1-0.5,2.2-0.7,3.5-0.7c1.7,0,3.2,0.4,4.3,1.1s2.1,1.7,2.9,2.8l-3.1,3.2
			c-0.5-0.8-1.1-1.4-1.7-1.9c-0.6-0.5-1.4-0.7-2.4-0.7c-1.1,0-2.1,0.4-2.7,1.3c-0.7,0.9-1,2.1-1,3.6c0,1.5,0.3,2.6,1,3.5
			c0.7,0.9,1.6,1.3,2.7,1.3c0.9,0,1.7-0.2,2.4-0.6c0.6-0.4,1.3-1,1.9-1.7l3,2.8C239.6,22,239.1,22.6,238.6,23.1z"/>
		<path id="XMLID_47_" class="st0" d="M257.7,16.1c0,0.3,0,0.6,0,0.9c0,0.2,0,0.5-0.1,0.6h-10.8c0,0.6,0.2,1.1,0.4,1.6
			c0.2,0.4,0.5,0.8,0.9,1c0.3,0.3,0.7,0.5,1.2,0.6c0.4,0.1,0.9,0.2,1.3,0.2c0.7,0,1.3-0.1,1.8-0.3c0.5-0.2,1-0.5,1.3-0.9l3.4,2.8
			c-0.7,0.9-1.7,1.7-2.9,2.2s-2.4,0.8-3.6,0.8c-1.3,0-2.5-0.2-3.5-0.7c-1-0.4-1.9-1.1-2.7-1.9c-0.7-0.8-1.3-1.8-1.7-3
			c-0.4-1.2-0.6-2.4-0.6-3.9c0-1.4,0.2-2.6,0.6-3.8c0.4-1.2,1-2.2,1.7-3c0.7-0.8,1.6-1.5,2.5-1.9c1-0.5,2-0.7,3.2-0.7
			c1.2,0,2.3,0.2,3.2,0.7c1,0.5,1.7,1.2,2.4,2c0.6,0.9,1.1,1.9,1.5,3C257.5,13.6,257.7,14.8,257.7,16.1z M253.1,14
			c0-0.4-0.1-0.8-0.3-1.2c-0.1-0.4-0.3-0.7-0.6-1c-0.3-0.3-0.6-0.6-1-0.7c-0.4-0.2-0.9-0.3-1.4-0.3c-0.9,0-1.6,0.3-2.1,0.9
			c-0.5,0.6-0.8,1.4-0.9,2.3H253.1z"/>
		<path id="XMLID_45_" class="st0" d="M278.9,4.2c-0.3-0.1-0.5-0.1-0.9-0.1c-0.7,0-1.2,0.1-1.4,0.3c-0.2,0.2-0.3,0.6-0.3,1.1V7h3.1
			v4.5h-3.1v13.6h-4.7V11.5h-2.2V7h2.2V4.8c0-1.7,0.4-2.9,1.3-3.6c0.9-0.7,2.2-1.1,3.8-1.1c1.2,0,2.2,0.2,3,0.5v3.8
			C279.4,4.3,279.1,4.2,278.9,4.2z"/>
		<path id="XMLID_42_" class="st0" d="M297.8,16.1c0,1.4-0.2,2.6-0.6,3.8c-0.4,1.2-1,2.1-1.7,3s-1.6,1.5-2.6,1.9
			c-1,0.5-2.1,0.7-3.3,0.7s-2.3-0.2-3.2-0.7c-1-0.5-1.9-1.1-2.6-1.9s-1.3-1.8-1.7-3c-0.4-1.2-0.6-2.4-0.6-3.8c0-1.4,0.2-2.6,0.6-3.8
			c0.4-1.2,1-2.2,1.7-3c0.7-0.8,1.6-1.5,2.6-1.9c1-0.5,2.1-0.7,3.2-0.7s2.3,0.2,3.3,0.7c1,0.5,1.9,1.1,2.6,1.9
			c0.7,0.8,1.3,1.8,1.7,3C297.6,13.4,297.8,14.7,297.8,16.1z M293,16.1c0-1.4-0.3-2.5-0.8-3.5c-0.5-0.9-1.4-1.4-2.5-1.4
			c-1.1,0-2,0.5-2.5,1.4c-0.5,0.9-0.8,2.1-0.8,3.5c0,1.4,0.3,2.6,0.8,3.5c0.5,0.9,1.4,1.4,2.5,1.4c0.6,0,1.1-0.1,1.5-0.4
			c0.4-0.3,0.8-0.6,1-1.1c0.3-0.5,0.5-1,0.6-1.6S293,16.7,293,16.1z"/>
		<path id="XMLID_40_" class="st0" d="M311.5,12.6c-0.4-0.3-0.8-0.6-1.3-0.8c-0.5-0.2-1-0.3-1.5-0.3c-0.5,0-0.9,0.1-1.3,0.2
			c-0.4,0.1-0.7,0.3-1,0.6c-0.3,0.3-0.5,0.7-0.6,1.2c-0.1,0.5-0.2,1.1-0.2,1.9v9.8h-4.7V7h4.7v1.2c0.4-0.4,0.9-0.8,1.5-1.1
			c0.6-0.3,1.3-0.5,2.2-0.5c0.8,0,1.5,0.1,2,0.4s1,0.6,1.3,0.9L311.5,12.6z"/>
		<path id="XMLID_37_" class="st0" d="M344,8.6c0,1.4-0.2,2.6-0.7,3.6s-1,1.8-1.8,2.5s-1.7,1.1-2.8,1.4c-1.1,0.3-2.2,0.4-3.5,0.4
			H330v8.5h-4.8V1h10.5c1.1,0,2.2,0.2,3.2,0.5s1.9,0.8,2.6,1.4c0.8,0.6,1.4,1.4,1.8,2.4C343.8,6.2,344,7.3,344,8.6z M339.1,8.7
			c0-1.1-0.3-1.8-0.9-2.3c-0.6-0.5-1.5-0.7-2.6-0.7H330v6.2h5.6C337.9,11.9,339.1,10.8,339.1,8.7z"/>
		<path id="XMLID_34_" class="st0" d="M357.2,25.1v-1.2c-0.4,0.5-1,0.8-1.7,1.1c-0.7,0.3-1.5,0.4-2.3,0.4c-0.8,0-1.7-0.1-2.5-0.4
			c-0.8-0.3-1.5-0.7-2.1-1.2c-0.6-0.5-1.1-1.2-1.5-2c-0.4-0.8-0.6-1.8-0.6-2.9c0-1,0.2-1.9,0.6-2.6c0.4-0.8,0.9-1.4,1.6-1.9
			c0.7-0.5,1.4-0.9,2.3-1.1c0.9-0.3,1.8-0.4,2.9-0.4c0.8,0,1.5,0.1,2.1,0.2c0.5,0.1,1,0.3,1.4,0.5v-0.9c0-0.6-0.2-1.2-0.6-1.6
			c-0.4-0.4-1.1-0.7-1.9-0.7c-0.6,0-1,0-1.5,0.1c-0.4,0-0.8,0.1-1.2,0.2c-0.4,0.1-0.8,0.2-1.1,0.4c-0.4,0.1-0.8,0.3-1.2,0.6
			l-1.8-3.3c0.5-0.3,1-0.6,1.5-0.8c0.5-0.2,1-0.4,1.5-0.6c0.5-0.1,1.1-0.3,1.7-0.3c0.6-0.1,1.3-0.1,2-0.1c1.1,0,2.1,0.1,3,0.4
			c0.9,0.3,1.7,0.7,2.3,1.2s1.1,1.2,1.5,2c0.4,0.8,0.5,1.7,0.5,2.7v12.1H357.2z M357.2,17.5c-0.4-0.3-0.9-0.4-1.3-0.6
			c-0.5-0.1-1.1-0.2-2-0.2c-0.9,0-1.6,0.2-2,0.6c-0.5,0.4-0.7,1-0.7,1.7c0,0.6,0.2,1.2,0.6,1.7c0.4,0.5,1.1,0.7,2.1,0.7
			c0.8,0,1.5-0.2,2-0.5c0.6-0.3,1-0.7,1.3-1.2V17.5z"/>
		<path id="XMLID_32_" class="st0" d="M375.8,24.3c-0.4,0.3-0.9,0.6-1.6,0.8c-0.7,0.2-1.4,0.3-2.1,0.3c-0.7,0-1.4-0.1-2-0.4
			c-0.6-0.3-1.1-0.6-1.5-1.1c-0.4-0.5-0.7-1.1-1-1.7c-0.2-0.7-0.3-1.4-0.3-2.2v-8.5h-3V7h3V2.4l4.7-2.4v7h4.3v4.5h-4.3v7.3
			c0,0.9,0.1,1.5,0.4,1.7c0.3,0.3,0.7,0.4,1.3,0.4c0.4,0,0.8-0.1,1.2-0.3c0.4-0.2,0.9-0.6,1.5-1.1L375.8,24.3z"/>
		<path id="XMLID_29_" class="st0" d="M385.6,2.8c0,0.7-0.3,1.4-0.8,1.9c-0.5,0.5-1.2,0.8-1.9,0.8s-1.4-0.3-1.9-0.8
			c-0.5-0.5-0.8-1.2-0.8-1.9c0-0.7,0.3-1.4,0.8-1.9c0.5-0.5,1.2-0.8,1.9-0.8s1.4,0.3,1.9,0.8C385.4,1.5,385.6,2.1,385.6,2.8z
			 M380.6,25.1V7h4.7v18.1H380.6z"/>
		<path id="XMLID_26_" class="st0" d="M404.2,16.1c0,0.3,0,0.6,0,0.9c0,0.2,0,0.5-0.1,0.6h-10.8c0,0.6,0.2,1.1,0.4,1.6
			c0.2,0.4,0.5,0.8,0.9,1c0.3,0.3,0.7,0.5,1.2,0.6c0.4,0.1,0.9,0.2,1.3,0.2c0.7,0,1.3-0.1,1.8-0.3c0.5-0.2,1-0.5,1.3-0.9l3.4,2.8
			c-0.7,0.9-1.7,1.7-2.9,2.2s-2.4,0.8-3.6,0.8c-1.3,0-2.5-0.2-3.5-0.7c-1-0.4-1.9-1.1-2.7-1.9c-0.7-0.8-1.3-1.8-1.7-3
			c-0.4-1.2-0.6-2.4-0.6-3.9c0-1.4,0.2-2.6,0.6-3.8c0.4-1.2,1-2.2,1.7-3c0.7-0.8,1.6-1.5,2.5-1.9c1-0.5,2-0.7,3.2-0.7
			c1.2,0,2.3,0.2,3.2,0.7c1,0.5,1.7,1.2,2.4,2c0.6,0.9,1.1,1.9,1.5,3C404,13.6,404.2,14.8,404.2,16.1z M399.6,14
			c0-0.4-0.1-0.8-0.3-1.2c-0.1-0.4-0.3-0.7-0.6-1c-0.3-0.3-0.6-0.6-1-0.7c-0.4-0.2-0.9-0.3-1.4-0.3c-0.9,0-1.6,0.3-2.1,0.9
			c-0.5,0.6-0.8,1.4-0.9,2.3H399.6z"/>
		<path id="XMLID_24_" class="st0" d="M418.3,25.1v-9.8c0-1.6-0.3-2.7-0.8-3.3c-0.5-0.6-1.3-0.9-2.3-0.9c-1,0-1.7,0.3-2.3,0.9
			c-0.5,0.6-0.8,1.7-0.8,3.2v9.9h-4.7V7h4.7v1.2c0.4-0.4,1-0.8,1.7-1.1c0.7-0.3,1.6-0.5,2.5-0.5c2.3,0,4,0.7,5.1,2.2s1.6,3.5,1.6,6
			v10.2H418.3z"/>
		<path id="XMLID_22_" class="st0" d="M437,24.3c-0.4,0.3-0.9,0.6-1.6,0.8c-0.7,0.2-1.4,0.3-2.1,0.3c-0.7,0-1.4-0.1-2-0.4
			c-0.6-0.3-1.1-0.6-1.5-1.1c-0.4-0.5-0.7-1.1-1-1.7c-0.2-0.7-0.3-1.4-0.3-2.2v-8.5h-3V7h3V2.4l4.7-2.4v7h4.3v4.5h-4.3v7.3
			c0,0.9,0.1,1.5,0.4,1.7c0.3,0.3,0.7,0.4,1.3,0.4c0.4,0,0.8-0.1,1.2-0.3c0.4-0.2,0.9-0.6,1.5-1.1L437,24.3z"/>
		<path id="XMLID_20_" class="st0" d="M455.8,19.8c0,1-0.2,1.9-0.6,2.6s-0.9,1.3-1.6,1.8c-0.7,0.4-1.4,0.8-2.3,1
			c-0.9,0.2-1.8,0.3-2.9,0.3c-1.4,0-2.8-0.2-4.1-0.6c-1.3-0.4-2.5-0.9-3.4-1.5l1.6-3.6c1,0.5,2,0.9,3,1.2c1,0.3,2.1,0.4,3.3,0.4
			c0.9,0,1.6-0.1,1.9-0.3c0.3-0.2,0.5-0.6,0.5-1c0-0.4-0.2-0.7-0.6-1c-0.4-0.3-1.1-0.5-2.1-0.8c-1.1-0.3-2.1-0.6-2.9-1
			c-0.9-0.3-1.6-0.7-2.3-1.2c-0.6-0.4-1.1-1-1.4-1.6c-0.3-0.6-0.5-1.4-0.5-2.4c0-0.9,0.2-1.7,0.5-2.4c0.4-0.7,0.9-1.2,1.5-1.7
			c0.6-0.4,1.4-0.8,2.3-1c0.9-0.2,1.9-0.3,2.9-0.3c1.1,0,2.3,0.2,3.5,0.5c1.2,0.3,2.2,0.7,3.2,1.3l-1.5,3.7
			c-0.9-0.5-1.8-0.8-2.7-1.1c-0.9-0.2-1.8-0.4-2.5-0.4c-1,0-1.6,0.1-1.9,0.3c-0.3,0.2-0.5,0.5-0.5,0.9c0,0.2,0,0.4,0.1,0.5
			c0.1,0.1,0.3,0.3,0.5,0.4c0.3,0.1,0.6,0.3,1.1,0.5c0.5,0.2,1.1,0.4,1.9,0.7c0.8,0.3,1.6,0.6,2.3,0.9c0.7,0.3,1.4,0.7,1.9,1.1
			s1,1,1.3,1.6C455.6,18.1,455.8,18.9,455.8,19.8z"/>
		<path id="XMLID_18_" class="st0" d="M485.9,25.1h-4l-1.8-7.1c-0.1-0.3-0.2-0.7-0.3-1.1c-0.1-0.4-0.2-0.8-0.3-1.2
			c-0.1-0.4-0.2-0.8-0.3-1.1s-0.1-0.6-0.2-0.8c0,0.2-0.1,0.5-0.2,0.8c-0.1,0.3-0.1,0.7-0.2,1.1c-0.1,0.4-0.2,0.8-0.3,1.2
			s-0.2,0.8-0.3,1.1l-1.8,7.1h-4L467.3,7h4.8l1.6,6.7c0.1,0.3,0.1,0.7,0.2,1.1c0.1,0.4,0.2,0.8,0.3,1.2c0.1,0.4,0.1,0.7,0.2,1.1
			c0.1,0.3,0.1,0.6,0.2,0.8c0.1-0.5,0.2-1.1,0.4-1.9s0.4-1.5,0.6-2.3l1.8-6.7h3.9l1.8,6.7c0.2,0.7,0.4,1.5,0.6,2.3
			c0.2,0.8,0.3,1.4,0.4,1.9c0-0.2,0.1-0.5,0.1-0.8c0.1-0.3,0.1-0.7,0.2-1.1s0.2-0.8,0.3-1.2c0.1-0.4,0.2-0.8,0.2-1.1l1.6-6.7h4.7
			L485.9,25.1z"/>
		<path id="XMLID_15_" class="st0" d="M499,2.8c0,0.7-0.3,1.4-0.8,1.9c-0.5,0.5-1.2,0.8-1.9,0.8s-1.4-0.3-1.9-0.8
			c-0.5-0.5-0.8-1.2-0.8-1.9c0-0.7,0.3-1.4,0.8-1.9c0.5-0.5,1.2-0.8,1.9-0.8s1.4,0.3,1.9,0.8C498.7,1.5,499,2.1,499,2.8z
			 M493.9,25.1V7h4.7v18.1H493.9z"/>
		<path id="XMLID_13_" class="st0" d="M512.9,24.3c-0.4,0.3-0.9,0.6-1.6,0.8c-0.7,0.2-1.4,0.3-2.1,0.3c-0.7,0-1.4-0.1-2-0.4
			c-0.6-0.3-1.1-0.6-1.5-1.1c-0.4-0.5-0.7-1.1-1-1.7c-0.2-0.7-0.3-1.4-0.3-2.2v-8.5h-3V7h3V2.4l4.7-2.4v7h4.3v4.5h-4.3v7.3
			c0,0.9,0.1,1.5,0.4,1.7c0.3,0.3,0.7,0.4,1.3,0.4c0.4,0,0.8-0.1,1.2-0.3c0.4-0.2,0.9-0.6,1.5-1.1L512.9,24.3z"/>
		<path id="XMLID_11_" class="st0" d="M528.3,25.1v-9.8c0-1.6-0.3-2.7-0.8-3.3c-0.5-0.6-1.3-0.9-2.3-0.9c-1,0-1.7,0.3-2.3,0.9
			c-0.5,0.6-0.8,1.7-0.8,3.2v9.9h-4.7V2.4l4.7-2.4v8.2c0.4-0.4,1-0.8,1.7-1.1c0.7-0.3,1.6-0.5,2.5-0.5c2.3,0,4,0.7,5.1,2.2
			s1.6,3.5,1.6,6v10.2H528.3z"/>
		<path id="XMLID_8_" class="st0" d="M565.9,8.6c0,1.4-0.2,2.6-0.7,3.6s-1,1.8-1.8,2.5s-1.7,1.1-2.8,1.4c-1.1,0.3-2.2,0.4-3.5,0.4
			h-5.3v8.5h-4.8V1h10.5c1.1,0,2.2,0.2,3.2,0.5s1.9,0.8,2.6,1.4c0.8,0.6,1.4,1.4,1.8,2.4C565.7,6.2,565.9,7.3,565.9,8.6z M561,8.7
			c0-1.1-0.3-1.8-0.9-2.3c-0.6-0.5-1.5-0.7-2.6-0.7h-5.5v6.2h5.6C559.8,11.9,561,10.8,561,8.7z"/>
		<path id="XMLID_5_" class="st0" d="M589.5,13c0,1.8-0.2,3.5-0.7,5s-1.2,2.8-2,3.9c-0.9,1.1-2,1.9-3.3,2.5
			c-1.3,0.6-2.8,0.9-4.4,0.9s-3.1-0.3-4.4-0.9c-1.3-0.6-2.4-1.5-3.3-2.5c-0.9-1.1-1.6-2.4-2-3.9c-0.5-1.5-0.7-3.2-0.7-5
			s0.2-3.5,0.7-5c0.5-1.5,1.2-2.8,2-3.9c0.9-1.1,2-1.9,3.3-2.5s2.8-0.9,4.4-0.9s3.1,0.3,4.4,0.9s2.4,1.5,3.3,2.5
			c0.9,1.1,1.6,2.4,2,3.9C589.3,9.5,589.5,11.2,589.5,13z M584.6,13c0-1.1-0.1-2.1-0.3-3c-0.2-0.9-0.5-1.7-1-2.4
			c-0.4-0.7-1-1.2-1.7-1.6c-0.7-0.4-1.5-0.6-2.5-0.6s-1.8,0.2-2.5,0.6c-0.7,0.4-1.3,0.9-1.7,1.6c-0.4,0.7-0.8,1.5-1,2.4
			s-0.3,1.9-0.3,3c0,1.1,0.1,2.1,0.3,3s0.5,1.7,1,2.4c0.4,0.7,1,1.2,1.7,1.6c0.7,0.4,1.5,0.6,2.5,0.6s1.8-0.2,2.5-0.6
			c0.7-0.4,1.3-0.9,1.7-1.6c0.4-0.7,0.8-1.5,1-2.4C584.5,15.1,584.6,14.1,584.6,13z"/>
		<path id="XMLID_3_" class="st0" d="M611.5,17.8c0,1.1-0.2,2.2-0.5,3.1c-0.4,0.9-0.9,1.7-1.7,2.4c-0.8,0.7-1.8,1.2-2.9,1.6
			s-2.6,0.6-4.2,0.6c-2,0-3.9-0.4-5.5-1.2c-1.7-0.8-2.9-1.8-3.9-3.2l3.5-3.1c0.8,1,1.8,1.7,2.8,2.1c1,0.4,2.1,0.6,3.3,0.6
			c1.4,0,2.5-0.2,3.2-0.6s1-1.1,1-2c0-0.4-0.1-0.7-0.2-1c-0.1-0.3-0.4-0.6-0.8-0.8c-0.4-0.3-0.9-0.5-1.6-0.7
			c-0.7-0.2-1.6-0.5-2.8-0.7c-1.1-0.3-2.1-0.6-3-0.9c-0.9-0.3-1.7-0.8-2.4-1.3c-0.7-0.5-1.2-1.2-1.5-2c-0.4-0.8-0.6-1.8-0.6-3
			c0-1.1,0.2-2.1,0.7-3c0.4-0.9,1.1-1.6,1.8-2.2c0.8-0.6,1.7-1.1,2.7-1.4c1-0.3,2.2-0.5,3.4-0.5c1.9,0,3.5,0.3,4.9,1
			c1.4,0.7,2.7,1.6,3.8,2.8l-3.5,3.4c-0.8-0.8-1.6-1.4-2.5-1.8c-0.9-0.4-1.9-0.6-3-0.6c-0.6,0-1.2,0.1-1.6,0.2
			c-0.4,0.1-0.8,0.3-1.1,0.5c-0.3,0.2-0.5,0.4-0.6,0.7c-0.1,0.3-0.2,0.5-0.2,0.8c0,0.4,0.1,0.7,0.2,1c0.1,0.3,0.4,0.5,0.8,0.7
			c0.4,0.2,0.9,0.4,1.5,0.6c0.6,0.2,1.4,0.4,2.4,0.6c1,0.2,1.9,0.5,2.9,0.8s1.8,0.7,2.6,1.3c0.8,0.6,1.4,1.3,1.9,2.1
			C611.3,15.4,611.5,16.5,611.5,17.8z"/>
	</g>
</g>
</svg>
