<!-- Generator: Adobe Illustrator 22.1.0, SVG Export Plug-In  -->
<svg version="1.1"
	 xmlns="http://www.w3.org/2000/svg" xmlns:xlink="http://www.w3.org/1999/xlink" xmlns:a="http://ns.adobe.com/AdobeSVGViewerExtensions/3.0/"
	 x="0px" y="0px" width="672.2px" height="58.8px" viewBox="0 0 672.2 58.8" style="enable-background:new 0 0 672.2 58.8;"
	 xml:space="preserve">
<style type="text/css">
	.st0{fill:#522D6D;}
	.st1{fill:#236092;}
</style>
<defs>
</defs>
<g id="XMLID_4_">
	<g id="XMLID_6_">
		<path id="XMLID_129_" class="st0" d="M52,23.5L47.4,3.9h4.7l1.5,8.1c0.4,2.3,0.8,4.9,1.2,6.8h0.1c0.3-2.1,0.8-4.5,1.3-6.9l1.7-8
			h4.7l1.6,8.3c0.4,2.3,0.8,4.4,1,6.6h0.1c0.3-2.2,0.7-4.5,1.1-6.8l1.6-8h4.5l-5.1,19.6h-4.8l-1.7-8.4c-0.4-2-0.7-3.8-0.9-6.1h-0.1
			c-0.3,2.2-0.7,4.1-1.1,6.1l-1.9,8.4H52z"/>
		<path id="XMLID_126_" class="st0" d="M76.7,17.8c0.1,1.8,1.9,2.7,4,2.7c1.5,0,2.7-0.2,3.9-0.6l0.6,3c-1.5,0.6-3.2,0.9-5.2,0.9
			c-4.8,0-7.6-2.8-7.6-7.2c0-3.6,2.2-7.6,7.2-7.6c4.6,0,6.3,3.6,6.3,7.1c0,0.8-0.1,1.4-0.1,1.7H76.7z M82,14.8
			c0-1.1-0.5-2.9-2.5-2.9c-1.9,0-2.6,1.7-2.7,2.9H82z"/>
		<path id="XMLID_124_" class="st0" d="M88.7,2.9h4.4v20.7h-4.4V2.9z"/>
		<path id="XMLID_122_" class="st0" d="M96.7,2.9h4.4v20.7h-4.4V2.9z"/>
		<path id="XMLID_120_" class="st0" d="M113.4,7.7h-5.3V3.9h15.1v3.7h-5.4v15.9h-4.5V7.7z"/>
		<path id="XMLID_117_" class="st0" d="M137.1,16.3c0,5.2-3.7,7.6-7.5,7.6c-4.2,0-7.4-2.7-7.4-7.3s3-7.5,7.6-7.5
			C134.2,9,137.1,12,137.1,16.3z M126.8,16.4c0,2.4,1,4.3,2.9,4.3c1.7,0,2.8-1.7,2.8-4.3c0-2.1-0.8-4.3-2.8-4.3
			C127.6,12.1,126.8,14.3,126.8,16.4z"/>
		<path id="XMLID_115_" class="st0" d="M139.8,2.9h4.4v20.7h-4.4V2.9z"/>
		<path id="XMLID_112_" class="st0" d="M151.3,17.8c0.1,1.8,1.9,2.7,4,2.7c1.5,0,2.7-0.2,3.9-0.6l0.6,3c-1.5,0.6-3.2,0.9-5.2,0.9
			c-4.8,0-7.6-2.8-7.6-7.2c0-3.6,2.2-7.6,7.2-7.6c4.6,0,6.3,3.6,6.3,7.1c0,0.8-0.1,1.4-0.1,1.7H151.3z M156.5,14.8
			c0-1.1-0.5-2.9-2.5-2.9c-1.9,0-2.6,1.7-2.7,2.9H156.5z"/>
		<path id="XMLID_110_" class="st0" d="M163.2,14c0-2.1-0.1-3.5-0.1-4.7h3.8l0.1,2.6h0.1c0.7-2.1,2.5-2.9,3.8-2.9
			c0.4,0,0.6,0,0.9,0.1v4.2c-0.3-0.1-0.7-0.1-1.2-0.1c-1.6,0-2.7,0.9-3,2.2c-0.1,0.3-0.1,0.6-0.1,1v7.2h-4.4V14z"/>
		<path id="XMLID_107_" class="st0" d="M182.1,23.5l-0.3-1.4h-0.1c-0.9,1.1-2.4,1.7-4.1,1.7c-2.9,0-4.6-2.1-4.6-4.4
			c0-3.7,3.3-5.5,8.4-5.4v-0.2c0-0.8-0.4-1.8-2.6-1.8c-1.5,0-3,0.5-3.9,1.1l-0.8-2.9c1-0.6,2.9-1.3,5.5-1.3c4.7,0,6.3,2.8,6.3,6.1
			v4.9c0,1.4,0.1,2.7,0.2,3.5H182.1z M181.5,16.8c-2.3,0-4.1,0.5-4.1,2.2c0,1.1,0.8,1.7,1.7,1.7c1.1,0,2-0.7,2.3-1.6
			c0.1-0.2,0.1-0.5,0.1-0.8V16.8z"/>
		<path id="XMLID_105_" class="st0" d="M194,5.2v4.1h3.2v3.3H194v5.2c0,1.7,0.4,2.5,1.7,2.5c0.6,0,1-0.1,1.3-0.1l0,3.3
			c-0.6,0.2-1.6,0.4-2.9,0.4c-1.4,0-2.6-0.5-3.3-1.2c-0.8-0.8-1.2-2.2-1.2-4.2v-5.8h-1.9V9.3h1.9V6.2L194,5.2z"/>
		<path id="XMLID_102_" class="st0" d="M203,17.8c0.1,1.8,1.9,2.7,4,2.7c1.5,0,2.7-0.2,3.9-0.6l0.6,3c-1.5,0.6-3.2,0.9-5.2,0.9
			c-4.8,0-7.6-2.8-7.6-7.2c0-3.6,2.2-7.6,7.2-7.6c4.6,0,6.3,3.6,6.3,7.1c0,0.8-0.1,1.4-0.1,1.7H203z M208.2,14.8
			c0-1.1-0.5-2.9-2.5-2.9c-1.9,0-2.6,1.7-2.7,2.9H208.2z"/>
		<path id="XMLID_99_" class="st0" d="M228.8,2.9v16.4c0,1.6,0.1,3.3,0.1,4.2H225l-0.2-2.1h-0.1c-0.9,1.6-2.6,2.4-4.5,2.4
			c-3.4,0-6.1-2.9-6.1-7.3c0-4.8,3-7.6,6.4-7.6c1.7,0,3.1,0.6,3.8,1.6h0.1V2.9H228.8z M224.4,15.3c0-0.2,0-0.6-0.1-0.8
			c-0.3-1.2-1.2-2.2-2.6-2.2c-2,0-3.1,1.8-3.1,4c0,2.4,1.2,3.9,3,3.9c1.3,0,2.3-0.9,2.6-2.1c0.1-0.3,0.1-0.6,0.1-1V15.3z"/>
		<path id="XMLID_97_" class="st0" d="M255,16c-0.1-2.4-0.2-5.2-0.2-8.1h-0.1c-0.6,2.5-1.4,5.3-2.2,7.6l-2.4,7.7h-3.5l-2.1-7.6
			c-0.6-2.3-1.3-5.1-1.8-7.7h-0.1c-0.1,2.6-0.2,5.7-0.3,8.1l-0.3,7.4h-4.1l1.3-19.6h5.9l1.9,6.5c0.6,2.3,1.2,4.7,1.7,7h0.1
			c0.6-2.3,1.2-4.9,1.9-7l2.1-6.5h5.8l1.1,19.6h-4.3L255,16z"/>
		<path id="XMLID_94_" class="st0" d="M266.3,17.8c0.1,1.8,1.9,2.7,4,2.7c1.5,0,2.7-0.2,3.9-0.6l0.6,3c-1.5,0.6-3.2,0.9-5.2,0.9
			c-4.8,0-7.6-2.8-7.6-7.2c0-3.6,2.2-7.6,7.2-7.6c4.6,0,6.3,3.6,6.3,7.1c0,0.8-0.1,1.4-0.1,1.7H266.3z M271.6,14.8
			c0-1.1-0.5-2.9-2.5-2.9c-1.9,0-2.6,1.7-2.7,2.9H271.6z"/>
		<path id="XMLID_91_" class="st0" d="M292.1,2.9v16.4c0,1.6,0.1,3.3,0.1,4.2h-3.9l-0.2-2.1H288c-0.9,1.6-2.6,2.4-4.5,2.4
			c-3.4,0-6.1-2.9-6.1-7.3c0-4.8,3-7.6,6.4-7.6c1.7,0,3.1,0.6,3.8,1.6h0.1V2.9H292.1z M287.7,15.3c0-0.2,0-0.6-0.1-0.8
			c-0.3-1.2-1.2-2.2-2.6-2.2c-2,0-3.1,1.8-3.1,4c0,2.4,1.2,3.9,3,3.9c1.3,0,2.3-0.9,2.6-2.1c0.1-0.3,0.1-0.6,0.1-1V15.3z"/>
		<path id="XMLID_88_" class="st0" d="M300.2,5.4c0,1.2-0.9,2.2-2.4,2.2c-1.4,0-2.3-1-2.3-2.2c0-1.3,0.9-2.2,2.3-2.2
			S300.2,4.1,300.2,5.4z M295.7,23.5V9.3h4.4v14.2H295.7z"/>
		<path id="XMLID_86_" class="st0" d="M314.3,23.2c-0.8,0.3-2.3,0.6-4,0.6c-4.6,0-7.5-2.8-7.5-7.3c0-4.2,2.9-7.6,8.1-7.6
			c1.2,0,2.4,0.2,3.4,0.6l-0.7,3.3c-0.5-0.2-1.3-0.4-2.5-0.4c-2.3,0-3.8,1.7-3.8,4c0,2.6,1.7,4,3.9,4c1,0,1.9-0.2,2.5-0.4
			L314.3,23.2z"/>
		<path id="XMLID_83_" class="st0" d="M325,23.5l-0.3-1.4h-0.1c-0.9,1.1-2.4,1.7-4.1,1.7c-2.9,0-4.6-2.1-4.6-4.4
			c0-3.7,3.3-5.5,8.4-5.4v-0.2c0-0.8-0.4-1.8-2.6-1.8c-1.5,0-3,0.5-3.9,1.1l-0.8-2.9c1-0.6,2.9-1.3,5.5-1.3c4.7,0,6.3,2.8,6.3,6.1
			v4.9c0,1.4,0.1,2.7,0.2,3.5H325z M324.4,16.8c-2.3,0-4.1,0.5-4.1,2.2c0,1.1,0.8,1.7,1.7,1.7c1.1,0,2-0.7,2.3-1.6
			c0.1-0.2,0.1-0.5,0.1-0.8V16.8z"/>
		<path id="XMLID_81_" class="st0" d="M337,5.2v4.1h3.2v3.3H337v5.2c0,1.7,0.4,2.5,1.7,2.5c0.6,0,1-0.1,1.3-0.1l0,3.3
			c-0.6,0.2-1.6,0.4-2.9,0.4c-1.4,0-2.6-0.5-3.3-1.2c-0.8-0.8-1.2-2.2-1.2-4.2v-5.8h-1.9V9.3h1.9V6.2L337,5.2z"/>
		<path id="XMLID_78_" class="st0" d="M347.3,5.4c0,1.2-0.9,2.2-2.4,2.2c-1.4,0-2.3-1-2.3-2.2c0-1.3,0.9-2.2,2.3-2.2
			S347.2,4.1,347.3,5.4z M342.7,23.5V9.3h4.4v14.2H342.7z"/>
		<path id="XMLID_75_" class="st0" d="M364.7,16.3c0,5.2-3.7,7.6-7.5,7.6c-4.2,0-7.4-2.7-7.4-7.3s3-7.5,7.6-7.5
			C361.8,9,364.7,12,364.7,16.3z M354.4,16.4c0,2.4,1,4.3,2.9,4.3c1.7,0,2.8-1.7,2.8-4.3c0-2.1-0.8-4.3-2.8-4.3
			C355.2,12.1,354.4,14.3,354.4,16.4z"/>
		<path id="XMLID_73_" class="st0" d="M367.5,13.9c0-1.8-0.1-3.3-0.1-4.5h3.8l0.2,2h0.1c0.6-0.9,2-2.3,4.4-2.3
			c2.9,0,5.1,1.9,5.1,6.1v8.4h-4.4v-7.9c0-1.8-0.6-3.1-2.2-3.1c-1.2,0-1.9,0.8-2.2,1.7c-0.1,0.3-0.2,0.7-0.2,1.1v8.2h-4.4V13.9z"/>
		<path id="XMLID_70_" class="st0" d="M398.5,23.5l-0.3-1.4h-0.1c-0.9,1.1-2.4,1.7-4.1,1.7c-2.9,0-4.6-2.1-4.6-4.4
			c0-3.7,3.3-5.5,8.4-5.4v-0.2c0-0.8-0.4-1.8-2.6-1.8c-1.5,0-3,0.5-3.9,1.1l-0.8-2.9c1-0.6,2.9-1.3,5.5-1.3c4.7,0,6.3,2.8,6.3,6.1
			v4.9c0,1.4,0.1,2.7,0.2,3.5H398.5z M398,16.8c-2.3,0-4.1,0.5-4.1,2.2c0,1.1,0.8,1.7,1.7,1.7c1.1,0,2-0.7,2.3-1.6
			c0.1-0.2,0.1-0.5,0.1-0.8V16.8z"/>
		<path id="XMLID_68_" class="st0" d="M405.8,13.9c0-1.8-0.1-3.3-0.1-4.5h3.8l0.2,2h0.1c0.6-0.9,2-2.3,4.4-2.3
			c2.9,0,5.1,1.9,5.1,6.1v8.4h-4.4v-7.9c0-1.8-0.6-3.1-2.2-3.1c-1.2,0-1.9,0.8-2.2,1.7c-0.1,0.3-0.2,0.7-0.2,1.1v8.2h-4.4V13.9z"/>
		<path id="XMLID_65_" class="st0" d="M436.6,2.9v16.4c0,1.6,0.1,3.3,0.1,4.2h-3.9l-0.2-2.1h-0.1c-0.9,1.6-2.6,2.4-4.5,2.4
			c-3.4,0-6.1-2.9-6.1-7.3c0-4.8,3-7.6,6.4-7.6c1.7,0,3.1,0.6,3.8,1.6h0.1V2.9H436.6z M432.2,15.3c0-0.2,0-0.6-0.1-0.8
			c-0.3-1.2-1.2-2.2-2.6-2.2c-2,0-3.1,1.8-3.1,4c0,2.4,1.2,3.9,3,3.9c1.3,0,2.3-0.9,2.6-2.1c0.1-0.3,0.1-0.6,0.1-1V15.3z"/>
		<path id="XMLID_63_" class="st0" d="M449.7,23.5l-6.3-19.6h4.9l2.4,8.3c0.7,2.3,1.3,4.6,1.7,7h0.1c0.5-2.4,1.1-4.7,1.8-6.9
			l2.5-8.4h4.7l-6.6,19.6H449.7z"/>
		<path id="XMLID_60_" class="st0" d="M465.7,17.8c0.1,1.8,1.9,2.7,4,2.7c1.5,0,2.7-0.2,3.9-0.6l0.6,3c-1.5,0.6-3.2,0.9-5.2,0.9
			c-4.8,0-7.6-2.8-7.6-7.2c0-3.6,2.2-7.6,7.2-7.6c4.6,0,6.3,3.6,6.3,7.1c0,0.8-0.1,1.4-0.1,1.7H465.7z M470.9,14.8
			c0-1.1-0.5-2.9-2.5-2.9c-1.9,0-2.6,1.7-2.7,2.9H470.9z"/>
		<path id="XMLID_58_" class="st0" d="M477.6,14c0-2.1-0.1-3.5-0.1-4.7h3.8l0.1,2.6h0.1c0.7-2.1,2.5-2.9,3.8-2.9
			c0.4,0,0.6,0,0.9,0.1v4.2c-0.3-0.1-0.7-0.1-1.2-0.1c-1.6,0-2.7,0.9-3,2.2c-0.1,0.3-0.1,0.6-0.1,1v7.2h-4.4V14z"/>
		<path id="XMLID_56_" class="st0" d="M492.5,9.3l2.1,7c0.2,0.8,0.5,1.9,0.7,2.6h0.1c0.2-0.8,0.4-1.8,0.6-2.6l1.7-7h4.7l-3.3,9.4
			c-2,5.6-3.4,7.9-5,9.3c-1.5,1.3-3.2,1.8-4.3,1.9l-0.9-3.8c0.6-0.1,1.3-0.3,1.9-0.8c0.7-0.3,1.4-1,1.8-1.8c0.1-0.2,0.2-0.4,0.2-0.6
			c0-0.1,0-0.4-0.2-0.7l-5.2-13H492.5z"/>
		<path id="XMLID_54_" class="st0" d="M510.5,3.9h4.5v15.9h7.8v3.7h-12.3V3.9z"/>
		<path id="XMLID_51_" class="st0" d="M539,16.3c0,5.2-3.7,7.6-7.5,7.6c-4.2,0-7.4-2.7-7.4-7.3s3-7.5,7.6-7.5
			C536.1,9,539,12,539,16.3z M528.7,16.4c0,2.4,1,4.3,2.9,4.3c1.7,0,2.8-1.7,2.8-4.3c0-2.1-0.8-4.3-2.8-4.3
			C529.5,12.1,528.7,14.3,528.7,16.4z"/>
		<path id="XMLID_49_" class="st0" d="M544.5,9.3l1.1,5.8c0.3,1.5,0.6,3.1,0.8,4.7h0.1c0.3-1.6,0.7-3.3,1-4.7l1.5-5.8h3.5L554,15
			c0.4,1.6,0.8,3.2,1,4.8h0.1c0.2-1.6,0.5-3.2,0.8-4.9l1.2-5.6h4.3l-4.4,14.2h-4.2l-1.3-5c-0.3-1.4-0.6-2.7-0.9-4.4h-0.1
			c-0.3,1.8-0.6,3.1-0.9,4.4l-1.4,5h-4.2L540,9.3H544.5z"/>
		<path id="XMLID_46_" class="st0" d="M574.1,18.5l-1.4,5h-4.6l6-19.6h5.8l6.1,19.6h-4.8l-1.5-5H574.1z M579.1,15.2l-1.2-4.2
			c-0.3-1.2-0.7-2.6-1-3.8h-0.1c-0.3,1.2-0.6,2.6-0.9,3.8l-1.2,4.2H579.1z"/>
		<path id="XMLID_43_" class="st0" d="M601.9,2.9v16.4c0,1.6,0.1,3.3,0.1,4.2h-3.9l-0.2-2.1h-0.1c-0.9,1.6-2.6,2.4-4.5,2.4
			c-3.4,0-6.1-2.9-6.1-7.3c0-4.8,3-7.6,6.4-7.6c1.7,0,3.1,0.6,3.8,1.6h0.1V2.9H601.9z M597.5,15.3c0-0.2,0-0.6-0.1-0.8
			c-0.3-1.2-1.2-2.2-2.6-2.2c-2,0-3.1,1.8-3.1,4c0,2.4,1.2,3.9,3,3.9c1.3,0,2.3-0.9,2.6-2.1c0.1-0.3,0.1-0.6,0.1-1V15.3z"/>
		<path id="XMLID_41_" class="st0" d="M608.7,9.3l1.9,6.6c0.3,1.2,0.6,2.3,0.8,3.5h0.1c0.2-1.2,0.5-2.2,0.8-3.5l1.8-6.6h4.7
			l-5.3,14.2h-4.4l-5.2-14.2H608.7z"/>
		<path id="XMLID_38_" class="st0" d="M623.8,17.8c0.1,1.8,1.9,2.7,4,2.7c1.5,0,2.7-0.2,3.9-0.6l0.6,3c-1.5,0.6-3.2,0.9-5.2,0.9
			c-4.8,0-7.6-2.8-7.6-7.2c0-3.6,2.2-7.6,7.2-7.6c4.6,0,6.3,3.6,6.3,7.1c0,0.8-0.1,1.4-0.1,1.7H623.8z M629.1,14.8
			c0-1.1-0.5-2.9-2.5-2.9c-1.9,0-2.6,1.7-2.7,2.9H629.1z"/>
		<path id="XMLID_36_" class="st0" d="M635.8,14c0-2.1-0.1-3.5-0.1-4.7h3.8l0.1,2.6h0.1c0.7-2.1,2.5-2.9,3.8-2.9
			c0.4,0,0.6,0,0.9,0.1v4.2c-0.3-0.1-0.7-0.1-1.2-0.1c-1.6,0-2.7,0.9-3,2.2c-0.1,0.3-0.1,0.6-0.1,1v7.2h-4.4V14z"/>
		<path id="XMLID_34_" class="st0" d="M646.8,19.7c0.8,0.5,2.5,1.1,3.8,1.1c1.3,0,1.9-0.5,1.9-1.2s-0.4-1.1-2.1-1.6
			c-2.9-1-4.1-2.6-4-4.3c0-2.6,2.3-4.7,5.8-4.7c1.7,0,3.1,0.4,4,0.8l-0.8,3.1c-0.6-0.3-1.9-0.8-3.1-0.8c-1.1,0-1.7,0.4-1.7,1.2
			c0,0.7,0.6,1,2.3,1.6c2.7,0.9,3.8,2.3,3.9,4.4c0,2.6-2.1,4.6-6.2,4.6c-1.9,0-3.5-0.4-4.6-1L646.8,19.7z"/>
		<path id="XMLID_31_" class="st0" d="M662.9,17.8c0.1,1.8,1.9,2.7,4,2.7c1.5,0,2.7-0.2,3.9-0.6l0.6,3c-1.5,0.6-3.2,0.9-5.2,0.9
			c-4.8,0-7.6-2.8-7.6-7.2c0-3.6,2.2-7.6,7.2-7.6c4.6,0,6.3,3.6,6.3,7.1c0,0.8-0.1,1.4-0.1,1.7H662.9z M668.1,14.8
			c0-1.1-0.5-2.9-2.5-2.9c-1.9,0-2.6,1.7-2.7,2.9H668.1z"/>
		<path id="XMLID_29_" class="st0" d="M60.5,50.2h-7.2v4.7h8.1v3.6H48.9V38.9H61v3.6h-7.7v4.1h7.2V50.2z"/>
		<path id="XMLID_27_" class="st0" d="M73.6,58.5v-11h-4.5v11h-4.5v-11h-1.9v-3.3h1.9V44c0-1.7,0.4-3.4,1.6-4.6c1-1,2.4-1.6,4.4-1.6
			c0.7,0,1.5,0.2,1.9,0.3l-0.6,3.3c-0.3-0.1-0.7-0.2-1.1-0.2c-1.3,0-1.7,1.1-1.7,2.5v0.5h4.6v-0.6c0-1.7,0.5-3.6,1.8-4.8
			c1.1-1,2.6-1.4,3.9-1.4c1,0,1.7,0.1,2.4,0.3l-0.2,3.4c-0.4-0.1-0.8-0.2-1.5-0.2c-1.5,0-2.1,1.1-2.1,2.5v0.7h2.9v3.3H78v11H73.6z"
			/>
		<path id="XMLID_24_" class="st0" d="M86.1,52.8c0.1,1.8,1.9,2.7,4,2.7c1.5,0,2.7-0.2,3.9-0.6l0.6,3c-1.5,0.6-3.2,0.9-5.2,0.9
			c-4.8,0-7.6-2.8-7.6-7.2c0-3.6,2.2-7.6,7.2-7.6c4.6,0,6.3,3.6,6.3,7.1c0,0.8-0.1,1.4-0.1,1.7H86.1z M91.4,49.7
			c0-1.1-0.5-2.9-2.5-2.9c-1.9,0-2.6,1.7-2.7,2.9H91.4z"/>
		<path id="XMLID_22_" class="st0" d="M108.8,58.1c-0.8,0.3-2.3,0.6-4,0.6c-4.6,0-7.5-2.8-7.5-7.3c0-4.2,2.9-7.6,8.1-7.6
			c1.2,0,2.4,0.2,3.4,0.6l-0.7,3.3c-0.5-0.2-1.3-0.4-2.5-0.4c-2.3,0-3.8,1.7-3.8,4c0,2.6,1.7,4,3.9,4c1,0,1.9-0.2,2.5-0.4
			L108.8,58.1z"/>
		<path id="XMLID_20_" class="st0" d="M116.7,40.2v4.1h3.2v3.3h-3.2v5.2c0,1.7,0.4,2.5,1.7,2.5c0.6,0,1-0.1,1.3-0.1l0,3.3
			c-0.6,0.2-1.6,0.4-2.9,0.4c-1.4,0-2.6-0.5-3.3-1.2c-0.8-0.8-1.2-2.2-1.2-4.2v-5.8h-1.9v-3.3h1.9v-3.1L116.7,40.2z"/>
		<path id="XMLID_17_" class="st0" d="M128.4,39.1c1.4-0.2,3.6-0.4,5.9-0.4c2.9,0,4.9,0.4,6.3,1.5c1.2,0.9,1.8,2.3,1.8,4.1
			c0,2.5-1.8,4.2-3.5,4.8v0.1c1.4,0.6,2.1,1.9,2.6,3.7c0.6,2.2,1.2,4.8,1.6,5.5h-4.5c-0.3-0.6-0.8-2.2-1.4-4.6
			c-0.5-2.4-1.4-3.1-3.2-3.1h-1.3v7.7h-4.4V39.1z M132.8,47.6h1.7c2.2,0,3.5-1.1,3.5-2.8c0-1.8-1.2-2.7-3.3-2.7
			c-1.1,0-1.7,0.1-2,0.1V47.6z"/>
		<path id="XMLID_14_" class="st0" d="M153.9,58.5l-0.3-1.4h-0.1c-0.9,1.1-2.4,1.7-4.1,1.7c-2.9,0-4.6-2.1-4.6-4.4
			c0-3.7,3.3-5.5,8.4-5.4v-0.2c0-0.8-0.4-1.8-2.6-1.8c-1.5,0-3,0.5-3.9,1.1l-0.8-2.9c1-0.6,2.9-1.3,5.5-1.3c4.7,0,6.3,2.8,6.3,6.1
			V55c0,1.4,0.1,2.7,0.2,3.5H153.9z M153.4,51.7c-2.3,0-4.1,0.5-4.1,2.2c0,1.1,0.8,1.7,1.7,1.7c1.1,0,2-0.7,2.3-1.6
			c0.1-0.2,0.1-0.5,0.1-0.8V51.7z"/>
		<path id="XMLID_12_" class="st0" d="M165.9,40.2v4.1h3.2v3.3h-3.2v5.2c0,1.7,0.4,2.5,1.7,2.5c0.6,0,1-0.1,1.3-0.1l0,3.3
			c-0.6,0.2-1.6,0.4-2.9,0.4c-1.4,0-2.6-0.5-3.3-1.2c-0.8-0.8-1.2-2.2-1.2-4.2v-5.8h-1.9v-3.3h1.9v-3.1L165.9,40.2z"/>
		<path id="XMLID_9_" class="st0" d="M174.9,52.8c0.1,1.8,1.9,2.7,4,2.7c1.5,0,2.7-0.2,3.9-0.6l0.6,3c-1.5,0.6-3.2,0.9-5.2,0.9
			c-4.8,0-7.6-2.8-7.6-7.2c0-3.6,2.2-7.6,7.2-7.6c4.6,0,6.3,3.6,6.3,7.1c0,0.8-0.1,1.4-0.1,1.7H174.9z M180.1,49.7
			c0-1.1-0.5-2.9-2.5-2.9c-1.9,0-2.6,1.7-2.7,2.9H180.1z"/>
		<path id="XMLID_7_" class="st0" d="M186,56.1c0-1.6,1.1-2.7,2.6-2.7c1.5,0,2.6,1.1,2.6,2.7c0,1.5-1,2.7-2.6,2.7
			C187.1,58.8,186,57.7,186,56.1z"/>
	</g>
</g>
<g id="XMLID_1_">
	<path id="XMLID_3_" class="st0" d="M3.8,12.3c0,0,3.5-7.6,16.7-7.6C33.7,4.6,41,0,41,0s-9.4,9.7-18.6,9.7
		C13.2,9.7,7.6,9.7,3.8,12.3"/>
	<path id="XMLID_2_" class="st1" d="M0,19.5c0,0,3.5-7.6,16.7-7.6c13.2,0,20.5-4.6,20.5-4.6s-9.4,9.7-18.6,9.7
		C9.4,16.9,3.8,16.9,0,19.5"/>
</g>
</svg>
