<!-- Generator: Adobe Illustrator 22.1.0, SVG Export Plug-In  -->
<svg version="1.1"
	 xmlns="http://www.w3.org/2000/svg" xmlns:xlink="http://www.w3.org/1999/xlink" xmlns:a="http://ns.adobe.com/AdobeSVGViewerExtensions/3.0/"
	 x="0px" y="0px" width="771.7px" height="67px" viewBox="0 0 771.7 67" style="enable-background:new 0 0 771.7 67;"
	 xml:space="preserve">
<style type="text/css">
	.st0{fill:#522D6D;}
	.st1{fill:url(#XMLID_548_);}
	.st2{fill:none;stroke:url(#XMLID_549_);stroke-width:1.4;stroke-miterlimit:10;}
	.st3{fill:#FFFFFF;}
	.st4{fill:url(#XMLID_550_);}
	.st5{fill:none;stroke:url(#XMLID_551_);stroke-width:1.4;stroke-miterlimit:10;}
</style>
<defs>
</defs>
<g id="XMLID_1_">
	<g id="XMLID_58_">
		<g id="XMLID_60_">
			<path id="XMLID_270_" class="st0" d="M250.4,18.8c0,1.2-0.2,2.4-0.5,3.4c-0.3,1-0.8,1.9-1.4,2.7s-1.3,1.3-2.2,1.7
				c-0.8,0.4-1.8,0.6-2.8,0.6c-1,0-1.9-0.2-2.8-0.6c-0.8-0.4-1.5-1-2.1-1.7c-0.6-0.7-1-1.6-1.4-2.7s-0.5-2.2-0.5-3.4
				s0.2-2.4,0.5-3.4c0.3-1,0.8-1.9,1.4-2.7c0.6-0.7,1.3-1.3,2.1-1.7c0.8-0.4,1.8-0.6,2.8-0.6c1,0,1.9,0.2,2.8,0.6
				c0.8,0.4,1.5,1,2.1,1.7c0.6,0.7,1,1.6,1.4,2.7C250.2,16.5,250.4,17.6,250.4,18.8z M248.6,18.9c0-1-0.1-2-0.4-2.8
				c-0.3-0.8-0.6-1.5-1.1-2.1c-0.5-0.6-1-1.1-1.6-1.4c-0.6-0.3-1.3-0.5-2-0.5c-0.7,0-1.3,0.2-1.9,0.5c-0.6,0.3-1.1,0.8-1.6,1.4
				c-0.4,0.6-0.8,1.3-1,2.1c-0.2,0.8-0.4,1.8-0.4,2.8c0,1,0.1,2,0.4,2.8c0.3,0.8,0.6,1.5,1,2.1s1,1.1,1.6,1.4c0.6,0.3,1.3,0.5,2,0.5
				c0.7,0,1.4-0.2,2-0.5c0.6-0.3,1.1-0.8,1.6-1.4s0.8-1.3,1-2.1C248.5,20.8,248.6,19.9,248.6,18.9z"/>
			<path id="XMLID_268_" class="st0" d="M261.5,27v-7.2c0-1.3-0.2-2.3-0.7-2.9c-0.5-0.6-1.2-0.9-2.2-0.9c-0.9,0-1.6,0.3-2.1,0.9
				c-0.6,0.6-0.9,1.6-0.9,2.9V27h-1.8V14.8h1.8l0,1.5c0.4-0.5,0.8-0.9,1.4-1.3c0.6-0.3,1.2-0.5,2-0.5c0.7,0,1.2,0.1,1.8,0.3
				s1,0.5,1.4,0.9c0.4,0.4,0.7,0.9,0.9,1.6c0.2,0.6,0.3,1.4,0.3,2.3V27H261.5z"/>
			<path id="XMLID_266_" class="st0" d="M274.5,17.2c-0.5-0.4-0.9-0.7-1.3-0.9c-0.4-0.2-1-0.3-1.6-0.3c-0.5,0-0.9,0.1-1.3,0.3
				c-0.4,0.2-0.8,0.5-1.1,0.9c-0.3,0.4-0.5,0.9-0.7,1.5c-0.2,0.6-0.3,1.3-0.3,2c0,1.5,0.3,2.7,0.9,3.6c0.6,0.9,1.5,1.3,2.5,1.3
				c0.6,0,1.1-0.1,1.5-0.4c0.4-0.2,0.9-0.6,1.3-1l1,1.1c-0.5,0.5-1.1,0.9-1.7,1.2s-1.4,0.4-2.2,0.4c-0.7,0-1.3-0.1-1.9-0.4
				c-0.6-0.3-1.2-0.6-1.6-1.2c-0.5-0.5-0.9-1.2-1.1-2s-0.4-1.7-0.4-2.8c0-1.1,0.2-2.1,0.5-2.9c0.3-0.8,0.7-1.5,1.2-2
				c0.5-0.5,1.1-0.9,1.7-1.2c0.6-0.2,1.3-0.4,1.9-0.4c0.8,0,1.6,0.1,2.2,0.4s1.2,0.6,1.7,1L274.5,17.2z"/>
			<path id="XMLID_263_" class="st0" d="M287.9,20.5c0,0.2,0,0.4,0,0.5c0,0.1,0,0.3-0.1,0.4h-8.1c0.1,1.3,0.4,2.4,1,3.1
				c0.6,0.8,1.4,1.1,2.4,1.1c0.7,0,1.3-0.1,1.8-0.3c0.5-0.2,1-0.5,1.6-0.9l0.8,1.3c-0.4,0.2-0.7,0.4-1,0.6c-0.3,0.2-0.7,0.3-1,0.4
				c-0.3,0.1-0.7,0.2-1.1,0.3c-0.4,0.1-0.8,0.1-1.3,0.1c-0.6,0-1.1-0.1-1.7-0.3c-0.6-0.2-1.1-0.6-1.6-1.1c-0.5-0.5-0.9-1.2-1.2-2
				c-0.3-0.8-0.5-1.8-0.5-3c0-1,0.1-1.9,0.4-2.6s0.6-1.4,1.1-2c0.5-0.5,1-1,1.6-1.3c0.6-0.3,1.3-0.4,2-0.4c0.8,0,1.5,0.1,2.1,0.4
				c0.6,0.3,1.1,0.7,1.5,1.2c0.4,0.5,0.7,1.2,0.9,1.9C287.8,18.9,287.9,19.7,287.9,20.5z M286.3,20.1c-0.1-1.2-0.4-2.2-0.9-2.9
				c-0.5-0.8-1.3-1.1-2.4-1.1c-0.9,0-1.7,0.3-2.2,1s-0.9,1.7-1,3.1H286.3z"/>
			<path id="XMLID_261_" class="st0" d="M290.4,19.3v-1.7h5.1v1.7H290.4z"/>
			<path id="XMLID_258_" class="st0" d="M306.1,27v-1.5c-0.4,0.5-0.9,0.9-1.5,1.2c-0.6,0.3-1.3,0.5-2.1,0.5c-0.6,0-1.2-0.1-1.7-0.4
				c-0.5-0.2-1-0.6-1.4-1.1c-0.4-0.5-0.7-1.1-0.9-1.9c-0.2-0.8-0.3-1.7-0.3-2.8c0-1.1,0.1-2,0.4-2.9c0.2-0.8,0.6-1.5,1-2.1
				c0.4-0.6,0.9-1,1.5-1.2c0.6-0.3,1.2-0.4,1.8-0.4c0.8,0,1.4,0.1,2,0.4c0.5,0.3,1,0.7,1.5,1.2V11l1.8-1v17H306.1z M306.1,17.9
				c-0.3-0.5-0.8-1-1.4-1.3s-1.2-0.5-1.9-0.5c-1,0-1.8,0.4-2.3,1.3c-0.5,0.9-0.7,2.1-0.7,3.8c0,1.6,0.3,2.7,0.8,3.5
				c0.5,0.8,1.3,1.2,2.3,1.2c0.7,0,1.2-0.2,1.8-0.5c0.5-0.3,1-0.8,1.5-1.3V17.9z"/>
			<path id="XMLID_255_" class="st0" d="M318.7,27v-1.5c-0.4,0.5-1,0.9-1.6,1.2c-0.6,0.3-1.4,0.5-2.3,0.5c-0.5,0-1-0.1-1.4-0.2
				c-0.5-0.1-0.9-0.3-1.3-0.7s-0.7-0.7-0.9-1.2s-0.3-1.1-0.3-1.9c0-0.7,0.1-1.3,0.4-1.8c0.3-0.5,0.6-0.9,1-1.2s0.9-0.6,1.5-0.7
				c0.6-0.1,1.2-0.2,1.8-0.2c0.6,0,1.2,0.1,1.7,0.2c0.5,0.1,1,0.3,1.3,0.5v-1.4c0-1.8-0.9-2.7-2.6-2.7c-0.7,0-1.2,0.1-1.8,0.2
				s-1,0.4-1.5,0.7l-0.7-1.4c0.5-0.3,1.2-0.5,1.9-0.7c0.7-0.2,1.4-0.3,2.2-0.3c1.3,0,2.4,0.3,3.1,0.9c0.8,0.6,1.2,1.6,1.2,3V27
				H318.7z M318.7,21.5c-0.4-0.2-0.8-0.4-1.3-0.5c-0.5-0.1-1.1-0.2-1.8-0.2c-0.9,0-1.6,0.2-2.1,0.6c-0.5,0.4-0.8,1-0.8,1.8
				c0,0.9,0.2,1.6,0.7,2c0.5,0.4,1.1,0.6,1.8,0.6c0.8,0,1.5-0.2,2.1-0.5c0.6-0.4,1.1-0.8,1.4-1.3V21.5z"/>
			<path id="XMLID_252_" class="st0" d="M326.5,11.3c0,0.3-0.1,0.6-0.4,0.9c-0.2,0.2-0.5,0.4-0.9,0.4c-0.4,0-0.7-0.1-0.9-0.4
				c-0.2-0.2-0.4-0.5-0.4-0.9c0-0.4,0.1-0.7,0.4-0.9c0.2-0.2,0.6-0.4,0.9-0.4c0.3,0,0.6,0.1,0.9,0.4S326.5,11,326.5,11.3z M324.4,27
				V14.8h1.8V27H324.4z"/>
			<path id="XMLID_250_" class="st0" d="M330.2,27V11l1.8-1v17H330.2z"/>
			<path id="XMLID_248_" class="st0" d="M339.4,31.3h-1.7l1.7-4.5L335,14.8h1.8l3,8.9l0.4,1.3l0.4-1.2l3-8.9h1.8L339.4,31.3z"/>
			<path id="XMLID_246_" class="st0" d="M354.6,27V10.7h1.8v14.7h8.1V27H354.6z"/>
			<path id="XMLID_244_" class="st0" d="M368,27V10.7h9.9v1.7h-8v5.1h4.7v1.7h-4.7v6.2h8.4V27H368z"/>
			<path id="XMLID_242_" class="st0" d="M388.4,27h-2l-5.5-16.3h1.9l3.6,11.2c0.1,0.2,0.2,0.5,0.3,0.8c0.1,0.3,0.2,0.6,0.3,0.9
				c0.1,0.3,0.2,0.6,0.3,0.9c0.1,0.3,0.1,0.5,0.2,0.6c0-0.1,0.1-0.3,0.2-0.6c0.1-0.3,0.2-0.6,0.3-0.9c0.1-0.3,0.2-0.6,0.3-0.9
				c0.1-0.3,0.2-0.6,0.3-0.8l3.7-11.1h1.9L388.4,27z"/>
			<path id="XMLID_240_" class="st0" d="M412.6,27l-2.5-4.3c-0.3-0.5-0.6-1-0.8-1.4c-0.2-0.4-0.5-0.9-0.7-1.3
				c-0.2,0.4-0.4,0.8-0.7,1.3c-0.2,0.4-0.5,0.9-0.8,1.4l-2.5,4.3h-2l5.1-8.5l-4.7-7.8h2.1l2.1,3.6c0.3,0.5,0.6,1,0.8,1.4
				c0.2,0.4,0.5,0.9,0.7,1.3c0.2-0.4,0.4-0.8,0.7-1.3c0.2-0.4,0.5-0.9,0.8-1.4l2.1-3.6h2l-4.7,7.8l5.1,8.5H412.6z"/>
			<path id="XMLID_237_" class="st0" d="M429.6,15.3c0,1.3-0.3,2.3-1,3.1c-0.7,0.8-1.6,1.3-2.8,1.5l3.6,7.1h-2.1l-3.5-6.9h-3.9V27
				h-1.8V10.7h6.5c0.7,0,1.4,0.1,2,0.3s1.2,0.5,1.6,0.9s0.8,0.9,1.1,1.4C429.5,13.8,429.6,14.5,429.6,15.3z M427.8,15.4
				c0-1-0.3-1.8-0.9-2.3c-0.6-0.5-1.4-0.8-2.5-0.8h-4.6v6.1h4.3c1.2,0,2.1-0.3,2.7-0.8C427.5,17.1,427.8,16.4,427.8,15.4z"/>
			<path id="XMLID_235_" class="st0" d="M440.5,27V14h-3v-1.1c0.9-0.1,1.7-0.2,2.3-0.5s1-0.8,1.1-1.6h1.4V27H440.5z"/>
			<path id="XMLID_232_" class="st0" d="M458,18.8c0,1.4-0.1,2.6-0.4,3.6s-0.7,1.9-1.2,2.6s-1.2,1.2-1.9,1.6
				c-0.8,0.4-1.6,0.6-2.5,0.6c-0.9,0-1.7-0.2-2.5-0.6c-0.7-0.4-1.4-0.9-1.9-1.6c-0.5-0.7-1-1.6-1.2-2.6c-0.3-1-0.4-2.3-0.4-3.6
				s0.1-2.6,0.4-3.6c0.3-1,0.7-1.9,1.2-2.6c0.5-0.7,1.2-1.2,1.9-1.6c0.7-0.4,1.6-0.6,2.5-0.6c0.9,0,1.7,0.2,2.5,0.6
				c0.8,0.4,1.4,0.9,1.9,1.6c0.5,0.7,1,1.6,1.2,2.6S458,17.5,458,18.8z M456.3,18.8c0-2.1-0.4-3.8-1.1-5s-1.8-1.8-3.2-1.8
				c-1.4,0-2.5,0.6-3.2,1.8s-1.1,2.9-1.1,5c0,2.1,0.4,3.8,1.1,5s1.8,1.8,3.2,1.8c1.4,0,2.5-0.6,3.2-1.8S456.3,21,456.3,18.8z"/>
			<path id="XMLID_229_" class="st0" d="M473,18.8c0,1.4-0.1,2.6-0.4,3.6s-0.7,1.9-1.2,2.6s-1.2,1.2-1.9,1.6
				c-0.8,0.4-1.6,0.6-2.5,0.6c-0.9,0-1.7-0.2-2.5-0.6c-0.7-0.4-1.4-0.9-1.9-1.6c-0.5-0.7-1-1.6-1.2-2.6c-0.3-1-0.4-2.3-0.4-3.6
				s0.1-2.6,0.4-3.6c0.3-1,0.7-1.9,1.2-2.6c0.5-0.7,1.2-1.2,1.9-1.6c0.7-0.4,1.6-0.6,2.5-0.6c0.9,0,1.7,0.2,2.5,0.6
				c0.8,0.4,1.4,0.9,1.9,1.6c0.5,0.7,1,1.6,1.2,2.6S473,17.5,473,18.8z M471.2,18.8c0-2.1-0.4-3.8-1.1-5s-1.8-1.8-3.2-1.8
				c-1.4,0-2.5,0.6-3.2,1.8s-1.1,2.9-1.1,5c0,2.1,0.4,3.8,1.1,5s1.8,1.8,3.2,1.8c1.4,0,2.5-0.6,3.2-1.8S471.2,21,471.2,18.8z"/>
			<path id="XMLID_226_" class="st0" d="M488,18.8c0,1.4-0.1,2.6-0.4,3.6s-0.7,1.9-1.2,2.6s-1.2,1.2-1.9,1.6
				c-0.8,0.4-1.6,0.6-2.5,0.6c-0.9,0-1.7-0.2-2.5-0.6c-0.7-0.4-1.4-0.9-1.9-1.6c-0.5-0.7-1-1.6-1.2-2.6c-0.3-1-0.4-2.3-0.4-3.6
				s0.1-2.6,0.4-3.6c0.3-1,0.7-1.9,1.2-2.6c0.5-0.7,1.2-1.2,1.9-1.6c0.7-0.4,1.6-0.6,2.5-0.6c0.9,0,1.7,0.2,2.5,0.6
				c0.8,0.4,1.4,0.9,1.9,1.6c0.5,0.7,1,1.6,1.2,2.6S488,17.5,488,18.8z M486.2,18.8c0-2.1-0.4-3.8-1.1-5s-1.8-1.8-3.2-1.8
				c-1.4,0-2.5,0.6-3.2,1.8s-1.1,2.9-1.1,5c0,2.1,0.4,3.8,1.1,5s1.8,1.8,3.2,1.8c1.4,0,2.5-0.6,3.2-1.8S486.2,21,486.2,18.8z"/>
			<path id="XMLID_224_" class="st0" d="M511.6,27v-7.2c0-1.4-0.2-2.4-0.7-3c-0.4-0.6-1.1-0.9-2-0.9c-0.8,0-1.5,0.3-2,0.9
				s-0.7,1.6-0.7,2.9V27h-1.8v-7.2c0-1.4-0.2-2.4-0.7-3c-0.4-0.6-1.1-0.9-2-0.9c-0.8,0-1.5,0.3-2,0.9s-0.7,1.6-0.7,2.9V27h-1.8V14.8
				h1.8l0,1.5c0.3-0.5,0.7-1,1.2-1.3c0.5-0.3,1.1-0.5,1.9-0.5c0.9,0,1.6,0.2,2.1,0.6s1,0.9,1.2,1.5c0.2-0.3,0.4-0.6,0.6-0.8
				c0.2-0.3,0.5-0.5,0.8-0.7c0.3-0.2,0.6-0.3,1-0.4c0.4-0.1,0.8-0.2,1.3-0.2c1.2,0,2.2,0.4,3,1.2c0.7,0.8,1.1,2.1,1.1,3.9V27H511.6z
				"/>
			<path id="XMLID_221_" class="st0" d="M526.3,25.9c0,0.9-0.1,1.7-0.3,2.4c-0.2,0.7-0.6,1.3-1.1,1.7c-0.5,0.5-1.1,0.8-1.9,1.1
				c-0.8,0.2-1.8,0.4-2.9,0.4l-0.6-1.3c1,0,1.9-0.1,2.5-0.3c0.6-0.2,1.2-0.4,1.5-0.7c0.4-0.3,0.6-0.7,0.8-1.2s0.2-1.1,0.2-1.8v-0.6
				c-0.4,0.5-0.9,0.9-1.5,1.2c-0.6,0.3-1.3,0.5-2.1,0.5c-0.6,0-1.2-0.1-1.7-0.4c-0.5-0.2-1-0.6-1.4-1.1c-0.4-0.5-0.7-1.1-0.9-1.9
				c-0.2-0.8-0.3-1.7-0.3-2.8c0-1.1,0.1-2,0.4-2.9c0.2-0.8,0.6-1.5,1-2.1c0.4-0.6,0.9-1,1.5-1.2c0.6-0.3,1.2-0.4,1.8-0.4
				c0.8,0,1.4,0.1,2,0.4c0.5,0.3,1,0.7,1.5,1.2v-1.4h1.8V25.9z M524.6,17.9c-0.3-0.5-0.8-1-1.4-1.3S522,16,521.2,16
				c-1,0-1.8,0.4-2.3,1.3c-0.5,0.9-0.7,2.1-0.7,3.8c0,1.6,0.3,2.7,0.8,3.5c0.5,0.8,1.3,1.2,2.3,1.2c0.7,0,1.2-0.2,1.8-0.5
				c0.5-0.3,1-0.8,1.5-1.3V17.9z"/>
			<path id="XMLID_218_" class="st0" d="M538.5,11.3c0,0.3-0.1,0.6-0.4,0.9c-0.2,0.2-0.5,0.4-0.9,0.4c-0.4,0-0.7-0.1-0.9-0.4
				c-0.2-0.2-0.4-0.5-0.4-0.9c0-0.4,0.1-0.7,0.4-0.9c0.2-0.2,0.6-0.4,0.9-0.4c0.3,0,0.6,0.1,0.9,0.4S538.5,11,538.5,11.3z M536.4,27
				V14.8h1.8V27H536.4z"/>
			<path id="XMLID_216_" class="st0" d="M549.7,23.8c0,0.6-0.1,1.1-0.4,1.6c-0.2,0.4-0.6,0.8-0.9,1.1c-0.4,0.3-0.8,0.5-1.3,0.6
				c-0.5,0.1-1,0.2-1.6,0.2c-0.8,0-1.6-0.1-2.3-0.4c-0.7-0.3-1.4-0.7-2-1.1l1-1.3c0.5,0.4,1,0.8,1.6,1c0.6,0.2,1.1,0.4,1.7,0.4
				c0.8,0,1.5-0.2,1.9-0.5c0.4-0.3,0.6-0.8,0.6-1.4c0-0.2-0.1-0.5-0.2-0.7c-0.1-0.2-0.3-0.4-0.5-0.6c-0.2-0.2-0.5-0.4-0.9-0.6
				c-0.4-0.2-0.8-0.4-1.4-0.6c-0.6-0.3-1.1-0.5-1.6-0.8c-0.4-0.2-0.8-0.5-1.1-0.8c-0.3-0.3-0.5-0.6-0.6-0.9
				c-0.1-0.4-0.2-0.8-0.2-1.3c0-0.5,0.1-0.9,0.3-1.3c0.2-0.4,0.5-0.7,0.8-1c0.3-0.3,0.7-0.5,1.2-0.6c0.5-0.1,1-0.2,1.5-0.2
				c0.8,0,1.6,0.1,2.2,0.4c0.7,0.2,1.2,0.6,1.7,0.9l-1,1.3c-0.5-0.4-0.9-0.6-1.4-0.8c-0.5-0.2-1-0.3-1.7-0.3c-0.7,0-1.2,0.1-1.5,0.4
				s-0.5,0.6-0.5,1.1c0,0.3,0,0.5,0.1,0.7c0.1,0.2,0.2,0.4,0.4,0.5c0.2,0.2,0.5,0.4,0.8,0.5c0.3,0.2,0.8,0.4,1.3,0.6
				c0.6,0.3,1.1,0.5,1.5,0.7c0.5,0.2,0.8,0.5,1.2,0.8c0.3,0.3,0.6,0.6,0.7,1C549.6,22.8,549.7,23.3,549.7,23.8z"/>
			<path id="XMLID_213_" class="st0" d="M568.4,20.5c0,0.2,0,0.4,0,0.5c0,0.1,0,0.3-0.1,0.4h-8.1c0.1,1.3,0.4,2.4,1,3.1
				c0.6,0.8,1.4,1.1,2.4,1.1c0.7,0,1.3-0.1,1.8-0.3c0.5-0.2,1-0.5,1.6-0.9l0.8,1.3c-0.4,0.2-0.7,0.4-1,0.6c-0.3,0.2-0.7,0.3-1,0.4
				c-0.3,0.1-0.7,0.2-1.1,0.3c-0.4,0.1-0.8,0.1-1.3,0.1c-0.6,0-1.1-0.1-1.7-0.3c-0.6-0.2-1.1-0.6-1.6-1.1c-0.5-0.5-0.9-1.2-1.2-2
				c-0.3-0.8-0.5-1.8-0.5-3c0-1,0.1-1.9,0.4-2.6s0.6-1.4,1.1-2c0.5-0.5,1-1,1.6-1.3c0.6-0.3,1.3-0.4,2-0.4c0.8,0,1.5,0.1,2.1,0.4
				c0.6,0.3,1.1,0.7,1.5,1.2c0.4,0.5,0.7,1.2,0.9,1.9C568.2,18.9,568.4,19.7,568.4,20.5z M566.7,20.1c-0.1-1.2-0.4-2.2-0.9-2.9
				c-0.5-0.8-1.3-1.1-2.4-1.1c-0.9,0-1.7,0.3-2.2,1s-0.9,1.7-1,3.1H566.7z"/>
			<path id="XMLID_211_" class="st0" d="M575.5,11.7c-0.4,0-0.7,0.1-0.9,0.3c-0.2,0.2-0.4,0.5-0.4,1v1.8h2.4v1.5h-2.4V27h-1.8V16.3
				h-1.7v-1.5h1.7v-1.7c0-1.1,0.3-1.9,0.8-2.3c0.5-0.5,1.2-0.7,2.1-0.7c0.4,0,0.6,0,0.9,0c0.2,0,0.4,0.1,0.7,0.2v1.7
				C576.5,11.8,576.1,11.7,575.5,11.7z"/>
			<path id="XMLID_209_" class="st0" d="M583.8,11.7c-0.4,0-0.7,0.1-0.9,0.3c-0.2,0.2-0.4,0.5-0.4,1v1.8h2.4v1.5h-2.4V27h-1.8V16.3
				h-1.7v-1.5h1.7v-1.7c0-1.1,0.3-1.9,0.8-2.3c0.5-0.5,1.2-0.7,2.1-0.7c0.4,0,0.6,0,0.9,0c0.2,0,0.4,0.1,0.7,0.2v1.7
				C584.8,11.8,584.4,11.7,583.8,11.7z"/>
			<path id="XMLID_206_" class="st0" d="M597.5,20.5c0,0.2,0,0.4,0,0.5c0,0.1,0,0.3-0.1,0.4h-8.1c0.1,1.3,0.4,2.4,1,3.1
				c0.6,0.8,1.4,1.1,2.4,1.1c0.7,0,1.3-0.1,1.8-0.3c0.5-0.2,1-0.5,1.6-0.9l0.8,1.3c-0.4,0.2-0.7,0.4-1,0.6c-0.3,0.2-0.7,0.3-1,0.4
				c-0.3,0.1-0.7,0.2-1.1,0.3c-0.4,0.1-0.8,0.1-1.3,0.1c-0.6,0-1.1-0.1-1.7-0.3c-0.6-0.2-1.1-0.6-1.6-1.1c-0.5-0.5-0.9-1.2-1.2-2
				c-0.3-0.8-0.5-1.8-0.5-3c0-1,0.1-1.9,0.4-2.6s0.6-1.4,1.1-2c0.5-0.5,1-1,1.6-1.3c0.6-0.3,1.3-0.4,2-0.4c0.8,0,1.5,0.1,2.1,0.4
				c0.6,0.3,1.1,0.7,1.5,1.2c0.4,0.5,0.7,1.2,0.9,1.9C597.4,18.9,597.5,19.7,597.5,20.5z M595.9,20.1c-0.1-1.2-0.4-2.2-0.9-2.9
				c-0.5-0.8-1.3-1.1-2.4-1.1c-0.9,0-1.7,0.3-2.2,1s-0.9,1.7-1,3.1H595.9z"/>
			<path id="XMLID_204_" class="st0" d="M608.3,17.2c-0.5-0.4-0.9-0.7-1.3-0.9c-0.4-0.2-1-0.3-1.6-0.3c-0.5,0-0.9,0.1-1.3,0.3
				c-0.4,0.2-0.8,0.5-1.1,0.9c-0.3,0.4-0.5,0.9-0.7,1.5c-0.2,0.6-0.3,1.3-0.3,2c0,1.5,0.3,2.7,0.9,3.6c0.6,0.9,1.5,1.3,2.5,1.3
				c0.6,0,1.1-0.1,1.5-0.4c0.4-0.2,0.9-0.6,1.3-1l1,1.1c-0.5,0.5-1.1,0.9-1.7,1.2s-1.4,0.4-2.2,0.4c-0.7,0-1.3-0.1-1.9-0.4
				c-0.6-0.3-1.2-0.6-1.6-1.2c-0.5-0.5-0.9-1.2-1.1-2s-0.4-1.7-0.4-2.8c0-1.1,0.2-2.1,0.5-2.9c0.3-0.8,0.7-1.5,1.2-2
				c0.5-0.5,1.1-0.9,1.7-1.2c0.6-0.2,1.3-0.4,1.9-0.4c0.8,0,1.6,0.1,2.2,0.4s1.2,0.6,1.7,1L608.3,17.2z"/>
			<path id="XMLID_202_" class="st0" d="M614.6,16.3v8c0,0.5,0.1,0.9,0.3,1.1c0.2,0.2,0.5,0.3,1,0.3c0.4,0,0.7,0,0.9-0.1
				c0.3-0.1,0.5-0.1,0.8-0.3l-0.1,1.5c-0.3,0.1-0.7,0.2-1,0.3c-0.3,0.1-0.8,0.1-1.2,0.1c-0.8,0-1.4-0.2-1.8-0.6
				c-0.4-0.4-0.6-1.1-0.6-2.2v-8.2h-1.5v-1.5h1.5V11l1.8-1v4.8h3v1.5H614.6z"/>
			<path id="XMLID_199_" class="st0" d="M623.3,11.3c0,0.3-0.1,0.6-0.4,0.9c-0.2,0.2-0.5,0.4-0.9,0.4c-0.4,0-0.7-0.1-0.9-0.4
				c-0.2-0.2-0.4-0.5-0.4-0.9c0-0.4,0.1-0.7,0.4-0.9c0.2-0.2,0.6-0.4,0.9-0.4c0.3,0,0.6,0.1,0.9,0.4S623.3,11,623.3,11.3z M621.2,27
				V14.8h1.8V27H621.2z"/>
			<path id="XMLID_197_" class="st0" d="M631.8,27h-1.5l-4.4-12.2h1.9l3.1,9.6l0.2,0.6l0.2-0.6l3.1-9.6h1.8L631.8,27z"/>
			<path id="XMLID_194_" class="st0" d="M648.4,20.5c0,0.2,0,0.4,0,0.5c0,0.1,0,0.3-0.1,0.4h-8.1c0.1,1.3,0.4,2.4,1,3.1
				c0.6,0.8,1.4,1.1,2.4,1.1c0.7,0,1.3-0.1,1.8-0.3c0.5-0.2,1-0.5,1.6-0.9l0.8,1.3c-0.4,0.2-0.7,0.4-1,0.6c-0.3,0.2-0.7,0.3-1,0.4
				c-0.3,0.1-0.7,0.2-1.1,0.3c-0.4,0.1-0.8,0.1-1.3,0.1c-0.6,0-1.1-0.1-1.7-0.3c-0.6-0.2-1.1-0.6-1.6-1.1c-0.5-0.5-0.9-1.2-1.2-2
				c-0.3-0.8-0.5-1.8-0.5-3c0-1,0.1-1.9,0.4-2.6s0.6-1.4,1.1-2c0.5-0.5,1-1,1.6-1.3c0.6-0.3,1.3-0.4,2-0.4c0.8,0,1.5,0.1,2.1,0.4
				c0.6,0.3,1.1,0.7,1.5,1.2c0.4,0.5,0.7,1.2,0.9,1.9C648.3,18.9,648.4,19.7,648.4,20.5z M646.8,20.1c-0.1-1.2-0.4-2.2-0.9-2.9
				c-0.5-0.8-1.3-1.1-2.4-1.1c-0.9,0-1.7,0.3-2.2,1s-0.9,1.7-1,3.1H646.8z"/>
			<path id="XMLID_191_" class="st0" d="M664.8,27v-1.5c-0.4,0.5-1,0.9-1.6,1.2c-0.6,0.3-1.4,0.5-2.3,0.5c-0.5,0-1-0.1-1.4-0.2
				c-0.5-0.1-0.9-0.3-1.3-0.7s-0.7-0.7-0.9-1.2s-0.3-1.1-0.3-1.9c0-0.7,0.1-1.3,0.4-1.8c0.3-0.5,0.6-0.9,1-1.2s0.9-0.6,1.5-0.7
				c0.6-0.1,1.2-0.2,1.8-0.2c0.6,0,1.2,0.1,1.7,0.2c0.5,0.1,1,0.3,1.3,0.5v-1.4c0-1.8-0.9-2.7-2.6-2.7c-0.7,0-1.2,0.1-1.8,0.2
				s-1,0.4-1.5,0.7l-0.7-1.4c0.5-0.3,1.2-0.5,1.9-0.7c0.7-0.2,1.4-0.3,2.2-0.3c1.3,0,2.4,0.3,3.1,0.9c0.8,0.6,1.2,1.6,1.2,3V27
				H664.8z M664.8,21.5c-0.4-0.2-0.8-0.4-1.3-0.5c-0.5-0.1-1.1-0.2-1.8-0.2c-0.9,0-1.6,0.2-2.1,0.6c-0.5,0.4-0.8,1-0.8,1.8
				c0,0.9,0.2,1.6,0.7,2c0.5,0.4,1.1,0.6,1.8,0.6c0.8,0,1.5-0.2,2.1-0.5c0.6-0.4,1.1-0.8,1.4-1.3V21.5z"/>
			<path id="XMLID_189_" class="st0" d="M678,27v-7.2c0-1.3-0.2-2.3-0.7-2.9c-0.5-0.6-1.2-0.9-2.2-0.9c-0.9,0-1.6,0.3-2.1,0.9
				c-0.6,0.6-0.9,1.6-0.9,2.9V27h-1.8V14.8h1.8l0,1.5c0.4-0.5,0.8-0.9,1.4-1.3c0.6-0.3,1.2-0.5,2-0.5c0.7,0,1.2,0.1,1.8,0.3
				s1,0.5,1.4,0.9c0.4,0.4,0.7,0.9,0.9,1.6c0.2,0.6,0.3,1.4,0.3,2.3V27H678z"/>
			<path id="XMLID_186_" class="st0" d="M690.9,27v-1.5c-0.4,0.5-0.9,0.9-1.5,1.2c-0.6,0.3-1.3,0.5-2.1,0.5c-0.6,0-1.2-0.1-1.7-0.4
				c-0.5-0.2-1-0.6-1.4-1.1c-0.4-0.5-0.7-1.1-0.9-1.9c-0.2-0.8-0.3-1.7-0.3-2.8c0-1.1,0.1-2,0.4-2.9c0.2-0.8,0.6-1.5,1-2.1
				c0.4-0.6,0.9-1,1.5-1.2c0.6-0.3,1.2-0.4,1.8-0.4c0.8,0,1.4,0.1,2,0.4c0.5,0.3,1,0.7,1.5,1.2V11l1.8-1v17H690.9z M690.9,17.9
				c-0.3-0.5-0.8-1-1.4-1.3s-1.2-0.5-1.9-0.5c-1,0-1.8,0.4-2.3,1.3c-0.5,0.9-0.7,2.1-0.7,3.8c0,1.6,0.3,2.7,0.8,3.5
				c0.5,0.8,1.3,1.2,2.3,1.2c0.7,0,1.2-0.2,1.8-0.5c0.5-0.3,1-0.8,1.5-1.3V17.9z"/>
			<path id="XMLID_184_" class="st0" d="M179.9,55h-1.6l-2.2-8.2c0-0.1-0.1-0.2-0.1-0.4c0-0.1-0.1-0.3-0.1-0.5
				c0-0.2-0.1-0.3-0.1-0.5c0-0.2-0.1-0.3-0.1-0.4c0,0.1,0,0.2-0.1,0.4c0,0.2-0.1,0.3-0.1,0.5c0,0.2-0.1,0.3-0.1,0.5
				c0,0.1-0.1,0.3-0.1,0.4l-2.2,8.2h-1.6l-3.2-12.2h1.8l1.9,8.1c0,0.1,0,0.2,0.1,0.4c0,0.1,0.1,0.3,0.1,0.5s0.1,0.3,0.1,0.5
				c0,0.2,0,0.3,0.1,0.4c0-0.1,0-0.2,0.1-0.4c0-0.2,0.1-0.3,0.1-0.5s0.1-0.3,0.1-0.5c0-0.1,0.1-0.3,0.1-0.4l2.2-8.1h1.6l2.2,8.1
				c0,0.1,0.1,0.2,0.1,0.4c0,0.1,0.1,0.3,0.1,0.5c0,0.2,0.1,0.3,0.1,0.5c0,0.2,0.1,0.3,0.1,0.4c0-0.1,0-0.2,0.1-0.4
				c0-0.2,0.1-0.3,0.1-0.5c0-0.2,0.1-0.3,0.1-0.5c0-0.1,0.1-0.3,0.1-0.4l1.9-8.1h1.7L179.9,55z"/>
			<path id="XMLID_181_" class="st0" d="M195.4,48.5c0,0.2,0,0.4,0,0.5c0,0.1,0,0.3-0.1,0.4h-8.1c0.1,1.3,0.4,2.4,1,3.1
				c0.6,0.8,1.4,1.1,2.4,1.1c0.7,0,1.3-0.1,1.8-0.3c0.5-0.2,1-0.5,1.6-0.9l0.8,1.3c-0.4,0.2-0.7,0.4-1,0.6c-0.3,0.2-0.7,0.3-1,0.4
				c-0.3,0.1-0.7,0.2-1.1,0.3c-0.4,0.1-0.8,0.1-1.3,0.1c-0.6,0-1.1-0.1-1.7-0.3c-0.6-0.2-1.1-0.6-1.6-1.1c-0.5-0.5-0.9-1.2-1.2-2
				c-0.3-0.8-0.5-1.8-0.5-3c0-1,0.1-1.9,0.4-2.6s0.6-1.4,1.1-2c0.5-0.5,1-1,1.6-1.3c0.6-0.3,1.3-0.4,2-0.4c0.8,0,1.5,0.1,2.1,0.4
				c0.6,0.3,1.1,0.7,1.5,1.2c0.4,0.5,0.7,1.2,0.9,1.9C195.3,46.8,195.4,47.6,195.4,48.5z M193.8,48c-0.1-1.2-0.4-2.2-0.9-2.9
				c-0.5-0.8-1.3-1.1-2.4-1.1c-0.9,0-1.7,0.3-2.2,1s-0.9,1.7-1,3.1H193.8z"/>
			<path id="XMLID_179_" class="st0" d="M198.9,55V39l1.8-1v17H198.9z"/>
			<path id="XMLID_177_" class="st0" d="M204.7,55V39l1.8-1v17H204.7z"/>
			<path id="XMLID_175_" class="st0" d="M209.7,47.3v-1.7h5.1v1.7H209.7z"/>
			<path id="XMLID_173_" class="st0" d="M220.2,44.2v8c0,0.5,0.1,0.9,0.3,1.1c0.2,0.2,0.5,0.3,1,0.3c0.4,0,0.7,0,0.9-0.1
				c0.3-0.1,0.5-0.1,0.8-0.3l-0.1,1.5c-0.3,0.1-0.7,0.2-1,0.3c-0.3,0.1-0.8,0.1-1.2,0.1c-0.8,0-1.4-0.2-1.8-0.6
				c-0.4-0.4-0.6-1.1-0.6-2.2v-8.2h-1.5v-1.5h1.5V39l1.8-1v4.8h3v1.5H220.2z"/>
			<path id="XMLID_170_" class="st0" d="M236.6,48.8c0,1-0.1,2-0.4,2.8c-0.3,0.8-0.7,1.5-1.1,2s-1.1,1-1.7,1.2s-1.4,0.4-2.1,0.4
				s-1.4-0.1-2.1-0.4c-0.6-0.3-1.2-0.7-1.7-1.2c-0.5-0.5-0.8-1.2-1.1-2c-0.3-0.8-0.4-1.7-0.4-2.8s0.1-2,0.4-2.8s0.7-1.5,1.1-2
				c0.5-0.5,1.1-0.9,1.7-1.2c0.7-0.3,1.4-0.4,2.1-0.4c0.7,0,1.4,0.1,2.1,0.4c0.6,0.3,1.2,0.7,1.7,1.2c0.5,0.5,0.8,1.2,1.1,2
				C236.5,46.8,236.6,47.7,236.6,48.8z M234.9,48.8c0-1.6-0.3-2.8-1-3.6c-0.7-0.8-1.5-1.2-2.6-1.2s-1.9,0.4-2.6,1.2s-1,2-1,3.6
				c0,1.6,0.3,2.9,1,3.7c0.6,0.8,1.5,1.2,2.6,1.2s1.9-0.4,2.6-1.2C234.5,51.7,234.9,50.5,234.9,48.8z"/>
			<path id="XMLID_168_" class="st0" d="M239.9,55V39l1.8-1v17H239.9z"/>
			<path id="XMLID_165_" class="st0" d="M255,48.5c0,0.2,0,0.4,0,0.5c0,0.1,0,0.3-0.1,0.4h-8.1c0.1,1.3,0.4,2.4,1,3.1
				c0.6,0.8,1.4,1.1,2.4,1.1c0.7,0,1.3-0.1,1.8-0.3c0.5-0.2,1-0.5,1.6-0.9l0.8,1.3c-0.4,0.2-0.7,0.4-1,0.6c-0.3,0.2-0.7,0.3-1,0.4
				c-0.3,0.1-0.7,0.2-1.1,0.3c-0.4,0.1-0.8,0.1-1.3,0.1c-0.6,0-1.1-0.1-1.7-0.3c-0.6-0.2-1.1-0.6-1.6-1.1c-0.5-0.5-0.9-1.2-1.2-2
				c-0.3-0.8-0.5-1.8-0.5-3c0-1,0.1-1.9,0.4-2.6s0.6-1.4,1.1-2c0.5-0.5,1-1,1.6-1.3c0.6-0.3,1.3-0.4,2-0.4c0.8,0,1.5,0.1,2.1,0.4
				c0.6,0.3,1.1,0.7,1.5,1.2c0.4,0.5,0.7,1.2,0.9,1.9C254.9,46.8,255,47.6,255,48.5z M253.4,48c-0.1-1.2-0.4-2.2-0.9-2.9
				c-0.5-0.8-1.3-1.1-2.4-1.1c-0.9,0-1.7,0.3-2.2,1s-0.9,1.7-1,3.1H253.4z"/>
			<path id="XMLID_163_" class="st0" d="M264.5,44.6c-0.2-0.1-0.5-0.3-0.8-0.3c-0.3-0.1-0.6-0.1-1-0.1c-0.9,0-1.5,0.3-2,1
				c-0.5,0.7-0.7,1.6-0.7,2.7V55h-1.8V42.8h1.8v1.5c0.3-0.5,0.7-0.9,1.2-1.3c0.5-0.3,1.1-0.5,1.8-0.5c0.5,0,0.8,0,1.1,0.1
				c0.3,0.1,0.6,0.1,0.8,0.2L264.5,44.6z"/>
			<path id="XMLID_160_" class="st0" d="M274.8,55v-1.5c-0.4,0.5-1,0.9-1.6,1.2c-0.6,0.3-1.4,0.5-2.3,0.5c-0.5,0-1-0.1-1.4-0.2
				c-0.5-0.1-0.9-0.3-1.3-0.7s-0.7-0.7-0.9-1.2s-0.3-1.1-0.3-1.9c0-0.7,0.1-1.3,0.4-1.8c0.3-0.5,0.6-0.9,1-1.2s0.9-0.6,1.5-0.7
				c0.6-0.1,1.2-0.2,1.8-0.2c0.6,0,1.2,0.1,1.7,0.2c0.5,0.1,1,0.3,1.3,0.5v-1.4c0-1.8-0.9-2.7-2.6-2.7c-0.7,0-1.2,0.1-1.8,0.2
				s-1,0.4-1.5,0.7l-0.7-1.4c0.5-0.3,1.2-0.5,1.9-0.7c0.7-0.2,1.4-0.3,2.2-0.3c1.3,0,2.4,0.3,3.1,0.9c0.8,0.6,1.2,1.6,1.2,3V55
				H274.8z M274.8,49.5c-0.4-0.2-0.8-0.4-1.3-0.5c-0.5-0.1-1.1-0.2-1.8-0.2c-0.9,0-1.6,0.2-2.1,0.6c-0.5,0.4-0.8,1-0.8,1.8
				c0,0.9,0.2,1.6,0.7,2c0.5,0.4,1.1,0.6,1.8,0.6c0.8,0,1.5-0.2,2.1-0.5c0.6-0.4,1.1-0.8,1.4-1.3V49.5z"/>
			<path id="XMLID_158_" class="st0" d="M282.6,44.2v8c0,0.5,0.1,0.9,0.3,1.1c0.2,0.2,0.5,0.3,1,0.3c0.4,0,0.7,0,0.9-0.1
				c0.3-0.1,0.5-0.1,0.8-0.3l-0.1,1.5c-0.3,0.1-0.7,0.2-1,0.3c-0.3,0.1-0.8,0.1-1.2,0.1c-0.8,0-1.4-0.2-1.8-0.6
				c-0.4-0.4-0.6-1.1-0.6-2.2v-8.2h-1.5v-1.5h1.5V39l1.8-1v4.8h3v1.5H282.6z"/>
			<path id="XMLID_155_" class="st0" d="M298.3,48.5c0,0.2,0,0.4,0,0.5c0,0.1,0,0.3-0.1,0.4h-8.1c0.1,1.3,0.4,2.4,1,3.1
				c0.6,0.8,1.4,1.1,2.4,1.1c0.7,0,1.3-0.1,1.8-0.3c0.5-0.2,1-0.5,1.6-0.9l0.8,1.3c-0.4,0.2-0.7,0.4-1,0.6c-0.3,0.2-0.7,0.3-1,0.4
				c-0.3,0.1-0.7,0.2-1.1,0.3c-0.4,0.1-0.8,0.1-1.3,0.1c-0.6,0-1.1-0.1-1.7-0.3c-0.6-0.2-1.1-0.6-1.6-1.1c-0.5-0.5-0.9-1.2-1.2-2
				c-0.3-0.8-0.5-1.8-0.5-3c0-1,0.1-1.9,0.4-2.6s0.6-1.4,1.1-2c0.5-0.5,1-1,1.6-1.3c0.6-0.3,1.3-0.4,2-0.4c0.8,0,1.5,0.1,2.1,0.4
				c0.6,0.3,1.1,0.7,1.5,1.2c0.4,0.5,0.7,1.2,0.9,1.9C298.2,46.8,298.3,47.6,298.3,48.5z M296.7,48c-0.1-1.2-0.4-2.2-0.9-2.9
				c-0.5-0.8-1.3-1.1-2.4-1.1c-0.9,0-1.7,0.3-2.2,1s-0.9,1.7-1,3.1H296.7z"/>
			<path id="XMLID_152_" class="st0" d="M309,55v-1.5c-0.4,0.5-0.9,0.9-1.5,1.2c-0.6,0.3-1.3,0.5-2.1,0.5c-0.6,0-1.2-0.1-1.7-0.4
				c-0.5-0.2-1-0.6-1.4-1.1c-0.4-0.5-0.7-1.1-0.9-1.9c-0.2-0.8-0.3-1.7-0.3-2.8c0-1.1,0.1-2,0.4-2.9c0.2-0.8,0.6-1.5,1-2.1
				c0.4-0.6,0.9-1,1.5-1.2c0.6-0.3,1.2-0.4,1.8-0.4c0.8,0,1.4,0.1,2,0.4c0.5,0.3,1,0.7,1.5,1.2V39l1.8-1v17H309z M309,45.8
				c-0.3-0.5-0.8-1-1.4-1.3s-1.2-0.5-1.9-0.5c-1,0-1.8,0.4-2.3,1.3c-0.5,0.9-0.7,2.1-0.7,3.8c0,1.6,0.3,2.7,0.8,3.5
				c0.5,0.8,1.3,1.2,2.3,1.2c0.7,0,1.2-0.2,1.8-0.5c0.5-0.3,1-0.8,1.5-1.3V45.8z"/>
			<path id="XMLID_149_" class="st0" d="M327.7,55v-1.5c-0.4,0.5-1,0.9-1.6,1.2c-0.6,0.3-1.4,0.5-2.3,0.5c-0.5,0-1-0.1-1.4-0.2
				c-0.5-0.1-0.9-0.3-1.3-0.7s-0.7-0.7-0.9-1.2s-0.3-1.1-0.3-1.9c0-0.7,0.1-1.3,0.4-1.8c0.3-0.5,0.6-0.9,1-1.2s0.9-0.6,1.5-0.7
				c0.6-0.1,1.2-0.2,1.8-0.2c0.6,0,1.2,0.1,1.7,0.2c0.5,0.1,1,0.3,1.3,0.5v-1.4c0-1.8-0.9-2.7-2.6-2.7c-0.7,0-1.2,0.1-1.8,0.2
				s-1,0.4-1.5,0.7l-0.7-1.4c0.5-0.3,1.2-0.5,1.9-0.7c0.7-0.2,1.4-0.3,2.2-0.3c1.3,0,2.4,0.3,3.1,0.9c0.8,0.6,1.2,1.6,1.2,3V55
				H327.7z M327.7,49.5c-0.4-0.2-0.8-0.4-1.3-0.5c-0.5-0.1-1.1-0.2-1.8-0.2c-0.9,0-1.6,0.2-2.1,0.6c-0.5,0.4-0.8,1-0.8,1.8
				c0,0.9,0.2,1.6,0.7,2c0.5,0.4,1.1,0.6,1.8,0.6c0.8,0,1.5-0.2,2.1-0.5c0.6-0.4,1.1-0.8,1.4-1.3V49.5z"/>
			<path id="XMLID_147_" class="st0" d="M340.8,51.8c0,0.6-0.1,1.1-0.4,1.6c-0.2,0.4-0.6,0.8-0.9,1.1c-0.4,0.3-0.8,0.5-1.3,0.6
				c-0.5,0.1-1,0.2-1.6,0.2c-0.8,0-1.6-0.1-2.3-0.4c-0.7-0.3-1.4-0.7-2-1.1l1-1.3c0.5,0.4,1,0.8,1.6,1c0.6,0.2,1.1,0.4,1.7,0.4
				c0.8,0,1.5-0.2,1.9-0.5c0.4-0.3,0.6-0.8,0.6-1.4c0-0.2-0.1-0.5-0.2-0.7c-0.1-0.2-0.3-0.4-0.5-0.6c-0.2-0.2-0.5-0.4-0.9-0.6
				c-0.4-0.2-0.8-0.4-1.4-0.6c-0.6-0.3-1.1-0.5-1.6-0.8c-0.4-0.2-0.8-0.5-1.1-0.8c-0.3-0.3-0.5-0.6-0.6-0.9
				c-0.1-0.4-0.2-0.8-0.2-1.3c0-0.5,0.1-0.9,0.3-1.3s0.5-0.7,0.8-1c0.3-0.3,0.7-0.5,1.2-0.6c0.5-0.1,1-0.2,1.5-0.2
				c0.8,0,1.6,0.1,2.2,0.4c0.7,0.2,1.2,0.6,1.7,0.9l-1,1.3c-0.5-0.4-0.9-0.6-1.4-0.8c-0.5-0.2-1-0.3-1.7-0.3c-0.7,0-1.2,0.1-1.5,0.4
				s-0.5,0.6-0.5,1.1c0,0.3,0,0.5,0.1,0.7c0.1,0.2,0.2,0.4,0.4,0.5c0.2,0.2,0.5,0.4,0.8,0.5c0.3,0.2,0.8,0.4,1.3,0.6
				c0.6,0.3,1.1,0.5,1.5,0.7c0.5,0.2,0.8,0.5,1.2,0.8c0.3,0.3,0.6,0.6,0.7,1C340.8,50.8,340.8,51.3,340.8,51.8z"/>
			<path id="XMLID_144_" class="st0" d="M357.2,55v-1.5c-0.4,0.5-1,0.9-1.6,1.2c-0.6,0.3-1.4,0.5-2.3,0.5c-0.5,0-1-0.1-1.4-0.2
				c-0.5-0.1-0.9-0.3-1.3-0.7s-0.7-0.7-0.9-1.2s-0.3-1.1-0.3-1.9c0-0.7,0.1-1.3,0.4-1.8c0.3-0.5,0.6-0.9,1-1.2s0.9-0.6,1.5-0.7
				c0.6-0.1,1.2-0.2,1.8-0.2c0.6,0,1.2,0.1,1.7,0.2c0.5,0.1,1,0.3,1.3,0.5v-1.4c0-1.8-0.9-2.7-2.6-2.7c-0.7,0-1.2,0.1-1.8,0.2
				s-1,0.4-1.5,0.7l-0.7-1.4c0.5-0.3,1.2-0.5,1.9-0.7c0.7-0.2,1.4-0.3,2.2-0.3c1.3,0,2.4,0.3,3.1,0.9c0.8,0.6,1.2,1.6,1.2,3V55
				H357.2z M357.2,49.5c-0.4-0.2-0.8-0.4-1.3-0.5c-0.5-0.1-1.1-0.2-1.8-0.2c-0.9,0-1.6,0.2-2.1,0.6c-0.5,0.4-0.8,1-0.8,1.8
				c0,0.9,0.2,1.6,0.7,2c0.5,0.4,1.1,0.6,1.8,0.6c0.8,0,1.5-0.2,2.1-0.5c0.6-0.4,1.1-0.8,1.4-1.3V49.5z"/>
			<path id="XMLID_141_" class="st0" d="M370.2,55v-1.5c-0.4,0.5-0.9,0.9-1.5,1.2c-0.6,0.3-1.3,0.5-2.1,0.5c-0.6,0-1.2-0.1-1.7-0.4
				c-0.5-0.2-1-0.6-1.4-1.1c-0.4-0.5-0.7-1.1-0.9-1.9c-0.2-0.8-0.3-1.7-0.3-2.8c0-1.1,0.1-2,0.4-2.9c0.2-0.8,0.6-1.5,1-2.1
				c0.4-0.6,0.9-1,1.5-1.2c0.6-0.3,1.2-0.4,1.8-0.4c0.8,0,1.4,0.1,2,0.4c0.5,0.3,1,0.7,1.5,1.2V39l1.8-1v17H370.2z M370.2,45.8
				c-0.3-0.5-0.8-1-1.4-1.3s-1.2-0.5-1.9-0.5c-1,0-1.8,0.4-2.3,1.3c-0.5,0.9-0.7,2.1-0.7,3.8c0,1.6,0.3,2.7,0.8,3.5
				c0.5,0.8,1.3,1.2,2.3,1.2c0.7,0,1.2-0.2,1.8-0.5c0.5-0.3,1-0.8,1.5-1.3V45.8z"/>
			<path id="XMLID_138_" class="st0" d="M377.7,54.7c0,0.7,0,1.3-0.1,1.8s-0.3,1-0.5,1.3c-0.3,0.4-0.6,0.7-1.1,1
				c-0.5,0.3-1.1,0.5-1.9,0.7l-0.6-1.3c0.6-0.2,1-0.3,1.3-0.5s0.6-0.4,0.7-0.6s0.3-0.6,0.3-0.9s0.1-0.8,0.1-1.4V42.8h1.8V54.7z
				 M378.1,39.3c0,0.3-0.1,0.6-0.4,0.9c-0.2,0.2-0.5,0.4-0.9,0.4c-0.4,0-0.7-0.1-0.9-0.4c-0.2-0.2-0.4-0.5-0.4-0.9
				c0-0.4,0.1-0.7,0.4-0.9c0.2-0.2,0.6-0.4,0.9-0.4c0.3,0,0.6,0.1,0.9,0.4S378.1,39,378.1,39.3z"/>
			<path id="XMLID_136_" class="st0" d="M389.3,55v-1.5c-0.4,0.5-0.8,0.9-1.4,1.3c-0.6,0.3-1.2,0.5-2,0.5c-0.7,0-1.2-0.1-1.8-0.3
				c-0.5-0.2-1-0.5-1.4-0.9s-0.7-0.9-0.9-1.6c-0.2-0.6-0.3-1.4-0.3-2.3v-7.5h1.8v7.2c0,1.3,0.2,2.3,0.7,2.9c0.5,0.6,1.2,0.9,2.2,0.9
				c0.9,0,1.6-0.3,2.1-0.9c0.6-0.6,0.9-1.6,0.9-2.9v-7.2h1.8V55H389.3z"/>
			<path id="XMLID_134_" class="st0" d="M402.6,55v-7.2c0-1.3-0.2-2.3-0.7-2.9c-0.5-0.6-1.2-0.9-2.2-0.9c-0.9,0-1.6,0.3-2.1,0.9
				c-0.6,0.6-0.9,1.6-0.9,2.9V55h-1.8V42.8h1.8l0,1.5c0.4-0.5,0.8-0.9,1.4-1.3c0.6-0.3,1.2-0.5,2-0.5c0.7,0,1.2,0.1,1.8,0.3
				s1,0.5,1.4,0.9c0.4,0.4,0.7,0.9,0.9,1.6c0.2,0.6,0.3,1.4,0.3,2.3V55H402.6z"/>
			<path id="XMLID_132_" class="st0" d="M415.6,45.2c-0.5-0.4-0.9-0.7-1.3-0.9c-0.4-0.2-1-0.3-1.6-0.3c-0.5,0-0.9,0.1-1.3,0.3
				c-0.4,0.2-0.8,0.5-1.1,0.9c-0.3,0.4-0.5,0.9-0.7,1.5c-0.2,0.6-0.3,1.3-0.3,2c0,1.5,0.3,2.7,0.9,3.6c0.6,0.9,1.5,1.3,2.5,1.3
				c0.6,0,1.1-0.1,1.5-0.4c0.4-0.2,0.9-0.6,1.3-1l1,1.1c-0.5,0.5-1.1,0.9-1.7,1.2s-1.4,0.4-2.2,0.4c-0.7,0-1.3-0.1-1.9-0.4
				c-0.6-0.3-1.2-0.6-1.6-1.2c-0.5-0.5-0.9-1.2-1.1-2s-0.4-1.7-0.4-2.8c0-1.1,0.2-2.1,0.5-2.9c0.3-0.8,0.7-1.5,1.2-2
				c0.5-0.5,1.1-0.9,1.7-1.2c0.6-0.2,1.3-0.4,1.9-0.4c0.8,0,1.6,0.1,2.2,0.4s1.2,0.6,1.7,1L415.6,45.2z"/>
			<path id="XMLID_130_" class="st0" d="M421.9,44.2v8c0,0.5,0.1,0.9,0.3,1.1c0.2,0.2,0.5,0.3,1,0.3c0.4,0,0.7,0,0.9-0.1
				c0.3-0.1,0.5-0.1,0.8-0.3l-0.1,1.5c-0.3,0.1-0.7,0.2-1,0.3c-0.3,0.1-0.8,0.1-1.2,0.1c-0.8,0-1.4-0.2-1.8-0.6
				c-0.4-0.4-0.6-1.1-0.6-2.2v-8.2h-1.5v-1.5h1.5V39l1.8-1v4.8h3v1.5H421.9z"/>
			<path id="XMLID_127_" class="st0" d="M430.6,39.3c0,0.3-0.1,0.6-0.4,0.9c-0.2,0.2-0.5,0.4-0.9,0.4c-0.4,0-0.7-0.1-0.9-0.4
				c-0.2-0.2-0.4-0.5-0.4-0.9c0-0.4,0.1-0.7,0.4-0.9c0.2-0.2,0.6-0.4,0.9-0.4c0.3,0,0.6,0.1,0.9,0.4S430.6,39,430.6,39.3z M428.5,55
				V42.8h1.8V55H428.5z"/>
			<path id="XMLID_125_" class="st0" d="M439.1,55h-1.5l-4.4-12.2h1.9l3.1,9.6l0.2,0.6l0.2-0.6l3.1-9.6h1.8L439.1,55z"/>
			<path id="XMLID_122_" class="st0" d="M455.7,48.5c0,0.2,0,0.4,0,0.5c0,0.1,0,0.3-0.1,0.4h-8.1c0.1,1.3,0.4,2.4,1,3.1
				c0.6,0.8,1.4,1.1,2.4,1.1c0.7,0,1.3-0.1,1.8-0.3c0.5-0.2,1-0.5,1.6-0.9l0.8,1.3c-0.4,0.2-0.7,0.4-1,0.6c-0.3,0.2-0.7,0.3-1,0.4
				c-0.3,0.1-0.7,0.2-1.1,0.3c-0.4,0.1-0.8,0.1-1.3,0.1c-0.6,0-1.1-0.1-1.7-0.3c-0.6-0.2-1.1-0.6-1.6-1.1c-0.5-0.5-0.9-1.2-1.2-2
				c-0.3-0.8-0.5-1.8-0.5-3c0-1,0.1-1.9,0.4-2.6s0.6-1.4,1.1-2c0.5-0.5,1-1,1.6-1.3c0.6-0.3,1.3-0.4,2-0.4c0.8,0,1.5,0.1,2.1,0.4
				c0.6,0.3,1.1,0.7,1.5,1.2c0.4,0.5,0.7,1.2,0.9,1.9C455.6,46.8,455.7,47.6,455.7,48.5z M454.1,48c-0.1-1.2-0.4-2.2-0.9-2.9
				c-0.5-0.8-1.3-1.1-2.4-1.1c-0.9,0-1.7,0.3-2.2,1s-0.9,1.7-1,3.1H454.1z"/>
			<path id="XMLID_120_" class="st0" d="M467.3,44.2v8c0,0.5,0.1,0.9,0.3,1.1c0.2,0.2,0.5,0.3,1,0.3c0.4,0,0.7,0,0.9-0.1
				c0.3-0.1,0.5-0.1,0.8-0.3l-0.1,1.5c-0.3,0.1-0.7,0.2-1,0.3c-0.3,0.1-0.8,0.1-1.2,0.1c-0.8,0-1.4-0.2-1.8-0.6
				c-0.4-0.4-0.6-1.1-0.6-2.2v-8.2H464v-1.5h1.5V39l1.8-1v4.8h3v1.5H467.3z"/>
			<path id="XMLID_118_" class="st0" d="M481.4,55v-7.2c0-1.3-0.2-2.3-0.7-2.9c-0.5-0.6-1.2-0.9-2.2-0.9c-0.9,0-1.6,0.3-2.1,0.9
				c-0.6,0.6-0.9,1.6-0.9,2.9V55h-1.8V39l1.8-1l0,6.3c0.4-0.5,0.8-0.9,1.4-1.3c0.6-0.3,1.2-0.5,2-0.5c0.7,0,1.2,0.1,1.8,0.3
				s1,0.5,1.4,0.9c0.4,0.4,0.7,0.9,0.9,1.6c0.2,0.6,0.3,1.4,0.3,2.3V55H481.4z"/>
			<path id="XMLID_115_" class="st0" d="M496.2,48.5c0,0.2,0,0.4,0,0.5c0,0.1,0,0.3-0.1,0.4H488c0.1,1.3,0.4,2.4,1,3.1
				c0.6,0.8,1.4,1.1,2.4,1.1c0.7,0,1.3-0.1,1.8-0.3c0.5-0.2,1-0.5,1.6-0.9l0.8,1.3c-0.4,0.2-0.7,0.4-1,0.6c-0.3,0.2-0.7,0.3-1,0.4
				c-0.3,0.1-0.7,0.2-1.1,0.3c-0.4,0.1-0.8,0.1-1.3,0.1c-0.6,0-1.1-0.1-1.7-0.3c-0.6-0.2-1.1-0.6-1.6-1.1c-0.5-0.5-0.9-1.2-1.2-2
				c-0.3-0.8-0.5-1.8-0.5-3c0-1,0.1-1.9,0.4-2.6s0.6-1.4,1.1-2c0.5-0.5,1-1,1.6-1.3c0.6-0.3,1.3-0.4,2-0.4c0.8,0,1.5,0.1,2.1,0.4
				c0.6,0.3,1.1,0.7,1.5,1.2c0.4,0.5,0.7,1.2,0.9,1.9C496.1,46.8,496.2,47.6,496.2,48.5z M494.6,48c-0.1-1.2-0.4-2.2-0.9-2.9
				c-0.5-0.8-1.3-1.1-2.4-1.1c-0.9,0-1.7,0.3-2.2,1s-0.9,1.7-1,3.1H494.6z"/>
			<path id="XMLID_113_" class="st0" d="M505.8,44.6c-0.2-0.1-0.5-0.3-0.8-0.3c-0.3-0.1-0.6-0.1-1-0.1c-0.9,0-1.5,0.3-2,1
				c-0.5,0.7-0.7,1.6-0.7,2.7V55h-1.8V42.8h1.8v1.5c0.3-0.5,0.7-0.9,1.2-1.3c0.5-0.3,1.1-0.5,1.8-0.5c0.5,0,0.8,0,1.1,0.1
				c0.3,0.1,0.6,0.1,0.8,0.2L505.8,44.6z"/>
			<path id="XMLID_110_" class="st0" d="M516,55v-1.5c-0.4,0.5-1,0.9-1.6,1.2c-0.6,0.3-1.4,0.5-2.3,0.5c-0.5,0-1-0.1-1.4-0.2
				c-0.5-0.1-0.9-0.3-1.3-0.7s-0.7-0.7-0.9-1.2s-0.3-1.1-0.3-1.9c0-0.7,0.1-1.3,0.4-1.8c0.3-0.5,0.6-0.9,1-1.2s0.9-0.6,1.5-0.7
				c0.6-0.1,1.2-0.2,1.8-0.2c0.6,0,1.2,0.1,1.7,0.2c0.5,0.1,1,0.3,1.3,0.5v-1.4c0-1.8-0.9-2.7-2.6-2.7c-0.7,0-1.2,0.1-1.8,0.2
				s-1,0.4-1.5,0.7l-0.7-1.4c0.5-0.3,1.2-0.5,1.9-0.7c0.7-0.2,1.4-0.3,2.2-0.3c1.3,0,2.4,0.3,3.1,0.9c0.8,0.6,1.2,1.6,1.2,3V55H516z
				 M516,49.5c-0.4-0.2-0.8-0.4-1.3-0.5c-0.5-0.1-1.1-0.2-1.8-0.2c-0.9,0-1.6,0.2-2.1,0.6c-0.5,0.4-0.8,1-0.8,1.8
				c0,0.9,0.2,1.6,0.7,2c0.5,0.4,1.1,0.6,1.8,0.6c0.8,0,1.5-0.2,2.1-0.5c0.6-0.4,1.1-0.8,1.4-1.3V49.5z"/>
			<path id="XMLID_107_" class="st0" d="M531.4,48.7c0,1.1-0.1,2-0.4,2.9c-0.2,0.8-0.6,1.5-1,2.1c-0.4,0.6-0.9,1-1.5,1.2
				c-0.6,0.3-1.2,0.4-1.8,0.4c-0.8,0-1.4-0.1-2-0.4c-0.5-0.3-1-0.7-1.5-1.2v4.9l-1.8,1V42.8h1.8l0,1.5c0.4-0.5,0.9-0.9,1.5-1.2
				c0.6-0.3,1.3-0.5,2.1-0.5c0.6,0,1.2,0.1,1.7,0.4c0.5,0.2,1,0.6,1.4,1.1s0.7,1.1,0.9,1.9S531.4,47.6,531.4,48.7z M529.7,48.7
				c0-1.6-0.3-2.7-0.8-3.5c-0.5-0.8-1.3-1.2-2.3-1.2c-0.7,0-1.2,0.2-1.8,0.5c-0.5,0.3-1,0.8-1.5,1.3v6.1c0.3,0.5,0.8,1,1.4,1.3
				s1.2,0.5,1.9,0.5c1,0,1.8-0.4,2.3-1.3C529.4,51.6,529.7,50.4,529.7,48.7z"/>
			<path id="XMLID_105_" class="st0" d="M538,59.3h-1.7l1.7-4.5l-4.4-12.1h1.8l3,8.9l0.4,1.3l0.4-1.2l3-8.9h1.8L538,59.3z"/>
			<path id="XMLID_102_" class="st0" d="M555.3,39.3c0,0.3-0.1,0.6-0.4,0.9c-0.2,0.2-0.5,0.4-0.9,0.4c-0.4,0-0.7-0.1-0.9-0.4
				c-0.2-0.2-0.4-0.5-0.4-0.9c0-0.4,0.1-0.7,0.4-0.9c0.2-0.2,0.6-0.4,0.9-0.4c0.3,0,0.6,0.1,0.9,0.4S555.3,39,555.3,39.3z M553.2,55
				V42.8h1.8V55H553.2z"/>
			<path id="XMLID_100_" class="st0" d="M566.6,55v-7.2c0-1.3-0.2-2.3-0.7-2.9c-0.5-0.6-1.2-0.9-2.2-0.9c-0.9,0-1.6,0.3-2.1,0.9
				c-0.6,0.6-0.9,1.6-0.9,2.9V55h-1.8V42.8h1.8l0,1.5c0.4-0.5,0.8-0.9,1.4-1.3c0.6-0.3,1.2-0.5,2-0.5c0.7,0,1.2,0.1,1.8,0.3
				s1,0.5,1.4,0.9c0.4,0.4,0.7,0.9,0.9,1.6c0.2,0.6,0.3,1.4,0.3,2.3V55H566.6z"/>
			<path id="XMLID_97_" class="st0" d="M588,48.7c0,1.1-0.1,2-0.4,2.9c-0.2,0.8-0.6,1.5-1,2.1c-0.4,0.6-0.9,1-1.5,1.2
				c-0.6,0.3-1.2,0.4-1.8,0.4c-0.8,0-1.4-0.1-2-0.4c-0.5-0.3-1-0.7-1.5-1.2v4.9l-1.8,1V42.8h1.8l0,1.5c0.4-0.5,0.9-0.9,1.5-1.2
				c0.6-0.3,1.3-0.5,2.1-0.5c0.6,0,1.2,0.1,1.7,0.4c0.5,0.2,1,0.6,1.4,1.1s0.7,1.1,0.9,1.9S588,47.6,588,48.7z M586.3,48.7
				c0-1.6-0.3-2.7-0.8-3.5c-0.5-0.8-1.3-1.2-2.3-1.2c-0.7,0-1.2,0.2-1.8,0.5c-0.5,0.3-1,0.8-1.5,1.3v6.1c0.3,0.5,0.8,1,1.4,1.3
				s1.2,0.5,1.9,0.5c1,0,1.8-0.4,2.3-1.3C586,51.6,586.3,50.4,586.3,48.7z"/>
			<path id="XMLID_94_" class="st0" d="M598.2,55v-1.5c-0.4,0.5-1,0.9-1.6,1.2c-0.6,0.3-1.4,0.5-2.3,0.5c-0.5,0-1-0.1-1.4-0.2
				c-0.5-0.1-0.9-0.3-1.3-0.7s-0.7-0.7-0.9-1.2s-0.3-1.1-0.3-1.9c0-0.7,0.1-1.3,0.4-1.8c0.3-0.5,0.6-0.9,1-1.2s0.9-0.6,1.5-0.7
				c0.6-0.1,1.2-0.2,1.8-0.2c0.6,0,1.2,0.1,1.7,0.2c0.5,0.1,1,0.3,1.3,0.5v-1.4c0-1.8-0.9-2.7-2.6-2.7c-0.7,0-1.2,0.1-1.8,0.2
				s-1,0.4-1.5,0.7l-0.7-1.4c0.5-0.3,1.2-0.5,1.9-0.7c0.7-0.2,1.4-0.3,2.2-0.3c1.3,0,2.4,0.3,3.1,0.9c0.8,0.6,1.2,1.6,1.2,3V55
				H598.2z M598.2,49.5c-0.4-0.2-0.8-0.4-1.3-0.5c-0.5-0.1-1.1-0.2-1.8-0.2c-0.9,0-1.6,0.2-2.1,0.6c-0.5,0.4-0.8,1-0.8,1.8
				c0,0.9,0.2,1.6,0.7,2c0.5,0.4,1.1,0.6,1.8,0.6c0.8,0,1.5-0.2,2.1-0.5c0.6-0.4,1.1-0.8,1.4-1.3V49.5z"/>
			<path id="XMLID_92_" class="st0" d="M606.1,44.2v8c0,0.5,0.1,0.9,0.3,1.1c0.2,0.2,0.5,0.3,1,0.3c0.4,0,0.7,0,0.9-0.1
				c0.3-0.1,0.5-0.1,0.8-0.3l-0.1,1.5c-0.3,0.1-0.7,0.2-1,0.3c-0.3,0.1-0.8,0.1-1.2,0.1c-0.8,0-1.4-0.2-1.8-0.6
				c-0.4-0.4-0.6-1.1-0.6-2.2v-8.2h-1.5v-1.5h1.5V39l1.8-1v4.8h3v1.5H606.1z"/>
			<path id="XMLID_89_" class="st0" d="M614.7,39.3c0,0.3-0.1,0.6-0.4,0.9c-0.2,0.2-0.5,0.4-0.9,0.4c-0.4,0-0.7-0.1-0.9-0.4
				c-0.2-0.2-0.4-0.5-0.4-0.9c0-0.4,0.1-0.7,0.4-0.9c0.2-0.2,0.6-0.4,0.9-0.4c0.3,0,0.6,0.1,0.9,0.4S614.7,39,614.7,39.3z M612.6,55
				V42.8h1.8V55H612.6z"/>
			<path id="XMLID_86_" class="st0" d="M627.6,48.5c0,0.2,0,0.4,0,0.5c0,0.1,0,0.3-0.1,0.4h-8.1c0.1,1.3,0.4,2.4,1,3.1
				c0.6,0.8,1.4,1.1,2.4,1.1c0.7,0,1.3-0.1,1.8-0.3c0.5-0.2,1-0.5,1.6-0.9l0.8,1.3c-0.4,0.2-0.7,0.4-1,0.6c-0.3,0.2-0.7,0.3-1,0.4
				c-0.3,0.1-0.7,0.2-1.1,0.3c-0.4,0.1-0.8,0.1-1.3,0.1c-0.6,0-1.1-0.1-1.7-0.3c-0.6-0.2-1.1-0.6-1.6-1.1c-0.5-0.5-0.9-1.2-1.2-2
				c-0.3-0.8-0.5-1.8-0.5-3c0-1,0.1-1.9,0.4-2.6s0.6-1.4,1.1-2c0.5-0.5,1-1,1.6-1.3c0.6-0.3,1.3-0.4,2-0.4c0.8,0,1.5,0.1,2.1,0.4
				c0.6,0.3,1.1,0.7,1.5,1.2c0.4,0.5,0.7,1.2,0.9,1.9C627.5,46.8,627.6,47.6,627.6,48.5z M626,48c-0.1-1.2-0.4-2.2-0.9-2.9
				c-0.5-0.8-1.3-1.1-2.4-1.1c-0.9,0-1.7,0.3-2.2,1s-0.9,1.7-1,3.1H626z"/>
			<path id="XMLID_84_" class="st0" d="M638.6,55v-7.2c0-1.3-0.2-2.3-0.7-2.9c-0.5-0.6-1.2-0.9-2.2-0.9c-0.9,0-1.6,0.3-2.1,0.9
				c-0.6,0.6-0.9,1.6-0.9,2.9V55h-1.8V42.8h1.8l0,1.5c0.4-0.5,0.8-0.9,1.4-1.3c0.6-0.3,1.2-0.5,2-0.5c0.7,0,1.2,0.1,1.8,0.3
				s1,0.5,1.4,0.9c0.4,0.4,0.7,0.9,0.9,1.6c0.2,0.6,0.3,1.4,0.3,2.3V55H638.6z"/>
			<path id="XMLID_82_" class="st0" d="M646.4,44.2v8c0,0.5,0.1,0.9,0.3,1.1c0.2,0.2,0.5,0.3,1,0.3c0.4,0,0.7,0,0.9-0.1
				c0.3-0.1,0.5-0.1,0.8-0.3l-0.1,1.5c-0.3,0.1-0.7,0.2-1,0.3c-0.3,0.1-0.8,0.1-1.2,0.1c-0.8,0-1.4-0.2-1.8-0.6
				c-0.4-0.4-0.6-1.1-0.6-2.2v-8.2h-1.5v-1.5h1.5V39l1.8-1v4.8h3v1.5H646.4z"/>
			<path id="XMLID_80_" class="st0" d="M660.4,51.8c0,0.6-0.1,1.1-0.4,1.6c-0.2,0.4-0.6,0.8-0.9,1.1c-0.4,0.3-0.8,0.5-1.3,0.6
				c-0.5,0.1-1,0.2-1.6,0.2c-0.8,0-1.6-0.1-2.3-0.4c-0.7-0.3-1.4-0.7-2-1.1l1-1.3c0.5,0.4,1,0.8,1.6,1c0.6,0.2,1.1,0.4,1.7,0.4
				c0.8,0,1.5-0.2,1.9-0.5c0.4-0.3,0.6-0.8,0.6-1.4c0-0.2-0.1-0.5-0.2-0.7c-0.1-0.2-0.3-0.4-0.5-0.6c-0.2-0.2-0.5-0.4-0.9-0.6
				c-0.4-0.2-0.8-0.4-1.4-0.6c-0.6-0.3-1.1-0.5-1.6-0.8c-0.4-0.2-0.8-0.5-1.1-0.8c-0.3-0.3-0.5-0.6-0.6-0.9
				c-0.1-0.4-0.2-0.8-0.2-1.3c0-0.5,0.1-0.9,0.3-1.3s0.5-0.7,0.8-1c0.3-0.3,0.7-0.5,1.2-0.6c0.5-0.1,1-0.2,1.5-0.2
				c0.8,0,1.6,0.1,2.2,0.4c0.7,0.2,1.2,0.6,1.7,0.9l-1,1.3c-0.5-0.4-0.9-0.6-1.4-0.8c-0.5-0.2-1-0.3-1.7-0.3c-0.7,0-1.2,0.1-1.5,0.4
				s-0.5,0.6-0.5,1.1c0,0.3,0,0.5,0.1,0.7c0.1,0.2,0.2,0.4,0.4,0.5c0.2,0.2,0.5,0.4,0.8,0.5c0.3,0.2,0.8,0.4,1.3,0.6
				c0.6,0.3,1.1,0.5,1.5,0.7c0.5,0.2,0.8,0.5,1.2,0.8c0.3,0.3,0.6,0.6,0.7,1C660.3,50.8,660.4,51.3,660.4,51.8z"/>
			<path id="XMLID_78_" class="st0" d="M680.5,55h-1.6l-2.2-8.2c0-0.1-0.1-0.2-0.1-0.4c0-0.1-0.1-0.3-0.1-0.5c0-0.2-0.1-0.3-0.1-0.5
				c0-0.2-0.1-0.3-0.1-0.4c0,0.1,0,0.2-0.1,0.4c0,0.2-0.1,0.3-0.1,0.5c0,0.2-0.1,0.3-0.1,0.5c0,0.1-0.1,0.3-0.1,0.4l-2.2,8.2h-1.6
				l-3.2-12.2h1.8l1.9,8.1c0,0.1,0,0.2,0.1,0.4c0,0.1,0.1,0.3,0.1,0.5s0.1,0.3,0.1,0.5c0,0.2,0,0.3,0.1,0.4c0-0.1,0-0.2,0.1-0.4
				c0-0.2,0.1-0.3,0.1-0.5s0.1-0.3,0.1-0.5c0-0.1,0.1-0.3,0.1-0.4l2.2-8.1h1.6l2.2,8.1c0,0.1,0.1,0.2,0.1,0.4c0,0.1,0.1,0.3,0.1,0.5
				c0,0.2,0.1,0.3,0.1,0.5c0,0.2,0.1,0.3,0.1,0.4c0-0.1,0-0.2,0.1-0.4c0-0.2,0.1-0.3,0.1-0.5c0-0.2,0.1-0.3,0.1-0.5
				c0-0.1,0.1-0.3,0.1-0.4l1.9-8.1h1.7L680.5,55z"/>
			<path id="XMLID_75_" class="st0" d="M689,39.3c0,0.3-0.1,0.6-0.4,0.9c-0.2,0.2-0.5,0.4-0.9,0.4c-0.4,0-0.7-0.1-0.9-0.4
				c-0.2-0.2-0.4-0.5-0.4-0.9c0-0.4,0.1-0.7,0.4-0.9c0.2-0.2,0.6-0.4,0.9-0.4c0.3,0,0.6,0.1,0.9,0.4S689,39,689,39.3z M686.9,55
				V42.8h1.8V55H686.9z"/>
			<path id="XMLID_73_" class="st0" d="M694.9,44.2v8c0,0.5,0.1,0.9,0.3,1.1c0.2,0.2,0.5,0.3,1,0.3c0.4,0,0.7,0,0.9-0.1
				c0.3-0.1,0.5-0.1,0.8-0.3l-0.1,1.5c-0.3,0.1-0.7,0.2-1,0.3c-0.3,0.1-0.8,0.1-1.2,0.1c-0.8,0-1.4-0.2-1.8-0.6
				c-0.4-0.4-0.6-1.1-0.6-2.2v-8.2h-1.5v-1.5h1.5V39l1.8-1v4.8h3v1.5H694.9z"/>
			<path id="XMLID_71_" class="st0" d="M709,55v-7.2c0-1.3-0.2-2.3-0.7-2.9c-0.5-0.6-1.2-0.9-2.2-0.9c-0.9,0-1.6,0.3-2.1,0.9
				c-0.6,0.6-0.9,1.6-0.9,2.9V55h-1.8V39l1.8-1l0,6.3c0.4-0.5,0.8-0.9,1.4-1.3c0.6-0.3,1.2-0.5,2-0.5c0.7,0,1.2,0.1,1.8,0.3
				s1,0.5,1.4,0.9c0.4,0.4,0.7,0.9,0.9,1.6c0.2,0.6,0.3,1.4,0.3,2.3V55H709z"/>
			<path id="XMLID_68_" class="st0" d="M732.1,43.5c0,0.8-0.1,1.5-0.4,2.2c-0.3,0.6-0.6,1.2-1.1,1.6c-0.5,0.4-1.1,0.8-1.7,1
				c-0.7,0.2-1.4,0.3-2.2,0.3h-4V55h-1.8V38.7h6.1c0.7,0,1.4,0.1,2.1,0.3c0.6,0.2,1.2,0.5,1.6,0.9c0.5,0.4,0.8,0.9,1.1,1.5
				C732,42,732.1,42.7,732.1,43.5z M730.3,43.6c0-1.1-0.3-1.9-0.9-2.4c-0.6-0.6-1.4-0.9-2.6-0.9h-4.2v6.6h4
				C729.1,46.9,730.3,45.8,730.3,43.6z"/>
			<path id="XMLID_65_" class="st0" d="M748.1,46.8c0,1.2-0.2,2.4-0.5,3.4c-0.3,1-0.8,1.9-1.4,2.7s-1.3,1.3-2.2,1.7
				c-0.8,0.4-1.8,0.6-2.8,0.6c-1,0-1.9-0.2-2.8-0.6c-0.8-0.4-1.5-1-2.1-1.7c-0.6-0.7-1-1.6-1.4-2.7s-0.5-2.2-0.5-3.4
				s0.2-2.4,0.5-3.4c0.3-1,0.8-1.9,1.4-2.7c0.6-0.7,1.3-1.3,2.1-1.7c0.8-0.4,1.8-0.6,2.8-0.6c1,0,1.9,0.2,2.8,0.6
				c0.8,0.4,1.5,1,2.1,1.7c0.6,0.7,1,1.6,1.4,2.7C747.9,44.5,748.1,45.6,748.1,46.8z M746.3,46.9c0-1-0.1-2-0.4-2.8
				s-0.6-1.5-1.1-2.1c-0.5-0.6-1-1.1-1.6-1.4c-0.6-0.3-1.3-0.5-2-0.5c-0.7,0-1.3,0.2-1.9,0.5c-0.6,0.3-1.1,0.8-1.6,1.4
				c-0.4,0.6-0.8,1.3-1,2.1c-0.2,0.8-0.4,1.8-0.4,2.8c0,1,0.1,2,0.4,2.8c0.3,0.8,0.6,1.5,1,2.1s1,1.1,1.6,1.4c0.6,0.3,1.3,0.5,2,0.5
				c0.7,0,1.4-0.2,2-0.5c0.6-0.3,1.1-0.8,1.6-1.4s0.8-1.3,1-2.1C746.1,48.8,746.3,47.9,746.3,46.9z"/>
			<path id="XMLID_63_" class="st0" d="M761.7,50.7c0,0.6-0.1,1.2-0.4,1.8c-0.2,0.6-0.6,1-1.1,1.4c-0.5,0.4-1,0.7-1.7,1
				c-0.7,0.2-1.4,0.3-2.3,0.3c-1.1,0-2.1-0.2-3.1-0.6s-1.7-1-2.4-1.6l1.2-1.4c0.6,0.6,1.3,1.1,2,1.4c0.7,0.4,1.5,0.5,2.3,0.5
				c1.1,0,1.9-0.2,2.6-0.7c0.6-0.5,0.9-1.2,0.9-2.1c0-0.4-0.1-0.7-0.2-1c-0.1-0.3-0.3-0.6-0.6-0.9c-0.3-0.3-0.7-0.5-1.2-0.8
				c-0.5-0.3-1.1-0.5-1.9-0.8c-0.9-0.3-1.6-0.6-2.2-0.9s-1.1-0.7-1.4-1c-0.4-0.4-0.6-0.8-0.8-1.2c-0.2-0.5-0.2-1-0.2-1.6
				c0-0.7,0.1-1.2,0.4-1.7s0.6-1,1-1.3c0.4-0.4,1-0.6,1.6-0.8c0.6-0.2,1.3-0.3,2.1-0.3c1.1,0,2,0.2,2.8,0.5c0.8,0.3,1.5,0.7,2.2,1.3
				l-1.2,1.4c-0.6-0.5-1.2-0.9-1.8-1.1c-0.6-0.3-1.3-0.4-2.1-0.4c-0.6,0-1,0.1-1.4,0.2c-0.4,0.1-0.7,0.3-1,0.5
				c-0.3,0.2-0.4,0.5-0.6,0.8c-0.1,0.3-0.2,0.6-0.2,0.9c0,0.3,0,0.6,0.1,0.9c0.1,0.3,0.3,0.5,0.6,0.8c0.3,0.3,0.7,0.5,1.2,0.8
				c0.5,0.2,1.2,0.5,2,0.8c0.9,0.3,1.7,0.7,2.3,1s1.1,0.7,1.5,1.1c0.4,0.4,0.6,0.8,0.8,1.3S761.7,50.1,761.7,50.7z"/>
			<path id="XMLID_61_" class="st0" d="M767.6,53.8c0,0.4-0.1,0.8-0.4,1c-0.3,0.3-0.6,0.4-1,0.4c-0.4,0-0.8-0.1-1-0.4
				c-0.3-0.3-0.4-0.6-0.4-1s0.1-0.8,0.4-1.1c0.3-0.3,0.6-0.5,1-0.5c0.4,0,0.8,0.2,1,0.5S767.6,53.4,767.6,53.8z"/>
		</g>
	</g>
	<linearGradient id="XMLID_548_" gradientUnits="userSpaceOnUse" x1="0" y1="33.5211" x2="164.0148" y2="33.5211">
		<stop  offset="0" style="stop-color:#4B257A"/>
		<stop  offset="1" style="stop-color:#954C8D"/>
	</linearGradient>
	<rect id="XMLID_57_" y="0.7" class="st1" width="164" height="65.6"/>
	<linearGradient id="XMLID_549_" gradientUnits="userSpaceOnUse" x1="163.5023" y1="33.5211" x2="771.6546" y2="33.5211">
		<stop  offset="0" style="stop-color:#4B257A"/>
		<stop  offset="1" style="stop-color:#954C8D"/>
	</linearGradient>
	<rect id="XMLID_56_" x="164.2" y="0.7" class="st2" width="606.8" height="65.6"/>
	<g id="XMLID_2_">
		<polygon id="XMLID_55_" class="st3" points="11.5,35.9 13,35.9 13,48.7 22.1,48.7 22.1,50.1 11.5,50.1 		"/>
		<path id="XMLID_52_" class="st3" d="M32.9,44.2c-0.4-2.5-2.3-3.5-4.3-3.5c-1.9,0-3.9,1-4.3,3.5H32.9z M34.2,46.8
			c-0.6,1.8-2.2,3.6-5.6,3.6c-4.3,0-5.7-3-5.7-5.5c0-2.9,1.8-5.5,5.7-5.5c2.7,0,5.9,1.2,5.9,5.9H24.3c0,2.1,1.5,3.9,4.2,3.9
			c2.5,0,3.6-0.8,4.1-2.4H34.2z"/>
		<polygon id="XMLID_51_" class="st3" points="44.7,39.7 46.4,39.7 41.5,50.1 39.9,50.1 35,39.7 36.6,39.7 40.7,48.4 		"/>
		<path id="XMLID_48_" class="st3" d="M57.1,44.2c-0.4-2.5-2.3-3.5-4.3-3.5c-1.9,0-4,1-4.3,3.5H57.1z M58.3,46.8
			c-0.6,1.8-2.2,3.6-5.6,3.6c-4.3,0-5.7-3-5.7-5.5c0-2.9,1.8-5.5,5.7-5.5c2.7,0,5.9,1.2,5.9,5.9H48.5c0,2.1,1.5,3.9,4.2,3.9
			c2.5,0,3.6-0.8,4.1-2.4H58.3z"/>
		<path id="XMLID_47_" class="st3" d="M61.4,36.5h1.5v3.3h3v1.1h-3v6.8c0,0.9,0.3,1.3,1.5,1.3c0.7,0,1.2-0.1,1.5-0.1v1.2
			c-0.6,0.1-1.1,0.1-1.6,0.1c-2.3,0-2.8-0.9-2.8-2.6v-6.8h-2.3v-1.1h2.3V36.5z"/>
		<path id="XMLID_44_" class="st3" d="M67.4,39.7h1.5v10.3h-1.5V39.7z M67.4,35.8h1.5v2.2h-1.5V35.8z"/>
		<path id="XMLID_43_" class="st3" d="M71.1,39.7h1.5v2.4h0c0.5-1.2,1.5-2.7,4-2.7c0.4,0,0.7,0.1,0.9,0.1V41
			c-0.5-0.1-0.9-0.1-1.4-0.1c-1.6,0-3.6,1-3.6,3.9v5.3h-1.5V39.7z"/>
		<path id="XMLID_40_" class="st3" d="M86.9,44.5c-0.7,0.4-1.7,0.5-4.6,0.8c-1.7,0.2-2.7,0.7-2.7,1.9c0,1.6,1.4,2.1,3,2.1
			c2,0,4.4-1.1,4.4-3.2V44.5z M78.5,42.9c0.2-2.2,1.4-3.5,5-3.5c3.5,0,4.8,1.1,4.8,3.1v5.4c0,0.9,0.2,1.2,0.8,1.2c0.3,0,0.5,0,0.8,0
			v1c-0.3,0.1-0.8,0.2-1.2,0.2c-1.5,0-1.6-1-1.6-1.8h0c-0.5,0.7-1.5,2.1-4.9,2.1c-1.8,0-4.1-0.8-4.1-3.1c0-2.8,2.9-3.1,5.2-3.2
			c3.2-0.2,3.6-0.4,3.6-1.4c0-1.5-1-2-3.4-2c-2.3,0-3.5,0.6-3.6,2.3H78.5z"/>
		<path id="XMLID_39_" class="st3" d="M101.4,46.4c-0.3,1.4-1.5,4-5.3,4c-3.8,0-5.9-2.2-5.9-5.5c0-3.1,1.9-5.5,5.9-5.5
			c3.6,0,5,2.2,5.2,3.7h-1.5c-0.5-1.8-1.9-2.5-3.7-2.5c-3,0-4.4,1.9-4.4,4.3c0,2.6,1.6,4.3,4.4,4.3c2.2,0,3.4-1.2,3.8-2.8H101.4z"/>
		<path id="XMLID_36_" class="st3" d="M112.8,44.2c-0.4-2.5-2.3-3.5-4.3-3.5c-1.9,0-4,1-4.3,3.5H112.8z M114,46.8
			c-0.6,1.8-2.2,3.6-5.6,3.6c-4.3,0-5.7-3-5.7-5.5c0-2.9,1.8-5.5,5.7-5.5c2.7,0,5.9,1.2,5.9,5.9h-10.1c0,2.1,1.5,3.9,4.2,3.9
			c2.5,0,3.6-0.8,4.1-2.4H114z"/>
		<path id="XMLID_35_" class="st3" d="M117.1,36.5h1.5v3.3h2.9v1.1h-2.9v6.8c0,0.9,0.3,1.3,1.5,1.3c0.7,0,1.2-0.1,1.5-0.1v1.2
			c-0.6,0.1-1.1,0.1-1.6,0.1c-2.3,0-2.8-0.9-2.8-2.6v-6.8h-2.3v-1.1h2.3V36.5z"/>
		<path id="XMLID_32_" class="st3" d="M131.4,44.5c-0.7,0.4-1.7,0.5-4.6,0.8c-1.7,0.2-2.7,0.7-2.7,1.9c0,1.6,1.4,2.1,3,2.1
			c2,0,4.4-1.1,4.4-3.2V44.5z M123,42.9c0.2-2.2,1.4-3.5,5-3.5c3.5,0,4.8,1.1,4.8,3.1v5.4c0,0.9,0.2,1.2,0.8,1.2c0.3,0,0.5,0,0.8,0
			v1c-0.3,0.1-0.8,0.2-1.2,0.2c-1.5,0-1.6-1-1.6-1.8h0c-0.5,0.7-1.5,2.1-4.9,2.1c-1.8,0-4.1-0.8-4.1-3.1c0-2.8,2.9-3.1,5.2-3.2
			c3.3-0.2,3.7-0.4,3.7-1.4c0-1.5-1-2-3.4-2c-2.3,0-3.5,0.6-3.6,2.3H123z"/>
		<path id="XMLID_31_" class="st3" d="M151.7,43.5c0-1.9-1-2.9-3.1-2.9c-2.3,0-3.6,1.3-3.6,3.3v6.1h-1.5v-7c0-1.3-0.9-2.4-3-2.4
			c-2.1,0-3.7,1.2-3.7,3.6v5.8h-1.5V39.7h1.5v1.9h0c0.6-1.1,1.7-2.2,4.1-2.2c2.3,0,3.4,1.2,3.7,2.3c0.5-1,2-2.3,4.1-2.3
			c2.9,0,4.3,1.5,4.3,3.6v7.1h-1.5V43.5z"/>
		<polygon id="XMLID_30_" class="st3" points="137.1,33.1 132.9,33.1 129.7,27.5 126.4,33.1 122.3,33.1 127.7,24.7 122.6,16.6 
			126.8,16.6 129.7,22 132.8,16.6 136.8,16.6 131.7,24.6 		"/>
		<path id="XMLID_27_" class="st3" d="M146.7,23.9c1.8,0,2.7-0.6,2.7-2.3c0-0.9-0.4-2.2-2.4-2.2h-4.3v4.4H146.7z M139.2,16.6h8.4
			c4.4,0,5.2,3.2,5.2,4.7c0,1.8-0.9,3.4-2.6,3.9c1.4,0.6,2.1,1.1,2.1,4.2c0,2.4,0,3,0.7,3.3v0.4h-3.8c-0.2-0.8-0.4-1.6-0.4-3.3
			c0-2.3-0.1-3.1-2.7-3.1h-3.6v6.5h-3.4V16.6z"/>
		<polygon id="XMLID_26_" class="st3" points="20.4,32.9 16.2,25.5 14.1,28.1 14.1,32.9 10.9,32.9 10.9,16.6 14.1,16.6 14.1,23.7 
			19.9,16.6 23.8,16.6 18.3,23.1 24.2,32.9 		"/>
		<path id="XMLID_23_" class="st3" d="M46.4,19.5h-3v4.5h3c1.5,0,2.4-0.9,2.4-2.2S47.9,19.5,46.4,19.5 M46.6,26.8h-3.2v6.1h-3.2
			V16.6h6.4c3.4,0,5.4,2.3,5.4,5.1C52,24.5,50,26.8,46.6,26.8"/>
		<path id="XMLID_20_" class="st3" d="M61,19.5h-3v4.3h3c1.4,0,2.3-0.9,2.3-2.2C63.3,20.4,62.4,19.5,61,19.5 M63.5,32.9l-3.2-6.5
			h-2.3v6.5h-3.2V16.6h6.4c3.3,0,5.3,2.3,5.3,5c0,2.3-1.4,3.7-3,4.3l3.7,7H63.5z"/>
		<path id="XMLID_17_" class="st3" d="M75.4,21.5l-2.1,5.9h4.1L75.4,21.5z M79.2,32.9l-1-2.9h-5.8l-1,2.9H68l6-16.3h2.5l6,16.3H79.2
			z"/>
		<path id="XMLID_14_" class="st3" d="M92.6,20.5c-0.6-0.7-1.3-1-2.4-1h-2.4v10.6h2.4c1.1,0,1.8-0.3,2.4-1c0.6-0.7,0.7-1.9,0.7-4.4
			C93.3,22.3,93.2,21.2,92.6,20.5 M94.9,31.4c-1.1,1.1-2.6,1.6-4.3,1.6h-5.9V16.6h5.9c1.7,0,3.3,0.5,4.3,1.6
			c1.8,1.8,1.7,4.1,1.7,6.5C96.5,27.2,96.7,29.6,94.9,31.4"/>
		<rect id="XMLID_13_" x="99.8" y="16.6" class="st3" width="3.2" height="16.3"/>
		<polygon id="XMLID_12_" class="st3" points="106.9,32.9 106.9,16.6 110.1,16.6 110.1,30.1 117.5,30.1 117.5,32.9 		"/>
		<path id="XMLID_7_" class="st3" d="M114.5,19.2c0.3,0,0.7,0,0.7-0.4c0-0.3-0.3-0.4-0.5-0.4H114v0.8H114.5z M113.7,18.1h1
			c0.6,0,0.9,0.2,0.9,0.7c0,0.5-0.3,0.6-0.7,0.7l0.7,1.1h-0.4l-0.7-1H114v1h-0.4V18.1z M116.3,19.4c0-1-0.8-1.8-1.8-1.8
			c-1,0-1.8,0.8-1.8,1.8c0,1,0.8,1.8,1.8,1.8C115.5,21.1,116.3,20.3,116.3,19.4 M114.5,17.2c1.2,0,2.1,0.9,2.1,2.1
			c0,1.2-1,2.1-2.1,2.1c-1.2,0-2.1-0.9-2.1-2.1C112.4,18.2,113.3,17.2,114.5,17.2"/>
		<polygon id="XMLID_6_" class="st3" points="26.3,32.9 37.1,32.9 37.1,30.1 29.5,30.1 29.5,26.8 26.3,26.8 		"/>
		<path id="XMLID_5_" class="st3" d="M24.9,25.5c0,0,1.4-3,6.5-3c5.2,0,8-1.8,8-1.8s-3.7,3.8-7.3,3.8C28.5,24.5,26.4,24.5,24.9,25.5
			"/>
		<path id="XMLID_4_" class="st3" d="M23.4,28.3c0,0,1.4-3,6.5-3s8-1.8,8-1.8s-3.7,3.8-7.3,3.8C27.1,27.3,24.9,27.3,23.4,28.3"/>
		<polygon id="XMLID_3_" class="st3" points="26.3,23.9 29.5,23.9 29.5,19.5 37.1,19.5 37.1,16.6 26.3,16.6 		"/>
	</g>
</g>
</svg>
