<!-- Generator: Adobe Illustrator 22.1.0, SVG Export Plug-In  -->
<svg version="1.1"
	 xmlns="http://www.w3.org/2000/svg" xmlns:xlink="http://www.w3.org/1999/xlink" xmlns:a="http://ns.adobe.com/AdobeSVGViewerExtensions/3.0/"
	 x="0px" y="0px" width="97.8px" height="294.1px" viewBox="0 0 97.8 294.1" style="enable-background:new 0 0 97.8 294.1;"
	 xml:space="preserve">
<style type="text/css">
	.st0{fill:url(#XMLID_19_);}
	.st1{fill:#A6A8AB;}
	.st2{fill:#58595B;}
	.st3{fill:url(#XMLID_20_);}
</style>
<defs>
</defs>
<linearGradient id="XMLID_19_" gradientUnits="userSpaceOnUse" x1="0" y1="127.9573" x2="47.535" y2="127.9573">
	<stop  offset="0" style="stop-color:#4B257A"/>
	<stop  offset="1" style="stop-color:#954C8D"/>
</linearGradient>
<rect id="XMLID_18_" class="st0" width="47.5" height="255.9"/>
<rect id="XMLID_17_" x="50.3" class="st1" width="47.5" height="88.6"/>
<g id="XMLID_6_">
	<path id="XMLID_14_" class="st2" d="M21.2,270.3c0,0.8-0.1,1.5-0.4,2.1c-0.3,0.6-0.7,1.1-1.2,1.5c-0.5,0.4-1.1,0.7-1.8,0.9
		s-1.4,0.3-2.2,0.3c-0.8,0-1.5-0.1-2.1-0.3c-0.6-0.2-1.2-0.6-1.7-1s-0.9-1.1-1.1-1.8s-0.4-1.6-0.4-2.6c0-0.6,0.1-1.3,0.2-2
		c0.1-0.7,0.3-1.4,0.6-2c0.3-0.7,0.7-1.3,1.1-1.9s1-1.1,1.7-1.6c0.7-0.5,1.5-0.8,2.4-1.1c0.9-0.3,1.9-0.4,3.1-0.4v2.8
		c-1.6,0-2.8,0.3-3.8,0.8c-1,0.6-1.7,1.4-2.1,2.5c0.4-0.3,0.9-0.5,1.4-0.7s1-0.2,1.7-0.2c0.7,0,1.3,0.1,1.9,0.3
		c0.6,0.2,1.1,0.5,1.5,0.8c0.4,0.4,0.8,0.9,1,1.4C21.1,268.9,21.2,269.6,21.2,270.3z M18.5,270.4c0-0.7-0.2-1.3-0.7-1.6
		s-1.1-0.5-2-0.5c-0.9,0-1.6,0.2-2.1,0.5c-0.5,0.3-0.7,0.9-0.7,1.6c0,0.7,0.2,1.2,0.7,1.6c0.5,0.4,1.1,0.6,2,0.6
		c0.9,0,1.6-0.2,2.1-0.6S18.5,271.1,18.5,270.4z"/>
	<path id="XMLID_11_" class="st2" d="M34,266.3c0,0.6-0.1,1.3-0.2,2c-0.1,0.7-0.3,1.4-0.6,2c-0.3,0.7-0.7,1.3-1.1,1.9
		c-0.5,0.6-1,1.1-1.7,1.6s-1.5,0.8-2.4,1.1c-0.9,0.3-1.9,0.4-3.1,0.4v-2.8c1.6,0,2.8-0.3,3.8-0.8s1.7-1.4,2.1-2.5
		c-0.4,0.3-0.9,0.5-1.4,0.7c-0.5,0.1-1,0.2-1.7,0.2c-0.7,0-1.3-0.1-1.9-0.3c-0.6-0.2-1.1-0.5-1.5-0.8c-0.4-0.4-0.8-0.9-1-1.4
		s-0.4-1.3-0.4-2c0-0.8,0.1-1.5,0.4-2.1c0.3-0.6,0.7-1.1,1.2-1.5c0.5-0.4,1.1-0.7,1.8-0.9c0.7-0.2,1.4-0.3,2.2-0.3
		c0.7,0,1.4,0.1,2.1,0.3c0.7,0.2,1.2,0.6,1.7,1s0.9,1.1,1.1,1.8S34,265.3,34,266.3z M31.2,265.3c0-0.7-0.2-1.2-0.7-1.6
		c-0.5-0.4-1.1-0.6-2-0.6c-0.9,0-1.6,0.2-2.1,0.6c-0.5,0.4-0.7,0.9-0.7,1.6c0,0.7,0.2,1.3,0.7,1.6c0.5,0.3,1.1,0.5,2,0.5
		c0.9,0,1.6-0.2,2.1-0.5C30.9,266.6,31.2,266,31.2,265.3z"/>
	<path id="XMLID_9_" class="st2" d="M20.4,292.8l-2.4-1.7l0.2,3h-2l0.2-3l-2.4,1.7l-1-1.8l2.7-1.3l-2.7-1.3l1-1.9l2.4,1.7l-0.2-3h2
		l-0.2,3l2.4-1.7l1,1.9l-2.8,1.3l2.8,1.3L20.4,292.8z"/>
	<path id="XMLID_7_" class="st2" d="M30.1,292.8l-2.4-1.7l0.2,3h-2l0.2-3l-2.4,1.7l-1-1.8l2.7-1.3l-2.7-1.3l1-1.9l2.4,1.7l-0.2-3h2
		l-0.2,3l2.4-1.7l1,1.9l-2.8,1.3l2.8,1.3L30.1,292.8z"/>
</g>
<g id="XMLID_1_">
	<path id="XMLID_4_" class="st2" d="M62.7,112.8c0-1.2,0.2-2.3,0.5-3.2c0.3-0.9,0.8-1.7,1.4-2.3c0.6-0.7,1.2-1.2,2-1.7
		c0.7-0.5,1.5-0.9,2.4-1.3c0.6-0.3,1-0.5,1.2-0.8c0.2-0.3,0.3-0.6,0.3-0.9c0-0.4-0.2-0.7-0.5-1c-0.3-0.3-0.9-0.4-1.7-0.4
		s-1.5,0.2-2.2,0.5c-0.6,0.3-1.2,0.7-1.7,1.2l-1.7-2.1c0.7-0.8,1.5-1.4,2.5-1.8c0.9-0.4,1.9-0.6,3-0.6c1.6,0,2.8,0.3,3.7,1
		c0.9,0.7,1.3,1.7,1.3,3.1c0,0.6-0.1,1.1-0.2,1.5c-0.1,0.4-0.4,0.8-0.7,1.1s-0.7,0.6-1.1,0.9c-0.4,0.3-0.9,0.6-1.5,0.8
		c-0.6,0.3-1.1,0.6-1.5,0.8s-0.8,0.5-1.1,0.8c-0.3,0.3-0.5,0.5-0.7,0.8c-0.2,0.3-0.3,0.5-0.3,0.8h7.2v2.7H62.7z"/>
	<path id="XMLID_2_" class="st2" d="M86,108.4c0,0.8-0.1,1.4-0.4,2c-0.3,0.6-0.7,1.1-1.1,1.4c-0.5,0.4-1.1,0.7-1.8,0.9
		s-1.5,0.3-2.3,0.3c-1,0-2-0.2-2.9-0.7c-0.9-0.4-1.7-1.1-2.5-2.1l2-1.7c0.6,0.6,1.1,1.1,1.7,1.3c0.6,0.3,1.2,0.4,1.9,0.4
		c0.9,0,1.5-0.2,2-0.5s0.6-0.8,0.6-1.3c0-0.6-0.2-1-0.5-1.2c-0.3-0.3-0.8-0.4-1.5-0.4h-1.6V104h1.4c0.6,0,1-0.1,1.2-0.4
		c0.2-0.2,0.4-0.6,0.4-1.1c0-0.2,0-0.4-0.1-0.5c-0.1-0.2-0.2-0.3-0.4-0.5s-0.4-0.2-0.7-0.3c-0.3-0.1-0.6-0.1-1.1-0.1
		c-1,0-1.9,0.4-2.6,1.2l-2-1.9c0.6-0.7,1.3-1.2,2.1-1.6c0.7-0.3,1.6-0.5,2.6-0.5c0.7,0,1.3,0.1,1.9,0.3c0.6,0.2,1.1,0.4,1.6,0.8
		s0.8,0.8,1.1,1.3c0.3,0.5,0.4,1.1,0.4,1.8c0,0.8-0.2,1.4-0.5,1.9c-0.3,0.5-0.7,0.8-1.1,1c0.2,0.1,0.5,0.2,0.7,0.4
		c0.2,0.2,0.5,0.4,0.7,0.6s0.4,0.6,0.5,0.9S86,107.9,86,108.4z"/>
</g>
</svg>
