<!-- Generator: Adobe Illustrator 22.1.0, SVG Export Plug-In  -->
<svg version="1.1"
	 xmlns="http://www.w3.org/2000/svg" xmlns:xlink="http://www.w3.org/1999/xlink" xmlns:a="http://ns.adobe.com/AdobeSVGViewerExtensions/3.0/"
	 x="0px" y="0px" width="411px" height="30.7px" viewBox="0 0 411 30.7" style="enable-background:new 0 0 411 30.7;"
	 xml:space="preserve">
<style type="text/css">
	.st0{fill:#266093;}
</style>
<defs>
</defs>
<g id="XMLID_1_">
	<g id="XMLID_3_">
		<path id="XMLID_63_" class="st0" d="M4.7,5.5v4.4h7v4.5h-7v9.8H0V1h16.7v4.6H4.7z"/>
		<path id="XMLID_61_" class="st0" d="M19.7,24.3v-22L24.3,0v24.3H19.7z"/>
		<path id="XMLID_58_" class="st0" d="M42.6,15.6c0,0.3,0,0.6,0,0.8c0,0.2,0,0.4-0.1,0.6H32c0,0.6,0.2,1.1,0.4,1.5
			c0.2,0.4,0.5,0.8,0.8,1c0.3,0.3,0.7,0.4,1.1,0.6s0.8,0.2,1.3,0.2c0.6,0,1.2-0.1,1.7-0.3c0.5-0.2,0.9-0.5,1.3-0.9l3.3,2.7
			c-0.7,0.9-1.6,1.6-2.8,2.1c-1.1,0.5-2.3,0.7-3.5,0.7c-1.3,0-2.4-0.2-3.4-0.7s-1.9-1-2.6-1.8c-0.7-0.8-1.3-1.7-1.6-2.9
			c-0.4-1.1-0.6-2.4-0.6-3.8c0-1.3,0.2-2.6,0.6-3.7c0.4-1.1,1-2.1,1.7-2.9c0.7-0.8,1.5-1.4,2.5-1.9c0.9-0.4,2-0.7,3.1-0.7
			c1.2,0,2.2,0.2,3.1,0.7c0.9,0.5,1.7,1.1,2.3,2c0.6,0.8,1.1,1.8,1.4,2.9C42.4,13.1,42.6,14.3,42.6,15.6z M38.1,13.6
			c0-0.4-0.1-0.8-0.3-1.1c-0.1-0.4-0.3-0.7-0.6-1c-0.3-0.3-0.6-0.5-1-0.7c-0.4-0.2-0.8-0.3-1.3-0.3c-0.8,0-1.5,0.3-2,0.9
			c-0.5,0.6-0.8,1.3-0.9,2.2H38.1z"/>
		<path id="XMLID_56_" class="st0" d="M56.4,24.3l-1.8-2.9c-0.3-0.5-0.6-1-0.9-1.6c-0.3-0.5-0.5-0.9-0.7-1.3
			c-0.2,0.3-0.4,0.8-0.7,1.3c-0.3,0.5-0.6,1-0.9,1.6l-1.8,2.9h-5.5l6.2-9.5l-5.3-8h5.5l0.8,1.4c0.3,0.5,0.6,1,0.9,1.6
			c0.3,0.5,0.5,1,0.7,1.3c0.2-0.3,0.4-0.8,0.7-1.3c0.3-0.5,0.6-1,0.9-1.6l0.8-1.4h5.5l-5.3,8l6.2,9.5H56.4z"/>
		<path id="XMLID_53_" class="st0" d="M69.4,2.7c0,0.7-0.3,1.3-0.8,1.9s-1.1,0.8-1.8,0.8c-0.7,0-1.3-0.3-1.9-0.8
			c-0.5-0.5-0.8-1.1-0.8-1.9c0-0.7,0.3-1.3,0.8-1.8c0.5-0.5,1.1-0.8,1.9-0.8c0.7,0,1.3,0.3,1.8,0.8S69.4,2,69.4,2.7z M64.4,24.3V6.8
			H69v17.5H64.4z"/>
		<path id="XMLID_50_" class="st0" d="M88.2,15.8c0,1.3-0.2,2.5-0.5,3.6c-0.3,1.1-0.7,2-1.3,2.8c-0.6,0.8-1.3,1.4-2.1,1.8
			s-1.8,0.7-2.9,0.7c-0.8,0-1.5-0.1-2.1-0.4s-1.2-0.6-1.6-1v1h-4.6v-22L77.7,0v7.9c0.4-0.4,1-0.7,1.6-1c0.6-0.3,1.3-0.5,2.2-0.5
			c0.9,0,1.8,0.2,2.6,0.5s1.5,0.9,2.2,1.7c0.6,0.8,1.1,1.7,1.5,2.9C88,12.7,88.2,14.1,88.2,15.8z M83.5,15.9c0-1.8-0.3-3.1-0.8-3.9
			c-0.5-0.8-1.3-1.2-2.2-1.2c-0.7,0-1.3,0.1-1.7,0.4s-0.8,0.6-1.1,1.1v6.6c0.7,1,1.8,1.5,3.1,1.5C82.6,20.3,83.5,18.8,83.5,15.9z"/>
		<path id="XMLID_48_" class="st0" d="M91.4,24.3v-22L96,0v24.3H91.4z"/>
		<path id="XMLID_45_" class="st0" d="M114.4,15.6c0,0.3,0,0.6,0,0.8c0,0.2,0,0.4-0.1,0.6h-10.5c0,0.6,0.2,1.1,0.4,1.5
			c0.2,0.4,0.5,0.8,0.8,1c0.3,0.3,0.7,0.4,1.1,0.6s0.8,0.2,1.3,0.2c0.6,0,1.2-0.1,1.7-0.3c0.5-0.2,0.9-0.5,1.3-0.9l3.3,2.7
			c-0.7,0.9-1.6,1.6-2.8,2.1c-1.1,0.5-2.3,0.7-3.5,0.7c-1.3,0-2.4-0.2-3.4-0.7s-1.9-1-2.6-1.8c-0.7-0.8-1.3-1.7-1.6-2.9
			c-0.4-1.1-0.6-2.4-0.6-3.8c0-1.3,0.2-2.6,0.6-3.7c0.4-1.1,1-2.1,1.7-2.9c0.7-0.8,1.5-1.4,2.5-1.9c0.9-0.4,2-0.7,3.1-0.7
			c1.2,0,2.2,0.2,3.1,0.7c0.9,0.5,1.7,1.1,2.3,2c0.6,0.8,1.1,1.8,1.4,2.9C114.2,13.1,114.4,14.3,114.4,15.6z M109.9,13.6
			c0-0.4-0.1-0.8-0.3-1.1c-0.1-0.4-0.3-0.7-0.6-1c-0.3-0.3-0.6-0.5-1-0.7c-0.4-0.2-0.8-0.3-1.3-0.3c-0.8,0-1.5,0.3-2,0.9
			c-0.5,0.6-0.8,1.3-0.9,2.2H109.9z"/>
		<path id="XMLID_43_" class="st0" d="M137.2,5.6v18.7h-4.7V5.6h-6.7V1h18.1v4.6H137.2z"/>
		<path id="XMLID_41_" class="st0" d="M163.7,24.3h-3.8l-1.7-6.9c-0.1-0.3-0.2-0.7-0.3-1.1s-0.2-0.8-0.3-1.2s-0.2-0.7-0.3-1.1
			c-0.1-0.3-0.1-0.6-0.2-0.8c0,0.2-0.1,0.5-0.2,0.8c-0.1,0.3-0.1,0.7-0.2,1.1c-0.1,0.4-0.2,0.8-0.3,1.2c-0.1,0.4-0.2,0.8-0.3,1.1
			l-1.7,6.9h-3.8l-5-17.5h4.7l1.5,6.5c0.1,0.3,0.1,0.7,0.2,1.1s0.2,0.8,0.3,1.1c0.1,0.4,0.1,0.7,0.2,1c0.1,0.3,0.1,0.6,0.2,0.8
			c0.1-0.4,0.2-1.1,0.4-1.8s0.4-1.5,0.6-2.2l1.7-6.5h3.8l1.7,6.5c0.2,0.7,0.4,1.4,0.5,2.2s0.3,1.4,0.4,1.8c0-0.2,0.1-0.5,0.1-0.8
			c0.1-0.3,0.1-0.7,0.2-1c0.1-0.4,0.2-0.7,0.3-1.1s0.2-0.7,0.2-1.1l1.5-6.5h4.5L163.7,24.3z"/>
		<path id="XMLID_38_" class="st0" d="M176.4,2.7c0,0.7-0.3,1.3-0.8,1.9s-1.1,0.8-1.8,0.8c-0.7,0-1.3-0.3-1.9-0.8
			c-0.5-0.5-0.8-1.1-0.8-1.9c0-0.7,0.3-1.3,0.8-1.8c0.5-0.5,1.1-0.8,1.9-0.8c0.7,0,1.3,0.3,1.8,0.8S176.4,2,176.4,2.7z M171.4,24.3
			V6.8h4.6v17.5H171.4z"/>
		<path id="XMLID_36_" class="st0" d="M193.2,22.4c-0.5,0.5-1,0.9-1.6,1.2c-0.6,0.4-1.2,0.6-1.9,0.8c-0.7,0.2-1.5,0.3-2.3,0.3
			c-1.1,0-2.2-0.2-3.2-0.7c-1-0.4-1.9-1.1-2.6-1.9c-0.7-0.8-1.3-1.8-1.8-2.9c-0.4-1.1-0.6-2.4-0.6-3.7c0-1.3,0.2-2.6,0.6-3.7
			c0.4-1.1,1-2.1,1.8-2.9c0.7-0.8,1.6-1.4,2.7-1.9c1-0.4,2.1-0.7,3.4-0.7c1.7,0,3.1,0.4,4.2,1.1s2,1.6,2.8,2.8l-3,3.1
			c-0.5-0.7-1.1-1.3-1.7-1.8c-0.6-0.5-1.4-0.7-2.3-0.7c-1.1,0-2,0.4-2.7,1.3c-0.7,0.9-1,2-1,3.5c0,1.4,0.3,2.5,1,3.4
			c0.7,0.9,1.5,1.3,2.7,1.3c0.9,0,1.7-0.2,2.3-0.6c0.6-0.4,1.2-0.9,1.8-1.7l2.9,2.8C194.1,21.4,193.7,21.9,193.2,22.4z"/>
		<path id="XMLID_33_" class="st0" d="M211.7,15.6c0,0.3,0,0.6,0,0.8c0,0.2,0,0.4-0.1,0.6h-10.5c0,0.6,0.2,1.1,0.4,1.5
			c0.2,0.4,0.5,0.8,0.8,1c0.3,0.3,0.7,0.4,1.1,0.6s0.8,0.2,1.3,0.2c0.6,0,1.2-0.1,1.7-0.3c0.5-0.2,0.9-0.5,1.3-0.9l3.3,2.7
			c-0.7,0.9-1.6,1.6-2.8,2.1c-1.1,0.5-2.3,0.7-3.5,0.7c-1.3,0-2.4-0.2-3.4-0.7s-1.9-1-2.6-1.8c-0.7-0.8-1.3-1.7-1.6-2.9
			c-0.4-1.1-0.6-2.4-0.6-3.8c0-1.3,0.2-2.6,0.6-3.7c0.4-1.1,1-2.1,1.7-2.9c0.7-0.8,1.5-1.4,2.5-1.9c0.9-0.4,2-0.7,3.1-0.7
			c1.2,0,2.2,0.2,3.1,0.7c0.9,0.5,1.7,1.1,2.3,2c0.6,0.8,1.1,1.8,1.4,2.9C211.5,13.1,211.7,14.3,211.7,15.6z M207.2,13.6
			c0-0.4-0.1-0.8-0.3-1.1c-0.1-0.4-0.3-0.7-0.6-1c-0.3-0.3-0.6-0.5-1-0.7c-0.4-0.2-0.8-0.3-1.3-0.3c-0.8,0-1.5,0.3-2,0.9
			c-0.5,0.6-0.8,1.3-0.9,2.2H207.2z"/>
		<path id="XMLID_30_" class="st0" d="M243.6,12.6c0,2-0.3,3.8-1,5.3c-0.7,1.5-1.6,2.7-2.7,3.6c-1.1,0.9-2.4,1.6-3.8,2.1
			c-1.4,0.4-2.9,0.7-4.4,0.7h-7V1h7.3c1.7,0,3.2,0.2,4.6,0.6c1.4,0.4,2.6,1.1,3.7,2c1,0.9,1.8,2.1,2.4,3.6
			C243.3,8.7,243.6,10.5,243.6,12.6z M238.8,12.6c0-2.4-0.5-4.2-1.6-5.4c-1.1-1.2-2.9-1.8-5.3-1.8h-2.5v14.3h2.3
			c1.2,0,2.3-0.2,3.2-0.5c0.9-0.3,1.6-0.8,2.2-1.5c0.6-0.6,1-1.4,1.3-2.3S238.8,13.7,238.8,12.6z"/>
		<path id="XMLID_27_" class="st0" d="M256.5,24.3v-1.2c-0.4,0.4-1,0.8-1.7,1.1c-0.7,0.3-1.4,0.4-2.3,0.4s-1.6-0.1-2.4-0.4
			c-0.8-0.3-1.5-0.6-2.1-1.2c-0.6-0.5-1.1-1.2-1.5-1.9c-0.4-0.8-0.6-1.7-0.6-2.8c0-1,0.2-1.8,0.5-2.5c0.4-0.7,0.9-1.3,1.5-1.8
			c0.6-0.5,1.4-0.8,2.3-1.1c0.9-0.2,1.8-0.4,2.8-0.4c0.8,0,1.5,0.1,2,0.2c0.5,0.1,1,0.3,1.4,0.5v-0.9c0-0.6-0.2-1.2-0.6-1.6
			c-0.4-0.4-1-0.7-1.9-0.7c-0.5,0-1,0-1.4,0.1s-0.8,0.1-1.2,0.2c-0.4,0.1-0.7,0.2-1.1,0.3c-0.4,0.1-0.7,0.3-1.1,0.5l-1.8-3.2
			c0.5-0.3,1-0.5,1.5-0.8c0.5-0.2,1-0.4,1.5-0.5s1.1-0.3,1.7-0.3c0.6-0.1,1.2-0.1,1.9-0.1c1.1,0,2,0.1,2.9,0.4s1.6,0.7,2.2,1.2
			c0.6,0.5,1.1,1.2,1.5,1.9s0.5,1.6,0.5,2.6v11.7H256.5z M256.5,17c-0.4-0.2-0.8-0.4-1.3-0.5c-0.5-0.1-1.1-0.2-1.9-0.2
			c-0.9,0-1.5,0.2-2,0.6c-0.5,0.4-0.7,0.9-0.7,1.6c0,0.6,0.2,1.2,0.6,1.6c0.4,0.5,1.1,0.7,2.1,0.7c0.8,0,1.4-0.2,2-0.5
			c0.6-0.3,1-0.7,1.2-1.1V17z"/>
		<path id="XMLID_24_" class="st0" d="M270,2.7c0,0.7-0.3,1.3-0.8,1.9s-1.1,0.8-1.8,0.8c-0.7,0-1.3-0.3-1.9-0.8
			c-0.5-0.5-0.8-1.1-0.8-1.9c0-0.7,0.3-1.3,0.8-1.8c0.5-0.5,1.1-0.8,1.9-0.8c0.7,0,1.3,0.3,1.8,0.8S270,2,270,2.7z M265,24.3V6.8
			h4.6v17.5H265z"/>
		<path id="XMLID_22_" class="st0" d="M273.9,24.3v-22l4.6-2.3v24.3H273.9z"/>
		<path id="XMLID_20_" class="st0" d="M290.1,30.5h-4.5l2.3-6.2l-6.8-17.5h5.1l2.9,8.4c0.2,0.7,0.5,1.4,0.7,2.1s0.4,1.3,0.5,1.7
			c0.1-0.4,0.3-1,0.5-1.7c0.2-0.7,0.4-1.4,0.7-2.1l2.9-8.4h4.9L290.1,30.5z"/>
		<path id="XMLID_17_" class="st0" d="M330.4,12.6c0,2-0.3,3.8-1,5.3c-0.7,1.5-1.6,2.7-2.7,3.6c-1.1,0.9-2.4,1.6-3.8,2.1
			c-1.4,0.4-2.9,0.7-4.4,0.7h-7V1h7.3c1.7,0,3.2,0.2,4.6,0.6c1.4,0.4,2.6,1.1,3.7,2c1,0.9,1.8,2.1,2.4,3.6
			C330.1,8.7,330.4,10.5,330.4,12.6z M325.6,12.6c0-2.4-0.5-4.2-1.6-5.4c-1.1-1.2-2.9-1.8-5.3-1.8h-2.5v14.3h2.3
			c1.2,0,2.3-0.2,3.2-0.5c0.9-0.3,1.6-0.8,2.2-1.5c0.6-0.6,1-1.4,1.3-2.3S325.6,13.7,325.6,12.6z"/>
		<path id="XMLID_14_" class="st0" d="M348.7,15.6c0,1.3-0.2,2.6-0.6,3.7c-0.4,1.1-1,2.1-1.7,2.9s-1.5,1.4-2.5,1.9
			c-1,0.4-2,0.7-3.2,0.7c-1.1,0-2.2-0.2-3.2-0.7s-1.8-1.1-2.5-1.9s-1.3-1.8-1.7-2.9c-0.4-1.1-0.6-2.4-0.6-3.7c0-1.3,0.2-2.6,0.6-3.7
			c0.4-1.1,1-2.1,1.7-2.9c0.7-0.8,1.5-1.4,2.5-1.9c1-0.4,2-0.7,3.2-0.7c1.1,0,2.2,0.2,3.2,0.7c1,0.4,1.8,1.1,2.5,1.9
			c0.7,0.8,1.3,1.8,1.7,2.9C348.5,13,348.7,14.2,348.7,15.6z M344,15.6c0-1.3-0.3-2.5-0.8-3.4c-0.5-0.9-1.4-1.4-2.5-1.4
			s-1.9,0.4-2.5,1.3c-0.5,0.9-0.8,2-0.8,3.4s0.3,2.5,0.8,3.4c0.5,0.9,1.3,1.3,2.5,1.3c0.6,0,1-0.1,1.5-0.4c0.4-0.3,0.8-0.6,1-1
			s0.5-0.9,0.6-1.5C344,16.8,344,16.2,344,15.6z"/>
		<path id="XMLID_12_" class="st0" d="M365.5,19.2c0,1-0.2,1.8-0.6,2.5s-0.9,1.3-1.5,1.7c-0.6,0.4-1.4,0.7-2.3,0.9
			c-0.9,0.2-1.8,0.3-2.8,0.3c-1.4,0-2.7-0.2-4-0.6c-1.3-0.4-2.4-0.9-3.3-1.5l1.5-3.5c0.9,0.5,1.9,0.9,2.9,1.2c1,0.3,2.1,0.4,3.2,0.4
			c0.9,0,1.5-0.1,1.9-0.3c0.3-0.2,0.5-0.6,0.5-1c0-0.4-0.2-0.7-0.5-1c-0.4-0.2-1-0.5-2-0.8c-1-0.3-2-0.6-2.9-1
			c-0.9-0.3-1.6-0.7-2.2-1.1c-0.6-0.4-1.1-1-1.4-1.6c-0.3-0.6-0.5-1.4-0.5-2.3c0-0.9,0.2-1.7,0.5-2.3c0.3-0.7,0.8-1.2,1.5-1.6
			c0.6-0.4,1.4-0.7,2.2-0.9s1.8-0.3,2.8-0.3c1.1,0,2.2,0.2,3.4,0.5c1.1,0.3,2.2,0.7,3.1,1.2l-1.5,3.6c-0.9-0.5-1.8-0.8-2.7-1.1
			c-0.9-0.2-1.7-0.3-2.5-0.3c-0.9,0-1.6,0.1-1.9,0.3c-0.3,0.2-0.5,0.5-0.5,0.9c0,0.2,0,0.3,0.1,0.5s0.3,0.3,0.5,0.4s0.6,0.3,1.1,0.5
			c0.5,0.2,1.1,0.4,1.9,0.6c0.8,0.3,1.5,0.5,2.2,0.8c0.7,0.3,1.3,0.6,1.9,1.1c0.5,0.4,1,0.9,1.3,1.6
			C365.4,17.6,365.5,18.3,365.5,19.2z"/>
		<path id="XMLID_9_" class="st0" d="M374.1,2.7c0,0.7-0.3,1.3-0.8,1.9s-1.1,0.8-1.8,0.8c-0.7,0-1.3-0.3-1.9-0.8
			c-0.5-0.5-0.8-1.1-0.8-1.9c0-0.7,0.3-1.3,0.8-1.8c0.5-0.5,1.1-0.8,1.9-0.8c0.7,0,1.3,0.3,1.8,0.8S374.1,2,374.1,2.7z M369.2,24.3
			V6.8h4.6v17.5H369.2z"/>
		<path id="XMLID_7_" class="st0" d="M388.4,24.3v-9.5c0-1.6-0.3-2.6-0.8-3.2c-0.5-0.6-1.2-0.9-2.2-0.9c-1,0-1.7,0.3-2.2,0.8
			c-0.5,0.6-0.8,1.6-0.8,3.1v9.6h-4.6V6.8h4.6V8c0.4-0.4,1-0.8,1.7-1.1c0.7-0.3,1.5-0.5,2.5-0.5c2.2,0,3.9,0.7,4.9,2.2
			c1,1.4,1.6,3.4,1.6,5.9v9.9H388.4z"/>
		<path id="XMLID_4_" class="st0" d="M411,21.3c0,1.4-0.1,2.7-0.3,3.8c-0.2,1.1-0.6,2-1.2,2.8s-1.3,1.4-2.3,1.9
			c-1,0.5-2.2,0.8-3.8,0.9l-1.6-3.5c0.9-0.1,1.6-0.3,2.2-0.5s1.1-0.4,1.4-0.7s0.6-0.7,0.7-1.2c0.1-0.5,0.2-1,0.2-1.7
			c-0.4,0.4-1,0.7-1.5,1c-0.6,0.3-1.3,0.5-2.2,0.5c-0.9,0-1.8-0.2-2.6-0.5c-0.8-0.4-1.5-0.9-2.2-1.7c-0.6-0.8-1.1-1.7-1.5-2.9
			c-0.4-1.2-0.5-2.6-0.5-4.2c0-1.3,0.1-2.5,0.4-3.6c0.3-1.1,0.7-2,1.3-2.8c0.6-0.8,1.3-1.4,2.1-1.8c0.8-0.4,1.8-0.6,2.9-0.6
			c0.8,0,1.5,0.1,2.1,0.4c0.6,0.3,1.2,0.6,1.6,1v-1h4.6V21.3z M406.4,12.3c-0.7-1-1.8-1.5-3.1-1.5c-1.8,0-2.7,1.5-2.7,4.5
			c0,1.8,0.3,3.1,0.8,3.9c0.5,0.8,1.3,1.2,2.2,1.2c0.7,0,1.3-0.1,1.7-0.4c0.4-0.3,0.8-0.6,1.1-1.1V12.3z"/>
	</g>
</g>
</svg>
