<!-- Generator: Adobe Illustrator 22.1.0, SVG Export Plug-In  -->
<svg version="1.1"
	 xmlns="http://www.w3.org/2000/svg" xmlns:xlink="http://www.w3.org/1999/xlink" xmlns:a="http://ns.adobe.com/AdobeSVGViewerExtensions/3.0/"
	 x="0px" y="0px" width="1024px" height="92px" viewBox="0 0 1024 92" style="enable-background:new 0 0 1024 92;"
	 xml:space="preserve">
<style type="text/css">
	.st0{fill:#532D6D;}
	.st1{fill:#FFFFFF;}
	.st2{font-family:'Guillon-Regular';}
	.st3{font-size:9.0398px;}
	.st4{font-family:'Guillon-Demi';}
</style>
<defs>
</defs>
<rect id="XMLID_235_" class="st0" width="1024" height="92"/>
<path id="XMLID_234_" class="st1" d="M75.4,37.2c-2.8,0-5,0.9-6.7,2.7V25h-9.1v40.3h9.1v-15c0-1.5,0.4-2.8,1.1-3.7
	c0.7-0.9,1.7-1.3,2.9-1.3c2.4,0,3.5,1.4,3.5,4.4v15.6h9.1V47.8c0-3.4-1-6.1-2.9-7.9C80.5,38.1,78.1,37.2,75.4,37.2"/>
<rect id="XMLID_233_" x="89.1" y="38.8" class="st1" width="8.8" height="26.5"/>
<polygon id="XMLID_232_" class="st1" points="127.6,38.8 117.2,38.8 110.8,47.4 110.8,26.2 102,26.2 102,65.3 110.8,65.3 110.8,56 
	117.1,65.3 128.2,65.3 117.3,51.5 "/>
<path id="XMLID_231_" class="st1" d="M165.6,40.7c-1.9-1.7-4.1-2.6-6.7-2.6c-1.7,0-3.2,0.4-4.5,1.1c-1.1,0.6-2,1.4-2.7,2.5
	c-0.7-1-1.6-1.9-2.8-2.5c-1.3-0.7-2.8-1.1-4.4-1.1c-2.7,0-4.9,0.9-6.5,2.8v-2h-8.2v26.5h8.8V50.7c0-1.5,0.3-2.7,0.9-3.5
	c0.6-0.8,1.4-1.2,2.4-1.2c2.6,0,2.9,2.2,2.9,3.9v15.3h8.8V50.5c0-1.4,0.3-2.5,0.9-3.3c0.6-0.8,1.4-1.1,2.4-1.1
	c2.5,0,2.8,2.2,2.8,3.9v15.3h8.8v-17C168.4,45,167.5,42.4,165.6,40.7"/>
<path id="XMLID_228_" class="st1" d="M185.6,58.7c-1.5,0-2.7-0.6-3.7-1.8c-1-1.2-1.5-2.8-1.5-4.8c0-1.9,0.5-3.5,1.5-4.7
	c1-1.2,2.2-1.7,3.7-1.7c1.5,0,2.8,0.6,3.8,1.8c1,1.2,1.5,2.8,1.5,4.7c0,2-0.5,3.6-1.5,4.8C188.3,58.1,187.1,58.7,185.6,58.7
	 M190.3,40.2c-1.8-1.4-4-2.2-6.6-2.2c-3.6,0-6.5,1.3-8.8,3.9c-2.3,2.6-3.4,6-3.4,10.1c0,4.1,1.1,7.5,3.4,10.1
	c2.3,2.6,5.2,3.9,8.8,3.9c2.8,0,5.2-0.9,7-2.6v1.9h8.4V38.8h-8.8V40.2z"/>
<path id="XMLID_227_" class="st1" d="M98.5,30.3c0,2.7-2.2,5-5,5c-2.7,0-5-2.2-5-5s2.2-5,5-5C96.3,25.4,98.5,27.6,98.5,30.3"/>
<path id="XMLID_226_" class="st1" d="M211.9,61c0,2.7-2.2,5-5,5c-2.7,0-5-2.2-5-5c0-2.7,2.2-5,5-5C209.7,56.1,211.9,58.3,211.9,61"
	/>
<g id="XMLID_143_">
	<path id="XMLID_224_" class="st1" d="M816.7,32.4h-0.6v-4.8h-1.2v-0.5h0.7c0.2,0,0.3,0,0.4-0.1c0.1-0.1,0.2-0.2,0.2-0.4l0-0.6h0.5
		V32.4z"/>
	<path id="XMLID_222_" class="st1" d="M822.1,32.4h-3.9v-0.6l1.9-1.9c0.4-0.4,0.7-0.8,0.9-1.2c0.2-0.4,0.3-0.7,0.3-1.1
		c0-0.4-0.1-0.7-0.3-0.9c-0.2-0.3-0.6-0.4-1-0.4c-0.4,0-0.7,0.1-0.9,0.4c-0.2,0.3-0.3,0.6-0.3,1c0,0.1,0,0.2,0,0.3
		c0,0.1,0,0.2,0,0.3l-0.6,0c0-0.1,0-0.2,0-0.3c0-0.1,0-0.2,0-0.3c0-0.6,0.2-1,0.5-1.4c0.4-0.3,0.8-0.5,1.3-0.5c0.6,0,1,0.2,1.4,0.5
		s0.5,0.8,0.5,1.3c0,0.5-0.1,0.9-0.4,1.3c-0.3,0.4-0.6,0.8-1,1.2l-1.6,1.5h3.2V32.4z"/>
	<path id="XMLID_220_" class="st1" d="M825.4,32.4V26h3.9v0.6h-3.3v2.3h3.1v0.5h-3.1v2.4h3.4v0.6H825.4z"/>
	<path id="XMLID_218_" class="st1" d="M830.4,32.4V26h0.6v6.4H830.4z"/>
	<path id="XMLID_216_" class="st1" d="M832.4,30.1v-0.5h2.4v0.5H832.4z"/>
	<path id="XMLID_214_" class="st1" d="M836.3,32.4V26h3.9v0.6h-3.3v2.3h3.1v0.5h-3.1v2.4h3.4v0.6H836.3z"/>
	<path id="XMLID_212_" class="st1" d="M841,31.4l0.4-0.3c0.2,0.3,0.4,0.5,0.7,0.6s0.5,0.2,0.9,0.2c0.3,0,0.6-0.1,0.8-0.2
		c0.2-0.2,0.3-0.3,0.3-0.5c0-0.2-0.1-0.3-0.2-0.5s-0.3-0.2-0.6-0.3l-0.7-0.2c-0.4-0.1-0.7-0.3-0.9-0.5s-0.3-0.5-0.3-0.8
		c0-0.3,0.1-0.6,0.4-0.8c0.3-0.3,0.6-0.4,1.1-0.4c0.4,0,0.7,0.1,0.9,0.2c0.3,0.2,0.5,0.3,0.7,0.6l-0.4,0.3c-0.1-0.2-0.3-0.3-0.5-0.4
		c-0.2-0.1-0.4-0.2-0.7-0.2c-0.3,0-0.5,0.1-0.7,0.2c-0.2,0.1-0.2,0.3-0.2,0.5c0,0.2,0.1,0.4,0.2,0.5s0.3,0.2,0.6,0.3l0.7,0.2
		c0.4,0.1,0.7,0.3,0.9,0.5c0.2,0.2,0.3,0.5,0.3,0.8c0,0.3-0.1,0.6-0.4,0.9c-0.3,0.3-0.7,0.4-1.2,0.4c-0.5,0-0.8-0.1-1.2-0.3
		C841.5,32,841.2,31.7,841,31.4z"/>
	<path id="XMLID_210_" class="st1" d="M846.2,32.4h-0.6v-4.5h0.5v0.9c0.1-0.3,0.3-0.5,0.6-0.7c0.3-0.2,0.6-0.3,1-0.3l0,0.6
		c-0.5,0-0.8,0.1-1.1,0.4c-0.3,0.3-0.5,0.7-0.5,1.2V32.4z"/>
	<path id="XMLID_207_" class="st1" d="M851.6,32.4v-0.8c-0.2,0.3-0.4,0.5-0.7,0.6c-0.3,0.2-0.7,0.2-1,0.2c-0.4,0-0.7-0.1-1-0.3
		c-0.3-0.2-0.4-0.5-0.4-0.9c0-0.5,0.2-0.9,0.7-1.2c0.5-0.3,1.1-0.5,2-0.5h0.4v-0.2c0-0.4-0.1-0.7-0.3-0.9s-0.5-0.3-0.9-0.3
		c-0.3,0-0.5,0-0.7,0.1c-0.2,0.1-0.5,0.2-0.7,0.4l-0.4-0.4c0.2-0.2,0.5-0.4,0.8-0.5c0.3-0.1,0.6-0.2,1-0.2c0.5,0,0.9,0.1,1.3,0.4
		c0.3,0.3,0.5,0.7,0.5,1.3v2.9H851.6z M849.9,32c0.3,0,0.7-0.1,1-0.4c0.4-0.2,0.6-0.6,0.6-1.1v-0.5h-0.4c-0.8,0-1.3,0.1-1.7,0.3
		c-0.3,0.2-0.5,0.5-0.5,0.8c0,0.2,0.1,0.4,0.2,0.6C849.4,31.9,849.6,32,849.9,32z"/>
	<path id="XMLID_204_" class="st1" d="M856.3,32.4v-0.8c-0.2,0.3-0.4,0.5-0.7,0.6c-0.3,0.2-0.7,0.2-1,0.2c-0.4,0-0.7-0.1-1-0.3
		c-0.3-0.2-0.4-0.5-0.4-0.9c0-0.5,0.2-0.9,0.7-1.2c0.5-0.3,1.1-0.5,2-0.5h0.4v-0.2c0-0.4-0.1-0.7-0.3-0.9s-0.5-0.3-0.9-0.3
		c-0.3,0-0.5,0-0.7,0.1c-0.2,0.1-0.5,0.2-0.7,0.4l-0.4-0.4c0.2-0.2,0.5-0.4,0.8-0.5c0.3-0.1,0.6-0.2,1-0.2c0.5,0,0.9,0.1,1.3,0.4
		c0.3,0.3,0.5,0.7,0.5,1.3v2.9H856.3z M854.6,32c0.3,0,0.7-0.1,1-0.4c0.4-0.2,0.6-0.6,0.6-1.1v-0.5h-0.4c-0.8,0-1.3,0.1-1.7,0.3
		c-0.3,0.2-0.5,0.5-0.5,0.8c0,0.2,0.1,0.4,0.2,0.6C854.1,31.9,854.3,32,854.6,32z"/>
	<path id="XMLID_202_" class="st1" d="M859.6,31.1l0.5-0.4c0.2,0.4,0.5,0.7,0.9,0.9c0.3,0.2,0.7,0.3,1.2,0.3c0.5,0,0.8-0.1,1.1-0.3
		c0.3-0.2,0.4-0.5,0.4-0.8c0-0.3-0.1-0.5-0.3-0.8s-0.5-0.4-0.9-0.5l-0.9-0.3c-0.5-0.2-0.8-0.4-1.1-0.7c-0.2-0.3-0.4-0.6-0.4-1
		c0-0.4,0.2-0.8,0.5-1.1c0.3-0.3,0.8-0.5,1.4-0.5c0.4,0,0.8,0.1,1.1,0.2c0.3,0.2,0.6,0.4,0.9,0.7l-0.4,0.4c-0.2-0.3-0.4-0.5-0.7-0.6
		c-0.3-0.1-0.6-0.2-0.9-0.2c-0.4,0-0.7,0.1-1,0.3c-0.2,0.2-0.3,0.5-0.3,0.8c0,0.2,0.1,0.5,0.3,0.7c0.2,0.2,0.4,0.4,0.8,0.5l0.9,0.3
		c0.5,0.2,0.9,0.4,1.2,0.7c0.3,0.3,0.4,0.7,0.4,1.1c0,0.5-0.2,0.9-0.5,1.2c-0.4,0.4-0.9,0.5-1.6,0.5c-0.5,0-1-0.1-1.4-0.3
		C860.3,31.9,859.9,31.6,859.6,31.1z"/>
	<path id="XMLID_200_" class="st1" d="M867.4,32.4c-0.1,0-0.2,0-0.3,0.1c-0.1,0-0.2,0-0.3,0c-0.5,0-0.8-0.1-1-0.4
		c-0.2-0.3-0.4-0.7-0.4-1.2v-2.6h-0.8v-0.5h0.8v-1.5h0.6v1.5h1.4v0.5H866v2.6c0,0.4,0.1,0.6,0.2,0.8c0.2,0.2,0.4,0.2,0.6,0.2
		c0.1,0,0.2,0,0.2,0c0.1,0,0.2,0,0.2,0L867.4,32.4z"/>
	<path id="XMLID_198_" class="st1" d="M868.2,33.5l0.4-1.9h0.6l-0.5,1.9H868.2z"/>
	<path id="XMLID_195_" class="st1" d="M872,30.1c0-0.7,0.2-1.3,0.6-1.7c0.4-0.4,0.9-0.7,1.5-0.7c0.6,0,1.1,0.2,1.5,0.7
		c0.4,0.4,0.6,1,0.6,1.7s-0.2,1.3-0.6,1.7c-0.4,0.4-0.9,0.7-1.5,0.7c-0.6,0-1.1-0.2-1.5-0.7C872.2,31.4,872,30.8,872,30.1z
		 M872.6,30.1c0,0.5,0.1,1,0.4,1.3c0.3,0.3,0.7,0.5,1.1,0.5s0.8-0.2,1.1-0.5c0.3-0.3,0.4-0.8,0.4-1.3c0-0.5-0.1-1-0.4-1.3
		s-0.7-0.5-1.1-0.5s-0.8,0.2-1.1,0.5C872.7,29.1,872.6,29.6,872.6,30.1z"/>
	<path id="XMLID_193_" class="st1" d="M879.3,28.3H878v4h-0.6v-4h-0.6v-0.5h0.6v-0.5c0-0.5,0.1-0.8,0.4-1.1c0.2-0.3,0.6-0.4,1-0.4
		c0.1,0,0.2,0,0.3,0c0.1,0,0.2,0,0.3,0.1l-0.1,0.5c-0.1,0-0.1,0-0.2,0c-0.1,0-0.2,0-0.3,0c-0.3,0-0.5,0.1-0.6,0.2
		c-0.1,0.2-0.2,0.4-0.2,0.7v0.5h1.2V28.3z"/>
	<path id="XMLID_191_" class="st1" d="M882,32.4V26h0.6v5.9h2.9v0.6H882z"/>
	<path id="XMLID_188_" class="st1" d="M890.1,31.5c-0.2,0.3-0.5,0.5-0.8,0.7s-0.7,0.3-1.1,0.3c-0.6,0-1.1-0.2-1.5-0.7
		c-0.4-0.4-0.6-1-0.6-1.7s0.2-1.3,0.6-1.7c0.4-0.4,0.9-0.7,1.5-0.7c0.6,0,1.1,0.2,1.4,0.7c0.4,0.4,0.5,1,0.5,1.6v0.2h-3.5
		c0,0.5,0.2,0.9,0.5,1.3c0.3,0.3,0.7,0.5,1.1,0.5c0.3,0,0.5-0.1,0.8-0.2s0.5-0.3,0.6-0.6L890.1,31.5z M888.2,28.2
		c-0.4,0-0.7,0.1-1,0.4c-0.3,0.3-0.4,0.6-0.5,1.1h2.9c0-0.4-0.2-0.8-0.4-1.1C888.9,28.4,888.6,28.2,888.2,28.2z"/>
	<path id="XMLID_185_" class="st1" d="M893.5,32.5c-0.4,0-0.7-0.1-1-0.2c-0.3-0.2-0.5-0.4-0.7-0.7v0.8h-0.5V26h0.6v2.7
		c0.2-0.3,0.4-0.5,0.7-0.6c0.3-0.2,0.6-0.2,0.9-0.2c0.6,0,1.1,0.2,1.5,0.7c0.4,0.4,0.6,1,0.6,1.7s-0.2,1.3-0.6,1.7
		C894.5,32.2,894.1,32.5,893.5,32.5z M891.8,30.1c0,0.5,0.1,1,0.4,1.3c0.3,0.3,0.7,0.5,1.1,0.5c0.4,0,0.8-0.2,1.1-0.5
		s0.4-0.8,0.4-1.3c0-0.5-0.1-1-0.4-1.3s-0.7-0.5-1.1-0.5c-0.5,0-0.8,0.2-1.1,0.5C892,29.1,891.8,29.6,891.8,30.1z"/>
	<path id="XMLID_182_" class="st1" d="M899.4,32.4v-0.8c-0.2,0.3-0.4,0.5-0.7,0.6c-0.3,0.2-0.7,0.2-1,0.2c-0.4,0-0.7-0.1-1-0.3
		c-0.3-0.2-0.4-0.5-0.4-0.9c0-0.5,0.2-0.9,0.7-1.2c0.5-0.3,1.1-0.5,2-0.5h0.4v-0.2c0-0.4-0.1-0.7-0.3-0.9s-0.5-0.3-0.9-0.3
		c-0.3,0-0.5,0-0.7,0.1c-0.2,0.1-0.5,0.2-0.7,0.4l-0.4-0.4c0.2-0.2,0.5-0.4,0.8-0.5c0.3-0.1,0.6-0.2,1-0.2c0.5,0,0.9,0.1,1.3,0.4
		c0.3,0.3,0.5,0.7,0.5,1.3v2.9H899.4z M897.8,32c0.3,0,0.7-0.1,1-0.4c0.4-0.2,0.6-0.6,0.6-1.1v-0.5H899c-0.8,0-1.3,0.1-1.7,0.3
		c-0.3,0.2-0.5,0.5-0.5,0.8c0,0.2,0.1,0.4,0.2,0.6C897.3,31.9,897.5,32,897.8,32z"/>
	<path id="XMLID_180_" class="st1" d="M902,30v2.3h-0.6v-4.5h0.5v0.9c0.1-0.3,0.3-0.5,0.6-0.7c0.3-0.2,0.6-0.3,0.9-0.3
		c0.5,0,0.9,0.2,1.2,0.5c0.3,0.3,0.5,0.8,0.5,1.4v2.8h-0.6v-2.7c0-0.5-0.1-0.8-0.3-1s-0.5-0.4-0.8-0.4c-0.4,0-0.7,0.2-1,0.5
		S902,29.5,902,30z"/>
	<path id="XMLID_177_" class="st1" d="M906.2,30.1c0-0.7,0.2-1.3,0.6-1.7c0.4-0.4,0.9-0.7,1.5-0.7c0.6,0,1.1,0.2,1.5,0.7
		c0.4,0.4,0.6,1,0.6,1.7s-0.2,1.3-0.6,1.7c-0.4,0.4-0.9,0.7-1.5,0.7c-0.6,0-1.1-0.2-1.5-0.7C906.4,31.4,906.2,30.8,906.2,30.1z
		 M906.8,30.1c0,0.5,0.1,1,0.4,1.3c0.3,0.3,0.7,0.5,1.1,0.5s0.8-0.2,1.1-0.5c0.3-0.3,0.4-0.8,0.4-1.3c0-0.5-0.1-1-0.4-1.3
		s-0.7-0.5-1.1-0.5s-0.8,0.2-1.1,0.5C906.9,29.1,906.8,29.6,906.8,30.1z"/>
	<path id="XMLID_175_" class="st1" d="M912.2,30v2.3h-0.6v-4.5h0.5v0.9c0.1-0.3,0.3-0.5,0.6-0.7c0.3-0.2,0.6-0.3,0.9-0.3
		c0.5,0,0.9,0.2,1.2,0.5c0.3,0.3,0.5,0.8,0.5,1.4v2.8h-0.6v-2.7c0-0.5-0.1-0.8-0.3-1s-0.5-0.4-0.8-0.4c-0.4,0-0.7,0.2-1,0.5
		S912.2,29.5,912.2,30z"/>
	<path id="XMLID_173_" class="st1" d="M918.4,31.1l0.5-0.4c0.2,0.4,0.5,0.7,0.9,0.9c0.3,0.2,0.7,0.3,1.2,0.3c0.5,0,0.8-0.1,1.1-0.3
		c0.3-0.2,0.4-0.5,0.4-0.8c0-0.3-0.1-0.5-0.3-0.8s-0.5-0.4-0.9-0.5l-0.9-0.3c-0.5-0.2-0.8-0.4-1.1-0.7c-0.2-0.3-0.4-0.6-0.4-1
		c0-0.4,0.2-0.8,0.5-1.1c0.3-0.3,0.8-0.5,1.4-0.5c0.4,0,0.8,0.1,1.1,0.2c0.3,0.2,0.6,0.4,0.9,0.7l-0.4,0.4c-0.2-0.3-0.4-0.5-0.7-0.6
		c-0.3-0.1-0.6-0.2-0.9-0.2c-0.4,0-0.7,0.1-1,0.3c-0.2,0.2-0.3,0.5-0.3,0.8c0,0.2,0.1,0.5,0.3,0.7c0.2,0.2,0.4,0.4,0.8,0.5l0.9,0.3
		c0.5,0.2,0.9,0.4,1.2,0.7c0.3,0.3,0.4,0.7,0.4,1.1c0,0.5-0.2,0.9-0.5,1.2c-0.4,0.4-0.9,0.5-1.6,0.5c-0.5,0-1-0.1-1.4-0.3
		C919,31.9,918.7,31.6,918.4,31.1z"/>
	<path id="XMLID_171_" class="st1" d="M926.3,32.4c-0.1,0-0.2,0-0.3,0.1c-0.1,0-0.2,0-0.3,0c-0.5,0-0.8-0.1-1-0.4
		c-0.2-0.3-0.4-0.7-0.4-1.2v-2.6h-0.8v-0.5h0.8v-1.5h0.6v1.5h1.4v0.5h-1.4v2.6c0,0.4,0.1,0.6,0.2,0.8c0.2,0.2,0.4,0.2,0.6,0.2
		c0.1,0,0.2,0,0.2,0c0.1,0,0.2,0,0.2,0L926.3,32.4z"/>
	<path id="XMLID_169_" class="st1" d="M927,33.5l0.4-1.9h0.6l-0.5,1.9H927z"/>
	<path id="XMLID_167_" class="st1" d="M936.5,31.5c-0.3,0.3-0.7,0.5-1.1,0.7c-0.4,0.2-0.8,0.2-1.3,0.2c-0.9,0-1.7-0.3-2.2-0.9
		c-0.6-0.6-0.9-1.4-0.9-2.4c0-1,0.3-1.8,0.8-2.4c0.6-0.6,1.3-0.9,2.2-0.9c0.5,0,1,0.1,1.3,0.3s0.7,0.5,1,0.8l-0.5,0.4
		c-0.2-0.3-0.5-0.5-0.8-0.7c-0.3-0.2-0.7-0.3-1.1-0.3c-0.7,0-1.3,0.3-1.8,0.8c-0.4,0.5-0.7,1.2-0.7,2c0,0.8,0.2,1.5,0.7,2
		c0.5,0.5,1.1,0.8,1.8,0.8c0.4,0,0.7-0.1,1-0.2c0.3-0.1,0.5-0.3,0.8-0.5v-1.6h-1.8v-0.6h2.4V31.5z"/>
	<path id="XMLID_164_" class="st1" d="M937.7,26.3c0-0.1,0-0.2,0.1-0.3s0.2-0.1,0.3-0.1c0.1,0,0.2,0,0.3,0.1
		c0.1,0.1,0.1,0.2,0.1,0.3c0,0.1,0,0.2-0.1,0.3c-0.1,0.1-0.2,0.1-0.3,0.1c-0.1,0-0.2,0-0.3-0.1C937.7,26.6,937.7,26.5,937.7,26.3z
		 M937.8,32.4v-4.5h0.6v4.5H937.8z"/>
	<path id="XMLID_162_" class="st1" d="M942.8,32.4h-3.4V32l2.6-3.7h-2.5v-0.5h3.3v0.4l-2.6,3.7h2.6V32.4z"/>
	<path id="XMLID_159_" class="st1" d="M946.6,32.4v-0.8c-0.2,0.3-0.4,0.5-0.7,0.6c-0.3,0.2-0.7,0.2-1,0.2c-0.4,0-0.7-0.1-1-0.3
		c-0.3-0.2-0.4-0.5-0.4-0.9c0-0.5,0.2-0.9,0.7-1.2c0.5-0.3,1.1-0.5,2-0.5h0.4v-0.2c0-0.4-0.1-0.7-0.3-0.9s-0.5-0.3-0.9-0.3
		c-0.3,0-0.5,0-0.7,0.1c-0.2,0.1-0.5,0.2-0.7,0.4l-0.4-0.4c0.2-0.2,0.5-0.4,0.8-0.5c0.3-0.1,0.6-0.2,1-0.2c0.5,0,0.9,0.1,1.3,0.4
		c0.3,0.3,0.5,0.7,0.5,1.3v2.9H946.6z M945,32c0.3,0,0.7-0.1,1-0.4c0.4-0.2,0.6-0.6,0.6-1.1v-0.5h-0.4c-0.8,0-1.3,0.1-1.7,0.3
		c-0.3,0.2-0.5,0.5-0.5,0.8c0,0.2,0.1,0.4,0.2,0.6C944.5,31.9,944.7,32,945,32z"/>
	<path id="XMLID_157_" class="st1" d="M950.4,30.1v-0.5h2.4v0.5H950.4z"/>
	<path id="XMLID_155_" class="st1" d="M956.1,32.4V26h3.9v0.6h-3.3v2.3h3.1v0.5h-3.1v2.4h3.4v0.6H956.1z"/>
	<path id="XMLID_151_" class="st1" d="M965.1,33c0,0.4-0.2,0.8-0.6,1c-0.4,0.2-0.9,0.3-1.6,0.3c-0.6,0-1.1-0.1-1.5-0.3
		c-0.4-0.2-0.6-0.5-0.6-0.9c0-0.2,0.1-0.4,0.2-0.6s0.3-0.3,0.4-0.5c-0.1-0.1-0.3-0.2-0.3-0.3c-0.1-0.1-0.1-0.3-0.1-0.4
		c0-0.2,0.1-0.3,0.2-0.5c0.1-0.2,0.3-0.3,0.5-0.4c-0.1-0.1-0.2-0.3-0.3-0.5s-0.1-0.4-0.1-0.6c0-0.5,0.2-0.9,0.5-1.2s0.8-0.5,1.2-0.5
		c0.2,0,0.4,0,0.6,0.1c0.2,0.1,0.4,0.2,0.5,0.3c0.1-0.2,0.2-0.3,0.4-0.4c0.2-0.1,0.4-0.1,0.6-0.1l0,0.5c-0.2,0-0.3,0-0.5,0.1
		c-0.1,0.1-0.2,0.2-0.2,0.3c0.1,0.1,0.2,0.3,0.2,0.4c0.1,0.2,0.1,0.3,0.1,0.5c0,0.5-0.2,0.8-0.5,1.2c-0.3,0.3-0.8,0.5-1.2,0.5
		c-0.2,0-0.3,0-0.5-0.1c-0.2,0-0.3-0.1-0.4-0.2c-0.2,0.1-0.3,0.1-0.3,0.2c-0.1,0.1-0.1,0.2-0.1,0.3c0,0.2,0.1,0.3,0.2,0.4
		c0.1,0.1,0.4,0.1,0.7,0.1h1.2c0.4,0,0.8,0.1,1.1,0.3C965,32.3,965.1,32.6,965.1,33z M962.9,33.9c0.5,0,0.8-0.1,1.1-0.2
		s0.5-0.4,0.5-0.7c0-0.2-0.1-0.4-0.3-0.5c-0.2-0.1-0.4-0.2-0.7-0.2l-1.2,0c-0.1,0-0.2,0-0.2,0s-0.1,0-0.2,0
		c-0.2,0.1-0.3,0.2-0.4,0.4c-0.1,0.1-0.1,0.3-0.1,0.4c0,0.3,0.1,0.5,0.4,0.6S962.5,33.9,962.9,33.9z M961.7,29.4
		c0,0.3,0.1,0.6,0.3,0.8c0.2,0.2,0.5,0.3,0.9,0.3c0.3,0,0.6-0.1,0.9-0.3c0.2-0.2,0.3-0.5,0.3-0.8c0-0.3-0.1-0.6-0.3-0.8
		c-0.2-0.2-0.5-0.3-0.9-0.3c-0.3,0-0.6,0.1-0.9,0.3S961.7,29.1,961.7,29.4z"/>
	<path id="XMLID_149_" class="st1" d="M967.3,34.3h-0.6l0.8-2l-1.8-4.5h0.6l1.5,3.8l1.4-3.8h0.6L967.3,34.3z"/>
	<path id="XMLID_146_" class="st1" d="M972.9,32.5c-0.3,0-0.7-0.1-0.9-0.2c-0.3-0.2-0.5-0.4-0.7-0.6v2.7h-0.6v-6.4h0.5v0.8
		c0.2-0.3,0.4-0.5,0.7-0.7c0.3-0.2,0.6-0.3,1-0.3c0.6,0,1.1,0.2,1.5,0.7c0.4,0.4,0.6,1,0.6,1.7s-0.2,1.3-0.6,1.7
		C974,32.2,973.5,32.5,972.9,32.5z M971.3,30.1c0,0.5,0.1,1,0.4,1.3c0.3,0.3,0.7,0.5,1.1,0.5c0.4,0,0.8-0.2,1.1-0.5s0.4-0.8,0.4-1.3
		c0-0.5-0.1-1-0.4-1.3s-0.7-0.5-1.1-0.5c-0.5,0-0.8,0.2-1.1,0.5C971.4,29.1,971.3,29.6,971.3,30.1z"/>
	<path id="XMLID_144_" class="st1" d="M978.2,32.4c-0.1,0-0.2,0-0.3,0.1c-0.1,0-0.2,0-0.3,0c-0.5,0-0.8-0.1-1-0.4
		c-0.2-0.3-0.4-0.7-0.4-1.2v-2.6h-0.8v-0.5h0.8v-1.5h0.6v1.5h1.4v0.5h-1.4v2.6c0,0.4,0.1,0.6,0.2,0.8c0.2,0.2,0.4,0.2,0.6,0.2
		c0.1,0,0.2,0,0.2,0c0.1,0,0.2,0,0.2,0L978.2,32.4z"/>
</g>
<text id="XMLID_142_" transform="matrix(1 0 0 1 814.6475 43.2155)" class="st1 st2 st3">T  </text>
<g id="XMLID_66_">
	<path id="XMLID_140_" class="st1" d="M824.4,40.5c0-0.8,0.1-1.6,0.4-2.3c0.3-0.7,0.7-1.4,1.2-2.1l0.4,0.3c-0.5,0.6-0.8,1.3-1.1,2
		c-0.2,0.7-0.4,1.4-0.4,2.2c0,0.7,0.1,1.4,0.4,2.2c0.2,0.7,0.6,1.4,1.1,2L826,45c-0.5-0.7-0.9-1.4-1.2-2.1
		C824.5,42.1,824.4,41.3,824.4,40.5z"/>
	<path id="XMLID_138_" class="st1" d="M826.8,40.5V40h1.4v-1.5h0.6V40h1.4v0.5h-1.4V42h-0.6v-1.5H826.8z"/>
	<path id="XMLID_136_" class="st1" d="M834.8,43.2h-3.9v-0.6l1.9-1.9c0.4-0.4,0.7-0.8,0.9-1.2c0.2-0.4,0.3-0.7,0.3-1.1
		c0-0.4-0.1-0.7-0.3-0.9c-0.2-0.3-0.6-0.4-1-0.4c-0.4,0-0.7,0.1-0.9,0.4c-0.2,0.3-0.3,0.6-0.3,1c0,0.1,0,0.2,0,0.3
		c0,0.1,0,0.2,0,0.3l-0.6,0c0-0.1,0-0.2,0-0.3c0-0.1,0-0.2,0-0.3c0-0.6,0.2-1,0.5-1.4c0.4-0.3,0.8-0.5,1.3-0.5c0.6,0,1,0.2,1.4,0.5
		s0.5,0.8,0.5,1.3c0,0.5-0.1,0.9-0.4,1.3c-0.3,0.4-0.6,0.8-1,1.2l-1.6,1.5h3.2V43.2z"/>
	<path id="XMLID_134_" class="st1" d="M835.6,36.1c0.5,0.7,0.9,1.4,1.2,2.1c0.3,0.7,0.4,1.5,0.4,2.3c0,0.8-0.1,1.6-0.4,2.3
		c-0.3,0.7-0.7,1.4-1.2,2.1l-0.4-0.3c0.5-0.6,0.8-1.3,1.1-2s0.4-1.4,0.4-2.2c0-0.7-0.1-1.4-0.4-2.2c-0.2-0.7-0.6-1.4-1.1-2
		L835.6,36.1z"/>
	<path id="XMLID_131_" class="st1" d="M840.3,40c0-1,0.2-1.8,0.6-2.4c0.4-0.6,1-0.9,1.7-0.9c0.7,0,1.3,0.3,1.7,0.9
		c0.4,0.6,0.6,1.4,0.6,2.4s-0.2,1.8-0.6,2.4s-1,0.9-1.7,0.9c-0.7,0-1.3-0.3-1.7-0.9C840.6,41.9,840.3,41,840.3,40z M841,40
		c0,0.9,0.2,1.6,0.5,2c0.3,0.5,0.7,0.7,1.3,0.7c0.5,0,1-0.2,1.3-0.7c0.3-0.5,0.5-1.2,0.5-2c0-0.9-0.2-1.6-0.5-2
		c-0.3-0.5-0.7-0.7-1.3-0.7c-0.5,0-1,0.2-1.3,0.7C841.1,38.4,841,39.1,841,40z"/>
	<path id="XMLID_129_" class="st1" d="M849.8,43.2h-3.9v-0.6l1.9-1.9c0.4-0.4,0.7-0.8,0.9-1.2c0.2-0.4,0.3-0.7,0.3-1.1
		c0-0.4-0.1-0.7-0.3-0.9c-0.2-0.3-0.6-0.4-1-0.4c-0.4,0-0.7,0.1-0.9,0.4c-0.2,0.3-0.3,0.6-0.3,1c0,0.1,0,0.2,0,0.3
		c0,0.1,0,0.2,0,0.3l-0.6,0c0-0.1,0-0.2,0-0.3c0-0.1,0-0.2,0-0.3c0-0.6,0.2-1,0.5-1.4c0.4-0.3,0.8-0.5,1.3-0.5c0.6,0,1,0.2,1.4,0.5
		s0.5,0.8,0.5,1.3c0,0.5-0.1,0.9-0.4,1.3c-0.3,0.4-0.6,0.8-1,1.2l-1.6,1.5h3.2V43.2z"/>
	<path id="XMLID_127_" class="st1" d="M854.3,43.3c-0.5,0-0.9-0.1-1.3-0.4s-0.7-0.7-0.8-1.3l0.6-0.1c0.1,0.4,0.3,0.7,0.5,1
		c0.3,0.2,0.6,0.3,1,0.3c0.4,0,0.8-0.1,1.1-0.4c0.3-0.2,0.4-0.5,0.4-0.9c0-0.3-0.1-0.6-0.4-0.9s-0.7-0.4-1.3-0.4h-0.5v-0.5h0.5
		c0.6,0,0.9-0.1,1.2-0.4s0.3-0.5,0.3-0.9c0-0.3-0.1-0.6-0.3-0.8c-0.2-0.2-0.5-0.3-0.9-0.3c-0.4,0-0.7,0.1-0.9,0.3
		c-0.3,0.2-0.4,0.6-0.5,1.1l-0.6-0.1c0.1-0.7,0.3-1.1,0.7-1.4c0.4-0.3,0.8-0.4,1.3-0.4c0.5,0,0.9,0.2,1.3,0.5
		c0.4,0.3,0.5,0.7,0.5,1.2c0,0.3-0.1,0.6-0.2,0.9c-0.2,0.3-0.4,0.5-0.7,0.6c0.4,0.1,0.6,0.3,0.8,0.6c0.2,0.3,0.3,0.6,0.3,1
		c0,0.5-0.2,1-0.6,1.3S854.9,43.3,854.3,43.3z"/>
	<path id="XMLID_125_" class="st1" d="M859.3,43.3c-0.5,0-0.9-0.1-1.3-0.4s-0.7-0.7-0.8-1.3l0.6-0.1c0.1,0.4,0.3,0.7,0.5,1
		c0.3,0.2,0.6,0.3,1,0.3c0.4,0,0.8-0.1,1.1-0.4c0.3-0.2,0.4-0.5,0.4-0.9c0-0.3-0.1-0.6-0.4-0.9s-0.7-0.4-1.3-0.4h-0.5v-0.5h0.5
		c0.6,0,0.9-0.1,1.2-0.4s0.3-0.5,0.3-0.9c0-0.3-0.1-0.6-0.3-0.8c-0.2-0.2-0.5-0.3-0.9-0.3c-0.4,0-0.7,0.1-0.9,0.3
		c-0.3,0.2-0.4,0.6-0.5,1.1l-0.6-0.1c0.1-0.7,0.3-1.1,0.7-1.4c0.4-0.3,0.8-0.4,1.3-0.4c0.5,0,0.9,0.2,1.3,0.5
		c0.4,0.3,0.5,0.7,0.5,1.2c0,0.3-0.1,0.6-0.2,0.9c-0.2,0.3-0.4,0.5-0.7,0.6c0.4,0.1,0.6,0.3,0.8,0.6c0.2,0.3,0.3,0.6,0.3,1
		c0,0.5-0.2,1-0.6,1.3S859.9,43.3,859.3,43.3z"/>
	<path id="XMLID_122_" class="st1" d="M862.4,40c0-1,0.2-1.8,0.6-2.4c0.4-0.6,1-0.9,1.7-0.9c0.7,0,1.3,0.3,1.7,0.9
		c0.4,0.6,0.6,1.4,0.6,2.4s-0.2,1.8-0.6,2.4s-1,0.9-1.7,0.9c-0.7,0-1.3-0.3-1.7-0.9C862.6,41.9,862.4,41,862.4,40z M863,40
		c0,0.9,0.2,1.6,0.5,2c0.3,0.5,0.7,0.7,1.3,0.7c0.5,0,1-0.2,1.3-0.7c0.3-0.5,0.5-1.2,0.5-2c0-0.9-0.2-1.6-0.5-2
		c-0.3-0.5-0.7-0.7-1.3-0.7c-0.5,0-1,0.2-1.3,0.7C863.1,38.4,863,39.1,863,40z"/>
	<path id="XMLID_119_" class="st1" d="M874,41.8h-1v1.4h-0.6v-1.4h-2.9v-0.6l2.9-4.4h0.6v4.4h1V41.8z M870.1,41.2h2.3v-3.5
		L870.1,41.2z"/>
	<path id="XMLID_117_" class="st1" d="M874.1,37.3v-0.6h3.9v0.4l-2.5,6.1h-0.7l2.5-5.9H874.1z"/>
	<path id="XMLID_114_" class="st1" d="M880.5,43.2h-0.9c0.6-0.4,1.2-0.9,1.6-1.4c0.4-0.5,0.7-1,0.9-1.5c-0.2,0.2-0.5,0.3-0.7,0.4
		c-0.3,0.1-0.5,0.1-0.7,0.1c-0.5,0-1-0.2-1.4-0.6c-0.4-0.4-0.6-0.9-0.6-1.5c0-0.6,0.2-1.1,0.6-1.5c0.4-0.4,0.9-0.6,1.5-0.6
		c0.6,0,1.1,0.2,1.5,0.6s0.6,0.9,0.6,1.6c0,0.9-0.3,1.8-0.8,2.5C881.6,42.2,881,42.8,880.5,43.2z M879.2,38.8c0,0.5,0.1,0.8,0.4,1.1
		c0.3,0.3,0.6,0.4,1,0.4c0.5,0,0.9-0.1,1.2-0.4s0.5-0.6,0.5-1.1c0-0.5-0.1-0.8-0.4-1.1c-0.3-0.3-0.7-0.4-1.1-0.4
		c-0.5,0-0.8,0.1-1.1,0.4C879.3,38,879.2,38.3,879.2,38.8z"/>
	<path id="XMLID_112_" class="st1" d="M887.9,43.3c-0.5,0-1-0.2-1.4-0.5s-0.6-0.7-0.8-1.2l0.6-0.2c0.1,0.4,0.3,0.7,0.6,0.9
		c0.3,0.2,0.6,0.3,1,0.3c0.4,0,0.8-0.1,1.1-0.4c0.3-0.3,0.5-0.7,0.5-1.2c0-0.5-0.1-0.9-0.4-1.2c-0.3-0.3-0.7-0.5-1.1-0.5
		c-0.3,0-0.6,0.1-0.9,0.2s-0.4,0.3-0.6,0.6l-0.5-0.1l0.4-3.4h3.3v0.6h-2.8l-0.3,2.1c0.2-0.2,0.4-0.3,0.6-0.4
		c0.3-0.1,0.5-0.1,0.8-0.1c0.6,0,1.1,0.2,1.5,0.6c0.4,0.4,0.6,0.9,0.6,1.5c0,0.6-0.2,1.2-0.6,1.6C889,43.1,888.5,43.3,887.9,43.3z"
		/>
	<path id="XMLID_110_" class="st1" d="M893,43.3c-0.5,0-0.9-0.1-1.3-0.4s-0.7-0.7-0.8-1.3l0.6-0.1c0.1,0.4,0.3,0.7,0.5,1
		c0.3,0.2,0.6,0.3,1,0.3c0.4,0,0.8-0.1,1.1-0.4c0.3-0.2,0.4-0.5,0.4-0.9c0-0.3-0.1-0.6-0.4-0.9s-0.7-0.4-1.3-0.4h-0.5v-0.5h0.5
		c0.6,0,0.9-0.1,1.2-0.4s0.3-0.5,0.3-0.9c0-0.3-0.1-0.6-0.3-0.8c-0.2-0.2-0.5-0.3-0.9-0.3c-0.4,0-0.7,0.1-0.9,0.3
		c-0.3,0.2-0.4,0.6-0.5,1.1l-0.6-0.1c0.1-0.7,0.3-1.1,0.7-1.4c0.4-0.3,0.8-0.4,1.3-0.4c0.5,0,0.9,0.2,1.3,0.5
		c0.4,0.3,0.5,0.7,0.5,1.2c0,0.3-0.1,0.6-0.2,0.9c-0.2,0.3-0.4,0.5-0.7,0.6c0.4,0.1,0.6,0.3,0.8,0.6c0.2,0.3,0.3,0.6,0.3,1
		c0,0.5-0.2,1-0.6,1.3S893.6,43.3,893,43.3z"/>
	<path id="XMLID_108_" class="st1" d="M895.5,44.7l2.8-8.5h0.6l-2.8,8.5H895.5z"/>
	<path id="XMLID_106_" class="st1" d="M899.8,40.5c0-0.8,0.1-1.6,0.4-2.3c0.3-0.7,0.7-1.4,1.2-2.1l0.4,0.3c-0.5,0.6-0.8,1.3-1.1,2
		c-0.2,0.7-0.4,1.4-0.4,2.2c0,0.7,0.1,1.4,0.4,2.2c0.2,0.7,0.6,1.4,1.1,2l-0.4,0.3c-0.5-0.7-0.9-1.4-1.2-2.1
		C899.9,42.1,899.8,41.3,899.8,40.5z"/>
	<path id="XMLID_104_" class="st1" d="M902.1,40.5V40h1.4v-1.5h0.6V40h1.4v0.5h-1.4V42h-0.6v-1.5H902.1z"/>
	<path id="XMLID_102_" class="st1" d="M910.1,43.2h-3.9v-0.6l1.9-1.9c0.4-0.4,0.7-0.8,0.9-1.2c0.2-0.4,0.3-0.7,0.3-1.1
		c0-0.4-0.1-0.7-0.3-0.9c-0.2-0.3-0.6-0.4-1-0.4c-0.4,0-0.7,0.1-0.9,0.4c-0.2,0.3-0.3,0.6-0.3,1c0,0.1,0,0.2,0,0.3
		c0,0.1,0,0.2,0,0.3l-0.6,0c0-0.1,0-0.2,0-0.3c0-0.1,0-0.2,0-0.3c0-0.6,0.2-1,0.5-1.4c0.4-0.3,0.8-0.5,1.3-0.5c0.6,0,1,0.2,1.4,0.5
		s0.5,0.8,0.5,1.3c0,0.5-0.1,0.9-0.4,1.3c-0.3,0.4-0.6,0.8-1,1.2l-1.6,1.5h3.2V43.2z"/>
	<path id="XMLID_100_" class="st1" d="M911,36.1c0.5,0.7,0.9,1.4,1.2,2.1c0.3,0.7,0.4,1.5,0.4,2.3c0,0.8-0.1,1.6-0.4,2.3
		c-0.3,0.7-0.7,1.4-1.2,2.1l-0.4-0.3c0.5-0.6,0.8-1.3,1.1-2s0.4-1.4,0.4-2.2c0-0.7-0.1-1.4-0.4-2.2c-0.2-0.7-0.6-1.4-1.1-2L911,36.1
		z"/>
	<path id="XMLID_97_" class="st1" d="M915.7,40c0-1,0.2-1.8,0.6-2.4c0.4-0.6,1-0.9,1.7-0.9c0.7,0,1.3,0.3,1.7,0.9
		c0.4,0.6,0.6,1.4,0.6,2.4s-0.2,1.8-0.6,2.4s-1,0.9-1.7,0.9c-0.7,0-1.3-0.3-1.7-0.9C915.9,41.9,915.7,41,915.7,40z M916.3,40
		c0,0.9,0.2,1.6,0.5,2c0.3,0.5,0.7,0.7,1.3,0.7c0.5,0,1-0.2,1.3-0.7c0.3-0.5,0.5-1.2,0.5-2c0-0.9-0.2-1.6-0.5-2
		c-0.3-0.5-0.7-0.7-1.3-0.7c-0.5,0-1,0.2-1.3,0.7C916.5,38.4,916.3,39.1,916.3,40z"/>
	<path id="XMLID_95_" class="st1" d="M925.2,43.2h-3.9v-0.6l1.9-1.9c0.4-0.4,0.7-0.8,0.9-1.2c0.2-0.4,0.3-0.7,0.3-1.1
		c0-0.4-0.1-0.7-0.3-0.9c-0.2-0.3-0.6-0.4-1-0.4c-0.4,0-0.7,0.1-0.9,0.4c-0.2,0.3-0.3,0.6-0.3,1c0,0.1,0,0.2,0,0.3
		c0,0.1,0,0.2,0,0.3l-0.6,0c0-0.1,0-0.2,0-0.3c0-0.1,0-0.2,0-0.3c0-0.6,0.2-1,0.5-1.4c0.4-0.3,0.8-0.5,1.3-0.5c0.6,0,1,0.2,1.4,0.5
		s0.5,0.8,0.5,1.3c0,0.5-0.1,0.9-0.4,1.3c-0.3,0.4-0.6,0.8-1,1.2l-1.6,1.5h3.2V43.2z"/>
	<path id="XMLID_93_" class="st1" d="M929.7,43.3c-0.5,0-0.9-0.1-1.3-0.4s-0.7-0.7-0.8-1.3l0.6-0.1c0.1,0.4,0.3,0.7,0.5,1
		c0.3,0.2,0.6,0.3,1,0.3c0.4,0,0.8-0.1,1.1-0.4c0.3-0.2,0.4-0.5,0.4-0.9c0-0.3-0.1-0.6-0.4-0.9s-0.7-0.4-1.3-0.4h-0.5v-0.5h0.5
		c0.6,0,0.9-0.1,1.2-0.4s0.3-0.5,0.3-0.9c0-0.3-0.1-0.6-0.3-0.8c-0.2-0.2-0.5-0.3-0.9-0.3c-0.4,0-0.7,0.1-0.9,0.3
		c-0.3,0.2-0.4,0.6-0.5,1.1l-0.6-0.1c0.1-0.7,0.3-1.1,0.7-1.4c0.4-0.3,0.8-0.4,1.3-0.4c0.5,0,0.9,0.2,1.3,0.5
		c0.4,0.3,0.5,0.7,0.5,1.2c0,0.3-0.1,0.6-0.2,0.9c-0.2,0.3-0.4,0.5-0.7,0.6c0.4,0.1,0.6,0.3,0.8,0.6c0.2,0.3,0.3,0.6,0.3,1
		c0,0.5-0.2,1-0.6,1.3S930.3,43.3,929.7,43.3z"/>
	<path id="XMLID_91_" class="st1" d="M934.7,43.3c-0.5,0-0.9-0.1-1.3-0.4s-0.7-0.7-0.8-1.3l0.6-0.1c0.1,0.4,0.3,0.7,0.5,1
		c0.3,0.2,0.6,0.3,1,0.3c0.4,0,0.8-0.1,1.1-0.4c0.3-0.2,0.4-0.5,0.4-0.9c0-0.3-0.1-0.6-0.4-0.9s-0.7-0.4-1.3-0.4h-0.5v-0.5h0.5
		c0.6,0,0.9-0.1,1.2-0.4s0.3-0.5,0.3-0.9c0-0.3-0.1-0.6-0.3-0.8c-0.2-0.2-0.5-0.3-0.9-0.3c-0.4,0-0.7,0.1-0.9,0.3
		c-0.3,0.2-0.4,0.6-0.5,1.1l-0.6-0.1c0.1-0.7,0.3-1.1,0.7-1.4c0.4-0.3,0.8-0.4,1.3-0.4c0.5,0,0.9,0.2,1.3,0.5
		c0.4,0.3,0.5,0.7,0.5,1.2c0,0.3-0.1,0.6-0.2,0.9c-0.2,0.3-0.4,0.5-0.7,0.6c0.4,0.1,0.6,0.3,0.8,0.6c0.2,0.3,0.3,0.6,0.3,1
		c0,0.5-0.2,1-0.6,1.3S935.3,43.3,934.7,43.3z"/>
	<path id="XMLID_88_" class="st1" d="M942,41.8h-1v1.4h-0.6v-1.4h-2.9v-0.6l2.9-4.4h0.6v4.4h1V41.8z M938.1,41.2h2.3v-3.5
		L938.1,41.2z"/>
	<path id="XMLID_85_" class="st1" d="M948.6,41.8h-1v1.4H947v-1.4h-2.9v-0.6l2.9-4.4h0.6v4.4h1V41.8z M944.7,41.2h2.3v-3.5
		L944.7,41.2z"/>
	<path id="XMLID_81_" class="st1" d="M951.5,43.3c-0.7,0-1.2-0.2-1.6-0.6c-0.4-0.4-0.6-0.8-0.6-1.3c0-0.4,0.1-0.7,0.3-1
		s0.5-0.5,0.8-0.7c-0.3-0.2-0.5-0.4-0.7-0.6c-0.2-0.3-0.2-0.5-0.2-0.8c0-0.5,0.2-0.8,0.5-1.2c0.4-0.3,0.8-0.5,1.4-0.5s1,0.2,1.4,0.5
		c0.4,0.3,0.5,0.7,0.5,1.2c0,0.3-0.1,0.6-0.2,0.8c-0.2,0.3-0.4,0.5-0.7,0.6c0.4,0.2,0.6,0.4,0.8,0.7c0.2,0.3,0.3,0.6,0.3,1
		c0,0.5-0.2,0.9-0.6,1.3C952.7,43.1,952.1,43.3,951.5,43.3z M949.9,41.4c0,0.3,0.1,0.7,0.4,0.9c0.3,0.3,0.7,0.4,1.2,0.4
		s0.9-0.1,1.2-0.4c0.3-0.3,0.4-0.6,0.4-0.9s-0.1-0.7-0.4-0.9c-0.3-0.3-0.7-0.4-1.2-0.4c-0.5,0-0.9,0.1-1.2,0.4
		C950,40.8,949.9,41.1,949.9,41.4z M950.1,38.4c0,0.3,0.1,0.6,0.4,0.8c0.2,0.2,0.6,0.4,1,0.4s0.7-0.1,1-0.4s0.4-0.5,0.4-0.8
		s-0.1-0.6-0.4-0.8s-0.6-0.3-1-0.3s-0.7,0.1-1,0.3C950.2,37.8,950.1,38.1,950.1,38.4z"/>
	<path id="XMLID_77_" class="st1" d="M956.7,43.3c-0.7,0-1.2-0.2-1.6-0.6c-0.4-0.4-0.6-0.8-0.6-1.3c0-0.4,0.1-0.7,0.3-1
		s0.5-0.5,0.8-0.7c-0.3-0.2-0.5-0.4-0.7-0.6c-0.2-0.3-0.2-0.5-0.2-0.8c0-0.5,0.2-0.8,0.5-1.2c0.4-0.3,0.8-0.5,1.4-0.5s1,0.2,1.4,0.5
		c0.4,0.3,0.5,0.7,0.5,1.2c0,0.3-0.1,0.6-0.2,0.8c-0.2,0.3-0.4,0.5-0.7,0.6c0.4,0.2,0.6,0.4,0.8,0.7c0.2,0.3,0.3,0.6,0.3,1
		c0,0.5-0.2,0.9-0.6,1.3C957.9,43.1,957.3,43.3,956.7,43.3z M955.1,41.4c0,0.3,0.1,0.7,0.4,0.9c0.3,0.3,0.7,0.4,1.2,0.4
		s0.9-0.1,1.2-0.4c0.3-0.3,0.4-0.6,0.4-0.9s-0.1-0.7-0.4-0.9c-0.3-0.3-0.7-0.4-1.2-0.4c-0.5,0-0.9,0.1-1.2,0.4
		C955.2,40.8,955.1,41.1,955.1,41.4z M955.3,38.4c0,0.3,0.1,0.6,0.4,0.8c0.2,0.2,0.6,0.4,1,0.4s0.7-0.1,1-0.4s0.4-0.5,0.4-0.8
		s-0.1-0.6-0.4-0.8s-0.6-0.3-1-0.3s-0.7,0.1-1,0.3C955.5,37.8,955.3,38.1,955.3,38.4z"/>
	<path id="XMLID_74_" class="st1" d="M963.6,43.3c-0.6,0-1.1-0.2-1.5-0.6c-0.4-0.4-0.6-0.9-0.6-1.6c0-0.9,0.3-1.8,0.8-2.5
		c0.5-0.8,1.1-1.3,1.6-1.8h0.9c-0.6,0.4-1.2,0.9-1.6,1.4s-0.7,1-0.9,1.5c0.2-0.2,0.5-0.3,0.7-0.4c0.3-0.1,0.5-0.1,0.7-0.1
		c0.5,0,1,0.2,1.4,0.6c0.4,0.4,0.6,0.9,0.6,1.5c0,0.6-0.2,1.1-0.6,1.5S964.2,43.3,963.6,43.3z M962.1,41.2c0,0.5,0.1,0.8,0.4,1.1
		c0.3,0.3,0.7,0.4,1.1,0.4c0.5,0,0.8-0.1,1.1-0.4c0.3-0.3,0.4-0.7,0.4-1.1c0-0.5-0.1-0.8-0.4-1.1s-0.6-0.4-1-0.4
		c-0.5,0-0.9,0.1-1.2,0.4C962.3,40.4,962.1,40.8,962.1,41.2z"/>
	<path id="XMLID_72_" class="st1" d="M968,43.2h-0.6v-4.8h-1.2v-0.5h0.7c0.2,0,0.3,0,0.4-0.1c0.1-0.1,0.2-0.2,0.2-0.4l0-0.6h0.5
		V43.2z"/>
	<path id="XMLID_70_" class="st1" d="M968.8,44.7l2.8-8.5h0.6l-2.8,8.5H968.8z"/>
	<path id="XMLID_67_" class="st1" d="M976.6,41.8h-1v1.4H975v-1.4h-2.9v-0.6l2.9-4.4h0.6v4.4h1V41.8z M972.7,41.2h2.3v-3.5
		L972.7,41.2z"/>
</g>
<text id="XMLID_65_" transform="matrix(1 0 0 1 814.6475 54.0622)" class="st1 st2 st3">F</text>
<text id="XMLID_64_" transform="matrix(1 0 0 1 819.7002 54.0622)" class="st1 st4 st3"> </text>
<g id="XMLID_31_">
	<path id="XMLID_62_" class="st1" d="M824.4,51.4c0-0.8,0.1-1.6,0.4-2.3c0.3-0.7,0.7-1.4,1.2-2.1l0.4,0.3c-0.5,0.6-0.8,1.3-1.1,2
		c-0.2,0.7-0.4,1.4-0.4,2.2c0,0.7,0.1,1.4,0.4,2.2c0.2,0.7,0.6,1.4,1.1,2l-0.4,0.3c-0.5-0.7-0.9-1.4-1.2-2.1
		C824.5,53,824.4,52.2,824.4,51.4z"/>
	<path id="XMLID_60_" class="st1" d="M826.7,51.4v-0.5h1.4v-1.5h0.6v1.5h1.4v0.5h-1.4v1.5h-0.6v-1.5H826.7z"/>
	<path id="XMLID_58_" class="st1" d="M834.7,54.1h-3.9v-0.6l1.9-1.9c0.4-0.4,0.7-0.8,0.9-1.2c0.2-0.4,0.3-0.7,0.3-1.1
		c0-0.4-0.1-0.7-0.3-0.9c-0.2-0.3-0.6-0.4-1-0.4c-0.4,0-0.7,0.1-0.9,0.4c-0.2,0.3-0.3,0.6-0.3,1c0,0.1,0,0.2,0,0.3
		c0,0.1,0,0.2,0,0.3l-0.6,0c0-0.1,0-0.2,0-0.3c0-0.1,0-0.2,0-0.3c0-0.6,0.2-1,0.5-1.4c0.4-0.3,0.8-0.5,1.3-0.5c0.6,0,1,0.2,1.4,0.5
		s0.5,0.8,0.5,1.3c0,0.5-0.1,0.9-0.4,1.3c-0.3,0.4-0.6,0.8-1,1.2l-1.6,1.5h3.2V54.1z"/>
	<path id="XMLID_56_" class="st1" d="M835.6,46.9c0.5,0.7,0.9,1.4,1.2,2.1c0.3,0.7,0.4,1.5,0.4,2.3c0,0.8-0.1,1.6-0.4,2.3
		c-0.3,0.7-0.7,1.4-1.2,2.1l-0.4-0.3c0.5-0.6,0.8-1.3,1.1-2s0.4-1.4,0.4-2.2c0-0.7-0.1-1.4-0.4-2.2c-0.2-0.7-0.6-1.4-1.1-2
		L835.6,46.9z"/>
	<path id="XMLID_53_" class="st1" d="M840.3,50.9c0-1,0.2-1.8,0.6-2.4c0.4-0.6,1-0.9,1.7-0.9c0.7,0,1.3,0.3,1.7,0.9
		c0.4,0.6,0.6,1.4,0.6,2.4s-0.2,1.8-0.6,2.4s-1,0.9-1.7,0.9c-0.7,0-1.3-0.3-1.7-0.9C840.5,52.7,840.3,51.9,840.3,50.9z M840.9,50.9
		c0,0.9,0.2,1.6,0.5,2c0.3,0.5,0.7,0.7,1.3,0.7c0.5,0,1-0.2,1.3-0.7c0.3-0.5,0.5-1.2,0.5-2c0-0.9-0.2-1.6-0.5-2
		c-0.3-0.5-0.7-0.7-1.3-0.7c-0.5,0-1,0.2-1.3,0.7C841.1,49.3,840.9,50,840.9,50.9z"/>
	<path id="XMLID_51_" class="st1" d="M849.8,54.1h-3.9v-0.6l1.9-1.9c0.4-0.4,0.7-0.8,0.9-1.2c0.2-0.4,0.3-0.7,0.3-1.1
		c0-0.4-0.1-0.7-0.3-0.9c-0.2-0.3-0.6-0.4-1-0.4c-0.4,0-0.7,0.1-0.9,0.4c-0.2,0.3-0.3,0.6-0.3,1c0,0.1,0,0.2,0,0.3
		c0,0.1,0,0.2,0,0.3l-0.6,0c0-0.1,0-0.2,0-0.3c0-0.1,0-0.2,0-0.3c0-0.6,0.2-1,0.5-1.4c0.4-0.3,0.8-0.5,1.3-0.5c0.6,0,1,0.2,1.4,0.5
		s0.5,0.8,0.5,1.3c0,0.5-0.1,0.9-0.4,1.3c-0.3,0.4-0.6,0.8-1,1.2l-1.6,1.5h3.2V54.1z"/>
	<path id="XMLID_49_" class="st1" d="M854.3,54.2c-0.5,0-0.9-0.1-1.3-0.4s-0.7-0.7-0.8-1.3l0.6-0.1c0.1,0.4,0.3,0.7,0.5,1
		c0.3,0.2,0.6,0.3,1,0.3c0.4,0,0.8-0.1,1.1-0.4c0.3-0.2,0.4-0.5,0.4-0.9c0-0.3-0.1-0.6-0.4-0.9s-0.7-0.4-1.3-0.4h-0.5v-0.5h0.5
		c0.6,0,0.9-0.1,1.2-0.4s0.3-0.5,0.3-0.9c0-0.3-0.1-0.6-0.3-0.8c-0.2-0.2-0.5-0.3-0.9-0.3c-0.4,0-0.7,0.1-0.9,0.3
		c-0.3,0.2-0.4,0.6-0.5,1.1l-0.6-0.1c0.1-0.7,0.3-1.1,0.7-1.4c0.4-0.3,0.8-0.4,1.3-0.4c0.5,0,0.9,0.2,1.3,0.5
		c0.4,0.3,0.5,0.7,0.5,1.2c0,0.3-0.1,0.6-0.2,0.9c-0.2,0.3-0.4,0.5-0.7,0.6c0.4,0.1,0.6,0.3,0.8,0.6c0.2,0.3,0.3,0.6,0.3,1
		c0,0.5-0.2,1-0.6,1.3S854.9,54.2,854.3,54.2z"/>
	<path id="XMLID_47_" class="st1" d="M859.3,54.2c-0.5,0-0.9-0.1-1.3-0.4s-0.7-0.7-0.8-1.3l0.6-0.1c0.1,0.4,0.3,0.7,0.5,1
		c0.3,0.2,0.6,0.3,1,0.3c0.4,0,0.8-0.1,1.1-0.4c0.3-0.2,0.4-0.5,0.4-0.9c0-0.3-0.1-0.6-0.4-0.9s-0.7-0.4-1.3-0.4h-0.5v-0.5h0.5
		c0.6,0,0.9-0.1,1.2-0.4s0.3-0.5,0.3-0.9c0-0.3-0.1-0.6-0.3-0.8c-0.2-0.2-0.5-0.3-0.9-0.3c-0.4,0-0.7,0.1-0.9,0.3
		c-0.3,0.2-0.4,0.6-0.5,1.1l-0.6-0.1c0.1-0.7,0.3-1.1,0.7-1.4c0.4-0.3,0.8-0.4,1.3-0.4c0.5,0,0.9,0.2,1.3,0.5
		c0.4,0.3,0.5,0.7,0.5,1.2c0,0.3-0.1,0.6-0.2,0.9c-0.2,0.3-0.4,0.5-0.7,0.6c0.4,0.1,0.6,0.3,0.8,0.6c0.2,0.3,0.3,0.6,0.3,1
		c0,0.5-0.2,1-0.6,1.3S859.9,54.2,859.3,54.2z"/>
	<path id="XMLID_44_" class="st1" d="M862.3,50.9c0-1,0.2-1.8,0.6-2.4c0.4-0.6,1-0.9,1.7-0.9c0.7,0,1.3,0.3,1.7,0.9
		c0.4,0.6,0.6,1.4,0.6,2.4s-0.2,1.8-0.6,2.4s-1,0.9-1.7,0.9c-0.7,0-1.3-0.3-1.7-0.9C862.5,52.7,862.3,51.9,862.3,50.9z M862.9,50.9
		c0,0.9,0.2,1.6,0.5,2c0.3,0.5,0.7,0.7,1.3,0.7c0.5,0,1-0.2,1.3-0.7c0.3-0.5,0.5-1.2,0.5-2c0-0.9-0.2-1.6-0.5-2
		c-0.3-0.5-0.7-0.7-1.3-0.7c-0.5,0-1,0.2-1.3,0.7C863.1,49.3,862.9,50,862.9,50.9z"/>
	<path id="XMLID_42_" class="st1" d="M872,54.2c-0.5,0-1-0.2-1.4-0.5s-0.6-0.7-0.8-1.2l0.6-0.2c0.1,0.4,0.3,0.7,0.6,0.9
		c0.3,0.2,0.6,0.3,1,0.3c0.4,0,0.8-0.1,1.1-0.4c0.3-0.3,0.5-0.7,0.5-1.2c0-0.5-0.1-0.9-0.4-1.2c-0.3-0.3-0.7-0.5-1.1-0.5
		c-0.3,0-0.6,0.1-0.9,0.2s-0.4,0.3-0.6,0.6l-0.5-0.1l0.4-3.4h3.3v0.6h-2.8l-0.3,2.1c0.2-0.2,0.4-0.3,0.6-0.4
		c0.3-0.1,0.5-0.1,0.8-0.1c0.6,0,1.1,0.2,1.5,0.6c0.4,0.4,0.6,0.9,0.6,1.5c0,0.6-0.2,1.2-0.6,1.6C873.1,54,872.6,54.2,872,54.2z"/>
	<path id="XMLID_39_" class="st1" d="M875.1,50.9c0-1,0.2-1.8,0.6-2.4c0.4-0.6,1-0.9,1.7-0.9c0.7,0,1.3,0.3,1.7,0.9
		c0.4,0.6,0.6,1.4,0.6,2.4s-0.2,1.8-0.6,2.4s-1,0.9-1.7,0.9c-0.7,0-1.3-0.3-1.7-0.9C875.3,52.7,875.1,51.9,875.1,50.9z M875.7,50.9
		c0,0.9,0.2,1.6,0.5,2c0.3,0.5,0.7,0.7,1.3,0.7c0.5,0,1-0.2,1.3-0.7c0.3-0.5,0.5-1.2,0.5-2c0-0.9-0.2-1.6-0.5-2
		c-0.3-0.5-0.7-0.7-1.3-0.7c-0.5,0-1,0.2-1.3,0.7C875.9,49.3,875.7,50,875.7,50.9z"/>
	<path id="XMLID_37_" class="st1" d="M880.2,48.2v-0.6h3.9V48l-2.5,6.1h-0.7l2.5-5.9H880.2z"/>
	<path id="XMLID_35_" class="st1" d="M888.5,54.2c-0.5,0-0.9-0.1-1.3-0.4s-0.7-0.7-0.8-1.3l0.6-0.1c0.1,0.4,0.3,0.7,0.5,1
		c0.3,0.2,0.6,0.3,1,0.3c0.4,0,0.8-0.1,1.1-0.4c0.3-0.2,0.4-0.5,0.4-0.9c0-0.3-0.1-0.6-0.4-0.9s-0.7-0.4-1.3-0.4h-0.5v-0.5h0.5
		c0.6,0,0.9-0.1,1.2-0.4s0.3-0.5,0.3-0.9c0-0.3-0.1-0.6-0.3-0.8c-0.2-0.2-0.5-0.3-0.9-0.3c-0.4,0-0.7,0.1-0.9,0.3
		c-0.3,0.2-0.4,0.6-0.5,1.1l-0.6-0.1c0.1-0.7,0.3-1.1,0.7-1.4c0.4-0.3,0.8-0.4,1.3-0.4c0.5,0,0.9,0.2,1.3,0.5
		c0.4,0.3,0.5,0.7,0.5,1.2c0,0.3-0.1,0.6-0.2,0.9c-0.2,0.3-0.4,0.5-0.7,0.6c0.4,0.1,0.6,0.3,0.8,0.6c0.2,0.3,0.3,0.6,0.3,1
		c0,0.5-0.2,1-0.6,1.3S889.1,54.2,888.5,54.2z"/>
	<path id="XMLID_32_" class="st1" d="M893.2,54.1h-0.9c0.6-0.4,1.2-0.9,1.6-1.4c0.4-0.5,0.7-1,0.9-1.5c-0.2,0.2-0.5,0.3-0.7,0.4
		c-0.3,0.1-0.5,0.1-0.7,0.1c-0.5,0-1-0.2-1.4-0.6c-0.4-0.4-0.6-0.9-0.6-1.5c0-0.6,0.2-1.1,0.6-1.5c0.4-0.4,0.9-0.6,1.5-0.6
		c0.6,0,1.1,0.2,1.5,0.6s0.6,0.9,0.6,1.6c0,0.9-0.3,1.8-0.8,2.5C894.3,53,893.8,53.6,893.2,54.1z M892,49.6c0,0.5,0.1,0.8,0.4,1.1
		c0.3,0.3,0.6,0.4,1,0.4c0.5,0,0.9-0.1,1.2-0.4s0.5-0.6,0.5-1.1c0-0.5-0.1-0.8-0.4-1.1c-0.3-0.3-0.7-0.4-1.1-0.4
		c-0.5,0-0.8,0.1-1.1,0.4C892.1,48.8,892,49.2,892,49.6z"/>
</g>
<g id="XMLID_1_">
	<path id="XMLID_29_" class="st1" d="M818.8,64.9l-1-3.5l-1,3.5h-0.6l-1.2-4.5h0.6l1,3.8l1-3.7h0.5l1.1,3.7l1-3.8h0.6l-1.2,4.5
		H818.8z"/>
	<path id="XMLID_27_" class="st1" d="M825,64.9l-1-3.5l-1,3.5h-0.6l-1.2-4.5h0.6l1,3.8l1-3.7h0.5l1.1,3.7l1-3.8h0.6l-1.2,4.5H825z"
		/>
	<path id="XMLID_25_" class="st1" d="M831.3,64.9l-1-3.5l-1,3.5h-0.6l-1.2-4.5h0.6l1,3.8l1-3.7h0.5l1.1,3.7l1-3.8h0.6l-1.2,4.5
		H831.3z"/>
	<path id="XMLID_23_" class="st1" d="M834,64.6c0-0.1,0-0.2,0.1-0.3c0.1-0.1,0.2-0.1,0.3-0.1s0.2,0,0.3,0.1c0.1,0.1,0.1,0.2,0.1,0.3
		c0,0.1,0,0.2-0.1,0.3c-0.1,0.1-0.2,0.1-0.3,0.1s-0.2,0-0.3-0.1C834.1,64.8,834,64.7,834,64.6z"/>
	<path id="XMLID_21_" class="st1" d="M836.8,62.6v2.3h-0.6v-6.4h0.6v2.7c0.1-0.3,0.3-0.5,0.6-0.7c0.3-0.2,0.6-0.3,0.9-0.3
		c0.5,0,0.9,0.2,1.2,0.5c0.3,0.3,0.5,0.8,0.5,1.4v2.8h-0.6v-2.7c0-0.5-0.1-0.8-0.3-1s-0.5-0.4-0.8-0.4c-0.4,0-0.7,0.2-1,0.5
		S836.8,62,836.8,62.6z"/>
	<path id="XMLID_18_" class="st1" d="M841.3,58.9c0-0.1,0-0.2,0.1-0.3s0.2-0.1,0.3-0.1c0.1,0,0.2,0,0.3,0.1c0.1,0.1,0.1,0.2,0.1,0.3
		c0,0.1,0,0.2-0.1,0.3c-0.1,0.1-0.2,0.1-0.3,0.1c-0.1,0-0.2,0-0.3-0.1C841.3,59.1,841.3,59,841.3,58.9z M841.4,64.9v-4.5h0.6v4.5
		H841.4z"/>
	<path id="XMLID_16_" class="st1" d="M846.3,64.9l-2.2-2.2v2.2h-0.6v-6.4h0.6v3.9l2.1-2h0.7l-2.2,2.2l2.4,2.3H846.3z"/>
	<path id="XMLID_14_" class="st1" d="M848.5,62.6v2.3H848v-4.5h0.5v0.8c0.1-0.3,0.3-0.5,0.5-0.7s0.5-0.3,0.8-0.3
		c0.3,0,0.6,0.1,0.9,0.3c0.2,0.2,0.4,0.4,0.5,0.8c0.1-0.3,0.3-0.6,0.6-0.8c0.3-0.2,0.6-0.3,0.9-0.3c0.4,0,0.8,0.2,1.1,0.5
		s0.4,0.8,0.4,1.4v2.8h-0.6v-2.7c0-0.4-0.1-0.8-0.3-1c-0.2-0.2-0.4-0.4-0.7-0.4c-0.4,0-0.7,0.2-0.9,0.5c-0.2,0.3-0.4,0.7-0.4,1.3
		v2.4h-0.6v-2.7c0-0.4-0.1-0.8-0.3-1c-0.2-0.2-0.4-0.4-0.7-0.4c-0.4,0-0.7,0.2-0.9,0.5C848.7,61.6,848.5,62,848.5,62.6z"/>
	<path id="XMLID_11_" class="st1" d="M858.4,64.9v-0.8c-0.2,0.3-0.4,0.5-0.7,0.6c-0.3,0.2-0.7,0.2-1,0.2c-0.4,0-0.7-0.1-1-0.3
		c-0.3-0.2-0.4-0.5-0.4-0.9c0-0.5,0.2-0.9,0.7-1.2c0.5-0.3,1.1-0.5,2-0.5h0.4V62c0-0.4-0.1-0.7-0.3-0.9s-0.5-0.3-0.9-0.3
		c-0.3,0-0.5,0-0.7,0.1c-0.2,0.1-0.5,0.2-0.7,0.4l-0.4-0.4c0.2-0.2,0.5-0.4,0.8-0.5c0.3-0.1,0.6-0.2,1-0.2c0.5,0,0.9,0.1,1.3,0.4
		c0.3,0.3,0.5,0.7,0.5,1.3v2.9H858.4z M856.7,64.5c0.3,0,0.7-0.1,1-0.4c0.4-0.2,0.6-0.6,0.6-1.1v-0.5H858c-0.8,0-1.3,0.1-1.7,0.3
		c-0.3,0.2-0.5,0.5-0.5,0.8c0,0.2,0.1,0.4,0.2,0.6C856.2,64.4,856.4,64.5,856.7,64.5z"/>
	<path id="XMLID_9_" class="st1" d="M860.3,64.6c0-0.1,0-0.2,0.1-0.3c0.1-0.1,0.2-0.1,0.3-0.1s0.2,0,0.3,0.1
		c0.1,0.1,0.1,0.2,0.1,0.3c0,0.1,0,0.2-0.1,0.3c-0.1,0.1-0.2,0.1-0.3,0.1s-0.2,0-0.3-0.1C860.3,64.8,860.3,64.7,860.3,64.6z"/>
	<path id="XMLID_7_" class="st1" d="M862.1,62.6c0-0.7,0.2-1.3,0.6-1.7c0.4-0.4,0.9-0.7,1.5-0.7c0.4,0,0.7,0.1,1,0.3
		s0.6,0.4,0.8,0.7l-0.4,0.3c-0.2-0.2-0.4-0.4-0.6-0.5c-0.2-0.1-0.5-0.2-0.8-0.2c-0.5,0-0.8,0.2-1.1,0.5c-0.3,0.3-0.4,0.8-0.4,1.3
		c0,0.5,0.1,1,0.4,1.3c0.3,0.3,0.7,0.5,1.1,0.5c0.3,0,0.5-0.1,0.8-0.2s0.4-0.3,0.6-0.6l0.4,0.3c-0.2,0.3-0.5,0.5-0.8,0.7
		c-0.3,0.2-0.7,0.3-1,0.3c-0.6,0-1.1-0.2-1.5-0.7C862.3,63.9,862.1,63.3,862.1,62.6z"/>
	<path id="XMLID_4_" class="st1" d="M866.7,62.6c0-0.7,0.2-1.3,0.6-1.7c0.4-0.4,0.9-0.7,1.5-0.7c0.6,0,1.1,0.2,1.5,0.7
		c0.4,0.4,0.6,1,0.6,1.7s-0.2,1.3-0.6,1.7c-0.4,0.4-0.9,0.7-1.5,0.7c-0.6,0-1.1-0.2-1.5-0.7C866.9,63.9,866.7,63.3,866.7,62.6z
		 M867.2,62.6c0,0.5,0.1,1,0.4,1.3c0.3,0.3,0.7,0.5,1.1,0.5s0.8-0.2,1.1-0.5c0.3-0.3,0.4-0.8,0.4-1.3c0-0.5-0.1-1-0.4-1.3
		s-0.7-0.5-1.1-0.5s-0.8,0.2-1.1,0.5C867.4,61.7,867.2,62.1,867.2,62.6z"/>
	<path id="XMLID_2_" class="st1" d="M872.7,62.6v2.3h-0.6v-4.5h0.5v0.8c0.1-0.3,0.3-0.5,0.5-0.7s0.5-0.3,0.8-0.3
		c0.3,0,0.6,0.1,0.9,0.3c0.2,0.2,0.4,0.4,0.5,0.8c0.1-0.3,0.3-0.6,0.6-0.8c0.3-0.2,0.6-0.3,0.9-0.3c0.4,0,0.8,0.2,1.1,0.5
		s0.4,0.8,0.4,1.4v2.8h-0.6v-2.7c0-0.4-0.1-0.8-0.3-1c-0.2-0.2-0.4-0.4-0.7-0.4c-0.4,0-0.7,0.2-0.9,0.5c-0.2,0.3-0.4,0.7-0.4,1.3
		v2.4h-0.6v-2.7c0-0.4-0.1-0.8-0.3-1c-0.2-0.2-0.4-0.4-0.7-0.4c-0.4,0-0.7,0.2-0.9,0.5C872.8,61.6,872.7,62,872.7,62.6z"/>
</g>
</svg>
