<!-- Generator: Adobe Illustrator 22.1.0, SVG Export Plug-In  -->
<svg version="1.1"
	 xmlns="http://www.w3.org/2000/svg" xmlns:xlink="http://www.w3.org/1999/xlink" xmlns:a="http://ns.adobe.com/AdobeSVGViewerExtensions/3.0/"
	 x="0px" y="0px" width="449.2px" height="50.8px" viewBox="0 0 449.2 50.8" style="enable-background:new 0 0 449.2 50.8;"
	 xml:space="preserve">
<style type="text/css">
	.st0{fill:#266093;}
	.st1{fill:#FEBB12;}
	.st2{fill:#818385;}
</style>
<defs>
</defs>
<g id="XMLID_52_">
	<path id="XMLID_66_" class="st0" d="M14.9,20.9c0,1.6-0.3,3-0.8,4.2s-1.2,2.1-2.1,2.9c-0.9,0.7-1.9,1.3-3,1.6
		c-1.1,0.4-2.3,0.5-3.5,0.5H0V11.6h5.8c1.3,0,2.5,0.2,3.6,0.5s2.1,0.9,2.9,1.6c0.8,0.7,1.5,1.7,1.9,2.9
		C14.7,17.7,14.9,19.2,14.9,20.9z M11.1,20.9c0-1.9-0.4-3.3-1.3-4.2c-0.9-0.9-2.3-1.4-4.2-1.4h-2v11.3h1.8c1,0,1.8-0.1,2.5-0.4
		c0.7-0.3,1.3-0.7,1.8-1.1c0.5-0.5,0.8-1.1,1-1.8C11,22.5,11.1,21.7,11.1,20.9z"/>
	<path id="XMLID_63_" class="st0" d="M29.8,23.2c0,1.1-0.2,2-0.5,2.9C29,27,28.6,27.7,28,28.4c-0.6,0.6-1.2,1.1-2,1.5
		c-0.8,0.4-1.6,0.5-2.5,0.5s-1.7-0.2-2.5-0.5c-0.8-0.4-1.4-0.8-2-1.5c-0.6-0.6-1-1.4-1.3-2.3s-0.5-1.9-0.5-2.9c0-1.1,0.2-2,0.5-2.9
		c0.3-0.9,0.8-1.7,1.3-2.3c0.6-0.6,1.2-1.1,2-1.5c0.8-0.4,1.6-0.5,2.5-0.5s1.7,0.2,2.5,0.5s1.4,0.8,2,1.5c0.6,0.6,1,1.4,1.3,2.3
		C29.7,21.1,29.8,22.1,29.8,23.2z M26.1,23.2c0-1.1-0.2-2-0.6-2.7c-0.4-0.7-1.1-1.1-2-1.1s-1.5,0.4-1.9,1.1
		c-0.4,0.7-0.6,1.6-0.6,2.7s0.2,2,0.6,2.7c0.4,0.7,1.1,1,1.9,1c0.4,0,0.8-0.1,1.1-0.3c0.3-0.2,0.6-0.5,0.8-0.8
		c0.2-0.3,0.4-0.7,0.5-1.2S26.1,23.6,26.1,23.2z"/>
	<path id="XMLID_61_" class="st0" d="M43.3,26c0,0.8-0.1,1.5-0.4,2c-0.3,0.6-0.7,1-1.2,1.3s-1.1,0.6-1.8,0.7
		c-0.7,0.1-1.4,0.2-2.2,0.2c-1.1,0-2.2-0.1-3.2-0.4c-1-0.3-1.9-0.7-2.6-1.2l1.2-2.8c0.7,0.4,1.5,0.7,2.3,0.9
		c0.8,0.2,1.6,0.3,2.5,0.3c0.7,0,1.2-0.1,1.5-0.3c0.3-0.2,0.4-0.4,0.4-0.8c0-0.3-0.1-0.6-0.4-0.8c-0.3-0.2-0.8-0.4-1.6-0.6
		c-0.8-0.2-1.6-0.5-2.3-0.8c-0.7-0.3-1.3-0.6-1.7-0.9c-0.5-0.3-0.8-0.8-1.1-1.3c-0.3-0.5-0.4-1.1-0.4-1.8c0-0.7,0.1-1.3,0.4-1.9
		c0.3-0.5,0.7-0.9,1.1-1.3c0.5-0.3,1.1-0.6,1.8-0.7C36.3,16,37,16,37.8,16c0.9,0,1.8,0.1,2.7,0.4s1.7,0.6,2.5,1l-1.2,2.9
		c-0.7-0.4-1.4-0.6-2.1-0.8c-0.7-0.2-1.4-0.3-1.9-0.3c-0.7,0-1.2,0.1-1.5,0.2s-0.4,0.4-0.4,0.7c0,0.1,0,0.3,0.1,0.4
		c0.1,0.1,0.2,0.2,0.4,0.3c0.2,0.1,0.5,0.2,0.9,0.4s0.9,0.3,1.5,0.5c0.6,0.2,1.2,0.4,1.8,0.7c0.6,0.2,1.1,0.5,1.5,0.8
		c0.4,0.3,0.8,0.7,1,1.2C43.2,24.8,43.3,25.4,43.3,26z"/>
	<path id="XMLID_58_" class="st0" d="M50.6,13c0,0.6-0.2,1-0.6,1.5c-0.4,0.4-0.9,0.6-1.5,0.6c-0.6,0-1-0.2-1.5-0.6
		c-0.4-0.4-0.6-0.9-0.6-1.5c0-0.6,0.2-1,0.6-1.5c0.4-0.4,0.9-0.6,1.5-0.6c0.6,0,1,0.2,1.5,0.6C50.4,12,50.6,12.5,50.6,13z
		 M46.7,30.1V16.2h3.6v13.8H46.7z"/>
	<path id="XMLID_56_" class="st0" d="M62.3,30.1v-7.5c0-1.2-0.2-2.1-0.6-2.5s-1-0.7-1.7-0.7c-0.8,0-1.3,0.2-1.8,0.7
		c-0.4,0.4-0.6,1.3-0.6,2.5v7.6H54V16.2h3.6v0.9c0.3-0.3,0.8-0.6,1.3-0.9c0.6-0.2,1.2-0.4,1.9-0.4c1.8,0,3,0.6,3.9,1.7
		c0.8,1.1,1.2,2.7,1.2,4.6v7.8H62.3z"/>
	<path id="XMLID_53_" class="st0" d="M80.6,27.7c0,1.1-0.1,2.1-0.3,3s-0.5,1.6-0.9,2.2c-0.4,0.6-1,1.1-1.8,1.5
		c-0.8,0.4-1.8,0.6-3,0.7l-1.3-2.7c0.7-0.1,1.3-0.2,1.8-0.4c0.5-0.1,0.8-0.3,1.1-0.6s0.5-0.6,0.6-0.9c0.1-0.4,0.2-0.8,0.2-1.3
		c-0.4,0.3-0.8,0.6-1.2,0.8c-0.5,0.2-1,0.4-1.7,0.4c-0.7,0-1.4-0.1-2.1-0.4c-0.7-0.3-1.2-0.7-1.7-1.3c-0.5-0.6-0.9-1.4-1.2-2.3
		c-0.3-0.9-0.4-2-0.4-3.3c0-1,0.1-2,0.4-2.8c0.2-0.9,0.6-1.6,1-2.2c0.5-0.6,1-1.1,1.7-1.4c0.7-0.3,1.4-0.5,2.3-0.5
		c0.6,0,1.2,0.1,1.7,0.3s0.9,0.5,1.3,0.8v-0.8h3.6V27.7z M77,20.6c-0.6-0.8-1.4-1.2-2.5-1.2c-1.4,0-2.2,1.2-2.2,3.5
		c0,1.4,0.2,2.5,0.6,3.1c0.4,0.6,1,0.9,1.7,0.9c0.6,0,1-0.1,1.3-0.3s0.6-0.5,0.9-0.8V20.6z"/>
</g>
<g id="XMLID_38_">
	<path id="XMLID_51_" class="st1" d="M239,25.4c0,8.1-6.5,14.6-14.6,14.6c-8.1,0-14.6-6.6-14.6-14.6c0-8.1,6.5-14.6,14.6-14.6
		C232.4,10.8,239,17.3,239,25.4z"/>
	<path id="XMLID_50_" class="st1" d="M225.9,7.3c0,0.8-0.7,1.5-1.5,1.5l0,0c-0.8,0-1.5-0.7-1.5-1.5V1.5c0-0.8,0.7-1.5,1.5-1.5l0,0
		c0.8,0,1.5,0.7,1.5,1.5V7.3z"/>
	<path id="XMLID_49_" class="st1" d="M215.8,7.5c0.4,0.7,0.2,1.7-0.6,2.1l0,0c-0.7,0.4-1.7,0.2-2.1-0.6l-0.9-1.5
		c-0.4-0.7-0.2-1.7,0.6-2.1l0,0c0.7-0.4,1.7-0.2,2.1,0.6L215.8,7.5z"/>
	<path id="XMLID_48_" class="st1" d="M209.4,15c0.7,0.4,1,1.4,0.6,2.1l0,0c-0.4,0.7-1.4,1-2.1,0.6l-5-2.9c-0.7-0.4-1-1.4-0.6-2.1
		l0,0c0.4-0.7,1.4-1,2.1-0.6L209.4,15z"/>
	<path id="XMLID_47_" class="st1" d="M204.5,23.9c0.8,0,1.5,0.7,1.5,1.5l0,0c0,0.8-0.7,1.5-1.5,1.5h-1.7c-0.8,0-1.5-0.7-1.5-1.5l0,0
		c0-0.8,0.7-1.5,1.5-1.5H204.5z"/>
	<path id="XMLID_46_" class="st1" d="M207.9,33.2c0.7-0.4,1.7-0.2,2.1,0.6l0,0c0.4,0.7,0.2,1.7-0.6,2.1l-5,2.9
		c-0.7,0.4-1.7,0.2-2.1-0.6l0,0c-0.4-0.7-0.2-1.7,0.6-2.1L207.9,33.2z"/>
	<path id="XMLID_45_" class="st1" d="M213.1,41.8c0.4-0.7,1.4-1,2.1-0.6l0,0c0.7,0.4,1,1.4,0.6,2.1l-0.9,1.5c-0.4,0.7-1.4,1-2.1,0.6
		l0,0c-0.7-0.4-1-1.4-0.6-2.1L213.1,41.8z"/>
	<path id="XMLID_44_" class="st1" d="M222.8,43.5c0-0.8,0.7-1.5,1.5-1.5l0,0c0.8,0,1.5,0.7,1.5,1.5l0,5.8c0,0.8-0.7,1.5-1.5,1.5l0,0
		c-0.8,0-1.5-0.7-1.5-1.5V43.5z"/>
	<path id="XMLID_43_" class="st1" d="M232.9,43.4c-0.4-0.7-0.2-1.7,0.6-2.1l0,0c0.7-0.4,1.7-0.2,2.1,0.6l0.9,1.5
		c0.4,0.7,0.2,1.7-0.6,2.1l0,0c-0.7,0.4-1.7,0.2-2.1-0.6L232.9,43.4z"/>
	<path id="XMLID_42_" class="st1" d="M239.3,35.8c-0.7-0.4-1-1.4-0.6-2.1l0,0c0.4-0.7,1.4-1,2.1-0.6l5,2.9c0.7,0.4,1,1.4,0.6,2.1
		l0,0c-0.4,0.7-1.4,1-2.1,0.6L239.3,35.8z"/>
	<path id="XMLID_41_" class="st1" d="M244.2,26.9c-0.8,0-1.5-0.7-1.5-1.5l0,0c0-0.8,0.7-1.5,1.5-1.5h1.7c0.8,0,1.5,0.7,1.5,1.5l0,0
		c0,0.8-0.7,1.5-1.5,1.5H244.2z"/>
	<path id="XMLID_40_" class="st1" d="M240.8,17.7c-0.7,0.4-1.7,0.2-2.1-0.6l0,0c-0.4-0.7-0.2-1.7,0.6-2.1l5-2.9
		c0.7-0.4,1.7-0.2,2.1,0.6l0,0c0.4,0.7,0.2,1.7-0.6,2.1L240.8,17.7z"/>
	<path id="XMLID_39_" class="st1" d="M235.6,9c-0.4,0.7-1.4,1-2.1,0.6l0,0c-0.7-0.4-1-1.4-0.6-2.1l0.9-1.5c0.4-0.7,1.4-1,2.1-0.6
		l0,0c0.7,0.4,1,1.4,0.6,2.1L235.6,9z"/>
</g>
<g id="XMLID_20_">
	<path id="XMLID_36_" class="st2" d="M241.8,35.9v-6.8c0-0.2,0-0.6,0-0.9c0-0.4,0-0.8,0-1.2c0-0.4,0-0.8,0-1.1c0-0.4,0-0.6,0-0.8
		c-0.1,0.4-0.3,0.8-0.6,1.4c-0.2,0.6-0.5,1.1-0.7,1.7l-3.7,8.2l-3.7-8.2c-0.2-0.5-0.5-1.1-0.7-1.7c-0.2-0.6-0.4-1-0.6-1.4
		c0,0.2,0,0.4,0,0.8c0,0.4,0,0.7,0,1.1c0,0.4,0,0.8,0,1.2c0,0.4,0,0.7,0,0.9v6.8h-3.6V17.5h3.6l3.8,8.4c0.1,0.3,0.2,0.5,0.4,0.8
		c0.1,0.3,0.2,0.6,0.4,0.9s0.2,0.5,0.3,0.8s0.2,0.4,0.2,0.6c0.1-0.4,0.3-0.8,0.5-1.4c0.2-0.6,0.5-1.1,0.7-1.7l3.7-8.4h3.6v18.4
		H241.8z"/>
	<path id="XMLID_33_" class="st2" d="M261.4,29c0,1.1-0.2,2-0.5,2.9c-0.3,0.9-0.8,1.6-1.3,2.3c-0.6,0.6-1.2,1.1-2,1.5
		c-0.8,0.4-1.6,0.5-2.5,0.5s-1.7-0.2-2.5-0.5c-0.8-0.4-1.4-0.8-2-1.5c-0.6-0.6-1-1.4-1.3-2.3s-0.5-1.9-0.5-2.9c0-1.1,0.2-2,0.5-2.9
		c0.3-0.9,0.8-1.7,1.3-2.3c0.6-0.6,1.2-1.1,2-1.5c0.8-0.4,1.6-0.5,2.5-0.5s1.7,0.2,2.5,0.5s1.4,0.8,2,1.5c0.6,0.6,1,1.4,1.3,2.3
		C261.3,27,261.4,28,261.4,29z M257.7,29c0-1.1-0.2-2-0.6-2.7c-0.4-0.7-1.1-1.1-2-1.1s-1.5,0.4-1.9,1.1c-0.4,0.7-0.6,1.6-0.6,2.7
		s0.2,2,0.6,2.7c0.4,0.7,1.1,1,1.9,1c0.4,0,0.8-0.1,1.1-0.3c0.3-0.2,0.6-0.5,0.8-0.8c0.2-0.3,0.4-0.7,0.5-1.2S257.7,29.5,257.7,29z"
		/>
	<path id="XMLID_31_" class="st2" d="M272.3,26.3c-0.3-0.3-0.6-0.5-1-0.6s-0.7-0.3-1.1-0.3c-0.4,0-0.7,0-1,0.1s-0.5,0.2-0.7,0.5
		c-0.2,0.2-0.4,0.5-0.5,0.9c-0.1,0.4-0.2,0.9-0.2,1.5v7.5h-3.6V22.1h3.6V23c0.3-0.3,0.7-0.6,1.2-0.9c0.5-0.2,1-0.4,1.7-0.4
		c0.6,0,1.1,0.1,1.5,0.3c0.4,0.2,0.8,0.4,1,0.7L272.3,26.3z"/>
	<path id="XMLID_29_" class="st2" d="M283.9,35.9v-7.5c0-1.2-0.2-2.1-0.6-2.5s-1-0.7-1.7-0.7c-0.8,0-1.3,0.2-1.8,0.7
		c-0.4,0.4-0.6,1.3-0.6,2.5v7.6h-3.6V22.1h3.6V23c0.3-0.3,0.8-0.6,1.3-0.9c0.6-0.2,1.2-0.4,1.9-0.4c1.8,0,3,0.6,3.9,1.7
		c0.8,1.1,1.2,2.7,1.2,4.6v7.8H283.9z"/>
	<path id="XMLID_26_" class="st2" d="M294.9,18.9c0,0.6-0.2,1-0.6,1.5c-0.4,0.4-0.9,0.6-1.5,0.6c-0.6,0-1-0.2-1.5-0.6
		c-0.4-0.4-0.6-0.9-0.6-1.5c0-0.6,0.2-1,0.6-1.5c0.4-0.4,0.9-0.6,1.5-0.6c0.6,0,1,0.2,1.5,0.6C294.7,17.8,294.9,18.3,294.9,18.9z
		 M291,35.9V22.1h3.6v13.8H291z"/>
	<path id="XMLID_24_" class="st2" d="M306.7,35.9v-7.5c0-1.2-0.2-2.1-0.6-2.5s-1-0.7-1.7-0.7c-0.8,0-1.3,0.2-1.8,0.7
		c-0.4,0.4-0.6,1.3-0.6,2.5v7.6h-3.6V22.1h3.6V23c0.3-0.3,0.8-0.6,1.3-0.9c0.6-0.2,1.2-0.4,1.9-0.4c1.8,0,3,0.6,3.9,1.7
		c0.8,1.1,1.2,2.7,1.2,4.6v7.8H306.7z"/>
	<path id="XMLID_21_" class="st2" d="M324.9,33.6c0,1.1-0.1,2.1-0.3,3s-0.5,1.6-0.9,2.2c-0.4,0.6-1,1.1-1.8,1.5
		c-0.8,0.4-1.8,0.6-3,0.7l-1.3-2.7c0.7-0.1,1.3-0.2,1.8-0.4c0.5-0.1,0.8-0.3,1.1-0.6s0.5-0.6,0.6-0.9c0.1-0.4,0.2-0.8,0.2-1.3
		c-0.4,0.3-0.8,0.6-1.2,0.8c-0.5,0.2-1,0.4-1.7,0.4c-0.7,0-1.4-0.1-2.1-0.4c-0.7-0.3-1.2-0.7-1.7-1.3c-0.5-0.6-0.9-1.4-1.2-2.3
		c-0.3-0.9-0.4-2-0.4-3.3c0-1,0.1-2,0.4-2.8c0.2-0.9,0.6-1.6,1-2.2c0.5-0.6,1-1.1,1.7-1.4c0.7-0.3,1.4-0.5,2.3-0.5
		c0.6,0,1.2,0.1,1.7,0.3s0.9,0.5,1.3,0.8v-0.8h3.6V33.6z M321.3,26.4c-0.6-0.8-1.4-1.2-2.5-1.2c-1.4,0-2.2,1.2-2.2,3.5
		c0,1.4,0.2,2.5,0.6,3.1c0.4,0.6,1,0.9,1.7,0.9c0.6,0,1-0.1,1.3-0.3s0.6-0.5,0.9-0.8V26.4z"/>
</g>
<path id="XMLID_19_" class="st1" d="M381.6,40.3c-0.9,0.9-2.2,1.3-3.5,1c-0.8-0.2-1.5-0.7-2-1.3c-0.5-0.1-0.9-0.2-1.3-0.3
	c-1.7-0.4-3.3-1.1-4.8-1.9c-0.5,0.2-1,0.2-1.5,0.1c-1.1-0.3-1.8-1.2-1.8-2.3c-2.4-1.9-4.4-4.3-5.8-7c-0.7,0.2-1.4,0.2-2.2,0
	c-2.4-0.6-3.9-3.1-3.3-5.5c0.4-1.6,1.6-2.7,3-3.2c-0.1-0.9-0.1-1.8,0-2.7c-0.3,0.9-1.3,1.4-2.2,1.2c-1-0.3-1.6-1.3-1.4-2.3
	c0.3-1,1.3-1.6,2.3-1.4c0.7,0.2,1.3,0.8,1.4,1.5c0.1-1,0.3-2,0.5-3.1c1-3.8,2.9-7.1,5.5-9.8c-8.4,1.3-15.6,7.4-17.8,16.2
	c-3,11.7,4.1,23.5,15.7,26.4c7.8,2,15.7-0.5,21-6C382.8,40.2,382.2,40.2,381.6,40.3z"/>
<g id="XMLID_1_">
	<path id="XMLID_17_" class="st2" d="M354,34.3V15.9h12.8v3.6h-9.1v3.2h5.3v3.6h-5.3v4.5h9.5v3.6H354z"/>
	<path id="XMLID_15_" class="st2" d="M378.2,34.3h-3.7l-5-13.8h4l2,6.4c0.2,0.5,0.3,1.1,0.5,1.7c0.2,0.6,0.3,1,0.4,1.4
		c0.1-0.4,0.2-0.8,0.4-1.4c0.2-0.6,0.3-1.1,0.5-1.7l2-6.4h3.9L378.2,34.3z"/>
	<path id="XMLID_12_" class="st2" d="M396.8,27.4c0,0.3,0,0.5,0,0.7c0,0.2,0,0.3,0,0.5h-8.3c0,0.5,0.1,0.9,0.3,1.2
		c0.2,0.3,0.4,0.6,0.7,0.8c0.3,0.2,0.6,0.4,0.9,0.4s0.7,0.1,1,0.1c0.5,0,1-0.1,1.4-0.3c0.4-0.2,0.7-0.4,1-0.7l2.6,2.2
		c-0.6,0.7-1.3,1.3-2.2,1.7c-0.9,0.4-1.8,0.6-2.8,0.6c-1,0-1.9-0.2-2.7-0.5c-0.8-0.3-1.5-0.8-2-1.4c-0.6-0.6-1-1.4-1.3-2.3
		c-0.3-0.9-0.5-1.9-0.5-3c0-1.1,0.2-2,0.5-2.9c0.3-0.9,0.8-1.7,1.3-2.3c0.6-0.6,1.2-1.1,2-1.5c0.7-0.4,1.6-0.5,2.4-0.5
		c0.9,0,1.7,0.2,2.5,0.6c0.7,0.4,1.3,0.9,1.8,1.6c0.5,0.7,0.9,1.4,1.1,2.3S396.8,26.4,396.8,27.4z M393.3,25.8
		c0-0.3-0.1-0.6-0.2-0.9c-0.1-0.3-0.3-0.6-0.5-0.8c-0.2-0.2-0.5-0.4-0.8-0.6c-0.3-0.1-0.7-0.2-1.1-0.2c-0.7,0-1.2,0.2-1.6,0.7
		c-0.4,0.5-0.6,1.1-0.7,1.8H393.3z"/>
	<path id="XMLID_10_" class="st2" d="M408.1,34.3v-7.5c0-1.2-0.2-2.1-0.6-2.5s-1-0.7-1.7-0.7c-0.8,0-1.3,0.2-1.8,0.7
		c-0.4,0.4-0.6,1.3-0.6,2.5v7.6h-3.6V20.5h3.6v0.9c0.3-0.3,0.8-0.6,1.3-0.9c0.6-0.2,1.2-0.4,1.9-0.4c1.8,0,3,0.6,3.9,1.7
		c0.8,1.1,1.2,2.7,1.2,4.6v7.8H408.1z"/>
	<path id="XMLID_7_" class="st2" d="M419.2,17.3c0,0.6-0.2,1-0.6,1.5c-0.4,0.4-0.9,0.6-1.5,0.6c-0.6,0-1-0.2-1.5-0.6
		c-0.4-0.4-0.6-0.9-0.6-1.5c0-0.6,0.2-1,0.6-1.5c0.4-0.4,0.9-0.6,1.5-0.6c0.6,0,1,0.2,1.5,0.6C418.9,16.2,419.2,16.7,419.2,17.3z
		 M415.3,34.3V20.5h3.6v13.8H415.3z"/>
	<path id="XMLID_5_" class="st2" d="M430.9,34.3v-7.5c0-1.2-0.2-2.1-0.6-2.5s-1-0.7-1.7-0.7c-0.8,0-1.3,0.2-1.8,0.7
		c-0.4,0.4-0.6,1.3-0.6,2.5v7.6h-3.6V20.5h3.6v0.9c0.3-0.3,0.8-0.6,1.3-0.9c0.6-0.2,1.2-0.4,1.9-0.4c1.8,0,3,0.6,3.9,1.7
		c0.8,1.1,1.2,2.7,1.2,4.6v7.8H430.9z"/>
	<path id="XMLID_2_" class="st2" d="M449.2,32c0,1.1-0.1,2.1-0.3,3s-0.5,1.6-0.9,2.2c-0.4,0.6-1,1.1-1.8,1.5c-0.8,0.4-1.8,0.6-3,0.7
		l-1.3-2.7c0.7-0.1,1.3-0.2,1.8-0.4c0.5-0.1,0.8-0.3,1.1-0.6s0.5-0.6,0.6-0.9c0.1-0.4,0.2-0.8,0.2-1.3c-0.4,0.3-0.8,0.6-1.2,0.8
		c-0.5,0.2-1,0.4-1.7,0.4c-0.7,0-1.4-0.1-2.1-0.4c-0.7-0.3-1.2-0.7-1.7-1.3c-0.5-0.6-0.9-1.4-1.2-2.3c-0.3-0.9-0.4-2-0.4-3.3
		c0-1,0.1-2,0.4-2.8c0.2-0.9,0.6-1.6,1-2.2c0.5-0.6,1-1.1,1.7-1.4c0.7-0.3,1.4-0.5,2.3-0.5c0.6,0,1.2,0.1,1.7,0.3s0.9,0.5,1.3,0.8
		v-0.8h3.6V32z M445.5,24.8c-0.6-0.8-1.4-1.2-2.5-1.2c-1.4,0-2.2,1.2-2.2,3.5c0,1.4,0.2,2.5,0.6,3.1c0.4,0.6,1,0.9,1.7,0.9
		c0.6,0,1-0.1,1.3-0.3s0.6-0.5,0.9-0.8V24.8z"/>
</g>
</svg>
