<!-- Generator: Adobe Illustrator 22.1.0, SVG Export Plug-In  -->
<svg version="1.1"
	 xmlns="http://www.w3.org/2000/svg" xmlns:xlink="http://www.w3.org/1999/xlink" xmlns:a="http://ns.adobe.com/AdobeSVGViewerExtensions/3.0/"
	 x="0px" y="0px" width="650.3px" height="72.4px" viewBox="0 0 650.3 72.4" style="enable-background:new 0 0 650.3 72.4;"
	 xml:space="preserve">
<style type="text/css">
	.st0{fill:#266093;}
	.st1{fill:url(#XMLID_349_);}
	.st2{fill:none;stroke:#266093;stroke-width:0.7;stroke-miterlimit:10;}
	.st3{fill:#FFFFFF;}
	.st4{fill:url(#XMLID_350_);}
</style>
<defs>
</defs>
<g id="XMLID_66_">
	<g id="XMLID_68_">
		<path id="XMLID_206_" class="st0" d="M190.4,11.9c0,0.8-0.1,1.5-0.4,2.1c-0.3,0.6-0.6,1.1-1.1,1.6c-0.5,0.4-1,0.7-1.7,1
			c-0.7,0.2-1.4,0.3-2.2,0.3H181v6.3h-1.8v-16h6c0.7,0,1.4,0.1,2,0.3c0.6,0.2,1.2,0.5,1.6,0.9c0.5,0.4,0.8,0.9,1.1,1.5
			C190.2,10.4,190.4,11.1,190.4,11.9z M188.6,12c0-1-0.3-1.8-0.9-2.4c-0.6-0.6-1.4-0.8-2.5-0.8H181v6.5h3.9
			C187.4,15.2,188.6,14.1,188.6,12z"/>
		<path id="XMLID_204_" class="st0" d="M199,12.9c-0.2-0.1-0.5-0.2-0.8-0.3c-0.3-0.1-0.6-0.1-1-0.1c-0.8,0-1.5,0.3-1.9,1
			c-0.5,0.6-0.7,1.5-0.7,2.7v7.1h-1.7v-12h1.7v1.5c0.3-0.5,0.7-0.9,1.2-1.2c0.5-0.3,1.1-0.5,1.8-0.5c0.4,0,0.8,0,1.1,0.1
			c0.3,0.1,0.6,0.1,0.8,0.2L199,12.9z"/>
		<path id="XMLID_201_" class="st0" d="M211.6,17c0,1-0.1,1.9-0.4,2.7c-0.3,0.8-0.6,1.5-1.1,2c-0.5,0.5-1,1-1.7,1.2
			c-0.6,0.3-1.3,0.4-2.1,0.4c-0.7,0-1.4-0.1-2.1-0.4c-0.6-0.3-1.2-0.7-1.6-1.2c-0.5-0.5-0.8-1.2-1.1-2c-0.3-0.8-0.4-1.7-0.4-2.7
			c0-1,0.1-1.9,0.4-2.7c0.3-0.8,0.6-1.4,1.1-2c0.5-0.5,1-0.9,1.7-1.2c0.6-0.3,1.3-0.4,2.1-0.4c0.7,0,1.4,0.1,2.1,0.4
			s1.2,0.6,1.6,1.2c0.5,0.5,0.8,1.2,1.1,1.9C211.4,15.1,211.6,16,211.6,17z M209.8,17.1c0-1.6-0.3-2.8-1-3.6s-1.5-1.2-2.5-1.2
			s-1.9,0.4-2.5,1.2c-0.6,0.8-1,2-1,3.6c0,1.6,0.3,2.8,1,3.6c0.6,0.8,1.5,1.2,2.5,1.2s1.9-0.4,2.5-1.2
			C209.5,19.9,209.8,18.7,209.8,17.1z"/>
		<path id="XMLID_199_" class="st0" d="M219.1,23.1h-1.5l-4.3-12h1.8l3.1,9.5l0.2,0.6l0.2-0.6l3.1-9.5h1.8L219.1,23.1z"/>
		<path id="XMLID_196_" class="st0" d="M228.1,7.8c0,0.3-0.1,0.6-0.4,0.9c-0.2,0.2-0.5,0.4-0.8,0.4c-0.4,0-0.6-0.1-0.9-0.4
			c-0.2-0.2-0.4-0.5-0.4-0.9c0-0.4,0.1-0.6,0.4-0.9c0.2-0.2,0.5-0.4,0.9-0.4c0.3,0,0.6,0.1,0.8,0.4C228,7.1,228.1,7.4,228.1,7.8z
			 M226,23.1v-12h1.7v12H226z"/>
		<path id="XMLID_193_" class="st0" d="M238.5,23.1v-1.5c-0.4,0.5-0.9,0.9-1.5,1.2c-0.6,0.3-1.3,0.5-2.1,0.5c-0.6,0-1.2-0.1-1.7-0.4
			c-0.5-0.2-1-0.6-1.4-1.1c-0.4-0.5-0.7-1.1-0.9-1.9c-0.2-0.8-0.3-1.7-0.3-2.7c0-1.1,0.1-2,0.4-2.8c0.2-0.8,0.6-1.5,1-2
			c0.4-0.5,0.9-1,1.4-1.2c0.5-0.3,1.1-0.4,1.8-0.4c0.8,0,1.4,0.1,1.9,0.4c0.5,0.3,1,0.7,1.4,1.2V7.4l1.7-1v16.7H238.5z M238.5,14.1
			c-0.3-0.5-0.8-0.9-1.3-1.3c-0.6-0.4-1.2-0.5-1.9-0.5c-1,0-1.8,0.4-2.2,1.3c-0.5,0.8-0.7,2.1-0.7,3.7c0,1.5,0.3,2.7,0.8,3.5
			c0.5,0.8,1.3,1.2,2.2,1.2c0.6,0,1.2-0.2,1.8-0.5s1-0.7,1.4-1.3V14.1z"/>
		<path id="XMLID_190_" class="st0" d="M252.8,16.8c0,0.2,0,0.4,0,0.5c0,0.1,0,0.3-0.1,0.4h-8c0.1,1.3,0.4,2.3,1,3.1
			s1.4,1.1,2.4,1.1c0.7,0,1.3-0.1,1.8-0.3c0.5-0.2,1-0.5,1.5-0.8l0.8,1.2c-0.4,0.2-0.7,0.4-1,0.6c-0.3,0.2-0.6,0.3-1,0.4
			s-0.7,0.2-1.1,0.3c-0.4,0.1-0.8,0.1-1.2,0.1c-0.5,0-1.1-0.1-1.7-0.3c-0.6-0.2-1.1-0.6-1.6-1.1c-0.5-0.5-0.9-1.1-1.2-2
			c-0.3-0.8-0.5-1.8-0.5-3c0-1,0.1-1.8,0.4-2.6c0.3-0.8,0.6-1.4,1-1.9c0.4-0.5,1-0.9,1.6-1.2c0.6-0.3,1.3-0.4,2-0.4
			c0.8,0,1.5,0.1,2.1,0.4c0.6,0.3,1.1,0.7,1.5,1.2c0.4,0.5,0.7,1.2,0.9,1.9C252.7,15.1,252.8,15.9,252.8,16.8z M251.2,16.3
			c-0.1-1.2-0.4-2.1-0.9-2.9s-1.3-1.1-2.4-1.1c-0.9,0-1.6,0.3-2.2,1c-0.6,0.7-0.9,1.7-1,3H251.2z"/>
		<path id="XMLID_188_" class="st0" d="M263.1,20c0,0.6-0.1,1.1-0.4,1.5c-0.2,0.4-0.5,0.8-0.9,1.1c-0.4,0.3-0.8,0.5-1.3,0.6
			c-0.5,0.1-1,0.2-1.5,0.2c-0.8,0-1.6-0.1-2.3-0.4c-0.7-0.3-1.4-0.7-1.9-1.1l1-1.3c0.5,0.4,1,0.8,1.6,1c0.5,0.2,1.1,0.3,1.7,0.3
			c0.8,0,1.4-0.2,1.8-0.5s0.6-0.8,0.6-1.4c0-0.2,0-0.5-0.1-0.7c-0.1-0.2-0.3-0.4-0.5-0.6c-0.2-0.2-0.5-0.4-0.9-0.6
			c-0.4-0.2-0.8-0.4-1.3-0.6c-0.6-0.3-1.1-0.5-1.5-0.7c-0.4-0.2-0.8-0.5-1.1-0.8c-0.3-0.3-0.5-0.6-0.6-0.9c-0.1-0.3-0.2-0.8-0.2-1.2
			c0-0.5,0.1-0.9,0.3-1.2c0.2-0.4,0.5-0.7,0.8-1c0.3-0.3,0.7-0.5,1.2-0.6c0.5-0.1,1-0.2,1.5-0.2c0.8,0,1.6,0.1,2.2,0.4
			s1.2,0.5,1.6,0.9l-1,1.3c-0.5-0.4-0.9-0.6-1.4-0.8s-1-0.3-1.6-0.3c-0.6,0-1.1,0.1-1.5,0.4c-0.3,0.3-0.5,0.6-0.5,1.1
			c0,0.3,0,0.5,0.1,0.7c0.1,0.2,0.2,0.4,0.4,0.5c0.2,0.2,0.5,0.4,0.8,0.5c0.3,0.2,0.8,0.4,1.3,0.6c0.6,0.3,1.1,0.5,1.5,0.7
			c0.4,0.2,0.8,0.5,1.1,0.8s0.5,0.6,0.7,1C263,19,263.1,19.5,263.1,20z"/>
		<path id="XMLID_186_" class="st0" d="M278.9,20c0,0.6-0.1,1.1-0.4,1.5c-0.2,0.4-0.5,0.8-0.9,1.1c-0.4,0.3-0.8,0.5-1.3,0.6
			c-0.5,0.1-1,0.2-1.5,0.2c-0.8,0-1.6-0.1-2.3-0.4c-0.7-0.3-1.4-0.7-1.9-1.1l1-1.3c0.5,0.4,1,0.8,1.6,1c0.5,0.2,1.1,0.3,1.7,0.3
			c0.8,0,1.4-0.2,1.8-0.5s0.6-0.8,0.6-1.4c0-0.2,0-0.5-0.1-0.7c-0.1-0.2-0.3-0.4-0.5-0.6c-0.2-0.2-0.5-0.4-0.9-0.6
			c-0.4-0.2-0.8-0.4-1.3-0.6c-0.6-0.3-1.1-0.5-1.5-0.7c-0.4-0.2-0.8-0.5-1.1-0.8c-0.3-0.3-0.5-0.6-0.6-0.9c-0.1-0.3-0.2-0.8-0.2-1.2
			c0-0.5,0.1-0.9,0.3-1.2c0.2-0.4,0.5-0.7,0.8-1s0.7-0.5,1.2-0.6c0.5-0.1,1-0.2,1.5-0.2c0.8,0,1.6,0.1,2.2,0.4s1.2,0.5,1.6,0.9
			l-1,1.3c-0.5-0.4-0.9-0.6-1.4-0.8s-1-0.3-1.6-0.3c-0.6,0-1.1,0.1-1.5,0.4c-0.3,0.3-0.5,0.6-0.5,1.1c0,0.3,0,0.5,0.1,0.7
			c0.1,0.2,0.2,0.4,0.4,0.5c0.2,0.2,0.5,0.4,0.8,0.5c0.3,0.2,0.8,0.4,1.3,0.6c0.6,0.3,1.1,0.5,1.5,0.7c0.4,0.2,0.8,0.5,1.1,0.8
			s0.5,0.6,0.7,1C278.9,19,278.9,19.5,278.9,20z"/>
		<path id="XMLID_183_" class="st0" d="M284,7.8c0,0.3-0.1,0.6-0.4,0.9c-0.2,0.2-0.5,0.4-0.8,0.4c-0.4,0-0.6-0.1-0.9-0.4
			c-0.2-0.2-0.4-0.5-0.4-0.9c0-0.4,0.1-0.6,0.4-0.9c0.2-0.2,0.5-0.4,0.9-0.4c0.3,0,0.6,0.1,0.8,0.4C283.9,7.1,284,7.4,284,7.8z
			 M281.9,23.1v-12h1.7v12H281.9z"/>
		<path id="XMLID_180_" class="st0" d="M296.2,22.1c0,0.9-0.1,1.7-0.3,2.4s-0.6,1.2-1,1.7s-1.1,0.8-1.9,1s-1.7,0.4-2.8,0.4l-0.6-1.3
			c1,0,1.8-0.1,2.5-0.3c0.6-0.2,1.1-0.4,1.5-0.7c0.4-0.3,0.6-0.7,0.8-1.2c0.1-0.5,0.2-1.1,0.2-1.8v-0.6c-0.4,0.5-0.9,0.9-1.5,1.2
			c-0.6,0.3-1.3,0.5-2.1,0.5c-0.6,0-1.2-0.1-1.7-0.4c-0.5-0.2-1-0.6-1.4-1.1c-0.4-0.5-0.7-1.1-0.9-1.9c-0.2-0.8-0.3-1.7-0.3-2.7
			c0-1.1,0.1-2,0.4-2.8c0.2-0.8,0.6-1.5,1-2c0.4-0.5,0.9-1,1.4-1.2c0.5-0.3,1.1-0.4,1.8-0.4c0.8,0,1.4,0.1,1.9,0.4
			c0.5,0.3,1,0.7,1.4,1.2v-1.4h1.7V22.1z M294.4,14.1c-0.3-0.5-0.8-0.9-1.3-1.3c-0.6-0.4-1.2-0.5-1.9-0.5c-1,0-1.8,0.4-2.2,1.3
			c-0.5,0.8-0.7,2.1-0.7,3.7c0,1.5,0.3,2.7,0.8,3.5c0.5,0.8,1.3,1.2,2.2,1.2c0.6,0,1.2-0.2,1.8-0.5s1-0.7,1.4-1.3V14.1z"/>
		<path id="XMLID_178_" class="st0" d="M307.1,23.1v-7c0-1.3-0.2-2.3-0.7-2.9c-0.5-0.6-1.2-0.9-2.1-0.9c-0.8,0-1.5,0.3-2.1,0.9
			s-0.9,1.6-0.9,2.9v7h-1.7v-12h1.7l0,1.5c0.4-0.5,0.8-0.9,1.4-1.2c0.6-0.3,1.2-0.5,2-0.5c0.6,0,1.2,0.1,1.7,0.3
			c0.5,0.2,1,0.5,1.3,0.9c0.4,0.4,0.7,0.9,0.8,1.5c0.2,0.6,0.3,1.4,0.3,2.2v7.3H307.1z"/>
		<path id="XMLID_175_" class="st0" d="M314.4,7.8c0,0.3-0.1,0.6-0.4,0.9c-0.2,0.2-0.5,0.4-0.8,0.4c-0.4,0-0.6-0.1-0.9-0.4
			c-0.2-0.2-0.4-0.5-0.4-0.9c0-0.4,0.1-0.6,0.4-0.9c0.2-0.2,0.5-0.4,0.9-0.4c0.3,0,0.6,0.1,0.8,0.4C314.2,7.1,314.4,7.4,314.4,7.8z
			 M312.3,23.1v-12h1.7v12H312.3z"/>
		<path id="XMLID_171_" class="st0" d="M322.7,8.3c-0.4-0.2-0.9-0.3-1.4-0.3c-0.4,0-0.6,0.1-0.9,0.3c-0.2,0.2-0.4,0.5-0.4,1v1.8h2.4
			v1.5h-2.4v10.6h-1.7V12.6h-1.6v-1.5h1.6V9.5c0-1.1,0.3-1.8,0.8-2.3c0.5-0.5,1.2-0.7,2.1-0.7c0.4,0,0.6,0,0.9,0s0.4,0.1,0.7,0.2
			V8.3z M327.6,7.8c0,0.3-0.1,0.6-0.4,0.9C327,8.8,326.8,9,326.4,9c-0.4,0-0.6-0.1-0.9-0.4c-0.2-0.2-0.4-0.5-0.4-0.9
			c0-0.4,0.1-0.6,0.4-0.9c0.2-0.2,0.5-0.4,0.9-0.4c0.3,0,0.6,0.1,0.8,0.4C327.5,7.1,327.6,7.4,327.6,7.8z M325.6,23.1v-12h1.7v12
			H325.6z"/>
		<path id="XMLID_169_" class="st0" d="M338.1,13.5c-0.4-0.4-0.9-0.7-1.3-0.9s-1-0.3-1.6-0.3c-0.5,0-0.9,0.1-1.3,0.3
			c-0.4,0.2-0.8,0.5-1.1,0.9s-0.5,0.9-0.7,1.5c-0.2,0.6-0.3,1.3-0.3,2c0,1.5,0.3,2.7,0.9,3.6c0.6,0.9,1.4,1.3,2.5,1.3
			c0.6,0,1.1-0.1,1.5-0.3c0.4-0.2,0.8-0.5,1.3-0.9l1,1.1c-0.5,0.5-1.1,0.9-1.7,1.2c-0.6,0.3-1.3,0.4-2.2,0.4c-0.7,0-1.3-0.1-1.9-0.4
			c-0.6-0.3-1.1-0.6-1.6-1.2c-0.5-0.5-0.8-1.2-1.1-1.9c-0.3-0.8-0.4-1.7-0.4-2.7c0-1.1,0.2-2.1,0.5-2.9s0.7-1.4,1.2-2
			c0.5-0.5,1-0.9,1.7-1.1c0.6-0.2,1.2-0.4,1.9-0.4c0.8,0,1.5,0.1,2.2,0.4c0.6,0.3,1.2,0.6,1.6,1L338.1,13.5z"/>
		<path id="XMLID_166_" class="st0" d="M348.6,23.1v-1.5c-0.4,0.5-0.9,0.9-1.5,1.2c-0.6,0.3-1.3,0.5-2.2,0.5c-0.5,0-0.9-0.1-1.4-0.2
			c-0.5-0.1-0.9-0.3-1.2-0.6c-0.4-0.3-0.7-0.7-0.9-1.2c-0.2-0.5-0.3-1.1-0.3-1.8c0-0.7,0.1-1.3,0.4-1.7c0.3-0.5,0.6-0.9,1-1.2
			c0.4-0.3,0.9-0.5,1.5-0.7c0.6-0.1,1.1-0.2,1.7-0.2c0.6,0,1.2,0.1,1.7,0.2c0.5,0.1,1,0.3,1.3,0.5V15c0-1.8-0.9-2.6-2.6-2.6
			c-0.6,0-1.2,0.1-1.7,0.2s-1,0.4-1.5,0.7l-0.6-1.4c0.5-0.3,1.1-0.5,1.8-0.7c0.7-0.2,1.4-0.3,2.2-0.3c1.3,0,2.3,0.3,3.1,0.9
			c0.8,0.6,1.1,1.6,1.1,3v8.4H348.6z M348.6,17.8c-0.4-0.2-0.8-0.4-1.3-0.5c-0.5-0.1-1.1-0.2-1.8-0.2c-0.9,0-1.6,0.2-2.1,0.6
			c-0.5,0.4-0.7,1-0.7,1.8c0,0.9,0.2,1.6,0.7,2c0.4,0.4,1,0.6,1.8,0.6c0.8,0,1.5-0.2,2-0.5c0.6-0.4,1-0.8,1.4-1.3V17.8z"/>
		<path id="XMLID_164_" class="st0" d="M361.2,23.1v-7c0-1.3-0.2-2.3-0.7-2.9c-0.5-0.6-1.2-0.9-2.1-0.9c-0.8,0-1.5,0.3-2.1,0.9
			s-0.9,1.6-0.9,2.9v7h-1.7v-12h1.7l0,1.5c0.4-0.5,0.8-0.9,1.4-1.2c0.6-0.3,1.2-0.5,2-0.5c0.6,0,1.2,0.1,1.7,0.3
			c0.5,0.2,1,0.5,1.3,0.9c0.4,0.4,0.7,0.9,0.8,1.5c0.2,0.6,0.3,1.4,0.3,2.2v7.3H361.2z"/>
		<path id="XMLID_162_" class="st0" d="M368.5,12.6v7.8c0,0.5,0.1,0.9,0.3,1.1c0.2,0.2,0.5,0.3,1,0.3c0.4,0,0.7,0,0.9-0.1
			c0.3-0.1,0.5-0.1,0.8-0.3l-0.1,1.5c-0.3,0.1-0.7,0.2-1,0.3c-0.3,0.1-0.7,0.1-1.2,0.1c-0.8,0-1.3-0.2-1.7-0.6s-0.6-1.1-0.6-2.1
			v-8.1h-1.5v-1.5h1.5V7.4l1.7-1v4.7h3v1.5H368.5z"/>
		<path id="XMLID_160_" class="st0" d="M386.1,12.9c-0.2-0.1-0.5-0.2-0.8-0.3c-0.3-0.1-0.6-0.1-1-0.1c-0.8,0-1.5,0.3-1.9,1
			c-0.5,0.6-0.7,1.5-0.7,2.7v7.1H380v-12h1.7v1.5c0.3-0.5,0.7-0.9,1.2-1.2c0.5-0.3,1.1-0.5,1.8-0.5c0.4,0,0.8,0,1.1,0.1
			c0.3,0.1,0.6,0.1,0.8,0.2L386.1,12.9z"/>
		<path id="XMLID_157_" class="st0" d="M398.1,16.8c0,0.2,0,0.4,0,0.5c0,0.1,0,0.3-0.1,0.4h-8c0.1,1.3,0.4,2.3,1,3.1
			s1.4,1.1,2.4,1.1c0.7,0,1.3-0.1,1.8-0.3c0.5-0.2,1-0.5,1.5-0.8l0.8,1.2c-0.4,0.2-0.7,0.4-1,0.6c-0.3,0.2-0.6,0.3-1,0.4
			s-0.7,0.2-1.1,0.3c-0.4,0.1-0.8,0.1-1.2,0.1c-0.5,0-1.1-0.1-1.7-0.3c-0.6-0.2-1.1-0.6-1.6-1.1c-0.5-0.5-0.9-1.1-1.2-2
			c-0.3-0.8-0.5-1.8-0.5-3c0-1,0.1-1.8,0.4-2.6c0.3-0.8,0.6-1.4,1-1.9c0.4-0.5,1-0.9,1.6-1.2c0.6-0.3,1.3-0.4,2-0.4
			c0.8,0,1.5,0.1,2.1,0.4c0.6,0.3,1.1,0.7,1.5,1.2c0.4,0.5,0.7,1.2,0.9,1.9C398,15.1,398.1,15.9,398.1,16.8z M396.5,16.3
			c-0.1-1.2-0.4-2.1-0.9-2.9s-1.3-1.1-2.4-1.1c-0.9,0-1.6,0.3-2.2,1c-0.6,0.7-0.9,1.7-1,3H396.5z"/>
		<path id="XMLID_154_" class="st0" d="M408.2,23.1v-1.5c-0.4,0.5-0.9,0.9-1.5,1.2c-0.6,0.3-1.3,0.5-2.1,0.5c-0.6,0-1.2-0.1-1.7-0.4
			c-0.5-0.2-1-0.6-1.4-1.1c-0.4-0.5-0.7-1.1-0.9-1.9c-0.2-0.8-0.3-1.7-0.3-2.7c0-1.1,0.1-2,0.4-2.8c0.2-0.8,0.6-1.5,1-2
			c0.4-0.5,0.9-1,1.4-1.2c0.5-0.3,1.1-0.4,1.8-0.4c0.8,0,1.4,0.1,1.9,0.4c0.5,0.3,1,0.7,1.4,1.2V7.4l1.7-1v16.7H408.2z M408.2,14.1
			c-0.3-0.5-0.8-0.9-1.3-1.3c-0.6-0.4-1.2-0.5-1.9-0.5c-1,0-1.8,0.4-2.2,1.3c-0.5,0.8-0.7,2.1-0.7,3.7c0,1.5,0.3,2.7,0.8,3.5
			c0.5,0.8,1.3,1.2,2.2,1.2c0.6,0,1.2-0.2,1.8-0.5s1-0.7,1.4-1.3V14.1z"/>
		<path id="XMLID_152_" class="st0" d="M420.8,23.1v-1.5c-0.4,0.5-0.8,0.9-1.4,1.2c-0.5,0.3-1.2,0.5-2,0.5c-0.6,0-1.2-0.1-1.7-0.3
			c-0.5-0.2-1-0.5-1.3-0.9c-0.4-0.4-0.6-0.9-0.8-1.5c-0.2-0.6-0.3-1.4-0.3-2.2v-7.3h1.7v7c0,1.3,0.2,2.3,0.7,2.9
			c0.5,0.6,1.2,0.9,2.1,0.9c0.8,0,1.5-0.3,2.1-0.9s0.9-1.6,0.9-2.9v-7h1.7v12H420.8z"/>
		<path id="XMLID_150_" class="st0" d="M433.2,13.5c-0.4-0.4-0.9-0.7-1.3-0.9s-1-0.3-1.6-0.3c-0.5,0-0.9,0.1-1.3,0.3
			c-0.4,0.2-0.8,0.5-1.1,0.9s-0.5,0.9-0.7,1.5c-0.2,0.6-0.3,1.3-0.3,2c0,1.5,0.3,2.7,0.9,3.6c0.6,0.9,1.4,1.3,2.5,1.3
			c0.6,0,1.1-0.1,1.5-0.3c0.4-0.2,0.8-0.5,1.3-0.9l1,1.1c-0.5,0.5-1.1,0.9-1.7,1.2c-0.6,0.3-1.3,0.4-2.2,0.4c-0.7,0-1.3-0.1-1.9-0.4
			c-0.6-0.3-1.1-0.6-1.6-1.2c-0.5-0.5-0.8-1.2-1.1-1.9c-0.3-0.8-0.4-1.7-0.4-2.7c0-1.1,0.2-2.1,0.5-2.9s0.7-1.4,1.2-2
			c0.5-0.5,1-0.9,1.7-1.1c0.6-0.2,1.2-0.4,1.9-0.4c0.8,0,1.5,0.1,2.2,0.4c0.6,0.3,1.2,0.6,1.6,1L433.2,13.5z"/>
		<path id="XMLID_148_" class="st0" d="M439.1,12.6v7.8c0,0.5,0.1,0.9,0.3,1.1c0.2,0.2,0.5,0.3,1,0.3c0.4,0,0.7,0,0.9-0.1
			c0.3-0.1,0.5-0.1,0.8-0.3l-0.1,1.5c-0.3,0.1-0.7,0.2-1,0.3c-0.3,0.1-0.7,0.1-1.2,0.1c-0.8,0-1.3-0.2-1.7-0.6s-0.6-1.1-0.6-2.1
			v-8.1h-1.5v-1.5h1.5V7.4l1.7-1v4.7h3v1.5H439.1z"/>
		<path id="XMLID_145_" class="st0" d="M447.2,7.8c0,0.3-0.1,0.6-0.4,0.9C446.6,8.8,446.3,9,446,9c-0.4,0-0.6-0.1-0.9-0.4
			c-0.2-0.2-0.4-0.5-0.4-0.9c0-0.4,0.1-0.6,0.4-0.9c0.2-0.2,0.5-0.4,0.9-0.4c0.3,0,0.6,0.1,0.8,0.4C447.1,7.1,447.2,7.4,447.2,7.8z
			 M445.1,23.1v-12h1.7v12H445.1z"/>
		<path id="XMLID_142_" class="st0" d="M460.2,17c0,1-0.1,1.9-0.4,2.7c-0.3,0.8-0.6,1.5-1.1,2c-0.5,0.5-1,1-1.7,1.2
			c-0.6,0.3-1.3,0.4-2.1,0.4c-0.7,0-1.4-0.1-2.1-0.4c-0.6-0.3-1.2-0.7-1.6-1.2c-0.5-0.5-0.8-1.2-1.1-2c-0.3-0.8-0.4-1.7-0.4-2.7
			c0-1,0.1-1.9,0.4-2.7c0.3-0.8,0.6-1.4,1.1-2c0.5-0.5,1-0.9,1.7-1.2c0.6-0.3,1.3-0.4,2.1-0.4c0.7,0,1.4,0.1,2.1,0.4
			s1.2,0.6,1.6,1.2c0.5,0.5,0.8,1.2,1.1,1.9C460,15.1,460.2,16,460.2,17z M458.4,17.1c0-1.6-0.3-2.8-1-3.6s-1.5-1.2-2.5-1.2
			s-1.9,0.4-2.5,1.2c-0.6,0.8-1,2-1,3.6c0,1.6,0.3,2.8,1,3.6c0.6,0.8,1.5,1.2,2.5,1.2s1.9-0.4,2.5-1.2
			C458.1,19.9,458.4,18.7,458.4,17.1z"/>
		<path id="XMLID_140_" class="st0" d="M470.4,23.1v-7c0-1.3-0.2-2.3-0.7-2.9c-0.5-0.6-1.2-0.9-2.1-0.9c-0.8,0-1.5,0.3-2.1,0.9
			s-0.9,1.6-0.9,2.9v7h-1.7v-12h1.7l0,1.5c0.4-0.5,0.8-0.9,1.4-1.2c0.6-0.3,1.2-0.5,2-0.5c0.6,0,1.2,0.1,1.7,0.3
			c0.5,0.2,1,0.5,1.3,0.9c0.4,0.4,0.7,0.9,0.8,1.5c0.2,0.6,0.3,1.4,0.3,2.2v7.3H470.4z"/>
		<path id="XMLID_137_" class="st0" d="M483.3,7.8c0,0.3-0.1,0.6-0.4,0.9c-0.2,0.2-0.5,0.4-0.8,0.4c-0.4,0-0.6-0.1-0.9-0.4
			c-0.2-0.2-0.4-0.5-0.4-0.9c0-0.4,0.1-0.6,0.4-0.9c0.2-0.2,0.5-0.4,0.9-0.4c0.3,0,0.6,0.1,0.8,0.4C483.1,7.1,483.3,7.4,483.3,7.8z
			 M481.2,23.1v-12h1.7v12H481.2z"/>
		<path id="XMLID_135_" class="st0" d="M494,23.1v-7c0-1.3-0.2-2.3-0.7-2.9c-0.5-0.6-1.2-0.9-2.1-0.9c-0.8,0-1.5,0.3-2.1,0.9
			s-0.9,1.6-0.9,2.9v7h-1.7v-12h1.7l0,1.5c0.4-0.5,0.8-0.9,1.4-1.2c0.6-0.3,1.2-0.5,2-0.5c0.6,0,1.2,0.1,1.7,0.3
			c0.5,0.2,1,0.5,1.3,0.9c0.4,0.4,0.7,0.9,0.8,1.5c0.2,0.6,0.3,1.4,0.3,2.2v7.3H494z"/>
		<path id="XMLID_132_" class="st0" d="M188.7,53.8c0,1.1-0.1,2-0.4,2.8c-0.2,0.8-0.6,1.5-1,2c-0.4,0.5-0.9,1-1.4,1.2
			c-0.5,0.3-1.1,0.4-1.8,0.4c-0.8,0-1.4-0.1-1.9-0.4c-0.5-0.3-1-0.7-1.4-1.2v4.8l-1.7,1V48h1.7l0,1.5c0.4-0.5,0.9-0.9,1.5-1.2
			s1.3-0.5,2.1-0.5c0.6,0,1.2,0.1,1.7,0.4c0.5,0.2,1,0.6,1.4,1.1c0.4,0.5,0.7,1.1,0.9,1.9C188.6,51.9,188.7,52.8,188.7,53.8z
			 M187,53.8c0-1.5-0.3-2.7-0.8-3.5c-0.5-0.8-1.3-1.2-2.2-1.2c-0.6,0-1.2,0.2-1.7,0.5c-0.5,0.3-1,0.7-1.4,1.3v6
			c0.3,0.5,0.8,0.9,1.3,1.3c0.6,0.4,1.2,0.5,1.9,0.5c1,0,1.7-0.4,2.2-1.3C186.8,56.7,187,55.5,187,53.8z"/>
		<path id="XMLID_129_" class="st0" d="M198.4,60v-1.5c-0.4,0.5-0.9,0.9-1.5,1.2c-0.6,0.3-1.3,0.5-2.2,0.5c-0.5,0-0.9-0.1-1.4-0.2
			c-0.5-0.1-0.9-0.3-1.2-0.6c-0.4-0.3-0.7-0.7-0.9-1.2c-0.2-0.5-0.3-1.1-0.3-1.8c0-0.7,0.1-1.3,0.4-1.7c0.3-0.5,0.6-0.9,1-1.2
			c0.4-0.3,0.9-0.5,1.5-0.7s1.1-0.2,1.7-0.2c0.6,0,1.2,0.1,1.7,0.2c0.5,0.1,1,0.3,1.3,0.5v-1.4c0-1.8-0.9-2.6-2.6-2.6
			c-0.6,0-1.2,0.1-1.7,0.2s-1,0.4-1.5,0.7l-0.6-1.4c0.5-0.3,1.1-0.5,1.8-0.7c0.7-0.2,1.4-0.3,2.2-0.3c1.3,0,2.3,0.3,3.1,0.9
			c0.8,0.6,1.1,1.6,1.1,3V60H198.4z M198.4,54.7c-0.4-0.2-0.8-0.4-1.3-0.5c-0.5-0.1-1.1-0.2-1.8-0.2c-0.9,0-1.6,0.2-2.1,0.6
			c-0.5,0.4-0.7,1-0.7,1.8c0,0.9,0.2,1.6,0.7,2c0.4,0.4,1,0.6,1.8,0.6c0.8,0,1.5-0.2,2-0.5c0.6-0.4,1-0.8,1.4-1.3V54.7z"/>
		<path id="XMLID_127_" class="st0" d="M209.6,49.8c-0.2-0.1-0.5-0.2-0.8-0.3c-0.3-0.1-0.6-0.1-1-0.1c-0.8,0-1.5,0.3-1.9,1
			c-0.5,0.6-0.7,1.5-0.7,2.7V60h-1.7V48h1.7v1.5c0.3-0.5,0.7-0.9,1.2-1.2c0.5-0.3,1.1-0.5,1.8-0.5c0.4,0,0.8,0,1.1,0.1
			c0.3,0.1,0.6,0.1,0.8,0.2L209.6,49.8z"/>
		<path id="XMLID_125_" class="st0" d="M214.6,49.5v7.8c0,0.5,0.1,0.9,0.3,1.1c0.2,0.2,0.5,0.3,1,0.3c0.4,0,0.7,0,0.9-0.1
			c0.3-0.1,0.5-0.1,0.8-0.3l-0.1,1.5c-0.3,0.1-0.7,0.2-1,0.3c-0.3,0.1-0.7,0.1-1.2,0.1c-0.8,0-1.3-0.2-1.7-0.6s-0.6-1.1-0.6-2.1
			v-8.1h-1.5V48h1.5v-3.7l1.7-1V48h3v1.5H214.6z"/>
		<path id="XMLID_122_" class="st0" d="M222.7,44.6c0,0.3-0.1,0.6-0.4,0.9c-0.2,0.2-0.5,0.4-0.8,0.4c-0.4,0-0.6-0.1-0.9-0.4
			c-0.2-0.2-0.4-0.5-0.4-0.9c0-0.4,0.1-0.6,0.4-0.9c0.2-0.2,0.5-0.4,0.9-0.4c0.3,0,0.6,0.1,0.8,0.4C222.6,44,222.7,44.3,222.7,44.6z
			 M220.6,60V48h1.7v12H220.6z"/>
		<path id="XMLID_119_" class="st0" d="M232.7,60v-1.5c-0.4,0.5-0.9,0.9-1.5,1.2c-0.6,0.3-1.3,0.5-2.2,0.5c-0.5,0-0.9-0.1-1.4-0.2
			c-0.5-0.1-0.9-0.3-1.2-0.6c-0.4-0.3-0.7-0.7-0.9-1.2c-0.2-0.5-0.3-1.1-0.3-1.8c0-0.7,0.1-1.3,0.4-1.7c0.3-0.5,0.6-0.9,1-1.2
			c0.4-0.3,0.9-0.5,1.5-0.7s1.1-0.2,1.7-0.2c0.6,0,1.2,0.1,1.7,0.2c0.5,0.1,1,0.3,1.3,0.5v-1.4c0-1.8-0.9-2.6-2.6-2.6
			c-0.6,0-1.2,0.1-1.7,0.2s-1,0.4-1.5,0.7l-0.6-1.4c0.5-0.3,1.1-0.5,1.8-0.7c0.7-0.2,1.4-0.3,2.2-0.3c1.3,0,2.3,0.3,3.1,0.9
			c0.8,0.6,1.1,1.6,1.1,3V60H232.7z M232.7,54.7c-0.4-0.2-0.8-0.4-1.3-0.5c-0.5-0.1-1.1-0.2-1.8-0.2c-0.9,0-1.6,0.2-2.1,0.6
			c-0.5,0.4-0.7,1-0.7,1.8c0,0.9,0.2,1.6,0.7,2c0.4,0.4,1,0.6,1.8,0.6c0.8,0,1.5-0.2,2-0.5c0.6-0.4,1-0.8,1.4-1.3V54.7z"/>
		<path id="XMLID_117_" class="st0" d="M237.9,60V44.3l1.7-1V60H237.9z"/>
		<path id="XMLID_115_" class="st0" d="M256.1,56.9c0,0.6-0.1,1.1-0.4,1.5c-0.2,0.4-0.5,0.8-0.9,1.1c-0.4,0.3-0.8,0.5-1.3,0.6
			c-0.5,0.1-1,0.2-1.5,0.2c-0.8,0-1.6-0.1-2.3-0.4c-0.7-0.3-1.4-0.7-1.9-1.1l1-1.3c0.5,0.4,1,0.8,1.6,1c0.5,0.2,1.1,0.3,1.7,0.3
			c0.8,0,1.4-0.2,1.8-0.5s0.6-0.8,0.6-1.4c0-0.2,0-0.5-0.1-0.7c-0.1-0.2-0.3-0.4-0.5-0.6c-0.2-0.2-0.5-0.4-0.9-0.6
			c-0.4-0.2-0.8-0.4-1.3-0.6c-0.6-0.3-1.1-0.5-1.5-0.7c-0.4-0.2-0.8-0.5-1.1-0.8c-0.3-0.3-0.5-0.6-0.6-0.9c-0.1-0.3-0.2-0.8-0.2-1.2
			c0-0.5,0.1-0.9,0.3-1.2c0.2-0.4,0.5-0.7,0.8-1s0.7-0.5,1.2-0.6c0.5-0.1,1-0.2,1.5-0.2c0.8,0,1.6,0.1,2.2,0.4s1.2,0.5,1.6,0.9
			l-1,1.3c-0.5-0.4-0.9-0.6-1.4-0.8s-1-0.3-1.6-0.3c-0.6,0-1.1,0.1-1.5,0.4c-0.3,0.3-0.5,0.6-0.5,1.1c0,0.3,0,0.5,0.1,0.7
			c0.1,0.2,0.2,0.4,0.4,0.5c0.2,0.2,0.5,0.4,0.8,0.5c0.3,0.2,0.8,0.4,1.3,0.6c0.6,0.3,1.1,0.5,1.5,0.7c0.4,0.2,0.8,0.5,1.1,0.8
			s0.5,0.6,0.7,1C256.1,55.9,256.1,56.4,256.1,56.9z"/>
		<path id="XMLID_112_" class="st0" d="M268.1,53.7c0,0.2,0,0.4,0,0.5c0,0.1,0,0.3-0.1,0.4h-8c0.1,1.3,0.4,2.3,1,3.1
			s1.4,1.1,2.4,1.1c0.7,0,1.3-0.1,1.8-0.3c0.5-0.2,1-0.5,1.5-0.8l0.8,1.2c-0.4,0.2-0.7,0.4-1,0.6c-0.3,0.2-0.6,0.3-1,0.4
			s-0.7,0.2-1.1,0.3c-0.4,0.1-0.8,0.1-1.2,0.1c-0.5,0-1.1-0.1-1.7-0.3c-0.6-0.2-1.1-0.6-1.6-1.1c-0.5-0.5-0.9-1.1-1.2-2
			c-0.3-0.8-0.5-1.8-0.5-3c0-1,0.1-1.8,0.4-2.6c0.3-0.8,0.6-1.4,1-1.9c0.4-0.5,1-0.9,1.6-1.2c0.6-0.3,1.3-0.4,2-0.4
			c0.8,0,1.5,0.1,2.1,0.4c0.6,0.3,1.1,0.7,1.5,1.2c0.4,0.5,0.7,1.2,0.9,1.9C268,52,268.1,52.8,268.1,53.7z M266.6,53.2
			c-0.1-1.2-0.4-2.1-0.9-2.9s-1.3-1.1-2.4-1.1c-0.9,0-1.6,0.3-2.2,1c-0.6,0.7-0.9,1.7-1,3H266.6z"/>
		<path id="XMLID_109_" class="st0" d="M273.2,44.6c0,0.3-0.1,0.6-0.4,0.9c-0.2,0.2-0.5,0.4-0.8,0.4c-0.4,0-0.6-0.1-0.9-0.4
			c-0.2-0.2-0.4-0.5-0.4-0.9c0-0.4,0.1-0.6,0.4-0.9c0.2-0.2,0.5-0.4,0.9-0.4c0.3,0,0.6,0.1,0.8,0.4C273.1,44,273.2,44.3,273.2,44.6z
			 M271.1,60V48h1.7v12H271.1z"/>
		<path id="XMLID_107_" class="st0" d="M275.7,60v-1.3l6.6-9.3h-6V48h8v1.3l-6.6,9.3h6.6V60H275.7z"/>
		<path id="XMLID_105_" class="st0" d="M294.7,60v-1.5c-0.4,0.5-0.8,0.9-1.4,1.2c-0.5,0.3-1.2,0.5-2,0.5c-0.6,0-1.2-0.1-1.7-0.3
			c-0.5-0.2-1-0.5-1.3-0.9c-0.4-0.4-0.6-0.9-0.8-1.5c-0.2-0.6-0.3-1.4-0.3-2.2V48h1.7v7c0,1.3,0.2,2.3,0.7,2.9
			c0.5,0.6,1.2,0.9,2.1,0.9c0.8,0,1.5-0.3,2.1-0.9s0.9-1.6,0.9-2.9v-7h1.7v12H294.7z"/>
		<path id="XMLID_103_" class="st0" d="M306,49.8c-0.2-0.1-0.5-0.2-0.8-0.3c-0.3-0.1-0.6-0.1-1-0.1c-0.8,0-1.5,0.3-1.9,1
			c-0.5,0.6-0.7,1.5-0.7,2.7V60h-1.7V48h1.7v1.5c0.3-0.5,0.7-0.9,1.2-1.2c0.5-0.3,1.1-0.5,1.8-0.5c0.4,0,0.8,0,1.1,0.1
			c0.3,0.1,0.6,0.1,0.8,0.2L306,49.8z"/>
		<path id="XMLID_100_" class="st0" d="M317.9,53.7c0,0.2,0,0.4,0,0.5c0,0.1,0,0.3-0.1,0.4h-8c0.1,1.3,0.4,2.3,1,3.1
			s1.4,1.1,2.4,1.1c0.7,0,1.3-0.1,1.8-0.3c0.5-0.2,1-0.5,1.5-0.8l0.8,1.2c-0.4,0.2-0.7,0.4-1,0.6c-0.3,0.2-0.6,0.3-1,0.4
			s-0.7,0.2-1.1,0.3c-0.4,0.1-0.8,0.1-1.2,0.1c-0.5,0-1.1-0.1-1.7-0.3c-0.6-0.2-1.1-0.6-1.6-1.1c-0.5-0.5-0.9-1.1-1.2-2
			c-0.3-0.8-0.5-1.8-0.5-3c0-1,0.1-1.8,0.4-2.6c0.3-0.8,0.6-1.4,1-1.9c0.4-0.5,1-0.9,1.6-1.2c0.6-0.3,1.3-0.4,2-0.4
			c0.8,0,1.5,0.1,2.1,0.4c0.6,0.3,1.1,0.7,1.5,1.2c0.4,0.5,0.7,1.2,0.9,1.9C317.8,52,317.9,52.8,317.9,53.7z M316.3,53.2
			c-0.1-1.2-0.4-2.1-0.9-2.9s-1.3-1.1-2.4-1.1c-0.9,0-1.6,0.3-2.2,1c-0.6,0.7-0.9,1.7-1,3H316.3z"/>
		<path id="XMLID_98_" class="st0" d="M330.1,45c-0.4,0-0.6,0.1-0.9,0.3c-0.2,0.2-0.4,0.5-0.4,1V48h2.4v1.5h-2.4V60h-1.7V49.5h-1.6
			V48h1.6v-1.6c0-1.1,0.3-1.8,0.8-2.3s1.2-0.7,2.1-0.7c0.4,0,0.6,0,0.9,0c0.2,0,0.4,0.1,0.7,0.2v1.6C331.1,45.1,330.6,45,330.1,45z"
			/>
		<path id="XMLID_96_" class="st0" d="M340.2,49.8c-0.2-0.1-0.5-0.2-0.8-0.3c-0.3-0.1-0.6-0.1-1-0.1c-0.8,0-1.5,0.3-1.9,1
			c-0.5,0.6-0.7,1.5-0.7,2.7V60h-1.7V48h1.7v1.5c0.3-0.5,0.7-0.9,1.2-1.2c0.5-0.3,1.1-0.5,1.8-0.5c0.4,0,0.8,0,1.1,0.1
			c0.3,0.1,0.6,0.1,0.8,0.2L340.2,49.8z"/>
		<path id="XMLID_93_" class="st0" d="M352.1,53.7c0,0.2,0,0.4,0,0.5c0,0.1,0,0.3-0.1,0.4h-8c0.1,1.3,0.4,2.3,1,3.1s1.4,1.1,2.4,1.1
			c0.7,0,1.3-0.1,1.8-0.3c0.5-0.2,1-0.5,1.5-0.8l0.8,1.2c-0.4,0.2-0.7,0.4-1,0.6c-0.3,0.2-0.6,0.3-1,0.4s-0.7,0.2-1.1,0.3
			c-0.4,0.1-0.8,0.1-1.2,0.1c-0.5,0-1.1-0.1-1.7-0.3c-0.6-0.2-1.1-0.6-1.6-1.1c-0.5-0.5-0.9-1.1-1.2-2c-0.3-0.8-0.5-1.8-0.5-3
			c0-1,0.1-1.8,0.4-2.6c0.3-0.8,0.6-1.4,1-1.9c0.4-0.5,1-0.9,1.6-1.2c0.6-0.3,1.3-0.4,2-0.4c0.8,0,1.5,0.1,2.1,0.4
			c0.6,0.3,1.1,0.7,1.5,1.2c0.4,0.5,0.7,1.2,0.9,1.9C352,52,352.1,52.8,352.1,53.7z M350.5,53.2c-0.1-1.2-0.4-2.1-0.9-2.9
			s-1.3-1.1-2.4-1.1c-0.9,0-1.6,0.3-2.2,1c-0.6,0.7-0.9,1.7-1,3H350.5z"/>
		<path id="XMLID_90_" class="st0" d="M362.2,64.5v-5.9c-0.4,0.5-0.9,0.9-1.5,1.2c-0.6,0.3-1.3,0.5-2.1,0.5c-0.6,0-1.2-0.1-1.7-0.4
			c-0.5-0.2-1-0.6-1.4-1.1c-0.4-0.5-0.7-1.1-0.9-1.9c-0.2-0.8-0.3-1.7-0.3-2.7c0-1.1,0.1-2,0.4-2.8c0.2-0.8,0.6-1.5,1-2
			c0.4-0.5,0.9-1,1.4-1.2c0.5-0.3,1.1-0.4,1.8-0.4c0.8,0,1.4,0.1,1.9,0.4c0.5,0.3,1,0.7,1.4,1.2V48h1.7v15.5L362.2,64.5z M362.2,51
			c-0.3-0.5-0.8-0.9-1.3-1.3c-0.6-0.4-1.2-0.5-1.9-0.5c-1,0-1.8,0.4-2.2,1.3c-0.5,0.8-0.7,2.1-0.7,3.7c0,1.5,0.3,2.7,0.8,3.5
			c0.5,0.8,1.3,1.2,2.2,1.2c0.6,0,1.2-0.2,1.8-0.5s1-0.7,1.4-1.3V51z"/>
		<path id="XMLID_88_" class="st0" d="M374.8,60v-1.5c-0.4,0.5-0.8,0.9-1.4,1.2c-0.5,0.3-1.2,0.5-2,0.5c-0.6,0-1.2-0.1-1.7-0.3
			c-0.5-0.2-1-0.5-1.3-0.9c-0.4-0.4-0.6-0.9-0.8-1.5c-0.2-0.6-0.3-1.4-0.3-2.2V48h1.7v7c0,1.3,0.2,2.3,0.7,2.9
			c0.5,0.6,1.2,0.9,2.1,0.9c0.8,0,1.5-0.3,2.1-0.9s0.9-1.6,0.9-2.9v-7h1.7v12H374.8z"/>
		<path id="XMLID_85_" class="st0" d="M389.1,53.7c0,0.2,0,0.4,0,0.5c0,0.1,0,0.3-0.1,0.4h-8c0.1,1.3,0.4,2.3,1,3.1s1.4,1.1,2.4,1.1
			c0.7,0,1.3-0.1,1.8-0.3c0.5-0.2,1-0.5,1.5-0.8l0.8,1.2c-0.4,0.2-0.7,0.4-1,0.6c-0.3,0.2-0.6,0.3-1,0.4s-0.7,0.2-1.1,0.3
			c-0.4,0.1-0.8,0.1-1.2,0.1c-0.5,0-1.1-0.1-1.7-0.3c-0.6-0.2-1.1-0.6-1.6-1.1c-0.5-0.5-0.9-1.1-1.2-2c-0.3-0.8-0.5-1.8-0.5-3
			c0-1,0.1-1.8,0.4-2.6c0.3-0.8,0.6-1.4,1-1.9c0.4-0.5,1-0.9,1.6-1.2c0.6-0.3,1.3-0.4,2-0.4c0.8,0,1.5,0.1,2.1,0.4
			c0.6,0.3,1.1,0.7,1.5,1.2c0.4,0.5,0.7,1.2,0.9,1.9C389,52,389.1,52.8,389.1,53.7z M387.5,53.2c-0.1-1.2-0.4-2.1-0.9-2.9
			s-1.3-1.1-2.4-1.1c-0.9,0-1.6,0.3-2.2,1c-0.6,0.7-0.9,1.7-1,3H387.5z"/>
		<path id="XMLID_83_" class="st0" d="M399.5,60v-7c0-1.3-0.2-2.3-0.7-2.9c-0.5-0.6-1.2-0.9-2.1-0.9c-0.8,0-1.5,0.3-2.1,0.9
			s-0.9,1.6-0.9,2.9v7h-1.7V48h1.7l0,1.5c0.4-0.5,0.8-0.9,1.4-1.2c0.6-0.3,1.2-0.5,2-0.5c0.6,0,1.2,0.1,1.7,0.3
			c0.5,0.2,1,0.5,1.3,0.9c0.4,0.4,0.7,0.9,0.8,1.5c0.2,0.6,0.3,1.4,0.3,2.2V60H399.5z"/>
		<path id="XMLID_81_" class="st0" d="M411.8,50.4c-0.4-0.4-0.9-0.7-1.3-0.9s-1-0.3-1.6-0.3c-0.5,0-0.9,0.1-1.3,0.3
			c-0.4,0.2-0.8,0.5-1.1,0.9s-0.5,0.9-0.7,1.5c-0.2,0.6-0.3,1.3-0.3,2c0,1.5,0.3,2.7,0.9,3.6c0.6,0.9,1.4,1.3,2.5,1.3
			c0.6,0,1.1-0.1,1.5-0.3c0.4-0.2,0.8-0.5,1.3-0.9l1,1.1c-0.5,0.5-1.1,0.9-1.7,1.2c-0.6,0.3-1.3,0.4-2.2,0.4c-0.7,0-1.3-0.1-1.9-0.4
			c-0.6-0.3-1.1-0.6-1.6-1.2c-0.5-0.5-0.8-1.2-1.1-1.9c-0.3-0.8-0.4-1.7-0.4-2.7c0-1.1,0.2-2.1,0.5-2.9s0.7-1.4,1.2-2
			c0.5-0.5,1-0.9,1.7-1.1c0.6-0.2,1.2-0.4,1.9-0.4c0.8,0,1.5,0.1,2.2,0.4c0.6,0.3,1.2,0.6,1.6,1L411.8,50.4z"/>
		<path id="XMLID_79_" class="st0" d="M418.8,64.3h-1.7l1.6-4.4L414.5,48h1.8l2.9,8.7l0.4,1.2l0.4-1.2l3-8.7h1.8L418.8,64.3z"/>
		<path id="XMLID_77_" class="st0" d="M440.3,60v-1.5c-0.4,0.5-0.8,0.9-1.4,1.2c-0.5,0.3-1.2,0.5-2,0.5c-0.6,0-1.2-0.1-1.7-0.3
			c-0.5-0.2-1-0.5-1.3-0.9c-0.4-0.4-0.6-0.9-0.8-1.5c-0.2-0.6-0.3-1.4-0.3-2.2V48h1.7v7c0,1.3,0.2,2.3,0.7,2.9
			c0.5,0.6,1.2,0.9,2.1,0.9c0.8,0,1.5-0.3,2.1-0.9s0.9-1.6,0.9-2.9v-7h1.7v12H440.3z"/>
		<path id="XMLID_74_" class="st0" d="M455.1,53.8c0,1.1-0.1,2-0.4,2.8c-0.2,0.8-0.6,1.5-1,2c-0.4,0.5-0.9,1-1.4,1.2
			c-0.5,0.3-1.1,0.4-1.8,0.4c-0.8,0-1.4-0.1-1.9-0.4c-0.5-0.3-1-0.7-1.4-1.2v4.8l-1.7,1V48h1.7l0,1.5c0.4-0.5,0.9-0.9,1.5-1.2
			s1.3-0.5,2.1-0.5c0.6,0,1.2,0.1,1.7,0.4c0.5,0.2,1,0.6,1.4,1.1c0.4,0.5,0.7,1.1,0.9,1.9C454.9,51.9,455.1,52.8,455.1,53.8z
			 M453.4,53.8c0-1.5-0.3-2.7-0.8-3.5c-0.5-0.8-1.3-1.2-2.2-1.2c-0.6,0-1.2,0.2-1.7,0.5c-0.5,0.3-1,0.7-1.4,1.3v6
			c0.3,0.5,0.8,0.9,1.3,1.3c0.6,0.4,1.2,0.5,1.9,0.5c1,0,1.7-0.4,2.2-1.3C453.1,56.7,453.4,55.5,453.4,53.8z"/>
		<path id="XMLID_72_" class="st0" d="M465.6,49.5v7.8c0,0.5,0.1,0.9,0.3,1.1c0.2,0.2,0.5,0.3,1,0.3c0.4,0,0.7,0,0.9-0.1
			c0.3-0.1,0.5-0.1,0.8-0.3l-0.1,1.5c-0.3,0.1-0.7,0.2-1,0.3c-0.3,0.1-0.7,0.1-1.2,0.1c-0.8,0-1.3-0.2-1.7-0.6s-0.6-1.1-0.6-2.1
			v-8.1h-1.5V48h1.5v-3.7l1.7-1V48h3v1.5H465.6z"/>
		<path id="XMLID_69_" class="st0" d="M481.3,53.9c0,1-0.1,1.9-0.4,2.7c-0.3,0.8-0.6,1.5-1.1,2c-0.5,0.5-1,1-1.7,1.2
			c-0.6,0.3-1.3,0.4-2.1,0.4c-0.7,0-1.4-0.1-2.1-0.4c-0.6-0.3-1.2-0.7-1.6-1.2c-0.5-0.5-0.8-1.2-1.1-2c-0.3-0.8-0.4-1.7-0.4-2.7
			c0-1,0.1-1.9,0.4-2.7c0.3-0.8,0.6-1.4,1.1-2c0.5-0.5,1-0.9,1.7-1.2c0.6-0.3,1.3-0.4,2.1-0.4c0.7,0,1.4,0.1,2.1,0.4
			s1.2,0.6,1.6,1.2c0.5,0.5,0.8,1.2,1.1,1.9C481.2,52,481.3,52.9,481.3,53.9z M479.6,54c0-1.6-0.3-2.8-1-3.6s-1.5-1.2-2.5-1.2
			s-1.9,0.4-2.5,1.2c-0.6,0.8-1,2-1,3.6c0,1.6,0.3,2.8,1,3.6c0.6,0.8,1.5,1.2,2.5,1.2s1.9-0.4,2.5-1.2
			C479.3,56.8,479.6,55.6,479.6,54z"/>
	</g>
</g>
<linearGradient id="XMLID_349_" gradientUnits="userSpaceOnUse" x1="0" y1="36.199" x2="150.22" y2="36.199">
	<stop  offset="0" style="stop-color:#4B257A"/>
	<stop  offset="1" style="stop-color:#964C8E"/>
</linearGradient>
<rect id="XMLID_65_" y="0.3" class="st1" width="150.2" height="71.7"/>
<rect id="XMLID_64_" x="150.4" y="0.3" class="st2" width="499.6" height="71.7"/>
<g id="XMLID_14_">
	<polygon id="XMLID_63_" class="st3" points="22.3,38 17.2,29 14.6,32 14.6,38 10.7,38 10.7,18.1 14.6,18.1 14.6,26.8 21.6,18.1 
		26.3,18.1 19.7,26 26.8,38 	"/>
	<path id="XMLID_60_" class="st3" d="M53.8,21.6h-3.6V27h3.6c1.8,0,2.9-1.1,2.9-2.7C56.7,22.7,55.6,21.6,53.8,21.6 M54,30.5h-3.8V38
		h-3.9v-20H54c4.1,0,6.6,2.8,6.6,6.2S58.1,30.5,54,30.5"/>
	<path id="XMLID_57_" class="st3" d="M71.4,21.6h-3.7v5.3h3.7c1.7,0,2.8-1.1,2.8-2.6C74.3,22.7,73.1,21.6,71.4,21.6 M74.5,38l-3.9-8
		h-2.8v8h-3.9v-20h7.8c4.1,0,6.5,2.8,6.5,6.1c0,2.8-1.7,4.5-3.6,5.2L79,38H74.5z"/>
	<path id="XMLID_54_" class="st3" d="M88.9,24l-2.5,7.3h5L88.9,24z M93.6,38l-1.2-3.5h-7.1L84.1,38H80l7.3-20h3.1l7.3,20H93.6z"/>
	<path id="XMLID_51_" class="st3" d="M109.8,22.8c-0.7-0.8-1.6-1.2-2.9-1.2H104v13h2.9c1.3,0,2.2-0.4,2.9-1.2
		c0.7-0.9,0.8-2.3,0.8-5.4C110.7,25,110.6,23.7,109.8,22.8 M112.6,36.1c-1.3,1.3-3.2,1.9-5.3,1.9h-7.2v-20h7.2
		c2.1,0,3.9,0.6,5.3,1.9c2.2,2.2,2,5,2,8C114.6,31,114.8,33.9,112.6,36.1"/>
	<rect id="XMLID_50_" x="118.6" y="18.1" class="st3" width="3.9" height="20"/>
	<polygon id="XMLID_49_" class="st3" points="127.1,38 127.1,18.1 131,18.1 131,34.6 140,34.6 140,38 	"/>
	<polygon id="XMLID_48_" class="st3" points="10.2,41 11.5,41 11.5,52.8 19.8,52.8 19.8,54 10.2,54 	"/>
	<path id="XMLID_45_" class="st3" d="M29.7,48.6c-0.4-2.3-2.1-3.2-3.9-3.2c-1.7,0-3.6,0.9-3.9,3.2H29.7z M30.8,51
		c-0.5,1.7-2,3.3-5.1,3.3c-3.9,0-5.2-2.7-5.2-5.1c0-2.7,1.6-5.1,5.2-5.1c2.5,0,5.4,1.1,5.4,5.4h-9.2c0,2,1.4,3.6,3.8,3.6
		c2.3,0,3.3-0.8,3.8-2.2H30.8z"/>
	<polygon id="XMLID_44_" class="st3" points="40.5,44.5 42,44.5 37.5,54 36,54 31.6,44.5 33,44.5 36.8,52.5 	"/>
	<path id="XMLID_41_" class="st3" d="M51.8,48.6c-0.4-2.3-2.1-3.2-3.9-3.2c-1.7,0-3.6,0.9-3.9,3.2H51.8z M52.9,51
		c-0.5,1.7-2,3.3-5.1,3.3c-3.9,0-5.2-2.7-5.2-5.1c0-2.7,1.6-5.1,5.2-5.1c2.5,0,5.4,1.1,5.4,5.4h-9.2c0,2,1.4,3.6,3.8,3.6
		c2.3,0,3.3-0.8,3.8-2.2H52.9z"/>
	<path id="XMLID_40_" class="st3" d="M55.7,41.5H57v3h2.7v1H57v6.3c0,0.8,0.3,1.2,1.4,1.2c0.7,0,1.1-0.1,1.3-0.1v1.1
		c-0.5,0.1-1,0.1-1.5,0.1c-2.1,0-2.6-0.8-2.6-2.4v-6.3h-2.1v-1h2.1V41.5z"/>
	<path id="XMLID_37_" class="st3" d="M61.2,44.5h1.4V54h-1.4V44.5z M61.2,40.8h1.4v2h-1.4V40.8z"/>
	<path id="XMLID_36_" class="st3" d="M64.6,44.5h1.4v2.2h0c0.5-1.1,1.4-2.5,3.6-2.5c0.4,0,0.6,0,0.8,0.1v1.4
		c-0.4-0.1-0.8-0.1-1.2-0.1c-1.5,0-3.2,0.9-3.2,3.6V54h-1.4V44.5z"/>
	<path id="XMLID_33_" class="st3" d="M78.9,48.9c-0.6,0.4-1.5,0.5-4.2,0.7c-1.6,0.1-2.5,0.6-2.5,1.8c0,1.5,1.3,1.9,2.7,1.9
		c1.8,0,4-1,4-2.9V48.9z M71.3,47.4c0.2-2,1.3-3.2,4.5-3.2c3.2,0,4.4,1,4.4,2.8v5c0,0.8,0.2,1.1,0.8,1.1c0.2,0,0.5,0,0.7,0v0.9
		c-0.3,0.1-0.7,0.1-1.1,0.1c-1.4,0-1.4-0.9-1.5-1.7h0c-0.4,0.6-1.3,1.9-4.4,1.9c-1.6,0-3.7-0.7-3.7-2.9c0-2.6,2.7-2.9,4.7-3
		c3-0.2,3.3-0.3,3.3-1.3c0-1.4-0.9-1.9-3.1-1.9c-2.1,0-3.2,0.6-3.3,2.1H71.3z"/>
	<path id="XMLID_32_" class="st3" d="M92.2,50.6c-0.3,1.2-1.4,3.7-4.8,3.7c-3.4,0-5.4-2.1-5.4-5.1c0-2.9,1.8-5.1,5.4-5.1
		c3.3,0,4.5,2,4.7,3.4h-1.4c-0.4-1.6-1.7-2.3-3.4-2.3c-2.7,0-4,1.7-4,3.9c0,2.4,1.4,3.9,4,3.9c2,0,3.1-1.1,3.5-2.6H92.2z"/>
	<path id="XMLID_29_" class="st3" d="M102.6,48.6c-0.4-2.3-2.1-3.2-3.9-3.2c-1.7,0-3.6,0.9-3.9,3.2H102.6z M103.7,51
		c-0.5,1.7-2,3.3-5.1,3.3c-3.9,0-5.2-2.7-5.2-5.1c0-2.7,1.6-5.1,5.2-5.1c2.5,0,5.4,1.1,5.4,5.4h-9.2c0,2,1.4,3.6,3.8,3.6
		c2.3,0,3.3-0.8,3.8-2.2H103.7z"/>
	<path id="XMLID_28_" class="st3" d="M106.5,41.5h1.4v3h2.7v1h-2.7v6.3c0,0.8,0.3,1.2,1.4,1.2c0.7,0,1.1-0.1,1.3-0.1v1.1
		c-0.5,0.1-1,0.1-1.5,0.1c-2.1,0-2.6-0.8-2.6-2.4v-6.3h-2.1v-1h2.1V41.5z"/>
	<path id="XMLID_25_" class="st3" d="M119.6,48.9c-0.6,0.4-1.5,0.5-4.2,0.7c-1.6,0.1-2.5,0.6-2.5,1.8c0,1.5,1.3,1.9,2.7,1.9
		c1.8,0,4-1,4-2.9V48.9z M112,47.4c0.2-2,1.3-3.2,4.5-3.2c3.2,0,4.4,1,4.4,2.8v5c0,0.8,0.2,1.1,0.8,1.1c0.2,0,0.5,0,0.7,0v0.9
		c-0.3,0.1-0.7,0.1-1.1,0.1c-1.4,0-1.4-0.9-1.5-1.7h0c-0.4,0.6-1.3,1.9-4.4,1.9c-1.6,0-3.7-0.7-3.7-2.9c0-2.6,2.7-2.9,4.7-3
		c3-0.2,3.3-0.3,3.3-1.3c0-1.4-0.9-1.9-3.2-1.9c-2.1,0-3.2,0.6-3.3,2.1H112z"/>
	<path id="XMLID_24_" class="st3" d="M138.1,48c0-1.7-0.9-2.6-2.8-2.6c-2.1,0-3.2,1.2-3.2,3.1V54h-1.4v-6.4c0-1.2-0.9-2.2-2.7-2.2
		c-1.9,0-3.4,1.1-3.4,3.3V54h-1.4v-9.5h1.4v1.8h0c0.6-1,1.6-2.1,3.8-2.1c2.1,0,3.1,1.1,3.4,2.1c0.5-1,1.8-2.1,3.7-2.1
		c2.7,0,3.9,1.4,3.9,3.3V54h-1.4V48z"/>
	<path id="XMLID_19_" class="st3" d="M136.3,21.2c0.4,0,0.8,0,0.8-0.5c0-0.4-0.3-0.4-0.7-0.4h-0.6v0.9H136.3z M135.3,19.9h1.2
		c0.7,0,1,0.3,1,0.9c0,0.5-0.4,0.8-0.8,0.8l0.9,1.3h-0.5l-0.8-1.3h-0.5v1.3h-0.5V19.9z M138.5,21.4c0-1.2-1-2.2-2.1-2.2
		c-1.2,0-2.1,1-2.1,2.2c0,1.2,1,2.2,2.1,2.2C137.6,23.6,138.5,22.6,138.5,21.4 M136.4,18.8c1.4,0,2.6,1.2,2.6,2.6
		c0,1.4-1.2,2.6-2.6,2.6s-2.6-1.2-2.6-2.6C133.8,20,134.9,18.8,136.4,18.8"/>
	<polygon id="XMLID_18_" class="st3" points="29.4,38 42.5,38 42.5,34.6 33.3,34.6 33.3,30.5 29.4,30.5 	"/>
	<path id="XMLID_17_" class="st3" d="M27.7,28.9c0,0,1.7-3.6,7.9-3.6c6.3,0,9.7-2.2,9.7-2.2s-4.4,4.6-8.8,4.6
		C32.1,27.7,29.5,27.7,27.7,28.9"/>
	<path id="XMLID_16_" class="st3" d="M25.9,32.4c0,0,1.7-3.6,7.9-3.6c6.3,0,9.7-2.2,9.7-2.2s-4.4,4.6-8.8,4.6S27.7,31.1,25.9,32.4"
		/>
	<polygon id="XMLID_15_" class="st3" points="29.4,27 33.3,27 33.3,21.6 42.5,21.6 42.5,18.1 29.4,18.1 	"/>
</g>
<g id="XMLID_1_">
	<path id="XMLID_11_" class="st0" d="M542.3,36.3c0,1.8-0.3,3.3-1,4.6c-0.7,1.3-1.6,2.4-2.8,3.4c-1.2,0.9-2.6,1.6-4.2,2.1
		S531,47,529.2,47c-1.8,0-3.4-0.2-4.9-0.7c-1.5-0.5-2.8-1.3-3.9-2.3c-1.1-1-2-2.4-2.6-3.9c-0.6-1.6-1-3.5-1-5.7
		c0-1.4,0.1-2.8,0.4-4.3c0.3-1.5,0.8-3,1.4-4.4c0.7-1.4,1.5-2.8,2.6-4.2c1.1-1.3,2.4-2.5,3.9-3.5c1.6-1,3.4-1.8,5.5-2.4
		c2.1-0.6,4.5-0.9,7.2-0.9v6.1c-3.6,0-6.6,0.6-8.9,1.9c-2.3,1.2-3.9,3.1-4.8,5.5c1-0.7,2.1-1.2,3.1-1.5c1.1-0.3,2.4-0.5,4-0.5
		c1.6,0,3,0.2,4.3,0.6s2.5,1,3.5,1.9c1,0.8,1.8,1.9,2.3,3.2C542.1,33.1,542.3,34.6,542.3,36.3z M536,36.5c0-1.6-0.6-2.8-1.7-3.5
		c-1.1-0.7-2.6-1.1-4.6-1.1c-2.1,0-3.8,0.4-4.9,1.1c-1.1,0.7-1.7,1.9-1.7,3.6c0,1.5,0.5,2.6,1.6,3.4c1,0.8,2.6,1.2,4.7,1.2
		c2.1,0,3.7-0.4,4.9-1.3C535.4,39.1,536,38,536,36.5z"/>
	<path id="XMLID_8_" class="st0" d="M571.1,27.4c0,1.4-0.1,2.8-0.4,4.3c-0.3,1.5-0.8,3-1.4,4.4c-0.7,1.4-1.5,2.8-2.6,4.2
		c-1.1,1.3-2.4,2.5-3.9,3.5s-3.4,1.8-5.5,2.4c-2.1,0.6-4.5,0.9-7.2,0.9V41c3.6,0,6.6-0.6,8.9-1.9c2.3-1.2,3.9-3.1,4.8-5.5
		c-1,0.7-2.1,1.2-3.1,1.5c-1.1,0.3-2.4,0.5-4,0.5c-1.6,0-3-0.2-4.3-0.6c-1.3-0.4-2.5-1-3.5-1.9c-1-0.8-1.8-1.9-2.3-3.2
		c-0.6-1.3-0.9-2.8-0.9-4.5s0.3-3.3,1-4.6s1.6-2.5,2.8-3.4c1.2-0.9,2.6-1.6,4.2-2.1c1.6-0.5,3.3-0.7,5.2-0.7c1.7,0,3.4,0.2,4.9,0.7
		s2.8,1.3,4,2.3c1.1,1,2,2.4,2.6,4C570.7,23.3,571.1,25.2,571.1,27.4z M564.6,25.2c0-1.5-0.5-2.6-1.6-3.4c-1-0.8-2.6-1.2-4.7-1.2
		c-2.1,0-3.7,0.4-4.9,1.3c-1.1,0.8-1.7,2-1.7,3.4c0,1.6,0.6,2.8,1.7,3.5c1.1,0.7,2.6,1.1,4.6,1.1c2.1,0,3.8-0.4,4.9-1.1
		C564,28.1,564.6,26.9,564.6,25.2z"/>
	<path id="XMLID_2_" class="st0" d="M587.5,25.7c0,6.1-3.2,9.2-7,9.2c-3.6,0-6.8-2.9-6.8-8.8c0-5.8,3.2-9.1,7-9.1
		C584.8,17,587.5,20.1,587.5,25.7z M576.9,25.9c-0.1,3.7,1.3,6.5,3.8,6.5c2.6,0,3.8-2.8,3.8-6.6c0-3.5-1-6.5-3.8-6.5
		C578.2,19.4,576.9,22.3,576.9,25.9z M580.3,47L597.4,17h2.5L582.8,47H580.3z M606.5,37.7c0,6.1-3.2,9.2-6.9,9.2
		c-3.6,0-6.8-2.9-6.8-8.7c0-5.9,3.2-9.1,7-9.1C603.8,29,606.5,32.1,606.5,37.7z M595.8,38c0,3.7,1.4,6.5,3.8,6.5
		c2.6,0,3.8-2.8,3.8-6.6c0-3.5-1-6.5-3.8-6.5C597.1,31.4,595.8,34.3,595.8,38z"/>
</g>
</svg>
