<!-- Generator: Adobe Illustrator 22.1.0, SVG Export Plug-In  -->
<svg version="1.1"
	 xmlns="http://www.w3.org/2000/svg" xmlns:xlink="http://www.w3.org/1999/xlink" xmlns:a="http://ns.adobe.com/AdobeSVGViewerExtensions/3.0/"
	 x="0px" y="0px" width="97.8px" height="235px" viewBox="0 0 97.8 235" style="enable-background:new 0 0 97.8 235;"
	 xml:space="preserve">
<style type="text/css">
	.st0{fill:#58595B;}
	.st1{fill:url(#XMLID_70_);}
	.st2{fill:#A6A8AB;}
	.st3{fill:url(#XMLID_71_);}
</style>
<defs>
</defs>
<g id="XMLID_36_">
	<path id="XMLID_68_" class="st0" d="M12.4,7.2c0,0.4-0.1,0.8-0.2,1.2S11.9,9,11.6,9.3s-0.6,0.5-1,0.6C10.1,10,9.6,10.1,9,10.1
		c-0.7,0-1.3-0.1-1.8-0.4S6.2,9,5.8,8.5l1-1c0.3,0.3,0.7,0.6,1.1,0.8c0.4,0.2,0.8,0.3,1.3,0.3c1.2,0,1.9-0.5,1.9-1.4
		c0-0.2,0-0.3-0.1-0.5c-0.1-0.1-0.2-0.3-0.3-0.4C10.4,6.3,10.2,6.1,9.9,6C9.7,5.9,9.4,5.8,9,5.7C8.5,5.6,8.1,5.4,7.7,5.2
		C7.4,5.1,7.1,4.9,6.9,4.7C6.6,4.5,6.4,4.3,6.3,4S6.2,3.3,6.2,2.9c0-0.4,0.1-0.8,0.2-1.1C6.5,1.5,6.8,1.2,7,1C7.3,0.7,7.6,0.6,8,0.4
		c0.4-0.1,0.8-0.2,1.2-0.2c0.6,0,1.2,0.1,1.6,0.3c0.5,0.2,0.9,0.5,1.3,1l-1,1c-0.3-0.3-0.6-0.5-0.9-0.7C9.9,1.7,9.5,1.6,9,1.6
		C8.5,1.6,8.1,1.8,7.9,2S7.5,2.5,7.5,2.8c0,0.2,0,0.3,0.1,0.4c0.1,0.1,0.2,0.3,0.3,0.4C8.1,3.7,8.3,3.9,8.5,4c0.3,0.1,0.6,0.2,1,0.3
		c0.4,0.1,0.8,0.3,1.2,0.4s0.7,0.3,0.9,0.6s0.4,0.5,0.6,0.8C12.3,6.4,12.4,6.8,12.4,7.2z"/>
	<path id="XMLID_65_" class="st0" d="M15.5,1c0,0.2-0.1,0.5-0.3,0.6s-0.4,0.3-0.6,0.3c-0.2,0-0.4-0.1-0.6-0.3
		c-0.2-0.2-0.3-0.4-0.3-0.6c0-0.3,0.1-0.5,0.3-0.6C14.3,0.1,14.5,0,14.7,0c0.2,0,0.4,0.1,0.6,0.3S15.5,0.7,15.5,1z M14,9.9V2.8h1.3
		v7.1H14z"/>
	<path id="XMLID_63_" class="st0" d="M25,9.9v-4c0-0.7-0.1-1.2-0.3-1.5c-0.2-0.3-0.5-0.4-1-0.4c-0.4,0-0.8,0.2-1,0.5
		s-0.3,0.8-0.3,1.3v4.2h-1.3v-4c0-0.7-0.1-1.2-0.3-1.5c-0.2-0.3-0.5-0.4-1-0.4c-0.4,0-0.8,0.2-1,0.5s-0.3,0.8-0.3,1.3v4.2h-1.3V2.8
		h1.3v0.7c0.2-0.3,0.4-0.5,0.7-0.6c0.3-0.1,0.6-0.2,0.9-0.2c0.5,0,0.8,0.1,1.1,0.3s0.5,0.4,0.7,0.8c0.1-0.2,0.2-0.3,0.4-0.4
		c0.1-0.1,0.3-0.2,0.4-0.3c0.2-0.1,0.3-0.2,0.5-0.2s0.4-0.1,0.7-0.1c0.8,0,1.4,0.3,1.8,0.8c0.4,0.5,0.6,1.3,0.6,2.4v4.1H25z"/>
	<path id="XMLID_60_" class="st0" d="M33.7,6.5c0,0.6-0.1,1.1-0.2,1.6c-0.1,0.4-0.3,0.8-0.6,1.1c-0.2,0.3-0.5,0.5-0.8,0.7
		c-0.3,0.1-0.7,0.2-1,0.2c-0.3,0-0.7-0.1-1-0.2c-0.3-0.2-0.5-0.4-0.7-0.6v2.6L28,12.5V2.8h1.3l0,0.7c0.2-0.2,0.5-0.4,0.8-0.6
		c0.3-0.2,0.6-0.2,1-0.2s0.7,0.1,1,0.2c0.3,0.1,0.6,0.4,0.8,0.7c0.2,0.3,0.4,0.7,0.6,1.2C33.6,5.2,33.7,5.8,33.7,6.5z M32.3,6.5
		c0-0.9-0.1-1.6-0.4-2c-0.3-0.4-0.6-0.6-1.1-0.6c-0.3,0-0.6,0.1-0.9,0.3c-0.3,0.2-0.5,0.4-0.7,0.6v3c0.1,0.1,0.2,0.2,0.3,0.3
		c0.1,0.1,0.2,0.2,0.4,0.3c0.1,0.1,0.3,0.2,0.4,0.2s0.3,0.1,0.5,0.1c0.5,0,0.8-0.2,1.1-0.6C32.2,7.8,32.3,7.3,32.3,6.5z"/>
	<path id="XMLID_58_" class="st0" d="M35.1,9.9V0.7L36.5,0v9.9H35.1z"/>
	<path id="XMLID_55_" class="st0" d="M43.7,6.2c0,0.1,0,0.2,0,0.4c0,0.1,0,0.2,0,0.3h-4.5c0,0.3,0.1,0.6,0.2,0.9
		c0.1,0.2,0.2,0.4,0.4,0.6c0.2,0.2,0.3,0.3,0.5,0.4c0.2,0.1,0.4,0.1,0.6,0.1c0.3,0,0.5,0,0.8-0.1c0.2-0.1,0.5-0.2,0.7-0.4l0.8,0.9
		c-0.3,0.3-0.6,0.5-1,0.7c-0.4,0.2-0.8,0.2-1.3,0.2c-0.4,0-0.8-0.1-1.1-0.2S39,9.4,38.8,9.1s-0.5-0.7-0.6-1.2
		c-0.2-0.5-0.2-1-0.2-1.6c0-0.6,0.1-1.1,0.2-1.6c0.1-0.5,0.3-0.8,0.6-1.2C39,3.3,39.3,3,39.7,2.9s0.8-0.2,1.2-0.2
		c0.5,0,0.9,0.1,1.3,0.3s0.7,0.4,0.9,0.8c0.2,0.3,0.4,0.7,0.5,1.1S43.7,5.7,43.7,6.2z M42.4,5.7c0-0.2-0.1-0.5-0.1-0.7
		c-0.1-0.2-0.2-0.4-0.3-0.6S41.7,4.1,41.5,4c-0.2-0.1-0.4-0.1-0.7-0.1c-0.4,0-0.8,0.2-1.1,0.5c-0.3,0.3-0.4,0.8-0.5,1.3H42.4z"/>
	<path id="XMLID_52_" class="st0" d="M54.3,6.5c0,0.6-0.1,1.1-0.2,1.6c-0.1,0.4-0.3,0.8-0.6,1.1c-0.2,0.3-0.5,0.5-0.8,0.7
		c-0.3,0.1-0.7,0.2-1,0.2c-0.3,0-0.7-0.1-1-0.2c-0.3-0.2-0.5-0.4-0.7-0.6v2.6l-1.3,0.7V2.8h1.3l0,0.7c0.2-0.2,0.5-0.4,0.8-0.6
		c0.3-0.2,0.6-0.2,1-0.2s0.7,0.1,1,0.2s0.6,0.4,0.8,0.7c0.2,0.3,0.4,0.7,0.6,1.2C54.2,5.2,54.3,5.8,54.3,6.5z M53,6.5
		c0-0.9-0.1-1.6-0.4-2c-0.3-0.4-0.6-0.6-1.1-0.6c-0.3,0-0.6,0.1-0.9,0.3c-0.3,0.2-0.5,0.4-0.7,0.6v3C50,7.9,50.1,8,50.2,8.1
		c0.1,0.1,0.2,0.2,0.4,0.3c0.1,0.1,0.3,0.2,0.4,0.2s0.3,0.1,0.5,0.1c0.5,0,0.8-0.2,1.1-0.6C52.8,7.8,53,7.3,53,6.5z"/>
	<path id="XMLID_49_" class="st0" d="M59.8,9.9V9.2c-0.2,0.2-0.5,0.4-0.8,0.6s-0.7,0.2-1,0.2c-0.3,0-0.6,0-0.8-0.1s-0.5-0.2-0.8-0.4
		c-0.2-0.2-0.4-0.4-0.5-0.7s-0.2-0.7-0.2-1.1c0-0.4,0.1-0.7,0.2-1c0.1-0.3,0.3-0.5,0.6-0.7c0.2-0.2,0.5-0.3,0.9-0.4
		c0.3-0.1,0.7-0.1,1.1-0.1c0.6,0,1.1,0.1,1.5,0.3V5.1c0-0.4-0.1-0.7-0.3-0.9c-0.2-0.2-0.5-0.3-0.9-0.3c-0.4,0-0.7,0-0.9,0.1
		c-0.3,0.1-0.6,0.2-0.8,0.3l-0.5-1.1c0.3-0.2,0.7-0.4,1-0.5c0.4-0.1,0.8-0.2,1.3-0.2c0.8,0,1.4,0.2,1.8,0.6c0.5,0.4,0.7,1,0.7,1.8
		v4.9H59.8z M59.8,6.9c-0.2-0.1-0.4-0.2-0.6-0.2c-0.2-0.1-0.5-0.1-0.9-0.1c-0.4,0-0.8,0.1-1,0.3s-0.4,0.4-0.4,0.8
		c0,0.4,0.1,0.6,0.3,0.9c0.2,0.2,0.5,0.3,1,0.3c0.4,0,0.7-0.1,1-0.3c0.3-0.2,0.5-0.4,0.7-0.6V6.9z"/>
	<path id="XMLID_47_" class="st0" d="M66.7,4.3c-0.1-0.1-0.3-0.1-0.5-0.2C66,4,65.9,4,65.6,4c-0.4,0-0.7,0.2-1,0.5
		c-0.2,0.3-0.3,0.8-0.3,1.4v4.1H63V2.8h1.3v0.7c0.2-0.2,0.4-0.4,0.6-0.6c0.3-0.2,0.6-0.2,0.9-0.2c0.3,0,0.5,0,0.7,0.1
		c0.2,0.1,0.3,0.1,0.5,0.2L66.7,4.3z"/>
	<path id="XMLID_45_" class="st0" d="M71.7,9.7c-0.2,0.1-0.4,0.2-0.6,0.2s-0.5,0.1-0.7,0.1c-0.5,0-0.8-0.2-1.1-0.5s-0.4-0.8-0.4-1.4
		V4.1h-1V2.8h1v-2L70.2,0v2.8h1.7v1.3h-1.7v3.9c0,0.3,0.1,0.6,0.2,0.7c0.1,0.1,0.3,0.2,0.5,0.2c0.2,0,0.3,0,0.5-0.1
		c0.2-0.1,0.3-0.1,0.5-0.2L71.7,9.7z"/>
	<path id="XMLID_42_" class="st0" d="M75.3,1c0,0.2-0.1,0.5-0.3,0.6s-0.4,0.3-0.6,0.3c-0.2,0-0.4-0.1-0.6-0.3
		c-0.2-0.2-0.3-0.4-0.3-0.6c0-0.3,0.1-0.5,0.3-0.6C74,0.1,74.2,0,74.4,0c0.2,0,0.4,0.1,0.6,0.3S75.3,0.7,75.3,1z M73.7,9.9V2.8h1.3
		v7.1H73.7z"/>
	<path id="XMLID_39_" class="st0" d="M81,9.9V9.2c-0.2,0.2-0.5,0.4-0.8,0.6s-0.7,0.2-1,0.2c-0.3,0-0.6,0-0.8-0.1s-0.5-0.2-0.8-0.4
		c-0.2-0.2-0.4-0.4-0.5-0.7s-0.2-0.7-0.2-1.1c0-0.4,0.1-0.7,0.2-1c0.1-0.3,0.3-0.5,0.6-0.7c0.2-0.2,0.5-0.3,0.9-0.4
		c0.3-0.1,0.7-0.1,1.1-0.1c0.6,0,1.1,0.1,1.5,0.3V5.1c0-0.4-0.1-0.7-0.3-0.9c-0.2-0.2-0.5-0.3-0.9-0.3c-0.4,0-0.7,0-0.9,0.1
		c-0.3,0.1-0.6,0.2-0.8,0.3l-0.5-1.1c0.3-0.2,0.7-0.4,1-0.5c0.4-0.1,0.8-0.2,1.3-0.2c0.8,0,1.4,0.2,1.8,0.6c0.5,0.4,0.7,1,0.7,1.8
		v4.9H81z M81,6.9c-0.2-0.1-0.4-0.2-0.6-0.2c-0.2-0.1-0.5-0.1-0.9-0.1c-0.4,0-0.8,0.1-1,0.3S78,7.3,78,7.6c0,0.4,0.1,0.6,0.3,0.9
		c0.2,0.2,0.5,0.3,1,0.3c0.4,0,0.7-0.1,1-0.3c0.3-0.2,0.5-0.4,0.7-0.6V6.9z"/>
	<path id="XMLID_37_" class="st0" d="M84.3,9.9V0.7L85.6,0v9.9H84.3z"/>
</g>
<g id="XMLID_16_">
	<path id="XMLID_34_" class="st0" d="M33,24.3c0,0.4-0.1,0.7-0.2,1c-0.1,0.3-0.3,0.5-0.6,0.6c-0.2,0.2-0.5,0.3-0.8,0.4
		c-0.3,0.1-0.6,0.1-1,0.1c-0.5,0-0.9-0.1-1.4-0.3c-0.5-0.2-0.9-0.4-1.2-0.7l0.6-1.1c0.3,0.2,0.6,0.4,1,0.5c0.3,0.1,0.7,0.2,1,0.2
		c0.8,0,1.2-0.3,1.2-0.8c0-0.3-0.1-0.5-0.4-0.7c-0.3-0.2-0.7-0.3-1.2-0.5c-0.4-0.1-0.7-0.3-0.9-0.4c-0.3-0.1-0.5-0.3-0.6-0.5
		c-0.2-0.2-0.3-0.4-0.3-0.6s-0.1-0.5-0.1-0.7c0-0.3,0.1-0.6,0.2-0.8s0.3-0.4,0.5-0.6c0.2-0.2,0.4-0.3,0.7-0.4s0.6-0.1,0.9-0.1
		c0.4,0,0.8,0.1,1.2,0.2c0.4,0.1,0.8,0.3,1.1,0.6l-0.6,1.1c-0.3-0.2-0.6-0.4-0.8-0.5c-0.3-0.1-0.6-0.1-0.9-0.1
		c-0.3,0-0.6,0.1-0.7,0.2c-0.1,0.1-0.2,0.3-0.2,0.5c0,0.1,0,0.2,0.1,0.3c0,0.1,0.1,0.2,0.2,0.2s0.2,0.2,0.4,0.3
		c0.2,0.1,0.4,0.2,0.6,0.3c0.4,0.2,0.7,0.3,1,0.4c0.3,0.1,0.5,0.3,0.7,0.5c0.2,0.2,0.3,0.4,0.4,0.6C32.9,23.6,33,23.9,33,24.3z"/>
	<path id="XMLID_31_" class="st0" d="M40,22.5c0,0.1,0,0.2,0,0.4c0,0.1,0,0.2,0,0.3h-4.5c0,0.3,0.1,0.6,0.2,0.9
		c0.1,0.2,0.2,0.4,0.4,0.6c0.2,0.2,0.3,0.3,0.5,0.4c0.2,0.1,0.4,0.1,0.6,0.1c0.3,0,0.5,0,0.8-0.1c0.2-0.1,0.5-0.2,0.7-0.4l0.8,0.9
		c-0.3,0.3-0.6,0.5-1,0.7c-0.4,0.2-0.8,0.2-1.3,0.2c-0.4,0-0.8-0.1-1.1-0.2s-0.7-0.4-0.9-0.7s-0.5-0.7-0.6-1.2
		c-0.2-0.5-0.2-1-0.2-1.6c0-0.6,0.1-1.1,0.2-1.6c0.1-0.5,0.3-0.8,0.6-1.2c0.3-0.3,0.6-0.6,0.9-0.7s0.8-0.2,1.2-0.2
		c0.5,0,0.9,0.1,1.3,0.3s0.7,0.4,0.9,0.8c0.2,0.3,0.4,0.7,0.5,1.1S40,22,40,22.5z M38.7,22c0-0.2-0.1-0.5-0.1-0.7
		c-0.1-0.2-0.2-0.4-0.3-0.6s-0.3-0.3-0.5-0.4c-0.2-0.1-0.4-0.1-0.7-0.1c-0.4,0-0.8,0.2-1.1,0.5c-0.3,0.3-0.4,0.8-0.5,1.3H38.7z"/>
	<path id="XMLID_28_" class="st0" d="M43.3,17.3c0,0.2-0.1,0.5-0.3,0.6s-0.4,0.3-0.6,0.3c-0.2,0-0.4-0.1-0.6-0.3
		c-0.2-0.2-0.3-0.4-0.3-0.6c0-0.3,0.1-0.5,0.3-0.6c0.2-0.2,0.4-0.3,0.6-0.3c0.2,0,0.4,0.1,0.6,0.3S43.3,17,43.3,17.3z M41.8,26.2
		v-7.1h1.3v7.1H41.8z"/>
	<path id="XMLID_26_" class="st0" d="M44.9,26.2v-1.1l2.9-3.7c0.1-0.2,0.3-0.4,0.4-0.6c0.2-0.2,0.3-0.4,0.4-0.5c-0.1,0-0.1,0-0.2,0
		c-0.1,0-0.2,0-0.3,0s-0.2,0-0.3,0s-0.2,0-0.3,0h-2.2v-1.2h5v1.1L47.3,24c-0.1,0.2-0.3,0.4-0.4,0.6c-0.2,0.2-0.3,0.4-0.4,0.5
		c0.1,0,0.1,0,0.3,0c0.1,0,0.2,0,0.3,0s0.2,0,0.3,0s0.2,0,0.3,0h2.4v1.2H44.9z"/>
	<path id="XMLID_24_" class="st0" d="M55.8,26.2v-0.7c-0.2,0.3-0.4,0.5-0.7,0.6c-0.3,0.1-0.6,0.2-1,0.2c-0.8,0-1.4-0.3-1.8-0.8
		s-0.6-1.3-0.6-2.4v-4.1h1.3v4c0,0.7,0.1,1.2,0.4,1.5c0.2,0.3,0.6,0.4,1,0.4c0.4,0,0.8-0.2,1-0.5c0.2-0.3,0.4-0.8,0.4-1.3v-4.2h1.3
		v7.1H55.8z"/>
	<path id="XMLID_22_" class="st0" d="M62.8,20.6c-0.1-0.1-0.3-0.1-0.5-0.2s-0.3-0.1-0.6-0.1c-0.4,0-0.7,0.2-1,0.5
		c-0.2,0.3-0.3,0.8-0.3,1.4v4.1h-1.3v-7.1h1.3v0.7c0.2-0.2,0.4-0.4,0.6-0.6c0.3-0.2,0.6-0.2,0.9-0.2c0.3,0,0.5,0,0.7,0.1
		c0.2,0.1,0.3,0.1,0.5,0.2L62.8,20.6z"/>
	<path id="XMLID_19_" class="st0" d="M69.7,22.5c0,0.1,0,0.2,0,0.4c0,0.1,0,0.2,0,0.3h-4.5c0,0.3,0.1,0.6,0.2,0.9
		c0.1,0.2,0.2,0.4,0.4,0.6c0.2,0.2,0.3,0.3,0.5,0.4c0.2,0.1,0.4,0.1,0.6,0.1c0.3,0,0.5,0,0.8-0.1c0.2-0.1,0.5-0.2,0.7-0.4l0.8,0.9
		c-0.3,0.3-0.6,0.5-1,0.7c-0.4,0.2-0.8,0.2-1.3,0.2c-0.4,0-0.8-0.1-1.1-0.2s-0.7-0.4-0.9-0.7s-0.5-0.7-0.6-1.2
		c-0.2-0.5-0.2-1-0.2-1.6c0-0.6,0.1-1.1,0.2-1.6c0.1-0.5,0.3-0.8,0.6-1.2c0.3-0.3,0.6-0.6,0.9-0.7s0.8-0.2,1.2-0.2
		c0.5,0,0.9,0.1,1.3,0.3s0.7,0.4,0.9,0.8c0.2,0.3,0.4,0.7,0.5,1.1S69.7,22,69.7,22.5z M68.4,22c0-0.2-0.1-0.5-0.1-0.7
		c-0.1-0.2-0.2-0.4-0.3-0.6s-0.3-0.3-0.5-0.4c-0.2-0.1-0.4-0.1-0.7-0.1c-0.4,0-0.8,0.2-1.1,0.5c-0.3,0.3-0.4,0.8-0.5,1.3H68.4z"/>
	<path id="XMLID_17_" class="st0" d="M76,24.3c0,0.4-0.1,0.7-0.2,1c-0.1,0.3-0.3,0.5-0.6,0.6c-0.2,0.2-0.5,0.3-0.8,0.4
		c-0.3,0.1-0.6,0.1-1,0.1c-0.5,0-0.9-0.1-1.4-0.3c-0.5-0.2-0.9-0.4-1.2-0.7l0.6-1.1c0.3,0.2,0.6,0.4,1,0.5c0.3,0.1,0.7,0.2,1,0.2
		c0.8,0,1.2-0.3,1.2-0.8c0-0.3-0.1-0.5-0.4-0.7c-0.3-0.2-0.7-0.3-1.2-0.5c-0.4-0.1-0.7-0.3-0.9-0.4c-0.3-0.1-0.5-0.3-0.6-0.5
		c-0.2-0.2-0.3-0.4-0.3-0.6s-0.1-0.5-0.1-0.7c0-0.3,0.1-0.6,0.2-0.8s0.3-0.4,0.5-0.6c0.2-0.2,0.4-0.3,0.7-0.4
		c0.3-0.1,0.6-0.1,0.9-0.1c0.4,0,0.8,0.1,1.2,0.2c0.4,0.1,0.8,0.3,1.1,0.6l-0.6,1.1c-0.3-0.2-0.6-0.4-0.8-0.5
		c-0.3-0.1-0.6-0.1-0.9-0.1c-0.3,0-0.6,0.1-0.7,0.2c-0.1,0.1-0.2,0.3-0.2,0.5c0,0.1,0,0.2,0.1,0.3c0,0.1,0.1,0.2,0.2,0.2
		s0.2,0.2,0.4,0.3c0.2,0.1,0.4,0.2,0.6,0.3c0.4,0.2,0.7,0.3,1,0.4c0.3,0.1,0.5,0.3,0.7,0.5c0.2,0.2,0.3,0.4,0.4,0.6
		C76,23.6,76,23.9,76,24.3z"/>
</g>
<linearGradient id="XMLID_70_" gradientUnits="userSpaceOnUse" x1="0" y1="117.6384" x2="47.5344" y2="117.6384">
	<stop  offset="0" style="stop-color:#4B257A"/>
	<stop  offset="1" style="stop-color:#954C8D"/>
</linearGradient>
<rect id="XMLID_15_" y="37.3" class="st1" width="47.5" height="160.7"/>
<rect id="XMLID_14_" x="50.3" y="37.3" class="st2" width="47.5" height="54.1"/>
<g id="XMLID_6_">
	<path id="XMLID_11_" class="st0" d="M17.9,212.9v2.9h-2.6v-2.9H7.9v-2.6l7.2-8.8h2.8v8.7h1.8v2.6H17.9z M15.3,204.9
		c-0.1,0.2-0.3,0.4-0.5,0.7c-0.2,0.3-0.4,0.6-0.7,0.9l-1.9,2.4c-0.1,0.1-0.2,0.3-0.3,0.4c-0.1,0.1-0.2,0.3-0.4,0.4s-0.2,0.3-0.3,0.4
		c-0.1,0.1-0.2,0.2-0.3,0.3c0.1,0,0.3,0,0.5,0c0.2,0,0.5,0,0.7,0c0.3,0,0.5,0,0.8,0c0.3,0,0.5,0,0.7,0h1.7V208c0-0.2,0-0.5,0-0.8
		c0-0.3,0-0.6,0-0.9c0-0.3,0-0.6,0-0.9C15.3,205.2,15.3,205,15.3,204.9z"/>
	<path id="XMLID_9_" class="st0" d="M31.7,211.4c0,0.8-0.1,1.4-0.4,2c-0.3,0.6-0.7,1.1-1.1,1.4c-0.5,0.4-1.1,0.7-1.8,0.9
		s-1.5,0.3-2.3,0.3c-1,0-2-0.2-2.9-0.7c-0.9-0.4-1.7-1.1-2.5-2.1l2-1.7c0.6,0.6,1.1,1.1,1.7,1.3c0.6,0.3,1.2,0.4,1.9,0.4
		c0.9,0,1.5-0.2,2-0.5s0.6-0.8,0.6-1.3c0-0.6-0.2-1-0.5-1.2c-0.3-0.3-0.8-0.4-1.5-0.4h-1.6V207h1.4c0.6,0,1-0.1,1.2-0.4
		c0.2-0.2,0.4-0.6,0.4-1.1c0-0.2,0-0.4-0.1-0.5c-0.1-0.2-0.2-0.3-0.4-0.5s-0.4-0.2-0.7-0.3c-0.3-0.1-0.6-0.1-1.1-0.1
		c-1,0-1.9,0.4-2.6,1.2l-2-1.9c0.6-0.7,1.3-1.2,2.1-1.6c0.7-0.3,1.6-0.5,2.6-0.5c0.7,0,1.3,0.1,1.9,0.3c0.6,0.2,1.1,0.4,1.6,0.8
		c0.5,0.3,0.8,0.8,1.1,1.3c0.3,0.5,0.4,1.1,0.4,1.8c0,0.8-0.2,1.4-0.5,1.9c-0.3,0.5-0.7,0.8-1.1,1c0.2,0.1,0.5,0.2,0.7,0.4
		c0.2,0.2,0.5,0.4,0.7,0.6s0.4,0.6,0.5,0.9S31.7,211,31.7,211.4z"/>
	<path id="XMLID_7_" class="st0" d="M23.3,233.7l-2.4-1.7l0.2,3h-2l0.2-3l-2.4,1.7l-1-1.8l2.7-1.3l-2.7-1.3l1-1.9l2.4,1.7l-0.2-3h2
		l-0.2,3l2.4-1.7l1,1.9l-2.8,1.3l2.8,1.3L23.3,233.7z"/>
</g>
<g id="XMLID_1_">
	<path id="XMLID_4_" class="st0" d="M69.9,109V98.7h-2.3v-2.1c0.8,0,1.4-0.2,1.8-0.5c0.5-0.3,0.8-0.7,0.9-1.3h2.2V109H69.9z"/>
	<path id="XMLID_2_" class="st0" d="M85,102.4c-0.8,1.9-1.2,4.1-1.2,6.5H81c0-2.3,0.3-4.4,1-6.4s1.7-3.7,2.9-5.2h-6.9v-2.7h10.1v2.7
		C86.8,98.9,85.8,100.5,85,102.4z"/>
</g>
</svg>
