<!-- Generator: Adobe Illustrator 22.1.0, SVG Export Plug-In  -->
<svg version="1.1"
	 xmlns="http://www.w3.org/2000/svg" xmlns:xlink="http://www.w3.org/1999/xlink" xmlns:a="http://ns.adobe.com/AdobeSVGViewerExtensions/3.0/"
	 x="0px" y="0px" width="290.3px" height="348.1px" viewBox="0 0 290.3 348.1" style="enable-background:new 0 0 290.3 348.1;"
	 xml:space="preserve">
<style type="text/css">
	.st0{fill:none;stroke:#BBBDBF;stroke-width:0.161;}
	.st1{fill:none;stroke:#BBBDBF;stroke-width:0.1543;}
	.st2{fill:#58595B;}
	.st3{fill:#542C6D;}
	.st4{fill:none;stroke:url(#XMLID_307_);stroke-width:0.8369;stroke-miterlimit:10;}
	.st5{fill:#236092;}
	.st6{fill:#522D6D;}
	.st7{fill:none;stroke:url(#XMLID_308_);stroke-width:0.8369;stroke-miterlimit:10;}
</style>
<defs>
</defs>
<g id="XMLID_305_">
	<line id="XMLID_306_" class="st0" x1="51.8" y1="311.6" x2="51.8" y2="36.4"/>
</g>
<line id="XMLID_304_" class="st1" x1="52.2" y1="92.4" x2="289.1" y2="92.4"/>
<line id="XMLID_303_" class="st1" x1="52.2" y1="147.8" x2="289.1" y2="147.8"/>
<line id="XMLID_302_" class="st1" x1="52.2" y1="200.7" x2="289.1" y2="200.7"/>
<line id="XMLID_301_" class="st1" x1="52.2" y1="256.1" x2="289.1" y2="256.1"/>
<line id="XMLID_300_" class="st1" x1="51.2" y1="311.6" x2="289.1" y2="311.6"/>
<line id="XMLID_299_" class="st1" x1="51.2" y1="36.9" x2="289.1" y2="36.9"/>
<g id="XMLID_286_">
	<g id="XMLID_288_">
		<path id="XMLID_292_" class="st2" d="M34.7,204.4c0,0.6-0.2,1.1-0.6,1.5c-0.4,0.3-1,0.5-1.7,0.5c-0.2,0-0.4,0-0.7-0.1
			s-0.4-0.1-0.6-0.2c-0.2-0.1-0.4-0.2-0.6-0.3c-0.2-0.1-0.3-0.3-0.4-0.4l0.7-0.6c0.2,0.2,0.4,0.4,0.7,0.5c0.3,0.1,0.6,0.2,0.8,0.2
			c0.5,0,0.9-0.1,1.1-0.3s0.3-0.4,0.3-0.8s-0.1-0.6-0.3-0.7c-0.2-0.2-0.5-0.2-0.8-0.2H32v-0.9h0.6c0.3,0,0.5-0.1,0.7-0.3
			c0.1-0.2,0.2-0.4,0.2-0.6c0-0.1,0-0.2-0.1-0.3c0-0.1-0.1-0.2-0.2-0.3s-0.2-0.2-0.4-0.2s-0.3-0.1-0.6-0.1c-0.3,0-0.5,0.1-0.7,0.2
			s-0.4,0.2-0.6,0.4l-0.7-0.7c0.3-0.3,0.6-0.5,0.9-0.6c0.3-0.1,0.7-0.2,1.1-0.2c0.3,0,0.6,0,0.8,0.1s0.5,0.2,0.7,0.3
			c0.2,0.1,0.3,0.3,0.5,0.5c0.1,0.2,0.2,0.5,0.2,0.7c0,0.4-0.1,0.7-0.2,0.9c-0.1,0.2-0.3,0.4-0.5,0.5c0.3,0.1,0.5,0.2,0.7,0.5
			C34.6,203.7,34.7,204,34.7,204.4z"/>
		<path id="XMLID_289_" class="st2" d="M40.7,203.1c0,0.5-0.1,0.9-0.2,1.3c-0.1,0.4-0.3,0.7-0.5,1s-0.5,0.5-0.8,0.7
			s-0.7,0.2-1.1,0.2s-0.8-0.1-1.1-0.2s-0.6-0.4-0.8-0.7c-0.2-0.3-0.4-0.6-0.5-1s-0.2-0.8-0.2-1.3c0-0.5,0.1-0.9,0.2-1.3
			c0.1-0.4,0.3-0.7,0.5-1c0.2-0.3,0.5-0.5,0.8-0.7c0.3-0.2,0.7-0.2,1.1-0.2c0.4,0,0.8,0.1,1.1,0.2c0.3,0.2,0.6,0.4,0.8,0.7
			s0.4,0.6,0.5,1C40.7,202.2,40.7,202.6,40.7,203.1z M39.8,203.1c0-0.3,0-0.6-0.1-0.9s-0.1-0.5-0.3-0.7c-0.1-0.2-0.3-0.4-0.5-0.5
			s-0.4-0.2-0.7-0.2s-0.5,0.1-0.7,0.2c-0.2,0.1-0.3,0.3-0.5,0.5c-0.1,0.2-0.2,0.5-0.3,0.7c-0.1,0.3-0.1,0.6-0.1,0.9
			c0,0.3,0,0.6,0.1,0.9c0.1,0.3,0.1,0.5,0.3,0.7c0.1,0.2,0.3,0.4,0.5,0.5c0.2,0.1,0.4,0.2,0.7,0.2c0.3,0,0.5-0.1,0.7-0.2
			c0.2-0.1,0.3-0.3,0.5-0.5c0.1-0.2,0.2-0.5,0.3-0.7S39.8,203.4,39.8,203.1z"/>
	</g>
</g>
<g id="XMLID_271_">
	<g id="XMLID_273_">
		<path id="XMLID_277_" class="st2" d="M34.5,260.5v1.4h-0.9v-1.4h-3.4v-0.9l3.2-4h1.1v4h0.8v0.8H34.5z M33.6,256.7
			c-0.1,0.1-0.1,0.2-0.3,0.3c-0.1,0.1-0.2,0.3-0.3,0.4l-1.2,1.5c-0.1,0.1-0.2,0.2-0.3,0.4s-0.2,0.2-0.3,0.3c0.1,0,0.1,0,0.2,0
			c0.1,0,0.2,0,0.3,0s0.2,0,0.3,0c0.1,0,0.2,0,0.3,0h1.3v-1.8c0-0.1,0-0.2,0-0.3s0-0.2,0-0.3c0-0.1,0-0.2,0-0.3
			C33.6,256.8,33.6,256.8,33.6,256.7z"/>
		<path id="XMLID_274_" class="st2" d="M41.2,258.8c0,0.5-0.1,0.9-0.2,1.3c-0.1,0.4-0.3,0.7-0.5,1s-0.5,0.5-0.8,0.7
			s-0.7,0.2-1.1,0.2s-0.8-0.1-1.1-0.2s-0.6-0.4-0.8-0.7c-0.2-0.3-0.4-0.6-0.5-1s-0.2-0.8-0.2-1.3c0-0.5,0.1-0.9,0.2-1.3
			c0.1-0.4,0.3-0.7,0.5-1c0.2-0.3,0.5-0.5,0.8-0.7c0.3-0.2,0.7-0.2,1.1-0.2c0.4,0,0.8,0.1,1.1,0.2c0.3,0.2,0.6,0.4,0.8,0.7
			s0.4,0.6,0.5,1C41.2,257.9,41.2,258.3,41.2,258.8z M40.3,258.8c0-0.3,0-0.6-0.1-0.9s-0.1-0.5-0.3-0.7c-0.1-0.2-0.3-0.4-0.5-0.5
			s-0.4-0.2-0.7-0.2s-0.5,0.1-0.7,0.2c-0.2,0.1-0.3,0.3-0.5,0.5c-0.1,0.2-0.2,0.5-0.3,0.7c-0.1,0.3-0.1,0.6-0.1,0.9
			c0,0.3,0,0.6,0.1,0.9c0.1,0.3,0.1,0.5,0.3,0.7c0.1,0.2,0.3,0.4,0.5,0.5c0.2,0.1,0.4,0.2,0.7,0.2c0.3,0,0.5-0.1,0.7-0.2
			c0.2-0.1,0.3-0.3,0.5-0.5c0.1-0.2,0.2-0.5,0.3-0.7S40.3,259.1,40.3,258.8z"/>
	</g>
</g>
<g id="XMLID_258_">
	<g id="XMLID_260_">
		<path id="XMLID_264_" class="st2" d="M35,312.2c0,0.4-0.1,0.7-0.2,1s-0.3,0.5-0.5,0.7s-0.5,0.3-0.8,0.4c-0.3,0.1-0.6,0.1-1,0.1
			c-0.4,0-0.8,0-1.1-0.1s-0.7-0.3-1-0.5l0.5-0.8c0.3,0.1,0.6,0.3,0.9,0.4s0.6,0.1,0.9,0.1c0.5,0,0.9-0.1,1.1-0.3
			c0.3-0.2,0.4-0.5,0.4-0.9c0-0.4-0.1-0.7-0.3-0.8c-0.2-0.2-0.5-0.3-0.9-0.3c-0.3,0-0.5,0-0.7,0.1c-0.2,0.1-0.4,0.2-0.5,0.3l-1-0.4
			l0.2-3.1h3.9v0.9h-3l-0.1,1.6c0.2-0.1,0.4-0.2,0.6-0.2c0.2-0.1,0.5-0.1,0.8-0.1c0.4,0,0.7,0,0.9,0.1s0.5,0.2,0.7,0.4
			c0.2,0.2,0.3,0.4,0.4,0.6C34.9,311.7,35,311.9,35,312.2z"/>
		<path id="XMLID_261_" class="st2" d="M40.9,311.2c0,0.5-0.1,0.9-0.2,1.3c-0.1,0.4-0.3,0.7-0.5,1s-0.5,0.5-0.8,0.7
			s-0.7,0.2-1.1,0.2s-0.8-0.1-1.1-0.2s-0.6-0.4-0.8-0.7c-0.2-0.3-0.4-0.6-0.5-1s-0.2-0.8-0.2-1.3c0-0.5,0.1-0.9,0.2-1.3
			c0.1-0.4,0.3-0.7,0.5-1c0.2-0.3,0.5-0.5,0.8-0.7c0.3-0.2,0.7-0.2,1.1-0.2c0.4,0,0.8,0.1,1.1,0.2c0.3,0.2,0.6,0.4,0.8,0.7
			s0.4,0.6,0.5,1C40.9,310.3,40.9,310.7,40.9,311.2z M40,311.2c0-0.3,0-0.6-0.1-0.9s-0.1-0.5-0.3-0.7c-0.1-0.2-0.3-0.4-0.5-0.5
			s-0.4-0.2-0.7-0.2s-0.5,0.1-0.7,0.2c-0.2,0.1-0.3,0.3-0.5,0.5c-0.1,0.2-0.2,0.5-0.3,0.7c-0.1,0.3-0.1,0.6-0.1,0.9
			c0,0.3,0,0.6,0.1,0.9c0.1,0.3,0.1,0.5,0.3,0.7c0.1,0.2,0.3,0.4,0.5,0.5c0.2,0.1,0.4,0.2,0.7,0.2c0.3,0,0.5-0.1,0.7-0.2
			c0.2-0.1,0.3-0.3,0.5-0.5c0.1-0.2,0.2-0.5,0.3-0.7S40,311.5,40,311.2z"/>
	</g>
</g>
<g id="XMLID_245_">
	<g id="XMLID_247_">
		<path id="XMLID_251_" class="st2" d="M30.2,152.9c0-0.5,0.1-0.9,0.2-1.2c0.1-0.3,0.3-0.6,0.5-0.9s0.5-0.5,0.8-0.7
			c0.3-0.2,0.6-0.4,0.9-0.6c0.2-0.1,0.4-0.2,0.5-0.3s0.2-0.2,0.3-0.3c0.1-0.1,0.1-0.2,0.2-0.3c0-0.1,0-0.2,0-0.3
			c0-0.3-0.1-0.5-0.3-0.6c-0.2-0.1-0.5-0.2-0.9-0.2c-0.3,0-0.5,0.1-0.8,0.2s-0.5,0.3-0.7,0.5l-0.6-0.7c0.3-0.3,0.6-0.5,1-0.6
			c0.4-0.1,0.8-0.2,1.2-0.2c0.7,0,1.2,0.1,1.6,0.4c0.4,0.3,0.6,0.7,0.6,1.3c0,0.2,0,0.5-0.1,0.6s-0.2,0.3-0.3,0.5
			c-0.1,0.2-0.3,0.3-0.5,0.4c-0.2,0.1-0.4,0.3-0.7,0.5c-0.3,0.2-0.5,0.3-0.7,0.5c-0.2,0.1-0.4,0.3-0.5,0.4s-0.2,0.3-0.3,0.4
			s-0.1,0.3-0.2,0.4h3.3v0.9H30.2z"/>
		<path id="XMLID_248_" class="st2" d="M40.9,149.8c0,0.5-0.1,0.9-0.2,1.3c-0.1,0.4-0.3,0.7-0.5,1s-0.5,0.5-0.8,0.7
			s-0.7,0.2-1.1,0.2s-0.8-0.1-1.1-0.2s-0.6-0.4-0.8-0.7c-0.2-0.3-0.4-0.6-0.5-1s-0.2-0.8-0.2-1.3c0-0.5,0.1-0.9,0.2-1.3
			c0.1-0.4,0.3-0.7,0.5-1c0.2-0.3,0.5-0.5,0.8-0.7c0.3-0.2,0.7-0.2,1.1-0.2c0.4,0,0.8,0.1,1.1,0.2c0.3,0.2,0.6,0.4,0.8,0.7
			s0.4,0.6,0.5,1C40.9,148.9,40.9,149.3,40.9,149.8z M40,149.8c0-0.3,0-0.6-0.1-0.9s-0.1-0.5-0.3-0.7c-0.1-0.2-0.3-0.4-0.5-0.5
			s-0.4-0.2-0.7-0.2s-0.5,0.1-0.7,0.2c-0.2,0.1-0.3,0.3-0.5,0.5c-0.1,0.2-0.2,0.5-0.3,0.7c-0.1,0.3-0.1,0.6-0.1,0.9
			c0,0.3,0,0.6,0.1,0.9c0.1,0.3,0.1,0.5,0.3,0.7c0.1,0.2,0.3,0.4,0.5,0.5c0.2,0.1,0.4,0.2,0.7,0.2c0.3,0,0.5-0.1,0.7-0.2
			c0.2-0.1,0.3-0.3,0.5-0.5c0.1-0.2,0.2-0.5,0.3-0.7S40,150.1,40,149.8z"/>
	</g>
</g>
<g id="XMLID_232_">
	<g id="XMLID_234_">
		<path id="XMLID_238_" class="st2" d="M31.1,97.1v-4.8H30v-0.7c0.3,0,0.6-0.1,0.8-0.2c0.2-0.1,0.4-0.3,0.4-0.6H32v6.3H31.1z"/>
		<path id="XMLID_235_" class="st2" d="M38.3,93.9c0,0.5-0.1,0.9-0.2,1.3c-0.1,0.4-0.3,0.7-0.5,1s-0.5,0.5-0.8,0.7s-0.7,0.2-1.1,0.2
			s-0.8-0.1-1.1-0.2s-0.6-0.4-0.8-0.7c-0.2-0.3-0.4-0.6-0.5-1s-0.2-0.8-0.2-1.3c0-0.5,0.1-0.9,0.2-1.3c0.1-0.4,0.3-0.7,0.5-1
			c0.2-0.3,0.5-0.5,0.8-0.7c0.3-0.2,0.7-0.2,1.1-0.2c0.4,0,0.8,0.1,1.1,0.2c0.3,0.2,0.6,0.4,0.8,0.7s0.4,0.6,0.5,1
			C38.3,93,38.3,93.4,38.3,93.9z M37.4,93.9c0-0.3,0-0.6-0.1-0.9s-0.1-0.5-0.3-0.7c-0.1-0.2-0.3-0.4-0.5-0.5s-0.4-0.2-0.7-0.2
			s-0.5,0.1-0.7,0.2c-0.2,0.1-0.3,0.3-0.5,0.5c-0.1,0.2-0.2,0.5-0.3,0.7c-0.1,0.3-0.1,0.6-0.1,0.9c0,0.3,0,0.6,0.1,0.9
			c0.1,0.3,0.1,0.5,0.3,0.7c0.1,0.2,0.3,0.4,0.5,0.5c0.2,0.1,0.4,0.2,0.7,0.2c0.3,0,0.5-0.1,0.7-0.2c0.2-0.1,0.3-0.3,0.5-0.5
			c0.1-0.2,0.2-0.5,0.3-0.7S37.4,94.3,37.4,93.9z"/>
	</g>
</g>
<g id="XMLID_223_">
	<g id="XMLID_225_">
		<path id="XMLID_226_" class="st2" d="M35.2,38.4c0,0.5-0.1,0.9-0.2,1.3c-0.1,0.4-0.3,0.7-0.5,1s-0.5,0.5-0.8,0.7s-0.7,0.2-1.1,0.2
			s-0.8-0.1-1.1-0.2c-0.3-0.2-0.6-0.4-0.8-0.7c-0.2-0.3-0.4-0.6-0.5-1s-0.2-0.8-0.2-1.3c0-0.5,0.1-0.9,0.2-1.3
			c0.1-0.4,0.3-0.7,0.5-1c0.2-0.3,0.5-0.5,0.8-0.7c0.3-0.2,0.7-0.2,1.1-0.2c0.4,0,0.8,0.1,1.1,0.2c0.3,0.2,0.6,0.4,0.8,0.7
			s0.4,0.6,0.5,1C35.2,37.5,35.2,38,35.2,38.4z M34.3,38.5c0-0.3,0-0.6-0.1-0.9s-0.1-0.5-0.3-0.7c-0.1-0.2-0.3-0.4-0.5-0.5
			s-0.4-0.2-0.7-0.2s-0.5,0.1-0.7,0.2c-0.2,0.1-0.3,0.3-0.5,0.5c-0.1,0.2-0.2,0.5-0.3,0.7c-0.1,0.3-0.1,0.6-0.1,0.9
			c0,0.3,0,0.6,0.1,0.9c0.1,0.3,0.1,0.5,0.3,0.7c0.1,0.2,0.3,0.4,0.5,0.5c0.2,0.1,0.4,0.2,0.7,0.2c0.3,0,0.5-0.1,0.7-0.2
			c0.2-0.1,0.3-0.3,0.5-0.5c0.1-0.2,0.2-0.5,0.3-0.7S34.3,38.8,34.3,38.5z"/>
	</g>
</g>
<g id="XMLID_56_">
	<rect id="XMLID_222_" x="8.9" y="301.2" class="st3" width="10.4" height="10.4"/>
	<g id="XMLID_57_">
		<g id="XMLID_59_">
			<path id="XMLID_139_" class="st2" d="M18.4,286.1h-5c-0.1,0-0.3,0-0.5,0c-0.2,0-0.3,0-0.5,0c-0.2,0-0.3,0-0.4,0
				c-0.1,0-0.2,0-0.3,0c0.1,0.1,0.3,0.1,0.6,0.3c0.3,0.1,0.6,0.2,0.8,0.3l5.3,2.3l-5.3,2.3c-0.3,0.1-0.5,0.2-0.8,0.3
				c-0.3,0.1-0.5,0.2-0.6,0.3c0.1,0,0.2,0,0.3,0c0.1,0,0.3,0,0.4,0s0.3,0,0.5,0c0.2,0,0.3,0,0.5,0h5v1.3H9.1v-1.4l5-2.1
				c0.3-0.1,0.6-0.2,0.9-0.4c0.3-0.1,0.6-0.2,0.8-0.3c-0.2-0.1-0.4-0.2-0.7-0.3s-0.6-0.2-0.9-0.3l-5-2.1v-1.5h9.4V286.1z"/>
			<path id="XMLID_136_" class="st2" d="M14.8,276.8c0.1,0,0.2,0,0.4,0c0.1,0,0.2,0,0.3,0v4.7c0.3,0,0.6-0.1,0.9-0.2
				s0.4-0.2,0.6-0.4c0.2-0.2,0.3-0.3,0.3-0.5c0.1-0.2,0.1-0.4,0.1-0.6c0-0.3,0-0.6-0.1-0.8s-0.2-0.5-0.4-0.7l0.9-0.8
				c0.3,0.3,0.5,0.7,0.7,1c0.2,0.4,0.2,0.8,0.2,1.4c0,0.4-0.1,0.8-0.2,1.2s-0.4,0.7-0.7,1c-0.3,0.3-0.7,0.5-1.2,0.7
				c-0.5,0.2-1,0.2-1.6,0.2c-0.6,0-1.1-0.1-1.6-0.2s-0.8-0.4-1.1-0.6c-0.3-0.3-0.5-0.6-0.7-1c-0.2-0.4-0.2-0.8-0.2-1.3
				c0-0.5,0.1-0.9,0.3-1.3s0.4-0.7,0.8-0.9s0.7-0.4,1.1-0.6C13.9,276.8,14.3,276.8,14.8,276.8z M14.3,278.2c-0.2,0-0.5,0.1-0.7,0.1
				c-0.2,0.1-0.4,0.2-0.6,0.3c-0.2,0.1-0.3,0.3-0.4,0.5s-0.1,0.4-0.1,0.7c0,0.5,0.2,0.8,0.5,1.1c0.3,0.3,0.7,0.4,1.3,0.5V278.2z"/>
			<path id="XMLID_133_" class="st2" d="M18.4,270.8h-0.7c0.2,0.3,0.4,0.5,0.6,0.8c0.2,0.3,0.2,0.6,0.2,1s-0.1,0.7-0.2,1.1
				c-0.1,0.3-0.4,0.6-0.7,0.9c-0.3,0.2-0.7,0.4-1.2,0.6c-0.5,0.1-1.1,0.2-1.7,0.2c-0.6,0-1.1-0.1-1.6-0.2c-0.4-0.2-0.8-0.4-1.1-0.6
				c-0.3-0.3-0.5-0.5-0.7-0.9c-0.1-0.3-0.2-0.7-0.2-1.1c0-0.4,0.1-0.7,0.2-1c0.2-0.3,0.4-0.6,0.6-0.8H9.4l-0.7-1.4h9.8V270.8z
				 M13.5,270.8c-0.1,0.1-0.2,0.2-0.3,0.3c-0.1,0.1-0.2,0.2-0.3,0.4s-0.2,0.3-0.2,0.5s-0.1,0.3-0.1,0.5c0,0.5,0.2,0.9,0.6,1.1
				c0.4,0.3,0.9,0.4,1.7,0.4c0.9,0,1.5-0.1,1.9-0.4c0.4-0.3,0.6-0.7,0.6-1.2c0-0.3-0.1-0.6-0.3-0.9c-0.2-0.3-0.4-0.5-0.6-0.7H13.5z"
				/>
			<path id="XMLID_130_" class="st2" d="M9.6,265.7c0.2,0,0.4,0.1,0.6,0.3c0.2,0.2,0.3,0.4,0.3,0.6c0,0.3-0.1,0.5-0.3,0.6
				c-0.2,0.2-0.4,0.3-0.6,0.3c-0.3,0-0.5-0.1-0.6-0.3c-0.2-0.2-0.3-0.4-0.3-0.6c0-0.2,0.1-0.4,0.3-0.6
				C9.1,265.8,9.4,265.7,9.6,265.7z M18.4,267.3h-7v-1.4h7V267.3z"/>
			<path id="XMLID_127_" class="st2" d="M18.4,259.8h-0.7c0.2,0.2,0.4,0.5,0.6,0.9c0.2,0.3,0.2,0.7,0.2,1.1c0,0.3,0,0.6-0.1,0.9
				s-0.2,0.6-0.4,0.8c-0.2,0.2-0.4,0.4-0.7,0.6c-0.3,0.1-0.7,0.2-1.1,0.2c-0.4,0-0.7-0.1-1-0.2c-0.3-0.1-0.5-0.3-0.7-0.6
				c-0.2-0.3-0.3-0.5-0.4-0.9c-0.1-0.3-0.1-0.7-0.1-1.1c0-0.6,0.1-1.2,0.3-1.6h-0.5c-0.4,0-0.7,0.1-0.9,0.3c-0.2,0.2-0.3,0.6-0.3,1
				c0,0.4,0,0.7,0.1,1s0.2,0.6,0.3,0.9l-1,0.5c-0.2-0.3-0.4-0.7-0.5-1.1c-0.1-0.4-0.2-0.8-0.2-1.3c0-0.8,0.2-1.4,0.6-1.9
				c0.4-0.5,1-0.7,1.8-0.7h4.8V259.8z M15.4,259.8c-0.1,0.2-0.2,0.4-0.2,0.7s-0.1,0.6-0.1,0.9c0,0.4,0.1,0.8,0.3,1.1
				s0.4,0.4,0.8,0.4c0.3,0,0.6-0.1,0.8-0.3s0.3-0.6,0.3-1c0-0.4-0.1-0.7-0.3-1c-0.2-0.3-0.4-0.5-0.6-0.7H15.4z"/>
			<path id="XMLID_125_" class="st2" d="M18.4,252.2h-4c-0.7,0-1.2,0.1-1.5,0.4c-0.3,0.3-0.4,0.6-0.4,1.1c0,0.5,0.2,0.8,0.5,1.1
				c0.3,0.3,0.8,0.4,1.3,0.4h4.1v1.4h-7v-1.4h0.7c-0.3-0.2-0.5-0.4-0.6-0.7s-0.2-0.7-0.2-1c0-0.8,0.3-1.4,0.8-1.9s1.3-0.6,2.4-0.6h4
				V252.2z"/>
			<path id="XMLID_122_" class="st2" d="M12,238.1c0.5,0,0.9,0.1,1.3,0.2c0.4,0.2,0.7,0.4,0.9,0.6c0.3,0.3,0.4,0.6,0.6,1
				c0.1,0.4,0.2,0.8,0.2,1.3v2.5h3.5v1.4H9.1v-3.9c0-0.4,0.1-0.8,0.2-1.2c0.1-0.4,0.3-0.7,0.6-1c0.2-0.3,0.6-0.5,0.9-0.6
				C11.1,238.1,11.5,238.1,12,238.1z M12,239.5c-0.5,0-0.9,0.1-1.2,0.4s-0.4,0.7-0.4,1.2v2.5h3.2v-2.5c0-0.5-0.1-0.9-0.4-1.2
				C12.9,239.6,12.5,239.5,12,239.5z"/>
			<path id="XMLID_119_" class="st2" d="M13.8,228.7c0.7,0,1.4,0.1,2,0.3c0.6,0.2,1.1,0.5,1.5,0.8c0.4,0.3,0.8,0.8,1,1.3
				c0.2,0.5,0.4,1,0.4,1.6c0,0.6-0.1,1.2-0.4,1.6c-0.2,0.5-0.6,0.9-1,1.2c-0.4,0.3-0.9,0.6-1.5,0.8c-0.6,0.2-1.2,0.3-2,0.3
				c-0.7,0-1.4-0.1-2-0.3c-0.6-0.2-1.1-0.5-1.5-0.8c-0.4-0.3-0.8-0.8-1-1.2c-0.2-0.5-0.4-1-0.4-1.6c0-0.6,0.1-1.2,0.4-1.6
				c0.2-0.5,0.6-0.9,1-1.3c0.4-0.3,0.9-0.6,1.5-0.8C12.4,228.8,13,228.7,13.8,228.7z M13.8,230.2c-1.1,0-1.9,0.2-2.5,0.7
				s-0.9,1.1-0.9,1.9c0,0.8,0.3,1.5,0.9,1.9s1.5,0.7,2.5,0.7c1.1,0,1.9-0.2,2.5-0.7c0.6-0.4,0.9-1.1,0.9-1.9c0-0.8-0.3-1.5-0.9-1.9
				C15.6,230.4,14.8,230.2,13.8,230.2z"/>
			<path id="XMLID_117_" class="st2" d="M15.7,220.4c0.4,0,0.8,0.1,1.2,0.2s0.6,0.3,0.9,0.6s0.4,0.6,0.6,1.1s0.2,1,0.2,1.6
				c0,0.7-0.1,1.3-0.4,1.9c-0.3,0.6-0.6,1.1-1.1,1.5l-1-1c0.3-0.3,0.6-0.7,0.8-1.1s0.3-0.9,0.3-1.3c0-1.3-0.5-1.9-1.4-1.9
				c-0.2,0-0.3,0-0.5,0.1c-0.1,0.1-0.3,0.2-0.4,0.4s-0.2,0.4-0.3,0.7s-0.2,0.6-0.3,1c-0.1,0.5-0.3,0.9-0.4,1.3
				c-0.2,0.4-0.3,0.7-0.5,0.9c-0.2,0.2-0.4,0.4-0.7,0.5s-0.6,0.2-1.1,0.2c-0.4,0-0.8-0.1-1.1-0.2c-0.3-0.2-0.6-0.4-0.8-0.7
				c-0.2-0.3-0.4-0.6-0.5-1c-0.1-0.4-0.2-0.8-0.2-1.2c0-0.6,0.1-1.2,0.3-1.7s0.5-0.9,0.9-1.4l1,1c-0.3,0.3-0.5,0.6-0.7,1
				s-0.2,0.8-0.2,1.2c0,0.6,0.1,1,0.3,1.2c0.2,0.2,0.5,0.4,0.8,0.4c0.2,0,0.3,0,0.4-0.1s0.3-0.2,0.4-0.3c0.1-0.2,0.2-0.4,0.3-0.6
				s0.2-0.6,0.3-1c0.1-0.5,0.3-0.9,0.4-1.3s0.3-0.7,0.5-0.9s0.5-0.5,0.8-0.6S15.3,220.4,15.7,220.4z"/>
			<path id="XMLID_115_" class="st2" d="M14.2,218.8h-1.4v-3.4h1.4V218.8z"/>
			<path id="XMLID_113_" class="st2" d="M9.9,211.2c0,0.2,0,0.4,0.1,0.5c0.1,0.1,0.3,0.1,0.5,0.1h0.8v-1.3h1.3v1.3h5.8v1.4h-5.8v0.9
				h-1.3v-0.9h-0.9c-0.3,0-0.6,0-0.8-0.1c-0.2-0.1-0.4-0.2-0.5-0.4c-0.1-0.2-0.2-0.3-0.3-0.6c-0.1-0.2-0.1-0.4-0.1-0.7
				c0-0.2,0-0.4,0-0.5c0-0.2,0.1-0.4,0.1-0.5H10C10,210.7,9.9,211,9.9,211.2z"/>
			<path id="XMLID_111_" class="st2" d="M12.9,205c-0.1,0.2-0.1,0.3-0.2,0.5c0,0.2-0.1,0.4-0.1,0.6c0,0.4,0.2,0.8,0.5,1
				c0.3,0.2,0.8,0.4,1.4,0.4h4v1.4h-7v-1.4h0.7c-0.2-0.2-0.4-0.4-0.6-0.7c-0.2-0.3-0.2-0.6-0.2-0.9c0-0.3,0-0.5,0.1-0.7
				c0-0.2,0.1-0.3,0.2-0.5L12.9,205z"/>
			<path id="XMLID_108_" class="st2" d="M14.8,197.5c0.1,0,0.2,0,0.4,0c0.1,0,0.2,0,0.3,0v4.7c0.3,0,0.6-0.1,0.9-0.2
				s0.4-0.2,0.6-0.4c0.2-0.2,0.3-0.3,0.3-0.5c0.1-0.2,0.1-0.4,0.1-0.6c0-0.3,0-0.6-0.1-0.8s-0.2-0.5-0.4-0.7l0.9-0.8
				c0.3,0.3,0.5,0.7,0.7,1c0.2,0.4,0.2,0.8,0.2,1.4c0,0.4-0.1,0.8-0.2,1.2s-0.4,0.7-0.7,1c-0.3,0.3-0.7,0.5-1.2,0.7
				c-0.5,0.2-1,0.2-1.6,0.2c-0.6,0-1.1-0.1-1.6-0.2s-0.8-0.4-1.1-0.6c-0.3-0.3-0.5-0.6-0.7-1c-0.2-0.4-0.2-0.8-0.2-1.3
				c0-0.5,0.1-0.9,0.3-1.3s0.4-0.7,0.8-0.9s0.7-0.4,1.1-0.6C13.9,197.6,14.3,197.5,14.8,197.5z M14.3,198.9c-0.2,0-0.5,0.1-0.7,0.1
				c-0.2,0.1-0.4,0.2-0.6,0.3c-0.2,0.1-0.3,0.3-0.4,0.5s-0.1,0.4-0.1,0.7c0,0.5,0.2,0.8,0.5,1.1c0.3,0.3,0.7,0.4,1.3,0.5V198.9z"/>
			<path id="XMLID_105_" class="st2" d="M21,191.6h-3.3c0.2,0.3,0.4,0.5,0.6,0.8c0.2,0.3,0.2,0.6,0.2,1s-0.1,0.7-0.2,1.1
				c-0.1,0.3-0.4,0.6-0.7,0.9c-0.3,0.2-0.7,0.4-1.2,0.6c-0.5,0.1-1.1,0.2-1.7,0.2c-0.6,0-1.1-0.1-1.6-0.2c-0.4-0.2-0.8-0.4-1.1-0.6
				c-0.3-0.3-0.5-0.5-0.7-0.9c-0.1-0.3-0.2-0.7-0.2-1.1c0-0.4,0.1-0.7,0.2-1c0.2-0.3,0.4-0.6,0.6-0.8h-0.7v-1.4h8.9L21,191.6z
				 M13.5,191.6c-0.1,0.1-0.2,0.2-0.3,0.3c-0.1,0.1-0.2,0.2-0.3,0.4s-0.2,0.3-0.2,0.5s-0.1,0.3-0.1,0.5c0,0.5,0.2,0.9,0.6,1.1
				c0.4,0.3,0.9,0.4,1.7,0.4c0.9,0,1.5-0.1,1.9-0.4c0.4-0.3,0.6-0.7,0.6-1.2c0-0.3-0.1-0.6-0.3-0.9c-0.2-0.3-0.4-0.5-0.6-0.7H13.5z"
				/>
			<path id="XMLID_103_" class="st2" d="M18.4,183.9h-0.7c0.3,0.2,0.5,0.4,0.6,0.7s0.2,0.7,0.2,1c0,0.8-0.3,1.4-0.8,1.9
				s-1.3,0.6-2.4,0.6h-4v-1.4h4c0.7,0,1.2-0.1,1.5-0.4s0.4-0.6,0.4-1.1c0-0.5-0.2-0.8-0.5-1.1c-0.3-0.3-0.8-0.4-1.3-0.4h-4.1v-1.4h7
				V183.9z"/>
			<path id="XMLID_100_" class="st2" d="M14.8,174.8c0.1,0,0.2,0,0.4,0c0.1,0,0.2,0,0.3,0v4.7c0.3,0,0.6-0.1,0.9-0.2
				s0.4-0.2,0.6-0.4c0.2-0.2,0.3-0.3,0.3-0.5c0.1-0.2,0.1-0.4,0.1-0.6c0-0.3,0-0.6-0.1-0.8s-0.2-0.5-0.4-0.7l0.9-0.8
				c0.3,0.3,0.5,0.7,0.7,1c0.2,0.4,0.2,0.8,0.2,1.4c0,0.4-0.1,0.8-0.2,1.2s-0.4,0.7-0.7,1c-0.3,0.3-0.7,0.5-1.2,0.7
				c-0.5,0.2-1,0.2-1.6,0.2c-0.6,0-1.1-0.1-1.6-0.2s-0.8-0.4-1.1-0.6c-0.3-0.3-0.5-0.6-0.7-1c-0.2-0.4-0.2-0.8-0.2-1.3
				c0-0.5,0.1-0.9,0.3-1.3s0.4-0.7,0.8-0.9s0.7-0.4,1.1-0.6C13.9,174.9,14.3,174.8,14.8,174.8z M14.3,176.2c-0.2,0-0.5,0.1-0.7,0.1
				c-0.2,0.1-0.4,0.2-0.6,0.3c-0.2,0.1-0.3,0.3-0.4,0.5s-0.1,0.4-0.1,0.7c0,0.5,0.2,0.8,0.5,1.1c0.3,0.3,0.7,0.4,1.3,0.5V176.2z"/>
			<path id="XMLID_98_" class="st2" d="M18.4,168.8h-4c-0.7,0-1.2,0.1-1.5,0.4c-0.3,0.3-0.4,0.6-0.4,1.1c0,0.5,0.2,0.8,0.5,1.1
				c0.3,0.3,0.8,0.4,1.3,0.4h4.1v1.4h-7v-1.4h0.7c-0.3-0.2-0.5-0.4-0.6-0.7s-0.2-0.7-0.2-1c0-0.8,0.3-1.4,0.8-1.9s1.3-0.6,2.4-0.6h4
				V168.8z"/>
			<path id="XMLID_96_" class="st2" d="M13.4,161c-0.3,0.3-0.5,0.6-0.7,0.8c-0.1,0.3-0.2,0.6-0.2,0.9c0,0.5,0.2,0.9,0.6,1.2
				c0.4,0.3,1,0.4,1.7,0.4c0.3,0,0.7,0,1-0.1c0.3-0.1,0.5-0.2,0.8-0.3c0.2-0.1,0.4-0.3,0.5-0.5c0.1-0.2,0.2-0.5,0.2-0.7
				c0-0.3-0.1-0.6-0.2-0.8c-0.1-0.2-0.4-0.5-0.7-0.8l0.9-0.9c0.2,0.1,0.3,0.3,0.5,0.4s0.3,0.3,0.4,0.5s0.2,0.4,0.3,0.7
				c0.1,0.3,0.1,0.5,0.1,0.9c0,0.4-0.1,0.8-0.3,1.2c-0.2,0.4-0.4,0.7-0.7,1c-0.3,0.3-0.7,0.5-1.1,0.6c-0.4,0.2-0.9,0.2-1.5,0.2
				c-0.6,0-1.1-0.1-1.6-0.2c-0.5-0.2-0.8-0.4-1.2-0.7c-0.3-0.3-0.6-0.6-0.7-1c-0.2-0.4-0.2-0.8-0.2-1.2c0-0.5,0.1-1,0.3-1.4
				c0.2-0.4,0.5-0.8,0.9-1.1L13.4,161z"/>
			<path id="XMLID_94_" class="st2" d="M20.9,156v1.5l-2.6-1l-6.9,2.6v-1.5l3.4-1.2c0.2-0.1,0.3-0.1,0.5-0.2
				c0.2-0.1,0.4-0.1,0.6-0.2c0.2-0.1,0.4-0.1,0.5-0.2c0.2,0,0.3-0.1,0.4-0.1c-0.1,0-0.2-0.1-0.4-0.1c-0.2,0-0.3-0.1-0.5-0.2
				c-0.2-0.1-0.4-0.1-0.6-0.2s-0.4-0.1-0.5-0.2l-3.5-1.2v-1.5L20.9,156z"/>
			<path id="XMLID_92_" class="st2" d="M19.7,150.4v1.4l-11.8-4.2v-1.4L19.7,150.4z"/>
			<path id="XMLID_90_" class="st2" d="M18.4,138.6v1.2l-3.6,1c-0.3,0.1-0.5,0.1-0.8,0.2c-0.3,0.1-0.5,0.1-0.7,0.2
				c0.2,0,0.4,0.1,0.7,0.2c0.3,0.1,0.6,0.1,0.8,0.2l3.5,0.9v1.2l-7,1.9v-1.4l3.4-0.8c0.3-0.1,0.5-0.1,0.8-0.2s0.5-0.1,0.7-0.1
				c-0.2,0-0.4-0.1-0.7-0.2c-0.3-0.1-0.6-0.1-0.8-0.2l-3.4-0.9v-1.1l3.4-1c0.3-0.1,0.6-0.1,0.8-0.2c0.3-0.1,0.5-0.1,0.7-0.2
				c-0.2,0-0.4-0.1-0.7-0.2c-0.3-0.1-0.6-0.1-0.8-0.2l-3.4-0.8v-1.4L18.4,138.6z"/>
			<path id="XMLID_87_" class="st2" d="M14.8,129.4c0.1,0,0.2,0,0.4,0c0.1,0,0.2,0,0.3,0v4.7c0.3,0,0.6-0.1,0.9-0.2s0.4-0.2,0.6-0.4
				c0.2-0.2,0.3-0.3,0.3-0.5c0.1-0.2,0.1-0.4,0.1-0.6c0-0.3,0-0.6-0.1-0.8s-0.2-0.5-0.4-0.7l0.9-0.8c0.3,0.3,0.5,0.7,0.7,1
				c0.2,0.4,0.2,0.8,0.2,1.4c0,0.4-0.1,0.8-0.2,1.2s-0.4,0.7-0.7,1c-0.3,0.3-0.7,0.5-1.2,0.7c-0.5,0.2-1,0.2-1.6,0.2
				c-0.6,0-1.1-0.1-1.6-0.2s-0.8-0.4-1.1-0.6c-0.3-0.3-0.5-0.6-0.7-1c-0.2-0.4-0.2-0.8-0.2-1.3c0-0.5,0.1-0.9,0.3-1.3
				s0.4-0.7,0.8-0.9s0.7-0.4,1.1-0.6C13.9,129.4,14.3,129.4,14.8,129.4z M14.3,130.8c-0.2,0-0.5,0.1-0.7,0.1
				c-0.2,0.1-0.4,0.2-0.6,0.3c-0.2,0.1-0.3,0.3-0.4,0.5s-0.1,0.4-0.1,0.7c0,0.5,0.2,0.8,0.5,1.1c0.3,0.3,0.7,0.4,1.3,0.5V130.8z"/>
			<path id="XMLID_84_" class="st2" d="M14.8,121.9c0.1,0,0.2,0,0.4,0c0.1,0,0.2,0,0.3,0v4.7c0.3,0,0.6-0.1,0.9-0.2s0.4-0.2,0.6-0.4
				c0.2-0.2,0.3-0.3,0.3-0.5c0.1-0.2,0.1-0.4,0.1-0.6c0-0.3,0-0.6-0.1-0.8s-0.2-0.5-0.4-0.7l0.9-0.8c0.3,0.3,0.5,0.7,0.7,1
				c0.2,0.4,0.2,0.8,0.2,1.4c0,0.4-0.1,0.8-0.2,1.2s-0.4,0.7-0.7,1c-0.3,0.3-0.7,0.5-1.2,0.7c-0.5,0.2-1,0.2-1.6,0.2
				c-0.6,0-1.1-0.1-1.6-0.2s-0.8-0.4-1.1-0.6c-0.3-0.3-0.5-0.6-0.7-1c-0.2-0.4-0.2-0.8-0.2-1.3c0-0.5,0.1-0.9,0.3-1.3
				s0.4-0.7,0.8-0.9s0.7-0.4,1.1-0.6C13.9,122,14.3,121.9,14.8,121.9z M14.3,123.3c-0.2,0-0.5,0.1-0.7,0.1c-0.2,0.1-0.4,0.2-0.6,0.3
				c-0.2,0.1-0.3,0.3-0.4,0.5s-0.1,0.4-0.1,0.7c0,0.5,0.2,0.8,0.5,1.1c0.3,0.3,0.7,0.4,1.3,0.5V123.3z"/>
			<path id="XMLID_82_" class="st2" d="M18.4,116.2l-3.5,1.6l1.4,1.1h2.1v1.4H9.4l-0.7-1.4h4.4c0.1,0,0.2,0,0.4,0s0.3,0,0.4,0
				c0.1,0,0.3,0,0.4,0c0.1,0,0.2,0,0.3,0c-0.1-0.1-0.3-0.2-0.6-0.4c-0.2-0.1-0.4-0.3-0.6-0.4l-2.1-1.5V115l2.4,1.8l4.7-2.1V116.2z"
				/>
			<path id="XMLID_80_" class="st2" d="M12.9,105.7c-0.1,0.2-0.1,0.3-0.2,0.5c0,0.2-0.1,0.4-0.1,0.6c0,0.4,0.2,0.8,0.5,1
				c0.3,0.2,0.8,0.4,1.4,0.4h4v1.4h-7v-1.4h0.7c-0.2-0.2-0.4-0.4-0.6-0.7c-0.2-0.3-0.2-0.6-0.2-0.9c0-0.3,0-0.5,0.1-0.7
				c0-0.2,0.1-0.3,0.2-0.5L12.9,105.7z"/>
			<path id="XMLID_77_" class="st2" d="M14.8,98.2c0.1,0,0.2,0,0.4,0c0.1,0,0.2,0,0.3,0v4.7c0.3,0,0.6-0.1,0.9-0.2s0.4-0.2,0.6-0.4
				c0.2-0.2,0.3-0.3,0.3-0.5c0.1-0.2,0.1-0.4,0.1-0.6c0-0.3,0-0.6-0.1-0.8s-0.2-0.5-0.4-0.7l0.9-0.8c0.3,0.3,0.5,0.7,0.7,1
				c0.2,0.4,0.2,0.8,0.2,1.4c0,0.4-0.1,0.8-0.2,1.2s-0.4,0.7-0.7,1c-0.3,0.3-0.7,0.5-1.2,0.7c-0.5,0.2-1,0.2-1.6,0.2
				c-0.6,0-1.1-0.1-1.6-0.2s-0.8-0.4-1.1-0.6c-0.3-0.3-0.5-0.6-0.7-1c-0.2-0.4-0.2-0.8-0.2-1.3c0-0.5,0.1-0.9,0.3-1.3
				s0.4-0.7,0.8-0.9s0.7-0.4,1.1-0.6C13.9,98.3,14.3,98.2,14.8,98.2z M14.3,99.6c-0.2,0-0.5,0.1-0.7,0.1c-0.2,0.1-0.4,0.2-0.6,0.3
				c-0.2,0.1-0.3,0.3-0.4,0.5s-0.1,0.4-0.1,0.7c0,0.5,0.2,0.8,0.5,1.1c0.3,0.3,0.7,0.4,1.3,0.5V99.6z"/>
			<path id="XMLID_74_" class="st2" d="M18.4,92.2h-0.7c0.2,0.3,0.4,0.5,0.6,0.8c0.2,0.3,0.2,0.6,0.2,1s-0.1,0.7-0.2,1.1
				c-0.1,0.3-0.4,0.6-0.7,0.9c-0.3,0.2-0.7,0.4-1.2,0.6c-0.5,0.1-1.1,0.2-1.7,0.2c-0.6,0-1.1-0.1-1.6-0.2c-0.4-0.2-0.8-0.4-1.1-0.6
				c-0.3-0.3-0.5-0.5-0.7-0.9c-0.1-0.3-0.2-0.7-0.2-1.1c0-0.4,0.1-0.7,0.2-1c0.2-0.3,0.4-0.6,0.6-0.8H9.4l-0.7-1.4h9.8V92.2z
				 M13.5,92.2c-0.1,0.1-0.2,0.2-0.3,0.3c-0.1,0.1-0.2,0.2-0.3,0.4s-0.2,0.3-0.2,0.5s-0.1,0.3-0.1,0.5c0,0.5,0.2,0.9,0.6,1.1
				c0.4,0.3,0.9,0.4,1.7,0.4c0.9,0,1.5-0.1,1.9-0.4c0.4-0.3,0.6-0.7,0.6-1.2c0-0.3-0.1-0.6-0.3-0.9c-0.2-0.3-0.4-0.5-0.6-0.7H13.5z"
				/>
			<path id="XMLID_72_" class="st2" d="M18.4,84.6h-0.7c0.3,0.2,0.5,0.4,0.6,0.7s0.2,0.7,0.2,1c0,0.8-0.3,1.4-0.8,1.9
				s-1.3,0.6-2.4,0.6h-4v-1.4h4c0.7,0,1.2-0.1,1.5-0.4s0.4-0.6,0.4-1.1c0-0.5-0.2-0.8-0.5-1.1c-0.3-0.3-0.8-0.4-1.3-0.4h-4.1v-1.4h7
				V84.6z"/>
			<path id="XMLID_70_" class="st2" d="M13.4,76.8c-0.3,0.3-0.5,0.6-0.7,0.8c-0.1,0.3-0.2,0.6-0.2,0.9c0,0.5,0.2,0.9,0.6,1.2
				c0.4,0.3,1,0.4,1.7,0.4c0.3,0,0.7,0,1-0.1c0.3-0.1,0.5-0.2,0.8-0.3c0.2-0.1,0.4-0.3,0.5-0.5c0.1-0.2,0.2-0.5,0.2-0.7
				c0-0.3-0.1-0.6-0.2-0.8c-0.1-0.2-0.4-0.5-0.7-0.8l0.9-0.9c0.2,0.1,0.3,0.3,0.5,0.4s0.3,0.3,0.4,0.5s0.2,0.4,0.3,0.7
				c0.1,0.3,0.1,0.5,0.1,0.9c0,0.4-0.1,0.8-0.3,1.2c-0.2,0.4-0.4,0.7-0.7,1c-0.3,0.3-0.7,0.5-1.1,0.6c-0.4,0.2-0.9,0.2-1.5,0.2
				c-0.6,0-1.1-0.1-1.6-0.2c-0.5-0.2-0.8-0.4-1.2-0.7c-0.3-0.3-0.6-0.6-0.7-1c-0.2-0.4-0.2-0.8-0.2-1.2c0-0.5,0.1-1,0.3-1.4
				c0.2-0.4,0.5-0.8,0.9-1.1L13.4,76.8z"/>
			<path id="XMLID_68_" class="st2" d="M18.3,70.8c0.1,0.2,0.2,0.4,0.2,0.6c0.1,0.2,0.1,0.5,0.1,0.8c0,0.5-0.2,0.9-0.5,1.2
				s-0.8,0.4-1.4,0.4h-4.1v1h-1.3v-1h-2l-0.7-1.4h2.7v-1.7h1.3v1.7h3.8c0.3,0,0.6-0.1,0.7-0.2s0.2-0.3,0.2-0.6c0-0.2,0-0.4-0.1-0.5
				c-0.1-0.2-0.1-0.3-0.2-0.5L18.3,70.8z"/>
			<path id="XMLID_65_" class="st2" d="M9.6,67.1c0.2,0,0.4,0.1,0.6,0.3c0.2,0.2,0.3,0.4,0.3,0.6c0,0.3-0.1,0.5-0.3,0.6
				c-0.2,0.2-0.4,0.3-0.6,0.3c-0.3,0-0.5-0.1-0.6-0.3c-0.2-0.2-0.3-0.4-0.3-0.6c0-0.2,0.1-0.4,0.3-0.6C9.1,67.2,9.4,67.1,9.6,67.1z
				 M18.4,68.7h-7v-1.4h7V68.7z"/>
			<path id="XMLID_62_" class="st2" d="M14.9,59.3c0.6,0,1.1,0.1,1.6,0.2c0.5,0.2,0.8,0.4,1.2,0.7c0.3,0.3,0.6,0.6,0.7,1
				c0.2,0.4,0.2,0.8,0.2,1.3c0,0.4-0.1,0.9-0.3,1.2c-0.2,0.4-0.4,0.7-0.7,1c-0.3,0.3-0.7,0.5-1.2,0.6c-0.4,0.2-0.9,0.2-1.5,0.2
				c-0.6,0-1.1-0.1-1.5-0.2s-0.8-0.4-1.2-0.7c-0.3-0.3-0.6-0.6-0.7-1c-0.2-0.4-0.2-0.8-0.2-1.2c0-0.4,0.1-0.9,0.3-1.2
				c0.2-0.4,0.4-0.7,0.7-1c0.3-0.3,0.7-0.5,1.1-0.7C13.8,59.4,14.3,59.3,14.9,59.3z M14.9,60.7c-0.7,0-1.3,0.2-1.7,0.5
				s-0.6,0.8-0.6,1.3c0,0.5,0.2,0.9,0.6,1.2c0.4,0.3,1,0.5,1.7,0.5c0.8,0,1.4-0.2,1.8-0.5c0.4-0.3,0.6-0.7,0.6-1.3
				c0-0.3-0.1-0.5-0.2-0.7c-0.1-0.2-0.3-0.4-0.5-0.6c-0.2-0.2-0.5-0.3-0.7-0.4C15.6,60.7,15.3,60.7,14.9,60.7z"/>
			<path id="XMLID_60_" class="st2" d="M18.4,53.3h-4c-0.7,0-1.2,0.1-1.5,0.4c-0.3,0.3-0.4,0.6-0.4,1.1c0,0.5,0.2,0.8,0.5,1.1
				c0.3,0.3,0.8,0.4,1.3,0.4h4.1v1.4h-7v-1.4h0.7c-0.3-0.2-0.5-0.4-0.6-0.7s-0.2-0.7-0.2-1c0-0.8,0.3-1.4,0.8-1.9s1.3-0.6,2.4-0.6h4
				V53.3z"/>
		</g>
	</g>
</g>
<linearGradient id="XMLID_307_" gradientUnits="userSpaceOnUse" x1="0" y1="1232.2096" x2="290.3006" y2="1232.2096" gradientTransform="matrix(1 0 0 -1 0 1406.2386)">
	<stop  offset="0" style="stop-color:#4B257A"/>
	<stop  offset="1" style="stop-color:#954C8D"/>
</linearGradient>
<rect id="XMLID_55_" x="0.4" y="0.4" class="st4" width="289.5" height="347.2"/>
<g id="XMLID_1_">
	<polygon id="XMLID_54_" class="st5" points="125.8,22.8 126.5,22.8 126.5,28.7 130.7,28.7 130.7,29.3 125.8,29.3 	"/>
	<path id="XMLID_51_" class="st5" d="M135.7,26.6c-0.2-1.2-1.1-1.6-2-1.6c-0.9,0-1.8,0.5-2,1.6H135.7z M136.3,27.8
		c-0.3,0.8-1,1.7-2.6,1.7c-2,0-2.6-1.4-2.6-2.5c0-1.3,0.8-2.5,2.6-2.5c1.2,0,2.7,0.5,2.7,2.7h-4.7c0,1,0.7,1.8,1.9,1.8
		c1.1,0,1.7-0.4,1.9-1.1H136.3z"/>
	<polygon id="XMLID_50_" class="st5" points="141.2,24.5 141.9,24.5 139.6,29.3 138.9,29.3 136.6,24.5 137.4,24.5 139.3,28.5 	"/>
	<path id="XMLID_47_" class="st5" d="M146.9,26.6c-0.2-1.2-1.1-1.6-2-1.6c-0.9,0-1.8,0.5-2,1.6H146.9z M147.4,27.8
		c-0.3,0.8-1,1.7-2.6,1.7c-2,0-2.6-1.4-2.6-2.5c0-1.3,0.8-2.5,2.6-2.5c1.2,0,2.7,0.5,2.7,2.7h-4.7c0,1,0.7,1.8,1.9,1.8
		c1.1,0,1.7-0.4,1.9-1.1H147.4z"/>
	<path id="XMLID_46_" class="st5" d="M148.8,23h0.7v1.5h1.4v0.5h-1.4v3.2c0,0.4,0.1,0.6,0.7,0.6c0.3,0,0.5,0,0.7-0.1v0.6
		c-0.3,0-0.5,0.1-0.8,0.1c-1.1,0-1.3-0.4-1.3-1.2v-3.2h-1v-0.5h1V23z"/>
	<path id="XMLID_43_" class="st5" d="M151.6,24.5h0.7v4.8h-0.7V24.5z M151.6,22.7h0.7v1h-0.7V22.7z"/>
	<path id="XMLID_42_" class="st5" d="M153.4,24.5h0.7v1.1h0c0.3-0.6,0.7-1.2,1.8-1.2c0.2,0,0.3,0,0.4,0v0.7c-0.2,0-0.4-0.1-0.6-0.1
		c-0.7,0-1.6,0.5-1.6,1.8v2.4h-0.7V24.5z"/>
	<path id="XMLID_39_" class="st5" d="M160.6,26.8c-0.3,0.2-0.8,0.2-2.1,0.4c-0.8,0.1-1.3,0.3-1.3,0.9c0,0.7,0.7,1,1.4,1
		c0.9,0,2-0.5,2-1.5V26.8z M156.8,26c0.1-1,0.6-1.6,2.3-1.6c1.6,0,2.2,0.5,2.2,1.4v2.5c0,0.4,0.1,0.5,0.4,0.5c0.1,0,0.2,0,0.4,0v0.5
		c-0.1,0-0.4,0.1-0.6,0.1c-0.7,0-0.7-0.5-0.7-0.8h0c-0.2,0.3-0.7,1-2.3,1c-0.8,0-1.9-0.4-1.9-1.4c0-1.3,1.3-1.4,2.4-1.5
		c1.5-0.1,1.7-0.2,1.7-0.6c0-0.7-0.5-0.9-1.6-0.9c-1.1,0-1.6,0.3-1.7,1H156.8z"/>
	<path id="XMLID_38_" class="st5" d="M167.4,27.6c-0.1,0.6-0.7,1.9-2.4,1.9c-1.7,0-2.7-1-2.7-2.5c0-1.4,0.9-2.5,2.7-2.5
		c1.7,0,2.3,1,2.4,1.7h-0.7c-0.2-0.8-0.9-1.1-1.7-1.1c-1.4,0-2,0.9-2,2c0,1.2,0.7,2,2,2c1,0,1.6-0.5,1.8-1.3H167.4z"/>
	<path id="XMLID_35_" class="st5" d="M172.6,26.6c-0.2-1.2-1.1-1.6-2-1.6c-0.9,0-1.8,0.5-2,1.6H172.6z M173.2,27.8
		c-0.3,0.8-1,1.7-2.6,1.7c-2,0-2.6-1.4-2.6-2.5c0-1.3,0.8-2.5,2.6-2.5c1.2,0,2.7,0.5,2.7,2.7h-4.7c0,1,0.7,1.8,1.9,1.8
		c1.2,0,1.7-0.4,1.9-1.1H173.2z"/>
	<path id="XMLID_34_" class="st5" d="M174.6,23h0.7v1.5h1.4v0.5h-1.4v3.2c0,0.4,0.1,0.6,0.7,0.6c0.3,0,0.5,0,0.7-0.1v0.6
		c-0.3,0-0.5,0.1-0.8,0.1c-1.1,0-1.3-0.4-1.3-1.2v-3.2h-1.1v-0.5h1.1V23z"/>
	<path id="XMLID_31_" class="st5" d="M181.2,26.8c-0.3,0.2-0.8,0.2-2.1,0.4c-0.8,0.1-1.3,0.3-1.3,0.9c0,0.7,0.7,1,1.4,1
		c0.9,0,2-0.5,2-1.5V26.8z M177.4,26c0.1-1,0.6-1.6,2.3-1.6c1.6,0,2.2,0.5,2.2,1.4v2.5c0,0.4,0.1,0.5,0.4,0.5c0.1,0,0.2,0,0.4,0v0.5
		c-0.1,0-0.4,0.1-0.6,0.1c-0.7,0-0.7-0.5-0.7-0.8h0c-0.2,0.3-0.7,1-2.3,1c-0.8,0-1.9-0.4-1.9-1.4c0-1.3,1.3-1.4,2.4-1.5
		c1.5-0.1,1.7-0.2,1.7-0.6c0-0.7-0.5-0.9-1.6-0.9c-1.1,0-1.6,0.3-1.7,1H177.4z"/>
	<path id="XMLID_30_" class="st5" d="M190.6,26.3c0-0.9-0.4-1.3-1.4-1.3c-1.1,0-1.6,0.6-1.6,1.5v2.8h-0.7v-3.2
		c0-0.6-0.4-1.1-1.4-1.1c-1,0-1.7,0.6-1.7,1.7v2.7h-0.7v-4.8h0.7v0.9h0c0.3-0.5,0.8-1,1.9-1c1.1,0,1.6,0.6,1.7,1.1
		c0.2-0.5,0.9-1.1,1.9-1.1c1.4,0,2,0.7,2,1.7v3.3h-0.7V26.3z"/>
	<polygon id="XMLID_29_" class="st6" points="183.9,21.5 181.9,21.5 180.5,18.9 178.9,21.5 177,21.5 179.5,17.6 177.2,13.9 
		179.1,13.9 180.5,16.3 181.9,13.9 183.7,13.9 181.4,17.5 	"/>
	<path id="XMLID_26_" class="st6" d="M188.3,17.2c0.8,0,1.2-0.3,1.2-1c0-0.4-0.2-1-1.1-1h-2v2H188.3z M184.9,13.9h3.9
		c2,0,2.4,1.5,2.4,2.2c0,0.8-0.4,1.6-1.2,1.8c0.6,0.3,1,0.5,1,1.9c0,1.1,0,1.4,0.3,1.5v0.2h-1.8c-0.1-0.4-0.2-0.8-0.2-1.5
		c0-1-0.1-1.4-1.3-1.4h-1.7v3h-1.6V13.9z"/>
	<polygon id="XMLID_25_" class="st6" points="129.9,21.4 128,18 127,19.1 127,21.4 125.5,21.4 125.5,13.9 127,13.9 127,17.1 
		129.7,13.9 131.5,13.9 128.9,16.9 131.6,21.4 	"/>
	<path id="XMLID_22_" class="st6" d="M141.9,15.2h-1.4v2.1h1.4c0.7,0,1.1-0.4,1.1-1C143,15.6,142.6,15.2,141.9,15.2 M142,18.6h-1.5
		v2.8h-1.5v-7.5h3c1.6,0,2.5,1.1,2.5,2.3C144.5,17.5,143.6,18.6,142,18.6"/>
	<path id="XMLID_19_" class="st6" d="M148.7,15.2h-1.4v2h1.4c0.7,0,1.1-0.4,1.1-1C149.7,15.6,149.3,15.2,148.7,15.2 M149.8,21.4
		l-1.5-3h-1.1v3h-1.5v-7.5h3c1.5,0,2.5,1,2.5,2.3c0,1.1-0.7,1.7-1.4,2l1.7,3.3H149.8z"/>
	<path id="XMLID_16_" class="st6" d="M155.3,16.1l-1,2.7h1.9L155.3,16.1z M157.1,21.4l-0.4-1.3h-2.7l-0.5,1.3h-1.5l2.8-7.5h1.2
		l2.8,7.5H157.1z"/>
	<path id="XMLID_13_" class="st6" d="M163.3,15.6c-0.3-0.3-0.6-0.5-1.1-0.5h-1.1v4.9h1.1c0.5,0,0.9-0.2,1.1-0.5
		c0.3-0.3,0.3-0.9,0.3-2C163.6,16.5,163.6,16,163.3,15.6 M164.3,20.7c-0.5,0.5-1.2,0.7-2,0.7h-2.7v-7.5h2.7c0.8,0,1.5,0.2,2,0.7
		c0.9,0.8,0.8,1.9,0.8,3C165.1,18.7,165.2,19.8,164.3,20.7"/>
	<rect id="XMLID_12_" x="166.6" y="13.9" class="st6" width="1.5" height="7.5"/>
	<polygon id="XMLID_11_" class="st6" points="169.9,21.4 169.9,13.9 171.4,13.9 171.4,20.1 174.8,20.1 174.8,21.4 	"/>
	<path id="XMLID_6_" d="M173.4,15.1c0.2,0,0.3,0,0.3-0.2c0-0.1-0.1-0.2-0.3-0.2h-0.2v0.4H173.4z M173,14.5h0.4
		c0.3,0,0.4,0.1,0.4,0.3c0,0.2-0.1,0.3-0.3,0.3l0.3,0.5h-0.2l-0.3-0.5h-0.2v0.5H173V14.5z M174.2,15.1c0-0.5-0.4-0.8-0.8-0.8
		c-0.5,0-0.8,0.4-0.8,0.8c0,0.5,0.4,0.8,0.8,0.8C173.9,15.9,174.2,15.6,174.2,15.1 M173.4,14.1c0.5,0,1,0.4,1,1c0,0.5-0.4,1-1,1
		c-0.5,0-1-0.4-1-1C172.4,14.6,172.9,14.1,173.4,14.1"/>
	<polygon id="XMLID_5_" class="st5" points="132.6,21.4 137.6,21.4 137.6,20.1 134.1,20.1 134.1,18.6 132.6,18.6 	"/>
	<path id="XMLID_4_" class="st6" d="M132,18c0,0,0.6-1.4,3-1.4c2.4,0,3.7-0.8,3.7-0.8s-1.7,1.7-3.4,1.7
		C133.7,17.5,132.7,17.5,132,18"/>
	<path id="XMLID_3_" class="st5" d="M131.3,19.3c0,0,0.6-1.4,3-1.4c2.4,0,3.7-0.8,3.7-0.8s-1.7,1.7-3.4,1.7
		C133,18.8,132,18.8,131.3,19.3"/>
	<polygon id="XMLID_2_" class="st6" points="132.6,17.2 134.1,17.2 134.1,15.2 137.6,15.2 137.6,13.9 132.6,13.9 	"/>
</g>
</svg>
