<!-- Generator: Adobe Illustrator 22.1.0, SVG Export Plug-In  -->
<svg version="1.1"
	 xmlns="http://www.w3.org/2000/svg" xmlns:xlink="http://www.w3.org/1999/xlink" xmlns:a="http://ns.adobe.com/AdobeSVGViewerExtensions/3.0/"
	 x="0px" y="0px" width="348.5px" height="13.1px" viewBox="0 0 348.5 13.1" style="enable-background:new 0 0 348.5 13.1;"
	 xml:space="preserve">
<style type="text/css">
	.st0{fill:#58595B;}
	.st1{fill:#A6A8AB;}
	.st2{fill:url(#XMLID_109_);}
	.st3{fill:url(#XMLID_110_);}
</style>
<defs>
</defs>
<g id="XMLID_74_">
	<path id="XMLID_106_" class="st0" d="M24.2,3.4c0,0.5-0.1,0.9-0.2,1.3c-0.1,0.4-0.4,0.7-0.6,0.9S22.8,6,22.4,6.2
		c-0.4,0.1-0.8,0.2-1.2,0.2h-2.4v3.5h-1.3V0.4h3.8c0.4,0,0.8,0.1,1.2,0.2s0.7,0.3,0.9,0.6c0.3,0.2,0.5,0.6,0.6,0.9
		C24.1,2.5,24.2,2.9,24.2,3.4z M22.8,3.4c0-0.5-0.1-0.9-0.4-1.2c-0.3-0.3-0.7-0.4-1.1-0.4h-2.4V5h2.4c0.5,0,0.9-0.1,1.2-0.4
		C22.7,4.3,22.8,3.9,22.8,3.4z"/>
	<path id="XMLID_104_" class="st0" d="M25.8,9.9V0.7L27.1,0v9.9H25.8z"/>
	<path id="XMLID_101_" class="st0" d="M33,9.9V9.2c-0.2,0.2-0.5,0.4-0.8,0.6c-0.3,0.2-0.7,0.2-1,0.2c-0.3,0-0.6,0-0.8-0.1
		s-0.5-0.2-0.8-0.4c-0.2-0.2-0.4-0.4-0.5-0.7s-0.2-0.7-0.2-1.1c0-0.4,0.1-0.7,0.2-1c0.1-0.3,0.3-0.5,0.6-0.7
		c0.2-0.2,0.5-0.3,0.9-0.4c0.3-0.1,0.7-0.1,1.1-0.1c0.6,0,1.1,0.1,1.5,0.3V5.1c0-0.4-0.1-0.7-0.3-0.9c-0.2-0.2-0.5-0.3-0.9-0.3
		c-0.4,0-0.7,0-0.9,0.1c-0.3,0.1-0.6,0.2-0.8,0.3l-0.5-1.1c0.3-0.2,0.7-0.4,1-0.5c0.4-0.1,0.8-0.2,1.3-0.2c0.8,0,1.4,0.2,1.8,0.6
		c0.5,0.4,0.7,1,0.7,1.8v4.9H33z M33,6.9c-0.2-0.1-0.4-0.2-0.6-0.2c-0.2-0.1-0.5-0.1-0.9-0.1c-0.4,0-0.8,0.1-1,0.3
		c-0.2,0.2-0.4,0.4-0.4,0.8c0,0.4,0.1,0.6,0.3,0.9c0.2,0.2,0.5,0.3,1,0.3c0.4,0,0.7-0.1,1-0.3c0.3-0.2,0.5-0.4,0.7-0.6V6.9z"/>
	<path id="XMLID_99_" class="st0" d="M40.5,4.8c-0.3-0.3-0.5-0.5-0.8-0.7C39.4,4,39.2,4,38.9,4c-0.5,0-0.9,0.2-1.2,0.6
		c-0.3,0.4-0.4,1-0.4,1.7c0,0.4,0,0.7,0.1,1c0.1,0.3,0.2,0.5,0.3,0.8c0.1,0.2,0.3,0.4,0.5,0.5c0.2,0.1,0.4,0.2,0.7,0.2
		c0.3,0,0.6-0.1,0.8-0.2c0.2-0.1,0.5-0.4,0.7-0.7l0.9,0.9c-0.1,0.2-0.3,0.4-0.4,0.5c-0.2,0.2-0.3,0.3-0.5,0.4
		c-0.2,0.1-0.4,0.2-0.7,0.3s-0.5,0.1-0.8,0.1c-0.4,0-0.8-0.1-1.2-0.3C37.3,9.6,37,9.4,36.8,9c-0.3-0.3-0.5-0.7-0.6-1.2
		c-0.1-0.5-0.2-1-0.2-1.5c0-0.6,0.1-1.1,0.2-1.6c0.2-0.5,0.4-0.9,0.6-1.2c0.3-0.3,0.6-0.6,0.9-0.7c0.4-0.2,0.7-0.3,1.2-0.3
		c0.5,0,0.9,0.1,1.3,0.3s0.7,0.5,1.1,0.9L40.5,4.8z"/>
	<path id="XMLID_96_" class="st0" d="M48.3,6.2c0,0.1,0,0.2,0,0.4c0,0.1,0,0.2,0,0.3h-4.5c0,0.3,0.1,0.6,0.2,0.9
		c0.1,0.2,0.2,0.4,0.4,0.6c0.2,0.2,0.3,0.3,0.5,0.4c0.2,0.1,0.4,0.1,0.6,0.1c0.3,0,0.5,0,0.8-0.1s0.5-0.2,0.7-0.4l0.8,0.9
		c-0.3,0.3-0.6,0.5-1,0.7c-0.4,0.2-0.8,0.2-1.3,0.2c-0.4,0-0.8-0.1-1.1-0.2s-0.7-0.4-0.9-0.7s-0.5-0.7-0.6-1.2s-0.2-1-0.2-1.6
		c0-0.6,0.1-1.1,0.2-1.6c0.1-0.5,0.3-0.8,0.6-1.2c0.3-0.3,0.6-0.6,0.9-0.7s0.8-0.2,1.2-0.2c0.5,0,0.9,0.1,1.3,0.3s0.7,0.4,0.9,0.8
		C47.8,4,48,4.4,48.1,4.8C48.2,5.3,48.3,5.7,48.3,6.2z M46.9,5.7c0-0.2-0.1-0.5-0.1-0.7c-0.1-0.2-0.2-0.4-0.3-0.6S46.2,4.1,46,4
		c-0.2-0.1-0.4-0.1-0.7-0.1c-0.4,0-0.8,0.2-1.1,0.5c-0.3,0.3-0.4,0.8-0.5,1.3H46.9z"/>
	<path id="XMLID_93_" class="st0" d="M55.6,6.5c0,0.6-0.1,1.1-0.2,1.6c-0.1,0.4-0.3,0.8-0.6,1.1c-0.2,0.3-0.5,0.5-0.8,0.7
		c-0.3,0.1-0.7,0.2-1,0.2c-0.3,0-0.7-0.1-1-0.2s-0.5-0.4-0.7-0.6v0.7h-1.3V0.7L51.3,0l0,3.5C51.5,3.2,51.8,3,52,2.9
		c0.3-0.2,0.6-0.2,1-0.2s0.7,0.1,1,0.2c0.3,0.1,0.6,0.4,0.8,0.7c0.2,0.3,0.4,0.7,0.6,1.2C55.5,5.2,55.6,5.8,55.6,6.5z M54.3,6.5
		c0-0.9-0.1-1.6-0.4-2s-0.6-0.6-1.1-0.6c-0.3,0-0.6,0.1-0.9,0.3c-0.3,0.2-0.5,0.4-0.7,0.6v3c0.1,0.1,0.2,0.2,0.3,0.3
		s0.2,0.2,0.4,0.3c0.1,0.1,0.3,0.2,0.4,0.2s0.3,0.1,0.5,0.1c0.5,0,0.8-0.2,1.1-0.6C54.2,7.8,54.3,7.3,54.3,6.5z"/>
	<path id="XMLID_90_" class="st0" d="M63,6.3c0,0.6-0.1,1.1-0.2,1.6c-0.2,0.5-0.4,0.9-0.6,1.2c-0.3,0.3-0.6,0.6-1,0.7
		c-0.4,0.2-0.8,0.3-1.2,0.3c-0.4,0-0.8-0.1-1.2-0.3c-0.4-0.2-0.7-0.4-0.9-0.8c-0.3-0.3-0.5-0.7-0.6-1.2S57,6.9,57,6.3
		c0-0.6,0.1-1.1,0.2-1.6c0.2-0.5,0.4-0.9,0.6-1.2c0.3-0.3,0.6-0.6,1-0.7c0.4-0.2,0.8-0.3,1.2-0.3s0.8,0.1,1.2,0.3
		c0.4,0.2,0.7,0.4,1,0.7s0.5,0.7,0.6,1.2C62.9,5.2,63,5.8,63,6.3z M61.7,6.3c0-0.7-0.2-1.3-0.5-1.7S60.5,4,59.9,4
		c-0.5,0-0.9,0.2-1.2,0.6c-0.3,0.4-0.4,1-0.4,1.7c0,0.8,0.2,1.4,0.5,1.8s0.7,0.6,1.2,0.6c0.3,0,0.5-0.1,0.7-0.2
		c0.2-0.1,0.4-0.3,0.5-0.5c0.1-0.2,0.3-0.5,0.3-0.8S61.7,6.7,61.7,6.3z"/>
	<path id="XMLID_88_" class="st0" d="M70.4,11.4c-0.3-0.3-0.6-0.7-0.9-1.1s-0.6-0.8-0.8-1.3c-0.2-0.5-0.4-1-0.6-1.5
		C68,7,67.9,6.4,67.9,5.8c0-0.6,0.1-1.2,0.2-1.8c0.1-0.5,0.3-1,0.6-1.5s0.5-0.9,0.8-1.3c0.3-0.4,0.6-0.8,0.9-1.1l0.7,0.6
		c-0.6,0.7-1,1.4-1.3,2.2c-0.3,0.8-0.5,1.7-0.5,2.8c0,0.6,0,1.1,0.1,1.5c0.1,0.5,0.2,0.9,0.4,1.3c0.2,0.4,0.3,0.8,0.6,1.1
		s0.5,0.7,0.7,1L70.4,11.4z"/>
	<path id="XMLID_86_" class="st0" d="M76.5,9.9v-4c0-0.7-0.1-1.2-0.4-1.5c-0.2-0.3-0.6-0.4-1-0.4c-0.4,0-0.8,0.2-1,0.5
		c-0.2,0.3-0.4,0.8-0.4,1.3v4.2h-1.3V2.8h1.3v0.7c0.2-0.3,0.4-0.5,0.7-0.6c0.3-0.1,0.6-0.2,1-0.2c0.8,0,1.4,0.3,1.8,0.8
		c0.4,0.5,0.6,1.3,0.6,2.4v4.1H76.5z"/>
	<path id="XMLID_83_" class="st0" d="M79.8,4.3V3h5.6v1.4H79.8z M79.8,7.5V6.1h5.6v1.4H79.8z"/>
	<path id="XMLID_81_" class="st0" d="M88.1,9.9V2.6h-1.6v-1c0.5,0,0.9-0.1,1.2-0.3c0.3-0.2,0.6-0.5,0.6-0.9h1.1v9.5H88.1z"/>
	<path id="XMLID_79_" class="st0" d="M92.3,9.9V2.6h-1.6v-1c0.5,0,0.9-0.1,1.2-0.3c0.3-0.2,0.6-0.5,0.6-0.9h1.1v9.5H92.3z"/>
	<path id="XMLID_77_" class="st0" d="M95.4,9.9c0-0.7,0.1-1.3,0.3-1.8c0.2-0.5,0.5-1,0.8-1.4c0.3-0.4,0.7-0.8,1.1-1.1
		c0.4-0.3,0.8-0.6,1.3-0.9c0.3-0.2,0.6-0.4,0.8-0.5s0.4-0.3,0.5-0.4s0.2-0.3,0.2-0.4c0-0.1,0.1-0.3,0.1-0.5c0-0.4-0.1-0.7-0.4-0.9
		c-0.3-0.2-0.7-0.3-1.3-0.3c-0.4,0-0.8,0.1-1.2,0.3s-0.7,0.4-1,0.7l-0.9-1.1c0.4-0.4,0.9-0.7,1.4-1c0.5-0.2,1.1-0.3,1.7-0.3
		c0.9,0,1.7,0.2,2.2,0.6c0.6,0.4,0.8,1.1,0.8,2c0,0.4,0,0.7-0.1,1c-0.1,0.3-0.2,0.5-0.4,0.8s-0.4,0.5-0.7,0.7
		c-0.3,0.2-0.6,0.4-1,0.7c-0.4,0.3-0.8,0.5-1.1,0.7c-0.3,0.2-0.5,0.4-0.7,0.6s-0.3,0.4-0.4,0.6s-0.2,0.4-0.2,0.6h4.8v1.4H95.4z"/>
	<path id="XMLID_75_" class="st0" d="M106.6,5.7c0,0.6-0.1,1.2-0.2,1.8c-0.1,0.5-0.3,1-0.6,1.5c-0.2,0.5-0.5,0.9-0.8,1.3
		c-0.3,0.4-0.6,0.8-0.9,1.1l-0.7-0.6c0.6-0.7,1-1.4,1.3-2.2c0.3-0.8,0.5-1.7,0.5-2.8c0-0.6,0-1.1-0.1-1.5c-0.1-0.5-0.2-0.9-0.4-1.3
		c-0.2-0.4-0.3-0.8-0.6-1.1c-0.2-0.4-0.5-0.7-0.7-1l0.7-0.6c0.3,0.3,0.6,0.7,0.9,1.1c0.3,0.4,0.6,0.8,0.8,1.3c0.2,0.5,0.4,1,0.6,1.5
		C106.5,4.5,106.6,5.1,106.6,5.7z"/>
</g>
<rect id="XMLID_73_" y="0.4" class="st1" width="12.4" height="10"/>
<linearGradient id="XMLID_109_" gradientUnits="userSpaceOnUse" x1="129.6231" y1="5.2028" x2="142.0216" y2="5.2028">
	<stop  offset="0" style="stop-color:#4B257A"/>
	<stop  offset="1" style="stop-color:#954C8D"/>
</linearGradient>
<rect id="XMLID_72_" x="129.6" y="0.2" class="st2" width="12.4" height="10"/>
<g id="XMLID_1_">
	<path id="XMLID_70_" class="st0" d="M152.7,10.7l-2.4-4.5l-1.6,2v2.6h-1.2V1.8h1.2v3c0,0.1,0,0.2,0,0.3c0,0.1,0,0.3,0,0.5
		c0,0.2,0,0.3,0,0.4c0,0.1,0,0.2,0,0.3c0-0.1,0.1-0.1,0.2-0.3c0.1-0.1,0.2-0.2,0.3-0.4c0.1-0.1,0.2-0.3,0.3-0.4
		c0.1-0.1,0.2-0.2,0.3-0.3l2.5-3.3h1.4l-2.5,3.2l3,5.6H152.7z"/>
	<path id="XMLID_67_" class="st0" d="M160.2,7.2c0,0.1,0,0.2,0,0.3c0,0.1,0,0.2,0,0.3H156c0,0.3,0.1,0.6,0.2,0.8
		c0.1,0.2,0.2,0.4,0.4,0.6c0.1,0.1,0.3,0.3,0.5,0.3s0.4,0.1,0.6,0.1c0.3,0,0.5,0,0.7-0.1c0.2-0.1,0.4-0.2,0.6-0.4l0.7,0.8
		c-0.3,0.3-0.6,0.5-0.9,0.6c-0.3,0.2-0.8,0.2-1.2,0.2c-0.4,0-0.7-0.1-1-0.2c-0.3-0.2-0.6-0.4-0.9-0.7c-0.2-0.3-0.4-0.7-0.6-1.1
		s-0.2-0.9-0.2-1.5c0-0.6,0.1-1.1,0.2-1.5c0.1-0.4,0.3-0.8,0.6-1.1c0.2-0.3,0.5-0.5,0.9-0.7c0.3-0.2,0.7-0.2,1.1-0.2
		c0.4,0,0.8,0.1,1.2,0.3c0.3,0.2,0.6,0.4,0.8,0.7c0.2,0.3,0.4,0.7,0.5,1.1C160.1,6.4,160.2,6.8,160.2,7.2z M158.9,6.8
		c0-0.2-0.1-0.4-0.1-0.6s-0.1-0.4-0.3-0.5c-0.1-0.2-0.3-0.3-0.4-0.4c-0.2-0.1-0.4-0.1-0.7-0.1c-0.4,0-0.7,0.1-1,0.4
		s-0.4,0.7-0.4,1.2H158.9z"/>
	<path id="XMLID_64_" class="st0" d="M167,7.5c0,0.6-0.1,1.1-0.2,1.5c-0.1,0.4-0.3,0.8-0.5,1c-0.2,0.3-0.5,0.5-0.8,0.6
		c-0.3,0.1-0.6,0.2-0.9,0.2c-0.3,0-0.6-0.1-0.9-0.2c-0.3-0.2-0.5-0.3-0.7-0.5v2.4l-1.2,0.7V4.1h1.2l0,0.6c0.2-0.2,0.5-0.4,0.7-0.6
		c0.3-0.1,0.6-0.2,0.9-0.2s0.7,0.1,0.9,0.2s0.6,0.3,0.8,0.6c0.2,0.3,0.4,0.7,0.5,1.1C167,6.3,167,6.8,167,7.5z M165.8,7.5
		c0-0.8-0.1-1.4-0.4-1.8c-0.2-0.4-0.6-0.6-1-0.6c-0.3,0-0.6,0.1-0.8,0.3c-0.2,0.2-0.4,0.4-0.6,0.6v2.8c0.1,0.1,0.2,0.2,0.3,0.3
		s0.2,0.2,0.3,0.3c0.1,0.1,0.3,0.2,0.4,0.2c0.1,0.1,0.3,0.1,0.5,0.1c0.4,0,0.8-0.2,1-0.5S165.8,8.2,165.8,7.5z"/>
	<path id="XMLID_62_" class="st0" d="M172,5.4c-0.1-0.1-0.3-0.1-0.4-0.2s-0.3-0.1-0.5-0.1c-0.4,0-0.7,0.1-0.9,0.4
		c-0.2,0.3-0.3,0.7-0.3,1.3v3.8h-1.2V4.1h1.2v0.6c0.1-0.2,0.3-0.4,0.6-0.5s0.5-0.2,0.8-0.2c0.3,0,0.5,0,0.6,0.1
		c0.2,0,0.3,0.1,0.4,0.2L172,5.4z"/>
	<path id="XMLID_59_" class="st0" d="M176.8,10.7V10c-0.2,0.2-0.5,0.4-0.8,0.6c-0.3,0.2-0.6,0.2-1,0.2c-0.3,0-0.5,0-0.8-0.1
		c-0.3-0.1-0.5-0.2-0.7-0.4s-0.4-0.4-0.5-0.7c-0.1-0.3-0.2-0.6-0.2-1c0-0.4,0.1-0.7,0.2-1s0.3-0.5,0.5-0.7c0.2-0.2,0.5-0.3,0.8-0.4
		c0.3-0.1,0.6-0.1,1-0.1c0.6,0,1,0.1,1.4,0.3V6.2c0-0.4-0.1-0.6-0.3-0.8c-0.2-0.2-0.5-0.3-0.9-0.3c-0.3,0-0.6,0-0.9,0.1
		c-0.3,0.1-0.5,0.2-0.8,0.3l-0.5-1c0.3-0.2,0.6-0.3,1-0.4c0.3-0.1,0.7-0.2,1.2-0.2c0.7,0,1.3,0.2,1.7,0.5c0.4,0.4,0.7,0.9,0.7,1.7
		v4.5H176.8z M176.8,7.9c-0.2-0.1-0.4-0.2-0.6-0.2c-0.2,0-0.5-0.1-0.8-0.1c-0.4,0-0.7,0.1-0.9,0.3C174.2,8,174,8.2,174,8.6
		c0,0.3,0.1,0.6,0.3,0.8c0.2,0.2,0.5,0.3,0.9,0.3c0.3,0,0.6-0.1,0.9-0.3c0.3-0.2,0.5-0.4,0.6-0.6V7.9z"/>
	<path id="XMLID_56_" class="st0" d="M183.6,10.7V10c-0.2,0.2-0.5,0.4-0.7,0.6c-0.3,0.1-0.6,0.2-0.9,0.2s-0.7-0.1-0.9-0.2
		s-0.6-0.3-0.8-0.6c-0.2-0.3-0.4-0.7-0.5-1.1c-0.1-0.5-0.2-1-0.2-1.6c0-0.6,0.1-1.1,0.2-1.5c0.1-0.4,0.3-0.8,0.5-1
		c0.2-0.3,0.5-0.5,0.8-0.6c0.3-0.1,0.6-0.2,0.9-0.2c0.3,0,0.6,0.1,0.9,0.2c0.3,0.2,0.5,0.3,0.7,0.5V2.1l1.2-0.7v9.2H183.6z M183.6,6
		c-0.1-0.1-0.2-0.2-0.3-0.3c-0.1-0.1-0.2-0.2-0.3-0.3c-0.1-0.1-0.3-0.2-0.4-0.2c-0.1-0.1-0.3-0.1-0.5-0.1c-0.4,0-0.8,0.2-1,0.5
		c-0.2,0.3-0.3,0.9-0.3,1.6c0,0.8,0.1,1.4,0.4,1.8c0.2,0.4,0.6,0.6,1,0.6c0.3,0,0.6-0.1,0.8-0.3c0.2-0.2,0.5-0.4,0.6-0.6V6z"/>
	<path id="XMLID_53_" class="st0" d="M188.1,2.4c0,0.2-0.1,0.4-0.2,0.6c-0.2,0.2-0.3,0.2-0.6,0.2c-0.2,0-0.4-0.1-0.6-0.2
		c-0.2-0.2-0.2-0.4-0.2-0.6c0-0.2,0.1-0.4,0.2-0.6c0.2-0.2,0.3-0.2,0.6-0.2c0.2,0,0.4,0.1,0.6,0.2C188,1.9,188.1,2.1,188.1,2.4z
		 M186.7,10.7V4.1h1.2v6.6H186.7z"/>
	<path id="XMLID_51_" class="st0" d="M189.8,10.7V2.2l1.2-0.7v9.2H189.8z"/>
	<path id="XMLID_49_" class="st0" d="M197,10.7V3.9h-1.5V3c0.4,0,0.8-0.1,1.1-0.3c0.3-0.2,0.5-0.5,0.6-0.8h1v8.8H197z"/>
	<path id="XMLID_46_" class="st0" d="M206.7,6.3c0,0.7-0.1,1.3-0.2,1.9s-0.4,1-0.6,1.4c-0.3,0.4-0.6,0.7-1,0.9
		c-0.4,0.2-0.9,0.3-1.4,0.3s-1-0.1-1.4-0.3c-0.4-0.2-0.8-0.5-1-0.9s-0.5-0.9-0.6-1.4c-0.1-0.6-0.2-1.2-0.2-1.8
		c0-0.7,0.1-1.3,0.2-1.8c0.1-0.6,0.4-1,0.6-1.4c0.3-0.4,0.6-0.7,1-0.9s0.9-0.3,1.4-0.3c0.5,0,1,0.1,1.4,0.3c0.4,0.2,0.8,0.5,1,0.9
		s0.5,0.9,0.6,1.4C206.6,5,206.7,5.6,206.7,6.3z M205.4,6.3c0-0.5,0-0.9-0.1-1.3c-0.1-0.4-0.2-0.7-0.4-1c-0.2-0.3-0.4-0.5-0.6-0.7
		C204,3.1,203.7,3,203.4,3c-0.4,0-0.7,0.1-0.9,0.2c-0.3,0.2-0.5,0.4-0.6,0.7c-0.2,0.3-0.3,0.6-0.4,1s-0.1,0.8-0.1,1.3
		c0,0.5,0,0.9,0.1,1.3c0.1,0.4,0.2,0.7,0.4,1c0.2,0.3,0.4,0.5,0.6,0.7c0.3,0.2,0.6,0.3,0.9,0.3c0.4,0,0.7-0.1,0.9-0.2
		s0.5-0.4,0.6-0.7c0.2-0.3,0.3-0.6,0.4-1C205.4,7.2,205.4,6.7,205.4,6.3z"/>
	<path id="XMLID_43_" class="st0" d="M214.6,6.3c0,0.7-0.1,1.3-0.2,1.9s-0.4,1-0.6,1.4c-0.3,0.4-0.6,0.7-1,0.9
		c-0.4,0.2-0.9,0.3-1.4,0.3s-1-0.1-1.4-0.3c-0.4-0.2-0.8-0.5-1-0.9s-0.5-0.9-0.6-1.4C208.1,7.6,208,7,208,6.3c0-0.7,0.1-1.3,0.2-1.8
		c0.1-0.6,0.4-1,0.6-1.4c0.3-0.4,0.6-0.7,1-0.9s0.9-0.3,1.4-0.3c0.5,0,1,0.1,1.4,0.3c0.4,0.2,0.8,0.5,1,0.9s0.5,0.9,0.6,1.4
		C214.6,5,214.6,5.6,214.6,6.3z M213.4,6.3c0-0.5,0-0.9-0.1-1.3c-0.1-0.4-0.2-0.7-0.4-1c-0.2-0.3-0.4-0.5-0.6-0.7
		C212,3.1,211.7,3,211.3,3c-0.4,0-0.7,0.1-0.9,0.2c-0.3,0.2-0.5,0.4-0.6,0.7c-0.2,0.3-0.3,0.6-0.4,1s-0.1,0.8-0.1,1.3
		c0,0.5,0,0.9,0.1,1.3c0.1,0.4,0.2,0.7,0.4,1c0.2,0.3,0.4,0.5,0.6,0.7c0.3,0.2,0.6,0.3,0.9,0.3c0.4,0,0.7-0.1,0.9-0.2
		s0.5-0.4,0.6-0.7c0.2-0.3,0.3-0.6,0.4-1C213.3,7.2,213.4,6.7,213.4,6.3z"/>
	<path id="XMLID_40_" class="st0" d="M222.6,6.3c0,0.7-0.1,1.3-0.2,1.9s-0.4,1-0.6,1.4c-0.3,0.4-0.6,0.7-1,0.9
		c-0.4,0.2-0.9,0.3-1.4,0.3s-1-0.1-1.4-0.3c-0.4-0.2-0.8-0.5-1-0.9s-0.5-0.9-0.6-1.4c-0.1-0.6-0.2-1.2-0.2-1.8
		c0-0.7,0.1-1.3,0.2-1.8c0.1-0.6,0.4-1,0.6-1.4c0.3-0.4,0.6-0.7,1-0.9s0.9-0.3,1.4-0.3c0.5,0,1,0.1,1.4,0.3c0.4,0.2,0.8,0.5,1,0.9
		s0.5,0.9,0.6,1.4C222.5,5,222.6,5.6,222.6,6.3z M221.3,6.3c0-0.5,0-0.9-0.1-1.3c-0.1-0.4-0.2-0.7-0.4-1c-0.2-0.3-0.4-0.5-0.6-0.7
		c-0.3-0.2-0.6-0.3-0.9-0.3c-0.4,0-0.7,0.1-0.9,0.2c-0.3,0.2-0.5,0.4-0.6,0.7c-0.2,0.3-0.3,0.6-0.4,1s-0.1,0.8-0.1,1.3
		c0,0.5,0,0.9,0.1,1.3c0.1,0.4,0.2,0.7,0.4,1c0.2,0.3,0.4,0.5,0.6,0.7c0.3,0.2,0.6,0.3,0.9,0.3c0.4,0,0.7-0.1,0.9-0.2
		s0.5-0.4,0.6-0.7c0.2-0.3,0.3-0.6,0.4-1C221.3,7.2,221.3,6.7,221.3,6.3z"/>
	<path id="XMLID_38_" class="st0" d="M234.7,10.7V6.9c0-0.7-0.1-1.1-0.3-1.4c-0.2-0.3-0.5-0.4-0.9-0.4c-0.4,0-0.7,0.1-0.9,0.4
		c-0.2,0.3-0.3,0.7-0.3,1.2v3.9H231V6.9c0-0.7-0.1-1.1-0.3-1.4c-0.2-0.3-0.5-0.4-0.9-0.4c-0.4,0-0.7,0.1-0.9,0.4
		c-0.2,0.3-0.3,0.7-0.3,1.2v3.9h-1.2V4.1h1.2v0.6c0.2-0.2,0.4-0.4,0.6-0.6c0.3-0.1,0.5-0.2,0.9-0.2c0.4,0,0.8,0.1,1.1,0.2
		s0.5,0.4,0.7,0.7c0.1-0.2,0.2-0.3,0.4-0.4c0.1-0.1,0.3-0.2,0.4-0.3s0.3-0.2,0.5-0.2c0.2,0,0.4-0.1,0.7-0.1c0.7,0,1.3,0.2,1.6,0.7
		s0.5,1.2,0.5,2.2v3.8H234.7z"/>
	<path id="XMLID_35_" class="st0" d="M242.7,10.1c0,0.5,0,0.9-0.1,1.3c-0.1,0.4-0.3,0.7-0.5,0.9c-0.2,0.3-0.5,0.4-0.9,0.6
		c-0.4,0.1-0.9,0.2-1.4,0.2l-0.4-1c0.4,0,0.8-0.1,1.1-0.2c0.3-0.1,0.5-0.2,0.7-0.3c0.2-0.2,0.3-0.4,0.3-0.6c0.1-0.2,0.1-0.5,0.1-0.9
		V10c-0.2,0.2-0.5,0.4-0.7,0.6c-0.3,0.1-0.6,0.2-0.9,0.2s-0.7-0.1-0.9-0.2s-0.6-0.3-0.8-0.6c-0.2-0.3-0.4-0.7-0.5-1.1
		c-0.1-0.5-0.2-1-0.2-1.6c0-0.6,0.1-1.1,0.2-1.5c0.1-0.4,0.3-0.8,0.6-1c0.2-0.3,0.5-0.5,0.8-0.6s0.6-0.2,0.9-0.2
		c0.3,0,0.6,0.1,0.9,0.2c0.3,0.2,0.5,0.3,0.7,0.5V4.1h1.2V10.1z M241.5,6c-0.1-0.1-0.2-0.2-0.3-0.3c-0.1-0.1-0.2-0.2-0.3-0.3
		c-0.1-0.1-0.3-0.2-0.4-0.2c-0.1-0.1-0.3-0.1-0.5-0.1c-0.4,0-0.8,0.2-1,0.5c-0.2,0.3-0.3,0.9-0.3,1.6c0,0.8,0.1,1.4,0.4,1.8
		c0.2,0.4,0.6,0.6,1,0.6c0.3,0,0.6-0.1,0.8-0.3c0.2-0.2,0.5-0.4,0.6-0.6V6z"/>
	<path id="XMLID_33_" class="st0" d="M247.5,6.7V5.4h3v1.3H247.5z"/>
	<path id="XMLID_31_" class="st0" d="M259.6,8.1c0,0.9-0.3,1.6-0.8,2.1c-0.6,0.5-1.3,0.7-2.3,0.7c-0.3,0-0.6,0-0.9-0.1
		s-0.6-0.2-0.8-0.3c-0.3-0.1-0.5-0.3-0.7-0.5c-0.2-0.2-0.4-0.4-0.6-0.6l1-0.9c0.3,0.3,0.6,0.6,0.9,0.8c0.4,0.2,0.7,0.2,1.1,0.2
		c0.7,0,1.1-0.1,1.4-0.4s0.4-0.6,0.4-1.1c0-0.5-0.1-0.8-0.4-1s-0.7-0.3-1.1-0.3H256V5.4h0.8c0.4,0,0.7-0.1,0.9-0.4
		c0.2-0.2,0.3-0.5,0.3-0.9c0-0.1,0-0.3-0.1-0.4c0-0.1-0.1-0.3-0.3-0.4c-0.1-0.1-0.3-0.2-0.5-0.3C257,3.1,256.7,3,256.4,3
		c-0.3,0-0.6,0.1-0.9,0.2c-0.3,0.1-0.5,0.3-0.8,0.6l-0.9-0.9c0.4-0.4,0.8-0.7,1.2-0.9c0.4-0.2,0.9-0.3,1.4-0.3
		c0.4,0,0.8,0.1,1.1,0.2c0.4,0.1,0.7,0.3,0.9,0.5s0.5,0.5,0.6,0.8s0.2,0.6,0.2,1c0,0.5-0.1,0.9-0.3,1.2s-0.4,0.5-0.7,0.7
		c0.4,0.1,0.7,0.3,1,0.7C259.5,7.1,259.6,7.5,259.6,8.1z"/>
	<path id="XMLID_28_" class="st0" d="M267.6,6.3c0,0.7-0.1,1.3-0.2,1.9s-0.4,1-0.6,1.4c-0.3,0.4-0.6,0.7-1,0.9
		c-0.4,0.2-0.9,0.3-1.4,0.3s-1-0.1-1.4-0.3c-0.4-0.2-0.8-0.5-1-0.9s-0.5-0.9-0.6-1.4C261.1,7.6,261,7,261,6.3c0-0.7,0.1-1.3,0.2-1.8
		c0.1-0.6,0.4-1,0.6-1.4c0.3-0.4,0.6-0.7,1-0.9s0.9-0.3,1.4-0.3c0.5,0,1,0.1,1.4,0.3c0.4,0.2,0.8,0.5,1,0.9s0.5,0.9,0.6,1.4
		C267.5,5,267.6,5.6,267.6,6.3z M266.3,6.3c0-0.5,0-0.9-0.1-1.3c-0.1-0.4-0.2-0.7-0.4-1c-0.2-0.3-0.4-0.5-0.6-0.7
		C265,3.1,264.7,3,264.3,3c-0.4,0-0.7,0.1-0.9,0.2c-0.3,0.2-0.5,0.4-0.6,0.7c-0.2,0.3-0.3,0.6-0.4,1s-0.1,0.8-0.1,1.3
		c0,0.5,0,0.9,0.1,1.3c0.1,0.4,0.2,0.7,0.4,1c0.2,0.3,0.4,0.5,0.6,0.7c0.3,0.2,0.6,0.3,0.9,0.3c0.4,0,0.7-0.1,0.9-0.2
		s0.5-0.4,0.6-0.7c0.2-0.3,0.3-0.6,0.4-1C266.3,7.2,266.3,6.7,266.3,6.3z"/>
	<path id="XMLID_25_" class="st0" d="M275.6,6.3c0,0.7-0.1,1.3-0.2,1.9s-0.4,1-0.6,1.4c-0.3,0.4-0.6,0.7-1,0.9
		c-0.4,0.2-0.9,0.3-1.4,0.3s-1-0.1-1.4-0.3c-0.4-0.2-0.8-0.5-1-0.9s-0.5-0.9-0.6-1.4c-0.1-0.6-0.2-1.2-0.2-1.8
		c0-0.7,0.1-1.3,0.2-1.8c0.1-0.6,0.4-1,0.6-1.4c0.3-0.4,0.6-0.7,1-0.9s0.9-0.3,1.4-0.3c0.5,0,1,0.1,1.4,0.3c0.4,0.2,0.8,0.5,1,0.9
		s0.5,0.9,0.6,1.4C275.5,5,275.6,5.6,275.6,6.3z M274.3,6.3c0-0.5,0-0.9-0.1-1.3c-0.1-0.4-0.2-0.7-0.4-1c-0.2-0.3-0.4-0.5-0.6-0.7
		c-0.3-0.2-0.6-0.3-0.9-0.3c-0.4,0-0.7,0.1-0.9,0.2c-0.3,0.2-0.5,0.4-0.6,0.7c-0.2,0.3-0.3,0.6-0.4,1s-0.1,0.8-0.1,1.3
		c0,0.5,0,0.9,0.1,1.3c0.1,0.4,0.2,0.7,0.4,1c0.2,0.3,0.4,0.5,0.6,0.7c0.3,0.2,0.6,0.3,0.9,0.3c0.4,0,0.7-0.1,0.9-0.2
		s0.5-0.4,0.6-0.7c0.2-0.3,0.3-0.6,0.4-1C274.2,7.2,274.3,6.7,274.3,6.3z"/>
	<path id="XMLID_22_" class="st0" d="M283.5,6.3c0,0.7-0.1,1.3-0.2,1.9s-0.4,1-0.6,1.4c-0.3,0.4-0.6,0.7-1,0.9
		c-0.4,0.2-0.9,0.3-1.4,0.3s-1-0.1-1.4-0.3c-0.4-0.2-0.8-0.5-1-0.9s-0.5-0.9-0.6-1.4c-0.1-0.6-0.2-1.2-0.2-1.8
		c0-0.7,0.1-1.3,0.2-1.8c0.1-0.6,0.4-1,0.6-1.4c0.3-0.4,0.6-0.7,1-0.9s0.9-0.3,1.4-0.3c0.5,0,1,0.1,1.4,0.3c0.4,0.2,0.8,0.5,1,0.9
		s0.5,0.9,0.6,1.4C283.4,5,283.5,5.6,283.5,6.3z M282.2,6.3c0-0.5,0-0.9-0.1-1.3c-0.1-0.4-0.2-0.7-0.4-1c-0.2-0.3-0.4-0.5-0.6-0.7
		c-0.3-0.2-0.6-0.3-0.9-0.3c-0.4,0-0.7,0.1-0.9,0.2c-0.3,0.2-0.5,0.4-0.6,0.7c-0.2,0.3-0.3,0.6-0.4,1s-0.1,0.8-0.1,1.3
		c0,0.5,0,0.9,0.1,1.3c0.1,0.4,0.2,0.7,0.4,1c0.2,0.3,0.4,0.5,0.6,0.7c0.3,0.2,0.6,0.3,0.9,0.3c0.4,0,0.7-0.1,0.9-0.2
		s0.5-0.4,0.6-0.7c0.2-0.3,0.3-0.6,0.4-1C282.2,7.2,282.2,6.7,282.2,6.3z"/>
	<path id="XMLID_20_" class="st0" d="M295.6,10.7V6.9c0-0.7-0.1-1.1-0.3-1.4c-0.2-0.3-0.5-0.4-0.9-0.4c-0.4,0-0.7,0.1-0.9,0.4
		c-0.2,0.3-0.3,0.7-0.3,1.2v3.9H292V6.9c0-0.7-0.1-1.1-0.3-1.4c-0.2-0.3-0.5-0.4-0.9-0.4c-0.4,0-0.7,0.1-0.9,0.4
		c-0.2,0.3-0.3,0.7-0.3,1.2v3.9h-1.2V4.1h1.2v0.6c0.2-0.2,0.4-0.4,0.6-0.6c0.3-0.1,0.5-0.2,0.9-0.2c0.4,0,0.8,0.1,1.1,0.2
		s0.5,0.4,0.7,0.7c0.1-0.2,0.2-0.3,0.4-0.4c0.1-0.1,0.3-0.2,0.4-0.3s0.3-0.2,0.5-0.2c0.2,0,0.4-0.1,0.7-0.1c0.7,0,1.3,0.2,1.6,0.7
		s0.5,1.2,0.5,2.2v3.8H295.6z"/>
	<path id="XMLID_17_" class="st0" d="M303.7,10.1c0,0.5,0,0.9-0.1,1.3c-0.1,0.4-0.3,0.7-0.5,0.9c-0.2,0.3-0.5,0.4-0.9,0.6
		c-0.4,0.1-0.9,0.2-1.4,0.2l-0.4-1c0.4,0,0.8-0.1,1.1-0.2c0.3-0.1,0.5-0.2,0.7-0.3c0.2-0.2,0.3-0.4,0.3-0.6c0.1-0.2,0.1-0.5,0.1-0.9
		V10c-0.2,0.2-0.5,0.4-0.7,0.6c-0.3,0.1-0.6,0.2-0.9,0.2s-0.7-0.1-0.9-0.2s-0.6-0.3-0.8-0.6c-0.2-0.3-0.4-0.7-0.5-1.1
		c-0.1-0.5-0.2-1-0.2-1.6c0-0.6,0.1-1.1,0.2-1.5c0.1-0.4,0.3-0.8,0.6-1c0.2-0.3,0.5-0.5,0.8-0.6s0.6-0.2,0.9-0.2
		c0.3,0,0.6,0.1,0.9,0.2c0.3,0.2,0.5,0.3,0.7,0.5V4.1h1.2V10.1z M302.4,6c-0.1-0.1-0.2-0.2-0.3-0.3c-0.1-0.1-0.2-0.2-0.3-0.3
		c-0.1-0.1-0.3-0.2-0.4-0.2c-0.1-0.1-0.3-0.1-0.5-0.1c-0.4,0-0.8,0.2-1,0.5c-0.2,0.3-0.3,0.9-0.3,1.6c0,0.8,0.1,1.4,0.4,1.8
		c0.2,0.4,0.6,0.6,1,0.6c0.3,0,0.6-0.1,0.8-0.3c0.2-0.2,0.5-0.4,0.6-0.6V6z"/>
	<path id="XMLID_15_" class="st0" d="M310.8,12.1c-0.3-0.3-0.6-0.6-0.9-1c-0.3-0.4-0.5-0.8-0.7-1.2c-0.2-0.4-0.4-0.9-0.5-1.4
		c-0.1-0.5-0.2-1-0.2-1.6c0-0.6,0.1-1.1,0.2-1.6c0.1-0.5,0.3-1,0.5-1.4s0.5-0.8,0.7-1.2c0.3-0.4,0.6-0.7,0.9-1l0.6,0.6
		c-0.5,0.6-0.9,1.3-1.2,2.1c-0.3,0.7-0.4,1.6-0.4,2.6c0,0.5,0,1,0.1,1.4c0.1,0.4,0.2,0.8,0.3,1.2c0.1,0.4,0.3,0.7,0.5,1.1
		c0.2,0.3,0.4,0.6,0.7,0.9L310.8,12.1z"/>
	<path id="XMLID_13_" class="st0" d="M316.5,10.7V6.9c0-0.7-0.1-1.1-0.3-1.4c-0.2-0.3-0.5-0.4-1-0.4c-0.4,0-0.7,0.1-1,0.4
		c-0.2,0.3-0.3,0.7-0.3,1.2v3.9h-1.2V4.1h1.2v0.6c0.2-0.2,0.4-0.4,0.7-0.6c0.3-0.1,0.6-0.2,0.9-0.2c0.7,0,1.3,0.2,1.7,0.7
		s0.6,1.2,0.6,2.2v3.8H316.5z"/>
	<path id="XMLID_10_" class="st0" d="M319.6,5.5V4.3h5.2v1.3H319.6z M319.6,8.4V7.2h5.2v1.3H319.6z"/>
	<path id="XMLID_8_" class="st0" d="M326.3,10.7c0-0.6,0.1-1.2,0.3-1.7s0.4-0.9,0.7-1.3c0.3-0.4,0.6-0.7,1-1s0.8-0.6,1.2-0.8
		c0.3-0.2,0.5-0.3,0.7-0.5c0.2-0.1,0.3-0.3,0.4-0.4c0.1-0.1,0.2-0.3,0.2-0.4s0.1-0.3,0.1-0.4c0-0.4-0.1-0.6-0.4-0.8S329.9,3,329.3,3
		c-0.4,0-0.7,0.1-1.1,0.2s-0.7,0.4-0.9,0.6l-0.8-1c0.4-0.4,0.8-0.7,1.3-0.9c0.5-0.2,1-0.3,1.5-0.3c0.9,0,1.6,0.2,2.1,0.6
		c0.5,0.4,0.8,1,0.8,1.8c0,0.3,0,0.6-0.1,0.9s-0.2,0.5-0.4,0.7s-0.4,0.4-0.7,0.6c-0.3,0.2-0.6,0.4-1,0.6c-0.4,0.3-0.7,0.5-1,0.7
		c-0.3,0.2-0.5,0.4-0.7,0.6c-0.2,0.2-0.3,0.4-0.4,0.6s-0.2,0.4-0.2,0.6h4.5v1.3H326.3z"/>
	<path id="XMLID_6_" class="st0" d="M335,10.7V3.9h-1.5V3c0.4,0,0.8-0.1,1.1-0.3c0.3-0.2,0.5-0.5,0.6-0.8h1v8.8H335z"/>
	<path id="XMLID_4_" class="st0" d="M338,10.7c0-0.6,0.1-1.2,0.3-1.7s0.4-0.9,0.7-1.3c0.3-0.4,0.6-0.7,1-1s0.8-0.6,1.2-0.8
		c0.3-0.2,0.5-0.3,0.7-0.5c0.2-0.1,0.3-0.3,0.4-0.4c0.1-0.1,0.2-0.3,0.2-0.4s0.1-0.3,0.1-0.4c0-0.4-0.1-0.6-0.4-0.8S341.6,3,341,3
		c-0.4,0-0.7,0.1-1.1,0.2s-0.7,0.4-0.9,0.6l-0.8-1c0.4-0.4,0.8-0.7,1.3-0.9c0.5-0.2,1-0.3,1.5-0.3c0.9,0,1.6,0.2,2.1,0.6
		c0.5,0.4,0.8,1,0.8,1.8c0,0.3,0,0.6-0.1,0.9s-0.2,0.5-0.4,0.7s-0.4,0.4-0.7,0.6c-0.3,0.2-0.6,0.4-1,0.6c-0.4,0.3-0.7,0.5-1,0.7
		c-0.3,0.2-0.5,0.4-0.7,0.6c-0.2,0.2-0.3,0.4-0.4,0.6s-0.2,0.4-0.2,0.6h4.5v1.3H338z"/>
	<path id="XMLID_2_" class="st0" d="M348.5,6.8c0,0.6-0.1,1.1-0.2,1.6c-0.1,0.5-0.3,1-0.5,1.4c-0.2,0.4-0.5,0.8-0.8,1.2
		c-0.3,0.4-0.6,0.7-0.9,1l-0.6-0.6c0.5-0.6,0.9-1.3,1.2-2.1c0.3-0.7,0.4-1.6,0.4-2.6c0-0.5,0-1-0.1-1.4c-0.1-0.4-0.2-0.8-0.3-1.2
		c-0.1-0.4-0.3-0.7-0.5-1.1c-0.2-0.3-0.4-0.7-0.7-1l0.6-0.6c0.3,0.3,0.6,0.6,0.9,1c0.3,0.4,0.5,0.8,0.8,1.2c0.2,0.4,0.4,0.9,0.5,1.4
		S348.5,6.2,348.5,6.8z"/>
</g>
</svg>
