<!-- Generator: Adobe Illustrator 22.1.0, SVG Export Plug-In  -->
<svg version="1.1"
	 xmlns="http://www.w3.org/2000/svg" xmlns:xlink="http://www.w3.org/1999/xlink" xmlns:a="http://ns.adobe.com/AdobeSVGViewerExtensions/3.0/"
	 x="0px" y="0px" width="105.6px" height="285.6px" viewBox="0 0 105.6 285.6" style="enable-background:new 0 0 105.6 285.6;"
	 xml:space="preserve">
<style type="text/css">
	.st0{fill:#236092;}
</style>
<defs>
</defs>
<g id="XMLID_29_">
	<path id="XMLID_43_" class="st0" d="M21.5,12.6c0,2.1-0.3,3.8-1,5.3s-1.6,2.7-2.7,3.6c-1.1,0.9-2.4,1.6-3.9,2.1s-2.9,0.7-4.4,0.7
		H2.4V0.9h7.4c1.7,0,3.2,0.2,4.7,0.6c1.4,0.4,2.7,1.1,3.7,2s1.9,2.1,2.5,3.6C21.2,8.6,21.5,10.4,21.5,12.6z M16.6,12.6
		c0-2.4-0.6-4.2-1.7-5.4C13.9,6,12.1,5.4,9.6,5.4H7.1v14.3h2.3c1.2,0,2.3-0.2,3.2-0.5c0.9-0.3,1.7-0.8,2.2-1.5
		c0.6-0.6,1-1.4,1.3-2.3S16.6,13.6,16.6,12.6z"/>
	<path id="XMLID_40_" class="st0" d="M40.6,15.5c0,1.3-0.2,2.6-0.6,3.7c-0.4,1.1-1,2.1-1.7,2.9c-0.7,0.8-1.6,1.4-2.5,1.9
		c-1,0.4-2.1,0.7-3.2,0.7c-1.1,0-2.2-0.2-3.2-0.7c-1-0.4-1.8-1.1-2.5-1.9c-0.7-0.8-1.3-1.8-1.7-2.9c-0.4-1.1-0.6-2.4-0.6-3.7
		s0.2-2.6,0.6-3.7s1-2.1,1.7-2.9c0.7-0.8,1.6-1.4,2.5-1.9s2-0.7,3.2-0.7c1.1,0,2.2,0.2,3.2,0.7c1,0.4,1.8,1.1,2.5,1.9
		c0.7,0.8,1.3,1.8,1.7,2.9S40.6,14.2,40.6,15.5z M35.8,15.5c0-1.3-0.3-2.5-0.8-3.4c-0.5-0.9-1.4-1.4-2.5-1.4s-2,0.4-2.5,1.3
		c-0.5,0.9-0.8,2-0.8,3.4s0.3,2.5,0.8,3.4c0.5,0.9,1.4,1.3,2.5,1.3c0.6,0,1.1-0.1,1.5-0.4c0.4-0.3,0.8-0.6,1-1s0.5-0.9,0.6-1.5
		C35.8,16.7,35.8,16.1,35.8,15.5z"/>
	<path id="XMLID_38_" class="st0" d="M57.9,19.2c0,1-0.2,1.9-0.6,2.6c-0.4,0.7-0.9,1.3-1.6,1.7c-0.7,0.4-1.4,0.7-2.3,0.9
		c-0.9,0.2-1.8,0.3-2.8,0.3c-1.4,0-2.8-0.2-4.1-0.6c-1.3-0.4-2.4-0.9-3.4-1.5l1.6-3.5c0.9,0.5,1.9,0.9,2.9,1.2
		c1,0.3,2.1,0.4,3.2,0.4c0.9,0,1.5-0.1,1.9-0.3c0.3-0.2,0.5-0.6,0.5-1c0-0.4-0.2-0.7-0.6-1c-0.4-0.2-1.1-0.5-2-0.8
		c-1.1-0.3-2-0.6-2.9-1c-0.9-0.3-1.6-0.7-2.2-1.1c-0.6-0.4-1.1-1-1.4-1.6c-0.3-0.6-0.5-1.4-0.5-2.3c0-0.9,0.2-1.7,0.5-2.4
		c0.3-0.7,0.8-1.2,1.5-1.6c0.6-0.4,1.4-0.7,2.2-0.9c0.9-0.2,1.8-0.3,2.9-0.3c1.1,0,2.3,0.2,3.4,0.5c1.1,0.3,2.2,0.7,3.1,1.2
		l-1.5,3.6c-0.9-0.5-1.8-0.8-2.7-1.1s-1.7-0.4-2.5-0.4c-0.9,0-1.6,0.1-1.9,0.3c-0.3,0.2-0.5,0.5-0.5,0.9c0,0.2,0,0.3,0.1,0.5
		c0.1,0.1,0.3,0.3,0.5,0.4c0.3,0.1,0.6,0.3,1.1,0.5c0.5,0.2,1.1,0.4,1.9,0.6c0.8,0.3,1.5,0.5,2.3,0.8c0.7,0.3,1.4,0.6,1.9,1.1
		c0.5,0.4,1,0.9,1.3,1.6C57.7,17.6,57.9,18.3,57.9,19.2z"/>
	<path id="XMLID_35_" class="st0" d="M67.2,2.6c0,0.7-0.3,1.3-0.8,1.9c-0.5,0.5-1.2,0.8-1.9,0.8c-0.7,0-1.3-0.3-1.9-0.8
		c-0.5-0.5-0.8-1.1-0.8-1.9c0-0.7,0.3-1.3,0.8-1.9C63.2,0.3,63.8,0,64.5,0c0.7,0,1.3,0.3,1.9,0.8C66.9,1.3,67.2,1.9,67.2,2.6z
		 M62.2,24.3V6.7h4.7v17.6H62.2z"/>
	<path id="XMLID_33_" class="st0" d="M82.2,24.3v-9.5c0-1.6-0.3-2.6-0.8-3.2c-0.5-0.6-1.3-0.9-2.2-0.9c-1,0-1.7,0.3-2.2,0.9
		c-0.5,0.6-0.8,1.6-0.8,3.1v9.6h-4.7V6.7h4.7v1.2c0.4-0.4,1-0.8,1.7-1.1c0.7-0.3,1.5-0.5,2.5-0.5c2.3,0,3.9,0.7,5,2.2
		c1.1,1.4,1.6,3.4,1.6,5.9v9.9H82.2z"/>
	<path id="XMLID_30_" class="st0" d="M105.6,21.3c0,1.5-0.1,2.7-0.3,3.8c-0.2,1.1-0.6,2-1.2,2.8s-1.3,1.4-2.3,1.9
		c-1,0.5-2.3,0.8-3.8,0.9l-1.7-3.5c0.9-0.1,1.6-0.3,2.2-0.5c0.6-0.2,1.1-0.4,1.4-0.7c0.4-0.3,0.6-0.7,0.7-1.2c0.1-0.5,0.2-1,0.2-1.7
		c-0.5,0.4-1,0.7-1.6,1c-0.6,0.3-1.3,0.5-2.2,0.5c-0.9,0-1.8-0.2-2.7-0.5c-0.8-0.4-1.6-0.9-2.2-1.7c-0.6-0.8-1.1-1.7-1.5-2.9
		c-0.4-1.2-0.5-2.6-0.5-4.2c0-1.3,0.2-2.5,0.5-3.6s0.7-2,1.3-2.8c0.6-0.8,1.3-1.4,2.2-1.8c0.9-0.4,1.8-0.7,2.9-0.7
		c0.8,0,1.5,0.1,2.1,0.4c0.6,0.3,1.2,0.6,1.6,1v-1h4.7V21.3z M101,12.2c-0.7-1-1.8-1.5-3.1-1.5c-1.8,0-2.8,1.5-2.8,4.5
		c0,1.8,0.3,3.1,0.8,3.9c0.6,0.8,1.3,1.2,2.2,1.2c0.7,0,1.3-0.1,1.7-0.4c0.4-0.3,0.8-0.6,1.1-1.1V12.2z"/>
</g>
<g id="XMLID_1_">
	<path id="XMLID_27_" class="st0" d="M3,276.2L2,275.6l0.1,1.1H1.3l0.1-1.1l-0.9,0.6L0,275.5l1.1-0.5L0,274.5l0.4-0.7l0.9,0.6
		l-0.1-1.1h0.8L2,274.5l0.9-0.6l0.4,0.7L2.3,275l1.1,0.5L3,276.2z"/>
	<path id="XMLID_25_" class="st0" d="M5,283.1v-9.3h1.9v9.3H5z"/>
	<path id="XMLID_23_" class="st0" d="M12.4,275.1c-0.1,0-0.2,0-0.3,0c-0.3,0-0.5,0-0.5,0.1c-0.1,0.1-0.1,0.2-0.1,0.4v0.6h1.2v1.7
		h-1.2v5.2H9.5v-5.2H8.7v-1.7h0.8v-0.8c0-0.7,0.2-1.1,0.5-1.4c0.3-0.3,0.8-0.4,1.5-0.4c0.5,0,0.8,0.1,1.2,0.2v1.5
		C12.6,275.2,12.5,275.1,12.4,275.1z"/>
	<path id="XMLID_21_" class="st0" d="M24.1,283.1l-3.4-5c-0.1-0.2-0.2-0.4-0.4-0.6S20,277.2,20,277c0,0.1,0,0.2,0,0.4
		c0,0.2,0,0.4,0,0.6s0,0.4,0,0.6c0,0.2,0,0.4,0,0.5v4.1h-1.8v-9.3H20l3.3,4.9c0.1,0.2,0.2,0.4,0.4,0.6s0.2,0.4,0.3,0.5
		c0-0.1,0-0.2,0-0.4s0-0.4,0-0.6s0-0.4,0-0.6c0-0.2,0-0.4,0-0.5v-3.9h1.8v9.3H24.1z"/>
	<path id="XMLID_18_" class="st0" d="M33.5,279.7c0,0.1,0,0.2,0,0.3c0,0.1,0,0.2,0,0.2h-4.2c0,0.2,0.1,0.4,0.2,0.6s0.2,0.3,0.3,0.4
		c0.1,0.1,0.3,0.2,0.4,0.2s0.3,0.1,0.5,0.1c0.3,0,0.5,0,0.7-0.1s0.4-0.2,0.5-0.4l1.3,1.1c-0.3,0.4-0.7,0.6-1.1,0.8
		c-0.5,0.2-0.9,0.3-1.4,0.3c-0.5,0-1-0.1-1.4-0.3c-0.4-0.2-0.7-0.4-1-0.7c-0.3-0.3-0.5-0.7-0.7-1.1c-0.2-0.4-0.2-0.9-0.2-1.5
		c0-0.5,0.1-1,0.2-1.5c0.2-0.4,0.4-0.8,0.7-1.1c0.3-0.3,0.6-0.6,1-0.7c0.4-0.2,0.8-0.3,1.2-0.3c0.5,0,0.9,0.1,1.2,0.3
		s0.7,0.4,0.9,0.8c0.2,0.3,0.4,0.7,0.6,1.2C33.5,278.7,33.5,279.2,33.5,279.7z M31.7,278.9c0-0.2-0.1-0.3-0.1-0.5s-0.1-0.3-0.2-0.4
		c-0.1-0.1-0.2-0.2-0.4-0.3c-0.2-0.1-0.3-0.1-0.5-0.1c-0.3,0-0.6,0.1-0.8,0.4c-0.2,0.2-0.3,0.5-0.3,0.9H31.7z"/>
	<path id="XMLID_16_" class="st0" d="M40.3,282.4c-0.2,0.2-0.4,0.3-0.6,0.5c-0.2,0.1-0.5,0.2-0.8,0.3s-0.6,0.1-0.9,0.1
		c-0.5,0-0.9-0.1-1.3-0.3c-0.4-0.2-0.7-0.4-1-0.7s-0.5-0.7-0.7-1.1c-0.2-0.4-0.3-0.9-0.3-1.5c0-0.5,0.1-1,0.3-1.5
		c0.2-0.4,0.4-0.8,0.7-1.1c0.3-0.3,0.7-0.6,1.1-0.7c0.4-0.2,0.9-0.3,1.3-0.3c0.7,0,1.2,0.1,1.7,0.4c0.4,0.3,0.8,0.6,1.1,1.1
		l-1.2,1.2c-0.2-0.3-0.4-0.5-0.7-0.7c-0.2-0.2-0.6-0.3-0.9-0.3c-0.4,0-0.8,0.2-1.1,0.5s-0.4,0.8-0.4,1.4c0,0.6,0.1,1,0.4,1.4
		c0.3,0.3,0.6,0.5,1.1,0.5c0.4,0,0.7-0.1,0.9-0.2c0.2-0.2,0.5-0.4,0.7-0.7l1.2,1.1C40.6,282,40.4,282.2,40.3,282.4z"/>
	<path id="XMLID_13_" class="st0" d="M47.9,279.7c0,0.1,0,0.2,0,0.3c0,0.1,0,0.2,0,0.2h-4.2c0,0.2,0.1,0.4,0.2,0.6s0.2,0.3,0.3,0.4
		c0.1,0.1,0.3,0.2,0.4,0.2s0.3,0.1,0.5,0.1c0.3,0,0.5,0,0.7-0.1s0.4-0.2,0.5-0.4l1.3,1.1c-0.3,0.4-0.7,0.6-1.1,0.8
		c-0.5,0.2-0.9,0.3-1.4,0.3c-0.5,0-1-0.1-1.4-0.3c-0.4-0.2-0.7-0.4-1-0.7c-0.3-0.3-0.5-0.7-0.7-1.1c-0.2-0.4-0.2-0.9-0.2-1.5
		c0-0.5,0.1-1,0.2-1.5c0.2-0.4,0.4-0.8,0.7-1.1c0.3-0.3,0.6-0.6,1-0.7c0.4-0.2,0.8-0.3,1.2-0.3c0.5,0,0.9,0.1,1.2,0.3
		s0.7,0.4,0.9,0.8c0.2,0.3,0.4,0.7,0.6,1.2C47.8,278.7,47.9,279.2,47.9,279.7z M46.1,278.9c0-0.2-0.1-0.3-0.1-0.5s-0.1-0.3-0.2-0.4
		c-0.1-0.1-0.2-0.2-0.4-0.3c-0.2-0.1-0.3-0.1-0.5-0.1c-0.3,0-0.6,0.1-0.8,0.4c-0.2,0.2-0.3,0.5-0.3,0.9H46.1z"/>
	<path id="XMLID_11_" class="st0" d="M54.9,281.1c0,0.4-0.1,0.7-0.2,1c-0.2,0.3-0.4,0.5-0.6,0.7s-0.6,0.3-0.9,0.4
		c-0.3,0.1-0.7,0.1-1.1,0.1c-0.6,0-1.1-0.1-1.6-0.2c-0.5-0.1-1-0.3-1.3-0.6l0.6-1.4c0.4,0.2,0.8,0.4,1.2,0.5
		c0.4,0.1,0.8,0.2,1.3,0.2c0.4,0,0.6,0,0.7-0.1c0.1-0.1,0.2-0.2,0.2-0.4c0-0.2-0.1-0.3-0.2-0.4c-0.1-0.1-0.4-0.2-0.8-0.3
		c-0.4-0.1-0.8-0.2-1.1-0.4c-0.3-0.1-0.6-0.3-0.9-0.4c-0.2-0.2-0.4-0.4-0.6-0.6c-0.1-0.2-0.2-0.6-0.2-0.9c0-0.4,0.1-0.7,0.2-0.9
		c0.1-0.3,0.3-0.5,0.6-0.6c0.2-0.2,0.5-0.3,0.9-0.4s0.7-0.1,1.1-0.1c0.4,0,0.9,0.1,1.3,0.2c0.5,0.1,0.9,0.3,1.2,0.5l-0.6,1.4
		c-0.3-0.2-0.7-0.3-1.1-0.4c-0.4-0.1-0.7-0.1-1-0.1c-0.4,0-0.6,0-0.8,0.1c-0.1,0.1-0.2,0.2-0.2,0.3c0,0.1,0,0.1,0.1,0.2
		s0.1,0.1,0.2,0.2c0.1,0.1,0.2,0.1,0.4,0.2s0.4,0.2,0.8,0.3c0.3,0.1,0.6,0.2,0.9,0.3c0.3,0.1,0.5,0.3,0.7,0.4
		c0.2,0.2,0.4,0.4,0.5,0.6S54.9,280.8,54.9,281.1z"/>
	<path id="XMLID_9_" class="st0" d="M62,281.1c0,0.4-0.1,0.7-0.2,1c-0.2,0.3-0.4,0.5-0.6,0.7s-0.6,0.3-0.9,0.4
		c-0.3,0.1-0.7,0.1-1.1,0.1c-0.6,0-1.1-0.1-1.6-0.2c-0.5-0.1-1-0.3-1.3-0.6l0.6-1.4c0.4,0.2,0.8,0.4,1.2,0.5
		c0.4,0.1,0.8,0.2,1.3,0.2c0.4,0,0.6,0,0.7-0.1c0.1-0.1,0.2-0.2,0.2-0.4c0-0.2-0.1-0.3-0.2-0.4c-0.1-0.1-0.4-0.2-0.8-0.3
		c-0.4-0.1-0.8-0.2-1.1-0.4c-0.3-0.1-0.6-0.3-0.9-0.4c-0.2-0.2-0.4-0.4-0.6-0.6c-0.1-0.2-0.2-0.6-0.2-0.9c0-0.4,0.1-0.7,0.2-0.9
		c0.1-0.3,0.3-0.5,0.6-0.6c0.2-0.2,0.5-0.3,0.9-0.4s0.7-0.1,1.1-0.1c0.4,0,0.9,0.1,1.3,0.2c0.5,0.1,0.9,0.3,1.2,0.5l-0.6,1.4
		c-0.3-0.2-0.7-0.3-1.1-0.4c-0.4-0.1-0.7-0.1-1-0.1c-0.4,0-0.6,0-0.8,0.1c-0.1,0.1-0.2,0.2-0.2,0.3c0,0.1,0,0.1,0.1,0.2
		s0.1,0.1,0.2,0.2c0.1,0.1,0.2,0.1,0.4,0.2s0.4,0.2,0.8,0.3c0.3,0.1,0.6,0.2,0.9,0.3c0.3,0.1,0.5,0.3,0.7,0.4
		c0.2,0.2,0.4,0.4,0.5,0.6S62,280.8,62,281.1z"/>
	<path id="XMLID_6_" class="st0" d="M67.5,283.1v-0.5c-0.2,0.2-0.4,0.3-0.7,0.4c-0.3,0.1-0.6,0.2-0.9,0.2c-0.3,0-0.6-0.1-1-0.2
		c-0.3-0.1-0.6-0.3-0.8-0.5c-0.2-0.2-0.4-0.5-0.6-0.8c-0.2-0.3-0.2-0.7-0.2-1.1c0-0.4,0.1-0.7,0.2-1c0.1-0.3,0.3-0.5,0.6-0.7
		c0.3-0.2,0.6-0.3,0.9-0.4c0.3-0.1,0.7-0.1,1.1-0.1c0.3,0,0.6,0,0.8,0.1c0.2,0.1,0.4,0.1,0.5,0.2v-0.3c0-0.2-0.1-0.5-0.2-0.6
		s-0.4-0.3-0.8-0.3c-0.2,0-0.4,0-0.6,0s-0.3,0-0.5,0.1c-0.1,0-0.3,0.1-0.4,0.1c-0.1,0.1-0.3,0.1-0.5,0.2l-0.7-1.3
		c0.2-0.1,0.4-0.2,0.6-0.3c0.2-0.1,0.4-0.2,0.6-0.2c0.2-0.1,0.4-0.1,0.7-0.1c0.2,0,0.5,0,0.8,0c0.4,0,0.8,0.1,1.2,0.2
		c0.3,0.1,0.6,0.3,0.9,0.5s0.4,0.5,0.6,0.8c0.1,0.3,0.2,0.7,0.2,1v4.7H67.5z M67.5,280.2c-0.2-0.1-0.3-0.2-0.5-0.2s-0.4-0.1-0.8-0.1
		c-0.3,0-0.6,0.1-0.8,0.2c-0.2,0.1-0.3,0.4-0.3,0.6c0,0.2,0.1,0.5,0.2,0.6c0.2,0.2,0.4,0.3,0.8,0.3c0.3,0,0.6-0.1,0.8-0.2
		s0.4-0.3,0.5-0.4V280.2z"/>
	<path id="XMLID_4_" class="st0" d="M75.2,278.3c-0.2-0.1-0.3-0.2-0.5-0.3c-0.2-0.1-0.4-0.1-0.6-0.1c-0.2,0-0.3,0-0.5,0.1
		c-0.1,0-0.3,0.1-0.4,0.2c-0.1,0.1-0.2,0.3-0.2,0.5c-0.1,0.2-0.1,0.4-0.1,0.7v3.8h-1.8v-6.9h1.8v0.5c0.2-0.2,0.4-0.3,0.6-0.4
		c0.2-0.1,0.5-0.2,0.8-0.2c0.3,0,0.6,0.1,0.8,0.2c0.2,0.1,0.4,0.2,0.5,0.3L75.2,278.3z"/>
	<path id="XMLID_2_" class="st0" d="M79.8,285.6H78l0.9-2.4l-2.7-6.9h2l1.1,3.3c0.1,0.3,0.2,0.5,0.3,0.8s0.1,0.5,0.2,0.7
		c0-0.2,0.1-0.4,0.2-0.7s0.2-0.6,0.3-0.8l1.1-3.3h2L79.8,285.6z"/>
</g>
</svg>
