<!-- Generator: Adobe Illustrator 22.1.0, SVG Export Plug-In  -->
<svg version="1.1"
	 xmlns="http://www.w3.org/2000/svg" xmlns:xlink="http://www.w3.org/1999/xlink" xmlns:a="http://ns.adobe.com/AdobeSVGViewerExtensions/3.0/"
	 x="0px" y="0px" width="398.6px" height="324.1px" viewBox="0 0 398.6 324.1" style="enable-background:new 0 0 398.6 324.1;"
	 xml:space="preserve">
<style type="text/css">
	.st0{fill:url(#XMLID_606_);stroke:#662D91;stroke-width:1.0222;stroke-miterlimit:10;}
	.st1{fill:#532D6D;}
	.st2{fill:#266093;}
	.st3{fill:#231F20;}
	.st4{fill:#414142;}
	.st5{fill:none;stroke:#BDBEC1;stroke-width:0.1604;}
	.st6{fill:none;stroke:#FDC72E;stroke-width:0.802;}
	.st7{fill:#FDC72E;}
	.st8{fill:none;stroke:#FDC72E;stroke-width:0.802;stroke-dasharray:1.6104,1.6104;}
	.st9{fill:none;stroke:#FDC72E;stroke-width:0.802;stroke-dasharray:1.62,1.62;}
	.st10{fill:none;stroke:#FDC72E;stroke-width:0.802;stroke-dasharray:1.6256,1.6256;}
	.st11{fill:#595A5C;}
	.st12{fill:none;stroke:#BDBEC1;stroke-width:0.1724;}
	.st13{fill:url(#XMLID_607_);}
	.st14{fill:url(#XMLID_608_);}
	.st15{fill:url(#XMLID_609_);}
	.st16{fill:#818385;}
	.st17{fill:none;stroke:#532D6D;stroke-width:1.4288;}
	.st18{fill:url(#XMLID_610_);stroke:#662D91;stroke-width:1.0222;stroke-miterlimit:10;}
	.st19{fill:url(#XMLID_611_);}
	.st20{fill:url(#XMLID_612_);}
	.st21{fill:url(#XMLID_613_);}
</style>
<defs>
</defs>
<linearGradient id="XMLID_606_" gradientUnits="userSpaceOnUse" x1="0.7144" y1="286.5066" x2="397.892" y2="286.5066">
	<stop  offset="0" style="stop-color:#FFFFFF"/>
	<stop  offset="1" style="stop-color:#D1D3D4"/>
</linearGradient>
<rect id="XMLID_605_" x="0.7" y="249.4" class="st0" width="397.2" height="74.1"/>
<g id="XMLID_555_">
	<polygon id="XMLID_604_" class="st1" points="18.9,285.4 14.1,277 11.7,279.8 11.7,285.4 8,285.4 8,266.8 11.7,266.8 11.7,274.9 
		18.2,266.8 22.6,266.8 16.5,274.2 23.1,285.4 	"/>
	<path id="XMLID_601_" class="st1" d="M48.3,270h-3.4v5.1h3.4c1.6,0,2.7-1,2.7-2.5C51,271.1,49.9,270,48.3,270 M48.5,278.4h-3.6v7
		h-3.6v-18.6h7.2c3.8,0,6.1,2.6,6.1,5.8C54.6,275.8,52.3,278.4,48.5,278.4"/>
	<path id="XMLID_598_" class="st1" d="M64.7,270h-3.4v4.9h3.4c1.6,0,2.6-1,2.6-2.5C67.4,271.1,66.3,270,64.7,270 M67.6,285.4
		l-3.6-7.4h-2.6v7.4h-3.6v-18.6H65c3.8,0,6,2.6,6,5.7c0,2.6-1.6,4.2-3.4,4.9l4.2,8H67.6z"/>
	<path id="XMLID_595_" class="st1" d="M81,272.3l-2.4,6.8h4.6L81,272.3z M85.4,285.4l-1.1-3.3h-6.6l-1.1,3.3h-3.8l6.8-18.6h2.9
		l6.8,18.6H85.4z"/>
	<path id="XMLID_592_" class="st1" d="M100.6,271.2c-0.6-0.8-1.5-1.2-2.7-1.2h-2.7v12.1h2.7c1.3,0,2.1-0.4,2.7-1.2
		c0.7-0.8,0.8-2.2,0.8-5C101.4,273.2,101.3,272,100.6,271.2 M103.1,283.6c-1.2,1.2-3,1.8-4.9,1.8h-6.7v-18.6h6.7
		c1.9,0,3.7,0.5,4.9,1.8c2.1,2.1,1.9,4.7,1.9,7.5C105,278.8,105.2,281.6,103.1,283.6"/>
	<rect id="XMLID_591_" x="108.7" y="266.8" class="st1" width="3.6" height="18.6"/>
	<polygon id="XMLID_590_" class="st1" points="116.7,285.4 116.7,266.8 120.3,266.8 120.3,282.2 128.8,282.2 128.8,285.4 	"/>
	<polygon id="XMLID_589_" class="st2" points="7.6,288.1 8.8,288.1 8.8,299.2 16.6,299.2 16.6,300.3 7.6,300.3 	"/>
	<path id="XMLID_586_" class="st2" d="M25.8,295.3c-0.4-2.2-2-3-3.7-3c-1.6,0-3.4,0.8-3.7,3H25.8z M26.8,297.5
		c-0.5,1.6-1.8,3.1-4.8,3.1c-3.6,0-4.8-2.5-4.8-4.7c0-2.5,1.5-4.7,4.8-4.7c2.3,0,5,1,5,5h-8.6c0,1.8,1.3,3.3,3.6,3.3
		c2.1,0,3.1-0.7,3.5-2.1H26.8z"/>
	<polygon id="XMLID_585_" class="st2" points="35.9,291.5 37.2,291.5 33.1,300.3 31.7,300.3 27.5,291.5 28.9,291.5 32.4,298.9 	"/>
	<path id="XMLID_582_" class="st2" d="M46.4,295.3c-0.4-2.2-2-3-3.7-3c-1.6,0-3.4,0.8-3.7,3H46.4z M47.4,297.5
		c-0.5,1.6-1.8,3.1-4.8,3.1c-3.6,0-4.8-2.5-4.8-4.7c0-2.5,1.5-4.7,4.8-4.7c2.3,0,5,1,5,5h-8.6c0,1.8,1.3,3.3,3.6,3.3
		c2.1,0,3.1-0.7,3.5-2.1H47.4z"/>
	<path id="XMLID_581_" class="st2" d="M50,288.7h1.3v2.8h2.5v1h-2.5v5.9c0,0.8,0.2,1.1,1.3,1.1c0.6,0,1-0.1,1.2-0.1v1.1
		c-0.5,0.1-1,0.1-1.4,0.1c-2,0-2.4-0.8-2.4-2.2v-5.9h-1.9v-1H50V288.7z"/>
	<path id="XMLID_578_" class="st2" d="M55.2,291.5h1.3v8.9h-1.3V291.5z M55.2,288h1.3v1.9h-1.3V288z"/>
	<path id="XMLID_577_" class="st2" d="M58.3,291.5h1.3v2h0c0.5-1.1,1.3-2.3,3.4-2.3c0.4,0,0.6,0,0.8,0.1v1.3
		c-0.4-0.1-0.8-0.1-1.2-0.1c-1.4,0-3,0.8-3,3.4v4.5h-1.3V291.5z"/>
	<path id="XMLID_574_" class="st2" d="M71.7,295.6c-0.6,0.4-1.4,0.4-3.9,0.7c-1.5,0.1-2.3,0.6-2.3,1.6c0,1.4,1.2,1.8,2.6,1.8
		c1.7,0,3.7-0.9,3.7-2.8V295.6z M64.6,294.2c0.2-1.9,1.2-3,4.2-3c3,0,4.1,0.9,4.1,2.6v4.6c0,0.7,0.2,1,0.7,1c0.2,0,0.4,0,0.7,0v0.9
		c-0.3,0.1-0.6,0.1-1.1,0.1c-1.3,0-1.3-0.9-1.4-1.6h0c-0.4,0.6-1.2,1.8-4.2,1.8c-1.5,0-3.5-0.7-3.5-2.7c0-2.4,2.5-2.7,4.4-2.8
		c2.8-0.2,3.1-0.3,3.1-1.2c0-1.3-0.9-1.7-2.9-1.7c-2,0-3,0.5-3,1.9H64.6z"/>
	<path id="XMLID_573_" class="st2" d="M84.1,297.2c-0.2,1.2-1.3,3.5-4.5,3.5c-3.2,0-5-1.9-5-4.7c0-2.7,1.6-4.7,5-4.7
		c3,0,4.2,1.9,4.4,3.2h-1.3c-0.4-1.5-1.6-2.1-3.2-2.1c-2.5,0-3.7,1.6-3.7,3.7c0,2.2,1.3,3.7,3.7,3.7c1.9,0,2.9-1,3.2-2.4H84.1z"/>
	<path id="XMLID_570_" class="st2" d="M93.8,295.3c-0.4-2.2-2-3-3.7-3c-1.6,0-3.4,0.8-3.7,3H93.8z M94.9,297.5
		c-0.5,1.6-1.8,3.1-4.8,3.1c-3.6,0-4.8-2.5-4.8-4.7c0-2.5,1.5-4.7,4.8-4.7c2.3,0,5,1,5,5h-8.6c0,1.8,1.3,3.3,3.6,3.3
		c2.1,0,3.1-0.7,3.5-2.1H94.9z"/>
	<path id="XMLID_569_" class="st2" d="M97.5,288.7h1.3v2.8h2.5v1h-2.5v5.9c0,0.8,0.2,1.1,1.3,1.1c0.6,0,1-0.1,1.2-0.1v1.1
		c-0.5,0.1-1,0.1-1.4,0.1c-2,0-2.4-0.8-2.4-2.2v-5.9h-1.9v-1h1.9V288.7z"/>
	<path id="XMLID_566_" class="st2" d="M109.7,295.6c-0.6,0.4-1.4,0.4-3.9,0.7c-1.5,0.1-2.3,0.6-2.3,1.6c0,1.4,1.2,1.8,2.6,1.8
		c1.7,0,3.7-0.9,3.7-2.8V295.6z M102.6,294.2c0.2-1.9,1.2-3,4.2-3c3,0,4.1,0.9,4.1,2.6v4.6c0,0.7,0.2,1,0.7,1c0.2,0,0.4,0,0.7,0v0.9
		c-0.3,0.1-0.6,0.1-1.1,0.1c-1.3,0-1.3-0.9-1.4-1.6h0c-0.4,0.6-1.2,1.8-4.2,1.8c-1.5,0-3.5-0.7-3.5-2.7c0-2.4,2.5-2.7,4.4-2.8
		c2.8-0.2,3.1-0.3,3.1-1.2c0-1.3-0.9-1.7-2.9-1.7c-2,0-3,0.5-3,1.9H102.6z"/>
	<path id="XMLID_565_" class="st2" d="M126.9,294.7c0-1.6-0.8-2.5-2.6-2.5c-1.9,0-3,1.1-3,2.9v5.2H120v-6c0-1.1-0.8-2.1-2.5-2.1
		c-1.8,0-3.1,1-3.1,3.1v5h-1.3v-8.9h1.3v1.6h0c0.5-0.9,1.5-1.9,3.5-1.9c2,0,2.9,1.1,3.2,1.9c0.4-0.9,1.7-1.9,3.5-1.9
		c2.5,0,3.7,1.3,3.7,3.1v6.1h-1.3V294.7z"/>
	<path id="XMLID_560_" class="st3" d="M125.3,269.8c0.4,0,0.7,0,0.7-0.4c0-0.4-0.3-0.4-0.6-0.4h-0.6v0.9H125.3z M124.4,268.5h1.1
		c0.6,0,1,0.3,1,0.8c0,0.5-0.3,0.7-0.8,0.8l0.8,1.2h-0.4l-0.8-1.2h-0.5v1.2h-0.4V268.5z M127.4,269.9c0-1.1-0.9-2-2-2
		c-1.1,0-2,0.9-2,2c0,1.1,0.9,2,2,2C126.5,271.9,127.4,271,127.4,269.9 M125.4,267.5c1.3,0,2.4,1.1,2.4,2.4c0,1.3-1.1,2.4-2.4,2.4
		c-1.3,0-2.4-1.1-2.4-2.4C122.9,268.6,124,267.5,125.4,267.5"/>
	<polygon id="XMLID_559_" class="st2" points="25.5,285.4 37.7,285.4 37.7,282.2 29.1,282.2 29.1,278.4 25.5,278.4 	"/>
	<path id="XMLID_558_" class="st1" d="M23.9,276.9c0,0,1.5-3.4,7.4-3.4s9.1-2,9.1-2s-4.1,4.3-8.2,4.3
		C28,275.8,25.6,275.8,23.9,276.9"/>
	<path id="XMLID_557_" class="st2" d="M22.2,280.1c0,0,1.5-3.4,7.4-3.4c5.8,0,9.1-2,9.1-2s-4.1,4.3-8.2,4.3S23.9,279,22.2,280.1"/>
	<polygon id="XMLID_556_" class="st1" points="25.5,275.1 29.1,275.1 29.1,270 37.7,270 37.7,266.8 25.5,266.8 	"/>
</g>
<g id="XMLID_392_">
	<path id="XMLID_553_" class="st4" d="M149.4,275.1v-5c0-0.9-0.2-1.6-0.5-2s-0.8-0.6-1.5-0.6c-0.6,0-1.1,0.2-1.5,0.6
		c-0.4,0.4-0.6,1.1-0.6,2.1v5H144v-11.3l1.2-0.7l0,4.4c0.3-0.4,0.6-0.7,1-0.9c0.4-0.2,0.9-0.3,1.4-0.3c0.5,0,0.9,0.1,1.2,0.2
		c0.4,0.1,0.7,0.3,1,0.6c0.3,0.3,0.5,0.7,0.6,1.1c0.1,0.4,0.2,1,0.2,1.6v5.2H149.4z"/>
	<path id="XMLID_550_" class="st4" d="M157.8,275.1v-1c-0.3,0.3-0.7,0.6-1.1,0.9s-1,0.4-1.6,0.4c-0.3,0-0.7,0-1-0.1
		c-0.3-0.1-0.6-0.2-0.9-0.5c-0.3-0.2-0.5-0.5-0.6-0.8c-0.2-0.3-0.2-0.8-0.2-1.3c0-0.5,0.1-0.9,0.3-1.2c0.2-0.3,0.4-0.6,0.7-0.9
		c0.3-0.2,0.7-0.4,1-0.5c0.4-0.1,0.8-0.2,1.2-0.2c0.4,0,0.8,0,1.2,0.1c0.4,0.1,0.7,0.2,0.9,0.4v-1c0-1.3-0.6-1.9-1.9-1.9
		c-0.5,0-0.9,0.1-1.2,0.2c-0.4,0.1-0.7,0.3-1.1,0.5l-0.5-1c0.4-0.2,0.8-0.4,1.3-0.5c0.5-0.1,1-0.2,1.6-0.2c0.9,0,1.7,0.2,2.2,0.6
		c0.5,0.4,0.8,1.1,0.8,2.1v6H157.8z M157.8,271.3c-0.3-0.2-0.6-0.3-0.9-0.4c-0.3-0.1-0.8-0.1-1.3-0.1c-0.6,0-1.1,0.1-1.5,0.4
		c-0.4,0.3-0.5,0.7-0.5,1.3c0,0.6,0.2,1.1,0.5,1.4c0.3,0.3,0.7,0.4,1.3,0.4c0.6,0,1-0.1,1.5-0.4c0.4-0.3,0.8-0.6,1-0.9V271.3z"/>
	<path id="XMLID_548_" class="st4" d="M166.6,272.9c0,0.4-0.1,0.8-0.3,1.1c-0.2,0.3-0.4,0.6-0.7,0.8c-0.3,0.2-0.6,0.3-0.9,0.4
		c-0.4,0.1-0.7,0.1-1.1,0.1c-0.6,0-1.1-0.1-1.6-0.3s-1-0.5-1.4-0.8l0.7-0.9c0.3,0.3,0.7,0.5,1.1,0.7c0.4,0.2,0.8,0.2,1.2,0.2
		c0.6,0,1-0.1,1.3-0.4c0.3-0.2,0.4-0.6,0.4-1c0-0.2,0-0.3-0.1-0.5c-0.1-0.1-0.2-0.3-0.3-0.4s-0.4-0.3-0.6-0.4
		c-0.3-0.1-0.6-0.3-1-0.5c-0.4-0.2-0.8-0.4-1.1-0.5c-0.3-0.2-0.6-0.4-0.8-0.5c-0.2-0.2-0.3-0.4-0.4-0.7c-0.1-0.2-0.1-0.5-0.1-0.9
		c0-0.3,0.1-0.6,0.2-0.9s0.3-0.5,0.6-0.7c0.2-0.2,0.5-0.3,0.8-0.5c0.3-0.1,0.7-0.2,1.1-0.2c0.6,0,1.1,0.1,1.6,0.3
		c0.5,0.2,0.9,0.4,1.2,0.7l-0.7,0.9c-0.3-0.3-0.7-0.5-1-0.6c-0.3-0.1-0.7-0.2-1.2-0.2s-0.8,0.1-1.1,0.3c-0.2,0.2-0.4,0.5-0.4,0.8
		c0,0.2,0,0.3,0.1,0.5c0.1,0.1,0.2,0.3,0.3,0.4c0.1,0.1,0.3,0.3,0.6,0.4c0.2,0.1,0.5,0.3,0.9,0.4c0.4,0.2,0.8,0.4,1.1,0.5
		c0.3,0.2,0.6,0.3,0.8,0.5s0.4,0.4,0.5,0.7C166.5,272.2,166.6,272.5,166.6,272.9z"/>
	<path id="XMLID_546_" class="st4" d="M176.7,267.8c-0.2-0.1-0.4-0.2-0.6-0.2c-0.2-0.1-0.4-0.1-0.7-0.1c-0.6,0-1.1,0.2-1.4,0.7
		s-0.5,1.1-0.5,1.9v5h-1.2v-8.6h1.2v1.1c0.2-0.3,0.5-0.6,0.9-0.9c0.4-0.2,0.8-0.4,1.3-0.4c0.3,0,0.6,0,0.8,0.1
		c0.2,0,0.4,0.1,0.5,0.2L176.7,267.8z"/>
	<path id="XMLID_543_" class="st4" d="M183.5,275.1v-1c-0.3,0.3-0.7,0.6-1.1,0.9s-1,0.4-1.6,0.4c-0.3,0-0.7,0-1-0.1
		c-0.3-0.1-0.6-0.2-0.9-0.5c-0.3-0.2-0.5-0.5-0.6-0.8c-0.2-0.3-0.2-0.8-0.2-1.3c0-0.5,0.1-0.9,0.3-1.2c0.2-0.3,0.4-0.6,0.7-0.9
		c0.3-0.2,0.7-0.4,1-0.5c0.4-0.1,0.8-0.2,1.2-0.2c0.4,0,0.8,0,1.2,0.1c0.4,0.1,0.7,0.2,0.9,0.4v-1c0-1.3-0.6-1.9-1.9-1.9
		c-0.5,0-0.9,0.1-1.2,0.2c-0.4,0.1-0.7,0.3-1.1,0.5l-0.5-1c0.4-0.2,0.8-0.4,1.3-0.5c0.5-0.1,1-0.2,1.6-0.2c0.9,0,1.7,0.2,2.2,0.6
		c0.5,0.4,0.8,1.1,0.8,2.1v6H183.5z M183.5,271.3c-0.3-0.2-0.6-0.3-0.9-0.4c-0.3-0.1-0.8-0.1-1.3-0.1c-0.6,0-1.1,0.1-1.5,0.4
		c-0.4,0.3-0.5,0.7-0.5,1.3c0,0.6,0.2,1.1,0.5,1.4c0.3,0.3,0.7,0.4,1.3,0.4c0.6,0,1-0.1,1.5-0.4c0.4-0.3,0.8-0.6,1-0.9V271.3z"/>
	<path id="XMLID_540_" class="st4" d="M193.8,270.7c0,0.8-0.1,1.4-0.3,2c-0.2,0.6-0.4,1.1-0.7,1.4s-0.6,0.7-1,0.9
		c-0.4,0.2-0.8,0.3-1.3,0.3c-0.5,0-1-0.1-1.4-0.3c-0.4-0.2-0.7-0.5-1-0.8v3.4l-1.2,0.7v-11.8h1.2l0,1c0.3-0.3,0.7-0.6,1.1-0.9
		s0.9-0.4,1.5-0.4c0.4,0,0.8,0.1,1.2,0.3c0.4,0.2,0.7,0.4,1,0.8s0.5,0.8,0.7,1.4S193.8,270,193.8,270.7z M192.6,270.7
		c0-1.1-0.2-1.9-0.6-2.5s-0.9-0.8-1.6-0.8c-0.5,0-0.9,0.1-1.2,0.3c-0.4,0.2-0.7,0.5-1,0.9v4.3c0.2,0.4,0.6,0.7,1,0.9
		c0.4,0.3,0.9,0.4,1.4,0.4c0.7,0,1.3-0.3,1.6-0.9C192.4,272.8,192.6,271.9,192.6,270.7z"/>
	<path id="XMLID_537_" class="st4" d="M197.2,264.1c0,0.2-0.1,0.4-0.3,0.6c-0.2,0.2-0.4,0.3-0.6,0.3c-0.3,0-0.5-0.1-0.6-0.3
		c-0.2-0.2-0.3-0.4-0.3-0.6c0-0.3,0.1-0.5,0.3-0.6c0.2-0.2,0.4-0.3,0.6-0.3c0.2,0,0.4,0.1,0.6,0.3
		C197.1,263.7,197.2,263.9,197.2,264.1z M195.7,275.1v-8.6h1.2v8.6H195.7z"/>
	<path id="XMLID_534_" class="st4" d="M204.5,275.1v-1c-0.3,0.3-0.7,0.6-1.1,0.9s-0.9,0.4-1.5,0.4c-0.4,0-0.8-0.1-1.2-0.3
		c-0.4-0.2-0.7-0.4-1-0.8s-0.5-0.8-0.7-1.4c-0.2-0.6-0.2-1.2-0.2-2c0-0.8,0.1-1.4,0.3-2c0.2-0.6,0.4-1.1,0.7-1.4
		c0.3-0.4,0.6-0.7,1-0.9c0.4-0.2,0.8-0.3,1.3-0.3c0.5,0,1,0.1,1.4,0.3c0.4,0.2,0.7,0.5,1,0.8v-3.6l1.2-0.7v11.9H204.5z M204.5,268.7
		c-0.2-0.4-0.6-0.7-1-0.9c-0.4-0.3-0.9-0.4-1.4-0.4c-0.7,0-1.3,0.3-1.6,0.9s-0.5,1.5-0.5,2.7c0,1.1,0.2,1.9,0.6,2.5
		c0.4,0.6,0.9,0.8,1.6,0.8c0.5,0,0.9-0.1,1.3-0.3c0.4-0.2,0.7-0.5,1-0.9V268.7z"/>
	<path id="XMLID_531_" class="st4" d="M218.9,270.8c0,0.7-0.1,1.4-0.3,1.9s-0.5,1-0.8,1.4c-0.3,0.4-0.7,0.7-1.2,0.9
		c-0.5,0.2-1,0.3-1.5,0.3s-1-0.1-1.5-0.3s-0.8-0.5-1.2-0.9c-0.3-0.4-0.6-0.8-0.8-1.4c-0.2-0.6-0.3-1.2-0.3-1.9
		c0-0.7,0.1-1.4,0.3-1.9c0.2-0.6,0.5-1,0.8-1.4c0.3-0.4,0.7-0.7,1.2-0.9c0.5-0.2,1-0.3,1.5-0.3s1,0.1,1.5,0.3s0.8,0.5,1.2,0.8
		c0.3,0.4,0.6,0.8,0.8,1.4C218.8,269.4,218.9,270.1,218.9,270.8z M217.6,270.8c0-1.1-0.2-2-0.7-2.6s-1.1-0.8-1.8-0.8
		c-0.8,0-1.4,0.3-1.8,0.8s-0.7,1.4-0.7,2.6c0,1.1,0.2,2,0.7,2.6c0.5,0.6,1.1,0.9,1.8,0.9c0.8,0,1.4-0.3,1.8-0.9
		C217.4,272.8,217.6,272,217.6,270.8z"/>
	<path id="XMLID_529_" class="st4" d="M226.1,275.1v-5c0-0.9-0.2-1.6-0.5-2s-0.8-0.6-1.5-0.6c-0.6,0-1.1,0.2-1.5,0.6
		c-0.4,0.4-0.6,1.1-0.6,2.1v5h-1.2v-8.6h1.2l0,1c0.3-0.4,0.6-0.7,1-0.9c0.4-0.2,0.9-0.3,1.4-0.3c0.5,0,0.9,0.1,1.2,0.2
		c0.4,0.1,0.7,0.3,1,0.6c0.3,0.3,0.5,0.7,0.6,1.1c0.1,0.4,0.2,1,0.2,1.6v5.2H226.1z"/>
	<path id="XMLID_527_" class="st4" d="M234.8,272.9c0,0.4-0.1,0.8-0.3,1.1c-0.2,0.3-0.4,0.6-0.7,0.8c-0.3,0.2-0.6,0.3-0.9,0.4
		c-0.4,0.1-0.7,0.1-1.1,0.1c-0.6,0-1.1-0.1-1.6-0.3s-1-0.5-1.4-0.8l0.7-0.9c0.3,0.3,0.7,0.5,1.1,0.7c0.4,0.2,0.8,0.2,1.2,0.2
		c0.6,0,1-0.1,1.3-0.4c0.3-0.2,0.4-0.6,0.4-1c0-0.2,0-0.3-0.1-0.5c-0.1-0.1-0.2-0.3-0.3-0.4s-0.4-0.3-0.6-0.4
		c-0.3-0.1-0.6-0.3-1-0.5c-0.4-0.2-0.8-0.4-1.1-0.5c-0.3-0.2-0.6-0.4-0.8-0.5c-0.2-0.2-0.3-0.4-0.4-0.7c-0.1-0.2-0.1-0.5-0.1-0.9
		c0-0.3,0.1-0.6,0.2-0.9s0.3-0.5,0.6-0.7c0.2-0.2,0.5-0.3,0.8-0.5c0.3-0.1,0.7-0.2,1.1-0.2c0.6,0,1.1,0.1,1.6,0.3
		c0.5,0.2,0.9,0.4,1.2,0.7l-0.7,0.9c-0.3-0.3-0.7-0.5-1-0.6c-0.3-0.1-0.7-0.2-1.2-0.2s-0.8,0.1-1.1,0.3c-0.2,0.2-0.4,0.5-0.4,0.8
		c0,0.2,0,0.3,0.1,0.5c0.1,0.1,0.2,0.3,0.3,0.4c0.1,0.1,0.3,0.3,0.6,0.4c0.2,0.1,0.5,0.3,0.9,0.4c0.4,0.2,0.8,0.4,1.1,0.5
		c0.3,0.2,0.6,0.3,0.8,0.5s0.4,0.4,0.5,0.7C234.8,272.2,234.8,272.5,234.8,272.9z"/>
	<path id="XMLID_524_" class="st4" d="M243.3,270.6c0,0.2,0,0.3,0,0.4c0,0.1,0,0.2,0,0.3h-5.7c0.1,0.9,0.3,1.7,0.7,2.2
		s1,0.8,1.7,0.8c0.5,0,0.9-0.1,1.3-0.2c0.3-0.1,0.7-0.3,1.1-0.6l0.6,0.9c-0.3,0.2-0.5,0.3-0.7,0.4s-0.5,0.2-0.7,0.3
		c-0.2,0.1-0.5,0.1-0.8,0.2c-0.3,0-0.6,0.1-0.9,0.1c-0.4,0-0.8-0.1-1.2-0.2c-0.4-0.2-0.8-0.4-1.1-0.8c-0.3-0.4-0.6-0.8-0.8-1.4
		c-0.2-0.6-0.3-1.3-0.3-2.1c0-0.7,0.1-1.3,0.3-1.9c0.2-0.5,0.4-1,0.7-1.4c0.3-0.4,0.7-0.7,1.1-0.9c0.4-0.2,0.9-0.3,1.4-0.3
		c0.6,0,1,0.1,1.5,0.3c0.4,0.2,0.8,0.5,1.1,0.9c0.3,0.4,0.5,0.8,0.7,1.3C243.2,269.4,243.3,270,243.3,270.6z M242.1,270.3
		c-0.1-0.8-0.3-1.5-0.6-2.1c-0.4-0.5-0.9-0.8-1.7-0.8c-0.6,0-1.2,0.2-1.6,0.7s-0.7,1.2-0.7,2.2H242.1z"/>
	<path id="XMLID_522_" class="st4" d="M246.7,267.6v5.6c0,0.4,0.1,0.6,0.2,0.8s0.4,0.2,0.7,0.2c0.3,0,0.5,0,0.6-0.1
		c0.2,0,0.4-0.1,0.6-0.2l-0.1,1.1c-0.2,0.1-0.5,0.2-0.7,0.2c-0.2,0-0.5,0.1-0.9,0.1c-0.5,0-0.9-0.1-1.2-0.4
		c-0.3-0.3-0.4-0.8-0.4-1.5v-5.8h-1.1v-1h1.1v-2.7l1.2-0.7v3.3h2.1v1H246.7z"/>
	<path id="XMLID_519_" class="st4" d="M261.6,270.8c0,0.7-0.1,1.4-0.3,1.9s-0.5,1-0.8,1.4c-0.3,0.4-0.7,0.7-1.2,0.9
		c-0.5,0.2-1,0.3-1.5,0.3s-1-0.1-1.5-0.3c-0.5-0.2-0.8-0.5-1.2-0.9c-0.3-0.4-0.6-0.8-0.8-1.4c-0.2-0.6-0.3-1.2-0.3-1.9
		c0-0.7,0.1-1.4,0.3-1.9c0.2-0.6,0.5-1,0.8-1.4c0.3-0.4,0.7-0.7,1.2-0.9c0.5-0.2,1-0.3,1.5-0.3s1,0.1,1.5,0.3s0.8,0.5,1.2,0.8
		c0.3,0.4,0.6,0.8,0.8,1.4C261.5,269.4,261.6,270.1,261.6,270.8z M260.4,270.8c0-1.1-0.2-2-0.7-2.6s-1.1-0.8-1.8-0.8
		c-0.8,0-1.4,0.3-1.8,0.8c-0.5,0.6-0.7,1.4-0.7,2.6c0,1.1,0.2,2,0.7,2.6c0.5,0.6,1.1,0.9,1.8,0.9c0.8,0,1.4-0.3,1.8-0.9
		C260.2,272.8,260.4,272,260.4,270.8z"/>
	<path id="XMLID_517_" class="st4" d="M266.1,264.4c-0.3,0-0.5,0.1-0.6,0.2c-0.2,0.1-0.3,0.4-0.3,0.7v1.3h1.7v1h-1.7v7.6H264v-7.6
		h-1.2v-1h1.2v-1.2c0-0.8,0.2-1.3,0.6-1.6c0.4-0.3,0.9-0.5,1.5-0.5c0.3,0,0.5,0,0.6,0c0.2,0,0.3,0.1,0.5,0.1v1.2
		C266.9,264.4,266.5,264.4,266.1,264.4z"/>
	<path id="XMLID_514_" class="st4" d="M277.6,275.1v-1c-0.3,0.3-0.7,0.6-1.1,0.9s-1,0.4-1.6,0.4c-0.3,0-0.7,0-1-0.1
		c-0.3-0.1-0.6-0.2-0.9-0.5c-0.3-0.2-0.5-0.5-0.6-0.8c-0.2-0.3-0.2-0.8-0.2-1.3c0-0.5,0.1-0.9,0.3-1.2c0.2-0.3,0.4-0.6,0.7-0.9
		c0.3-0.2,0.7-0.4,1-0.5c0.4-0.1,0.8-0.2,1.2-0.2c0.4,0,0.8,0,1.2,0.1c0.4,0.1,0.7,0.2,0.9,0.4v-1c0-1.3-0.6-1.9-1.9-1.9
		c-0.5,0-0.9,0.1-1.2,0.2c-0.4,0.1-0.7,0.3-1.1,0.5l-0.5-1c0.4-0.2,0.8-0.4,1.3-0.5c0.5-0.1,1-0.2,1.6-0.2c0.9,0,1.7,0.2,2.2,0.6
		c0.5,0.4,0.8,1.1,0.8,2.1v6H277.6z M277.6,271.3c-0.3-0.2-0.6-0.3-0.9-0.4c-0.3-0.1-0.8-0.1-1.3-0.1c-0.6,0-1.1,0.1-1.5,0.4
		c-0.4,0.3-0.5,0.7-0.5,1.3c0,0.6,0.2,1.1,0.5,1.4c0.3,0.3,0.7,0.4,1.3,0.4c0.6,0,1-0.1,1.5-0.4c0.4-0.3,0.8-0.6,1-0.9V271.3z"/>
	<path id="XMLID_512_" class="st4" d="M286.3,268.3c-0.3-0.3-0.6-0.5-0.9-0.6s-0.7-0.2-1.1-0.2c-0.3,0-0.7,0.1-0.9,0.2
		c-0.3,0.1-0.5,0.4-0.8,0.7c-0.2,0.3-0.4,0.6-0.5,1.1c-0.1,0.4-0.2,0.9-0.2,1.4c0,1.1,0.2,1.9,0.6,2.5c0.4,0.6,1,0.9,1.8,0.9
		c0.4,0,0.8-0.1,1.1-0.2c0.3-0.2,0.6-0.4,0.9-0.7l0.7,0.8c-0.4,0.4-0.8,0.7-1.2,0.9c-0.4,0.2-1,0.3-1.6,0.3c-0.5,0-0.9-0.1-1.4-0.3
		c-0.4-0.2-0.8-0.5-1.2-0.8c-0.3-0.4-0.6-0.8-0.8-1.4s-0.3-1.2-0.3-2c0-0.8,0.1-1.5,0.3-2c0.2-0.6,0.5-1,0.9-1.4s0.7-0.6,1.2-0.8
		s0.9-0.3,1.3-0.3c0.6,0,1.1,0.1,1.5,0.3s0.8,0.4,1.2,0.7L286.3,268.3z"/>
	<path id="XMLID_510_" class="st4" d="M290.3,267.6v5.6c0,0.4,0.1,0.6,0.2,0.8s0.4,0.2,0.7,0.2c0.3,0,0.5,0,0.6-0.1
		c0.2,0,0.4-0.1,0.6-0.2l-0.1,1.1c-0.2,0.1-0.5,0.2-0.7,0.2c-0.2,0-0.5,0.1-0.9,0.1c-0.5,0-0.9-0.1-1.2-0.4
		c-0.3-0.3-0.4-0.8-0.4-1.5v-5.8H288v-1h1.1v-2.7l1.2-0.7v3.3h2.1v1H290.3z"/>
	<path id="XMLID_507_" class="st4" d="M295.9,264.1c0,0.2-0.1,0.4-0.3,0.6c-0.2,0.2-0.4,0.3-0.6,0.3c-0.3,0-0.5-0.1-0.6-0.3
		c-0.2-0.2-0.3-0.4-0.3-0.6c0-0.3,0.1-0.5,0.3-0.6c0.2-0.2,0.4-0.3,0.6-0.3c0.2,0,0.4,0.1,0.6,0.3
		C295.8,263.7,295.9,263.9,295.9,264.1z M294.4,275.1v-8.6h1.2v8.6H294.4z"/>
	<path id="XMLID_504_" class="st4" d="M305,270.8c0,0.7-0.1,1.4-0.3,1.9s-0.5,1-0.8,1.4c-0.3,0.4-0.7,0.7-1.2,0.9
		c-0.5,0.2-1,0.3-1.5,0.3s-1-0.1-1.5-0.3s-0.8-0.5-1.2-0.9c-0.3-0.4-0.6-0.8-0.8-1.4c-0.2-0.6-0.3-1.2-0.3-1.9
		c0-0.7,0.1-1.4,0.3-1.9c0.2-0.6,0.5-1,0.8-1.4c0.3-0.4,0.7-0.7,1.2-0.9c0.5-0.2,1-0.3,1.5-0.3s1,0.1,1.5,0.3s0.8,0.5,1.2,0.8
		c0.3,0.4,0.6,0.8,0.8,1.4C305,269.4,305,270.1,305,270.8z M303.8,270.8c0-1.1-0.2-2-0.7-2.6s-1.1-0.8-1.8-0.8
		c-0.8,0-1.4,0.3-1.8,0.8s-0.7,1.4-0.7,2.6c0,1.1,0.2,2,0.7,2.6c0.5,0.6,1.1,0.9,1.8,0.9c0.8,0,1.4-0.3,1.8-0.9
		C303.6,272.8,303.8,272,303.8,270.8z"/>
	<path id="XMLID_502_" class="st4" d="M312.2,275.1v-5c0-0.9-0.2-1.6-0.5-2s-0.8-0.6-1.5-0.6c-0.6,0-1.1,0.2-1.5,0.6
		c-0.4,0.4-0.6,1.1-0.6,2.1v5h-1.2v-8.6h1.2l0,1c0.3-0.4,0.6-0.7,1-0.9c0.4-0.2,0.9-0.3,1.4-0.3c0.5,0,0.9,0.1,1.2,0.2
		c0.4,0.1,0.7,0.3,1,0.6c0.3,0.3,0.5,0.7,0.6,1.1c0.1,0.4,0.2,1,0.2,1.6v5.2H312.2z"/>
	<path id="XMLID_499_" class="st4" d="M145.6,283.2c0,0.2-0.1,0.4-0.3,0.6c-0.2,0.2-0.4,0.3-0.6,0.3c-0.3,0-0.5-0.1-0.6-0.3
		c-0.2-0.2-0.3-0.4-0.3-0.6c0-0.3,0.1-0.5,0.3-0.6c0.2-0.2,0.4-0.3,0.6-0.3c0.2,0,0.4,0.1,0.6,0.3
		C145.5,282.8,145.6,283,145.6,283.2z M144.1,294.2v-8.6h1.2v8.6H144.1z"/>
	<path id="XMLID_497_" class="st4" d="M153.1,294.2v-5c0-0.9-0.2-1.6-0.5-2s-0.8-0.6-1.5-0.6c-0.6,0-1.1,0.2-1.5,0.6
		c-0.4,0.4-0.6,1.1-0.6,2.1v5h-1.2v-8.6h1.2l0,1c0.3-0.4,0.6-0.7,1-0.9c0.4-0.2,0.9-0.3,1.4-0.3c0.5,0,0.9,0.1,1.2,0.2
		c0.4,0.1,0.7,0.4,1,0.6s0.5,0.7,0.6,1.1c0.1,0.4,0.2,1,0.2,1.6v5.2H153.1z"/>
	<path id="XMLID_494_" class="st4" d="M167.3,289.8c0,0.8-0.1,1.4-0.3,2c-0.2,0.6-0.4,1.1-0.7,1.4s-0.6,0.7-1,0.9
		c-0.4,0.2-0.8,0.3-1.3,0.3c-0.5,0-1-0.1-1.4-0.3c-0.4-0.2-0.7-0.5-1-0.8v3.4l-1.2,0.7v-11.8h1.2l0,1c0.3-0.3,0.7-0.6,1.1-0.9
		s0.9-0.4,1.5-0.4c0.4,0,0.8,0.1,1.2,0.3c0.4,0.2,0.7,0.4,1,0.8s0.5,0.8,0.7,1.4S167.3,289,167.3,289.8z M166.1,289.8
		c0-1.1-0.2-1.9-0.6-2.5s-0.9-0.8-1.6-0.8c-0.5,0-0.9,0.1-1.2,0.3c-0.4,0.2-0.7,0.5-1,0.9v4.3c0.2,0.4,0.6,0.7,1,0.9
		c0.4,0.3,0.9,0.4,1.4,0.4c0.7,0,1.3-0.3,1.6-0.9C165.9,291.8,166.1,291,166.1,289.8z"/>
	<path id="XMLID_491_" class="st4" d="M174,294.2v-1c-0.3,0.3-0.7,0.6-1.1,0.9s-1,0.4-1.6,0.4c-0.3,0-0.7,0-1-0.1
		c-0.3-0.1-0.6-0.2-0.9-0.5c-0.3-0.2-0.5-0.5-0.6-0.8c-0.2-0.3-0.2-0.8-0.2-1.3c0-0.5,0.1-0.9,0.3-1.2c0.2-0.3,0.4-0.6,0.7-0.9
		c0.3-0.2,0.7-0.4,1-0.5c0.4-0.1,0.8-0.2,1.2-0.2c0.4,0,0.8,0,1.2,0.1c0.4,0.1,0.7,0.2,0.9,0.4v-1c0-1.3-0.6-1.9-1.9-1.9
		c-0.5,0-0.9,0.1-1.2,0.2c-0.4,0.1-0.7,0.3-1.1,0.5l-0.5-1c0.4-0.2,0.8-0.4,1.3-0.5c0.5-0.1,1-0.2,1.6-0.2c0.9,0,1.7,0.2,2.2,0.6
		c0.5,0.4,0.8,1.1,0.8,2.1v6H174z M174,290.4c-0.3-0.2-0.6-0.3-0.9-0.4c-0.3-0.1-0.8-0.1-1.3-0.1c-0.6,0-1.1,0.1-1.5,0.4
		c-0.4,0.3-0.5,0.7-0.5,1.3c0,0.6,0.2,1.1,0.5,1.4c0.3,0.3,0.7,0.4,1.3,0.4c0.6,0,1-0.1,1.5-0.4c0.4-0.3,0.8-0.6,1-0.9V290.4z"/>
	<path id="XMLID_489_" class="st4" d="M181.9,286.9c-0.2-0.1-0.4-0.2-0.6-0.2c-0.2-0.1-0.4-0.1-0.7-0.1c-0.6,0-1.1,0.2-1.4,0.7
		s-0.5,1.1-0.5,1.9v5h-1.2v-8.6h1.2v1.1c0.2-0.3,0.5-0.6,0.9-0.9c0.4-0.2,0.8-0.4,1.3-0.4c0.3,0,0.6,0,0.8,0.1
		c0.2,0,0.4,0.1,0.5,0.2L181.9,286.9z"/>
	<path id="XMLID_487_" class="st4" d="M185.3,286.7v5.6c0,0.4,0.1,0.6,0.2,0.8s0.4,0.2,0.7,0.2c0.3,0,0.5,0,0.6-0.1
		c0.2,0,0.4-0.1,0.6-0.2l-0.1,1.1c-0.2,0.1-0.5,0.2-0.7,0.2c-0.2,0-0.5,0.1-0.9,0.1c-0.5,0-0.9-0.1-1.2-0.4
		c-0.3-0.3-0.4-0.8-0.4-1.5v-5.8H183v-1h1.1V283l1.2-0.7v3.3h2.1v1H185.3z"/>
	<path id="XMLID_484_" class="st4" d="M190.9,283.2c0,0.2-0.1,0.4-0.3,0.6c-0.2,0.2-0.4,0.3-0.6,0.3c-0.3,0-0.5-0.1-0.6-0.3
		c-0.2-0.2-0.3-0.4-0.3-0.6c0-0.3,0.1-0.5,0.3-0.6c0.2-0.2,0.4-0.3,0.6-0.3c0.2,0,0.4,0.1,0.6,0.3
		C190.8,282.8,190.9,283,190.9,283.2z M189.4,294.2v-8.6h1.2v8.6H189.4z"/>
	<path id="XMLID_481_" class="st4" d="M198,294.2v-1c-0.3,0.3-0.7,0.6-1.1,0.9s-1,0.4-1.6,0.4c-0.3,0-0.7,0-1-0.1
		c-0.3-0.1-0.6-0.2-0.9-0.5c-0.3-0.2-0.5-0.5-0.6-0.8c-0.2-0.3-0.2-0.8-0.2-1.3c0-0.5,0.1-0.9,0.3-1.2c0.2-0.3,0.4-0.6,0.7-0.9
		c0.3-0.2,0.7-0.4,1-0.5c0.4-0.1,0.8-0.2,1.2-0.2c0.4,0,0.8,0,1.2,0.1c0.4,0.1,0.7,0.2,0.9,0.4v-1c0-1.3-0.6-1.9-1.9-1.9
		c-0.5,0-0.9,0.1-1.2,0.2c-0.4,0.1-0.7,0.3-1.1,0.5l-0.5-1c0.4-0.2,0.8-0.4,1.3-0.5c0.5-0.1,1-0.2,1.6-0.2c0.9,0,1.7,0.2,2.2,0.6
		c0.5,0.4,0.8,1.1,0.8,2.1v6H198z M198,290.4c-0.3-0.2-0.6-0.3-0.9-0.4c-0.3-0.1-0.8-0.1-1.3-0.1c-0.6,0-1.1,0.1-1.5,0.4
		c-0.4,0.3-0.5,0.7-0.5,1.3c0,0.6,0.2,1.1,0.5,1.4c0.3,0.3,0.7,0.4,1.3,0.4c0.6,0,1-0.1,1.5-0.4c0.4-0.3,0.8-0.6,1-0.9V290.4z"/>
	<path id="XMLID_479_" class="st4" d="M201.5,294.2V283l1.2-0.7v11.9H201.5z"/>
	<path id="XMLID_476_" class="st4" d="M213.8,294.2v-1c-0.3,0.3-0.7,0.6-1.1,0.9s-1,0.4-1.6,0.4c-0.3,0-0.7,0-1-0.1
		c-0.3-0.1-0.6-0.2-0.9-0.5c-0.3-0.2-0.5-0.5-0.6-0.8c-0.2-0.3-0.2-0.8-0.2-1.3c0-0.5,0.1-0.9,0.3-1.2c0.2-0.3,0.4-0.6,0.7-0.9
		c0.3-0.2,0.7-0.4,1-0.5c0.4-0.1,0.8-0.2,1.2-0.2c0.4,0,0.8,0,1.2,0.1c0.4,0.1,0.7,0.2,0.9,0.4v-1c0-1.3-0.6-1.9-1.9-1.9
		c-0.5,0-0.9,0.1-1.2,0.2c-0.4,0.1-0.7,0.3-1.1,0.5l-0.5-1c0.4-0.2,0.8-0.4,1.3-0.5c0.5-0.1,1-0.2,1.6-0.2c0.9,0,1.7,0.2,2.2,0.6
		c0.5,0.4,0.8,1.1,0.8,2.1v6H213.8z M213.8,290.4c-0.3-0.2-0.6-0.3-0.9-0.4c-0.3-0.1-0.8-0.1-1.3-0.1c-0.6,0-1.1,0.1-1.5,0.4
		c-0.4,0.3-0.5,0.7-0.5,1.3c0,0.6,0.2,1.1,0.5,1.4c0.3,0.3,0.7,0.4,1.3,0.4c0.6,0,1-0.1,1.5-0.4c0.4-0.3,0.8-0.6,1-0.9V290.4z"/>
	<path id="XMLID_474_" class="st4" d="M222.7,294.2v-5c0-0.9-0.2-1.6-0.5-2s-0.8-0.6-1.5-0.6c-0.6,0-1.1,0.2-1.5,0.6
		c-0.4,0.4-0.6,1.1-0.6,2.1v5h-1.2v-8.6h1.2l0,1c0.3-0.4,0.6-0.7,1-0.9c0.4-0.2,0.9-0.3,1.4-0.3c0.5,0,0.9,0.1,1.2,0.2
		c0.4,0.1,0.7,0.4,1,0.6s0.5,0.7,0.6,1.1c0.1,0.4,0.2,1,0.2,1.6v5.2H222.7z"/>
	<path id="XMLID_471_" class="st4" d="M231.3,294.2v-1c-0.3,0.3-0.7,0.6-1.1,0.9s-0.9,0.4-1.5,0.4c-0.4,0-0.8-0.1-1.2-0.3
		c-0.4-0.2-0.7-0.4-1-0.8s-0.5-0.8-0.7-1.4c-0.2-0.6-0.2-1.2-0.2-2c0-0.8,0.1-1.4,0.3-2c0.2-0.6,0.4-1.1,0.7-1.4
		c0.3-0.4,0.6-0.7,1-0.9c0.4-0.2,0.8-0.3,1.3-0.3c0.5,0,1,0.1,1.4,0.3c0.4,0.2,0.7,0.5,1,0.8V283l1.2-0.7v11.9H231.3z M231.3,287.8
		c-0.2-0.4-0.6-0.7-1-0.9c-0.4-0.3-0.9-0.4-1.4-0.4c-0.7,0-1.3,0.3-1.6,0.9s-0.5,1.5-0.5,2.7c0,1.1,0.2,1.9,0.6,2.5
		c0.4,0.6,0.9,0.8,1.6,0.8c0.5,0,0.9-0.1,1.3-0.3c0.4-0.2,0.7-0.5,1-0.9V287.8z"/>
	<path id="XMLID_468_" class="st4" d="M245.1,293.5c0,0.6-0.1,1.2-0.2,1.7c-0.2,0.5-0.4,0.9-0.7,1.2c-0.3,0.3-0.8,0.6-1.4,0.7
		c-0.6,0.2-1.2,0.3-2,0.3l-0.4-0.9c0.7,0,1.3-0.1,1.8-0.2c0.5-0.1,0.8-0.3,1.1-0.5c0.3-0.2,0.4-0.5,0.5-0.9c0.1-0.3,0.1-0.8,0.1-1.3
		v-0.4c-0.3,0.3-0.7,0.6-1.1,0.9s-0.9,0.4-1.5,0.4c-0.4,0-0.8-0.1-1.2-0.3c-0.4-0.2-0.7-0.4-1-0.8s-0.5-0.8-0.7-1.4
		c-0.2-0.6-0.2-1.2-0.2-2c0-0.8,0.1-1.4,0.3-2c0.2-0.6,0.4-1.1,0.7-1.4c0.3-0.4,0.6-0.7,1-0.9c0.4-0.2,0.8-0.3,1.3-0.3
		c0.5,0,1,0.1,1.4,0.3c0.4,0.2,0.7,0.5,1,0.8v-1h1.2V293.5z M243.9,287.8c-0.2-0.4-0.6-0.7-1-0.9c-0.4-0.3-0.9-0.4-1.4-0.4
		c-0.7,0-1.3,0.3-1.6,0.9s-0.5,1.5-0.5,2.7c0,1.1,0.2,1.9,0.6,2.5c0.4,0.6,0.9,0.8,1.6,0.8c0.5,0,0.9-0.1,1.3-0.3
		c0.4-0.2,0.7-0.5,1-0.9V287.8z"/>
	<path id="XMLID_465_" class="st4" d="M253.9,289.7c0,0.2,0,0.3,0,0.4c0,0.1,0,0.2,0,0.3h-5.7c0.1,0.9,0.3,1.7,0.7,2.2
		s1,0.8,1.7,0.8c0.5,0,0.9-0.1,1.3-0.2c0.3-0.1,0.7-0.3,1.1-0.6l0.6,0.9c-0.3,0.2-0.5,0.3-0.7,0.4s-0.5,0.2-0.7,0.3
		c-0.2,0.1-0.5,0.1-0.8,0.2c-0.3,0-0.6,0.1-0.9,0.1c-0.4,0-0.8-0.1-1.2-0.2c-0.4-0.2-0.8-0.4-1.1-0.8c-0.3-0.4-0.6-0.8-0.8-1.4
		c-0.2-0.6-0.3-1.3-0.3-2.1c0-0.7,0.1-1.3,0.3-1.9c0.2-0.5,0.4-1,0.7-1.4c0.3-0.4,0.7-0.7,1.1-0.9c0.4-0.2,0.9-0.3,1.4-0.3
		c0.6,0,1,0.1,1.5,0.3c0.4,0.2,0.8,0.5,1.1,0.9c0.3,0.4,0.5,0.8,0.7,1.3C253.9,288.5,253.9,289.1,253.9,289.7z M252.8,289.3
		c-0.1-0.8-0.3-1.5-0.6-2.1c-0.4-0.5-0.9-0.8-1.7-0.8c-0.6,0-1.2,0.2-1.6,0.7s-0.7,1.2-0.7,2.2H252.8z"/>
	<path id="XMLID_463_" class="st4" d="M261.2,294.2v-5c0-0.9-0.2-1.6-0.5-2s-0.8-0.6-1.5-0.6c-0.6,0-1.1,0.2-1.5,0.6
		c-0.4,0.4-0.6,1.1-0.6,2.1v5h-1.2v-8.6h1.2l0,1c0.3-0.4,0.6-0.7,1-0.9c0.4-0.2,0.9-0.3,1.4-0.3c0.5,0,0.9,0.1,1.2,0.2
		c0.4,0.1,0.7,0.4,1,0.6s0.5,0.7,0.6,1.1c0.1,0.4,0.2,1,0.2,1.6v5.2H261.2z"/>
	<path id="XMLID_460_" class="st4" d="M271.2,289.7c0,0.2,0,0.3,0,0.4c0,0.1,0,0.2,0,0.3h-5.7c0.1,0.9,0.3,1.7,0.7,2.2
		s1,0.8,1.7,0.8c0.5,0,0.9-0.1,1.3-0.2c0.3-0.1,0.7-0.3,1.1-0.6l0.6,0.9c-0.3,0.2-0.5,0.3-0.7,0.4s-0.5,0.2-0.7,0.3
		c-0.2,0.1-0.5,0.1-0.8,0.2c-0.3,0-0.6,0.1-0.9,0.1c-0.4,0-0.8-0.1-1.2-0.2c-0.4-0.2-0.8-0.4-1.1-0.8c-0.3-0.4-0.6-0.8-0.8-1.4
		c-0.2-0.6-0.3-1.3-0.3-2.1c0-0.7,0.1-1.3,0.3-1.9c0.2-0.5,0.4-1,0.7-1.4c0.3-0.4,0.7-0.7,1.1-0.9c0.4-0.2,0.9-0.3,1.4-0.3
		c0.6,0,1,0.1,1.5,0.3c0.4,0.2,0.8,0.5,1.1,0.9c0.3,0.4,0.5,0.8,0.7,1.3C271.1,288.5,271.2,289.1,271.2,289.7z M270,289.3
		c-0.1-0.8-0.3-1.5-0.6-2.1c-0.4-0.5-0.9-0.8-1.7-0.8c-0.6,0-1.2,0.2-1.6,0.7s-0.7,1.2-0.7,2.2H270z"/>
	<path id="XMLID_458_" class="st4" d="M277.5,286.9c-0.2-0.1-0.4-0.2-0.6-0.2c-0.2-0.1-0.4-0.1-0.7-0.1c-0.6,0-1.1,0.2-1.4,0.7
		s-0.5,1.1-0.5,1.9v5H273v-8.6h1.2v1.1c0.2-0.3,0.5-0.6,0.9-0.9c0.4-0.2,0.8-0.4,1.3-0.4c0.3,0,0.6,0,0.8,0.1c0.2,0,0.4,0.1,0.5,0.2
		L277.5,286.9z"/>
	<path id="XMLID_455_" class="st4" d="M284.2,294.2v-1c-0.3,0.3-0.7,0.6-1.1,0.9s-1,0.4-1.6,0.4c-0.3,0-0.7,0-1-0.1
		c-0.3-0.1-0.6-0.2-0.9-0.5c-0.3-0.2-0.5-0.5-0.6-0.8c-0.2-0.3-0.2-0.8-0.2-1.3c0-0.5,0.1-0.9,0.3-1.2c0.2-0.3,0.4-0.6,0.7-0.9
		c0.3-0.2,0.7-0.4,1-0.5c0.4-0.1,0.8-0.2,1.2-0.2c0.4,0,0.8,0,1.2,0.1c0.4,0.1,0.7,0.2,0.9,0.4v-1c0-1.3-0.6-1.9-1.9-1.9
		c-0.5,0-0.9,0.1-1.2,0.2c-0.4,0.1-0.7,0.3-1.1,0.5l-0.5-1c0.4-0.2,0.8-0.4,1.3-0.5c0.5-0.1,1-0.2,1.6-0.2c0.9,0,1.7,0.2,2.2,0.6
		c0.5,0.4,0.8,1.1,0.8,2.1v6H284.2z M284.2,290.4c-0.3-0.2-0.6-0.3-0.9-0.4c-0.3-0.1-0.8-0.1-1.3-0.1c-0.6,0-1.1,0.1-1.5,0.4
		c-0.4,0.3-0.5,0.7-0.5,1.3c0,0.6,0.2,1.1,0.5,1.4c0.3,0.3,0.7,0.4,1.3,0.4c0.6,0,1-0.1,1.5-0.4c0.4-0.3,0.8-0.6,1-0.9V290.4z"/>
	<path id="XMLID_453_" class="st4" d="M287.7,294.2V283l1.2-0.7v11.9H287.7z"/>
	<path id="XMLID_450_" class="st4" d="M292.9,283.2c0,0.2-0.1,0.4-0.3,0.6c-0.2,0.2-0.4,0.3-0.6,0.3c-0.3,0-0.5-0.1-0.6-0.3
		c-0.2-0.2-0.3-0.4-0.3-0.6c0-0.3,0.1-0.5,0.3-0.6c0.2-0.2,0.4-0.3,0.6-0.3c0.2,0,0.4,0.1,0.6,0.3
		C292.8,282.8,292.9,283,292.9,283.2z M291.4,294.2v-8.6h1.2v8.6H291.4z"/>
	<path id="XMLID_448_" class="st4" d="M294.5,294.2v-0.9l4.7-6.7h-4.3v-1h5.7v0.9l-4.7,6.7h4.7v1H294.5z"/>
	<path id="XMLID_445_" class="st4" d="M309.2,289.7c0,0.2,0,0.3,0,0.4c0,0.1,0,0.2,0,0.3h-5.7c0.1,0.9,0.3,1.7,0.7,2.2
		s1,0.8,1.7,0.8c0.5,0,0.9-0.1,1.3-0.2c0.3-0.1,0.7-0.3,1.1-0.6l0.6,0.9c-0.3,0.2-0.5,0.3-0.7,0.4s-0.5,0.2-0.7,0.3
		c-0.2,0.1-0.5,0.1-0.8,0.2c-0.3,0-0.6,0.1-0.9,0.1c-0.4,0-0.8-0.1-1.2-0.2c-0.4-0.2-0.8-0.4-1.1-0.8c-0.3-0.4-0.6-0.8-0.8-1.4
		c-0.2-0.6-0.3-1.3-0.3-2.1c0-0.7,0.1-1.3,0.3-1.9c0.2-0.5,0.4-1,0.7-1.4c0.3-0.4,0.7-0.7,1.1-0.9c0.4-0.2,0.9-0.3,1.4-0.3
		c0.6,0,1,0.1,1.5,0.3c0.4,0.2,0.8,0.5,1.1,0.9c0.3,0.4,0.5,0.8,0.7,1.3C309.1,288.5,309.2,289.1,309.2,289.7z M308,289.3
		c-0.1-0.8-0.3-1.5-0.6-2.1c-0.4-0.5-0.9-0.8-1.7-0.8c-0.6,0-1.2,0.2-1.6,0.7s-0.7,1.2-0.7,2.2H308z"/>
	<path id="XMLID_442_" class="st4" d="M316.2,294.2v-1c-0.3,0.3-0.7,0.6-1.1,0.9s-0.9,0.4-1.5,0.4c-0.4,0-0.8-0.1-1.2-0.3
		c-0.4-0.2-0.7-0.4-1-0.8s-0.5-0.8-0.7-1.4c-0.2-0.6-0.2-1.2-0.2-2c0-0.8,0.1-1.4,0.3-2c0.2-0.6,0.4-1.1,0.7-1.4
		c0.3-0.4,0.6-0.7,1-0.9c0.4-0.2,0.8-0.3,1.3-0.3c0.5,0,1,0.1,1.4,0.3c0.4,0.2,0.7,0.5,1,0.8V283l1.2-0.7v11.9H316.2z M316.2,287.8
		c-0.2-0.4-0.6-0.7-1-0.9c-0.4-0.3-0.9-0.4-1.4-0.4c-0.7,0-1.3,0.3-1.6,0.9s-0.5,1.5-0.5,2.7c0,1.1,0.2,1.9,0.6,2.5
		c0.4,0.6,0.9,0.8,1.6,0.8c0.5,0,0.9-0.1,1.3-0.3c0.4-0.2,0.7-0.5,1-0.9V287.8z"/>
	<path id="XMLID_440_" class="st4" d="M149.4,311.1c0,0.4-0.1,0.8-0.3,1.1c-0.2,0.3-0.4,0.6-0.7,0.8c-0.3,0.2-0.6,0.3-0.9,0.4
		c-0.4,0.1-0.7,0.1-1.1,0.1c-0.6,0-1.1-0.1-1.6-0.3s-1-0.5-1.4-0.8l0.7-0.9c0.3,0.3,0.7,0.5,1.1,0.7c0.4,0.2,0.8,0.2,1.2,0.2
		c0.6,0,1-0.1,1.3-0.4c0.3-0.2,0.4-0.6,0.4-1c0-0.2,0-0.3-0.1-0.5c-0.1-0.1-0.2-0.3-0.3-0.4s-0.4-0.3-0.6-0.4
		c-0.3-0.1-0.6-0.3-1-0.5c-0.4-0.2-0.8-0.4-1.1-0.5c-0.3-0.2-0.6-0.4-0.8-0.5c-0.2-0.2-0.3-0.4-0.4-0.7c-0.1-0.2-0.1-0.5-0.1-0.9
		c0-0.3,0.1-0.6,0.2-0.9s0.3-0.5,0.6-0.7c0.2-0.2,0.5-0.3,0.8-0.5c0.3-0.1,0.7-0.2,1.1-0.2c0.6,0,1.1,0.1,1.6,0.3
		c0.5,0.2,0.9,0.4,1.2,0.7l-0.7,0.9c-0.3-0.3-0.7-0.5-1-0.6c-0.3-0.1-0.7-0.2-1.2-0.2s-0.8,0.1-1.1,0.3c-0.2,0.2-0.4,0.5-0.4,0.8
		c0,0.2,0,0.3,0.1,0.5c0.1,0.1,0.2,0.3,0.3,0.4c0.1,0.1,0.3,0.3,0.6,0.4c0.2,0.1,0.5,0.3,0.9,0.4c0.4,0.2,0.8,0.4,1.1,0.5
		c0.3,0.2,0.6,0.3,0.8,0.5s0.4,0.4,0.5,0.7C149.3,310.3,149.4,310.7,149.4,311.1z"/>
	<path id="XMLID_437_" class="st4" d="M157.8,308.7c0,0.2,0,0.3,0,0.4c0,0.1,0,0.2,0,0.3H152c0.1,0.9,0.3,1.7,0.7,2.2s1,0.8,1.7,0.8
		c0.5,0,0.9-0.1,1.3-0.2c0.3-0.1,0.7-0.3,1.1-0.6l0.6,0.9c-0.3,0.2-0.5,0.3-0.7,0.4s-0.5,0.2-0.7,0.3c-0.2,0.1-0.5,0.1-0.8,0.2
		c-0.3,0-0.6,0.1-0.9,0.1c-0.4,0-0.8-0.1-1.2-0.2c-0.4-0.2-0.8-0.4-1.1-0.8c-0.3-0.4-0.6-0.8-0.8-1.4c-0.2-0.6-0.3-1.3-0.3-2.1
		c0-0.7,0.1-1.3,0.3-1.9c0.2-0.5,0.4-1,0.7-1.4c0.3-0.4,0.7-0.7,1.1-0.9c0.4-0.2,0.9-0.3,1.4-0.3c0.6,0,1,0.1,1.5,0.3
		c0.4,0.2,0.8,0.5,1.1,0.9c0.3,0.4,0.5,0.8,0.7,1.3C157.7,307.6,157.8,308.1,157.8,308.7z M156.6,308.4c-0.1-0.8-0.3-1.5-0.6-2.1
		c-0.4-0.5-0.9-0.8-1.7-0.8c-0.6,0-1.2,0.2-1.6,0.7s-0.7,1.2-0.7,2.2H156.6z"/>
	<path id="XMLID_434_" class="st4" d="M161.2,302.3c0,0.2-0.1,0.4-0.3,0.6c-0.2,0.2-0.4,0.3-0.6,0.3c-0.3,0-0.5-0.1-0.6-0.3
		c-0.2-0.2-0.3-0.4-0.3-0.6c0-0.3,0.1-0.5,0.3-0.6c0.2-0.2,0.4-0.3,0.6-0.3c0.2,0,0.4,0.1,0.6,0.3
		C161.1,301.8,161.2,302,161.2,302.3z M159.7,313.3v-8.6h1.2v8.6H159.7z"/>
	<path id="XMLID_432_" class="st4" d="M162.8,313.3v-0.9l4.7-6.7h-4.3v-1h5.7v0.9l-4.7,6.7h4.7v1H162.8z"/>
	<path id="XMLID_430_" class="st4" d="M176.3,313.3v-1c-0.3,0.4-0.6,0.7-1,0.9c-0.4,0.2-0.9,0.3-1.4,0.3c-0.5,0-0.9-0.1-1.2-0.2
		c-0.4-0.1-0.7-0.3-1-0.6c-0.3-0.3-0.5-0.7-0.6-1.1c-0.1-0.4-0.2-1-0.2-1.6v-5.2h1.2v5c0,0.9,0.2,1.6,0.5,2c0.3,0.4,0.8,0.6,1.5,0.6
		c0.6,0,1.1-0.2,1.5-0.6s0.6-1.1,0.6-2.1v-5h1.2v8.6H176.3z"/>
	<path id="XMLID_428_" class="st4" d="M184.2,306c-0.2-0.1-0.4-0.2-0.6-0.2c-0.2-0.1-0.4-0.1-0.7-0.1c-0.6,0-1.1,0.2-1.4,0.7
		s-0.5,1.1-0.5,1.9v5h-1.2v-8.6h1.2v1.1c0.2-0.3,0.5-0.6,0.9-0.9c0.4-0.2,0.8-0.4,1.3-0.4c0.3,0,0.6,0,0.8,0.1
		c0.2,0,0.4,0.1,0.5,0.2L184.2,306z"/>
	<path id="XMLID_425_" class="st4" d="M192.5,308.7c0,0.2,0,0.3,0,0.4c0,0.1,0,0.2,0,0.3h-5.7c0.1,0.9,0.3,1.7,0.7,2.2
		s1,0.8,1.7,0.8c0.5,0,0.9-0.1,1.3-0.2c0.3-0.1,0.7-0.3,1.1-0.6l0.6,0.9c-0.3,0.2-0.5,0.3-0.7,0.4s-0.5,0.2-0.7,0.3
		c-0.2,0.1-0.5,0.1-0.8,0.2c-0.3,0-0.6,0.1-0.9,0.1c-0.4,0-0.8-0.1-1.2-0.2c-0.4-0.2-0.8-0.4-1.1-0.8c-0.3-0.4-0.6-0.8-0.8-1.4
		c-0.2-0.6-0.3-1.3-0.3-2.1c0-0.7,0.1-1.3,0.3-1.9c0.2-0.5,0.4-1,0.7-1.4c0.3-0.4,0.7-0.7,1.1-0.9c0.4-0.2,0.9-0.3,1.4-0.3
		c0.6,0,1,0.1,1.5,0.3c0.4,0.2,0.8,0.5,1.1,0.9c0.3,0.4,0.5,0.8,0.7,1.3C192.5,307.6,192.5,308.1,192.5,308.7z M191.4,308.4
		c-0.1-0.8-0.3-1.5-0.6-2.1c-0.4-0.5-0.9-0.8-1.7-0.8c-0.6,0-1.2,0.2-1.6,0.7s-0.7,1.2-0.7,2.2H191.4z"/>
	<path id="XMLID_423_" class="st4" d="M199.8,305.7v5.6c0,0.4,0.1,0.6,0.2,0.8s0.4,0.2,0.7,0.2c0.3,0,0.5,0,0.6-0.1
		c0.2,0,0.4-0.1,0.6-0.2l-0.1,1.1c-0.2,0.1-0.5,0.2-0.7,0.2c-0.2,0-0.5,0.1-0.9,0.1c-0.5,0-0.9-0.1-1.2-0.4
		c-0.3-0.3-0.4-0.8-0.4-1.5v-5.8h-1.1v-1h1.1V302l1.2-0.7v3.3h2.1v1H199.8z"/>
	<path id="XMLID_421_" class="st4" d="M206.3,316.3h-1.2l1.2-3.1l-3.1-8.5h1.3l2.1,6.2l0.3,0.9l0.3-0.9l2.1-6.3h1.3L206.3,316.3z"/>
	<path id="XMLID_418_" class="st4" d="M219,308.9c0,0.8-0.1,1.4-0.3,2c-0.2,0.6-0.4,1.1-0.7,1.4s-0.6,0.7-1,0.9
		c-0.4,0.2-0.8,0.3-1.3,0.3c-0.5,0-1-0.1-1.4-0.3c-0.4-0.2-0.7-0.5-1-0.8v3.4l-1.2,0.7v-11.8h1.2l0,1c0.3-0.3,0.7-0.6,1.1-0.9
		s0.9-0.4,1.5-0.4c0.4,0,0.8,0.1,1.2,0.3c0.4,0.2,0.7,0.4,1,0.8s0.5,0.8,0.7,1.4S219,308.1,219,308.9z M217.8,308.9
		c0-1.1-0.2-1.9-0.6-2.5s-0.9-0.8-1.6-0.8c-0.5,0-0.9,0.1-1.2,0.3c-0.4,0.2-0.7,0.5-1,0.9v4.3c0.2,0.4,0.6,0.7,1,0.9
		c0.4,0.3,0.9,0.4,1.4,0.4c0.7,0,1.3-0.3,1.6-0.9C217.7,310.9,217.8,310,217.8,308.9z"/>
	<path id="XMLID_415_" class="st4" d="M227.4,308.7c0,0.2,0,0.3,0,0.4c0,0.1,0,0.2,0,0.3h-5.7c0.1,0.9,0.3,1.7,0.7,2.2
		s1,0.8,1.7,0.8c0.5,0,0.9-0.1,1.3-0.2c0.3-0.1,0.7-0.3,1.1-0.6l0.6,0.9c-0.3,0.2-0.5,0.3-0.7,0.4s-0.5,0.2-0.7,0.3
		c-0.2,0.1-0.5,0.1-0.8,0.2c-0.3,0-0.6,0.1-0.9,0.1c-0.4,0-0.8-0.1-1.2-0.2c-0.4-0.2-0.8-0.4-1.1-0.8c-0.3-0.4-0.6-0.8-0.8-1.4
		c-0.2-0.6-0.3-1.3-0.3-2.1c0-0.7,0.1-1.3,0.3-1.9c0.2-0.5,0.4-1,0.7-1.4c0.3-0.4,0.7-0.7,1.1-0.9c0.4-0.2,0.9-0.3,1.4-0.3
		c0.6,0,1,0.1,1.5,0.3c0.4,0.2,0.8,0.5,1.1,0.9c0.3,0.4,0.5,0.8,0.7,1.3C227.3,307.6,227.4,308.1,227.4,308.7z M226.3,308.4
		c-0.1-0.8-0.3-1.5-0.6-2.1c-0.4-0.5-0.9-0.8-1.7-0.8c-0.6,0-1.2,0.2-1.6,0.7s-0.7,1.2-0.7,2.2H226.3z"/>
	<path id="XMLID_413_" class="st4" d="M234.6,311.1c0,0.4-0.1,0.8-0.3,1.1c-0.2,0.3-0.4,0.6-0.7,0.8c-0.3,0.2-0.6,0.3-0.9,0.4
		c-0.4,0.1-0.7,0.1-1.1,0.1c-0.6,0-1.1-0.1-1.6-0.3s-1-0.5-1.4-0.8l0.7-0.9c0.3,0.3,0.7,0.5,1.1,0.7c0.4,0.2,0.8,0.2,1.2,0.2
		c0.6,0,1-0.1,1.3-0.4c0.3-0.2,0.4-0.6,0.4-1c0-0.2,0-0.3-0.1-0.5c-0.1-0.1-0.2-0.3-0.3-0.4s-0.4-0.3-0.6-0.4
		c-0.3-0.1-0.6-0.3-1-0.5c-0.4-0.2-0.8-0.4-1.1-0.5c-0.3-0.2-0.6-0.4-0.8-0.5c-0.2-0.2-0.3-0.4-0.4-0.7c-0.1-0.2-0.1-0.5-0.1-0.9
		c0-0.3,0.1-0.6,0.2-0.9s0.3-0.5,0.6-0.7c0.2-0.2,0.5-0.3,0.8-0.5c0.3-0.1,0.7-0.2,1.1-0.2c0.6,0,1.1,0.1,1.6,0.3
		c0.5,0.2,0.9,0.4,1.2,0.7l-0.7,0.9c-0.3-0.3-0.7-0.5-1-0.6c-0.3-0.1-0.7-0.2-1.2-0.2s-0.8,0.1-1.1,0.3c-0.2,0.2-0.4,0.5-0.4,0.8
		c0,0.2,0,0.3,0.1,0.5c0.1,0.1,0.2,0.3,0.3,0.4c0.1,0.1,0.3,0.3,0.6,0.4c0.2,0.1,0.5,0.3,0.9,0.4c0.4,0.2,0.8,0.4,1.1,0.5
		c0.3,0.2,0.6,0.3,0.8,0.5s0.4,0.4,0.5,0.7C234.5,310.3,234.6,310.7,234.6,311.1z"/>
	<path id="XMLID_411_" class="st4" d="M243,302.5c-0.3,0-0.5,0.1-0.6,0.2c-0.2,0.1-0.3,0.4-0.3,0.7v1.3h1.7v1h-1.7v7.6h-1.2v-7.6
		h-1.2v-1h1.2v-1.2c0-0.8,0.2-1.3,0.6-1.6s0.9-0.5,1.5-0.5c0.3,0,0.5,0,0.6,0c0.2,0,0.3,0.1,0.5,0.1v1.2
		C243.7,302.6,243.4,302.5,243,302.5z"/>
	<path id="XMLID_409_" class="st4" d="M250.1,306c-0.2-0.1-0.4-0.2-0.6-0.2c-0.2-0.1-0.4-0.1-0.7-0.1c-0.6,0-1.1,0.2-1.4,0.7
		s-0.5,1.1-0.5,1.9v5h-1.2v-8.6h1.2v1.1c0.2-0.3,0.5-0.6,0.9-0.9c0.4-0.2,0.8-0.4,1.3-0.4c0.3,0,0.6,0,0.8,0.1
		c0.2,0,0.4,0.1,0.5,0.2L250.1,306z"/>
	<path id="XMLID_406_" class="st4" d="M258.9,308.9c0,0.7-0.1,1.4-0.3,1.9s-0.5,1-0.8,1.4c-0.3,0.4-0.7,0.7-1.2,0.9
		c-0.5,0.2-1,0.3-1.5,0.3s-1-0.1-1.5-0.3s-0.8-0.5-1.2-0.9c-0.3-0.4-0.6-0.8-0.8-1.4c-0.2-0.6-0.3-1.2-0.3-1.9
		c0-0.7,0.1-1.4,0.3-1.9c0.2-0.6,0.5-1,0.8-1.4c0.3-0.4,0.7-0.7,1.2-0.9c0.5-0.2,1-0.3,1.5-0.3s1,0.1,1.5,0.3s0.8,0.5,1.2,0.8
		c0.3,0.4,0.6,0.8,0.8,1.4C258.8,307.6,258.9,308.2,258.9,308.9z M257.7,309c0-1.1-0.2-2-0.7-2.6s-1.1-0.8-1.8-0.8
		c-0.8,0-1.4,0.3-1.8,0.8s-0.7,1.4-0.7,2.6c0,1.1,0.2,2,0.7,2.6c0.5,0.6,1.1,0.9,1.8,0.9c0.8,0,1.4-0.3,1.8-0.9
		C257.5,311,257.7,310.1,257.7,309z"/>
	<path id="XMLID_404_" class="st4" d="M270.7,313.3v-5c0-1-0.2-1.7-0.5-2.1c-0.3-0.4-0.8-0.6-1.4-0.6c-0.6,0-1,0.2-1.4,0.6
		c-0.3,0.4-0.5,1.1-0.5,2.1v5h-1.2v-5c0-1-0.2-1.7-0.5-2.1c-0.3-0.4-0.8-0.6-1.4-0.6c-0.6,0-1.1,0.2-1.4,0.6
		c-0.3,0.4-0.5,1.1-0.5,2.1v5h-1.2v-8.6h1.2l0,1c0.2-0.4,0.5-0.7,0.9-0.9c0.4-0.2,0.8-0.3,1.3-0.3c0.6,0,1.1,0.1,1.5,0.4
		s0.7,0.6,0.9,1c0.1-0.2,0.3-0.4,0.4-0.6c0.2-0.2,0.3-0.3,0.5-0.5c0.2-0.1,0.4-0.2,0.7-0.3c0.3-0.1,0.6-0.1,0.9-0.1
		c0.9,0,1.6,0.3,2.1,0.8c0.5,0.6,0.8,1.5,0.8,2.7v5.2H270.7z"/>
	<path id="XMLID_401_" class="st4" d="M283.2,313.3v-1c-0.3,0.3-0.7,0.6-1.1,0.9s-0.9,0.4-1.5,0.4c-0.4,0-0.8-0.1-1.2-0.3
		c-0.4-0.2-0.7-0.4-1-0.8s-0.5-0.8-0.7-1.4c-0.2-0.6-0.2-1.2-0.2-2c0-0.8,0.1-1.4,0.3-2c0.2-0.6,0.4-1.1,0.7-1.4
		c0.3-0.4,0.6-0.7,1-0.9c0.4-0.2,0.8-0.3,1.3-0.3c0.5,0,1,0.1,1.4,0.3c0.4,0.2,0.7,0.5,1,0.8V302l1.2-0.7v11.9H283.2z M283.2,306.9
		c-0.2-0.4-0.6-0.7-1-0.9c-0.4-0.3-0.9-0.4-1.4-0.4c-0.7,0-1.3,0.3-1.6,0.9s-0.5,1.5-0.5,2.7c0,1.1,0.2,1.9,0.6,2.5
		c0.4,0.6,0.9,0.8,1.6,0.8c0.5,0,0.9-0.1,1.3-0.3c0.4-0.2,0.7-0.5,1-0.9V306.9z"/>
	<path id="XMLID_398_" class="st4" d="M291.7,313.3v-1c-0.3,0.3-0.7,0.6-1.1,0.9s-1,0.4-1.6,0.4c-0.3,0-0.7,0-1-0.1
		c-0.3-0.1-0.6-0.2-0.9-0.5c-0.3-0.2-0.5-0.5-0.6-0.8c-0.2-0.3-0.2-0.8-0.2-1.3c0-0.5,0.1-0.9,0.3-1.2c0.2-0.3,0.4-0.6,0.7-0.9
		c0.3-0.2,0.7-0.4,1-0.5c0.4-0.1,0.8-0.2,1.2-0.2c0.4,0,0.8,0,1.2,0.1c0.4,0.1,0.7,0.2,0.9,0.4v-1c0-1.3-0.6-1.9-1.9-1.9
		c-0.5,0-0.9,0.1-1.2,0.2c-0.4,0.1-0.7,0.3-1.1,0.5l-0.5-1c0.4-0.2,0.8-0.4,1.3-0.5c0.5-0.1,1-0.2,1.6-0.2c0.9,0,1.7,0.2,2.2,0.6
		c0.5,0.4,0.8,1.1,0.8,2.1v6H291.7z M291.7,309.4c-0.3-0.2-0.6-0.3-0.9-0.4c-0.3-0.1-0.8-0.1-1.3-0.1c-0.6,0-1.1,0.1-1.5,0.4
		c-0.4,0.3-0.5,0.7-0.5,1.3c0,0.6,0.2,1.1,0.5,1.4c0.3,0.3,0.7,0.4,1.3,0.4c0.6,0,1-0.1,1.5-0.4c0.4-0.3,0.8-0.6,1-0.9V309.4z"/>
	<path id="XMLID_396_" class="st4" d="M297.5,316.3h-1.2l1.2-3.1l-3.1-8.5h1.3l2.1,6.2l0.3,0.9l0.3-0.9l2.1-6.3h1.3L297.5,316.3z"/>
	<path id="XMLID_393_" class="st4" d="M308.8,305.6c0,0.3-0.1,0.5-0.3,0.7c-0.2,0.2-0.5,0.3-0.7,0.3s-0.5-0.1-0.7-0.3
		c-0.2-0.2-0.3-0.5-0.3-0.7s0.1-0.5,0.3-0.8c0.2-0.2,0.5-0.3,0.7-0.3s0.5,0.1,0.7,0.3C308.7,305.1,308.8,305.3,308.8,305.6z
		 M308.8,312.4c0,0.3-0.1,0.5-0.3,0.7c-0.2,0.2-0.5,0.3-0.7,0.3s-0.5-0.1-0.7-0.3c-0.2-0.2-0.3-0.5-0.3-0.7s0.1-0.5,0.3-0.8
		c0.2-0.2,0.5-0.3,0.7-0.3s0.5,0.1,0.7,0.3C308.7,311.9,308.8,312.1,308.8,312.4z"/>
</g>
<g id="XMLID_1_">
	<path id="XMLID_391_" class="st5" d="M259,3.6"/>
	<path id="XMLID_390_" class="st5" d="M170.4,3.1"/>
	<g id="XMLID_9_">
		<path id="XMLID_387_" class="st6" d="M211.4,200.4v-45 M122.1,200.4v-34"/>
		<polygon id="XMLID_386_" class="st7" points="293,52 300.8,52 297,46.8 		"/>
		<path id="XMLID_385_" class="st5" d="M372.5,4.2"/>
		<line id="XMLID_384_" class="st5" x1="376.3" y1="204.2" x2="371.8" y2="198.5"/>
		<line id="XMLID_383_" class="st5" x1="374.1" y1="124.5" x2="369.5" y2="118.8"/>
		<line id="XMLID_382_" class="st5" x1="374.1" y1="142.6" x2="369.5" y2="136.9"/>
		<line id="XMLID_381_" class="st5" x1="374.4" y1="162.9" x2="369.9" y2="157.2"/>
		<line id="XMLID_380_" class="st5" x1="374.3" y1="182.8" x2="369.7" y2="177"/>
		<line id="XMLID_379_" class="st5" x1="367.5" y1="204.9" x2="363" y2="199.2"/>
		<line id="XMLID_378_" class="st5" x1="365.7" y1="182.3" x2="361.2" y2="176.6"/>
		<line id="XMLID_377_" class="st5" x1="366" y1="143.3" x2="361.5" y2="137.6"/>
		<line id="XMLID_376_" class="st5" x1="366.7" y1="124" x2="362.2" y2="118.3"/>
		<line id="XMLID_375_" class="st5" x1="366.2" y1="104.2" x2="361.7" y2="98.5"/>
		<line id="XMLID_374_" class="st5" x1="374.5" y1="103.9" x2="370" y2="98.2"/>
		<line id="XMLID_373_" class="st5" x1="374.1" y1="84.4" x2="369.5" y2="78.7"/>
		<line id="XMLID_372_" class="st5" x1="374.5" y1="64.6" x2="370" y2="58.9"/>
		<line id="XMLID_371_" class="st5" x1="365.5" y1="83.9" x2="361" y2="78.2"/>
		<line id="XMLID_370_" class="st5" x1="365.8" y1="64" x2="361.2" y2="58.3"/>
		<line id="XMLID_369_" class="st5" x1="363.8" y1="81.9" x2="88" y2="81.9"/>
		<line id="XMLID_368_" class="st5" x1="363.6" y1="61.2" x2="88" y2="61.2"/>
		<line id="XMLID_367_" class="st5" x1="211.4" y1="199.6" x2="211.4" y2="4.9"/>
		<line id="XMLID_366_" class="st5" x1="364.3" y1="101.7" x2="88" y2="101.7"/>
		<line id="XMLID_365_" class="st5" x1="364" y1="120.9" x2="88.1" y2="120.9"/>
		<line id="XMLID_364_" class="st5" x1="364" y1="140.4" x2="88" y2="140.4"/>
		<line id="XMLID_363_" class="st5" x1="364" y1="160.3" x2="88.1" y2="160.3"/>
		<line id="XMLID_362_" class="st5" x1="374.8" y1="46.1" x2="370.3" y2="40.4"/>
		<line id="XMLID_361_" class="st5" x1="374.5" y1="27" x2="370" y2="21.3"/>
		<line id="XMLID_360_" class="st5" x1="365.6" y1="45.9" x2="361.1" y2="40.2"/>
		<line id="XMLID_359_" class="st5" x1="366" y1="26.7" x2="361.4" y2="21"/>
		<line id="XMLID_358_" class="st5" x1="366" y1="7" x2="361.4" y2="1.3"/>
		<line id="XMLID_357_" class="st5" x1="374.8" y1="7" x2="370.3" y2="1.3"/>
		<line id="XMLID_356_" class="st5" x1="363.7" y1="180" x2="88.1" y2="180"/>
		<path id="XMLID_355_" class="st5" d="M372,180"/>
		<path id="XMLID_354_" class="st5" d="M372.4,160.6"/>
		<path id="XMLID_353_" class="st5" d="M371.6,139.7"/>
		<path id="XMLID_352_" class="st5" d="M371.4,120.9"/>
		<path id="XMLID_351_" class="st5" d="M372.1,100.9"/>
		<path id="XMLID_350_" class="st5" d="M371.9,81.9"/>
		<line id="XMLID_349_" class="st5" x1="363" y1="42.5" x2="88.1" y2="42.5"/>
		<path id="XMLID_348_" class="st5" d="M371.8,61.2"/>
		<line id="XMLID_347_" class="st5" x1="363.9" y1="24.1" x2="88" y2="24.1"/>
		<path id="XMLID_346_" class="st5" d="M372.1,24.1"/>
		<path id="XMLID_345_" class="st5" d="M371.8,42.5"/>
		<line id="XMLID_344_" class="st5" x1="366.2" y1="163.2" x2="361.7" y2="157.5"/>
		<line id="XMLID_343_" class="st8" x1="297" y1="59.6" x2="297" y2="153.7"/>
		<polygon id="XMLID_342_" class="st7" points="207.5,51.7 215.3,51.7 211.5,46.5 		"/>
		<line id="XMLID_341_" class="st9" x1="211.4" y1="59.6" x2="211.4" y2="146.6"/>
		<line id="XMLID_340_" class="st10" x1="122.5" y1="75.4" x2="122.5" y2="158.7"/>
		<polygon id="XMLID_339_" class="st7" points="118.6,68.2 126.4,68.2 122.6,63 		"/>
		<path id="XMLID_338_" class="st11" d="M124,28.4v-5.1h-1.2v-0.7c0.7,0,1.3-0.3,1.4-0.9h0.8v6.7H124z"/>
		<path id="XMLID_337_" class="st11" d="M128.8,28.6c-0.9,0-1.6-0.2-2.3-0.7l0.5-0.8c0.6,0.3,1.3,0.5,1.9,0.5c1,0,1.6-0.5,1.6-1.4
			c0-0.8-0.5-1.2-1.4-1.2c-0.6,0-0.9,0.2-1.3,0.4l-1.1-0.4l0.2-3.3h4.1v1h-3.2l-0.1,1.7c0.4-0.2,0.8-0.3,1.4-0.3
			c1.5,0,2.3,0.9,2.3,2.1C131.4,27.8,130.3,28.6,128.8,28.6"/>
		<path id="XMLID_331_" class="st11" d="M139.3,25.2c-0.5,0-0.8,0.5-0.8,1.3c0,0.8,0.3,1.3,0.8,1.3c0.5,0,0.8-0.5,0.8-1.2
			C140.1,25.7,139.8,25.2,139.3,25.2 M139.3,28.6c-1,0-1.6-0.9-1.6-2.1c0-1.2,0.7-2.1,1.7-2.1c1,0,1.6,0.9,1.6,2.1
			C140.9,27.7,140.3,28.6,139.3,28.6 M135.2,28.4h-1l4.1-6.7h1L135.2,28.4z M134.2,22.5c-0.5,0-0.8,0.5-0.8,1.2
			c0,0.8,0.3,1.3,0.8,1.3c0.5,0,0.8-0.5,0.8-1.2C135,23,134.7,22.5,134.2,22.5 M134.2,25.8c-1,0-1.6-0.9-1.6-2.1
			c0-1.2,0.7-2.1,1.7-2.1c1,0,1.7,0.9,1.7,2.1C135.8,24.9,135.1,25.8,134.2,25.8"/>
		<rect id="XMLID_330_" x="115.2" y="33.3" class="st11" width="1" height="6.7"/>
		<path id="XMLID_329_" class="st11" d="M121,40v-2.9c0-1-0.4-1.4-1-1.4c-0.7,0-1,0.5-1,1.3V40h-1v-5h1v0.5c0.2-0.4,0.7-0.6,1.3-0.6
			c1.2,0,1.8,0.8,1.8,2.3V40H121z"/>
		<path id="XMLID_328_" class="st11" d="M126.5,36.4c-0.4-0.4-0.8-0.6-1.2-0.6c-0.7,0-1.2,0.6-1.2,1.7c0,1,0.4,1.7,1.2,1.7
			c0.5,0,0.7-0.2,1.1-0.6l0.6,0.6c-0.4,0.5-0.9,0.9-1.8,0.9c-1.2,0-2.2-1-2.2-2.6c0-1.7,1-2.6,2.2-2.6c0.7,0,1.3,0.3,1.8,0.9
			L126.5,36.4z"/>
		<path id="XMLID_327_" class="st11" d="M131.1,36c-0.2-0.1-0.4-0.2-0.8-0.2c-0.6,0-1,0.4-1,1.3V40h-1v-5h1v0.5
			c0.2-0.3,0.7-0.6,1.2-0.6c0.4,0,0.7,0.1,0.9,0.2L131.1,36z"/>
		<path id="XMLID_324_" class="st11" d="M134.3,35.7c-0.7,0-1.1,0.5-1.2,1.3h2.3C135.4,36.3,135.1,35.7,134.3,35.7 M136.4,37.8h-3.3
			c0.1,1,0.7,1.4,1.3,1.4c0.4,0,0.8-0.2,1.1-0.4l0.6,0.6c-0.4,0.4-1,0.7-1.7,0.7c-1.2,0-2.2-1-2.2-2.6c0-1.7,0.9-2.6,2.2-2.6
			c1.4,0,2.1,1.2,2.1,2.5C136.5,37.5,136.5,37.7,136.4,37.8"/>
		<path id="XMLID_321_" class="st11" d="M140.6,37.8c-0.3-0.1-0.6-0.2-1.2-0.2c-0.6,0-1,0.3-1,0.7c0,0.5,0.3,0.8,1,0.8
			c0.5,0,1-0.3,1.2-0.6V37.8z M140.6,40v-0.5c-0.3,0.3-0.8,0.6-1.4,0.6c-0.8,0-1.7-0.5-1.7-1.7c0-1.1,0.9-1.6,2-1.6
			c0.5,0,0.8,0.1,1.1,0.2v-0.4c0-0.5-0.3-0.9-1-0.9c-0.5,0-0.9,0.1-1.3,0.3l-0.4-0.7c0.5-0.3,1-0.5,1.7-0.5c1.1,0,1.9,0.5,1.9,1.7
			V40H140.6z"/>
		<path id="XMLID_320_" class="st11" d="M144.6,40.1c-0.7,0-1.4-0.3-1.9-0.6l0.5-0.8c0.5,0.3,1,0.5,1.5,0.5c0.6,0,0.9-0.2,0.9-0.6
			c0-0.4-0.4-0.6-1.2-0.8c-1.1-0.4-1.5-0.8-1.5-1.6c0-0.9,0.7-1.4,1.7-1.4c0.6,0,1.3,0.2,1.7,0.6l-0.4,0.8c-0.4-0.3-0.8-0.4-1.3-0.4
			c-0.5,0-0.7,0.2-0.7,0.5c0,0.3,0.2,0.4,0.9,0.7c1.1,0.4,1.7,0.7,1.7,1.7C146.5,39.7,145.6,40.1,144.6,40.1"/>
		<path id="XMLID_317_" class="st11" d="M149.7,35.7c-0.7,0-1.1,0.5-1.2,1.3h2.3C150.8,36.3,150.5,35.7,149.7,35.7 M151.8,37.8h-3.3
			c0.1,1,0.7,1.4,1.3,1.4c0.4,0,0.8-0.2,1.1-0.4l0.6,0.6c-0.4,0.4-1,0.7-1.7,0.7c-1.2,0-2.2-1-2.2-2.6c0-1.7,0.9-2.6,2.2-2.6
			c1.4,0,2.1,1.2,2.1,2.5C151.9,37.5,151.8,37.7,151.8,37.8"/>
		<path id="XMLID_314_" class="st11" d="M117.8,47.3c-0.5,0-0.9,0.3-1.1,0.6V50c0.2,0.3,0.7,0.7,1.2,0.7c0.7,0,1.1-0.5,1.1-1.6
			C118.9,47.8,118.5,47.3,117.8,47.3 M117.9,51.6c-0.5,0-1-0.3-1.3-0.6v1.8l-1,0.5v-6.9h1v0.5c0.4-0.3,0.8-0.6,1.3-0.6
			c1.1,0,1.9,0.8,1.9,2.7C119.9,50.8,118.9,51.6,117.9,51.6"/>
		<polygon id="XMLID_313_" class="st11" points="120.9,48.6 120.9,47.8 123.7,45.3 123.7,46.6 121.9,48.2 123.7,49.8 123.7,51 		"/>
		<path id="XMLID_310_" class="st11" d="M130.1,45.6c-1.2,0-1.6,1.1-1.6,2.5c0,1.4,0.5,2.5,1.6,2.5c1.2,0,1.6-1.1,1.6-2.5
			C131.8,46.7,131.3,45.6,130.1,45.6 M130.1,51.6c-1.7,0-2.6-1.4-2.6-3.5c0-2,0.9-3.5,2.7-3.5c1.7,0,2.6,1.4,2.6,3.5
			C132.8,50.2,131.9,51.6,130.1,51.6"/>
		<path id="XMLID_309_" class="st11" d="M134.5,51.6c-0.4,0-0.8-0.3-0.8-0.8c0-0.4,0.3-0.8,0.8-0.8c0.4,0,0.8,0.4,0.8,0.8
			C135.3,51.2,134.9,51.6,134.5,51.6"/>
		<path id="XMLID_306_" class="st11" d="M138.9,45.6c-1.2,0-1.6,1.1-1.6,2.5c0,1.4,0.5,2.5,1.6,2.5c1.2,0,1.6-1.1,1.6-2.5
			C140.6,46.7,140.1,45.6,138.9,45.6 M138.9,51.6c-1.7,0-2.6-1.4-2.6-3.5c0-2,0.9-3.5,2.7-3.5c1.7,0,2.6,1.4,2.6,3.5
			C141.6,50.2,140.7,51.6,138.9,51.6"/>
		<path id="XMLID_303_" class="st11" d="M145.3,45.6c-1.2,0-1.6,1.1-1.6,2.5c0,1.4,0.5,2.5,1.6,2.5c1.2,0,1.6-1.1,1.6-2.5
			C146.9,46.7,146.5,45.6,145.3,45.6 M145.3,51.6c-1.7,0-2.6-1.4-2.6-3.5c0-2,0.9-3.5,2.7-3.5c1.7,0,2.6,1.4,2.6,3.5
			C147.9,50.2,147,51.6,145.3,51.6"/>
		<path id="XMLID_302_" class="st11" d="M149.8,51.5v-5.1h-1.2v-0.7c0.7,0,1.3-0.3,1.4-0.9h0.8v6.7H149.8z"/>
		<g id="XMLID_264_">
			<path id="XMLID_301_" class="st11" d="M213.6,21.3v-4.1h-1v-0.6c0.6,0,1-0.2,1.1-0.7h0.7v5.4H213.6z"/>
			<path id="XMLID_300_" class="st11" d="M217.3,21.3h-0.8c0-1.9,0.7-3.3,1.7-4.6h-2.8V16h3.8v0.8C218.1,17.8,217.3,19.3,217.3,21.3
				"/>
			<path id="XMLID_294_" class="st11" d="M225.5,18.8c-0.4,0-0.6,0.4-0.6,1c0,0.6,0.2,1,0.6,1c0.4,0,0.6-0.4,0.6-1
				C226.1,19.2,225.9,18.8,225.5,18.8 M225.5,21.4c-0.8,0-1.3-0.7-1.3-1.7c0-1,0.5-1.7,1.3-1.7c0.8,0,1.3,0.7,1.3,1.7
				C226.8,20.7,226.2,21.4,225.5,21.4 M222.2,21.3h-0.8l3.3-5.4h0.8L222.2,21.3z M221.4,16.6c-0.4,0-0.6,0.4-0.6,1
				c0,0.6,0.2,1,0.6,1c0.4,0,0.6-0.4,0.6-1C222,16.9,221.8,16.6,221.4,16.6 M221.4,19.2c-0.8,0-1.3-0.7-1.3-1.7c0-1,0.5-1.7,1.3-1.7
				c0.8,0,1.3,0.7,1.3,1.7S222.2,19.2,221.4,19.2"/>
			<rect id="XMLID_293_" x="206.4" y="25.2" class="st11" width="0.8" height="5.4"/>
			<path id="XMLID_292_" class="st11" d="M211,30.5v-2.3c0-0.8-0.3-1.1-0.8-1.1c-0.5,0-0.8,0.4-0.8,1v2.4h-0.8v-4h0.8v0.4
				c0.2-0.3,0.6-0.5,1-0.5c0.9,0,1.4,0.6,1.4,1.8v2.3H211z"/>
			<path id="XMLID_291_" class="st11" d="M215.4,27.7c-0.3-0.3-0.6-0.5-1-0.5c-0.6,0-0.9,0.5-0.9,1.3c0,0.8,0.3,1.4,1,1.4
				c0.4,0,0.6-0.2,0.9-0.5l0.5,0.5c-0.3,0.4-0.7,0.8-1.4,0.8c-1,0-1.7-0.8-1.7-2.1c0-1.3,0.8-2.1,1.8-2.1c0.6,0,1.1,0.2,1.4,0.7
				L215.4,27.7z"/>
			<path id="XMLID_290_" class="st11" d="M219.1,27.4c-0.2-0.1-0.3-0.1-0.6-0.1c-0.5,0-0.8,0.4-0.8,1v2.3h-0.8v-4h0.8v0.4
				c0.2-0.3,0.5-0.5,0.9-0.5c0.3,0,0.5,0.1,0.7,0.2L219.1,27.4z"/>
			<path id="XMLID_287_" class="st11" d="M221.6,27.1c-0.5,0-0.9,0.4-0.9,1h1.9C222.5,27.6,222.3,27.1,221.6,27.1 M223.4,28.8h-2.7
				c0.1,0.8,0.5,1.1,1,1.1c0.3,0,0.6-0.1,0.9-0.3l0.5,0.5c-0.4,0.3-0.8,0.5-1.4,0.5c-0.9,0-1.7-0.8-1.7-2.1c0-1.4,0.7-2.1,1.8-2.1
				c1.1,0,1.7,0.9,1.7,2C223.4,28.6,223.4,28.7,223.4,28.8"/>
			<path id="XMLID_284_" class="st11" d="M226.7,28.8c-0.2-0.1-0.5-0.2-0.9-0.2c-0.5,0-0.8,0.2-0.8,0.6c0,0.4,0.3,0.7,0.8,0.7
				c0.4,0,0.8-0.3,1-0.5V28.8z M226.7,30.5v-0.4c-0.3,0.3-0.7,0.5-1.1,0.5c-0.7,0-1.4-0.4-1.4-1.4c0-0.9,0.7-1.3,1.6-1.3
				c0.4,0,0.7,0.1,0.9,0.2v-0.3c0-0.4-0.3-0.7-0.8-0.7c-0.4,0-0.7,0.1-1.1,0.3l-0.3-0.6c0.4-0.2,0.8-0.4,1.4-0.4
				c0.9,0,1.5,0.4,1.5,1.3v2.8H226.7z"/>
			<path id="XMLID_283_" class="st11" d="M229.9,30.6c-0.5,0-1.1-0.2-1.5-0.5l0.4-0.6c0.4,0.3,0.8,0.4,1.2,0.4
				c0.5,0,0.7-0.2,0.7-0.4c0-0.3-0.4-0.5-0.9-0.7c-0.9-0.3-1.2-0.6-1.2-1.3c0-0.7,0.6-1.1,1.4-1.1c0.5,0,1,0.2,1.4,0.4l-0.3,0.6
				c-0.3-0.2-0.7-0.3-1-0.3c-0.4,0-0.6,0.2-0.6,0.4c0,0.2,0.1,0.3,0.7,0.6c0.9,0.3,1.4,0.6,1.4,1.4
				C231.4,30.3,230.7,30.6,229.9,30.6"/>
			<path id="XMLID_280_" class="st11" d="M233.9,27.1c-0.5,0-0.9,0.4-0.9,1h1.9C234.8,27.6,234.6,27.1,233.9,27.1 M235.7,28.8H233
				c0.1,0.8,0.5,1.1,1,1.1c0.3,0,0.6-0.1,0.9-0.3l0.5,0.5c-0.4,0.3-0.8,0.5-1.4,0.5c-0.9,0-1.7-0.8-1.7-2.1c0-1.4,0.7-2.1,1.8-2.1
				c1.1,0,1.7,0.9,1.7,2C235.7,28.6,235.7,28.7,235.7,28.8"/>
			<path id="XMLID_277_" class="st11" d="M208.4,36.4c-0.4,0-0.7,0.3-0.9,0.5v1.7c0.2,0.2,0.5,0.5,0.9,0.5c0.6,0,0.9-0.4,0.9-1.3
				C209.3,36.8,209,36.4,208.4,36.4 M208.5,39.8c-0.4,0-0.8-0.2-1-0.5v1.4l-0.8,0.4v-5.5h0.8v0.4c0.3-0.3,0.6-0.5,1.1-0.5
				c0.9,0,1.5,0.6,1.5,2.2C210.1,39.2,209.4,39.8,208.5,39.8"/>
			<polygon id="XMLID_276_" class="st11" points="211,37.4 211,36.8 213.2,34.8 213.2,35.8 211.7,37.1 213.2,38.4 213.2,39.4 			"/>
			<path id="XMLID_273_" class="st11" d="M218.3,35.1c-0.9,0-1.3,0.9-1.3,2c0,1.1,0.4,2,1.3,2c0.9,0,1.3-0.9,1.3-2
				C219.6,35.9,219.3,35.1,218.3,35.1 M218.3,39.8c-1.4,0-2.1-1.1-2.1-2.8s0.7-2.8,2.1-2.8c1.4,0,2.1,1.1,2.1,2.8
				C220.4,38.7,219.7,39.8,218.3,39.8"/>
			<path id="XMLID_272_" class="st11" d="M221.8,39.8c-0.3,0-0.6-0.3-0.6-0.6c0-0.3,0.3-0.6,0.6-0.6c0.3,0,0.6,0.3,0.6,0.6
				C222.4,39.6,222.2,39.8,221.8,39.8"/>
			<path id="XMLID_269_" class="st11" d="M225.3,35.1c-0.9,0-1.3,0.9-1.3,2c0,1.1,0.4,2,1.3,2c0.9,0,1.3-0.9,1.3-2
				C226.7,35.9,226.3,35.1,225.3,35.1 M225.3,39.8c-1.4,0-2.1-1.1-2.1-2.8s0.7-2.8,2.1-2.8c1.4,0,2.1,1.1,2.1,2.8
				C227.5,38.7,226.7,39.8,225.3,39.8"/>
			<path id="XMLID_266_" class="st11" d="M230.4,35.1c-0.9,0-1.3,0.9-1.3,2c0,1.1,0.4,2,1.3,2c0.9,0,1.3-0.9,1.3-2
				C231.7,35.9,231.4,35.1,230.4,35.1 M230.4,39.8c-1.4,0-2.1-1.1-2.1-2.8s0.7-2.8,2.1-2.8c1.4,0,2.1,1.1,2.1,2.8
				C232.5,38.7,231.8,39.8,230.4,39.8"/>
			<path id="XMLID_265_" class="st11" d="M234.1,39.7v-4.1h-1v-0.6c0.6,0,1-0.2,1.1-0.7h0.7v5.4H234.1z"/>
		</g>
		<g id="XMLID_226_">
			<path id="XMLID_263_" class="st11" d="M298.9,21.3v-4.1h-1v-0.6c0.6,0,1-0.2,1.1-0.7h0.7v5.4H298.9z"/>
			<path id="XMLID_262_" class="st11" d="M302.6,21.3h-0.8c0-1.9,0.7-3.3,1.7-4.6h-2.8V16h3.8v0.8C303.5,17.8,302.6,19.3,302.6,21.3
				"/>
			<path id="XMLID_256_" class="st11" d="M310.8,18.8c-0.4,0-0.6,0.4-0.6,1c0,0.6,0.2,1,0.6,1s0.6-0.4,0.6-1
				C311.4,19.2,311.2,18.8,310.8,18.8 M310.8,21.4c-0.8,0-1.3-0.7-1.3-1.7c0-1,0.5-1.7,1.3-1.7c0.8,0,1.3,0.7,1.3,1.7
				C312.1,20.7,311.6,21.4,310.8,21.4 M307.5,21.3h-0.8L310,16h0.8L307.5,21.3z M306.7,16.6c-0.4,0-0.6,0.4-0.6,1c0,0.6,0.2,1,0.6,1
				c0.4,0,0.6-0.4,0.6-1C307.3,16.9,307.1,16.6,306.7,16.6 M306.7,19.2c-0.8,0-1.3-0.7-1.3-1.7c0-1,0.5-1.7,1.3-1.7
				c0.8,0,1.3,0.7,1.3,1.7S307.5,19.2,306.7,19.2"/>
			<rect id="XMLID_255_" x="291.7" y="25.2" class="st11" width="0.8" height="5.4"/>
			<path id="XMLID_254_" class="st11" d="M296.3,30.5v-2.3c0-0.8-0.3-1.1-0.8-1.1c-0.5,0-0.8,0.4-0.8,1v2.4h-0.8v-4h0.8v0.4
				c0.2-0.3,0.6-0.5,1-0.5c0.9,0,1.4,0.6,1.4,1.8v2.3H296.3z"/>
			<path id="XMLID_253_" class="st11" d="M300.8,27.7c-0.3-0.3-0.6-0.5-1-0.5c-0.6,0-0.9,0.5-0.9,1.3c0,0.8,0.3,1.4,1,1.4
				c0.4,0,0.6-0.2,0.9-0.5l0.5,0.5c-0.3,0.4-0.7,0.8-1.4,0.8c-1,0-1.7-0.8-1.7-2.1c0-1.3,0.8-2.1,1.8-2.1c0.6,0,1.1,0.2,1.4,0.7
				L300.8,27.7z"/>
			<path id="XMLID_252_" class="st11" d="M304.4,27.4c-0.2-0.1-0.3-0.1-0.6-0.1c-0.5,0-0.8,0.4-0.8,1v2.3h-0.8v-4h0.8v0.4
				c0.2-0.3,0.5-0.5,0.9-0.5c0.3,0,0.5,0.1,0.7,0.2L304.4,27.4z"/>
			<path id="XMLID_249_" class="st11" d="M307,27.1c-0.5,0-0.9,0.4-0.9,1h1.9C307.9,27.6,307.6,27.1,307,27.1 M308.7,28.8H306
				c0.1,0.8,0.5,1.1,1,1.1c0.3,0,0.6-0.1,0.9-0.3l0.5,0.5c-0.4,0.3-0.8,0.5-1.4,0.5c-0.9,0-1.7-0.8-1.7-2.1c0-1.4,0.7-2.1,1.8-2.1
				c1.1,0,1.7,0.9,1.7,2C308.7,28.6,308.7,28.7,308.7,28.8"/>
			<path id="XMLID_246_" class="st11" d="M312,28.8c-0.2-0.1-0.5-0.2-0.9-0.2c-0.5,0-0.8,0.2-0.8,0.6c0,0.4,0.3,0.7,0.8,0.7
				c0.4,0,0.8-0.3,1-0.5V28.8z M312,30.5v-0.4c-0.3,0.3-0.7,0.5-1.1,0.5c-0.7,0-1.4-0.4-1.4-1.4c0-0.9,0.7-1.3,1.6-1.3
				c0.4,0,0.7,0.1,0.9,0.2v-0.3c0-0.4-0.3-0.7-0.8-0.7c-0.4,0-0.7,0.1-1.1,0.3l-0.3-0.6c0.4-0.2,0.8-0.4,1.4-0.4
				c0.9,0,1.5,0.4,1.5,1.3v2.8H312z"/>
			<path id="XMLID_245_" class="st11" d="M315.2,30.6c-0.5,0-1.1-0.2-1.5-0.5l0.4-0.6c0.4,0.3,0.8,0.4,1.2,0.4
				c0.5,0,0.7-0.2,0.7-0.4c0-0.3-0.4-0.5-0.9-0.7c-0.9-0.3-1.2-0.6-1.2-1.3c0-0.7,0.6-1.1,1.4-1.1c0.5,0,1,0.2,1.4,0.4l-0.3,0.6
				c-0.3-0.2-0.7-0.3-1-0.3c-0.4,0-0.6,0.2-0.6,0.4c0,0.2,0.1,0.3,0.7,0.6c0.9,0.3,1.4,0.6,1.4,1.4C316.7,30.3,316,30.6,315.2,30.6"
				/>
			<path id="XMLID_242_" class="st11" d="M319.3,27.1c-0.5,0-0.9,0.4-0.9,1h1.9C320.2,27.6,319.9,27.1,319.3,27.1 M321,28.8h-2.7
				c0.1,0.8,0.5,1.1,1,1.1c0.3,0,0.6-0.1,0.9-0.3l0.5,0.5c-0.4,0.3-0.8,0.5-1.4,0.5c-0.9,0-1.7-0.8-1.7-2.1c0-1.4,0.7-2.1,1.8-2.1
				c1.1,0,1.7,0.9,1.7,2C321,28.6,321,28.7,321,28.8"/>
			<path id="XMLID_239_" class="st11" d="M293.8,36.4c-0.4,0-0.7,0.3-0.9,0.5v1.7c0.2,0.2,0.5,0.5,0.9,0.5c0.6,0,0.9-0.4,0.9-1.3
				C294.7,36.8,294.3,36.4,293.8,36.4 M293.9,39.8c-0.4,0-0.8-0.2-1-0.5v1.4l-0.8,0.4v-5.5h0.8v0.4c0.3-0.3,0.6-0.5,1.1-0.5
				c0.9,0,1.5,0.6,1.5,2.2C295.5,39.2,294.7,39.8,293.9,39.8"/>
			<polygon id="XMLID_238_" class="st11" points="296.3,37.4 296.3,36.8 298.5,34.8 298.5,35.8 297,37.1 298.5,38.4 298.5,39.4 			
				"/>
			<path id="XMLID_235_" class="st11" d="M303.6,35.1c-0.9,0-1.3,0.9-1.3,2c0,1.1,0.4,2,1.3,2c0.9,0,1.3-0.9,1.3-2
				C305,35.9,304.6,35.1,303.6,35.1 M303.6,39.8c-1.4,0-2.1-1.1-2.1-2.8s0.7-2.8,2.1-2.8c1.4,0,2.1,1.1,2.1,2.8
				C305.8,38.7,305,39.8,303.6,39.8"/>
			<path id="XMLID_234_" class="st11" d="M307.2,39.8c-0.3,0-0.6-0.3-0.6-0.6c0-0.3,0.3-0.6,0.6-0.6c0.3,0,0.6,0.3,0.6,0.6
				C307.8,39.6,307.5,39.8,307.2,39.8"/>
			<path id="XMLID_231_" class="st11" d="M310.7,35.1c-0.9,0-1.3,0.9-1.3,2c0,1.1,0.4,2,1.3,2c0.9,0,1.3-0.9,1.3-2
				C312,35.9,311.6,35.1,310.7,35.1 M310.7,39.8c-1.4,0-2.1-1.1-2.1-2.8s0.7-2.8,2.1-2.8c1.4,0,2.1,1.1,2.1,2.8
				C312.8,38.7,312.1,39.8,310.7,39.8"/>
			<path id="XMLID_228_" class="st11" d="M315.7,35.1c-0.9,0-1.3,0.9-1.3,2c0,1.1,0.4,2,1.3,2c0.9,0,1.3-0.9,1.3-2
				C317.1,35.9,316.7,35.1,315.7,35.1 M315.7,39.8c-1.4,0-2.1-1.1-2.1-2.8s0.7-2.8,2.1-2.8c1.4,0,2.1,1.1,2.1,2.8
				C317.9,38.7,317.1,39.8,315.7,39.8"/>
			<path id="XMLID_227_" class="st11" d="M319.4,39.7v-4.1h-1v-0.6c0.6,0,1-0.2,1.1-0.7h0.7v5.4H319.4z"/>
		</g>
		<polyline id="XMLID_225_" class="st12" points="88.1,7.3 88.1,202.8 365.7,202.8 		"/>
		<path id="XMLID_224_" class="st5" d="M326.3,185.9"/>
		<path id="XMLID_223_" class="st5" d="M87.3,183.1"/>
		<path id="XMLID_222_" class="st5" d="M87,163.8"/>
		<path id="XMLID_221_" class="st5" d="M87.2,142.8"/>
		<path id="XMLID_220_" class="st5" d="M87.1,124.1"/>
		<path id="XMLID_219_" class="st5" d="M87.2,104.1"/>
		<path id="XMLID_218_" class="st5" d="M87.2,85"/>
		<path id="XMLID_217_" class="st5" d="M87.2,64.4"/>
		<path id="XMLID_216_" class="st5" d="M87.2,27.2"/>
		<path id="XMLID_215_" class="st5" d="M87.2,45.7"/>
		<path id="XMLID_214_" class="st5" d="M265.5,202.3"/>
		<path id="XMLID_213_" class="st5" d="M176.9,203.3"/>
		<path id="XMLID_210_" class="st11" d="M76.1,200.3c-1.4,0-1.9,1.3-1.9,3c0,1.7,0.6,3,2,3c1.4,0,1.9-1.3,1.9-3
			C78.1,201.6,77.5,200.3,76.1,200.3 M76.1,207.5c-2.1,0-3.2-1.7-3.2-4.1c0-2.4,1.1-4.2,3.2-4.2c2.1,0,3.2,1.7,3.2,4.1
			C79.3,205.7,78.2,207.5,76.1,207.5"/>
		<path id="XMLID_209_" class="st11" d="M65.8,169.5h-1.2c0-2.8,1-4.9,2.5-6.9h-4.2v-1.2h5.6v1.2C67.1,164.2,65.8,166.5,65.8,169.5"
			/>
		<path id="XMLID_206_" class="st11" d="M73.1,162.5c-1.4,0-1.9,1.3-1.9,3c0,1.7,0.6,3,2,3c1.4,0,1.9-1.3,1.9-3
			S74.6,162.5,73.1,162.5 M73.1,169.6c-2.1,0-3.2-1.7-3.2-4.1c0-2.4,1.1-4.2,3.2-4.2c2.1,0,3.2,1.7,3.2,4.1
			C76.3,167.9,75.2,169.6,73.1,169.6"/>
		<path id="XMLID_205_" class="st11" d="M66.2,130.7H65c0-2.8,1-4.9,2.5-6.9h-4.2v-1.2h5.6v1.2C67.5,125.4,66.2,127.7,66.2,130.7"/>
		<path id="XMLID_204_" class="st11" d="M73.2,130.8c-1,0-1.9-0.2-2.8-0.8l0.6-1c0.7,0.4,1.5,0.6,2.2,0.6c1.2,0,1.9-0.6,1.9-1.6
			c0-1-0.6-1.4-1.6-1.4c-0.7,0-1.1,0.2-1.5,0.5l-1.3-0.5l0.3-3.9h4.9v1.1H72l-0.2,2c0.4-0.3,1-0.4,1.7-0.4c1.8,0,2.8,1.1,2.8,2.5
			C76.4,129.9,75.1,130.8,73.2,130.8"/>
		<path id="XMLID_200_" class="st11" d="M65.1,85.9c-1.2,0-1.6,0.5-1.6,1.1c0,0.6,0.6,1.1,1.6,1.1c1,0,1.6-0.5,1.6-1.1
			C66.7,86.4,66.3,85.9,65.1,85.9 M65.1,89.2c-1.3,0-1.9,0.5-1.9,1.3c0,0.8,0.7,1.4,1.9,1.4c1.3,0,1.9-0.5,1.9-1.3
			C67.1,89.8,66.5,89.2,65.1,89.2 M65.1,93c-1.9,0-3.1-0.9-3.1-2.5c0-1,0.5-1.7,1.4-2c-0.8-0.3-1.1-1.1-1.1-1.5
			c0-1.5,1.3-2.3,2.8-2.3c1.4,0,2.8,0.7,2.8,2.2c0,0.5-0.3,1.2-1.1,1.6c0.9,0.3,1.4,1,1.4,2C68.3,92.2,67,93,65.1,93"/>
		<path id="XMLID_197_" class="st11" d="M72.8,85.9c-1.4,0-1.9,1.3-1.9,3c0,1.7,0.6,3,2,3c1.4,0,1.9-1.3,1.9-3
			C74.7,87.2,74.2,85.9,72.8,85.9 M72.8,93c-2.1,0-3.2-1.7-3.2-4.1s1.1-4.1,3.2-4.1c2.1,0,3.2,1.7,3.2,4.1
			C75.9,91.3,74.8,93,72.8,93"/>
		<path id="XMLID_193_" class="st11" d="M65.5,45.5c-1.2,0-1.6,0.5-1.6,1.1c0,0.6,0.6,1.1,1.6,1.1c1,0,1.6-0.5,1.6-1.1
			C67.2,46.1,66.7,45.5,65.5,45.5 M65.5,48.9c-1.3,0-1.9,0.5-1.9,1.3c0,0.8,0.7,1.4,1.9,1.4c1.3,0,1.9-0.6,1.9-1.3
			C67.5,49.4,66.9,48.9,65.5,48.9 M65.5,52.7c-1.9,0-3.1-0.9-3.1-2.5c0-1,0.5-1.7,1.4-2c-0.8-0.3-1.1-1.1-1.1-1.5
			c0-1.5,1.2-2.3,2.8-2.3c1.4,0,2.8,0.7,2.8,2.2c0,0.5-0.3,1.2-1.1,1.6c0.9,0.3,1.4,1,1.4,2C68.7,51.8,67.5,52.7,65.5,52.7"/>
		<path id="XMLID_192_" class="st11" d="M72.8,52.7c-1,0-1.9-0.2-2.8-0.8l0.6-1c0.7,0.4,1.5,0.6,2.2,0.6c1.2,0,1.9-0.6,1.9-1.6
			c0-1-0.6-1.4-1.6-1.4c-0.7,0-1.1,0.2-1.5,0.5l-1.3-0.5l0.3-3.9h4.9v1.1h-3.9l-0.2,2c0.4-0.3,1-0.4,1.7-0.4c1.8,0,2.8,1.1,2.8,2.5
			C76,51.8,74.7,52.7,72.8,52.7"/>
		<path id="XMLID_189_" class="st11" d="M65.5,7.3c-1.2,0-1.9,0.6-1.9,1.5c0,1,0.7,1.4,1.8,1.4c1.2,0,1.9-0.5,1.9-1.4
			C67.3,8,66.7,7.3,65.5,7.3 M63.5,14.4v-1.1c1.8-0.1,3.1-0.9,3.6-2.6c-0.6,0.4-1.1,0.6-2.1,0.6c-1.5,0-2.7-0.8-2.7-2.5
			c0-1.8,1.4-2.7,3.1-2.7c1.7,0,3,0.9,3,3.2C68.5,11.4,67.3,14.3,63.5,14.4"/>
		<path id="XMLID_186_" class="st11" d="M72.9,7.3c-1.4,0-1.9,1.3-1.9,3c0,1.7,0.6,3,2,3c1.4,0,1.9-1.3,1.9-3
			C74.9,8.6,74.3,7.3,72.9,7.3 M72.9,14.4c-2.1,0-3.2-1.7-3.2-4.1c0-2.4,1.1-4.2,3.2-4.2c2.1,0,3.2,1.7,3.2,4.1
			C76.1,12.7,75,14.4,72.9,14.4"/>
		<path id="XMLID_184_" class="st11" d="M217.8,19.2v5.2"/>
		<path id="XMLID_181_" class="st11" d="M25.2,196.8v2.8h3.6v-2.8c0-1.2-0.7-1.8-1.8-1.8C25.9,195,25.2,195.7,25.2,196.8
			 M30.4,196.9v2.8h3.9v1.6H23.8v-4.4c0-1.9,1.1-3.4,3.3-3.4C29.2,193.4,30.4,194.9,30.4,196.9"/>
		<path id="XMLID_180_" class="st11" d="M28,187.3c-0.2,0.3-0.3,0.7-0.3,1.2c0,1,0.7,1.6,2,1.6h4.5v1.6h-7.9v-1.6h0.8
			c-0.5-0.4-0.9-1-0.9-1.8c0-0.6,0.1-1,0.3-1.3L28,187.3z"/>
		<path id="XMLID_177_" class="st11" d="M27.7,182.2c0,1.2,1,1.9,2.6,1.9c1.7,0,2.7-0.8,2.7-2c0-1.2-1.2-1.9-2.6-1.9
			C28.7,180.2,27.7,181,27.7,182.2 M34.5,182.2c0,2-1.6,3.5-4.1,3.5c-2.6,0-4.1-1.5-4.1-3.5c0-2,1.6-3.5,4.1-3.5
			C32.9,178.6,34.5,180.2,34.5,182.2"/>
		<path id="XMLID_174_" class="st11" d="M27.7,173.4c0,0.7,0.5,1.4,1,1.8H32c0.5-0.3,1-1.1,1-1.9c0-1.1-0.8-1.7-2.5-1.7
			C28.5,171.6,27.7,172.2,27.7,173.4 M34.5,173.2c0,0.8-0.4,1.6-0.9,2h2.9l0.8,1.5H26.4v-1.5h0.8c-0.5-0.6-0.9-1.2-0.9-2.1
			c0-1.7,1.2-3.1,4.3-3.1C33.2,170,34.5,171.5,34.5,173.2"/>
		<path id="XMLID_171_" class="st11" d="M27.7,165c0,1.2,1,1.9,2.6,1.9c1.7,0,2.7-0.8,2.7-2s-1.2-1.9-2.6-1.9
			C28.7,163,27.7,163.8,27.7,165 M34.5,165c0,2-1.6,3.5-4.1,3.5c-2.6,0-4.1-1.5-4.1-3.5c0-2,1.6-3.5,4.1-3.5
			C32.9,161.4,34.5,163,34.5,165"/>
		<path id="XMLID_168_" class="st11" d="M27.6,156.5c0,1,0.7,1.7,2,1.8v-3.7C28.5,154.7,27.6,155.2,27.6,156.5 M30.9,153.1v5.2
			c1.5-0.2,2.2-1,2.2-2c0-0.7-0.2-1.2-0.6-1.7l1-0.9c0.7,0.7,1,1.5,1,2.7c0,1.9-1.5,3.4-4.1,3.4c-2.7,0-4.1-1.4-4.1-3.5
			c0-2.2,1.8-3.3,4-3.3C30.5,153.1,30.7,153.1,30.9,153.1"/>
		<path id="XMLID_167_" class="st11" d="M34.1,147.4c0.2,0.4,0.4,0.9,0.4,1.5c0,1.1-0.7,1.8-2.1,1.8h-4.6v1.1h-1.4v-1.1h-2.3
			l-0.8-1.5h3.1v-2h1.4v2h4.3c0.7,0,1-0.2,1-0.8c0-0.4-0.2-0.9-0.3-1.1L34.1,147.4z"/>
		<path id="XMLID_164_" class="st11" d="M34.3,145h-7.9v-1.6h7.9V145z M25.4,144.2c0,0.6-0.5,1-1,1c-0.6,0-1-0.5-1-1
			c0-0.5,0.5-1,1-1C24.9,143.2,25.4,143.7,25.4,144.2"/>
		<path id="XMLID_161_" class="st11" d="M27.7,138c0,1.2,1,1.9,2.6,1.9c1.7,0,2.7-0.8,2.7-2c0-1.2-1.2-1.9-2.6-1.9
			C28.7,136,27.7,136.7,27.7,138 M34.5,138c0,2-1.6,3.5-4.1,3.5c-2.6,0-4.1-1.5-4.1-3.5c0-2,1.6-3.5,4.1-3.5
			C32.9,134.4,34.5,135.9,34.5,138"/>
		<path id="XMLID_160_" class="st11" d="M34.3,127.7h-4.5c-1.6,0-2.2,0.6-2.2,1.6c0,1,0.7,1.6,2,1.6h4.6v1.6h-7.9v-1.6h0.8
			c-0.6-0.4-0.9-1.2-0.9-2c0-1.8,1.2-2.8,3.5-2.8h4.5V127.7z"/>
		<path id="XMLID_157_" class="st11" d="M27.7,116.7c0,1.2,1,1.9,2.6,1.9c1.7,0,2.7-0.8,2.7-2c0-1.2-1.2-1.9-2.6-1.9
			C28.7,114.7,27.7,115.5,27.7,116.7 M34.5,116.7c0,2-1.6,3.5-4.1,3.5c-2.6,0-4.1-1.5-4.1-3.5c0-2,1.6-3.5,4.1-3.5
			C32.9,113.1,34.5,114.7,34.5,116.7"/>
		<path id="XMLID_156_" class="st11" d="M24.7,108.4c0,0.5,0.2,0.7,0.8,0.7h0.9v-1.5h1.4v1.5h6.5v1.6h-6.5v1h-1.4v-1h-1
			c-1.4,0-2-0.9-2-2c0-0.4,0.1-0.8,0.2-1.2h1.4C24.8,107.8,24.7,108.1,24.7,108.4"/>
		<path id="XMLID_155_" class="st11" d="M34.5,99.1c0,1.1-0.4,2.2-1,3l-1.2-0.7c0.5-0.7,0.8-1.6,0.8-2.3c0-1-0.3-1.4-0.9-1.4
			c-0.6,0-0.9,0.7-1.3,1.8c-0.7,1.7-1.2,2.3-2.5,2.3c-1.4,0-2.2-1.1-2.2-2.7c0-1,0.4-2,0.9-2.7l1.2,0.7c-0.5,0.6-0.7,1.3-0.7,2.1
			s0.3,1.1,0.7,1.1c0.4,0,0.7-0.3,1.1-1.5c0.7-1.8,1.2-2.7,2.7-2.7C33.9,96.1,34.5,97.5,34.5,99.1"/>
		<path id="XMLID_152_" class="st11" d="M27.6,91.1c0,1,0.7,1.7,2,1.8v-3.7C28.5,89.4,27.6,89.9,27.6,91.1 M30.9,87.8V93
			c1.5-0.2,2.2-1,2.2-2c0-0.7-0.2-1.2-0.6-1.7l1-0.9c0.7,0.7,1,1.5,1,2.7c0,1.9-1.5,3.4-4.1,3.4c-2.7,0-4.1-1.4-4.1-3.5
			c0-2.2,1.8-3.3,4-3.3C30.5,87.7,30.7,87.7,30.9,87.8"/>
		<path id="XMLID_149_" class="st11" d="M34.3,85.7h-7.9v-1.6h7.9V85.7z M25.4,84.9c0,0.6-0.5,1-1,1c-0.6,0-1-0.5-1-1
			c0-0.5,0.5-1,1-1C24.9,83.9,25.4,84.4,25.4,84.9"/>
		<path id="XMLID_148_" class="st11" d="M34.3,82.1H33l-4.1-3.4c-0.4-0.3-0.9-0.7-1.1-0.9c0,0.3,0,1,0,1.4v2.6h-1.4v-5.8h1.3
			l4.1,3.3c0.4,0.3,0.9,0.7,1.2,1c0-0.3,0-1.1,0-1.4v-2.8h1.4V82.1z"/>
		<path id="XMLID_147_" class="st11" d="M34.3,69.1h-0.8c0.6,0.4,0.9,1.2,0.9,2c0,1.8-1.2,2.8-3.5,2.8h-4.5v-1.6h4.5
			c1.6,0,2.2-0.6,2.2-1.6c0-1-0.7-1.6-2-1.6h-4.6v-1.6h7.9V69.1z"/>
		<path id="XMLID_146_" class="st11" d="M28,60.9c-0.2,0.3-0.3,0.7-0.3,1.2c0,1,0.7,1.6,2,1.6h4.5v1.6h-7.9v-1.6h0.8
			c-0.5-0.4-0.9-1-0.9-1.8c0-0.6,0.1-1,0.3-1.3L28,60.9z"/>
		<path id="XMLID_143_" class="st11" d="M27.6,55.9c0,1,0.7,1.7,2,1.8v-3.7C28.5,54.1,27.6,54.7,27.6,55.9 M30.9,52.5v5.2
			c1.5-0.2,2.2-1,2.2-2c0-0.7-0.2-1.2-0.6-1.7l1-0.9c0.7,0.7,1,1.5,1,2.7c0,1.9-1.5,3.4-4.1,3.4c-2.7,0-4.1-1.4-4.1-3.5
			c0-2.2,1.8-3.3,4-3.3C30.5,52.5,30.7,52.5,30.9,52.5"/>
		<rect id="XMLID_142_" x="28" y="47.1" class="st11" width="1.5" height="3.8"/>
		<path id="XMLID_141_" class="st11" d="M24.7,42.3c0,0.5,0.2,0.7,0.8,0.7h0.9v-1.5h1.4v1.5h6.5v1.6h-6.5v1h-1.4v-1h-1
			c-1.4,0-2-0.9-2-2c0-0.4,0.1-0.8,0.2-1.2h1.4C24.8,41.8,24.7,42.1,24.7,42.3"/>
		<path id="XMLID_140_" class="st11" d="M28,35.4c-0.2,0.3-0.3,0.7-0.3,1.2c0,1,0.7,1.6,2,1.6h4.5v1.6h-7.9v-1.6h0.8
			c-0.5-0.4-0.9-1-0.9-1.8c0-0.6,0.1-1,0.3-1.3L28,35.4z"/>
		<path id="XMLID_137_" class="st11" d="M27.6,30.4c0,1,0.7,1.7,2,1.8v-3.7C28.5,28.6,27.6,29.1,27.6,30.4 M30.9,27v5.2
			c1.5-0.2,2.2-1,2.2-2c0-0.7-0.2-1.2-0.6-1.7l1-0.9c0.7,0.7,1,1.5,1,2.7c0,1.9-1.5,3.4-4.1,3.4c-2.7,0-4.1-1.4-4.1-3.5
			c0-2.2,1.8-3.3,4-3.3C30.5,26.9,30.7,27,30.9,27"/>
		<path id="XMLID_134_" class="st11" d="M27.6,22c0,1,0.7,1.7,2,1.8v-3.7C28.5,20.2,27.6,20.7,27.6,22 M30.9,18.6v5.2
			c1.5-0.2,2.2-1,2.2-2c0-0.7-0.2-1.2-0.6-1.7l1-0.9c0.7,0.7,1,1.5,1,2.7c0,1.9-1.5,3.4-4.1,3.4c-2.7,0-4.1-1.4-4.1-3.5
			c0-2.2,1.8-3.3,4-3.3C30.5,18.6,30.7,18.6,30.9,18.6"/>
		<path id="XMLID_131_" class="st11" d="M45.8,149.3c0,0.7,0.5,1.4,1,1.8h3.3c0.5-0.3,1-1.1,1-1.9c0-1.1-0.8-1.7-2.5-1.7
			C46.6,147.5,45.8,148.1,45.8,149.3 M52.6,149c0,0.8-0.4,1.6-0.9,2h2.9l0.8,1.5H44.5V151h0.8c-0.5-0.6-0.9-1.2-0.9-2.1
			c0-1.7,1.2-3,4.3-3C51.3,145.9,52.6,147.4,52.6,149"/>
		<path id="XMLID_128_" class="st11" d="M49,139.4c-0.2,0.4-0.3,1-0.3,1.8c0,1,0.5,1.6,1.2,1.6c0.8,0,1.3-0.5,1.3-1.5
			c0-0.8-0.5-1.6-1-1.9H49z M52.4,139.4h-0.8c0.5,0.5,0.9,1.3,0.9,2.2c0,1.3-0.7,2.7-2.7,2.7c-1.8,0-2.6-1.4-2.6-3.2
			c0-0.7,0.1-1.3,0.3-1.8h-0.6c-0.9,0-1.3,0.5-1.3,1.5c0,0.8,0.2,1.4,0.5,2.1l-1.2,0.6c-0.5-0.8-0.7-1.6-0.7-2.7c0-1.8,0.9-3,2.7-3
			h5.4V139.4z"/>
		<path id="XMLID_127_" class="st11" d="M52.2,131.9c0.2,0.4,0.4,0.9,0.4,1.5c0,1.1-0.7,1.8-2.1,1.8h-4.6v1.1h-1.4v-1.1h-2.3
			l-0.8-1.5h3.1v-2h1.4v2h4.3c0.7,0,1-0.2,1-0.8c0-0.4-0.2-0.9-0.3-1.1L52.2,131.9z"/>
		<path id="XMLID_124_" class="st11" d="M52.4,129.5h-7.9V128h7.9V129.5z M43.5,128.7c0,0.6-0.5,1-1,1c-0.6,0-1-0.5-1-1
			c0-0.5,0.5-1,1-1C43,127.7,43.5,128.2,43.5,128.7"/>
		<path id="XMLID_121_" class="st11" d="M45.7,122.6c0,1,0.7,1.7,2,1.8v-3.7C46.6,120.8,45.7,121.3,45.7,122.6 M49,119.2v5.2
			c1.5-0.2,2.2-1,2.2-2c0-0.7-0.2-1.2-0.6-1.7l1-0.9c0.7,0.7,1,1.5,1,2.7c0,1.9-1.5,3.4-4.1,3.4c-2.7,0-4.1-1.4-4.1-3.5
			c0-2.2,1.8-3.3,4-3.3C48.6,119.2,48.8,119.2,49,119.2"/>
		<path id="XMLID_120_" class="st11" d="M52.4,112.4h-4.5c-1.6,0-2.2,0.6-2.2,1.6c0,1,0.7,1.6,2,1.6h4.6v1.6h-7.9v-1.6h0.8
			c-0.6-0.4-0.9-1.2-0.9-2c0-1.8,1.2-2.8,3.5-2.8h4.5V112.4z"/>
		<path id="XMLID_119_" class="st11" d="M52.2,104.9c0.2,0.4,0.4,0.9,0.4,1.5c0,1.1-0.7,1.8-2.1,1.8h-4.6v1.1h-1.4v-1.1h-2.3
			l-0.8-1.5h3.1v-2h1.4v2h4.3c0.7,0,1-0.2,1-0.8c0-0.4-0.2-0.9-0.3-1.1L52.2,104.9z"/>
		<path id="XMLID_118_" class="st11" d="M52.6,100c0,1.1-0.4,2.2-1,3l-1.2-0.7c0.5-0.7,0.8-1.6,0.8-2.3c0-1-0.3-1.4-0.9-1.4
			c-0.6,0-0.9,0.7-1.3,1.8c-0.7,1.7-1.2,2.3-2.5,2.3c-1.4,0-2.2-1.1-2.2-2.7c0-1,0.4-2,0.9-2.7l1.2,0.7c-0.5,0.6-0.7,1.3-0.7,2.1
			c0,0.8,0.3,1.1,0.7,1.1c0.4,0,0.7-0.3,1.1-1.5c0.7-1.8,1.2-2.7,2.7-2.7C52,97,52.6,98.4,52.6,100"/>
		<path id="XMLID_117_" class="st11" d="M54.1,88.3c-1.4,1.5-3.5,2.9-6.2,2.9c-2.8,0-4.8-1.4-6.3-2.9l0.7-0.8
			c1.5,1.3,3.2,2.1,5.5,2.1c2.5,0,4.1-0.8,5.6-2.1L54.1,88.3z"/>
		<path id="XMLID_111_" class="st11" d="M47.3,75.4c0,0.8,0.8,1.2,2,1.2c1.2,0,2-0.5,2-1.3c0-0.8-0.9-1.2-2-1.2
			C48.1,74.1,47.3,74.6,47.3,75.4 M52.6,75.4c0,1.5-1.3,2.6-3.3,2.6c-1.9,0-3.3-1-3.3-2.6c0-1.6,1.4-2.6,3.3-2.6
			C51.2,72.8,52.6,73.9,52.6,75.4 M43,83.4c0,0.8,0.8,1.2,2,1.2c1.2,0,2-0.5,2-1.3c0-0.8-0.9-1.2-2-1.2C43.8,82.2,43,82.6,43,83.4
			 M52.4,81.9v1.5l-10.6-6.5v-1.5L52.4,81.9z M48.3,83.5c0,1.5-1.3,2.6-3.3,2.6c-1.9,0-3.3-1-3.3-2.6c0-1.6,1.4-2.6,3.3-2.6
			C46.9,80.8,48.3,81.9,48.3,83.5"/>
		<path id="XMLID_110_" class="st11" d="M54.1,70.5l-0.7,0.8c-1.5-1.3-3.2-2.1-5.5-2.1c-2.5,0-4.1,0.8-5.6,2.1l-0.7-0.8
			c1.4-1.5,3.5-2.9,6.2-2.9C50.6,67.6,52.6,69,54.1,70.5"/>
		<path id="XMLID_109_" class="st11" d="M149.1,218.5v-6.6h-1.5V211c0.9-0.1,1.6-0.4,1.8-1.1h1v8.6H149.1z"/>
		<path id="XMLID_108_" class="st11" d="M235.1,220.1c0.1-2.5,1.6-3.7,3.3-4.7c1.2-0.7,1.5-1.1,1.5-1.7c0-0.7-0.5-1.1-1.7-1.1
			c-0.7,0-1.5,0.3-2.1,0.9l-0.8-1c0.8-0.7,1.9-1.2,3-1.2c1.8,0,2.9,0.8,2.9,2.4c0,1.3-0.7,1.9-2.2,2.8c-1.7,1-2.1,1.5-2.3,2.4h4.6
			v1.3H235.1z"/>
		<path id="XMLID_107_" class="st11" d="M316.7,220.3c-1.2,0-2.5-0.5-3.1-1.4l1-0.8c0.5,0.7,1.3,1,2.1,1c1.4,0,1.9-0.5,1.9-1.4
			c0-0.9-0.7-1.3-1.6-1.3h-0.8V215h0.8c0.8,0,1.2-0.5,1.2-1.2c0-0.5-0.4-1.2-1.6-1.2c-0.7,0-1.2,0.3-1.7,0.8l-1-0.9
			c0.7-0.8,1.6-1.2,2.7-1.2c1.6,0,2.9,0.8,2.9,2.3c0,1-0.5,1.6-1.1,1.9c0.8,0.2,1.4,0.9,1.4,2C319.9,219.3,318.7,220.3,316.7,220.3"
			/>
		<path id="XMLID_104_" class="st11" d="M200.3,223.7h-0.9v5.4h0.9c1.8,0,2.6-1.1,2.6-2.7C202.9,224.8,202.1,223.7,200.3,223.7
			 M200.3,230.2h-2.1v-7.7h2.1c2.1,0,3.7,1.1,3.7,3.8C204.1,229.1,202.3,230.2,200.3,230.2"/>
		<path id="XMLID_101_" class="st11" d="M208.8,227.8c-0.3-0.2-0.7-0.3-1.3-0.3c-0.7,0-1.2,0.3-1.2,0.9c0,0.6,0.4,1,1.1,1
			c0.6,0,1.1-0.4,1.4-0.7V227.8z M208.8,230.2v-0.6c-0.4,0.4-1,0.7-1.6,0.7c-0.9,0-2-0.5-2-1.9c0-1.3,1-1.9,2.3-1.9
			c0.5,0,1,0.1,1.3,0.2v-0.4c0-0.6-0.4-1-1.1-1c-0.6,0-1.1,0.1-1.5,0.4l-0.4-0.9c0.5-0.3,1.2-0.5,2-0.5c1.3,0,2.2,0.6,2.2,1.9v4
			H208.8z"/>
		<path id="XMLID_100_" class="st11" d="M213.5,232.3h-1.2l0.8-2.1l-2.1-5.7h1.2l0.9,2.8c0.2,0.5,0.4,1.4,0.5,1.7
			c0.1-0.3,0.3-1.2,0.5-1.7l1-2.8h1.2L213.5,232.3z"/>
		<path id="XMLID_99_" class="st11" d="M219.5,230.3c-0.8,0-1.6-0.3-2.2-0.7l0.5-0.9c0.5,0.4,1.1,0.6,1.7,0.6c0.7,0,1.1-0.2,1.1-0.6
			c0-0.4-0.5-0.6-1.3-1c-1.2-0.5-1.7-0.9-1.7-1.8c0-1,0.8-1.6,2-1.6c0.7,0,1.4,0.3,2,0.6l-0.5,0.9c-0.5-0.3-0.9-0.5-1.5-0.5
			c-0.5,0-0.8,0.2-0.8,0.5c0,0.3,0.2,0.5,1.1,0.8c1.3,0.5,1.9,0.8,1.9,1.9C221.7,229.9,220.6,230.3,219.5,230.3"/>
		<path id="XMLID_98_" class="st11" d="M82.5,246.1c-1.1-1-2.1-2.5-2.1-4.5c0-2.1,1-3.5,2.1-4.6l0.6,0.5c-1,1.1-1.5,2.3-1.5,4
			c0,1.8,0.6,3,1.5,4.1L82.5,246.1z"/>
		<path id="XMLID_95_" class="st11" d="M88,240.2c-0.2-0.5-0.5-1.4-0.6-1.8c-0.1,0.3-0.4,1.2-0.6,1.8l-0.6,1.8h2.4L88,240.2z
			 M89.6,244.9L89,243h-3.1l-0.6,1.8h-1.2l2.8-7.7h1.2l2.8,7.7H89.6z"/>
		<path id="XMLID_92_" class="st11" d="M95.7,240.8c-0.3-0.3-0.8-0.8-1.3-0.8c-0.8,0-1.3,0.6-1.3,1.8c0,1.4,0.5,2.1,1.3,2.1
			c0.5,0,1-0.4,1.3-0.7V240.8z M95.7,244.9v-0.5c-0.4,0.4-0.9,0.7-1.5,0.7c-1.2,0-2.2-0.9-2.2-3.1c0-2,1.1-2.9,2.3-2.9
			c0.6,0,1.1,0.3,1.4,0.7v-2.2l1.1-0.6v8H95.7z"/>
		<path id="XMLID_89_" class="st11" d="M100.7,240.1c-0.9,0-1.4,0.8-1.4,1.9c0,1.3,0.6,2,1.4,2c0.9,0,1.4-0.9,1.4-1.9
			C102.2,240.8,101.6,240.1,100.7,240.1 M100.7,245c-1.4,0-2.5-1.2-2.5-3c0-1.9,1.1-3,2.6-3c1.5,0,2.6,1.2,2.6,3
			C103.3,243.9,102.2,245,100.7,245"/>
		<path id="XMLID_86_" class="st11" d="M107.1,240c-0.5,0-1,0.4-1.3,0.7v2.4c0.3,0.3,0.8,0.8,1.3,0.8c0.8,0,1.2-0.6,1.2-1.8
			C108.4,240.7,108,240,107.1,240 M107.3,245c-0.6,0-1.1-0.3-1.4-0.7v2.1l-1.1,0.6v-7.9h1.1v0.5c0.4-0.4,0.9-0.7,1.5-0.7
			c1.2,0,2.2,0.9,2.2,3.1C109.6,244.1,108.5,245,107.3,245"/>
		<path id="XMLID_85_" class="st11" d="M113.7,244.7c-0.3,0.2-0.7,0.3-1.1,0.3c-0.8,0-1.3-0.5-1.3-1.5v-3.3h-0.8v-1h0.8v-1.6
			l1.1-0.6v2.2h1.4v1h-1.4v3.1c0,0.5,0.2,0.7,0.6,0.7c0.3,0,0.6-0.1,0.8-0.2L113.7,244.7z"/>
		<path id="XMLID_82_" class="st11" d="M117.6,240c-0.8,0-1.2,0.5-1.3,1.4h2.7C118.9,240.7,118.5,240,117.6,240 M120,242.4h-3.8
			c0.1,1.1,0.7,1.6,1.4,1.6c0.5,0,0.9-0.2,1.3-0.5l0.7,0.7c-0.5,0.5-1.1,0.8-2,0.8c-1.3,0-2.5-1.1-2.5-3c0-2,1-3,2.5-3
			c1.6,0,2.4,1.3,2.4,2.9C120.1,242.1,120,242.3,120,242.4"/>
		<path id="XMLID_79_" class="st11" d="M125,240.8c-0.3-0.3-0.8-0.8-1.3-0.8c-0.8,0-1.3,0.6-1.3,1.8c0,1.4,0.5,2.1,1.3,2.1
			c0.5,0,1-0.4,1.3-0.7V240.8z M124.9,244.9v-0.5c-0.4,0.4-0.9,0.7-1.5,0.7c-1.2,0-2.2-0.9-2.2-3.1c0-2,1.1-2.9,2.3-2.9
			c0.6,0,1.1,0.3,1.4,0.7v-2.2l1.1-0.6v8H124.9z"/>
		<path id="XMLID_78_" class="st11" d="M132.7,237.9c-0.4,0-0.5,0.1-0.5,0.6v0.7h1.1v1.1h-1.1v4.7h-1.1v-4.7h-0.7v-1.1h0.7v-0.8
			c0-1.1,0.6-1.4,1.5-1.4c0.3,0,0.6,0,0.9,0.1v1C133.1,237.9,132.9,237.9,132.7,237.9"/>
		<path id="XMLID_77_" class="st11" d="M137.8,240.3c-0.2-0.1-0.5-0.2-0.9-0.2c-0.7,0-1.1,0.5-1.1,1.5v3.3h-1.1v-5.8h1.1v0.5
			c0.3-0.4,0.7-0.7,1.3-0.7c0.5,0,0.7,0.1,1,0.2L137.8,240.3z"/>
		<path id="XMLID_74_" class="st11" d="M141.5,240.1c-0.9,0-1.4,0.8-1.4,1.9c0,1.3,0.6,2,1.4,2c0.9,0,1.4-0.9,1.4-1.9
			C143,240.8,142.4,240.1,141.5,240.1 M141.5,245c-1.4,0-2.5-1.2-2.5-3c0-1.9,1.1-3,2.6-3c1.5,0,2.6,1.2,2.6,3
			C144.1,243.9,143,245,141.5,245"/>
		<path id="XMLID_73_" class="st11" d="M152.2,244.9v-3.3c0-1.2-0.4-1.6-1.1-1.6c-0.8,0-1.1,0.5-1.1,1.5v3.4h-1.1v-3.3
			c0-1.2-0.4-1.6-1.1-1.6c-0.8,0-1.1,0.5-1.1,1.5v3.4h-1.1v-5.8h1.1v0.5c0.3-0.4,0.8-0.7,1.4-0.7c0.8,0,1.3,0.3,1.6,0.8
			c0.4-0.5,0.9-0.8,1.8-0.8c1.3,0,2,0.9,2,2.6v3.3H152.2z"/>
		<path id="XMLID_72_" class="st11" d="M160,245c-1.4,0-2.3-0.8-2.7-2l1.1-0.3c0.3,0.8,0.8,1.2,1.6,1.2c1.1,0,1.5-0.6,1.5-2.1v-4.6
			h1.2v4.7C162.7,243.9,161.9,245,160,245"/>
		<path id="XMLID_71_" class="st11" d="M165.1,245c-0.5,0-0.9-0.4-0.9-0.9c0-0.5,0.4-0.9,0.9-0.9c0.5,0,0.9,0.4,0.9,0.9
			C166,244.6,165.6,245,165.1,245"/>
		<polygon id="XMLID_70_" class="st11" points="171.6,238.3 171.6,240.3 173.8,240.3 173.8,241.5 171.6,241.5 171.6,244.9 
			170.4,244.9 170.4,237.2 175.4,237.2 175.4,238.3 		"/>
		<path id="XMLID_69_" class="st11" d="M179.8,240.3c-0.2-0.1-0.5-0.2-0.9-0.2c-0.7,0-1.1,0.5-1.1,1.5v3.3h-1.1v-5.8h1.1v0.5
			c0.3-0.4,0.7-0.7,1.3-0.7c0.5,0,0.7,0.1,1,0.2L179.8,240.3z"/>
		<path id="XMLID_66_" class="st11" d="M183.4,240c-0.8,0-1.2,0.5-1.3,1.4h2.7C184.7,240.7,184.3,240,183.4,240 M185.9,242.4h-3.8
			c0.1,1.1,0.7,1.6,1.4,1.6c0.5,0,0.9-0.2,1.3-0.5l0.7,0.7c-0.5,0.5-1.1,0.8-2,0.8c-1.3,0-2.5-1.1-2.5-3c0-2,1-3,2.5-3
			c1.6,0,2.4,1.3,2.4,2.9C185.9,242.1,185.9,242.3,185.9,242.4"/>
		<path id="XMLID_65_" class="st11" d="M190.8,244.9v-3.3c0-1.2-0.4-1.6-1.2-1.6c-0.8,0-1.2,0.5-1.2,1.5v3.4h-1.1v-5.8h1.1v0.5
			c0.3-0.4,0.9-0.7,1.4-0.7c1.3,0,2.1,0.9,2.1,2.6v3.3H190.8z"/>
		<path id="XMLID_64_" class="st11" d="M197.2,240.8c-0.5-0.5-0.9-0.7-1.4-0.7c-0.8,0-1.3,0.7-1.3,1.9c0,1.1,0.5,1.9,1.4,1.9
			c0.5,0,0.9-0.2,1.3-0.7l0.7,0.7c-0.5,0.6-1,1.1-2.1,1.1c-1.4,0-2.5-1.2-2.5-3c0-1.9,1.1-3,2.5-3c0.8,0,1.5,0.3,2,1L197.2,240.8z"
			/>
		<path id="XMLID_63_" class="st11" d="M202.8,244.9v-3.3c0-1.2-0.4-1.6-1.2-1.6c-0.8,0-1.2,0.5-1.2,1.5v3.4h-1.1v-7.4l1.1-0.6v2.8
			c0.3-0.4,0.9-0.7,1.4-0.7c1.3,0,2.1,0.9,2.1,2.6v3.3H202.8z"/>
		<path id="XMLID_60_" class="st11" d="M211.8,242.4c-0.3-0.2-0.7-0.3-1.3-0.3c-0.7,0-1.2,0.3-1.2,0.9c0,0.6,0.4,1,1.1,1
			c0.6,0,1.1-0.4,1.4-0.7V242.4z M211.8,244.9v-0.6c-0.4,0.4-1,0.7-1.6,0.7c-0.9,0-2-0.5-2-1.9c0-1.3,1-1.9,2.3-1.9
			c0.5,0,1,0.1,1.3,0.2V241c0-0.6-0.4-1-1.1-1c-0.6,0-1.1,0.1-1.5,0.4l-0.4-0.9c0.5-0.3,1.2-0.5,2-0.5c1.3,0,2.2,0.6,2.2,1.9v4
			H211.8z"/>
		<path id="XMLID_59_" class="st11" d="M218.1,244.9v-3.3c0-1.2-0.4-1.6-1.2-1.6c-0.8,0-1.2,0.5-1.2,1.5v3.4h-1.1v-5.8h1.1v0.5
			c0.3-0.4,0.9-0.7,1.4-0.7c1.3,0,2.1,0.9,2.1,2.6v3.3H218.1z"/>
		<path id="XMLID_56_" class="st11" d="M224.3,240.8c-0.3-0.3-0.8-0.8-1.3-0.8c-0.8,0-1.3,0.6-1.3,1.8c0,1.4,0.5,2.1,1.3,2.1
			c0.5,0,1-0.4,1.3-0.7V240.8z M224.3,244.9v-0.5c-0.4,0.4-0.9,0.7-1.5,0.7c-1.2,0-2.2-0.9-2.2-3.1c0-2,1.1-2.9,2.3-2.9
			c0.6,0,1.1,0.3,1.4,0.7v-2.2l1.1-0.6v8H224.3z"/>
		<path id="XMLID_55_" class="st11" d="M233.1,245c-2,0-3.2-1.6-3.2-4c0-2.3,1.3-4,3.2-4c1.3,0,2.1,0.5,2.6,1.4l-1,0.6
			c-0.4-0.6-0.8-0.9-1.6-0.9c-1.3,0-2.1,1.1-2.1,2.8s0.7,2.8,2.1,2.8c0.8,0,1.3-0.3,1.7-1l1,0.6C235.2,244.5,234.2,245,233.1,245"/>
		<path id="XMLID_52_" class="st11" d="M243.8,240.2c-0.2-0.5-0.5-1.4-0.6-1.8c-0.1,0.3-0.4,1.2-0.6,1.8L242,242h2.4L243.8,240.2z
			 M245.4,244.9l-0.6-1.8h-3.1l-0.6,1.8h-1.2l2.8-7.7h1.2l2.8,7.7H245.4z"/>
		<path id="XMLID_51_" class="st11" d="M251.1,240.3c-0.2-0.1-0.5-0.2-0.9-0.2c-0.7,0-1.1,0.5-1.1,1.5v3.3H248v-5.8h1.1v0.5
			c0.3-0.4,0.7-0.7,1.3-0.7c0.5,0,0.7,0.1,1,0.2L251.1,240.3z"/>
		<path id="XMLID_50_" class="st11" d="M255.7,240.3c-0.2-0.1-0.5-0.2-0.9-0.2c-0.7,0-1.1,0.5-1.1,1.5v3.3h-1.1v-5.8h1.1v0.5
			c0.3-0.4,0.7-0.7,1.3-0.7c0.5,0,0.7,0.1,1,0.2L255.7,240.3z"/>
		<path id="XMLID_47_" class="st11" d="M257.2,239.1h1.1v5.8h-1.1V239.1z M257.8,238.4c-0.4,0-0.7-0.3-0.7-0.7
			c0-0.4,0.3-0.7,0.7-0.7c0.4,0,0.7,0.3,0.7,0.7C258.5,238,258.2,238.4,257.8,238.4"/>
		<path id="XMLID_44_" class="st11" d="M263.5,240.8c-0.3-0.3-0.8-0.8-1.4-0.8c-0.8,0-1.2,0.6-1.2,1.8c0,1.4,0.5,2.1,1.3,2.1
			c0.5,0,1-0.4,1.3-0.7V240.8z M261.9,247l-0.4-0.9c1.6-0.1,2-0.5,2-1.7v-0.1c-0.4,0.4-0.9,0.7-1.5,0.7c-1.2,0-2.2-0.9-2.2-3.1
			c0-2,1.1-2.9,2.3-2.9c0.6,0,1.1,0.3,1.4,0.7v-0.5h1.1v5.2C264.6,246.1,264,246.9,261.9,247"/>
		<path id="XMLID_41_" class="st11" d="M268.6,240.1c-0.9,0-1.4,0.8-1.4,1.9c0,1.3,0.6,2,1.4,2c0.9,0,1.4-0.9,1.4-1.9
			C270,240.8,269.5,240.1,268.6,240.1 M268.6,245c-1.4,0-2.5-1.2-2.5-3c0-1.9,1.1-3,2.6-3c1.5,0,2.6,1.2,2.6,3
			C271.2,243.9,270.1,245,268.6,245"/>
		<path id="XMLID_40_" class="st11" d="M273.1,245c-0.5,0-0.9-0.4-0.9-0.9c0-0.5,0.4-0.9,0.9-0.9c0.5,0,0.9,0.4,0.9,0.9
			C274,244.6,273.6,245,273.1,245"/>
		<polygon id="XMLID_39_" class="st11" points="278.5,244.9 278.5,237.2 283.4,237.2 283.4,238.3 279.6,238.3 279.6,240.2 
			281.8,240.2 281.8,241.3 279.6,241.3 279.6,243.7 283.6,243.7 283.6,244.9 		"/>
		<path id="XMLID_36_" class="st11" d="M287.5,240c-0.5,0-1,0.4-1.3,0.7v2.4c0.3,0.3,0.8,0.8,1.3,0.8c0.8,0,1.2-0.6,1.2-1.8
			C288.8,240.7,288.3,240,287.5,240 M287.6,245c-0.6,0-1.1-0.3-1.5-0.7v2.1l-1.1,0.6v-7.9h1.1v0.5c0.4-0.4,0.9-0.7,1.5-0.7
			c1.2,0,2.2,0.9,2.2,3.1C289.9,244.1,288.8,245,287.6,245"/>
		<path id="XMLID_33_" class="st11" d="M291.4,239.1h1.1v5.8h-1.1V239.1z M291.9,238.4c-0.4,0-0.7-0.3-0.7-0.7
			c0-0.4,0.3-0.7,0.7-0.7c0.4,0,0.7,0.3,0.7,0.7C292.7,238,292.3,238.4,291.9,238.4"/>
		<polygon id="XMLID_32_" class="st11" points="294.3,244.9 294.3,237.5 295.4,236.9 295.4,244.9 		"/>
		<path id="XMLID_29_" class="st11" d="M299.3,240c-0.8,0-1.2,0.5-1.3,1.4h2.7C300.6,240.7,300.2,240,299.3,240 M301.8,242.4H298
			c0.1,1.1,0.7,1.6,1.4,1.6c0.5,0,0.9-0.2,1.3-0.5l0.7,0.7c-0.5,0.5-1.1,0.8-2,0.8c-1.3,0-2.5-1.1-2.5-3c0-2,1-3,2.5-3
			c1.6,0,2.4,1.3,2.4,2.9C301.8,242.1,301.8,242.3,301.8,242.4"/>
		<path id="XMLID_26_" class="st11" d="M305.6,240c-0.5,0-1,0.4-1.3,0.7v2.4c0.3,0.3,0.8,0.8,1.3,0.8c0.8,0,1.2-0.6,1.2-1.8
			C306.9,240.7,306.5,240,305.6,240 M305.8,245c-0.6,0-1.1-0.3-1.4-0.7v2.1l-1.1,0.6v-7.9h1.1v0.5c0.4-0.4,0.9-0.7,1.5-0.7
			c1.2,0,2.2,0.9,2.2,3.1C308.1,244.1,307,245,305.8,245"/>
		<path id="XMLID_25_" class="st11" d="M311.3,245c-0.8,0-1.6-0.3-2.2-0.7l0.5-0.9c0.5,0.4,1.1,0.6,1.7,0.6c0.7,0,1.1-0.2,1.1-0.6
			c0-0.4-0.5-0.6-1.3-1c-1.2-0.5-1.7-0.9-1.7-1.8c0-1,0.8-1.6,2-1.6c0.7,0,1.4,0.3,2,0.6l-0.5,0.9c-0.5-0.3-0.9-0.5-1.5-0.5
			c-0.5,0-0.8,0.2-0.8,0.5c0,0.3,0.2,0.5,1.1,0.8c1.3,0.5,1.9,0.8,1.9,1.9C313.5,244.6,312.5,245,311.3,245"/>
		<path id="XMLID_22_" class="st11" d="M315,239.1h1.1v5.8H315V239.1z M315.6,238.4c-0.4,0-0.7-0.3-0.7-0.7c0-0.4,0.3-0.7,0.7-0.7
			c0.4,0,0.7,0.3,0.7,0.7C316.3,238,316,238.4,315.6,238.4"/>
		<path id="XMLID_19_" class="st11" d="M321.2,242.4c-0.3-0.2-0.7-0.3-1.3-0.3c-0.7,0-1.2,0.3-1.2,0.9c0,0.6,0.4,1,1.1,1
			c0.6,0,1.1-0.4,1.4-0.7V242.4z M321.2,244.9v-0.6c-0.4,0.4-1,0.7-1.6,0.7c-0.9,0-2-0.5-2-1.9c0-1.3,1-1.9,2.3-1.9
			c0.5,0,1,0.1,1.3,0.2V241c0-0.6-0.4-1-1.1-1c-0.6,0-1.1,0.1-1.5,0.4l-0.4-0.9c0.5-0.3,1.2-0.5,2-0.5c1.3,0,2.2,0.6,2.2,1.9v4
			H321.2z"/>
		<path id="XMLID_18_" class="st11" d="M326.5,244.9c0.1-2.3,1.4-3.2,3-4.1c1-0.6,1.3-1,1.3-1.5c0-0.6-0.4-1-1.5-1
			c-0.6,0-1.4,0.3-1.9,0.8l-0.7-0.9c0.7-0.6,1.7-1,2.6-1c1.6,0,2.6,0.7,2.6,2.1c0,1.2-0.6,1.7-1.9,2.5c-1.5,0.9-1.9,1.4-2.1,2.1h4.1
			v1.1H326.5z"/>
		<path id="XMLID_15_" class="st11" d="M336.6,238.2c-1.3,0-1.9,1.2-1.9,2.8c0,1.6,0.5,2.9,1.9,2.9c1.4,0,1.9-1.2,1.9-2.8
			C338.5,239.4,337.9,238.2,336.6,238.2 M336.6,245c-2,0-3-1.6-3-3.9c0-2.3,1.1-4,3-4c2,0,3,1.6,3,3.9
			C339.6,243.3,338.6,245,336.6,245"/>
		<path id="XMLID_12_" class="st11" d="M343.8,238.2c-1.3,0-1.9,1.2-1.9,2.8c0,1.6,0.5,2.9,1.9,2.9c1.3,0,1.9-1.2,1.9-2.8
			C345.7,239.4,345.2,238.2,343.8,238.2 M343.8,245c-2,0-3-1.6-3-3.9c0-2.3,1.1-4,3-4c2,0,3,1.6,3,3.9
			C346.9,243.3,345.8,245,343.8,245"/>
		<path id="XMLID_11_" class="st11" d="M350.5,245c-1.1,0-2.2-0.5-2.8-1.3l0.9-0.7c0.5,0.6,1.2,0.9,1.9,0.9c1.2,0,1.7-0.5,1.7-1.3
			c0-0.8-0.6-1.2-1.4-1.2h-0.7v-1.1h0.7c0.7,0,1.1-0.5,1.1-1.1c0-0.4-0.3-1.1-1.4-1.1c-0.6,0-1.1,0.3-1.5,0.7l-0.9-0.8
			c0.6-0.7,1.4-1,2.4-1c1.4,0,2.6,0.7,2.6,2.1c0,0.9-0.4,1.4-0.9,1.7c0.7,0.2,1.3,0.8,1.3,1.8C353.4,244.1,352.3,245,350.5,245"/>
		<path id="XMLID_10_" class="st11" d="M355.3,246.1l-0.6-0.5c1-1.1,1.5-2.3,1.5-4c0-1.8-0.6-3-1.5-4.1l0.6-0.5
			c1.1,1,2.1,2.5,2.1,4.5C357.4,243.5,356.4,245,355.3,246.1"/>
	</g>
	<linearGradient id="XMLID_607_" gradientUnits="userSpaceOnUse" x1="122.5767" y1="130.7528" x2="144.5116" y2="130.7528">
		<stop  offset="0" style="stop-color:#4B257A"/>
		<stop  offset="1" style="stop-color:#964C8E"/>
	</linearGradient>
	<rect id="XMLID_8_" x="122.6" y="59" class="st13" width="21.9" height="143.5"/>
	<linearGradient id="XMLID_608_" gradientUnits="userSpaceOnUse" x1="211.8227" y1="123.5983" x2="233.7571" y2="123.5983">
		<stop  offset="0" style="stop-color:#4B257A"/>
		<stop  offset="1" style="stop-color:#964C8E"/>
	</linearGradient>
	<rect id="XMLID_7_" x="211.8" y="44.9" class="st14" width="21.9" height="157.3"/>
	<linearGradient id="XMLID_609_" gradientUnits="userSpaceOnUse" x1="297.9485" y1="125.5723" x2="319.883" y2="125.5723">
		<stop  offset="0" style="stop-color:#4B257A"/>
		<stop  offset="1" style="stop-color:#964C8E"/>
	</linearGradient>
	<rect id="XMLID_6_" x="297.9" y="47.2" class="st15" width="21.9" height="156.8"/>
	<rect id="XMLID_5_" x="150.9" y="166.9" class="st16" width="21.9" height="35.6"/>
	<rect id="XMLID_4_" x="239.7" y="153.7" class="st16" width="21.9" height="48.8"/>
	<rect id="XMLID_3_" x="325.6" y="160.7" class="st16" width="21.9" height="41.8"/>
	<rect id="XMLID_2_" x="0.7" y="0.7" class="st17" width="397.2" height="249.7"/>
</g>
</svg>
