<!-- Generator: Adobe Illustrator 22.1.0, SVG Export Plug-In  -->
<svg version="1.1"
	 xmlns="http://www.w3.org/2000/svg" xmlns:xlink="http://www.w3.org/1999/xlink" xmlns:a="http://ns.adobe.com/AdobeSVGViewerExtensions/3.0/"
	 x="0px" y="0px" width="97.8px" height="212px" viewBox="0 0 97.8 212" style="enable-background:new 0 0 97.8 212;"
	 xml:space="preserve">
<style type="text/css">
	.st0{fill:#58595B;}
	.st1{fill:url(#XMLID_74_);}
	.st2{fill:#A6A8AB;}
	.st3{fill:url(#XMLID_75_);}
</style>
<defs>
</defs>
<g id="XMLID_1_">
	<g id="XMLID_38_">
		<path id="XMLID_72_" class="st0" d="M6.3,9.6c-0.5,0.3-1.1,0.5-1.8,0.5c-0.6,0-1.1-0.1-1.6-0.4C2.4,9.5,2,9.1,1.7,8.7
			c-0.3-0.4-0.6-1-0.8-1.5s-0.3-1.3-0.3-2c0-0.7,0.1-1.4,0.3-2s0.4-1.1,0.8-1.6c0.3-0.4,0.7-0.8,1.2-1c0.5-0.2,1-0.4,1.6-0.4
			c0.7,0,1.4,0.2,1.9,0.5C6.8,1,7.2,1.4,7.5,2L6.3,2.8C6.1,2.4,5.8,2.1,5.6,2C5.3,1.8,4.9,1.7,4.4,1.7C3.6,1.7,3,2,2.6,2.6
			C2.2,3.2,2,4.1,2,5.2s0.2,1.9,0.6,2.5c0.4,0.6,1,0.9,1.8,0.9c0.5,0,0.9-0.1,1.2-0.3s0.6-0.5,0.8-0.9l1.1,0.8
			C7.2,8.8,6.8,9.3,6.3,9.6z"/>
		<path id="XMLID_69_" class="st0" d="M14.8,6.3c0,0.6-0.1,1.1-0.2,1.6c-0.2,0.5-0.4,0.9-0.6,1.2c-0.3,0.3-0.6,0.6-1,0.7
			s-0.8,0.3-1.2,0.3c-0.4,0-0.8-0.1-1.2-0.3C10.2,9.6,9.8,9.4,9.6,9C9.3,8.7,9.1,8.3,8.9,7.9c-0.2-0.5-0.2-1-0.2-1.5
			c0-0.6,0.1-1.1,0.2-1.6c0.2-0.5,0.4-0.9,0.6-1.2c0.3-0.3,0.6-0.6,1-0.7c0.4-0.2,0.8-0.3,1.2-0.3s0.8,0.1,1.2,0.3
			c0.4,0.2,0.7,0.4,1,0.7c0.3,0.3,0.5,0.7,0.6,1.2C14.7,5.2,14.8,5.8,14.8,6.3z M13.4,6.3c0-0.7-0.2-1.3-0.5-1.7
			C12.7,4.2,12.2,4,11.7,4c-0.5,0-0.9,0.2-1.2,0.6c-0.3,0.4-0.4,1-0.4,1.7c0,0.8,0.2,1.4,0.5,1.8c0.3,0.4,0.7,0.6,1.2,0.6
			c0.3,0,0.5-0.1,0.7-0.2C12.6,8.4,12.8,8.2,13,8c0.1-0.2,0.3-0.5,0.3-0.8S13.4,6.7,13.4,6.3z"/>
		<path id="XMLID_67_" class="st0" d="M24.3,9.9v-4c0-0.7-0.1-1.2-0.3-1.5c-0.2-0.3-0.5-0.4-1-0.4c-0.4,0-0.8,0.2-1,0.5
			s-0.3,0.8-0.3,1.3v4.2h-1.3v-4c0-0.7-0.1-1.2-0.3-1.5c-0.2-0.3-0.5-0.4-1-0.4c-0.4,0-0.8,0.2-1,0.5s-0.3,0.8-0.3,1.3v4.2h-1.3V2.8
			h1.3v0.7c0.2-0.3,0.4-0.5,0.7-0.6c0.3-0.1,0.6-0.2,0.9-0.2c0.5,0,0.8,0.1,1.1,0.3s0.5,0.4,0.7,0.8c0.1-0.2,0.2-0.3,0.4-0.4
			C21.7,3.1,21.9,3,22,2.9c0.2-0.1,0.3-0.2,0.5-0.2s0.4-0.1,0.7-0.1c0.8,0,1.4,0.3,1.8,0.8c0.4,0.5,0.6,1.3,0.6,2.4v4.1H24.3z"/>
		<path id="XMLID_64_" class="st0" d="M33.2,6.5c0,0.6-0.1,1.1-0.2,1.6c-0.1,0.4-0.3,0.8-0.6,1.1c-0.2,0.3-0.5,0.5-0.8,0.7
			c-0.3,0.1-0.7,0.2-1,0.2c-0.3,0-0.7-0.1-1-0.2c-0.3-0.2-0.5-0.4-0.7-0.6v2.6l-1.3,0.7V2.8h1.3l0,0.7c0.2-0.2,0.5-0.4,0.8-0.6
			c0.3-0.2,0.6-0.2,1-0.2s0.7,0.1,1,0.2s0.6,0.4,0.8,0.7c0.2,0.3,0.4,0.7,0.6,1.2C33.1,5.2,33.2,5.8,33.2,6.5z M31.9,6.5
			c0-0.9-0.1-1.6-0.4-2c-0.3-0.4-0.6-0.6-1.1-0.6c-0.3,0-0.6,0.1-0.9,0.3c-0.3,0.2-0.5,0.4-0.7,0.6v3C28.9,7.9,29,8,29.1,8.1
			c0.1,0.1,0.2,0.2,0.4,0.3c0.1,0.1,0.3,0.2,0.4,0.2s0.3,0.1,0.5,0.1c0.5,0,0.8-0.2,1.1-0.6C31.8,7.8,31.9,7.3,31.9,6.5z"/>
		<path id="XMLID_62_" class="st0" d="M34.9,9.9V0.7L36.3,0v9.9H34.9z"/>
		<path id="XMLID_59_" class="st0" d="M43.8,6.2c0,0.1,0,0.2,0,0.4c0,0.1,0,0.2,0,0.3h-4.5c0,0.3,0.1,0.6,0.2,0.9
			c0.1,0.2,0.2,0.4,0.4,0.6c0.2,0.2,0.3,0.3,0.5,0.4c0.2,0.1,0.4,0.1,0.6,0.1c0.3,0,0.5,0,0.8-0.1c0.2-0.1,0.5-0.2,0.7-0.4l0.8,0.9
			c-0.3,0.3-0.6,0.5-1,0.7c-0.4,0.2-0.8,0.2-1.3,0.2c-0.4,0-0.8-0.1-1.1-0.2s-0.7-0.4-0.9-0.7s-0.5-0.7-0.6-1.2
			C38,7.5,38,6.9,38,6.3c0-0.6,0.1-1.1,0.2-1.6c0.1-0.5,0.3-0.8,0.6-1.2C39,3.3,39.3,3,39.7,2.9s0.8-0.2,1.2-0.2
			c0.5,0,0.9,0.1,1.3,0.3s0.7,0.4,0.9,0.8c0.2,0.3,0.4,0.7,0.5,1.1S43.8,5.7,43.8,6.2z M42.4,5.7c0-0.2-0.1-0.5-0.1-0.7
			c-0.1-0.2-0.2-0.4-0.3-0.6S41.7,4.1,41.5,4c-0.2-0.1-0.4-0.1-0.7-0.1c-0.4,0-0.8,0.2-1.1,0.5c-0.3,0.3-0.4,0.8-0.5,1.3H42.4z"/>
		<path id="XMLID_57_" class="st0" d="M48.9,9.9l-0.6-1.2c-0.1-0.3-0.3-0.5-0.4-0.8s-0.2-0.5-0.3-0.6c0,0.1-0.1,0.2-0.1,0.3
			s-0.1,0.2-0.2,0.4C47.1,8,47.1,8.1,47,8.3c-0.1,0.1-0.1,0.3-0.2,0.4l-0.7,1.2h-1.5l2.1-3.7l-2-3.4h1.5l0.5,1
			C47,4,47.1,4.3,47.2,4.6s0.2,0.5,0.3,0.6c0-0.1,0.1-0.2,0.1-0.3c0.1-0.1,0.1-0.2,0.2-0.4c0.1-0.1,0.1-0.3,0.2-0.4s0.1-0.3,0.2-0.4
			l0.5-1h1.5l-2,3.4l2.1,3.7H48.9z"/>
		<path id="XMLID_54_" class="st0" d="M61.1,6.5c0,0.6-0.1,1.1-0.2,1.6c-0.1,0.4-0.3,0.8-0.6,1.1c-0.2,0.3-0.5,0.5-0.8,0.7
			c-0.3,0.1-0.7,0.2-1,0.2c-0.3,0-0.7-0.1-1-0.2c-0.3-0.2-0.5-0.4-0.7-0.6v2.6l-1.3,0.7V2.8h1.3l0,0.7C57,3.2,57.3,3,57.5,2.9
			c0.3-0.2,0.6-0.2,1-0.2s0.7,0.1,1,0.2s0.6,0.4,0.8,0.7c0.2,0.3,0.4,0.7,0.6,1.2C61.1,5.2,61.1,5.8,61.1,6.5z M59.8,6.5
			c0-0.9-0.1-1.6-0.4-2c-0.3-0.4-0.6-0.6-1.1-0.6c-0.3,0-0.6,0.1-0.9,0.3c-0.3,0.2-0.5,0.4-0.7,0.6v3C56.8,7.9,56.9,8,57,8.1
			c0.1,0.1,0.2,0.2,0.4,0.3c0.1,0.1,0.3,0.2,0.4,0.2s0.3,0.1,0.5,0.1c0.5,0,0.8-0.2,1.1-0.6C59.7,7.8,59.8,7.3,59.8,6.5z"/>
		<path id="XMLID_51_" class="st0" d="M66.6,9.9V9.2c-0.2,0.2-0.5,0.4-0.8,0.6s-0.7,0.2-1,0.2c-0.3,0-0.6,0-0.8-0.1
			c-0.3-0.1-0.5-0.2-0.8-0.4c-0.2-0.2-0.4-0.4-0.5-0.7s-0.2-0.7-0.2-1.1c0-0.4,0.1-0.7,0.2-1c0.1-0.3,0.3-0.5,0.6-0.7
			c0.2-0.2,0.5-0.3,0.9-0.4c0.3-0.1,0.7-0.1,1.1-0.1c0.6,0,1.1,0.1,1.5,0.3V5.1c0-0.4-0.1-0.7-0.3-0.9C66,4,65.7,3.9,65.3,3.9
			c-0.4,0-0.7,0-0.9,0.1c-0.3,0.1-0.6,0.2-0.8,0.3L63,3.3c0.3-0.2,0.7-0.4,1-0.5c0.4-0.1,0.8-0.2,1.3-0.2c0.8,0,1.4,0.2,1.8,0.6
			c0.5,0.4,0.7,1,0.7,1.8v4.9H66.6z M66.6,6.9c-0.2-0.1-0.4-0.2-0.6-0.2c-0.2-0.1-0.5-0.1-0.9-0.1c-0.4,0-0.8,0.1-1,0.3
			c-0.2,0.2-0.4,0.4-0.4,0.8c0,0.4,0.1,0.6,0.3,0.9c0.2,0.2,0.5,0.3,1,0.3c0.4,0,0.7-0.1,1-0.3c0.3-0.2,0.5-0.4,0.7-0.6V6.9z"/>
		<path id="XMLID_49_" class="st0" d="M73.5,4.3c-0.1-0.1-0.3-0.1-0.5-0.2S72.7,4,72.4,4c-0.4,0-0.7,0.2-1,0.5
			c-0.2,0.3-0.3,0.8-0.3,1.4v4.1h-1.3V2.8h1.3v0.7c0.2-0.2,0.4-0.4,0.6-0.6c0.3-0.2,0.6-0.2,0.9-0.2c0.3,0,0.5,0,0.7,0.1
			c0.2,0.1,0.3,0.1,0.5,0.2L73.5,4.3z"/>
		<path id="XMLID_47_" class="st0" d="M78.5,9.7C78.4,9.8,78.2,9.9,78,10s-0.5,0.1-0.7,0.1c-0.5,0-0.8-0.2-1.1-0.5s-0.4-0.8-0.4-1.4
			V4.1h-1V2.8h1v-2L77,0v2.8h1.7v1.3H77v3.9c0,0.3,0.1,0.6,0.2,0.7c0.1,0.1,0.3,0.2,0.5,0.2c0.2,0,0.3,0,0.5-0.1
			c0.2-0.1,0.3-0.1,0.5-0.2L78.5,9.7z"/>
		<path id="XMLID_44_" class="st0" d="M82.1,1c0,0.2-0.1,0.5-0.3,0.6s-0.4,0.3-0.6,0.3c-0.2,0-0.4-0.1-0.6-0.3
			c-0.2-0.2-0.3-0.4-0.3-0.6c0-0.3,0.1-0.5,0.3-0.6C80.8,0.1,81,0,81.2,0c0.2,0,0.4,0.1,0.6,0.3S82.1,0.7,82.1,1z M80.6,9.9V2.8h1.3
			v7.1H80.6z"/>
		<path id="XMLID_41_" class="st0" d="M87.8,9.9V9.2c-0.2,0.2-0.5,0.4-0.8,0.6s-0.7,0.2-1,0.2c-0.3,0-0.6,0-0.8-0.1
			s-0.5-0.2-0.8-0.4c-0.2-0.2-0.4-0.4-0.5-0.7s-0.2-0.7-0.2-1.1c0-0.4,0.1-0.7,0.2-1c0.1-0.3,0.3-0.5,0.6-0.7
			c0.2-0.2,0.5-0.3,0.9-0.4c0.3-0.1,0.7-0.1,1.1-0.1c0.6,0,1.1,0.1,1.5,0.3V5.1c0-0.4-0.1-0.7-0.3-0.9c-0.2-0.2-0.5-0.3-0.9-0.3
			c-0.4,0-0.7,0-0.9,0.1c-0.3,0.1-0.6,0.2-0.8,0.3l-0.5-1.1c0.3-0.2,0.7-0.4,1-0.5c0.4-0.1,0.8-0.2,1.3-0.2c0.8,0,1.4,0.2,1.8,0.6
			c0.5,0.4,0.7,1,0.7,1.8v4.9H87.8z M87.8,6.9c-0.2-0.1-0.4-0.2-0.6-0.2c-0.2-0.1-0.5-0.1-0.9-0.1c-0.4,0-0.8,0.1-1,0.3
			s-0.4,0.4-0.4,0.8c0,0.4,0.1,0.6,0.3,0.9c0.2,0.2,0.5,0.3,1,0.3c0.4,0,0.7-0.1,1-0.3c0.3-0.2,0.5-0.4,0.7-0.6V6.9z"/>
		<path id="XMLID_39_" class="st0" d="M91.1,9.9V0.7L92.4,0v9.9H91.1z"/>
	</g>
	<g id="XMLID_18_">
		<path id="XMLID_36_" class="st0" d="M27.7,24.3c0,0.4-0.1,0.7-0.2,1c-0.1,0.3-0.3,0.5-0.6,0.6c-0.2,0.2-0.5,0.3-0.8,0.4
			c-0.3,0.1-0.6,0.1-1,0.1c-0.5,0-0.9-0.1-1.4-0.3c-0.5-0.2-0.9-0.4-1.2-0.7l0.6-1.1c0.3,0.2,0.6,0.4,1,0.5c0.3,0.1,0.7,0.2,1,0.2
			c0.8,0,1.2-0.3,1.2-0.8c0-0.3-0.1-0.5-0.4-0.7c-0.3-0.2-0.7-0.3-1.2-0.5c-0.4-0.1-0.7-0.3-0.9-0.4c-0.3-0.1-0.5-0.3-0.6-0.5
			c-0.2-0.2-0.3-0.4-0.3-0.6s-0.1-0.5-0.1-0.7c0-0.3,0.1-0.6,0.2-0.8s0.3-0.4,0.5-0.6c0.2-0.2,0.4-0.3,0.7-0.4s0.6-0.1,0.9-0.1
			c0.4,0,0.8,0.1,1.2,0.2c0.4,0.1,0.8,0.3,1.1,0.6l-0.6,1.1c-0.3-0.2-0.6-0.4-0.8-0.5c-0.3-0.1-0.6-0.1-0.9-0.1
			c-0.3,0-0.6,0.1-0.7,0.2c-0.1,0.1-0.2,0.3-0.2,0.5c0,0.1,0,0.2,0.1,0.3c0,0.1,0.1,0.2,0.2,0.2s0.2,0.2,0.4,0.3
			c0.2,0.1,0.4,0.2,0.6,0.3c0.4,0.2,0.7,0.3,1,0.4c0.3,0.1,0.5,0.3,0.7,0.5c0.2,0.2,0.3,0.4,0.4,0.6C27.6,23.6,27.7,23.9,27.7,24.3z
			"/>
		<path id="XMLID_33_" class="st0" d="M34.7,22.5c0,0.1,0,0.2,0,0.4c0,0.1,0,0.2,0,0.3h-4.5c0,0.3,0.1,0.6,0.2,0.9
			c0.1,0.2,0.2,0.4,0.4,0.6c0.2,0.2,0.3,0.3,0.5,0.4c0.2,0.1,0.4,0.1,0.6,0.1c0.3,0,0.5,0,0.8-0.1c0.2-0.1,0.5-0.2,0.7-0.4l0.8,0.9
			c-0.3,0.3-0.6,0.5-1,0.7c-0.4,0.2-0.8,0.2-1.3,0.2c-0.4,0-0.8-0.1-1.1-0.2s-0.7-0.4-0.9-0.7s-0.5-0.7-0.6-1.2
			c-0.2-0.5-0.2-1-0.2-1.6c0-0.6,0.1-1.1,0.2-1.6c0.1-0.5,0.3-0.8,0.6-1.2c0.3-0.3,0.6-0.6,0.9-0.7s0.8-0.2,1.2-0.2
			c0.5,0,0.9,0.1,1.3,0.3s0.7,0.4,0.9,0.8c0.2,0.3,0.4,0.7,0.5,1.1S34.7,22,34.7,22.5z M33.4,22c0-0.2-0.1-0.5-0.1-0.7
			c-0.1-0.2-0.2-0.4-0.3-0.6s-0.3-0.3-0.5-0.4c-0.2-0.1-0.4-0.1-0.7-0.1c-0.4,0-0.8,0.2-1.1,0.5c-0.3,0.3-0.4,0.8-0.5,1.3H33.4z"/>
		<path id="XMLID_30_" class="st0" d="M38,17.3c0,0.2-0.1,0.5-0.3,0.6s-0.4,0.3-0.6,0.3c-0.2,0-0.4-0.1-0.6-0.3
			c-0.2-0.2-0.3-0.4-0.3-0.6c0-0.3,0.1-0.5,0.3-0.6c0.2-0.2,0.4-0.3,0.6-0.3c0.2,0,0.4,0.1,0.6,0.3S38,17,38,17.3z M36.5,26.2v-7.1
			h1.3v7.1H36.5z"/>
		<path id="XMLID_28_" class="st0" d="M39.6,26.2v-1.1l2.9-3.7c0.1-0.2,0.3-0.4,0.4-0.6c0.2-0.2,0.3-0.4,0.4-0.5c-0.1,0-0.1,0-0.2,0
			c-0.1,0-0.2,0-0.3,0s-0.2,0-0.3,0s-0.2,0-0.3,0h-2.2v-1.2h5v1.1L42,24c-0.1,0.2-0.3,0.4-0.4,0.6c-0.2,0.2-0.3,0.4-0.4,0.5
			c0.1,0,0.1,0,0.3,0c0.1,0,0.2,0,0.3,0s0.2,0,0.3,0s0.2,0,0.3,0h2.4v1.2H39.6z"/>
		<path id="XMLID_26_" class="st0" d="M50.6,26.2v-0.7c-0.2,0.3-0.4,0.5-0.7,0.6c-0.3,0.1-0.6,0.2-1,0.2c-0.8,0-1.4-0.3-1.8-0.8
			s-0.6-1.3-0.6-2.4v-4.1h1.3v4c0,0.7,0.1,1.2,0.4,1.5c0.2,0.3,0.6,0.4,1,0.4c0.4,0,0.8-0.2,1-0.5c0.2-0.3,0.4-0.8,0.4-1.3v-4.2h1.3
			v7.1H50.6z"/>
		<path id="XMLID_24_" class="st0" d="M57.5,20.6c-0.1-0.1-0.3-0.1-0.5-0.2s-0.3-0.1-0.6-0.1c-0.4,0-0.7,0.2-1,0.5
			c-0.2,0.3-0.3,0.8-0.3,1.4v4.1h-1.3v-7.1h1.3v0.7c0.2-0.2,0.4-0.4,0.6-0.6c0.3-0.2,0.6-0.2,0.9-0.2c0.3,0,0.5,0,0.7,0.1
			c0.2,0.1,0.3,0.1,0.5,0.2L57.5,20.6z"/>
		<path id="XMLID_21_" class="st0" d="M64.4,22.5c0,0.1,0,0.2,0,0.4c0,0.1,0,0.2,0,0.3h-4.5c0,0.3,0.1,0.6,0.2,0.9
			c0.1,0.2,0.2,0.4,0.4,0.6c0.2,0.2,0.3,0.3,0.5,0.4c0.2,0.1,0.4,0.1,0.6,0.1c0.3,0,0.5,0,0.8-0.1c0.2-0.1,0.5-0.2,0.7-0.4l0.8,0.9
			c-0.3,0.3-0.6,0.5-1,0.7c-0.4,0.2-0.8,0.2-1.3,0.2c-0.4,0-0.8-0.1-1.1-0.2s-0.7-0.4-0.9-0.7s-0.5-0.7-0.6-1.2
			c-0.2-0.5-0.2-1-0.2-1.6c0-0.6,0.1-1.1,0.2-1.6c0.1-0.5,0.3-0.8,0.6-1.2c0.3-0.3,0.6-0.6,0.9-0.7s0.8-0.2,1.2-0.2
			c0.5,0,0.9,0.1,1.3,0.3s0.7,0.4,0.9,0.8c0.2,0.3,0.4,0.7,0.5,1.1S64.4,22,64.4,22.5z M63.1,22c0-0.2-0.1-0.5-0.1-0.7
			c-0.1-0.2-0.2-0.4-0.3-0.6s-0.3-0.3-0.5-0.4c-0.2-0.1-0.4-0.1-0.7-0.1c-0.4,0-0.8,0.2-1.1,0.5C60.2,21,60,21.4,59.9,22H63.1z"/>
		<path id="XMLID_19_" class="st0" d="M70.7,24.3c0,0.4-0.1,0.7-0.2,1c-0.1,0.3-0.3,0.5-0.6,0.6c-0.2,0.2-0.5,0.3-0.8,0.4
			c-0.3,0.1-0.6,0.1-1,0.1c-0.5,0-0.9-0.1-1.4-0.3c-0.5-0.2-0.9-0.4-1.2-0.7l0.6-1.1c0.3,0.2,0.6,0.4,1,0.5c0.3,0.1,0.7,0.2,1,0.2
			c0.8,0,1.2-0.3,1.2-0.8c0-0.3-0.1-0.5-0.4-0.7c-0.3-0.2-0.7-0.3-1.2-0.5c-0.4-0.1-0.7-0.3-0.9-0.4c-0.3-0.1-0.5-0.3-0.6-0.5
			c-0.2-0.2-0.3-0.4-0.3-0.6s-0.1-0.5-0.1-0.7c0-0.3,0.1-0.6,0.2-0.8s0.3-0.4,0.5-0.6c0.2-0.2,0.4-0.3,0.7-0.4s0.6-0.1,0.9-0.1
			c0.4,0,0.8,0.1,1.2,0.2c0.4,0.1,0.8,0.3,1.1,0.6l-0.6,1.1c-0.3-0.2-0.6-0.4-0.8-0.5c-0.3-0.1-0.6-0.1-0.9-0.1
			c-0.3,0-0.6,0.1-0.7,0.2c-0.1,0.1-0.2,0.3-0.2,0.5c0,0.1,0,0.2,0.1,0.3c0,0.1,0.1,0.2,0.2,0.2s0.2,0.2,0.4,0.3
			c0.2,0.1,0.4,0.2,0.6,0.3c0.4,0.2,0.7,0.3,1,0.4c0.3,0.1,0.5,0.3,0.7,0.5c0.2,0.2,0.3,0.4,0.4,0.6C70.7,23.6,70.7,23.9,70.7,24.3z
			"/>
	</g>
	<linearGradient id="XMLID_74_" gradientUnits="userSpaceOnUse" x1="0" y1="102.8015" x2="47.535" y2="102.8015">
		<stop  offset="0" style="stop-color:#4B257A"/>
		<stop  offset="1" style="stop-color:#954C8D"/>
	</linearGradient>
	<rect id="XMLID_17_" y="37.3" class="st1" width="47.5" height="131"/>
	<rect id="XMLID_16_" x="50.3" y="37.3" class="st2" width="47.5" height="37.6"/>
	<g id="XMLID_8_">
		<path id="XMLID_14_" class="st0" d="M22.1,188.5c0,0.8-0.1,1.4-0.4,2c-0.3,0.6-0.7,1.1-1.1,1.4c-0.5,0.4-1.1,0.7-1.8,0.9
			s-1.5,0.3-2.3,0.3c-1,0-2-0.2-2.9-0.7c-0.9-0.4-1.7-1.1-2.5-2.1l2-1.7c0.6,0.6,1.1,1.1,1.7,1.3c0.6,0.3,1.2,0.4,1.9,0.4
			c0.9,0,1.5-0.2,2-0.5s0.6-0.8,0.6-1.3c0-0.6-0.2-1-0.5-1.2c-0.3-0.3-0.8-0.4-1.5-0.4h-1.6v-2.8h1.4c0.6,0,1-0.1,1.2-0.4
			c0.2-0.2,0.4-0.6,0.4-1.1c0-0.2,0-0.4-0.1-0.5c-0.1-0.2-0.2-0.3-0.4-0.5s-0.4-0.2-0.7-0.3c-0.3-0.1-0.6-0.1-1.1-0.1
			c-1,0-1.9,0.4-2.6,1.2l-2-1.9c0.6-0.7,1.3-1.2,2.1-1.6c0.7-0.3,1.6-0.5,2.6-0.5c0.7,0,1.3,0.1,1.9,0.3c0.6,0.2,1.1,0.4,1.6,0.8
			c0.5,0.3,0.8,0.8,1.1,1.3c0.3,0.5,0.4,1.1,0.4,1.8c0,0.8-0.2,1.4-0.5,1.9c-0.3,0.5-0.7,0.8-1.1,1c0.2,0.1,0.5,0.2,0.7,0.4
			c0.2,0.2,0.5,0.4,0.7,0.6s0.4,0.6,0.5,0.9S22.1,188,22.1,188.5z"/>
		<path id="XMLID_11_" class="st0" d="M33.9,190v2.9h-2.6V190h-7.4v-2.6l7.2-8.8h2.8v8.7h1.8v2.6H33.9z M31.3,181.9
			c-0.1,0.2-0.3,0.4-0.5,0.7c-0.2,0.3-0.4,0.6-0.7,0.9l-1.9,2.4c-0.1,0.1-0.2,0.3-0.3,0.4c-0.1,0.1-0.2,0.3-0.4,0.4
			s-0.2,0.3-0.3,0.4c-0.1,0.1-0.2,0.2-0.3,0.3c0.1,0,0.3,0,0.5,0c0.2,0,0.5,0,0.7,0c0.3,0,0.5,0,0.8,0c0.3,0,0.5,0,0.7,0h1.7v-2.3
			c0-0.2,0-0.5,0-0.8c0-0.3,0-0.6,0-0.9c0-0.3,0-0.6,0-0.9C31.3,182.3,31.3,182.1,31.3,181.9z"/>
		<path id="XMLID_9_" class="st0" d="M26.5,210.7l-2.4-1.7l0.2,3h-2l0.2-3l-2.4,1.7l-1-1.8l2.7-1.3l-2.7-1.3l1-1.9l2.4,1.7l-0.2-3h2
			l-0.2,3l2.4-1.7l1,1.9l-2.8,1.3l2.8,1.3L26.5,210.7z"/>
	</g>
	<g id="XMLID_2_">
		<path id="XMLID_6_" class="st0" d="M69.9,97.3V87h-2.3v-2.1c0.8,0,1.4-0.2,1.8-0.5c0.5-0.3,0.8-0.7,0.9-1.3h2.2v14.2H69.9z"/>
		<path id="XMLID_3_" class="st0" d="M89,90.1c0,1.1-0.1,2.1-0.4,3c-0.2,0.9-0.6,1.7-1.1,2.3s-1.1,1.2-1.8,1.5
			c-0.7,0.4-1.5,0.5-2.5,0.5c-0.9,0-1.7-0.2-2.4-0.5c-0.7-0.4-1.3-0.9-1.8-1.5c-0.5-0.6-0.8-1.4-1.1-2.3c-0.2-0.9-0.4-1.9-0.4-3
			c0-1.1,0.1-2.1,0.4-3c0.2-0.9,0.6-1.7,1.1-2.3s1.1-1.1,1.8-1.5c0.7-0.4,1.5-0.5,2.4-0.5c0.9,0,1.7,0.2,2.4,0.5
			c0.7,0.4,1.3,0.9,1.8,1.5c0.5,0.6,0.8,1.4,1.1,2.3C88.9,88,89,89,89,90.1z M86.3,90.1c0-0.6-0.1-1.2-0.2-1.8
			c-0.1-0.6-0.3-1-0.5-1.4c-0.2-0.4-0.5-0.7-0.9-1c-0.4-0.2-0.8-0.4-1.3-0.4c-0.5,0-1,0.1-1.3,0.3c-0.4,0.2-0.7,0.5-0.9,1
			s-0.4,0.9-0.5,1.4s-0.2,1.1-0.2,1.8c0,0.6,0.1,1.2,0.2,1.8s0.3,1,0.5,1.5c0.2,0.4,0.5,0.7,0.9,1s0.8,0.4,1.3,0.4
			c0.5,0,1-0.1,1.3-0.4s0.7-0.6,0.9-1s0.4-0.9,0.5-1.4C86.2,91.4,86.3,90.8,86.3,90.1z"/>
	</g>
</g>
</svg>
