<!-- Generator: Adobe Illustrator 22.1.0, SVG Export Plug-In  -->
<svg version="1.1"
	 xmlns="http://www.w3.org/2000/svg" xmlns:xlink="http://www.w3.org/1999/xlink" xmlns:a="http://ns.adobe.com/AdobeSVGViewerExtensions/3.0/"
	 x="0px" y="0px" width="95.4px" height="30.9px" viewBox="0 0 95.4 30.9" style="enable-background:new 0 0 95.4 30.9;"
	 xml:space="preserve">
<style type="text/css">
	.st0{fill:#236092;}
</style>
<defs>
</defs>
<path id="XMLID_8_" class="st0" d="M26,15.5c0,2.3-0.3,4.4-0.9,6.3s-1.4,3.5-2.5,4.9c-1.1,1.4-2.5,2.4-4.1,3.2
	c-1.6,0.8-3.4,1.1-5.5,1.1c-2.1,0-3.9-0.4-5.5-1.1c-1.6-0.8-3-1.8-4.1-3.2c-1.1-1.4-2-3-2.5-4.9c-0.6-1.9-0.9-4-0.9-6.3
	s0.3-4.4,0.9-6.3c0.6-1.9,1.4-3.5,2.5-4.9c1.1-1.4,2.5-2.4,4.1-3.2C9.1,0.4,11,0,13,0c2.1,0,3.9,0.4,5.5,1.1c1.6,0.8,3,1.8,4.1,3.2
	c1.1,1.4,2,3,2.5,4.9C25.8,11.1,26,13.2,26,15.5z M19.9,15.5c0-1.3-0.1-2.6-0.4-3.7c-0.3-1.2-0.7-2.2-1.2-3c-0.6-0.9-1.3-1.5-2.1-2
	C15.3,6.2,14.2,6,13,6s-2.2,0.2-3.1,0.7C9,7.2,8.3,7.8,7.8,8.7c-0.6,0.9-1,1.9-1.2,3c-0.3,1.2-0.4,2.4-0.4,3.7s0.1,2.6,0.4,3.7
	c0.3,1.2,0.7,2.2,1.2,3c0.6,0.9,1.3,1.5,2.1,2c0.9,0.5,1.9,0.7,3.1,0.7s2.2-0.2,3.1-0.7c0.9-0.5,1.6-1.2,2.1-2c0.6-0.9,1-1.9,1.2-3
	C19.8,18.1,19.9,16.8,19.9,15.5z"/>
<path id="XMLID_6_" class="st0" d="M44,30.5V18.3c0-2-0.3-3.4-1-4.1c-0.7-0.7-1.6-1.1-2.8-1.1c-1.2,0-2.2,0.4-2.8,1.1
	c-0.7,0.7-1,2.1-1,4v12.3h-5.9V8h5.9v1.5c0.5-0.5,1.2-1,2.1-1.4s1.9-0.6,3.1-0.6c2.9,0,5,0.9,6.3,2.8c1.3,1.8,2,4.3,2,7.5v12.7H44z"
	/>
<path id="XMLID_4_" class="st0" d="M71.6,28c-0.6,0.6-1.3,1.1-2,1.6c-0.7,0.5-1.5,0.8-2.4,1c-0.9,0.2-1.9,0.4-3,0.4
	c-1.5,0-2.8-0.3-4.1-0.9c-1.3-0.6-2.4-1.4-3.4-2.4S55,25.4,54.4,24c-0.5-1.4-0.8-3-0.8-4.7c0-1.7,0.3-3.3,0.8-4.7
	c0.5-1.4,1.3-2.7,2.2-3.7s2.1-1.8,3.4-2.4c1.3-0.6,2.8-0.9,4.3-0.9c2.1,0,3.9,0.5,5.4,1.4s2.6,2.1,3.6,3.5l-3.9,3.9
	c-0.7-0.9-1.4-1.7-2.2-2.3s-1.8-0.9-3-0.9c-1.4,0-2.6,0.5-3.4,1.6c-0.8,1.1-1.3,2.6-1.3,4.4c0,1.8,0.4,3.3,1.3,4.4
	c0.8,1.1,2,1.7,3.4,1.7c1.2,0,2.2-0.2,3-0.7c0.8-0.5,1.6-1.2,2.4-2.1l3.8,3.6C72.8,26.7,72.2,27.4,71.6,28z"/>
<path id="XMLID_1_" class="st0" d="M95.4,19.2c0,0.4,0,0.8,0,1.1c0,0.3,0,0.6-0.1,0.8H81.8c0.1,0.8,0.2,1.4,0.5,2
	c0.3,0.5,0.6,1,1.1,1.3c0.4,0.3,0.9,0.6,1.4,0.7c0.5,0.2,1.1,0.2,1.6,0.2c0.8,0,1.6-0.1,2.2-0.4c0.7-0.3,1.2-0.7,1.6-1.2l4.2,3.5
	c-0.9,1.2-2.1,2.1-3.6,2.7c-1.5,0.6-3,0.9-4.5,0.9c-1.6,0-3.1-0.3-4.4-0.8c-1.3-0.6-2.4-1.3-3.3-2.4c-0.9-1-1.6-2.2-2.1-3.7
	c-0.5-1.4-0.7-3-0.7-4.8c0-1.7,0.3-3.3,0.8-4.7s1.2-2.7,2.1-3.7c0.9-1,2-1.8,3.2-2.4c1.2-0.6,2.5-0.9,4-0.9c1.5,0,2.8,0.3,4,0.9
	c1.2,0.6,2.2,1.5,3,2.5c0.8,1.1,1.4,2.3,1.8,3.7C95.2,16.1,95.4,17.6,95.4,19.2z M89.6,16.7c-0.1-0.5-0.2-1-0.3-1.5
	c-0.2-0.5-0.4-0.9-0.8-1.3c-0.3-0.4-0.7-0.7-1.2-0.9c-0.5-0.2-1.1-0.3-1.7-0.3c-1.1,0-2,0.4-2.6,1.2c-0.6,0.8-1,1.7-1.1,2.9H89.6z"
	/>
</svg>
