<!-- Generator: Adobe Illustrator 22.1.0, SVG Export Plug-In  -->
<svg version="1.1"
	 xmlns="http://www.w3.org/2000/svg" xmlns:xlink="http://www.w3.org/1999/xlink" xmlns:a="http://ns.adobe.com/AdobeSVGViewerExtensions/3.0/"
	 x="0px" y="0px" width="771px" height="372.8px" viewBox="0 0 771 372.8" style="enable-background:new 0 0 771 372.8;"
	 xml:space="preserve">
<style type="text/css">
	.st0{fill:none;stroke:#522D6D;stroke-width:1.6182;}
	.st1{fill:none;stroke:#BBBDBF;stroke-width:0.1763;}
	.st2{fill:none;stroke:#BBBDBF;stroke-width:0.3535;}
	.st3{fill:none;stroke:#BBBDBF;stroke-width:0.5508;}
	.st4{fill:none;stroke:#BBBDBF;stroke-width:0.2747;}
	.st5{fill:none;stroke:#BBBDBF;stroke-width:0.3105;}
	.st6{fill:none;stroke:#BBBDBF;stroke-width:0.2716;}
	.st7{fill:#58595B;}
	.st8{font-family:'Interstate-Regular';}
	.st9{font-size:13.5923px;}
	.st10{fill:none;stroke:#BBBDBF;stroke-width:2.7472;stroke-linecap:round;stroke-linejoin:round;stroke-dasharray:0,8.2018;}
	.st11{fill:none;stroke:#BBBDBF;stroke-width:2.7472;stroke-linecap:round;stroke-linejoin:round;}
	.st12{fill:#231F20;}
	.st13{fill:none;stroke:#2B2C2D;stroke-width:2.7472;stroke-linecap:round;stroke-linejoin:round;stroke-dasharray:0,8.2018;}
</style>
<defs>
</defs>
<polygon id="XMLID_342_" class="st0" points="0.8,0.8 0.8,34.5 0.8,57.3 0.8,362.9 770.2,362.9 770.2,0.8 "/>
<path id="XMLID_341_" class="st1" d="M348.3,266.5"/>
<path id="XMLID_340_" class="st1" d="M348.3,247.6"/>
<path id="XMLID_339_" class="st1" d="M348.3,228.7"/>
<path id="XMLID_338_" class="st1" d="M348.3,209.8"/>
<path id="XMLID_337_" class="st1" d="M348.3,190.9"/>
<path id="XMLID_336_" class="st1" d="M348.3,172"/>
<path id="XMLID_335_" class="st1" d="M348.3,153.1"/>
<path id="XMLID_334_" class="st1" d="M348.3,134.2"/>
<path id="XMLID_333_" class="st2" d="M348.3,285.4"/>
<path id="XMLID_332_" class="st3" d="M134.6,330.1"/>
<path id="XMLID_331_" class="st4" d="M134.6,300.7"/>
<path id="XMLID_330_" class="st4" d="M134.6,271.2"/>
<path id="XMLID_329_" class="st4" d="M134.6,241.8"/>
<path id="XMLID_328_" class="st4" d="M134.6,212.3"/>
<path id="XMLID_327_" class="st4" d="M134.6,182.9"/>
<path id="XMLID_326_" class="st4" d="M134.6,153.5"/>
<path id="XMLID_325_" class="st4" d="M134.6,124"/>
<path id="XMLID_324_" class="st4" d="M134.6,94.6"/>
<line id="XMLID_323_" class="st5" x1="166.7" y1="63.2" x2="651.9" y2="63.2"/>
<line id="XMLID_322_" class="st5" x1="166.7" y1="102.7" x2="651.9" y2="102.7"/>
<line id="XMLID_321_" class="st5" x1="166.7" y1="139.9" x2="651.9" y2="139.9"/>
<line id="XMLID_320_" class="st5" x1="166.7" y1="177.9" x2="650.5" y2="177.9"/>
<line id="XMLID_319_" class="st5" x1="166.7" y1="215.3" x2="653.9" y2="215.3"/>
<line id="XMLID_318_" class="st5" x1="166.7" y1="252.8" x2="650.5" y2="252.8"/>
<line id="XMLID_317_" class="st5" x1="167.2" y1="289.7" x2="652.7" y2="289.7"/>
<line id="XMLID_316_" class="st6" x1="166.7" y1="327.9" x2="651.9" y2="327.9"/>
<g id="XMLID_312_">
	<path id="XMLID_313_" class="st7" d="M163.7,68.7c0,1.1-0.1,2.1-0.3,3s-0.6,1.7-1,2.3c-0.5,0.7-1,1.2-1.7,1.5
		c-0.7,0.4-1.4,0.5-2.3,0.5s-1.6-0.2-2.3-0.5c-0.7-0.4-1.2-0.9-1.7-1.5c-0.4-0.6-0.8-1.4-1-2.3c-0.2-0.9-0.3-1.9-0.3-3
		c0-1.1,0.1-2.1,0.3-3c0.2-0.9,0.6-1.7,1-2.3c0.5-0.7,1-1.2,1.7-1.5c0.7-0.4,1.4-0.5,2.3-0.5s1.6,0.2,2.3,0.5
		c0.7,0.4,1.2,0.9,1.7,1.5s0.8,1.4,1,2.3C163.6,66.6,163.7,67.6,163.7,68.7z M161.7,68.7c0-0.7-0.1-1.4-0.2-2.1
		c-0.1-0.6-0.3-1.2-0.6-1.7c-0.3-0.5-0.6-0.8-1-1.1c-0.4-0.3-0.9-0.4-1.5-0.4s-1.1,0.1-1.5,0.4c-0.4,0.3-0.8,0.6-1,1.1
		c-0.3,0.5-0.5,1-0.6,1.7c-0.1,0.6-0.2,1.3-0.2,2.1s0.1,1.4,0.2,2.1c0.1,0.6,0.3,1.2,0.6,1.7c0.3,0.5,0.6,0.8,1,1.1
		c0.4,0.3,0.9,0.4,1.5,0.4s1.1-0.1,1.5-0.4c0.4-0.3,0.8-0.6,1-1.1c0.3-0.5,0.5-1,0.6-1.7C161.6,70.1,161.7,69.4,161.7,68.7z"/>
</g>
<g id="XMLID_306_">
	<path id="XMLID_310_" class="st7" d="M148.2,108.3V97.4h-2.4v-1.5c0.7-0.1,1.3-0.2,1.8-0.5s0.8-0.7,1-1.4h1.6v14.2H148.2z"/>
	<path id="XMLID_307_" class="st7" d="M163.7,101.2c0,1.1-0.1,2.1-0.3,3s-0.6,1.7-1,2.3c-0.5,0.7-1,1.2-1.7,1.5
		c-0.7,0.4-1.4,0.5-2.3,0.5s-1.6-0.2-2.3-0.5c-0.7-0.4-1.2-0.9-1.7-1.5c-0.4-0.6-0.8-1.4-1-2.3c-0.2-0.9-0.3-1.9-0.3-3
		c0-1.1,0.1-2.1,0.3-3c0.2-0.9,0.6-1.7,1-2.3c0.5-0.7,1-1.2,1.7-1.5c0.7-0.4,1.4-0.5,2.3-0.5s1.6,0.2,2.3,0.5
		c0.7,0.4,1.2,0.9,1.7,1.5s0.8,1.4,1,2.3C163.6,99.1,163.7,100.1,163.7,101.2z M161.7,101.2c0-0.7-0.1-1.4-0.2-2.1
		c-0.1-0.6-0.3-1.2-0.6-1.7c-0.3-0.5-0.6-0.8-1-1.1c-0.4-0.3-0.9-0.4-1.5-0.4s-1.1,0.1-1.5,0.4c-0.4,0.3-0.8,0.6-1,1.1
		c-0.3,0.5-0.5,1-0.6,1.7c-0.1,0.6-0.2,1.3-0.2,2.1s0.1,1.4,0.2,2.1c0.1,0.6,0.3,1.2,0.6,1.7c0.3,0.5,0.6,0.8,1,1.1
		c0.4,0.3,0.9,0.4,1.5,0.4s1.1-0.1,1.5-0.4c0.4-0.3,0.8-0.6,1-1.1c0.3-0.5,0.5-1,0.6-1.7C161.6,102.7,161.7,102,161.7,101.2z"/>
</g>
<g id="XMLID_300_">
	<path id="XMLID_304_" class="st7" d="M141.1,145.5c0-1,0.2-2,0.5-2.7c0.3-0.8,0.7-1.5,1.1-2.1c0.5-0.6,1-1.1,1.6-1.6
		c0.6-0.5,1.3-0.9,1.9-1.3c0.5-0.3,0.8-0.5,1.1-0.8c0.3-0.2,0.5-0.5,0.7-0.7c0.2-0.2,0.3-0.4,0.4-0.6c0.1-0.2,0.1-0.4,0.1-0.7
		c0-0.6-0.2-1-0.6-1.4c-0.4-0.3-1.1-0.5-2-0.5c-0.6,0-1.2,0.1-1.7,0.4c-0.6,0.3-1.1,0.6-1.5,1l-1.3-1.6c0.6-0.6,1.3-1.1,2.1-1.4
		c0.8-0.3,1.6-0.5,2.5-0.5c1.4,0,2.5,0.3,3.4,1c0.8,0.6,1.2,1.6,1.2,2.9c0,0.6-0.1,1-0.2,1.4c-0.1,0.4-0.3,0.8-0.6,1.1
		s-0.6,0.7-1.1,1c-0.4,0.3-0.9,0.7-1.5,1c-0.6,0.4-1.2,0.8-1.6,1.1c-0.4,0.3-0.8,0.6-1.1,0.9c-0.3,0.3-0.5,0.6-0.6,0.9
		c-0.1,0.3-0.3,0.6-0.3,1h7.2v2.1H141.1z"/>
	<path id="XMLID_301_" class="st7" d="M163.7,138.4c0,1.1-0.1,2.1-0.3,3s-0.6,1.7-1,2.3c-0.5,0.7-1,1.2-1.7,1.5
		c-0.7,0.4-1.4,0.5-2.3,0.5s-1.6-0.2-2.3-0.5c-0.7-0.4-1.2-0.9-1.7-1.5c-0.4-0.6-0.8-1.4-1-2.3c-0.2-0.9-0.3-1.9-0.3-3
		c0-1.1,0.1-2.1,0.3-3c0.2-0.9,0.6-1.7,1-2.3c0.5-0.7,1-1.2,1.7-1.5c0.7-0.4,1.4-0.5,2.3-0.5s1.6,0.2,2.3,0.5
		c0.7,0.4,1.2,0.9,1.7,1.5s0.8,1.4,1,2.3C163.6,136.3,163.7,137.3,163.7,138.4z M161.7,138.4c0-0.7-0.1-1.4-0.2-2.1
		c-0.1-0.6-0.3-1.2-0.6-1.7c-0.3-0.5-0.6-0.8-1-1.1c-0.4-0.3-0.9-0.4-1.5-0.4s-1.1,0.1-1.5,0.4c-0.4,0.3-0.8,0.6-1,1.1
		c-0.3,0.5-0.5,1-0.6,1.7c-0.1,0.6-0.2,1.3-0.2,2.1s0.1,1.4,0.2,2.1c0.1,0.6,0.3,1.2,0.6,1.7c0.3,0.5,0.6,0.8,1,1.1
		c0.4,0.3,0.9,0.4,1.5,0.4s1.1-0.1,1.5-0.4c0.4-0.3,0.8-0.6,1-1.1c0.3-0.5,0.5-1,0.6-1.7C161.6,139.9,161.7,139.2,161.7,138.4z"/>
</g>
<g id="XMLID_294_">
	<path id="XMLID_298_" class="st7" d="M150.9,179.6c0,1.5-0.4,2.6-1.3,3.3c-0.9,0.8-2.1,1.1-3.7,1.1c-0.5,0-1-0.1-1.4-0.2
		c-0.5-0.1-0.9-0.3-1.4-0.5c-0.4-0.2-0.8-0.5-1.2-0.7c-0.4-0.3-0.7-0.6-0.9-1l1.5-1.4c0.4,0.6,0.9,1,1.5,1.2
		c0.6,0.3,1.2,0.4,1.8,0.4c1.1,0,1.8-0.2,2.3-0.6c0.4-0.4,0.7-1,0.7-1.7c0-0.7-0.2-1.3-0.7-1.6c-0.5-0.3-1-0.5-1.8-0.5h-1.3v-2.1
		h1.2c0.6,0,1.1-0.2,1.4-0.6c0.3-0.4,0.5-0.8,0.5-1.4c0-0.2,0-0.4-0.1-0.7s-0.2-0.4-0.4-0.6c-0.2-0.2-0.5-0.3-0.8-0.5
		c-0.3-0.1-0.7-0.2-1.2-0.2c-0.5,0-1,0.1-1.5,0.3s-0.8,0.6-1.2,1l-1.5-1.5c0.6-0.6,1.2-1.1,1.9-1.4c0.7-0.3,1.5-0.5,2.3-0.5
		c0.6,0,1.2,0.1,1.8,0.3c0.6,0.2,1.1,0.4,1.5,0.7c0.4,0.3,0.7,0.7,1,1.2s0.4,1,0.4,1.7c0,0.9-0.2,1.5-0.5,2s-0.7,0.8-1.2,1.1
		c0.6,0.2,1.2,0.6,1.6,1.1C150.7,178,150.9,178.7,150.9,179.6z"/>
	<path id="XMLID_295_" class="st7" d="M163.8,176.7c0,1.1-0.1,2.1-0.3,3c-0.2,0.9-0.6,1.7-1,2.3c-0.5,0.7-1,1.2-1.7,1.5
		s-1.4,0.5-2.3,0.5s-1.6-0.2-2.3-0.5c-0.7-0.4-1.2-0.9-1.7-1.5c-0.4-0.6-0.8-1.4-1-2.3c-0.2-0.9-0.3-1.9-0.3-3c0-1.1,0.1-2.1,0.3-3
		c0.2-0.9,0.6-1.7,1-2.3c0.5-0.7,1-1.2,1.7-1.5c0.7-0.4,1.4-0.5,2.3-0.5s1.6,0.2,2.3,0.5c0.7,0.4,1.2,0.9,1.7,1.5
		c0.4,0.6,0.8,1.4,1,2.3C163.7,174.6,163.8,175.6,163.8,176.7z M161.7,176.7c0-0.7-0.1-1.4-0.2-2.1c-0.1-0.6-0.3-1.2-0.6-1.7
		c-0.3-0.5-0.6-0.8-1-1.1c-0.4-0.3-0.9-0.4-1.5-0.4s-1.1,0.1-1.5,0.4s-0.8,0.6-1,1.1c-0.3,0.5-0.5,1-0.6,1.7
		c-0.1,0.6-0.2,1.3-0.2,2.1s0.1,1.4,0.2,2.1c0.1,0.6,0.3,1.2,0.6,1.7c0.3,0.5,0.6,0.8,1,1.1s0.9,0.4,1.5,0.4s1.1-0.1,1.5-0.4
		c0.4-0.3,0.8-0.6,1-1.1c0.3-0.5,0.5-1,0.6-1.7C161.7,178.2,161.7,177.5,161.7,176.7z"/>
</g>
<g id="XMLID_287_">
	<path id="XMLID_291_" class="st7" d="M149.2,218.1v3.2h-2v-3.1h-7.3v-2l7-9.1h2.3v9.2h1.8v1.9H149.2z M147.3,209.4
		c-0.1,0.2-0.3,0.4-0.5,0.8c-0.2,0.3-0.5,0.6-0.7,0.9l-2.6,3.5c-0.2,0.3-0.4,0.6-0.7,0.9c-0.3,0.3-0.4,0.5-0.6,0.7
		c0.1,0,0.3,0,0.4,0s0.4,0,0.6,0s0.4,0,0.6,0s0.4,0,0.6,0h2.9V212c0-0.2,0-0.4,0-0.7s0-0.5,0-0.7c0-0.2,0-0.5,0-0.7
		C147.3,209.7,147.3,209.6,147.3,209.4z"/>
	<path id="XMLID_288_" class="st7" d="M163.7,214.1c0,1.1-0.1,2.1-0.3,3c-0.2,0.9-0.6,1.7-1,2.3c-0.5,0.7-1,1.2-1.7,1.5
		s-1.4,0.5-2.3,0.5s-1.6-0.2-2.3-0.5c-0.7-0.4-1.2-0.9-1.7-1.5c-0.4-0.6-0.8-1.4-1-2.3c-0.2-0.9-0.3-1.9-0.3-3c0-1.1,0.1-2.1,0.3-3
		c0.2-0.9,0.6-1.7,1-2.3c0.5-0.7,1-1.2,1.7-1.5c0.7-0.4,1.4-0.5,2.3-0.5s1.6,0.2,2.3,0.5c0.7,0.4,1.2,0.9,1.7,1.5
		c0.4,0.6,0.8,1.4,1,2.3C163.6,212.1,163.7,213,163.7,214.1z M161.7,214.2c0-0.7-0.1-1.4-0.2-2.1c-0.1-0.6-0.3-1.2-0.6-1.7
		c-0.3-0.5-0.6-0.8-1-1.1c-0.4-0.3-0.9-0.4-1.5-0.4s-1.1,0.1-1.5,0.4s-0.8,0.6-1,1.1c-0.3,0.5-0.5,1-0.6,1.7
		c-0.1,0.6-0.2,1.3-0.2,2.1s0.1,1.4,0.2,2.1c0.1,0.6,0.3,1.2,0.6,1.7c0.3,0.5,0.6,0.8,1,1.1s0.9,0.4,1.5,0.4s1.1-0.1,1.5-0.4
		c0.4-0.3,0.8-0.6,1-1.1c0.3-0.5,0.5-1,0.6-1.7C161.6,215.6,161.7,214.9,161.7,214.2z"/>
</g>
<g id="XMLID_281_">
	<path id="XMLID_285_" class="st7" d="M150.8,253.9c0,0.9-0.1,1.6-0.4,2.3c-0.3,0.6-0.6,1.2-1.1,1.6c-0.5,0.4-1,0.7-1.7,0.9
		c-0.6,0.2-1.4,0.3-2.2,0.3c-0.9,0-1.7-0.1-2.5-0.3c-0.8-0.2-1.5-0.6-2.3-1.1l1-1.8c0.6,0.3,1.2,0.6,1.9,0.8
		c0.7,0.2,1.3,0.3,1.9,0.3c1.1,0,1.9-0.3,2.4-0.8c0.5-0.5,0.8-1.2,0.8-2.1c0-0.9-0.2-1.5-0.7-1.9c-0.5-0.4-1.2-0.6-2-0.6
		c-0.6,0-1.1,0.1-1.5,0.2c-0.4,0.2-0.8,0.4-1.1,0.7l-2.2-0.9l0.5-7h8.3v2h-6.5l-0.3,3.6c0.4-0.2,0.8-0.4,1.3-0.5
		c0.5-0.1,1-0.2,1.6-0.2c0.8,0,1.4,0.1,2,0.3c0.6,0.2,1.1,0.5,1.5,0.9c0.4,0.4,0.7,0.9,0.9,1.4C150.7,252.7,150.8,253.3,150.8,253.9
		z"/>
	<path id="XMLID_282_" class="st7" d="M163.7,251.6c0,1.1-0.1,2.1-0.3,3c-0.2,0.9-0.6,1.7-1,2.3c-0.5,0.7-1,1.2-1.7,1.5
		s-1.4,0.5-2.3,0.5s-1.6-0.2-2.3-0.5c-0.7-0.4-1.2-0.9-1.7-1.5c-0.4-0.6-0.8-1.4-1-2.3c-0.2-0.9-0.3-1.9-0.3-3c0-1.1,0.1-2.1,0.3-3
		c0.2-0.9,0.6-1.7,1-2.3c0.5-0.7,1-1.2,1.7-1.5c0.7-0.4,1.4-0.5,2.3-0.5s1.6,0.2,2.3,0.5c0.7,0.4,1.2,0.9,1.7,1.5
		c0.4,0.6,0.8,1.4,1,2.3C163.6,249.6,163.7,250.6,163.7,251.6z M161.7,251.7c0-0.7-0.1-1.4-0.2-2.1c-0.1-0.6-0.3-1.2-0.6-1.7
		c-0.3-0.5-0.6-0.8-1-1.1c-0.4-0.3-0.9-0.4-1.5-0.4s-1.1,0.1-1.5,0.4s-0.8,0.6-1,1.1c-0.3,0.5-0.5,1-0.6,1.7
		c-0.1,0.6-0.2,1.3-0.2,2.1s0.1,1.4,0.2,2.1c0.1,0.6,0.3,1.2,0.6,1.7c0.3,0.5,0.6,0.8,1,1.1s0.9,0.4,1.5,0.4s1.1-0.1,1.5-0.4
		c0.4-0.3,0.8-0.6,1-1.1c0.3-0.5,0.5-1,0.6-1.7C161.6,253.1,161.7,252.4,161.7,251.7z"/>
</g>
<g id="XMLID_274_">
	<path id="XMLID_278_" class="st7" d="M151.2,292.3c0,0.8-0.1,1.5-0.4,2.1s-0.6,1.1-1.1,1.5c-0.5,0.4-1,0.7-1.7,0.9
		c-0.6,0.2-1.3,0.3-2.1,0.3c-0.7,0-1.4-0.1-2-0.3c-0.6-0.2-1.2-0.5-1.6-1s-0.8-1.1-1.1-1.8c-0.3-0.7-0.4-1.6-0.4-2.6
		c0-0.6,0.1-1.3,0.2-2c0.1-0.7,0.3-1.3,0.6-2c0.3-0.7,0.6-1.3,1-1.9c0.4-0.6,1-1.1,1.6-1.6c0.6-0.5,1.3-0.8,2.2-1.1s1.8-0.4,2.8-0.5
		v2c-1.6,0.1-2.9,0.5-3.9,1.2c-1,0.8-1.8,1.9-2.2,3.4c0.5-0.4,1-0.7,1.5-0.9c0.5-0.2,1.2-0.3,2-0.3c0.6,0,1.2,0.1,1.7,0.3
		c0.5,0.2,1,0.5,1.4,0.8s0.7,0.8,1,1.4C151.1,290.9,151.2,291.6,151.2,292.3z M149.1,292.4c0-0.9-0.3-1.5-0.8-1.9
		c-0.5-0.4-1.3-0.6-2.3-0.6c-1,0-1.8,0.2-2.3,0.6c-0.6,0.4-0.9,1-0.9,1.9c0,0.4,0.1,0.7,0.2,1c0.1,0.3,0.3,0.6,0.6,0.8
		c0.3,0.2,0.6,0.4,1,0.6s0.8,0.2,1.3,0.2c1,0,1.8-0.2,2.4-0.7S149.1,293.2,149.1,292.4z"/>
	<path id="XMLID_275_" class="st7" d="M163.7,289.7c0,1.1-0.1,2.1-0.3,3c-0.2,0.9-0.6,1.7-1,2.3c-0.5,0.7-1,1.2-1.7,1.5
		s-1.4,0.5-2.3,0.5s-1.6-0.2-2.3-0.5c-0.7-0.4-1.2-0.9-1.7-1.5c-0.4-0.6-0.8-1.4-1-2.3c-0.2-0.9-0.3-1.9-0.3-3c0-1.1,0.1-2.1,0.3-3
		c0.2-0.9,0.6-1.7,1-2.3c0.5-0.7,1-1.2,1.7-1.5c0.7-0.4,1.4-0.5,2.3-0.5s1.6,0.2,2.3,0.5c0.7,0.4,1.2,0.9,1.7,1.5
		c0.4,0.6,0.8,1.4,1,2.3C163.6,287.6,163.7,288.6,163.7,289.7z M161.7,289.7c0-0.7-0.1-1.4-0.2-2.1c-0.1-0.6-0.3-1.2-0.6-1.7
		c-0.3-0.5-0.6-0.8-1-1.1c-0.4-0.3-0.9-0.4-1.5-0.4s-1.1,0.1-1.5,0.4s-0.8,0.6-1,1.1c-0.3,0.5-0.5,1-0.6,1.7
		c-0.1,0.6-0.2,1.3-0.2,2.1s0.1,1.4,0.2,2.1c0.1,0.6,0.3,1.2,0.6,1.7c0.3,0.5,0.6,0.8,1,1.1s0.9,0.4,1.5,0.4s1.1-0.1,1.5-0.4
		c0.4-0.3,0.8-0.6,1-1.1c0.3-0.5,0.5-1,0.6-1.7C161.6,291.2,161.7,290.5,161.7,289.7z"/>
</g>
<g id="XMLID_268_">
	<path id="XMLID_272_" class="st7" d="M149.8,325c-0.5,0.8-1,1.8-1.4,2.8c-0.4,1-0.7,2.1-1,3.3c-0.3,1.2-0.4,2.4-0.4,3.7h-2
		c0-1.2,0.1-2.4,0.3-3.5s0.5-2.1,0.9-3.2c0.4-1,0.8-2,1.3-2.9s1.1-1.8,1.7-2.7H142v-2.1h9.4v2.2C150.8,323.4,150.3,324.2,149.8,325z
		"/>
	<path id="XMLID_269_" class="st7" d="M163.8,327.7c0,1.1-0.1,2.1-0.3,3c-0.2,0.9-0.6,1.7-1,2.3c-0.5,0.7-1,1.2-1.7,1.5
		s-1.4,0.5-2.3,0.5s-1.6-0.2-2.3-0.5c-0.7-0.4-1.2-0.9-1.7-1.5c-0.4-0.6-0.8-1.4-1-2.3c-0.2-0.9-0.3-1.9-0.3-3c0-1.1,0.1-2.1,0.3-3
		c0.2-0.9,0.6-1.7,1-2.3c0.5-0.7,1-1.2,1.7-1.5c0.7-0.4,1.4-0.5,2.3-0.5s1.6,0.2,2.3,0.5c0.7,0.4,1.2,0.9,1.7,1.5
		c0.4,0.6,0.8,1.4,1,2.3C163.7,325.6,163.8,326.6,163.8,327.7z M161.7,327.7c0-0.7-0.1-1.4-0.2-2.1c-0.1-0.6-0.3-1.2-0.6-1.7
		c-0.3-0.5-0.6-0.8-1-1.1c-0.4-0.3-0.9-0.4-1.5-0.4s-1.1,0.1-1.5,0.4s-0.8,0.6-1,1.1c-0.3,0.5-0.5,1-0.6,1.7
		c-0.1,0.6-0.2,1.3-0.2,2.1s0.1,1.4,0.2,2.1c0.1,0.6,0.3,1.2,0.6,1.7c0.3,0.5,0.6,0.8,1,1.1s0.9,0.4,1.5,0.4s1.1-0.1,1.5-0.4
		c0.4-0.3,0.8-0.6,1-1.1c0.3-0.5,0.5-1,0.6-1.7C161.7,329.2,161.7,328.5,161.7,327.7z"/>
</g>
<text id="XMLID_267_" transform="matrix(0.9494 0 0 1 247.1102 370.1847)" class="st7 st8 st9">  </text>
<g id="XMLID_222_">
	<path id="XMLID_265_" class="st7" d="M695.3,18.3l-1.7-1.3l0.2,2.3H693l0.2-2.3l-1.7,1.3l-0.4-0.7l1.9-0.9l-1.9-0.9l0.4-0.7
		l1.7,1.3l-0.2-2.3h0.8l-0.2,2.3l1.7-1.3l0.4,0.7l-1.9,0.9l1.9,0.9L695.3,18.3z"/>
	<path id="XMLID_262_" class="st7" d="M703.1,19.9c0,0.6-0.1,1.2-0.2,1.7c-0.1,0.5-0.3,0.9-0.5,1.2c-0.2,0.3-0.5,0.6-0.8,0.7
		c-0.3,0.2-0.6,0.2-1,0.2c-0.4,0-0.8-0.1-1.1-0.3c-0.3-0.2-0.6-0.4-0.8-0.7v2.8l-1,0.6v-9.7h1l0,0.9c0.2-0.3,0.5-0.5,0.8-0.7
		c0.3-0.2,0.7-0.3,1.2-0.3c0.3,0,0.7,0.1,0.9,0.2c0.3,0.1,0.6,0.4,0.8,0.6c0.2,0.3,0.4,0.7,0.5,1.1S703.1,19.3,703.1,19.9z
		 M702.1,19.9c0-0.9-0.1-1.6-0.4-2.1c-0.3-0.5-0.7-0.7-1.3-0.7c-0.4,0-0.7,0.1-1,0.3c-0.3,0.2-0.6,0.4-0.8,0.8v3.6
		c0.2,0.3,0.4,0.6,0.8,0.8c0.3,0.2,0.7,0.3,1.1,0.3c0.6,0,1-0.3,1.3-0.7C702,21.6,702.1,20.9,702.1,19.9z"/>
	<path id="XMLID_260_" class="st7" d="M704.5,19.4v-0.9l3.3-3.4v1.3l-2.6,2.5l2.6,2.5v1.3L704.5,19.4z"/>
	<path id="XMLID_257_" class="st7" d="M716.2,18.9c0,0.8-0.1,1.5-0.2,2.1c-0.2,0.6-0.4,1.1-0.7,1.5c-0.3,0.4-0.7,0.7-1.1,0.9
		c-0.4,0.2-0.9,0.3-1.4,0.3c-0.5,0-1-0.1-1.4-0.3s-0.8-0.5-1.1-0.9c-0.3-0.4-0.5-0.9-0.7-1.5c-0.2-0.6-0.2-1.3-0.2-2.1
		c0-0.8,0.1-1.5,0.2-2.1c0.2-0.6,0.4-1.1,0.7-1.5c0.3-0.4,0.6-0.7,1.1-0.9s0.9-0.3,1.4-0.3c0.5,0,1,0.1,1.4,0.3
		c0.4,0.2,0.8,0.5,1.1,0.9c0.3,0.4,0.5,0.9,0.7,1.5C716.2,17.4,716.2,18.1,716.2,18.9z M715.3,18.9c0-1.2-0.2-2.2-0.6-2.9
		c-0.4-0.7-1-1-1.8-1s-1.4,0.3-1.8,1c-0.4,0.7-0.6,1.7-0.6,2.9c0,1.2,0.2,2.2,0.6,2.9s1,1,1.8,1s1.4-0.3,1.8-1
		C715.1,21,715.3,20.1,715.3,18.9z"/>
	<path id="XMLID_255_" class="st7" d="M719.1,22.9c0,0.2-0.1,0.4-0.2,0.6c-0.2,0.2-0.4,0.3-0.6,0.3s-0.4-0.1-0.6-0.3
		c-0.2-0.2-0.2-0.4-0.2-0.6c0-0.2,0.1-0.4,0.2-0.6c0.2-0.2,0.4-0.3,0.6-0.3s0.4,0.1,0.6,0.3C719,22.4,719.1,22.6,719.1,22.9z"/>
	<path id="XMLID_252_" class="st7" d="M727,18.9c0,0.8-0.1,1.5-0.2,2.1c-0.2,0.6-0.4,1.1-0.7,1.5c-0.3,0.4-0.7,0.7-1.1,0.9
		c-0.4,0.2-0.9,0.3-1.4,0.3c-0.5,0-1-0.1-1.4-0.3s-0.8-0.5-1.1-0.9c-0.3-0.4-0.5-0.9-0.7-1.5c-0.2-0.6-0.2-1.3-0.2-2.1
		c0-0.8,0.1-1.5,0.2-2.1c0.2-0.6,0.4-1.1,0.7-1.5c0.3-0.4,0.6-0.7,1.1-0.9s0.9-0.3,1.4-0.3c0.5,0,1,0.1,1.4,0.3
		c0.4,0.2,0.8,0.5,1.1,0.9c0.3,0.4,0.5,0.9,0.7,1.5C726.9,17.4,727,18.1,727,18.9z M726,18.9c0-1.2-0.2-2.2-0.6-2.9
		c-0.4-0.7-1-1-1.8-1s-1.4,0.3-1.8,1c-0.4,0.7-0.6,1.7-0.6,2.9c0,1.2,0.2,2.2,0.6,2.9s1,1,1.8,1s1.4-0.3,1.8-1
		C725.8,21,726,20.1,726,18.9z"/>
	<path id="XMLID_249_" class="st7" d="M735.2,18.9c0,0.8-0.1,1.5-0.2,2.1c-0.2,0.6-0.4,1.1-0.7,1.5c-0.3,0.4-0.7,0.7-1.1,0.9
		c-0.4,0.2-0.9,0.3-1.4,0.3c-0.5,0-1-0.1-1.4-0.3s-0.8-0.5-1.1-0.9c-0.3-0.4-0.5-0.9-0.7-1.5c-0.2-0.6-0.2-1.3-0.2-2.1
		c0-0.8,0.1-1.5,0.2-2.1c0.2-0.6,0.4-1.1,0.7-1.5c0.3-0.4,0.6-0.7,1.1-0.9s0.9-0.3,1.4-0.3c0.5,0,1,0.1,1.4,0.3
		c0.4,0.2,0.8,0.5,1.1,0.9c0.3,0.4,0.5,0.9,0.7,1.5C735.2,17.4,735.2,18.1,735.2,18.9z M734.3,18.9c0-1.2-0.2-2.2-0.6-2.9
		c-0.4-0.7-1-1-1.8-1s-1.4,0.3-1.8,1c-0.4,0.7-0.6,1.7-0.6,2.9c0,1.2,0.2,2.2,0.6,2.9s1,1,1.8,1s1.4-0.3,1.8-1
		C734.1,21,734.3,20.1,734.3,18.9z"/>
	<path id="XMLID_247_" class="st7" d="M743,20.4c0,0.6-0.1,1.1-0.2,1.5c-0.2,0.4-0.4,0.8-0.7,1c-0.3,0.3-0.7,0.5-1.1,0.6
		c-0.4,0.1-0.9,0.2-1.4,0.2c-0.6,0-1.1-0.1-1.6-0.2c-0.5-0.2-0.9-0.4-1.3-0.6l0.5-0.8c0.3,0.2,0.7,0.4,1.1,0.5
		c0.4,0.1,0.9,0.2,1.3,0.2c0.8,0,1.4-0.2,1.7-0.6c0.4-0.4,0.6-1,0.6-1.6c0-0.6-0.2-1.1-0.5-1.5c-0.4-0.4-0.9-0.5-1.6-0.5
		c-0.4,0-0.8,0.1-1.1,0.2c-0.3,0.1-0.6,0.3-0.8,0.4l-1-0.4l0.3-4.6h5.2v1h-4.3l-0.2,3c0.2-0.2,0.5-0.3,0.8-0.4
		c0.3-0.1,0.7-0.2,1.1-0.2c0.5,0,1,0.1,1.4,0.2c0.4,0.1,0.7,0.3,1,0.6c0.3,0.3,0.4,0.6,0.6,0.9C742.9,19.6,743,20,743,20.4z"/>
	<path id="XMLID_245_" class="st7" d="M745,25.2h-0.7l0.2-3.2h1.3L745,25.2z"/>
	<path id="XMLID_243_" class="st7" d="M695.3,34.6l-1.7-1.3l0.2,2.3H693l0.2-2.3l-1.7,1.3l-0.4-0.7l1.9-0.9l-1.9-0.9l0.4-0.7
		l1.7,1.3l-0.2-2.3h0.8l-0.2,2.3l1.7-1.3l0.4,0.7l-1.9,0.9l1.9,0.9L695.3,34.6z"/>
	<path id="XMLID_241_" class="st7" d="M701.7,34.6l-1.7-1.3l0.2,2.3h-0.8l0.2-2.3l-1.7,1.3l-0.4-0.7l1.9-0.9l-1.9-0.9l0.4-0.7
		l1.7,1.3l-0.2-2.3h0.8l-0.2,2.3l1.7-1.3l0.4,0.7l-1.9,0.9l1.9,0.9L701.7,34.6z"/>
	<path id="XMLID_238_" class="st7" d="M712.9,36.2c0,0.6-0.1,1.2-0.2,1.7c-0.1,0.5-0.3,0.9-0.5,1.2c-0.2,0.3-0.5,0.6-0.8,0.7
		c-0.3,0.2-0.6,0.2-1,0.2c-0.4,0-0.8-0.1-1.1-0.3c-0.3-0.2-0.6-0.4-0.8-0.7v2.8l-1,0.6v-9.7h1l0,0.9c0.2-0.3,0.5-0.5,0.8-0.7
		c0.3-0.2,0.7-0.3,1.2-0.3c0.3,0,0.7,0.1,0.9,0.2c0.3,0.1,0.6,0.4,0.8,0.6c0.2,0.3,0.4,0.7,0.5,1.1S712.9,35.6,712.9,36.2z
		 M711.9,36.2c0-0.9-0.1-1.6-0.4-2.1c-0.3-0.5-0.7-0.7-1.3-0.7c-0.4,0-0.7,0.1-1,0.3c-0.3,0.2-0.6,0.4-0.8,0.8v3.6
		c0.2,0.3,0.4,0.6,0.8,0.8c0.3,0.2,0.7,0.3,1.1,0.3c0.6,0,1-0.3,1.3-0.7C711.8,37.9,711.9,37.2,711.9,36.2z"/>
	<path id="XMLID_236_" class="st7" d="M714.8,41.5h-0.7l0.2-3.2h1.3L714.8,41.5z"/>
	<path id="XMLID_233_" class="st7" d="M723.7,35.1c0,0.8-0.1,1.5-0.2,2.1c-0.2,0.6-0.4,1.1-0.7,1.5c-0.3,0.4-0.7,0.7-1.1,0.9
		c-0.4,0.2-0.9,0.3-1.4,0.3c-0.5,0-1-0.1-1.4-0.3s-0.8-0.5-1.1-0.9c-0.3-0.4-0.5-0.9-0.7-1.5c-0.2-0.6-0.2-1.3-0.2-2.1
		c0-0.8,0.1-1.5,0.2-2.1c0.2-0.6,0.4-1.1,0.7-1.5c0.3-0.4,0.6-0.7,1.1-0.9s0.9-0.3,1.4-0.3c0.5,0,1,0.1,1.4,0.3
		c0.4,0.2,0.8,0.5,1.1,0.9c0.3,0.4,0.5,0.9,0.7,1.5C723.6,33.6,723.7,34.3,723.7,35.1z M722.7,35.1c0-1.2-0.2-2.2-0.6-2.9
		c-0.4-0.7-1-1-1.8-1s-1.4,0.3-1.8,1c-0.4,0.7-0.6,1.7-0.6,2.9c0,1.2,0.2,2.2,0.6,2.9s1,1,1.8,1s1.4-0.3,1.8-1
		C722.5,37.3,722.7,36.4,722.7,35.1z"/>
	<path id="XMLID_231_" class="st7" d="M726.5,39.2c0,0.2-0.1,0.4-0.2,0.6c-0.2,0.2-0.4,0.3-0.6,0.3s-0.4-0.1-0.6-0.3
		c-0.2-0.2-0.2-0.4-0.2-0.6c0-0.2,0.1-0.4,0.2-0.6c0.2-0.2,0.4-0.3,0.6-0.3s0.4,0.1,0.6,0.3C726.4,38.7,726.5,38.9,726.5,39.2z"/>
	<path id="XMLID_228_" class="st7" d="M734.4,35.1c0,0.8-0.1,1.5-0.2,2.1c-0.2,0.6-0.4,1.1-0.7,1.5c-0.3,0.4-0.7,0.7-1.1,0.9
		c-0.4,0.2-0.9,0.3-1.4,0.3c-0.5,0-1-0.1-1.4-0.3s-0.8-0.5-1.1-0.9c-0.3-0.4-0.5-0.9-0.7-1.5c-0.2-0.6-0.2-1.3-0.2-2.1
		c0-0.8,0.1-1.5,0.2-2.1c0.2-0.6,0.4-1.1,0.7-1.5c0.3-0.4,0.6-0.7,1.1-0.9s0.9-0.3,1.4-0.3c0.5,0,1,0.1,1.4,0.3
		c0.4,0.2,0.8,0.5,1.1,0.9c0.3,0.4,0.5,0.9,0.7,1.5C734.3,33.6,734.4,34.3,734.4,35.1z M733.4,35.1c0-1.2-0.2-2.2-0.6-2.9
		c-0.4-0.7-1-1-1.8-1s-1.4,0.3-1.8,1c-0.4,0.7-0.6,1.7-0.6,2.9c0,1.2,0.2,2.2,0.6,2.9s1,1,1.8,1s1.4-0.3,1.8-1
		C733.2,37.3,733.4,36.4,733.4,35.1z"/>
	<path id="XMLID_225_" class="st7" d="M742.7,35.1c0,0.8-0.1,1.5-0.2,2.1c-0.2,0.6-0.4,1.1-0.7,1.5c-0.3,0.4-0.7,0.7-1.1,0.9
		c-0.4,0.2-0.9,0.3-1.4,0.3c-0.5,0-1-0.1-1.4-0.3s-0.8-0.5-1.1-0.9c-0.3-0.4-0.5-0.9-0.7-1.5c-0.2-0.6-0.2-1.3-0.2-2.1
		c0-0.8,0.1-1.5,0.2-2.1c0.2-0.6,0.4-1.1,0.7-1.5c0.3-0.4,0.6-0.7,1.1-0.9s0.9-0.3,1.4-0.3c0.5,0,1,0.1,1.4,0.3
		c0.4,0.2,0.8,0.5,1.1,0.9c0.3,0.4,0.5,0.9,0.7,1.5C742.6,33.6,742.7,34.3,742.7,35.1z M741.7,35.1c0-1.2-0.2-2.2-0.6-2.9
		c-0.4-0.7-1-1-1.8-1s-1.4,0.3-1.8,1c-0.4,0.7-0.6,1.7-0.6,2.9c0,1.2,0.2,2.2,0.6,2.9s1,1,1.8,1s1.4-0.3,1.8-1
		C741.5,37.3,741.7,36.4,741.7,35.1z"/>
	<path id="XMLID_223_" class="st7" d="M745.3,39.9v-7.6h-1.6v-0.7c0.5,0,0.9-0.1,1.2-0.3c0.3-0.2,0.5-0.5,0.6-0.9h0.7v9.5H745.3z"/>
</g>
<g id="XMLID_188_">
	<path id="XMLID_220_" class="st7" d="M237.4,34.7c0,0.4-0.1,0.8-0.2,1.2s-0.3,0.7-0.6,0.9s-0.6,0.5-1,0.6c-0.4,0.1-0.9,0.2-1.5,0.2
		c-0.7,0-1.3-0.1-1.8-0.4s-1-0.6-1.4-1.1l1-1c0.3,0.3,0.7,0.6,1.1,0.8c0.4,0.2,0.8,0.3,1.3,0.3c1.2,0,1.9-0.5,1.9-1.4
		c0-0.2,0-0.3-0.1-0.5c-0.1-0.1-0.2-0.3-0.3-0.4c-0.2-0.1-0.4-0.2-0.6-0.3c-0.3-0.1-0.6-0.2-1-0.3c-0.5-0.1-0.9-0.3-1.3-0.4
		c-0.4-0.2-0.6-0.3-0.9-0.5c-0.2-0.2-0.4-0.5-0.5-0.7s-0.2-0.6-0.2-1.1c0-0.4,0.1-0.8,0.2-1.1c0.2-0.3,0.4-0.6,0.6-0.8
		c0.3-0.2,0.6-0.4,0.9-0.5c0.4-0.1,0.8-0.2,1.2-0.2c0.6,0,1.2,0.1,1.6,0.3c0.5,0.2,0.9,0.5,1.3,1l-1,1c-0.3-0.3-0.6-0.5-0.9-0.7
		c-0.3-0.1-0.7-0.2-1.2-0.2c-0.5,0-0.9,0.1-1.2,0.4s-0.4,0.5-0.4,0.8c0,0.2,0,0.3,0.1,0.4c0.1,0.1,0.2,0.3,0.3,0.4
		c0.1,0.1,0.3,0.2,0.6,0.3c0.3,0.1,0.6,0.2,1,0.3c0.4,0.1,0.8,0.3,1.2,0.4s0.7,0.3,0.9,0.6s0.4,0.5,0.6,0.8
		C237.3,33.9,237.4,34.3,237.4,34.7z"/>
	<path id="XMLID_217_" class="st7" d="M240.6,28.5c0,0.2-0.1,0.5-0.3,0.6s-0.4,0.3-0.6,0.3c-0.2,0-0.4-0.1-0.6-0.3
		c-0.2-0.2-0.3-0.4-0.3-0.6c0-0.3,0.1-0.5,0.3-0.6c0.2-0.2,0.4-0.3,0.6-0.3c0.2,0,0.4,0.1,0.6,0.3S240.6,28.3,240.6,28.5z M239,37.5
		v-7.1h1.3v7.1H239z"/>
	<path id="XMLID_215_" class="st7" d="M250,37.5v-4c0-0.7-0.1-1.2-0.3-1.5c-0.2-0.3-0.5-0.4-1-0.4c-0.4,0-0.8,0.2-1,0.5
		c-0.2,0.3-0.3,0.8-0.3,1.3v4.2h-1.3v-4c0-0.7-0.1-1.2-0.3-1.5c-0.2-0.3-0.5-0.4-1-0.4c-0.4,0-0.8,0.2-1,0.5
		c-0.2,0.3-0.3,0.8-0.3,1.3v4.2h-1.3v-7.1h1.3V31c0.2-0.3,0.4-0.5,0.7-0.6c0.3-0.1,0.6-0.2,0.9-0.2c0.5,0,0.8,0.1,1.1,0.3
		s0.5,0.4,0.7,0.8c0.1-0.2,0.2-0.3,0.4-0.4c0.1-0.1,0.3-0.2,0.4-0.3c0.2-0.1,0.3-0.2,0.5-0.2s0.4-0.1,0.7-0.1c0.8,0,1.4,0.3,1.8,0.8
		c0.4,0.5,0.6,1.3,0.6,2.4v4.1H250z"/>
	<path id="XMLID_212_" class="st7" d="M258.7,34c0,0.6-0.1,1.1-0.2,1.6c-0.1,0.4-0.3,0.8-0.6,1.1c-0.2,0.3-0.5,0.5-0.8,0.7
		c-0.3,0.1-0.7,0.2-1,0.2c-0.3,0-0.7-0.1-1-0.2c-0.3-0.2-0.5-0.4-0.7-0.6v2.6l-1.3,0.7v-9.7h1.3l0,0.7c0.2-0.2,0.5-0.4,0.8-0.6
		c0.3-0.2,0.6-0.2,1-0.2c0.4,0,0.7,0.1,1,0.2s0.6,0.4,0.8,0.7c0.2,0.3,0.4,0.7,0.6,1.2C258.6,32.7,258.7,33.3,258.7,34z M257.4,34.1
		c0-0.9-0.1-1.6-0.4-2c-0.3-0.4-0.6-0.6-1.1-0.6c-0.3,0-0.6,0.1-0.9,0.3c-0.3,0.2-0.5,0.4-0.7,0.6v3c0.1,0.1,0.2,0.2,0.3,0.3
		c0.1,0.1,0.2,0.2,0.4,0.3c0.1,0.1,0.3,0.2,0.4,0.2s0.3,0.1,0.5,0.1c0.5,0,0.8-0.2,1.1-0.6C257.2,35.4,257.4,34.8,257.4,34.1z"/>
	<path id="XMLID_210_" class="st7" d="M260.2,37.5v-9.2l1.3-0.7v9.9H260.2z"/>
	<path id="XMLID_207_" class="st7" d="M268.7,33.8c0,0.1,0,0.2,0,0.4c0,0.1,0,0.2,0,0.3h-4.5c0,0.3,0.1,0.6,0.2,0.9
		c0.1,0.2,0.2,0.4,0.4,0.6c0.2,0.2,0.3,0.3,0.5,0.4c0.2,0.1,0.4,0.1,0.6,0.1c0.3,0,0.5,0,0.8-0.1c0.2-0.1,0.5-0.2,0.7-0.4l0.8,0.9
		c-0.3,0.3-0.6,0.5-1,0.7c-0.4,0.2-0.8,0.2-1.3,0.2c-0.4,0-0.8-0.1-1.1-0.2s-0.7-0.4-0.9-0.7s-0.5-0.7-0.6-1.2
		c-0.2-0.5-0.2-1-0.2-1.6c0-0.6,0.1-1.1,0.2-1.6c0.1-0.5,0.3-0.8,0.6-1.2c0.3-0.3,0.6-0.6,0.9-0.7s0.8-0.2,1.2-0.2
		c0.5,0,0.9,0.1,1.3,0.3s0.7,0.4,0.9,0.8c0.2,0.3,0.4,0.7,0.5,1.1C268.7,32.8,268.7,33.3,268.7,33.8z M267.4,33.2
		c0-0.2-0.1-0.5-0.1-0.7c-0.1-0.2-0.2-0.4-0.3-0.6c-0.1-0.2-0.3-0.3-0.5-0.4c-0.2-0.1-0.4-0.1-0.7-0.1c-0.4,0-0.8,0.2-1.1,0.5
		c-0.3,0.3-0.4,0.8-0.5,1.3H267.4z"/>
	<path id="XMLID_204_" class="st7" d="M279.3,34c0,0.6-0.1,1.1-0.2,1.6c-0.1,0.4-0.3,0.8-0.6,1.1c-0.2,0.3-0.5,0.5-0.8,0.7
		c-0.3,0.1-0.7,0.2-1,0.2c-0.3,0-0.7-0.1-1-0.2c-0.3-0.2-0.5-0.4-0.7-0.6v2.6l-1.3,0.7v-9.7h1.3l0,0.7c0.2-0.2,0.5-0.4,0.8-0.6
		c0.3-0.2,0.6-0.2,1-0.2s0.7,0.1,1,0.2s0.6,0.4,0.8,0.7c0.2,0.3,0.4,0.7,0.6,1.2C279.3,32.7,279.3,33.3,279.3,34z M278,34.1
		c0-0.9-0.1-1.6-0.4-2c-0.3-0.4-0.6-0.6-1.1-0.6c-0.3,0-0.6,0.1-0.9,0.3c-0.3,0.2-0.5,0.4-0.7,0.6v3c0.1,0.1,0.2,0.2,0.3,0.3
		c0.1,0.1,0.2,0.2,0.4,0.3c0.1,0.1,0.3,0.2,0.4,0.2s0.3,0.1,0.5,0.1c0.5,0,0.8-0.2,1.1-0.6C277.9,35.4,278,34.8,278,34.1z"/>
	<path id="XMLID_201_" class="st7" d="M284.8,37.5v-0.7c-0.2,0.2-0.5,0.4-0.8,0.6s-0.7,0.2-1,0.2c-0.3,0-0.6,0-0.8-0.1
		s-0.5-0.2-0.8-0.4c-0.2-0.2-0.4-0.4-0.5-0.7s-0.2-0.7-0.2-1.1c0-0.4,0.1-0.7,0.2-1c0.1-0.3,0.3-0.5,0.6-0.7
		c0.2-0.2,0.5-0.3,0.9-0.4c0.3-0.1,0.7-0.1,1.1-0.1c0.6,0,1.1,0.1,1.5,0.3v-0.5c0-0.4-0.1-0.7-0.3-0.9c-0.2-0.2-0.5-0.3-0.9-0.3
		c-0.4,0-0.7,0-0.9,0.1c-0.3,0.1-0.6,0.2-0.8,0.3l-0.5-1.1c0.3-0.2,0.7-0.4,1-0.5c0.4-0.1,0.8-0.2,1.3-0.2c0.8,0,1.4,0.2,1.8,0.6
		c0.5,0.4,0.7,1,0.7,1.8v4.9H284.8z M284.8,34.4c-0.2-0.1-0.4-0.2-0.6-0.2c-0.2-0.1-0.5-0.1-0.9-0.1c-0.4,0-0.8,0.1-1,0.3
		s-0.4,0.4-0.4,0.8c0,0.4,0.1,0.6,0.3,0.9c0.2,0.2,0.5,0.3,1,0.3c0.4,0,0.7-0.1,1-0.3c0.3-0.2,0.5-0.4,0.7-0.6V34.4z"/>
	<path id="XMLID_199_" class="st7" d="M291.7,31.8c-0.1-0.1-0.3-0.1-0.5-0.2s-0.3-0.1-0.6-0.1c-0.4,0-0.7,0.2-1,0.5
		c-0.2,0.3-0.3,0.8-0.3,1.4v4.1H288v-7.1h1.3V31c0.2-0.2,0.4-0.4,0.6-0.6c0.3-0.2,0.6-0.2,0.9-0.2c0.3,0,0.5,0,0.7,0.1
		c0.2,0.1,0.3,0.1,0.5,0.2L291.7,31.8z"/>
	<path id="XMLID_197_" class="st7" d="M296.7,37.3c-0.2,0.1-0.4,0.2-0.6,0.2s-0.5,0.1-0.7,0.1c-0.5,0-0.8-0.2-1.1-0.5
		s-0.4-0.8-0.4-1.4v-4.1h-1v-1.3h1v-2l1.3-0.7v2.8h1.7v1.3h-1.7v3.9c0,0.3,0.1,0.6,0.2,0.7c0.1,0.1,0.3,0.2,0.5,0.2
		c0.2,0,0.3,0,0.5-0.1c0.2-0.1,0.3-0.1,0.5-0.2L296.7,37.3z"/>
	<path id="XMLID_194_" class="st7" d="M300.3,28.5c0,0.2-0.1,0.5-0.3,0.6s-0.4,0.3-0.6,0.3c-0.2,0-0.4-0.1-0.6-0.3
		c-0.2-0.2-0.3-0.4-0.3-0.6c0-0.3,0.1-0.5,0.3-0.6c0.2-0.2,0.4-0.3,0.6-0.3c0.2,0,0.4,0.1,0.6,0.3S300.3,28.3,300.3,28.5z
		 M298.8,37.5v-7.1h1.3v7.1H298.8z"/>
	<path id="XMLID_191_" class="st7" d="M306,37.5v-0.7c-0.2,0.2-0.5,0.4-0.8,0.6s-0.7,0.2-1,0.2c-0.3,0-0.6,0-0.8-0.1
		s-0.5-0.2-0.8-0.4c-0.2-0.2-0.4-0.4-0.5-0.7s-0.2-0.7-0.2-1.1c0-0.4,0.1-0.7,0.2-1c0.1-0.3,0.3-0.5,0.6-0.7
		c0.2-0.2,0.5-0.3,0.9-0.4c0.3-0.1,0.7-0.1,1.1-0.1c0.6,0,1.1,0.1,1.5,0.3v-0.5c0-0.4-0.1-0.7-0.3-0.9c-0.2-0.2-0.5-0.3-0.9-0.3
		c-0.4,0-0.7,0-0.9,0.1c-0.3,0.1-0.6,0.2-0.8,0.3l-0.5-1.1c0.3-0.2,0.7-0.4,1-0.5c0.4-0.1,0.8-0.2,1.3-0.2c0.8,0,1.4,0.2,1.8,0.6
		c0.5,0.4,0.7,1,0.7,1.8v4.9H306z M306,34.4c-0.2-0.1-0.4-0.2-0.6-0.2c-0.2-0.1-0.5-0.1-0.9-0.1c-0.4,0-0.8,0.1-1,0.3
		s-0.4,0.4-0.4,0.8c0,0.4,0.1,0.6,0.3,0.9c0.2,0.2,0.5,0.3,1,0.3c0.4,0,0.7-0.1,1-0.3c0.3-0.2,0.5-0.4,0.7-0.6V34.4z"/>
	<path id="XMLID_189_" class="st7" d="M309.3,37.5v-9.2l1.3-0.7v9.9H309.3z"/>
</g>
<g id="XMLID_168_">
	<path id="XMLID_186_" class="st7" d="M258,51.8c0,0.4-0.1,0.7-0.2,1c-0.1,0.3-0.3,0.5-0.6,0.6c-0.2,0.2-0.5,0.3-0.8,0.4
		c-0.3,0.1-0.6,0.1-1,0.1c-0.5,0-0.9-0.1-1.4-0.3c-0.5-0.2-0.9-0.4-1.2-0.7l0.6-1.1c0.3,0.2,0.6,0.4,1,0.5c0.3,0.1,0.7,0.2,1,0.2
		c0.8,0,1.2-0.3,1.2-0.8c0-0.3-0.1-0.5-0.4-0.7c-0.3-0.2-0.7-0.3-1.2-0.5c-0.4-0.1-0.7-0.3-0.9-0.4c-0.3-0.1-0.5-0.3-0.6-0.5
		c-0.2-0.2-0.3-0.4-0.3-0.6s-0.1-0.5-0.1-0.7c0-0.3,0.1-0.6,0.2-0.8s0.3-0.4,0.5-0.6c0.2-0.2,0.4-0.3,0.7-0.4s0.6-0.1,0.9-0.1
		c0.4,0,0.8,0.1,1.2,0.2c0.4,0.1,0.8,0.3,1.1,0.6l-0.6,1.1c-0.3-0.2-0.6-0.4-0.8-0.5c-0.3-0.1-0.6-0.1-0.9-0.1
		c-0.3,0-0.6,0.1-0.7,0.2c-0.1,0.1-0.2,0.3-0.2,0.5c0,0.1,0,0.2,0.1,0.3c0,0.1,0.1,0.2,0.2,0.2s0.2,0.2,0.4,0.3
		c0.2,0.1,0.4,0.2,0.6,0.3c0.4,0.2,0.7,0.3,1,0.4c0.3,0.1,0.5,0.3,0.7,0.5c0.2,0.2,0.3,0.4,0.4,0.6C257.9,51.2,258,51.5,258,51.8z"
		/>
	<path id="XMLID_183_" class="st7" d="M265,50.1c0,0.1,0,0.2,0,0.4c0,0.1,0,0.2,0,0.3h-4.5c0,0.3,0.1,0.6,0.2,0.9
		c0.1,0.2,0.2,0.4,0.4,0.6c0.2,0.2,0.3,0.3,0.5,0.4c0.2,0.1,0.4,0.1,0.6,0.1c0.3,0,0.5,0,0.8-0.1c0.2-0.1,0.5-0.2,0.7-0.4l0.8,0.9
		c-0.3,0.3-0.6,0.5-1,0.7c-0.4,0.2-0.8,0.2-1.3,0.2c-0.4,0-0.8-0.1-1.1-0.2s-0.7-0.4-0.9-0.7s-0.5-0.7-0.6-1.2
		c-0.2-0.5-0.2-1-0.2-1.6c0-0.6,0.1-1.1,0.2-1.6c0.1-0.5,0.3-0.8,0.6-1.2c0.3-0.3,0.6-0.6,0.9-0.7s0.8-0.2,1.2-0.2
		c0.5,0,0.9,0.1,1.3,0.3s0.7,0.4,0.9,0.8c0.2,0.3,0.4,0.7,0.5,1.1S265,49.6,265,50.1z M263.7,49.5c0-0.2-0.1-0.5-0.1-0.7
		c-0.1-0.2-0.2-0.4-0.3-0.6s-0.3-0.3-0.5-0.4c-0.2-0.1-0.4-0.1-0.7-0.1c-0.4,0-0.8,0.2-1.1,0.5c-0.3,0.3-0.4,0.8-0.5,1.3H263.7z"/>
	<path id="XMLID_180_" class="st7" d="M268.3,44.8c0,0.2-0.1,0.5-0.3,0.6s-0.4,0.3-0.6,0.3c-0.2,0-0.4-0.1-0.6-0.3
		c-0.2-0.2-0.3-0.4-0.3-0.6c0-0.3,0.1-0.5,0.3-0.6c0.2-0.2,0.4-0.3,0.6-0.3c0.2,0,0.4,0.1,0.6,0.3S268.3,44.6,268.3,44.8z
		 M266.8,53.8v-7.1h1.3v7.1H266.8z"/>
	<path id="XMLID_178_" class="st7" d="M269.9,53.8v-1.1l2.9-3.7c0.1-0.2,0.3-0.4,0.4-0.6c0.2-0.2,0.3-0.4,0.4-0.5
		c-0.1,0-0.1,0-0.2,0c-0.1,0-0.2,0-0.3,0s-0.2,0-0.3,0s-0.2,0-0.3,0h-2.2v-1.2h5v1.1l-2.8,3.7c-0.1,0.2-0.3,0.4-0.4,0.6
		c-0.2,0.2-0.3,0.4-0.4,0.5c0.1,0,0.1,0,0.3,0c0.1,0,0.2,0,0.3,0s0.2,0,0.3,0s0.2,0,0.3,0h2.4v1.2H269.9z"/>
	<path id="XMLID_176_" class="st7" d="M280.9,53.8v-0.7c-0.2,0.3-0.4,0.5-0.7,0.6c-0.3,0.1-0.6,0.2-1,0.2c-0.8,0-1.4-0.3-1.8-0.8
		s-0.6-1.3-0.6-2.4v-4.1h1.3v4c0,0.7,0.1,1.2,0.4,1.5c0.2,0.3,0.6,0.4,1,0.4c0.4,0,0.8-0.2,1-0.5c0.2-0.3,0.4-0.8,0.4-1.3v-4.2h1.3
		v7.1H280.9z"/>
	<path id="XMLID_174_" class="st7" d="M287.8,48.1c-0.1-0.1-0.3-0.1-0.5-0.2s-0.3-0.1-0.6-0.1c-0.4,0-0.7,0.2-1,0.5
		c-0.2,0.3-0.3,0.8-0.3,1.4v4.1h-1.3v-7.1h1.3v0.7c0.2-0.2,0.4-0.4,0.6-0.6c0.3-0.2,0.6-0.2,0.9-0.2c0.3,0,0.5,0,0.7,0.1
		c0.2,0.1,0.3,0.1,0.5,0.2L287.8,48.1z"/>
	<path id="XMLID_171_" class="st7" d="M294.7,50.1c0,0.1,0,0.2,0,0.4c0,0.1,0,0.2,0,0.3h-4.5c0,0.3,0.1,0.6,0.2,0.9
		c0.1,0.2,0.2,0.4,0.4,0.6c0.2,0.2,0.3,0.3,0.5,0.4c0.2,0.1,0.4,0.1,0.6,0.1c0.3,0,0.5,0,0.8-0.1c0.2-0.1,0.5-0.2,0.7-0.4l0.8,0.9
		c-0.3,0.3-0.6,0.5-1,0.7c-0.4,0.2-0.8,0.2-1.3,0.2c-0.4,0-0.8-0.1-1.1-0.2s-0.7-0.4-0.9-0.7s-0.5-0.7-0.6-1.2
		c-0.2-0.5-0.2-1-0.2-1.6c0-0.6,0.1-1.1,0.2-1.6c0.1-0.5,0.3-0.8,0.6-1.2c0.3-0.3,0.6-0.6,0.9-0.7s0.8-0.2,1.2-0.2
		c0.5,0,0.9,0.1,1.3,0.3s0.7,0.4,0.9,0.8c0.2,0.3,0.4,0.7,0.5,1.1S294.7,49.6,294.7,50.1z M293.4,49.5c0-0.2-0.1-0.5-0.1-0.7
		c-0.1-0.2-0.2-0.4-0.3-0.6s-0.3-0.3-0.5-0.4c-0.2-0.1-0.4-0.1-0.7-0.1c-0.4,0-0.8,0.2-1.1,0.5c-0.3,0.3-0.4,0.8-0.5,1.3H293.4z"/>
	<path id="XMLID_169_" class="st7" d="M301,51.8c0,0.4-0.1,0.7-0.2,1c-0.1,0.3-0.3,0.5-0.6,0.6c-0.2,0.2-0.5,0.3-0.8,0.4
		c-0.3,0.1-0.6,0.1-1,0.1c-0.5,0-0.9-0.1-1.4-0.3c-0.5-0.2-0.9-0.4-1.2-0.7l0.6-1.1c0.3,0.2,0.6,0.4,1,0.5c0.3,0.1,0.7,0.2,1,0.2
		c0.8,0,1.2-0.3,1.2-0.8c0-0.3-0.1-0.5-0.4-0.7c-0.3-0.2-0.7-0.3-1.2-0.5c-0.4-0.1-0.7-0.3-0.9-0.4c-0.3-0.1-0.5-0.3-0.6-0.5
		c-0.2-0.2-0.3-0.4-0.3-0.6s-0.1-0.5-0.1-0.7c0-0.3,0.1-0.6,0.2-0.8s0.3-0.4,0.5-0.6c0.2-0.2,0.4-0.3,0.7-0.4s0.6-0.1,0.9-0.1
		c0.4,0,0.8,0.1,1.2,0.2c0.4,0.1,0.8,0.3,1.1,0.6l-0.6,1.1c-0.3-0.2-0.6-0.4-0.8-0.5c-0.3-0.1-0.6-0.1-0.9-0.1
		c-0.3,0-0.6,0.1-0.7,0.2c-0.1,0.1-0.2,0.3-0.2,0.5c0,0.1,0,0.2,0.1,0.3c0,0.1,0.1,0.2,0.2,0.2s0.2,0.2,0.4,0.3
		c0.2,0.1,0.4,0.2,0.6,0.3c0.4,0.2,0.7,0.3,1,0.4c0.3,0.1,0.5,0.3,0.7,0.5c0.2,0.2,0.3,0.4,0.4,0.6C301,51.2,301,51.5,301,51.8z"/>
</g>
<path id="XMLID_166_" class="st10" d="M242.2,75"/>
<path id="XMLID_164_" class="st11" d="M377,328"/>
<path id="XMLID_163_" class="st10" d="M324.2,75"/>
<path id="XMLID_161_" class="st11" d="M489.4,328L489.4,328"/>
<g id="XMLID_77_">
	<path id="XMLID_159_" class="st12" d="M33.7,313.1c-0.1,0.3-0.2,0.5-0.3,0.8c-0.1,0.3-0.1,0.6-0.1,1c0,0.7,0.3,1.3,0.8,1.7
		c0.5,0.4,1.3,0.6,2.3,0.6h6.7v2.3H31.3v-2.3h1.1c-0.4-0.3-0.7-0.6-1-1.1c-0.3-0.5-0.4-1-0.4-1.6c0-0.5,0-0.9,0.1-1.2
		c0.1-0.3,0.2-0.6,0.4-0.8L33.7,313.1z"/>
	<path id="XMLID_156_" class="st12" d="M36.9,301.2c0.2,0,0.4,0,0.6,0c0.2,0,0.3,0,0.5,0v7.8c0.6-0.1,1.1-0.2,1.5-0.4
		c0.4-0.2,0.7-0.4,1-0.7c0.3-0.3,0.5-0.6,0.6-0.9c0.1-0.3,0.2-0.7,0.2-1c0-0.5-0.1-0.9-0.2-1.4c-0.2-0.4-0.4-0.8-0.7-1.2l1.5-1.4
		c0.5,0.5,0.9,1.1,1.1,1.8s0.4,1.4,0.4,2.3c0,0.7-0.1,1.3-0.4,2s-0.7,1.2-1.2,1.6c-0.5,0.5-1.2,0.8-1.9,1.1
		c-0.8,0.3-1.6,0.4-2.6,0.4c-1,0-1.9-0.1-2.6-0.4s-1.4-0.6-1.9-1.1c-0.5-0.4-0.9-1-1.2-1.6c-0.3-0.6-0.4-1.3-0.4-2.1
		c0-0.8,0.2-1.6,0.5-2.2c0.3-0.6,0.7-1.1,1.3-1.5c0.5-0.4,1.2-0.7,1.9-0.9S36.1,301.2,36.9,301.2z M36.1,303.5
		c-0.4,0-0.8,0.1-1.1,0.2c-0.4,0.1-0.7,0.3-0.9,0.5c-0.3,0.2-0.5,0.5-0.6,0.8c-0.2,0.3-0.2,0.7-0.2,1.2c0,0.8,0.3,1.4,0.8,1.9
		c0.5,0.5,1.2,0.7,2.2,0.8V303.5z"/>
	<path id="XMLID_153_" class="st12" d="M43,291.2h-1.1c0.4,0.4,0.7,0.9,1,1.4c0.3,0.5,0.4,1.1,0.4,1.7s-0.1,1.2-0.4,1.8
		s-0.6,1-1.1,1.4c-0.5,0.4-1.2,0.7-2,1c-0.8,0.2-1.8,0.3-2.9,0.3c-1,0-1.9-0.1-2.6-0.4c-0.7-0.3-1.4-0.6-1.9-1
		c-0.5-0.4-0.9-0.9-1.1-1.5c-0.2-0.6-0.4-1.1-0.4-1.8c0-0.6,0.1-1.2,0.4-1.7c0.3-0.5,0.6-1,1-1.3h-4.5l-1.2-2.3H43V291.2z
		 M34.7,291.1c-0.2,0.1-0.4,0.3-0.5,0.5c-0.2,0.2-0.3,0.4-0.5,0.7c-0.1,0.2-0.3,0.5-0.4,0.8c-0.1,0.3-0.1,0.6-0.1,0.8
		c0,0.8,0.3,1.5,0.9,1.9c0.6,0.4,1.6,0.7,2.8,0.7c1.5,0,2.6-0.2,3.2-0.7c0.7-0.5,1-1.1,1-2c0-0.6-0.2-1.1-0.5-1.5s-0.7-0.8-1-1.1
		H34.7z"/>
	<path id="XMLID_151_" class="st12" d="M43,278.4h-1.1c0.4,0.3,0.8,0.7,1,1.2c0.2,0.5,0.4,1.1,0.4,1.7c0,1.4-0.4,2.4-1.3,3.1
		c-0.9,0.7-2.2,1.1-4,1.1h-6.8v-2.3h6.7c1.2,0,2-0.2,2.5-0.6c0.5-0.4,0.7-1,0.7-1.8c0-0.8-0.3-1.4-0.8-1.8c-0.5-0.4-1.3-0.6-2.2-0.6
		h-6.9v-2.3H43V278.4z"/>
	<path id="XMLID_149_" class="st12" d="M34.7,265.3c-0.5,0.5-0.9,0.9-1.1,1.4c-0.2,0.5-0.3,0.9-0.3,1.5c0,0.9,0.3,1.5,1,2
		c0.7,0.5,1.7,0.7,2.9,0.7c0.6,0,1.1-0.1,1.6-0.2s0.9-0.3,1.3-0.5c0.4-0.2,0.6-0.5,0.8-0.9c0.2-0.4,0.3-0.8,0.3-1.2
		c0-0.6-0.1-1-0.4-1.4c-0.2-0.4-0.6-0.8-1.1-1.3l1.5-1.5c0.3,0.2,0.6,0.5,0.8,0.7c0.3,0.3,0.5,0.6,0.7,0.9c0.2,0.3,0.4,0.7,0.5,1.1
		s0.2,0.9,0.2,1.4c0,0.7-0.1,1.4-0.4,2c-0.3,0.6-0.7,1.2-1.2,1.6s-1.2,0.8-1.9,1.1c-0.7,0.3-1.6,0.4-2.5,0.4c-1,0-1.8-0.1-2.6-0.4
		s-1.4-0.6-1.9-1.1c-0.5-0.5-0.9-1-1.2-1.6c-0.3-0.6-0.4-1.3-0.4-2c0-0.9,0.2-1.6,0.5-2.3c0.3-0.7,0.8-1.3,1.5-1.9L34.7,265.3z"/>
	<path id="XMLID_147_" class="st12" d="M42.8,255.3c0.2,0.3,0.3,0.6,0.4,1c0.1,0.4,0.1,0.8,0.1,1.3c0,0.8-0.3,1.5-0.8,1.9
		s-1.3,0.7-2.4,0.7h-6.8v1.7h-2.1v-1.7h-3.4l-1.2-2.3h4.6V255h2.1v2.9h6.4c0.6,0,0.9-0.1,1.1-0.3c0.2-0.2,0.3-0.5,0.3-0.9
		c0-0.3,0-0.6-0.1-0.9c-0.1-0.3-0.2-0.6-0.3-0.8L42.8,255.3z"/>
	<path id="XMLID_144_" class="st12" d="M28.3,249.1c0.4,0,0.8,0.1,1,0.4c0.3,0.3,0.4,0.6,0.4,1c0,0.4-0.1,0.8-0.4,1.1
		c-0.3,0.3-0.6,0.4-1,0.4c-0.4,0-0.8-0.1-1.1-0.4c-0.3-0.3-0.4-0.6-0.4-1.1c0-0.4,0.1-0.8,0.4-1S27.8,249.1,28.3,249.1z M43.1,251.8
		H31.3v-2.3h11.8V251.8z"/>
	<path id="XMLID_141_" class="st12" d="M37.1,236c1,0,1.8,0.1,2.6,0.4s1.4,0.6,2,1.1c0.5,0.5,0.9,1,1.2,1.7c0.3,0.6,0.4,1.3,0.4,2.1
		c0,0.7-0.1,1.4-0.4,2.1c-0.3,0.6-0.7,1.2-1.2,1.6c-0.5,0.5-1.2,0.8-1.9,1.1c-0.7,0.3-1.6,0.4-2.5,0.4c-1,0-1.8-0.1-2.6-0.4
		s-1.4-0.6-1.9-1.1c-0.5-0.5-0.9-1-1.2-1.7c-0.3-0.6-0.4-1.3-0.4-2.1c0-0.7,0.1-1.4,0.4-2.1c0.3-0.6,0.7-1.2,1.2-1.7
		c0.5-0.5,1.2-0.8,1.9-1.1C35.4,236.2,36.2,236,37.1,236z M37.2,238.3c-1.2,0-2.2,0.3-2.9,0.8c-0.7,0.5-1.1,1.3-1.1,2.2
		c0,0.9,0.4,1.6,1.1,2.1c0.7,0.5,1.7,0.8,2.8,0.8c1.3,0,2.3-0.3,3-0.8c0.7-0.5,1-1.3,1-2.1c0-0.4-0.1-0.8-0.3-1.2
		c-0.2-0.4-0.5-0.7-0.8-0.9c-0.4-0.3-0.8-0.5-1.2-0.6C38.2,238.4,37.7,238.3,37.2,238.3z"/>
	<path id="XMLID_139_" class="st12" d="M43.1,226h-6.7c-1.2,0-2,0.2-2.5,0.6s-0.7,1-0.7,1.8c0,0.8,0.3,1.4,0.8,1.8
		c0.5,0.4,1.3,0.6,2.2,0.6h6.9v2.3H31.3v-2.3h1.1c-0.4-0.3-0.8-0.7-1-1.2c-0.2-0.5-0.4-1.1-0.4-1.7c0-1.4,0.4-2.4,1.3-3.1
		c0.9-0.7,2.2-1.1,4-1.1h6.8V226z"/>
	<path id="XMLID_136_" class="st12" d="M29,211.8c0.4,0,0.7,0.1,1,0.4c0.3,0.3,0.4,0.6,0.4,1c0,0.4-0.1,0.7-0.4,1
		c-0.3,0.3-0.6,0.4-1,0.4c-0.4,0-0.7-0.1-1-0.4c-0.3-0.3-0.4-0.6-0.4-1c0-0.4,0.1-0.7,0.4-1C28.3,211.9,28.6,211.8,29,211.8z
		 M43.1,214.3H31.8v-2.2h11.2V214.3z"/>
	<path id="XMLID_134_" class="st12" d="M43.1,201.9h-6.3c-1.1,0-1.9,0.2-2.4,0.6c-0.5,0.4-0.7,1-0.7,1.7c0,0.7,0.2,1.3,0.7,1.7
		s1.2,0.6,2.1,0.6h6.5v2.2H31.9v-2.2h1.1c-0.4-0.3-0.7-0.7-1-1.2c-0.2-0.5-0.3-1-0.3-1.6c0-1.3,0.4-2.3,1.3-3c0.8-0.7,2.1-1,3.8-1
		h6.4V201.9z"/>
	<path id="XMLID_131_" class="st12" d="M37.6,181.4c1,0,1.8,0.1,2.5,0.4s1.3,0.6,1.8,1s0.8,0.9,1,1.4s0.3,1.1,0.3,1.7
		c0,0.6-0.1,1.1-0.4,1.6c-0.3,0.5-0.6,0.9-0.9,1.2h4l1.1,2.2H31.9v-2.2l1.1,0c-0.4-0.4-0.7-0.9-0.9-1.3c-0.3-0.5-0.4-1-0.4-1.6
		s0.1-1.2,0.3-1.7c0.2-0.5,0.6-1,1.1-1.4c0.5-0.4,1.1-0.7,1.9-0.9C35.7,181.5,36.6,181.4,37.6,181.4z M37.7,183.6
		c-1.4,0-2.4,0.2-3.1,0.6c-0.6,0.4-1,1.1-1,1.9c0,0.5,0.1,1,0.4,1.4c0.3,0.4,0.6,0.8,1,1.1h4.7c0.2-0.1,0.3-0.3,0.5-0.5
		c0.2-0.2,0.3-0.4,0.5-0.6c0.1-0.2,0.3-0.5,0.4-0.7c0.1-0.3,0.1-0.5,0.1-0.8c0-0.8-0.3-1.4-0.9-1.8
		C39.8,183.8,38.9,183.6,37.7,183.6z"/>
	<path id="XMLID_128_" class="st12" d="M43.1,172.4h-1.1c0.4,0.4,0.7,0.8,1,1.4c0.3,0.5,0.4,1.1,0.4,1.7c0,0.5-0.1,0.9-0.2,1.4
		c-0.1,0.5-0.4,0.9-0.7,1.2s-0.7,0.7-1.2,0.9c-0.5,0.2-1.1,0.4-1.8,0.4c-0.6,0-1.2-0.1-1.6-0.3s-0.8-0.5-1.1-0.9s-0.5-0.9-0.7-1.4
		s-0.2-1.1-0.2-1.8c0-1,0.1-1.9,0.4-2.5h-0.8c-0.6,0-1.1,0.2-1.4,0.5c-0.3,0.4-0.5,0.9-0.5,1.6c0,0.6,0.1,1.1,0.2,1.6
		c0.1,0.5,0.3,0.9,0.5,1.4l-1.7,0.9c-0.3-0.5-0.6-1.1-0.7-1.7c-0.2-0.6-0.3-1.3-0.3-2.1c0-1.3,0.3-2.3,0.9-3
		c0.6-0.8,1.6-1.2,2.8-1.2h7.7V172.4z M38.3,172.4c-0.2,0.3-0.3,0.7-0.4,1.1c-0.1,0.4-0.1,0.9-0.1,1.5c0,0.7,0.1,1.3,0.4,1.7
		c0.3,0.4,0.7,0.6,1.2,0.6c0.6,0,1-0.2,1.3-0.5c0.3-0.4,0.5-0.9,0.5-1.6c0-0.6-0.1-1.1-0.4-1.6c-0.3-0.5-0.6-0.8-1-1.1H38.3z"/>
	<path id="XMLID_126_" class="st12" d="M34.2,161c-0.1,0.2-0.2,0.5-0.3,0.7s-0.1,0.6-0.1,0.9c0,0.7,0.2,1.2,0.7,1.6
		c0.5,0.4,1.2,0.6,2.2,0.6h6.4v2.2H31.8v-2.2h1.1c-0.4-0.3-0.7-0.6-0.9-1.1s-0.4-1-0.4-1.5c0-0.5,0-0.8,0.1-1.1
		c0.1-0.3,0.2-0.6,0.4-0.8L34.2,161z"/>
	<path id="XMLID_124_" class="st12" d="M42.8,152.6c0.2,0.3,0.3,0.6,0.4,1c0.1,0.4,0.1,0.8,0.1,1.2c0,0.8-0.2,1.4-0.7,1.8
		c-0.5,0.4-1.2,0.7-2.2,0.7h-6.5v1.6h-2v-1.6h-3.2l-1.2-2.2h4.4v-2.8h2v2.8h6.1c0.5,0,0.9-0.1,1.1-0.3c0.2-0.2,0.3-0.5,0.3-0.9
		c0-0.3,0-0.6-0.1-0.9c-0.1-0.3-0.2-0.5-0.3-0.7L42.8,152.6z"/>
	<path id="XMLID_121_" class="st12" d="M29,146.7c0.4,0,0.7,0.1,1,0.4c0.3,0.3,0.4,0.6,0.4,1c0,0.4-0.1,0.7-0.4,1
		c-0.3,0.3-0.6,0.4-1,0.4c-0.4,0-0.7-0.1-1-0.4c-0.3-0.3-0.4-0.6-0.4-1c0-0.4,0.1-0.7,0.4-1S28.6,146.7,29,146.7z M43.1,149.2H31.8
		V147h11.2V149.2z"/>
	<path id="XMLID_118_" class="st12" d="M43.1,137.2h-1.1c0.4,0.4,0.7,0.8,1,1.4c0.3,0.5,0.4,1.1,0.4,1.7c0,0.5-0.1,0.9-0.2,1.4
		c-0.1,0.5-0.4,0.9-0.7,1.2s-0.7,0.7-1.2,0.9s-1.1,0.4-1.8,0.4c-0.6,0-1.2-0.1-1.6-0.3c-0.5-0.2-0.8-0.5-1.1-0.9
		c-0.3-0.4-0.5-0.9-0.7-1.4c-0.1-0.5-0.2-1.1-0.2-1.8c0-1,0.1-1.9,0.4-2.5h-0.8c-0.6,0-1.1,0.2-1.4,0.5c-0.3,0.4-0.5,0.9-0.5,1.6
		c0,0.6,0.1,1.1,0.2,1.6c0.1,0.5,0.3,0.9,0.5,1.4l-1.7,0.9c-0.3-0.5-0.6-1.1-0.7-1.7c-0.2-0.6-0.3-1.3-0.3-2.1c0-1.3,0.3-2.3,0.9-3
		c0.6-0.8,1.6-1.2,2.8-1.2h7.7V137.2z M38.3,137.2c-0.2,0.3-0.3,0.7-0.4,1.1c-0.1,0.4-0.1,0.9-0.1,1.5c0,0.7,0.1,1.3,0.4,1.7
		c0.3,0.4,0.7,0.6,1.2,0.6c0.6,0,1-0.2,1.3-0.5c0.3-0.4,0.5-0.9,0.5-1.6c0-0.6-0.1-1.1-0.4-1.6c-0.3-0.5-0.6-0.8-1-1.1H38.3z"/>
	<path id="XMLID_116_" class="st12" d="M43.1,131.8H28.6l-1.2-2.2h15.6V131.8z"/>
	<path id="XMLID_114_" class="st12" d="M40,112.6c0.6,0,1.1,0.1,1.6,0.4c0.4,0.2,0.8,0.5,1,0.9c0.3,0.4,0.4,0.8,0.6,1.3
		c0.1,0.5,0.2,1,0.2,1.6c0,0.8-0.1,1.5-0.4,2.3c-0.3,0.8-0.6,1.4-1,2l-1.7-1c0.4-0.5,0.6-1.1,0.8-1.6c0.2-0.6,0.3-1.1,0.3-1.6
		c0-1.4-0.4-2-1.2-2c-0.4,0-0.8,0.2-1,0.7c-0.3,0.5-0.5,1.1-0.9,1.9c-0.2,0.6-0.5,1.1-0.7,1.5c-0.2,0.4-0.5,0.8-0.8,1
		c-0.3,0.3-0.6,0.5-0.9,0.6c-0.3,0.1-0.7,0.2-1.2,0.2c-0.5,0-0.9-0.1-1.3-0.3s-0.7-0.4-1-0.8c-0.3-0.3-0.4-0.7-0.6-1.2
		c-0.1-0.5-0.2-1-0.2-1.5c0-0.7,0.1-1.4,0.3-2.1c0.2-0.7,0.5-1.2,0.9-1.7l1.7,1c-0.3,0.5-0.6,0.9-0.7,1.4c-0.2,0.5-0.2,1-0.2,1.5
		c0,0.5,0.1,0.9,0.3,1.2c0.2,0.2,0.4,0.4,0.7,0.4c0.1,0,0.3,0,0.4-0.1c0.1-0.1,0.2-0.2,0.4-0.3c0.1-0.2,0.3-0.4,0.4-0.6
		s0.3-0.6,0.5-1c0.2-0.6,0.5-1.2,0.7-1.7c0.2-0.5,0.5-0.9,0.7-1.2c0.3-0.3,0.6-0.6,1-0.7C39,112.7,39.5,112.6,40,112.6z"/>
	<path id="XMLID_111_" class="st12" d="M37.2,101c0.2,0,0.4,0,0.6,0c0.2,0,0.3,0,0.4,0v7.4c0.5-0.1,1-0.2,1.4-0.3
		c0.4-0.2,0.7-0.4,1-0.6c0.2-0.3,0.4-0.5,0.6-0.9c0.1-0.3,0.2-0.6,0.2-1c0-0.5-0.1-0.9-0.2-1.3c-0.2-0.4-0.4-0.8-0.7-1.1l1.4-1.3
		c0.5,0.5,0.8,1.1,1.1,1.7c0.3,0.6,0.4,1.3,0.4,2.2c0,0.7-0.1,1.3-0.4,1.9c-0.3,0.6-0.6,1.1-1.1,1.5c-0.5,0.4-1.1,0.8-1.8,1
		c-0.7,0.3-1.6,0.4-2.5,0.4c-1,0-1.8-0.1-2.5-0.4c-0.7-0.2-1.3-0.6-1.8-1c-0.5-0.4-0.9-0.9-1.1-1.5s-0.4-1.3-0.4-2
		c0-0.8,0.1-1.5,0.4-2.1s0.7-1.1,1.2-1.5c0.5-0.4,1.1-0.7,1.8-0.9C35.8,101.1,36.5,101,37.2,101z M36.4,103.2
		c-0.4,0-0.7,0.1-1.1,0.2c-0.3,0.1-0.6,0.3-0.9,0.5c-0.3,0.2-0.5,0.5-0.6,0.8c-0.1,0.3-0.2,0.7-0.2,1.2c0,0.7,0.2,1.3,0.7,1.8
		c0.5,0.4,1.2,0.7,2.1,0.8V103.2z"/>
	<path id="XMLID_108_" class="st12" d="M29,95.6c0.4,0,0.7,0.1,1,0.4c0.3,0.3,0.4,0.6,0.4,1c0,0.4-0.1,0.7-0.4,1
		c-0.3,0.3-0.6,0.4-1,0.4c-0.4,0-0.7-0.1-1-0.4c-0.3-0.3-0.4-0.6-0.4-1c0-0.4,0.1-0.7,0.4-1C28.3,95.7,28.6,95.6,29,95.6z
		 M43.1,98.1H31.8v-2.2h11.2V98.1z"/>
	<path id="XMLID_106_" class="st12" d="M43.1,92.9h-1.8l-5.9-4.8c-0.3-0.2-0.6-0.5-0.9-0.7c-0.3-0.3-0.6-0.5-0.7-0.6
		c0,0.1,0,0.2,0,0.4s0,0.4,0,0.5c0,0.2,0,0.4,0,0.6s0,0.3,0,0.5v3.7h-1.9v-8.2h1.8l5.9,4.7c0.3,0.2,0.6,0.5,0.9,0.7s0.6,0.5,0.7,0.6
		c0-0.1,0-0.2,0-0.4c0-0.2,0-0.4,0-0.6c0-0.2,0-0.4,0-0.6c0-0.2,0-0.4,0-0.5v-4h1.9V92.9z"/>
	<path id="XMLID_104_" class="st12" d="M43,74.8H42c0.4,0.3,0.7,0.7,1,1.2c0.2,0.5,0.3,1,0.3,1.6c0,1.3-0.4,2.3-1.3,3
		c-0.8,0.7-2.1,1-3.8,1h-6.4v-2.2h6.3c1.1,0,1.9-0.2,2.4-0.6c0.5-0.4,0.7-1,0.7-1.7c0-0.7-0.2-1.3-0.7-1.7s-1.2-0.6-2.1-0.6h-6.5
		v-2.2H43V74.8z"/>
	<path id="XMLID_102_" class="st12" d="M34.2,63.3c-0.1,0.2-0.2,0.5-0.3,0.7c-0.1,0.3-0.1,0.6-0.1,0.9c0,0.7,0.2,1.2,0.7,1.6
		s1.2,0.6,2.2,0.6h6.4v2.2H31.8v-2.2h1.1c-0.4-0.3-0.7-0.6-0.9-1.1s-0.4-1-0.4-1.5c0-0.5,0-0.8,0.1-1.1c0.1-0.3,0.2-0.6,0.4-0.8
		L34.2,63.3z"/>
	<path id="XMLID_99_" class="st12" d="M37.2,51.9c0.2,0,0.4,0,0.6,0c0.2,0,0.3,0,0.4,0v7.4c0.5-0.1,1-0.2,1.4-0.3
		c0.4-0.2,0.7-0.4,1-0.6c0.2-0.3,0.4-0.5,0.6-0.9c0.1-0.3,0.2-0.6,0.2-1c0-0.5-0.1-0.9-0.2-1.3c-0.2-0.4-0.4-0.8-0.7-1.1l1.4-1.3
		c0.5,0.5,0.8,1.1,1.1,1.7c0.3,0.6,0.4,1.3,0.4,2.2c0,0.7-0.1,1.3-0.4,1.9c-0.3,0.6-0.6,1.1-1.1,1.5c-0.5,0.4-1.1,0.8-1.8,1
		c-0.7,0.3-1.6,0.4-2.5,0.4c-1,0-1.8-0.1-2.5-0.4c-0.7-0.2-1.3-0.6-1.8-1c-0.5-0.4-0.9-0.9-1.1-1.5s-0.4-1.3-0.4-2
		c0-0.8,0.1-1.5,0.4-2.1s0.7-1.1,1.2-1.5c0.5-0.4,1.1-0.7,1.8-0.9C35.8,52,36.5,51.9,37.2,51.9z M36.4,54.1c-0.4,0-0.7,0.1-1.1,0.2
		c-0.3,0.1-0.6,0.3-0.9,0.5c-0.3,0.2-0.5,0.5-0.6,0.8c-0.1,0.3-0.2,0.7-0.2,1.2c0,0.7,0.2,1.3,0.7,1.8c0.5,0.4,1.2,0.7,2.1,0.8V54.1
		z"/>
	<path id="XMLID_97_" class="st12" d="M55.1,233.5c0,0.4,0.1,0.6,0.2,0.8c0.2,0.2,0.4,0.2,0.9,0.2h1.3v-2.1h2v2.1h9.2v2.2h-9.2v1.5
		h-2v-1.5H56c-0.5,0-0.9-0.1-1.3-0.2c-0.4-0.2-0.6-0.4-0.9-0.6c-0.2-0.3-0.4-0.6-0.5-0.9c-0.1-0.3-0.1-0.7-0.1-1.1
		c0-0.3,0-0.6,0.1-0.9s0.1-0.6,0.2-0.8h1.9C55.2,232.7,55.1,233.1,55.1,233.5z"/>
	<path id="XMLID_95_" class="st12" d="M59.8,223.6c-0.1,0.2-0.2,0.5-0.3,0.7c-0.1,0.3-0.1,0.6-0.1,0.9c0,0.7,0.2,1.2,0.7,1.6
		s1.2,0.6,2.2,0.6h6.4v2.2H57.5v-2.2h1.1c-0.4-0.3-0.7-0.6-0.9-1.1s-0.4-1-0.4-1.5c0-0.5,0-0.8,0.1-1.1c0.1-0.3,0.2-0.6,0.4-0.8
		L59.8,223.6z"/>
	<path id="XMLID_92_" class="st12" d="M62.9,212.2c0.2,0,0.4,0,0.6,0c0.2,0,0.3,0,0.4,0v7.4c0.5-0.1,1-0.2,1.4-0.3s0.7-0.4,1-0.6
		c0.2-0.3,0.4-0.5,0.6-0.9c0.1-0.3,0.2-0.6,0.2-1c0-0.5-0.1-0.9-0.2-1.3c-0.2-0.4-0.4-0.8-0.7-1.1l1.4-1.3c0.5,0.5,0.8,1.1,1.1,1.7
		s0.4,1.3,0.4,2.2c0,0.7-0.1,1.3-0.4,1.9s-0.6,1.1-1.1,1.5c-0.5,0.4-1.1,0.8-1.8,1c-0.7,0.3-1.6,0.4-2.5,0.4c-1,0-1.8-0.1-2.5-0.4
		s-1.3-0.6-1.8-1c-0.5-0.4-0.9-0.9-1.1-1.5c-0.3-0.6-0.4-1.3-0.4-2c0-0.8,0.1-1.5,0.4-2.1c0.3-0.6,0.7-1.1,1.2-1.5
		c0.5-0.4,1.1-0.7,1.8-0.9C61.4,212.3,62.1,212.2,62.9,212.2z M62,214.4c-0.4,0-0.7,0.1-1.1,0.2c-0.3,0.1-0.6,0.3-0.9,0.5
		c-0.3,0.2-0.5,0.5-0.6,0.8c-0.1,0.3-0.2,0.7-0.2,1.2c0,0.7,0.2,1.3,0.7,1.8c0.5,0.4,1.2,0.7,2.1,0.8V214.4z"/>
	<path id="XMLID_89_" class="st12" d="M72.8,202.7h-5.2c0.4,0.4,0.7,0.9,0.9,1.3c0.3,0.5,0.4,1,0.4,1.6c0,0.6-0.1,1.2-0.3,1.7
		s-0.6,1-1.1,1.4s-1.1,0.7-1.9,0.9c-0.8,0.2-1.7,0.3-2.7,0.3c-1,0-1.8-0.1-2.5-0.4c-0.7-0.2-1.3-0.6-1.8-1c-0.5-0.4-0.8-0.9-1-1.4
		c-0.2-0.5-0.3-1.1-0.3-1.7c0-0.6,0.1-1.1,0.4-1.6c0.3-0.5,0.6-0.9,0.9-1.2h-1v-2.2h14.2L72.8,202.7z M60.8,202.7
		c-0.2,0.1-0.3,0.3-0.5,0.5c-0.2,0.2-0.3,0.4-0.5,0.6c-0.1,0.2-0.3,0.5-0.4,0.7c-0.1,0.3-0.1,0.5-0.1,0.8c0,0.8,0.3,1.4,0.9,1.8
		c0.6,0.4,1.5,0.6,2.7,0.6c1.4,0,2.4-0.2,3.1-0.7c0.6-0.4,1-1.1,1-1.9c0-0.5-0.1-1-0.4-1.5c-0.3-0.4-0.6-0.8-1-1.1H60.8z"/>
	<path id="XMLID_87_" class="st12" d="M68.7,190.6h-1.1c0.4,0.3,0.7,0.7,1,1.2c0.2,0.5,0.3,1,0.3,1.6c0,1.3-0.4,2.3-1.3,3
		c-0.8,0.7-2.1,1-3.8,1h-6.4v-2.2h6.3c1.1,0,1.9-0.2,2.4-0.6c0.5-0.4,0.7-1,0.7-1.7c0-0.7-0.2-1.3-0.7-1.7c-0.5-0.4-1.2-0.6-2.1-0.6
		h-6.5v-2.2h11.2V190.6z"/>
	<path id="XMLID_84_" class="st12" d="M62.9,176c0.2,0,0.4,0,0.6,0c0.2,0,0.3,0,0.4,0v7.4c0.5-0.1,1-0.2,1.4-0.3s0.7-0.4,1-0.6
		c0.2-0.3,0.4-0.5,0.6-0.9c0.1-0.3,0.2-0.6,0.2-1c0-0.5-0.1-0.9-0.2-1.3c-0.2-0.4-0.4-0.8-0.7-1.1l1.4-1.3c0.5,0.5,0.8,1.1,1.1,1.7
		s0.4,1.3,0.4,2.2c0,0.7-0.1,1.3-0.4,1.9s-0.6,1.1-1.1,1.5c-0.5,0.4-1.1,0.8-1.8,1c-0.7,0.3-1.6,0.4-2.5,0.4c-1,0-1.8-0.1-2.5-0.4
		s-1.3-0.6-1.8-1c-0.5-0.4-0.9-0.9-1.1-1.5c-0.3-0.6-0.4-1.3-0.4-2c0-0.8,0.1-1.5,0.4-2.1c0.3-0.6,0.7-1.1,1.2-1.5
		c0.5-0.4,1.1-0.7,1.8-0.9C61.4,176.1,62.1,176,62.9,176z M62,178.2c-0.4,0-0.7,0.1-1.1,0.2c-0.3,0.1-0.6,0.3-0.9,0.5
		c-0.3,0.2-0.5,0.5-0.6,0.8c-0.1,0.3-0.2,0.7-0.2,1.2c0,0.7,0.2,1.3,0.7,1.8c0.5,0.4,1.2,0.7,2.1,0.8V178.2z"/>
	<path id="XMLID_82_" class="st12" d="M68.7,166.5h-6.3c-1.1,0-1.9,0.2-2.4,0.6c-0.5,0.4-0.7,1-0.7,1.7c0,0.7,0.2,1.3,0.7,1.7
		s1.2,0.6,2.1,0.6h6.5v2.2H57.5v-2.2h1.1c-0.4-0.3-0.7-0.7-1-1.2c-0.2-0.5-0.3-1-0.3-1.6c0-1.3,0.4-2.3,1.3-3s2.1-1,3.8-1h6.4V166.5
		z"/>
	<path id="XMLID_80_" class="st12" d="M60.7,154.1c-0.5,0.5-0.8,0.9-1,1.3c-0.2,0.4-0.3,0.9-0.3,1.4c0,0.8,0.3,1.5,1,1.9
		c0.7,0.5,1.6,0.7,2.7,0.7c0.6,0,1.1-0.1,1.5-0.2c0.5-0.1,0.9-0.3,1.2-0.5s0.6-0.5,0.8-0.8c0.2-0.3,0.3-0.7,0.3-1.2
		c0-0.5-0.1-1-0.4-1.3c-0.2-0.4-0.6-0.8-1-1.2l1.4-1.4c0.3,0.2,0.6,0.4,0.8,0.7c0.2,0.3,0.5,0.5,0.7,0.9s0.3,0.7,0.5,1.1
		s0.2,0.9,0.2,1.4c0,0.7-0.1,1.3-0.4,1.9c-0.3,0.6-0.7,1.1-1.2,1.5c-0.5,0.4-1.1,0.8-1.8,1c-0.7,0.2-1.5,0.4-2.4,0.4
		c-0.9,0-1.8-0.1-2.5-0.4c-0.7-0.3-1.3-0.6-1.8-1c-0.5-0.4-0.9-1-1.2-1.6s-0.4-1.2-0.4-1.9c0-0.8,0.2-1.6,0.5-2.2
		c0.3-0.6,0.8-1.2,1.4-1.8L60.7,154.1z"/>
	<path id="XMLID_78_" class="st12" d="M72.6,146.4v2.3l-4.2-1.6l-11,4.1v-2.4L63,147c0.2-0.1,0.5-0.2,0.8-0.3
		c0.3-0.1,0.6-0.2,0.9-0.3c0.3-0.1,0.6-0.2,0.9-0.3c0.3-0.1,0.5-0.1,0.6-0.2c-0.2,0-0.4-0.1-0.7-0.2c-0.3-0.1-0.5-0.2-0.8-0.3
		c-0.3-0.1-0.6-0.2-0.9-0.3c-0.3-0.1-0.6-0.2-0.8-0.3l-5.5-1.9v-2.3L72.6,146.4z"/>
</g>
<g id="XMLID_54_">
	<path id="XMLID_75_" class="st7" d="M577.3,20.9c0,0.4-0.1,0.8-0.2,1.2s-0.3,0.7-0.6,0.9s-0.6,0.5-1,0.6c-0.4,0.1-0.9,0.2-1.5,0.2
		c-0.7,0-1.3-0.1-1.8-0.4s-1-0.6-1.4-1.1l1-1c0.3,0.3,0.7,0.6,1.1,0.8c0.4,0.2,0.8,0.3,1.3,0.3c1.2,0,1.9-0.5,1.9-1.4
		c0-0.2,0-0.3-0.1-0.5c-0.1-0.1-0.2-0.3-0.3-0.4c-0.2-0.1-0.4-0.2-0.6-0.3c-0.3-0.1-0.6-0.2-1-0.3c-0.5-0.1-0.9-0.3-1.3-0.4
		c-0.4-0.2-0.6-0.3-0.9-0.5c-0.2-0.2-0.4-0.5-0.5-0.7s-0.2-0.6-0.2-1.1c0-0.4,0.1-0.8,0.2-1.1c0.2-0.3,0.4-0.6,0.6-0.8
		c0.3-0.2,0.6-0.4,0.9-0.5c0.4-0.1,0.8-0.2,1.2-0.2c0.6,0,1.2,0.1,1.6,0.3c0.5,0.2,0.9,0.5,1.3,1l-1,1c-0.3-0.3-0.6-0.5-0.9-0.7
		c-0.3-0.1-0.7-0.2-1.2-0.2c-0.5,0-0.9,0.1-1.2,0.4s-0.4,0.5-0.4,0.8c0,0.2,0,0.3,0.1,0.4c0.1,0.1,0.2,0.3,0.3,0.4
		c0.1,0.1,0.3,0.2,0.6,0.3c0.3,0.1,0.6,0.2,1,0.3c0.4,0.1,0.8,0.3,1.2,0.4s0.7,0.3,0.9,0.6s0.4,0.5,0.6,0.8
		C577.2,20.1,577.3,20.4,577.3,20.9z"/>
	<path id="XMLID_72_" class="st7" d="M584.5,19.9c0,0.1,0,0.2,0,0.4c0,0.1,0,0.2,0,0.3H580c0,0.3,0.1,0.6,0.2,0.9
		c0.1,0.2,0.2,0.4,0.4,0.6c0.2,0.2,0.3,0.3,0.5,0.4c0.2,0.1,0.4,0.1,0.6,0.1c0.3,0,0.5,0,0.8-0.1c0.2-0.1,0.5-0.2,0.7-0.4l0.8,0.9
		c-0.3,0.3-0.6,0.5-1,0.7c-0.4,0.2-0.8,0.2-1.3,0.2c-0.4,0-0.8-0.1-1.1-0.2s-0.7-0.4-0.9-0.7s-0.5-0.7-0.6-1.2
		c-0.2-0.5-0.2-1-0.2-1.6c0-0.6,0.1-1.1,0.2-1.6c0.1-0.5,0.3-0.8,0.6-1.2c0.3-0.3,0.6-0.6,0.9-0.7s0.8-0.2,1.2-0.2
		c0.5,0,0.9,0.1,1.3,0.3s0.7,0.4,0.9,0.8c0.2,0.3,0.4,0.7,0.5,1.1S584.5,19.4,584.5,19.9z M583.2,19.4c0-0.2-0.1-0.5-0.1-0.7
		c-0.1-0.2-0.2-0.4-0.3-0.6s-0.3-0.3-0.5-0.4c-0.2-0.1-0.4-0.1-0.7-0.1c-0.4,0-0.8,0.2-1.1,0.5c-0.3,0.3-0.4,0.8-0.5,1.3H583.2z"/>
	<path id="XMLID_70_" class="st7" d="M590.4,18.5c-0.3-0.3-0.5-0.5-0.8-0.7c-0.3-0.1-0.5-0.2-0.8-0.2c-0.5,0-0.9,0.2-1.2,0.6
		c-0.3,0.4-0.4,1-0.4,1.7c0,0.4,0,0.7,0.1,1c0.1,0.3,0.2,0.5,0.3,0.8c0.1,0.2,0.3,0.4,0.5,0.5c0.2,0.1,0.4,0.2,0.7,0.2
		c0.3,0,0.6-0.1,0.8-0.2s0.5-0.4,0.7-0.7l0.9,0.9c-0.1,0.2-0.3,0.4-0.4,0.5c-0.2,0.2-0.3,0.3-0.5,0.4c-0.2,0.1-0.4,0.2-0.7,0.3
		c-0.2,0.1-0.5,0.1-0.8,0.1c-0.4,0-0.8-0.1-1.2-0.3c-0.4-0.2-0.7-0.4-0.9-0.7c-0.3-0.3-0.5-0.7-0.6-1.2c-0.1-0.5-0.2-1-0.2-1.5
		c0-0.6,0.1-1.1,0.2-1.6c0.2-0.5,0.4-0.9,0.6-1.2c0.3-0.3,0.6-0.6,0.9-0.7c0.4-0.2,0.7-0.3,1.2-0.3c0.5,0,0.9,0.1,1.3,0.3
		c0.4,0.2,0.7,0.5,1.1,0.9L590.4,18.5z"/>
	<path id="XMLID_67_" class="st7" d="M598.4,20c0,0.6-0.1,1.1-0.2,1.6c-0.2,0.5-0.4,0.9-0.6,1.2c-0.3,0.3-0.6,0.6-1,0.7
		s-0.8,0.3-1.2,0.3c-0.4,0-0.8-0.1-1.2-0.3c-0.4-0.2-0.7-0.4-0.9-0.8c-0.3-0.3-0.5-0.7-0.6-1.2c-0.2-0.5-0.2-1-0.2-1.5
		c0-0.6,0.1-1.1,0.2-1.6c0.2-0.5,0.4-0.9,0.6-1.2c0.3-0.3,0.6-0.6,1-0.7c0.4-0.2,0.8-0.3,1.2-0.3s0.8,0.1,1.2,0.3
		c0.4,0.2,0.7,0.4,1,0.7c0.3,0.3,0.5,0.7,0.6,1.2C598.3,18.9,598.4,19.4,598.4,20z M597,20c0-0.7-0.2-1.3-0.5-1.7
		c-0.3-0.4-0.7-0.6-1.3-0.6c-0.5,0-0.9,0.2-1.2,0.6c-0.3,0.4-0.4,1-0.4,1.7c0,0.8,0.2,1.4,0.5,1.8c0.3,0.4,0.7,0.6,1.2,0.6
		c0.3,0,0.5-0.1,0.7-0.2c0.2-0.1,0.4-0.3,0.5-0.5c0.1-0.2,0.3-0.5,0.3-0.8S597,20.4,597,20z"/>
	<path id="XMLID_65_" class="st7" d="M604.1,23.6v-4c0-0.7-0.1-1.2-0.4-1.5c-0.2-0.3-0.6-0.4-1-0.4c-0.4,0-0.8,0.2-1,0.5
		c-0.2,0.3-0.4,0.8-0.4,1.3v4.2H600v-7.1h1.3v0.7c0.2-0.3,0.4-0.5,0.7-0.6c0.3-0.1,0.6-0.2,1-0.2c0.8,0,1.4,0.3,1.8,0.8
		s0.6,1.3,0.6,2.4v4.1H604.1z"/>
	<path id="XMLID_62_" class="st7" d="M611.5,23.6v-0.7c-0.2,0.2-0.5,0.4-0.8,0.6c-0.3,0.2-0.6,0.2-1,0.2s-0.7-0.1-1-0.2
		c-0.3-0.1-0.6-0.4-0.8-0.7c-0.2-0.3-0.4-0.7-0.6-1.2c-0.1-0.5-0.2-1.1-0.2-1.7c0-0.6,0.1-1.1,0.2-1.6c0.1-0.5,0.3-0.8,0.6-1.1
		c0.2-0.3,0.5-0.5,0.9-0.7s0.7-0.2,1-0.2c0.3,0,0.7,0.1,1,0.2c0.3,0.2,0.5,0.4,0.7,0.6v-2.7l1.3-0.7v9.9H611.5z M611.5,18.6
		c-0.1-0.1-0.2-0.2-0.3-0.3c-0.1-0.1-0.2-0.2-0.4-0.3c-0.1-0.1-0.3-0.2-0.4-0.2s-0.3-0.1-0.5-0.1c-0.5,0-0.8,0.2-1.1,0.6
		c-0.2,0.4-0.4,0.9-0.4,1.7c0,0.9,0.1,1.6,0.4,2c0.3,0.4,0.6,0.6,1.1,0.6c0.3,0,0.6-0.1,0.9-0.3c0.3-0.2,0.5-0.4,0.7-0.6V18.6z"/>
	<path id="XMLID_59_" class="st7" d="M618.6,23.6v-0.7c-0.2,0.2-0.5,0.4-0.8,0.6s-0.7,0.2-1,0.2c-0.3,0-0.6,0-0.8-0.1
		s-0.5-0.2-0.8-0.4c-0.2-0.2-0.4-0.4-0.5-0.7s-0.2-0.7-0.2-1.1c0-0.4,0.1-0.7,0.2-1c0.1-0.3,0.3-0.5,0.6-0.7
		c0.2-0.2,0.5-0.3,0.9-0.4c0.3-0.1,0.7-0.1,1.1-0.1c0.6,0,1.1,0.1,1.5,0.3v-0.5c0-0.4-0.1-0.7-0.3-0.9c-0.2-0.2-0.5-0.3-0.9-0.3
		c-0.4,0-0.7,0-0.9,0.1c-0.3,0.1-0.6,0.2-0.8,0.3l-0.5-1.1c0.3-0.2,0.7-0.4,1-0.5c0.4-0.1,0.8-0.2,1.3-0.2c0.8,0,1.4,0.2,1.8,0.6
		c0.5,0.4,0.7,1,0.7,1.8v4.9H618.6z M618.6,20.6c-0.2-0.1-0.4-0.2-0.6-0.2c-0.2-0.1-0.5-0.1-0.9-0.1c-0.4,0-0.8,0.1-1,0.3
		s-0.4,0.4-0.4,0.8c0,0.4,0.1,0.6,0.3,0.9c0.2,0.2,0.5,0.3,1,0.3c0.4,0,0.7-0.1,1-0.3c0.3-0.2,0.5-0.4,0.7-0.6V20.6z"/>
	<path id="XMLID_57_" class="st7" d="M625.5,17.9c-0.1-0.1-0.3-0.1-0.5-0.2s-0.3-0.1-0.6-0.1c-0.4,0-0.7,0.2-1,0.5
		c-0.2,0.3-0.3,0.8-0.3,1.4v4.1h-1.3v-7.1h1.3v0.7c0.2-0.2,0.4-0.4,0.6-0.6c0.3-0.2,0.6-0.2,0.9-0.2c0.3,0,0.5,0,0.7,0.1
		c0.2,0.1,0.3,0.1,0.5,0.2L625.5,17.9z"/>
	<path id="XMLID_55_" class="st7" d="M629.6,26.1h-1.4l1-2.7l-2.5-7h1.5l1.1,3.5c0.1,0.2,0.1,0.3,0.2,0.5c0.1,0.2,0.1,0.4,0.2,0.6
		c0.1,0.2,0.1,0.4,0.2,0.6c0,0.2,0.1,0.3,0.1,0.4c0-0.1,0.1-0.2,0.1-0.4c0-0.2,0.1-0.3,0.2-0.5c0.1-0.2,0.1-0.4,0.2-0.6
		c0.1-0.2,0.1-0.4,0.2-0.5l1.1-3.5h1.4L629.6,26.1z"/>
</g>
<g id="XMLID_24_">
	<path id="XMLID_51_" class="st7" d="M573.8,39.2c0,0.5-0.1,1-0.2,1.4c-0.1,0.4-0.3,0.7-0.5,1c-0.2,0.3-0.6,0.5-1,0.6
		c-0.4,0.1-0.9,0.2-1.5,0.2l-0.5-1.1c0.5,0,0.9-0.1,1.2-0.2c0.3-0.1,0.5-0.2,0.7-0.4c0.2-0.2,0.3-0.4,0.3-0.6
		c0.1-0.3,0.1-0.6,0.1-0.9v-0.1c-0.3,0.2-0.5,0.4-0.8,0.6c-0.3,0.2-0.6,0.2-1,0.2s-0.7-0.1-1-0.2c-0.3-0.1-0.6-0.4-0.8-0.7
		s-0.4-0.7-0.6-1.2c-0.1-0.5-0.2-1.1-0.2-1.7c0-0.6,0.1-1.1,0.2-1.6c0.1-0.5,0.3-0.8,0.6-1.1c0.2-0.3,0.5-0.5,0.9-0.7s0.7-0.2,1-0.2
		c0.3,0,0.7,0.1,1,0.2c0.3,0.2,0.5,0.4,0.7,0.6v-0.7h1.3V39.2z M572.5,34.9c-0.1-0.1-0.2-0.2-0.3-0.3c-0.1-0.1-0.2-0.2-0.4-0.3
		c-0.1-0.1-0.3-0.2-0.4-0.2s-0.3-0.1-0.5-0.1c-0.5,0-0.8,0.2-1.1,0.6c-0.2,0.4-0.4,0.9-0.4,1.7c0,0.9,0.1,1.6,0.4,2
		c0.3,0.4,0.6,0.6,1.1,0.6c0.3,0,0.6-0.1,0.9-0.3c0.3-0.2,0.5-0.4,0.7-0.6V34.9z"/>
	<path id="XMLID_48_" class="st7" d="M581.2,36.2c0,0.1,0,0.2,0,0.4c0,0.1,0,0.2,0,0.3h-4.5c0,0.3,0.1,0.6,0.2,0.9
		c0.1,0.2,0.2,0.4,0.4,0.6c0.2,0.2,0.3,0.3,0.5,0.4c0.2,0.1,0.4,0.1,0.6,0.1c0.3,0,0.5,0,0.8-0.1c0.2-0.1,0.5-0.2,0.7-0.4l0.8,0.9
		c-0.3,0.3-0.6,0.5-1,0.7c-0.4,0.2-0.8,0.2-1.3,0.2c-0.4,0-0.8-0.1-1.1-0.2s-0.7-0.4-0.9-0.7s-0.5-0.7-0.6-1.2
		c-0.2-0.5-0.2-1-0.2-1.6c0-0.6,0.1-1.1,0.2-1.6c0.1-0.5,0.3-0.8,0.6-1.2c0.3-0.3,0.6-0.6,0.9-0.7s0.8-0.2,1.2-0.2
		c0.5,0,0.9,0.1,1.3,0.3s0.7,0.4,0.9,0.8c0.2,0.3,0.4,0.7,0.5,1.1S581.2,35.7,581.2,36.2z M579.9,35.7c0-0.2-0.1-0.5-0.1-0.7
		c-0.1-0.2-0.2-0.4-0.3-0.6s-0.3-0.3-0.5-0.4c-0.2-0.1-0.4-0.1-0.7-0.1c-0.4,0-0.8,0.2-1.1,0.5c-0.3,0.3-0.4,0.8-0.5,1.3H579.9z"/>
	<path id="XMLID_46_" class="st7" d="M587,39.9v-4c0-0.7-0.1-1.2-0.4-1.5c-0.2-0.3-0.6-0.4-1-0.4c-0.4,0-0.8,0.2-1,0.5
		c-0.2,0.3-0.4,0.8-0.4,1.3v4.2h-1.3v-7.1h1.3v0.7c0.2-0.3,0.4-0.5,0.7-0.6c0.3-0.1,0.6-0.2,1-0.2c0.8,0,1.4,0.3,1.8,0.8
		s0.6,1.3,0.6,2.4v4.1H587z"/>
	<path id="XMLID_43_" class="st7" d="M595.7,36.2c0,0.1,0,0.2,0,0.4c0,0.1,0,0.2,0,0.3h-4.5c0,0.3,0.1,0.6,0.2,0.9
		c0.1,0.2,0.2,0.4,0.4,0.6c0.2,0.2,0.3,0.3,0.5,0.4c0.2,0.1,0.4,0.1,0.6,0.1c0.3,0,0.5,0,0.8-0.1c0.2-0.1,0.5-0.2,0.7-0.4l0.8,0.9
		c-0.3,0.3-0.6,0.5-1,0.7c-0.4,0.2-0.8,0.2-1.3,0.2c-0.4,0-0.8-0.1-1.1-0.2s-0.7-0.4-0.9-0.7s-0.5-0.7-0.6-1.2
		c-0.2-0.5-0.2-1-0.2-1.6c0-0.6,0.1-1.1,0.2-1.6c0.1-0.5,0.3-0.8,0.6-1.2c0.3-0.3,0.6-0.6,0.9-0.7s0.8-0.2,1.2-0.2
		c0.5,0,0.9,0.1,1.3,0.3s0.7,0.4,0.9,0.8c0.2,0.3,0.4,0.7,0.5,1.1S595.7,35.7,595.7,36.2z M594.4,35.7c0-0.2-0.1-0.5-0.1-0.7
		c-0.1-0.2-0.2-0.4-0.3-0.6s-0.3-0.3-0.5-0.4c-0.2-0.1-0.4-0.1-0.7-0.1c-0.4,0-0.8,0.2-1.1,0.5c-0.3,0.3-0.4,0.8-0.5,1.3H594.4z"/>
	<path id="XMLID_41_" class="st7" d="M601,34.3c-0.1-0.1-0.3-0.1-0.5-0.2S600.3,34,600,34c-0.4,0-0.7,0.2-1,0.5
		c-0.2,0.3-0.3,0.8-0.3,1.4v4.1h-1.3v-7.1h1.3v0.7c0.2-0.2,0.4-0.4,0.6-0.6c0.3-0.2,0.6-0.2,0.9-0.2c0.3,0,0.5,0,0.7,0.1
		c0.2,0.1,0.3,0.1,0.5,0.2L601,34.3z"/>
	<path id="XMLID_38_" class="st7" d="M606.2,39.9v-0.7c-0.2,0.2-0.5,0.4-0.8,0.6s-0.7,0.2-1,0.2c-0.3,0-0.6,0-0.8-0.1
		s-0.5-0.2-0.8-0.4c-0.2-0.2-0.4-0.4-0.5-0.7s-0.2-0.7-0.2-1.1c0-0.4,0.1-0.7,0.2-1c0.1-0.3,0.3-0.5,0.6-0.7
		c0.2-0.2,0.5-0.3,0.9-0.4c0.3-0.1,0.7-0.1,1.1-0.1c0.6,0,1.1,0.1,1.5,0.3v-0.5c0-0.4-0.1-0.7-0.3-0.9c-0.2-0.2-0.5-0.3-0.9-0.3
		c-0.4,0-0.7,0-0.9,0.1c-0.3,0.1-0.6,0.2-0.8,0.3l-0.5-1.1c0.3-0.2,0.7-0.4,1-0.5c0.4-0.1,0.8-0.2,1.3-0.2c0.8,0,1.4,0.2,1.8,0.6
		c0.5,0.4,0.7,1,0.7,1.8v4.9H606.2z M606.2,36.9c-0.2-0.1-0.4-0.2-0.6-0.2c-0.2-0.1-0.5-0.1-0.9-0.1c-0.4,0-0.8,0.1-1,0.3
		s-0.4,0.4-0.4,0.8c0,0.4,0.1,0.6,0.3,0.9c0.2,0.2,0.5,0.3,1,0.3c0.4,0,0.7-0.1,1-0.3c0.3-0.2,0.5-0.4,0.7-0.6V36.9z"/>
	<path id="XMLID_36_" class="st7" d="M609.5,39.9v-9.2l1.3-0.7v9.9H609.5z"/>
	<path id="XMLID_33_" class="st7" d="M614.4,31c0,0.2-0.1,0.5-0.3,0.6s-0.4,0.3-0.6,0.3c-0.2,0-0.4-0.1-0.6-0.3
		c-0.2-0.2-0.3-0.4-0.3-0.6c0-0.3,0.1-0.5,0.3-0.6c0.2-0.2,0.4-0.3,0.6-0.3c0.2,0,0.4,0.1,0.6,0.3S614.4,30.7,614.4,31z M612.9,39.9
		v-7.1h1.3v7.1H612.9z"/>
	<path id="XMLID_31_" class="st7" d="M616,39.9v-1.1l2.9-3.7c0.1-0.2,0.3-0.4,0.4-0.6c0.2-0.2,0.3-0.4,0.4-0.5c-0.1,0-0.1,0-0.2,0
		c-0.1,0-0.2,0-0.3,0s-0.2,0-0.3,0s-0.2,0-0.3,0h-2.2v-1.2h5v1.1l-2.8,3.7c-0.1,0.2-0.3,0.4-0.4,0.6c-0.2,0.2-0.3,0.4-0.4,0.5
		c0.1,0,0.1,0,0.3,0c0.1,0,0.2,0,0.3,0s0.2,0,0.3,0s0.2,0,0.3,0h2.4v1.2H616z"/>
	<path id="XMLID_28_" class="st7" d="M628.4,36.2c0,0.1,0,0.2,0,0.4c0,0.1,0,0.2,0,0.3h-4.5c0,0.3,0.1,0.6,0.2,0.9
		c0.1,0.2,0.2,0.4,0.4,0.6c0.2,0.2,0.3,0.3,0.5,0.4c0.2,0.1,0.4,0.1,0.6,0.1c0.3,0,0.5,0,0.8-0.1c0.2-0.1,0.5-0.2,0.7-0.4l0.8,0.9
		c-0.3,0.3-0.6,0.5-1,0.7c-0.4,0.2-0.8,0.2-1.3,0.2c-0.4,0-0.8-0.1-1.1-0.2s-0.7-0.4-0.9-0.7s-0.5-0.7-0.6-1.2
		c-0.2-0.5-0.2-1-0.2-1.6c0-0.6,0.1-1.1,0.2-1.6c0.1-0.5,0.3-0.8,0.6-1.2c0.3-0.3,0.6-0.6,0.9-0.7s0.8-0.2,1.2-0.2
		c0.5,0,0.9,0.1,1.3,0.3s0.7,0.4,0.9,0.8c0.2,0.3,0.4,0.7,0.5,1.1S628.4,35.7,628.4,36.2z M627.1,35.7c0-0.2-0.1-0.5-0.1-0.7
		c-0.1-0.2-0.2-0.4-0.3-0.6s-0.3-0.3-0.5-0.4c-0.2-0.1-0.4-0.1-0.7-0.1c-0.4,0-0.8,0.2-1.1,0.5c-0.3,0.3-0.4,0.8-0.5,1.3H627.1z"/>
	<path id="XMLID_25_" class="st7" d="M634.2,39.9v-0.7c-0.2,0.2-0.5,0.4-0.8,0.6c-0.3,0.2-0.6,0.2-1,0.2s-0.7-0.1-1-0.2
		c-0.3-0.1-0.6-0.4-0.8-0.7c-0.2-0.3-0.4-0.7-0.6-1.2c-0.1-0.5-0.2-1.1-0.2-1.7c0-0.6,0.1-1.1,0.2-1.6c0.1-0.5,0.3-0.8,0.6-1.1
		c0.2-0.3,0.5-0.5,0.9-0.7s0.7-0.2,1-0.2c0.3,0,0.7,0.1,1,0.2c0.3,0.2,0.5,0.4,0.7,0.6v-2.7l1.3-0.7v9.9H634.2z M634.2,34.9
		c-0.1-0.1-0.2-0.2-0.3-0.3c-0.1-0.1-0.2-0.2-0.4-0.3c-0.1-0.1-0.3-0.2-0.4-0.2s-0.3-0.1-0.5-0.1c-0.5,0-0.8,0.2-1.1,0.6
		c-0.2,0.4-0.4,0.9-0.4,1.7c0,0.9,0.1,1.6,0.4,2c0.3,0.4,0.6,0.6,1.1,0.6c0.3,0,0.6-0.1,0.9-0.3c0.3-0.2,0.5-0.4,0.7-0.6V34.9z"/>
</g>
<g id="XMLID_3_">
	<path id="XMLID_22_" class="st7" d="M582.7,54.3c0,0.4-0.1,0.7-0.2,1c-0.1,0.3-0.3,0.5-0.6,0.6c-0.2,0.2-0.5,0.3-0.8,0.4
		c-0.3,0.1-0.6,0.1-1,0.1c-0.5,0-0.9-0.1-1.4-0.3c-0.5-0.2-0.9-0.4-1.2-0.7l0.6-1.1c0.3,0.2,0.6,0.4,1,0.5c0.3,0.1,0.7,0.2,1,0.2
		c0.8,0,1.2-0.3,1.2-0.8c0-0.3-0.1-0.5-0.4-0.7c-0.3-0.2-0.7-0.3-1.2-0.5c-0.4-0.1-0.7-0.3-0.9-0.4c-0.3-0.1-0.5-0.3-0.6-0.5
		c-0.2-0.2-0.3-0.4-0.3-0.6s-0.1-0.5-0.1-0.7c0-0.3,0.1-0.6,0.2-0.8s0.3-0.4,0.5-0.6c0.2-0.2,0.4-0.3,0.7-0.4s0.6-0.1,0.9-0.1
		c0.4,0,0.8,0.1,1.2,0.2c0.4,0.1,0.8,0.3,1.1,0.6l-0.6,1.1c-0.3-0.2-0.6-0.4-0.8-0.5c-0.3-0.1-0.6-0.1-0.9-0.1
		c-0.3,0-0.6,0.1-0.7,0.2c-0.1,0.1-0.2,0.3-0.2,0.5c0,0.1,0,0.2,0.1,0.3c0,0.1,0.1,0.2,0.2,0.2s0.2,0.2,0.4,0.3
		c0.2,0.1,0.4,0.2,0.6,0.3c0.4,0.2,0.7,0.3,1,0.4c0.3,0.1,0.5,0.3,0.7,0.5c0.2,0.2,0.3,0.4,0.4,0.6
		C582.7,53.6,582.7,53.9,582.7,54.3z"/>
	<path id="XMLID_19_" class="st7" d="M589.8,52.5c0,0.1,0,0.2,0,0.4c0,0.1,0,0.2,0,0.3h-4.5c0,0.3,0.1,0.6,0.2,0.9
		c0.1,0.2,0.2,0.4,0.4,0.6c0.2,0.2,0.3,0.3,0.5,0.4c0.2,0.1,0.4,0.1,0.6,0.1c0.3,0,0.5,0,0.8-0.1c0.2-0.1,0.5-0.2,0.7-0.4l0.8,0.9
		c-0.3,0.3-0.6,0.5-1,0.7c-0.4,0.2-0.8,0.2-1.3,0.2c-0.4,0-0.8-0.1-1.1-0.2s-0.7-0.4-0.9-0.7s-0.5-0.7-0.6-1.2
		c-0.2-0.5-0.2-1-0.2-1.6c0-0.6,0.1-1.1,0.2-1.6c0.1-0.5,0.3-0.8,0.6-1.2c0.3-0.3,0.6-0.6,0.9-0.7s0.8-0.2,1.2-0.2
		c0.5,0,0.9,0.1,1.3,0.3s0.7,0.4,0.9,0.8c0.2,0.3,0.4,0.7,0.5,1.1S589.8,52,589.8,52.5z M588.5,52c0-0.2-0.1-0.5-0.1-0.7
		c-0.1-0.2-0.2-0.4-0.3-0.6s-0.3-0.3-0.5-0.4c-0.2-0.1-0.4-0.1-0.7-0.1c-0.4,0-0.8,0.2-1.1,0.5c-0.3,0.3-0.4,0.8-0.5,1.3H588.5z"/>
	<path id="XMLID_16_" class="st7" d="M593.1,47.3c0,0.2-0.1,0.5-0.3,0.6s-0.4,0.3-0.6,0.3c-0.2,0-0.4-0.1-0.6-0.3
		c-0.2-0.2-0.3-0.4-0.3-0.6c0-0.3,0.1-0.5,0.3-0.6c0.2-0.2,0.4-0.3,0.6-0.3c0.2,0,0.4,0.1,0.6,0.3S593.1,47,593.1,47.3z M591.5,56.2
		v-7.1h1.3v7.1H591.5z"/>
	<path id="XMLID_13_" class="st7" d="M594.7,56.2v-1.1l2.9-3.7c0.1-0.2,0.3-0.4,0.4-0.6c0.2-0.2,0.3-0.4,0.4-0.5c-0.1,0-0.1,0-0.2,0
		c-0.1,0-0.2,0-0.3,0s-0.2,0-0.3,0s-0.2,0-0.3,0h-2.2v-1.2h5v1.1L597,54c-0.1,0.2-0.3,0.4-0.4,0.6c-0.2,0.2-0.3,0.4-0.4,0.5
		c0.1,0,0.1,0,0.3,0c0.1,0,0.2,0,0.3,0s0.2,0,0.3,0s0.2,0,0.3,0h2.4v1.2H594.7z"/>
	<path id="XMLID_11_" class="st7" d="M605.6,56.2v-0.7c-0.2,0.3-0.4,0.5-0.7,0.6c-0.3,0.1-0.6,0.2-1,0.2c-0.8,0-1.4-0.3-1.8-0.8
		s-0.6-1.3-0.6-2.4v-4.1h1.3v4c0,0.7,0.1,1.2,0.4,1.5c0.2,0.3,0.6,0.4,1,0.4c0.4,0,0.8-0.2,1-0.5c0.2-0.3,0.4-0.8,0.4-1.3v-4.2h1.3
		v7.1H605.6z"/>
	<path id="XMLID_9_" class="st7" d="M612.6,50.6c-0.1-0.1-0.3-0.1-0.5-0.2s-0.3-0.1-0.6-0.1c-0.4,0-0.7,0.2-1,0.5
		c-0.2,0.3-0.3,0.8-0.3,1.4v4.1h-1.3v-7.1h1.3v0.7c0.2-0.2,0.4-0.4,0.6-0.6c0.3-0.2,0.6-0.2,0.9-0.2c0.3,0,0.5,0,0.7,0.1
		c0.2,0.1,0.3,0.1,0.5,0.2L612.6,50.6z"/>
	<path id="XMLID_6_" class="st7" d="M619.5,52.5c0,0.1,0,0.2,0,0.4c0,0.1,0,0.2,0,0.3H615c0,0.3,0.1,0.6,0.2,0.9
		c0.1,0.2,0.2,0.4,0.4,0.6c0.2,0.2,0.3,0.3,0.5,0.4c0.2,0.1,0.4,0.1,0.6,0.1c0.3,0,0.5,0,0.8-0.1c0.2-0.1,0.5-0.2,0.7-0.4l0.8,0.9
		c-0.3,0.3-0.6,0.5-1,0.7c-0.4,0.2-0.8,0.2-1.3,0.2c-0.4,0-0.8-0.1-1.1-0.2s-0.7-0.4-0.9-0.7s-0.5-0.7-0.6-1.2
		c-0.2-0.5-0.2-1-0.2-1.6c0-0.6,0.1-1.1,0.2-1.6c0.1-0.5,0.3-0.8,0.6-1.2c0.3-0.3,0.6-0.6,0.9-0.7s0.8-0.2,1.2-0.2
		c0.5,0,0.9,0.1,1.3,0.3s0.7,0.4,0.9,0.8c0.2,0.3,0.4,0.7,0.5,1.1S619.5,52,619.5,52.5z M618.2,52c0-0.2-0.1-0.5-0.1-0.7
		c-0.1-0.2-0.2-0.4-0.3-0.6s-0.3-0.3-0.5-0.4c-0.2-0.1-0.4-0.1-0.7-0.1c-0.4,0-0.8,0.2-1.1,0.5c-0.3,0.3-0.4,0.8-0.5,1.3H618.2z"/>
	<path id="XMLID_4_" class="st7" d="M625.8,54.3c0,0.4-0.1,0.7-0.2,1c-0.1,0.3-0.3,0.5-0.6,0.6c-0.2,0.2-0.5,0.3-0.8,0.4
		c-0.3,0.1-0.6,0.1-1,0.1c-0.5,0-0.9-0.1-1.4-0.3c-0.5-0.2-0.9-0.4-1.2-0.7l0.6-1.1c0.3,0.2,0.6,0.4,1,0.5c0.3,0.1,0.7,0.2,1,0.2
		c0.8,0,1.2-0.3,1.2-0.8c0-0.3-0.1-0.5-0.4-0.7c-0.3-0.2-0.7-0.3-1.2-0.5c-0.4-0.1-0.7-0.3-0.9-0.4c-0.3-0.1-0.5-0.3-0.6-0.5
		c-0.2-0.2-0.3-0.4-0.3-0.6s-0.1-0.5-0.1-0.7c0-0.3,0.1-0.6,0.2-0.8s0.3-0.4,0.5-0.6c0.2-0.2,0.4-0.3,0.7-0.4s0.6-0.1,0.9-0.1
		c0.4,0,0.8,0.1,1.2,0.2c0.4,0.1,0.8,0.3,1.1,0.6l-0.6,1.1c-0.3-0.2-0.6-0.4-0.8-0.5c-0.3-0.1-0.6-0.1-0.9-0.1
		c-0.3,0-0.6,0.1-0.7,0.2c-0.1,0.1-0.2,0.3-0.2,0.5c0,0.1,0,0.2,0.1,0.3c0,0.1,0.1,0.2,0.2,0.2s0.2,0.2,0.4,0.3
		c0.2,0.1,0.4,0.2,0.6,0.3c0.4,0.2,0.7,0.3,1,0.4c0.3,0.1,0.5,0.3,0.7,0.5c0.2,0.2,0.3,0.4,0.4,0.6
		C625.7,53.6,625.8,53.9,625.8,54.3z"/>
</g>
<line id="XMLID_2_" class="st13" x1="539.6" y1="75" x2="539.6" y2="323"/>
<line id="XMLID_1_" class="st13" x1="375.2" y1="75" x2="375.2" y2="323"/>
</svg>
