<!-- Generator: Adobe Illustrator 22.1.0, SVG Export Plug-In  -->
<svg version="1.1"
	 xmlns="http://www.w3.org/2000/svg" xmlns:xlink="http://www.w3.org/1999/xlink" xmlns:a="http://ns.adobe.com/AdobeSVGViewerExtensions/3.0/"
	 x="0px" y="0px" width="387.4px" height="242.1px" viewBox="0 0 387.4 242.1" style="enable-background:new 0 0 387.4 242.1;"
	 xml:space="preserve">
<style type="text/css">
	.st0{fill:none;stroke:#BBBDBF;stroke-width:0.161;}
	.st1{fill:none;stroke:#FCC62C;stroke-width:0.8052;}
	.st2{fill:#FCC62C;}
	.st3{fill:none;stroke:#FCC62C;stroke-width:0.8052;stroke-dasharray:1.6168,1.6168;}
	.st4{fill:none;stroke:#FCC62C;stroke-width:0.8052;stroke-dasharray:1.6265,1.6265;}
	.st5{fill:none;stroke:#FCC62C;stroke-width:0.8052;stroke-dasharray:1.6321,1.6321;}
	.st6{fill:#58595B;}
	.st7{fill:none;stroke:#BBBDBF;stroke-width:0.1731;}
	.st8{fill:url(#XMLID_393_);}
	.st9{fill:url(#XMLID_394_);}
	.st10{fill:url(#XMLID_395_);}
	.st11{fill:#808284;}
	.st12{fill:none;stroke:#522D6D;stroke-width:1.4345;}
	.st13{fill:url(#XMLID_396_);}
	.st14{fill:url(#XMLID_397_);}
	.st15{fill:url(#XMLID_398_);}
</style>
<defs>
</defs>
<g id="XMLID_1_">
	<g id="XMLID_2_">
		<path id="XMLID_392_" class="st0" d="M251.7,3.5"/>
		<path id="XMLID_391_" class="st0" d="M165.6,3"/>
		<g id="XMLID_10_">
			<path id="XMLID_388_" class="st1" d="M205.4,193.2v-43.4 M118.7,193.2v-32.8"/>
			<polygon id="XMLID_387_" class="st2" points="284.7,50.1 292.3,50.1 288.6,45.1 			"/>
			<path id="XMLID_386_" class="st0" d="M362,4.1"/>
			<line id="XMLID_385_" class="st0" x1="365.8" y1="196.9" x2="361.4" y2="191.4"/>
			<line id="XMLID_384_" class="st0" x1="363.5" y1="120" x2="359.1" y2="114.5"/>
			<line id="XMLID_383_" class="st0" x1="363.5" y1="137.6" x2="359.1" y2="132"/>
			<line id="XMLID_382_" class="st0" x1="363.8" y1="157.1" x2="359.4" y2="151.5"/>
			<line id="XMLID_381_" class="st0" x1="363.7" y1="176.2" x2="359.3" y2="170.7"/>
			<line id="XMLID_380_" class="st0" x1="357.2" y1="197.6" x2="352.8" y2="192.1"/>
			<line id="XMLID_379_" class="st0" x1="355.4" y1="175.8" x2="351" y2="170.3"/>
			<line id="XMLID_378_" class="st0" x1="355.7" y1="138.2" x2="351.3" y2="132.7"/>
			<line id="XMLID_377_" class="st0" x1="356.4" y1="119.6" x2="352" y2="114"/>
			<line id="XMLID_376_" class="st0" x1="355.9" y1="100.5" x2="351.5" y2="95"/>
			<line id="XMLID_375_" class="st0" x1="364" y1="100.2" x2="359.6" y2="94.7"/>
			<line id="XMLID_374_" class="st0" x1="363.5" y1="81.4" x2="359.1" y2="75.9"/>
			<line id="XMLID_373_" class="st0" x1="364" y1="62.3" x2="359.6" y2="56.8"/>
			<line id="XMLID_372_" class="st0" x1="355.2" y1="80.9" x2="350.8" y2="75.4"/>
			<line id="XMLID_371_" class="st0" x1="355.5" y1="61.7" x2="351.1" y2="56.2"/>
			<line id="XMLID_370_" class="st0" x1="353.6" y1="79" x2="85.5" y2="79"/>
			<line id="XMLID_369_" class="st0" x1="353.4" y1="59" x2="85.5" y2="59"/>
			<line id="XMLID_368_" class="st0" x1="205.4" y1="192.5" x2="205.4" y2="4.7"/>
			<line id="XMLID_367_" class="st0" x1="354" y1="98" x2="85.6" y2="98"/>
			<line id="XMLID_366_" class="st0" x1="353.7" y1="116.6" x2="85.6" y2="116.6"/>
			<line id="XMLID_365_" class="st0" x1="353.7" y1="135.4" x2="85.5" y2="135.4"/>
			<line id="XMLID_364_" class="st0" x1="353.7" y1="154.6" x2="85.7" y2="154.6"/>
			<line id="XMLID_363_" class="st0" x1="364.2" y1="44.4" x2="359.8" y2="38.9"/>
			<line id="XMLID_362_" class="st0" x1="364" y1="26.1" x2="359.6" y2="20.6"/>
			<line id="XMLID_361_" class="st0" x1="355.4" y1="44.3" x2="351" y2="38.8"/>
			<line id="XMLID_360_" class="st0" x1="355.7" y1="25.8" x2="351.3" y2="20.3"/>
			<line id="XMLID_359_" class="st0" x1="355.7" y1="6.8" x2="351.3" y2="1.3"/>
			<line id="XMLID_358_" class="st0" x1="364.2" y1="6.8" x2="359.8" y2="1.3"/>
			<line id="XMLID_357_" class="st0" x1="353.5" y1="173.5" x2="85.7" y2="173.5"/>
			<path id="XMLID_356_" class="st0" d="M361.5,173.5"/>
			<path id="XMLID_355_" class="st0" d="M361.9,154.9"/>
			<path id="XMLID_354_" class="st0" d="M361.1,134.7"/>
			<path id="XMLID_353_" class="st0" d="M360.9,116.6"/>
			<path id="XMLID_352_" class="st0" d="M361.6,97.3"/>
			<path id="XMLID_351_" class="st0" d="M361.4,79"/>
			<line id="XMLID_350_" class="st0" x1="352.7" y1="41" x2="85.7" y2="41"/>
			<path id="XMLID_349_" class="st0" d="M361.3,59.1"/>
			<line id="XMLID_348_" class="st0" x1="353.7" y1="23.2" x2="85.5" y2="23.2"/>
			<path id="XMLID_347_" class="st0" d="M361.6,23.2"/>
			<path id="XMLID_346_" class="st0" d="M361.3,41"/>
			<line id="XMLID_345_" class="st0" x1="355.9" y1="157.4" x2="351.5" y2="151.9"/>
			<line id="XMLID_344_" class="st3" x1="288.6" y1="57.5" x2="288.6" y2="148.2"/>
			<polygon id="XMLID_343_" class="st2" points="201.6,49.9 209.2,49.9 205.5,44.9 			"/>
			<line id="XMLID_342_" class="st4" x1="205.4" y1="57.5" x2="205.4" y2="141.3"/>
			<line id="XMLID_341_" class="st5" x1="119.1" y1="72.7" x2="119.1" y2="153"/>
			<polygon id="XMLID_340_" class="st2" points="115.3,65.7 122.9,65.7 119.2,60.7 			"/>
			<path id="XMLID_339_" class="st6" d="M120.5,27.5v-5h-1.2v-0.7c0.7,0,1.2-0.3,1.3-0.8h0.8v6.5H120.5z"/>
			<path id="XMLID_338_" class="st6" d="M125.2,27.6c-0.8,0-1.6-0.2-2.3-0.6l0.5-0.8c0.5,0.3,1.2,0.5,1.8,0.5c1,0,1.5-0.5,1.5-1.3
				c0-0.8-0.5-1.2-1.3-1.2c-0.5,0-0.9,0.2-1.3,0.4l-1-0.4l0.2-3.2h4v0.9h-3.1l-0.1,1.6c0.4-0.2,0.8-0.3,1.4-0.3c1.5,0,2.2,0.9,2.2,2
				C127.8,26.8,126.7,27.6,125.2,27.6"/>
			<path id="XMLID_332_" class="st6" d="M135.4,24.3c-0.5,0-0.8,0.5-0.8,1.2c0,0.7,0.3,1.2,0.8,1.2c0.5,0,0.8-0.5,0.8-1.2
				C136.2,24.8,135.9,24.3,135.4,24.3 M135.4,27.6c-1,0-1.6-0.8-1.6-2c0-1.2,0.6-2,1.6-2c1,0,1.6,0.8,1.6,2
				C137,26.7,136.3,27.6,135.4,27.6 M131.4,27.5h-0.9l4-6.5h0.9L131.4,27.5z M130.4,21.7c-0.5,0-0.8,0.5-0.8,1.2
				c0,0.7,0.3,1.2,0.8,1.2c0.5,0,0.8-0.5,0.8-1.2C131.2,22.2,130.9,21.7,130.4,21.7 M130.4,24.9c-1,0-1.6-0.8-1.6-2
				c0-1.2,0.6-2,1.6-2c1,0,1.6,0.8,1.6,2C132,24.1,131.3,24.9,130.4,24.9"/>
			<rect id="XMLID_331_" x="112" y="32.1" class="st6" width="1" height="6.5"/>
			<path id="XMLID_330_" class="st6" d="M117.6,38.6v-2.7c0-1-0.4-1.3-1-1.3c-0.6,0-1,0.5-1,1.2v2.8h-1v-4.9h1v0.5
				c0.2-0.4,0.7-0.6,1.2-0.6c1.1,0,1.7,0.7,1.7,2.2v2.8H117.6z"/>
			<path id="XMLID_329_" class="st6" d="M123,35.1c-0.4-0.4-0.8-0.6-1.2-0.6c-0.7,0-1.1,0.6-1.1,1.6c0,1,0.4,1.6,1.2,1.6
				c0.5,0,0.7-0.2,1.1-0.6l0.6,0.6c-0.4,0.5-0.9,0.9-1.8,0.9c-1.2,0-2.1-1-2.1-2.5c0-1.6,1-2.5,2.1-2.5c0.7,0,1.3,0.3,1.7,0.8
				L123,35.1z"/>
			<path id="XMLID_328_" class="st6" d="M127.4,34.7c-0.2-0.1-0.4-0.2-0.7-0.2c-0.6,0-1,0.4-1,1.3v2.8h-1v-4.9h1v0.5
				c0.2-0.3,0.6-0.6,1.1-0.6c0.4,0,0.6,0.1,0.8,0.2L127.4,34.7z"/>
			<path id="XMLID_325_" class="st6" d="M130.5,34.5c-0.6,0-1,0.4-1.1,1.2h2.3C131.6,35,131.3,34.5,130.5,34.5 M132.6,36.5h-3.2
				c0.1,0.9,0.6,1.3,1.2,1.3c0.4,0,0.7-0.1,1.1-0.4l0.6,0.6c-0.4,0.4-0.9,0.6-1.7,0.6c-1.1,0-2.1-0.9-2.1-2.5c0-1.6,0.9-2.5,2.1-2.5
				c1.4,0,2.1,1.1,2.1,2.4C132.6,36.2,132.6,36.4,132.6,36.5"/>
			<path id="XMLID_322_" class="st6" d="M136.6,36.5c-0.3-0.1-0.6-0.2-1.1-0.2c-0.6,0-1,0.3-1,0.7c0,0.5,0.3,0.8,0.9,0.8
				c0.5,0,1-0.3,1.2-0.6V36.5z M136.6,38.6v-0.5c-0.3,0.3-0.8,0.6-1.3,0.6c-0.8,0-1.7-0.4-1.7-1.6c0-1.1,0.8-1.6,1.9-1.6
				c0.5,0,0.8,0.1,1.1,0.2v-0.4c0-0.5-0.3-0.8-0.9-0.8c-0.5,0-0.9,0.1-1.3,0.3l-0.4-0.7c0.5-0.3,1-0.4,1.7-0.4
				c1.1,0,1.8,0.5,1.8,1.6v3.3H136.6z"/>
			<path id="XMLID_321_" class="st6" d="M140.6,38.7c-0.7,0-1.4-0.3-1.9-0.6l0.4-0.7c0.5,0.3,1,0.5,1.4,0.5c0.6,0,0.9-0.2,0.9-0.5
				c0-0.4-0.4-0.5-1.1-0.8c-1.1-0.4-1.4-0.8-1.4-1.5c0-0.9,0.7-1.3,1.7-1.3c0.6,0,1.2,0.2,1.7,0.5l-0.4,0.7
				c-0.4-0.3-0.8-0.4-1.3-0.4c-0.5,0-0.7,0.2-0.7,0.4c0,0.2,0.2,0.4,0.9,0.7c1.1,0.4,1.7,0.7,1.7,1.6
				C142.4,38.3,141.5,38.7,140.6,38.7"/>
			<path id="XMLID_318_" class="st6" d="M145.5,34.5c-0.6,0-1,0.4-1.1,1.2h2.3C146.6,35,146.3,34.5,145.5,34.5 M147.6,36.5h-3.2
				c0.1,0.9,0.6,1.3,1.2,1.3c0.4,0,0.7-0.1,1.1-0.4l0.6,0.6c-0.4,0.4-0.9,0.6-1.7,0.6c-1.1,0-2.1-0.9-2.1-2.5c0-1.6,0.9-2.5,2.1-2.5
				c1.4,0,2.1,1.1,2.1,2.4C147.6,36.2,147.6,36.4,147.6,36.5"/>
			<path id="XMLID_315_" class="st6" d="M114.5,45.6c-0.5,0-0.9,0.3-1.1,0.6v2c0.2,0.3,0.7,0.6,1.1,0.6c0.7,0,1.1-0.5,1.1-1.5
				C115.6,46.1,115.2,45.6,114.5,45.6 M114.6,49.8c-0.5,0-1-0.3-1.2-0.6V51l-1,0.5v-6.6h1v0.5c0.4-0.3,0.8-0.6,1.3-0.6
				c1.1,0,1.9,0.8,1.9,2.6C116.5,49,115.6,49.8,114.6,49.8"/>
			<polygon id="XMLID_314_" class="st6" points="117.6,46.9 117.6,46.1 120.3,43.7 120.3,44.9 118.5,46.5 120.3,48 120.3,49.2 			
				"/>
			<path id="XMLID_311_" class="st6" d="M126.5,44c-1.1,0-1.6,1-1.6,2.4c0,1.4,0.5,2.4,1.6,2.4c1.1,0,1.6-1,1.6-2.4
				C128.1,45.1,127.6,44,126.5,44 M126.5,49.8c-1.7,0-2.6-1.4-2.6-3.3c0-2,0.9-3.3,2.6-3.3c1.7,0,2.6,1.4,2.6,3.3
				C129.1,48.4,128.2,49.8,126.5,49.8"/>
			<path id="XMLID_310_" class="st6" d="M130.8,49.8c-0.4,0-0.7-0.3-0.7-0.7c0-0.4,0.3-0.7,0.7-0.7c0.4,0,0.7,0.3,0.7,0.7
				C131.5,49.4,131.2,49.8,130.8,49.8"/>
			<path id="XMLID_307_" class="st6" d="M135,44c-1.1,0-1.6,1-1.6,2.4c0,1.4,0.5,2.4,1.6,2.4c1.1,0,1.6-1,1.6-2.4
				C136.6,45.1,136.2,44,135,44 M135,49.8c-1.7,0-2.6-1.4-2.6-3.3c0-2,0.9-3.3,2.6-3.3c1.7,0,2.6,1.4,2.6,3.3
				C137.6,48.4,136.7,49.8,135,49.8"/>
			<path id="XMLID_304_" class="st6" d="M141.2,44c-1.1,0-1.6,1-1.6,2.4c0,1.4,0.5,2.4,1.6,2.4c1.1,0,1.6-1,1.6-2.4
				C142.8,45.1,142.3,44,141.2,44 M141.2,49.8c-1.7,0-2.6-1.4-2.6-3.3c0-2,0.9-3.3,2.6-3.3c1.7,0,2.6,1.4,2.6,3.3
				C143.8,48.4,142.9,49.8,141.2,49.8"/>
			<path id="XMLID_303_" class="st6" d="M145.6,49.7v-5h-1.2V44c0.7,0,1.2-0.3,1.3-0.8h0.8v6.5H145.6z"/>
			<g id="XMLID_265_">
				<path id="XMLID_302_" class="st6" d="M207.6,20.6v-4h-0.9v-0.5c0.5,0,1-0.2,1.1-0.7h0.6v5.2H207.6z"/>
				<path id="XMLID_301_" class="st6" d="M211.2,20.6h-0.8c0-1.8,0.6-3.2,1.6-4.4h-2.7v-0.8h3.6v0.8C212,17.2,211.2,18.7,211.2,20.6
					"/>
				<path id="XMLID_295_" class="st6" d="M219.1,18.1c-0.4,0-0.6,0.4-0.6,1c0,0.6,0.2,1,0.6,1c0.4,0,0.6-0.4,0.6-1
					C219.8,18.5,219.5,18.1,219.1,18.1 M219.1,20.7c-0.8,0-1.3-0.7-1.3-1.6c0-1,0.5-1.6,1.3-1.6c0.8,0,1.3,0.7,1.3,1.6
					C220.4,20,219.9,20.7,219.1,20.7 M215.9,20.6h-0.8l3.2-5.2h0.8L215.9,20.6z M215.2,16c-0.4,0-0.6,0.4-0.6,1c0,0.6,0.2,1,0.6,1
					c0.4,0,0.6-0.4,0.6-1C215.8,16.4,215.5,16,215.2,16 M215.1,18.6c-0.8,0-1.3-0.7-1.3-1.6c0-1,0.5-1.6,1.3-1.6
					c0.8,0,1.3,0.7,1.3,1.6C216.4,17.9,215.9,18.6,215.1,18.6"/>
				<rect id="XMLID_294_" x="200.6" y="24.3" class="st6" width="0.8" height="5.2"/>
				<path id="XMLID_293_" class="st6" d="M205.1,29.5v-2.2c0-0.8-0.3-1.1-0.8-1.1c-0.5,0-0.8,0.4-0.8,1v2.3h-0.8v-3.9h0.8V26
					c0.2-0.3,0.6-0.5,1-0.5c0.9,0,1.4,0.6,1.4,1.7v2.2H205.1z"/>
				<path id="XMLID_292_" class="st6" d="M209.4,26.7c-0.3-0.3-0.6-0.5-1-0.5c-0.6,0-0.9,0.5-0.9,1.3c0,0.8,0.3,1.3,0.9,1.3
					c0.4,0,0.6-0.2,0.9-0.5l0.5,0.5c-0.3,0.4-0.7,0.7-1.4,0.7c-1,0-1.7-0.8-1.7-2c0-1.3,0.8-2,1.7-2c0.6,0,1,0.2,1.4,0.7L209.4,26.7
					z"/>
				<path id="XMLID_291_" class="st6" d="M212.9,26.4c-0.2-0.1-0.3-0.1-0.6-0.1c-0.5,0-0.8,0.3-0.8,1v2.2h-0.8v-3.9h0.8V26
					c0.2-0.3,0.5-0.5,0.9-0.5c0.3,0,0.5,0.1,0.7,0.2L212.9,26.4z"/>
				<path id="XMLID_288_" class="st6" d="M215.4,26.2c-0.5,0-0.8,0.4-0.9,1h1.8C216.3,26.6,216,26.2,215.4,26.2 M217.1,27.8h-2.6
					c0.1,0.7,0.5,1.1,1,1.1c0.3,0,0.6-0.1,0.8-0.3l0.5,0.5c-0.3,0.3-0.8,0.5-1.3,0.5c-0.9,0-1.7-0.7-1.7-2c0-1.3,0.7-2,1.7-2
					c1.1,0,1.6,0.9,1.6,1.9C217.1,27.6,217.1,27.7,217.1,27.8"/>
				<path id="XMLID_285_" class="st6" d="M220.3,27.8c-0.2-0.1-0.5-0.2-0.9-0.2c-0.5,0-0.8,0.2-0.8,0.6c0,0.4,0.2,0.6,0.8,0.6
					c0.4,0,0.8-0.3,0.9-0.5V27.8z M220.3,29.5v-0.4c-0.3,0.3-0.6,0.5-1.1,0.5c-0.6,0-1.4-0.4-1.4-1.3c0-0.9,0.7-1.3,1.6-1.3
					c0.4,0,0.7,0.1,0.9,0.1v-0.3c0-0.4-0.3-0.7-0.7-0.7c-0.4,0-0.7,0.1-1,0.2l-0.3-0.6c0.4-0.2,0.8-0.3,1.3-0.3
					c0.9,0,1.5,0.4,1.5,1.3v2.7H220.3z"/>
				<path id="XMLID_284_" class="st6" d="M223.4,29.6c-0.5,0-1.1-0.2-1.5-0.5l0.4-0.6c0.4,0.3,0.8,0.4,1.1,0.4
					c0.5,0,0.7-0.2,0.7-0.4c0-0.3-0.3-0.4-0.9-0.7c-0.8-0.3-1.1-0.6-1.1-1.2c0-0.7,0.6-1.1,1.3-1.1c0.5,0,1,0.2,1.3,0.4l-0.3,0.6
					c-0.3-0.2-0.6-0.3-1-0.3c-0.4,0-0.5,0.1-0.5,0.4c0,0.2,0.1,0.3,0.7,0.6c0.9,0.3,1.3,0.6,1.3,1.3
					C224.9,29.3,224.2,29.6,223.4,29.6"/>
				<path id="XMLID_281_" class="st6" d="M227.4,26.2c-0.5,0-0.8,0.4-0.9,1h1.8C228.2,26.6,228,26.2,227.4,26.2 M229,27.8h-2.6
					c0.1,0.7,0.5,1.1,1,1.1c0.3,0,0.6-0.1,0.8-0.3l0.5,0.5c-0.3,0.3-0.8,0.5-1.3,0.5c-0.9,0-1.7-0.7-1.7-2c0-1.3,0.7-2,1.7-2
					c1.1,0,1.6,0.9,1.6,1.9C229.1,27.6,229,27.7,229,27.8"/>
				<path id="XMLID_278_" class="st6" d="M202.6,35.1c-0.4,0-0.7,0.2-0.9,0.5v1.6c0.2,0.2,0.5,0.5,0.9,0.5c0.6,0,0.8-0.4,0.8-1.2
					C203.5,35.5,203.1,35.1,202.6,35.1 M202.7,38.4c-0.4,0-0.8-0.2-1-0.4v1.4l-0.8,0.4v-5.3h0.8v0.4c0.3-0.3,0.6-0.5,1-0.5
					c0.8,0,1.5,0.6,1.5,2.1C204.2,37.8,203.5,38.4,202.7,38.4"/>
				<polygon id="XMLID_277_" class="st6" points="205,36.1 205,35.5 207.2,33.6 207.2,34.6 205.8,35.8 207.2,37 207.2,38 				"/>
				<path id="XMLID_274_" class="st6" d="M212.2,33.8c-0.9,0-1.3,0.8-1.3,1.9s0.4,1.9,1.3,1.9c0.9,0,1.3-0.8,1.3-1.9
					C213.5,34.7,213.1,33.8,212.2,33.8 M212.2,38.4c-1.3,0-2.1-1.1-2.1-2.7c0-1.6,0.7-2.7,2.1-2.7c1.3,0,2,1.1,2,2.7
					C214.2,37.3,213.5,38.4,212.2,38.4"/>
				<path id="XMLID_273_" class="st6" d="M215.6,38.4c-0.3,0-0.6-0.3-0.6-0.6c0-0.3,0.3-0.6,0.6-0.6c0.3,0,0.6,0.3,0.6,0.6
					C216.2,38.2,215.9,38.4,215.6,38.4"/>
				<path id="XMLID_270_" class="st6" d="M219,33.8c-0.9,0-1.3,0.8-1.3,1.9s0.4,1.9,1.3,1.9c0.9,0,1.3-0.8,1.3-1.9
					C220.3,34.7,219.9,33.8,219,33.8 M219,38.4c-1.3,0-2.1-1.1-2.1-2.7c0-1.6,0.7-2.7,2.1-2.7c1.3,0,2,1.1,2,2.7
					C221.1,37.3,220.4,38.4,219,38.4"/>
				<path id="XMLID_267_" class="st6" d="M223.9,33.8c-0.9,0-1.3,0.8-1.3,1.9s0.4,1.9,1.3,1.9c0.9,0,1.3-0.8,1.3-1.9
					C225.2,34.7,224.9,33.8,223.9,33.8 M223.9,38.4c-1.3,0-2.1-1.1-2.1-2.7c0-1.6,0.7-2.7,2.1-2.7c1.3,0,2,1.1,2,2.7
					C226,37.3,225.3,38.4,223.9,38.4"/>
				<path id="XMLID_266_" class="st6" d="M227.5,38.3v-4h-0.9v-0.5c0.5,0,1-0.2,1.1-0.7h0.6v5.2H227.5z"/>
			</g>
			<g id="XMLID_227_">
				<path id="XMLID_264_" class="st6" d="M290.5,20.6v-4h-0.9v-0.5c0.5,0,1-0.2,1.1-0.7h0.6v5.2H290.5z"/>
				<path id="XMLID_263_" class="st6" d="M294.1,20.6h-0.8c0-1.8,0.6-3.2,1.6-4.4h-2.7v-0.8h3.6v0.8
					C294.9,17.2,294.1,18.7,294.1,20.6"/>
				<path id="XMLID_257_" class="st6" d="M302.1,18.1c-0.4,0-0.6,0.4-0.6,1c0,0.6,0.2,1,0.6,1c0.4,0,0.6-0.4,0.6-1
					C302.7,18.5,302.5,18.1,302.1,18.1 M302.1,20.7c-0.8,0-1.3-0.7-1.3-1.6c0-1,0.5-1.6,1.3-1.6c0.8,0,1.3,0.7,1.3,1.6
					C303.3,20,302.8,20.7,302.1,20.7 M298.8,20.6h-0.8l3.2-5.2h0.8L298.8,20.6z M298.1,16c-0.4,0-0.6,0.4-0.6,1c0,0.6,0.2,1,0.6,1
					c0.4,0,0.6-0.4,0.6-1C298.7,16.4,298.5,16,298.1,16 M298.1,18.6c-0.8,0-1.3-0.7-1.3-1.6c0-1,0.5-1.6,1.3-1.6
					c0.8,0,1.3,0.7,1.3,1.6C299.4,17.9,298.8,18.6,298.1,18.6"/>
				<rect id="XMLID_256_" x="283.5" y="24.3" class="st6" width="0.8" height="5.2"/>
				<path id="XMLID_255_" class="st6" d="M288,29.5v-2.2c0-0.8-0.3-1.1-0.8-1.1c-0.5,0-0.8,0.4-0.8,1v2.3h-0.8v-3.9h0.8V26
					c0.2-0.3,0.6-0.5,1-0.5c0.9,0,1.4,0.6,1.4,1.7v2.2H288z"/>
				<path id="XMLID_254_" class="st6" d="M292.3,26.7c-0.3-0.3-0.6-0.5-1-0.5c-0.6,0-0.9,0.5-0.9,1.3c0,0.8,0.3,1.3,0.9,1.3
					c0.4,0,0.6-0.2,0.9-0.5l0.5,0.5c-0.3,0.4-0.7,0.7-1.4,0.7c-1,0-1.7-0.8-1.7-2c0-1.3,0.8-2,1.7-2c0.6,0,1,0.2,1.4,0.7L292.3,26.7
					z"/>
				<path id="XMLID_253_" class="st6" d="M295.9,26.4c-0.2-0.1-0.3-0.1-0.6-0.1c-0.5,0-0.8,0.3-0.8,1v2.2h-0.8v-3.9h0.8V26
					c0.2-0.3,0.5-0.5,0.9-0.5c0.3,0,0.5,0.1,0.7,0.2L295.9,26.4z"/>
				<path id="XMLID_250_" class="st6" d="M298.3,26.2c-0.5,0-0.8,0.4-0.9,1h1.8C299.2,26.6,299,26.2,298.3,26.2 M300,27.8h-2.6
					c0.1,0.7,0.5,1.1,1,1.1c0.3,0,0.6-0.1,0.8-0.3l0.5,0.5c-0.3,0.3-0.8,0.5-1.4,0.5c-0.9,0-1.7-0.7-1.7-2c0-1.3,0.7-2,1.7-2
					c1.1,0,1.6,0.9,1.6,1.9C300,27.6,300,27.7,300,27.8"/>
				<path id="XMLID_247_" class="st6" d="M303.2,27.8c-0.2-0.1-0.5-0.2-0.9-0.2c-0.5,0-0.8,0.2-0.8,0.6c0,0.4,0.2,0.6,0.8,0.6
					c0.4,0,0.8-0.3,0.9-0.5V27.8z M303.2,29.5v-0.4c-0.3,0.3-0.6,0.5-1.1,0.5c-0.6,0-1.4-0.4-1.4-1.3c0-0.9,0.7-1.3,1.6-1.3
					c0.4,0,0.7,0.1,0.9,0.1v-0.3c0-0.4-0.3-0.7-0.7-0.7c-0.4,0-0.7,0.1-1,0.2l-0.3-0.6c0.4-0.2,0.8-0.3,1.3-0.3
					c0.9,0,1.5,0.4,1.5,1.3v2.7H303.2z"/>
				<path id="XMLID_246_" class="st6" d="M306.4,29.6c-0.5,0-1.1-0.2-1.5-0.5l0.3-0.6c0.4,0.3,0.8,0.4,1.1,0.4
					c0.5,0,0.7-0.2,0.7-0.4c0-0.3-0.3-0.4-0.9-0.7c-0.8-0.3-1.1-0.6-1.1-1.2c0-0.7,0.6-1.1,1.3-1.1c0.5,0,1,0.2,1.3,0.4l-0.3,0.6
					c-0.3-0.2-0.6-0.3-1-0.3c-0.4,0-0.5,0.1-0.5,0.4c0,0.2,0.1,0.3,0.7,0.6c0.9,0.3,1.3,0.6,1.3,1.3
					C307.8,29.3,307.1,29.6,306.4,29.6"/>
				<path id="XMLID_243_" class="st6" d="M310.3,26.2c-0.5,0-0.8,0.4-0.9,1h1.8C311.2,26.6,310.9,26.2,310.3,26.2 M312,27.8h-2.6
					c0.1,0.7,0.5,1.1,1,1.1c0.3,0,0.6-0.1,0.8-0.3l0.5,0.5c-0.3,0.3-0.8,0.5-1.3,0.5c-0.9,0-1.7-0.7-1.7-2c0-1.3,0.7-2,1.7-2
					c1.1,0,1.6,0.9,1.6,1.9C312,27.6,312,27.7,312,27.8"/>
				<path id="XMLID_240_" class="st6" d="M285.5,35.1c-0.4,0-0.7,0.2-0.9,0.5v1.6c0.2,0.2,0.5,0.5,0.9,0.5c0.6,0,0.9-0.4,0.9-1.2
					C286.4,35.5,286.1,35.1,285.5,35.1 M285.6,38.4c-0.4,0-0.8-0.2-1-0.4v1.4l-0.8,0.4v-5.3h0.8v0.4c0.3-0.3,0.6-0.5,1-0.5
					c0.8,0,1.5,0.6,1.5,2.1C287.1,37.8,286.4,38.4,285.6,38.4"/>
				<polygon id="XMLID_239_" class="st6" points="288,36.1 288,35.5 290.1,33.6 290.1,34.6 288.7,35.8 290.1,37 290.1,38 				"/>
				<path id="XMLID_236_" class="st6" d="M295.1,33.8c-0.9,0-1.3,0.8-1.3,1.9s0.4,1.9,1.3,1.9c0.9,0,1.3-0.8,1.3-1.9
					C296.4,34.7,296,33.8,295.1,33.8 M295.1,38.4c-1.3,0-2.1-1.1-2.1-2.7c0-1.6,0.7-2.7,2.1-2.7c1.4,0,2.1,1.1,2.1,2.7
					C297.2,37.3,296.4,38.4,295.1,38.4"/>
				<path id="XMLID_235_" class="st6" d="M298.5,38.4c-0.3,0-0.6-0.3-0.6-0.6c0-0.3,0.3-0.6,0.6-0.6c0.3,0,0.6,0.3,0.6,0.6
					C299.1,38.2,298.8,38.4,298.5,38.4"/>
				<path id="XMLID_232_" class="st6" d="M301.9,33.8c-0.9,0-1.3,0.8-1.3,1.9s0.4,1.9,1.3,1.9c0.9,0,1.3-0.8,1.3-1.9
					C303.2,34.7,302.8,33.8,301.9,33.8 M301.9,38.4c-1.3,0-2.1-1.1-2.1-2.7c0-1.6,0.7-2.7,2.1-2.7c1.3,0,2,1.1,2,2.7
					C304,37.3,303.3,38.4,301.9,38.4"/>
				<path id="XMLID_229_" class="st6" d="M306.9,33.8c-0.9,0-1.3,0.8-1.3,1.9s0.4,1.9,1.3,1.9c0.9,0,1.3-0.8,1.3-1.9
					C308.1,34.7,307.8,33.8,306.9,33.8 M306.9,38.4c-1.3,0-2-1.1-2-2.7c0-1.6,0.7-2.7,2.1-2.7c1.3,0,2,1.1,2,2.7
					C308.9,37.3,308.2,38.4,306.9,38.4"/>
				<path id="XMLID_228_" class="st6" d="M310.4,38.3v-4h-0.9v-0.5c0.5,0,1-0.2,1.1-0.7h0.6v5.2H310.4z"/>
			</g>
			<polyline id="XMLID_226_" class="st7" points="85.7,7.1 85.7,195.5 355.4,195.5 			"/>
			<path id="XMLID_225_" class="st0" d="M317.1,179.3"/>
			<path id="XMLID_224_" class="st0" d="M84.8,176.6"/>
			<path id="XMLID_223_" class="st0" d="M84.5,157.9"/>
			<path id="XMLID_222_" class="st0" d="M84.7,137.7"/>
			<path id="XMLID_221_" class="st0" d="M84.7,119.7"/>
			<path id="XMLID_220_" class="st0" d="M84.8,100.4"/>
			<path id="XMLID_219_" class="st0" d="M84.7,82"/>
			<path id="XMLID_218_" class="st0" d="M84.8,62.1"/>
			<path id="XMLID_217_" class="st0" d="M84.8,26.3"/>
			<path id="XMLID_216_" class="st0" d="M84.8,44"/>
			<path id="XMLID_215_" class="st0" d="M258,195"/>
			<path id="XMLID_214_" class="st0" d="M171.9,196"/>
			<path id="XMLID_211_" class="st6" d="M74,193.2c-1.4,0-1.9,1.2-1.9,2.9c0,1.6,0.5,2.9,1.9,2.9c1.4,0,1.9-1.2,1.9-2.8
				C75.9,194.4,75.3,193.2,74,193.2 M74,200c-2,0-3.1-1.6-3.1-4c0-2.3,1.1-4,3.1-4c2,0,3.1,1.6,3.1,4C77.1,198.4,76,200,74,200"/>
			<path id="XMLID_210_" class="st6" d="M63.9,163.4h-1.2c0-2.7,1-4.7,2.4-6.6h-4.1v-1.1h5.4v1.2C65.2,158.3,64,160.6,63.9,163.4"/>
			<path id="XMLID_207_" class="st6" d="M71.1,156.7c-1.4,0-1.9,1.2-1.9,2.9c0,1.6,0.5,2.9,1.9,2.9c1.4,0,1.9-1.2,1.9-2.9
				C73,157.9,72.5,156.7,71.1,156.7 M71.1,163.6c-2,0-3.1-1.6-3.1-4c0-2.3,1.1-4,3.1-4c2,0,3.1,1.6,3.1,4
				C74.2,161.9,73.1,163.6,71.1,163.6"/>
			<path id="XMLID_206_" class="st6" d="M64.3,126h-1.2c0-2.7,1-4.7,2.4-6.6h-4.1v-1.1h5.4v1.2C65.6,121,64.4,123.2,64.3,126"/>
			<path id="XMLID_205_" class="st6" d="M71.2,126.2c-1,0-1.9-0.2-2.7-0.8l0.6-1c0.7,0.4,1.5,0.6,2.2,0.6c1.2,0,1.8-0.6,1.8-1.6
				c0-0.9-0.6-1.4-1.6-1.4c-0.7,0-1.1,0.2-1.5,0.5l-1.2-0.5l0.3-3.8h4.8v1.1H70l-0.2,2c0.4-0.2,1-0.4,1.7-0.4c1.8,0,2.7,1,2.7,2.4
				C74.2,125.3,73,126.2,71.2,126.2"/>
			<path id="XMLID_201_" class="st6" d="M63.3,82.8c-1.1,0-1.5,0.5-1.5,1.1c0,0.6,0.6,1.1,1.6,1.1c1,0,1.5-0.5,1.5-1
				C64.9,83.4,64.4,82.8,63.3,82.8 M63.3,86.1c-1.2,0-1.9,0.5-1.9,1.3c0,0.8,0.7,1.3,1.9,1.3c1.2,0,1.9-0.5,1.9-1.3
				C65.2,86.6,64.6,86.1,63.3,86.1 M63.3,89.7c-1.9,0-3-0.9-3-2.4c0-0.9,0.5-1.6,1.4-1.9c-0.8-0.3-1-1-1-1.5c0-1.5,1.2-2.2,2.7-2.2
				c1.4,0,2.7,0.7,2.7,2.2c0,0.5-0.2,1.2-1,1.5c0.8,0.3,1.4,0.9,1.4,1.9C66.4,88.9,65.2,89.7,63.3,89.7"/>
			<path id="XMLID_198_" class="st6" d="M70.7,82.9c-1.4,0-1.9,1.2-1.9,2.9c0,1.6,0.5,2.9,1.9,2.9c1.4,0,1.9-1.2,1.9-2.9
				C72.6,84.1,72.1,82.9,70.7,82.9 M70.7,89.7c-2,0-3.1-1.6-3.1-4c0-2.3,1.1-4,3.1-4c2,0,3.1,1.6,3.1,4
				C73.8,88.1,72.7,89.7,70.7,89.7"/>
			<path id="XMLID_194_" class="st6" d="M63.7,43.9c-1.1,0-1.5,0.5-1.5,1.1c0,0.6,0.6,1.1,1.6,1.1c1,0,1.5-0.5,1.5-1
				C65.3,44.4,64.9,43.9,63.7,43.9 M63.7,47.1c-1.2,0-1.9,0.5-1.9,1.3c0,0.8,0.7,1.3,1.9,1.3c1.2,0,1.9-0.5,1.9-1.3
				C65.6,47.6,65,47.1,63.7,47.1 M63.7,50.8c-1.9,0-3-0.9-3-2.4c0-0.9,0.5-1.6,1.4-1.9c-0.8-0.3-1-1-1-1.5c0-1.5,1.2-2.2,2.7-2.2
				c1.4,0,2.7,0.7,2.7,2.2c0,0.5-0.2,1.2-1,1.5c0.8,0.3,1.4,0.9,1.4,1.9C66.8,49.9,65.6,50.8,63.7,50.8"/>
			<path id="XMLID_193_" class="st6" d="M70.8,50.8c-1,0-1.9-0.2-2.7-0.8l0.6-1c0.7,0.4,1.5,0.6,2.2,0.6c1.2,0,1.8-0.6,1.8-1.6
				c0-0.9-0.6-1.4-1.6-1.4c-0.7,0-1.1,0.2-1.5,0.5l-1.2-0.5l0.3-3.8h4.8V44h-3.7l-0.2,2c0.4-0.2,1-0.4,1.7-0.4c1.8,0,2.7,1,2.7,2.4
				C73.9,49.9,72.6,50.8,70.8,50.8"/>
			<path id="XMLID_190_" class="st6" d="M63.6,7.1c-1.2,0-1.8,0.6-1.8,1.4c0,0.9,0.7,1.3,1.8,1.3c1.1,0,1.8-0.5,1.8-1.4
				C65.4,7.7,64.8,7.1,63.6,7.1 M61.8,13.9v-1.1c1.8-0.1,3-0.9,3.5-2.5c-0.5,0.4-1.1,0.6-2,0.6c-1.4,0-2.6-0.8-2.6-2.4
				c0-1.7,1.3-2.6,3.1-2.6c1.6,0,2.9,0.9,2.9,3.1C66.6,11,65.5,13.8,61.8,13.9"/>
			<path id="XMLID_187_" class="st6" d="M70.9,7.1c-1.4,0-1.9,1.2-1.9,2.9c0,1.6,0.5,2.9,1.9,2.9c1.4,0,1.9-1.2,1.9-2.9
				C72.8,8.3,72.3,7.1,70.9,7.1 M70.9,13.9c-2,0-3.1-1.6-3.1-4c0-2.3,1.1-4,3.1-4c2,0,3.1,1.6,3.1,4C74,12.3,72.9,13.9,70.9,13.9"/>
			<path id="XMLID_185_" class="st6" d="M211.7,18.6v5"/>
			<path id="XMLID_182_" class="st6" d="M24.6,189.8v2.7h3.5v-2.7c0-1.2-0.7-1.7-1.8-1.7C25.2,188.1,24.6,188.7,24.6,189.8
				 M29.5,189.9v2.7h3.8v1.5H23.1v-4.3c0-1.9,1.1-3.3,3.2-3.3C28.4,186.5,29.5,187.9,29.5,189.9"/>
			<path id="XMLID_181_" class="st6" d="M27.3,180.6c-0.2,0.3-0.3,0.7-0.3,1.1c0,0.9,0.7,1.5,2,1.5h4.4v1.5h-7.7v-1.5h0.7
				c-0.5-0.4-0.9-1-0.9-1.7c0-0.6,0.1-1,0.3-1.3L27.3,180.6z"/>
			<path id="XMLID_178_" class="st6" d="M26.9,175.7c0,1.1,1,1.8,2.5,1.8c1.7,0,2.6-0.8,2.6-1.9c0-1.1-1.2-1.9-2.6-1.9
				C28,173.7,26.9,174.5,26.9,175.7 M33.5,175.7c0,1.9-1.6,3.4-4,3.4c-2.5,0-4-1.5-4-3.4c0-1.9,1.6-3.4,4-3.4
				C32,172.2,33.5,173.7,33.5,175.7"/>
			<path id="XMLID_175_" class="st6" d="M26.9,167.2c0,0.7,0.5,1.3,1,1.7h3.2c0.5-0.3,1-1,1-1.8c0-1.1-0.8-1.7-2.4-1.7
				C27.8,165.5,26.9,166.1,26.9,167.2 M33.5,167c0,0.8-0.4,1.5-0.9,1.9h2.8l0.8,1.5H25.7v-1.5h0.7c-0.5-0.6-0.9-1.2-0.9-2
				c0-1.6,1.2-2.9,4.1-2.9C32.3,164,33.5,165.4,33.5,167"/>
			<path id="XMLID_172_" class="st6" d="M26.9,159.1c0,1.1,1,1.8,2.5,1.8c1.7,0,2.6-0.8,2.6-1.9s-1.2-1.9-2.6-1.9
				C28,157.2,26.9,157.9,26.9,159.1 M33.5,159.1c0,1.9-1.6,3.4-4,3.4c-2.5,0-4-1.5-4-3.4c0-1.9,1.6-3.4,4-3.4
				C32,155.6,33.5,157.1,33.5,159.1"/>
			<path id="XMLID_169_" class="st6" d="M26.9,150.9c0,1,0.7,1.6,1.9,1.7v-3.5C27.8,149.2,26.9,149.7,26.9,150.9 M30.1,147.6v5
				c1.5-0.2,2.1-1,2.1-1.9c0-0.6-0.2-1.1-0.6-1.7l1-0.9c0.6,0.7,1,1.5,1,2.6c0,1.8-1.5,3.3-4,3.3c-2.6,0-4-1.4-4-3.3
				c0-2.2,1.8-3.2,3.9-3.2C29.6,147.6,29.9,147.6,30.1,147.6"/>
			<path id="XMLID_168_" class="st6" d="M33.2,142.1c0.2,0.4,0.4,0.9,0.4,1.5c0,1.1-0.7,1.7-2,1.7H27v1.1h-1.4v-1.1h-2.2l-0.8-1.5h3
				v-1.9H27v1.9h4.2c0.7,0,0.9-0.2,0.9-0.8c0-0.4-0.1-0.8-0.3-1.1L33.2,142.1z"/>
			<path id="XMLID_165_" class="st6" d="M33.4,139.8h-7.7v-1.5h7.7V139.8z M24.7,139.1c0,0.5-0.4,1-1,1c-0.5,0-1-0.4-1-1
				c0-0.5,0.4-1,1-1C24.2,138.1,24.7,138.5,24.7,139.1"/>
			<path id="XMLID_162_" class="st6" d="M26.9,133c0,1.1,1,1.8,2.5,1.8c1.7,0,2.6-0.8,2.6-1.9c0-1.1-1.2-1.9-2.6-1.9
				C28,131.1,26.9,131.8,26.9,133 M33.5,133c0,1.9-1.6,3.4-4,3.4c-2.5,0-4-1.5-4-3.4c0-2,1.6-3.4,4-3.4
				C32,129.6,33.5,131.1,33.5,133"/>
			<path id="XMLID_161_" class="st6" d="M33.4,123.1H29c-1.6,0-2.1,0.6-2.1,1.6c0,1,0.7,1.6,2,1.6h4.5v1.5h-7.7v-1.5h0.7
				c-0.6-0.4-0.9-1.1-0.9-1.9c0-1.8,1.2-2.7,3.4-2.7h4.4V123.1z"/>
			<path id="XMLID_158_" class="st6" d="M26.9,112.5c0,1.1,1,1.8,2.5,1.8c1.7,0,2.6-0.8,2.6-1.9c0-1.1-1.2-1.9-2.6-1.9
				C28,110.6,26.9,111.3,26.9,112.5 M33.5,112.5c0,1.9-1.6,3.4-4,3.4c-2.5,0-4-1.5-4-3.4c0-2,1.6-3.4,4-3.4
				C32,109.1,33.5,110.6,33.5,112.5"/>
			<path id="XMLID_157_" class="st6" d="M24,104.5c0,0.5,0.2,0.7,0.7,0.7h0.9v-1.4h1.4v1.4h6.3v1.5h-6.3v1h-1.4v-1h-1
				c-1.4,0-1.9-0.9-1.9-1.9c0-0.4,0.1-0.8,0.1-1.1h1.3C24.1,104,24,104.3,24,104.5"/>
			<path id="XMLID_156_" class="st6" d="M33.5,95.6c0,1-0.4,2.2-1,2.9l-1.1-0.7c0.5-0.7,0.8-1.5,0.8-2.2c0-0.9-0.3-1.4-0.9-1.4
				c-0.6,0-0.9,0.7-1.3,1.8c-0.6,1.6-1.2,2.2-2.4,2.2c-1.4,0-2.1-1.1-2.1-2.6c0-1,0.4-1.9,0.8-2.6l1.2,0.7c-0.4,0.6-0.7,1.3-0.7,2
				c0,0.7,0.3,1,0.7,1c0.4,0,0.7-0.3,1.1-1.4c0.7-1.7,1.1-2.6,2.6-2.6C33,92.7,33.5,94.1,33.5,95.6"/>
			<path id="XMLID_153_" class="st6" d="M26.9,87.9c0,1,0.7,1.6,1.9,1.7v-3.5C27.8,86.2,26.9,86.7,26.9,87.9 M30.1,84.6v5
				c1.5-0.2,2.1-1,2.1-1.9c0-0.6-0.2-1.1-0.6-1.7l1-0.9c0.6,0.7,1,1.5,1,2.6c0,1.8-1.5,3.3-4,3.3c-2.6,0-4-1.4-4-3.3
				c0-2.2,1.8-3.2,3.9-3.2C29.6,84.6,29.9,84.6,30.1,84.6"/>
			<path id="XMLID_150_" class="st6" d="M33.4,82.7h-7.7v-1.5h7.7V82.7z M24.7,81.9c0,0.5-0.4,1-1,1c-0.5,0-1-0.4-1-1
				c0-0.5,0.4-1,1-1C24.2,80.9,24.7,81.4,24.7,81.9"/>
			<path id="XMLID_149_" class="st6" d="M33.4,79.1h-1.2l-4-3.3c-0.4-0.3-0.9-0.7-1.1-0.9c0,0.3,0,1,0,1.4v2.5h-1.3v-5.6h1.2l4,3.2
				c0.4,0.3,0.9,0.7,1.1,0.9c0-0.3,0-1,0-1.4v-2.7h1.3V79.1z"/>
			<path id="XMLID_148_" class="st6" d="M33.4,66.6h-0.7c0.6,0.4,0.9,1.1,0.9,1.9c0,1.8-1.2,2.7-3.4,2.7h-4.4v-1.5H30
				c1.6,0,2.1-0.6,2.1-1.6c0-1-0.7-1.6-2-1.6h-4.5v-1.5h7.7V66.6z"/>
			<path id="XMLID_147_" class="st6" d="M27.3,58.8c-0.2,0.3-0.3,0.7-0.3,1.1c0,0.9,0.7,1.5,2,1.5h4.4v1.5h-7.7v-1.5h0.7
				c-0.5-0.4-0.9-1-0.9-1.7c0-0.6,0.1-1,0.3-1.3L27.3,58.8z"/>
			<path id="XMLID_144_" class="st6" d="M26.9,54c0,1,0.7,1.6,1.9,1.7v-3.5C27.8,52.2,26.9,52.7,26.9,54 M30.1,50.7v5
				c1.5-0.2,2.1-1,2.1-1.9c0-0.6-0.2-1.1-0.6-1.7l1-0.9c0.6,0.7,1,1.5,1,2.6c0,1.8-1.5,3.3-4,3.3c-2.6,0-4-1.4-4-3.3
				c0-2.2,1.8-3.2,3.9-3.2C29.6,50.6,29.9,50.7,30.1,50.7"/>
			<rect id="XMLID_143_" x="27.3" y="45.5" class="st6" width="1.5" height="3.6"/>
			<path id="XMLID_142_" class="st6" d="M24,40.8c0,0.5,0.2,0.7,0.7,0.7h0.9v-1.4h1.4v1.4h6.3V43h-6.3v1h-1.4v-1h-1
				c-1.4,0-1.9-0.9-1.9-1.9c0-0.4,0.1-0.8,0.1-1.1h1.3C24.1,40.3,24,40.6,24,40.8"/>
			<path id="XMLID_141_" class="st6" d="M27.3,34.1c-0.2,0.3-0.3,0.7-0.3,1.1c0,0.9,0.7,1.5,2,1.5h4.4v1.5h-7.7v-1.5h0.7
				c-0.5-0.4-0.9-1-0.9-1.7c0-0.6,0.1-1,0.3-1.3L27.3,34.1z"/>
			<path id="XMLID_138_" class="st6" d="M26.9,29.3c0,1,0.7,1.6,1.9,1.7v-3.5C27.8,27.6,26.9,28.1,26.9,29.3 M30.1,26v5
				c1.5-0.2,2.1-1,2.1-1.9c0-0.6-0.2-1.1-0.6-1.7l1-0.9c0.6,0.7,1,1.5,1,2.6c0,1.8-1.5,3.3-4,3.3c-2.6,0-4-1.4-4-3.3
				c0-2.2,1.8-3.2,3.9-3.2C29.6,26,29.9,26,30.1,26"/>
			<path id="XMLID_135_" class="st6" d="M26.9,21.3c0,1,0.7,1.6,1.9,1.7v-3.5C27.8,19.5,26.9,20,26.9,21.3 M30.1,18v5
				c1.5-0.2,2.1-1,2.1-1.9c0-0.6-0.2-1.1-0.6-1.7l1-0.9c0.6,0.7,1,1.5,1,2.6c0,1.8-1.5,3.3-4,3.3c-2.6,0-4-1.4-4-3.3
				c0-2.2,1.8-3.2,3.9-3.2C29.6,18,29.9,18,30.1,18"/>
			<path id="XMLID_132_" class="st6" d="M44.5,143.9c0,0.7,0.5,1.3,1,1.7h3.2c0.5-0.3,1-1,1-1.8c0-1.1-0.8-1.7-2.4-1.7
				C45.3,142.2,44.5,142.8,44.5,143.9 M51.1,143.7c0,0.8-0.4,1.5-0.9,1.9H53l0.8,1.5H43.3v-1.5H44c-0.5-0.6-0.9-1.2-0.9-2
				c0-1.6,1.2-2.9,4.1-2.9C49.9,140.7,51.1,142.1,51.1,143.7"/>
			<path id="XMLID_129_" class="st6" d="M47.7,134.5c-0.2,0.4-0.3,0.9-0.3,1.7c0,1,0.4,1.6,1.1,1.6c0.8,0,1.3-0.5,1.3-1.5
				c0-0.8-0.5-1.5-1-1.8H47.7z M51,134.5h-0.8c0.5,0.5,0.9,1.3,0.9,2.1c0,1.2-0.7,2.6-2.6,2.6c-1.7,0-2.5-1.3-2.5-3
				c0-0.7,0.1-1.3,0.3-1.7h-0.6c-0.8,0-1.3,0.5-1.3,1.4c0,0.8,0.1,1.4,0.5,2l-1.1,0.6c-0.5-0.7-0.7-1.5-0.7-2.6
				c0-1.7,0.8-2.9,2.6-2.9H51V134.5z"/>
			<path id="XMLID_128_" class="st6" d="M50.8,127.2c0.2,0.4,0.4,0.9,0.4,1.5c0,1.1-0.7,1.7-2,1.7h-4.4v1.1h-1.4v-1.1h-2.2l-0.8-1.5
				h3V127h1.4v1.9h4.2c0.7,0,0.9-0.2,0.9-0.8c0-0.4-0.1-0.8-0.3-1.1L50.8,127.2z"/>
			<path id="XMLID_125_" class="st6" d="M51,124.9h-7.7v-1.5H51V124.9z M42.3,124.1c0,0.5-0.4,1-1,1c-0.5,0-1-0.4-1-1
				c0-0.5,0.4-1,1-1C41.8,123.2,42.3,123.6,42.3,124.1"/>
			<path id="XMLID_122_" class="st6" d="M44.5,118.2c0,1,0.7,1.6,1.9,1.7v-3.5C45.3,116.5,44.5,117,44.5,118.2 M47.6,115v5
				c1.5-0.2,2.1-1,2.1-1.9c0-0.6-0.2-1.1-0.6-1.7l1-0.9c0.6,0.7,1,1.5,1,2.6c0,1.8-1.5,3.3-4,3.3c-2.6,0-4-1.4-4-3.3
				c0-2.2,1.8-3.2,3.9-3.2C47.2,114.9,47.5,115,47.6,115"/>
			<path id="XMLID_121_" class="st6" d="M51,108.4h-4.4c-1.6,0-2.1,0.6-2.1,1.6c0,1,0.7,1.6,2,1.6H51v1.5h-7.7v-1.5H44
				c-0.6-0.4-0.9-1.1-0.9-1.9c0-1.8,1.2-2.7,3.4-2.7H51V108.4z"/>
			<path id="XMLID_120_" class="st6" d="M50.8,101.1c0.2,0.4,0.4,0.9,0.4,1.5c0,1.1-0.7,1.7-2,1.7h-4.4v1.1h-1.4v-1.1h-2.2l-0.8-1.5
				h3v-1.9h1.4v1.9h4.2c0.7,0,0.9-0.2,0.9-0.8c0-0.4-0.1-0.8-0.3-1.1L50.8,101.1z"/>
			<path id="XMLID_119_" class="st6" d="M51.1,96.4c0,1-0.4,2.2-1,2.9L49,98.7c0.5-0.7,0.8-1.5,0.8-2.2c0-0.9-0.3-1.4-0.8-1.4
				c-0.6,0-0.9,0.7-1.3,1.8c-0.6,1.6-1.2,2.2-2.4,2.2c-1.4,0-2.1-1.1-2.1-2.6c0-1,0.4-1.9,0.8-2.6l1.2,0.7c-0.4,0.6-0.7,1.3-0.7,2
				c0,0.7,0.3,1,0.7,1c0.4,0,0.7-0.3,1.1-1.4c0.7-1.7,1.1-2.6,2.6-2.6C50.5,93.6,51.1,94.9,51.1,96.4"/>
			<path id="XMLID_118_" class="st6" d="M52.6,85.2c-1.4,1.5-3.4,2.8-6,2.8c-2.7,0-4.7-1.4-6.1-2.8l0.7-0.8c1.5,1.3,3.1,2,5.4,2
				c2.4,0,4-0.8,5.4-2L52.6,85.2z"/>
			<path id="XMLID_112_" class="st6" d="M46,72.7c0,0.8,0.7,1.2,1.9,1.2c1.2,0,1.9-0.4,1.9-1.2c0-0.8-0.8-1.2-1.9-1.2
				C46.8,71.5,46,71.9,46,72.7 M51.1,72.7c0,1.5-1.3,2.5-3.2,2.5c-1.9,0-3.2-1-3.2-2.5c0-1.5,1.3-2.5,3.2-2.5
				C49.8,70.2,51.1,71.2,51.1,72.7 M41.8,80.5c0,0.8,0.7,1.2,1.9,1.2c1.2,0,1.9-0.4,1.9-1.2c0-0.8-0.8-1.2-1.9-1.2
				C42.6,79.3,41.8,79.7,41.8,80.5 M51,79v1.5l-10.3-6.2v-1.5L51,79z M46.9,80.5c0,1.5-1.3,2.5-3.2,2.5c-1.9,0-3.2-1-3.2-2.5
				c0-1.5,1.3-2.5,3.2-2.5C45.6,78,46.9,79,46.9,80.5"/>
			<path id="XMLID_111_" class="st6" d="M52.6,68l-0.7,0.8c-1.5-1.3-3.1-2-5.4-2c-2.4,0-4,0.8-5.4,2L40.4,68c1.4-1.5,3.4-2.8,6-2.8
				C49.2,65.2,51.1,66.5,52.6,68"/>
			<path id="XMLID_110_" class="st6" d="M144.9,210.7v-6.4h-1.5v-0.9c0.9-0.1,1.6-0.3,1.7-1.1h1v8.3H144.9z"/>
			<path id="XMLID_109_" class="st6" d="M228.5,212.3c0.1-2.4,1.6-3.5,3.2-4.5c1.1-0.7,1.4-1,1.4-1.6c0-0.7-0.5-1.1-1.6-1.1
				c-0.7,0-1.5,0.3-2,0.8l-0.8-1c0.8-0.7,1.8-1.1,2.9-1.1c1.7,0,2.9,0.7,2.9,2.3c0,1.3-0.6,1.8-2.1,2.7c-1.6,0.9-2.1,1.5-2.3,2.3
				h4.4v1.2H228.5z"/>
			<path id="XMLID_108_" class="st6" d="M307.8,212.4c-1.2,0-2.4-0.5-3-1.4l1-0.8c0.5,0.6,1.3,1,2.1,1c1.3,0,1.8-0.5,1.8-1.4
				c0-0.9-0.6-1.3-1.5-1.3h-0.8v-1.2h0.8c0.8,0,1.2-0.5,1.2-1.1c0-0.5-0.3-1.1-1.6-1.1c-0.7,0-1.2,0.3-1.7,0.8l-0.9-0.9
				c0.7-0.7,1.6-1.1,2.6-1.1c1.6,0,2.9,0.8,2.9,2.3c0,1-0.4,1.5-1,1.8c0.8,0.2,1.4,0.9,1.4,1.9C310.9,211.5,309.7,212.4,307.8,212.4
				"/>
			<path id="XMLID_105_" class="st6" d="M194.7,215.7h-0.9v5.2h0.9c1.8,0,2.5-1.1,2.5-2.6C197.2,216.7,196.5,215.7,194.7,215.7
				 M194.7,222h-2v-7.4h2c2,0,3.6,1.1,3.6,3.7C198.3,220.9,196.6,222,194.7,222"/>
			<path id="XMLID_102_" class="st6" d="M202.9,219.6c-0.3-0.1-0.7-0.2-1.3-0.2c-0.7,0-1.2,0.3-1.2,0.8c0,0.5,0.4,0.9,1.1,0.9
				c0.6,0,1.1-0.4,1.4-0.7V219.6z M202.9,222v-0.5c-0.4,0.4-0.9,0.7-1.5,0.7c-0.9,0-1.9-0.5-1.9-1.9c0-1.2,1-1.8,2.2-1.8
				c0.5,0,0.9,0.1,1.2,0.2v-0.4c0-0.6-0.4-0.9-1.1-0.9c-0.6,0-1,0.1-1.5,0.3l-0.4-0.8c0.5-0.3,1.1-0.5,1.9-0.5
				c1.2,0,2.1,0.6,2.1,1.9v3.8H202.9z"/>
			<path id="XMLID_101_" class="st6" d="M207.5,223.9h-1.2l0.8-2.1l-2.1-5.4h1.2l0.9,2.7c0.2,0.5,0.4,1.3,0.5,1.6
				c0.1-0.3,0.3-1.1,0.5-1.6l0.9-2.7h1.2L207.5,223.9z"/>
			<path id="XMLID_100_" class="st6" d="M213.3,222.1c-0.8,0-1.6-0.3-2.1-0.7l0.5-0.8c0.5,0.4,1.1,0.5,1.6,0.5c0.7,0,1-0.2,1-0.6
				c0-0.4-0.5-0.6-1.3-0.9c-1.2-0.5-1.6-0.9-1.6-1.7c0-1,0.8-1.5,1.9-1.5c0.7,0,1.4,0.3,1.9,0.6l-0.5,0.8c-0.5-0.3-0.9-0.5-1.5-0.5
				c-0.5,0-0.8,0.2-0.8,0.5c0,0.3,0.2,0.5,1,0.8c1.2,0.5,1.9,0.8,1.9,1.9C215.4,221.7,214.4,222.1,213.3,222.1"/>
			<path id="XMLID_99_" class="st6" d="M80.2,237.3c-1.1-1-2.1-2.4-2.1-4.3c0-2,1-3.4,2.1-4.4l0.6,0.5c-0.9,1-1.5,2.3-1.5,3.9
				c0,1.7,0.6,2.9,1.5,3.9L80.2,237.3z"/>
			<path id="XMLID_96_" class="st6" d="M85.6,231.6c-0.2-0.5-0.5-1.4-0.6-1.7c-0.1,0.3-0.4,1.2-0.5,1.7l-0.6,1.7h2.3L85.6,231.6z
				 M87.1,236.1l-0.6-1.8h-3l-0.6,1.8h-1.2l2.7-7.4h1.2l2.7,7.4H87.1z"/>
			<path id="XMLID_93_" class="st6" d="M93,232.2c-0.2-0.3-0.8-0.7-1.3-0.7c-0.8,0-1.2,0.6-1.2,1.8c0,1.4,0.4,2,1.3,2
				c0.5,0,1-0.3,1.3-0.7V232.2z M93,236.1v-0.5c-0.4,0.4-0.9,0.6-1.5,0.6c-1.2,0-2.2-0.9-2.2-3c0-1.9,1-2.8,2.2-2.8
				c0.6,0,1.1,0.3,1.4,0.6v-2.1l1.1-0.6v7.7H93z"/>
			<path id="XMLID_90_" class="st6" d="M97.9,231.5c-0.8,0-1.3,0.7-1.3,1.8c0,1.2,0.6,1.9,1.4,1.9c0.8,0,1.4-0.8,1.4-1.9
				C99.3,232.2,98.8,231.5,97.9,231.5 M97.9,236.2c-1.4,0-2.5-1.2-2.5-2.9c0-1.8,1.1-2.9,2.5-2.9c1.4,0,2.5,1.1,2.5,2.9
				C100.4,235.1,99.3,236.2,97.9,236.2"/>
			<path id="XMLID_87_" class="st6" d="M104.1,231.4c-0.5,0-1,0.3-1.3,0.7v2.3c0.2,0.3,0.8,0.7,1.3,0.7c0.8,0,1.2-0.6,1.2-1.8
				C105.4,232,104.9,231.4,104.1,231.4 M104.3,236.2c-0.6,0-1.1-0.3-1.4-0.6v2l-1.1,0.6v-7.6h1.1v0.5c0.4-0.4,0.9-0.6,1.5-0.6
				c1.2,0,2.2,0.9,2.2,3C106.5,235.3,105.4,236.2,104.3,236.2"/>
			<path id="XMLID_86_" class="st6" d="M110.5,236c-0.3,0.1-0.6,0.3-1.1,0.3c-0.8,0-1.3-0.5-1.3-1.5v-3.2h-0.8v-1h0.8V229l1.1-0.6
				v2.2h1.4v1h-1.4v3c0,0.5,0.2,0.7,0.6,0.7c0.3,0,0.6-0.1,0.8-0.2L110.5,236z"/>
			<path id="XMLID_83_" class="st6" d="M114.3,231.4c-0.7,0-1.2,0.5-1.3,1.4h2.6C115.5,232,115.2,231.4,114.3,231.4 M116.7,233.7
				H113c0.1,1.1,0.7,1.5,1.4,1.5c0.5,0,0.8-0.2,1.2-0.4l0.7,0.7c-0.5,0.5-1.1,0.7-1.9,0.7c-1.3,0-2.4-1-2.4-2.9c0-1.9,1-2.9,2.5-2.9
				c1.6,0,2.4,1.3,2.4,2.8C116.7,233.4,116.7,233.6,116.7,233.7"/>
			<path id="XMLID_80_" class="st6" d="M121.4,232.2c-0.2-0.3-0.8-0.7-1.3-0.7c-0.8,0-1.2,0.6-1.2,1.8c0,1.4,0.4,2,1.3,2
				c0.5,0,1-0.3,1.3-0.7V232.2z M121.4,236.1v-0.5c-0.4,0.4-0.9,0.6-1.5,0.6c-1.2,0-2.2-0.9-2.2-3c0-1.9,1-2.8,2.2-2.8
				c0.6,0,1.1,0.3,1.4,0.6v-2.1l1.1-0.6v7.7H121.4z"/>
			<path id="XMLID_79_" class="st6" d="M129,229.4c-0.4,0-0.5,0.1-0.5,0.5v0.6h1v1h-1v4.5h-1.1v-4.5h-0.7v-1h0.7v-0.7
				c0-1,0.6-1.4,1.4-1.4c0.3,0,0.6,0,0.8,0.1v1C129.4,229.4,129.2,229.4,129,229.4"/>
			<path id="XMLID_78_" class="st6" d="M133.9,231.7c-0.2-0.1-0.5-0.2-0.8-0.2c-0.7,0-1.1,0.5-1.1,1.4v3.2h-1.1v-5.6h1.1v0.5
				c0.3-0.4,0.7-0.6,1.3-0.6c0.4,0,0.7,0.1,0.9,0.2L133.9,231.7z"/>
			<path id="XMLID_75_" class="st6" d="M137.5,231.5c-0.8,0-1.3,0.7-1.3,1.8c0,1.2,0.6,1.9,1.4,1.9c0.8,0,1.4-0.8,1.4-1.9
				C139,232.2,138.4,231.5,137.5,231.5 M137.5,236.2c-1.4,0-2.5-1.2-2.5-2.9c0-1.8,1.1-2.9,2.5-2.9c1.4,0,2.5,1.1,2.5,2.9
				C140.1,235.1,139,236.2,137.5,236.2"/>
			<path id="XMLID_74_" class="st6" d="M147.9,236.1V233c0-1.1-0.4-1.5-1.1-1.5c-0.7,0-1.1,0.5-1.1,1.4v3.2h-1.1V233
				c0-1.1-0.4-1.5-1.1-1.5c-0.7,0-1.1,0.5-1.1,1.4v3.2h-1.1v-5.6h1.1v0.5c0.3-0.4,0.8-0.6,1.3-0.6c0.8,0,1.2,0.3,1.5,0.8
				c0.4-0.5,0.8-0.8,1.7-0.8c1.3,0,1.9,0.8,1.9,2.5v3.2H147.9z"/>
			<path id="XMLID_73_" class="st6" d="M155.5,236.2c-1.4,0-2.2-0.7-2.6-2l1.1-0.3c0.3,0.8,0.7,1.2,1.5,1.2c1.1,0,1.5-0.6,1.5-2
				v-4.4h1.1v4.5C158.2,235.2,157.3,236.2,155.5,236.2"/>
			<path id="XMLID_72_" class="st6" d="M160.5,236.2c-0.5,0-0.8-0.4-0.8-0.8c0-0.5,0.4-0.8,0.8-0.8c0.5,0,0.8,0.4,0.8,0.8
				C161.3,235.8,160.9,236.2,160.5,236.2"/>
			<polygon id="XMLID_71_" class="st6" points="166.8,229.8 166.8,231.7 168.9,231.7 168.9,232.8 166.8,232.8 166.8,236.1 
				165.7,236.1 165.7,228.7 170.5,228.7 170.5,229.8 			"/>
			<path id="XMLID_70_" class="st6" d="M174.7,231.7c-0.2-0.1-0.5-0.2-0.8-0.2c-0.7,0-1.1,0.5-1.1,1.4v3.2h-1.1v-5.6h1.1v0.5
				c0.3-0.4,0.7-0.6,1.3-0.6c0.4,0,0.7,0.1,0.9,0.2L174.7,231.7z"/>
			<path id="XMLID_67_" class="st6" d="M178.3,231.4c-0.7,0-1.2,0.5-1.3,1.4h2.6C179.5,232,179.2,231.4,178.3,231.4 M180.7,233.7
				H177c0.1,1.1,0.7,1.5,1.4,1.5c0.5,0,0.8-0.2,1.2-0.4l0.6,0.7c-0.5,0.5-1.1,0.7-1.9,0.7c-1.3,0-2.4-1-2.4-2.9c0-1.9,1-2.9,2.5-2.9
				c1.6,0,2.4,1.3,2.4,2.8C180.7,233.4,180.7,233.6,180.7,233.7"/>
			<path id="XMLID_66_" class="st6" d="M185.5,236.1V233c0-1.1-0.4-1.5-1.2-1.5c-0.7,0-1.2,0.5-1.2,1.4v3.2h-1.1v-5.6h1.1v0.5
				c0.3-0.4,0.8-0.6,1.4-0.6c1.3,0,2,0.8,2,2.5v3.2H185.5z"/>
			<path id="XMLID_65_" class="st6" d="M191.7,232.1c-0.5-0.5-0.9-0.7-1.4-0.7c-0.8,0-1.3,0.7-1.3,1.8c0,1.1,0.5,1.9,1.3,1.9
				c0.5,0,0.8-0.2,1.3-0.7l0.7,0.7c-0.4,0.6-1,1-2,1c-1.4,0-2.4-1.1-2.4-2.9c0-1.8,1.1-2.9,2.5-2.9c0.8,0,1.5,0.3,2,0.9L191.7,232.1
				z"/>
			<path id="XMLID_64_" class="st6" d="M197.1,236.1V233c0-1.1-0.4-1.5-1.2-1.5c-0.7,0-1.2,0.5-1.2,1.4v3.2h-1.1V229l1.1-0.6v2.7
				c0.3-0.4,0.8-0.6,1.4-0.6c1.3,0,2,0.8,2,2.5v3.2H197.1z"/>
			<path id="XMLID_61_" class="st6" d="M205.9,233.7c-0.3-0.1-0.7-0.2-1.3-0.2c-0.7,0-1.2,0.3-1.2,0.8c0,0.6,0.4,0.9,1.1,0.9
				c0.6,0,1.1-0.4,1.4-0.7V233.7z M205.9,236.1v-0.6c-0.4,0.4-0.9,0.7-1.5,0.7c-0.9,0-1.9-0.5-1.9-1.9c0-1.2,1-1.8,2.2-1.8
				c0.5,0,0.9,0.1,1.2,0.2v-0.4c0-0.6-0.4-0.9-1.1-0.9c-0.6,0-1,0.1-1.5,0.3l-0.4-0.8c0.5-0.3,1.1-0.5,1.9-0.5
				c1.2,0,2.1,0.6,2.1,1.9v3.8H205.9z"/>
			<path id="XMLID_60_" class="st6" d="M211.9,236.1V233c0-1.1-0.4-1.5-1.2-1.5c-0.7,0-1.2,0.5-1.2,1.4v3.2h-1.1v-5.6h1.1v0.5
				c0.3-0.4,0.8-0.6,1.4-0.6c1.3,0,2,0.8,2,2.5v3.2H211.9z"/>
			<path id="XMLID_57_" class="st6" d="M218,232.2c-0.2-0.3-0.8-0.7-1.3-0.7c-0.8,0-1.2,0.6-1.2,1.8c0,1.4,0.4,2,1.3,2
				c0.5,0,1-0.3,1.3-0.7V232.2z M218,236.1v-0.5c-0.4,0.4-0.9,0.6-1.5,0.6c-1.2,0-2.2-0.9-2.2-3c0-1.9,1-2.8,2.2-2.8
				c0.6,0,1.1,0.3,1.4,0.6v-2.1l1.1-0.6v7.7H218z"/>
			<path id="XMLID_56_" class="st6" d="M226.5,236.2c-1.9,0-3.2-1.6-3.2-3.8c0-2.2,1.2-3.8,3.2-3.8c1.2,0,2,0.5,2.5,1.4l-1,0.6
				c-0.4-0.6-0.8-0.9-1.5-0.9c-1.3,0-2,1-2,2.7c0,1.7,0.7,2.7,2,2.7c0.8,0,1.3-0.3,1.6-0.9l0.9,0.6
				C228.6,235.7,227.7,236.2,226.5,236.2"/>
			<path id="XMLID_53_" class="st6" d="M236.9,231.6c-0.2-0.5-0.5-1.4-0.6-1.7c-0.1,0.3-0.4,1.2-0.5,1.7l-0.6,1.7h2.3L236.9,231.6z
				 M238.5,236.1l-0.6-1.8h-3l-0.6,1.8h-1.2l2.7-7.4h1.2l2.7,7.4H238.5z"/>
			<path id="XMLID_52_" class="st6" d="M244.1,231.7c-0.2-0.1-0.5-0.2-0.8-0.2c-0.7,0-1.1,0.5-1.1,1.4v3.2H241v-5.6h1.1v0.5
				c0.3-0.4,0.7-0.6,1.3-0.6c0.4,0,0.7,0.1,1,0.2L244.1,231.7z"/>
			<path id="XMLID_51_" class="st6" d="M248.5,231.7c-0.2-0.1-0.5-0.2-0.8-0.2c-0.7,0-1.1,0.5-1.1,1.4v3.2h-1.1v-5.6h1.1v0.5
				c0.3-0.4,0.7-0.6,1.3-0.6c0.4,0,0.7,0.1,0.9,0.2L248.5,231.7z"/>
			<path id="XMLID_48_" class="st6" d="M250,230.5h1.1v5.6H250V230.5z M250.5,229.8c-0.4,0-0.7-0.3-0.7-0.7c0-0.4,0.3-0.7,0.7-0.7
				c0.4,0,0.7,0.3,0.7,0.7C251.2,229.5,250.9,229.8,250.5,229.8"/>
			<path id="XMLID_45_" class="st6" d="M256.1,232.2c-0.2-0.3-0.8-0.7-1.3-0.7c-0.8,0-1.2,0.6-1.2,1.8c0,1.4,0.4,2,1.3,2
				c0.5,0,1-0.3,1.3-0.7V232.2z M254.6,238.1l-0.4-0.8c1.6-0.1,1.9-0.5,1.9-1.7v-0.1c-0.4,0.4-0.9,0.6-1.5,0.6c-1.2,0-2.2-0.9-2.2-3
				c0-1.9,1.1-2.8,2.2-2.8c0.6,0,1.1,0.3,1.4,0.6v-0.5h1.1v5C257.2,237.3,256.6,238.1,254.6,238.1"/>
			<path id="XMLID_42_" class="st6" d="M261,231.5c-0.8,0-1.3,0.7-1.3,1.8c0,1.2,0.6,1.9,1.4,1.9c0.8,0,1.4-0.8,1.4-1.9
				C262.4,232.2,261.9,231.5,261,231.5 M261,236.2c-1.4,0-2.5-1.2-2.5-2.9c0-1.8,1.1-2.9,2.5-2.9c1.4,0,2.5,1.1,2.5,2.9
				C263.5,235.1,262.5,236.2,261,236.2"/>
			<path id="XMLID_41_" class="st6" d="M265.4,236.2c-0.5,0-0.8-0.4-0.8-0.8c0-0.5,0.4-0.8,0.8-0.8c0.5,0,0.8,0.4,0.8,0.8
				C266.3,235.8,265.9,236.2,265.4,236.2"/>
			<polygon id="XMLID_40_" class="st6" points="270.7,236.1 270.7,228.7 275.5,228.7 275.5,229.8 271.8,229.8 271.8,231.6 
				273.9,231.6 273.9,232.7 271.8,232.7 271.8,235 275.6,235 275.6,236.1 			"/>
			<path id="XMLID_37_" class="st6" d="M279.4,231.4c-0.5,0-1,0.3-1.3,0.7v2.3c0.2,0.3,0.8,0.7,1.3,0.7c0.8,0,1.2-0.6,1.2-1.8
				C280.7,232,280.2,231.4,279.4,231.4 M279.5,236.2c-0.6,0-1.1-0.3-1.4-0.6v2l-1.1,0.6v-7.6h1.1v0.5c0.4-0.4,0.9-0.6,1.5-0.6
				c1.2,0,2.2,0.9,2.2,3C281.8,235.3,280.7,236.2,279.5,236.2"/>
			<path id="XMLID_34_" class="st6" d="M283.2,230.5h1.1v5.6h-1.1V230.5z M283.7,229.8c-0.4,0-0.7-0.3-0.7-0.7
				c0-0.4,0.3-0.7,0.7-0.7c0.4,0,0.7,0.3,0.7,0.7C284.4,229.5,284.1,229.8,283.7,229.8"/>
			<polygon id="XMLID_33_" class="st6" points="286,236.1 286,229 287.1,228.4 287.1,236.1 			"/>
			<path id="XMLID_30_" class="st6" d="M290.9,231.4c-0.7,0-1.2,0.5-1.3,1.4h2.6C292.2,232,291.8,231.4,290.9,231.4 M293.3,233.7
				h-3.7c0.1,1.1,0.7,1.5,1.4,1.5c0.5,0,0.8-0.2,1.2-0.4l0.6,0.7c-0.5,0.5-1.1,0.7-1.9,0.7c-1.3,0-2.4-1-2.4-2.9
				c0-1.9,1-2.9,2.5-2.9c1.6,0,2.4,1.3,2.4,2.8C293.3,233.4,293.3,233.6,293.3,233.7"/>
			<path id="XMLID_27_" class="st6" d="M297,231.4c-0.5,0-1,0.3-1.3,0.7v2.3c0.2,0.3,0.8,0.7,1.3,0.7c0.8,0,1.2-0.6,1.2-1.8
				C298.3,232,297.8,231.4,297,231.4 M297.2,236.2c-0.6,0-1.1-0.3-1.4-0.6v2l-1.1,0.6v-7.6h1.1v0.5c0.4-0.4,0.9-0.6,1.5-0.6
				c1.2,0,2.2,0.9,2.2,3C299.4,235.3,298.3,236.2,297.2,236.2"/>
			<path id="XMLID_26_" class="st6" d="M302.6,236.2c-0.8,0-1.6-0.3-2.1-0.7l0.5-0.8c0.5,0.4,1.1,0.5,1.6,0.5c0.7,0,1-0.2,1-0.6
				c0-0.4-0.5-0.6-1.3-0.9c-1.2-0.5-1.6-0.9-1.6-1.7c0-1,0.8-1.5,1.9-1.5c0.7,0,1.4,0.3,1.9,0.6l-0.5,0.8c-0.5-0.3-0.9-0.5-1.5-0.5
				c-0.5,0-0.8,0.2-0.8,0.5c0,0.3,0.2,0.5,1,0.8c1.2,0.5,1.9,0.8,1.9,1.9C304.7,235.8,303.7,236.2,302.6,236.2"/>
			<path id="XMLID_23_" class="st6" d="M306.1,230.5h1.1v5.6h-1.1V230.5z M306.7,229.8c-0.4,0-0.7-0.3-0.7-0.7
				c0-0.4,0.3-0.7,0.7-0.7c0.4,0,0.7,0.3,0.7,0.7C307.4,229.5,307.1,229.8,306.7,229.8"/>
			<path id="XMLID_20_" class="st6" d="M312.1,233.7c-0.3-0.1-0.7-0.2-1.3-0.2c-0.7,0-1.2,0.3-1.2,0.8c0,0.6,0.4,0.9,1.1,0.9
				c0.6,0,1.1-0.4,1.4-0.7V233.7z M312.1,236.1v-0.6c-0.4,0.4-0.9,0.7-1.5,0.7c-0.9,0-1.9-0.5-1.9-1.9c0-1.2,1-1.8,2.2-1.8
				c0.5,0,0.9,0.1,1.2,0.2v-0.4c0-0.6-0.4-0.9-1.1-0.9c-0.6,0-1,0.1-1.5,0.3l-0.4-0.8c0.5-0.3,1.1-0.5,1.9-0.5
				c1.2,0,2.1,0.6,2.1,1.9v3.8H312.1z"/>
			<path id="XMLID_19_" class="st6" d="M317.3,236.1c0.1-2.2,1.4-3.1,2.9-4c1-0.6,1.3-0.9,1.3-1.4c0-0.6-0.4-1-1.4-1
				c-0.6,0-1.3,0.3-1.8,0.7l-0.7-0.8c0.7-0.6,1.6-1,2.5-1c1.5,0,2.5,0.7,2.5,2c0,1.1-0.6,1.6-1.9,2.4c-1.4,0.8-1.8,1.3-2,2h4v1.1
				H317.3z"/>
			<path id="XMLID_16_" class="st6" d="M327.1,229.7c-1.3,0-1.8,1.2-1.8,2.7c0,1.6,0.5,2.8,1.8,2.8c1.3,0,1.8-1.2,1.8-2.7
				C328.9,230.9,328.4,229.7,327.1,229.7 M327.1,236.2c-1.9,0-2.9-1.6-2.9-3.8c0-2.2,1-3.8,3-3.8c1.9,0,2.9,1.6,2.9,3.8
				C330.1,234.6,329,236.2,327.1,236.2"/>
			<path id="XMLID_13_" class="st6" d="M334.2,229.7c-1.3,0-1.8,1.2-1.8,2.7c0,1.6,0.5,2.8,1.8,2.8c1.3,0,1.8-1.2,1.8-2.7
				C336,230.9,335.5,229.7,334.2,229.7 M334.2,236.2c-1.9,0-2.9-1.6-2.9-3.8c0-2.2,1-3.8,3-3.8c1.9,0,2.9,1.6,2.9,3.8
				C337.1,234.6,336.1,236.2,334.2,236.2"/>
			<path id="XMLID_12_" class="st6" d="M340.7,236.2c-1.1,0-2.2-0.5-2.7-1.2l0.9-0.7c0.5,0.6,1.2,0.8,1.8,0.8c1.2,0,1.6-0.5,1.6-1.2
				c0-0.8-0.6-1.1-1.4-1.1h-0.7v-1.1h0.7c0.7,0,1.1-0.5,1.1-1c0-0.4-0.3-1-1.4-1c-0.6,0-1.1,0.3-1.5,0.7l-0.8-0.8
				c0.6-0.6,1.4-1,2.3-1c1.4,0,2.5,0.7,2.5,2c0,0.9-0.4,1.3-0.9,1.6c0.7,0.2,1.2,0.8,1.2,1.7C343.5,235.4,342.4,236.2,340.7,236.2"
				/>
			<path id="XMLID_11_" class="st6" d="M345.3,237.3l-0.6-0.5c0.9-1,1.5-2.3,1.5-3.9c0-1.7-0.6-2.9-1.5-3.9l0.6-0.5
				c1.1,1,2.1,2.4,2.1,4.3C347.4,234.8,346.4,236.2,345.3,237.3"/>
		</g>
		<linearGradient id="XMLID_393_" gradientUnits="userSpaceOnUse" x1="119.1419" y1="126.0854" x2="140.4587" y2="126.0854">
			<stop  offset="0" style="stop-color:#4B257A"/>
			<stop  offset="1" style="stop-color:#954C8D"/>
		</linearGradient>
		<rect id="XMLID_9_" x="119.1" y="56.9" class="st8" width="21.3" height="138.4"/>
		<linearGradient id="XMLID_394_" gradientUnits="userSpaceOnUse" x1="205.8703" y1="119.1879" x2="227.186" y2="119.1879">
			<stop  offset="0" style="stop-color:#4B257A"/>
			<stop  offset="1" style="stop-color:#954C8D"/>
		</linearGradient>
		<rect id="XMLID_8_" x="205.9" y="43.4" class="st9" width="21.3" height="151.7"/>
		<linearGradient id="XMLID_395_" gradientUnits="userSpaceOnUse" x1="289.5659" y1="121.091" x2="310.8827" y2="121.091">
			<stop  offset="0" style="stop-color:#4B257A"/>
			<stop  offset="1" style="stop-color:#954C8D"/>
		</linearGradient>
		<rect id="XMLID_7_" x="289.6" y="45.5" class="st10" width="21.3" height="151.2"/>
		<rect id="XMLID_6_" x="146.7" y="160.9" class="st11" width="21.3" height="34.3"/>
		<rect id="XMLID_5_" x="233" y="148.2" class="st11" width="21.3" height="47.1"/>
		<rect id="XMLID_4_" x="316.5" y="154.9" class="st11" width="21.3" height="40.3"/>
		<rect id="XMLID_3_" x="0.7" y="0.7" class="st12" width="386" height="240.7"/>
	</g>
</g>
</svg>
