<!-- Generator: Adobe Illustrator 22.1.0, SVG Export Plug-In  -->
<svg version="1.1"
	 xmlns="http://www.w3.org/2000/svg" xmlns:xlink="http://www.w3.org/1999/xlink" xmlns:a="http://ns.adobe.com/AdobeSVGViewerExtensions/3.0/"
	 x="0px" y="0px" width="541.9px" height="22.2px" viewBox="0 0 541.9 22.2" style="enable-background:new 0 0 541.9 22.2;"
	 xml:space="preserve">
<style type="text/css">
	.st0{fill:#522D6D;}
	.st1{fill:#236092;}
</style>
<defs>
</defs>
<g id="XMLID_4_">
	<g id="XMLID_6_">
		<path id="XMLID_86_" class="st0" d="M60.5,12.7h-7.2v4.7h8.1V21H48.9V1.4H61V5h-7.7v4.1h7.2V12.7z"/>
		<path id="XMLID_84_" class="st0" d="M67.6,6.8L69,9.1c0.4,0.7,0.8,1.5,1.2,2.1h0.1c0.4-0.8,0.7-1.5,1.1-2.2l1.3-2.3h4.8l-4.7,6.8
			l4.7,7.4h-5L71,18.4c-0.4-0.7-0.8-1.4-1.1-2.2h-0.1c-0.3,0.8-0.7,1.5-1.1,2.2L67.4,21h-4.9l4.8-7.2l-4.7-7H67.6z"/>
		<path id="XMLID_82_" class="st0" d="M89.4,20.6c-0.8,0.3-2.3,0.6-4,0.6c-4.6,0-7.5-2.8-7.5-7.3c0-4.2,2.9-7.6,8.1-7.6
			c1.2,0,2.4,0.2,3.4,0.6l-0.7,3.3c-0.5-0.2-1.3-0.4-2.5-0.4c-2.3,0-3.8,1.7-3.8,4c0,2.6,1.7,4,3.9,4c1,0,1.9-0.2,2.5-0.4L89.4,20.6
			z"/>
		<path id="XMLID_79_" class="st0" d="M94.9,15.3c0.1,1.8,1.9,2.7,4,2.7c1.5,0,2.7-0.2,3.9-0.6l0.6,3c-1.5,0.6-3.2,0.9-5.2,0.9
			c-4.8,0-7.6-2.8-7.6-7.2c0-3.6,2.2-7.6,7.2-7.6c4.6,0,6.3,3.6,6.3,7.1c0,0.8-0.1,1.4-0.1,1.7H94.9z M100.1,12.3
			c0-1.1-0.5-2.9-2.5-2.9c-1.9,0-2.6,1.7-2.7,2.9H100.1z"/>
		<path id="XMLID_77_" class="st0" d="M106.9,0.3h4.4V21h-4.4V0.3z"/>
		<path id="XMLID_75_" class="st0" d="M114.9,0.3h4.4V21h-4.4V0.3z"/>
		<path id="XMLID_72_" class="st0" d="M126.3,15.3c0.1,1.8,1.9,2.7,4,2.7c1.5,0,2.7-0.2,3.9-0.6l0.6,3c-1.5,0.6-3.2,0.9-5.2,0.9
			c-4.8,0-7.6-2.8-7.6-7.2c0-3.6,2.2-7.6,7.2-7.6c4.6,0,6.3,3.6,6.3,7.1c0,0.8-0.1,1.4-0.1,1.7H126.3z M131.5,12.3
			c0-1.1-0.5-2.9-2.5-2.9c-1.9,0-2.6,1.7-2.7,2.9H131.5z"/>
		<path id="XMLID_70_" class="st0" d="M138.3,11.3c0-1.8-0.1-3.3-0.1-4.5h3.8l0.2,2h0.1c0.6-0.9,2-2.3,4.4-2.3
			c2.9,0,5.1,1.9,5.1,6.1V21h-4.4v-7.9c0-1.8-0.6-3.1-2.2-3.1c-1.2,0-1.9,0.8-2.2,1.7c-0.1,0.3-0.2,0.7-0.2,1.1V21h-4.4V11.3z"/>
		<path id="XMLID_68_" class="st0" d="M160.1,2.7v4.1h3.2V10h-3.2v5.2c0,1.7,0.4,2.5,1.7,2.5c0.6,0,1-0.1,1.3-0.1l0,3.3
			c-0.6,0.2-1.6,0.4-2.9,0.4c-1.4,0-2.6-0.5-3.3-1.2c-0.8-0.8-1.2-2.2-1.2-4.2V10h-1.9V6.8h1.9V3.7L160.1,2.7z"/>
		<path id="XMLID_66_" class="st0" d="M186.3,20.4c-0.8,0.4-2.6,0.8-5,0.8c-6.8,0-10.3-4.2-10.3-9.8C171,4.8,175.7,1,181.7,1
			c2.3,0,4,0.5,4.8,0.9l-0.9,3.5c-0.9-0.4-2.2-0.7-3.7-0.7c-3.5,0-6.3,2.1-6.3,6.5c0,3.9,2.3,6.4,6.3,6.4c1.3,0,2.8-0.3,3.7-0.6
			L186.3,20.4z"/>
		<path id="XMLID_64_" class="st0" d="M189,0.3h4.4v8.1h0.1c0.5-0.6,1-1.1,1.7-1.5c0.6-0.3,1.5-0.6,2.3-0.6c2.8,0,5,1.9,5,6.2V21
			H198v-7.8c0-1.9-0.6-3.1-2.3-3.1c-1.2,0-1.9,0.8-2.2,1.5c-0.1,0.3-0.1,0.7-0.1,1V21H189V0.3z"/>
		<path id="XMLID_61_" class="st0" d="M220.1,13.7c0,5.2-3.7,7.6-7.5,7.6c-4.2,0-7.4-2.7-7.4-7.3s3-7.5,7.6-7.5
			C217.2,6.4,220.1,9.4,220.1,13.7z M209.8,13.9c0,2.4,1,4.3,2.9,4.3c1.7,0,2.8-1.7,2.8-4.3c0-2.1-0.8-4.3-2.8-4.3
			C210.5,9.6,209.8,11.8,209.8,13.9z"/>
		<path id="XMLID_58_" class="st0" d="M227.4,2.8c0,1.2-0.9,2.2-2.4,2.2c-1.4,0-2.3-1-2.3-2.2c0-1.3,0.9-2.2,2.3-2.2
			S227.3,1.5,227.4,2.8z M222.8,21V6.8h4.4V21H222.8z"/>
		<path id="XMLID_56_" class="st0" d="M241.5,20.6c-0.8,0.3-2.3,0.6-4,0.6c-4.6,0-7.5-2.8-7.5-7.3c0-4.2,2.9-7.6,8.1-7.6
			c1.2,0,2.4,0.2,3.4,0.6l-0.7,3.3c-0.5-0.2-1.3-0.4-2.5-0.4c-2.3,0-3.8,1.7-3.8,4c0,2.6,1.7,4,3.9,4c1,0,1.9-0.2,2.5-0.4
			L241.5,20.6z"/>
		<path id="XMLID_53_" class="st0" d="M247,15.3c0.1,1.8,1.9,2.7,4,2.7c1.5,0,2.7-0.2,3.9-0.6l0.6,3c-1.5,0.6-3.2,0.9-5.2,0.9
			c-4.8,0-7.6-2.8-7.6-7.2c0-3.6,2.2-7.6,7.2-7.6c4.6,0,6.3,3.6,6.3,7.1c0,0.8-0.1,1.4-0.1,1.7H247z M252.2,12.3
			c0-1.1-0.5-2.9-2.5-2.9c-1.9,0-2.6,1.7-2.7,2.9H252.2z"/>
		<path id="XMLID_51_" class="st0" d="M265.3,21V10h-1.9V6.8h1.9V6.2c0-1.7,0.5-3.6,1.8-4.8c1.1-1,2.6-1.4,3.9-1.4
			c1,0,1.7,0.1,2.4,0.3l-0.2,3.4c-0.4-0.1-0.8-0.2-1.4-0.2c-1.5,0-2.1,1.1-2.1,2.5v0.7h2.9V10h-2.8v11H265.3z"/>
		<path id="XMLID_48_" class="st0" d="M288.5,13.7c0,5.2-3.7,7.6-7.5,7.6c-4.2,0-7.4-2.7-7.4-7.3s3-7.5,7.6-7.5
			C285.6,6.4,288.5,9.4,288.5,13.7z M278.2,13.9c0,2.4,1,4.3,2.9,4.3c1.7,0,2.8-1.7,2.8-4.3c0-2.1-0.8-4.3-2.8-4.3
			C279,9.6,278.2,11.8,278.2,13.9z"/>
		<path id="XMLID_46_" class="st0" d="M291.3,11.4c0-2.1-0.1-3.5-0.1-4.7h3.8l0.1,2.6h0.1c0.7-2.1,2.5-2.9,3.8-2.9
			c0.4,0,0.6,0,0.9,0.1v4.2c-0.3-0.1-0.7-0.1-1.2-0.1c-1.6,0-2.7,0.9-3,2.2c-0.1,0.3-0.1,0.6-0.1,1V21h-4.4V11.4z"/>
		<path id="XMLID_43_" class="st0" d="M308.3,1.6c1.4-0.2,3.3-0.4,6-0.4c2.7,0,4.7,0.5,6,1.6c1.3,1,2.1,2.6,2.1,4.5
			c0,1.9-0.6,3.5-1.8,4.7c-1.5,1.4-3.8,2.1-6.4,2.1c-0.6,0-1.1,0-1.5-0.1v7h-4.4V1.6z M312.7,10.5c0.4,0.1,0.8,0.1,1.5,0.1
			c2.4,0,3.8-1.2,3.8-3.2c0-1.8-1.3-2.9-3.5-2.9c-0.9,0-1.5,0.1-1.8,0.2V10.5z"/>
		<path id="XMLID_40_" class="st0" d="M332.7,21l-0.3-1.4h-0.1c-0.9,1.1-2.4,1.7-4.1,1.7c-2.9,0-4.6-2.1-4.6-4.4
			c0-3.7,3.3-5.5,8.4-5.4v-0.2c0-0.8-0.4-1.8-2.6-1.8c-1.5,0-3,0.5-3.9,1.1l-0.8-2.9c1-0.6,2.9-1.3,5.5-1.3c4.7,0,6.3,2.8,6.3,6.1
			v4.9c0,1.4,0.1,2.7,0.2,3.5H332.7z M332.1,14.3c-2.3,0-4.1,0.5-4.1,2.2c0,1.1,0.8,1.7,1.7,1.7c1.1,0,2-0.7,2.3-1.6
			c0.1-0.2,0.1-0.5,0.1-0.8V14.3z"/>
		<path id="XMLID_38_" class="st0" d="M344.7,2.7v4.1h3.2V10h-3.2v5.2c0,1.7,0.4,2.5,1.7,2.5c0.6,0,1-0.1,1.3-0.1l0,3.3
			c-0.6,0.2-1.6,0.4-2.9,0.4c-1.4,0-2.6-0.5-3.3-1.2c-0.8-0.8-1.2-2.2-1.2-4.2V10h-1.9V6.8h1.9V3.7L344.7,2.7z"/>
		<path id="XMLID_35_" class="st0" d="M355,2.8C355,4,354,5,352.6,5c-1.4,0-2.3-1-2.3-2.2c0-1.3,0.9-2.2,2.3-2.2S354.9,1.5,355,2.8z
			 M350.4,21V6.8h4.4V21H350.4z"/>
		<path id="XMLID_32_" class="st0" d="M361.8,15.3c0.1,1.8,1.9,2.7,4,2.7c1.5,0,2.7-0.2,3.9-0.6l0.6,3c-1.5,0.6-3.2,0.9-5.2,0.9
			c-4.8,0-7.6-2.8-7.6-7.2c0-3.6,2.2-7.6,7.2-7.6c4.6,0,6.3,3.6,6.3,7.1c0,0.8-0.1,1.4-0.1,1.7H361.8z M367,12.3
			c0-1.1-0.5-2.9-2.5-2.9c-1.9,0-2.6,1.7-2.7,2.9H367z"/>
		<path id="XMLID_30_" class="st0" d="M373.7,11.3c0-1.8-0.1-3.3-0.1-4.5h3.8l0.2,2h0.1c0.6-0.9,2-2.3,4.4-2.3
			c2.9,0,5.1,1.9,5.1,6.1V21h-4.4v-7.9c0-1.8-0.6-3.1-2.2-3.1c-1.2,0-1.9,0.8-2.2,1.7c-0.1,0.3-0.2,0.7-0.2,1.1V21h-4.4V11.3z"/>
		<path id="XMLID_28_" class="st0" d="M395.6,2.7v4.1h3.2V10h-3.2v5.2c0,1.7,0.4,2.5,1.7,2.5c0.6,0,1-0.1,1.3-0.1l0,3.3
			c-0.6,0.2-1.6,0.4-2.9,0.4c-1.4,0-2.6-0.5-3.3-1.2c-0.8-0.8-1.2-2.2-1.2-4.2V10h-1.9V6.8h1.9V3.7L395.6,2.7z"/>
		<path id="XMLID_26_" class="st0" d="M401.3,17.1c0.8,0.5,2.5,1.1,3.8,1.1c1.3,0,1.9-0.5,1.9-1.2s-0.4-1.1-2.1-1.6
			c-2.9-1-4.1-2.6-4-4.3c0-2.6,2.3-4.7,5.8-4.7c1.7,0,3.1,0.4,4,0.8l-0.8,3.1c-0.6-0.3-1.9-0.8-3.1-0.8c-1.1,0-1.7,0.4-1.7,1.2
			c0,0.7,0.6,1,2.3,1.6c2.7,0.9,3.8,2.3,3.9,4.4c0,2.6-2.1,4.6-6.2,4.6c-1.9,0-3.5-0.4-4.6-1L401.3,17.1z"/>
		<path id="XMLID_24_" class="st0" d="M422.9,6.8l1.1,5.8c0.3,1.5,0.6,3.1,0.8,4.7h0.1c0.3-1.6,0.7-3.3,1-4.7l1.5-5.8h3.5l1.4,5.7
			c0.4,1.6,0.8,3.2,1,4.8h0.1c0.2-1.6,0.5-3.2,0.8-4.9l1.2-5.6h4.3L435.5,21h-4.2l-1.3-5c-0.3-1.4-0.6-2.7-0.9-4.4H429
			c-0.3,1.8-0.6,3.1-0.9,4.4l-1.4,5h-4.2l-4.1-14.2H422.9z"/>
		<path id="XMLID_21_" class="st0" d="M446.5,2.8c0,1.2-0.9,2.2-2.4,2.2c-1.4,0-2.3-1-2.3-2.2c0-1.3,0.9-2.2,2.3-2.2
			S446.4,1.5,446.5,2.8z M441.9,21V6.8h4.4V21H441.9z"/>
		<path id="XMLID_19_" class="st0" d="M454.8,2.7v4.1h3.2V10h-3.2v5.2c0,1.7,0.4,2.5,1.7,2.5c0.6,0,1-0.1,1.3-0.1l0,3.3
			c-0.6,0.2-1.6,0.4-2.9,0.4c-1.4,0-2.6-0.5-3.3-1.2c-0.8-0.8-1.2-2.2-1.2-4.2V10h-1.9V6.8h1.9V3.7L454.8,2.7z"/>
		<path id="XMLID_17_" class="st0" d="M460.6,0.3h4.4v8.1h0.1c0.5-0.6,1-1.1,1.7-1.5c0.6-0.3,1.5-0.6,2.3-0.6c2.8,0,5,1.9,5,6.2V21
			h-4.4v-7.8c0-1.9-0.6-3.1-2.3-3.1c-1.2,0-1.9,0.8-2.2,1.5c-0.1,0.3-0.1,0.7-0.1,1V21h-4.4V0.3z"/>
		<path id="XMLID_14_" class="st0" d="M483.6,1.6c1.4-0.2,3.3-0.4,6-0.4c2.7,0,4.7,0.5,6,1.6c1.3,1,2.1,2.6,2.1,4.5
			c0,1.9-0.6,3.5-1.8,4.7c-1.5,1.4-3.8,2.1-6.4,2.1c-0.6,0-1.1,0-1.5-0.1v7h-4.4V1.6z M488,10.5c0.4,0.1,0.8,0.1,1.5,0.1
			c2.4,0,3.8-1.2,3.8-3.2c0-1.8-1.3-2.9-3.5-2.9c-0.9,0-1.5,0.1-1.8,0.2V10.5z"/>
		<path id="XMLID_11_" class="st0" d="M518.5,11c0,6.4-3.9,10.3-9.6,10.3c-5.8,0-9.2-4.4-9.2-10c0-5.9,3.8-10.3,9.5-10.3
			C515.2,1,518.5,5.6,518.5,11z M504.3,11.2c0,3.8,1.8,6.5,4.8,6.5c3,0,4.7-2.9,4.7-6.7c0-3.5-1.7-6.5-4.7-6.5
			C506.1,4.6,504.3,7.4,504.3,11.2z"/>
		<path id="XMLID_9_" class="st0" d="M521.6,16.4c1.2,0.6,3,1.2,4.9,1.2c2,0,3.1-0.8,3.1-2.1c0-1.2-0.9-1.9-3.3-2.8
			c-3.3-1.1-5.4-2.9-5.4-5.8c0-3.3,2.8-5.9,7.4-5.9c2.2,0,3.8,0.5,5,1l-1,3.6c-0.8-0.4-2.2-0.9-4.1-0.9s-2.9,0.9-2.9,1.9
			c0,1.3,1.1,1.8,3.6,2.8c3.5,1.3,5.1,3.1,5.1,5.8c0,3.3-2.5,6.1-7.9,6.1c-2.2,0-4.5-0.6-5.6-1.2L521.6,16.4z"/>
		<path id="XMLID_7_" class="st0" d="M536.7,18.6c0-1.6,1.1-2.7,2.6-2.7c1.5,0,2.6,1.1,2.6,2.7c0,1.5-1,2.7-2.6,2.7
			C537.8,21.3,536.7,20.2,536.7,18.6z"/>
	</g>
</g>
<g id="XMLID_1_">
	<path id="XMLID_3_" class="st0" d="M3.8,15c0,0,3.5-7.6,16.7-7.6C33.7,7.3,41,2.7,41,2.7s-9.4,9.7-18.6,9.7
		C13.2,12.4,7.6,12.4,3.8,15"/>
	<path id="XMLID_2_" class="st1" d="M0,22.2c0,0,3.5-7.6,16.7-7.6c13.2,0,20.5-4.6,20.5-4.6s-9.4,9.7-18.6,9.7
		C9.4,19.6,3.8,19.6,0,22.2"/>
</g>
</svg>
