<!-- Generator: Adobe Illustrator 22.1.0, SVG Export Plug-In  -->
<svg version="1.1"
	 xmlns="http://www.w3.org/2000/svg" xmlns:xlink="http://www.w3.org/1999/xlink" xmlns:a="http://ns.adobe.com/AdobeSVGViewerExtensions/3.0/"
	 x="0px" y="0px" width="840.8px" height="28.3px" viewBox="0 0 840.8 28.3" style="enable-background:new 0 0 840.8 28.3;"
	 xml:space="preserve">
<style type="text/css">
	.st0{fill:#522D6D;}
	.st1{fill:#236092;}
</style>
<defs>
</defs>
<g id="XMLID_4_">
	<path id="XMLID_133_" class="st0" d="M50.7,2.9c1.6-0.3,3.8-0.4,6-0.4c3.7,0,6.1,0.7,8,2.1c2,1.5,3.3,3.9,3.3,7.4
		c0,3.8-1.4,6.3-3.3,7.9c-2.1,1.7-5.2,2.5-9,2.5c-2.3,0-3.9-0.1-5-0.3V2.9z M55.2,18.9c0.4,0.1,1,0.1,1.5,0.1c4,0,6.6-2.2,6.6-6.9
		c0-4.1-2.4-6.2-6.2-6.2c-1,0-1.6,0.1-2,0.2V18.9z"/>
	<path id="XMLID_130_" class="st0" d="M75.5,4c0,1.2-0.9,2.2-2.4,2.2c-1.4,0-2.3-1-2.3-2.2c0-1.3,0.9-2.2,2.3-2.2S75.5,2.8,75.5,4z
		 M71,22.2V8h4.4v14.2H71z"/>
	<path id="XMLID_128_" class="st0" d="M78.9,18.4c0.8,0.5,2.5,1.1,3.8,1.1c1.3,0,1.9-0.5,1.9-1.2s-0.4-1.1-2.1-1.6
		c-2.9-1-4.1-2.6-4-4.3c0-2.6,2.3-4.7,5.8-4.7c1.7,0,3.1,0.4,4,0.8l-0.8,3.1c-0.6-0.3-1.9-0.8-3.1-0.8c-1.1,0-1.7,0.4-1.7,1.2
		c0,0.7,0.6,1,2.3,1.6c2.7,0.9,3.8,2.3,3.9,4.4c0,2.6-2.1,4.6-6.2,4.6c-1.9,0-3.5-0.4-4.6-1L78.9,18.4z"/>
	<path id="XMLID_126_" class="st0" d="M96.5,3.9V8h3.2v3.3h-3.2v5.2c0,1.7,0.4,2.5,1.7,2.5c0.6,0,1-0.1,1.3-0.1l0,3.3
		c-0.6,0.2-1.6,0.4-2.9,0.4c-1.4,0-2.6-0.5-3.3-1.2c-0.8-0.8-1.2-2.2-1.2-4.2v-5.8h-1.9V8h1.9V4.9L96.5,3.9z"/>
	<path id="XMLID_123_" class="st0" d="M106.8,4c0,1.2-0.9,2.2-2.4,2.2c-1.4,0-2.3-1-2.3-2.2c0-1.3,0.9-2.2,2.3-2.2
		S106.8,2.8,106.8,4z M102.3,22.2V8h4.4v14.2H102.3z"/>
	<path id="XMLID_121_" class="st0" d="M110.2,12.5c0-1.8-0.1-3.3-0.1-4.5h3.8l0.2,2h0.1c0.6-0.9,2-2.3,4.4-2.3
		c2.9,0,5.1,1.9,5.1,6.1v8.4h-4.4v-7.9c0-1.8-0.6-3.1-2.2-3.1c-1.2,0-1.9,0.8-2.2,1.7c-0.1,0.3-0.2,0.7-0.2,1.1v8.2h-4.4V12.5z"/>
	<path id="XMLID_119_" class="st0" d="M138,21.9c-0.8,0.3-2.3,0.6-4,0.6c-4.6,0-7.5-2.8-7.5-7.3c0-4.2,2.9-7.6,8.1-7.6
		c1.2,0,2.4,0.2,3.4,0.6l-0.7,3.3c-0.5-0.2-1.3-0.4-2.5-0.4c-2.3,0-3.8,1.7-3.8,4c0,2.6,1.7,4,3.9,4c1,0,1.9-0.2,2.5-0.4L138,21.9z"
		/>
	<path id="XMLID_117_" class="st0" d="M145.8,3.9V8h3.2v3.3h-3.2v5.2c0,1.7,0.4,2.5,1.7,2.5c0.6,0,1-0.1,1.3-0.1l0,3.3
		c-0.6,0.2-1.6,0.4-2.9,0.4c-1.4,0-2.6-0.5-3.3-1.2c-0.8-0.8-1.2-2.2-1.2-4.2v-5.8h-1.9V8h1.9V4.9L145.8,3.9z"/>
	<path id="XMLID_114_" class="st0" d="M156.1,4c0,1.2-0.9,2.2-2.4,2.2c-1.4,0-2.3-1-2.3-2.2c0-1.3,0.9-2.2,2.3-2.2
		S156.1,2.8,156.1,4z M151.6,22.2V8h4.4v14.2H151.6z"/>
	<path id="XMLID_112_" class="st0" d="M162.8,8l1.9,6.6c0.3,1.2,0.6,2.3,0.8,3.5h0.1c0.2-1.2,0.5-2.2,0.8-3.5l1.8-6.6h4.7l-5.3,14.2
		h-4.4L158,8H162.8z"/>
	<path id="XMLID_109_" class="st0" d="M177.9,16.5c0.1,1.8,1.9,2.7,4,2.7c1.5,0,2.7-0.2,3.9-0.6l0.6,3c-1.5,0.6-3.2,0.9-5.2,0.9
		c-4.8,0-7.6-2.8-7.6-7.2c0-3.6,2.2-7.6,7.2-7.6c4.6,0,6.3,3.6,6.3,7.1c0,0.8-0.1,1.4-0.1,1.7H177.9z M183.1,13.5
		c0-1.1-0.5-2.9-2.5-2.9c-1.9,0-2.6,1.7-2.7,2.9H183.1z"/>
	<path id="XMLID_107_" class="st0" d="M212.5,14.7c-0.1-2.4-0.2-5.2-0.2-8.1h-0.1c-0.6,2.5-1.4,5.3-2.2,7.6l-2.4,7.7h-3.5l-2.1-7.6
		c-0.6-2.3-1.3-5.1-1.8-7.7h-0.1c-0.1,2.6-0.2,5.7-0.3,8.1l-0.3,7.4h-4.1l1.3-19.6h5.9l1.9,6.5c0.6,2.3,1.2,4.7,1.7,7h0.1
		c0.6-2.3,1.2-4.9,1.9-7l2.1-6.5h5.8l1.1,19.6h-4.3L212.5,14.7z"/>
	<path id="XMLID_104_" class="st0" d="M223.9,16.5c0.1,1.8,1.9,2.7,4,2.7c1.5,0,2.7-0.2,3.9-0.6l0.6,3c-1.5,0.6-3.2,0.9-5.2,0.9
		c-4.8,0-7.6-2.8-7.6-7.2c0-3.6,2.2-7.6,7.2-7.6c4.6,0,6.3,3.6,6.3,7.1c0,0.8-0.1,1.4-0.1,1.7H223.9z M229.1,13.5
		c0-1.1-0.5-2.9-2.5-2.9c-1.9,0-2.6,1.7-2.7,2.9H229.1z"/>
	<path id="XMLID_102_" class="st0" d="M246.5,21.9c-0.8,0.3-2.3,0.6-4,0.6c-4.6,0-7.5-2.8-7.5-7.3c0-4.2,2.9-7.6,8.1-7.6
		c1.2,0,2.4,0.2,3.4,0.6l-0.7,3.3c-0.5-0.2-1.3-0.4-2.5-0.4c-2.3,0-3.8,1.7-3.8,4c0,2.6,1.7,4,3.9,4c1,0,1.9-0.2,2.5-0.4L246.5,21.9
		z"/>
	<path id="XMLID_100_" class="st0" d="M249,1.6h4.4v8.1h0.1c0.5-0.6,1-1.1,1.7-1.5c0.6-0.3,1.5-0.6,2.3-0.6c2.8,0,5,1.9,5,6.2v8.3
		h-4.4v-7.8c0-1.9-0.6-3.1-2.3-3.1c-1.2,0-1.9,0.8-2.2,1.5c-0.1,0.3-0.1,0.7-0.1,1v8.4H249V1.6z"/>
	<path id="XMLID_97_" class="st0" d="M274.1,22.2l-0.3-1.4h-0.1c-0.9,1.1-2.4,1.7-4.1,1.7c-2.9,0-4.6-2.1-4.6-4.4
		c0-3.7,3.3-5.5,8.4-5.4v-0.2c0-0.8-0.4-1.8-2.6-1.8c-1.5,0-3,0.5-3.9,1.1l-0.8-2.9c1-0.6,2.9-1.3,5.5-1.3c4.7,0,6.3,2.8,6.3,6.1
		v4.9c0,1.4,0.1,2.7,0.2,3.5H274.1z M273.6,15.5c-2.3,0-4.1,0.5-4.1,2.2c0,1.1,0.8,1.7,1.7,1.7c1.1,0,2-0.7,2.3-1.6
		c0.1-0.2,0.1-0.5,0.1-0.8V15.5z"/>
	<path id="XMLID_95_" class="st0" d="M281.4,12.5c0-1.8-0.1-3.3-0.1-4.5h3.8l0.2,2h0.1c0.6-0.9,2-2.3,4.4-2.3c2.9,0,5.1,1.9,5.1,6.1
		v8.4h-4.4v-7.9c0-1.8-0.6-3.1-2.2-3.1c-1.2,0-1.9,0.8-2.2,1.7c-0.1,0.3-0.2,0.7-0.2,1.1v8.2h-4.4V12.5z"/>
	<path id="XMLID_92_" class="st0" d="M303,4c0,1.2-0.9,2.2-2.4,2.2c-1.4,0-2.3-1-2.3-2.2c0-1.3,0.9-2.2,2.3-2.2S303,2.8,303,4z
		 M298.5,22.2V8h4.4v14.2H298.5z"/>
	<path id="XMLID_90_" class="st0" d="M306.4,18.4c0.8,0.5,2.5,1.1,3.8,1.1c1.3,0,1.9-0.5,1.9-1.2s-0.4-1.1-2.1-1.6
		c-2.9-1-4.1-2.6-4-4.3c0-2.6,2.3-4.7,5.8-4.7c1.7,0,3.1,0.4,4,0.8l-0.8,3.1c-0.6-0.3-1.9-0.8-3.1-0.8c-1.1,0-1.7,0.4-1.7,1.2
		c0,0.7,0.6,1,2.3,1.6c2.7,0.9,3.8,2.3,3.9,4.4c0,2.6-2.1,4.6-6.2,4.6c-1.9,0-3.5-0.4-4.6-1L306.4,18.4z"/>
	<path id="XMLID_88_" class="st0" d="M319.1,12.5c0-1.8-0.1-3.3-0.1-4.5h3.7l0.2,1.9h0.1c0.6-0.9,1.9-2.2,4.3-2.2
		c1.8,0,3.3,0.9,3.9,2.4h0.1c0.5-0.7,1.2-1.3,1.8-1.7c0.8-0.5,1.7-0.7,2.7-0.7c2.7,0,4.8,1.9,4.8,6.2v8.4h-4.3v-7.7
		c0-2.1-0.7-3.3-2.1-3.3c-1,0-1.7,0.7-2,1.5c-0.1,0.3-0.2,0.8-0.2,1.1v8.3h-4.3v-8c0-1.8-0.6-3-2-3c-1.1,0-1.8,0.9-2.1,1.6
		c-0.1,0.3-0.2,0.8-0.2,1.1v8.3h-4.3V12.5z"/>
	<path id="XMLID_85_" class="st0" d="M364,15c0,5.2-3.7,7.6-7.5,7.6c-4.2,0-7.4-2.7-7.4-7.3s3-7.5,7.6-7.5
		C361.1,7.7,364,10.7,364,15z M353.7,15.1c0,2.4,1,4.3,2.9,4.3c1.7,0,2.8-1.7,2.8-4.3c0-2.1-0.8-4.3-2.8-4.3
		C354.5,10.8,353.7,13,353.7,15.1z"/>
	<path id="XMLID_83_" class="st0" d="M367.3,22.2v-11h-1.9V8h1.9V7.4c0-1.7,0.5-3.6,1.8-4.8c1.1-1,2.6-1.4,3.9-1.4
		c1,0,1.7,0.1,2.4,0.3l-0.2,3.4c-0.4-0.1-0.8-0.2-1.4-0.2c-1.5,0-2.1,1.1-2.1,2.5V8h2.9v3.3h-2.8v11H367.3z"/>
	<path id="XMLID_80_" class="st0" d="M387.3,17.2l-1.4,5h-4.6l6-19.6h5.8l6.1,19.6h-4.8l-1.5-5H387.3z M392.3,13.9L391,9.7
		c-0.3-1.2-0.7-2.6-1-3.8H390c-0.3,1.2-0.6,2.6-0.9,3.8l-1.2,4.2H392.3z"/>
	<path id="XMLID_78_" class="st0" d="M411.9,21.9c-0.8,0.3-2.3,0.6-4,0.6c-4.6,0-7.5-2.8-7.5-7.3c0-4.2,2.9-7.6,8.1-7.6
		c1.2,0,2.4,0.2,3.4,0.6l-0.7,3.3c-0.5-0.2-1.3-0.4-2.5-0.4c-2.3,0-3.8,1.7-3.8,4c0,2.6,1.7,4,3.9,4c1,0,1.9-0.2,2.5-0.4L411.9,21.9
		z"/>
	<path id="XMLID_76_" class="st0" d="M419.8,3.9V8h3.2v3.3h-3.2v5.2c0,1.7,0.4,2.5,1.7,2.5c0.6,0,1-0.1,1.3-0.1l0,3.3
		c-0.6,0.2-1.6,0.4-2.9,0.4c-1.4,0-2.6-0.5-3.3-1.2c-0.8-0.8-1.2-2.2-1.2-4.2v-5.8h-1.9V8h1.9V4.9L419.8,3.9z"/>
	<path id="XMLID_73_" class="st0" d="M430.1,4c0,1.2-0.9,2.2-2.4,2.2c-1.4,0-2.3-1-2.3-2.2c0-1.3,0.9-2.2,2.3-2.2S430.1,2.8,430.1,4
		z M425.5,22.2V8h4.4v14.2H425.5z"/>
	<path id="XMLID_70_" class="st0" d="M447.6,15c0,5.2-3.7,7.6-7.5,7.6c-4.2,0-7.4-2.7-7.4-7.3s3-7.5,7.6-7.5
		C444.6,7.7,447.6,10.7,447.6,15z M437.3,15.1c0,2.4,1,4.3,2.9,4.3c1.7,0,2.8-1.7,2.8-4.3c0-2.1-0.8-4.3-2.8-4.3
		C438,10.8,437.3,13,437.3,15.1z"/>
	<path id="XMLID_68_" class="st0" d="M450.3,12.5c0-1.8-0.1-3.3-0.1-4.5h3.8l0.2,2h0.1c0.6-0.9,2-2.3,4.4-2.3c2.9,0,5.1,1.9,5.1,6.1
		v8.4h-4.4v-7.9c0-1.8-0.6-3.1-2.2-3.1c-1.2,0-1.9,0.8-2.2,1.7c-0.1,0.3-0.2,0.7-0.2,1.1v8.2h-4.4V12.5z"/>
	<path id="XMLID_65_" class="st0" d="M481.3,22.2l-0.3-1.4H481c-0.9,1.1-2.4,1.7-4.1,1.7c-2.9,0-4.6-2.1-4.6-4.4
		c0-3.7,3.3-5.5,8.4-5.4v-0.2c0-0.8-0.4-1.8-2.6-1.8c-1.5,0-3,0.5-3.9,1.1l-0.8-2.9c1-0.6,2.9-1.3,5.5-1.3c4.7,0,6.3,2.8,6.3,6.1
		v4.9c0,1.4,0.1,2.7,0.2,3.5H481.3z M480.8,15.5c-2.3,0-4.1,0.5-4.1,2.2c0,1.1,0.8,1.7,1.7,1.7c1.1,0,2-0.7,2.3-1.6
		c0.1-0.2,0.1-0.5,0.1-0.8V15.5z"/>
	<path id="XMLID_63_" class="st0" d="M488.6,12.5c0-1.8-0.1-3.3-0.1-4.5h3.8l0.2,2h0.1c0.6-0.9,2-2.3,4.4-2.3c2.9,0,5.1,1.9,5.1,6.1
		v8.4h-4.4v-7.9c0-1.8-0.6-3.1-2.2-3.1c-1.2,0-1.9,0.8-2.2,1.7c-0.1,0.3-0.2,0.7-0.2,1.1v8.2h-4.4V12.5z"/>
	<path id="XMLID_60_" class="st0" d="M519.5,1.6V18c0,1.6,0.1,3.3,0.1,4.2h-3.9l-0.2-2.1h-0.1c-0.9,1.6-2.6,2.4-4.5,2.4
		c-3.4,0-6.1-2.9-6.1-7.3c0-4.8,3-7.6,6.4-7.6c1.7,0,3.1,0.6,3.8,1.6h0.1V1.6H519.5z M515,14c0-0.2,0-0.6-0.1-0.8
		c-0.3-1.2-1.2-2.2-2.6-2.2c-2,0-3.1,1.8-3.1,4c0,2.4,1.2,3.9,3,3.9c1.3,0,2.3-0.9,2.6-2.1c0.1-0.3,0.1-0.6,0.1-1V14z"/>
	<path id="XMLID_57_" class="st0" d="M529,2.9c1.4-0.2,3.3-0.4,6-0.4c2.7,0,4.7,0.5,6,1.6c1.3,1,2.1,2.6,2.1,4.5
		c0,1.9-0.6,3.5-1.8,4.7c-1.5,1.4-3.8,2.1-6.4,2.1c-0.6,0-1.1,0-1.5-0.1v7H529V2.9z M533.4,11.8c0.4,0.1,0.8,0.1,1.5,0.1
		c2.4,0,3.8-1.2,3.8-3.2c0-1.8-1.3-2.9-3.5-2.9c-0.9,0-1.5,0.1-1.8,0.2V11.8z"/>
	<path id="XMLID_55_" class="st0" d="M545.8,1.6h4.4v8.1h0.1c0.5-0.6,1-1.1,1.7-1.5c0.6-0.3,1.5-0.6,2.3-0.6c2.8,0,5,1.9,5,6.2v8.3
		h-4.4v-7.8c0-1.9-0.6-3.1-2.3-3.1c-1.2,0-1.9,0.8-2.2,1.5c-0.1,0.3-0.1,0.7-0.1,1v8.4h-4.4V1.6z"/>
	<path id="XMLID_52_" class="st0" d="M570.9,22.2l-0.3-1.4h-0.1c-0.9,1.1-2.4,1.7-4.1,1.7c-2.9,0-4.6-2.1-4.6-4.4
		c0-3.7,3.3-5.5,8.4-5.4v-0.2c0-0.8-0.4-1.8-2.6-1.8c-1.5,0-3,0.5-3.9,1.1l-0.8-2.9c1-0.6,2.9-1.3,5.5-1.3c4.7,0,6.3,2.8,6.3,6.1
		v4.9c0,1.4,0.1,2.7,0.2,3.5H570.9z M570.4,15.5c-2.3,0-4.1,0.5-4.1,2.2c0,1.1,0.8,1.7,1.7,1.7c1.1,0,2-0.7,2.3-1.6
		c0.1-0.2,0.1-0.5,0.1-0.8V15.5z"/>
	<path id="XMLID_50_" class="st0" d="M578.2,12.7c0-2.1-0.1-3.5-0.1-4.7h3.8l0.1,2.6h0.1c0.7-2.1,2.5-2.9,3.8-2.9
		c0.4,0,0.6,0,0.9,0.1v4.2c-0.3-0.1-0.7-0.1-1.2-0.1c-1.6,0-2.7,0.9-3,2.2c-0.1,0.3-0.1,0.6-0.1,1v7.2h-4.4V12.7z"/>
	<path id="XMLID_48_" class="st0" d="M589.3,12.5c0-1.8-0.1-3.3-0.1-4.5h3.7l0.2,1.9h0.1c0.6-0.9,1.9-2.2,4.3-2.2
		c1.8,0,3.3,0.9,3.9,2.4h0.1c0.5-0.7,1.2-1.3,1.8-1.7c0.8-0.5,1.7-0.7,2.7-0.7c2.7,0,4.8,1.9,4.8,6.2v8.4h-4.3v-7.7
		c0-2.1-0.7-3.3-2.1-3.3c-1,0-1.7,0.7-2,1.5c-0.1,0.3-0.2,0.8-0.2,1.1v8.3h-4.3v-8c0-1.8-0.6-3-2-3c-1.1,0-1.8,0.9-2.1,1.6
		c-0.1,0.3-0.2,0.8-0.2,1.1v8.3h-4.3V12.5z"/>
	<path id="XMLID_45_" class="st0" d="M622.4,22.2l-0.3-1.4H622c-0.9,1.1-2.4,1.7-4.1,1.7c-2.9,0-4.6-2.1-4.6-4.4
		c0-3.7,3.3-5.5,8.4-5.4v-0.2c0-0.8-0.4-1.8-2.6-1.8c-1.5,0-3,0.5-3.9,1.1l-0.8-2.9c1-0.6,2.9-1.3,5.5-1.3c4.7,0,6.3,2.8,6.3,6.1
		v4.9c0,1.4,0.1,2.7,0.2,3.5H622.4z M621.9,15.5c-2.3,0-4.1,0.5-4.1,2.2c0,1.1,0.8,1.7,1.7,1.7c1.1,0,2-0.7,2.3-1.6
		c0.1-0.2,0.1-0.5,0.1-0.8V15.5z"/>
	<path id="XMLID_43_" class="st0" d="M640.4,21.9c-0.8,0.3-2.3,0.6-4,0.6c-4.6,0-7.5-2.8-7.5-7.3c0-4.2,2.9-7.6,8.1-7.6
		c1.2,0,2.4,0.2,3.4,0.6l-0.7,3.3c-0.5-0.2-1.3-0.4-2.5-0.4c-2.3,0-3.8,1.7-3.8,4c0,2.6,1.7,4,3.9,4c1,0,1.9-0.2,2.5-0.4L640.4,21.9
		z"/>
	<path id="XMLID_40_" class="st0" d="M656.5,15c0,5.2-3.7,7.6-7.5,7.6c-4.2,0-7.4-2.7-7.4-7.3s3-7.5,7.6-7.5
		C653.6,7.7,656.5,10.7,656.5,15z M646.2,15.1c0,2.4,1,4.3,2.9,4.3c1.7,0,2.8-1.7,2.8-4.3c0-2.1-0.8-4.3-2.8-4.3
		C647,10.8,646.2,13,646.2,15.1z"/>
	<path id="XMLID_38_" class="st0" d="M659.3,1.6h4.4v20.7h-4.4V1.6z"/>
	<path id="XMLID_35_" class="st0" d="M681.3,15c0,5.2-3.7,7.6-7.5,7.6c-4.2,0-7.4-2.7-7.4-7.3s3-7.5,7.6-7.5
		C678.4,7.7,681.3,10.7,681.3,15z M671,15.1c0,2.4,1,4.3,2.9,4.3c1.7,0,2.8-1.7,2.8-4.3c0-2.1-0.8-4.3-2.8-4.3
		C671.8,10.8,671,13,671,15.1z"/>
	<path id="XMLID_32_" class="st0" d="M697.7,8c-0.1,0.9-0.1,2.1-0.1,4.2v7.9c0,2.7-0.6,5-2.2,6.4c-1.6,1.3-3.7,1.7-5.8,1.7
		c-1.9,0-3.8-0.4-5.1-1.1l0.9-3.3c0.9,0.5,2.5,1.1,4.1,1.1c2.1,0,3.7-1.1,3.7-3.8v-0.9h-0.1c-0.8,1.2-2.2,1.9-3.8,1.9
		c-3.5,0-6-2.9-6-7c0-4.6,3-7.5,6.5-7.5c1.9,0,3.2,0.8,3.9,2h0.1l0.1-1.7H697.7z M693.2,13.8c0-0.3,0-0.6-0.1-0.8
		c-0.3-1.2-1.2-2-2.4-2c-1.6,0-2.9,1.5-2.9,4c0,2.1,1,3.8,2.9,3.8c1.1,0,2-0.8,2.3-1.8c0.1-0.3,0.1-0.8,0.1-1.2V13.8z"/>
	<path id="XMLID_29_" class="st0" d="M705.8,4c0,1.2-0.9,2.2-2.4,2.2c-1.4,0-2.3-1-2.3-2.2c0-1.3,0.9-2.2,2.3-2.2S705.7,2.8,705.8,4
		z M701.2,22.2V8h4.4v14.2H701.2z"/>
	<path id="XMLID_27_" class="st0" d="M719.8,21.9c-0.8,0.3-2.3,0.6-4,0.6c-4.6,0-7.5-2.8-7.5-7.3c0-4.2,2.9-7.6,8.1-7.6
		c1.2,0,2.4,0.2,3.4,0.6l-0.7,3.3c-0.5-0.2-1.3-0.4-2.5-0.4c-2.3,0-3.8,1.7-3.8,4c0,2.6,1.7,4,3.9,4c1,0,1.9-0.2,2.5-0.4L719.8,21.9
		z"/>
	<path id="XMLID_24_" class="st0" d="M730.5,22.2l-0.3-1.4h-0.1c-0.9,1.1-2.4,1.7-4.1,1.7c-2.9,0-4.6-2.1-4.6-4.4
		c0-3.7,3.3-5.5,8.4-5.4v-0.2c0-0.8-0.4-1.8-2.6-1.8c-1.5,0-3,0.5-3.9,1.1l-0.8-2.9c1-0.6,2.9-1.3,5.5-1.3c4.7,0,6.3,2.8,6.3,6.1
		v4.9c0,1.4,0.1,2.7,0.2,3.5H730.5z M730,15.5c-2.3,0-4.1,0.5-4.1,2.2c0,1.1,0.8,1.7,1.7,1.7c1.1,0,2-0.7,2.3-1.6
		c0.1-0.2,0.1-0.5,0.1-0.8V15.5z"/>
	<path id="XMLID_22_" class="st0" d="M737.8,1.6h4.4v20.7h-4.4V1.6z"/>
	<path id="XMLID_19_" class="st0" d="M751.8,2.9c1.4-0.2,3.3-0.4,6-0.4c2.7,0,4.7,0.5,6,1.6c1.3,1,2.1,2.6,2.1,4.5
		c0,1.9-0.6,3.5-1.8,4.7c-1.5,1.4-3.8,2.1-6.4,2.1c-0.6,0-1.1,0-1.5-0.1v7h-4.4V2.9z M756.2,11.8c0.4,0.1,0.8,0.1,1.5,0.1
		c2.4,0,3.8-1.2,3.8-3.2c0-1.8-1.3-2.9-3.5-2.9c-0.9,0-1.5,0.1-1.8,0.2V11.8z"/>
	<path id="XMLID_17_" class="st0" d="M768.3,12.7c0-2.1-0.1-3.5-0.1-4.7h3.8l0.1,2.6h0.1c0.7-2.1,2.5-2.9,3.8-2.9
		c0.4,0,0.6,0,0.9,0.1v4.2c-0.3-0.1-0.7-0.1-1.2-0.1c-1.6,0-2.7,0.9-3,2.2c-0.1,0.3-0.1,0.6-0.1,1v7.2h-4.4V12.7z"/>
	<path id="XMLID_14_" class="st0" d="M793.2,15c0,5.2-3.7,7.6-7.5,7.6c-4.2,0-7.4-2.7-7.4-7.3s3-7.5,7.6-7.5
		C790.3,7.7,793.2,10.7,793.2,15z M782.9,15.1c0,2.4,1,4.3,2.9,4.3c1.7,0,2.8-1.7,2.8-4.3c0-2.1-0.8-4.3-2.8-4.3
		C783.7,10.8,782.9,13,782.9,15.1z"/>
	<path id="XMLID_12_" class="st0" d="M796.4,22.2v-11h-1.9V8h1.9V7.4c0-3.9,3.1-6.1,7.4-6.1c1.5,0,3.3,0.3,4.2,0.9l-0.8,3.3
		c-0.7-0.4-1.8-0.7-3.2-0.7c-2.3,0-3.1,1.2-3.1,2.8V8h8.6v14.2h-4.4v-11h-4.2v11H796.4z"/>
	<path id="XMLID_10_" class="st0" d="M813,1.6h4.4v20.7H813V1.6z"/>
	<path id="XMLID_7_" class="st0" d="M824.4,16.5c0.1,1.8,1.9,2.7,4,2.7c1.5,0,2.7-0.2,3.9-0.6l0.6,3c-1.5,0.6-3.2,0.9-5.2,0.9
		c-4.8,0-7.6-2.8-7.6-7.2c0-3.6,2.2-7.6,7.2-7.6c4.6,0,6.3,3.6,6.3,7.1c0,0.8-0.1,1.4-0.1,1.7H824.4z M829.7,13.5
		c0-1.1-0.5-2.9-2.5-2.9c-1.9,0-2.6,1.7-2.7,2.9H829.7z"/>
	<path id="XMLID_5_" class="st0" d="M835.6,19.9c0-1.6,1.1-2.7,2.6-2.7c1.5,0,2.6,1.1,2.6,2.7c0,1.5-1,2.7-2.6,2.7
		C836.7,22.5,835.6,21.4,835.6,19.9z"/>
</g>
<g id="XMLID_1_">
	<path id="XMLID_3_" class="st0" d="M3.8,12.3c0,0,3.5-7.6,16.7-7.6C33.7,4.6,41,0,41,0s-9.4,9.7-18.6,9.7
		C13.2,9.7,7.6,9.7,3.8,12.3"/>
	<path id="XMLID_2_" class="st1" d="M0,19.5c0,0,3.5-7.6,16.7-7.6c13.2,0,20.5-4.6,20.5-4.6s-9.4,9.7-18.6,9.7
		C9.4,16.9,3.8,16.9,0,19.5"/>
</g>
</svg>
