<!-- Generator: Adobe Illustrator 22.1.0, SVG Export Plug-In  -->
<svg version="1.1"
	 xmlns="http://www.w3.org/2000/svg" xmlns:xlink="http://www.w3.org/1999/xlink" xmlns:a="http://ns.adobe.com/AdobeSVGViewerExtensions/3.0/"
	 x="0px" y="0px" width="876.4px" height="88.1px" viewBox="0 0 876.4 88.1" style="enable-background:new 0 0 876.4 88.1;"
	 xml:space="preserve">
<style type="text/css">
	.st0{fill:#266093;}
	.st1{fill:url(#XMLID_561_);}
	.st2{fill:#FFFFFF;}
	.st3{fill:none;stroke:#266093;stroke-width:0.9393;stroke-miterlimit:10;}
	.st4{fill:url(#XMLID_562_);}
</style>
<defs>
</defs>
<g id="XMLID_94_">
	<g id="XMLID_96_">
		<path id="XMLID_333_" class="st0" d="M208.3,39.5v-9.2h-9.7v9.2h-2.2V20h2.2v8.3h9.7V20h2.2v19.5H208.3z"/>
		<path id="XMLID_330_" class="st0" d="M223.3,39.5v-1.8c-0.5,0.6-1.1,1-1.9,1.5c-0.7,0.4-1.6,0.6-2.7,0.6c-0.6,0-1.1-0.1-1.7-0.2
			c-0.6-0.2-1.1-0.4-1.5-0.8c-0.4-0.4-0.8-0.8-1.1-1.4c-0.3-0.6-0.4-1.3-0.4-2.2c0-0.8,0.2-1.5,0.5-2.1c0.3-0.6,0.7-1.1,1.2-1.5
			c0.5-0.4,1.1-0.7,1.8-0.8c0.7-0.2,1.4-0.3,2.1-0.3c0.7,0,1.4,0.1,2.1,0.2c0.6,0.2,1.2,0.4,1.6,0.6v-1.7c0-2.1-1.1-3.2-3.2-3.2
			c-0.8,0-1.5,0.1-2.1,0.3s-1.3,0.5-1.8,0.8l-0.8-1.7c0.6-0.4,1.4-0.6,2.2-0.9c0.8-0.2,1.7-0.3,2.7-0.3c1.6,0,2.8,0.4,3.7,1.1
			c0.9,0.7,1.4,1.9,1.4,3.6v10.2H223.3z M223.3,33c-0.5-0.3-1-0.5-1.6-0.6c-0.6-0.1-1.3-0.2-2.2-0.2c-1.1,0-1.9,0.2-2.5,0.7
			c-0.6,0.5-0.9,1.2-0.9,2.1c0,1.1,0.3,1.9,0.8,2.4c0.5,0.5,1.3,0.7,2.1,0.7c0.9,0,1.8-0.2,2.5-0.6c0.7-0.4,1.3-0.9,1.7-1.6V33z"/>
		<path id="XMLID_328_" class="st0" d="M235.3,39.5h-1.8l-5.2-14.6h2.2l3.7,11.5l0.2,0.7l0.2-0.7l3.7-11.5h2.2L235.3,39.5z"/>
		<path id="XMLID_325_" class="st0" d="M254.6,31.8c0,0.3,0,0.5,0,0.6c0,0.2,0,0.3-0.1,0.5h-9.7c0.1,1.6,0.5,2.8,1.2,3.7
			c0.7,0.9,1.7,1.4,2.9,1.4c0.9,0,1.6-0.1,2.2-0.4c0.6-0.2,1.2-0.6,1.9-1l1,1.5c-0.4,0.3-0.9,0.5-1.3,0.7c-0.4,0.2-0.8,0.4-1.2,0.5
			c-0.4,0.1-0.8,0.2-1.3,0.3c-0.4,0.1-0.9,0.1-1.5,0.1c-0.7,0-1.4-0.1-2.1-0.4c-0.7-0.3-1.3-0.7-1.9-1.3c-0.6-0.6-1-1.4-1.4-2.4
			c-0.4-1-0.6-2.2-0.6-3.6c0-1.2,0.2-2.2,0.5-3.1c0.3-0.9,0.7-1.7,1.3-2.4s1.2-1.1,1.9-1.5c0.7-0.4,1.5-0.5,2.4-0.5
			c0.9,0,1.8,0.2,2.5,0.5c0.7,0.4,1.3,0.8,1.8,1.5c0.5,0.6,0.9,1.4,1.1,2.3C254.5,29.8,254.6,30.7,254.6,31.8z M252.7,31.2
			c-0.1-1.4-0.5-2.6-1.1-3.5c-0.6-0.9-1.6-1.3-2.9-1.3c-1.1,0-2,0.4-2.7,1.2s-1.1,2-1.2,3.7H252.7z"/>
		<path id="XMLID_323_" class="st0" d="M265,39.5V20h3.9v15.6h9.8v3.8H265z"/>
		<path id="XMLID_320_" class="st0" d="M293,32.2c0,0.3,0,0.5,0,0.7s0,0.4,0,0.5h-8.8c0,0.5,0.1,0.9,0.3,1.3
			c0.2,0.4,0.4,0.6,0.7,0.8c0.3,0.2,0.6,0.4,0.9,0.5s0.7,0.2,1,0.2c0.5,0,1-0.1,1.4-0.3c0.4-0.2,0.8-0.4,1.1-0.8l2.7,2.3
			c-0.6,0.8-1.4,1.3-2.3,1.8c-1,0.4-1.9,0.6-2.9,0.6c-1.1,0-2-0.2-2.8-0.5c-0.8-0.4-1.6-0.9-2.1-1.5c-0.6-0.7-1-1.5-1.4-2.4
			c-0.3-0.9-0.5-2-0.5-3.1c0-1.1,0.2-2.1,0.5-3.1s0.8-1.7,1.4-2.4c0.6-0.7,1.3-1.2,2.1-1.6c0.8-0.4,1.6-0.6,2.6-0.6
			c1,0,1.8,0.2,2.6,0.6c0.8,0.4,1.4,0.9,1.9,1.6c0.5,0.7,0.9,1.5,1.2,2.4C292.9,30.2,293,31.2,293,32.2z M289.3,30.5
			c0-0.3-0.1-0.7-0.2-1c-0.1-0.3-0.3-0.6-0.5-0.8c-0.2-0.3-0.5-0.4-0.8-0.6c-0.3-0.1-0.7-0.2-1.1-0.2c-0.7,0-1.3,0.3-1.7,0.8
			c-0.4,0.5-0.7,1.1-0.7,1.9H289.3z"/>
		<path id="XMLID_318_" class="st0" d="M303.7,39.5h-4l-5.3-14.6h4.2l2.1,6.8c0.2,0.6,0.4,1.1,0.5,1.8c0.2,0.6,0.3,1.1,0.4,1.4
			c0.1-0.4,0.2-0.9,0.4-1.4s0.3-1.2,0.5-1.8l2.1-6.8h4.1L303.7,39.5z"/>
		<path id="XMLID_315_" class="st0" d="M322.9,32.2c0,0.3,0,0.5,0,0.7s0,0.4,0,0.5h-8.8c0,0.5,0.1,0.9,0.3,1.3
			c0.2,0.4,0.4,0.6,0.7,0.8c0.3,0.2,0.6,0.4,0.9,0.5s0.7,0.2,1,0.2c0.5,0,1-0.1,1.4-0.3c0.4-0.2,0.8-0.4,1.1-0.8l2.7,2.3
			c-0.6,0.8-1.4,1.3-2.3,1.8c-1,0.4-1.9,0.6-2.9,0.6c-1.1,0-2-0.2-2.8-0.5c-0.8-0.4-1.6-0.9-2.1-1.5c-0.6-0.7-1-1.5-1.4-2.4
			c-0.3-0.9-0.5-2-0.5-3.1c0-1.1,0.2-2.1,0.5-3.1s0.8-1.7,1.4-2.4c0.6-0.7,1.3-1.2,2.1-1.6c0.8-0.4,1.6-0.6,2.6-0.6
			c1,0,1.8,0.2,2.6,0.6c0.8,0.4,1.4,0.9,1.9,1.6c0.5,0.7,0.9,1.5,1.2,2.4C322.8,30.2,322.9,31.2,322.9,32.2z M319.2,30.5
			c0-0.3-0.1-0.7-0.2-1c-0.1-0.3-0.3-0.6-0.5-0.8c-0.2-0.3-0.5-0.4-0.8-0.6c-0.3-0.1-0.7-0.2-1.1-0.2c-0.7,0-1.3,0.3-1.7,0.8
			c-0.4,0.5-0.7,1.1-0.7,1.9H319.2z"/>
		<path id="XMLID_313_" class="st0" d="M325.6,39.5V21.1l3.8-1.9v20.3H325.6z"/>
		<path id="XMLID_310_" class="st0" d="M354.1,39.5l-1.5-4.3h-7.1l-1.5,4.3h-4.2l7.5-19.5h3.8l7.4,19.5H354.1z M350,27.9
			c-0.2-0.6-0.4-1.1-0.6-1.7c-0.2-0.5-0.3-1-0.4-1.4c-0.1,0.4-0.2,0.8-0.4,1.4c-0.2,0.5-0.4,1.1-0.6,1.7l-1.3,3.5h4.5L350,27.9z"/>
		<path id="XMLID_307_" class="st0" d="M385.9,31.8c0,0.3,0,0.5,0,0.6c0,0.2,0,0.3-0.1,0.5h-9.7c0.1,1.6,0.5,2.8,1.2,3.7
			c0.7,0.9,1.7,1.4,2.9,1.4c0.9,0,1.6-0.1,2.2-0.4c0.6-0.2,1.2-0.6,1.9-1l1,1.5c-0.4,0.3-0.9,0.5-1.3,0.7c-0.4,0.2-0.8,0.4-1.2,0.5
			c-0.4,0.1-0.8,0.2-1.3,0.3c-0.4,0.1-0.9,0.1-1.5,0.1c-0.7,0-1.4-0.1-2.1-0.4c-0.7-0.3-1.3-0.7-1.9-1.3c-0.6-0.6-1-1.4-1.4-2.4
			c-0.4-1-0.6-2.2-0.6-3.6c0-1.2,0.2-2.2,0.5-3.1c0.3-0.9,0.7-1.7,1.3-2.4s1.2-1.1,1.9-1.5c0.7-0.4,1.5-0.5,2.4-0.5
			c0.9,0,1.8,0.2,2.5,0.5c0.7,0.4,1.3,0.8,1.8,1.5c0.5,0.6,0.9,1.4,1.1,2.3C385.8,29.8,385.9,30.7,385.9,31.8z M384,31.2
			c-0.1-1.4-0.5-2.6-1.1-3.5c-0.6-0.9-1.6-1.3-2.9-1.3c-1.1,0-2,0.4-2.7,1.2s-1.1,2-1.2,3.7H384z"/>
		<path id="XMLID_305_" class="st0" d="M394,21.2c-0.4,0-0.8,0.1-1.1,0.3s-0.4,0.6-0.4,1.2v2.2h2.9v1.8h-2.9v12.8h-2.1V26.7h-2v-1.8
			h2v-2c0-1.3,0.3-2.2,1-2.8c0.6-0.5,1.5-0.8,2.5-0.8c0.4,0,0.8,0,1,0.1c0.3,0,0.5,0.1,0.8,0.2v2C395.2,21.3,394.7,21.2,394,21.2z"
			/>
		<path id="XMLID_301_" class="st0" d="M405.1,21.5c-0.5-0.2-1-0.3-1.7-0.3c-0.4,0-0.8,0.1-1.1,0.3c-0.3,0.2-0.4,0.6-0.4,1.2v2.2
			h2.9v1.8h-2.9v12.8h-2.1V26.7h-2v-1.8h2v-2c0-1.3,0.3-2.2,1-2.8c0.6-0.5,1.5-0.8,2.5-0.8c0.4,0,0.8,0,1,0.1s0.5,0.1,0.8,0.2V21.5z
			 M411.1,20.8c0,0.4-0.1,0.8-0.4,1s-0.6,0.4-1,0.4c-0.4,0-0.8-0.1-1.1-0.4c-0.3-0.3-0.4-0.6-0.4-1c0-0.4,0.1-0.8,0.4-1.1
			c0.3-0.3,0.7-0.4,1.1-0.4c0.4,0,0.7,0.1,1,0.4C411,20,411.1,20.4,411.1,20.8z M408.6,39.5V24.9h2.1v14.6H408.6z"/>
		<path id="XMLID_299_" class="st0" d="M423.8,27.8c-0.5-0.5-1.1-0.8-1.6-1.1s-1.2-0.4-1.9-0.4c-0.6,0-1.1,0.1-1.6,0.4
			c-0.5,0.3-0.9,0.6-1.3,1.1c-0.4,0.5-0.6,1.1-0.8,1.8c-0.2,0.7-0.3,1.5-0.3,2.4c0,1.8,0.4,3.2,1.1,4.3c0.7,1.1,1.7,1.6,3,1.6
			c0.7,0,1.3-0.1,1.8-0.4c0.5-0.3,1-0.7,1.5-1.1l1.3,1.3c-0.6,0.6-1.3,1.1-2,1.5c-0.7,0.4-1.6,0.5-2.7,0.5c-0.8,0-1.6-0.2-2.3-0.5
			c-0.7-0.3-1.4-0.8-2-1.4c-0.6-0.6-1-1.4-1.4-2.4c-0.3-0.9-0.5-2-0.5-3.3c0-1.4,0.2-2.5,0.6-3.5c0.4-1,0.9-1.8,1.4-2.4
			c0.6-0.6,1.3-1.1,2-1.4c0.8-0.3,1.5-0.4,2.3-0.4c1,0,1.9,0.2,2.6,0.5c0.8,0.3,1.4,0.7,2,1.2L423.8,27.8z"/>
		<path id="XMLID_296_" class="st0" d="M436.6,39.5v-1.8c-0.5,0.6-1.1,1-1.9,1.5c-0.7,0.4-1.6,0.6-2.7,0.6c-0.6,0-1.1-0.1-1.7-0.2
			c-0.6-0.2-1.1-0.4-1.5-0.8c-0.4-0.4-0.8-0.8-1.1-1.4c-0.3-0.6-0.4-1.3-0.4-2.2c0-0.8,0.2-1.5,0.5-2.1c0.3-0.6,0.7-1.1,1.2-1.5
			c0.5-0.4,1.1-0.7,1.8-0.8c0.7-0.2,1.4-0.3,2.1-0.3c0.7,0,1.4,0.1,2.1,0.2c0.6,0.2,1.2,0.4,1.6,0.6v-1.7c0-2.1-1.1-3.2-3.2-3.2
			c-0.8,0-1.5,0.1-2.1,0.3s-1.3,0.5-1.8,0.8l-0.8-1.7c0.6-0.4,1.4-0.6,2.2-0.9c0.8-0.2,1.7-0.3,2.7-0.3c1.6,0,2.8,0.4,3.7,1.1
			c0.9,0.7,1.4,1.9,1.4,3.6v10.2H436.6z M436.6,33c-0.5-0.3-1-0.5-1.6-0.6c-0.6-0.1-1.3-0.2-2.2-0.2c-1.1,0-1.9,0.2-2.5,0.7
			c-0.6,0.5-0.9,1.2-0.9,2.1c0,1.1,0.3,1.9,0.8,2.4c0.5,0.5,1.3,0.7,2.1,0.7c0.9,0,1.8-0.2,2.5-0.6c0.7-0.4,1.3-0.9,1.7-1.6V33z"/>
		<path id="XMLID_294_" class="st0" d="M451.7,27.8c-0.5-0.5-1.1-0.8-1.6-1.1s-1.2-0.4-1.9-0.4c-0.6,0-1.1,0.1-1.6,0.4
			c-0.5,0.3-0.9,0.6-1.3,1.1c-0.4,0.5-0.6,1.1-0.8,1.8c-0.2,0.7-0.3,1.5-0.3,2.4c0,1.8,0.4,3.2,1.1,4.3c0.7,1.1,1.7,1.6,3,1.6
			c0.7,0,1.3-0.1,1.8-0.4c0.5-0.3,1-0.7,1.5-1.1l1.3,1.3c-0.6,0.6-1.3,1.1-2,1.5c-0.7,0.4-1.6,0.5-2.7,0.5c-0.8,0-1.6-0.2-2.3-0.5
			c-0.7-0.3-1.4-0.8-2-1.4c-0.6-0.6-1-1.4-1.4-2.4c-0.3-0.9-0.5-2-0.5-3.3c0-1.4,0.2-2.5,0.6-3.5c0.4-1,0.9-1.8,1.4-2.4
			c0.6-0.6,1.3-1.1,2-1.4c0.8-0.3,1.5-0.4,2.3-0.4c1,0,1.9,0.2,2.6,0.5c0.8,0.3,1.4,0.7,2,1.2L451.7,27.8z"/>
		<path id="XMLID_292_" class="st0" d="M460.2,44.6h-2.1l2-5.3l-5.2-14.4h2.2l3.6,10.6l0.5,1.5l0.5-1.5l3.6-10.6h2.2L460.2,44.6z"/>
		<path id="XMLID_290_" class="st0" d="M477.6,42h-2.1l8.3-24.5h2.1L477.6,42z"/>
		<path id="XMLID_287_" class="st0" d="M499.6,31.8c0,0.3,0,0.5,0,0.6c0,0.2,0,0.3-0.1,0.5h-9.7c0.1,1.6,0.5,2.8,1.2,3.7
			c0.7,0.9,1.7,1.4,2.9,1.4c0.9,0,1.6-0.1,2.2-0.4c0.6-0.2,1.2-0.6,1.9-1l1,1.5c-0.4,0.3-0.9,0.5-1.3,0.7c-0.4,0.2-0.8,0.4-1.2,0.5
			c-0.4,0.1-0.8,0.2-1.3,0.3c-0.4,0.1-0.9,0.1-1.5,0.1c-0.7,0-1.4-0.1-2.1-0.4c-0.7-0.3-1.3-0.7-1.9-1.3c-0.6-0.6-1-1.4-1.4-2.4
			c-0.4-1-0.6-2.2-0.6-3.6c0-1.2,0.2-2.2,0.5-3.1c0.3-0.9,0.7-1.7,1.3-2.4s1.2-1.1,1.9-1.5c0.7-0.4,1.5-0.5,2.4-0.5
			c0.9,0,1.8,0.2,2.5,0.5c0.7,0.4,1.3,0.8,1.8,1.5c0.5,0.6,0.9,1.4,1.1,2.3C499.5,29.8,499.6,30.7,499.6,31.8z M497.7,31.2
			c-0.1-1.4-0.5-2.6-1.1-3.5c-0.6-0.9-1.6-1.3-2.9-1.3c-1.1,0-2,0.4-2.7,1.2s-1.1,2-1.2,3.7H497.7z"/>
		<path id="XMLID_285_" class="st0" d="M507.7,21.2c-0.4,0-0.8,0.1-1.1,0.3s-0.4,0.6-0.4,1.2v2.2h2.9v1.8h-2.9v12.8H504V26.7h-2
			v-1.8h2v-2c0-1.3,0.3-2.2,1-2.8c0.6-0.5,1.5-0.8,2.5-0.8c0.4,0,0.8,0,1,0.1c0.3,0,0.5,0.1,0.8,0.2v2
			C508.9,21.3,508.3,21.2,507.7,21.2z"/>
		<path id="XMLID_283_" class="st0" d="M517.1,21.2c-0.4,0-0.8,0.1-1.1,0.3s-0.4,0.6-0.4,1.2v2.2h2.9v1.8h-2.9v12.8h-2.1V26.7h-2
			v-1.8h2v-2c0-1.3,0.3-2.2,1-2.8c0.6-0.5,1.5-0.8,2.5-0.8c0.4,0,0.8,0,1,0.1c0.3,0,0.5,0.1,0.8,0.2v2
			C518.3,21.3,517.7,21.2,517.1,21.2z"/>
		<path id="XMLID_280_" class="st0" d="M533,31.8c0,0.3,0,0.5,0,0.6c0,0.2,0,0.3-0.1,0.5h-9.7c0.1,1.6,0.5,2.8,1.2,3.7
			c0.7,0.9,1.7,1.4,2.9,1.4c0.9,0,1.6-0.1,2.2-0.4c0.6-0.2,1.2-0.6,1.9-1l1,1.5c-0.4,0.3-0.9,0.5-1.3,0.7c-0.4,0.2-0.8,0.4-1.2,0.5
			c-0.4,0.1-0.8,0.2-1.3,0.3c-0.4,0.1-0.9,0.1-1.5,0.1c-0.7,0-1.4-0.1-2.1-0.4c-0.7-0.3-1.3-0.7-1.9-1.3c-0.6-0.6-1-1.4-1.4-2.4
			c-0.4-1-0.6-2.2-0.6-3.6c0-1.2,0.2-2.2,0.5-3.1c0.3-0.9,0.7-1.7,1.3-2.4s1.2-1.1,1.9-1.5c0.7-0.4,1.5-0.5,2.4-0.5
			c0.9,0,1.8,0.2,2.5,0.5c0.7,0.4,1.3,0.8,1.8,1.5c0.5,0.6,0.9,1.4,1.1,2.3C532.9,29.8,533,30.7,533,31.8z M531.1,31.2
			c-0.1-1.4-0.5-2.6-1.1-3.5c-0.6-0.9-1.6-1.3-2.9-1.3c-1.1,0-2,0.4-2.7,1.2s-1.1,2-1.2,3.7H531.1z"/>
		<path id="XMLID_278_" class="st0" d="M545.3,27.8c-0.5-0.5-1.1-0.8-1.6-1.1s-1.2-0.4-1.9-0.4c-0.6,0-1.1,0.1-1.6,0.4
			c-0.5,0.3-0.9,0.6-1.3,1.1c-0.4,0.5-0.6,1.1-0.8,1.8c-0.2,0.7-0.3,1.5-0.3,2.4c0,1.8,0.4,3.2,1.1,4.3c0.7,1.1,1.7,1.6,3,1.6
			c0.7,0,1.3-0.1,1.8-0.4c0.5-0.3,1-0.7,1.5-1.1l1.3,1.3c-0.6,0.6-1.3,1.1-2,1.5c-0.7,0.4-1.6,0.5-2.7,0.5c-0.8,0-1.6-0.2-2.3-0.5
			c-0.7-0.3-1.4-0.8-2-1.4c-0.6-0.6-1-1.4-1.4-2.4c-0.3-0.9-0.5-2-0.5-3.3c0-1.4,0.2-2.5,0.6-3.5c0.4-1,0.9-1.8,1.4-2.4
			c0.6-0.6,1.3-1.1,2-1.4c0.8-0.3,1.5-0.4,2.3-0.4c1,0,1.9,0.2,2.6,0.5c0.8,0.3,1.4,0.7,2,1.2L545.3,27.8z"/>
		<path id="XMLID_276_" class="st0" d="M552.5,26.7v9.5c0,0.6,0.1,1.1,0.3,1.4s0.6,0.4,1.2,0.4c0.4,0,0.8,0,1.1-0.1
			c0.3-0.1,0.6-0.2,1-0.3l-0.1,1.8c-0.4,0.2-0.8,0.3-1.2,0.4c-0.4,0.1-0.9,0.1-1.5,0.1c-0.9,0-1.6-0.2-2.1-0.7
			c-0.5-0.5-0.7-1.3-0.7-2.6v-9.8h-1.8v-1.8h1.8v-4.5l2.1-1.2v5.7h3.6v1.8H552.5z"/>
		<path id="XMLID_273_" class="st0" d="M562.3,20.8c0,0.4-0.1,0.8-0.4,1c-0.3,0.3-0.6,0.4-1,0.4c-0.4,0-0.8-0.1-1.1-0.4
			c-0.3-0.3-0.4-0.6-0.4-1c0-0.4,0.1-0.8,0.4-1.1c0.3-0.3,0.7-0.4,1.1-0.4c0.4,0,0.7,0.1,1,0.4C562.2,20,562.3,20.4,562.3,20.8z
			 M559.8,39.5V24.9h2.1v14.6H559.8z"/>
		<path id="XMLID_271_" class="st0" d="M572,39.5h-1.8l-5.2-14.6h2.2l3.7,11.5l0.2,0.7l0.2-0.7l3.7-11.5h2.2L572,39.5z"/>
		<path id="XMLID_268_" class="st0" d="M591.3,31.8c0,0.3,0,0.5,0,0.6s0,0.3-0.1,0.5h-9.7c0.1,1.6,0.5,2.8,1.2,3.7
			c0.7,0.9,1.7,1.4,2.9,1.4c0.9,0,1.6-0.1,2.2-0.4c0.6-0.2,1.2-0.6,1.9-1l1,1.5c-0.4,0.3-0.9,0.5-1.3,0.7c-0.4,0.2-0.8,0.4-1.2,0.5
			c-0.4,0.1-0.8,0.2-1.3,0.3c-0.4,0.1-0.9,0.1-1.5,0.1c-0.7,0-1.4-0.1-2.1-0.4c-0.7-0.3-1.3-0.7-1.9-1.3c-0.6-0.6-1-1.4-1.4-2.4
			c-0.4-1-0.6-2.2-0.6-3.6c0-1.2,0.2-2.2,0.5-3.1c0.3-0.9,0.7-1.7,1.3-2.4s1.2-1.1,1.9-1.5c0.7-0.4,1.5-0.5,2.4-0.5
			c0.9,0,1.8,0.2,2.5,0.5c0.7,0.4,1.3,0.8,1.8,1.5s0.9,1.4,1.1,2.3C591.2,29.8,591.3,30.7,591.3,31.8z M589.4,31.2
			c-0.1-1.4-0.5-2.6-1.1-3.5c-0.6-0.9-1.6-1.3-2.9-1.3c-1.1,0-2,0.4-2.7,1.2s-1.1,2-1.2,3.7H589.4z"/>
		<path id="XMLID_266_" class="st0" d="M603.9,39.5v-8.6c0-1.6-0.3-2.7-0.8-3.5s-1.4-1.1-2.6-1.1c-1,0-1.9,0.4-2.6,1.1
			c-0.7,0.7-1,1.9-1,3.5v8.6h-2.1V24.9h2.1l0,1.8c0.4-0.6,1-1.1,1.6-1.5c0.7-0.4,1.5-0.6,2.4-0.6c0.8,0,1.5,0.1,2.1,0.3
			c0.6,0.2,1.2,0.6,1.6,1.1c0.4,0.5,0.8,1.1,1,1.9c0.2,0.8,0.4,1.7,0.4,2.7v8.9H603.9z"/>
		<path id="XMLID_263_" class="st0" d="M621.2,31.8c0,0.3,0,0.5,0,0.6c0,0.2,0,0.3-0.1,0.5h-9.7c0.1,1.6,0.5,2.8,1.2,3.7
			c0.7,0.9,1.7,1.4,2.9,1.4c0.9,0,1.6-0.1,2.2-0.4c0.6-0.2,1.2-0.6,1.9-1l1,1.5c-0.4,0.3-0.9,0.5-1.3,0.7c-0.4,0.2-0.8,0.4-1.2,0.5
			c-0.4,0.1-0.8,0.2-1.3,0.3c-0.4,0.1-0.9,0.1-1.5,0.1c-0.7,0-1.4-0.1-2.1-0.4s-1.3-0.7-1.9-1.3c-0.6-0.6-1-1.4-1.4-2.4
			c-0.4-1-0.6-2.2-0.6-3.6c0-1.2,0.2-2.2,0.5-3.1c0.3-0.9,0.7-1.7,1.3-2.4s1.2-1.1,1.9-1.5c0.7-0.4,1.5-0.5,2.4-0.5
			c0.9,0,1.8,0.2,2.5,0.5c0.7,0.4,1.3,0.8,1.8,1.5s0.9,1.4,1.1,2.3C621,29.8,621.2,30.7,621.2,31.8z M619.2,31.2
			c-0.1-1.4-0.5-2.6-1.1-3.5c-0.6-0.9-1.6-1.3-2.9-1.3c-1.1,0-2,0.4-2.7,1.2c-0.7,0.8-1.1,2-1.2,3.7H619.2z"/>
		<path id="XMLID_261_" class="st0" d="M633.6,35.7c0,0.7-0.1,1.3-0.4,1.9c-0.3,0.5-0.7,0.9-1.1,1.3c-0.5,0.3-1,0.6-1.6,0.7
			c-0.6,0.2-1.2,0.2-1.9,0.2c-1,0-1.9-0.2-2.8-0.5c-0.9-0.3-1.6-0.8-2.4-1.3l1.2-1.5c0.6,0.5,1.2,0.9,1.9,1.2s1.4,0.4,2.1,0.4
			c1,0,1.7-0.2,2.2-0.6s0.7-1,0.7-1.7c0-0.3-0.1-0.6-0.2-0.8c-0.1-0.2-0.3-0.5-0.6-0.7c-0.3-0.2-0.6-0.5-1.1-0.7s-1-0.5-1.6-0.8
			c-0.7-0.3-1.3-0.6-1.9-0.9s-1-0.6-1.3-0.9s-0.6-0.7-0.7-1.1s-0.2-0.9-0.2-1.5c0-0.6,0.1-1.1,0.3-1.5c0.2-0.5,0.5-0.8,0.9-1.2
			c0.4-0.3,0.9-0.6,1.4-0.8c0.6-0.2,1.2-0.3,1.8-0.3c1,0,1.9,0.1,2.7,0.4s1.4,0.7,2,1.1l-1.2,1.5c-0.6-0.4-1.1-0.8-1.7-1
			c-0.5-0.2-1.2-0.3-2-0.3s-1.4,0.2-1.8,0.5c-0.4,0.3-0.6,0.8-0.6,1.3c0,0.3,0.1,0.6,0.2,0.8c0.1,0.2,0.3,0.4,0.5,0.7
			c0.3,0.2,0.6,0.4,1,0.6c0.4,0.2,0.9,0.5,1.5,0.7c0.7,0.3,1.3,0.6,1.8,0.9c0.5,0.3,1,0.6,1.4,0.9c0.4,0.3,0.7,0.7,0.9,1.2
			C633.5,34.5,633.6,35,633.6,35.7z"/>
		<path id="XMLID_259_" class="st0" d="M646.2,35.7c0,0.7-0.1,1.3-0.4,1.9c-0.3,0.5-0.7,0.9-1.1,1.3c-0.5,0.3-1,0.6-1.6,0.7
			c-0.6,0.2-1.2,0.2-1.9,0.2c-1,0-1.9-0.2-2.8-0.5c-0.9-0.3-1.6-0.8-2.4-1.3l1.2-1.5c0.6,0.5,1.2,0.9,1.9,1.2s1.4,0.4,2.1,0.4
			c1,0,1.7-0.2,2.2-0.6s0.7-1,0.7-1.7c0-0.3-0.1-0.6-0.2-0.8c-0.1-0.2-0.3-0.5-0.6-0.7c-0.3-0.2-0.6-0.5-1.1-0.7s-1-0.5-1.6-0.8
			c-0.7-0.3-1.3-0.6-1.9-0.9s-1-0.6-1.3-0.9s-0.6-0.7-0.7-1.1s-0.2-0.9-0.2-1.5c0-0.6,0.1-1.1,0.3-1.5c0.2-0.5,0.5-0.8,0.9-1.2
			c0.4-0.3,0.9-0.6,1.4-0.8c0.6-0.2,1.2-0.3,1.8-0.3c1,0,1.9,0.1,2.7,0.4s1.4,0.7,2,1.1l-1.2,1.5c-0.6-0.4-1.1-0.8-1.7-1
			c-0.5-0.2-1.2-0.3-2-0.3s-1.4,0.2-1.8,0.5c-0.4,0.3-0.6,0.8-0.6,1.3c0,0.3,0.1,0.6,0.2,0.8c0.1,0.2,0.3,0.4,0.5,0.7
			c0.3,0.2,0.6,0.4,1,0.6c0.4,0.2,0.9,0.5,1.5,0.7c0.7,0.3,1.3,0.6,1.8,0.9c0.5,0.3,1,0.6,1.4,0.9c0.4,0.3,0.7,0.7,0.9,1.2
			C646.1,34.5,646.2,35,646.2,35.7z"/>
		<path id="XMLID_256_" class="st0" d="M667.5,31.8c0,0.3,0,0.5,0,0.6c0,0.2,0,0.3-0.1,0.5h-9.7c0.1,1.6,0.5,2.8,1.2,3.7
			c0.7,0.9,1.7,1.4,2.9,1.4c0.9,0,1.6-0.1,2.2-0.4c0.6-0.2,1.2-0.6,1.9-1l1,1.5c-0.4,0.3-0.9,0.5-1.3,0.7c-0.4,0.2-0.8,0.4-1.2,0.5
			c-0.4,0.1-0.8,0.2-1.3,0.3c-0.4,0.1-0.9,0.1-1.5,0.1c-0.7,0-1.4-0.1-2.1-0.4s-1.3-0.7-1.9-1.3c-0.6-0.6-1-1.4-1.4-2.4
			c-0.4-1-0.6-2.2-0.6-3.6c0-1.2,0.2-2.2,0.5-3.1c0.3-0.9,0.7-1.7,1.3-2.4s1.2-1.1,1.9-1.5c0.7-0.4,1.5-0.5,2.4-0.5
			c0.9,0,1.8,0.2,2.5,0.5c0.7,0.4,1.3,0.8,1.8,1.5s0.9,1.4,1.1,2.3C667.4,29.8,667.5,30.7,667.5,31.8z M665.6,31.2
			c-0.1-1.4-0.5-2.6-1.1-3.5c-0.6-0.9-1.6-1.3-2.9-1.3c-1.1,0-2,0.4-2.7,1.2c-0.7,0.8-1.1,2-1.2,3.7H665.6z"/>
		<path id="XMLID_254_" class="st0" d="M676.8,39.5H675l-5.2-14.6h2.2l3.7,11.5l0.2,0.7l0.2-0.7l3.7-11.5h2.2L676.8,39.5z"/>
		<path id="XMLID_251_" class="st0" d="M687.7,20.8c0,0.4-0.1,0.8-0.4,1c-0.3,0.3-0.6,0.4-1,0.4c-0.4,0-0.8-0.1-1.1-0.4
			s-0.4-0.6-0.4-1c0-0.4,0.1-0.8,0.4-1.1c0.3-0.3,0.7-0.4,1.1-0.4c0.4,0,0.7,0.1,1,0.4C687.5,20,687.7,20.4,687.7,20.8z M685.1,39.5
			V24.9h2.1v14.6H685.1z"/>
		<path id="XMLID_248_" class="st0" d="M700.4,39.5v-1.8c-0.5,0.6-1.1,1-1.8,1.5c-0.7,0.4-1.6,0.6-2.6,0.6c-0.7,0-1.4-0.1-2-0.4
			c-0.6-0.3-1.2-0.7-1.7-1.3c-0.5-0.6-0.8-1.4-1.1-2.3s-0.4-2-0.4-3.3c0-1.3,0.1-2.4,0.4-3.4c0.3-1,0.7-1.8,1.2-2.4
			c0.5-0.7,1.1-1.2,1.8-1.5c0.7-0.3,1.4-0.5,2.1-0.5c0.9,0,1.7,0.2,2.4,0.5c0.6,0.4,1.2,0.8,1.8,1.4v-6.1l2.1-1.2v20.3H700.4z
			 M700.4,28.6c-0.4-0.6-1-1.1-1.6-1.6c-0.7-0.4-1.5-0.6-2.3-0.6c-1.2,0-2.1,0.5-2.7,1.5c-0.6,1-0.9,2.5-0.9,4.5
			c0,1.9,0.3,3.3,1,4.2c0.6,0.9,1.6,1.4,2.7,1.4c0.8,0,1.5-0.2,2.1-0.6c0.6-0.4,1.2-0.9,1.7-1.6V28.6z"/>
		<path id="XMLID_245_" class="st0" d="M717.7,31.8c0,0.3,0,0.5,0,0.6c0,0.2,0,0.3-0.1,0.5h-9.7c0.1,1.6,0.5,2.8,1.2,3.7
			c0.7,0.9,1.7,1.4,2.9,1.4c0.9,0,1.6-0.1,2.2-0.4c0.6-0.2,1.2-0.6,1.9-1l1,1.5c-0.4,0.3-0.9,0.5-1.3,0.7c-0.4,0.2-0.8,0.4-1.2,0.5
			c-0.4,0.1-0.8,0.2-1.3,0.3c-0.4,0.1-0.9,0.1-1.5,0.1c-0.7,0-1.4-0.1-2.1-0.4s-1.3-0.7-1.9-1.3c-0.6-0.6-1-1.4-1.4-2.4
			c-0.4-1-0.6-2.2-0.6-3.6c0-1.2,0.2-2.2,0.5-3.1c0.3-0.9,0.7-1.7,1.3-2.4s1.2-1.1,1.9-1.5c0.7-0.4,1.5-0.5,2.4-0.5
			c0.9,0,1.8,0.2,2.5,0.5c0.7,0.4,1.3,0.8,1.8,1.5s0.9,1.4,1.1,2.3C717.6,29.8,717.7,30.7,717.7,31.8z M715.8,31.2
			c-0.1-1.4-0.5-2.6-1.1-3.5c-0.6-0.9-1.6-1.3-2.9-1.3c-1.1,0-2,0.4-2.7,1.2c-0.7,0.8-1.1,2-1.2,3.7H715.8z"/>
		<path id="XMLID_243_" class="st0" d="M730.3,39.5v-8.6c0-1.6-0.3-2.7-0.8-3.5s-1.4-1.1-2.6-1.1c-1,0-1.9,0.4-2.6,1.1
			c-0.7,0.7-1,1.9-1,3.5v8.6h-2.1V24.9h2.1l0,1.8c0.4-0.6,1-1.1,1.6-1.5c0.7-0.4,1.5-0.6,2.4-0.6c0.8,0,1.5,0.1,2.1,0.3
			c0.6,0.2,1.2,0.6,1.6,1.1c0.4,0.5,0.8,1.1,1,1.9c0.2,0.8,0.4,1.7,0.4,2.7v8.9H730.3z"/>
		<path id="XMLID_241_" class="st0" d="M745.3,27.8c-0.5-0.5-1.1-0.8-1.6-1.1c-0.5-0.3-1.2-0.4-1.9-0.4c-0.6,0-1.1,0.1-1.6,0.4
			c-0.5,0.3-0.9,0.6-1.3,1.1c-0.4,0.5-0.6,1.1-0.8,1.8c-0.2,0.7-0.3,1.5-0.3,2.4c0,1.8,0.4,3.2,1.1,4.3c0.7,1.1,1.7,1.6,3,1.6
			c0.7,0,1.3-0.1,1.8-0.4c0.5-0.3,1-0.7,1.5-1.1l1.3,1.3c-0.6,0.6-1.3,1.1-2,1.5c-0.7,0.4-1.6,0.5-2.7,0.5c-0.8,0-1.6-0.2-2.3-0.5
			c-0.7-0.3-1.4-0.8-2-1.4c-0.6-0.6-1-1.4-1.4-2.4c-0.3-0.9-0.5-2-0.5-3.3c0-1.4,0.2-2.5,0.6-3.5c0.4-1,0.9-1.8,1.4-2.4
			c0.6-0.6,1.3-1.1,2-1.4c0.8-0.3,1.5-0.4,2.3-0.4c1,0,1.9,0.2,2.6,0.5c0.8,0.3,1.4,0.7,2,1.2L745.3,27.8z"/>
		<path id="XMLID_238_" class="st0" d="M760.9,31.8c0,0.3,0,0.5,0,0.6c0,0.2,0,0.3-0.1,0.5h-9.7c0.1,1.6,0.5,2.8,1.2,3.7
			c0.7,0.9,1.7,1.4,2.9,1.4c0.9,0,1.6-0.1,2.2-0.4c0.6-0.2,1.2-0.6,1.9-1l1,1.5c-0.4,0.3-0.9,0.5-1.3,0.7c-0.4,0.2-0.8,0.4-1.2,0.5
			c-0.4,0.1-0.8,0.2-1.3,0.3c-0.4,0.1-0.9,0.1-1.5,0.1c-0.7,0-1.4-0.1-2.1-0.4s-1.3-0.7-1.9-1.3c-0.6-0.6-1-1.4-1.4-2.4
			c-0.4-1-0.6-2.2-0.6-3.6c0-1.2,0.2-2.2,0.5-3.1c0.3-0.9,0.7-1.7,1.3-2.4s1.2-1.1,1.9-1.5c0.7-0.4,1.5-0.5,2.4-0.5
			c0.9,0,1.8,0.2,2.5,0.5c0.7,0.4,1.3,0.8,1.8,1.5s0.9,1.4,1.1,2.3C760.7,29.8,760.9,30.7,760.9,31.8z M758.9,31.2
			c-0.1-1.4-0.5-2.6-1.1-3.5c-0.6-0.9-1.6-1.3-2.9-1.3c-1.1,0-2,0.4-2.7,1.2c-0.7,0.8-1.1,2-1.2,3.7H758.9z"/>
		<path id="XMLID_235_" class="st0" d="M779.4,39.5v-1.8c-0.5,0.6-1.1,1-1.9,1.5c-0.7,0.4-1.6,0.6-2.7,0.6c-0.6,0-1.1-0.1-1.7-0.2
			c-0.6-0.2-1.1-0.4-1.5-0.8s-0.8-0.8-1.1-1.4c-0.3-0.6-0.4-1.3-0.4-2.2c0-0.8,0.2-1.5,0.5-2.1s0.7-1.1,1.2-1.5
			c0.5-0.4,1.1-0.7,1.8-0.8s1.4-0.3,2.1-0.3c0.7,0,1.4,0.1,2.1,0.2c0.6,0.2,1.2,0.4,1.6,0.6v-1.7c0-2.1-1.1-3.2-3.2-3.2
			c-0.8,0-1.5,0.1-2.1,0.3s-1.3,0.5-1.8,0.8l-0.8-1.7c0.6-0.4,1.4-0.6,2.2-0.9c0.8-0.2,1.7-0.3,2.7-0.3c1.6,0,2.8,0.4,3.7,1.1
			s1.4,1.9,1.4,3.6v10.2H779.4z M779.4,33c-0.5-0.3-1-0.5-1.6-0.6c-0.6-0.1-1.3-0.2-2.2-0.2c-1.1,0-1.9,0.2-2.5,0.7
			c-0.6,0.5-0.9,1.2-0.9,2.1c0,1.1,0.3,1.9,0.8,2.4c0.5,0.5,1.3,0.7,2.1,0.7c0.9,0,1.8-0.2,2.5-0.6c0.7-0.4,1.3-0.9,1.7-1.6V33z"/>
		<path id="XMLID_233_" class="st0" d="M794.6,35.7c0,0.7-0.1,1.3-0.4,1.9c-0.3,0.5-0.7,0.9-1.1,1.3c-0.5,0.3-1,0.6-1.6,0.7
			c-0.6,0.2-1.2,0.2-1.9,0.2c-1,0-1.9-0.2-2.8-0.5c-0.9-0.3-1.6-0.8-2.4-1.3l1.2-1.5c0.6,0.5,1.2,0.9,1.9,1.2s1.4,0.4,2.1,0.4
			c1,0,1.7-0.2,2.2-0.6s0.7-1,0.7-1.7c0-0.3-0.1-0.6-0.2-0.8c-0.1-0.2-0.3-0.5-0.6-0.7c-0.3-0.2-0.6-0.5-1.1-0.7s-1-0.5-1.6-0.8
			c-0.7-0.3-1.3-0.6-1.9-0.9s-1-0.6-1.3-0.9s-0.6-0.7-0.7-1.1s-0.2-0.9-0.2-1.5c0-0.6,0.1-1.1,0.3-1.5c0.2-0.5,0.5-0.8,0.9-1.2
			c0.4-0.3,0.9-0.6,1.4-0.8c0.6-0.2,1.2-0.3,1.8-0.3c1,0,1.9,0.1,2.7,0.4s1.4,0.7,2,1.1l-1.2,1.5c-0.6-0.4-1.1-0.8-1.7-1
			c-0.5-0.2-1.2-0.3-2-0.3s-1.4,0.2-1.8,0.5c-0.4,0.3-0.6,0.8-0.6,1.3c0,0.3,0.1,0.6,0.2,0.8c0.1,0.2,0.3,0.4,0.5,0.7
			c0.3,0.2,0.6,0.4,1,0.6c0.4,0.2,0.9,0.5,1.5,0.7c0.7,0.3,1.3,0.6,1.8,0.9c0.5,0.3,1,0.6,1.4,0.9c0.4,0.3,0.7,0.7,0.9,1.2
			C794.5,34.5,794.6,35,794.6,35.7z"/>
		<path id="XMLID_230_" class="st0" d="M807.5,20.8c0,0.4-0.1,0.8-0.4,1c-0.3,0.3-0.6,0.4-1,0.4c-0.4,0-0.8-0.1-1.1-0.4
			s-0.4-0.6-0.4-1c0-0.4,0.1-0.8,0.4-1.1c0.3-0.3,0.7-0.4,1.1-0.4c0.4,0,0.7,0.1,1,0.4C807.4,20,807.5,20.4,807.5,20.8z M805,39.5
			V24.9h2.1v14.6H805z"/>
		<path id="XMLID_228_" class="st0" d="M820.5,39.5v-8.6c0-1.6-0.3-2.7-0.8-3.5s-1.4-1.1-2.6-1.1c-1,0-1.9,0.4-2.6,1.1
			c-0.7,0.7-1,1.9-1,3.5v8.6h-2.1V24.9h2.1l0,1.8c0.4-0.6,1-1.1,1.6-1.5c0.7-0.4,1.5-0.6,2.4-0.6c0.8,0,1.5,0.1,2.1,0.3
			c0.6,0.2,1.2,0.6,1.6,1.1c0.4,0.5,0.8,1.1,1,1.9c0.2,0.8,0.4,1.7,0.4,2.7v8.9H820.5z"/>
		<path id="XMLID_225_" class="st0" d="M829.4,20.8c0,0.4-0.1,0.8-0.4,1c-0.3,0.3-0.6,0.4-1,0.4c-0.4,0-0.8-0.1-1.1-0.4
			s-0.4-0.6-0.4-1c0-0.4,0.1-0.8,0.4-1.1c0.3-0.3,0.7-0.4,1.1-0.4c0.4,0,0.7,0.1,1,0.4C829.2,20,829.4,20.4,829.4,20.8z M826.8,39.5
			V24.9h2.1v14.6H826.8z"/>
		<path id="XMLID_223_" class="st0" d="M835.9,26.7v9.5c0,0.6,0.1,1.1,0.3,1.4s0.6,0.4,1.2,0.4c0.4,0,0.8,0,1.1-0.1
			c0.3-0.1,0.6-0.2,1-0.3l-0.1,1.8c-0.4,0.2-0.8,0.3-1.2,0.4c-0.4,0.1-0.9,0.1-1.5,0.1c-0.9,0-1.6-0.2-2.1-0.7s-0.7-1.3-0.7-2.6
			v-9.8H832v-1.8h1.8v-4.5l2.1-1.2v5.7h3.6v1.8H835.9z"/>
		<path id="XMLID_220_" class="st0" d="M845.7,20.8c0,0.4-0.1,0.8-0.4,1c-0.3,0.3-0.6,0.4-1,0.4c-0.4,0-0.8-0.1-1.1-0.4
			s-0.4-0.6-0.4-1c0-0.4,0.1-0.8,0.4-1.1c0.3-0.3,0.7-0.4,1.1-0.4c0.4,0,0.7,0.1,1,0.4C845.6,20,845.7,20.4,845.7,20.8z M843.2,39.5
			V24.9h2.1v14.6H843.2z"/>
		<path id="XMLID_217_" class="st0" d="M858,39.5v-1.8c-0.5,0.6-1.1,1-1.9,1.5c-0.7,0.4-1.6,0.6-2.7,0.6c-0.6,0-1.1-0.1-1.7-0.2
			c-0.6-0.2-1.1-0.4-1.5-0.8s-0.8-0.8-1.1-1.4c-0.3-0.6-0.4-1.3-0.4-2.2c0-0.8,0.2-1.5,0.5-2.1s0.7-1.1,1.2-1.5
			c0.5-0.4,1.1-0.7,1.8-0.8s1.4-0.3,2.1-0.3c0.7,0,1.4,0.1,2.1,0.2c0.6,0.2,1.2,0.4,1.6,0.6v-1.7c0-2.1-1.1-3.2-3.2-3.2
			c-0.8,0-1.5,0.1-2.1,0.3s-1.3,0.5-1.8,0.8l-0.8-1.7c0.6-0.4,1.4-0.6,2.2-0.9c0.8-0.2,1.7-0.3,2.7-0.3c1.6,0,2.8,0.4,3.7,1.1
			s1.4,1.9,1.4,3.6v10.2H858z M858,33c-0.5-0.3-1-0.5-1.6-0.6c-0.6-0.1-1.3-0.2-2.2-0.2c-1.1,0-1.9,0.2-2.5,0.7
			c-0.6,0.5-0.9,1.2-0.9,2.1c0,1.1,0.3,1.9,0.8,2.4c0.5,0.5,1.3,0.7,2.1,0.7c0.9,0,1.8-0.2,2.5-0.6c0.7-0.4,1.3-0.9,1.7-1.6V33z"/>
		<path id="XMLID_215_" class="st0" d="M864.2,39.5V20.4l2.1-1.2v20.3H864.2z"/>
		<path id="XMLID_213_" class="st0" d="M210.8,72.9v-7.2c0-0.3,0-0.6,0-1c0-0.4,0-0.8,0-1.3s0-0.8,0-1.2c0-0.4,0-0.6,0-0.8
			c-0.1,0.4-0.3,0.9-0.6,1.5c-0.3,0.6-0.5,1.2-0.8,1.8l-4,8.7l-3.9-8.7c-0.3-0.6-0.5-1.1-0.8-1.8c-0.2-0.6-0.4-1.1-0.6-1.5
			c0,0.2,0,0.5,0,0.8c0,0.4,0,0.8,0,1.2s0,0.8,0,1.3c0,0.4,0,0.7,0,1v7.2h-3.8V53.4h3.8l4,8.8c0.1,0.3,0.3,0.6,0.4,0.9
			c0.1,0.3,0.3,0.6,0.4,0.9c0.1,0.3,0.2,0.6,0.3,0.8s0.2,0.5,0.2,0.6c0.1-0.4,0.3-0.9,0.6-1.5c0.2-0.6,0.5-1.2,0.8-1.8l3.9-8.8h3.8
			v19.5H210.8z"/>
		<path id="XMLID_210_" class="st0" d="M231,65.6c0,1.1-0.2,2.1-0.5,3.1c-0.3,0.9-0.8,1.7-1.4,2.4c-0.6,0.7-1.3,1.2-2.1,1.6
			c-0.8,0.4-1.7,0.6-2.6,0.6c-0.9,0-1.8-0.2-2.6-0.6c-0.8-0.4-1.5-0.9-2.1-1.6c-0.6-0.7-1-1.5-1.4-2.4c-0.3-0.9-0.5-2-0.5-3.1
			c0-1.1,0.2-2.1,0.5-3.1s0.8-1.7,1.4-2.4c0.6-0.7,1.3-1.2,2.1-1.6c0.8-0.4,1.7-0.6,2.6-0.6c0.9,0,1.8,0.2,2.6,0.6
			c0.8,0.4,1.5,0.9,2.1,1.6c0.6,0.7,1,1.5,1.4,2.4S231,64.5,231,65.6z M227.1,65.6c0-1.1-0.2-2.1-0.7-2.8c-0.4-0.8-1.1-1.1-2.1-1.1
			s-1.6,0.4-2,1.1c-0.4,0.7-0.7,1.7-0.7,2.8c0,1.1,0.2,2.1,0.7,2.8c0.4,0.7,1.1,1.1,2,1.1c0.5,0,0.9-0.1,1.2-0.3s0.6-0.5,0.8-0.9
			s0.4-0.8,0.5-1.3S227.1,66.1,227.1,65.6z"/>
		<path id="XMLID_207_" class="st0" d="M242.3,72.9V65c0-1.3-0.2-2.2-0.6-2.7c-0.4-0.5-1-0.7-1.8-0.7c-0.8,0-1.4,0.2-1.9,0.7
			c-0.4,0.5-0.7,1.3-0.7,2.6v8h-3.8V58.3h3.8v1c0.3-0.4,0.8-0.7,1.4-0.9c0.6-0.3,1.3-0.4,2-0.4c1.9,0,3.2,0.6,4.1,1.8
			c0.9,1.2,1.3,2.8,1.3,4.9v8.2H242.3z"/>
		<path id="XMLID_202_" class="st0" d="M261.8,65.6c0,1.1-0.2,2.1-0.5,3.1c-0.3,0.9-0.8,1.7-1.4,2.4c-0.6,0.7-1.3,1.2-2.1,1.6
			c-0.8,0.4-1.7,0.6-2.6,0.6c-0.9,0-1.8-0.2-2.6-0.6c-0.8-0.4-1.5-0.9-2.1-1.6c-0.6-0.7-1-1.5-1.4-2.4c-0.3-0.9-0.5-2-0.5-3.1
			c0-1.1,0.2-2.1,0.5-3.1s0.8-1.7,1.4-2.4c0.6-0.7,1.3-1.2,2.1-1.6c0.8-0.4,1.7-0.6,2.6-0.6c0.9,0,1.8,0.2,2.6,0.6
			c0.8,0.4,1.5,0.9,2.1,1.6c0.6,0.7,1,1.5,1.4,2.4S261.8,64.5,261.8,65.6z M257.9,65.6c0-1.1-0.2-2.1-0.7-2.8
			c-0.4-0.8-1.1-1.1-2.1-1.1c-0.9,0-1.6,0.4-2,1.1c-0.4,0.7-0.7,1.7-0.7,2.8c0,1.1,0.2,2.1,0.7,2.8c0.4,0.7,1.1,1.1,2,1.1
			c0.5,0,0.9-0.1,1.2-0.3s0.6-0.5,0.8-0.9s0.4-0.8,0.5-1.3S257.9,66.1,257.9,65.6z"/>
		<path id="XMLID_199_" class="st0" d="M272.4,72.3c-0.3,0.3-0.7,0.5-1.3,0.6c-0.5,0.2-1.1,0.3-1.7,0.3c-0.6,0-1.1-0.1-1.6-0.3
			c-0.5-0.2-0.9-0.5-1.2-0.9c-0.3-0.4-0.6-0.9-0.8-1.4c-0.2-0.5-0.3-1.1-0.3-1.8v-6.9h-2.4v-3.6h2.4v-3.8l3.8-1.9v5.7h3.5v3.6h-3.5
			v5.9c0,0.7,0.1,1.2,0.4,1.4c0.2,0.2,0.6,0.3,1.1,0.3c0.4,0,0.7-0.1,1-0.3s0.7-0.5,1.2-0.9L272.4,72.3z"/>
		<path id="XMLID_197_" class="st0" d="M284.9,72.9V65c0-1.3-0.2-2.2-0.6-2.7c-0.4-0.5-1-0.7-1.8-0.7c-0.8,0-1.4,0.2-1.9,0.7
			c-0.4,0.5-0.7,1.3-0.7,2.6v8h-3.8V54.5l3.8-1.9v6.6c0.3-0.4,0.8-0.7,1.4-0.9c0.6-0.3,1.3-0.4,2-0.4c1.9,0,3.2,0.6,4.1,1.8
			c0.9,1.2,1.3,2.8,1.3,4.9v8.2H284.9z"/>
		<path id="XMLID_193_" class="st0" d="M303.8,65.6c0,0.3,0,0.5,0,0.7s0,0.4,0,0.5h-8.8c0,0.5,0.1,0.9,0.3,1.3
			c0.2,0.4,0.4,0.6,0.7,0.8c0.3,0.2,0.6,0.4,0.9,0.5s0.7,0.2,1,0.2c0.5,0,1-0.1,1.4-0.3c0.4-0.2,0.8-0.4,1.1-0.8l2.7,2.3
			c-0.6,0.8-1.4,1.3-2.3,1.8c-1,0.4-1.9,0.6-2.9,0.6c-1.1,0-2-0.2-2.8-0.5c-0.8-0.4-1.6-0.9-2.1-1.5c-0.6-0.7-1-1.5-1.4-2.4
			c-0.3-0.9-0.5-2-0.5-3.1c0-1.1,0.2-2.1,0.5-3.1s0.8-1.7,1.4-2.4c0.6-0.7,1.3-1.2,2.1-1.6c0.8-0.4,1.6-0.6,2.6-0.6
			c1,0,1.8,0.2,2.6,0.6c0.8,0.4,1.4,0.9,1.9,1.6c0.5,0.7,0.9,1.5,1.2,2.4C303.6,63.6,303.8,64.6,303.8,65.6z M300,63.9
			c0-0.3-0.1-0.7-0.2-1c-0.1-0.3-0.3-0.6-0.5-0.8c-0.2-0.3-0.5-0.4-0.8-0.6c-0.3-0.1-0.7-0.2-1.1-0.2c-0.7,0-1.3,0.3-1.7,0.8
			c-0.4,0.5-0.7,1.1-0.7,1.9H300z"/>
		<path id="XMLID_191_" class="st0" d="M314.9,62.8c-0.3-0.3-0.7-0.5-1-0.7c-0.4-0.2-0.8-0.3-1.2-0.3c-0.4,0-0.7,0-1,0.1
			c-0.3,0.1-0.6,0.3-0.8,0.5c-0.2,0.2-0.4,0.6-0.5,1s-0.2,0.9-0.2,1.6v7.9h-3.8V58.3h3.8v1c0.3-0.4,0.7-0.7,1.2-0.9s1.1-0.4,1.8-0.4
			c0.6,0,1.2,0.1,1.6,0.3c0.5,0.2,0.8,0.5,1.1,0.7L314.9,62.8z"/>
		<path id="XMLID_187_" class="st0" d="M325.8,72.9v-1c-0.4,0.4-0.8,0.7-1.4,0.9c-0.6,0.2-1.2,0.4-1.9,0.4c-0.7,0-1.4-0.1-2-0.3
			c-0.6-0.2-1.2-0.5-1.7-1c-0.5-0.4-0.9-1-1.2-1.6s-0.5-1.4-0.5-2.3c0-0.8,0.2-1.5,0.5-2.1c0.3-0.6,0.7-1.1,1.3-1.5
			c0.5-0.4,1.2-0.7,1.9-0.9c0.7-0.2,1.5-0.3,2.3-0.3c0.7,0,1.2,0.1,1.7,0.2c0.4,0.1,0.8,0.3,1.1,0.4V63c0-0.5-0.2-1-0.5-1.3
			c-0.3-0.4-0.9-0.5-1.6-0.5c-0.4,0-0.8,0-1.2,0.1c-0.3,0-0.7,0.1-1,0.2s-0.6,0.2-0.9,0.3c-0.3,0.1-0.6,0.3-0.9,0.5l-1.5-2.7
			c0.4-0.2,0.8-0.5,1.2-0.6c0.4-0.2,0.8-0.3,1.3-0.5c0.4-0.1,0.9-0.2,1.4-0.3c0.5-0.1,1-0.1,1.6-0.1c0.9,0,1.7,0.1,2.4,0.3
			c0.7,0.2,1.3,0.6,1.9,1c0.5,0.4,0.9,1,1.2,1.6c0.3,0.6,0.4,1.4,0.4,2.2v9.8H325.8z M325.8,66.8c-0.3-0.2-0.7-0.4-1.1-0.5
			c-0.4-0.1-0.9-0.2-1.6-0.2c-0.7,0-1.3,0.2-1.7,0.5c-0.4,0.3-0.6,0.8-0.6,1.4c0,0.5,0.2,1,0.5,1.4s0.9,0.6,1.7,0.6
			c0.6,0,1.2-0.1,1.7-0.4c0.5-0.3,0.8-0.6,1-0.9V66.8z"/>
		<path id="XMLID_183_" class="st0" d="M345.4,65.8c0,1.1-0.1,2.1-0.4,3c-0.3,0.9-0.6,1.7-1.1,2.4s-1.1,1.2-1.8,1.5
			c-0.7,0.4-1.5,0.5-2.4,0.5c-0.6,0-1.2-0.1-1.8-0.3c-0.5-0.2-1-0.5-1.3-0.8v4.3l-3.8,1.9v-20h3.8v0.9c0.4-0.3,0.8-0.6,1.3-0.8
			s1.1-0.4,1.8-0.4c0.8,0,1.5,0.1,2.2,0.4c0.7,0.3,1.3,0.8,1.8,1.4c0.5,0.6,0.9,1.5,1.2,2.4C345.2,63.2,345.4,64.4,345.4,65.8z
			 M341.5,65.8c0-1.5-0.2-2.6-0.7-3.3c-0.5-0.7-1.1-1-1.8-1c-0.6,0-1.1,0.1-1.4,0.3c-0.4,0.2-0.7,0.5-0.9,0.9v5.5
			c0.6,0.8,1.5,1.3,2.6,1.3C340.7,69.6,341.5,68.3,341.5,65.8z"/>
		<path id="XMLID_180_" class="st0" d="M354.3,78h-3.8l1.9-5.1l-5.7-14.6h4.2l2.4,7c0.2,0.6,0.4,1.1,0.6,1.8
			c0.2,0.6,0.3,1.1,0.4,1.4c0.1-0.4,0.2-0.9,0.4-1.4c0.2-0.6,0.4-1.2,0.6-1.8l2.4-7h4.1L354.3,78z"/>
		<path id="XMLID_177_" class="st0" d="M375.7,54.6c-0.4,0-0.8,0.1-1.1,0.3s-0.4,0.6-0.4,1.2v2.2h2.9v1.8h-2.9v12.8h-2.1V60.1h-2
			v-1.8h2v-2c0-1.3,0.3-2.2,1-2.8c0.6-0.5,1.5-0.8,2.5-0.8c0.4,0,0.8,0,1,0.1c0.3,0,0.5,0.1,0.8,0.2v2
			C376.9,54.7,376.4,54.6,375.7,54.6z"/>
		<path id="XMLID_173_" class="st0" d="M392.5,65.5c0,1.2-0.2,2.3-0.5,3.3c-0.3,1-0.8,1.8-1.4,2.4c-0.6,0.7-1.3,1.2-2,1.5
			s-1.6,0.5-2.5,0.5c-0.9,0-1.7-0.2-2.5-0.5c-0.8-0.3-1.4-0.8-2-1.4c-0.6-0.6-1-1.4-1.3-2.4c-0.3-0.9-0.5-2-0.5-3.3
			c0-1.2,0.2-2.3,0.5-3.3c0.3-0.9,0.8-1.7,1.4-2.4s1.3-1.1,2-1.5c0.8-0.3,1.6-0.5,2.5-0.5s1.7,0.2,2.5,0.5c0.8,0.3,1.4,0.8,2,1.4
			c0.6,0.6,1,1.4,1.3,2.4C392.3,63.1,392.5,64.2,392.5,65.5z M390.4,65.5c0-1.9-0.4-3.4-1.2-4.3c-0.8-1-1.8-1.4-3.1-1.4
			c-1.3,0-2.3,0.5-3.1,1.4c-0.8,1-1.2,2.4-1.2,4.3c0,1.9,0.4,3.4,1.2,4.4c0.8,1,1.8,1.5,3.1,1.5c1.3,0,2.3-0.5,3.1-1.5
			C390,68.9,390.4,67.5,390.4,65.5z"/>
		<path id="XMLID_171_" class="st0" d="M403.3,60.4c-0.3-0.2-0.6-0.3-1-0.4c-0.3-0.1-0.8-0.2-1.2-0.2c-1,0-1.8,0.4-2.4,1.2
			c-0.5,0.8-0.8,1.9-0.8,3.3v8.6h-2.1V58.3h2.1v1.8c0.3-0.6,0.8-1.1,1.5-1.5c0.6-0.4,1.4-0.6,2.1-0.6c0.5,0,1,0,1.3,0.1
			c0.4,0.1,0.7,0.2,0.9,0.3L403.3,60.4z"/>
		<path id="XMLID_168_" class="st0" d="M421.8,72.9v-1.8c-0.5,0.6-1.1,1-1.9,1.5c-0.7,0.4-1.6,0.6-2.7,0.6c-0.6,0-1.1-0.1-1.7-0.2
			c-0.6-0.2-1.1-0.4-1.5-0.8c-0.4-0.4-0.8-0.8-1.1-1.4c-0.3-0.6-0.4-1.3-0.4-2.2c0-0.8,0.2-1.5,0.5-2.1c0.3-0.6,0.7-1.1,1.2-1.5
			c0.5-0.4,1.1-0.7,1.8-0.8c0.7-0.2,1.4-0.3,2.1-0.3c0.7,0,1.4,0.1,2.1,0.2c0.6,0.2,1.2,0.4,1.6,0.6V63c0-2.1-1.1-3.2-3.2-3.2
			c-0.8,0-1.5,0.1-2.1,0.3s-1.3,0.5-1.8,0.8l-0.8-1.7c0.6-0.4,1.4-0.6,2.2-0.9c0.8-0.2,1.7-0.3,2.7-0.3c1.6,0,2.8,0.4,3.7,1.1
			c0.9,0.7,1.4,1.9,1.4,3.6v10.2H421.8z M421.8,66.3c-0.5-0.3-1-0.5-1.6-0.6c-0.6-0.1-1.3-0.2-2.2-0.2c-1.1,0-1.9,0.2-2.5,0.7
			c-0.6,0.5-0.9,1.2-0.9,2.1c0,1.1,0.3,1.9,0.8,2.4c0.5,0.5,1.3,0.7,2.1,0.7c0.9,0,1.8-0.2,2.5-0.6c0.7-0.4,1.3-0.9,1.7-1.6V66.3z"
			/>
		<path id="XMLID_164_" class="st0" d="M436.8,72.9v-1.8c-0.5,0.6-1.1,1-1.8,1.5c-0.7,0.4-1.6,0.6-2.6,0.6c-0.7,0-1.4-0.1-2-0.4
			c-0.6-0.3-1.2-0.7-1.7-1.3c-0.5-0.6-0.8-1.4-1.1-2.3s-0.4-2-0.4-3.3c0-1.3,0.1-2.4,0.4-3.4c0.3-1,0.7-1.8,1.2-2.4
			c0.5-0.7,1.1-1.2,1.8-1.5c0.7-0.3,1.4-0.5,2.1-0.5c0.9,0,1.7,0.2,2.4,0.5c0.6,0.4,1.2,0.8,1.8,1.4v-6.1l2.1-1.2v20.3H436.8z
			 M436.8,62c-0.4-0.6-1-1.1-1.6-1.6c-0.7-0.4-1.5-0.6-2.3-0.6c-1.2,0-2.1,0.5-2.7,1.5c-0.6,1-0.9,2.5-0.9,4.5c0,1.9,0.3,3.3,1,4.2
			c0.6,0.9,1.6,1.4,2.7,1.4c0.8,0,1.5-0.2,2.1-0.6c0.6-0.4,1.2-0.9,1.7-1.6V62z"/>
		<path id="XMLID_162_" class="st0" d="M452.1,72.9v-1.8c-0.4,0.6-1,1.1-1.6,1.5c-0.7,0.4-1.5,0.6-2.4,0.6c-0.8,0-1.5-0.1-2.1-0.3
			c-0.6-0.2-1.2-0.6-1.6-1.1c-0.4-0.5-0.8-1.1-1-1.9c-0.2-0.8-0.4-1.7-0.4-2.7v-8.9h2.1v8.6c0,1.6,0.3,2.7,0.8,3.5
			c0.6,0.7,1.4,1.1,2.6,1.1c1,0,1.9-0.4,2.6-1.1c0.7-0.7,1-1.9,1-3.5v-8.6h2.1v14.6H452.1z"/>
		<path id="XMLID_159_" class="st0" d="M458.5,72.9V53.8l2.1-1.2v20.3H458.5z"/>
		<path id="XMLID_157_" class="st0" d="M467.5,60.1v9.5c0,0.6,0.1,1.1,0.3,1.4s0.6,0.4,1.2,0.4c0.4,0,0.8,0,1.1-0.1
			c0.3-0.1,0.6-0.2,1-0.3l-0.1,1.8c-0.4,0.2-0.8,0.3-1.2,0.4c-0.4,0.1-0.9,0.1-1.5,0.1c-0.9,0-1.6-0.2-2.1-0.7
			c-0.5-0.5-0.7-1.3-0.7-2.6v-9.8h-1.8v-1.8h1.8v-4.5l2.1-1.2v5.7h3.6v1.8H467.5z"/>
		<path id="XMLID_155_" class="st0" d="M483.8,69.1c0,0.7-0.1,1.3-0.4,1.9c-0.3,0.5-0.7,0.9-1.1,1.3c-0.5,0.3-1,0.6-1.6,0.7
			c-0.6,0.2-1.2,0.2-1.9,0.2c-1,0-1.9-0.2-2.8-0.5c-0.9-0.3-1.6-0.8-2.4-1.3l1.2-1.5c0.6,0.5,1.2,0.9,1.9,1.2
			c0.7,0.3,1.4,0.4,2.1,0.4c1,0,1.7-0.2,2.2-0.6c0.5-0.4,0.7-1,0.7-1.7c0-0.3-0.1-0.6-0.2-0.8s-0.3-0.5-0.6-0.7s-0.6-0.5-1.1-0.7
			c-0.4-0.2-1-0.5-1.6-0.8c-0.7-0.3-1.3-0.6-1.9-0.9s-1-0.6-1.3-0.9c-0.3-0.3-0.6-0.7-0.7-1.1s-0.2-0.9-0.2-1.5
			c0-0.6,0.1-1.1,0.3-1.5c0.2-0.5,0.5-0.8,0.9-1.2c0.4-0.3,0.9-0.6,1.4-0.8c0.6-0.2,1.2-0.3,1.8-0.3c1,0,1.9,0.1,2.7,0.4
			c0.8,0.3,1.4,0.7,2,1.1l-1.2,1.5c-0.6-0.4-1.1-0.8-1.7-1c-0.5-0.2-1.2-0.3-2-0.3c-0.8,0-1.4,0.2-1.8,0.5c-0.4,0.3-0.6,0.8-0.6,1.3
			c0,0.3,0.1,0.6,0.2,0.8s0.3,0.4,0.5,0.7c0.3,0.2,0.6,0.4,1,0.6c0.4,0.2,0.9,0.5,1.5,0.7c0.7,0.3,1.3,0.6,1.8,0.9
			c0.5,0.3,1,0.6,1.4,0.9c0.4,0.3,0.7,0.7,0.9,1.2S483.8,68.4,483.8,69.1z"/>
		<path id="XMLID_153_" class="st0" d="M506.8,72.9h-1.9l-2.6-9.8c0-0.1-0.1-0.3-0.1-0.5s-0.1-0.4-0.1-0.6c0-0.2-0.1-0.4-0.1-0.6
			c0-0.2-0.1-0.3-0.1-0.5c0,0.1,0,0.3-0.1,0.5s-0.1,0.4-0.1,0.6c0,0.2-0.1,0.4-0.1,0.6s-0.1,0.3-0.1,0.5l-2.6,9.8h-1.9L493,58.3h2.1
			l2.3,9.7c0,0.1,0,0.3,0.1,0.5c0,0.2,0.1,0.4,0.1,0.6c0,0.2,0.1,0.4,0.1,0.6c0,0.2,0.1,0.3,0.1,0.5c0-0.1,0.1-0.3,0.1-0.5
			c0-0.2,0.1-0.4,0.1-0.6s0.1-0.4,0.1-0.6c0-0.2,0.1-0.3,0.1-0.5l2.6-9.7h1.9l2.6,9.7c0,0.1,0.1,0.3,0.1,0.5c0,0.2,0.1,0.4,0.1,0.6
			c0,0.2,0.1,0.4,0.1,0.6c0,0.2,0.1,0.3,0.1,0.5c0-0.1,0-0.3,0.1-0.5c0-0.2,0.1-0.4,0.1-0.6c0-0.2,0.1-0.4,0.1-0.6
			c0-0.2,0.1-0.3,0.1-0.5l2.3-9.7h2.1L506.8,72.9z"/>
		<path id="XMLID_150_" class="st0" d="M516.5,54.2c0,0.4-0.1,0.8-0.4,1c-0.3,0.3-0.6,0.4-1,0.4c-0.4,0-0.8-0.1-1.1-0.4
			c-0.3-0.3-0.4-0.6-0.4-1c0-0.4,0.1-0.8,0.4-1.1c0.3-0.3,0.7-0.4,1.1-0.4c0.4,0,0.7,0.1,1,0.4C516.4,53.4,516.5,53.8,516.5,54.2z
			 M514,72.9V58.3h2.1v14.6H514z"/>
		<path id="XMLID_148_" class="st0" d="M523,60.1v9.5c0,0.6,0.1,1.1,0.3,1.4s0.6,0.4,1.2,0.4c0.4,0,0.8,0,1.1-0.1
			c0.3-0.1,0.6-0.2,1-0.3l-0.1,1.8c-0.4,0.2-0.8,0.3-1.2,0.4c-0.4,0.1-0.9,0.1-1.5,0.1c-0.9,0-1.6-0.2-2.1-0.7
			c-0.5-0.5-0.7-1.3-0.7-2.6v-9.8h-1.8v-1.8h1.8v-4.5l2.1-1.2v5.7h3.6v1.8H523z"/>
		<path id="XMLID_146_" class="st0" d="M539.4,72.9v-8.6c0-1.6-0.3-2.7-0.8-3.5c-0.6-0.7-1.4-1.1-2.6-1.1c-1,0-1.9,0.4-2.6,1.1
			c-0.7,0.7-1,1.9-1,3.5v8.6h-2.1V53.8l2.1-1.2l0,7.5c0.4-0.6,1-1.1,1.6-1.5c0.7-0.4,1.5-0.6,2.4-0.6c0.8,0,1.5,0.1,2.1,0.3
			c0.6,0.2,1.2,0.6,1.6,1.1c0.4,0.5,0.8,1.1,1,1.9c0.2,0.8,0.4,1.7,0.4,2.7v8.9H539.4z"/>
		<path id="XMLID_143_" class="st0" d="M564,65.3c0,1.3-0.1,2.4-0.4,3.4c-0.3,1-0.7,1.8-1.2,2.4c-0.5,0.7-1.1,1.2-1.7,1.5
			s-1.4,0.5-2.1,0.5c-0.9,0-1.7-0.2-2.4-0.5c-0.6-0.4-1.2-0.8-1.7-1.4v5.8l-2.1,1.2v-20h2.1l0,1.8c0.5-0.6,1.1-1,1.8-1.5
			s1.6-0.6,2.6-0.6c0.7,0,1.4,0.1,2,0.4c0.6,0.3,1.2,0.7,1.7,1.3s0.8,1.4,1.1,2.3C563.9,63,564,64.1,564,65.3z M561.9,65.4
			c0-1.9-0.3-3.3-1-4.2c-0.6-0.9-1.6-1.4-2.7-1.4c-0.8,0-1.5,0.2-2.1,0.6c-0.6,0.4-1.2,0.9-1.7,1.6v7.3c0.4,0.6,0.9,1.1,1.6,1.6
			c0.7,0.4,1.4,0.6,2.3,0.6c1.2,0,2.1-0.5,2.7-1.5C561.6,68.8,561.9,67.3,561.9,65.4z"/>
		<path id="XMLID_140_" class="st0" d="M575.7,72.9v-1.8c-0.5,0.6-1.1,1-1.9,1.5c-0.7,0.4-1.6,0.6-2.7,0.6c-0.6,0-1.1-0.1-1.7-0.2
			c-0.6-0.2-1.1-0.4-1.5-0.8c-0.4-0.4-0.8-0.8-1.1-1.4c-0.3-0.6-0.4-1.3-0.4-2.2c0-0.8,0.2-1.5,0.5-2.1c0.3-0.6,0.7-1.1,1.2-1.5
			c0.5-0.4,1.1-0.7,1.8-0.8c0.7-0.2,1.4-0.3,2.1-0.3c0.7,0,1.4,0.1,2.1,0.2c0.6,0.2,1.2,0.4,1.6,0.6V63c0-2.1-1.1-3.2-3.2-3.2
			c-0.8,0-1.5,0.1-2.1,0.3s-1.3,0.5-1.8,0.8l-0.8-1.7c0.6-0.4,1.4-0.6,2.2-0.9c0.8-0.2,1.7-0.3,2.7-0.3c1.6,0,2.8,0.4,3.7,1.1
			c0.9,0.7,1.4,1.9,1.4,3.6v10.2H575.7z M575.7,66.3c-0.5-0.3-1-0.5-1.6-0.6c-0.6-0.1-1.3-0.2-2.2-0.2c-1.1,0-1.9,0.2-2.5,0.7
			c-0.6,0.5-0.9,1.2-0.9,2.1c0,1.1,0.3,1.9,0.8,2.4c0.5,0.5,1.3,0.7,2.1,0.7c0.9,0,1.8-0.2,2.5-0.6c0.7-0.4,1.3-0.9,1.7-1.6V66.3z"
			/>
		<path id="XMLID_138_" class="st0" d="M589.4,60.4c-0.3-0.2-0.6-0.3-1-0.4c-0.3-0.1-0.8-0.2-1.2-0.2c-1,0-1.8,0.4-2.4,1.2
			c-0.5,0.8-0.8,1.9-0.8,3.3v8.6h-2.1V58.3h2.1v1.8c0.3-0.6,0.8-1.1,1.5-1.5c0.6-0.4,1.4-0.6,2.1-0.6c0.5,0,1,0,1.3,0.1
			c0.4,0.1,0.7,0.2,0.9,0.3L589.4,60.4z"/>
		<path id="XMLID_136_" class="st0" d="M595.4,60.1v9.5c0,0.6,0.1,1.1,0.3,1.4s0.6,0.4,1.2,0.4c0.4,0,0.8,0,1.1-0.1
			c0.3-0.1,0.6-0.2,1-0.3l-0.1,1.8c-0.4,0.2-0.8,0.3-1.2,0.4c-0.4,0.1-0.9,0.1-1.5,0.1c-0.9,0-1.6-0.2-2.1-0.7s-0.7-1.3-0.7-2.6
			v-9.8h-1.8v-1.8h1.8v-4.5l2.1-1.2v5.7h3.6v1.8H595.4z"/>
		<path id="XMLID_133_" class="st0" d="M605.3,54.2c0,0.4-0.1,0.8-0.4,1c-0.3,0.3-0.6,0.4-1,0.4c-0.4,0-0.8-0.1-1.1-0.4
			s-0.4-0.6-0.4-1c0-0.4,0.1-0.8,0.4-1.1c0.3-0.3,0.7-0.4,1.1-0.4c0.4,0,0.7,0.1,1,0.4C605.2,53.4,605.3,53.8,605.3,54.2z
			 M602.8,72.9V58.3h2.1v14.6H602.8z"/>
		<path id="XMLID_130_" class="st0" d="M617.5,72.9v-1.8c-0.5,0.6-1.1,1-1.9,1.5c-0.7,0.4-1.6,0.6-2.7,0.6c-0.6,0-1.1-0.1-1.7-0.2
			c-0.6-0.2-1.1-0.4-1.5-0.8s-0.8-0.8-1.1-1.4c-0.3-0.6-0.4-1.3-0.4-2.2c0-0.8,0.2-1.5,0.5-2.1s0.7-1.1,1.2-1.5
			c0.5-0.4,1.1-0.7,1.8-0.8c0.7-0.2,1.4-0.3,2.1-0.3c0.7,0,1.4,0.1,2.1,0.2c0.6,0.2,1.2,0.4,1.6,0.6V63c0-2.1-1.1-3.2-3.2-3.2
			c-0.8,0-1.5,0.1-2.1,0.3s-1.3,0.5-1.8,0.8l-0.8-1.7c0.6-0.4,1.4-0.6,2.2-0.9c0.8-0.2,1.7-0.3,2.7-0.3c1.6,0,2.8,0.4,3.7,1.1
			s1.4,1.9,1.4,3.6v10.2H617.5z M617.5,66.3c-0.5-0.3-1-0.5-1.6-0.6c-0.6-0.1-1.3-0.2-2.2-0.2c-1.1,0-1.9,0.2-2.5,0.7
			c-0.6,0.5-0.9,1.2-0.9,2.1c0,1.1,0.3,1.9,0.8,2.4c0.5,0.5,1.3,0.7,2.1,0.7c0.9,0,1.8-0.2,2.5-0.6c0.7-0.4,1.3-0.9,1.7-1.6V66.3z"
			/>
		<path id="XMLID_128_" class="st0" d="M623.8,72.9V53.8l2.1-1.2v20.3H623.8z"/>
		<path id="XMLID_125_" class="st0" d="M648.9,65.5c0,1.2-0.2,2.3-0.5,3.3c-0.3,1-0.8,1.8-1.4,2.4c-0.6,0.7-1.3,1.2-2,1.5
			c-0.8,0.3-1.6,0.5-2.5,0.5s-1.7-0.2-2.5-0.5c-0.8-0.3-1.4-0.8-2-1.4c-0.6-0.6-1-1.4-1.3-2.4c-0.3-0.9-0.5-2-0.5-3.3
			c0-1.2,0.2-2.3,0.5-3.3c0.3-0.9,0.8-1.7,1.4-2.4s1.3-1.1,2-1.5c0.8-0.3,1.6-0.5,2.5-0.5c0.9,0,1.7,0.2,2.5,0.5
			c0.8,0.3,1.4,0.8,2,1.4c0.6,0.6,1,1.4,1.3,2.4C648.7,63.1,648.9,64.2,648.9,65.5z M646.8,65.5c0-1.9-0.4-3.4-1.2-4.3
			s-1.8-1.4-3.1-1.4c-1.3,0-2.3,0.5-3.1,1.4c-0.8,1-1.2,2.4-1.2,4.3c0,1.9,0.4,3.4,1.2,4.4c0.8,1,1.8,1.5,3.1,1.5
			c1.3,0,2.3-0.5,3.1-1.5C646.4,68.9,646.8,67.5,646.8,65.5z"/>
		<path id="XMLID_123_" class="st0" d="M661.4,72.9v-8.6c0-1.6-0.3-2.7-0.8-3.5s-1.4-1.1-2.6-1.1c-1,0-1.9,0.4-2.6,1.1
			c-0.7,0.7-1,1.9-1,3.5v8.6h-2.1V58.3h2.1l0,1.8c0.4-0.6,1-1.1,1.6-1.5c0.7-0.4,1.5-0.6,2.4-0.6c0.8,0,1.5,0.1,2.1,0.3
			c0.6,0.2,1.2,0.6,1.6,1.1c0.4,0.5,0.8,1.1,1,1.9c0.2,0.8,0.4,1.7,0.4,2.7v8.9H661.4z"/>
		<path id="XMLID_121_" class="st0" d="M676.6,69.1c0,0.7-0.1,1.3-0.4,1.9c-0.3,0.5-0.7,0.9-1.1,1.3c-0.5,0.3-1,0.6-1.6,0.7
			c-0.6,0.2-1.2,0.2-1.9,0.2c-1,0-1.9-0.2-2.8-0.5c-0.9-0.3-1.6-0.8-2.4-1.3l1.2-1.5c0.6,0.5,1.2,0.9,1.9,1.2s1.4,0.4,2.1,0.4
			c1,0,1.7-0.2,2.2-0.6s0.7-1,0.7-1.7c0-0.3-0.1-0.6-0.2-0.8c-0.1-0.2-0.3-0.5-0.6-0.7c-0.3-0.2-0.6-0.5-1.1-0.7s-1-0.5-1.6-0.8
			c-0.7-0.3-1.3-0.6-1.9-0.9s-1-0.6-1.3-0.9s-0.6-0.7-0.7-1.1s-0.2-0.9-0.2-1.5c0-0.6,0.1-1.1,0.3-1.5c0.2-0.5,0.5-0.8,0.9-1.2
			c0.4-0.3,0.9-0.6,1.4-0.8c0.6-0.2,1.2-0.3,1.8-0.3c1,0,1.9,0.1,2.7,0.4s1.4,0.7,2,1.1l-1.2,1.5c-0.6-0.4-1.1-0.8-1.7-1
			c-0.5-0.2-1.2-0.3-2-0.3s-1.4,0.2-1.8,0.5c-0.4,0.3-0.6,0.8-0.6,1.3c0,0.3,0.1,0.6,0.2,0.8c0.1,0.2,0.3,0.4,0.5,0.7
			c0.3,0.2,0.6,0.4,1,0.6c0.4,0.2,0.9,0.5,1.5,0.7c0.7,0.3,1.3,0.6,1.8,0.9c0.5,0.3,1,0.6,1.4,0.9c0.4,0.3,0.7,0.7,0.9,1.2
			C676.5,67.9,676.6,68.4,676.6,69.1z"/>
		<path id="XMLID_118_" class="st0" d="M691.1,65.1c0,0.3,0,0.5,0,0.6c0,0.2,0,0.3-0.1,0.5h-9.7c0.1,1.6,0.5,2.8,1.2,3.7
			c0.7,0.9,1.7,1.4,2.9,1.4c0.9,0,1.6-0.1,2.2-0.4c0.6-0.2,1.2-0.6,1.9-1l1,1.5c-0.4,0.3-0.9,0.5-1.3,0.7c-0.4,0.2-0.8,0.4-1.2,0.5
			c-0.4,0.1-0.8,0.2-1.3,0.3c-0.4,0.1-0.9,0.1-1.5,0.1c-0.7,0-1.4-0.1-2.1-0.4s-1.3-0.7-1.9-1.3c-0.6-0.6-1-1.4-1.4-2.4
			c-0.4-1-0.6-2.2-0.6-3.6c0-1.2,0.2-2.2,0.5-3.1c0.3-0.9,0.7-1.7,1.3-2.4s1.2-1.1,1.9-1.5c0.7-0.4,1.5-0.5,2.4-0.5
			c0.9,0,1.8,0.2,2.5,0.5c0.7,0.4,1.3,0.8,1.8,1.5s0.9,1.4,1.1,2.3C691,63.1,691.1,64.1,691.1,65.1z M689.2,64.6
			c-0.1-1.4-0.5-2.6-1.1-3.5c-0.6-0.9-1.6-1.3-2.9-1.3c-1.1,0-2,0.4-2.7,1.2c-0.7,0.8-1.1,2-1.2,3.7H689.2z"/>
		<path id="XMLID_116_" class="st0" d="M697.3,60.1v9.5c0,0.6,0.1,1.1,0.3,1.4s0.6,0.4,1.2,0.4c0.4,0,0.8,0,1.1-0.1
			c0.3-0.1,0.6-0.2,1-0.3l-0.1,1.8c-0.4,0.2-0.8,0.3-1.2,0.4c-0.4,0.1-0.9,0.1-1.5,0.1c-0.9,0-1.6-0.2-2.1-0.7s-0.7-1.3-0.7-2.6
			v-9.8h-1.8v-1.8h1.8v-4.5l2.1-1.2v5.7h3.6v1.8H697.3z"/>
		<path id="XMLID_114_" class="st0" d="M720.3,69.1c0,0.7-0.1,1.3-0.4,1.9c-0.3,0.5-0.7,0.9-1.1,1.3c-0.5,0.3-1,0.6-1.6,0.7
			c-0.6,0.2-1.2,0.2-1.9,0.2c-1,0-1.9-0.2-2.8-0.5c-0.9-0.3-1.6-0.8-2.4-1.3l1.2-1.5c0.6,0.5,1.2,0.9,1.9,1.2s1.4,0.4,2.1,0.4
			c1,0,1.7-0.2,2.2-0.6s0.7-1,0.7-1.7c0-0.3-0.1-0.6-0.2-0.8c-0.1-0.2-0.3-0.5-0.6-0.7c-0.3-0.2-0.6-0.5-1.1-0.7s-1-0.5-1.6-0.8
			c-0.7-0.3-1.3-0.6-1.9-0.9s-1-0.6-1.3-0.9s-0.6-0.7-0.7-1.1s-0.2-0.9-0.2-1.5c0-0.6,0.1-1.1,0.3-1.5c0.2-0.5,0.5-0.8,0.9-1.2
			c0.4-0.3,0.9-0.6,1.4-0.8c0.6-0.2,1.2-0.3,1.8-0.3c1,0,1.9,0.1,2.7,0.4s1.4,0.7,2,1.1l-1.2,1.5c-0.6-0.4-1.1-0.8-1.7-1
			c-0.5-0.2-1.2-0.3-2-0.3s-1.4,0.2-1.8,0.5c-0.4,0.3-0.6,0.8-0.6,1.3c0,0.3,0.1,0.6,0.2,0.8c0.1,0.2,0.3,0.4,0.5,0.7
			c0.3,0.2,0.6,0.4,1,0.6c0.4,0.2,0.9,0.5,1.5,0.7c0.7,0.3,1.3,0.6,1.8,0.9c0.5,0.3,1,0.6,1.4,0.9c0.4,0.3,0.7,0.7,0.9,1.2
			C720.2,67.9,720.3,68.4,720.3,69.1z"/>
		<path id="XMLID_111_" class="st0" d="M734.8,65.1c0,0.3,0,0.5,0,0.6c0,0.2,0,0.3-0.1,0.5h-9.7c0.1,1.6,0.5,2.8,1.2,3.7
			c0.7,0.9,1.7,1.4,2.9,1.4c0.9,0,1.6-0.1,2.2-0.4c0.6-0.2,1.2-0.6,1.9-1l1,1.5c-0.4,0.3-0.9,0.5-1.3,0.7c-0.4,0.2-0.8,0.4-1.2,0.5
			c-0.4,0.1-0.8,0.2-1.3,0.3c-0.4,0.1-0.9,0.1-1.5,0.1c-0.7,0-1.4-0.1-2.1-0.4s-1.3-0.7-1.9-1.3c-0.6-0.6-1-1.4-1.4-2.4
			c-0.4-1-0.6-2.2-0.6-3.6c0-1.2,0.2-2.2,0.5-3.1c0.3-0.9,0.7-1.7,1.3-2.4s1.2-1.1,1.9-1.5c0.7-0.4,1.5-0.5,2.4-0.5
			c0.9,0,1.8,0.2,2.5,0.5c0.7,0.4,1.3,0.8,1.8,1.5s0.9,1.4,1.1,2.3C734.7,63.1,734.8,64.1,734.8,65.1z M732.9,64.6
			c-0.1-1.4-0.5-2.6-1.1-3.5c-0.6-0.9-1.6-1.3-2.9-1.3c-1.1,0-2,0.4-2.7,1.2c-0.7,0.8-1.1,2-1.2,3.7H732.9z"/>
		<path id="XMLID_108_" class="st0" d="M741,54.2c0,0.4-0.1,0.8-0.4,1c-0.3,0.3-0.6,0.4-1,0.4c-0.4,0-0.8-0.1-1.1-0.4
			s-0.4-0.6-0.4-1c0-0.4,0.1-0.8,0.4-1.1c0.3-0.3,0.7-0.4,1.1-0.4c0.4,0,0.7,0.1,1,0.4C740.8,53.4,741,53.8,741,54.2z M738.4,72.9
			V58.3h2.1v14.6H738.4z"/>
		<path id="XMLID_106_" class="st0" d="M744,72.9v-1.5l8-11.3h-7.3v-1.8h9.7v1.5l-8,11.3h8v1.8H744z"/>
		<path id="XMLID_104_" class="st0" d="M767.1,72.9v-1.8c-0.4,0.6-1,1.1-1.6,1.5s-1.5,0.6-2.4,0.6c-0.8,0-1.5-0.1-2.1-0.3
			c-0.6-0.2-1.2-0.6-1.6-1.1c-0.4-0.5-0.8-1.1-1-1.9c-0.2-0.8-0.4-1.7-0.4-2.7v-8.9h2.1v8.6c0,1.6,0.3,2.7,0.8,3.5
			c0.6,0.7,1.4,1.1,2.6,1.1c1,0,1.9-0.4,2.6-1.1c0.7-0.7,1-1.9,1-3.5v-8.6h2.1v14.6H767.1z"/>
		<path id="XMLID_102_" class="st0" d="M780.8,60.4c-0.3-0.2-0.6-0.3-1-0.4c-0.3-0.1-0.8-0.2-1.2-0.2c-1,0-1.8,0.4-2.4,1.2
			c-0.5,0.8-0.8,1.9-0.8,3.3v8.6h-2.1V58.3h2.1v1.8c0.3-0.6,0.8-1.1,1.5-1.5c0.6-0.4,1.4-0.6,2.1-0.6c0.5,0,1,0,1.3,0.1
			c0.4,0.1,0.7,0.2,0.9,0.3L780.8,60.4z"/>
		<path id="XMLID_99_" class="st0" d="M795.3,65.1c0,0.3,0,0.5,0,0.6c0,0.2,0,0.3-0.1,0.5h-9.7c0.1,1.6,0.5,2.8,1.2,3.7
			c0.7,0.9,1.7,1.4,2.9,1.4c0.9,0,1.6-0.1,2.2-0.4c0.6-0.2,1.2-0.6,1.9-1l1,1.5c-0.4,0.3-0.9,0.5-1.3,0.7c-0.4,0.2-0.8,0.4-1.2,0.5
			c-0.4,0.1-0.8,0.2-1.3,0.3c-0.4,0.1-0.9,0.1-1.5,0.1c-0.7,0-1.4-0.1-2.1-0.4s-1.3-0.7-1.9-1.3c-0.6-0.6-1-1.4-1.4-2.4
			c-0.4-1-0.6-2.2-0.6-3.6c0-1.2,0.2-2.2,0.5-3.1c0.3-0.9,0.7-1.7,1.3-2.4s1.2-1.1,1.9-1.5c0.7-0.4,1.5-0.5,2.4-0.5
			c0.9,0,1.8,0.2,2.5,0.5c0.7,0.4,1.3,0.8,1.8,1.5s0.9,1.4,1.1,2.3C795.1,63.1,795.3,64.1,795.3,65.1z M793.4,64.6
			c-0.1-1.4-0.5-2.6-1.1-3.5c-0.6-0.9-1.6-1.3-2.9-1.3c-1.1,0-2,0.4-2.7,1.2c-0.7,0.8-1.1,2-1.2,3.7H793.4z"/>
		<path id="XMLID_97_" class="st0" d="M807.8,69.1c0,0.7-0.1,1.3-0.4,1.9c-0.3,0.5-0.7,0.9-1.1,1.3c-0.5,0.3-1,0.6-1.6,0.7
			c-0.6,0.2-1.2,0.2-1.9,0.2c-1,0-1.9-0.2-2.8-0.5c-0.9-0.3-1.6-0.8-2.4-1.3l1.2-1.5c0.6,0.5,1.2,0.9,1.9,1.2s1.4,0.4,2.1,0.4
			c1,0,1.7-0.2,2.2-0.6s0.7-1,0.7-1.7c0-0.3-0.1-0.6-0.2-0.8c-0.1-0.2-0.3-0.5-0.6-0.7c-0.3-0.2-0.6-0.5-1.1-0.7s-1-0.5-1.6-0.8
			c-0.7-0.3-1.3-0.6-1.9-0.9s-1-0.6-1.3-0.9s-0.6-0.7-0.7-1.1s-0.2-0.9-0.2-1.5c0-0.6,0.1-1.1,0.3-1.5c0.2-0.5,0.5-0.8,0.9-1.2
			c0.4-0.3,0.9-0.6,1.4-0.8c0.6-0.2,1.2-0.3,1.8-0.3c1,0,1.9,0.1,2.7,0.4s1.4,0.7,2,1.1l-1.2,1.5c-0.6-0.4-1.1-0.8-1.7-1
			c-0.5-0.2-1.2-0.3-2-0.3s-1.4,0.2-1.8,0.5c-0.4,0.3-0.6,0.8-0.6,1.3c0,0.3,0.1,0.6,0.2,0.8c0.1,0.2,0.3,0.4,0.5,0.7
			c0.3,0.2,0.6,0.4,1,0.6c0.4,0.2,0.9,0.5,1.5,0.7c0.7,0.3,1.3,0.6,1.8,0.9c0.5,0.3,1,0.6,1.4,0.9c0.4,0.3,0.7,0.7,0.9,1.2
			C807.7,67.9,807.8,68.4,807.8,69.1z"/>
	</g>
</g>
<linearGradient id="XMLID_561_" gradientUnits="userSpaceOnUse" x1="0" y1="44.0445" x2="182.5939" y2="44.0445">
	<stop  offset="0" style="stop-color:#4B257A"/>
	<stop  offset="1" style="stop-color:#964C8E"/>
</linearGradient>
<rect id="XMLID_93_" y="0.5" class="st1" width="182.6" height="87.1"/>
<g id="XMLID_2_">
	<polygon id="XMLID_92_" class="st2" points="24.8,46.4 18.3,34.9 15.1,38.8 15.1,46.4 10.2,46.4 10.2,21.2 15.1,21.2 15.1,32.2 
		23.9,21.2 29.9,21.2 21.6,31.2 30.5,46.4 	"/>
	<path id="XMLID_89_" class="st2" d="M64.5,25.6h-4.6v6.9h4.6c2.2,0,3.6-1.4,3.6-3.4C68.1,27,66.7,25.6,64.5,25.6 M64.7,36.9h-4.8
		v9.5H55V21.2h9.7c5.2,0,8.3,3.6,8.3,7.8C73,33.3,69.9,36.9,64.7,36.9"/>
	<path id="XMLID_55_" class="st2" d="M86.7,25.6h-4.6v6.6h4.6c2.2,0,3.6-1.4,3.6-3.3C90.2,27,88.8,25.6,86.7,25.6 M90.5,46.4
		l-4.9-10h-3.5v10h-4.9V21.2H87c5.1,0,8.1,3.5,8.1,7.7c0,3.5-2.2,5.7-4.6,6.6l5.6,10.8H90.5z"/>
	<path id="XMLID_42_" class="st2" d="M108.7,28.6l-3.2,9.1h6.2L108.7,28.6z M114.5,46.4l-1.5-4.4h-8.9l-1.5,4.4h-5.1l9.1-25.1h3.8
		l9.2,25.1H114.5z"/>
	<path id="XMLID_39_" class="st2" d="M135,27.2c-0.8-1-2-1.6-3.7-1.6h-3.7V42h3.7c1.7,0,2.8-0.5,3.7-1.6c0.9-1.1,1.1-2.9,1.1-6.7
		C136.1,29.9,135.9,28.3,135,27.2 M138.4,44c-1.7,1.7-4,2.4-6.6,2.4h-9.1V21.2h9.1c2.6,0,5,0.7,6.6,2.4c2.8,2.8,2.5,6.3,2.5,10.1
		C141,37.5,141.3,41.1,138.4,44"/>
	<rect id="XMLID_38_" x="146" y="21.2" class="st2" width="4.9" height="25.1"/>
	<polygon id="XMLID_37_" class="st2" points="156.7,46.4 156.7,21.2 161.6,21.2 161.6,42 173,42 173,46.4 	"/>
	<polygon id="XMLID_36_" class="st2" points="9.6,50 11.3,50 11.3,64.9 21.7,64.9 21.7,66.5 9.6,66.5 	"/>
	<path id="XMLID_33_" class="st2" d="M34.2,59.6c-0.5-3-2.6-4.1-4.9-4.1c-2.2,0-4.5,1.1-4.9,4.1H34.2z M35.6,62.7
		c-0.7,2.1-2.5,4.2-6.4,4.2c-4.9,0-6.5-3.4-6.5-6.4c0-3.3,2.1-6.4,6.5-6.4c3.1,0,6.7,1.3,6.7,6.8H24.3c0,2.5,1.8,4.5,4.8,4.5
		c2.9,0,4.1-0.9,4.7-2.8H35.6z"/>
	<polygon id="XMLID_32_" class="st2" points="47.7,54.5 49.6,54.5 44,66.5 42.1,66.5 36.5,54.5 38.3,54.5 43,64.5 	"/>
	<path id="XMLID_29_" class="st2" d="M61.9,59.6c-0.5-3-2.7-4.1-4.9-4.1c-2.2,0-4.5,1.1-4.9,4.1H61.9z M63.3,62.7
		c-0.7,2.1-2.5,4.2-6.5,4.2c-4.9,0-6.5-3.4-6.5-6.4c0-3.3,2.1-6.4,6.5-6.4c3.1,0,6.7,1.3,6.7,6.8H52c0,2.5,1.8,4.5,4.8,4.5
		c2.9,0,4.1-0.9,4.7-2.8H63.3z"/>
	<path id="XMLID_28_" class="st2" d="M66.8,50.7h1.7v3.8h3.4v1.3h-3.4v7.9c0,1,0.3,1.5,1.7,1.5c0.8,0,1.4-0.1,1.7-0.1v1.4
		c-0.6,0.1-1.3,0.1-1.9,0.1c-2.6,0-3.2-1-3.2-3v-7.9h-2.6v-1.3h2.6V50.7z"/>
	<path id="XMLID_25_" class="st2" d="M73.8,54.5h1.7v12h-1.7V54.5z M73.8,49.9h1.7v2.5h-1.7V49.9z"/>
	<path id="XMLID_24_" class="st2" d="M78,54.5h1.7v2.7h0c0.6-1.4,1.7-3.1,4.6-3.1c0.5,0,0.8,0,1,0.1V56c-0.5-0.1-1-0.1-1.6-0.1
		c-1.8,0-4.1,1.1-4.1,4.5v6.1H78V54.5z"/>
	<path id="XMLID_21_" class="st2" d="M96.1,60c-0.8,0.5-1.9,0.6-5.3,0.9c-2,0.2-3.1,0.8-3.1,2.2c0,1.9,1.6,2.4,3.5,2.4
		c2.3,0,5-1.2,5-3.7V60z M86.5,58.2c0.3-2.5,1.6-4.1,5.7-4.1c4,0,5.5,1.2,5.5,3.5v6.3c0,1,0.3,1.3,0.9,1.3c0.3,0,0.6,0,0.9,0v1.1
		c-0.3,0.1-0.9,0.2-1.4,0.2c-1.7,0-1.8-1.2-1.8-2.1h0c-0.5,0.8-1.7,2.4-5.6,2.4c-2.1,0-4.7-0.9-4.7-3.6c0-3.3,3.3-3.6,6-3.8
		c3.7-0.2,4.2-0.4,4.2-1.6c0-1.7-1.2-2.4-4-2.4c-2.7,0-4,0.7-4.1,2.6H86.5z"/>
	<path id="XMLID_20_" class="st2" d="M112.8,62.2c-0.3,1.6-1.7,4.7-6.1,4.7c-4.3,0-6.7-2.6-6.7-6.4c0-3.6,2.2-6.4,6.7-6.4
		c4.1,0,5.7,2.6,6,4.3H111c-0.5-2.1-2.1-2.9-4.3-2.9c-3.4,0-5,2.2-5,4.9c0,3,1.8,4.9,5,4.9c2.5,0,3.9-1.4,4.4-3.2H112.8z"/>
	<path id="XMLID_17_" class="st2" d="M125.9,59.6c-0.5-3-2.6-4.1-4.9-4.1c-2.2,0-4.5,1.1-4.9,4.1H125.9z M127.3,62.7
		c-0.7,2.1-2.5,4.2-6.5,4.2c-4.9,0-6.5-3.4-6.5-6.4c0-3.3,2-6.4,6.5-6.4c3.1,0,6.7,1.3,6.7,6.8H116c0,2.5,1.8,4.5,4.8,4.5
		c2.9,0,4.1-0.9,4.7-2.8H127.3z"/>
	<path id="XMLID_16_" class="st2" d="M130.8,50.7h1.7v3.8h3.4v1.3h-3.4v7.9c0,1,0.3,1.5,1.7,1.5c0.8,0,1.4-0.1,1.7-0.1v1.4
		c-0.6,0.1-1.3,0.1-1.9,0.1c-2.7,0-3.2-1-3.2-3v-7.9h-2.6v-1.3h2.6V50.7z"/>
	<path id="XMLID_13_" class="st2" d="M147.3,60c-0.8,0.5-1.9,0.6-5.3,0.9c-2,0.2-3.1,0.8-3.1,2.2c0,1.9,1.6,2.4,3.5,2.4
		c2.3,0,5-1.2,5-3.7V60z M137.7,58.2c0.3-2.5,1.6-4.1,5.7-4.1c4,0,5.5,1.2,5.5,3.5v6.3c0,1,0.3,1.3,0.9,1.3c0.3,0,0.6,0,0.9,0v1.1
		c-0.3,0.1-0.9,0.2-1.4,0.2c-1.7,0-1.8-1.2-1.8-2.1h0c-0.5,0.8-1.7,2.4-5.6,2.4c-2.1,0-4.7-0.9-4.7-3.6c0-3.3,3.3-3.6,6-3.8
		c3.7-0.2,4.2-0.4,4.2-1.6c0-1.7-1.2-2.4-4-2.4c-2.7,0-4,0.7-4.1,2.6H137.7z"/>
	<path id="XMLID_12_" class="st2" d="M170.6,58.9c0-2.2-1.1-3.3-3.6-3.3c-2.6,0-4.1,1.5-4.1,3.8v7.1h-1.7v-8.1
		c0-1.5-1.1-2.8-3.4-2.8c-2.4,0-4.2,1.4-4.2,4.2v6.7h-1.7v-12h1.7v2.2h0c0.7-1.3,2-2.6,4.7-2.6c2.7,0,3.9,1.4,4.3,2.6
		c0.6-1.2,2.3-2.6,4.7-2.6c3.4,0,4.9,1.7,4.9,4.2v8.2h-1.7V58.9z"/>
	<path id="XMLID_7_" class="st2" d="M168.3,25.2c0.5,0,1,0,1-0.6c0-0.5-0.4-0.6-0.8-0.6h-0.8v1.2H168.3z M167.1,23.5h1.5
		c0.8,0,1.3,0.4,1.3,1.1c0,0.7-0.5,1-1,1.1l1.1,1.7h-0.6l-1.1-1.6h-0.6v1.6h-0.6V23.5z M171.1,25.4c0-1.5-1.2-2.8-2.7-2.8
		c-1.5,0-2.7,1.2-2.7,2.8c0,1.5,1.2,2.8,2.7,2.8C169.9,28.2,171.1,27,171.1,25.4 M168.4,22.1c1.8,0,3.3,1.5,3.3,3.3
		c0,1.8-1.5,3.3-3.3,3.3c-1.8,0-3.3-1.5-3.3-3.3C165.1,23.6,166.6,22.1,168.4,22.1"/>
	<polygon id="XMLID_6_" class="st2" points="33.7,46.4 50.3,46.4 50.3,42 38.6,42 38.6,36.9 33.7,36.9 	"/>
	<path id="XMLID_5_" class="st2" d="M31.6,34.9c0,0,2.1-4.5,10-4.5c7.9,0,12.2-2.7,12.2-2.7s-5.6,5.8-11.1,5.8
		C37.2,33.4,33.8,33.4,31.6,34.9"/>
	<path id="XMLID_4_" class="st2" d="M29.3,39.2c0,0,2.1-4.5,10-4.5c7.9,0,12.2-2.8,12.2-2.8s-5.6,5.8-11.1,5.8
		C34.9,37.7,31.6,37.7,29.3,39.2"/>
	<polygon id="XMLID_3_" class="st2" points="33.7,32.5 38.6,32.5 38.6,25.6 50.3,25.6 50.3,21.2 33.7,21.2 	"/>
</g>
<rect id="XMLID_1_" x="182.8" y="0.5" class="st3" width="693" height="87.1"/>
</svg>
