<!-- Generator: Adobe Illustrator 22.1.0, SVG Export Plug-In  -->
<svg version="1.1"
	 xmlns="http://www.w3.org/2000/svg" xmlns:xlink="http://www.w3.org/1999/xlink" xmlns:a="http://ns.adobe.com/AdobeSVGViewerExtensions/3.0/"
	 x="0px" y="0px" width="174.5px" height="42.3px" viewBox="0 0 174.5 42.3" style="enable-background:new 0 0 174.5 42.3;"
	 xml:space="preserve">
<style type="text/css">
	.st0{fill:#236092;}
	.st1{fill:#522D6D;}
	.st2{fill:#231F20;}
</style>
<defs>
</defs>
<polygon id="XMLID_54_" class="st0" points="0.8,24.2 2.6,24.2 2.6,40.3 13.8,40.3 13.8,42 0.8,42 "/>
<path id="XMLID_51_" class="st0" d="M27.1,34.5c-0.5-3.2-2.8-4.4-5.3-4.4c-2.3,0-4.8,1.2-5.3,4.4H27.1z M28.6,37.8
	c-0.7,2.3-2.7,4.5-6.9,4.5c-5.2,0-7-3.7-7-6.9c0-3.6,2.2-6.9,7-6.9c3.3,0,7.2,1.4,7.2,7.3H16.5c0,2.7,1.9,4.9,5.1,4.9
	c3.1,0,4.4-1,5.1-3H28.6z"/>
<polygon id="XMLID_50_" class="st0" points="41.6,29 43.5,29 37.5,42 35.5,42 29.5,29 31.5,29 36.5,39.8 "/>
<path id="XMLID_47_" class="st0" d="M56.7,34.5c-0.5-3.2-2.8-4.4-5.3-4.4c-2.3,0-4.8,1.2-5.3,4.4H56.7z M58.2,37.8
	c-0.7,2.3-2.7,4.5-6.9,4.5c-5.2,0-7-3.7-7-6.9c0-3.6,2.2-6.9,7-6.9c3.3,0,7.2,1.4,7.2,7.3H46.2c0,2.7,1.9,4.9,5.1,4.9
	c3.1,0,4.4-1,5.1-3H58.2z"/>
<path id="XMLID_46_" class="st0" d="M61.9,24.9h1.8V29h3.6v1.4h-3.6V39c0,1.1,0.3,1.6,1.8,1.6c0.9,0,1.5-0.1,1.8-0.1V42
	c-0.7,0.1-1.4,0.1-2,0.1c-2.8,0-3.4-1.1-3.4-3.2v-8.5h-2.8V29h2.8V24.9z"/>
<path id="XMLID_43_" class="st0" d="M69.3,29h1.8V42h-1.8V29z M69.3,24h1.8v2.7h-1.8V24z"/>
<path id="XMLID_42_" class="st0" d="M73.9,29h1.8v3h0c0.7-1.5,1.9-3.4,4.9-3.4c0.5,0,0.8,0.1,1.1,0.1v1.9c-0.6-0.1-1.1-0.2-1.7-0.2
	c-2,0-4.4,1.2-4.4,4.9V42h-1.8V29z"/>
<path id="XMLID_39_" class="st0" d="M93.2,35c-0.8,0.5-2,0.6-5.7,1c-2.1,0.2-3.3,0.8-3.3,2.4c0,2,1.7,2.6,3.7,2.6
	c2.5,0,5.3-1.3,5.3-4V35z M82.9,33c0.3-2.7,1.7-4.4,6.1-4.4c4.3,0,5.9,1.3,5.9,3.8v6.8c0,1.1,0.3,1.4,1,1.4c0.3,0,0.6,0,1-0.1v1.2
	c-0.4,0.1-0.9,0.2-1.5,0.2c-1.8,0-1.9-1.3-2-2.3h0c-0.6,0.8-1.8,2.6-6,2.6c-2.2,0-5-1-5-3.9c0-3.5,3.6-3.9,6.4-4.1
	c4-0.2,4.5-0.4,4.5-1.7c0-1.9-1.2-2.5-4.2-2.5c-2.9,0-4.3,0.8-4.4,2.8H82.9z"/>
<path id="XMLID_38_" class="st0" d="M111,37.3c-0.3,1.7-1.8,5-6.5,5c-4.6,0-7.2-2.8-7.2-6.9c0-3.9,2.4-6.9,7.2-6.9
	c4.4,0,6.1,2.8,6.4,4.6h-1.8c-0.6-2.2-2.3-3.1-4.6-3.1c-3.7,0-5.4,2.3-5.4,5.3c0,3.2,1.9,5.3,5.4,5.3c2.7,0,4.2-1.5,4.7-3.5H111z"/>
<path id="XMLID_35_" class="st0" d="M125,34.5c-0.5-3.2-2.8-4.4-5.3-4.4c-2.3,0-4.8,1.2-5.3,4.4H125z M126.5,37.8
	c-0.7,2.3-2.7,4.5-6.9,4.5c-5.2,0-7-3.7-7-6.9c0-3.6,2.2-6.9,7-6.9c3.3,0,7.2,1.4,7.2,7.3h-12.4c0,2.7,1.9,4.9,5.1,4.9
	c3.1,0,4.4-1,5.1-3H126.5z"/>
<path id="XMLID_34_" class="st0" d="M130.2,24.9h1.8V29h3.6v1.4H132V39c0,1.1,0.3,1.6,1.8,1.6c0.9,0,1.4-0.1,1.8-0.1V42
	c-0.7,0.1-1.4,0.1-2,0.1c-2.8,0-3.4-1.1-3.4-3.2v-8.5h-2.8V29h2.8V24.9z"/>
<path id="XMLID_31_" class="st0" d="M147.8,35c-0.8,0.5-2,0.6-5.7,1c-2.1,0.2-3.3,0.8-3.3,2.4c0,2,1.7,2.6,3.7,2.6
	c2.5,0,5.3-1.3,5.3-4V35z M137.6,33c0.3-2.7,1.7-4.4,6.1-4.4c4.3,0,5.9,1.3,5.9,3.8v6.8c0,1.1,0.3,1.4,1,1.4c0.3,0,0.6,0,1-0.1v1.2
	c-0.4,0.1-0.9,0.2-1.5,0.2c-1.8,0-1.9-1.3-2-2.3h-0.1c-0.6,0.8-1.8,2.6-6,2.6c-2.2,0-5-1-5-3.9c0-3.5,3.6-3.9,6.4-4.1
	c4-0.2,4.5-0.4,4.5-1.7c0-1.9-1.2-2.5-4.2-2.5c-2.9,0-4.3,0.8-4.4,2.8H137.6z"/>
<path id="XMLID_30_" class="st0" d="M172.7,33.7c0-2.4-1.2-3.6-3.8-3.6c-2.8,0-4.4,1.6-4.4,4.2V42h-1.8v-8.8c0-1.6-1.2-3-3.6-3
	c-2.6,0-4.5,1.5-4.5,4.5V42h-1.8V29h1.8v2.4h0c0.8-1.4,2.1-2.8,5.1-2.8c2.9,0,4.2,1.5,4.6,2.8c0.6-1.3,2.5-2.8,5-2.8
	c3.6,0,5.3,1.8,5.3,4.5V42h-1.8V33.7z"/>
<polygon id="XMLID_29_" class="st1" points="154.8,20.8 149.6,20.8 145.8,13.7 141.7,20.8 136.7,20.8 143.3,10.2 137.1,0.1 
	142.1,0.1 145.8,6.8 149.5,0.1 154.4,0.1 148.2,10 "/>
<path id="XMLID_26_" class="st1" d="M166.6,9.2c2.2,0,3.3-0.8,3.3-2.8c0-1.1-0.5-2.7-3-2.7h-5.3v5.5H166.6z M157.4,0.1h10.3
	c5.4,0,6.4,4,6.4,5.8c0,2.3-1.1,4.2-3.2,4.9c1.7,0.7,2.6,1.4,2.6,5.2c0,3,0,3.8,0.9,4.1v0.5h-4.7c-0.3-1-0.5-2-0.5-4.2
	c0-2.8-0.2-3.9-3.3-3.9h-4.4v8.1h-4.2V0.1z"/>
<polygon id="XMLID_25_" class="st1" points="11.7,20.5 6.5,11.2 3.9,14.4 3.9,20.5 0,20.5 0,0.1 3.9,0.1 3.9,9 11.1,0.1 15.8,0.1 
	9.2,8.2 16.3,20.5 "/>
<path id="XMLID_22_" class="st1" d="M43.6,3.7h-3.7v5.6h3.7c1.8,0,2.9-1.1,2.9-2.8C46.5,4.8,45.4,3.7,43.6,3.7 M43.8,12.9h-3.9v7.7
	H36V0.1h7.8c4.2,0,6.7,2.9,6.7,6.4C50.5,10,48,12.9,43.8,12.9"/>
<path id="XMLID_19_" class="st1" d="M61.4,3.7h-3.7v5.4h3.7c1.7,0,2.9-1.1,2.9-2.7C64.3,4.8,63.2,3.7,61.4,3.7 M64.5,20.5l-3.9-8.1
	h-2.8v8.1h-3.9V0.1h7.9c4.1,0,6.5,2.8,6.5,6.2c0,2.9-1.7,4.6-3.7,5.4l4.5,8.8H64.5z"/>
<path id="XMLID_15_" class="st1" d="M79.1,6.1l-2.5,7.4h5L79.1,6.1z M83.8,20.5l-1.2-3.6h-7.2l-1.2,3.6h-4.1l7.3-20.4h3.1l7.4,20.4
	H83.8z"/>
<path id="XMLID_12_" class="st1" d="M100.3,4.9c-0.7-0.8-1.6-1.3-2.9-1.3h-3V17h3c1.4,0,2.3-0.4,2.9-1.3c0.7-0.9,0.8-2.4,0.8-5.5
	C101.1,7.2,101,5.9,100.3,4.9 M103,18.6c-1.3,1.3-3.2,1.9-5.3,1.9h-7.3V0.1h7.3c2.1,0,4,0.6,5.3,1.9c2.3,2.3,2,5.1,2,8.2
	C105.1,13.3,105.3,16.3,103,18.6"/>
<rect id="XMLID_11_" x="109.1" class="st1" width="3.9" height="18.9"/>
<polygon id="XMLID_10_" class="st1" points="117.7,20.5 117.7,0.1 121.7,0.1 121.7,17 130.8,17 130.8,20.5 "/>
<path id="XMLID_5_" class="st2" d="M127,3.4c0.4,0,0.8,0,0.8-0.5c0-0.4-0.3-0.5-0.7-0.5h-0.6v0.9H127z M126.1,2h1.2
	c0.7,0,1.1,0.3,1.1,0.9c0,0.6-0.4,0.8-0.8,0.9l0.9,1.3h-0.5L127,3.8h-0.5v1.3h-0.5V2z M129.3,3.5c0-1.2-1-2.2-2.2-2.2
	c-1.2,0-2.2,1-2.2,2.2c0,1.2,1,2.2,2.2,2.2C128.3,5.8,129.3,4.8,129.3,3.5 M127.1,0.9c1.5,0,2.6,1.2,2.6,2.7c0,1.5-1.2,2.7-2.6,2.7
	c-1.5,0-2.6-1.2-2.6-2.7C124.5,2.1,125.7,0.9,127.1,0.9"/>
<polygon id="XMLID_4_" class="st0" points="18.9,20.5 32.2,20.5 32.2,17 22.8,17 22.8,12.9 18.9,12.9 "/>
<path id="XMLID_3_" class="st1" d="M17.2,11.2c0,0,1.7-3.7,8-3.7c6.3,0,9.8-2.2,9.8-2.2S30.5,10,26.1,10C21.7,10,19,10,17.2,11.2"/>
<path id="XMLID_2_" class="st0" d="M15.4,14.7c0,0,1.7-3.7,8-3.7c6.3,0,9.8-2.2,9.8-2.2s-4.5,4.7-8.9,4.7
	C19.9,13.5,17.2,13.5,15.4,14.7"/>
<polygon id="XMLID_1_" class="st1" points="18.9,9.3 22.8,9.3 22.8,3.7 32.2,3.7 32.2,0.1 18.9,0.1 "/>
</svg>
