<!-- Generator: Adobe Illustrator 22.1.0, SVG Export Plug-In  -->
<svg version="1.1"
	 xmlns="http://www.w3.org/2000/svg" xmlns:xlink="http://www.w3.org/1999/xlink" xmlns:a="http://ns.adobe.com/AdobeSVGViewerExtensions/3.0/"
	 x="0px" y="0px" width="157px" height="46px" viewBox="0 0 157 46" style="enable-background:new 0 0 157 46;"
	 xml:space="preserve">
<style type="text/css">
	.st0{fill:#532D6D;}
	.st1{fill:#266093;}
	.st2{fill:#231F20;}
</style>
<defs>
</defs>
<g id="XMLID_1_">
	<polygon id="XMLID_50_" class="st0" points="14.6,25.3 8.4,13.8 5.3,17.7 5.3,25.3 0.6,25.3 0.6,0 5.3,0 5.3,11 13.8,0 19.6,0 
		11.6,10.1 20.1,25.3 	"/>
	<path id="XMLID_47_" class="st0" d="M52.8,4.4h-4.4v6.9h4.4c2.1,0,3.5-1.4,3.5-3.5C56.3,5.8,54.9,4.4,52.8,4.4 M53,15.8h-4.6v9.5
		h-4.7V0H53c5,0,8,3.6,8,7.9C61,12.2,58,15.8,53,15.8"/>
	<path id="XMLID_44_" class="st0" d="M74.1,4.4h-4.4v6.7h4.4c2.1,0,3.4-1.4,3.4-3.3S76.1,4.4,74.1,4.4 M77.7,25.3L73,15.2h-3.4v10.1
		h-4.7V0h9.5c4.9,0,7.8,3.5,7.8,7.8c0,3.6-2.1,5.8-4.4,6.7l5.4,10.9H77.7z"/>
	<path id="XMLID_41_" class="st0" d="M95.2,7.5l-3.1,9.2h6L95.2,7.5z M100.8,25.3l-1.4-4.5h-8.6l-1.5,4.5h-4.9L93.2,0h3.7l8.8,25.3
		H100.8z"/>
	<path id="XMLID_38_" class="st0" d="M120.5,6c-0.8-1-1.9-1.6-3.5-1.6h-3.6v16.5h3.6c1.6,0,2.7-0.5,3.5-1.6c0.9-1.1,1-3,1-6.8
		C121.5,8.7,121.4,7.1,120.5,6 M123.8,22.9c-1.6,1.7-3.9,2.4-6.4,2.4h-8.7V0h8.7c2.5,0,4.8,0.7,6.4,2.4c2.7,2.8,2.4,6.3,2.4,10.1
		C126.2,16.4,126.5,20.1,123.8,22.9"/>
	<rect id="XMLID_37_" x="131" class="st0" width="4.7" height="25.3"/>
	<polygon id="XMLID_36_" class="st0" points="141.4,25.3 141.4,0 146.1,0 146.1,20.9 157,20.9 157,25.3 	"/>
	<polygon id="XMLID_35_" class="st1" points="0,29 1.6,29 1.6,44.1 11.7,44.1 11.7,45.6 0,45.6 	"/>
	<path id="XMLID_32_" class="st1" d="M23.6,38.7c-0.5-3-2.5-4.1-4.7-4.1c-2.1,0-4.4,1.1-4.7,4.1H23.6z M25,41.8
		c-0.7,2.1-2.4,4.2-6.2,4.2c-4.7,0-6.3-3.5-6.3-6.4c0-3.4,2-6.4,6.3-6.4c3,0,6.5,1.3,6.5,6.8H14.2c0,2.5,1.7,4.6,4.6,4.6
		c2.7,0,4-1,4.6-2.8H25z"/>
	<polygon id="XMLID_31_" class="st1" points="36.7,33.6 38.4,33.6 33,45.6 31.3,45.6 25.9,33.6 27.6,33.6 32.2,43.7 	"/>
	<path id="XMLID_28_" class="st1" d="M50.3,38.7c-0.5-3-2.5-4.1-4.7-4.1c-2.1,0-4.4,1.1-4.7,4.1H50.3z M51.6,41.8
		C51,43.9,49.2,46,45.4,46c-4.7,0-6.3-3.5-6.3-6.4c0-3.4,2-6.4,6.3-6.4c3,0,6.5,1.3,6.5,6.8H40.8c0,2.5,1.7,4.6,4.6,4.6
		c2.7,0,4-1,4.6-2.8H51.6z"/>
	<path id="XMLID_27_" class="st1" d="M55,29.7h1.6v3.8h3.3v1.3h-3.3v8c0,1,0.3,1.5,1.6,1.5c0.8,0,1.3-0.1,1.6-0.1v1.4
		c-0.6,0.1-1.3,0.1-1.8,0.1c-2.5,0-3.1-1-3.1-3v-8h-2.5v-1.3H55V29.7z"/>
	<path id="XMLID_24_" class="st1" d="M61.7,33.6h1.6v12.1h-1.6V33.6z M61.7,28.9h1.6v2.6h-1.6V28.9z"/>
	<path id="XMLID_23_" class="st1" d="M65.8,33.6h1.6v2.8h0c0.6-1.4,1.7-3.1,4.4-3.1c0.5,0,0.7,0,1,0.1V35c-0.5-0.1-1-0.1-1.5-0.1
		c-1.8,0-3.9,1.1-3.9,4.6v6.2h-1.6V33.6z"/>
	<path id="XMLID_20_" class="st1" d="M83.1,39.1c-0.7,0.5-1.8,0.6-5.1,0.9c-1.9,0.2-3,0.8-3,2.2c0,1.9,1.5,2.4,3.3,2.4
		c2.2,0,4.8-1.3,4.8-3.7V39.1z M73.9,37.3c0.2-2.5,1.5-4.1,5.5-4.1c3.9,0,5.3,1.3,5.3,3.6v6.3c0,1,0.3,1.3,0.9,1.3
		c0.3,0,0.6,0,0.9,0v1.2c-0.3,0.1-0.8,0.2-1.4,0.2c-1.7,0-1.7-1.2-1.8-2.1h0c-0.5,0.8-1.6,2.4-5.4,2.4c-2,0-4.5-0.9-4.5-3.6
		c0-3.3,3.2-3.7,5.7-3.8c3.6-0.2,4-0.4,4-1.6c0-1.7-1.1-2.4-3.8-2.4c-2.6,0-3.8,0.7-3.9,2.6H73.9z"/>
	<path id="XMLID_19_" class="st1" d="M99.2,41.3c-0.3,1.6-1.6,4.7-5.8,4.7c-4.2,0-6.5-2.6-6.5-6.4c0-3.6,2.1-6.4,6.5-6.4
		c3.9,0,5.5,2.6,5.7,4.3h-1.6c-0.5-2.1-2.1-2.9-4.1-2.9c-3.3,0-4.8,2.2-4.8,5c0,3,1.7,5,4.8,5c2.4,0,3.8-1.4,4.2-3.3H99.2z"/>
	<path id="XMLID_16_" class="st1" d="M111.7,38.7c-0.5-3-2.5-4.1-4.7-4.1c-2.1,0-4.4,1.1-4.7,4.1H111.7z M113.1,41.8
		c-0.7,2.1-2.4,4.2-6.2,4.2c-4.7,0-6.3-3.5-6.3-6.4c0-3.4,2-6.4,6.3-6.4c3,0,6.5,1.3,6.5,6.8h-11.1c0,2.5,1.7,4.6,4.6,4.6
		c2.7,0,4-1,4.6-2.8H113.1z"/>
	<path id="XMLID_15_" class="st1" d="M116.5,29.7h1.6v3.8h3.3v1.3h-3.3v8c0,1,0.3,1.5,1.6,1.5c0.8,0,1.3-0.1,1.6-0.1v1.4
		c-0.6,0.1-1.3,0.1-1.8,0.1c-2.5,0-3.1-1-3.1-3v-8H114v-1.3h2.5V29.7z"/>
	<path id="XMLID_12_" class="st1" d="M132.3,39.1c-0.7,0.5-1.8,0.6-5.1,0.9c-1.9,0.2-3,0.8-3,2.2c0,1.9,1.6,2.4,3.3,2.4
		c2.2,0,4.8-1.3,4.8-3.7V39.1z M123.1,37.3c0.2-2.5,1.5-4.1,5.5-4.1c3.9,0,5.3,1.3,5.3,3.6v6.3c0,1,0.3,1.3,0.9,1.3
		c0.3,0,0.6,0,0.9,0v1.2c-0.3,0.1-0.8,0.2-1.4,0.2c-1.7,0-1.7-1.2-1.8-2.1h0c-0.5,0.8-1.6,2.4-5.4,2.4c-2,0-4.5-0.9-4.5-3.6
		c0-3.3,3.2-3.7,5.7-3.8c3.6-0.2,4-0.4,4-1.6c0-1.7-1.1-2.4-3.8-2.4c-2.6,0-3.8,0.7-3.9,2.6H123.1z"/>
	<path id="XMLID_11_" class="st1" d="M154.7,38c0-2.2-1.1-3.3-3.4-3.3c-2.5,0-3.9,1.5-3.9,3.9v7.1h-1.6v-8.2c0-1.5-1-2.8-3.3-2.8
		c-2.3,0-4.1,1.4-4.1,4.2v6.8h-1.6V33.6h1.6v2.2h0c0.7-1.3,1.9-2.6,4.6-2.6c2.6,0,3.8,1.4,4.1,2.7c0.6-1.2,2.2-2.7,4.5-2.7
		c3.2,0,4.7,1.7,4.7,4.2v8.3h-1.6V38z"/>
	<path id="XMLID_6_" class="st2" d="M152.5,4c0.5,0,1,0,1-0.6c0-0.5-0.4-0.6-0.8-0.6h-0.8V4H152.5z M151.3,2.3h1.4
		c0.8,0,1.3,0.4,1.3,1.1c0,0.7-0.4,1-1,1.1l1.1,1.7h-0.6l-1-1.6h-0.6v1.6h-0.6V2.3z M155.2,4.2c0-1.5-1.2-2.8-2.6-2.8
		S150,2.7,150,4.2c0,1.5,1.2,2.8,2.6,2.8S155.2,5.8,155.2,4.2 M152.6,0.9c1.7,0,3.2,1.5,3.2,3.3c0,1.8-1.4,3.3-3.2,3.3
		c-1.7,0-3.2-1.5-3.2-3.3C149.5,2.4,150.9,0.9,152.6,0.9"/>
	<polygon id="XMLID_5_" class="st1" points="23.2,25.3 39.1,25.3 39.1,20.9 27.9,20.9 27.9,15.8 23.2,15.8 	"/>
	<path id="XMLID_4_" class="st0" d="M21.2,13.8c0,0,2-4.6,9.6-4.6s11.8-2.8,11.8-2.8s-5.4,5.8-10.7,5.8
		C26.5,12.3,23.3,12.3,21.2,13.8"/>
	<path id="XMLID_3_" class="st1" d="M19,18.1c0,0,2-4.6,9.6-4.6s11.8-2.8,11.8-2.8s-5.4,5.8-10.7,5.8S21.2,16.6,19,18.1"/>
	<polygon id="XMLID_2_" class="st0" points="23.2,11.4 27.9,11.4 27.9,4.4 39.1,4.4 39.1,0 23.2,0 	"/>
</g>
</svg>
