<!-- Generator: Adobe Illustrator 22.1.0, SVG Export Plug-In  -->
<svg version="1.1"
	 xmlns="http://www.w3.org/2000/svg" xmlns:xlink="http://www.w3.org/1999/xlink" xmlns:a="http://ns.adobe.com/AdobeSVGViewerExtensions/3.0/"
	 x="0px" y="0px" width="876.4px" height="88.1px" viewBox="0 0 876.4 88.1" style="enable-background:new 0 0 876.4 88.1;"
	 xml:space="preserve">
<style type="text/css">
	.st0{fill:#266093;}
	.st1{font-family:'Interstate-Light';}
	.st2{font-size:27.8241px;}
	.st3{font-family:'Interstate-Bold';}
	.st4{fill:url(#XMLID_97_);}
	.st5{fill:#FFFFFF;}
	.st6{fill:none;stroke:#266093;stroke-width:0.9393;stroke-miterlimit:10;}
	.st7{fill:url(#XMLID_98_);}
</style>
<defs>
</defs>
<g id="XMLID_95_">
	<text transform="matrix(1 0 0 1 193.9221 39.4931)"><tspan x="0" y="0" class="st0 st1 st2">Have </tspan><tspan x="62.4" y="0" class="st0 st3 st2">Level A</tspan><tspan x="158.9" y="0" class="st0 st1 st2">  efcacy /efectiveness evidence as initial </tspan><tspan x="0" y="33.4" class="st0 st3 st2">Monotherapy</tspan><tspan x="168.1" y="33.4" class="st0 st1 st2"> for adults with partial onset seizures</tspan></text>
</g>
<linearGradient id="XMLID_97_" gradientUnits="userSpaceOnUse" x1="0" y1="44.0445" x2="182.5939" y2="44.0445">
	<stop  offset="0" style="stop-color:#4B257A"/>
	<stop  offset="1" style="stop-color:#964C8E"/>
</linearGradient>
<rect id="XMLID_94_" y="0.5" class="st4" width="182.6" height="87.1"/>
<g id="XMLID_2_">
	<polygon id="XMLID_93_" class="st5" points="24.8,46.4 18.3,34.9 15.1,38.8 15.1,46.4 10.2,46.4 10.2,21.2 15.1,21.2 15.1,32.2 
		23.9,21.2 29.9,21.2 21.6,31.2 30.5,46.4 	"/>
	<path id="XMLID_90_" class="st5" d="M64.5,25.6h-4.6v6.9h4.6c2.2,0,3.6-1.4,3.6-3.4C68.1,27,66.7,25.6,64.5,25.6 M64.7,36.9h-4.8
		v9.5H55V21.2h9.7c5.2,0,8.3,3.6,8.3,7.8C73,33.3,69.9,36.9,64.7,36.9"/>
	<path id="XMLID_55_" class="st5" d="M86.7,25.6h-4.6v6.6h4.6c2.2,0,3.6-1.4,3.6-3.3C90.2,27,88.8,25.6,86.7,25.6 M90.5,46.4
		l-4.9-10h-3.5v10h-4.9V21.2H87c5.1,0,8.1,3.5,8.1,7.7c0,3.5-2.2,5.7-4.6,6.6l5.6,10.8H90.5z"/>
	<path id="XMLID_42_" class="st5" d="M108.7,28.6l-3.2,9.1h6.2L108.7,28.6z M114.5,46.4l-1.5-4.4h-8.9l-1.5,4.4h-5.1l9.1-25.1h3.8
		l9.2,25.1H114.5z"/>
	<path id="XMLID_39_" class="st5" d="M135,27.2c-0.8-1-2-1.6-3.7-1.6h-3.7V42h3.7c1.7,0,2.8-0.5,3.7-1.6c0.9-1.1,1.1-2.9,1.1-6.7
		C136.1,29.9,135.9,28.3,135,27.2 M138.4,44c-1.7,1.7-4,2.4-6.6,2.4h-9.1V21.2h9.1c2.6,0,5,0.7,6.6,2.4c2.8,2.8,2.5,6.3,2.5,10.1
		C141,37.5,141.3,41.1,138.4,44"/>
	<rect id="XMLID_38_" x="146" y="21.2" class="st5" width="4.9" height="25.1"/>
	<polygon id="XMLID_37_" class="st5" points="156.7,46.4 156.7,21.2 161.6,21.2 161.6,42 173,42 173,46.4 	"/>
	<polygon id="XMLID_36_" class="st5" points="9.6,50 11.3,50 11.3,64.9 21.7,64.9 21.7,66.5 9.6,66.5 	"/>
	<path id="XMLID_33_" class="st5" d="M34.2,59.6c-0.5-3-2.6-4.1-4.9-4.1c-2.2,0-4.5,1.1-4.9,4.1H34.2z M35.6,62.7
		c-0.7,2.1-2.5,4.2-6.4,4.2c-4.9,0-6.5-3.4-6.5-6.4c0-3.3,2.1-6.4,6.5-6.4c3.1,0,6.7,1.3,6.7,6.8H24.3c0,2.5,1.8,4.5,4.8,4.5
		c2.9,0,4.1-0.9,4.7-2.8H35.6z"/>
	<polygon id="XMLID_32_" class="st5" points="47.7,54.5 49.6,54.5 44,66.5 42.1,66.5 36.5,54.5 38.3,54.5 43,64.5 	"/>
	<path id="XMLID_29_" class="st5" d="M61.9,59.6c-0.5-3-2.7-4.1-4.9-4.1c-2.2,0-4.5,1.1-4.9,4.1H61.9z M63.3,62.7
		c-0.7,2.1-2.5,4.2-6.5,4.2c-4.9,0-6.5-3.4-6.5-6.4c0-3.3,2.1-6.4,6.5-6.4c3.1,0,6.7,1.3,6.7,6.8H52c0,2.5,1.8,4.5,4.8,4.5
		c2.9,0,4.1-0.9,4.7-2.8H63.3z"/>
	<path id="XMLID_28_" class="st5" d="M66.8,50.7h1.7v3.8h3.4v1.3h-3.4v7.9c0,1,0.3,1.5,1.7,1.5c0.8,0,1.4-0.1,1.7-0.1v1.4
		c-0.6,0.1-1.3,0.1-1.9,0.1c-2.6,0-3.2-1-3.2-3v-7.9h-2.6v-1.3h2.6V50.7z"/>
	<path id="XMLID_25_" class="st5" d="M73.8,54.5h1.7v12h-1.7V54.5z M73.8,49.9h1.7v2.5h-1.7V49.9z"/>
	<path id="XMLID_24_" class="st5" d="M78,54.5h1.7v2.7h0c0.6-1.4,1.7-3.1,4.6-3.1c0.5,0,0.8,0,1,0.1V56c-0.5-0.1-1-0.1-1.6-0.1
		c-1.8,0-4.1,1.1-4.1,4.5v6.1H78V54.5z"/>
	<path id="XMLID_21_" class="st5" d="M96.1,60c-0.8,0.5-1.9,0.6-5.3,0.9c-2,0.2-3.1,0.8-3.1,2.2c0,1.9,1.6,2.4,3.5,2.4
		c2.3,0,5-1.2,5-3.7V60z M86.5,58.2c0.3-2.5,1.6-4.1,5.7-4.1c4,0,5.5,1.2,5.5,3.5v6.3c0,1,0.3,1.3,0.9,1.3c0.3,0,0.6,0,0.9,0v1.1
		c-0.3,0.1-0.9,0.2-1.4,0.2c-1.7,0-1.8-1.2-1.8-2.1h0c-0.5,0.8-1.7,2.4-5.6,2.4c-2.1,0-4.7-0.9-4.7-3.6c0-3.3,3.3-3.6,6-3.8
		c3.7-0.2,4.2-0.4,4.2-1.6c0-1.7-1.2-2.4-4-2.4c-2.7,0-4,0.7-4.1,2.6H86.5z"/>
	<path id="XMLID_20_" class="st5" d="M112.8,62.2c-0.3,1.6-1.7,4.7-6.1,4.7c-4.3,0-6.7-2.6-6.7-6.4c0-3.6,2.2-6.4,6.7-6.4
		c4.1,0,5.7,2.6,6,4.3H111c-0.5-2.1-2.1-2.9-4.3-2.9c-3.4,0-5,2.2-5,4.9c0,3,1.8,4.9,5,4.9c2.5,0,3.9-1.4,4.4-3.2H112.8z"/>
	<path id="XMLID_17_" class="st5" d="M125.9,59.6c-0.5-3-2.6-4.1-4.9-4.1c-2.2,0-4.5,1.1-4.9,4.1H125.9z M127.3,62.7
		c-0.7,2.1-2.5,4.2-6.5,4.2c-4.9,0-6.5-3.4-6.5-6.4c0-3.3,2-6.4,6.5-6.4c3.1,0,6.7,1.3,6.7,6.8H116c0,2.5,1.8,4.5,4.8,4.5
		c2.9,0,4.1-0.9,4.7-2.8H127.3z"/>
	<path id="XMLID_16_" class="st5" d="M130.8,50.7h1.7v3.8h3.4v1.3h-3.4v7.9c0,1,0.3,1.5,1.7,1.5c0.8,0,1.4-0.1,1.7-0.1v1.4
		c-0.6,0.1-1.3,0.1-1.9,0.1c-2.7,0-3.2-1-3.2-3v-7.9h-2.6v-1.3h2.6V50.7z"/>
	<path id="XMLID_13_" class="st5" d="M147.3,60c-0.8,0.5-1.9,0.6-5.3,0.9c-2,0.2-3.1,0.8-3.1,2.2c0,1.9,1.6,2.4,3.5,2.4
		c2.3,0,5-1.2,5-3.7V60z M137.7,58.2c0.3-2.5,1.6-4.1,5.7-4.1c4,0,5.5,1.2,5.5,3.5v6.3c0,1,0.3,1.3,0.9,1.3c0.3,0,0.6,0,0.9,0v1.1
		c-0.3,0.1-0.9,0.2-1.4,0.2c-1.7,0-1.8-1.2-1.8-2.1h0c-0.5,0.8-1.7,2.4-5.6,2.4c-2.1,0-4.7-0.9-4.7-3.6c0-3.3,3.3-3.6,6-3.8
		c3.7-0.2,4.2-0.4,4.2-1.6c0-1.7-1.2-2.4-4-2.4c-2.7,0-4,0.7-4.1,2.6H137.7z"/>
	<path id="XMLID_12_" class="st5" d="M170.6,58.9c0-2.2-1.1-3.3-3.6-3.3c-2.6,0-4.1,1.5-4.1,3.8v7.1h-1.7v-8.1
		c0-1.5-1.1-2.8-3.4-2.8c-2.4,0-4.2,1.4-4.2,4.2v6.7h-1.7v-12h1.7v2.2h0c0.7-1.3,2-2.6,4.7-2.6c2.7,0,3.9,1.4,4.3,2.6
		c0.6-1.2,2.3-2.6,4.7-2.6c3.4,0,4.9,1.7,4.9,4.2v8.2h-1.7V58.9z"/>
	<path id="XMLID_7_" class="st5" d="M168.3,25.2c0.5,0,1,0,1-0.6c0-0.5-0.4-0.6-0.8-0.6h-0.8v1.2H168.3z M167.1,23.5h1.5
		c0.8,0,1.3,0.4,1.3,1.1c0,0.7-0.5,1-1,1.1l1.1,1.7h-0.6l-1.1-1.6h-0.6v1.6h-0.6V23.5z M171.1,25.4c0-1.5-1.2-2.8-2.7-2.8
		c-1.5,0-2.7,1.2-2.7,2.8c0,1.5,1.2,2.8,2.7,2.8C169.9,28.2,171.1,27,171.1,25.4 M168.4,22.1c1.8,0,3.3,1.5,3.3,3.3
		c0,1.8-1.5,3.3-3.3,3.3c-1.8,0-3.3-1.5-3.3-3.3C165.1,23.6,166.6,22.1,168.4,22.1"/>
	<polygon id="XMLID_6_" class="st5" points="33.7,46.4 50.3,46.4 50.3,42 38.6,42 38.6,36.9 33.7,36.9 	"/>
	<path id="XMLID_5_" class="st5" d="M31.6,34.9c0,0,2.1-4.5,10-4.5c7.9,0,12.2-2.7,12.2-2.7s-5.6,5.8-11.1,5.8
		C37.2,33.4,33.8,33.4,31.6,34.9"/>
	<path id="XMLID_4_" class="st5" d="M29.3,39.2c0,0,2.1-4.5,10-4.5c7.9,0,12.2-2.8,12.2-2.8s-5.6,5.8-11.1,5.8
		C34.9,37.7,31.6,37.7,29.3,39.2"/>
	<polygon id="XMLID_3_" class="st5" points="33.7,32.5 38.6,32.5 38.6,25.6 50.3,25.6 50.3,21.2 33.7,21.2 	"/>
</g>
<rect id="XMLID_1_" x="182.8" y="0.5" class="st6" width="693" height="87.1"/>
</svg>
