<!-- Generator: Adobe Illustrator 22.1.0, SVG Export Plug-In  -->
<svg version="1.1"
	 xmlns="http://www.w3.org/2000/svg" xmlns:xlink="http://www.w3.org/1999/xlink" xmlns:a="http://ns.adobe.com/AdobeSVGViewerExtensions/3.0/"
	 x="0px" y="0px" width="218.7px" height="24.6px" viewBox="0 0 218.7 24.6" style="enable-background:new 0 0 218.7 24.6;"
	 xml:space="preserve">
<style type="text/css">
	.st0{fill:#266093;}
	.st1{fill:#532D6D;}
</style>
<defs>
</defs>
<path id="XMLID_22_" class="st0" d="M8.5,24.6c-2.5,0-4.6-1-6.2-2.7C-0.1,19.5,0,16.5,0,12.3c0-4.2-0.1-7.2,2.3-9.7C3.9,1,6,0,8.5,0
	c4.3,0,7.7,2.6,8.5,7.6h-4.6c-0.5-1.9-1.6-3.4-3.9-3.4c-1.2,0-2.2,0.5-2.9,1.3c-0.9,1-1.1,2.2-1.1,6.8c0,4.7,0.3,5.8,1.1,6.8
	c0.6,0.8,1.6,1.3,2.9,1.3c2.3,0,3.4-1.5,3.9-3.4H17C16.1,22,12.7,24.6,8.5,24.6"/>
<path id="XMLID_19_" class="st0" d="M27.5,11.2c-0.5-0.5-1.2-0.9-2-0.9c-0.9,0-1.6,0.4-2,0.9c-0.6,0.7-0.8,1.5-0.8,4.8
	c0,3.3,0.2,4,0.8,4.8c0.5,0.5,1.2,0.9,2,0.9c0.9,0,1.6-0.4,2-0.9c0.6-0.7,0.8-1.5,0.8-4.8C28.3,12.7,28.1,11.9,27.5,11.2 M29.8,22.7
	c-1.1,1.2-2.5,1.9-4.3,1.9c-1.8,0-3.2-0.7-4.4-1.9c-1.6-1.7-1.6-3.8-1.6-6.8c0-2.9,0-5,1.6-6.8c1.1-1.2,2.5-1.9,4.4-1.9
	c1.8,0,3.2,0.7,4.3,1.9c1.6,1.7,1.6,3.8,1.6,6.8C31.4,18.9,31.4,21,29.8,22.7"/>
<polygon id="XMLID_18_" class="st0" points="44.2,24.4 37.8,14 37.8,24.4 34.6,24.4 34.6,7.5 37.4,7.5 43.8,17.8 43.8,7.5 47,7.5 
	47,24.4 "/>
<polygon id="XMLID_17_" class="st0" points="56.9,10.4 56.9,24.4 53.7,24.4 53.7,10.4 49.5,10.4 49.5,7.5 61.1,7.5 61.1,10.4 "/>
<path id="XMLID_14_" class="st0" d="M69.8,10.4h-3v4.5h3c1.4,0,2.3-0.9,2.3-2.2C72.1,11.3,71.2,10.4,69.8,10.4 M72.2,24.4l-3.1-6.8
	h-2.3v6.8h-3.2V7.5H70c3.3,0,5.2,2.4,5.2,5.2c0,2.4-1.4,3.9-2.9,4.5l3.6,7.3H72.2z"/>
<path id="XMLID_11_" class="st0" d="M85.9,11.2c-0.5-0.5-1.2-0.9-2-0.9c-0.9,0-1.6,0.4-2,0.9c-0.6,0.7-0.8,1.5-0.8,4.8
	c0,3.3,0.2,4,0.8,4.8c0.5,0.5,1.2,0.9,2,0.9c0.9,0,1.6-0.4,2-0.9c0.6-0.7,0.8-1.5,0.8-4.8C86.7,12.7,86.5,11.9,85.9,11.2 M88.2,22.7
	c-1.1,1.2-2.5,1.9-4.3,1.9c-1.8,0-3.2-0.7-4.4-1.9c-1.6-1.7-1.6-3.8-1.6-6.8c0-2.9,0-5,1.6-6.8c1.1-1.2,2.5-1.9,4.4-1.9
	c1.8,0,3.2,0.7,4.3,1.9c1.6,1.7,1.6,3.8,1.6,6.8C89.8,18.9,89.9,21,88.2,22.7"/>
<polygon id="XMLID_10_" class="st0" points="93.1,24.4 93.1,7.5 96.2,7.5 96.2,21.5 103.5,21.5 103.5,24.4 "/>
<polygon id="XMLID_9_" class="st1" points="110.8,24.4 109.6,24.4 109.6,8.8 104.9,8.8 104.9,7.7 115.6,7.7 115.6,8.8 110.8,8.8 "/>
<polygon id="XMLID_8_" class="st1" points="128.2,16.5 119.9,16.5 119.9,24.4 118.7,24.4 118.7,7.7 119.9,7.7 119.9,15.4 
	128.2,15.4 128.2,7.7 129.5,7.7 129.5,24.4 128.2,24.4 "/>
<polygon id="XMLID_7_" class="st1" points="134.4,7.7 144.1,7.7 144.1,8.8 135.6,8.8 135.6,15.4 142.8,15.4 142.8,16.5 135.6,16.5 
	135.6,23.3 144.1,23.3 144.1,24.4 134.4,24.4 "/>
<polygon id="XMLID_6_" class="st1" points="160,4.4 160,10.4 169.1,10.4 169.1,14.6 160,14.6 160,24.4 155.5,24.4 155.5,0.2 
	170.7,0.2 170.7,4.4 "/>
<polygon id="XMLID_5_" class="st1" points="173.8,24.4 173.8,7.5 176.9,7.5 176.9,21.5 184.3,21.5 184.3,24.4 "/>
<path id="XMLID_2_" class="st1" d="M193.7,11.2c-0.5-0.5-1.2-0.9-2-0.9c-0.9,0-1.6,0.4-2,0.9c-0.6,0.7-0.8,1.5-0.8,4.8
	c0,3.3,0.2,4,0.8,4.8c0.5,0.5,1.2,0.9,2,0.9c0.9,0,1.6-0.4,2-0.9c0.6-0.7,0.8-1.5,0.8-4.8C194.4,12.7,194.3,11.9,193.7,11.2
	 M196,22.7c-1.1,1.2-2.5,1.9-4.3,1.9c-1.8,0-3.2-0.7-4.4-1.9c-1.6-1.7-1.6-3.8-1.6-6.8c0-2.9,0-5,1.6-6.8c1.1-1.2,2.5-1.9,4.4-1.9
	c1.8,0,3.2,0.7,4.3,1.9c1.6,1.7,1.6,3.8,1.6,6.8C197.6,18.9,197.6,21,196,22.7"/>
<polygon id="XMLID_1_" class="st1" points="214.3,24.4 211.7,24.4 208.7,14.1 205.8,24.4 203.1,24.4 198.8,7.5 202.1,7.5 
	204.6,18.1 207.6,7.5 209.9,7.5 212.9,18.1 215.4,7.5 218.7,7.5 "/>
</svg>
