<!-- Generator: Adobe Illustrator 22.1.0, SVG Export Plug-In  -->
<svg version="1.1"
	 xmlns="http://www.w3.org/2000/svg" xmlns:xlink="http://www.w3.org/1999/xlink" xmlns:a="http://ns.adobe.com/AdobeSVGViewerExtensions/3.0/"
	 x="0px" y="0px" width="517px" height="6.6px" viewBox="0 0 517 6.6" style="enable-background:new 0 0 517 6.6;"
	 xml:space="preserve">
<style type="text/css">
	.st0{fill:#58595B;}
</style>
<defs>
</defs>
<g id="XMLID_1_">
	<path id="XMLID_379_" class="st0" d="M0.9,5.2v-4H0V0.9c0.3,0,0.5-0.1,0.7-0.2C0.9,0.6,1,0.4,1,0.2h0.4v5H0.9z"/>
	<path id="XMLID_377_" class="st0" d="M3.1,4.8c0,0.1,0,0.2-0.1,0.3C2.9,5.2,2.7,5.3,2.6,5.3s-0.2,0-0.3-0.1C2.2,5.1,2.2,5,2.2,4.8
		s0-0.2,0.1-0.3c0.1-0.1,0.2-0.1,0.3-0.1s0.2,0,0.3,0.1C3,4.6,3.1,4.7,3.1,4.8z"/>
	<path id="XMLID_375_" class="st0" d="M7.6,5.2V1.8V1.3c0,0,0,0.1-0.1,0.2c0,0.1,0,0.1-0.1,0.2c0,0.1-0.1,0.1-0.1,0.2
		c0,0.1-0.1,0.1-0.1,0.2L5.9,5.3L4.6,2.1c0-0.1-0.1-0.1-0.1-0.2c0-0.1-0.1-0.2-0.1-0.2c0-0.1,0-0.1-0.1-0.2c0-0.1,0-0.1-0.1-0.2v0.5
		v3.4H3.8v-5h0.6l1.2,3c0,0.1,0.1,0.2,0.1,0.3c0,0.1,0.1,0.2,0.1,0.3c0,0.1,0.1,0.2,0.1,0.3c0,0.1,0,0.1,0.1,0.2C6,4.1,6,4.1,6,4
		c0-0.1,0.1-0.2,0.1-0.3c0-0.1,0.1-0.2,0.1-0.3c0-0.1,0.1-0.2,0.1-0.2l1.2-3h0.6v5H7.6z"/>
	<path id="XMLID_372_" class="st0" d="M12.1,3.3c0,0.3,0,0.6-0.1,0.8s-0.2,0.5-0.4,0.6c-0.1,0.2-0.3,0.3-0.5,0.4
		c-0.2,0.1-0.4,0.1-0.6,0.1s-0.4,0-0.6-0.1S9.4,5,9.3,4.8S9,4.4,8.9,4.2C8.8,3.9,8.8,3.7,8.8,3.3c0-0.3,0-0.6,0.1-0.8S9.1,2,9.3,1.9
		c0.1-0.2,0.3-0.3,0.5-0.4c0.2-0.1,0.4-0.1,0.6-0.1s0.4,0,0.6,0.1s0.4,0.2,0.5,0.4s0.3,0.4,0.3,0.6S12.1,3,12.1,3.3z M11.5,3.3
		c0-0.5-0.1-0.9-0.3-1.1C11,2,10.8,1.8,10.4,1.8S9.8,2,9.6,2.2C9.4,2.5,9.3,2.8,9.3,3.3c0,0.5,0.1,0.9,0.3,1.1
		c0.2,0.3,0.5,0.4,0.8,0.4s0.6-0.1,0.8-0.4C11.4,4.2,11.5,3.8,11.5,3.3z"/>
	<path id="XMLID_370_" class="st0" d="M14.6,2c-0.1,0-0.2-0.1-0.2-0.1c-0.1,0-0.2,0-0.3,0c-0.3,0-0.5,0.1-0.6,0.3S13.2,2.7,13.2,3
		v2.2h-0.5V1.5h0.5v0.5c0.1-0.2,0.2-0.3,0.4-0.4s0.4-0.2,0.6-0.2c0.1,0,0.3,0,0.3,0s0.2,0,0.2,0.1L14.6,2z"/>
	<path id="XMLID_368_" class="st0" d="M17.2,2c-0.1,0-0.2-0.1-0.2-0.1c-0.1,0-0.2,0-0.3,0c-0.3,0-0.5,0.1-0.6,0.3S15.8,2.7,15.8,3
		v2.2h-0.5V1.5h0.5v0.5c0.1-0.2,0.2-0.3,0.4-0.4s0.4-0.2,0.6-0.2c0.1,0,0.3,0,0.3,0s0.2,0,0.2,0.1L17.2,2z"/>
	<path id="XMLID_365_" class="st0" d="M20.7,3.2c0,0.1,0,0.1,0,0.2c0,0,0,0.1,0,0.1h-2.5c0,0.4,0.1,0.7,0.3,1
		c0.2,0.2,0.4,0.4,0.7,0.4c0.2,0,0.4,0,0.6-0.1s0.3-0.2,0.5-0.3l0.3,0.4c-0.1,0.1-0.2,0.1-0.3,0.2c-0.1,0.1-0.2,0.1-0.3,0.1
		c-0.1,0-0.2,0.1-0.3,0.1c-0.1,0-0.2,0-0.4,0c-0.2,0-0.3,0-0.5-0.1c-0.2-0.1-0.3-0.2-0.5-0.3s-0.3-0.4-0.4-0.6
		c-0.1-0.3-0.1-0.6-0.1-0.9c0-0.3,0-0.6,0.1-0.8c0.1-0.2,0.2-0.4,0.3-0.6s0.3-0.3,0.5-0.4c0.2-0.1,0.4-0.1,0.6-0.1
		c0.2,0,0.5,0,0.6,0.1s0.3,0.2,0.5,0.4s0.2,0.4,0.3,0.6S20.7,3,20.7,3.2z M20.2,3.1c0-0.4-0.1-0.7-0.3-0.9c-0.2-0.2-0.4-0.3-0.7-0.3
		c-0.3,0-0.5,0.1-0.7,0.3c-0.2,0.2-0.3,0.5-0.3,0.9H20.2z"/>
	<path id="XMLID_363_" class="st0" d="M21.3,5.2V0.3L21.9,0v5.2H21.3z"/>
	<path id="XMLID_361_" class="st0" d="M22.8,5.2V0.3L23.3,0v5.2H22.8z"/>
	<path id="XMLID_359_" class="st0" d="M29.5,5.2V1.8V1.3c0,0,0,0.1-0.1,0.2c0,0.1,0,0.1-0.1,0.2c0,0.1-0.1,0.1-0.1,0.2
		c0,0.1-0.1,0.1-0.1,0.2l-1.3,3.2l-1.3-3.2c0-0.1-0.1-0.1-0.1-0.2c0-0.1-0.1-0.2-0.1-0.2c0-0.1,0-0.1-0.1-0.2c0-0.1,0-0.1-0.1-0.2
		v0.5v3.4h-0.5v-5h0.6l1.2,3c0,0.1,0.1,0.2,0.1,0.3c0,0.1,0.1,0.2,0.1,0.3c0,0.1,0.1,0.2,0.1,0.3c0,0.1,0,0.1,0.1,0.2
		c0-0.1,0-0.1,0.1-0.2c0-0.1,0.1-0.2,0.1-0.3c0-0.1,0.1-0.2,0.1-0.3c0-0.1,0.1-0.2,0.1-0.2l1.2-3h0.6v5H29.5z"/>
	<path id="XMLID_357_" class="st0" d="M32.2,5.3c-0.4,0-0.8-0.1-1-0.3c-0.3-0.2-0.4-0.5-0.6-0.9l0.5-0.2c0.1,0.3,0.2,0.5,0.4,0.6
		c0.2,0.2,0.4,0.2,0.7,0.2c0.4,0,0.7-0.1,0.9-0.4s0.3-0.6,0.3-1.1V0.2h0.6v3.1C33.9,4.6,33.3,5.3,32.2,5.3z"/>
	<path id="XMLID_354_" class="st0" d="M39.3,5.2l-0.4-0.5c-0.2,0.2-0.4,0.3-0.6,0.4c-0.2,0.1-0.5,0.2-0.7,0.2c-0.3,0-0.5,0-0.7-0.1
		c-0.2-0.1-0.3-0.2-0.5-0.3s-0.2-0.3-0.3-0.4s-0.1-0.3-0.1-0.5c0-0.2,0-0.4,0.1-0.5c0-0.1,0.1-0.3,0.2-0.4s0.2-0.2,0.4-0.3
		c0.1-0.1,0.3-0.2,0.5-0.3L37,2.2c-0.1-0.2-0.2-0.3-0.3-0.5c-0.1-0.2-0.1-0.3-0.1-0.5c0-0.2,0-0.3,0.1-0.4c0.1-0.1,0.1-0.2,0.3-0.3
		c0.1-0.1,0.2-0.2,0.4-0.2c0.2-0.1,0.3-0.1,0.5-0.1c0.3,0,0.5,0,0.7,0.1c0.2,0.1,0.4,0.2,0.6,0.3L38.9,1c-0.2-0.1-0.4-0.3-0.5-0.3
		c-0.2-0.1-0.3-0.1-0.5-0.1c-0.2,0-0.4,0.1-0.5,0.2c-0.1,0.1-0.2,0.2-0.2,0.4c0,0.1,0,0.3,0.1,0.4s0.1,0.2,0.2,0.3l1.5,2
		c0.1-0.1,0.1-0.3,0.2-0.4s0.1-0.3,0.2-0.5l0.5,0.1c-0.1,0.4-0.3,0.8-0.5,1.1L40,5.2H39.3z M37.5,2.8c-0.3,0.1-0.5,0.3-0.7,0.5
		c-0.1,0.2-0.2,0.4-0.2,0.6s0.1,0.4,0.3,0.6c0.2,0.2,0.4,0.3,0.7,0.3c0.2,0,0.4,0,0.6-0.1c0.2-0.1,0.3-0.2,0.5-0.4L37.5,2.8z"/>
	<path id="XMLID_351_" class="st0" d="M44.8,3.2c0,0.1,0,0.1,0,0.2c0,0,0,0.1,0,0.1h-2.5c0,0.4,0.1,0.7,0.3,1
		c0.2,0.2,0.4,0.4,0.7,0.4c0.2,0,0.4,0,0.6-0.1s0.3-0.2,0.5-0.3l0.3,0.4c-0.1,0.1-0.2,0.1-0.3,0.2c-0.1,0.1-0.2,0.1-0.3,0.1
		c-0.1,0-0.2,0.1-0.3,0.1c-0.1,0-0.2,0-0.4,0c-0.2,0-0.3,0-0.5-0.1c-0.2-0.1-0.3-0.2-0.5-0.3S42,4.5,41.9,4.2
		c-0.1-0.3-0.1-0.6-0.1-0.9c0-0.3,0-0.6,0.1-0.8c0.1-0.2,0.2-0.4,0.3-0.6s0.3-0.3,0.5-0.4c0.2-0.1,0.4-0.1,0.6-0.1
		c0.2,0,0.5,0,0.6,0.1s0.3,0.2,0.5,0.4s0.2,0.4,0.3,0.6S44.8,3,44.8,3.2z M44.3,3.1c0-0.4-0.1-0.7-0.3-0.9c-0.2-0.2-0.4-0.3-0.7-0.3
		c-0.3,0-0.5,0.1-0.7,0.3c-0.2,0.2-0.3,0.5-0.3,0.9H44.3z"/>
	<path id="XMLID_349_" class="st0" d="M46.2,1.9v2.4c0,0.2,0,0.3,0.1,0.3c0.1,0.1,0.2,0.1,0.3,0.1c0.1,0,0.2,0,0.3,0s0.2,0,0.2-0.1
		l0,0.5c-0.1,0-0.2,0.1-0.3,0.1s-0.2,0-0.4,0c-0.2,0-0.4-0.1-0.5-0.2s-0.2-0.3-0.2-0.7V1.9h-0.5V1.5h0.5V0.3L46.2,0v1.5h0.9v0.5
		H46.2z"/>
	<path id="XMLID_346_" class="st0" d="M51.5,5.2V4.8C51.3,4.9,51.2,5,51,5.1c-0.2,0.1-0.4,0.2-0.7,0.2c-0.1,0-0.3,0-0.4-0.1
		c-0.1,0-0.3-0.1-0.4-0.2c-0.1-0.1-0.2-0.2-0.3-0.4s-0.1-0.3-0.1-0.6c0-0.2,0-0.4,0.1-0.5c0.1-0.2,0.2-0.3,0.3-0.4
		C49.6,3.1,49.8,3,50,3s0.4-0.1,0.5-0.1c0.2,0,0.4,0,0.5,0.1s0.3,0.1,0.4,0.2V2.7c0-0.5-0.3-0.8-0.8-0.8c-0.2,0-0.4,0-0.5,0.1
		S49.8,2,49.6,2.1l-0.2-0.4c0.2-0.1,0.4-0.2,0.6-0.2c0.2-0.1,0.4-0.1,0.7-0.1c0.4,0,0.7,0.1,1,0.3C51.9,1.9,52,2.2,52,2.6v2.6H51.5z
		 M51.5,3.5c-0.1-0.1-0.3-0.1-0.4-0.2c-0.1,0-0.3-0.1-0.6-0.1c-0.3,0-0.5,0.1-0.6,0.2s-0.2,0.3-0.2,0.5c0,0.3,0.1,0.5,0.2,0.6
		c0.1,0.1,0.3,0.2,0.6,0.2c0.2,0,0.5-0.1,0.6-0.2c0.2-0.1,0.3-0.2,0.4-0.4V3.5z"/>
	<path id="XMLID_344_" class="st0" d="M52.8,5.2V0.3L53.4,0v5.2H52.8z"/>
	<path id="XMLID_342_" class="st0" d="M54.4,6.1h-0.4l0.1-1.7h0.7L54.4,6.1z"/>
	<path id="XMLID_339_" class="st0" d="M55.9,1.8h-0.4l0.1-1.6h0.7L55.9,1.8z M57.5,1.8h-0.4l0.1-1.6h0.7L57.5,1.8z"/>
	<path id="XMLID_337_" class="st0" d="M61.9,0.7v4.5h-0.6V0.7h-1.5V0.2h3.5v0.5H61.9z"/>
	<path id="XMLID_335_" class="st0" d="M66.3,5.2V3c0-0.4-0.1-0.7-0.2-0.9c-0.1-0.2-0.4-0.3-0.7-0.3c-0.3,0-0.5,0.1-0.7,0.3
		c-0.2,0.2-0.3,0.5-0.3,0.9v2.2h-0.5V0.3L64.5,0l0,1.9c0.1-0.2,0.3-0.3,0.4-0.4s0.4-0.1,0.6-0.1c0.2,0,0.4,0,0.5,0.1
		c0.2,0.1,0.3,0.2,0.4,0.3c0.1,0.1,0.2,0.3,0.3,0.5c0.1,0.2,0.1,0.4,0.1,0.7v2.3H66.3z"/>
	<path id="XMLID_332_" class="st0" d="M70.5,3.2c0,0.1,0,0.1,0,0.2c0,0,0,0.1,0,0.1H68c0,0.4,0.1,0.7,0.3,1c0.2,0.2,0.4,0.4,0.7,0.4
		c0.2,0,0.4,0,0.6-0.1s0.3-0.2,0.5-0.3l0.3,0.4C70.2,4.9,70.1,5,70,5.1c-0.1,0.1-0.2,0.1-0.3,0.1c-0.1,0-0.2,0.1-0.3,0.1
		c-0.1,0-0.2,0-0.4,0c-0.2,0-0.3,0-0.5-0.1C68.3,5.1,68.1,5,68,4.9s-0.3-0.4-0.4-0.6c-0.1-0.3-0.1-0.6-0.1-0.9c0-0.3,0-0.6,0.1-0.8
		c0.1-0.2,0.2-0.4,0.3-0.6s0.3-0.3,0.5-0.4c0.2-0.1,0.4-0.1,0.6-0.1c0.2,0,0.5,0,0.6,0.1s0.3,0.2,0.5,0.4s0.2,0.4,0.3,0.6
		S70.5,3,70.5,3.2z M70,3.1c0-0.4-0.1-0.7-0.3-0.9C69.6,2,69.3,1.8,69,1.8c-0.3,0-0.5,0.1-0.7,0.3C68.1,2.3,68,2.7,68,3.1H70z"/>
	<path id="XMLID_330_" class="st0" d="M75.7,5.2l-1.5-2.7l-1,1.2v1.4h-0.6v-5h0.6v2.2v0.7c0,0,0.1-0.1,0.1-0.2
		c0.1-0.1,0.1-0.2,0.2-0.3c0.1-0.1,0.1-0.2,0.2-0.3c0.1-0.1,0.1-0.2,0.2-0.2l1.5-1.9h0.6l-1.5,1.9l1.7,3.1H75.7z"/>
	<path id="XMLID_328_" class="st0" d="M76.9,5.2v-5h3v0.5h-2.5v1.6h1.4v0.5h-1.4v1.9h2.6v0.5H76.9z"/>
	<path id="XMLID_326_" class="st0" d="M80.8,5.2v-5h3v0.5h-2.5v1.6h1.4v0.5h-1.4v1.9h2.6v0.5H80.8z"/>
	<path id="XMLID_323_" class="st0" d="M88.1,1.7c0,0.2,0,0.5-0.1,0.7c-0.1,0.2-0.2,0.4-0.3,0.5c-0.1,0.1-0.3,0.2-0.5,0.3
		s-0.4,0.1-0.7,0.1h-1.2v2h-0.6v-5h1.9c0.2,0,0.4,0,0.6,0.1c0.2,0.1,0.4,0.2,0.5,0.3C87.8,0.7,87.9,0.9,88,1S88.1,1.4,88.1,1.7z
		 M87.5,1.7c0-0.3-0.1-0.6-0.3-0.7c-0.2-0.2-0.4-0.3-0.8-0.3h-1.3v2h1.2C87.2,2.7,87.5,2.4,87.5,1.7z"/>
	<path id="XMLID_321_" class="st0" d="M88.7,5.2v-5h3v0.5h-2.5v1.6h1.4v0.5h-1.4v1.9h2.6v0.5H88.7z"/>
	<path id="XMLID_318_" class="st0" d="M96.1,1.6c0,0.4-0.1,0.7-0.3,0.9C95.5,2.8,95.3,3,94.9,3L96,5.2h-0.6l-1.1-2.1h-1.2v2.1h-0.6
		v-5h2c0.2,0,0.4,0,0.6,0.1s0.4,0.1,0.5,0.3C95.8,0.7,95.9,0.8,96,1C96,1.2,96.1,1.4,96.1,1.6z M95.5,1.6c0-0.3-0.1-0.5-0.3-0.7
		c-0.2-0.2-0.4-0.2-0.8-0.2h-1.4v1.9h1.3c0.4,0,0.6-0.1,0.8-0.2S95.5,2,95.5,1.6z"/>
	<path id="XMLID_316_" class="st0" d="M99,1.9v2.4c0,0.2,0,0.3,0.1,0.3c0.1,0.1,0.2,0.1,0.3,0.1c0.1,0,0.2,0,0.3,0s0.2,0,0.2-0.1
		l0,0.5c-0.1,0-0.2,0.1-0.3,0.1s-0.2,0-0.4,0c-0.2,0-0.4-0.1-0.5-0.2s-0.2-0.3-0.2-0.7V1.9h-0.5V1.5h0.5V0.3L99,0v1.5h0.9v0.5H99z"
		/>
	<path id="XMLID_314_" class="st0" d="M102.5,2c-0.1,0-0.2-0.1-0.2-0.1c-0.1,0-0.2,0-0.3,0c-0.3,0-0.5,0.1-0.6,0.3s-0.2,0.5-0.2,0.8
		v2.2h-0.5V1.5h0.5v0.5c0.1-0.2,0.2-0.3,0.4-0.4s0.4-0.2,0.6-0.2c0.1,0,0.3,0,0.3,0s0.2,0,0.2,0.1L102.5,2z"/>
	<path id="XMLID_311_" class="st0" d="M103.8,0.4c0,0.1,0,0.2-0.1,0.3c-0.1,0.1-0.2,0.1-0.3,0.1c-0.1,0-0.2,0-0.3-0.1
		c-0.1-0.1-0.1-0.2-0.1-0.3c0-0.1,0-0.2,0.1-0.3c0.1-0.1,0.2-0.1,0.3-0.1c0.1,0,0.2,0,0.3,0.1C103.8,0.2,103.8,0.3,103.8,0.4z
		 M103.2,5.2V1.5h0.5v3.8H103.2z"/>
	<path id="XMLID_308_" class="st0" d="M106.7,5.2V4.8c-0.1,0.1-0.3,0.3-0.5,0.4c-0.2,0.1-0.4,0.2-0.7,0.2c-0.1,0-0.3,0-0.4-0.1
		c-0.1,0-0.3-0.1-0.4-0.2c-0.1-0.1-0.2-0.2-0.3-0.4s-0.1-0.3-0.1-0.6c0-0.2,0-0.4,0.1-0.5c0.1-0.2,0.2-0.3,0.3-0.4
		c0.1-0.1,0.3-0.2,0.5-0.2s0.4-0.1,0.5-0.1c0.2,0,0.4,0,0.5,0.1s0.3,0.1,0.4,0.2V2.7c0-0.5-0.3-0.8-0.8-0.8c-0.2,0-0.4,0-0.5,0.1
		S105,2,104.9,2.1l-0.2-0.4c0.2-0.1,0.4-0.2,0.6-0.2c0.2-0.1,0.4-0.1,0.7-0.1c0.4,0,0.7,0.1,1,0.3c0.2,0.2,0.4,0.5,0.4,0.9v2.6
		H106.7z M106.7,3.5c-0.1-0.1-0.3-0.1-0.4-0.2c-0.1,0-0.3-0.1-0.6-0.1c-0.3,0-0.5,0.1-0.6,0.2s-0.2,0.3-0.2,0.5
		c0,0.3,0.1,0.5,0.2,0.6c0.1,0.1,0.3,0.2,0.6,0.2c0.2,0,0.5-0.1,0.6-0.2c0.2-0.1,0.3-0.2,0.4-0.4V3.5z"/>
	<path id="XMLID_306_" class="st0" d="M108.1,5.2V0.3l0.5-0.3v5.2H108.1z"/>
	<path id="XMLID_303_" class="st0" d="M110.2,1.9c0,0.1,0,0.2-0.1,0.3c-0.1,0.1-0.2,0.1-0.3,0.1s-0.2,0-0.3-0.1
		c-0.1-0.1-0.1-0.2-0.1-0.3c0-0.1,0-0.2,0.1-0.3c0.1-0.1,0.2-0.1,0.3-0.1s0.2,0,0.3,0.1C110.2,1.6,110.2,1.7,110.2,1.9z M110.2,4.8
		c0,0.1,0,0.2-0.1,0.3c-0.1,0.1-0.2,0.1-0.3,0.1s-0.2,0-0.3-0.1c-0.1-0.1-0.1-0.2-0.1-0.3s0-0.2,0.1-0.3c0.1-0.1,0.2-0.1,0.3-0.1
		s0.2,0,0.3,0.1C110.2,4.6,110.2,4.7,110.2,4.8z"/>
	<path id="XMLID_301_" class="st0" d="M112.4,5.2V0.3l0.5-0.3v5.2H112.4z"/>
	<path id="XMLID_298_" class="st0" d="M116.6,3.2c0,0.1,0,0.1,0,0.2c0,0,0,0.1,0,0.1h-2.5c0,0.4,0.1,0.7,0.3,1
		c0.2,0.2,0.4,0.4,0.7,0.4c0.2,0,0.4,0,0.6-0.1s0.3-0.2,0.5-0.3l0.3,0.4c-0.1,0.1-0.2,0.1-0.3,0.2c-0.1,0.1-0.2,0.1-0.3,0.1
		c-0.1,0-0.2,0.1-0.3,0.1c-0.1,0-0.2,0-0.4,0c-0.2,0-0.3,0-0.5-0.1c-0.2-0.1-0.3-0.2-0.5-0.3s-0.3-0.4-0.4-0.6
		c-0.1-0.3-0.1-0.6-0.1-0.9c0-0.3,0-0.6,0.1-0.8c0.1-0.2,0.2-0.4,0.3-0.6s0.3-0.3,0.5-0.4c0.2-0.1,0.4-0.1,0.6-0.1
		c0.2,0,0.5,0,0.6,0.1s0.3,0.2,0.5,0.4s0.2,0.4,0.3,0.6S116.6,3,116.6,3.2z M116.2,3.1c0-0.4-0.1-0.7-0.3-0.9
		c-0.2-0.2-0.4-0.3-0.7-0.3c-0.3,0-0.5,0.1-0.7,0.3c-0.2,0.2-0.3,0.5-0.3,0.9H116.2z"/>
	<path id="XMLID_296_" class="st0" d="M118.8,5.2h-0.5L117,1.5h0.6l1,3l0.1,0.2l0.1-0.2l1-3h0.6L118.8,5.2z"/>
	<path id="XMLID_293_" class="st0" d="M123.5,3.2c0,0.1,0,0.1,0,0.2c0,0,0,0.1,0,0.1H121c0,0.4,0.1,0.7,0.3,1
		c0.2,0.2,0.4,0.4,0.7,0.4c0.2,0,0.4,0,0.6-0.1s0.3-0.2,0.5-0.3l0.3,0.4c-0.1,0.1-0.2,0.1-0.3,0.2c-0.1,0.1-0.2,0.1-0.3,0.1
		c-0.1,0-0.2,0.1-0.3,0.1c-0.1,0-0.2,0-0.4,0c-0.2,0-0.3,0-0.5-0.1c-0.2-0.1-0.3-0.2-0.5-0.3s-0.3-0.4-0.4-0.6
		c-0.1-0.3-0.1-0.6-0.1-0.9c0-0.3,0-0.6,0.1-0.8c0.1-0.2,0.2-0.4,0.3-0.6s0.3-0.3,0.5-0.4c0.2-0.1,0.4-0.1,0.6-0.1
		c0.2,0,0.5,0,0.6,0.1s0.3,0.2,0.5,0.4s0.2,0.4,0.3,0.6S123.5,3,123.5,3.2z M123,3.1c0-0.4-0.1-0.7-0.3-0.9
		c-0.2-0.2-0.4-0.3-0.7-0.3c-0.3,0-0.5,0.1-0.7,0.3c-0.2,0.2-0.3,0.5-0.3,0.9H123z"/>
	<path id="XMLID_291_" class="st0" d="M124.9,1.9v2.4c0,0.2,0,0.3,0.1,0.3c0.1,0.1,0.2,0.1,0.3,0.1c0.1,0,0.2,0,0.3,0s0.2,0,0.2-0.1
		l0,0.5c-0.1,0-0.2,0.1-0.3,0.1s-0.2,0-0.4,0c-0.2,0-0.4-0.1-0.5-0.2s-0.2-0.3-0.2-0.7V1.9h-0.5V1.5h0.5V0.3l0.5-0.3v1.5h0.9v0.5
		H124.9z"/>
	<path id="XMLID_288_" class="st0" d="M127.2,0.4c0,0.1,0,0.2-0.1,0.3c-0.1,0.1-0.2,0.1-0.3,0.1c-0.1,0-0.2,0-0.3-0.1
		c-0.1-0.1-0.1-0.2-0.1-0.3c0-0.1,0-0.2,0.1-0.3c0.1-0.1,0.2-0.1,0.3-0.1c0.1,0,0.2,0,0.3,0.1C127.1,0.2,127.2,0.3,127.2,0.4z
		 M126.5,5.2V1.5h0.5v3.8H126.5z"/>
	<path id="XMLID_286_" class="st0" d="M129.8,2c-0.1,0-0.2-0.1-0.2-0.1c-0.1,0-0.2,0-0.3,0c-0.3,0-0.5,0.1-0.6,0.3s-0.2,0.5-0.2,0.8
		v2.2h-0.5V1.5h0.5v0.5c0.1-0.2,0.2-0.3,0.4-0.4s0.4-0.2,0.6-0.2c0.1,0,0.3,0,0.3,0s0.2,0,0.2,0.1L129.8,2z"/>
	<path id="XMLID_283_" class="st0" d="M132.6,5.2V4.8c-0.1,0.1-0.3,0.3-0.5,0.4c-0.2,0.1-0.4,0.2-0.7,0.2c-0.1,0-0.3,0-0.4-0.1
		c-0.1,0-0.3-0.1-0.4-0.2c-0.1-0.1-0.2-0.2-0.3-0.4s-0.1-0.3-0.1-0.6c0-0.2,0-0.4,0.1-0.5c0.1-0.2,0.2-0.3,0.3-0.4
		c0.1-0.1,0.3-0.2,0.5-0.2s0.4-0.1,0.5-0.1c0.2,0,0.4,0,0.5,0.1s0.3,0.1,0.4,0.2V2.7c0-0.5-0.3-0.8-0.8-0.8c-0.2,0-0.4,0-0.5,0.1
		s-0.3,0.1-0.5,0.2l-0.2-0.4c0.2-0.1,0.4-0.2,0.6-0.2c0.2-0.1,0.4-0.1,0.7-0.1c0.4,0,0.7,0.1,1,0.3c0.2,0.2,0.4,0.5,0.4,0.9v2.6
		H132.6z M132.6,3.5c-0.1-0.1-0.3-0.1-0.4-0.2c-0.1,0-0.3-0.1-0.6-0.1c-0.3,0-0.5,0.1-0.6,0.2s-0.2,0.3-0.2,0.5
		c0,0.3,0.1,0.5,0.2,0.6c0.1,0.1,0.3,0.2,0.6,0.2c0.2,0,0.5-0.1,0.6-0.2c0.2-0.1,0.3-0.2,0.4-0.4V3.5z"/>
	<path id="XMLID_281_" class="st0" d="M136.3,2.2c-0.1-0.1-0.3-0.2-0.4-0.3c-0.1-0.1-0.3-0.1-0.5-0.1c-0.1,0-0.3,0-0.4,0.1
		c-0.1,0.1-0.2,0.2-0.3,0.3c-0.1,0.1-0.2,0.3-0.2,0.5s-0.1,0.4-0.1,0.6c0,0.5,0.1,0.8,0.3,1.1c0.2,0.3,0.4,0.4,0.8,0.4
		c0.2,0,0.3,0,0.5-0.1c0.1-0.1,0.3-0.2,0.4-0.3l0.3,0.3c-0.2,0.2-0.3,0.3-0.5,0.4c-0.2,0.1-0.4,0.1-0.7,0.1c-0.2,0-0.4,0-0.6-0.1
		c-0.2-0.1-0.4-0.2-0.5-0.4s-0.3-0.4-0.4-0.6c-0.1-0.2-0.1-0.5-0.1-0.9c0-0.3,0-0.6,0.1-0.9c0.1-0.2,0.2-0.5,0.4-0.6
		c0.2-0.2,0.3-0.3,0.5-0.4c0.2-0.1,0.4-0.1,0.6-0.1c0.3,0,0.5,0,0.7,0.1c0.2,0.1,0.4,0.2,0.5,0.3L136.3,2.2z"/>
	<path id="XMLID_278_" class="st0" d="M140,3.2c0,0.1,0,0.1,0,0.2c0,0,0,0.1,0,0.1h-2.5c0,0.4,0.1,0.7,0.3,1
		c0.2,0.2,0.4,0.4,0.7,0.4c0.2,0,0.4,0,0.6-0.1s0.3-0.2,0.5-0.3l0.3,0.4c-0.1,0.1-0.2,0.1-0.3,0.2c-0.1,0.1-0.2,0.1-0.3,0.1
		c-0.1,0-0.2,0.1-0.3,0.1c-0.1,0-0.2,0-0.4,0c-0.2,0-0.3,0-0.5-0.1c-0.2-0.1-0.3-0.2-0.5-0.3s-0.3-0.4-0.4-0.6
		C137,4,137,3.7,137,3.3c0-0.3,0-0.6,0.1-0.8c0.1-0.2,0.2-0.4,0.3-0.6s0.3-0.3,0.5-0.4c0.2-0.1,0.4-0.1,0.6-0.1c0.2,0,0.5,0,0.6,0.1
		s0.3,0.2,0.5,0.4s0.2,0.4,0.3,0.6S140,3,140,3.2z M139.5,3.1c0-0.4-0.1-0.7-0.3-0.9c-0.2-0.2-0.4-0.3-0.7-0.3
		c-0.3,0-0.5,0.1-0.7,0.3c-0.2,0.2-0.3,0.5-0.3,0.9H139.5z"/>
	<path id="XMLID_276_" class="st0" d="M141.4,1.9v2.4c0,0.2,0,0.3,0.1,0.3c0.1,0.1,0.2,0.1,0.3,0.1c0.1,0,0.2,0,0.3,0s0.2,0,0.2-0.1
		l0,0.5c-0.1,0-0.2,0.1-0.3,0.1s-0.2,0-0.4,0c-0.2,0-0.4-0.1-0.5-0.2s-0.2-0.3-0.2-0.7V1.9h-0.5V1.5h0.5V0.3l0.5-0.3v1.5h0.9v0.5
		H141.4z"/>
	<path id="XMLID_273_" class="st0" d="M145.1,5.2V4.8c-0.1,0.1-0.3,0.3-0.5,0.4c-0.2,0.1-0.4,0.2-0.7,0.2c-0.1,0-0.3,0-0.4-0.1
		c-0.1,0-0.3-0.1-0.4-0.2c-0.1-0.1-0.2-0.2-0.3-0.4s-0.1-0.3-0.1-0.6c0-0.2,0-0.4,0.1-0.5c0.1-0.2,0.2-0.3,0.3-0.4
		c0.1-0.1,0.3-0.2,0.5-0.2s0.4-0.1,0.5-0.1c0.2,0,0.4,0,0.5,0.1s0.3,0.1,0.4,0.2V2.7c0-0.5-0.3-0.8-0.8-0.8c-0.2,0-0.4,0-0.5,0.1
		s-0.3,0.1-0.5,0.2l-0.2-0.4c0.2-0.1,0.4-0.2,0.6-0.2c0.2-0.1,0.4-0.1,0.7-0.1c0.4,0,0.7,0.1,1,0.3c0.2,0.2,0.4,0.5,0.4,0.9v2.6
		H145.1z M145.1,3.5c-0.1-0.1-0.3-0.1-0.4-0.2c-0.1,0-0.3-0.1-0.6-0.1c-0.3,0-0.5,0.1-0.6,0.2s-0.2,0.3-0.2,0.5
		c0,0.3,0.1,0.5,0.2,0.6c0.1,0.1,0.3,0.2,0.6,0.2c0.2,0,0.5-0.1,0.6-0.2c0.2-0.1,0.3-0.2,0.4-0.4V3.5z"/>
	<path id="XMLID_271_" class="st0" d="M150.8,5.2V3c0-0.4-0.1-0.7-0.2-0.9s-0.3-0.3-0.6-0.3c-0.3,0-0.5,0.1-0.6,0.3
		c-0.2,0.2-0.2,0.5-0.2,0.9v2.2h-0.5V3c0-0.4-0.1-0.7-0.2-0.9s-0.3-0.3-0.6-0.3c-0.3,0-0.5,0.1-0.6,0.3C147.1,2.3,147,2.6,147,3v2.2
		h-0.5V1.5h0.5l0,0.5c0.1-0.2,0.2-0.3,0.4-0.4c0.2-0.1,0.3-0.1,0.6-0.1c0.3,0,0.5,0.1,0.6,0.2c0.2,0.1,0.3,0.3,0.4,0.5
		c0.1-0.1,0.1-0.2,0.2-0.3c0.1-0.1,0.1-0.1,0.2-0.2c0.1-0.1,0.2-0.1,0.3-0.1c0.1,0,0.3,0,0.4,0c0.4,0,0.7,0.1,0.9,0.4
		c0.2,0.2,0.3,0.6,0.3,1.2v2.3H150.8z"/>
	<path id="XMLID_268_" class="st0" d="M155.8,5.2V4.8c-0.1,0.1-0.3,0.3-0.5,0.4c-0.2,0.1-0.4,0.2-0.7,0.2c-0.1,0-0.3,0-0.4-0.1
		c-0.1,0-0.3-0.1-0.4-0.2c-0.1-0.1-0.2-0.2-0.3-0.4s-0.1-0.3-0.1-0.6c0-0.2,0-0.4,0.1-0.5c0.1-0.2,0.2-0.3,0.3-0.4
		c0.1-0.1,0.3-0.2,0.5-0.2s0.4-0.1,0.5-0.1c0.2,0,0.4,0,0.5,0.1s0.3,0.1,0.4,0.2V2.7c0-0.5-0.3-0.8-0.8-0.8c-0.2,0-0.4,0-0.5,0.1
		S154.1,2,154,2.1l-0.2-0.4c0.2-0.1,0.4-0.2,0.6-0.2c0.2-0.1,0.4-0.1,0.7-0.1c0.4,0,0.7,0.1,1,0.3c0.2,0.2,0.4,0.5,0.4,0.9v2.6
		H155.8z M155.8,3.5c-0.1-0.1-0.3-0.1-0.4-0.2c-0.1,0-0.3-0.1-0.6-0.1c-0.3,0-0.5,0.1-0.6,0.2S154,3.8,154,4.1
		c0,0.3,0.1,0.5,0.2,0.6c0.1,0.1,0.3,0.2,0.6,0.2c0.2,0,0.5-0.1,0.6-0.2c0.2-0.1,0.3-0.2,0.4-0.4V3.5z"/>
	<path id="XMLID_265_" class="st0" d="M159.4,5.2V4.8c-0.1,0.1-0.3,0.3-0.5,0.4c-0.2,0.1-0.4,0.2-0.7,0.2c-0.2,0-0.4,0-0.5-0.1
		c-0.2-0.1-0.3-0.2-0.4-0.3c-0.1-0.2-0.2-0.3-0.3-0.6C157,4,157,3.7,157,3.4c0-0.3,0-0.6,0.1-0.9c0.1-0.3,0.2-0.5,0.3-0.6
		s0.3-0.3,0.5-0.4s0.4-0.1,0.6-0.1c0.2,0,0.4,0,0.6,0.1s0.3,0.2,0.5,0.4V0.3L160,0v5.2H159.4z M159.4,2.4c-0.1-0.2-0.2-0.3-0.4-0.4
		c-0.2-0.1-0.4-0.2-0.6-0.2c-0.3,0-0.5,0.1-0.7,0.4c-0.2,0.3-0.2,0.6-0.2,1.2c0,0.5,0.1,0.8,0.3,1.1c0.2,0.2,0.4,0.4,0.7,0.4
		c0.2,0,0.4,0,0.5-0.1c0.2-0.1,0.3-0.2,0.4-0.4V2.4z"/>
	<path id="XMLID_262_" class="st0" d="M161.4,5.1c0,0.2,0,0.4,0,0.6c0,0.2-0.1,0.3-0.2,0.4c-0.1,0.1-0.2,0.2-0.3,0.3
		c-0.1,0.1-0.3,0.1-0.6,0.2l-0.2-0.4c0.2-0.1,0.3-0.1,0.4-0.2c0.1-0.1,0.2-0.1,0.2-0.2s0.1-0.2,0.1-0.3c0-0.1,0-0.3,0-0.4V1.5h0.5
		V5.1z M161.5,0.4c0,0.1,0,0.2-0.1,0.3c-0.1,0.1-0.2,0.1-0.3,0.1c-0.1,0-0.2,0-0.3-0.1c-0.1-0.1-0.1-0.2-0.1-0.3
		c0-0.1,0-0.2,0.1-0.3c0.1-0.1,0.2-0.1,0.3-0.1c0.1,0,0.2,0,0.3,0.1C161.5,0.2,161.5,0.3,161.5,0.4z"/>
	<path id="XMLID_260_" class="st0" d="M164.6,5.2V4.8c-0.1,0.2-0.3,0.3-0.4,0.4c-0.2,0.1-0.4,0.2-0.6,0.2c-0.2,0-0.4,0-0.5-0.1
		s-0.3-0.2-0.4-0.3s-0.2-0.3-0.3-0.5c-0.1-0.2-0.1-0.4-0.1-0.7V1.5h0.5v2.2c0,0.4,0.1,0.7,0.2,0.9c0.1,0.2,0.4,0.3,0.7,0.3
		c0.3,0,0.5-0.1,0.7-0.3c0.2-0.2,0.3-0.5,0.3-0.9V1.5h0.5v3.8H164.6z"/>
	<path id="XMLID_258_" class="st0" d="M168.3,5.2V3c0-0.4-0.1-0.7-0.2-0.9c-0.1-0.2-0.4-0.3-0.7-0.3c-0.3,0-0.5,0.1-0.7,0.3
		c-0.2,0.2-0.3,0.5-0.3,0.9v2.2h-0.5V1.5h0.5l0,0.5c0.1-0.2,0.3-0.3,0.4-0.4s0.4-0.1,0.6-0.1c0.2,0,0.4,0,0.5,0.1
		c0.2,0.1,0.3,0.2,0.4,0.3c0.1,0.1,0.2,0.3,0.3,0.5c0.1,0.2,0.1,0.4,0.1,0.7v2.3H168.3z"/>
	<path id="XMLID_256_" class="st0" d="M171.9,2.2c-0.1-0.1-0.3-0.2-0.4-0.3c-0.1-0.1-0.3-0.1-0.5-0.1c-0.1,0-0.3,0-0.4,0.1
		c-0.1,0.1-0.2,0.2-0.3,0.3c-0.1,0.1-0.2,0.3-0.2,0.5S170,3.1,170,3.3c0,0.5,0.1,0.8,0.3,1.1c0.2,0.3,0.4,0.4,0.8,0.4
		c0.2,0,0.3,0,0.5-0.1c0.1-0.1,0.3-0.2,0.4-0.3l0.3,0.3c-0.2,0.2-0.3,0.3-0.5,0.4c-0.2,0.1-0.4,0.1-0.7,0.1c-0.2,0-0.4,0-0.6-0.1
		c-0.2-0.1-0.4-0.2-0.5-0.4s-0.3-0.4-0.4-0.6c-0.1-0.2-0.1-0.5-0.1-0.9c0-0.3,0-0.6,0.1-0.9c0.1-0.2,0.2-0.5,0.4-0.6
		c0.2-0.2,0.3-0.3,0.5-0.4c0.2-0.1,0.4-0.1,0.6-0.1c0.3,0,0.5,0,0.7,0.1c0.2,0.1,0.4,0.2,0.5,0.3L171.9,2.2z"/>
	<path id="XMLID_254_" class="st0" d="M173.5,1.9v2.4c0,0.2,0,0.3,0.1,0.3c0.1,0.1,0.2,0.1,0.3,0.1c0.1,0,0.2,0,0.3,0s0.2,0,0.2-0.1
		l0,0.5c-0.1,0-0.2,0.1-0.3,0.1s-0.2,0-0.4,0c-0.2,0-0.4-0.1-0.5-0.2S173,4.8,173,4.4V1.9h-0.5V1.5h0.5V0.3l0.5-0.3v1.5h0.9v0.5
		H173.5z"/>
	<path id="XMLID_251_" class="st0" d="M175.8,0.4c0,0.1,0,0.2-0.1,0.3c-0.1,0.1-0.2,0.1-0.3,0.1c-0.1,0-0.2,0-0.3-0.1
		c-0.1-0.1-0.1-0.2-0.1-0.3c0-0.1,0-0.2,0.1-0.3c0.1-0.1,0.2-0.1,0.3-0.1c0.1,0,0.2,0,0.3,0.1C175.8,0.2,175.8,0.3,175.8,0.4z
		 M175.2,5.2V1.5h0.5v3.8H175.2z"/>
	<path id="XMLID_249_" class="st0" d="M178.1,5.2h-0.5l-1.3-3.8h0.6l1,3l0.1,0.2l0.1-0.2l1-3h0.6L178.1,5.2z"/>
	<path id="XMLID_246_" class="st0" d="M182.8,3.2c0,0.1,0,0.1,0,0.2c0,0,0,0.1,0,0.1h-2.5c0,0.4,0.1,0.7,0.3,1
		c0.2,0.2,0.4,0.4,0.7,0.4c0.2,0,0.4,0,0.6-0.1s0.3-0.2,0.5-0.3l0.3,0.4c-0.1,0.1-0.2,0.1-0.3,0.2c-0.1,0.1-0.2,0.1-0.3,0.1
		c-0.1,0-0.2,0.1-0.3,0.1c-0.1,0-0.2,0-0.4,0c-0.2,0-0.3,0-0.5-0.1c-0.2-0.1-0.3-0.2-0.5-0.3s-0.3-0.4-0.4-0.6
		c-0.1-0.3-0.1-0.6-0.1-0.9c0-0.3,0-0.6,0.1-0.8c0.1-0.2,0.2-0.4,0.3-0.6s0.3-0.3,0.5-0.4c0.2-0.1,0.4-0.1,0.6-0.1
		c0.2,0,0.5,0,0.6,0.1s0.3,0.2,0.5,0.4s0.2,0.4,0.3,0.6S182.8,3,182.8,3.2z M182.3,3.1c0-0.4-0.1-0.7-0.3-0.9
		c-0.2-0.2-0.4-0.3-0.7-0.3c-0.3,0-0.5,0.1-0.7,0.3c-0.2,0.2-0.3,0.5-0.3,0.9H182.3z"/>
	<path id="XMLID_244_" class="st0" d="M185.6,1.9v2.4c0,0.2,0,0.3,0.1,0.3c0.1,0.1,0.2,0.1,0.3,0.1c0.1,0,0.2,0,0.3,0s0.2,0,0.2-0.1
		l0,0.5c-0.1,0-0.2,0.1-0.3,0.1s-0.2,0-0.4,0c-0.2,0-0.4-0.1-0.5-0.2s-0.2-0.3-0.2-0.7V1.9h-0.5V1.5h0.5V0.3l0.5-0.3v1.5h0.9v0.5
		H185.6z"/>
	<path id="XMLID_242_" class="st0" d="M189.2,2c-0.1,0-0.2-0.1-0.2-0.1c-0.1,0-0.2,0-0.3,0c-0.3,0-0.5,0.1-0.6,0.3s-0.2,0.5-0.2,0.8
		v2.2h-0.5V1.5h0.5v0.5c0.1-0.2,0.2-0.3,0.4-0.4s0.4-0.2,0.6-0.2c0.1,0,0.3,0,0.3,0s0.2,0,0.2,0.1L189.2,2z"/>
	<path id="XMLID_239_" class="st0" d="M192.7,3.2c0,0.1,0,0.1,0,0.2c0,0,0,0.1,0,0.1h-2.5c0,0.4,0.1,0.7,0.3,1
		c0.2,0.2,0.4,0.4,0.7,0.4c0.2,0,0.4,0,0.6-0.1s0.3-0.2,0.5-0.3l0.3,0.4c-0.1,0.1-0.2,0.1-0.3,0.2c-0.1,0.1-0.2,0.1-0.3,0.1
		c-0.1,0-0.2,0.1-0.3,0.1c-0.1,0-0.2,0-0.4,0c-0.2,0-0.3,0-0.5-0.1c-0.2-0.1-0.3-0.2-0.5-0.3s-0.3-0.4-0.4-0.6
		c-0.1-0.3-0.1-0.6-0.1-0.9c0-0.3,0-0.6,0.1-0.8c0.1-0.2,0.2-0.4,0.3-0.6s0.3-0.3,0.5-0.4c0.2-0.1,0.4-0.1,0.6-0.1
		c0.2,0,0.5,0,0.6,0.1s0.3,0.2,0.5,0.4s0.2,0.4,0.3,0.6S192.7,3,192.7,3.2z M192.2,3.1c0-0.4-0.1-0.7-0.3-0.9
		c-0.2-0.2-0.4-0.3-0.7-0.3c-0.3,0-0.5,0.1-0.7,0.3c-0.2,0.2-0.3,0.5-0.3,0.9H192.2z"/>
	<path id="XMLID_236_" class="st0" d="M195.5,5.2V4.8c-0.1,0.1-0.3,0.3-0.5,0.4c-0.2,0.1-0.4,0.2-0.7,0.2c-0.1,0-0.3,0-0.4-0.1
		c-0.1,0-0.3-0.1-0.4-0.2c-0.1-0.1-0.2-0.2-0.3-0.4s-0.1-0.3-0.1-0.6c0-0.2,0-0.4,0.1-0.5c0.1-0.2,0.2-0.3,0.3-0.4
		c0.1-0.1,0.3-0.2,0.5-0.2s0.4-0.1,0.5-0.1c0.2,0,0.4,0,0.5,0.1s0.3,0.1,0.4,0.2V2.7c0-0.5-0.3-0.8-0.8-0.8c-0.2,0-0.4,0-0.5,0.1
		s-0.3,0.1-0.5,0.2l-0.2-0.4c0.2-0.1,0.4-0.2,0.6-0.2c0.2-0.1,0.4-0.1,0.7-0.1c0.4,0,0.7,0.1,1,0.3c0.2,0.2,0.4,0.5,0.4,0.9v2.6
		H195.5z M195.5,3.5c-0.1-0.1-0.3-0.1-0.4-0.2c-0.1,0-0.3-0.1-0.6-0.1c-0.3,0-0.5,0.1-0.6,0.2s-0.2,0.3-0.2,0.5
		c0,0.3,0.1,0.5,0.2,0.6c0.1,0.1,0.3,0.2,0.6,0.2c0.2,0,0.5-0.1,0.6-0.2c0.2-0.1,0.3-0.2,0.4-0.4V3.5z"/>
	<path id="XMLID_234_" class="st0" d="M197.5,1.9v2.4c0,0.2,0,0.3,0.1,0.3c0.1,0.1,0.2,0.1,0.3,0.1c0.1,0,0.2,0,0.3,0s0.2,0,0.2-0.1
		l0,0.5c-0.1,0-0.2,0.1-0.3,0.1s-0.2,0-0.4,0c-0.2,0-0.4-0.1-0.5-0.2S197,4.8,197,4.4V1.9h-0.5V1.5h0.5V0.3l0.5-0.3v1.5h0.9v0.5
		H197.5z"/>
	<path id="XMLID_232_" class="st0" d="M203.5,5.2V3c0-0.4-0.1-0.7-0.2-0.9s-0.3-0.3-0.6-0.3c-0.3,0-0.5,0.1-0.6,0.3
		c-0.2,0.2-0.2,0.5-0.2,0.9v2.2h-0.5V3c0-0.4-0.1-0.7-0.2-0.9s-0.3-0.3-0.6-0.3c-0.3,0-0.5,0.1-0.6,0.3c-0.1,0.2-0.2,0.5-0.2,0.9
		v2.2h-0.5V1.5h0.5l0,0.5c0.1-0.2,0.2-0.3,0.4-0.4c0.2-0.1,0.3-0.1,0.6-0.1c0.3,0,0.5,0.1,0.6,0.2c0.2,0.1,0.3,0.3,0.4,0.5
		c0.1-0.1,0.1-0.2,0.2-0.3c0.1-0.1,0.1-0.1,0.2-0.2c0.1-0.1,0.2-0.1,0.3-0.1c0.1,0,0.3,0,0.4,0c0.4,0,0.7,0.1,0.9,0.4
		c0.2,0.2,0.3,0.6,0.3,1.2v2.3H203.5z"/>
	<path id="XMLID_229_" class="st0" d="M207.7,3.2c0,0.1,0,0.1,0,0.2c0,0,0,0.1,0,0.1h-2.5c0,0.4,0.1,0.7,0.3,1
		c0.2,0.2,0.4,0.4,0.7,0.4c0.2,0,0.4,0,0.6-0.1s0.3-0.2,0.5-0.3l0.3,0.4c-0.1,0.1-0.2,0.1-0.3,0.2c-0.1,0.1-0.2,0.1-0.3,0.1
		c-0.1,0-0.2,0.1-0.3,0.1c-0.1,0-0.2,0-0.4,0c-0.2,0-0.3,0-0.5-0.1c-0.2-0.1-0.3-0.2-0.5-0.3s-0.3-0.4-0.4-0.6
		c-0.1-0.3-0.1-0.6-0.1-0.9c0-0.3,0-0.6,0.1-0.8c0.1-0.2,0.2-0.4,0.3-0.6s0.3-0.3,0.5-0.4c0.2-0.1,0.4-0.1,0.6-0.1
		c0.2,0,0.5,0,0.6,0.1s0.3,0.2,0.5,0.4s0.2,0.4,0.3,0.6S207.7,3,207.7,3.2z M207.2,3.1c0-0.4-0.1-0.7-0.3-0.9
		c-0.2-0.2-0.4-0.3-0.7-0.3c-0.3,0-0.5,0.1-0.7,0.3c-0.2,0.2-0.3,0.5-0.3,0.9H207.2z"/>
	<path id="XMLID_227_" class="st0" d="M210.7,5.2V3c0-0.4-0.1-0.7-0.2-0.9c-0.1-0.2-0.4-0.3-0.7-0.3c-0.3,0-0.5,0.1-0.7,0.3
		c-0.2,0.2-0.3,0.5-0.3,0.9v2.2h-0.5V1.5h0.5l0,0.5c0.1-0.2,0.3-0.3,0.4-0.4s0.4-0.1,0.6-0.1c0.2,0,0.4,0,0.5,0.1
		c0.2,0.1,0.3,0.2,0.4,0.3c0.1,0.1,0.2,0.3,0.3,0.5c0.1,0.2,0.1,0.4,0.1,0.7v2.3H210.7z"/>
	<path id="XMLID_225_" class="st0" d="M212.7,1.9v2.4c0,0.2,0,0.3,0.1,0.3c0.1,0.1,0.2,0.1,0.3,0.1c0.1,0,0.2,0,0.3,0s0.2,0,0.2-0.1
		l0,0.5c-0.1,0-0.2,0.1-0.3,0.1s-0.2,0-0.4,0c-0.2,0-0.4-0.1-0.5-0.2s-0.2-0.3-0.2-0.7V1.9h-0.5V1.5h0.5V0.3l0.5-0.3v1.5h0.9v0.5
		H212.7z"/>
	<path id="XMLID_222_" class="st0" d="M218.9,3.3c0,0.3,0,0.6-0.1,0.8s-0.2,0.5-0.4,0.6c-0.1,0.2-0.3,0.3-0.5,0.4
		c-0.2,0.1-0.4,0.1-0.6,0.1s-0.4,0-0.6-0.1s-0.4-0.2-0.5-0.4s-0.3-0.4-0.3-0.6c-0.1-0.2-0.1-0.5-0.1-0.8c0-0.3,0-0.6,0.1-0.8
		s0.2-0.4,0.4-0.6c0.1-0.2,0.3-0.3,0.5-0.4c0.2-0.1,0.4-0.1,0.6-0.1s0.4,0,0.6,0.1s0.4,0.2,0.5,0.4s0.3,0.4,0.3,0.6
		S218.9,3,218.9,3.3z M218.4,3.3c0-0.5-0.1-0.9-0.3-1.1c-0.2-0.2-0.5-0.4-0.8-0.4s-0.6,0.1-0.8,0.4c-0.2,0.2-0.3,0.6-0.3,1.1
		c0,0.5,0.1,0.9,0.3,1.1c0.2,0.3,0.5,0.4,0.8,0.4s0.6-0.1,0.8-0.4C218.3,4.2,218.4,3.8,218.4,3.3z"/>
	<path id="XMLID_220_" class="st0" d="M220.7,0.5c-0.1,0-0.2,0-0.3,0.1c-0.1,0.1-0.1,0.2-0.1,0.3v0.6h0.7v0.5h-0.7v3.3h-0.5V1.9
		h-0.5V1.5h0.5V0.9c0-0.3,0.1-0.6,0.3-0.7c0.2-0.1,0.4-0.2,0.6-0.2c0.1,0,0.2,0,0.3,0c0.1,0,0.1,0,0.2,0.1v0.5
		C221,0.5,220.9,0.5,220.7,0.5z"/>
	<path id="XMLID_217_" class="st0" d="M226.2,3.3c0,0.3,0,0.6-0.1,0.9c-0.1,0.3-0.2,0.5-0.3,0.6c-0.1,0.2-0.3,0.3-0.4,0.4
		c-0.2,0.1-0.4,0.1-0.5,0.1c-0.2,0-0.4,0-0.6-0.1c-0.2-0.1-0.3-0.2-0.4-0.4v1.5l-0.5,0.3V1.5h0.5l0,0.5c0.1-0.1,0.3-0.3,0.5-0.4
		c0.2-0.1,0.4-0.2,0.7-0.2c0.2,0,0.4,0,0.5,0.1c0.2,0.1,0.3,0.2,0.4,0.3c0.1,0.2,0.2,0.3,0.3,0.6C226.2,2.7,226.2,2.9,226.2,3.3z
		 M225.7,3.3c0-0.5-0.1-0.8-0.3-1.1c-0.2-0.2-0.4-0.4-0.7-0.4c-0.2,0-0.4,0-0.5,0.1s-0.3,0.2-0.4,0.4v1.9c0.1,0.2,0.2,0.3,0.4,0.4
		c0.2,0.1,0.4,0.2,0.6,0.2c0.3,0,0.5-0.1,0.7-0.4C225.6,4.2,225.7,3.8,225.7,3.3z"/>
	<path id="XMLID_214_" class="st0" d="M229,5.2V4.8c-0.1,0.1-0.3,0.3-0.5,0.4c-0.2,0.1-0.4,0.2-0.7,0.2c-0.1,0-0.3,0-0.4-0.1
		c-0.1,0-0.3-0.1-0.4-0.2c-0.1-0.1-0.2-0.2-0.3-0.4s-0.1-0.3-0.1-0.6c0-0.2,0-0.4,0.1-0.5c0.1-0.2,0.2-0.3,0.3-0.4
		c0.1-0.1,0.3-0.2,0.5-0.2s0.4-0.1,0.5-0.1c0.2,0,0.4,0,0.5,0.1s0.3,0.1,0.4,0.2V2.7c0-0.5-0.3-0.8-0.8-0.8c-0.2,0-0.4,0-0.5,0.1
		s-0.3,0.1-0.5,0.2L227,1.7c0.2-0.1,0.4-0.2,0.6-0.2c0.2-0.1,0.4-0.1,0.7-0.1c0.4,0,0.7,0.1,1,0.3c0.2,0.2,0.4,0.5,0.4,0.9v2.6H229z
		 M229,3.5c-0.1-0.1-0.3-0.1-0.4-0.2c-0.1,0-0.3-0.1-0.6-0.1c-0.3,0-0.5,0.1-0.6,0.2s-0.2,0.3-0.2,0.5c0,0.3,0.1,0.5,0.2,0.6
		c0.1,0.1,0.3,0.2,0.6,0.2c0.2,0,0.5-0.1,0.6-0.2c0.2-0.1,0.3-0.2,0.4-0.4V3.5z"/>
	<path id="XMLID_212_" class="st0" d="M232.3,2c-0.1,0-0.2-0.1-0.2-0.1c-0.1,0-0.2,0-0.3,0c-0.3,0-0.5,0.1-0.6,0.3s-0.2,0.5-0.2,0.8
		v2.2h-0.5V1.5h0.5v0.5c0.1-0.2,0.2-0.3,0.4-0.4s0.4-0.2,0.6-0.2c0.1,0,0.3,0,0.3,0s0.2,0,0.2,0.1L232.3,2z"/>
	<path id="XMLID_210_" class="st0" d="M233.6,1.9v2.4c0,0.2,0,0.3,0.1,0.3c0.1,0.1,0.2,0.1,0.3,0.1c0.1,0,0.2,0,0.3,0s0.2,0,0.2-0.1
		l0,0.5c-0.1,0-0.2,0.1-0.3,0.1s-0.2,0-0.4,0c-0.2,0-0.4-0.1-0.5-0.2s-0.2-0.3-0.2-0.7V1.9h-0.5V1.5h0.5V0.3l0.5-0.3v1.5h0.9v0.5
		H233.6z"/>
	<path id="XMLID_207_" class="st0" d="M235.9,0.4c0,0.1,0,0.2-0.1,0.3c-0.1,0.1-0.2,0.1-0.3,0.1c-0.1,0-0.2,0-0.3-0.1
		c-0.1-0.1-0.1-0.2-0.1-0.3c0-0.1,0-0.2,0.1-0.3c0.1-0.1,0.2-0.1,0.3-0.1c0.1,0,0.2,0,0.3,0.1C235.9,0.2,235.9,0.3,235.9,0.4z
		 M235.2,5.2V1.5h0.5v3.8H235.2z"/>
	<path id="XMLID_204_" class="st0" d="M238.8,5.2V4.8c-0.1,0.1-0.3,0.3-0.5,0.4c-0.2,0.1-0.4,0.2-0.7,0.2c-0.1,0-0.3,0-0.4-0.1
		c-0.1,0-0.3-0.1-0.4-0.2c-0.1-0.1-0.2-0.2-0.3-0.4s-0.1-0.3-0.1-0.6c0-0.2,0-0.4,0.1-0.5c0.1-0.2,0.2-0.3,0.3-0.4
		c0.1-0.1,0.3-0.2,0.5-0.2s0.4-0.1,0.5-0.1c0.2,0,0.4,0,0.5,0.1s0.3,0.1,0.4,0.2V2.7c0-0.5-0.3-0.8-0.8-0.8c-0.2,0-0.4,0-0.5,0.1
		S237.1,2,237,2.1l-0.2-0.4c0.2-0.1,0.4-0.2,0.6-0.2c0.2-0.1,0.4-0.1,0.7-0.1c0.4,0,0.7,0.1,1,0.3c0.2,0.2,0.4,0.5,0.4,0.9v2.6
		H238.8z M238.8,3.5c-0.1-0.1-0.3-0.1-0.4-0.2c-0.1,0-0.3-0.1-0.6-0.1c-0.3,0-0.5,0.1-0.6,0.2S237,3.8,237,4.1
		c0,0.3,0.1,0.5,0.2,0.6c0.1,0.1,0.3,0.2,0.6,0.2c0.2,0,0.5-0.1,0.6-0.2c0.2-0.1,0.3-0.2,0.4-0.4V3.5z"/>
	<path id="XMLID_202_" class="st0" d="M240.2,5.2V0.3l0.5-0.3v5.2H240.2z"/>
	<path id="XMLID_200_" class="st0" d="M241.4,2.9V2.3h1.6v0.5H241.4z"/>
	<path id="XMLID_197_" class="st0" d="M246.6,3.3c0,0.3,0,0.6-0.1,0.8s-0.2,0.5-0.4,0.6c-0.1,0.2-0.3,0.3-0.5,0.4
		c-0.2,0.1-0.4,0.1-0.6,0.1s-0.4,0-0.6-0.1s-0.4-0.2-0.5-0.4s-0.3-0.4-0.3-0.6c-0.1-0.2-0.1-0.5-0.1-0.8c0-0.3,0-0.6,0.1-0.8
		s0.2-0.4,0.4-0.6c0.1-0.2,0.3-0.3,0.5-0.4c0.2-0.1,0.4-0.1,0.6-0.1s0.4,0,0.6,0.1s0.4,0.2,0.5,0.4s0.3,0.4,0.3,0.6
		S246.6,3,246.6,3.3z M246.1,3.3c0-0.5-0.1-0.9-0.3-1.1c-0.2-0.2-0.5-0.4-0.8-0.4s-0.6,0.1-0.8,0.4c-0.2,0.2-0.3,0.6-0.3,1.1
		c0,0.5,0.1,0.9,0.3,1.1c0.2,0.3,0.5,0.4,0.8,0.4s0.6-0.1,0.8-0.4C246,4.2,246.1,3.8,246.1,3.3z"/>
	<path id="XMLID_195_" class="st0" d="M249.6,5.2V3c0-0.4-0.1-0.7-0.2-0.9c-0.1-0.2-0.4-0.3-0.7-0.3c-0.3,0-0.5,0.1-0.7,0.3
		c-0.2,0.2-0.3,0.5-0.3,0.9v2.2h-0.5V1.5h0.5l0,0.5c0.1-0.2,0.3-0.3,0.4-0.4s0.4-0.1,0.6-0.1c0.2,0,0.4,0,0.5,0.1
		c0.2,0.1,0.3,0.2,0.4,0.3c0.1,0.1,0.2,0.3,0.3,0.5c0.1,0.2,0.1,0.4,0.1,0.7v2.3H249.6z"/>
	<path id="XMLID_193_" class="st0" d="M253.2,4.2c0,0.2,0,0.3-0.1,0.5C253.1,4.8,253,5,252.8,5c-0.1,0.1-0.3,0.1-0.4,0.2
		c-0.2,0-0.3,0.1-0.5,0.1c-0.3,0-0.5,0-0.7-0.1c-0.2-0.1-0.4-0.2-0.6-0.3l0.3-0.4c0.2,0.1,0.3,0.2,0.5,0.3c0.2,0.1,0.4,0.1,0.5,0.1
		c0.3,0,0.4-0.1,0.6-0.2s0.2-0.2,0.2-0.4c0-0.1,0-0.1,0-0.2c0-0.1-0.1-0.1-0.2-0.2c-0.1-0.1-0.2-0.1-0.3-0.2
		c-0.1-0.1-0.3-0.1-0.4-0.2c-0.2-0.1-0.3-0.2-0.5-0.2c-0.1-0.1-0.2-0.2-0.3-0.2c-0.1-0.1-0.1-0.2-0.2-0.3c0-0.1-0.1-0.2-0.1-0.4
		c0-0.1,0-0.3,0.1-0.4c0.1-0.1,0.1-0.2,0.2-0.3c0.1-0.1,0.2-0.2,0.4-0.2c0.1,0,0.3-0.1,0.5-0.1c0.3,0,0.5,0,0.7,0.1
		c0.2,0.1,0.4,0.2,0.5,0.3l-0.3,0.4c-0.1-0.1-0.3-0.2-0.4-0.3c-0.1-0.1-0.3-0.1-0.5-0.1s-0.4,0-0.5,0.1s-0.2,0.2-0.2,0.3
		c0,0.1,0,0.2,0,0.2s0.1,0.1,0.1,0.2c0.1,0.1,0.2,0.1,0.3,0.2c0.1,0.1,0.2,0.1,0.4,0.2c0.2,0.1,0.3,0.2,0.5,0.2
		c0.1,0.1,0.3,0.2,0.4,0.2c0.1,0.1,0.2,0.2,0.2,0.3C253.2,3.9,253.2,4.1,253.2,4.2z"/>
	<path id="XMLID_190_" class="st0" d="M256.8,3.2c0,0.1,0,0.1,0,0.2c0,0,0,0.1,0,0.1h-2.5c0,0.4,0.1,0.7,0.3,1
		c0.2,0.2,0.4,0.4,0.7,0.4c0.2,0,0.4,0,0.6-0.1s0.3-0.2,0.5-0.3l0.3,0.4c-0.1,0.1-0.2,0.1-0.3,0.2c-0.1,0.1-0.2,0.1-0.3,0.1
		c-0.1,0-0.2,0.1-0.3,0.1c-0.1,0-0.2,0-0.4,0c-0.2,0-0.3,0-0.5-0.1c-0.2-0.1-0.3-0.2-0.5-0.3s-0.3-0.4-0.4-0.6
		c-0.1-0.3-0.1-0.6-0.1-0.9c0-0.3,0-0.6,0.1-0.8c0.1-0.2,0.2-0.4,0.3-0.6s0.3-0.3,0.5-0.4c0.2-0.1,0.4-0.1,0.6-0.1
		c0.2,0,0.5,0,0.6,0.1s0.3,0.2,0.5,0.4s0.2,0.4,0.3,0.6S256.8,3,256.8,3.2z M256.3,3.1c0-0.4-0.1-0.7-0.3-0.9
		c-0.2-0.2-0.4-0.3-0.7-0.3c-0.3,0-0.5,0.1-0.7,0.3c-0.2,0.2-0.3,0.5-0.3,0.9H256.3z"/>
	<path id="XMLID_188_" class="st0" d="M258.1,1.9v2.4c0,0.2,0,0.3,0.1,0.3c0.1,0.1,0.2,0.1,0.3,0.1c0.1,0,0.2,0,0.3,0s0.2,0,0.2-0.1
		l0,0.5c-0.1,0-0.2,0.1-0.3,0.1s-0.2,0-0.4,0c-0.2,0-0.4-0.1-0.5-0.2s-0.2-0.3-0.2-0.7V1.9h-0.5V1.5h0.5V0.3l0.5-0.3v1.5h0.9v0.5
		H258.1z"/>
	<path id="XMLID_186_" class="st0" d="M263.5,4.2c0,0.2,0,0.3-0.1,0.5c-0.1,0.1-0.2,0.2-0.3,0.3c-0.1,0.1-0.3,0.1-0.4,0.2
		c-0.2,0-0.3,0.1-0.5,0.1c-0.3,0-0.5,0-0.7-0.1c-0.2-0.1-0.4-0.2-0.6-0.3l0.3-0.4c0.2,0.1,0.3,0.2,0.5,0.3c0.2,0.1,0.4,0.1,0.5,0.1
		c0.3,0,0.4-0.1,0.6-0.2s0.2-0.2,0.2-0.4c0-0.1,0-0.1,0-0.2c0-0.1-0.1-0.1-0.2-0.2c-0.1-0.1-0.2-0.1-0.3-0.2
		c-0.1-0.1-0.3-0.1-0.4-0.2c-0.2-0.1-0.3-0.2-0.5-0.2c-0.1-0.1-0.2-0.2-0.3-0.2c-0.1-0.1-0.1-0.2-0.2-0.3c0-0.1-0.1-0.2-0.1-0.4
		c0-0.1,0-0.3,0.1-0.4c0.1-0.1,0.1-0.2,0.2-0.3c0.1-0.1,0.2-0.2,0.4-0.2c0.1,0,0.3-0.1,0.5-0.1c0.3,0,0.5,0,0.7,0.1
		c0.2,0.1,0.4,0.2,0.5,0.3l-0.3,0.4c-0.1-0.1-0.3-0.2-0.4-0.3c-0.1-0.1-0.3-0.1-0.5-0.1s-0.4,0-0.5,0.1s-0.2,0.2-0.2,0.3
		c0,0.1,0,0.2,0,0.2s0.1,0.1,0.1,0.2c0.1,0.1,0.2,0.1,0.3,0.2c0.1,0.1,0.2,0.1,0.4,0.2c0.2,0.1,0.3,0.2,0.5,0.2
		c0.1,0.1,0.3,0.2,0.4,0.2c0.1,0.1,0.2,0.2,0.2,0.3C263.5,3.9,263.5,4.1,263.5,4.2z"/>
	<path id="XMLID_183_" class="st0" d="M267.1,3.2c0,0.1,0,0.1,0,0.2c0,0,0,0.1,0,0.1h-2.5c0,0.4,0.1,0.7,0.3,1
		c0.2,0.2,0.4,0.4,0.7,0.4c0.2,0,0.4,0,0.6-0.1s0.3-0.2,0.5-0.3l0.3,0.4c-0.1,0.1-0.2,0.1-0.3,0.2c-0.1,0.1-0.2,0.1-0.3,0.1
		c-0.1,0-0.2,0.1-0.3,0.1c-0.1,0-0.2,0-0.4,0c-0.2,0-0.3,0-0.5-0.1c-0.2-0.1-0.3-0.2-0.5-0.3s-0.3-0.4-0.4-0.6
		C264,4,264,3.7,264,3.3c0-0.3,0-0.6,0.1-0.8c0.1-0.2,0.2-0.4,0.3-0.6s0.3-0.3,0.5-0.4c0.2-0.1,0.4-0.1,0.6-0.1c0.2,0,0.5,0,0.6,0.1
		s0.3,0.2,0.5,0.4s0.2,0.4,0.3,0.6S267.1,3,267.1,3.2z M266.6,3.1c0-0.4-0.1-0.7-0.3-0.9c-0.2-0.2-0.4-0.3-0.7-0.3
		c-0.3,0-0.5,0.1-0.7,0.3c-0.2,0.2-0.3,0.5-0.3,0.9H266.6z"/>
	<path id="XMLID_180_" class="st0" d="M268.4,0.4c0,0.1,0,0.2-0.1,0.3c-0.1,0.1-0.2,0.1-0.3,0.1c-0.1,0-0.2,0-0.3-0.1
		c-0.1-0.1-0.1-0.2-0.1-0.3c0-0.1,0-0.2,0.1-0.3c0.1-0.1,0.2-0.1,0.3-0.1c0.1,0,0.2,0,0.3,0.1C268.4,0.2,268.4,0.3,268.4,0.4z
		 M267.7,5.2V1.5h0.5v3.8H267.7z"/>
	<path id="XMLID_178_" class="st0" d="M268.9,5.2V4.8l2.1-2.9h-1.9V1.5h2.5v0.4l-2.1,2.9h2.1v0.5H268.9z"/>
	<path id="XMLID_176_" class="st0" d="M274.6,5.2V4.8c-0.1,0.2-0.3,0.3-0.4,0.4c-0.2,0.1-0.4,0.2-0.6,0.2c-0.2,0-0.4,0-0.5-0.1
		s-0.3-0.2-0.4-0.3s-0.2-0.3-0.3-0.5c-0.1-0.2-0.1-0.4-0.1-0.7V1.5h0.5v2.2c0,0.4,0.1,0.7,0.2,0.9c0.1,0.2,0.4,0.3,0.7,0.3
		c0.3,0,0.5-0.1,0.7-0.3c0.2-0.2,0.3-0.5,0.3-0.9V1.5h0.5v3.8H274.6z"/>
	<path id="XMLID_174_" class="st0" d="M277.9,2c-0.1,0-0.2-0.1-0.2-0.1c-0.1,0-0.2,0-0.3,0c-0.3,0-0.5,0.1-0.6,0.3s-0.2,0.5-0.2,0.8
		v2.2H276V1.5h0.5v0.5c0.1-0.2,0.2-0.3,0.4-0.4s0.4-0.2,0.6-0.2c0.1,0,0.3,0,0.3,0s0.2,0,0.2,0.1L277.9,2z"/>
	<path id="XMLID_171_" class="st0" d="M281.4,3.2c0,0.1,0,0.1,0,0.2c0,0,0,0.1,0,0.1h-2.5c0,0.4,0.1,0.7,0.3,1
		c0.2,0.2,0.4,0.4,0.7,0.4c0.2,0,0.4,0,0.6-0.1s0.3-0.2,0.5-0.3l0.3,0.4c-0.1,0.1-0.2,0.1-0.3,0.2c-0.1,0.1-0.2,0.1-0.3,0.1
		c-0.1,0-0.2,0.1-0.3,0.1c-0.1,0-0.2,0-0.4,0c-0.2,0-0.3,0-0.5-0.1c-0.2-0.1-0.3-0.2-0.5-0.3s-0.3-0.4-0.4-0.6
		c-0.1-0.3-0.1-0.6-0.1-0.9c0-0.3,0-0.6,0.1-0.8c0.1-0.2,0.2-0.4,0.3-0.6s0.3-0.3,0.5-0.4c0.2-0.1,0.4-0.1,0.6-0.1
		c0.2,0,0.5,0,0.6,0.1s0.3,0.2,0.5,0.4s0.2,0.4,0.3,0.6S281.4,3,281.4,3.2z M280.9,3.1c0-0.4-0.1-0.7-0.3-0.9
		c-0.2-0.2-0.4-0.3-0.7-0.3c-0.3,0-0.5,0.1-0.7,0.3c-0.2,0.2-0.3,0.5-0.3,0.9H280.9z"/>
	<path id="XMLID_169_" class="st0" d="M284.4,4.2c0,0.2,0,0.3-0.1,0.5C284.2,4.8,284.1,5,284,5c-0.1,0.1-0.3,0.1-0.4,0.2
		c-0.2,0-0.3,0.1-0.5,0.1c-0.3,0-0.5,0-0.7-0.1c-0.2-0.1-0.4-0.2-0.6-0.3l0.3-0.4c0.2,0.1,0.3,0.2,0.5,0.3c0.2,0.1,0.4,0.1,0.5,0.1
		c0.3,0,0.4-0.1,0.6-0.2s0.2-0.2,0.2-0.4c0-0.1,0-0.1,0-0.2c0-0.1-0.1-0.1-0.2-0.2c-0.1-0.1-0.2-0.1-0.3-0.2
		c-0.1-0.1-0.3-0.1-0.4-0.2c-0.2-0.1-0.3-0.2-0.5-0.2c-0.1-0.1-0.2-0.2-0.3-0.2c-0.1-0.1-0.1-0.2-0.2-0.3c0-0.1-0.1-0.2-0.1-0.4
		c0-0.1,0-0.3,0.1-0.4c0.1-0.1,0.1-0.2,0.2-0.3c0.1-0.1,0.2-0.2,0.4-0.2c0.1,0,0.3-0.1,0.5-0.1c0.3,0,0.5,0,0.7,0.1
		c0.2,0.1,0.4,0.2,0.5,0.3L284,2.2c-0.1-0.1-0.3-0.2-0.4-0.3c-0.1-0.1-0.3-0.1-0.5-0.1s-0.4,0-0.5,0.1s-0.2,0.2-0.2,0.3
		c0,0.1,0,0.2,0,0.2s0.1,0.1,0.1,0.2c0.1,0.1,0.2,0.1,0.3,0.2c0.1,0.1,0.2,0.1,0.4,0.2c0.2,0.1,0.3,0.2,0.5,0.2
		c0.1,0.1,0.3,0.2,0.4,0.2c0.1,0.1,0.2,0.2,0.2,0.3C284.4,3.9,284.4,4.1,284.4,4.2z"/>
	<path id="XMLID_166_" class="st0" d="M287.2,0.4c0,0.1,0,0.2-0.1,0.3c-0.1,0.1-0.2,0.1-0.3,0.1c-0.1,0-0.2,0-0.3-0.1
		c-0.1-0.1-0.1-0.2-0.1-0.3c0-0.1,0-0.2,0.1-0.3c0.1-0.1,0.2-0.1,0.3-0.1c0.1,0,0.2,0,0.3,0.1C287.2,0.2,287.2,0.3,287.2,0.4z
		 M286.6,5.2V1.5h0.5v3.8H286.6z"/>
	<path id="XMLID_164_" class="st0" d="M290.3,5.2V3c0-0.4-0.1-0.7-0.2-0.9c-0.1-0.2-0.4-0.3-0.7-0.3c-0.3,0-0.5,0.1-0.7,0.3
		c-0.2,0.2-0.3,0.5-0.3,0.9v2.2H288V1.5h0.5l0,0.5c0.1-0.2,0.3-0.3,0.4-0.4s0.4-0.1,0.6-0.1c0.2,0,0.4,0,0.5,0.1
		c0.2,0.1,0.3,0.2,0.4,0.3c0.1,0.1,0.2,0.3,0.3,0.5c0.1,0.2,0.1,0.4,0.1,0.7v2.3H290.3z"/>
	<path id="XMLID_161_" class="st0" d="M295.3,5.2V4.8c-0.1,0.1-0.3,0.3-0.5,0.4c-0.2,0.1-0.4,0.2-0.7,0.2c-0.1,0-0.3,0-0.4-0.1
		c-0.1,0-0.3-0.1-0.4-0.2c-0.1-0.1-0.2-0.2-0.3-0.4S293,4.3,293,4.1c0-0.2,0-0.4,0.1-0.5c0.1-0.2,0.2-0.3,0.3-0.4
		c0.1-0.1,0.3-0.2,0.5-0.2s0.4-0.1,0.5-0.1c0.2,0,0.4,0,0.5,0.1s0.3,0.1,0.4,0.2V2.7c0-0.5-0.3-0.8-0.8-0.8c-0.2,0-0.4,0-0.5,0.1
		s-0.3,0.1-0.5,0.2l-0.2-0.4c0.2-0.1,0.4-0.2,0.6-0.2c0.2-0.1,0.4-0.1,0.7-0.1c0.4,0,0.7,0.1,1,0.3c0.2,0.2,0.4,0.5,0.4,0.9v2.6
		H295.3z M295.3,3.5c-0.1-0.1-0.3-0.1-0.4-0.2c-0.1,0-0.3-0.1-0.6-0.1c-0.3,0-0.5,0.1-0.6,0.2s-0.2,0.3-0.2,0.5
		c0,0.3,0.1,0.5,0.2,0.6c0.1,0.1,0.3,0.2,0.6,0.2c0.2,0,0.5-0.1,0.6-0.2c0.2-0.1,0.3-0.2,0.4-0.4V3.5z"/>
	<path id="XMLID_159_" class="st0" d="M299,5.2V3c0-0.4-0.1-0.7-0.2-0.9c-0.1-0.2-0.4-0.3-0.7-0.3c-0.3,0-0.5,0.1-0.7,0.3
		c-0.2,0.2-0.3,0.5-0.3,0.9v2.2h-0.5V1.5h0.5l0,0.5c0.1-0.2,0.3-0.3,0.4-0.4s0.4-0.1,0.6-0.1c0.2,0,0.4,0,0.5,0.1
		c0.2,0.1,0.3,0.2,0.4,0.3c0.1,0.1,0.2,0.3,0.3,0.5c0.1,0.2,0.1,0.4,0.1,0.7v2.3H299z"/>
	<path id="XMLID_156_" class="st0" d="M304.9,3.3c0,0.3,0,0.6-0.1,0.8s-0.2,0.5-0.4,0.6c-0.1,0.2-0.3,0.3-0.5,0.4
		c-0.2,0.1-0.4,0.1-0.6,0.1s-0.4,0-0.6-0.1s-0.4-0.2-0.5-0.4s-0.3-0.4-0.3-0.6c-0.1-0.2-0.1-0.5-0.1-0.8c0-0.3,0-0.6,0.1-0.8
		s0.2-0.4,0.4-0.6c0.1-0.2,0.3-0.3,0.5-0.4c0.2-0.1,0.4-0.1,0.6-0.1s0.4,0,0.6,0.1s0.4,0.2,0.5,0.4s0.3,0.4,0.3,0.6
		S304.9,3,304.9,3.3z M304.4,3.3c0-0.5-0.1-0.9-0.3-1.1c-0.2-0.2-0.5-0.4-0.8-0.4s-0.6,0.1-0.8,0.4c-0.2,0.2-0.3,0.6-0.3,1.1
		c0,0.5,0.1,0.9,0.3,1.1c0.2,0.3,0.5,0.4,0.8,0.4s0.6-0.1,0.8-0.4C304.3,4.2,304.4,3.8,304.4,3.3z"/>
	<path id="XMLID_153_" class="st0" d="M308.6,3.3c0,0.3,0,0.6-0.1,0.9c-0.1,0.3-0.2,0.5-0.3,0.6c-0.1,0.2-0.3,0.3-0.4,0.4
		c-0.2,0.1-0.4,0.1-0.5,0.1c-0.2,0-0.4,0-0.6-0.1c-0.2-0.1-0.3-0.2-0.4-0.4v1.5l-0.5,0.3V1.5h0.5l0,0.5c0.1-0.1,0.3-0.3,0.5-0.4
		c0.2-0.1,0.4-0.2,0.7-0.2c0.2,0,0.4,0,0.5,0.1c0.2,0.1,0.3,0.2,0.4,0.3c0.1,0.2,0.2,0.3,0.3,0.6C308.5,2.7,308.6,2.9,308.6,3.3z
		 M308.1,3.3c0-0.5-0.1-0.8-0.3-1.1c-0.2-0.2-0.4-0.4-0.7-0.4c-0.2,0-0.4,0-0.5,0.1s-0.3,0.2-0.4,0.4v1.9c0.1,0.2,0.2,0.3,0.4,0.4
		c0.2,0.1,0.4,0.2,0.6,0.2c0.3,0,0.5-0.1,0.7-0.4C308,4.2,308.1,3.8,308.1,3.3z"/>
	<path id="XMLID_150_" class="st0" d="M312.1,3.2c0,0.1,0,0.1,0,0.2c0,0,0,0.1,0,0.1h-2.5c0,0.4,0.1,0.7,0.3,1
		c0.2,0.2,0.4,0.4,0.7,0.4c0.2,0,0.4,0,0.6-0.1s0.3-0.2,0.5-0.3l0.3,0.4c-0.1,0.1-0.2,0.1-0.3,0.2c-0.1,0.1-0.2,0.1-0.3,0.1
		c-0.1,0-0.2,0.1-0.3,0.1c-0.1,0-0.2,0-0.4,0c-0.2,0-0.3,0-0.5-0.1c-0.2-0.1-0.3-0.2-0.5-0.3s-0.3-0.4-0.4-0.6
		C309.1,4,309,3.7,309,3.3c0-0.3,0-0.6,0.1-0.8c0.1-0.2,0.2-0.4,0.3-0.6s0.3-0.3,0.5-0.4c0.2-0.1,0.4-0.1,0.6-0.1
		c0.2,0,0.5,0,0.6,0.1s0.3,0.2,0.5,0.4s0.2,0.4,0.3,0.6S312.1,3,312.1,3.2z M311.6,3.1c0-0.4-0.1-0.7-0.3-0.9
		c-0.2-0.2-0.4-0.3-0.7-0.3c-0.3,0-0.5,0.1-0.7,0.3c-0.2,0.2-0.3,0.5-0.3,0.9H311.6z"/>
	<path id="XMLID_148_" class="st0" d="M315.1,5.2V3c0-0.4-0.1-0.7-0.2-0.9c-0.1-0.2-0.4-0.3-0.7-0.3c-0.3,0-0.5,0.1-0.7,0.3
		c-0.2,0.2-0.3,0.5-0.3,0.9v2.2h-0.5V1.5h0.5l0,0.5c0.1-0.2,0.3-0.3,0.4-0.4s0.4-0.1,0.6-0.1c0.2,0,0.4,0,0.5,0.1
		c0.2,0.1,0.3,0.2,0.4,0.3c0.1,0.1,0.2,0.3,0.3,0.5c0.1,0.2,0.1,0.4,0.1,0.7v2.3H315.1z"/>
	<path id="XMLID_146_" class="st0" d="M316.2,2.9V2.3h1.6v0.5H316.2z"/>
	<path id="XMLID_144_" class="st0" d="M318.4,5.2V0.3l0.5-0.3v5.2H318.4z"/>
	<path id="XMLID_141_" class="st0" d="M322,5.2V4.8c-0.1,0.1-0.3,0.3-0.5,0.4c-0.2,0.1-0.4,0.2-0.7,0.2c-0.1,0-0.3,0-0.4-0.1
		c-0.1,0-0.3-0.1-0.4-0.2c-0.1-0.1-0.2-0.2-0.3-0.4s-0.1-0.3-0.1-0.6c0-0.2,0-0.4,0.1-0.5c0.1-0.2,0.2-0.3,0.3-0.4
		c0.1-0.1,0.3-0.2,0.5-0.2s0.4-0.1,0.5-0.1c0.2,0,0.4,0,0.5,0.1s0.3,0.1,0.4,0.2V2.7c0-0.5-0.3-0.8-0.8-0.8c-0.2,0-0.4,0-0.5,0.1
		s-0.3,0.1-0.5,0.2l-0.2-0.4c0.2-0.1,0.4-0.2,0.6-0.2c0.2-0.1,0.4-0.1,0.7-0.1c0.4,0,0.7,0.1,1,0.3c0.2,0.2,0.4,0.5,0.4,0.9v2.6H322
		z M322,3.5c-0.1-0.1-0.3-0.1-0.4-0.2c-0.1,0-0.3-0.1-0.6-0.1c-0.3,0-0.5,0.1-0.6,0.2s-0.2,0.3-0.2,0.5c0,0.3,0.1,0.5,0.2,0.6
		c0.1,0.1,0.3,0.2,0.6,0.2c0.2,0,0.5-0.1,0.6-0.2c0.2-0.1,0.3-0.2,0.4-0.4V3.5z"/>
	<path id="XMLID_138_" class="st0" d="M326.3,3.3c0,0.3,0,0.6-0.1,0.9c-0.1,0.3-0.2,0.5-0.3,0.6c-0.1,0.2-0.3,0.3-0.4,0.4
		c-0.2,0.1-0.4,0.1-0.5,0.1c-0.2,0-0.4,0-0.6-0.1c-0.2-0.1-0.3-0.2-0.4-0.4v0.4h-0.5V0.3l0.5-0.3l0,1.9c0.1-0.1,0.3-0.3,0.5-0.4
		c0.2-0.1,0.4-0.2,0.7-0.2c0.2,0,0.4,0,0.5,0.1c0.2,0.1,0.3,0.2,0.4,0.3c0.1,0.2,0.2,0.3,0.3,0.6C326.3,2.7,326.3,2.9,326.3,3.3z
		 M325.8,3.3c0-0.5-0.1-0.8-0.3-1.1c-0.2-0.2-0.4-0.4-0.7-0.4c-0.2,0-0.4,0-0.5,0.1s-0.3,0.2-0.4,0.4v1.9c0.1,0.2,0.2,0.3,0.4,0.4
		c0.2,0.1,0.4,0.2,0.6,0.2c0.3,0,0.5-0.1,0.7-0.4C325.7,4.2,325.8,3.8,325.8,3.3z"/>
	<path id="XMLID_135_" class="st0" d="M329.8,3.2c0,0.1,0,0.1,0,0.2c0,0,0,0.1,0,0.1h-2.5c0,0.4,0.1,0.7,0.3,1
		c0.2,0.2,0.4,0.4,0.7,0.4c0.2,0,0.4,0,0.6-0.1s0.3-0.2,0.5-0.3l0.3,0.4c-0.1,0.1-0.2,0.1-0.3,0.2c-0.1,0.1-0.2,0.1-0.3,0.1
		c-0.1,0-0.2,0.1-0.3,0.1c-0.1,0-0.2,0-0.4,0c-0.2,0-0.3,0-0.5-0.1c-0.2-0.1-0.3-0.2-0.5-0.3s-0.3-0.4-0.4-0.6
		c-0.1-0.3-0.1-0.6-0.1-0.9c0-0.3,0-0.6,0.1-0.8c0.1-0.2,0.2-0.4,0.3-0.6s0.3-0.3,0.5-0.4c0.2-0.1,0.4-0.1,0.6-0.1
		c0.2,0,0.5,0,0.6,0.1s0.3,0.2,0.5,0.4s0.2,0.4,0.3,0.6S329.8,3,329.8,3.2z M329.3,3.1c0-0.4-0.1-0.7-0.3-0.9
		c-0.2-0.2-0.4-0.3-0.7-0.3c-0.3,0-0.5,0.1-0.7,0.3c-0.2,0.2-0.3,0.5-0.3,0.9H329.3z"/>
	<path id="XMLID_133_" class="st0" d="M330.5,5.2V0.3L331,0v5.2H330.5z"/>
	<path id="XMLID_131_" class="st0" d="M335.7,2.2c-0.1-0.1-0.3-0.2-0.4-0.3c-0.1-0.1-0.3-0.1-0.5-0.1c-0.1,0-0.3,0-0.4,0.1
		c-0.1,0.1-0.2,0.2-0.3,0.3c-0.1,0.1-0.2,0.3-0.2,0.5s-0.1,0.4-0.1,0.6c0,0.5,0.1,0.8,0.3,1.1c0.2,0.3,0.4,0.4,0.8,0.4
		c0.2,0,0.3,0,0.5-0.1c0.1-0.1,0.3-0.2,0.4-0.3l0.3,0.3c-0.2,0.2-0.3,0.3-0.5,0.4c-0.2,0.1-0.4,0.1-0.7,0.1c-0.2,0-0.4,0-0.6-0.1
		c-0.2-0.1-0.4-0.2-0.5-0.4s-0.3-0.4-0.4-0.6c-0.1-0.2-0.1-0.5-0.1-0.9c0-0.3,0-0.6,0.1-0.9c0.1-0.2,0.2-0.5,0.4-0.6
		c0.2-0.2,0.3-0.3,0.5-0.4c0.2-0.1,0.4-0.1,0.6-0.1c0.3,0,0.5,0,0.7,0.1c0.2,0.1,0.4,0.2,0.5,0.3L335.7,2.2z"/>
	<path id="XMLID_128_" class="st0" d="M339.6,3.3c0,0.3,0,0.6-0.1,0.8s-0.2,0.5-0.4,0.6c-0.1,0.2-0.3,0.3-0.5,0.4
		c-0.2,0.1-0.4,0.1-0.6,0.1s-0.4,0-0.6-0.1S337,5,336.8,4.8s-0.3-0.4-0.3-0.6c-0.1-0.2-0.1-0.5-0.1-0.8c0-0.3,0-0.6,0.1-0.8
		s0.2-0.4,0.4-0.6c0.1-0.2,0.3-0.3,0.5-0.4c0.2-0.1,0.4-0.1,0.6-0.1s0.4,0,0.6,0.1s0.4,0.2,0.5,0.4s0.3,0.4,0.3,0.6
		S339.6,3,339.6,3.3z M339.1,3.3c0-0.5-0.1-0.9-0.3-1.1c-0.2-0.2-0.5-0.4-0.8-0.4s-0.6,0.1-0.8,0.4c-0.2,0.2-0.3,0.6-0.3,1.1
		c0,0.5,0.1,0.9,0.3,1.1c0.2,0.3,0.5,0.4,0.8,0.4s0.6-0.1,0.8-0.4C339,4.2,339.1,3.8,339.1,3.3z"/>
	<path id="XMLID_126_" class="st0" d="M344.6,5.2V3c0-0.4-0.1-0.7-0.2-0.9s-0.3-0.3-0.6-0.3c-0.3,0-0.5,0.1-0.6,0.3
		C343.1,2.3,343,2.6,343,3v2.2h-0.5V3c0-0.4-0.1-0.7-0.2-0.9s-0.3-0.3-0.6-0.3c-0.3,0-0.5,0.1-0.6,0.3c-0.1,0.2-0.2,0.5-0.2,0.9v2.2
		h-0.5V1.5h0.5l0,0.5c0.1-0.2,0.2-0.3,0.4-0.4c0.2-0.1,0.3-0.1,0.6-0.1c0.3,0,0.5,0.1,0.6,0.2c0.2,0.1,0.3,0.3,0.4,0.5
		c0.1-0.1,0.1-0.2,0.2-0.3c0.1-0.1,0.1-0.1,0.2-0.2c0.1-0.1,0.2-0.1,0.3-0.1c0.1,0,0.3,0,0.4,0c0.4,0,0.7,0.1,0.9,0.4
		c0.2,0.2,0.3,0.6,0.3,1.2v2.3H344.6z"/>
	<path id="XMLID_124_" class="st0" d="M350.3,5.2V3c0-0.4-0.1-0.7-0.2-0.9s-0.3-0.3-0.6-0.3c-0.3,0-0.5,0.1-0.6,0.3
		c-0.2,0.2-0.2,0.5-0.2,0.9v2.2h-0.5V3c0-0.4-0.1-0.7-0.2-0.9s-0.3-0.3-0.6-0.3c-0.3,0-0.5,0.1-0.6,0.3c-0.1,0.2-0.2,0.5-0.2,0.9
		v2.2H346V1.5h0.5l0,0.5c0.1-0.2,0.2-0.3,0.4-0.4c0.2-0.1,0.3-0.1,0.6-0.1c0.3,0,0.5,0.1,0.6,0.2c0.2,0.1,0.3,0.3,0.4,0.5
		c0.1-0.1,0.1-0.2,0.2-0.3c0.1-0.1,0.1-0.1,0.2-0.2c0.1-0.1,0.2-0.1,0.3-0.1c0.1,0,0.3,0,0.4,0c0.4,0,0.7,0.1,0.9,0.4
		c0.2,0.2,0.3,0.6,0.3,1.2v2.3H350.3z"/>
	<path id="XMLID_122_" class="st0" d="M354,5.2V4.8c-0.1,0.2-0.3,0.3-0.4,0.4c-0.2,0.1-0.4,0.2-0.6,0.2c-0.2,0-0.4,0-0.5-0.1
		s-0.3-0.2-0.4-0.3s-0.2-0.3-0.3-0.5c-0.1-0.2-0.1-0.4-0.1-0.7V1.5h0.5v2.2c0,0.4,0.1,0.7,0.2,0.9c0.1,0.2,0.4,0.3,0.7,0.3
		c0.3,0,0.5-0.1,0.7-0.3c0.2-0.2,0.3-0.5,0.3-0.9V1.5h0.5v3.8H354z"/>
	<path id="XMLID_120_" class="st0" d="M357.7,5.2V3c0-0.4-0.1-0.7-0.2-0.9c-0.1-0.2-0.4-0.3-0.7-0.3c-0.3,0-0.5,0.1-0.7,0.3
		c-0.2,0.2-0.3,0.5-0.3,0.9v2.2h-0.5V1.5h0.5l0,0.5c0.1-0.2,0.3-0.3,0.4-0.4s0.4-0.1,0.6-0.1c0.2,0,0.4,0,0.5,0.1
		c0.2,0.1,0.3,0.2,0.4,0.3c0.1,0.1,0.2,0.3,0.3,0.5c0.1,0.2,0.1,0.4,0.1,0.7v2.3H357.7z"/>
	<path id="XMLID_117_" class="st0" d="M359.8,0.4c0,0.1,0,0.2-0.1,0.3c-0.1,0.1-0.2,0.1-0.3,0.1c-0.1,0-0.2,0-0.3-0.1
		C359,0.6,359,0.5,359,0.4c0-0.1,0-0.2,0.1-0.3c0.1-0.1,0.2-0.1,0.3-0.1c0.1,0,0.2,0,0.3,0.1C359.7,0.2,359.8,0.3,359.8,0.4z
		 M359.1,5.2V1.5h0.5v3.8H359.1z"/>
	<path id="XMLID_115_" class="st0" d="M361.2,1.9v2.4c0,0.2,0,0.3,0.1,0.3c0.1,0.1,0.2,0.1,0.3,0.1c0.1,0,0.2,0,0.3,0s0.2,0,0.2-0.1
		l0,0.5c-0.1,0-0.2,0.1-0.3,0.1s-0.2,0-0.4,0c-0.2,0-0.4-0.1-0.5-0.2s-0.2-0.3-0.2-0.7V1.9h-0.5V1.5h0.5V0.3l0.5-0.3v1.5h0.9v0.5
		H361.2z"/>
	<path id="XMLID_113_" class="st0" d="M363.9,6.5h-0.5l0.5-1.4l-1.3-3.7h0.6l0.9,2.7l0.1,0.4l0.1-0.4l0.9-2.7h0.6L363.9,6.5z"/>
	<path id="XMLID_111_" class="st0" d="M366,2.9V2.3h1.6v0.5H366z"/>
	<path id="XMLID_108_" class="st0" d="M371.2,3.3c0,0.3,0,0.6-0.1,0.9c-0.1,0.3-0.2,0.5-0.3,0.6c-0.1,0.2-0.3,0.3-0.4,0.4
		c-0.2,0.1-0.4,0.1-0.5,0.1c-0.2,0-0.4,0-0.6-0.1c-0.2-0.1-0.3-0.2-0.4-0.4v0.4h-0.5V0.3l0.5-0.3l0,1.9c0.1-0.1,0.3-0.3,0.5-0.4
		c0.2-0.1,0.4-0.2,0.7-0.2c0.2,0,0.4,0,0.5,0.1c0.2,0.1,0.3,0.2,0.4,0.3c0.1,0.2,0.2,0.3,0.3,0.6C371.2,2.7,371.2,2.9,371.2,3.3z
		 M370.7,3.3c0-0.5-0.1-0.8-0.3-1.1c-0.2-0.2-0.4-0.4-0.7-0.4c-0.2,0-0.4,0-0.5,0.1s-0.3,0.2-0.4,0.4v1.9c0.1,0.2,0.2,0.3,0.4,0.4
		c0.2,0.1,0.4,0.2,0.6,0.2c0.3,0,0.5-0.1,0.7-0.4C370.6,4.2,370.7,3.8,370.7,3.3z"/>
	<path id="XMLID_105_" class="st0" d="M374,5.2V4.8c-0.1,0.1-0.3,0.3-0.5,0.4c-0.2,0.1-0.4,0.2-0.7,0.2c-0.1,0-0.3,0-0.4-0.1
		c-0.1,0-0.3-0.1-0.4-0.2c-0.1-0.1-0.2-0.2-0.3-0.4s-0.1-0.3-0.1-0.6c0-0.2,0-0.4,0.1-0.5c0.1-0.2,0.2-0.3,0.3-0.4
		c0.1-0.1,0.3-0.2,0.5-0.2s0.4-0.1,0.5-0.1c0.2,0,0.4,0,0.5,0.1s0.3,0.1,0.4,0.2V2.7c0-0.5-0.3-0.8-0.8-0.8c-0.2,0-0.4,0-0.5,0.1
		s-0.3,0.1-0.5,0.2L372,1.7c0.2-0.1,0.4-0.2,0.6-0.2c0.2-0.1,0.4-0.1,0.7-0.1c0.4,0,0.7,0.1,1,0.3c0.2,0.2,0.4,0.5,0.4,0.9v2.6H374z
		 M374,3.5c-0.1-0.1-0.3-0.1-0.4-0.2c-0.1,0-0.3-0.1-0.6-0.1c-0.3,0-0.5,0.1-0.6,0.2s-0.2,0.3-0.2,0.5c0,0.3,0.1,0.5,0.2,0.6
		c0.1,0.1,0.3,0.2,0.6,0.2c0.2,0,0.5-0.1,0.6-0.2c0.2-0.1,0.3-0.2,0.4-0.4V3.5z"/>
	<path id="XMLID_103_" class="st0" d="M377.7,4.2c0,0.2,0,0.3-0.1,0.5c-0.1,0.1-0.2,0.2-0.3,0.3c-0.1,0.1-0.3,0.1-0.4,0.2
		c-0.2,0-0.3,0.1-0.5,0.1c-0.3,0-0.5,0-0.7-0.1c-0.2-0.1-0.4-0.2-0.6-0.3l0.3-0.4c0.2,0.1,0.3,0.2,0.5,0.3c0.2,0.1,0.4,0.1,0.5,0.1
		c0.3,0,0.4-0.1,0.6-0.2s0.2-0.2,0.2-0.4c0-0.1,0-0.1,0-0.2c0-0.1-0.1-0.1-0.2-0.2c-0.1-0.1-0.2-0.1-0.3-0.2
		c-0.1-0.1-0.3-0.1-0.4-0.2c-0.2-0.1-0.3-0.2-0.5-0.2c-0.1-0.1-0.2-0.2-0.3-0.2c-0.1-0.1-0.1-0.2-0.2-0.3c0-0.1-0.1-0.2-0.1-0.4
		c0-0.1,0-0.3,0.1-0.4c0.1-0.1,0.1-0.2,0.2-0.3c0.1-0.1,0.2-0.2,0.4-0.2c0.1,0,0.3-0.1,0.5-0.1c0.3,0,0.5,0,0.7,0.1
		c0.2,0.1,0.4,0.2,0.5,0.3l-0.3,0.4c-0.1-0.1-0.3-0.2-0.4-0.3c-0.1-0.1-0.3-0.1-0.5-0.1s-0.4,0-0.5,0.1s-0.2,0.2-0.2,0.3
		c0,0.1,0,0.2,0,0.2s0.1,0.1,0.1,0.2c0.1,0.1,0.2,0.1,0.3,0.2c0.1,0.1,0.2,0.1,0.4,0.2c0.2,0.1,0.3,0.2,0.5,0.2
		c0.1,0.1,0.3,0.2,0.4,0.2c0.1,0.1,0.2,0.2,0.2,0.3C377.6,3.9,377.7,4.1,377.7,4.2z"/>
	<path id="XMLID_100_" class="st0" d="M381.2,3.2c0,0.1,0,0.1,0,0.2c0,0,0,0.1,0,0.1h-2.5c0,0.4,0.1,0.7,0.3,1
		c0.2,0.2,0.4,0.4,0.7,0.4c0.2,0,0.4,0,0.6-0.1s0.3-0.2,0.5-0.3l0.3,0.4c-0.1,0.1-0.2,0.1-0.3,0.2c-0.1,0.1-0.2,0.1-0.3,0.1
		c-0.1,0-0.2,0.1-0.3,0.1c-0.1,0-0.2,0-0.4,0c-0.2,0-0.3,0-0.5-0.1c-0.2-0.1-0.3-0.2-0.5-0.3s-0.3-0.4-0.4-0.6
		c-0.1-0.3-0.1-0.6-0.1-0.9c0-0.3,0-0.6,0.1-0.8c0.1-0.2,0.2-0.4,0.3-0.6s0.3-0.3,0.5-0.4c0.2-0.1,0.4-0.1,0.6-0.1
		c0.2,0,0.5,0,0.6,0.1s0.3,0.2,0.5,0.4s0.2,0.4,0.3,0.6S381.2,3,381.2,3.2z M380.7,3.1c0-0.4-0.1-0.7-0.3-0.9
		c-0.2-0.2-0.4-0.3-0.7-0.3c-0.3,0-0.5,0.1-0.7,0.3c-0.2,0.2-0.3,0.5-0.3,0.9H380.7z"/>
	<path id="XMLID_97_" class="st0" d="M384.1,5.2V4.8c-0.1,0.1-0.3,0.3-0.5,0.4c-0.2,0.1-0.4,0.2-0.7,0.2c-0.2,0-0.4,0-0.5-0.1
		c-0.2-0.1-0.3-0.2-0.4-0.3c-0.1-0.2-0.2-0.3-0.3-0.6c-0.1-0.2-0.1-0.5-0.1-0.9c0-0.3,0-0.6,0.1-0.9c0.1-0.3,0.2-0.5,0.3-0.6
		s0.3-0.3,0.5-0.4s0.4-0.1,0.6-0.1c0.2,0,0.4,0,0.6,0.1s0.3,0.2,0.5,0.4V0.3l0.5-0.3v5.2H384.1z M384.1,2.4
		c-0.1-0.2-0.2-0.3-0.4-0.4c-0.2-0.1-0.4-0.2-0.6-0.2c-0.3,0-0.5,0.1-0.7,0.4c-0.2,0.3-0.2,0.6-0.2,1.2c0,0.5,0.1,0.8,0.3,1.1
		c0.2,0.2,0.4,0.4,0.7,0.4c0.2,0,0.4,0,0.5-0.1c0.2-0.1,0.3-0.2,0.4-0.4V2.4z"/>
	<path id="XMLID_95_" class="st0" d="M389.3,4.2c0,0.2,0,0.3-0.1,0.5C389.1,4.8,389,5,388.9,5c-0.1,0.1-0.3,0.1-0.4,0.2
		c-0.2,0-0.3,0.1-0.5,0.1c-0.3,0-0.5,0-0.7-0.1c-0.2-0.1-0.4-0.2-0.6-0.3l0.3-0.4c0.2,0.1,0.3,0.2,0.5,0.3c0.2,0.1,0.4,0.1,0.5,0.1
		c0.3,0,0.4-0.1,0.6-0.2s0.2-0.2,0.2-0.4c0-0.1,0-0.1,0-0.2c0-0.1-0.1-0.1-0.2-0.2c-0.1-0.1-0.2-0.1-0.3-0.2
		c-0.1-0.1-0.3-0.1-0.4-0.2c-0.2-0.1-0.3-0.2-0.5-0.2c-0.1-0.1-0.2-0.2-0.3-0.2c-0.1-0.1-0.1-0.2-0.2-0.3c0-0.1-0.1-0.2-0.1-0.4
		c0-0.1,0-0.3,0.1-0.4c0.1-0.1,0.1-0.2,0.2-0.3c0.1-0.1,0.2-0.2,0.4-0.2c0.1,0,0.3-0.1,0.5-0.1c0.3,0,0.5,0,0.7,0.1
		c0.2,0.1,0.4,0.2,0.5,0.3l-0.3,0.4c-0.1-0.1-0.3-0.2-0.4-0.3c-0.1-0.1-0.3-0.1-0.5-0.1s-0.4,0-0.5,0.1s-0.2,0.2-0.2,0.3
		c0,0.1,0,0.2,0,0.2s0.1,0.1,0.1,0.2c0.1,0.1,0.2,0.1,0.3,0.2c0.1,0.1,0.2,0.1,0.4,0.2c0.2,0.1,0.3,0.2,0.5,0.2
		c0.1,0.1,0.3,0.2,0.4,0.2c0.1,0.1,0.2,0.2,0.2,0.3C389.3,3.9,389.3,4.1,389.3,4.2z"/>
	<path id="XMLID_93_" class="st0" d="M390.6,1.9v2.4c0,0.2,0,0.3,0.1,0.3c0.1,0.1,0.2,0.1,0.3,0.1c0.1,0,0.2,0,0.3,0s0.2,0,0.2-0.1
		l0,0.5c-0.1,0-0.2,0.1-0.3,0.1s-0.2,0-0.4,0c-0.2,0-0.4-0.1-0.5-0.2s-0.2-0.3-0.2-0.7V1.9h-0.5V1.5h0.5V0.3l0.5-0.3v1.5h0.9v0.5
		H390.6z"/>
	<path id="XMLID_91_" class="st0" d="M394.6,5.2V4.8c-0.1,0.2-0.3,0.3-0.4,0.4c-0.2,0.1-0.4,0.2-0.6,0.2c-0.2,0-0.4,0-0.5-0.1
		s-0.3-0.2-0.4-0.3s-0.2-0.3-0.3-0.5c-0.1-0.2-0.1-0.4-0.1-0.7V1.5h0.5v2.2c0,0.4,0.1,0.7,0.2,0.9c0.1,0.2,0.4,0.3,0.7,0.3
		c0.3,0,0.5-0.1,0.7-0.3c0.2-0.2,0.3-0.5,0.3-0.9V1.5h0.5v3.8H394.6z"/>
	<path id="XMLID_88_" class="st0" d="M398.2,5.2V4.8c-0.1,0.1-0.3,0.3-0.5,0.4c-0.2,0.1-0.4,0.2-0.7,0.2c-0.2,0-0.4,0-0.5-0.1
		c-0.2-0.1-0.3-0.2-0.4-0.3c-0.1-0.2-0.2-0.3-0.3-0.6c-0.1-0.2-0.1-0.5-0.1-0.9c0-0.3,0-0.6,0.1-0.9c0.1-0.3,0.2-0.5,0.3-0.6
		s0.3-0.3,0.5-0.4s0.4-0.1,0.6-0.1c0.2,0,0.4,0,0.6,0.1s0.3,0.2,0.5,0.4V0.3l0.5-0.3v5.2H398.2z M398.2,2.4
		c-0.1-0.2-0.2-0.3-0.4-0.4c-0.2-0.1-0.4-0.2-0.6-0.2c-0.3,0-0.5,0.1-0.7,0.4c-0.2,0.3-0.2,0.6-0.2,1.2c0,0.5,0.1,0.8,0.3,1.1
		c0.2,0.2,0.4,0.4,0.7,0.4c0.2,0,0.4,0,0.5-0.1c0.2-0.1,0.3-0.2,0.4-0.4V2.4z"/>
	<path id="XMLID_86_" class="st0" d="M400.6,6.5h-0.5l0.5-1.4l-1.3-3.7h0.6l0.9,2.7l0.1,0.4l0.1-0.4l0.9-2.7h0.6L400.6,6.5z"/>
	<path id="XMLID_83_" class="st0" d="M403.3,1.8H403l0.1-1.6h0.7L403.3,1.8z M404.9,1.8h-0.4l0.1-1.6h0.7L404.9,1.8z"/>
	<path id="XMLID_81_" class="st0" d="M407.6,5.2v-5h3v0.5h-2.5v1.6h1.4v0.5h-1.4v1.9h2.6v0.5H407.6z"/>
	<path id="XMLID_78_" class="st0" d="M414.4,3.3c0,0.3,0,0.6-0.1,0.9c-0.1,0.3-0.2,0.5-0.3,0.6c-0.1,0.2-0.3,0.3-0.4,0.4
		c-0.2,0.1-0.4,0.1-0.5,0.1c-0.2,0-0.4,0-0.6-0.1c-0.2-0.1-0.3-0.2-0.4-0.4v1.5l-0.5,0.3V1.5h0.5l0,0.5c0.1-0.1,0.3-0.3,0.5-0.4
		c0.2-0.1,0.4-0.2,0.7-0.2c0.2,0,0.4,0,0.5,0.1c0.2,0.1,0.3,0.2,0.4,0.3c0.1,0.2,0.2,0.3,0.3,0.6C414.4,2.7,414.4,2.9,414.4,3.3z
		 M413.9,3.3c0-0.5-0.1-0.8-0.3-1.1c-0.2-0.2-0.4-0.4-0.7-0.4c-0.2,0-0.4,0-0.5,0.1s-0.3,0.2-0.4,0.4v1.9c0.1,0.2,0.2,0.3,0.4,0.4
		c0.2,0.1,0.4,0.2,0.6,0.2c0.3,0,0.5-0.1,0.7-0.4C413.8,4.2,413.9,3.8,413.9,3.3z"/>
	<path id="XMLID_75_" class="st0" d="M415.7,0.4c0,0.1,0,0.2-0.1,0.3c-0.1,0.1-0.2,0.1-0.3,0.1c-0.1,0-0.2,0-0.3-0.1
		c-0.1-0.1-0.1-0.2-0.1-0.3c0-0.1,0-0.2,0.1-0.3c0.1-0.1,0.2-0.1,0.3-0.1c0.1,0,0.2,0,0.3,0.1C415.7,0.2,415.7,0.3,415.7,0.4z
		 M415.1,5.2V1.5h0.5v3.8H415.1z"/>
	<path id="XMLID_73_" class="st0" d="M416.5,5.2V0.3L417,0v5.2H416.5z"/>
	<path id="XMLID_70_" class="st0" d="M420.7,3.2c0,0.1,0,0.1,0,0.2c0,0,0,0.1,0,0.1h-2.5c0,0.4,0.1,0.7,0.3,1
		c0.2,0.2,0.4,0.4,0.7,0.4c0.2,0,0.4,0,0.6-0.1s0.3-0.2,0.5-0.3l0.3,0.4c-0.1,0.1-0.2,0.1-0.3,0.2c-0.1,0.1-0.2,0.1-0.3,0.1
		c-0.1,0-0.2,0.1-0.3,0.1c-0.1,0-0.2,0-0.4,0c-0.2,0-0.3,0-0.5-0.1c-0.2-0.1-0.3-0.2-0.5-0.3s-0.3-0.4-0.4-0.6
		c-0.1-0.3-0.1-0.6-0.1-0.9c0-0.3,0-0.6,0.1-0.8c0.1-0.2,0.2-0.4,0.3-0.6s0.3-0.3,0.5-0.4c0.2-0.1,0.4-0.1,0.6-0.1
		c0.2,0,0.5,0,0.6,0.1s0.3,0.2,0.5,0.4s0.2,0.4,0.3,0.6S420.7,3,420.7,3.2z M420.3,3.1c0-0.4-0.1-0.7-0.3-0.9
		c-0.2-0.2-0.4-0.3-0.7-0.3c-0.3,0-0.5,0.1-0.7,0.3c-0.2,0.2-0.3,0.5-0.3,0.9H420.3z"/>
	<path id="XMLID_67_" class="st0" d="M424.4,3.3c0,0.3,0,0.6-0.1,0.9c-0.1,0.3-0.2,0.5-0.3,0.6c-0.1,0.2-0.3,0.3-0.4,0.4
		c-0.2,0.1-0.4,0.1-0.5,0.1c-0.2,0-0.4,0-0.6-0.1c-0.2-0.1-0.3-0.2-0.4-0.4v1.5l-0.5,0.3V1.5h0.5l0,0.5c0.1-0.1,0.3-0.3,0.5-0.4
		c0.2-0.1,0.4-0.2,0.7-0.2c0.2,0,0.4,0,0.5,0.1c0.2,0.1,0.3,0.2,0.4,0.3c0.1,0.2,0.2,0.3,0.3,0.6C424.4,2.7,424.4,2.9,424.4,3.3z
		 M423.9,3.3c0-0.5-0.1-0.8-0.3-1.1c-0.2-0.2-0.4-0.4-0.7-0.4c-0.2,0-0.4,0-0.5,0.1s-0.3,0.2-0.4,0.4v1.9c0.1,0.2,0.2,0.3,0.4,0.4
		c0.2,0.1,0.4,0.2,0.6,0.2c0.3,0,0.5-0.1,0.7-0.4C423.8,4.2,423.9,3.8,423.9,3.3z"/>
	<path id="XMLID_65_" class="st0" d="M427.4,4.2c0,0.2,0,0.3-0.1,0.5C427.2,4.8,427.1,5,427,5c-0.1,0.1-0.3,0.1-0.4,0.2
		c-0.2,0-0.3,0.1-0.5,0.1c-0.3,0-0.5,0-0.7-0.1c-0.2-0.1-0.4-0.2-0.6-0.3l0.3-0.4c0.2,0.1,0.3,0.2,0.5,0.3c0.2,0.1,0.4,0.1,0.5,0.1
		c0.3,0,0.4-0.1,0.6-0.2s0.2-0.2,0.2-0.4c0-0.1,0-0.1,0-0.2c0-0.1-0.1-0.1-0.2-0.2c-0.1-0.1-0.2-0.1-0.3-0.2
		c-0.1-0.1-0.3-0.1-0.4-0.2c-0.2-0.1-0.3-0.2-0.5-0.2c-0.1-0.1-0.2-0.2-0.3-0.2c-0.1-0.1-0.1-0.2-0.2-0.3c0-0.1-0.1-0.2-0.1-0.4
		c0-0.1,0-0.3,0.1-0.4c0.1-0.1,0.1-0.2,0.2-0.3c0.1-0.1,0.2-0.2,0.4-0.2c0.1,0,0.3-0.1,0.5-0.1c0.3,0,0.5,0,0.7,0.1
		c0.2,0.1,0.4,0.2,0.5,0.3L427,2.2c-0.1-0.1-0.3-0.2-0.4-0.3c-0.1-0.1-0.3-0.1-0.5-0.1s-0.4,0-0.5,0.1s-0.2,0.2-0.2,0.3
		c0,0.1,0,0.2,0,0.2s0.1,0.1,0.1,0.2c0.1,0.1,0.2,0.1,0.3,0.2c0.1,0.1,0.2,0.1,0.4,0.2c0.2,0.1,0.3,0.2,0.5,0.2
		c0.1,0.1,0.3,0.2,0.4,0.2c0.1,0.1,0.2,0.2,0.2,0.3C427.3,3.9,427.4,4.1,427.4,4.2z"/>
	<path id="XMLID_63_" class="st0" d="M429.1,6.5h-0.5l0.5-1.4l-1.3-3.7h0.6l0.9,2.7l0.1,0.4l0.1-0.4l0.9-2.7h0.6L429.1,6.5z"/>
	<path id="XMLID_60_" class="st0" d="M436.6,1.6c0,0.4-0.1,0.7-0.3,0.9C436,2.8,435.7,3,435.4,3l1.1,2.2h-0.6l-1.1-2.1h-1.2v2.1H433
		v-5h2c0.2,0,0.4,0,0.6,0.1s0.4,0.1,0.5,0.3c0.1,0.1,0.2,0.3,0.3,0.4C436.5,1.2,436.6,1.4,436.6,1.6z M436,1.6
		c0-0.3-0.1-0.5-0.3-0.7c-0.2-0.2-0.4-0.2-0.8-0.2h-1.4v1.9h1.3c0.4,0,0.6-0.1,0.8-0.2S436,2,436,1.6z"/>
	<path id="XMLID_57_" class="st0" d="M440.1,3.2c0,0.1,0,0.1,0,0.2c0,0,0,0.1,0,0.1h-2.5c0,0.4,0.1,0.7,0.3,1
		c0.2,0.2,0.4,0.4,0.7,0.4c0.2,0,0.4,0,0.6-0.1s0.3-0.2,0.5-0.3l0.3,0.4c-0.1,0.1-0.2,0.1-0.3,0.2c-0.1,0.1-0.2,0.1-0.3,0.1
		c-0.1,0-0.2,0.1-0.3,0.1c-0.1,0-0.2,0-0.4,0c-0.2,0-0.3,0-0.5-0.1c-0.2-0.1-0.3-0.2-0.5-0.3s-0.3-0.4-0.4-0.6
		c-0.1-0.3-0.1-0.6-0.1-0.9c0-0.3,0-0.6,0.1-0.8c0.1-0.2,0.2-0.4,0.3-0.6s0.3-0.3,0.5-0.4c0.2-0.1,0.4-0.1,0.6-0.1
		c0.2,0,0.5,0,0.6,0.1s0.3,0.2,0.5,0.4s0.2,0.4,0.3,0.6S440.1,3,440.1,3.2z M439.6,3.1c0-0.4-0.1-0.7-0.3-0.9
		c-0.2-0.2-0.4-0.3-0.7-0.3c-0.3,0-0.5,0.1-0.7,0.3c-0.2,0.2-0.3,0.5-0.3,0.9H439.6z"/>
	<path id="XMLID_55_" class="st0" d="M443.1,4.2c0,0.2,0,0.3-0.1,0.5c-0.1,0.1-0.2,0.2-0.3,0.3c-0.1,0.1-0.3,0.1-0.4,0.2
		c-0.2,0-0.3,0.1-0.5,0.1c-0.3,0-0.5,0-0.7-0.1c-0.2-0.1-0.4-0.2-0.6-0.3l0.3-0.4c0.2,0.1,0.3,0.2,0.5,0.3c0.2,0.1,0.4,0.1,0.5,0.1
		c0.3,0,0.4-0.1,0.6-0.2s0.2-0.2,0.2-0.4c0-0.1,0-0.1,0-0.2c0-0.1-0.1-0.1-0.2-0.2c-0.1-0.1-0.2-0.1-0.3-0.2
		c-0.1-0.1-0.3-0.1-0.4-0.2c-0.2-0.1-0.3-0.2-0.5-0.2c-0.1-0.1-0.2-0.2-0.3-0.2c-0.1-0.1-0.1-0.2-0.2-0.3c0-0.1-0.1-0.2-0.1-0.4
		c0-0.1,0-0.3,0.1-0.4c0.1-0.1,0.1-0.2,0.2-0.3c0.1-0.1,0.2-0.2,0.4-0.2c0.1,0,0.3-0.1,0.5-0.1c0.3,0,0.5,0,0.7,0.1
		c0.2,0.1,0.4,0.2,0.5,0.3l-0.3,0.4c-0.1-0.1-0.3-0.2-0.4-0.3c-0.1-0.1-0.3-0.1-0.5-0.1s-0.4,0-0.5,0.1s-0.2,0.2-0.2,0.3
		c0,0.1,0,0.2,0,0.2s0.1,0.1,0.1,0.2c0.1,0.1,0.2,0.1,0.3,0.2c0.1,0.1,0.2,0.1,0.4,0.2c0.2,0.1,0.3,0.2,0.5,0.2
		c0.1,0.1,0.3,0.2,0.4,0.2c0.1,0.1,0.2,0.2,0.2,0.3C443.1,3.9,443.1,4.1,443.1,4.2z"/>
	<path id="XMLID_53_" class="st0" d="M444.5,4.8c0,0.1,0,0.2-0.1,0.3c-0.1,0.1-0.2,0.1-0.3,0.1s-0.2,0-0.3-0.1
		c-0.1-0.1-0.1-0.2-0.1-0.3s0-0.2,0.1-0.3c0.1-0.1,0.2-0.1,0.3-0.1s0.2,0,0.3,0.1C444.4,4.6,444.5,4.7,444.5,4.8z"/>
	<path id="XMLID_51_" class="st0" d="M446.3,5.2c0-0.3,0.1-0.6,0.1-0.8s0.2-0.4,0.3-0.6c0.1-0.2,0.3-0.4,0.5-0.5
		c0.2-0.2,0.4-0.3,0.6-0.5c0.2-0.1,0.4-0.3,0.5-0.4c0.1-0.1,0.3-0.2,0.3-0.3s0.1-0.2,0.2-0.3s0-0.2,0-0.3c0-0.3-0.1-0.5-0.3-0.6
		c-0.2-0.1-0.4-0.2-0.8-0.2c-0.3,0-0.5,0-0.7,0.1c-0.2,0.1-0.4,0.2-0.5,0.3l-0.3-0.4c0.1-0.1,0.2-0.2,0.3-0.2s0.2-0.1,0.4-0.2
		s0.3-0.1,0.4-0.1c0.1,0,0.3,0,0.5,0c0.2,0,0.4,0,0.6,0.1c0.2,0.1,0.4,0.1,0.5,0.2c0.1,0.1,0.2,0.2,0.3,0.4c0.1,0.2,0.1,0.4,0.1,0.6
		c0,0.2,0,0.3-0.1,0.5s-0.1,0.3-0.2,0.4c-0.1,0.1-0.2,0.2-0.4,0.4s-0.4,0.3-0.6,0.4c-0.3,0.2-0.5,0.3-0.6,0.5
		c-0.2,0.1-0.3,0.3-0.4,0.4c-0.1,0.1-0.2,0.2-0.2,0.4s-0.1,0.2-0.1,0.4h2.7v0.5H446.3z"/>
	<path id="XMLID_48_" class="st0" d="M453.9,2.7c0,0.4,0,0.8-0.1,1.1c-0.1,0.3-0.2,0.6-0.4,0.8c-0.2,0.2-0.4,0.4-0.6,0.5
		c-0.2,0.1-0.5,0.2-0.8,0.2c-0.3,0-0.5-0.1-0.8-0.2c-0.2-0.1-0.4-0.3-0.6-0.5c-0.2-0.2-0.3-0.5-0.4-0.8s-0.1-0.7-0.1-1.1
		c0-0.4,0-0.8,0.1-1.1s0.2-0.6,0.4-0.8c0.2-0.2,0.4-0.4,0.6-0.5c0.2-0.1,0.5-0.2,0.8-0.2c0.3,0,0.5,0.1,0.8,0.2
		c0.2,0.1,0.4,0.3,0.6,0.5c0.2,0.2,0.3,0.5,0.4,0.8C453.8,1.9,453.9,2.3,453.9,2.7z M453.3,2.7c0-0.6-0.1-1.2-0.3-1.5
		c-0.2-0.4-0.6-0.6-1-0.6c-0.4,0-0.8,0.2-1,0.6c-0.2,0.4-0.3,0.9-0.3,1.5c0,0.6,0.1,1.2,0.3,1.5c0.2,0.4,0.6,0.6,1,0.6
		c0.4,0,0.8-0.2,1-0.6C453.2,3.9,453.3,3.4,453.3,2.7z"/>
	<path id="XMLID_45_" class="st0" d="M458.1,2.7c0,0.4,0,0.8-0.1,1.1c-0.1,0.3-0.2,0.6-0.4,0.8c-0.2,0.2-0.4,0.4-0.6,0.5
		c-0.2,0.1-0.5,0.2-0.8,0.2c-0.3,0-0.5-0.1-0.8-0.2c-0.2-0.1-0.4-0.3-0.6-0.5c-0.2-0.2-0.3-0.5-0.4-0.8s-0.1-0.7-0.1-1.1
		c0-0.4,0-0.8,0.1-1.1s0.2-0.6,0.4-0.8c0.2-0.2,0.4-0.4,0.6-0.5c0.2-0.1,0.5-0.2,0.8-0.2c0.3,0,0.5,0.1,0.8,0.2
		c0.2,0.1,0.4,0.3,0.6,0.5c0.2,0.2,0.3,0.5,0.4,0.8C458.1,1.9,458.1,2.3,458.1,2.7z M457.6,2.7c0-0.6-0.1-1.2-0.3-1.5
		c-0.2-0.4-0.6-0.6-1-0.6c-0.4,0-0.8,0.2-1,0.6c-0.2,0.4-0.3,0.9-0.3,1.5c0,0.6,0.1,1.2,0.3,1.5c0.2,0.4,0.6,0.6,1,0.6
		c0.4,0,0.8-0.2,1-0.6C457.5,3.9,457.6,3.4,457.6,2.7z"/>
	<path id="XMLID_43_" class="st0" d="M461.7,3.8c0,0.5-0.2,0.8-0.5,1.1s-0.7,0.4-1.3,0.4c-0.2,0-0.3,0-0.5-0.1
		c-0.2,0-0.3-0.1-0.4-0.2c-0.1-0.1-0.3-0.1-0.4-0.2s-0.2-0.2-0.3-0.3l0.4-0.4c0.2,0.2,0.3,0.3,0.5,0.4c0.2,0.1,0.4,0.2,0.7,0.2
		c0.4,0,0.7-0.1,0.9-0.3c0.2-0.2,0.3-0.4,0.3-0.7c0-0.3-0.1-0.5-0.3-0.7s-0.5-0.2-0.9-0.2h-0.3V2.4h0.3c0.3,0,0.6-0.1,0.7-0.2
		s0.2-0.4,0.2-0.6c0-0.1,0-0.2-0.1-0.3c0-0.1-0.1-0.2-0.2-0.3c-0.1-0.1-0.2-0.1-0.3-0.2c-0.1,0-0.3-0.1-0.5-0.1
		c-0.2,0-0.4,0-0.6,0.1c-0.2,0.1-0.3,0.2-0.4,0.3l-0.4-0.4c0.1-0.1,0.2-0.2,0.3-0.2c0.1-0.1,0.2-0.1,0.3-0.2s0.2-0.1,0.4-0.1
		c0.1,0,0.3-0.1,0.4-0.1c0.2,0,0.4,0,0.6,0.1c0.2,0.1,0.4,0.1,0.5,0.2c0.1,0.1,0.2,0.2,0.3,0.4s0.1,0.3,0.1,0.6
		c0,0.3-0.1,0.5-0.2,0.7s-0.3,0.3-0.5,0.4c0.1,0,0.2,0.1,0.3,0.1c0.1,0.1,0.2,0.1,0.3,0.2c0.1,0.1,0.1,0.2,0.2,0.4
		C461.7,3.4,461.7,3.6,461.7,3.8z"/>
	<path id="XMLID_41_" class="st0" d="M467.8,5.2V1.8V1.3c0,0,0,0.1-0.1,0.2c0,0.1,0,0.1-0.1,0.2c0,0.1-0.1,0.1-0.1,0.2
		c0,0.1-0.1,0.1-0.1,0.2l-1.3,3.2l-1.3-3.2c0-0.1-0.1-0.1-0.1-0.2c0-0.1-0.1-0.2-0.1-0.2c0-0.1,0-0.1-0.1-0.2c0-0.1,0-0.1-0.1-0.2
		v0.5v3.4H464v-5h0.6l1.2,3c0,0.1,0.1,0.2,0.1,0.3c0,0.1,0.1,0.2,0.1,0.3c0,0.1,0.1,0.2,0.1,0.3c0,0.1,0,0.1,0.1,0.2
		c0-0.1,0-0.1,0.1-0.2c0-0.1,0.1-0.2,0.1-0.3c0-0.1,0.1-0.2,0.1-0.3c0-0.1,0.1-0.2,0.1-0.2l1.2-3h0.6v5H467.8z"/>
	<path id="XMLID_38_" class="st0" d="M471.4,5.2V4.8c-0.1,0.1-0.3,0.3-0.5,0.4c-0.2,0.1-0.4,0.2-0.7,0.2c-0.1,0-0.3,0-0.4-0.1
		c-0.1,0-0.3-0.1-0.4-0.2c-0.1-0.1-0.2-0.2-0.3-0.4S469,4.3,469,4.1c0-0.2,0-0.4,0.1-0.5c0.1-0.2,0.2-0.3,0.3-0.4
		c0.1-0.1,0.3-0.2,0.5-0.2s0.4-0.1,0.5-0.1c0.2,0,0.4,0,0.5,0.1s0.3,0.1,0.4,0.2V2.7c0-0.5-0.3-0.8-0.8-0.8c-0.2,0-0.4,0-0.5,0.1
		s-0.3,0.1-0.5,0.2l-0.2-0.4c0.2-0.1,0.4-0.2,0.6-0.2c0.2-0.1,0.4-0.1,0.7-0.1c0.4,0,0.7,0.1,1,0.3c0.2,0.2,0.4,0.5,0.4,0.9v2.6
		H471.4z M471.4,3.5c-0.1-0.1-0.3-0.1-0.4-0.2c-0.1,0-0.3-0.1-0.6-0.1c-0.3,0-0.5,0.1-0.6,0.2s-0.2,0.3-0.2,0.5
		c0,0.3,0.1,0.5,0.2,0.6c0.1,0.1,0.3,0.2,0.6,0.2c0.2,0,0.5-0.1,0.6-0.2c0.2-0.1,0.3-0.2,0.4-0.4V3.5z"/>
	<path id="XMLID_36_" class="st0" d="M473.8,6.5h-0.5l0.5-1.4l-1.3-3.7h0.6l0.9,2.7l0.1,0.4l0.1-0.4l0.9-2.7h0.6L473.8,6.5z"/>
	<path id="XMLID_33_" class="st0" d="M476.3,6.1H476l0.1-1.7h0.7L476.3,6.1z M476.9,1.9c0,0.1,0,0.2-0.1,0.3
		c-0.1,0.1-0.2,0.1-0.3,0.1s-0.2,0-0.3-0.1C476,2.1,476,2,476,1.9c0-0.1,0-0.2,0.1-0.3c0.1-0.1,0.2-0.1,0.3-0.1s0.2,0,0.3,0.1
		C476.9,1.6,476.9,1.7,476.9,1.9z"/>
	<path id="XMLID_31_" class="st0" d="M480.8,3.5c0,0.3,0,0.6-0.1,0.8c-0.1,0.2-0.2,0.4-0.4,0.5c-0.2,0.1-0.4,0.2-0.6,0.3
		c-0.2,0.1-0.5,0.1-0.8,0.1c-0.3,0-0.6,0-0.9-0.1s-0.5-0.2-0.7-0.3l0.3-0.4c0.2,0.1,0.4,0.2,0.6,0.3s0.5,0.1,0.7,0.1
		c0.4,0,0.8-0.1,1-0.3c0.2-0.2,0.3-0.5,0.3-0.9c0-0.3-0.1-0.6-0.3-0.8c-0.2-0.2-0.5-0.3-0.9-0.3c-0.2,0-0.4,0-0.6,0.1
		c-0.2,0.1-0.3,0.1-0.5,0.2l-0.6-0.2l0.2-2.4h2.9v0.5h-2.4L478,2.3c0.1-0.1,0.3-0.2,0.5-0.2c0.2-0.1,0.4-0.1,0.6-0.1
		c0.3,0,0.5,0,0.8,0.1c0.2,0.1,0.4,0.2,0.5,0.3s0.2,0.3,0.3,0.5C480.8,3.1,480.8,3.3,480.8,3.5z"/>
	<path id="XMLID_28_" class="st0" d="M484.4,4v1.2h-0.5V4h-2.7V3.6l2.6-3.4h0.6v3.3h0.7V4H484.4z M483.9,1.3V0.9
		c0,0.1-0.1,0.1-0.1,0.2c-0.1,0.1-0.1,0.2-0.2,0.2s-0.1,0.2-0.2,0.3c-0.1,0.1-0.1,0.2-0.2,0.3l-0.7,0.9c-0.1,0.1-0.1,0.1-0.2,0.2
		s-0.1,0.2-0.2,0.2c-0.1,0.1-0.1,0.2-0.2,0.2c-0.1,0.1-0.1,0.1-0.2,0.2h0.5h1.6V1.3z"/>
	<path id="XMLID_26_" class="st0" d="M486.9,6c-0.2-0.2-0.4-0.3-0.5-0.6c-0.2-0.2-0.3-0.4-0.5-0.7s-0.2-0.5-0.3-0.8
		s-0.1-0.6-0.1-0.9c0-0.3,0-0.7,0.1-1c0.1-0.3,0.2-0.6,0.3-0.8c0.1-0.2,0.3-0.5,0.5-0.7c0.2-0.2,0.4-0.4,0.5-0.6l0.2,0.2
		c-0.2,0.2-0.3,0.4-0.5,0.6c-0.1,0.2-0.3,0.4-0.4,0.6c-0.1,0.2-0.2,0.5-0.2,0.7C486,2.5,486,2.7,486,3c0,0.3,0,0.6,0.1,0.8
		c0.1,0.3,0.1,0.5,0.2,0.7c0.1,0.2,0.2,0.4,0.4,0.6c0.1,0.2,0.3,0.4,0.5,0.6L486.9,6z"/>
	<path id="XMLID_24_" class="st0" d="M487.4,5.2c0-0.3,0.1-0.6,0.1-0.8s0.2-0.4,0.3-0.6c0.1-0.2,0.3-0.4,0.5-0.5
		c0.2-0.2,0.4-0.3,0.6-0.5c0.2-0.1,0.4-0.3,0.5-0.4c0.1-0.1,0.3-0.2,0.3-0.3s0.1-0.2,0.2-0.3s0-0.2,0-0.3c0-0.3-0.1-0.5-0.3-0.6
		c-0.2-0.1-0.4-0.2-0.8-0.2c-0.3,0-0.5,0-0.7,0.1c-0.2,0.1-0.4,0.2-0.5,0.3l-0.3-0.4c0.1-0.1,0.2-0.2,0.3-0.2s0.2-0.1,0.4-0.2
		s0.3-0.1,0.4-0.1c0.1,0,0.3,0,0.5,0c0.2,0,0.4,0,0.6,0.1c0.2,0.1,0.4,0.1,0.5,0.2c0.1,0.1,0.2,0.2,0.3,0.4c0.1,0.2,0.1,0.4,0.1,0.6
		c0,0.2,0,0.3-0.1,0.5s-0.1,0.3-0.2,0.4c-0.1,0.1-0.2,0.2-0.4,0.4s-0.4,0.3-0.6,0.4c-0.3,0.2-0.5,0.3-0.6,0.5
		c-0.2,0.1-0.3,0.3-0.4,0.4c-0.1,0.1-0.2,0.2-0.2,0.4s-0.1,0.2-0.1,0.4h2.7v0.5H487.4z"/>
	<path id="XMLID_22_" class="st0" d="M491.2,2.9V2.3h1.6v0.5H491.2z"/>
	<path id="XMLID_20_" class="st0" d="M496.4,3.8c0,0.5-0.2,0.8-0.5,1.1s-0.7,0.4-1.3,0.4c-0.2,0-0.3,0-0.5-0.1
		c-0.2,0-0.3-0.1-0.4-0.2c-0.1-0.1-0.3-0.1-0.4-0.2s-0.2-0.2-0.3-0.3l0.4-0.4c0.2,0.2,0.3,0.3,0.5,0.4c0.2,0.1,0.4,0.2,0.7,0.2
		c0.4,0,0.7-0.1,0.9-0.3c0.2-0.2,0.3-0.4,0.3-0.7c0-0.3-0.1-0.5-0.3-0.7s-0.5-0.2-0.9-0.2h-0.3V2.4h0.3c0.3,0,0.6-0.1,0.7-0.2
		s0.2-0.4,0.2-0.6c0-0.1,0-0.2-0.1-0.3c0-0.1-0.1-0.2-0.2-0.3c-0.1-0.1-0.2-0.1-0.3-0.2c-0.1,0-0.3-0.1-0.5-0.1
		c-0.2,0-0.4,0-0.6,0.1c-0.2,0.1-0.3,0.2-0.4,0.3l-0.4-0.4c0.1-0.1,0.2-0.2,0.3-0.2c0.1-0.1,0.2-0.1,0.3-0.2s0.2-0.1,0.4-0.1
		c0.1,0,0.3-0.1,0.4-0.1c0.2,0,0.4,0,0.6,0.1c0.2,0.1,0.4,0.1,0.5,0.2c0.1,0.1,0.2,0.2,0.3,0.4s0.1,0.3,0.1,0.6
		c0,0.3-0.1,0.5-0.2,0.7s-0.3,0.3-0.5,0.4c0.1,0,0.2,0.1,0.3,0.1c0.1,0.1,0.2,0.1,0.3,0.2c0.1,0.1,0.1,0.2,0.2,0.4
		C496.3,3.4,496.4,3.6,496.4,3.8z"/>
	<path id="XMLID_18_" class="st0" d="M498.5,3c0,0.3,0,0.7-0.1,1c-0.1,0.3-0.2,0.6-0.3,0.8c-0.1,0.2-0.3,0.5-0.5,0.7
		c-0.2,0.2-0.4,0.4-0.5,0.5l-0.2-0.2c0.3-0.3,0.6-0.7,0.8-1.2c0.2-0.4,0.3-1,0.3-1.5c0-0.3,0-0.6-0.1-0.8s-0.1-0.5-0.2-0.7
		c-0.1-0.2-0.2-0.4-0.4-0.6c-0.1-0.2-0.3-0.4-0.5-0.6l0.2-0.2c0.2,0.2,0.4,0.4,0.5,0.6c0.2,0.2,0.3,0.4,0.5,0.7
		c0.1,0.2,0.2,0.5,0.3,0.8C498.5,2.4,498.5,2.7,498.5,3z"/>
	<path id="XMLID_15_" class="st0" d="M499.9,1.9c0,0.1,0,0.2-0.1,0.3c-0.1,0.1-0.2,0.1-0.3,0.1s-0.2,0-0.3-0.1
		C499.1,2.1,499,2,499,1.9c0-0.1,0-0.2,0.1-0.3c0.1-0.1,0.2-0.1,0.3-0.1s0.2,0,0.3,0.1C499.9,1.6,499.9,1.7,499.9,1.9z M499.9,4.8
		c0,0.1,0,0.2-0.1,0.3c-0.1,0.1-0.2,0.1-0.3,0.1s-0.2,0-0.3-0.1C499.1,5.1,499,5,499,4.8s0-0.2,0.1-0.3c0.1-0.1,0.2-0.1,0.3-0.1
		s0.2,0,0.3,0.1C499.9,4.6,499.9,4.7,499.9,4.8z"/>
	<path id="XMLID_13_" class="st0" d="M501,5.2v-4h-0.9V0.9c0.3,0,0.5-0.1,0.7-0.2c0.2-0.1,0.3-0.3,0.3-0.5h0.4v5H501z"/>
	<path id="XMLID_11_" class="st0" d="M505.7,3.5c0,0.3,0,0.6-0.1,0.8c-0.1,0.2-0.2,0.4-0.4,0.5c-0.2,0.1-0.4,0.2-0.6,0.3
		c-0.2,0.1-0.5,0.1-0.8,0.1c-0.3,0-0.6,0-0.9-0.1s-0.5-0.2-0.7-0.3l0.3-0.4c0.2,0.1,0.4,0.2,0.6,0.3s0.5,0.1,0.7,0.1
		c0.4,0,0.8-0.1,1-0.3c0.2-0.2,0.3-0.5,0.3-0.9c0-0.3-0.1-0.6-0.3-0.8c-0.2-0.2-0.5-0.3-0.9-0.3c-0.2,0-0.4,0-0.6,0.1
		c-0.2,0.1-0.3,0.1-0.5,0.2l-0.6-0.2l0.2-2.4h2.9v0.5H503l-0.1,1.6c0.1-0.1,0.3-0.2,0.5-0.2c0.2-0.1,0.4-0.1,0.6-0.1
		c0.3,0,0.5,0,0.8,0.1c0.2,0.1,0.4,0.2,0.5,0.3s0.2,0.3,0.3,0.5C505.7,3.1,505.7,3.3,505.7,3.5z"/>
	<path id="XMLID_9_" class="st0" d="M509.4,3.8c0,0.5-0.2,0.8-0.5,1.1s-0.7,0.4-1.3,0.4c-0.2,0-0.3,0-0.5-0.1
		c-0.2,0-0.3-0.1-0.4-0.2c-0.1-0.1-0.3-0.1-0.4-0.2s-0.2-0.2-0.3-0.3l0.4-0.4c0.2,0.2,0.3,0.3,0.5,0.4c0.2,0.1,0.4,0.2,0.7,0.2
		c0.4,0,0.7-0.1,0.9-0.3c0.2-0.2,0.3-0.4,0.3-0.7c0-0.3-0.1-0.5-0.3-0.7s-0.5-0.2-0.9-0.2h-0.3V2.4h0.3c0.3,0,0.6-0.1,0.7-0.2
		s0.2-0.4,0.2-0.6c0-0.1,0-0.2-0.1-0.3c0-0.1-0.1-0.2-0.2-0.3c-0.1-0.1-0.2-0.1-0.3-0.2c-0.1,0-0.3-0.1-0.5-0.1
		c-0.2,0-0.4,0-0.6,0.1c-0.2,0.1-0.3,0.2-0.4,0.3l-0.4-0.4c0.1-0.1,0.2-0.2,0.3-0.2c0.1-0.1,0.2-0.1,0.3-0.2s0.2-0.1,0.4-0.1
		c0.1,0,0.3-0.1,0.4-0.1c0.2,0,0.4,0,0.6,0.1c0.2,0.1,0.4,0.1,0.5,0.2c0.1,0.1,0.2,0.2,0.3,0.4s0.1,0.3,0.1,0.6
		c0,0.3-0.1,0.5-0.2,0.7s-0.3,0.3-0.5,0.4c0.1,0,0.2,0.1,0.3,0.1c0.1,0.1,0.2,0.1,0.3,0.2c0.1,0.1,0.1,0.2,0.2,0.4
		C509.3,3.4,509.4,3.6,509.4,3.8z"/>
	<path id="XMLID_7_" class="st0" d="M509.9,2.9V2.3h1.6v0.5H509.9z"/>
	<path id="XMLID_4_" class="st0" d="M515.5,3.7c0,0.3,0,0.5-0.1,0.7c-0.1,0.2-0.2,0.4-0.4,0.5s-0.4,0.2-0.6,0.3
		c-0.2,0.1-0.5,0.1-0.7,0.1c-0.2,0-0.5,0-0.7-0.1c-0.2-0.1-0.4-0.2-0.6-0.3c-0.2-0.2-0.3-0.4-0.4-0.6c-0.1-0.3-0.1-0.6-0.1-0.9
		c0-0.2,0-0.4,0.1-0.7c0-0.2,0.1-0.5,0.2-0.7c0.1-0.2,0.2-0.5,0.4-0.7s0.3-0.4,0.5-0.6s0.5-0.3,0.7-0.4c0.3-0.1,0.6-0.2,1-0.2v0.5
		c-0.7,0.1-1.2,0.3-1.6,0.6c-0.4,0.4-0.7,0.8-0.8,1.5c0.2-0.2,0.4-0.3,0.6-0.4c0.2-0.1,0.5-0.2,0.9-0.2c0.2,0,0.4,0,0.6,0.1
		c0.2,0.1,0.4,0.2,0.5,0.3c0.2,0.1,0.3,0.3,0.4,0.5C515.5,3.2,515.5,3.4,515.5,3.7z M515,3.7c0-0.3-0.1-0.6-0.3-0.8
		c-0.2-0.2-0.5-0.3-0.9-0.3c-0.4,0-0.7,0.1-0.9,0.3c-0.2,0.2-0.3,0.4-0.3,0.8c0,0.2,0,0.3,0.1,0.4c0.1,0.1,0.1,0.2,0.3,0.3
		s0.2,0.2,0.4,0.2s0.3,0.1,0.5,0.1c0.4,0,0.7-0.1,1-0.3C514.9,4.3,515,4,515,3.7z"/>
	<path id="XMLID_2_" class="st0" d="M516.5,5.2v-4h-0.9V0.9c0.3,0,0.5-0.1,0.7-0.2c0.2-0.1,0.3-0.3,0.3-0.5h0.4v5H516.5z"/>
</g>
</svg>
