<!-- Generator: Adobe Illustrator 22.1.0, SVG Export Plug-In  -->
<svg version="1.1"
	 xmlns="http://www.w3.org/2000/svg" xmlns:xlink="http://www.w3.org/1999/xlink" xmlns:a="http://ns.adobe.com/AdobeSVGViewerExtensions/3.0/"
	 x="0px" y="0px" width="592.3px" height="15.2px" viewBox="0 0 592.3 15.2" style="enable-background:new 0 0 592.3 15.2;"
	 xml:space="preserve">
<style type="text/css">
	.st0{fill:#58595B;}
</style>
<defs>
</defs>
<g id="XMLID_1_">
	<path id="XMLID_530_" class="st0" d="M0.9,5.2v-4H0V0.9c0.3,0,0.5-0.1,0.7-0.2C0.9,0.6,1,0.4,1,0.2h0.4v5H0.9z"/>
	<path id="XMLID_528_" class="st0" d="M3.1,4.8c0,0.1,0,0.2-0.1,0.3C2.9,5.2,2.7,5.3,2.6,5.3s-0.2,0-0.3-0.1C2.2,5.1,2.2,5,2.2,4.8
		s0-0.2,0.1-0.3c0.1-0.1,0.2-0.1,0.3-0.1s0.2,0,0.3,0.1C3,4.6,3.1,4.7,3.1,4.8z"/>
	<path id="XMLID_526_" class="st0" d="M6.4,5.3C6,5.3,5.7,5.2,5.4,5C5.2,4.8,5,4.5,4.8,4.1l0.5-0.2c0.1,0.3,0.2,0.5,0.4,0.6
		c0.2,0.2,0.4,0.2,0.7,0.2c0.4,0,0.7-0.1,0.9-0.4s0.3-0.6,0.3-1.1V0.2h0.6v3.1C8.1,4.6,7.6,5.3,6.4,5.3z"/>
	<path id="XMLID_524_" class="st0" d="M11.3,5.2V4.8c-0.1,0.2-0.3,0.3-0.4,0.4c-0.2,0.1-0.4,0.2-0.6,0.2c-0.2,0-0.4,0-0.5-0.1
		S9.4,5.1,9.3,4.9S9.1,4.6,9.1,4.4C9,4.3,9,4,9,3.7V1.5h0.5v2.2c0,0.4,0.1,0.7,0.2,0.9c0.1,0.2,0.4,0.3,0.7,0.3
		c0.3,0,0.5-0.1,0.7-0.3c0.2-0.2,0.3-0.5,0.3-0.9V1.5h0.5v3.8H11.3z"/>
	<path id="XMLID_522_" class="st0" d="M14.8,5.2l-1-2l-0.7,0.9v1.1h-0.5V0.3L13.2,0v3.2v0.2l0.2-0.2l1.2-1.7h0.6l-1,1.3l1.2,2.4
		H14.8z"/>
	<path id="XMLID_520_" class="st0" d="M18.1,5.2l-1-2l-0.7,0.9v1.1H16V0.3L16.5,0v3.2v0.2l0.2-0.2l1.2-1.7h0.6l-1,1.3l1.2,2.4H18.1z
		"/>
	<path id="XMLID_517_" class="st0" d="M21.4,5.2V4.8c-0.1,0.1-0.3,0.3-0.5,0.4c-0.2,0.1-0.4,0.2-0.7,0.2c-0.1,0-0.3,0-0.4-0.1
		c-0.1,0-0.3-0.1-0.4-0.2c-0.1-0.1-0.2-0.2-0.3-0.4S19,4.3,19,4.1c0-0.2,0-0.4,0.1-0.5c0.1-0.2,0.2-0.3,0.3-0.4
		C19.6,3.1,19.7,3,19.9,3s0.4-0.1,0.5-0.1c0.2,0,0.4,0,0.5,0.1s0.3,0.1,0.4,0.2V2.7c0-0.5-0.3-0.8-0.8-0.8c-0.2,0-0.4,0-0.5,0.1
		S19.7,2,19.5,2.1l-0.2-0.4c0.2-0.1,0.4-0.2,0.6-0.2c0.2-0.1,0.4-0.1,0.7-0.1c0.4,0,0.7,0.1,1,0.3c0.2,0.2,0.4,0.5,0.4,0.9v2.6H21.4
		z M21.4,3.5c-0.1-0.1-0.3-0.1-0.4-0.2c-0.1,0-0.3-0.1-0.6-0.1c-0.3,0-0.5,0.1-0.6,0.2s-0.2,0.3-0.2,0.5c0,0.3,0.1,0.5,0.2,0.6
		c0.1,0.1,0.3,0.2,0.6,0.2c0.2,0,0.5-0.1,0.6-0.2c0.2-0.1,0.3-0.2,0.4-0.4V3.5z"/>
	<path id="XMLID_514_" class="st0" d="M27.7,1.7c0,0.2,0,0.5-0.1,0.7c-0.1,0.2-0.2,0.4-0.3,0.5c-0.1,0.1-0.3,0.2-0.5,0.3
		S26.3,3.2,26,3.2h-1.2v2h-0.6v-5h1.9c0.2,0,0.4,0,0.6,0.1c0.2,0.1,0.4,0.2,0.5,0.3c0.1,0.1,0.3,0.3,0.3,0.5S27.7,1.4,27.7,1.7z
		 M27.2,1.7c0-0.3-0.1-0.6-0.3-0.7c-0.2-0.2-0.4-0.3-0.8-0.3h-1.3v2h1.2C26.8,2.7,27.2,2.4,27.2,1.7z"/>
	<path id="XMLID_511_" class="st0" d="M31.1,3.2c0,0.1,0,0.1,0,0.2c0,0,0,0.1,0,0.1h-2.5c0,0.4,0.1,0.7,0.3,1
		c0.2,0.2,0.4,0.4,0.7,0.4c0.2,0,0.4,0,0.6-0.1s0.3-0.2,0.5-0.3l0.3,0.4c-0.1,0.1-0.2,0.1-0.3,0.2c-0.1,0.1-0.2,0.1-0.3,0.1
		c-0.1,0-0.2,0.1-0.3,0.1c-0.1,0-0.2,0-0.4,0c-0.2,0-0.3,0-0.5-0.1c-0.2-0.1-0.3-0.2-0.5-0.3s-0.3-0.4-0.4-0.6
		c-0.1-0.3-0.1-0.6-0.1-0.9c0-0.3,0-0.6,0.1-0.8c0.1-0.2,0.2-0.4,0.3-0.6s0.3-0.3,0.5-0.4c0.2-0.1,0.4-0.1,0.6-0.1
		c0.2,0,0.5,0,0.6,0.1s0.3,0.2,0.5,0.4S31,2.3,31,2.5S31.1,3,31.1,3.2z M30.6,3.1c0-0.4-0.1-0.7-0.3-0.9c-0.2-0.2-0.4-0.3-0.7-0.3
		c-0.3,0-0.5,0.1-0.7,0.3c-0.2,0.2-0.3,0.5-0.3,0.9H30.6z"/>
	<path id="XMLID_509_" class="st0" d="M31.8,5.2V0.3L32.4,0v5.2H31.8z"/>
	<path id="XMLID_507_" class="st0" d="M33.9,1.9v2.4c0,0.2,0,0.3,0.1,0.3c0.1,0.1,0.2,0.1,0.3,0.1c0.1,0,0.2,0,0.3,0s0.2,0,0.2-0.1
		l0,0.5c-0.1,0-0.2,0.1-0.3,0.1s-0.2,0-0.4,0c-0.2,0-0.4-0.1-0.5-0.2s-0.2-0.3-0.2-0.7V1.9h-0.5V1.5h0.5V0.3L33.9,0v1.5h0.9v0.5
		H33.9z"/>
	<path id="XMLID_504_" class="st0" d="M38.6,3.3c0,0.3,0,0.6-0.1,0.8s-0.2,0.5-0.4,0.6C38,5,37.8,5.1,37.6,5.2
		c-0.2,0.1-0.4,0.1-0.6,0.1s-0.4,0-0.6-0.1S35.9,5,35.8,4.8s-0.3-0.4-0.3-0.6c-0.1-0.2-0.1-0.5-0.1-0.8c0-0.3,0-0.6,0.1-0.8
		s0.2-0.4,0.4-0.6c0.1-0.2,0.3-0.3,0.5-0.4c0.2-0.1,0.4-0.1,0.6-0.1s0.4,0,0.6,0.1s0.4,0.2,0.5,0.4s0.3,0.4,0.3,0.6S38.6,3,38.6,3.3
		z M38,3.3c0-0.5-0.1-0.9-0.3-1.1c-0.2-0.2-0.5-0.4-0.8-0.4S36.4,2,36.2,2.2c-0.2,0.2-0.3,0.6-0.3,1.1c0,0.5,0.1,0.9,0.3,1.1
		c0.2,0.3,0.5,0.4,0.8,0.4s0.6-0.1,0.8-0.4C37.9,4.2,38,3.8,38,3.3z"/>
	<path id="XMLID_502_" class="st0" d="M39.2,5.2V0.3L39.8,0v5.2H39.2z"/>
	<path id="XMLID_499_" class="st0" d="M42.8,5.2V4.8c-0.1,0.1-0.3,0.3-0.5,0.4c-0.2,0.1-0.4,0.2-0.7,0.2c-0.1,0-0.3,0-0.4-0.1
		c-0.1,0-0.3-0.1-0.4-0.2c-0.1-0.1-0.2-0.2-0.3-0.4s-0.1-0.3-0.1-0.6c0-0.2,0-0.4,0.1-0.5c0.1-0.2,0.2-0.3,0.3-0.4
		C41,3.1,41.1,3,41.3,3s0.4-0.1,0.5-0.1c0.2,0,0.4,0,0.5,0.1s0.3,0.1,0.4,0.2V2.7c0-0.5-0.3-0.8-0.8-0.8c-0.2,0-0.4,0-0.5,0.1
		S41.1,2,41,2.1l-0.2-0.4c0.2-0.1,0.4-0.2,0.6-0.2c0.2-0.1,0.4-0.1,0.7-0.1c0.4,0,0.7,0.1,1,0.3c0.2,0.2,0.4,0.5,0.4,0.9v2.6H42.8z
		 M42.8,3.5c-0.1-0.1-0.3-0.1-0.4-0.2c-0.1,0-0.3-0.1-0.6-0.1c-0.3,0-0.5,0.1-0.6,0.2S41,3.8,41,4.1c0,0.3,0.1,0.5,0.2,0.6
		c0.1,0.1,0.3,0.2,0.6,0.2c0.2,0,0.5-0.1,0.6-0.2c0.2-0.1,0.3-0.2,0.4-0.4V3.5z"/>
	<path id="XMLID_496_" class="st0" d="M48.7,5.2l-0.4-0.5C48.2,4.9,48,5,47.7,5.1c-0.2,0.1-0.5,0.2-0.7,0.2c-0.3,0-0.5,0-0.7-0.1
		c-0.2-0.1-0.3-0.2-0.5-0.3s-0.2-0.3-0.3-0.4s-0.1-0.3-0.1-0.5c0-0.2,0-0.4,0.1-0.5c0-0.1,0.1-0.3,0.2-0.4s0.2-0.2,0.4-0.3
		c0.1-0.1,0.3-0.2,0.5-0.3l-0.2-0.2c-0.1-0.2-0.2-0.3-0.3-0.5C46,1.6,46,1.4,46,1.2c0-0.2,0-0.3,0.1-0.4c0.1-0.1,0.1-0.2,0.3-0.3
		c0.1-0.1,0.2-0.2,0.4-0.2c0.2-0.1,0.3-0.1,0.5-0.1c0.3,0,0.5,0,0.7,0.1c0.2,0.1,0.4,0.2,0.6,0.3L48.3,1c-0.2-0.1-0.4-0.3-0.5-0.3
		c-0.2-0.1-0.3-0.1-0.5-0.1c-0.2,0-0.4,0.1-0.5,0.2c-0.1,0.1-0.2,0.2-0.2,0.4c0,0.1,0,0.3,0.1,0.4s0.1,0.2,0.2,0.3l1.5,2
		c0.1-0.1,0.1-0.3,0.2-0.4s0.1-0.3,0.2-0.5l0.5,0.1c-0.1,0.4-0.3,0.8-0.5,1.1l0.7,0.9H48.7z M46.9,2.8c-0.3,0.1-0.5,0.3-0.7,0.5
		C46.1,3.5,46,3.7,46,3.9s0.1,0.4,0.3,0.6c0.2,0.2,0.4,0.3,0.7,0.3c0.2,0,0.4,0,0.6-0.1c0.2-0.1,0.3-0.2,0.5-0.4L46.9,2.8z"/>
	<path id="XMLID_493_" class="st0" d="M54.3,3.2c0,0.1,0,0.1,0,0.2c0,0,0,0.1,0,0.1h-2.5c0,0.4,0.1,0.7,0.3,1
		c0.2,0.2,0.4,0.4,0.7,0.4c0.2,0,0.4,0,0.6-0.1s0.3-0.2,0.5-0.3l0.3,0.4C54,4.9,53.8,5,53.7,5.1c-0.1,0.1-0.2,0.1-0.3,0.1
		c-0.1,0-0.2,0.1-0.3,0.1c-0.1,0-0.2,0-0.4,0c-0.2,0-0.3,0-0.5-0.1C52,5.1,51.9,5,51.7,4.9s-0.3-0.4-0.4-0.6
		c-0.1-0.3-0.1-0.6-0.1-0.9c0-0.3,0-0.6,0.1-0.8c0.1-0.2,0.2-0.4,0.3-0.6s0.3-0.3,0.5-0.4c0.2-0.1,0.4-0.1,0.6-0.1
		c0.2,0,0.5,0,0.6,0.1s0.3,0.2,0.5,0.4s0.2,0.4,0.3,0.6S54.3,3,54.3,3.2z M53.8,3.1c0-0.4-0.1-0.7-0.3-0.9c-0.2-0.2-0.4-0.3-0.7-0.3
		c-0.3,0-0.5,0.1-0.7,0.3c-0.2,0.2-0.3,0.5-0.3,0.9H53.8z"/>
	<path id="XMLID_491_" class="st0" d="M55.6,1.9v2.4c0,0.2,0,0.3,0.1,0.3c0.1,0.1,0.2,0.1,0.3,0.1c0.1,0,0.2,0,0.3,0s0.2,0,0.2-0.1
		l0,0.5c-0.1,0-0.2,0.1-0.3,0.1s-0.2,0-0.4,0c-0.2,0-0.4-0.1-0.5-0.2s-0.2-0.3-0.2-0.7V1.9h-0.5V1.5h0.5V0.3L55.6,0v1.5h0.9v0.5
		H55.6z"/>
	<path id="XMLID_488_" class="st0" d="M60.9,5.2V4.8c-0.1,0.1-0.3,0.3-0.5,0.4c-0.2,0.1-0.4,0.2-0.7,0.2c-0.1,0-0.3,0-0.4-0.1
		c-0.1,0-0.3-0.1-0.4-0.2c-0.1-0.1-0.2-0.2-0.3-0.4s-0.1-0.3-0.1-0.6c0-0.2,0-0.4,0.1-0.5c0.1-0.2,0.2-0.3,0.3-0.4
		C59.1,3.1,59.2,3,59.4,3s0.4-0.1,0.5-0.1c0.2,0,0.4,0,0.5,0.1s0.3,0.1,0.4,0.2V2.7c0-0.5-0.3-0.8-0.8-0.8c-0.2,0-0.4,0-0.5,0.1
		S59.2,2,59,2.1l-0.2-0.4c0.2-0.1,0.4-0.2,0.6-0.2c0.2-0.1,0.4-0.1,0.7-0.1c0.4,0,0.7,0.1,1,0.3c0.2,0.2,0.4,0.5,0.4,0.9v2.6H60.9z
		 M60.9,3.5c-0.1-0.1-0.3-0.1-0.4-0.2c-0.1,0-0.3-0.1-0.6-0.1c-0.3,0-0.5,0.1-0.6,0.2S59,3.8,59,4.1c0,0.3,0.1,0.5,0.2,0.6
		c0.1,0.1,0.3,0.2,0.6,0.2c0.2,0,0.5-0.1,0.6-0.2c0.2-0.1,0.3-0.2,0.4-0.4V3.5z"/>
	<path id="XMLID_486_" class="st0" d="M62.2,5.2V0.3L62.8,0v5.2H62.2z"/>
	<path id="XMLID_484_" class="st0" d="M63.8,6.1h-0.4l0.1-1.7h0.7L63.8,6.1z"/>
	<path id="XMLID_480_" class="st0" d="M65.3,1.8h-0.4l0.1-1.6h0.7L65.3,1.8z M66.9,1.8h-0.4l0.1-1.6h0.7L66.9,1.8z"/>
	<path id="XMLID_477_" class="st0" d="M73.5,2.7c0,0.4,0,0.7-0.2,1c-0.1,0.3-0.2,0.6-0.4,0.8S72.5,5,72.3,5.1
		c-0.3,0.1-0.5,0.2-0.9,0.2s-0.6-0.1-0.8-0.2s-0.5-0.3-0.7-0.5c-0.2-0.2-0.3-0.5-0.4-0.8c-0.1-0.3-0.1-0.7-0.1-1c0-0.4,0-0.7,0.2-1
		c0.1-0.3,0.2-0.6,0.4-0.8c0.2-0.2,0.4-0.4,0.7-0.5c0.3-0.1,0.5-0.2,0.9-0.2c0.3,0,0.6,0.1,0.8,0.2c0.3,0.1,0.5,0.3,0.7,0.5
		c0.2,0.2,0.3,0.5,0.4,0.8C73.5,2,73.5,2.3,73.5,2.7z M72.9,2.7c0-0.3,0-0.6-0.1-0.9c-0.1-0.3-0.2-0.5-0.3-0.7
		C72.4,1,72.2,0.9,72,0.8c-0.2-0.1-0.4-0.1-0.6-0.1c-0.2,0-0.4,0-0.6,0.1c-0.2,0.1-0.3,0.2-0.5,0.4S70.1,1.6,70,1.8
		c-0.1,0.3-0.1,0.5-0.1,0.9c0,0.3,0,0.6,0.1,0.9c0.1,0.3,0.2,0.5,0.3,0.7s0.3,0.3,0.5,0.4c0.2,0.1,0.4,0.1,0.6,0.1
		c0.2,0,0.4,0,0.6-0.1c0.2-0.1,0.3-0.2,0.5-0.4s0.2-0.4,0.3-0.7C72.9,3.3,72.9,3,72.9,2.7z"/>
	<path id="XMLID_475_" class="st0" d="M76.5,5.2V3c0-0.4-0.1-0.7-0.2-0.9c-0.1-0.2-0.4-0.3-0.7-0.3c-0.3,0-0.5,0.1-0.7,0.3
		c-0.2,0.2-0.3,0.5-0.3,0.9v2.2h-0.5V1.5h0.5l0,0.5c0.1-0.2,0.3-0.3,0.4-0.4s0.4-0.1,0.6-0.1c0.2,0,0.4,0,0.5,0.1
		c0.2,0.1,0.3,0.2,0.4,0.3C76.8,1.9,76.9,2,77,2.2c0.1,0.2,0.1,0.4,0.1,0.7v2.3H76.5z"/>
	<path id="XMLID_473_" class="st0" d="M80.2,2.2C80,2.1,79.9,2,79.8,1.9c-0.1-0.1-0.3-0.1-0.5-0.1c-0.1,0-0.3,0-0.4,0.1
		c-0.1,0.1-0.2,0.2-0.3,0.3c-0.1,0.1-0.2,0.3-0.2,0.5s-0.1,0.4-0.1,0.6c0,0.5,0.1,0.8,0.3,1.1c0.2,0.3,0.4,0.4,0.8,0.4
		c0.2,0,0.3,0,0.5-0.1c0.1-0.1,0.3-0.2,0.4-0.3l0.3,0.3c-0.2,0.2-0.3,0.3-0.5,0.4c-0.2,0.1-0.4,0.1-0.7,0.1c-0.2,0-0.4,0-0.6-0.1
		c-0.2-0.1-0.4-0.2-0.5-0.4s-0.3-0.4-0.4-0.6c-0.1-0.2-0.1-0.5-0.1-0.9c0-0.3,0-0.6,0.1-0.9C77.9,2.2,78,2,78.2,1.8
		c0.2-0.2,0.3-0.3,0.5-0.4c0.2-0.1,0.4-0.1,0.6-0.1c0.3,0,0.5,0,0.7,0.1c0.2,0.1,0.4,0.2,0.5,0.3L80.2,2.2z"/>
	<path id="XMLID_470_" class="st0" d="M83.9,3.2c0,0.1,0,0.1,0,0.2c0,0,0,0.1,0,0.1h-2.5c0,0.4,0.1,0.7,0.3,1
		c0.2,0.2,0.4,0.4,0.7,0.4c0.2,0,0.4,0,0.6-0.1s0.3-0.2,0.5-0.3l0.3,0.4c-0.1,0.1-0.2,0.1-0.3,0.2c-0.1,0.1-0.2,0.1-0.3,0.1
		c-0.1,0-0.2,0.1-0.3,0.1c-0.1,0-0.2,0-0.4,0c-0.2,0-0.3,0-0.5-0.1c-0.2-0.1-0.3-0.2-0.5-0.3S81.1,4.5,81,4.2
		c-0.1-0.3-0.1-0.6-0.1-0.9c0-0.3,0-0.6,0.1-0.8c0.1-0.2,0.2-0.4,0.3-0.6s0.3-0.3,0.5-0.4c0.2-0.1,0.4-0.1,0.6-0.1
		c0.2,0,0.5,0,0.6,0.1s0.3,0.2,0.5,0.4s0.2,0.4,0.3,0.6S83.9,3,83.9,3.2z M83.4,3.1c0-0.4-0.1-0.7-0.3-0.9C83,2,82.7,1.8,82.4,1.8
		c-0.3,0-0.5,0.1-0.7,0.3c-0.2,0.2-0.3,0.5-0.3,0.9H83.4z"/>
	<path id="XMLID_468_" class="st0" d="M84.3,2.9V2.3h1.6v0.5H84.3z"/>
	<path id="XMLID_465_" class="st0" d="M88.8,5.2V4.8c-0.1,0.1-0.3,0.3-0.5,0.4c-0.2,0.1-0.4,0.2-0.7,0.2c-0.2,0-0.4,0-0.5-0.1
		C87,5.1,86.8,5,86.7,4.8c-0.1-0.2-0.2-0.3-0.3-0.6c-0.1-0.2-0.1-0.5-0.1-0.9c0-0.3,0-0.6,0.1-0.9c0.1-0.3,0.2-0.5,0.3-0.6
		s0.3-0.3,0.5-0.4s0.4-0.1,0.6-0.1c0.2,0,0.4,0,0.6,0.1s0.3,0.2,0.5,0.4V0.3L89.3,0v5.2H88.8z M88.8,2.4c-0.1-0.2-0.2-0.3-0.4-0.4
		c-0.2-0.1-0.4-0.2-0.6-0.2c-0.3,0-0.5,0.1-0.7,0.4c-0.2,0.3-0.2,0.6-0.2,1.2c0,0.5,0.1,0.8,0.3,1.1c0.2,0.2,0.4,0.4,0.7,0.4
		c0.2,0,0.4,0,0.5-0.1c0.2-0.1,0.3-0.2,0.4-0.4V2.4z"/>
	<path id="XMLID_462_" class="st0" d="M92.3,5.2V4.8C92.2,4.9,92,5,91.8,5.1c-0.2,0.1-0.4,0.2-0.7,0.2c-0.1,0-0.3,0-0.4-0.1
		c-0.1,0-0.3-0.1-0.4-0.2c-0.1-0.1-0.2-0.2-0.3-0.4s-0.1-0.3-0.1-0.6c0-0.2,0-0.4,0.1-0.5c0.1-0.2,0.2-0.3,0.3-0.4
		C90.5,3.1,90.7,3,90.8,3s0.4-0.1,0.5-0.1c0.2,0,0.4,0,0.5,0.1s0.3,0.1,0.4,0.2V2.7c0-0.5-0.3-0.8-0.8-0.8c-0.2,0-0.4,0-0.5,0.1
		S90.6,2,90.5,2.1l-0.2-0.4c0.2-0.1,0.4-0.2,0.6-0.2c0.2-0.1,0.4-0.1,0.7-0.1c0.4,0,0.7,0.1,1,0.3c0.2,0.2,0.4,0.5,0.4,0.9v2.6H92.3
		z M92.3,3.5c-0.1-0.1-0.3-0.1-0.4-0.2c-0.1,0-0.3-0.1-0.6-0.1c-0.3,0-0.5,0.1-0.6,0.2s-0.2,0.3-0.2,0.5c0,0.3,0.1,0.5,0.2,0.6
		c0.1,0.1,0.3,0.2,0.6,0.2c0.2,0,0.5-0.1,0.6-0.2c0.2-0.1,0.3-0.2,0.4-0.4V3.5z"/>
	<path id="XMLID_459_" class="st0" d="M94.3,0.4c0,0.1,0,0.2-0.1,0.3c-0.1,0.1-0.2,0.1-0.3,0.1c-0.1,0-0.2,0-0.3-0.1
		c-0.1-0.1-0.1-0.2-0.1-0.3c0-0.1,0-0.2,0.1-0.3C93.8,0.1,93.9,0,94,0c0.1,0,0.2,0,0.3,0.1C94.3,0.2,94.3,0.3,94.3,0.4z M93.7,5.2
		V1.5h0.5v3.8H93.7z"/>
	<path id="XMLID_457_" class="st0" d="M95.1,5.2V0.3L95.7,0v5.2H95.1z"/>
	<path id="XMLID_455_" class="st0" d="M97.6,6.5H97l0.5-1.4l-1.3-3.7h0.6l0.9,2.7l0.1,0.4L98,4.2l0.9-2.7h0.6L97.6,6.5z"/>
	<path id="XMLID_452_" class="st0" d="M104.3,3.2c0,0.1,0,0.1,0,0.2c0,0,0,0.1,0,0.1h-2.5c0,0.4,0.1,0.7,0.3,1
		c0.2,0.2,0.4,0.4,0.7,0.4c0.2,0,0.4,0,0.6-0.1s0.3-0.2,0.5-0.3l0.3,0.4c-0.1,0.1-0.2,0.1-0.3,0.2c-0.1,0.1-0.2,0.1-0.3,0.1
		c-0.1,0-0.2,0.1-0.3,0.1c-0.1,0-0.2,0-0.4,0c-0.2,0-0.3,0-0.5-0.1c-0.2-0.1-0.3-0.2-0.5-0.3s-0.3-0.4-0.4-0.6
		c-0.1-0.3-0.1-0.6-0.1-0.9c0-0.3,0-0.6,0.1-0.8c0.1-0.2,0.2-0.4,0.3-0.6s0.3-0.3,0.5-0.4c0.2-0.1,0.4-0.1,0.6-0.1
		c0.2,0,0.5,0,0.6,0.1s0.3,0.2,0.5,0.4s0.2,0.4,0.3,0.6S104.3,3,104.3,3.2z M103.8,3.1c0-0.4-0.1-0.7-0.3-0.9
		c-0.2-0.2-0.4-0.3-0.7-0.3c-0.3,0-0.5,0.1-0.7,0.3c-0.2,0.2-0.3,0.5-0.3,0.9H103.8z"/>
	<path id="XMLID_450_" class="st0" d="M107,5.2l-0.7-1.3l-0.1-0.2l-0.1,0.2l-0.8,1.3h-0.6l1.2-1.9l-1.1-1.8h0.6l0.7,1.2l0.1,0.2
		l0.1-0.2l0.7-1.2h0.6l-1.1,1.8l1.2,2H107z"/>
	<path id="XMLID_448_" class="st0" d="M108.9,1.9v2.4c0,0.2,0,0.3,0.1,0.3c0.1,0.1,0.2,0.1,0.3,0.1c0.1,0,0.2,0,0.3,0s0.2,0,0.2-0.1
		l0,0.5c-0.1,0-0.2,0.1-0.3,0.1s-0.2,0-0.4,0c-0.2,0-0.4-0.1-0.5-0.2s-0.2-0.3-0.2-0.7V1.9h-0.5V1.5h0.5V0.3l0.5-0.3v1.5h0.9v0.5
		H108.9z"/>
	<path id="XMLID_445_" class="st0" d="M113.4,3.2c0,0.1,0,0.1,0,0.2c0,0,0,0.1,0,0.1h-2.5c0,0.4,0.1,0.7,0.3,1
		c0.2,0.2,0.4,0.4,0.7,0.4c0.2,0,0.4,0,0.6-0.1s0.3-0.2,0.5-0.3l0.3,0.4c-0.1,0.1-0.2,0.1-0.3,0.2c-0.1,0.1-0.2,0.1-0.3,0.1
		c-0.1,0-0.2,0.1-0.3,0.1c-0.1,0-0.2,0-0.4,0c-0.2,0-0.3,0-0.5-0.1c-0.2-0.1-0.3-0.2-0.5-0.3s-0.3-0.4-0.4-0.6
		c-0.1-0.3-0.1-0.6-0.1-0.9c0-0.3,0-0.6,0.1-0.8c0.1-0.2,0.2-0.4,0.3-0.6s0.3-0.3,0.5-0.4c0.2-0.1,0.4-0.1,0.6-0.1
		c0.2,0,0.5,0,0.6,0.1s0.3,0.2,0.5,0.4s0.2,0.4,0.3,0.6S113.4,3,113.4,3.2z M112.9,3.1c0-0.4-0.1-0.7-0.3-0.9
		c-0.2-0.2-0.4-0.3-0.7-0.3c-0.3,0-0.5,0.1-0.7,0.3c-0.2,0.2-0.3,0.5-0.3,0.9H112.9z"/>
	<path id="XMLID_443_" class="st0" d="M116.4,5.2V3c0-0.4-0.1-0.7-0.2-0.9c-0.1-0.2-0.4-0.3-0.7-0.3c-0.3,0-0.5,0.1-0.7,0.3
		c-0.2,0.2-0.3,0.5-0.3,0.9v2.2H114V1.5h0.5l0,0.5c0.1-0.2,0.3-0.3,0.4-0.4s0.4-0.1,0.6-0.1c0.2,0,0.4,0,0.5,0.1
		c0.2,0.1,0.3,0.2,0.4,0.3c0.1,0.1,0.2,0.3,0.3,0.5c0.1,0.2,0.1,0.4,0.1,0.7v2.3H116.4z"/>
	<path id="XMLID_440_" class="st0" d="M120,5.2V4.8c-0.1,0.1-0.3,0.3-0.5,0.4c-0.2,0.1-0.4,0.2-0.7,0.2c-0.2,0-0.4,0-0.5-0.1
		c-0.2-0.1-0.3-0.2-0.4-0.3c-0.1-0.2-0.2-0.3-0.3-0.6c-0.1-0.2-0.1-0.5-0.1-0.9c0-0.3,0-0.6,0.1-0.9c0.1-0.3,0.2-0.5,0.3-0.6
		s0.3-0.3,0.5-0.4s0.4-0.1,0.6-0.1c0.2,0,0.4,0,0.6,0.1s0.3,0.2,0.5,0.4V0.3l0.5-0.3v5.2H120z M120,2.4c-0.1-0.2-0.2-0.3-0.4-0.4
		c-0.2-0.1-0.4-0.2-0.6-0.2c-0.3,0-0.5,0.1-0.7,0.4c-0.2,0.3-0.2,0.6-0.2,1.2c0,0.5,0.1,0.8,0.3,1.1c0.2,0.2,0.4,0.4,0.7,0.4
		c0.2,0,0.4,0,0.5-0.1c0.2-0.1,0.3-0.2,0.4-0.4V2.4z"/>
	<path id="XMLID_437_" class="st0" d="M124.2,3.2c0,0.1,0,0.1,0,0.2c0,0,0,0.1,0,0.1h-2.5c0,0.4,0.1,0.7,0.3,1
		c0.2,0.2,0.4,0.4,0.7,0.4c0.2,0,0.4,0,0.6-0.1s0.3-0.2,0.5-0.3l0.3,0.4c-0.1,0.1-0.2,0.1-0.3,0.2c-0.1,0.1-0.2,0.1-0.3,0.1
		c-0.1,0-0.2,0.1-0.3,0.1c-0.1,0-0.2,0-0.4,0c-0.2,0-0.3,0-0.5-0.1c-0.2-0.1-0.3-0.2-0.5-0.3s-0.3-0.4-0.4-0.6
		c-0.1-0.3-0.1-0.6-0.1-0.9c0-0.3,0-0.6,0.1-0.8c0.1-0.2,0.2-0.4,0.3-0.6s0.3-0.3,0.5-0.4c0.2-0.1,0.4-0.1,0.6-0.1
		c0.2,0,0.5,0,0.6,0.1s0.3,0.2,0.5,0.4s0.2,0.4,0.3,0.6S124.2,3,124.2,3.2z M123.7,3.1c0-0.4-0.1-0.7-0.3-0.9
		c-0.2-0.2-0.4-0.3-0.7-0.3c-0.3,0-0.5,0.1-0.7,0.3c-0.2,0.2-0.3,0.5-0.3,0.9H123.7z"/>
	<path id="XMLID_434_" class="st0" d="M127.2,5.2V4.8c-0.1,0.1-0.3,0.3-0.5,0.4c-0.2,0.1-0.4,0.2-0.7,0.2c-0.2,0-0.4,0-0.5-0.1
		c-0.2-0.1-0.3-0.2-0.4-0.3c-0.1-0.2-0.2-0.3-0.3-0.6c-0.1-0.2-0.1-0.5-0.1-0.9c0-0.3,0-0.6,0.1-0.9c0.1-0.3,0.2-0.5,0.3-0.6
		s0.3-0.3,0.5-0.4s0.4-0.1,0.6-0.1c0.2,0,0.4,0,0.6,0.1s0.3,0.2,0.5,0.4V0.3l0.5-0.3v5.2H127.2z M127.2,2.4
		c-0.1-0.2-0.2-0.3-0.4-0.4c-0.2-0.1-0.4-0.2-0.6-0.2c-0.3,0-0.5,0.1-0.7,0.4c-0.2,0.3-0.2,0.6-0.2,1.2c0,0.5,0.1,0.8,0.3,1.1
		c0.2,0.2,0.4,0.4,0.7,0.4c0.2,0,0.4,0,0.5-0.1c0.2-0.1,0.3-0.2,0.4-0.4V2.4z"/>
	<path id="XMLID_432_" class="st0" d="M128.3,2.9V2.3h1.6v0.5H128.3z"/>
	<path id="XMLID_430_" class="st0" d="M132.4,2c-0.1,0-0.2-0.1-0.2-0.1c-0.1,0-0.2,0-0.3,0c-0.3,0-0.5,0.1-0.6,0.3S131,2.7,131,3
		v2.2h-0.5V1.5h0.5v0.5c0.1-0.2,0.2-0.3,0.4-0.4s0.4-0.2,0.6-0.2c0.1,0,0.3,0,0.3,0s0.2,0,0.2,0.1L132.4,2z"/>
	<path id="XMLID_427_" class="st0" d="M135.9,3.2c0,0.1,0,0.1,0,0.2c0,0,0,0.1,0,0.1h-2.5c0,0.4,0.1,0.7,0.3,1
		c0.2,0.2,0.4,0.4,0.7,0.4c0.2,0,0.4,0,0.6-0.1s0.3-0.2,0.5-0.3l0.3,0.4c-0.1,0.1-0.2,0.1-0.3,0.2c-0.1,0.1-0.2,0.1-0.3,0.1
		c-0.1,0-0.2,0.1-0.3,0.1c-0.1,0-0.2,0-0.4,0c-0.2,0-0.3,0-0.5-0.1c-0.2-0.1-0.3-0.2-0.5-0.3s-0.3-0.4-0.4-0.6
		c-0.1-0.3-0.1-0.6-0.1-0.9c0-0.3,0-0.6,0.1-0.8c0.1-0.2,0.2-0.4,0.3-0.6s0.3-0.3,0.5-0.4c0.2-0.1,0.4-0.1,0.6-0.1
		c0.2,0,0.5,0,0.6,0.1s0.3,0.2,0.5,0.4s0.2,0.4,0.3,0.6S135.9,3,135.9,3.2z M135.4,3.1c0-0.4-0.1-0.7-0.3-0.9
		c-0.2-0.2-0.4-0.3-0.7-0.3c-0.3,0-0.5,0.1-0.7,0.3c-0.2,0.2-0.3,0.5-0.3,0.9H135.4z"/>
	<path id="XMLID_425_" class="st0" d="M136.6,5.2V0.3l0.5-0.3v5.2H136.6z"/>
	<path id="XMLID_422_" class="st0" d="M140.8,3.2c0,0.1,0,0.1,0,0.2c0,0,0,0.1,0,0.1h-2.5c0,0.4,0.1,0.7,0.3,1
		c0.2,0.2,0.4,0.4,0.7,0.4c0.2,0,0.4,0,0.6-0.1s0.3-0.2,0.5-0.3l0.3,0.4c-0.1,0.1-0.2,0.1-0.3,0.2c-0.1,0.1-0.2,0.1-0.3,0.1
		c-0.1,0-0.2,0.1-0.3,0.1c-0.1,0-0.2,0-0.4,0c-0.2,0-0.3,0-0.5-0.1c-0.2-0.1-0.3-0.2-0.5-0.3s-0.3-0.4-0.4-0.6
		c-0.1-0.3-0.1-0.6-0.1-0.9c0-0.3,0-0.6,0.1-0.8c0.1-0.2,0.2-0.4,0.3-0.6s0.3-0.3,0.5-0.4c0.2-0.1,0.4-0.1,0.6-0.1
		c0.2,0,0.5,0,0.6,0.1s0.3,0.2,0.5,0.4s0.2,0.4,0.3,0.6S140.8,3,140.8,3.2z M140.3,3.1c0-0.4-0.1-0.7-0.3-0.9
		c-0.2-0.2-0.4-0.3-0.7-0.3c-0.3,0-0.5,0.1-0.7,0.3c-0.2,0.2-0.3,0.5-0.3,0.9H140.3z"/>
	<path id="XMLID_419_" class="st0" d="M143.6,5.2V4.8c-0.1,0.1-0.3,0.3-0.5,0.4c-0.2,0.1-0.4,0.2-0.7,0.2c-0.1,0-0.3,0-0.4-0.1
		c-0.1,0-0.3-0.1-0.4-0.2c-0.1-0.1-0.2-0.2-0.3-0.4s-0.1-0.3-0.1-0.6c0-0.2,0-0.4,0.1-0.5c0.1-0.2,0.2-0.3,0.3-0.4
		c0.1-0.1,0.3-0.2,0.5-0.2s0.4-0.1,0.5-0.1c0.2,0,0.4,0,0.5,0.1s0.3,0.1,0.4,0.2V2.7c0-0.5-0.3-0.8-0.8-0.8c-0.2,0-0.4,0-0.5,0.1
		s-0.3,0.1-0.5,0.2l-0.2-0.4c0.2-0.1,0.4-0.2,0.6-0.2c0.2-0.1,0.4-0.1,0.7-0.1c0.4,0,0.7,0.1,1,0.3c0.2,0.2,0.4,0.5,0.4,0.9v2.6
		H143.6z M143.6,3.5c-0.1-0.1-0.3-0.1-0.4-0.2c-0.1,0-0.3-0.1-0.6-0.1c-0.3,0-0.5,0.1-0.6,0.2s-0.2,0.3-0.2,0.5
		c0,0.3,0.1,0.5,0.2,0.6c0.1,0.1,0.3,0.2,0.6,0.2c0.2,0,0.5-0.1,0.6-0.2c0.2-0.1,0.3-0.2,0.4-0.4V3.5z"/>
	<path id="XMLID_417_" class="st0" d="M147.3,4.2c0,0.2,0,0.3-0.1,0.5C147.1,4.8,147,5,146.9,5c-0.1,0.1-0.3,0.1-0.4,0.2
		c-0.2,0-0.3,0.1-0.5,0.1c-0.3,0-0.5,0-0.7-0.1c-0.2-0.1-0.4-0.2-0.6-0.3l0.3-0.4c0.2,0.1,0.3,0.2,0.5,0.3c0.2,0.1,0.4,0.1,0.5,0.1
		c0.3,0,0.4-0.1,0.6-0.2s0.2-0.2,0.2-0.4c0-0.1,0-0.1,0-0.2c0-0.1-0.1-0.1-0.2-0.2c-0.1-0.1-0.2-0.1-0.3-0.2
		c-0.1-0.1-0.3-0.1-0.4-0.2c-0.2-0.1-0.3-0.2-0.5-0.2c-0.1-0.1-0.2-0.2-0.3-0.2c-0.1-0.1-0.1-0.2-0.2-0.3c0-0.1-0.1-0.2-0.1-0.4
		c0-0.1,0-0.3,0.1-0.4c0.1-0.1,0.1-0.2,0.2-0.3c0.1-0.1,0.2-0.2,0.4-0.2c0.1,0,0.3-0.1,0.5-0.1c0.3,0,0.5,0,0.7,0.1
		c0.2,0.1,0.4,0.2,0.5,0.3l-0.3,0.4c-0.1-0.1-0.3-0.2-0.4-0.3c-0.1-0.1-0.3-0.1-0.5-0.1s-0.4,0-0.5,0.1s-0.2,0.2-0.2,0.3
		c0,0.1,0,0.2,0,0.2s0.1,0.1,0.1,0.2c0.1,0.1,0.2,0.1,0.3,0.2c0.1,0.1,0.2,0.1,0.4,0.2c0.2,0.1,0.3,0.2,0.5,0.2
		c0.1,0.1,0.3,0.2,0.4,0.2c0.1,0.1,0.2,0.2,0.2,0.3C147.3,3.9,147.3,4.1,147.3,4.2z"/>
	<path id="XMLID_414_" class="st0" d="M150.8,3.2c0,0.1,0,0.1,0,0.2c0,0,0,0.1,0,0.1h-2.5c0,0.4,0.1,0.7,0.3,1
		c0.2,0.2,0.4,0.4,0.7,0.4c0.2,0,0.4,0,0.6-0.1s0.3-0.2,0.5-0.3l0.3,0.4c-0.1,0.1-0.2,0.1-0.3,0.2c-0.1,0.1-0.2,0.1-0.3,0.1
		c-0.1,0-0.2,0.1-0.3,0.1c-0.1,0-0.2,0-0.4,0c-0.2,0-0.3,0-0.5-0.1c-0.2-0.1-0.3-0.2-0.5-0.3s-0.3-0.4-0.4-0.6
		c-0.1-0.3-0.1-0.6-0.1-0.9c0-0.3,0-0.6,0.1-0.8c0.1-0.2,0.2-0.4,0.3-0.6s0.3-0.3,0.5-0.4c0.2-0.1,0.4-0.1,0.6-0.1
		c0.2,0,0.5,0,0.6,0.1s0.3,0.2,0.5,0.4s0.2,0.4,0.3,0.6S150.8,3,150.8,3.2z M150.3,3.1c0-0.4-0.1-0.7-0.3-0.9
		c-0.2-0.2-0.4-0.3-0.7-0.3c-0.3,0-0.5,0.1-0.7,0.3c-0.2,0.2-0.3,0.5-0.3,0.9H150.3z"/>
	<path id="XMLID_412_" class="st0" d="M153,5.2V0.3l0.5-0.3v5.2H153z"/>
	<path id="XMLID_409_" class="st0" d="M157.2,3.2c0,0.1,0,0.1,0,0.2c0,0,0,0.1,0,0.1h-2.5c0,0.4,0.1,0.7,0.3,1
		c0.2,0.2,0.4,0.4,0.7,0.4c0.2,0,0.4,0,0.6-0.1s0.3-0.2,0.5-0.3l0.3,0.4c-0.1,0.1-0.2,0.1-0.3,0.2c-0.1,0.1-0.2,0.1-0.3,0.1
		c-0.1,0-0.2,0.1-0.3,0.1c-0.1,0-0.2,0-0.4,0c-0.2,0-0.3,0-0.5-0.1c-0.2-0.1-0.3-0.2-0.5-0.3s-0.3-0.4-0.4-0.6
		c-0.1-0.3-0.1-0.6-0.1-0.9c0-0.3,0-0.6,0.1-0.8c0.1-0.2,0.2-0.4,0.3-0.6s0.3-0.3,0.5-0.4c0.2-0.1,0.4-0.1,0.6-0.1
		c0.2,0,0.5,0,0.6,0.1s0.3,0.2,0.5,0.4s0.2,0.4,0.3,0.6S157.2,3,157.2,3.2z M156.8,3.1c0-0.4-0.1-0.7-0.3-0.9
		c-0.2-0.2-0.4-0.3-0.7-0.3c-0.3,0-0.5,0.1-0.7,0.3c-0.2,0.2-0.3,0.5-0.3,0.9H156.8z"/>
	<path id="XMLID_407_" class="st0" d="M159.4,5.2h-0.5l-1.3-3.8h0.6l1,3l0.1,0.2l0.1-0.2l1-3h0.6L159.4,5.2z"/>
	<path id="XMLID_404_" class="st0" d="M164.1,3.2c0,0.1,0,0.1,0,0.2c0,0,0,0.1,0,0.1h-2.5c0,0.4,0.1,0.7,0.3,1
		c0.2,0.2,0.4,0.4,0.7,0.4c0.2,0,0.4,0,0.6-0.1s0.3-0.2,0.5-0.3l0.3,0.4c-0.1,0.1-0.2,0.1-0.3,0.2c-0.1,0.1-0.2,0.1-0.3,0.1
		c-0.1,0-0.2,0.1-0.3,0.1c-0.1,0-0.2,0-0.4,0c-0.2,0-0.3,0-0.5-0.1c-0.2-0.1-0.3-0.2-0.5-0.3s-0.3-0.4-0.4-0.6
		c-0.1-0.3-0.1-0.6-0.1-0.9c0-0.3,0-0.6,0.1-0.8c0.1-0.2,0.2-0.4,0.3-0.6s0.3-0.3,0.5-0.4c0.2-0.1,0.4-0.1,0.6-0.1
		c0.2,0,0.5,0,0.6,0.1s0.3,0.2,0.5,0.4s0.2,0.4,0.3,0.6S164.1,3,164.1,3.2z M163.6,3.1c0-0.4-0.1-0.7-0.3-0.9
		c-0.2-0.2-0.4-0.3-0.7-0.3c-0.3,0-0.5,0.1-0.7,0.3c-0.2,0.2-0.3,0.5-0.3,0.9H163.6z"/>
	<path id="XMLID_402_" class="st0" d="M165.5,1.9v2.4c0,0.2,0,0.3,0.1,0.3c0.1,0.1,0.2,0.1,0.3,0.1c0.1,0,0.2,0,0.3,0s0.2,0,0.2-0.1
		l0,0.5c-0.1,0-0.2,0.1-0.3,0.1s-0.2,0-0.4,0c-0.2,0-0.4-0.1-0.5-0.2s-0.2-0.3-0.2-0.7V1.9h-0.5V1.5h0.5V0.3l0.5-0.3v1.5h0.9v0.5
		H165.5z"/>
	<path id="XMLID_398_" class="st0" d="M167.8,0.4c0,0.1,0,0.2-0.1,0.3c-0.1,0.1-0.2,0.1-0.3,0.1c-0.1,0-0.2,0-0.3-0.1
		C167,0.6,167,0.5,167,0.4c0-0.1,0-0.2,0.1-0.3c0.1-0.1,0.2-0.1,0.3-0.1c0.1,0,0.2,0,0.3,0.1C167.7,0.2,167.8,0.3,167.8,0.4z
		 M167.1,5.2V1.5h0.5v3.8H167.1z"/>
	<path id="XMLID_396_" class="st0" d="M170.4,2c-0.1,0-0.2-0.1-0.2-0.1c-0.1,0-0.2,0-0.3,0c-0.3,0-0.5,0.1-0.6,0.3s-0.2,0.5-0.2,0.8
		v2.2h-0.5V1.5h0.5v0.5c0.1-0.2,0.2-0.3,0.4-0.4s0.4-0.2,0.6-0.2c0.1,0,0.3,0,0.3,0s0.2,0,0.2,0.1L170.4,2z"/>
	<path id="XMLID_393_" class="st0" d="M173.2,5.2V4.8c-0.1,0.1-0.3,0.3-0.5,0.4c-0.2,0.1-0.4,0.2-0.7,0.2c-0.1,0-0.3,0-0.4-0.1
		c-0.1,0-0.3-0.1-0.4-0.2c-0.1-0.1-0.2-0.2-0.3-0.4s-0.1-0.3-0.1-0.6c0-0.2,0-0.4,0.1-0.5c0.1-0.2,0.2-0.3,0.3-0.4
		c0.1-0.1,0.3-0.2,0.5-0.2s0.4-0.1,0.5-0.1c0.2,0,0.4,0,0.5,0.1s0.3,0.1,0.4,0.2V2.7c0-0.5-0.3-0.8-0.8-0.8c-0.2,0-0.4,0-0.5,0.1
		s-0.3,0.1-0.5,0.2l-0.2-0.4c0.2-0.1,0.4-0.2,0.6-0.2c0.2-0.1,0.4-0.1,0.7-0.1c0.4,0,0.7,0.1,1,0.3c0.2,0.2,0.4,0.5,0.4,0.9v2.6
		H173.2z M173.2,3.5c-0.1-0.1-0.3-0.1-0.4-0.2c-0.1,0-0.3-0.1-0.6-0.1c-0.3,0-0.5,0.1-0.6,0.2s-0.2,0.3-0.2,0.5
		c0,0.3,0.1,0.5,0.2,0.6c0.1,0.1,0.3,0.2,0.6,0.2c0.2,0,0.5-0.1,0.6-0.2c0.2-0.1,0.3-0.2,0.4-0.4V3.5z"/>
	<path id="XMLID_391_" class="st0" d="M176.9,2.2c-0.1-0.1-0.3-0.2-0.4-0.3c-0.1-0.1-0.3-0.1-0.5-0.1c-0.1,0-0.3,0-0.4,0.1
		c-0.1,0.1-0.2,0.2-0.3,0.3c-0.1,0.1-0.2,0.3-0.2,0.5s-0.1,0.4-0.1,0.6c0,0.5,0.1,0.8,0.3,1.1c0.2,0.3,0.4,0.4,0.8,0.4
		c0.2,0,0.3,0,0.5-0.1c0.1-0.1,0.3-0.2,0.4-0.3l0.3,0.3c-0.2,0.2-0.3,0.3-0.5,0.4c-0.2,0.1-0.4,0.1-0.7,0.1c-0.2,0-0.4,0-0.6-0.1
		c-0.2-0.1-0.4-0.2-0.5-0.4s-0.3-0.4-0.4-0.6c-0.1-0.2-0.1-0.5-0.1-0.9c0-0.3,0-0.6,0.1-0.9c0.1-0.2,0.2-0.5,0.4-0.6
		c0.2-0.2,0.3-0.3,0.5-0.4c0.2-0.1,0.4-0.1,0.6-0.1c0.3,0,0.5,0,0.7,0.1c0.2,0.1,0.4,0.2,0.5,0.3L176.9,2.2z"/>
	<path id="XMLID_388_" class="st0" d="M180.6,3.2c0,0.1,0,0.1,0,0.2c0,0,0,0.1,0,0.1h-2.5c0,0.4,0.1,0.7,0.3,1
		c0.2,0.2,0.4,0.4,0.7,0.4c0.2,0,0.4,0,0.6-0.1s0.3-0.2,0.5-0.3l0.3,0.4c-0.1,0.1-0.2,0.1-0.3,0.2c-0.1,0.1-0.2,0.1-0.3,0.1
		c-0.1,0-0.2,0.1-0.3,0.1c-0.1,0-0.2,0-0.4,0c-0.2,0-0.3,0-0.5-0.1c-0.2-0.1-0.3-0.2-0.5-0.3s-0.3-0.4-0.4-0.6
		c-0.1-0.3-0.1-0.6-0.1-0.9c0-0.3,0-0.6,0.1-0.8c0.1-0.2,0.2-0.4,0.3-0.6s0.3-0.3,0.5-0.4c0.2-0.1,0.4-0.1,0.6-0.1
		c0.2,0,0.5,0,0.6,0.1s0.3,0.2,0.5,0.4s0.2,0.4,0.3,0.6S180.6,3,180.6,3.2z M180.1,3.1c0-0.4-0.1-0.7-0.3-0.9
		c-0.2-0.2-0.4-0.3-0.7-0.3c-0.3,0-0.5,0.1-0.7,0.3c-0.2,0.2-0.3,0.5-0.3,0.9H180.1z"/>
	<path id="XMLID_386_" class="st0" d="M182,1.9v2.4c0,0.2,0,0.3,0.1,0.3c0.1,0.1,0.2,0.1,0.3,0.1c0.1,0,0.2,0,0.3,0s0.2,0,0.2-0.1
		l0,0.5c-0.1,0-0.2,0.1-0.3,0.1s-0.2,0-0.4,0c-0.2,0-0.4-0.1-0.5-0.2s-0.2-0.3-0.2-0.7V1.9h-0.5V1.5h0.5V0.3L182,0v1.5h0.9v0.5H182z
		"/>
	<path id="XMLID_383_" class="st0" d="M185.7,5.2V4.8c-0.1,0.1-0.3,0.3-0.5,0.4c-0.2,0.1-0.4,0.2-0.7,0.2c-0.1,0-0.3,0-0.4-0.1
		c-0.1,0-0.3-0.1-0.4-0.2c-0.1-0.1-0.2-0.2-0.3-0.4s-0.1-0.3-0.1-0.6c0-0.2,0-0.4,0.1-0.5c0.1-0.2,0.2-0.3,0.3-0.4
		c0.1-0.1,0.3-0.2,0.5-0.2s0.4-0.1,0.5-0.1c0.2,0,0.4,0,0.5,0.1s0.3,0.1,0.4,0.2V2.7c0-0.5-0.3-0.8-0.8-0.8c-0.2,0-0.4,0-0.5,0.1
		S184,2,183.9,2.1l-0.2-0.4c0.2-0.1,0.4-0.2,0.6-0.2c0.2-0.1,0.4-0.1,0.7-0.1c0.4,0,0.7,0.1,1,0.3c0.2,0.2,0.4,0.5,0.4,0.9v2.6
		H185.7z M185.7,3.5c-0.1-0.1-0.3-0.1-0.4-0.2c-0.1,0-0.3-0.1-0.6-0.1c-0.3,0-0.5,0.1-0.6,0.2s-0.2,0.3-0.2,0.5
		c0,0.3,0.1,0.5,0.2,0.6c0.1,0.1,0.3,0.2,0.6,0.2c0.2,0,0.5-0.1,0.6-0.2c0.2-0.1,0.3-0.2,0.4-0.4V3.5z"/>
	<path id="XMLID_381_" class="st0" d="M191.4,5.2V3c0-0.4-0.1-0.7-0.2-0.9s-0.3-0.3-0.6-0.3c-0.3,0-0.5,0.1-0.6,0.3
		c-0.2,0.2-0.2,0.5-0.2,0.9v2.2h-0.5V3c0-0.4-0.1-0.7-0.2-0.9s-0.3-0.3-0.6-0.3c-0.3,0-0.5,0.1-0.6,0.3c-0.1,0.2-0.2,0.5-0.2,0.9
		v2.2h-0.5V1.5h0.5l0,0.5c0.1-0.2,0.2-0.3,0.4-0.4c0.2-0.1,0.3-0.1,0.6-0.1c0.3,0,0.5,0.1,0.6,0.2c0.2,0.1,0.3,0.3,0.4,0.5
		c0.1-0.1,0.1-0.2,0.2-0.3c0.1-0.1,0.1-0.1,0.2-0.2c0.1-0.1,0.2-0.1,0.3-0.1c0.1,0,0.3,0,0.4,0c0.4,0,0.7,0.1,0.9,0.4
		c0.2,0.2,0.3,0.6,0.3,1.2v2.3H191.4z"/>
	<path id="XMLID_378_" class="st0" d="M196.4,5.2V4.8c-0.1,0.1-0.3,0.3-0.5,0.4c-0.2,0.1-0.4,0.2-0.7,0.2c-0.1,0-0.3,0-0.4-0.1
		c-0.1,0-0.3-0.1-0.4-0.2c-0.1-0.1-0.2-0.2-0.3-0.4s-0.1-0.3-0.1-0.6c0-0.2,0-0.4,0.1-0.5c0.1-0.2,0.2-0.3,0.3-0.4
		c0.1-0.1,0.3-0.2,0.5-0.2s0.4-0.1,0.5-0.1c0.2,0,0.4,0,0.5,0.1s0.3,0.1,0.4,0.2V2.7c0-0.5-0.3-0.8-0.8-0.8c-0.2,0-0.4,0-0.5,0.1
		s-0.3,0.1-0.5,0.2l-0.2-0.4c0.2-0.1,0.4-0.2,0.6-0.2c0.2-0.1,0.4-0.1,0.7-0.1c0.4,0,0.7,0.1,1,0.3c0.2,0.2,0.4,0.5,0.4,0.9v2.6
		H196.4z M196.4,3.5c-0.1-0.1-0.3-0.1-0.4-0.2c-0.1,0-0.3-0.1-0.6-0.1c-0.3,0-0.5,0.1-0.6,0.2s-0.2,0.3-0.2,0.5
		c0,0.3,0.1,0.5,0.2,0.6c0.1,0.1,0.3,0.2,0.6,0.2c0.2,0,0.5-0.1,0.6-0.2c0.2-0.1,0.3-0.2,0.4-0.4V3.5z"/>
	<path id="XMLID_376_" class="st0" d="M200.1,4.2c0,0.2,0,0.3-0.1,0.5c-0.1,0.1-0.2,0.2-0.3,0.3c-0.1,0.1-0.3,0.1-0.4,0.2
		c-0.2,0-0.3,0.1-0.5,0.1c-0.3,0-0.5,0-0.7-0.1c-0.2-0.1-0.4-0.2-0.6-0.3l0.3-0.4c0.2,0.1,0.3,0.2,0.5,0.3c0.2,0.1,0.4,0.1,0.5,0.1
		c0.3,0,0.4-0.1,0.6-0.2s0.2-0.2,0.2-0.4c0-0.1,0-0.1,0-0.2c0-0.1-0.1-0.1-0.2-0.2c-0.1-0.1-0.2-0.1-0.3-0.2
		c-0.1-0.1-0.3-0.1-0.4-0.2c-0.2-0.1-0.3-0.2-0.5-0.2c-0.1-0.1-0.2-0.2-0.3-0.2c-0.1-0.1-0.1-0.2-0.2-0.3c0-0.1-0.1-0.2-0.1-0.4
		c0-0.1,0-0.3,0.1-0.4c0.1-0.1,0.1-0.2,0.2-0.3c0.1-0.1,0.2-0.2,0.4-0.2c0.1,0,0.3-0.1,0.5-0.1c0.3,0,0.5,0,0.7,0.1
		c0.2,0.1,0.4,0.2,0.5,0.3l-0.3,0.4c-0.1-0.1-0.3-0.2-0.4-0.3c-0.1-0.1-0.3-0.1-0.5-0.1s-0.4,0-0.5,0.1s-0.2,0.2-0.2,0.3
		c0,0.1,0,0.2,0,0.2s0.1,0.1,0.1,0.2c0.1,0.1,0.2,0.1,0.3,0.2c0.1,0.1,0.2,0.1,0.4,0.2c0.2,0.1,0.3,0.2,0.5,0.2
		c0.1,0.1,0.3,0.2,0.4,0.2c0.1,0.1,0.2,0.2,0.2,0.3C200.1,3.9,200.1,4.1,200.1,4.2z"/>
	<path id="XMLID_373_" class="st0" d="M204.4,5.2V4.8c-0.1,0.1-0.3,0.3-0.5,0.4c-0.2,0.1-0.4,0.2-0.7,0.2c-0.1,0-0.3,0-0.4-0.1
		c-0.1,0-0.3-0.1-0.4-0.2c-0.1-0.1-0.2-0.2-0.3-0.4S202,4.3,202,4.1c0-0.2,0-0.4,0.1-0.5c0.1-0.2,0.2-0.3,0.3-0.4
		c0.1-0.1,0.3-0.2,0.5-0.2s0.4-0.1,0.5-0.1c0.2,0,0.4,0,0.5,0.1s0.3,0.1,0.4,0.2V2.7c0-0.5-0.3-0.8-0.8-0.8c-0.2,0-0.4,0-0.5,0.1
		s-0.3,0.1-0.5,0.2l-0.2-0.4c0.2-0.1,0.4-0.2,0.6-0.2c0.2-0.1,0.4-0.1,0.7-0.1c0.4,0,0.7,0.1,1,0.3c0.2,0.2,0.4,0.5,0.4,0.9v2.6
		H204.4z M204.4,3.5c-0.1-0.1-0.3-0.1-0.4-0.2c-0.1,0-0.3-0.1-0.6-0.1c-0.3,0-0.5,0.1-0.6,0.2s-0.2,0.3-0.2,0.5
		c0,0.3,0.1,0.5,0.2,0.6c0.1,0.1,0.3,0.2,0.6,0.2c0.2,0,0.5-0.1,0.6-0.2c0.2-0.1,0.3-0.2,0.4-0.4V3.5z"/>
	<path id="XMLID_370_" class="st0" d="M208,5.2V4.8c-0.1,0.1-0.3,0.3-0.5,0.4c-0.2,0.1-0.4,0.2-0.7,0.2c-0.2,0-0.4,0-0.5-0.1
		c-0.2-0.1-0.3-0.2-0.4-0.3c-0.1-0.2-0.2-0.3-0.3-0.6c-0.1-0.2-0.1-0.5-0.1-0.9c0-0.3,0-0.6,0.1-0.9c0.1-0.3,0.2-0.5,0.3-0.6
		s0.3-0.3,0.5-0.4s0.4-0.1,0.6-0.1c0.2,0,0.4,0,0.6,0.1s0.3,0.2,0.5,0.4V0.3l0.5-0.3v5.2H208z M208,2.4c-0.1-0.2-0.2-0.3-0.4-0.4
		c-0.2-0.1-0.4-0.2-0.6-0.2c-0.3,0-0.5,0.1-0.7,0.4c-0.2,0.3-0.2,0.6-0.2,1.2c0,0.5,0.1,0.8,0.3,1.1c0.2,0.2,0.4,0.4,0.7,0.4
		c0.2,0,0.4,0,0.5-0.1c0.2-0.1,0.3-0.2,0.4-0.4V2.4z"/>
	<path id="XMLID_367_" class="st0" d="M210,5.1c0,0.2,0,0.4,0,0.6c0,0.2-0.1,0.3-0.2,0.4c-0.1,0.1-0.2,0.2-0.3,0.3
		c-0.1,0.1-0.3,0.1-0.6,0.2l-0.2-0.4c0.2-0.1,0.3-0.1,0.4-0.2c0.1-0.1,0.2-0.1,0.2-0.2s0.1-0.2,0.1-0.3c0-0.1,0-0.3,0-0.4V1.5h0.5
		V5.1z M210.1,0.4c0,0.1,0,0.2-0.1,0.3c-0.1,0.1-0.2,0.1-0.3,0.1c-0.1,0-0.2,0-0.3-0.1c-0.1-0.1-0.1-0.2-0.1-0.3
		c0-0.1,0-0.2,0.1-0.3c0.1-0.1,0.2-0.1,0.3-0.1c0.1,0,0.2,0,0.3,0.1C210,0.2,210.1,0.3,210.1,0.4z"/>
	<path id="XMLID_365_" class="st0" d="M213.2,5.2V4.8c-0.1,0.2-0.3,0.3-0.4,0.4c-0.2,0.1-0.4,0.2-0.6,0.2c-0.2,0-0.4,0-0.5-0.1
		s-0.3-0.2-0.4-0.3s-0.2-0.3-0.3-0.5c-0.1-0.2-0.1-0.4-0.1-0.7V1.5h0.5v2.2c0,0.4,0.1,0.7,0.2,0.9c0.1,0.2,0.4,0.3,0.7,0.3
		c0.3,0,0.5-0.1,0.7-0.3c0.2-0.2,0.3-0.5,0.3-0.9V1.5h0.5v3.8H213.2z"/>
	<path id="XMLID_363_" class="st0" d="M216.9,5.2V3c0-0.4-0.1-0.7-0.2-0.9c-0.1-0.2-0.4-0.3-0.7-0.3c-0.3,0-0.5,0.1-0.7,0.3
		c-0.2,0.2-0.3,0.5-0.3,0.9v2.2h-0.5V1.5h0.5l0,0.5c0.1-0.2,0.3-0.3,0.4-0.4s0.4-0.1,0.6-0.1c0.2,0,0.4,0,0.5,0.1
		c0.2,0.1,0.3,0.2,0.4,0.3c0.1,0.1,0.2,0.3,0.3,0.5c0.1,0.2,0.1,0.4,0.1,0.7v2.3H216.9z"/>
	<path id="XMLID_361_" class="st0" d="M220.5,2.2c-0.1-0.1-0.3-0.2-0.4-0.3c-0.1-0.1-0.3-0.1-0.5-0.1c-0.1,0-0.3,0-0.4,0.1
		c-0.1,0.1-0.2,0.2-0.3,0.3c-0.1,0.1-0.2,0.3-0.2,0.5s-0.1,0.4-0.1,0.6c0,0.5,0.1,0.8,0.3,1.1c0.2,0.3,0.4,0.4,0.8,0.4
		c0.2,0,0.3,0,0.5-0.1c0.1-0.1,0.3-0.2,0.4-0.3l0.3,0.3c-0.2,0.2-0.3,0.3-0.5,0.4c-0.2,0.1-0.4,0.1-0.7,0.1c-0.2,0-0.4,0-0.6-0.1
		c-0.2-0.1-0.4-0.2-0.5-0.4s-0.3-0.4-0.4-0.6C218.1,4,218,3.7,218,3.4c0-0.3,0-0.6,0.1-0.9c0.1-0.2,0.2-0.5,0.4-0.6
		c0.2-0.2,0.3-0.3,0.5-0.4c0.2-0.1,0.4-0.1,0.6-0.1c0.3,0,0.5,0,0.7,0.1c0.2,0.1,0.4,0.2,0.5,0.3L220.5,2.2z"/>
	<path id="XMLID_359_" class="st0" d="M222.1,1.9v2.4c0,0.2,0,0.3,0.1,0.3c0.1,0.1,0.2,0.1,0.3,0.1c0.1,0,0.2,0,0.3,0s0.2,0,0.2-0.1
		l0,0.5c-0.1,0-0.2,0.1-0.3,0.1s-0.2,0-0.4,0c-0.2,0-0.4-0.1-0.5-0.2s-0.2-0.3-0.2-0.7V1.9h-0.5V1.5h0.5V0.3l0.5-0.3v1.5h0.9v0.5
		H222.1z"/>
	<path id="XMLID_356_" class="st0" d="M224.4,0.4c0,0.1,0,0.2-0.1,0.3c-0.1,0.1-0.2,0.1-0.3,0.1c-0.1,0-0.2,0-0.3-0.1
		c-0.1-0.1-0.1-0.2-0.1-0.3c0-0.1,0-0.2,0.1-0.3c0.1-0.1,0.2-0.1,0.3-0.1c0.1,0,0.2,0,0.3,0.1C224.4,0.2,224.4,0.3,224.4,0.4z
		 M223.8,5.2V1.5h0.5v3.8H223.8z"/>
	<path id="XMLID_354_" class="st0" d="M226.7,5.2h-0.5l-1.3-3.8h0.6l1,3l0.1,0.2l0.1-0.2l1-3h0.6L226.7,5.2z"/>
	<path id="XMLID_351_" class="st0" d="M231.4,3.2c0,0.1,0,0.1,0,0.2c0,0,0,0.1,0,0.1h-2.5c0,0.4,0.1,0.7,0.3,1
		c0.2,0.2,0.4,0.4,0.7,0.4c0.2,0,0.4,0,0.6-0.1s0.3-0.2,0.5-0.3l0.3,0.4c-0.1,0.1-0.2,0.1-0.3,0.2c-0.1,0.1-0.2,0.1-0.3,0.1
		c-0.1,0-0.2,0.1-0.3,0.1c-0.1,0-0.2,0-0.4,0c-0.2,0-0.3,0-0.5-0.1c-0.2-0.1-0.3-0.2-0.5-0.3s-0.3-0.4-0.4-0.6
		c-0.1-0.3-0.1-0.6-0.1-0.9c0-0.3,0-0.6,0.1-0.8c0.1-0.2,0.2-0.4,0.3-0.6s0.3-0.3,0.5-0.4c0.2-0.1,0.4-0.1,0.6-0.1
		c0.2,0,0.5,0,0.6,0.1s0.3,0.2,0.5,0.4s0.2,0.4,0.3,0.6S231.4,3,231.4,3.2z M230.9,3.1c0-0.4-0.1-0.7-0.3-0.9
		c-0.2-0.2-0.4-0.3-0.7-0.3c-0.3,0-0.5,0.1-0.7,0.3c-0.2,0.2-0.3,0.5-0.3,0.9H230.9z"/>
	<path id="XMLID_349_" class="st0" d="M234.2,1.9v2.4c0,0.2,0,0.3,0.1,0.3c0.1,0.1,0.2,0.1,0.3,0.1c0.1,0,0.2,0,0.3,0s0.2,0,0.2-0.1
		l0,0.5c-0.1,0-0.2,0.1-0.3,0.1s-0.2,0-0.4,0c-0.2,0-0.4-0.1-0.5-0.2s-0.2-0.3-0.2-0.7V1.9h-0.5V1.5h0.5V0.3l0.5-0.3v1.5h0.9v0.5
		H234.2z"/>
	<path id="XMLID_347_" class="st0" d="M237.8,2c-0.1,0-0.2-0.1-0.2-0.1c-0.1,0-0.2,0-0.3,0c-0.3,0-0.5,0.1-0.6,0.3s-0.2,0.5-0.2,0.8
		v2.2h-0.5V1.5h0.5v0.5c0.1-0.2,0.2-0.3,0.4-0.4s0.4-0.2,0.6-0.2c0.1,0,0.3,0,0.3,0s0.2,0,0.2,0.1L237.8,2z"/>
	<path id="XMLID_344_" class="st0" d="M241.2,3.2c0,0.1,0,0.1,0,0.2c0,0,0,0.1,0,0.1h-2.5c0,0.4,0.1,0.7,0.3,1
		c0.2,0.2,0.4,0.4,0.7,0.4c0.2,0,0.4,0,0.6-0.1s0.3-0.2,0.5-0.3l0.3,0.4c-0.1,0.1-0.2,0.1-0.3,0.2c-0.1,0.1-0.2,0.1-0.3,0.1
		c-0.1,0-0.2,0.1-0.3,0.1c-0.1,0-0.2,0-0.4,0c-0.2,0-0.3,0-0.5-0.1c-0.2-0.1-0.3-0.2-0.5-0.3s-0.3-0.4-0.4-0.6
		c-0.1-0.3-0.1-0.6-0.1-0.9c0-0.3,0-0.6,0.1-0.8c0.1-0.2,0.2-0.4,0.3-0.6s0.3-0.3,0.5-0.4c0.2-0.1,0.4-0.1,0.6-0.1
		c0.2,0,0.5,0,0.6,0.1s0.3,0.2,0.5,0.4s0.2,0.4,0.3,0.6S241.2,3,241.2,3.2z M240.8,3.1c0-0.4-0.1-0.7-0.3-0.9
		c-0.2-0.2-0.4-0.3-0.7-0.3c-0.3,0-0.5,0.1-0.7,0.3c-0.2,0.2-0.3,0.5-0.3,0.9H240.8z"/>
	<path id="XMLID_341_" class="st0" d="M244.1,5.2V4.8c-0.1,0.1-0.3,0.3-0.5,0.4c-0.2,0.1-0.4,0.2-0.7,0.2c-0.1,0-0.3,0-0.4-0.1
		c-0.1,0-0.3-0.1-0.4-0.2c-0.1-0.1-0.2-0.2-0.3-0.4s-0.1-0.3-0.1-0.6c0-0.2,0-0.4,0.1-0.5c0.1-0.2,0.2-0.3,0.3-0.4
		c0.1-0.1,0.3-0.2,0.5-0.2s0.4-0.1,0.5-0.1c0.2,0,0.4,0,0.5,0.1s0.3,0.1,0.4,0.2V2.7c0-0.5-0.3-0.8-0.8-0.8c-0.2,0-0.4,0-0.5,0.1
		s-0.3,0.1-0.5,0.2L242,1.7c0.2-0.1,0.4-0.2,0.6-0.2c0.2-0.1,0.4-0.1,0.7-0.1c0.4,0,0.7,0.1,1,0.3c0.2,0.2,0.4,0.5,0.4,0.9v2.6
		H244.1z M244.1,3.5c-0.1-0.1-0.3-0.1-0.4-0.2c-0.1,0-0.3-0.1-0.6-0.1c-0.3,0-0.5,0.1-0.6,0.2s-0.2,0.3-0.2,0.5
		c0,0.3,0.1,0.5,0.2,0.6c0.1,0.1,0.3,0.2,0.6,0.2c0.2,0,0.5-0.1,0.6-0.2c0.2-0.1,0.3-0.2,0.4-0.4V3.5z"/>
	<path id="XMLID_339_" class="st0" d="M246.1,1.9v2.4c0,0.2,0,0.3,0.1,0.3c0.1,0.1,0.2,0.1,0.3,0.1c0.1,0,0.2,0,0.3,0s0.2,0,0.2-0.1
		l0,0.5c-0.1,0-0.2,0.1-0.3,0.1s-0.2,0-0.4,0c-0.2,0-0.4-0.1-0.5-0.2s-0.2-0.3-0.2-0.7V1.9h-0.5V1.5h0.5V0.3l0.5-0.3v1.5h0.9v0.5
		H246.1z"/>
	<path id="XMLID_337_" class="st0" d="M252.1,5.2V3c0-0.4-0.1-0.7-0.2-0.9s-0.3-0.3-0.6-0.3c-0.3,0-0.5,0.1-0.6,0.3
		c-0.2,0.2-0.2,0.5-0.2,0.9v2.2h-0.5V3c0-0.4-0.1-0.7-0.2-0.9s-0.3-0.3-0.6-0.3c-0.3,0-0.5,0.1-0.6,0.3c-0.1,0.2-0.2,0.5-0.2,0.9
		v2.2h-0.5V1.5h0.5l0,0.5c0.1-0.2,0.2-0.3,0.4-0.4c0.2-0.1,0.3-0.1,0.6-0.1c0.3,0,0.5,0.1,0.6,0.2c0.2,0.1,0.3,0.3,0.4,0.5
		c0.1-0.1,0.1-0.2,0.2-0.3c0.1-0.1,0.1-0.1,0.2-0.2c0.1-0.1,0.2-0.1,0.3-0.1c0.1,0,0.3,0,0.4,0c0.4,0,0.7,0.1,0.9,0.4
		c0.2,0.2,0.3,0.6,0.3,1.2v2.3H252.1z"/>
	<path id="XMLID_334_" class="st0" d="M256.3,3.2c0,0.1,0,0.1,0,0.2c0,0,0,0.1,0,0.1h-2.5c0,0.4,0.1,0.7,0.3,1
		c0.2,0.2,0.4,0.4,0.7,0.4c0.2,0,0.4,0,0.6-0.1s0.3-0.2,0.5-0.3l0.3,0.4c-0.1,0.1-0.2,0.1-0.3,0.2c-0.1,0.1-0.2,0.1-0.3,0.1
		c-0.1,0-0.2,0.1-0.3,0.1c-0.1,0-0.2,0-0.4,0c-0.2,0-0.3,0-0.5-0.1c-0.2-0.1-0.3-0.2-0.5-0.3s-0.3-0.4-0.4-0.6
		c-0.1-0.3-0.1-0.6-0.1-0.9c0-0.3,0-0.6,0.1-0.8c0.1-0.2,0.2-0.4,0.3-0.6s0.3-0.3,0.5-0.4c0.2-0.1,0.4-0.1,0.6-0.1
		c0.2,0,0.5,0,0.6,0.1s0.3,0.2,0.5,0.4s0.2,0.4,0.3,0.6S256.3,3,256.3,3.2z M255.8,3.1c0-0.4-0.1-0.7-0.3-0.9
		c-0.2-0.2-0.4-0.3-0.7-0.3c-0.3,0-0.5,0.1-0.7,0.3c-0.2,0.2-0.3,0.5-0.3,0.9H255.8z"/>
	<path id="XMLID_332_" class="st0" d="M259.3,5.2V3c0-0.4-0.1-0.7-0.2-0.9c-0.1-0.2-0.4-0.3-0.7-0.3c-0.3,0-0.5,0.1-0.7,0.3
		c-0.2,0.2-0.3,0.5-0.3,0.9v2.2h-0.5V1.5h0.5l0,0.5c0.1-0.2,0.3-0.3,0.4-0.4s0.4-0.1,0.6-0.1c0.2,0,0.4,0,0.5,0.1
		c0.2,0.1,0.3,0.2,0.4,0.3c0.1,0.1,0.2,0.3,0.3,0.5c0.1,0.2,0.1,0.4,0.1,0.7v2.3H259.3z"/>
	<path id="XMLID_330_" class="st0" d="M261.3,1.9v2.4c0,0.2,0,0.3,0.1,0.3c0.1,0.1,0.2,0.1,0.3,0.1c0.1,0,0.2,0,0.3,0s0.2,0,0.2-0.1
		l0,0.5c-0.1,0-0.2,0.1-0.3,0.1s-0.2,0-0.4,0c-0.2,0-0.4-0.1-0.5-0.2s-0.2-0.3-0.2-0.7V1.9h-0.5V1.5h0.5V0.3l0.5-0.3v1.5h0.9v0.5
		H261.3z"/>
	<path id="XMLID_327_" class="st0" d="M267.5,3.3c0,0.3,0,0.6-0.1,0.8s-0.2,0.5-0.4,0.6c-0.1,0.2-0.3,0.3-0.5,0.4
		c-0.2,0.1-0.4,0.1-0.6,0.1s-0.4,0-0.6-0.1s-0.4-0.2-0.5-0.4s-0.3-0.4-0.3-0.6c-0.1-0.2-0.1-0.5-0.1-0.8c0-0.3,0-0.6,0.1-0.8
		s0.2-0.4,0.4-0.6c0.1-0.2,0.3-0.3,0.5-0.4c0.2-0.1,0.4-0.1,0.6-0.1s0.4,0,0.6,0.1s0.4,0.2,0.5,0.4s0.3,0.4,0.3,0.6
		S267.5,3,267.5,3.3z M266.9,3.3c0-0.5-0.1-0.9-0.3-1.1c-0.2-0.2-0.5-0.4-0.8-0.4s-0.6,0.1-0.8,0.4c-0.2,0.2-0.3,0.6-0.3,1.1
		c0,0.5,0.1,0.9,0.3,1.1c0.2,0.3,0.5,0.4,0.8,0.4s0.6-0.1,0.8-0.4C266.8,4.2,266.9,3.8,266.9,3.3z"/>
	<path id="XMLID_325_" class="st0" d="M269.3,0.5c-0.1,0-0.2,0-0.3,0.1c-0.1,0.1-0.1,0.2-0.1,0.3v0.6h0.7v0.5h-0.7v3.3h-0.5V1.9
		h-0.5V1.5h0.5V0.9c0-0.3,0.1-0.6,0.3-0.7c0.2-0.1,0.4-0.2,0.6-0.2c0.1,0,0.2,0,0.3,0c0.1,0,0.1,0,0.2,0.1v0.5
		C269.6,0.5,269.5,0.5,269.3,0.5z"/>
	<path id="XMLID_322_" class="st0" d="M274.8,3.3c0,0.3,0,0.6-0.1,0.9c-0.1,0.3-0.2,0.5-0.3,0.6c-0.1,0.2-0.3,0.3-0.4,0.4
		c-0.2,0.1-0.4,0.1-0.5,0.1c-0.2,0-0.4,0-0.6-0.1c-0.2-0.1-0.3-0.2-0.4-0.4v1.5l-0.5,0.3V1.5h0.5l0,0.5c0.1-0.1,0.3-0.3,0.5-0.4
		c0.2-0.1,0.4-0.2,0.7-0.2c0.2,0,0.4,0,0.5,0.1c0.2,0.1,0.3,0.2,0.4,0.3c0.1,0.2,0.2,0.3,0.3,0.6C274.8,2.7,274.8,2.9,274.8,3.3z
		 M274.3,3.3c0-0.5-0.1-0.8-0.3-1.1c-0.2-0.2-0.4-0.4-0.7-0.4c-0.2,0-0.4,0-0.5,0.1s-0.3,0.2-0.4,0.4v1.9c0.1,0.2,0.2,0.3,0.4,0.4
		c0.2,0.1,0.4,0.2,0.6,0.2c0.3,0,0.5-0.1,0.7-0.4C274.2,4.2,274.3,3.8,274.3,3.3z"/>
	<path id="XMLID_319_" class="st0" d="M277.6,5.2V4.8c-0.1,0.1-0.3,0.3-0.5,0.4c-0.2,0.1-0.4,0.2-0.7,0.2c-0.1,0-0.3,0-0.4-0.1
		c-0.1,0-0.3-0.1-0.4-0.2c-0.1-0.1-0.2-0.2-0.3-0.4s-0.1-0.3-0.1-0.6c0-0.2,0-0.4,0.1-0.5c0.1-0.2,0.2-0.3,0.3-0.4
		c0.1-0.1,0.3-0.2,0.5-0.2s0.4-0.1,0.5-0.1c0.2,0,0.4,0,0.5,0.1s0.3,0.1,0.4,0.2V2.7c0-0.5-0.3-0.8-0.8-0.8c-0.2,0-0.4,0-0.5,0.1
		s-0.3,0.1-0.5,0.2l-0.2-0.4c0.2-0.1,0.4-0.2,0.6-0.2c0.2-0.1,0.4-0.1,0.7-0.1c0.4,0,0.7,0.1,1,0.3c0.2,0.2,0.4,0.5,0.4,0.9v2.6
		H277.6z M277.6,3.5c-0.1-0.1-0.3-0.1-0.4-0.2c-0.1,0-0.3-0.1-0.6-0.1c-0.3,0-0.5,0.1-0.6,0.2s-0.2,0.3-0.2,0.5
		c0,0.3,0.1,0.5,0.2,0.6c0.1,0.1,0.3,0.2,0.6,0.2c0.2,0,0.5-0.1,0.6-0.2c0.2-0.1,0.3-0.2,0.4-0.4V3.5z"/>
	<path id="XMLID_317_" class="st0" d="M280.9,2c-0.1,0-0.2-0.1-0.2-0.1c-0.1,0-0.2,0-0.3,0c-0.3,0-0.5,0.1-0.6,0.3s-0.2,0.5-0.2,0.8
		v2.2h-0.5V1.5h0.5v0.5c0.1-0.2,0.2-0.3,0.4-0.4s0.4-0.2,0.6-0.2c0.1,0,0.3,0,0.3,0s0.2,0,0.2,0.1L280.9,2z"/>
	<path id="XMLID_315_" class="st0" d="M282.2,1.9v2.4c0,0.2,0,0.3,0.1,0.3c0.1,0.1,0.2,0.1,0.3,0.1c0.1,0,0.2,0,0.3,0s0.2,0,0.2-0.1
		l0,0.5c-0.1,0-0.2,0.1-0.3,0.1s-0.2,0-0.4,0c-0.2,0-0.4-0.1-0.5-0.2s-0.2-0.3-0.2-0.7V1.9h-0.5V1.5h0.5V0.3l0.5-0.3v1.5h0.9v0.5
		H282.2z"/>
	<path id="XMLID_312_" class="st0" d="M284.5,0.4c0,0.1,0,0.2-0.1,0.3c-0.1,0.1-0.2,0.1-0.3,0.1c-0.1,0-0.2,0-0.3-0.1
		c-0.1-0.1-0.1-0.2-0.1-0.3c0-0.1,0-0.2,0.1-0.3c0.1-0.1,0.2-0.1,0.3-0.1c0.1,0,0.2,0,0.3,0.1C284.4,0.2,284.5,0.3,284.5,0.4z
		 M283.8,5.2V1.5h0.5v3.8H283.8z"/>
	<path id="XMLID_309_" class="st0" d="M287.4,5.2V4.8c-0.1,0.1-0.3,0.3-0.5,0.4c-0.2,0.1-0.4,0.2-0.7,0.2c-0.1,0-0.3,0-0.4-0.1
		c-0.1,0-0.3-0.1-0.4-0.2c-0.1-0.1-0.2-0.2-0.3-0.4S285,4.3,285,4.1c0-0.2,0-0.4,0.1-0.5c0.1-0.2,0.2-0.3,0.3-0.4
		c0.1-0.1,0.3-0.2,0.5-0.2s0.4-0.1,0.5-0.1c0.2,0,0.4,0,0.5,0.1s0.3,0.1,0.4,0.2V2.7c0-0.5-0.3-0.8-0.8-0.8c-0.2,0-0.4,0-0.5,0.1
		s-0.3,0.1-0.5,0.2l-0.2-0.4c0.2-0.1,0.4-0.2,0.6-0.2c0.2-0.1,0.4-0.1,0.7-0.1c0.4,0,0.7,0.1,1,0.3c0.2,0.2,0.4,0.5,0.4,0.9v2.6
		H287.4z M287.4,3.5c-0.1-0.1-0.3-0.1-0.4-0.2c-0.1,0-0.3-0.1-0.6-0.1c-0.3,0-0.5,0.1-0.6,0.2s-0.2,0.3-0.2,0.5
		c0,0.3,0.1,0.5,0.2,0.6c0.1,0.1,0.3,0.2,0.6,0.2c0.2,0,0.5-0.1,0.6-0.2c0.2-0.1,0.3-0.2,0.4-0.4V3.5z"/>
	<path id="XMLID_307_" class="st0" d="M288.8,5.2V0.3l0.5-0.3v5.2H288.8z"/>
	<path id="XMLID_305_" class="st0" d="M289.9,2.9V2.3h1.6v0.5H289.9z"/>
	<path id="XMLID_302_" class="st0" d="M295.2,3.3c0,0.3,0,0.6-0.1,0.8s-0.2,0.5-0.4,0.6c-0.1,0.2-0.3,0.3-0.5,0.4
		c-0.2,0.1-0.4,0.1-0.6,0.1s-0.4,0-0.6-0.1s-0.4-0.2-0.5-0.4s-0.3-0.4-0.3-0.6c-0.1-0.2-0.1-0.5-0.1-0.8c0-0.3,0-0.6,0.1-0.8
		s0.2-0.4,0.4-0.6c0.1-0.2,0.3-0.3,0.5-0.4c0.2-0.1,0.4-0.1,0.6-0.1s0.4,0,0.6,0.1s0.4,0.2,0.5,0.4s0.3,0.4,0.3,0.6
		S295.2,3,295.2,3.3z M294.6,3.3c0-0.5-0.1-0.9-0.3-1.1c-0.2-0.2-0.5-0.4-0.8-0.4S293,2,292.8,2.2c-0.2,0.2-0.3,0.6-0.3,1.1
		c0,0.5,0.1,0.9,0.3,1.1c0.2,0.3,0.5,0.4,0.8,0.4s0.6-0.1,0.8-0.4C294.5,4.2,294.6,3.8,294.6,3.3z"/>
	<path id="XMLID_300_" class="st0" d="M298.2,5.2V3c0-0.4-0.1-0.7-0.2-0.9c-0.1-0.2-0.4-0.3-0.7-0.3c-0.3,0-0.5,0.1-0.7,0.3
		c-0.2,0.2-0.3,0.5-0.3,0.9v2.2h-0.5V1.5h0.5l0,0.5c0.1-0.2,0.3-0.3,0.4-0.4s0.4-0.1,0.6-0.1c0.2,0,0.4,0,0.5,0.1
		c0.2,0.1,0.3,0.2,0.4,0.3c0.1,0.1,0.2,0.3,0.3,0.5c0.1,0.2,0.1,0.4,0.1,0.7v2.3H298.2z"/>
	<path id="XMLID_298_" class="st0" d="M301.8,4.2c0,0.2,0,0.3-0.1,0.5c-0.1,0.1-0.2,0.2-0.3,0.3c-0.1,0.1-0.3,0.1-0.4,0.2
		c-0.2,0-0.3,0.1-0.5,0.1c-0.3,0-0.5,0-0.7-0.1c-0.2-0.1-0.4-0.2-0.6-0.3l0.3-0.4c0.2,0.1,0.3,0.2,0.5,0.3c0.2,0.1,0.4,0.1,0.5,0.1
		c0.3,0,0.4-0.1,0.6-0.2s0.2-0.2,0.2-0.4c0-0.1,0-0.1,0-0.2c0-0.1-0.1-0.1-0.2-0.2c-0.1-0.1-0.2-0.1-0.3-0.2
		c-0.1-0.1-0.3-0.1-0.4-0.2c-0.2-0.1-0.3-0.2-0.5-0.2c-0.1-0.1-0.2-0.2-0.3-0.2c-0.1-0.1-0.1-0.2-0.2-0.3c0-0.1-0.1-0.2-0.1-0.4
		c0-0.1,0-0.3,0.1-0.4c0.1-0.1,0.1-0.2,0.2-0.3c0.1-0.1,0.2-0.2,0.4-0.2c0.1,0,0.3-0.1,0.5-0.1c0.3,0,0.5,0,0.7,0.1
		c0.2,0.1,0.4,0.2,0.5,0.3l-0.3,0.4c-0.1-0.1-0.3-0.2-0.4-0.3c-0.1-0.1-0.3-0.1-0.5-0.1s-0.4,0-0.5,0.1s-0.2,0.2-0.2,0.3
		c0,0.1,0,0.2,0,0.2s0.1,0.1,0.1,0.2c0.1,0.1,0.2,0.1,0.3,0.2c0.1,0.1,0.2,0.1,0.4,0.2c0.2,0.1,0.3,0.2,0.5,0.2
		c0.1,0.1,0.3,0.2,0.4,0.2c0.1,0.1,0.2,0.2,0.2,0.3C301.8,3.9,301.8,4.1,301.8,4.2z"/>
	<path id="XMLID_295_" class="st0" d="M305.3,3.2c0,0.1,0,0.1,0,0.2c0,0,0,0.1,0,0.1h-2.5c0,0.4,0.1,0.7,0.3,1
		c0.2,0.2,0.4,0.4,0.7,0.4c0.2,0,0.4,0,0.6-0.1s0.3-0.2,0.5-0.3l0.3,0.4c-0.1,0.1-0.2,0.1-0.3,0.2c-0.1,0.1-0.2,0.1-0.3,0.1
		c-0.1,0-0.2,0.1-0.3,0.1c-0.1,0-0.2,0-0.4,0c-0.2,0-0.3,0-0.5-0.1c-0.2-0.1-0.3-0.2-0.5-0.3s-0.3-0.4-0.4-0.6
		c-0.1-0.3-0.1-0.6-0.1-0.9c0-0.3,0-0.6,0.1-0.8c0.1-0.2,0.2-0.4,0.3-0.6s0.3-0.3,0.5-0.4c0.2-0.1,0.4-0.1,0.6-0.1
		c0.2,0,0.5,0,0.6,0.1s0.3,0.2,0.5,0.4s0.2,0.4,0.3,0.6S305.3,3,305.3,3.2z M304.8,3.1c0-0.4-0.1-0.7-0.3-0.9
		c-0.2-0.2-0.4-0.3-0.7-0.3c-0.3,0-0.5,0.1-0.7,0.3c-0.2,0.2-0.3,0.5-0.3,0.9H304.8z"/>
	<path id="XMLID_293_" class="st0" d="M306.7,1.9v2.4c0,0.2,0,0.3,0.1,0.3c0.1,0.1,0.2,0.1,0.3,0.1c0.1,0,0.2,0,0.3,0s0.2,0,0.2-0.1
		l0,0.5c-0.1,0-0.2,0.1-0.3,0.1s-0.2,0-0.4,0c-0.2,0-0.4-0.1-0.5-0.2s-0.2-0.3-0.2-0.7V1.9h-0.5V1.5h0.5V0.3l0.5-0.3v1.5h0.9v0.5
		H306.7z"/>
	<path id="XMLID_291_" class="st0" d="M312.1,4.2c0,0.2,0,0.3-0.1,0.5c-0.1,0.1-0.2,0.2-0.3,0.3c-0.1,0.1-0.3,0.1-0.4,0.2
		c-0.2,0-0.3,0.1-0.5,0.1c-0.3,0-0.5,0-0.7-0.1c-0.2-0.1-0.4-0.2-0.6-0.3l0.3-0.4c0.2,0.1,0.3,0.2,0.5,0.3c0.2,0.1,0.4,0.1,0.5,0.1
		c0.3,0,0.4-0.1,0.6-0.2s0.2-0.2,0.2-0.4c0-0.1,0-0.1,0-0.2c0-0.1-0.1-0.1-0.2-0.2c-0.1-0.1-0.2-0.1-0.3-0.2
		c-0.1-0.1-0.3-0.1-0.4-0.2c-0.2-0.1-0.3-0.2-0.5-0.2c-0.1-0.1-0.2-0.2-0.3-0.2c-0.1-0.1-0.1-0.2-0.2-0.3c0-0.1-0.1-0.2-0.1-0.4
		c0-0.1,0-0.3,0.1-0.4c0.1-0.1,0.1-0.2,0.2-0.3c0.1-0.1,0.2-0.2,0.4-0.2c0.1,0,0.3-0.1,0.5-0.1c0.3,0,0.5,0,0.7,0.1
		c0.2,0.1,0.4,0.2,0.5,0.3l-0.3,0.4c-0.1-0.1-0.3-0.2-0.4-0.3c-0.1-0.1-0.3-0.1-0.5-0.1s-0.4,0-0.5,0.1s-0.2,0.2-0.2,0.3
		c0,0.1,0,0.2,0,0.2s0.1,0.1,0.1,0.2c0.1,0.1,0.2,0.1,0.3,0.2c0.1,0.1,0.2,0.1,0.4,0.2c0.2,0.1,0.3,0.2,0.5,0.2
		c0.1,0.1,0.3,0.2,0.4,0.2c0.1,0.1,0.2,0.2,0.2,0.3C312.1,3.9,312.1,4.1,312.1,4.2z"/>
	<path id="XMLID_288_" class="st0" d="M315.6,3.2c0,0.1,0,0.1,0,0.2c0,0,0,0.1,0,0.1h-2.5c0,0.4,0.1,0.7,0.3,1
		c0.2,0.2,0.4,0.4,0.7,0.4c0.2,0,0.4,0,0.6-0.1s0.3-0.2,0.5-0.3l0.3,0.4c-0.1,0.1-0.2,0.1-0.3,0.2c-0.1,0.1-0.2,0.1-0.3,0.1
		c-0.1,0-0.2,0.1-0.3,0.1c-0.1,0-0.2,0-0.4,0c-0.2,0-0.3,0-0.5-0.1c-0.2-0.1-0.3-0.2-0.5-0.3s-0.3-0.4-0.4-0.6
		c-0.1-0.3-0.1-0.6-0.1-0.9c0-0.3,0-0.6,0.1-0.8c0.1-0.2,0.2-0.4,0.3-0.6s0.3-0.3,0.5-0.4c0.2-0.1,0.4-0.1,0.6-0.1
		c0.2,0,0.5,0,0.6,0.1s0.3,0.2,0.5,0.4s0.2,0.4,0.3,0.6S315.6,3,315.6,3.2z M315.1,3.1c0-0.4-0.1-0.7-0.3-0.9
		c-0.2-0.2-0.4-0.3-0.7-0.3c-0.3,0-0.5,0.1-0.7,0.3c-0.2,0.2-0.3,0.5-0.3,0.9H315.1z"/>
	<path id="XMLID_285_" class="st0" d="M317,0.4c0,0.1,0,0.2-0.1,0.3c-0.1,0.1-0.2,0.1-0.3,0.1c-0.1,0-0.2,0-0.3-0.1
		c-0.1-0.1-0.1-0.2-0.1-0.3c0-0.1,0-0.2,0.1-0.3c0.1-0.1,0.2-0.1,0.3-0.1c0.1,0,0.2,0,0.3,0.1C316.9,0.2,317,0.3,317,0.4z
		 M316.3,5.2V1.5h0.5v3.8H316.3z"/>
	<path id="XMLID_283_" class="st0" d="M317.5,5.2V4.8l2.1-2.9h-1.9V1.5h2.5v0.4l-2.1,2.9h2.1v0.5H317.5z"/>
	<path id="XMLID_281_" class="st0" d="M323.2,5.2V4.8c-0.1,0.2-0.3,0.3-0.4,0.4c-0.2,0.1-0.4,0.2-0.6,0.2c-0.2,0-0.4,0-0.5-0.1
		s-0.3-0.2-0.4-0.3S321,4.6,321,4.4c-0.1-0.2-0.1-0.4-0.1-0.7V1.5h0.5v2.2c0,0.4,0.1,0.7,0.2,0.9c0.1,0.2,0.4,0.3,0.7,0.3
		c0.3,0,0.5-0.1,0.7-0.3c0.2-0.2,0.3-0.5,0.3-0.9V1.5h0.5v3.8H323.2z"/>
	<path id="XMLID_279_" class="st0" d="M326.5,2c-0.1,0-0.2-0.1-0.2-0.1c-0.1,0-0.2,0-0.3,0c-0.3,0-0.5,0.1-0.6,0.3s-0.2,0.5-0.2,0.8
		v2.2h-0.5V1.5h0.5v0.5c0.1-0.2,0.2-0.3,0.4-0.4s0.4-0.2,0.6-0.2c0.1,0,0.3,0,0.3,0s0.2,0,0.2,0.1L326.5,2z"/>
	<path id="XMLID_276_" class="st0" d="M330,3.2c0,0.1,0,0.1,0,0.2c0,0,0,0.1,0,0.1h-2.5c0,0.4,0.1,0.7,0.3,1
		c0.2,0.2,0.4,0.4,0.7,0.4c0.2,0,0.4,0,0.6-0.1s0.3-0.2,0.5-0.3l0.3,0.4c-0.1,0.1-0.2,0.1-0.3,0.2c-0.1,0.1-0.2,0.1-0.3,0.1
		c-0.1,0-0.2,0.1-0.3,0.1c-0.1,0-0.2,0-0.4,0c-0.2,0-0.3,0-0.5-0.1c-0.2-0.1-0.3-0.2-0.5-0.3s-0.3-0.4-0.4-0.6
		c-0.1-0.3-0.1-0.6-0.1-0.9c0-0.3,0-0.6,0.1-0.8c0.1-0.2,0.2-0.4,0.3-0.6s0.3-0.3,0.5-0.4c0.2-0.1,0.4-0.1,0.6-0.1
		c0.2,0,0.5,0,0.6,0.1s0.3,0.2,0.5,0.4s0.2,0.4,0.3,0.6S330,3,330,3.2z M329.5,3.1c0-0.4-0.1-0.7-0.3-0.9c-0.2-0.2-0.4-0.3-0.7-0.3
		c-0.3,0-0.5,0.1-0.7,0.3c-0.2,0.2-0.3,0.5-0.3,0.9H329.5z"/>
	<path id="XMLID_274_" class="st0" d="M333,4.2c0,0.2,0,0.3-0.1,0.5c-0.1,0.1-0.2,0.2-0.3,0.3c-0.1,0.1-0.3,0.1-0.4,0.2
		c-0.2,0-0.3,0.1-0.5,0.1c-0.3,0-0.5,0-0.7-0.1c-0.2-0.1-0.4-0.2-0.6-0.3l0.3-0.4c0.2,0.1,0.3,0.2,0.5,0.3c0.2,0.1,0.4,0.1,0.5,0.1
		c0.3,0,0.4-0.1,0.6-0.2s0.2-0.2,0.2-0.4c0-0.1,0-0.1,0-0.2c0-0.1-0.1-0.1-0.2-0.2c-0.1-0.1-0.2-0.1-0.3-0.2
		c-0.1-0.1-0.3-0.1-0.4-0.2c-0.2-0.1-0.3-0.2-0.5-0.2c-0.1-0.1-0.2-0.2-0.3-0.2c-0.1-0.1-0.1-0.2-0.2-0.3c0-0.1-0.1-0.2-0.1-0.4
		c0-0.1,0-0.3,0.1-0.4c0.1-0.1,0.1-0.2,0.2-0.3c0.1-0.1,0.2-0.2,0.4-0.2c0.1,0,0.3-0.1,0.5-0.1c0.3,0,0.5,0,0.7,0.1
		c0.2,0.1,0.4,0.2,0.5,0.3l-0.3,0.4c-0.1-0.1-0.3-0.2-0.4-0.3c-0.1-0.1-0.3-0.1-0.5-0.1s-0.4,0-0.5,0.1S331,2.2,331,2.3
		c0,0.1,0,0.2,0,0.2s0.1,0.1,0.1,0.2c0.1,0.1,0.2,0.1,0.3,0.2c0.1,0.1,0.2,0.1,0.4,0.2c0.2,0.1,0.3,0.2,0.5,0.2
		c0.1,0.1,0.3,0.2,0.4,0.2c0.1,0.1,0.2,0.2,0.2,0.3C332.9,3.9,333,4.1,333,4.2z"/>
	<path id="XMLID_271_" class="st0" d="M335.8,0.4c0,0.1,0,0.2-0.1,0.3c-0.1,0.1-0.2,0.1-0.3,0.1c-0.1,0-0.2,0-0.3-0.1
		c-0.1-0.1-0.1-0.2-0.1-0.3c0-0.1,0-0.2,0.1-0.3c0.1-0.1,0.2-0.1,0.3-0.1c0.1,0,0.2,0,0.3,0.1C335.8,0.2,335.8,0.3,335.8,0.4z
		 M335.2,5.2V1.5h0.5v3.8H335.2z"/>
	<path id="XMLID_269_" class="st0" d="M338.9,5.2V3c0-0.4-0.1-0.7-0.2-0.9c-0.1-0.2-0.4-0.3-0.7-0.3c-0.3,0-0.5,0.1-0.7,0.3
		c-0.2,0.2-0.3,0.5-0.3,0.9v2.2h-0.5V1.5h0.5l0,0.5c0.1-0.2,0.3-0.3,0.4-0.4s0.4-0.1,0.6-0.1c0.2,0,0.4,0,0.5,0.1
		c0.2,0.1,0.3,0.2,0.4,0.3c0.1,0.1,0.2,0.3,0.3,0.5c0.1,0.2,0.1,0.4,0.1,0.7v2.3H338.9z"/>
	<path id="XMLID_266_" class="st0" d="M344.8,3.3c0,0.3,0,0.6-0.1,0.9c-0.1,0.3-0.2,0.5-0.3,0.6c-0.1,0.2-0.3,0.3-0.4,0.4
		c-0.2,0.1-0.4,0.1-0.5,0.1c-0.2,0-0.4,0-0.6-0.1c-0.2-0.1-0.3-0.2-0.4-0.4v1.5l-0.5,0.3V1.5h0.5l0,0.5c0.1-0.1,0.3-0.3,0.5-0.4
		c0.2-0.1,0.4-0.2,0.7-0.2c0.2,0,0.4,0,0.5,0.1c0.2,0.1,0.3,0.2,0.4,0.3c0.1,0.2,0.2,0.3,0.3,0.6C344.7,2.7,344.8,2.9,344.8,3.3z
		 M344.2,3.3c0-0.5-0.1-0.8-0.3-1.1c-0.2-0.2-0.4-0.4-0.7-0.4c-0.2,0-0.4,0-0.5,0.1s-0.3,0.2-0.4,0.4v1.9c0.1,0.2,0.2,0.3,0.4,0.4
		c0.2,0.1,0.4,0.2,0.6,0.2c0.3,0,0.5-0.1,0.7-0.4C344.2,4.2,344.2,3.8,344.2,3.3z"/>
	<path id="XMLID_263_" class="st0" d="M347.6,5.2V4.8c-0.1,0.1-0.3,0.3-0.5,0.4c-0.2,0.1-0.4,0.2-0.7,0.2c-0.1,0-0.3,0-0.4-0.1
		c-0.1,0-0.3-0.1-0.4-0.2c-0.1-0.1-0.2-0.2-0.3-0.4s-0.1-0.3-0.1-0.6c0-0.2,0-0.4,0.1-0.5c0.1-0.2,0.2-0.3,0.3-0.4
		c0.1-0.1,0.3-0.2,0.5-0.2s0.4-0.1,0.5-0.1c0.2,0,0.4,0,0.5,0.1s0.3,0.1,0.4,0.2V2.7c0-0.5-0.3-0.8-0.8-0.8c-0.2,0-0.4,0-0.5,0.1
		s-0.3,0.1-0.5,0.2l-0.2-0.4c0.2-0.1,0.4-0.2,0.6-0.2c0.2-0.1,0.4-0.1,0.7-0.1c0.4,0,0.7,0.1,1,0.3c0.2,0.2,0.4,0.5,0.4,0.9v2.6
		H347.6z M347.6,3.5c-0.1-0.1-0.3-0.1-0.4-0.2c-0.1,0-0.3-0.1-0.6-0.1c-0.3,0-0.5,0.1-0.6,0.2s-0.2,0.3-0.2,0.5
		c0,0.3,0.1,0.5,0.2,0.6c0.1,0.1,0.3,0.2,0.6,0.2c0.2,0,0.5-0.1,0.6-0.2c0.2-0.1,0.3-0.2,0.4-0.4V3.5z"/>
	<path id="XMLID_261_" class="st0" d="M349.6,1.9v2.4c0,0.2,0,0.3,0.1,0.3c0.1,0.1,0.2,0.1,0.3,0.1c0.1,0,0.2,0,0.3,0s0.2,0,0.2-0.1
		l0,0.5c-0.1,0-0.2,0.1-0.3,0.1s-0.2,0-0.4,0c-0.2,0-0.4-0.1-0.5-0.2s-0.2-0.3-0.2-0.7V1.9h-0.5V1.5h0.5V0.3l0.5-0.3v1.5h0.9v0.5
		H349.6z"/>
	<path id="XMLID_258_" class="st0" d="M351.9,0.4c0,0.1,0,0.2-0.1,0.3c-0.1,0.1-0.2,0.1-0.3,0.1c-0.1,0-0.2,0-0.3-0.1
		c-0.1-0.1-0.1-0.2-0.1-0.3c0-0.1,0-0.2,0.1-0.3c0.1-0.1,0.2-0.1,0.3-0.1c0.1,0,0.2,0,0.3,0.1C351.9,0.2,351.9,0.3,351.9,0.4z
		 M351.2,5.2V1.5h0.5v3.8H351.2z"/>
	<path id="XMLID_255_" class="st0" d="M355.5,3.2c0,0.1,0,0.1,0,0.2c0,0,0,0.1,0,0.1H353c0,0.4,0.1,0.7,0.3,1
		c0.2,0.2,0.4,0.4,0.7,0.4c0.2,0,0.4,0,0.6-0.1s0.3-0.2,0.5-0.3l0.3,0.4c-0.1,0.1-0.2,0.1-0.3,0.2c-0.1,0.1-0.2,0.1-0.3,0.1
		c-0.1,0-0.2,0.1-0.3,0.1c-0.1,0-0.2,0-0.4,0c-0.2,0-0.3,0-0.5-0.1c-0.2-0.1-0.3-0.2-0.5-0.3s-0.3-0.4-0.4-0.6
		c-0.1-0.3-0.1-0.6-0.1-0.9c0-0.3,0-0.6,0.1-0.8c0.1-0.2,0.2-0.4,0.3-0.6s0.3-0.3,0.5-0.4c0.2-0.1,0.4-0.1,0.6-0.1
		c0.2,0,0.5,0,0.6,0.1s0.3,0.2,0.5,0.4s0.2,0.4,0.3,0.6S355.5,3,355.5,3.2z M355,3.1c0-0.4-0.1-0.7-0.3-0.9
		c-0.2-0.2-0.4-0.3-0.7-0.3c-0.3,0-0.5,0.1-0.7,0.3c-0.2,0.2-0.3,0.5-0.3,0.9H355z"/>
	<path id="XMLID_253_" class="st0" d="M358.5,5.2V3c0-0.4-0.1-0.7-0.2-0.9c-0.1-0.2-0.4-0.3-0.7-0.3c-0.3,0-0.5,0.1-0.7,0.3
		c-0.2,0.2-0.3,0.5-0.3,0.9v2.2h-0.5V1.5h0.5l0,0.5c0.1-0.2,0.3-0.3,0.4-0.4s0.4-0.1,0.6-0.1c0.2,0,0.4,0,0.5,0.1
		c0.2,0.1,0.3,0.2,0.4,0.3c0.1,0.1,0.2,0.3,0.3,0.5c0.1,0.2,0.1,0.4,0.1,0.7v2.3H358.5z"/>
	<path id="XMLID_251_" class="st0" d="M360.5,1.9v2.4c0,0.2,0,0.3,0.1,0.3c0.1,0.1,0.2,0.1,0.3,0.1c0.1,0,0.2,0,0.3,0s0.2,0,0.2-0.1
		l0,0.5c-0.1,0-0.2,0.1-0.3,0.1s-0.2,0-0.4,0c-0.2,0-0.4-0.1-0.5-0.2S360,4.8,360,4.4V1.9h-0.5V1.5h0.5V0.3l0.5-0.3v1.5h0.9v0.5
		H360.5z"/>
	<path id="XMLID_249_" class="st0" d="M364.5,4.2c0,0.2,0,0.3-0.1,0.5c-0.1,0.1-0.2,0.2-0.3,0.3c-0.1,0.1-0.3,0.1-0.4,0.2
		c-0.2,0-0.3,0.1-0.5,0.1c-0.3,0-0.5,0-0.7-0.1c-0.2-0.1-0.4-0.2-0.6-0.3l0.3-0.4c0.2,0.1,0.3,0.2,0.5,0.3c0.2,0.1,0.4,0.1,0.5,0.1
		c0.3,0,0.4-0.1,0.6-0.2s0.2-0.2,0.2-0.4c0-0.1,0-0.1,0-0.2c0-0.1-0.1-0.1-0.2-0.2c-0.1-0.1-0.2-0.1-0.3-0.2
		c-0.1-0.1-0.3-0.1-0.4-0.2c-0.2-0.1-0.3-0.2-0.5-0.2c-0.1-0.1-0.2-0.2-0.3-0.2c-0.1-0.1-0.1-0.2-0.2-0.3c0-0.1-0.1-0.2-0.1-0.4
		c0-0.1,0-0.3,0.1-0.4c0.1-0.1,0.1-0.2,0.2-0.3c0.1-0.1,0.2-0.2,0.4-0.2c0.1,0,0.3-0.1,0.5-0.1c0.3,0,0.5,0,0.7,0.1
		c0.2,0.1,0.4,0.2,0.5,0.3l-0.3,0.4c-0.1-0.1-0.3-0.2-0.4-0.3c-0.1-0.1-0.3-0.1-0.5-0.1s-0.4,0-0.5,0.1s-0.2,0.2-0.2,0.3
		c0,0.1,0,0.2,0,0.2s0.1,0.1,0.1,0.2c0.1,0.1,0.2,0.1,0.3,0.2c0.1,0.1,0.2,0.1,0.4,0.2c0.2,0.1,0.3,0.2,0.5,0.2
		c0.1,0.1,0.3,0.2,0.4,0.2c0.1,0.1,0.2,0.2,0.2,0.3C364.5,3.9,364.5,4.1,364.5,4.2z"/>
	<path id="XMLID_247_" class="st0" d="M369.9,5.2h-0.5l-0.7-2.5c0,0,0-0.1,0-0.1c0,0,0-0.1,0-0.1c0,0,0-0.1,0-0.1c0,0,0-0.1,0-0.1
		c0,0,0,0.1,0,0.1c0,0,0,0.1,0,0.1c0,0.1,0,0.1,0,0.1c0,0,0,0.1,0,0.1l-0.7,2.5h-0.5l-1-3.8h0.6l0.6,2.5c0,0,0,0.1,0,0.1
		s0,0.1,0,0.1s0,0.1,0,0.1c0,0,0,0.1,0,0.1c0,0,0-0.1,0-0.1c0,0,0-0.1,0-0.1c0-0.1,0-0.1,0-0.1c0,0,0-0.1,0-0.1l0.7-2.5h0.5l0.7,2.5
		c0,0,0,0.1,0,0.1c0,0,0,0.1,0,0.1c0,0.1,0,0.1,0,0.1c0,0,0,0.1,0,0.1c0,0,0-0.1,0-0.1c0,0,0-0.1,0-0.1s0-0.1,0-0.1c0,0,0-0.1,0-0.1
		l0.6-2.5h0.5L369.9,5.2z"/>
	<path id="XMLID_244_" class="st0" d="M372.2,0.4c0,0.1,0,0.2-0.1,0.3c-0.1,0.1-0.2,0.1-0.3,0.1c-0.1,0-0.2,0-0.3-0.1
		c-0.1-0.1-0.1-0.2-0.1-0.3c0-0.1,0-0.2,0.1-0.3c0.1-0.1,0.2-0.1,0.3-0.1c0.1,0,0.2,0,0.3,0.1C372.2,0.2,372.2,0.3,372.2,0.4z
		 M371.5,5.2V1.5h0.5v3.8H371.5z"/>
	<path id="XMLID_242_" class="st0" d="M373.6,1.9v2.4c0,0.2,0,0.3,0.1,0.3c0.1,0.1,0.2,0.1,0.3,0.1c0.1,0,0.2,0,0.3,0s0.2,0,0.2-0.1
		l0,0.5c-0.1,0-0.2,0.1-0.3,0.1s-0.2,0-0.4,0c-0.2,0-0.4-0.1-0.5-0.2s-0.2-0.3-0.2-0.7V1.9h-0.5V1.5h0.5V0.3l0.5-0.3v1.5h0.9v0.5
		H373.6z"/>
	<path id="XMLID_240_" class="st0" d="M377.6,5.2V3c0-0.4-0.1-0.7-0.2-0.9c-0.1-0.2-0.4-0.3-0.7-0.3c-0.3,0-0.5,0.1-0.7,0.3
		c-0.2,0.2-0.3,0.5-0.3,0.9v2.2h-0.5V0.3l0.5-0.3l0,1.9c0.1-0.2,0.3-0.3,0.4-0.4s0.4-0.1,0.6-0.1c0.2,0,0.4,0,0.5,0.1
		c0.2,0.1,0.3,0.2,0.4,0.3c0.1,0.1,0.2,0.3,0.3,0.5c0.1,0.2,0.1,0.4,0.1,0.7v2.3H377.6z"/>
	<path id="XMLID_237_" class="st0" d="M383.3,3.2c0,0.1,0,0.1,0,0.2c0,0,0,0.1,0,0.1h-2.5c0,0.4,0.1,0.7,0.3,1
		c0.2,0.2,0.4,0.4,0.7,0.4c0.2,0,0.4,0,0.6-0.1s0.3-0.2,0.5-0.3l0.3,0.4c-0.1,0.1-0.2,0.1-0.3,0.2c-0.1,0.1-0.2,0.1-0.3,0.1
		c-0.1,0-0.2,0.1-0.3,0.1c-0.1,0-0.2,0-0.4,0c-0.2,0-0.3,0-0.5-0.1c-0.2-0.1-0.3-0.2-0.5-0.3s-0.3-0.4-0.4-0.6
		c-0.1-0.3-0.1-0.6-0.1-0.9c0-0.3,0-0.6,0.1-0.8c0.1-0.2,0.2-0.4,0.3-0.6s0.3-0.3,0.5-0.4c0.2-0.1,0.4-0.1,0.6-0.1
		c0.2,0,0.5,0,0.6,0.1s0.3,0.2,0.5,0.4s0.2,0.4,0.3,0.6S383.3,3,383.3,3.2z M382.8,3.1c0-0.4-0.1-0.7-0.3-0.9
		c-0.2-0.2-0.4-0.3-0.7-0.3c-0.3,0-0.5,0.1-0.7,0.3c-0.2,0.2-0.3,0.5-0.3,0.9H382.8z"/>
	<path id="XMLID_234_" class="st0" d="M387,3.3c0,0.3,0,0.6-0.1,0.9c-0.1,0.3-0.2,0.5-0.3,0.6c-0.1,0.2-0.3,0.3-0.4,0.4
		c-0.2,0.1-0.4,0.1-0.5,0.1c-0.2,0-0.4,0-0.6-0.1c-0.2-0.1-0.3-0.2-0.4-0.4v1.5l-0.5,0.3V1.5h0.5l0,0.5c0.1-0.1,0.3-0.3,0.5-0.4
		c0.2-0.1,0.4-0.2,0.7-0.2c0.2,0,0.4,0,0.5,0.1c0.2,0.1,0.3,0.2,0.4,0.3c0.1,0.2,0.2,0.3,0.3,0.6C386.9,2.7,387,2.9,387,3.3z
		 M386.4,3.3c0-0.5-0.1-0.8-0.3-1.1c-0.2-0.2-0.4-0.4-0.7-0.4c-0.2,0-0.4,0-0.5,0.1s-0.3,0.2-0.4,0.4v1.9c0.1,0.2,0.2,0.3,0.4,0.4
		c0.2,0.1,0.4,0.2,0.6,0.2c0.3,0,0.5-0.1,0.7-0.4C386.4,4.2,386.4,3.8,386.4,3.3z"/>
	<path id="XMLID_231_" class="st0" d="M388.3,0.4c0,0.1,0,0.2-0.1,0.3c-0.1,0.1-0.2,0.1-0.3,0.1c-0.1,0-0.2,0-0.3-0.1
		c-0.1-0.1-0.1-0.2-0.1-0.3c0-0.1,0-0.2,0.1-0.3c0.1-0.1,0.2-0.1,0.3-0.1c0.1,0,0.2,0,0.3,0.1C388.2,0.2,388.3,0.3,388.3,0.4z
		 M387.6,5.2V1.5h0.5v3.8H387.6z"/>
	<path id="XMLID_229_" class="st0" d="M389.1,5.2V0.3l0.5-0.3v5.2H389.1z"/>
	<path id="XMLID_226_" class="st0" d="M393.3,3.2c0,0.1,0,0.1,0,0.2c0,0,0,0.1,0,0.1h-2.5c0,0.4,0.1,0.7,0.3,1
		c0.2,0.2,0.4,0.4,0.7,0.4c0.2,0,0.4,0,0.6-0.1s0.3-0.2,0.5-0.3l0.3,0.4c-0.1,0.1-0.2,0.1-0.3,0.2c-0.1,0.1-0.2,0.1-0.3,0.1
		c-0.1,0-0.2,0.1-0.3,0.1c-0.1,0-0.2,0-0.4,0c-0.2,0-0.3,0-0.5-0.1c-0.2-0.1-0.3-0.2-0.5-0.3s-0.3-0.4-0.4-0.6
		c-0.1-0.3-0.1-0.6-0.1-0.9c0-0.3,0-0.6,0.1-0.8c0.1-0.2,0.2-0.4,0.3-0.6s0.3-0.3,0.5-0.4c0.2-0.1,0.4-0.1,0.6-0.1
		c0.2,0,0.5,0,0.6,0.1s0.3,0.2,0.5,0.4s0.2,0.4,0.3,0.6S393.3,3,393.3,3.2z M392.8,3.1c0-0.4-0.1-0.7-0.3-0.9
		c-0.2-0.2-0.4-0.3-0.7-0.3c-0.3,0-0.5,0.1-0.7,0.3c-0.2,0.2-0.3,0.5-0.3,0.9H392.8z"/>
	<path id="XMLID_223_" class="st0" d="M397,3.3c0,0.3,0,0.6-0.1,0.9c-0.1,0.3-0.2,0.5-0.3,0.6c-0.1,0.2-0.3,0.3-0.4,0.4
		c-0.2,0.1-0.4,0.1-0.5,0.1c-0.2,0-0.4,0-0.6-0.1c-0.2-0.1-0.3-0.2-0.4-0.4v1.5L394,6.6V1.5h0.5l0,0.5c0.1-0.1,0.3-0.3,0.5-0.4
		c0.2-0.1,0.4-0.2,0.7-0.2c0.2,0,0.4,0,0.5,0.1c0.2,0.1,0.3,0.2,0.4,0.3c0.1,0.2,0.2,0.3,0.3,0.6C396.9,2.7,397,2.9,397,3.3z
		 M396.5,3.3c0-0.5-0.1-0.8-0.3-1.1c-0.2-0.2-0.4-0.4-0.7-0.4c-0.2,0-0.4,0-0.5,0.1s-0.3,0.2-0.4,0.4v1.9c0.1,0.2,0.2,0.3,0.4,0.4
		c0.2,0.1,0.4,0.2,0.6,0.2c0.3,0,0.5-0.1,0.7-0.4C396.4,4.2,396.5,3.8,396.5,3.3z"/>
	<path id="XMLID_221_" class="st0" d="M399.9,4.2c0,0.2,0,0.3-0.1,0.5c-0.1,0.1-0.2,0.2-0.3,0.3c-0.1,0.1-0.3,0.1-0.4,0.2
		c-0.2,0-0.3,0.1-0.5,0.1c-0.3,0-0.5,0-0.7-0.1c-0.2-0.1-0.4-0.2-0.6-0.3l0.3-0.4c0.2,0.1,0.3,0.2,0.5,0.3c0.2,0.1,0.4,0.1,0.5,0.1
		c0.3,0,0.4-0.1,0.6-0.2s0.2-0.2,0.2-0.4c0-0.1,0-0.1,0-0.2c0-0.1-0.1-0.1-0.2-0.2c-0.1-0.1-0.2-0.1-0.3-0.2
		c-0.1-0.1-0.3-0.1-0.4-0.2c-0.2-0.1-0.3-0.2-0.5-0.2c-0.1-0.1-0.2-0.2-0.3-0.2c-0.1-0.1-0.1-0.2-0.2-0.3c0-0.1-0.1-0.2-0.1-0.4
		c0-0.1,0-0.3,0.1-0.4c0.1-0.1,0.1-0.2,0.2-0.3c0.1-0.1,0.2-0.2,0.4-0.2c0.1,0,0.3-0.1,0.5-0.1c0.3,0,0.5,0,0.7,0.1
		c0.2,0.1,0.4,0.2,0.5,0.3l-0.3,0.4c-0.1-0.1-0.3-0.2-0.4-0.3c-0.1-0.1-0.3-0.1-0.5-0.1s-0.4,0-0.5,0.1S398,2.2,398,2.3
		c0,0.1,0,0.2,0,0.2s0.1,0.1,0.1,0.2c0.1,0.1,0.2,0.1,0.3,0.2c0.1,0.1,0.2,0.1,0.4,0.2c0.2,0.1,0.3,0.2,0.5,0.2
		c0.1,0.1,0.3,0.2,0.4,0.2c0.1,0.1,0.2,0.2,0.2,0.3C399.9,3.9,399.9,4.1,399.9,4.2z"/>
	<path id="XMLID_219_" class="st0" d="M401.6,6.5h-0.5l0.5-1.4l-1.3-3.7h0.6l0.9,2.7l0.1,0.4l0.1-0.4l0.9-2.7h0.6L401.6,6.5z"/>
	<path id="XMLID_216_" class="st0" d="M404.8,1.9c0,0.1,0,0.2-0.1,0.3c-0.1,0.1-0.2,0.1-0.3,0.1s-0.2,0-0.3-0.1
		c-0.1-0.1-0.1-0.2-0.1-0.3c0-0.1,0-0.2,0.1-0.3c0.1-0.1,0.2-0.1,0.3-0.1s0.2,0,0.3,0.1C404.7,1.6,404.8,1.7,404.8,1.9z M404.8,4.8
		c0,0.1,0,0.2-0.1,0.3c-0.1,0.1-0.2,0.1-0.3,0.1s-0.2,0-0.3-0.1c-0.1-0.1-0.1-0.2-0.1-0.3s0-0.2,0.1-0.3c0.1-0.1,0.2-0.1,0.3-0.1
		s0.2,0,0.3,0.1C404.7,4.6,404.8,4.7,404.8,4.8z"/>
	<path id="XMLID_213_" class="st0" d="M410.2,5.2l-0.4-1.3h-2.1l-0.4,1.3h-0.6l1.7-5h0.6l1.7,5H410.2z M409,1.8
		c0-0.1-0.1-0.2-0.1-0.3c0-0.1-0.1-0.2-0.1-0.3c0-0.1-0.1-0.2-0.1-0.3s0-0.1-0.1-0.2c0,0.1,0,0.1-0.1,0.2c0,0.1,0,0.2-0.1,0.3
		c0,0.1-0.1,0.2-0.1,0.3s-0.1,0.2-0.1,0.3l-0.6,1.6h1.7L409,1.8z"/>
	<path id="XMLID_210_" class="st0" d="M415.2,5.2V4.8c-0.1,0.1-0.3,0.3-0.5,0.4c-0.2,0.1-0.4,0.2-0.7,0.2c-0.2,0-0.4,0-0.5-0.1
		c-0.2-0.1-0.3-0.2-0.4-0.3c-0.1-0.2-0.2-0.3-0.3-0.6c-0.1-0.2-0.1-0.5-0.1-0.9c0-0.3,0-0.6,0.1-0.9c0.1-0.3,0.2-0.5,0.3-0.6
		s0.3-0.3,0.5-0.4s0.4-0.1,0.6-0.1c0.2,0,0.4,0,0.6,0.1s0.3,0.2,0.5,0.4V0.3l0.5-0.3v5.2H415.2z M415.2,2.4
		c-0.1-0.2-0.2-0.3-0.4-0.4c-0.2-0.1-0.4-0.2-0.6-0.2c-0.3,0-0.5,0.1-0.7,0.4c-0.2,0.3-0.2,0.6-0.2,1.2c0,0.5,0.1,0.8,0.3,1.1
		c0.2,0.2,0.4,0.4,0.7,0.4c0.2,0,0.4,0,0.5-0.1c0.2-0.1,0.3-0.2,0.4-0.4V2.4z"/>
	<path id="XMLID_207_" class="st0" d="M419.6,3.3c0,0.3,0,0.6-0.1,0.8s-0.2,0.5-0.4,0.6c-0.1,0.2-0.3,0.3-0.5,0.4
		c-0.2,0.1-0.4,0.1-0.6,0.1s-0.4,0-0.6-0.1s-0.4-0.2-0.5-0.4s-0.3-0.4-0.3-0.6c-0.1-0.2-0.1-0.5-0.1-0.8c0-0.3,0-0.6,0.1-0.8
		s0.2-0.4,0.4-0.6c0.1-0.2,0.3-0.3,0.5-0.4c0.2-0.1,0.4-0.1,0.6-0.1s0.4,0,0.6,0.1s0.4,0.2,0.5,0.4s0.3,0.4,0.3,0.6
		S419.6,3,419.6,3.3z M419.1,3.3c0-0.5-0.1-0.9-0.3-1.1c-0.2-0.2-0.5-0.4-0.8-0.4s-0.6,0.1-0.8,0.4c-0.2,0.2-0.3,0.6-0.3,1.1
		c0,0.5,0.1,0.9,0.3,1.1c0.2,0.3,0.5,0.4,0.8,0.4s0.6-0.1,0.8-0.4C419,4.2,419.1,3.8,419.1,3.3z"/>
	<path id="XMLID_205_" class="st0" d="M422.6,5.2V4.8c-0.1,0.2-0.3,0.3-0.4,0.4c-0.2,0.1-0.4,0.2-0.6,0.2c-0.2,0-0.4,0-0.5-0.1
		s-0.3-0.2-0.4-0.3s-0.2-0.3-0.3-0.5c-0.1-0.2-0.1-0.4-0.1-0.7V1.5h0.5v2.2c0,0.4,0.1,0.7,0.2,0.9c0.1,0.2,0.4,0.3,0.7,0.3
		c0.3,0,0.5-0.1,0.7-0.3c0.2-0.2,0.3-0.5,0.3-0.9V1.5h0.5v3.8H422.6z"/>
	<path id="XMLID_202_" class="st0" d="M426.9,3.3c0,0.3,0,0.6-0.1,0.9c-0.1,0.3-0.2,0.5-0.3,0.6c-0.1,0.2-0.3,0.3-0.4,0.4
		c-0.2,0.1-0.4,0.1-0.5,0.1c-0.2,0-0.4,0-0.6-0.1c-0.2-0.1-0.3-0.2-0.4-0.4v0.4h-0.5V0.3l0.5-0.3l0,1.9c0.1-0.1,0.3-0.3,0.5-0.4
		c0.2-0.1,0.4-0.2,0.7-0.2c0.2,0,0.4,0,0.5,0.1c0.2,0.1,0.3,0.2,0.4,0.3c0.1,0.2,0.2,0.3,0.3,0.6C426.9,2.7,426.9,2.9,426.9,3.3z
		 M426.4,3.3c0-0.5-0.1-0.8-0.3-1.1c-0.2-0.2-0.4-0.4-0.7-0.4c-0.2,0-0.4,0-0.5,0.1s-0.3,0.2-0.4,0.4v1.9c0.1,0.2,0.2,0.3,0.4,0.4
		c0.2,0.1,0.4,0.2,0.6,0.2c0.3,0,0.5-0.1,0.7-0.4C426.3,4.2,426.4,3.8,426.4,3.3z"/>
	<path id="XMLID_200_" class="st0" d="M427.6,5.2V0.3l0.5-0.3v5.2H427.6z"/>
	<path id="XMLID_197_" class="st0" d="M431.9,3.2c0,0.1,0,0.1,0,0.2c0,0,0,0.1,0,0.1h-2.5c0,0.4,0.1,0.7,0.3,1
		c0.2,0.2,0.4,0.4,0.7,0.4c0.2,0,0.4,0,0.6-0.1s0.3-0.2,0.5-0.3l0.3,0.4c-0.1,0.1-0.2,0.1-0.3,0.2c-0.1,0.1-0.2,0.1-0.3,0.1
		c-0.1,0-0.2,0.1-0.3,0.1c-0.1,0-0.2,0-0.4,0c-0.2,0-0.3,0-0.5-0.1c-0.2-0.1-0.3-0.2-0.5-0.3s-0.3-0.4-0.4-0.6
		c-0.1-0.3-0.1-0.6-0.1-0.9c0-0.3,0-0.6,0.1-0.8c0.1-0.2,0.2-0.4,0.3-0.6s0.3-0.3,0.5-0.4c0.2-0.1,0.4-0.1,0.6-0.1
		c0.2,0,0.5,0,0.6,0.1s0.3,0.2,0.5,0.4s0.2,0.4,0.3,0.6S431.9,3,431.9,3.2z M431.4,3.1c0-0.4-0.1-0.7-0.3-0.9
		c-0.2-0.2-0.4-0.3-0.7-0.3c-0.3,0-0.5,0.1-0.7,0.3c-0.2,0.2-0.3,0.5-0.3,0.9H431.4z"/>
	<path id="XMLID_195_" class="st0" d="M432.3,2.9V2.3h1.6v0.5H432.3z"/>
	<path id="XMLID_192_" class="st0" d="M437.5,3.3c0,0.3,0,0.6-0.1,0.9c-0.1,0.3-0.2,0.5-0.3,0.6c-0.1,0.2-0.3,0.3-0.4,0.4
		c-0.2,0.1-0.4,0.1-0.5,0.1c-0.2,0-0.4,0-0.6-0.1c-0.2-0.1-0.3-0.2-0.4-0.4v0.4h-0.5V0.3L435,0l0,1.9c0.1-0.1,0.3-0.3,0.5-0.4
		c0.2-0.1,0.4-0.2,0.7-0.2c0.2,0,0.4,0,0.5,0.1c0.2,0.1,0.3,0.2,0.4,0.3c0.1,0.2,0.2,0.3,0.3,0.6C437.4,2.7,437.5,2.9,437.5,3.3z
		 M436.9,3.3c0-0.5-0.1-0.8-0.3-1.1c-0.2-0.2-0.4-0.4-0.7-0.4c-0.2,0-0.4,0-0.5,0.1s-0.3,0.2-0.4,0.4v1.9c0.1,0.2,0.2,0.3,0.4,0.4
		c0.2,0.1,0.4,0.2,0.6,0.2c0.3,0,0.5-0.1,0.7-0.4C436.9,4.2,436.9,3.8,436.9,3.3z"/>
	<path id="XMLID_190_" class="st0" d="M438.1,5.2V0.3l0.5-0.3v5.2H438.1z"/>
	<path id="XMLID_187_" class="st0" d="M440.2,0.4c0,0.1,0,0.2-0.1,0.3c-0.1,0.1-0.2,0.1-0.3,0.1c-0.1,0-0.2,0-0.3-0.1
		c-0.1-0.1-0.1-0.2-0.1-0.3c0-0.1,0-0.2,0.1-0.3c0.1-0.1,0.2-0.1,0.3-0.1c0.1,0,0.2,0,0.3,0.1C440.2,0.2,440.2,0.3,440.2,0.4z
		 M439.6,5.2V1.5h0.5v3.8H439.6z"/>
	<path id="XMLID_185_" class="st0" d="M443.3,5.2V3c0-0.4-0.1-0.7-0.2-0.9c-0.1-0.2-0.4-0.3-0.7-0.3c-0.3,0-0.5,0.1-0.7,0.3
		c-0.2,0.2-0.3,0.5-0.3,0.9v2.2H441V1.5h0.5l0,0.5c0.1-0.2,0.3-0.3,0.4-0.4s0.4-0.1,0.6-0.1c0.2,0,0.4,0,0.5,0.1
		c0.2,0.1,0.3,0.2,0.4,0.3c0.1,0.1,0.2,0.3,0.3,0.5c0.1,0.2,0.1,0.4,0.1,0.7v2.3H443.3z"/>
	<path id="XMLID_181_" class="st0" d="M446.9,5.2V4.8c-0.1,0.1-0.3,0.3-0.5,0.4c-0.2,0.1-0.4,0.2-0.7,0.2c-0.2,0-0.4,0-0.5-0.1
		c-0.2-0.1-0.3-0.2-0.4-0.3c-0.1-0.2-0.2-0.3-0.3-0.6c-0.1-0.2-0.1-0.5-0.1-0.9c0-0.3,0-0.6,0.1-0.9c0.1-0.3,0.2-0.5,0.3-0.6
		s0.3-0.3,0.5-0.4s0.4-0.1,0.6-0.1c0.2,0,0.4,0,0.6,0.1s0.3,0.2,0.5,0.4V0.3l0.5-0.3v5.2H446.9z M446.9,2.4
		c-0.1-0.2-0.2-0.3-0.4-0.4c-0.2-0.1-0.4-0.2-0.6-0.2c-0.3,0-0.5,0.1-0.7,0.4c-0.2,0.3-0.2,0.6-0.2,1.2c0,0.5,0.1,0.8,0.3,1.1
		c0.2,0.2,0.4,0.4,0.7,0.4c0.2,0,0.4,0,0.5-0.1c0.2-0.1,0.3-0.2,0.4-0.4V2.4z"/>
	<path id="XMLID_179_" class="st0" d="M448.5,6.1h-0.4l0.1-1.7h0.7L448.5,6.1z"/>
	<path id="XMLID_177_" class="st0" d="M453.1,2c-0.1,0-0.2-0.1-0.2-0.1c-0.1,0-0.2,0-0.3,0c-0.3,0-0.5,0.1-0.6,0.3s-0.2,0.5-0.2,0.8
		v2.2h-0.5V1.5h0.5v0.5c0.1-0.2,0.2-0.3,0.4-0.4s0.4-0.2,0.6-0.2c0.1,0,0.3,0,0.3,0s0.2,0,0.2,0.1L453.1,2z"/>
	<path id="XMLID_174_" class="st0" d="M455.9,5.2V4.8c-0.1,0.1-0.3,0.3-0.5,0.4c-0.2,0.1-0.4,0.2-0.7,0.2c-0.1,0-0.3,0-0.4-0.1
		c-0.1,0-0.3-0.1-0.4-0.2c-0.1-0.1-0.2-0.2-0.3-0.4s-0.1-0.3-0.1-0.6c0-0.2,0-0.4,0.1-0.5c0.1-0.2,0.2-0.3,0.3-0.4
		c0.1-0.1,0.3-0.2,0.5-0.2s0.4-0.1,0.5-0.1c0.2,0,0.4,0,0.5,0.1s0.3,0.1,0.4,0.2V2.7c0-0.5-0.3-0.8-0.8-0.8c-0.2,0-0.4,0-0.5,0.1
		S454.2,2,454,2.1l-0.2-0.4c0.2-0.1,0.4-0.2,0.6-0.2c0.2-0.1,0.4-0.1,0.7-0.1c0.4,0,0.7,0.1,1,0.3c0.2,0.2,0.4,0.5,0.4,0.9v2.6
		H455.9z M455.9,3.5c-0.1-0.1-0.3-0.1-0.4-0.2c-0.1,0-0.3-0.1-0.6-0.1c-0.3,0-0.5,0.1-0.6,0.2S454,3.8,454,4.1
		c0,0.3,0.1,0.5,0.2,0.6c0.1,0.1,0.3,0.2,0.6,0.2c0.2,0,0.5-0.1,0.6-0.2c0.2-0.1,0.3-0.2,0.4-0.4V3.5z"/>
	<path id="XMLID_172_" class="st0" d="M459.6,5.2V3c0-0.4-0.1-0.7-0.2-0.9c-0.1-0.2-0.4-0.3-0.7-0.3c-0.3,0-0.5,0.1-0.7,0.3
		c-0.2,0.2-0.3,0.5-0.3,0.9v2.2h-0.5V1.5h0.5l0,0.5c0.1-0.2,0.3-0.3,0.4-0.4s0.4-0.1,0.6-0.1c0.2,0,0.4,0,0.5,0.1
		c0.2,0.1,0.3,0.2,0.4,0.3c0.1,0.1,0.2,0.3,0.3,0.5c0.1,0.2,0.1,0.4,0.1,0.7v2.3H459.6z"/>
	<path id="XMLID_169_" class="st0" d="M463.2,5.2V4.8c-0.1,0.1-0.3,0.3-0.5,0.4c-0.2,0.1-0.4,0.2-0.7,0.2c-0.2,0-0.4,0-0.5-0.1
		c-0.2-0.1-0.3-0.2-0.4-0.3c-0.1-0.2-0.2-0.3-0.3-0.6c-0.1-0.2-0.1-0.5-0.1-0.9c0-0.3,0-0.6,0.1-0.9c0.1-0.3,0.2-0.5,0.3-0.6
		s0.3-0.3,0.5-0.4s0.4-0.1,0.6-0.1c0.2,0,0.4,0,0.6,0.1s0.3,0.2,0.5,0.4V0.3l0.5-0.3v5.2H463.2z M463.2,2.4
		c-0.1-0.2-0.2-0.3-0.4-0.4c-0.2-0.1-0.4-0.2-0.6-0.2c-0.3,0-0.5,0.1-0.7,0.4c-0.2,0.3-0.2,0.6-0.2,1.2c0,0.5,0.1,0.8,0.3,1.1
		c0.2,0.2,0.4,0.4,0.7,0.4c0.2,0,0.4,0,0.5-0.1c0.2-0.1,0.3-0.2,0.4-0.4V2.4z"/>
	<path id="XMLID_166_" class="st0" d="M467.6,3.3c0,0.3,0,0.6-0.1,0.8s-0.2,0.5-0.4,0.6c-0.1,0.2-0.3,0.3-0.5,0.4
		c-0.2,0.1-0.4,0.1-0.6,0.1s-0.4,0-0.6-0.1S465,5,464.8,4.8s-0.3-0.4-0.3-0.6c-0.1-0.2-0.1-0.5-0.1-0.8c0-0.3,0-0.6,0.1-0.8
		s0.2-0.4,0.4-0.6c0.1-0.2,0.3-0.3,0.5-0.4c0.2-0.1,0.4-0.1,0.6-0.1s0.4,0,0.6,0.1s0.4,0.2,0.5,0.4s0.3,0.4,0.3,0.6
		S467.6,3,467.6,3.3z M467.1,3.3c0-0.5-0.1-0.9-0.3-1.1c-0.2-0.2-0.5-0.4-0.8-0.4s-0.6,0.1-0.8,0.4c-0.2,0.2-0.3,0.6-0.3,1.1
		c0,0.5,0.1,0.9,0.3,1.1c0.2,0.3,0.5,0.4,0.8,0.4s0.6-0.1,0.8-0.4C467,4.2,467.1,3.8,467.1,3.3z"/>
	<path id="XMLID_164_" class="st0" d="M472.6,5.2V3c0-0.4-0.1-0.7-0.2-0.9s-0.3-0.3-0.6-0.3c-0.3,0-0.5,0.1-0.6,0.3
		C471.1,2.3,471,2.6,471,3v2.2h-0.5V3c0-0.4-0.1-0.7-0.2-0.9s-0.3-0.3-0.6-0.3c-0.3,0-0.5,0.1-0.6,0.3c-0.1,0.2-0.2,0.5-0.2,0.9v2.2
		h-0.5V1.5h0.5l0,0.5c0.1-0.2,0.2-0.3,0.4-0.4c0.2-0.1,0.3-0.1,0.6-0.1c0.3,0,0.5,0.1,0.6,0.2c0.2,0.1,0.3,0.3,0.4,0.5
		c0.1-0.1,0.1-0.2,0.2-0.3c0.1-0.1,0.1-0.1,0.2-0.2c0.1-0.1,0.2-0.1,0.3-0.1c0.1,0,0.3,0,0.4,0c0.4,0,0.7,0.1,0.9,0.4
		c0.2,0.2,0.3,0.6,0.3,1.2v2.3H472.6z"/>
	<path id="XMLID_161_" class="st0" d="M474.6,0.4c0,0.1,0,0.2-0.1,0.3c-0.1,0.1-0.2,0.1-0.3,0.1c-0.1,0-0.2,0-0.3-0.1
		c-0.1-0.1-0.1-0.2-0.1-0.3c0-0.1,0-0.2,0.1-0.3c0.1-0.1,0.2-0.1,0.3-0.1c0.1,0,0.2,0,0.3,0.1C474.6,0.2,474.6,0.3,474.6,0.4z
		 M474,5.2V1.5h0.5v3.8H474z"/>
	<path id="XMLID_159_" class="st0" d="M475.2,5.2V4.8l2.1-2.9h-1.9V1.5h2.5v0.4l-2.1,2.9h2.1v0.5H475.2z"/>
	<path id="XMLID_156_" class="st0" d="M481.4,3.2c0,0.1,0,0.1,0,0.2c0,0,0,0.1,0,0.1h-2.5c0,0.4,0.1,0.7,0.3,1
		c0.2,0.2,0.4,0.4,0.7,0.4c0.2,0,0.4,0,0.6-0.1s0.3-0.2,0.5-0.3l0.3,0.4c-0.1,0.1-0.2,0.1-0.3,0.2c-0.1,0.1-0.2,0.1-0.3,0.1
		c-0.1,0-0.2,0.1-0.3,0.1c-0.1,0-0.2,0-0.4,0c-0.2,0-0.3,0-0.5-0.1c-0.2-0.1-0.3-0.2-0.5-0.3s-0.3-0.4-0.4-0.6
		c-0.1-0.3-0.1-0.6-0.1-0.9c0-0.3,0-0.6,0.1-0.8c0.1-0.2,0.2-0.4,0.3-0.6s0.3-0.3,0.5-0.4c0.2-0.1,0.4-0.1,0.6-0.1
		c0.2,0,0.5,0,0.6,0.1s0.3,0.2,0.5,0.4s0.2,0.4,0.3,0.6S481.4,3,481.4,3.2z M480.9,3.1c0-0.4-0.1-0.7-0.3-0.9
		c-0.2-0.2-0.4-0.3-0.7-0.3c-0.3,0-0.5,0.1-0.7,0.3c-0.2,0.2-0.3,0.5-0.3,0.9H480.9z"/>
	<path id="XMLID_153_" class="st0" d="M484.3,5.2V4.8c-0.1,0.1-0.3,0.3-0.5,0.4c-0.2,0.1-0.4,0.2-0.7,0.2c-0.2,0-0.4,0-0.5-0.1
		c-0.2-0.1-0.3-0.2-0.4-0.3c-0.1-0.2-0.2-0.3-0.3-0.6c-0.1-0.2-0.1-0.5-0.1-0.9c0-0.3,0-0.6,0.1-0.9c0.1-0.3,0.2-0.5,0.3-0.6
		s0.3-0.3,0.5-0.4s0.4-0.1,0.6-0.1c0.2,0,0.4,0,0.6,0.1s0.3,0.2,0.5,0.4V0.3l0.5-0.3v5.2H484.3z M484.3,2.4
		c-0.1-0.2-0.2-0.3-0.4-0.4c-0.2-0.1-0.4-0.2-0.6-0.2c-0.3,0-0.5,0.1-0.7,0.4c-0.2,0.3-0.2,0.6-0.2,1.2c0,0.5,0.1,0.8,0.3,1.1
		c0.2,0.2,0.4,0.4,0.7,0.4c0.2,0,0.4,0,0.5-0.1c0.2-0.1,0.3-0.2,0.4-0.4V2.4z"/>
	<path id="XMLID_151_" class="st0" d="M485.9,6.1h-0.4l0.1-1.7h0.7L485.9,6.1z"/>
	<path id="XMLID_148_" class="st0" d="M491.6,3.3c0,0.3,0,0.6-0.1,0.9c-0.1,0.3-0.2,0.5-0.3,0.6c-0.1,0.2-0.3,0.3-0.4,0.4
		c-0.2,0.1-0.4,0.1-0.5,0.1c-0.2,0-0.4,0-0.6-0.1c-0.2-0.1-0.3-0.2-0.4-0.4v1.5l-0.5,0.3V1.5h0.5l0,0.5c0.1-0.1,0.3-0.3,0.5-0.4
		c0.2-0.1,0.4-0.2,0.7-0.2c0.2,0,0.4,0,0.5,0.1c0.2,0.1,0.3,0.2,0.4,0.3c0.1,0.2,0.2,0.3,0.3,0.6C491.5,2.7,491.6,2.9,491.6,3.3z
		 M491,3.3c0-0.5-0.1-0.8-0.3-1.1c-0.2-0.2-0.4-0.4-0.7-0.4c-0.2,0-0.4,0-0.5,0.1s-0.3,0.2-0.4,0.4v1.9c0.1,0.2,0.2,0.3,0.4,0.4
		c0.2,0.1,0.4,0.2,0.6,0.2c0.3,0,0.5-0.1,0.7-0.4C491,4.2,491,3.8,491,3.3z"/>
	<path id="XMLID_146_" class="st0" d="M492.2,5.2V0.3l0.5-0.3v5.2H492.2z"/>
	<path id="XMLID_143_" class="st0" d="M495.8,5.2V4.8c-0.1,0.1-0.3,0.3-0.5,0.4c-0.2,0.1-0.4,0.2-0.7,0.2c-0.1,0-0.3,0-0.4-0.1
		c-0.1,0-0.3-0.1-0.4-0.2c-0.1-0.1-0.2-0.2-0.3-0.4s-0.1-0.3-0.1-0.6c0-0.2,0-0.4,0.1-0.5c0.1-0.2,0.2-0.3,0.3-0.4
		c0.1-0.1,0.3-0.2,0.5-0.2s0.4-0.1,0.5-0.1c0.2,0,0.4,0,0.5,0.1s0.3,0.1,0.4,0.2V2.7c0-0.5-0.3-0.8-0.8-0.8c-0.2,0-0.4,0-0.5,0.1
		S494.1,2,494,2.1l-0.2-0.4c0.2-0.1,0.4-0.2,0.6-0.2c0.2-0.1,0.4-0.1,0.7-0.1c0.4,0,0.7,0.1,1,0.3c0.2,0.2,0.4,0.5,0.4,0.9v2.6
		H495.8z M495.8,3.5c-0.1-0.1-0.3-0.1-0.4-0.2c-0.1,0-0.3-0.1-0.6-0.1c-0.3,0-0.5,0.1-0.6,0.2S494,3.8,494,4.1
		c0,0.3,0.1,0.5,0.2,0.6c0.1,0.1,0.3,0.2,0.6,0.2c0.2,0,0.5-0.1,0.6-0.2c0.2-0.1,0.3-0.2,0.4-0.4V3.5z"/>
	<path id="XMLID_141_" class="st0" d="M499.4,2.2c-0.1-0.1-0.3-0.2-0.4-0.3c-0.1-0.1-0.3-0.1-0.5-0.1c-0.1,0-0.3,0-0.4,0.1
		c-0.1,0.1-0.2,0.2-0.3,0.3c-0.1,0.1-0.2,0.3-0.2,0.5s-0.1,0.4-0.1,0.6c0,0.5,0.1,0.8,0.3,1.1c0.2,0.3,0.4,0.4,0.8,0.4
		c0.2,0,0.3,0,0.5-0.1c0.1-0.1,0.3-0.2,0.4-0.3l0.3,0.3c-0.2,0.2-0.3,0.3-0.5,0.4c-0.2,0.1-0.4,0.1-0.7,0.1c-0.2,0-0.4,0-0.6-0.1
		c-0.2-0.1-0.4-0.2-0.5-0.4s-0.3-0.4-0.4-0.6c-0.1-0.2-0.1-0.5-0.1-0.9c0-0.3,0-0.6,0.1-0.9c0.1-0.2,0.2-0.5,0.4-0.6
		c0.2-0.2,0.3-0.3,0.5-0.4c0.2-0.1,0.4-0.1,0.6-0.1c0.3,0,0.5,0,0.7,0.1c0.2,0.1,0.4,0.2,0.5,0.3L499.4,2.2z"/>
	<path id="XMLID_138_" class="st0" d="M503.2,3.2c0,0.1,0,0.1,0,0.2c0,0,0,0.1,0,0.1h-2.5c0,0.4,0.1,0.7,0.3,1
		c0.2,0.2,0.4,0.4,0.7,0.4c0.2,0,0.4,0,0.6-0.1s0.3-0.2,0.5-0.3l0.3,0.4c-0.1,0.1-0.2,0.1-0.3,0.2c-0.1,0.1-0.2,0.1-0.3,0.1
		c-0.1,0-0.2,0.1-0.3,0.1c-0.1,0-0.2,0-0.4,0c-0.2,0-0.3,0-0.5-0.1c-0.2-0.1-0.3-0.2-0.5-0.3s-0.3-0.4-0.4-0.6
		c-0.1-0.3-0.1-0.6-0.1-0.9c0-0.3,0-0.6,0.1-0.8c0.1-0.2,0.2-0.4,0.3-0.6s0.3-0.3,0.5-0.4c0.2-0.1,0.4-0.1,0.6-0.1
		c0.2,0,0.5,0,0.6,0.1s0.3,0.2,0.5,0.4s0.2,0.4,0.3,0.6S503.2,3,503.2,3.2z M502.7,3.1c0-0.4-0.1-0.7-0.3-0.9
		c-0.2-0.2-0.4-0.3-0.7-0.3c-0.3,0-0.5,0.1-0.7,0.3c-0.2,0.2-0.3,0.5-0.3,0.9H502.7z"/>
	<path id="XMLID_135_" class="st0" d="M506.8,3.3c0,0.3,0,0.6-0.1,0.9c-0.1,0.3-0.2,0.5-0.3,0.6c-0.1,0.2-0.3,0.3-0.4,0.4
		c-0.2,0.1-0.4,0.1-0.5,0.1c-0.2,0-0.4,0-0.6-0.1c-0.2-0.1-0.3-0.2-0.4-0.4v0.4h-0.5V0.3l0.5-0.3l0,1.9c0.1-0.1,0.3-0.3,0.5-0.4
		c0.2-0.1,0.4-0.2,0.7-0.2c0.2,0,0.4,0,0.5,0.1c0.2,0.1,0.3,0.2,0.4,0.3c0.1,0.2,0.2,0.3,0.3,0.6C506.8,2.7,506.8,2.9,506.8,3.3z
		 M506.3,3.3c0-0.5-0.1-0.8-0.3-1.1c-0.2-0.2-0.4-0.4-0.7-0.4c-0.2,0-0.4,0-0.5,0.1s-0.3,0.2-0.4,0.4v1.9c0.1,0.2,0.2,0.3,0.4,0.4
		c0.2,0.1,0.4,0.2,0.6,0.2c0.3,0,0.5-0.1,0.7-0.4C506.2,4.2,506.3,3.8,506.3,3.3z"/>
	<path id="XMLID_132_" class="st0" d="M510.5,3.3c0,0.3,0,0.6-0.1,0.8s-0.2,0.5-0.4,0.6c-0.1,0.2-0.3,0.3-0.5,0.4
		c-0.2,0.1-0.4,0.1-0.6,0.1s-0.4,0-0.6-0.1s-0.4-0.2-0.5-0.4s-0.3-0.4-0.3-0.6c-0.1-0.2-0.1-0.5-0.1-0.8c0-0.3,0-0.6,0.1-0.8
		s0.2-0.4,0.4-0.6c0.1-0.2,0.3-0.3,0.5-0.4c0.2-0.1,0.4-0.1,0.6-0.1s0.4,0,0.6,0.1s0.4,0.2,0.5,0.4s0.3,0.4,0.3,0.6
		S510.5,3,510.5,3.3z M510,3.3c0-0.5-0.1-0.9-0.3-1.1c-0.2-0.2-0.5-0.4-0.8-0.4s-0.6,0.1-0.8,0.4c-0.2,0.2-0.3,0.6-0.3,1.1
		c0,0.5,0.1,0.9,0.3,1.1c0.2,0.3,0.5,0.4,0.8,0.4s0.6-0.1,0.8-0.4C509.9,4.2,510,3.8,510,3.3z"/>
	<path id="XMLID_130_" class="st0" d="M510.9,2.9V2.3h1.6v0.5H510.9z"/>
	<path id="XMLID_128_" class="st0" d="M515.4,2.2c-0.1-0.1-0.3-0.2-0.4-0.3c-0.1-0.1-0.3-0.1-0.5-0.1c-0.1,0-0.3,0-0.4,0.1
		c-0.1,0.1-0.2,0.2-0.3,0.3c-0.1,0.1-0.2,0.3-0.2,0.5s-0.1,0.4-0.1,0.6c0,0.5,0.1,0.8,0.3,1.1c0.2,0.3,0.4,0.4,0.8,0.4
		c0.2,0,0.3,0,0.5-0.1c0.1-0.1,0.3-0.2,0.4-0.3l0.3,0.3c-0.2,0.2-0.3,0.3-0.5,0.4c-0.2,0.1-0.4,0.1-0.7,0.1c-0.2,0-0.4,0-0.6-0.1
		c-0.2-0.1-0.4-0.2-0.5-0.4s-0.3-0.4-0.4-0.6c-0.1-0.2-0.1-0.5-0.1-0.9c0-0.3,0-0.6,0.1-0.9c0.1-0.2,0.2-0.5,0.4-0.6
		c0.2-0.2,0.3-0.3,0.5-0.4c0.2-0.1,0.4-0.1,0.6-0.1c0.3,0,0.5,0,0.7,0.1c0.2,0.1,0.4,0.2,0.5,0.3L515.4,2.2z"/>
	<path id="XMLID_125_" class="st0" d="M519.4,3.3c0,0.3,0,0.6-0.1,0.8s-0.2,0.5-0.4,0.6c-0.1,0.2-0.3,0.3-0.5,0.4
		c-0.2,0.1-0.4,0.1-0.6,0.1s-0.4,0-0.6-0.1s-0.4-0.2-0.5-0.4s-0.3-0.4-0.3-0.6c-0.1-0.2-0.1-0.5-0.1-0.8c0-0.3,0-0.6,0.1-0.8
		s0.2-0.4,0.4-0.6c0.1-0.2,0.3-0.3,0.5-0.4c0.2-0.1,0.4-0.1,0.6-0.1s0.4,0,0.6,0.1s0.4,0.2,0.5,0.4s0.3,0.4,0.3,0.6
		S519.4,3,519.4,3.3z M518.8,3.3c0-0.5-0.1-0.9-0.3-1.1c-0.2-0.2-0.5-0.4-0.8-0.4s-0.6,0.1-0.8,0.4c-0.2,0.2-0.3,0.6-0.3,1.1
		c0,0.5,0.1,0.9,0.3,1.1c0.2,0.3,0.5,0.4,0.8,0.4s0.6-0.1,0.8-0.4C518.7,4.2,518.8,3.8,518.8,3.3z"/>
	<path id="XMLID_123_" class="st0" d="M522.3,5.2V3c0-0.4-0.1-0.7-0.2-0.9c-0.1-0.2-0.4-0.3-0.7-0.3c-0.3,0-0.5,0.1-0.7,0.3
		c-0.2,0.2-0.3,0.5-0.3,0.9v2.2H520V1.5h0.5l0,0.5c0.1-0.2,0.3-0.3,0.4-0.4s0.4-0.1,0.6-0.1c0.2,0,0.4,0,0.5,0.1
		c0.2,0.1,0.3,0.2,0.4,0.3c0.1,0.1,0.2,0.3,0.3,0.5c0.1,0.2,0.1,0.4,0.1,0.7v2.3H522.3z"/>
	<path id="XMLID_121_" class="st0" d="M524.4,1.9v2.4c0,0.2,0,0.3,0.1,0.3c0.1,0.1,0.2,0.1,0.3,0.1c0.1,0,0.2,0,0.3,0s0.2,0,0.2-0.1
		l0,0.5c-0.1,0-0.2,0.1-0.3,0.1s-0.2,0-0.4,0c-0.2,0-0.4-0.1-0.5-0.2s-0.2-0.3-0.2-0.7V1.9h-0.5V1.5h0.5V0.3l0.5-0.3v1.5h0.9v0.5
		H524.4z"/>
	<path id="XMLID_119_" class="st0" d="M527.9,2c-0.1,0-0.2-0.1-0.2-0.1c-0.1,0-0.2,0-0.3,0c-0.3,0-0.5,0.1-0.6,0.3s-0.2,0.5-0.2,0.8
		v2.2H526V1.5h0.5v0.5c0.1-0.2,0.2-0.3,0.4-0.4s0.4-0.2,0.6-0.2c0.1,0,0.3,0,0.3,0s0.2,0,0.2,0.1L527.9,2z"/>
	<path id="XMLID_116_" class="st0" d="M531.6,3.3c0,0.3,0,0.6-0.1,0.8s-0.2,0.5-0.4,0.6c-0.1,0.2-0.3,0.3-0.5,0.4
		c-0.2,0.1-0.4,0.1-0.6,0.1s-0.4,0-0.6-0.1s-0.4-0.2-0.5-0.4s-0.3-0.4-0.3-0.6c-0.1-0.2-0.1-0.5-0.1-0.8c0-0.3,0-0.6,0.1-0.8
		s0.2-0.4,0.4-0.6c0.1-0.2,0.3-0.3,0.5-0.4c0.2-0.1,0.4-0.1,0.6-0.1s0.4,0,0.6,0.1s0.4,0.2,0.5,0.4s0.3,0.4,0.3,0.6
		S531.6,3,531.6,3.3z M531.1,3.3c0-0.5-0.1-0.9-0.3-1.1c-0.2-0.2-0.5-0.4-0.8-0.4s-0.6,0.1-0.8,0.4c-0.2,0.2-0.3,0.6-0.3,1.1
		c0,0.5,0.1,0.9,0.3,1.1c0.2,0.3,0.5,0.4,0.8,0.4s0.6-0.1,0.8-0.4C531,4.2,531.1,3.8,531.1,3.3z"/>
	<path id="XMLID_114_" class="st0" d="M532.3,5.2V0.3l0.5-0.3v5.2H532.3z"/>
	<path id="XMLID_112_" class="st0" d="M533.7,5.2V0.3l0.5-0.3v5.2H533.7z"/>
	<path id="XMLID_109_" class="st0" d="M538,3.2c0,0.1,0,0.1,0,0.2c0,0,0,0.1,0,0.1h-2.5c0,0.4,0.1,0.7,0.3,1
		c0.2,0.2,0.4,0.4,0.7,0.4c0.2,0,0.4,0,0.6-0.1s0.3-0.2,0.5-0.3l0.3,0.4c-0.1,0.1-0.2,0.1-0.3,0.2c-0.1,0.1-0.2,0.1-0.3,0.1
		c-0.1,0-0.2,0.1-0.3,0.1c-0.1,0-0.2,0-0.4,0c-0.2,0-0.3,0-0.5-0.1c-0.2-0.1-0.3-0.2-0.5-0.3s-0.3-0.4-0.4-0.6
		c-0.1-0.3-0.1-0.6-0.1-0.9c0-0.3,0-0.6,0.1-0.8c0.1-0.2,0.2-0.4,0.3-0.6s0.3-0.3,0.5-0.4c0.2-0.1,0.4-0.1,0.6-0.1
		c0.2,0,0.5,0,0.6,0.1s0.3,0.2,0.5,0.4s0.2,0.4,0.3,0.6S538,3,538,3.2z M537.5,3.1c0-0.4-0.1-0.7-0.3-0.9c-0.2-0.2-0.4-0.3-0.7-0.3
		c-0.3,0-0.5,0.1-0.7,0.3c-0.2,0.2-0.3,0.5-0.3,0.9H537.5z"/>
	<path id="XMLID_106_" class="st0" d="M540.9,5.2V4.8c-0.1,0.1-0.3,0.3-0.5,0.4c-0.2,0.1-0.4,0.2-0.7,0.2c-0.2,0-0.4,0-0.5-0.1
		c-0.2-0.1-0.3-0.2-0.4-0.3c-0.1-0.2-0.2-0.3-0.3-0.6c-0.1-0.2-0.1-0.5-0.1-0.9c0-0.3,0-0.6,0.1-0.9c0.1-0.3,0.2-0.5,0.3-0.6
		s0.3-0.3,0.5-0.4s0.4-0.1,0.6-0.1c0.2,0,0.4,0,0.6,0.1s0.3,0.2,0.5,0.4V0.3l0.5-0.3v5.2H540.9z M540.9,2.4
		c-0.1-0.2-0.2-0.3-0.4-0.4c-0.2-0.1-0.4-0.2-0.6-0.2c-0.3,0-0.5,0.1-0.7,0.4c-0.2,0.3-0.2,0.6-0.2,1.2c0,0.5,0.1,0.8,0.3,1.1
		c0.2,0.2,0.4,0.4,0.7,0.4c0.2,0,0.4,0,0.5-0.1c0.2-0.1,0.3-0.2,0.4-0.4V2.4z"/>
	<path id="XMLID_104_" class="st0" d="M544.4,1.9v2.4c0,0.2,0,0.3,0.1,0.3c0.1,0.1,0.2,0.1,0.3,0.1c0.1,0,0.2,0,0.3,0s0.2,0,0.2-0.1
		l0,0.5c-0.1,0-0.2,0.1-0.3,0.1s-0.2,0-0.4,0c-0.2,0-0.4-0.1-0.5-0.2s-0.2-0.3-0.2-0.7V1.9h-0.5V1.5h0.5V0.3l0.5-0.3v1.5h0.9v0.5
		H544.4z"/>
	<path id="XMLID_102_" class="st0" d="M548,2c-0.1,0-0.2-0.1-0.2-0.1c-0.1,0-0.2,0-0.3,0c-0.3,0-0.5,0.1-0.6,0.3s-0.2,0.5-0.2,0.8
		v2.2h-0.5V1.5h0.5v0.5c0.1-0.2,0.2-0.3,0.4-0.4s0.4-0.2,0.6-0.2c0.1,0,0.3,0,0.3,0s0.2,0,0.2,0.1L548,2z"/>
	<path id="XMLID_99_" class="st0" d="M549.3,0.4c0,0.1,0,0.2-0.1,0.3c-0.1,0.1-0.2,0.1-0.3,0.1c-0.1,0-0.2,0-0.3-0.1
		c-0.1-0.1-0.1-0.2-0.1-0.3c0-0.1,0-0.2,0.1-0.3c0.1-0.1,0.2-0.1,0.3-0.1c0.1,0,0.2,0,0.3,0.1C549.3,0.2,549.3,0.3,549.3,0.4z
		 M548.6,5.2V1.5h0.5v3.8H548.6z"/>
	<path id="XMLID_96_" class="st0" d="M552.2,5.2V4.8c-0.1,0.1-0.3,0.3-0.5,0.4c-0.2,0.1-0.4,0.2-0.7,0.2c-0.1,0-0.3,0-0.4-0.1
		c-0.1,0-0.3-0.1-0.4-0.2c-0.1-0.1-0.2-0.2-0.3-0.4s-0.1-0.3-0.1-0.6c0-0.2,0-0.4,0.1-0.5c0.1-0.2,0.2-0.3,0.3-0.4
		c0.1-0.1,0.3-0.2,0.5-0.2s0.4-0.1,0.5-0.1c0.2,0,0.4,0,0.5,0.1s0.3,0.1,0.4,0.2V2.7c0-0.5-0.3-0.8-0.8-0.8c-0.2,0-0.4,0-0.5,0.1
		s-0.3,0.1-0.5,0.2l-0.2-0.4c0.2-0.1,0.4-0.2,0.6-0.2c0.2-0.1,0.4-0.1,0.7-0.1c0.4,0,0.7,0.1,1,0.3c0.2,0.2,0.4,0.5,0.4,0.9v2.6
		H552.2z M552.2,3.5c-0.1-0.1-0.3-0.1-0.4-0.2c-0.1,0-0.3-0.1-0.6-0.1c-0.3,0-0.5,0.1-0.6,0.2s-0.2,0.3-0.2,0.5
		c0,0.3,0.1,0.5,0.2,0.6c0.1,0.1,0.3,0.2,0.6,0.2c0.2,0,0.5-0.1,0.6-0.2c0.2-0.1,0.3-0.2,0.4-0.4V3.5z"/>
	<path id="XMLID_94_" class="st0" d="M553.6,5.2V0.3l0.5-0.3v5.2H553.6z"/>
	<path id="XMLID_91_" class="st0" d="M555.3,1.8h-0.4l0.1-1.6h0.7L555.3,1.8z M556.8,1.8h-0.4l0.1-1.6h0.7L556.8,1.8z"/>
	<path id="XMLID_89_" class="st0" d="M561.6,5.2H561l-1.7-5h0.6l1.1,3.4c0,0.1,0.1,0.2,0.1,0.3c0,0.1,0.1,0.2,0.1,0.3
		c0,0.1,0.1,0.2,0.1,0.3c0,0.1,0,0.1,0.1,0.2c0,0,0-0.1,0.1-0.2c0-0.1,0.1-0.2,0.1-0.3c0-0.1,0.1-0.2,0.1-0.3c0-0.1,0.1-0.2,0.1-0.3
		l1.1-3.4h0.6L561.6,5.2z"/>
	<path id="XMLID_86_" class="st0" d="M567,3.3c0,0.3,0,0.6-0.1,0.8s-0.2,0.5-0.4,0.6c-0.1,0.2-0.3,0.3-0.5,0.4
		c-0.2,0.1-0.4,0.1-0.6,0.1s-0.4,0-0.6-0.1s-0.4-0.2-0.5-0.4s-0.3-0.4-0.3-0.6c-0.1-0.2-0.1-0.5-0.1-0.8c0-0.3,0-0.6,0.1-0.8
		s0.2-0.4,0.4-0.6c0.1-0.2,0.3-0.3,0.5-0.4c0.2-0.1,0.4-0.1,0.6-0.1s0.4,0,0.6,0.1s0.4,0.2,0.5,0.4s0.3,0.4,0.3,0.6S567,3,567,3.3z
		 M566.4,3.3c0-0.5-0.1-0.9-0.3-1.1c-0.2-0.2-0.5-0.4-0.8-0.4s-0.6,0.1-0.8,0.4c-0.2,0.2-0.3,0.6-0.3,1.1c0,0.5,0.1,0.9,0.3,1.1
		c0.2,0.3,0.5,0.4,0.8,0.4s0.6-0.1,0.8-0.4C566.3,4.2,566.4,3.8,566.4,3.3z"/>
	<path id="XMLID_84_" class="st0" d="M567.6,5.2V0.3l0.5-0.3v5.2H567.6z"/>
	<path id="XMLID_82_" class="st0" d="M571.4,5.2V4.8c-0.1,0.2-0.3,0.3-0.4,0.4c-0.2,0.1-0.4,0.2-0.6,0.2c-0.2,0-0.4,0-0.5-0.1
		s-0.3-0.2-0.4-0.3s-0.2-0.3-0.3-0.5C569,4.3,569,4,569,3.7V1.5h0.5v2.2c0,0.4,0.1,0.7,0.2,0.9c0.1,0.2,0.4,0.3,0.7,0.3
		c0.3,0,0.5-0.1,0.7-0.3c0.2-0.2,0.3-0.5,0.3-0.9V1.5h0.5v3.8H571.4z"/>
	<path id="XMLID_80_" class="st0" d="M577.1,5.2V3c0-0.4-0.1-0.7-0.2-0.9s-0.3-0.3-0.6-0.3c-0.3,0-0.5,0.1-0.6,0.3
		c-0.2,0.2-0.2,0.5-0.2,0.9v2.2h-0.5V3c0-0.4-0.1-0.7-0.2-0.9s-0.3-0.3-0.6-0.3c-0.3,0-0.5,0.1-0.6,0.3c-0.1,0.2-0.2,0.5-0.2,0.9
		v2.2h-0.5V1.5h0.5l0,0.5c0.1-0.2,0.2-0.3,0.4-0.4c0.2-0.1,0.3-0.1,0.6-0.1c0.3,0,0.5,0.1,0.6,0.2c0.2,0.1,0.3,0.3,0.4,0.5
		c0.1-0.1,0.1-0.2,0.2-0.3c0.1-0.1,0.1-0.1,0.2-0.2c0.1-0.1,0.2-0.1,0.3-0.1c0.1,0,0.3,0,0.4,0c0.4,0,0.7,0.1,0.9,0.4
		c0.2,0.2,0.3,0.6,0.3,1.2v2.3H577.1z"/>
	<path id="XMLID_77_" class="st0" d="M581.3,3.2c0,0.1,0,0.1,0,0.2c0,0,0,0.1,0,0.1h-2.5c0,0.4,0.1,0.7,0.3,1
		c0.2,0.2,0.4,0.4,0.7,0.4c0.2,0,0.4,0,0.6-0.1s0.3-0.2,0.5-0.3l0.3,0.4c-0.1,0.1-0.2,0.1-0.3,0.2c-0.1,0.1-0.2,0.1-0.3,0.1
		c-0.1,0-0.2,0.1-0.3,0.1c-0.1,0-0.2,0-0.4,0c-0.2,0-0.3,0-0.5-0.1c-0.2-0.1-0.3-0.2-0.5-0.3s-0.3-0.4-0.4-0.6
		c-0.1-0.3-0.1-0.6-0.1-0.9c0-0.3,0-0.6,0.1-0.8c0.1-0.2,0.2-0.4,0.3-0.6s0.3-0.3,0.5-0.4c0.2-0.1,0.4-0.1,0.6-0.1
		c0.2,0,0.5,0,0.6,0.1s0.3,0.2,0.5,0.4s0.2,0.4,0.3,0.6S581.3,3,581.3,3.2z M580.8,3.1c0-0.4-0.1-0.7-0.3-0.9
		c-0.2-0.2-0.4-0.3-0.7-0.3c-0.3,0-0.5,0.1-0.7,0.3c-0.2,0.2-0.3,0.5-0.3,0.9H580.8z"/>
	<path id="XMLID_75_" class="st0" d="M586.7,3.5c0,0.3,0,0.6-0.1,0.8c-0.1,0.2-0.2,0.4-0.4,0.5c-0.2,0.1-0.4,0.2-0.6,0.3
		c-0.2,0.1-0.5,0.1-0.8,0.1c-0.3,0-0.6,0-0.9-0.1s-0.5-0.2-0.7-0.3l0.3-0.4c0.2,0.1,0.4,0.2,0.6,0.3s0.5,0.1,0.7,0.1
		c0.4,0,0.8-0.1,1-0.3c0.2-0.2,0.3-0.5,0.3-0.9c0-0.3-0.1-0.6-0.3-0.8c-0.2-0.2-0.5-0.3-0.9-0.3c-0.2,0-0.4,0-0.6,0.1
		c-0.2,0.1-0.3,0.1-0.5,0.2l-0.6-0.2l0.2-2.4h2.9v0.5H584l-0.1,1.6c0.1-0.1,0.3-0.2,0.5-0.2c0.2-0.1,0.4-0.1,0.6-0.1
		c0.3,0,0.5,0,0.8,0.1c0.2,0.1,0.4,0.2,0.5,0.3s0.2,0.3,0.3,0.5C586.7,3.1,586.7,3.3,586.7,3.5z"/>
	<path id="XMLID_72_" class="st0" d="M591,2.7c0,0.4,0,0.8-0.1,1.1c-0.1,0.3-0.2,0.6-0.4,0.8c-0.2,0.2-0.4,0.4-0.6,0.5
		c-0.2,0.1-0.5,0.2-0.8,0.2c-0.3,0-0.5-0.1-0.8-0.2c-0.2-0.1-0.4-0.3-0.6-0.5c-0.2-0.2-0.3-0.5-0.4-0.8s-0.1-0.7-0.1-1.1
		c0-0.4,0-0.8,0.1-1.1s0.2-0.6,0.4-0.8c0.2-0.2,0.4-0.4,0.6-0.5c0.2-0.1,0.5-0.2,0.8-0.2c0.3,0,0.5,0.1,0.8,0.2
		c0.2,0.1,0.4,0.3,0.6,0.5c0.2,0.2,0.3,0.5,0.4,0.8C590.9,1.9,591,2.3,591,2.7z M590.4,2.7c0-0.6-0.1-1.2-0.3-1.5
		c-0.2-0.4-0.6-0.6-1-0.6c-0.4,0-0.8,0.2-1,0.6c-0.2,0.4-0.3,0.9-0.3,1.5c0,0.6,0.1,1.2,0.3,1.5c0.2,0.4,0.6,0.6,1,0.6
		c0.4,0,0.8-0.2,1-0.6C590.3,3.9,590.4,3.4,590.4,2.7z"/>
	<path id="XMLID_70_" class="st0" d="M591.9,6.1h-0.4l0.1-1.7h0.7L591.9,6.1z"/>
	<path id="XMLID_68_" class="st0" d="M2.1,13.8v-5h0.6v5H2.1z"/>
	<path id="XMLID_66_" class="st0" d="M5.9,12.8c0,0.2,0,0.3-0.1,0.5c-0.1,0.1-0.2,0.2-0.3,0.3c-0.1,0.1-0.3,0.1-0.4,0.2
		c-0.2,0-0.3,0.1-0.5,0.1c-0.3,0-0.5,0-0.7-0.1c-0.2-0.1-0.4-0.2-0.6-0.3L3.6,13c0.2,0.1,0.3,0.2,0.5,0.3c0.2,0.1,0.4,0.1,0.5,0.1
		c0.3,0,0.4-0.1,0.6-0.2s0.2-0.2,0.2-0.4c0-0.1,0-0.1,0-0.2c0-0.1-0.1-0.1-0.2-0.2c-0.1-0.1-0.2-0.1-0.3-0.2
		c-0.1-0.1-0.3-0.1-0.4-0.2C4.3,12,4.2,11.9,4,11.8c-0.1-0.1-0.2-0.2-0.3-0.2c-0.1-0.1-0.1-0.2-0.2-0.3c0-0.1-0.1-0.2-0.1-0.4
		c0-0.1,0-0.3,0.1-0.4c0.1-0.1,0.1-0.2,0.2-0.3C3.9,10.1,4,10.1,4.1,10C4.3,10,4.4,10,4.6,10c0.3,0,0.5,0,0.7,0.1
		c0.2,0.1,0.4,0.2,0.5,0.3l-0.3,0.4c-0.1-0.1-0.3-0.2-0.4-0.3c-0.1-0.1-0.3-0.1-0.5-0.1s-0.4,0-0.5,0.1s-0.2,0.2-0.2,0.3
		c0,0.1,0,0.2,0,0.2s0.1,0.1,0.1,0.2c0.1,0.1,0.2,0.1,0.3,0.2c0.1,0.1,0.2,0.1,0.4,0.2c0.2,0.1,0.3,0.2,0.5,0.2
		c0.1,0.1,0.3,0.2,0.4,0.2c0.1,0.1,0.2,0.2,0.2,0.3C5.9,12.5,5.9,12.7,5.9,12.8z"/>
	<path id="XMLID_64_" class="st0" d="M8.9,12.8c0,0.2,0,0.3-0.1,0.5c-0.1,0.1-0.2,0.2-0.3,0.3c-0.1,0.1-0.3,0.1-0.4,0.2
		c-0.2,0-0.3,0.1-0.5,0.1c-0.3,0-0.5,0-0.7-0.1c-0.2-0.1-0.4-0.2-0.6-0.3L6.6,13c0.2,0.1,0.3,0.2,0.5,0.3c0.2,0.1,0.4,0.1,0.5,0.1
		c0.3,0,0.4-0.1,0.6-0.2s0.2-0.2,0.2-0.4c0-0.1,0-0.1,0-0.2c0-0.1-0.1-0.1-0.2-0.2c-0.1-0.1-0.2-0.1-0.3-0.2
		c-0.1-0.1-0.3-0.1-0.4-0.2C7.3,12,7.1,11.9,7,11.8c-0.1-0.1-0.2-0.2-0.3-0.2c-0.1-0.1-0.1-0.2-0.2-0.3c0-0.1-0.1-0.2-0.1-0.4
		c0-0.1,0-0.3,0.1-0.4c0.1-0.1,0.1-0.2,0.2-0.3C6.9,10.1,7,10.1,7.1,10C7.3,10,7.4,10,7.6,10c0.3,0,0.5,0,0.7,0.1
		c0.2,0.1,0.4,0.2,0.5,0.3l-0.3,0.4c-0.1-0.1-0.3-0.2-0.4-0.3c-0.1-0.1-0.3-0.1-0.5-0.1s-0.4,0-0.5,0.1s-0.2,0.2-0.2,0.3
		c0,0.1,0,0.2,0,0.2s0.1,0.1,0.1,0.2c0.1,0.1,0.2,0.1,0.3,0.2c0.1,0.1,0.2,0.1,0.4,0.2c0.2,0.1,0.3,0.2,0.5,0.2
		c0.1,0.1,0.3,0.2,0.4,0.2c0.1,0.1,0.2,0.2,0.2,0.3C8.9,12.5,8.9,12.7,8.9,12.8z"/>
	<path id="XMLID_62_" class="st0" d="M11.9,13.8v-0.5c-0.1,0.2-0.3,0.3-0.4,0.4c-0.2,0.1-0.4,0.2-0.6,0.2c-0.2,0-0.4,0-0.5-0.1
		s-0.3-0.2-0.4-0.3S9.7,13.2,9.6,13c-0.1-0.2-0.1-0.4-0.1-0.7V10h0.5v2.2c0,0.4,0.1,0.7,0.2,0.9c0.1,0.2,0.4,0.3,0.7,0.3
		c0.3,0,0.5-0.1,0.7-0.3c0.2-0.2,0.3-0.5,0.3-0.9V10h0.5v3.8H11.9z"/>
	<path id="XMLID_59_" class="st0" d="M16.1,11.8c0,0.1,0,0.1,0,0.2c0,0,0,0.1,0,0.1h-2.5c0,0.4,0.1,0.7,0.3,1
		c0.2,0.2,0.4,0.4,0.7,0.4c0.2,0,0.4,0,0.6-0.1s0.3-0.2,0.5-0.3l0.3,0.4c-0.1,0.1-0.2,0.1-0.3,0.2c-0.1,0.1-0.2,0.1-0.3,0.1
		c-0.1,0-0.2,0.1-0.3,0.1c-0.1,0-0.2,0-0.4,0c-0.2,0-0.3,0-0.5-0.1c-0.2-0.1-0.3-0.2-0.5-0.3s-0.3-0.4-0.4-0.6
		c-0.1-0.3-0.1-0.6-0.1-0.9c0-0.3,0-0.6,0.1-0.8c0.1-0.2,0.2-0.4,0.3-0.6s0.3-0.3,0.5-0.4c0.2-0.1,0.4-0.1,0.6-0.1
		c0.2,0,0.5,0,0.6,0.1s0.3,0.2,0.5,0.4s0.2,0.4,0.3,0.6S16.1,11.5,16.1,11.8z M15.6,11.7c0-0.4-0.1-0.7-0.3-0.9
		c-0.2-0.2-0.4-0.3-0.7-0.3c-0.3,0-0.5,0.1-0.7,0.3c-0.2,0.2-0.3,0.5-0.3,0.9H15.6z"/>
	<path id="XMLID_57_" class="st0" d="M21.2,12.4c0,0.5-0.2,0.8-0.5,1.1s-0.7,0.4-1.3,0.4c-0.2,0-0.3,0-0.5-0.1
		c-0.2,0-0.3-0.1-0.4-0.2c-0.1-0.1-0.3-0.1-0.4-0.2s-0.2-0.2-0.3-0.3l0.4-0.4c0.2,0.2,0.3,0.3,0.5,0.4c0.2,0.1,0.4,0.2,0.7,0.2
		c0.4,0,0.7-0.1,0.9-0.3c0.2-0.2,0.3-0.4,0.3-0.7c0-0.3-0.1-0.5-0.3-0.7s-0.5-0.2-0.9-0.2h-0.3V11h0.3c0.3,0,0.6-0.1,0.7-0.2
		s0.2-0.4,0.2-0.6c0-0.1,0-0.2-0.1-0.3c0-0.1-0.1-0.2-0.2-0.3c-0.1-0.1-0.2-0.1-0.3-0.2c-0.1,0-0.3-0.1-0.5-0.1
		c-0.2,0-0.4,0-0.6,0.1c-0.2,0.1-0.3,0.2-0.4,0.3l-0.4-0.4c0.1-0.1,0.2-0.2,0.3-0.2C18.4,9,18.5,9,18.6,8.9s0.2-0.1,0.4-0.1
		c0.1,0,0.3-0.1,0.4-0.1c0.2,0,0.4,0,0.6,0.1c0.2,0.1,0.4,0.1,0.5,0.2c0.1,0.1,0.2,0.2,0.3,0.4S21,9.8,21,10c0,0.3-0.1,0.5-0.2,0.7
		s-0.3,0.3-0.5,0.4c0.1,0,0.2,0.1,0.3,0.1c0.1,0.1,0.2,0.1,0.3,0.2c0.1,0.1,0.1,0.2,0.2,0.4C21.2,12,21.2,12.2,21.2,12.4z"/>
	<path id="XMLID_55_" class="st0" d="M27.3,13.8v-3.4V9.9c0,0,0,0.1-0.1,0.2c0,0.1,0,0.1-0.1,0.2c0,0.1-0.1,0.1-0.1,0.2
		c0,0.1-0.1,0.1-0.1,0.2l-1.3,3.2l-1.3-3.2c0-0.1-0.1-0.1-0.1-0.2c0-0.1-0.1-0.2-0.1-0.2c0-0.1,0-0.1-0.1-0.2c0-0.1,0-0.1-0.1-0.2
		v0.5v3.4h-0.5v-5h0.6l1.2,3c0,0.1,0.1,0.2,0.1,0.3c0,0.1,0.1,0.2,0.1,0.3c0,0.1,0.1,0.2,0.1,0.3c0,0.1,0,0.1,0.1,0.2
		c0-0.1,0-0.1,0.1-0.2c0-0.1,0.1-0.2,0.1-0.3c0-0.1,0.1-0.2,0.1-0.3c0-0.1,0.1-0.2,0.1-0.2l1.2-3h0.6v5H27.3z"/>
	<path id="XMLID_52_" class="st0" d="M30.9,13.8v-0.5c-0.1,0.1-0.3,0.3-0.5,0.4c-0.2,0.1-0.4,0.2-0.7,0.2c-0.1,0-0.3,0-0.4-0.1
		c-0.1,0-0.3-0.1-0.4-0.2c-0.1-0.1-0.2-0.2-0.3-0.4s-0.1-0.3-0.1-0.6c0-0.2,0-0.4,0.1-0.5c0.1-0.2,0.2-0.3,0.3-0.4
		c0.1-0.1,0.3-0.2,0.5-0.2s0.4-0.1,0.5-0.1c0.2,0,0.4,0,0.5,0.1s0.3,0.1,0.4,0.2v-0.4c0-0.5-0.3-0.8-0.8-0.8c-0.2,0-0.4,0-0.5,0.1
		s-0.3,0.1-0.5,0.2l-0.2-0.4c0.2-0.1,0.4-0.2,0.6-0.2c0.2-0.1,0.4-0.1,0.7-0.1c0.4,0,0.7,0.1,1,0.3c0.2,0.2,0.4,0.5,0.4,0.9v2.6
		H30.9z M30.9,12.1c-0.1-0.1-0.3-0.1-0.4-0.2c-0.1,0-0.3-0.1-0.6-0.1c-0.3,0-0.5,0.1-0.6,0.2S29,12.4,29,12.6c0,0.3,0.1,0.5,0.2,0.6
		c0.1,0.1,0.3,0.2,0.6,0.2c0.2,0,0.5-0.1,0.6-0.2c0.2-0.1,0.3-0.2,0.4-0.4V12.1z"/>
	<path id="XMLID_50_" class="st0" d="M34.1,10.6c-0.1,0-0.2-0.1-0.2-0.1c-0.1,0-0.2,0-0.3,0c-0.3,0-0.5,0.1-0.6,0.3
		s-0.2,0.5-0.2,0.8v2.2h-0.5V10h0.5v0.5c0.1-0.2,0.2-0.3,0.4-0.4s0.4-0.2,0.6-0.2c0.1,0,0.3,0,0.3,0s0.2,0,0.2,0.1L34.1,10.6z"/>
	<path id="XMLID_48_" class="st0" d="M37,10.8c-0.1-0.1-0.3-0.2-0.4-0.3c-0.1-0.1-0.3-0.1-0.5-0.1c-0.1,0-0.3,0-0.4,0.1
		c-0.1,0.1-0.2,0.2-0.3,0.3c-0.1,0.1-0.2,0.3-0.2,0.5s-0.1,0.4-0.1,0.6c0,0.5,0.1,0.8,0.3,1.1c0.2,0.3,0.4,0.4,0.8,0.4
		c0.2,0,0.3,0,0.5-0.1c0.1-0.1,0.3-0.2,0.4-0.3l0.3,0.3c-0.2,0.2-0.3,0.3-0.5,0.4c-0.2,0.1-0.4,0.1-0.7,0.1c-0.2,0-0.4,0-0.6-0.1
		c-0.2-0.1-0.4-0.2-0.5-0.4s-0.3-0.4-0.4-0.6c-0.1-0.2-0.1-0.5-0.1-0.9c0-0.3,0-0.6,0.1-0.9c0.1-0.2,0.2-0.5,0.4-0.6
		c0.2-0.2,0.3-0.3,0.5-0.4C35.8,10,36,10,36.2,10c0.3,0,0.5,0,0.7,0.1c0.2,0.1,0.4,0.2,0.5,0.3L37,10.8z"/>
	<path id="XMLID_46_" class="st0" d="M40.3,13.8v-2.2c0-0.4-0.1-0.7-0.2-0.9c-0.1-0.2-0.4-0.3-0.7-0.3c-0.3,0-0.5,0.1-0.7,0.3
		c-0.2,0.2-0.3,0.5-0.3,0.9v2.2h-0.5V8.9l0.5-0.3l0,1.9c0.1-0.2,0.3-0.3,0.4-0.4s0.4-0.1,0.6-0.1c0.2,0,0.4,0,0.5,0.1
		c0.2,0.1,0.3,0.2,0.4,0.3c0.1,0.1,0.2,0.3,0.3,0.5c0.1,0.2,0.1,0.4,0.1,0.7v2.3H40.3z"/>
	<path id="XMLID_44_" class="st0" d="M42.8,13.8c0-0.3,0.1-0.6,0.1-0.8s0.2-0.4,0.3-0.6c0.1-0.2,0.3-0.4,0.5-0.5
		c0.2-0.2,0.4-0.3,0.6-0.5c0.2-0.1,0.4-0.3,0.5-0.4c0.1-0.1,0.3-0.2,0.3-0.3s0.1-0.2,0.2-0.3s0-0.2,0-0.3c0-0.3-0.1-0.5-0.3-0.6
		c-0.2-0.1-0.4-0.2-0.8-0.2c-0.3,0-0.5,0-0.7,0.1c-0.2,0.1-0.4,0.2-0.5,0.3l-0.3-0.4c0.1-0.1,0.2-0.2,0.3-0.2s0.2-0.1,0.4-0.2
		s0.3-0.1,0.4-0.1c0.1,0,0.3,0,0.5,0c0.2,0,0.4,0,0.6,0.1c0.2,0.1,0.4,0.1,0.5,0.2c0.1,0.1,0.2,0.2,0.3,0.4c0.1,0.2,0.1,0.4,0.1,0.6
		c0,0.2,0,0.3-0.1,0.5s-0.1,0.3-0.2,0.4c-0.1,0.1-0.2,0.2-0.4,0.4s-0.4,0.3-0.6,0.4c-0.3,0.2-0.5,0.3-0.6,0.5
		c-0.2,0.1-0.3,0.3-0.4,0.4c-0.1,0.1-0.2,0.2-0.2,0.4s-0.1,0.2-0.1,0.4h2.7v0.5H42.8z"/>
	<path id="XMLID_41_" class="st0" d="M50.4,11.3c0,0.4,0,0.8-0.1,1.1c-0.1,0.3-0.2,0.6-0.4,0.8c-0.2,0.2-0.4,0.4-0.6,0.5
		c-0.2,0.1-0.5,0.2-0.8,0.2c-0.3,0-0.5-0.1-0.8-0.2c-0.2-0.1-0.4-0.3-0.6-0.5c-0.2-0.2-0.3-0.5-0.4-0.8s-0.1-0.7-0.1-1.1
		c0-0.4,0-0.8,0.1-1.1s0.2-0.6,0.4-0.8c0.2-0.2,0.4-0.4,0.6-0.5c0.2-0.1,0.5-0.2,0.8-0.2c0.3,0,0.5,0.1,0.8,0.2
		c0.2,0.1,0.4,0.3,0.6,0.5c0.2,0.2,0.3,0.5,0.4,0.8C50.4,10.5,50.4,10.9,50.4,11.3z M49.9,11.3c0-0.6-0.1-1.2-0.3-1.5
		c-0.2-0.4-0.6-0.6-1-0.6c-0.4,0-0.8,0.2-1,0.6c-0.2,0.4-0.3,0.9-0.3,1.5c0,0.6,0.1,1.2,0.3,1.5c0.2,0.4,0.6,0.6,1,0.6
		c0.4,0,0.8-0.2,1-0.6C49.8,12.4,49.9,11.9,49.9,11.3z"/>
	<path id="XMLID_38_" class="st0" d="M54.7,11.3c0,0.4,0,0.8-0.1,1.1c-0.1,0.3-0.2,0.6-0.4,0.8c-0.2,0.2-0.4,0.4-0.6,0.5
		c-0.2,0.1-0.5,0.2-0.8,0.2c-0.3,0-0.5-0.1-0.8-0.2c-0.2-0.1-0.4-0.3-0.6-0.5c-0.2-0.2-0.3-0.5-0.4-0.8s-0.1-0.7-0.1-1.1
		c0-0.4,0-0.8,0.1-1.1s0.2-0.6,0.4-0.8C51.6,9.2,51.8,9,52,8.9c0.2-0.1,0.5-0.2,0.8-0.2c0.3,0,0.5,0.1,0.8,0.2
		C53.8,9,54,9.2,54.1,9.4c0.2,0.2,0.3,0.5,0.4,0.8C54.6,10.5,54.7,10.9,54.7,11.3z M54.1,11.3c0-0.6-0.1-1.2-0.3-1.5
		c-0.2-0.4-0.6-0.6-1-0.6c-0.4,0-0.8,0.2-1,0.6c-0.2,0.4-0.3,0.9-0.3,1.5c0,0.6,0.1,1.2,0.3,1.5c0.2,0.4,0.6,0.6,1,0.6
		c0.4,0,0.8-0.2,1-0.6C54,12.4,54.1,11.9,54.1,11.3z"/>
	<path id="XMLID_35_" class="st0" d="M58.7,10.7c0,0.2,0,0.4-0.1,0.7c0,0.2-0.1,0.5-0.2,0.7c-0.1,0.2-0.2,0.5-0.4,0.7
		c-0.2,0.2-0.3,0.4-0.5,0.6c-0.2,0.2-0.5,0.3-0.7,0.4c-0.3,0.1-0.6,0.2-1,0.2v-0.5c0.7-0.1,1.2-0.3,1.6-0.6c0.4-0.4,0.7-0.8,0.8-1.5
		c-0.2,0.2-0.4,0.3-0.6,0.4c-0.2,0.1-0.5,0.2-0.9,0.2c-0.2,0-0.4,0-0.6-0.1c-0.2-0.1-0.4-0.2-0.5-0.3c-0.2-0.1-0.3-0.3-0.4-0.5
		c-0.1-0.2-0.1-0.4-0.1-0.7c0-0.3,0-0.5,0.1-0.7c0.1-0.2,0.2-0.4,0.4-0.5c0.2-0.1,0.4-0.2,0.6-0.3c0.2-0.1,0.5-0.1,0.7-0.1
		c0.2,0,0.5,0,0.7,0.1C57.8,8.9,58,9,58.2,9.2c0.2,0.2,0.3,0.4,0.4,0.6C58.6,10,58.7,10.3,58.7,10.7z M58.1,10.3
		c0-0.2,0-0.3-0.1-0.4c-0.1-0.1-0.1-0.2-0.3-0.3c-0.1-0.1-0.2-0.2-0.4-0.2c-0.2-0.1-0.3-0.1-0.5-0.1c-0.4,0-0.7,0.1-1,0.3
		c-0.2,0.2-0.3,0.5-0.3,0.8c0,0.3,0.1,0.6,0.3,0.8c0.2,0.2,0.5,0.3,0.9,0.3c0.4,0,0.7-0.1,0.9-0.3S58.1,10.6,58.1,10.3z"/>
	<path id="XMLID_32_" class="st0" d="M64.4,10.3c0,0.2,0,0.5-0.1,0.7c-0.1,0.2-0.2,0.4-0.3,0.5c-0.1,0.1-0.3,0.2-0.5,0.3
		s-0.4,0.1-0.7,0.1h-1.2v2h-0.6v-5h1.9c0.2,0,0.4,0,0.6,0.1c0.2,0.1,0.4,0.2,0.5,0.3c0.1,0.1,0.3,0.3,0.3,0.5S64.4,10,64.4,10.3z
		 M63.8,10.3c0-0.3-0.1-0.6-0.3-0.7c-0.2-0.2-0.4-0.3-0.8-0.3h-1.3v2h1.2C63.5,11.3,63.8,11,63.8,10.3z"/>
	<path id="XMLID_29_" class="st0" d="M67.1,13.8v-0.5c-0.1,0.1-0.3,0.3-0.5,0.4c-0.2,0.1-0.4,0.2-0.7,0.2c-0.1,0-0.3,0-0.4-0.1
		c-0.1,0-0.3-0.1-0.4-0.2c-0.1-0.1-0.2-0.2-0.3-0.4s-0.1-0.3-0.1-0.6c0-0.2,0-0.4,0.1-0.5c0.1-0.2,0.2-0.3,0.3-0.4
		c0.1-0.1,0.3-0.2,0.5-0.2s0.4-0.1,0.5-0.1c0.2,0,0.4,0,0.5,0.1s0.3,0.1,0.4,0.2v-0.4c0-0.5-0.3-0.8-0.8-0.8c-0.2,0-0.4,0-0.5,0.1
		s-0.3,0.1-0.5,0.2L65,10.3c0.2-0.1,0.4-0.2,0.6-0.2c0.2-0.1,0.4-0.1,0.7-0.1c0.4,0,0.7,0.1,1,0.3c0.2,0.2,0.4,0.5,0.4,0.9v2.6H67.1
		z M67.1,12.1c-0.1-0.1-0.3-0.1-0.4-0.2c-0.1,0-0.3-0.1-0.6-0.1c-0.3,0-0.5,0.1-0.6,0.2s-0.2,0.3-0.2,0.5c0,0.3,0.1,0.5,0.2,0.6
		c0.1,0.1,0.3,0.2,0.6,0.2c0.2,0,0.5-0.1,0.6-0.2c0.2-0.1,0.3-0.2,0.4-0.4V12.1z"/>
	<path id="XMLID_26_" class="st0" d="M71.2,13.5c0,0.3,0,0.5-0.1,0.7c-0.1,0.2-0.2,0.4-0.3,0.5s-0.3,0.3-0.6,0.3
		c-0.2,0.1-0.5,0.1-0.9,0.1l-0.2-0.4c0.3,0,0.6,0,0.8-0.1c0.2,0,0.4-0.1,0.5-0.2c0.1-0.1,0.2-0.2,0.2-0.4c0-0.2,0.1-0.3,0.1-0.6
		v-0.2c-0.1,0.1-0.3,0.3-0.5,0.4c-0.2,0.1-0.4,0.2-0.7,0.2c-0.2,0-0.4,0-0.5-0.1c-0.2-0.1-0.3-0.2-0.4-0.3c-0.1-0.2-0.2-0.3-0.3-0.6
		c-0.1-0.2-0.1-0.5-0.1-0.9c0-0.3,0-0.6,0.1-0.9c0.1-0.3,0.2-0.5,0.3-0.6s0.3-0.3,0.5-0.4s0.4-0.1,0.6-0.1c0.2,0,0.4,0,0.6,0.1
		s0.3,0.2,0.5,0.4V10h0.5V13.5z M70.7,11c-0.1-0.2-0.2-0.3-0.4-0.4c-0.2-0.1-0.4-0.2-0.6-0.2c-0.3,0-0.5,0.1-0.7,0.4
		c-0.2,0.3-0.2,0.6-0.2,1.2c0,0.5,0.1,0.8,0.3,1.1c0.2,0.2,0.4,0.4,0.7,0.4c0.2,0,0.4,0,0.5-0.1c0.2-0.1,0.3-0.2,0.4-0.4V11z"/>
	<path id="XMLID_23_" class="st0" d="M74.9,11.8c0,0.1,0,0.1,0,0.2c0,0,0,0.1,0,0.1h-2.5c0,0.4,0.1,0.7,0.3,1
		c0.2,0.2,0.4,0.4,0.7,0.4c0.2,0,0.4,0,0.6-0.1s0.3-0.2,0.5-0.3l0.3,0.4c-0.1,0.1-0.2,0.1-0.3,0.2c-0.1,0.1-0.2,0.1-0.3,0.1
		c-0.1,0-0.2,0.1-0.3,0.1c-0.1,0-0.2,0-0.4,0c-0.2,0-0.3,0-0.5-0.1c-0.2-0.1-0.3-0.2-0.5-0.3s-0.3-0.4-0.4-0.6
		c-0.1-0.3-0.1-0.6-0.1-0.9c0-0.3,0-0.6,0.1-0.8c0.1-0.2,0.2-0.4,0.3-0.6s0.3-0.3,0.5-0.4C73,10,73.2,10,73.4,10
		c0.2,0,0.5,0,0.6,0.1s0.3,0.2,0.5,0.4s0.2,0.4,0.3,0.6S74.9,11.5,74.9,11.8z M74.4,11.7c0-0.4-0.1-0.7-0.3-0.9
		c-0.2-0.2-0.4-0.3-0.7-0.3c-0.3,0-0.5,0.1-0.7,0.3c-0.2,0.2-0.3,0.5-0.3,0.9H74.4z"/>
	<path id="XMLID_21_" class="st0" d="M77.9,12.8c0,0.2,0,0.3-0.1,0.5c-0.1,0.1-0.2,0.2-0.3,0.3c-0.1,0.1-0.3,0.1-0.4,0.2
		c-0.2,0-0.3,0.1-0.5,0.1c-0.3,0-0.5,0-0.7-0.1c-0.2-0.1-0.4-0.2-0.6-0.3l0.3-0.4c0.2,0.1,0.3,0.2,0.5,0.3c0.2,0.1,0.4,0.1,0.5,0.1
		c0.3,0,0.4-0.1,0.6-0.2s0.2-0.2,0.2-0.4c0-0.1,0-0.1,0-0.2c0-0.1-0.1-0.1-0.2-0.2c-0.1-0.1-0.2-0.1-0.3-0.2
		c-0.1-0.1-0.3-0.1-0.4-0.2c-0.2-0.1-0.3-0.2-0.5-0.2c-0.1-0.1-0.2-0.2-0.3-0.2c-0.1-0.1-0.1-0.2-0.2-0.3c0-0.1-0.1-0.2-0.1-0.4
		c0-0.1,0-0.3,0.1-0.4c0.1-0.1,0.1-0.2,0.2-0.3c0.1-0.1,0.2-0.2,0.4-0.2c0.1,0,0.3-0.1,0.5-0.1c0.3,0,0.5,0,0.7,0.1
		c0.2,0.1,0.4,0.2,0.5,0.3l-0.3,0.4c-0.1-0.1-0.3-0.2-0.4-0.3c-0.1-0.1-0.3-0.1-0.5-0.1s-0.4,0-0.5,0.1s-0.2,0.2-0.2,0.3
		c0,0.1,0,0.2,0,0.2s0.1,0.1,0.1,0.2c0.1,0.1,0.2,0.1,0.3,0.2c0.1,0.1,0.2,0.1,0.4,0.2c0.2,0.1,0.3,0.2,0.5,0.2
		c0.1,0.1,0.3,0.2,0.4,0.2c0.1,0.1,0.2,0.2,0.2,0.3C77.9,12.5,77.9,12.7,77.9,12.8z"/>
	<path id="XMLID_18_" class="st0" d="M82.9,12.6v1.2h-0.5v-1.2h-2.7v-0.5l2.6-3.4h0.6v3.3h0.7v0.5H82.9z M82.4,9.9V9.5
		c0,0.1-0.1,0.1-0.1,0.2c-0.1,0.1-0.1,0.2-0.2,0.2s-0.1,0.2-0.2,0.3c-0.1,0.1-0.1,0.2-0.2,0.3L81,11.3c-0.1,0.1-0.1,0.1-0.2,0.2
		s-0.1,0.2-0.2,0.2c-0.1,0.1-0.1,0.2-0.2,0.2c-0.1,0.1-0.1,0.1-0.2,0.2h0.5h1.6V9.9z"/>
	<path id="XMLID_15_" class="st0" d="M87.7,11.3c0,0.4,0,0.8-0.1,1.1c-0.1,0.3-0.2,0.6-0.4,0.8c-0.2,0.2-0.4,0.4-0.6,0.5
		c-0.2,0.1-0.5,0.2-0.8,0.2c-0.3,0-0.5-0.1-0.8-0.2c-0.2-0.1-0.4-0.3-0.6-0.5c-0.2-0.2-0.3-0.5-0.4-0.8S84,11.7,84,11.3
		c0-0.4,0-0.8,0.1-1.1s0.2-0.6,0.4-0.8c0.2-0.2,0.4-0.4,0.6-0.5c0.2-0.1,0.5-0.2,0.8-0.2c0.3,0,0.5,0.1,0.8,0.2
		C86.8,9,87,9.2,87.2,9.4c0.2,0.2,0.3,0.5,0.4,0.8C87.7,10.5,87.7,10.9,87.7,11.3z M87.2,11.3c0-0.6-0.1-1.2-0.3-1.5
		c-0.2-0.4-0.6-0.6-1-0.6c-0.4,0-0.8,0.2-1,0.6c-0.2,0.4-0.3,0.9-0.3,1.5c0,0.6,0.1,1.2,0.3,1.5c0.2,0.4,0.6,0.6,1,0.6
		c0.4,0,0.8-0.2,1-0.6C87.1,12.4,87.2,11.9,87.2,11.3z"/>
	<path id="XMLID_12_" class="st0" d="M91.9,12.3c0,0.3,0,0.5-0.1,0.7c-0.1,0.2-0.2,0.4-0.4,0.5s-0.4,0.2-0.6,0.3
		c-0.2,0.1-0.5,0.1-0.7,0.1c-0.2,0-0.5,0-0.7-0.1c-0.2-0.1-0.4-0.2-0.6-0.3c-0.2-0.2-0.3-0.4-0.4-0.6c-0.1-0.3-0.1-0.6-0.1-0.9
		c0-0.2,0-0.4,0.1-0.7c0-0.2,0.1-0.5,0.2-0.7c0.1-0.2,0.2-0.5,0.4-0.7s0.3-0.4,0.5-0.6s0.5-0.3,0.7-0.4c0.3-0.1,0.6-0.2,1-0.2v0.5
		c-0.7,0.1-1.2,0.3-1.6,0.6c-0.4,0.4-0.7,0.8-0.8,1.5c0.2-0.2,0.4-0.3,0.6-0.4c0.2-0.1,0.5-0.2,0.9-0.2c0.2,0,0.4,0,0.6,0.1
		c0.2,0.1,0.4,0.2,0.5,0.3c0.2,0.1,0.3,0.3,0.4,0.5C91.8,11.8,91.9,12,91.9,12.3z M91.3,12.3c0-0.3-0.1-0.6-0.3-0.8
		c-0.2-0.2-0.5-0.3-0.9-0.3c-0.4,0-0.7,0.1-0.9,0.3c-0.2,0.2-0.3,0.4-0.3,0.8c0,0.2,0,0.3,0.1,0.4c0.1,0.1,0.1,0.2,0.3,0.3
		s0.2,0.2,0.4,0.2s0.3,0.1,0.5,0.1c0.4,0,0.7-0.1,1-0.3C91.2,12.9,91.3,12.6,91.3,12.3z"/>
	<path id="XMLID_10_" class="st0" d="M92.2,11.4v-0.5h2.3v0.5H92.2z"/>
	<path id="XMLID_7_" class="st0" d="M98,12.6v1.2h-0.5v-1.2h-2.7v-0.5l2.6-3.4H98v3.3h0.7v0.5H98z M97.4,9.9V9.5
		c0,0.1-0.1,0.1-0.1,0.2c-0.1,0.1-0.1,0.2-0.2,0.2s-0.1,0.2-0.2,0.3c-0.1,0.1-0.1,0.2-0.2,0.3l-0.7,0.9c-0.1,0.1-0.1,0.1-0.2,0.2
		s-0.1,0.2-0.2,0.2c-0.1,0.1-0.1,0.2-0.2,0.2c-0.1,0.1-0.1,0.1-0.2,0.2h0.5h1.6V9.9z"/>
	<path id="XMLID_5_" class="st0" d="M99.6,13.8v-4h-0.9V9.4c0.3,0,0.5-0.1,0.7-0.2c0.2-0.1,0.3-0.3,0.3-0.5h0.4v5H99.6z"/>
	<path id="XMLID_2_" class="st0" d="M104,12.6v1.2h-0.5v-1.2h-2.7v-0.5l2.6-3.4h0.6v3.3h0.7v0.5H104z M103.4,9.9V9.5
		c0,0.1-0.1,0.1-0.1,0.2c-0.1,0.1-0.1,0.2-0.2,0.2s-0.1,0.2-0.2,0.3c-0.1,0.1-0.1,0.2-0.2,0.3l-0.7,0.9c-0.1,0.1-0.1,0.1-0.2,0.2
		s-0.1,0.2-0.2,0.2c-0.1,0.1-0.1,0.2-0.2,0.2c-0.1,0.1-0.1,0.1-0.2,0.2h0.5h1.6V9.9z"/>
</g>
</svg>
