<!-- Generator: Adobe Illustrator 22.1.0, SVG Export Plug-In  -->
<svg version="1.1"
	 xmlns="http://www.w3.org/2000/svg" xmlns:xlink="http://www.w3.org/1999/xlink" xmlns:a="http://ns.adobe.com/AdobeSVGViewerExtensions/3.0/"
	 x="0px" y="0px" width="588px" height="11.6px" viewBox="0 0 588 11.6" style="enable-background:new 0 0 588 11.6;"
	 xml:space="preserve">
<style type="text/css">
	.st0{fill:#58595B;}
</style>
<defs>
</defs>
<g id="XMLID_1_">
	<path id="XMLID_483_" class="st0" d="M0.8,4.4V1H0V0.7c0.2,0,0.4-0.1,0.6-0.1c0.2-0.1,0.3-0.2,0.3-0.4h0.3v4.2H0.8z"/>
	<path id="XMLID_481_" class="st0" d="M3.1,4c0,0.1,0,0.2-0.1,0.3C2.9,4.4,2.8,4.4,2.7,4.4s-0.2,0-0.3-0.1C2.4,4.2,2.3,4.1,2.3,4
		s0-0.2,0.1-0.3c0.1-0.1,0.2-0.1,0.3-0.1s0.2,0,0.3,0.1C3.1,3.8,3.1,3.9,3.1,4z"/>
	<path id="XMLID_479_" class="st0" d="M6,4.4V0.2h2.5v0.4H6.5v1.3h1.2v0.4H6.5v1.6h2.1v0.4H6z"/>
	<path id="XMLID_477_" class="st0" d="M10.3,4c0,0.1,0,0.2-0.1,0.3C10.1,4.4,10,4.4,9.9,4.4s-0.2,0-0.3-0.1C9.6,4.2,9.6,4.1,9.6,4
		s0-0.2,0.1-0.3c0.1-0.1,0.2-0.1,0.3-0.1s0.2,0,0.3,0.1C10.3,3.8,10.3,3.9,10.3,4z"/>
	<path id="XMLID_475_" class="st0" d="M15.8,4.4v-2h-2.1v2h-0.5V0.2h0.5V2h2.1V0.2h0.5v4.2H15.8z"/>
	<path id="XMLID_472_" class="st0" d="M18.1,0.3c0,0.1,0,0.2-0.1,0.2c-0.1,0.1-0.1,0.1-0.2,0.1c-0.1,0-0.2,0-0.2-0.1
		s-0.1-0.1-0.1-0.2c0-0.1,0-0.2,0.1-0.2S17.7,0,17.8,0c0.1,0,0.2,0,0.2,0.1C18.1,0.2,18.1,0.2,18.1,0.3z M17.6,4.4V1.2H18v3.1H17.6z
		"/>
	<path id="XMLID_470_" class="st0" d="M20.9,1.7c-0.1,0-0.1-0.1-0.2-0.1c-0.1,0-0.2,0-0.3,0c-0.2,0-0.4,0.1-0.5,0.3
		c-0.1,0.2-0.2,0.4-0.2,0.7v1.8h-0.5V1.2h0.5v0.4c0.1-0.1,0.2-0.2,0.3-0.3c0.1-0.1,0.3-0.1,0.5-0.1c0.1,0,0.2,0,0.3,0
		c0.1,0,0.1,0,0.2,0.1L20.9,1.7z"/>
	<path id="XMLID_468_" class="st0" d="M23.8,3.5c0,0.2,0,0.3-0.1,0.4c-0.1,0.1-0.1,0.2-0.2,0.3c-0.1,0.1-0.2,0.1-0.3,0.2
		c-0.1,0-0.3,0.1-0.4,0.1c-0.2,0-0.4,0-0.6-0.1c-0.2-0.1-0.4-0.2-0.5-0.3l0.3-0.3c0.1,0.1,0.3,0.2,0.4,0.3C22.4,4,22.5,4,22.7,4
		c0.2,0,0.4,0,0.5-0.1c0.1-0.1,0.2-0.2,0.2-0.4c0-0.1,0-0.1,0-0.2c0-0.1-0.1-0.1-0.1-0.2S23,3.1,22.9,3.1S22.7,3,22.6,2.9
		c-0.2-0.1-0.3-0.1-0.4-0.2c-0.1-0.1-0.2-0.1-0.3-0.2c-0.1-0.1-0.1-0.2-0.2-0.2c0-0.1-0.1-0.2-0.1-0.3c0-0.1,0-0.2,0.1-0.3
		s0.1-0.2,0.2-0.3c0.1-0.1,0.2-0.1,0.3-0.2c0.1,0,0.3-0.1,0.4-0.1c0.2,0,0.4,0,0.6,0.1s0.3,0.1,0.4,0.2l-0.3,0.3
		c-0.1-0.1-0.2-0.2-0.4-0.2c-0.1,0-0.3-0.1-0.4-0.1s-0.3,0-0.4,0.1c-0.1,0.1-0.1,0.2-0.1,0.3c0,0.1,0,0.1,0,0.2s0.1,0.1,0.1,0.1
		s0.1,0.1,0.2,0.1c0.1,0,0.2,0.1,0.3,0.2c0.1,0.1,0.3,0.1,0.4,0.2s0.2,0.1,0.3,0.2c0.1,0.1,0.1,0.2,0.2,0.3
		C23.7,3.3,23.8,3.4,23.8,3.5z"/>
	<path id="XMLID_466_" class="st0" d="M26.7,1.9c-0.1-0.1-0.2-0.2-0.3-0.2s-0.3-0.1-0.4-0.1c-0.1,0-0.2,0-0.3,0.1s-0.2,0.1-0.3,0.2
		c-0.1,0.1-0.1,0.2-0.2,0.4c0,0.2-0.1,0.3-0.1,0.5c0,0.4,0.1,0.7,0.2,0.9C25.5,3.9,25.7,4,25.9,4c0.2,0,0.3,0,0.4-0.1
		s0.2-0.1,0.3-0.2L26.9,4c-0.1,0.1-0.3,0.2-0.4,0.3s-0.3,0.1-0.6,0.1c-0.2,0-0.3,0-0.5-0.1C25.3,4.3,25.1,4.2,25,4
		c-0.1-0.1-0.2-0.3-0.3-0.5c-0.1-0.2-0.1-0.4-0.1-0.7c0-0.3,0-0.5,0.1-0.7c0.1-0.2,0.2-0.4,0.3-0.5c0.1-0.1,0.3-0.2,0.4-0.3
		s0.3-0.1,0.5-0.1c0.2,0,0.4,0,0.6,0.1c0.2,0.1,0.3,0.2,0.4,0.3L26.7,1.9z"/>
	<path id="XMLID_464_" class="st0" d="M29.9,4.4V2.5c0-0.3-0.1-0.6-0.2-0.7c-0.1-0.2-0.3-0.2-0.6-0.2c-0.2,0-0.4,0.1-0.6,0.2
		c-0.1,0.2-0.2,0.4-0.2,0.7v1.8H28V0.3L28.4,0l0,1.6c0.1-0.1,0.2-0.2,0.4-0.3c0.1-0.1,0.3-0.1,0.5-0.1c0.2,0,0.3,0,0.5,0.1
		s0.3,0.1,0.3,0.2s0.2,0.2,0.2,0.4s0.1,0.4,0.1,0.6v1.9H29.9z"/>
	<path id="XMLID_461_" class="st0" d="M35.8,2.7c0,0.1,0,0.1,0,0.1s0,0.1,0,0.1h-2.1c0,0.3,0.1,0.6,0.3,0.8S34.3,4,34.5,4
		C34.7,4,34.9,4,35,4c0.1-0.1,0.3-0.1,0.4-0.2l0.2,0.3c-0.1,0.1-0.2,0.1-0.3,0.2c-0.1,0-0.2,0.1-0.3,0.1s-0.2,0.1-0.3,0.1
		s-0.2,0-0.3,0c-0.1,0-0.3,0-0.4-0.1s-0.3-0.1-0.4-0.3c-0.1-0.1-0.2-0.3-0.3-0.5c-0.1-0.2-0.1-0.5-0.1-0.8c0-0.3,0-0.5,0.1-0.7
		s0.2-0.4,0.3-0.5c0.1-0.1,0.3-0.2,0.4-0.3c0.2-0.1,0.3-0.1,0.5-0.1c0.2,0,0.4,0,0.5,0.1c0.2,0.1,0.3,0.2,0.4,0.3
		c0.1,0.1,0.2,0.3,0.2,0.5C35.7,2.3,35.8,2.5,35.8,2.7z M35.4,2.6c0-0.3-0.1-0.6-0.2-0.8c-0.1-0.2-0.3-0.3-0.6-0.3
		c-0.2,0-0.4,0.1-0.6,0.3c-0.1,0.2-0.2,0.4-0.3,0.8H35.4z"/>
	<path id="XMLID_459_" class="st0" d="M37.4,1.6v2c0,0.1,0,0.2,0.1,0.3S37.6,4,37.7,4c0.1,0,0.2,0,0.2,0s0.1,0,0.2-0.1l0,0.4
		c-0.1,0-0.2,0.1-0.3,0.1c-0.1,0-0.2,0-0.3,0c-0.2,0-0.3-0.1-0.4-0.2C37,4.2,36.9,4,36.9,3.7V1.6h-0.4V1.2h0.4v-1L37.4,0v1.2h0.8
		v0.4H37.4z"/>
	<path id="XMLID_456_" class="st0" d="M42.9,4.4V4c-0.1,0.1-0.2,0.2-0.4,0.3c-0.2,0.1-0.3,0.1-0.6,0.1c-0.1,0-0.2,0-0.4-0.1
		c-0.1,0-0.2-0.1-0.3-0.2C41.1,4.1,41,4,41,3.9c-0.1-0.1-0.1-0.3-0.1-0.5c0-0.2,0-0.3,0.1-0.5c0.1-0.1,0.2-0.2,0.3-0.3
		c0.1-0.1,0.2-0.1,0.4-0.2s0.3-0.1,0.5-0.1c0.2,0,0.3,0,0.4,0.1c0.1,0,0.2,0.1,0.3,0.1V2.2c0-0.5-0.2-0.7-0.7-0.7
		c-0.2,0-0.3,0-0.5,0.1c-0.1,0-0.3,0.1-0.4,0.2l-0.2-0.4c0.1-0.1,0.3-0.1,0.5-0.2c0.2,0,0.4-0.1,0.6-0.1c0.3,0,0.6,0.1,0.8,0.2
		s0.3,0.4,0.3,0.8v2.2H42.9z M42.9,2.9c-0.1-0.1-0.2-0.1-0.3-0.1c-0.1,0-0.3,0-0.5,0c-0.2,0-0.4,0.1-0.5,0.2s-0.2,0.3-0.2,0.5
		c0,0.2,0.1,0.4,0.2,0.5s0.3,0.2,0.5,0.2c0.2,0,0.4,0,0.5-0.1c0.2-0.1,0.3-0.2,0.4-0.3V2.9z"/>
	<path id="XMLID_454_" class="st0" d="M44.5,4.4V0.3L45,0v4.4H44.5z"/>
	<path id="XMLID_452_" class="st0" d="M46.9,4c0,0.1,0,0.2-0.1,0.3c-0.1,0.1-0.2,0.1-0.3,0.1s-0.2,0-0.3-0.1
		c-0.1-0.1-0.1-0.2-0.1-0.3s0-0.2,0.1-0.3c0.1-0.1,0.2-0.1,0.3-0.1s0.2,0,0.3,0.1C46.8,3.8,46.9,3.9,46.9,4z"/>
	<path id="XMLID_450_" class="st0" d="M48.5,4c0,0.1,0,0.2-0.1,0.3c-0.1,0.1-0.2,0.1-0.3,0.1s-0.2,0-0.3-0.1
		c-0.1-0.1-0.1-0.2-0.1-0.3s0-0.2,0.1-0.3c0.1-0.1,0.2-0.1,0.3-0.1s0.2,0,0.3,0.1C48.5,3.8,48.5,3.9,48.5,4z"/>
	<path id="XMLID_448_" class="st0" d="M51.4,4.4V0.2h0.5v3.8H54v0.4H51.4z"/>
	<path id="XMLID_445_" class="st0" d="M57.4,2.7c0,0.1,0,0.1,0,0.1s0,0.1,0,0.1h-2.1c0,0.3,0.1,0.6,0.3,0.8S55.9,4,56.1,4
		c0.2,0,0.3,0,0.5-0.1c0.1-0.1,0.3-0.1,0.4-0.2l0.2,0.3C57.1,4.1,57,4.2,57,4.2c-0.1,0-0.2,0.1-0.3,0.1s-0.2,0.1-0.3,0.1
		s-0.2,0-0.3,0c-0.1,0-0.3,0-0.4-0.1s-0.3-0.1-0.4-0.3c-0.1-0.1-0.2-0.3-0.3-0.5c-0.1-0.2-0.1-0.5-0.1-0.8c0-0.3,0-0.5,0.1-0.7
		s0.2-0.4,0.3-0.5c0.1-0.1,0.3-0.2,0.4-0.3c0.2-0.1,0.3-0.1,0.5-0.1c0.2,0,0.4,0,0.5,0.1c0.2,0.1,0.3,0.2,0.4,0.3
		c0.1,0.1,0.2,0.3,0.2,0.5C57.3,2.3,57.4,2.5,57.4,2.7z M57,2.6c0-0.3-0.1-0.6-0.2-0.8c-0.1-0.2-0.3-0.3-0.6-0.3
		c-0.2,0-0.4,0.1-0.6,0.3c-0.1,0.2-0.2,0.4-0.3,0.8H57z"/>
	<path id="XMLID_443_" class="st0" d="M59.6,4.4h-0.4l-1.1-3.1h0.5l0.8,2.5l0,0.1l0-0.1l0.8-2.5h0.5L59.6,4.4z"/>
	<path id="XMLID_440_" class="st0" d="M64,2.7c0,0.1,0,0.1,0,0.1s0,0.1,0,0.1h-2.1c0,0.3,0.1,0.6,0.3,0.8S62.5,4,62.7,4
		c0.2,0,0.3,0,0.5-0.1c0.1-0.1,0.3-0.1,0.4-0.2l0.2,0.3c-0.1,0.1-0.2,0.1-0.3,0.2c-0.1,0-0.2,0.1-0.3,0.1S63.1,4.4,63,4.4
		s-0.2,0-0.3,0c-0.1,0-0.3,0-0.4-0.1S62,4.2,61.8,4.1c-0.1-0.1-0.2-0.3-0.3-0.5c-0.1-0.2-0.1-0.5-0.1-0.8c0-0.3,0-0.5,0.1-0.7
		s0.2-0.4,0.3-0.5c0.1-0.1,0.3-0.2,0.4-0.3c0.2-0.1,0.3-0.1,0.5-0.1c0.2,0,0.4,0,0.5,0.1c0.2,0.1,0.3,0.2,0.4,0.3
		c0.1,0.1,0.2,0.3,0.2,0.5C63.9,2.3,64,2.5,64,2.7z M63.6,2.6c0-0.3-0.1-0.6-0.2-0.8c-0.1-0.2-0.3-0.3-0.6-0.3
		c-0.2,0-0.4,0.1-0.6,0.3C62,2,61.9,2.2,61.9,2.6H63.6z"/>
	<path id="XMLID_438_" class="st0" d="M65.6,1.6v2c0,0.1,0,0.2,0.1,0.3S65.8,4,65.9,4c0.1,0,0.2,0,0.2,0s0.1,0,0.2-0.1l0,0.4
		c-0.1,0-0.2,0.1-0.3,0.1c-0.1,0-0.2,0-0.3,0c-0.2,0-0.3-0.1-0.4-0.2c-0.1-0.1-0.2-0.3-0.2-0.6V1.6h-0.4V1.2h0.4v-1L65.6,0v1.2h0.8
		v0.4H65.6z"/>
	<path id="XMLID_435_" class="st0" d="M68,0.3c0,0.1,0,0.2-0.1,0.2c-0.1,0.1-0.1,0.1-0.2,0.1c-0.1,0-0.2,0-0.2-0.1s-0.1-0.1-0.1-0.2
		c0-0.1,0-0.2,0.1-0.2S67.6,0,67.7,0c0.1,0,0.2,0,0.2,0.1C68,0.2,68,0.2,68,0.3z M67.5,4.4V1.2h0.5v3.1H67.5z"/>
	<path id="XMLID_433_" class="st0" d="M70.8,1.7c-0.1,0-0.1-0.1-0.2-0.1c-0.1,0-0.2,0-0.3,0c-0.2,0-0.4,0.1-0.5,0.3
		c-0.1,0.2-0.2,0.4-0.2,0.7v1.8h-0.5V1.2h0.5v0.4c0.1-0.1,0.2-0.2,0.3-0.3c0.1-0.1,0.3-0.1,0.5-0.1c0.1,0,0.2,0,0.3,0
		c0.1,0,0.1,0,0.2,0.1L70.8,1.7z"/>
	<path id="XMLID_430_" class="st0" d="M73.5,4.4V4c-0.1,0.1-0.2,0.2-0.4,0.3c-0.2,0.1-0.3,0.1-0.6,0.1c-0.1,0-0.2,0-0.4-0.1
		c-0.1,0-0.2-0.1-0.3-0.2c-0.1-0.1-0.2-0.2-0.2-0.3c-0.1-0.1-0.1-0.3-0.1-0.5c0-0.2,0-0.3,0.1-0.5c0.1-0.1,0.2-0.2,0.3-0.3
		c0.1-0.1,0.2-0.1,0.4-0.2s0.3-0.1,0.5-0.1c0.2,0,0.3,0,0.4,0.1c0.1,0,0.2,0.1,0.3,0.1V2.2c0-0.5-0.2-0.7-0.7-0.7
		c-0.2,0-0.3,0-0.5,0.1c-0.1,0-0.3,0.1-0.4,0.2l-0.2-0.4c0.1-0.1,0.3-0.1,0.5-0.2c0.2,0,0.4-0.1,0.6-0.1c0.3,0,0.6,0.1,0.8,0.2
		s0.3,0.4,0.3,0.8v2.2H73.5z M73.5,2.9c-0.1-0.1-0.2-0.1-0.3-0.1c-0.1,0-0.3,0-0.5,0c-0.2,0-0.4,0.1-0.5,0.2s-0.2,0.3-0.2,0.5
		c0,0.2,0.1,0.4,0.2,0.5s0.3,0.2,0.5,0.2c0.2,0,0.4,0,0.5-0.1c0.2-0.1,0.3-0.2,0.4-0.3V2.9z"/>
	<path id="XMLID_428_" class="st0" d="M77,1.9c-0.1-0.1-0.2-0.2-0.3-0.2s-0.3-0.1-0.4-0.1c-0.1,0-0.2,0-0.3,0.1s-0.2,0.1-0.3,0.2
		c-0.1,0.1-0.1,0.2-0.2,0.4c0,0.2-0.1,0.3-0.1,0.5c0,0.4,0.1,0.7,0.2,0.9C75.8,3.9,76,4,76.3,4c0.2,0,0.3,0,0.4-0.1s0.2-0.1,0.3-0.2
		L77.3,4c-0.1,0.1-0.3,0.2-0.4,0.3s-0.3,0.1-0.6,0.1c-0.2,0-0.3,0-0.5-0.1c-0.2-0.1-0.3-0.2-0.4-0.3c-0.1-0.1-0.2-0.3-0.3-0.5
		C75,3.3,75,3.1,75,2.8c0-0.3,0-0.5,0.1-0.7c0.1-0.2,0.2-0.4,0.3-0.5c0.1-0.1,0.3-0.2,0.4-0.3s0.3-0.1,0.5-0.1c0.2,0,0.4,0,0.6,0.1
		c0.2,0.1,0.3,0.2,0.4,0.3L77,1.9z"/>
	<path id="XMLID_425_" class="st0" d="M80.6,2.7c0,0.1,0,0.1,0,0.1s0,0.1,0,0.1h-2.1c0,0.3,0.1,0.6,0.3,0.8S79.1,4,79.4,4
		c0.2,0,0.3,0,0.5-0.1c0.1-0.1,0.3-0.1,0.4-0.2l0.2,0.3c-0.1,0.1-0.2,0.1-0.3,0.2c-0.1,0-0.2,0.1-0.3,0.1s-0.2,0.1-0.3,0.1
		s-0.2,0-0.3,0c-0.1,0-0.3,0-0.4-0.1s-0.3-0.1-0.4-0.3c-0.1-0.1-0.2-0.3-0.3-0.5C78.1,3.3,78,3.1,78,2.8c0-0.3,0-0.5,0.1-0.7
		s0.2-0.4,0.3-0.5c0.1-0.1,0.3-0.2,0.4-0.3c0.2-0.1,0.3-0.1,0.5-0.1c0.2,0,0.4,0,0.5,0.1c0.2,0.1,0.3,0.2,0.4,0.3
		c0.1,0.1,0.2,0.3,0.2,0.5C80.6,2.3,80.6,2.5,80.6,2.7z M80.2,2.6c0-0.3-0.1-0.6-0.2-0.8c-0.1-0.2-0.3-0.3-0.6-0.3
		c-0.2,0-0.4,0.1-0.6,0.3c-0.1,0.2-0.2,0.4-0.3,0.8H80.2z"/>
	<path id="XMLID_423_" class="st0" d="M82.2,1.6v2c0,0.1,0,0.2,0.1,0.3S82.4,4,82.5,4c0.1,0,0.2,0,0.2,0s0.1,0,0.2-0.1l0,0.4
		c-0.1,0-0.2,0.1-0.3,0.1c-0.1,0-0.2,0-0.3,0c-0.2,0-0.3-0.1-0.4-0.2c-0.1-0.1-0.2-0.3-0.2-0.6V1.6h-0.4V1.2h0.4v-1L82.2,0v1.2H83
		v0.4H82.2z"/>
	<path id="XMLID_419_" class="st0" d="M87,3.1c0,0.4-0.1,0.7-0.3,0.9c-0.2,0.2-0.6,0.3-1,0.3h-1.5V0.2h1.5c0.2,0,0.3,0,0.5,0.1
		c0.1,0,0.3,0.1,0.4,0.2c0.1,0.1,0.2,0.2,0.2,0.3c0.1,0.1,0.1,0.3,0.1,0.5c0,0.2-0.1,0.4-0.2,0.6c-0.1,0.1-0.3,0.2-0.4,0.3
		c0.1,0,0.2,0.1,0.3,0.1s0.2,0.1,0.3,0.2c0.1,0.1,0.1,0.2,0.2,0.3C87,2.8,87,2.9,87,3.1z M86.3,1.2c0-0.2-0.1-0.3-0.2-0.5
		s-0.3-0.2-0.5-0.2h-1v1.3h1c0.3,0,0.4-0.1,0.6-0.2S86.3,1.4,86.3,1.2z M86.5,3.1c0-0.3-0.1-0.5-0.2-0.6c-0.2-0.1-0.4-0.2-0.7-0.2
		h-1v1.6h1.1c0.3,0,0.5-0.1,0.7-0.2C86.5,3.6,86.5,3.4,86.5,3.1z"/>
	<path id="XMLID_417_" class="st0" d="M91.7,4.4V2.5c0-0.4-0.1-0.6-0.2-0.8c-0.1-0.1-0.3-0.2-0.5-0.2c-0.2,0-0.4,0.1-0.5,0.2
		c-0.1,0.2-0.2,0.4-0.2,0.8v1.8h-0.5V2.5c0-0.4-0.1-0.6-0.2-0.8c-0.1-0.1-0.3-0.2-0.5-0.2c-0.2,0-0.4,0.1-0.5,0.2s-0.2,0.4-0.2,0.8
		v1.8h-0.5V1.2h0.5l0,0.4c0.1-0.1,0.2-0.2,0.3-0.3c0.1-0.1,0.3-0.1,0.5-0.1c0.2,0,0.4,0.1,0.5,0.2c0.1,0.1,0.2,0.2,0.3,0.4
		c0-0.1,0.1-0.1,0.2-0.2s0.1-0.1,0.2-0.2c0.1,0,0.2-0.1,0.3-0.1c0.1,0,0.2,0,0.3,0c0.3,0,0.6,0.1,0.8,0.3c0.2,0.2,0.3,0.5,0.3,1v1.9
		H91.7z"/>
	<path id="XMLID_414_" class="st0" d="M97,4.4V4c-0.1,0.1-0.2,0.2-0.4,0.3c-0.2,0.1-0.3,0.1-0.6,0.1c-0.1,0-0.2,0-0.4-0.1
		c-0.1,0-0.2-0.1-0.3-0.2c-0.1-0.1-0.2-0.2-0.2-0.3C95,3.8,95,3.6,95,3.4c0-0.2,0-0.3,0.1-0.5c0.1-0.1,0.2-0.2,0.3-0.3
		c0.1-0.1,0.2-0.1,0.4-0.2s0.3-0.1,0.5-0.1c0.2,0,0.3,0,0.4,0.1c0.1,0,0.2,0.1,0.3,0.1V2.2c0-0.5-0.2-0.7-0.7-0.7
		c-0.2,0-0.3,0-0.5,0.1c-0.1,0-0.3,0.1-0.4,0.2l-0.2-0.4c0.1-0.1,0.3-0.1,0.5-0.2c0.2,0,0.4-0.1,0.6-0.1c0.3,0,0.6,0.1,0.8,0.2
		s0.3,0.4,0.3,0.8v2.2H97z M97,2.9c-0.1-0.1-0.2-0.1-0.3-0.1c-0.1,0-0.3,0-0.5,0c-0.2,0-0.4,0.1-0.5,0.2s-0.2,0.3-0.2,0.5
		c0,0.2,0.1,0.4,0.2,0.5s0.3,0.2,0.5,0.2c0.2,0,0.4,0,0.5-0.1c0.2-0.1,0.3-0.2,0.4-0.3V2.9z"/>
	<path id="XMLID_412_" class="st0" d="M100.6,3.5c0,0.2,0,0.3-0.1,0.4c-0.1,0.1-0.1,0.2-0.2,0.3c-0.1,0.1-0.2,0.1-0.3,0.2
		c-0.1,0-0.3,0.1-0.4,0.1c-0.2,0-0.4,0-0.6-0.1c-0.2-0.1-0.4-0.2-0.5-0.3l0.3-0.3c0.1,0.1,0.3,0.2,0.4,0.3C99.2,4,99.3,4,99.5,4
		c0.2,0,0.4,0,0.5-0.1c0.1-0.1,0.2-0.2,0.2-0.4c0-0.1,0-0.1,0-0.2c0-0.1-0.1-0.1-0.1-0.2s-0.1-0.1-0.2-0.1S99.5,3,99.4,2.9
		c-0.2-0.1-0.3-0.1-0.4-0.2c-0.1-0.1-0.2-0.1-0.3-0.2c-0.1-0.1-0.1-0.2-0.2-0.2c0-0.1-0.1-0.2-0.1-0.3c0-0.1,0-0.2,0.1-0.3
		s0.1-0.2,0.2-0.3c0.1-0.1,0.2-0.1,0.3-0.2c0.1,0,0.3-0.1,0.4-0.1c0.2,0,0.4,0,0.6,0.1s0.3,0.1,0.4,0.2l-0.3,0.3
		c-0.1-0.1-0.2-0.2-0.4-0.2c-0.1,0-0.3-0.1-0.4-0.1s-0.3,0-0.4,0.1c-0.1,0.1-0.1,0.2-0.1,0.3c0,0.1,0,0.1,0,0.2s0.1,0.1,0.1,0.1
		s0.1,0.1,0.2,0.1c0.1,0,0.2,0.1,0.3,0.2c0.1,0.1,0.3,0.1,0.4,0.2s0.2,0.1,0.3,0.2c0.1,0.1,0.1,0.2,0.2,0.3
		C100.5,3.3,100.6,3.4,100.6,3.5z"/>
	<path id="XMLID_409_" class="st0" d="M106.2,4.4l-0.4-1.1h-1.7l-0.4,1.1h-0.5l1.5-4.2h0.5l1.5,4.2H106.2z M105.2,1.5
		c0-0.1,0-0.1-0.1-0.2c0-0.1-0.1-0.2-0.1-0.2c0-0.1,0-0.1-0.1-0.2c0-0.1,0-0.1,0-0.2c0,0,0,0.1,0,0.2c0,0.1,0,0.1-0.1,0.2
		c0,0.1,0,0.2-0.1,0.2c0,0.1-0.1,0.2-0.1,0.2l-0.5,1.4h1.4L105.2,1.5z"/>
	<path id="XMLID_406_" class="st0" d="M109.6,4.4V4c-0.1,0.1-0.2,0.2-0.4,0.3c-0.2,0.1-0.3,0.1-0.5,0.1c-0.2,0-0.3,0-0.4-0.1
		c-0.1-0.1-0.3-0.2-0.4-0.3c-0.1-0.1-0.2-0.3-0.2-0.5s-0.1-0.4-0.1-0.7c0-0.3,0-0.5,0.1-0.7s0.1-0.4,0.3-0.5s0.2-0.2,0.4-0.3
		s0.3-0.1,0.5-0.1c0.2,0,0.4,0,0.5,0.1c0.1,0.1,0.3,0.2,0.4,0.3V0.3L110,0v4.4H109.6z M109.6,2c-0.1-0.1-0.2-0.2-0.3-0.3
		c-0.1-0.1-0.3-0.1-0.5-0.1c-0.3,0-0.5,0.1-0.6,0.3c-0.1,0.2-0.2,0.5-0.2,1c0,0.4,0.1,0.7,0.2,0.9c0.1,0.2,0.3,0.3,0.6,0.3
		c0.2,0,0.3,0,0.5-0.1c0.1-0.1,0.3-0.2,0.4-0.3V2z"/>
	<path id="XMLID_403_" class="st0" d="M113.1,4.4V4c-0.1,0.1-0.2,0.2-0.4,0.3c-0.2,0.1-0.3,0.1-0.5,0.1c-0.2,0-0.3,0-0.4-0.1
		c-0.1-0.1-0.3-0.2-0.4-0.3c-0.1-0.1-0.2-0.3-0.2-0.5s-0.1-0.4-0.1-0.7c0-0.3,0-0.5,0.1-0.7s0.1-0.4,0.3-0.5s0.2-0.2,0.4-0.3
		s0.3-0.1,0.5-0.1c0.2,0,0.4,0,0.5,0.1c0.1,0.1,0.3,0.2,0.4,0.3V0.3l0.5-0.3v4.4H113.1z M113.1,2c-0.1-0.1-0.2-0.2-0.3-0.3
		c-0.1-0.1-0.3-0.1-0.5-0.1c-0.3,0-0.5,0.1-0.6,0.3c-0.1,0.2-0.2,0.5-0.2,1c0,0.4,0.1,0.7,0.2,0.9c0.1,0.2,0.3,0.3,0.6,0.3
		c0.2,0,0.3,0,0.5-0.1c0.1-0.1,0.3-0.2,0.4-0.3V2z"/>
	<path id="XMLID_401_" class="st0" d="M117,2.4c-0.1,0.1-0.3,0.2-0.5,0.2c-0.1,0-0.2,0-0.3-0.1c-0.1,0-0.2-0.1-0.3-0.1
		c-0.1-0.1-0.2-0.1-0.3-0.2c-0.1,0-0.1-0.1-0.2-0.1c-0.1,0-0.2,0-0.3,0.1S115,2.5,115,2.6l-0.4-0.2c0.1-0.3,0.2-0.4,0.3-0.6
		c0.1-0.1,0.3-0.2,0.5-0.2c0.1,0,0.2,0,0.3,0.1c0.1,0,0.2,0.1,0.3,0.1c0.1,0.1,0.2,0.1,0.3,0.2c0.1,0,0.2,0.1,0.2,0.1
		c0.1,0,0.2,0,0.3-0.1c0.1-0.1,0.1-0.2,0.2-0.4l0.4,0.2C117.2,2.1,117.1,2.3,117,2.4z"/>
	<path id="XMLID_398_" class="st0" d="M121.7,2.3c0,0.3,0,0.6-0.1,0.9c-0.1,0.3-0.2,0.5-0.4,0.7c-0.2,0.2-0.3,0.3-0.6,0.4
		c-0.2,0.1-0.5,0.2-0.7,0.2s-0.5-0.1-0.7-0.2s-0.4-0.3-0.5-0.4c-0.2-0.2-0.3-0.4-0.3-0.7c-0.1-0.3-0.1-0.6-0.1-0.9s0-0.6,0.1-0.9
		c0.1-0.3,0.2-0.5,0.4-0.7c0.2-0.2,0.3-0.3,0.5-0.4s0.5-0.2,0.7-0.2s0.5,0.1,0.7,0.2s0.4,0.3,0.5,0.4c0.2,0.2,0.3,0.4,0.4,0.7
		C121.6,1.7,121.7,1.9,121.7,2.3z M121.2,2.3c0-0.3,0-0.5-0.1-0.7c-0.1-0.2-0.2-0.4-0.3-0.5s-0.3-0.3-0.4-0.4
		c-0.2-0.1-0.3-0.1-0.5-0.1c-0.2,0-0.3,0-0.5,0.1c-0.2,0.1-0.3,0.2-0.4,0.3s-0.2,0.3-0.3,0.5s-0.1,0.5-0.1,0.7s0,0.5,0.1,0.7
		s0.2,0.4,0.3,0.5s0.2,0.3,0.4,0.4C119.6,4,119.8,4,120,4c0.2,0,0.3,0,0.5-0.1c0.2-0.1,0.3-0.2,0.4-0.3c0.1-0.1,0.2-0.3,0.3-0.5
		C121.2,2.8,121.2,2.5,121.2,2.3z"/>
	<path id="XMLID_396_" class="st0" d="M124.8,4.4V2.5c0-0.3-0.1-0.6-0.2-0.7c-0.1-0.2-0.3-0.2-0.6-0.2c-0.2,0-0.4,0.1-0.6,0.2
		c-0.1,0.2-0.2,0.4-0.2,0.7v1.8h-0.5V1.2h0.5l0,0.4c0.1-0.1,0.2-0.2,0.4-0.3c0.1-0.1,0.3-0.1,0.5-0.1c0.2,0,0.3,0,0.5,0.1
		s0.3,0.1,0.3,0.2s0.2,0.2,0.2,0.4s0.1,0.4,0.1,0.6v1.9H124.8z"/>
	<path id="XMLID_394_" class="st0" d="M128.8,1.6v2c0,0.1,0,0.2,0.1,0.3S129,4,129.1,4c0.1,0,0.2,0,0.2,0s0.1,0,0.2-0.1l0,0.4
		c-0.1,0-0.2,0.1-0.3,0.1c-0.1,0-0.2,0-0.3,0c-0.2,0-0.3-0.1-0.4-0.2c-0.1-0.1-0.2-0.3-0.2-0.6V1.6h-0.4V1.2h0.4v-1l0.5-0.3v1.2h0.8
		v0.4H128.8z"/>
	<path id="XMLID_392_" class="st0" d="M132.6,4.4V2.5c0-0.3-0.1-0.6-0.2-0.7c-0.1-0.2-0.3-0.2-0.6-0.2c-0.2,0-0.4,0.1-0.6,0.2
		c-0.1,0.2-0.2,0.4-0.2,0.7v1.8h-0.5V0.3l0.5-0.3l0,1.6c0.1-0.1,0.2-0.2,0.4-0.3c0.1-0.1,0.3-0.1,0.5-0.1c0.2,0,0.3,0,0.5,0.1
		s0.3,0.1,0.3,0.2s0.2,0.2,0.2,0.4s0.1,0.4,0.1,0.6v1.9H132.6z"/>
	<path id="XMLID_389_" class="st0" d="M136.7,2.7c0,0.1,0,0.1,0,0.1s0,0.1,0,0.1h-2.1c0,0.3,0.1,0.6,0.3,0.8s0.4,0.3,0.6,0.3
		c0.2,0,0.3,0,0.5-0.1c0.1-0.1,0.3-0.1,0.4-0.2l0.2,0.3c-0.1,0.1-0.2,0.1-0.3,0.2c-0.1,0-0.2,0.1-0.3,0.1s-0.2,0.1-0.3,0.1
		s-0.2,0-0.3,0c-0.1,0-0.3,0-0.4-0.1s-0.3-0.1-0.4-0.3c-0.1-0.1-0.2-0.3-0.3-0.5c-0.1-0.2-0.1-0.5-0.1-0.8c0-0.3,0-0.5,0.1-0.7
		s0.2-0.4,0.3-0.5c0.1-0.1,0.3-0.2,0.4-0.3c0.2-0.1,0.3-0.1,0.5-0.1c0.2,0,0.4,0,0.5,0.1c0.2,0.1,0.3,0.2,0.4,0.3
		c0.1,0.1,0.2,0.3,0.2,0.5C136.6,2.3,136.7,2.5,136.7,2.7z M136.3,2.6c0-0.3-0.1-0.6-0.2-0.8c-0.1-0.2-0.3-0.3-0.6-0.3
		c-0.2,0-0.4,0.1-0.6,0.3c-0.1,0.2-0.2,0.4-0.3,0.8H136.3z"/>
	<path id="XMLID_387_" class="st0" d="M139.4,1.7c-0.1,0-0.1-0.1-0.2-0.1c-0.1,0-0.2,0-0.3,0c-0.2,0-0.4,0.1-0.5,0.3
		c-0.1,0.2-0.2,0.4-0.2,0.7v1.8h-0.5V1.2h0.5v0.4c0.1-0.1,0.2-0.2,0.3-0.3c0.1-0.1,0.3-0.1,0.5-0.1c0.1,0,0.2,0,0.3,0
		c0.1,0,0.1,0,0.2,0.1L139.4,1.7z"/>
	<path id="XMLID_384_" class="st0" d="M142,4.4V4c-0.1,0.1-0.2,0.2-0.4,0.3c-0.2,0.1-0.3,0.1-0.6,0.1c-0.1,0-0.2,0-0.4-0.1
		c-0.1,0-0.2-0.1-0.3-0.2c-0.1-0.1-0.2-0.2-0.2-0.3c-0.1-0.1-0.1-0.3-0.1-0.5c0-0.2,0-0.3,0.1-0.5c0.1-0.1,0.2-0.2,0.3-0.3
		c0.1-0.1,0.2-0.1,0.4-0.2s0.3-0.1,0.5-0.1c0.2,0,0.3,0,0.4,0.1c0.1,0,0.2,0.1,0.3,0.1V2.2c0-0.5-0.2-0.7-0.7-0.7
		c-0.2,0-0.3,0-0.5,0.1c-0.1,0-0.3,0.1-0.4,0.2l-0.2-0.4c0.1-0.1,0.3-0.1,0.5-0.2c0.2,0,0.4-0.1,0.6-0.1c0.3,0,0.6,0.1,0.8,0.2
		s0.3,0.4,0.3,0.8v2.2H142z M142,2.9c-0.1-0.1-0.2-0.1-0.3-0.1c-0.1,0-0.3,0-0.5,0c-0.2,0-0.4,0.1-0.5,0.2s-0.2,0.3-0.2,0.5
		c0,0.2,0.1,0.4,0.2,0.5s0.3,0.2,0.5,0.2c0.2,0,0.4,0,0.5-0.1c0.2-0.1,0.3-0.2,0.4-0.3V2.9z"/>
	<path id="XMLID_381_" class="st0" d="M146.2,2.7c0,0.3,0,0.5-0.1,0.7s-0.1,0.4-0.3,0.5s-0.2,0.2-0.4,0.3c-0.1,0.1-0.3,0.1-0.5,0.1
		c-0.2,0-0.4,0-0.5-0.1s-0.3-0.2-0.4-0.3v1.3l-0.5,0.3V1.2h0.5l0,0.4c0.1-0.1,0.2-0.2,0.4-0.3c0.2-0.1,0.3-0.1,0.5-0.1
		c0.2,0,0.3,0,0.4,0.1c0.1,0.1,0.3,0.2,0.4,0.3c0.1,0.1,0.2,0.3,0.2,0.5C146.2,2.2,146.2,2.5,146.2,2.7z M145.7,2.7
		c0-0.4-0.1-0.7-0.2-0.9c-0.1-0.2-0.3-0.3-0.6-0.3c-0.2,0-0.3,0-0.5,0.1s-0.3,0.2-0.4,0.3v1.6c0.1,0.1,0.2,0.2,0.3,0.3
		C144.6,4,144.8,4,145,4c0.3,0,0.5-0.1,0.6-0.3S145.7,3.2,145.7,2.7z"/>
	<path id="XMLID_379_" class="st0" d="M148,5.5h-0.4l0.4-1.1l-1.1-3.1h0.5l0.8,2.3l0.1,0.3l0.1-0.3l0.8-2.3h0.5L148,5.5z"/>
	<path id="XMLID_377_" class="st0" d="M153.3,0.4c-0.1,0-0.2,0-0.2,0.1S153,0.6,153,0.8v0.5h0.6v0.4H153v2.8h-0.5V1.6h-0.4V1.2h0.4
		V0.8c0-0.3,0.1-0.5,0.2-0.6c0.1-0.1,0.3-0.2,0.5-0.2c0.1,0,0.2,0,0.2,0c0.1,0,0.1,0,0.2,0v0.4C153.6,0.4,153.5,0.4,153.3,0.4z"/>
	<path id="XMLID_374_" class="st0" d="M157.1,2.8c0,0.3,0,0.5-0.1,0.7s-0.2,0.4-0.3,0.5c-0.1,0.1-0.3,0.2-0.4,0.3
		c-0.2,0.1-0.3,0.1-0.5,0.1s-0.4,0-0.5-0.1c-0.2-0.1-0.3-0.2-0.4-0.3c-0.1-0.1-0.2-0.3-0.3-0.5c-0.1-0.2-0.1-0.4-0.1-0.7
		s0-0.5,0.1-0.7c0.1-0.2,0.2-0.4,0.3-0.5c0.1-0.1,0.3-0.2,0.4-0.3c0.2-0.1,0.3-0.1,0.5-0.1s0.4,0,0.5,0.1c0.2,0.1,0.3,0.2,0.4,0.3
		c0.1,0.1,0.2,0.3,0.3,0.5C157.1,2.3,157.1,2.5,157.1,2.8z M156.7,2.8c0-0.4-0.1-0.7-0.3-0.9s-0.4-0.3-0.7-0.3s-0.5,0.1-0.7,0.3
		c-0.2,0.2-0.2,0.5-0.2,0.9s0.1,0.7,0.2,0.9c0.2,0.2,0.4,0.3,0.7,0.3s0.5-0.1,0.7-0.3S156.7,3.2,156.7,2.8z"/>
	<path id="XMLID_372_" class="st0" d="M159.8,1.7c-0.1,0-0.1-0.1-0.2-0.1c-0.1,0-0.2,0-0.3,0c-0.2,0-0.4,0.1-0.5,0.3
		c-0.1,0.2-0.2,0.4-0.2,0.7v1.8h-0.5V1.2h0.5v0.4c0.1-0.1,0.2-0.2,0.3-0.3c0.1-0.1,0.3-0.1,0.5-0.1c0.1,0,0.2,0,0.3,0
		c0.1,0,0.1,0,0.2,0.1L159.8,1.7z"/>
	<path id="XMLID_370_" class="st0" d="M162.7,4.4V0.2h0.5v4.2H162.7z"/>
	<path id="XMLID_367_" class="st0" d="M166.4,4.4V4c-0.1,0.1-0.2,0.2-0.4,0.3c-0.2,0.1-0.3,0.1-0.5,0.1c-0.2,0-0.3,0-0.4-0.1
		c-0.1-0.1-0.3-0.2-0.4-0.3c-0.1-0.1-0.2-0.3-0.2-0.5s-0.1-0.4-0.1-0.7c0-0.3,0-0.5,0.1-0.7s0.1-0.4,0.3-0.5s0.2-0.2,0.4-0.3
		s0.3-0.1,0.5-0.1c0.2,0,0.4,0,0.5,0.1c0.1,0.1,0.3,0.2,0.4,0.3V0.3l0.5-0.3v4.4H166.4z M166.4,2c-0.1-0.1-0.2-0.2-0.3-0.3
		c-0.1-0.1-0.3-0.1-0.5-0.1c-0.3,0-0.5,0.1-0.6,0.3c-0.1,0.2-0.2,0.5-0.2,1c0,0.4,0.1,0.7,0.2,0.9c0.1,0.2,0.3,0.3,0.6,0.3
		c0.2,0,0.3,0,0.5-0.1c0.1-0.1,0.3-0.2,0.4-0.3V2z"/>
	<path id="XMLID_364_" class="st0" d="M168.7,0.3c0,0.1,0,0.2-0.1,0.2c-0.1,0.1-0.1,0.1-0.2,0.1c-0.1,0-0.2,0-0.2-0.1
		S168,0.4,168,0.3c0-0.1,0-0.2,0.1-0.2s0.1-0.1,0.2-0.1c0.1,0,0.2,0,0.2,0.1C168.6,0.2,168.7,0.2,168.7,0.3z M168.1,4.4V1.2h0.5v3.1
		H168.1z"/>
	<path id="XMLID_361_" class="st0" d="M172.4,2.8c0,0.3,0,0.5-0.1,0.7S172.1,3.8,172,4c-0.1,0.1-0.3,0.2-0.4,0.3
		c-0.2,0.1-0.3,0.1-0.5,0.1s-0.4,0-0.5-0.1c-0.2-0.1-0.3-0.2-0.4-0.3c-0.1-0.1-0.2-0.3-0.3-0.5c-0.1-0.2-0.1-0.4-0.1-0.7
		s0-0.5,0.1-0.7c0.1-0.2,0.2-0.4,0.3-0.5c0.1-0.1,0.3-0.2,0.4-0.3c0.2-0.1,0.3-0.1,0.5-0.1s0.4,0,0.5,0.1c0.2,0.1,0.3,0.2,0.4,0.3
		c0.1,0.1,0.2,0.3,0.3,0.5C172.3,2.3,172.4,2.5,172.4,2.8z M171.9,2.8c0-0.4-0.1-0.7-0.3-0.9s-0.4-0.3-0.7-0.3s-0.5,0.1-0.7,0.3
		c-0.2,0.2-0.2,0.5-0.2,0.9s0.1,0.7,0.2,0.9c0.2,0.2,0.4,0.3,0.7,0.3s0.5-0.1,0.7-0.3S171.9,3.2,171.9,2.8z"/>
	<path id="XMLID_358_" class="st0" d="M176,2.7c0,0.3,0,0.5-0.1,0.7s-0.1,0.4-0.3,0.5s-0.2,0.2-0.4,0.3c-0.1,0.1-0.3,0.1-0.5,0.1
		c-0.2,0-0.4,0-0.5-0.1S174,4.1,173.9,4v1.3l-0.5,0.3V1.2h0.5l0,0.4c0.1-0.1,0.2-0.2,0.4-0.3c0.2-0.1,0.3-0.1,0.5-0.1
		c0.2,0,0.3,0,0.4,0.1c0.1,0.1,0.3,0.2,0.4,0.3c0.1,0.1,0.2,0.3,0.2,0.5C175.9,2.2,176,2.5,176,2.7z M175.5,2.7
		c0-0.4-0.1-0.7-0.2-0.9c-0.1-0.2-0.3-0.3-0.6-0.3c-0.2,0-0.3,0-0.5,0.1S174,1.9,173.9,2v1.6c0.1,0.1,0.2,0.2,0.3,0.3
		c0.1,0.1,0.3,0.1,0.5,0.1c0.3,0,0.5-0.1,0.6-0.3S175.5,3.2,175.5,2.7z"/>
	<path id="XMLID_355_" class="st0" d="M178.8,4.4V4c-0.1,0.1-0.2,0.2-0.4,0.3c-0.2,0.1-0.3,0.1-0.6,0.1c-0.1,0-0.2,0-0.4-0.1
		c-0.1,0-0.2-0.1-0.3-0.2c-0.1-0.1-0.2-0.2-0.2-0.3c-0.1-0.1-0.1-0.3-0.1-0.5c0-0.2,0-0.3,0.1-0.5c0.1-0.1,0.2-0.2,0.3-0.3
		c0.1-0.1,0.2-0.1,0.4-0.2s0.3-0.1,0.5-0.1c0.2,0,0.3,0,0.4,0.1c0.1,0,0.2,0.1,0.3,0.1V2.2c0-0.5-0.2-0.7-0.7-0.7
		c-0.2,0-0.3,0-0.5,0.1c-0.1,0-0.3,0.1-0.4,0.2l-0.2-0.4c0.1-0.1,0.3-0.1,0.5-0.2c0.2,0,0.4-0.1,0.6-0.1c0.3,0,0.6,0.1,0.8,0.2
		s0.3,0.4,0.3,0.8v2.2H178.8z M178.8,2.9c-0.1-0.1-0.2-0.1-0.3-0.1c-0.1,0-0.3,0-0.5,0c-0.2,0-0.4,0.1-0.5,0.2s-0.2,0.3-0.2,0.5
		c0,0.2,0.1,0.4,0.2,0.5s0.3,0.2,0.5,0.2c0.2,0,0.4,0,0.5-0.1c0.2-0.1,0.3-0.2,0.4-0.3V2.9z"/>
	<path id="XMLID_353_" class="st0" d="M181,1.6v2c0,0.1,0,0.2,0.1,0.3s0.1,0.1,0.2,0.1c0.1,0,0.2,0,0.2,0s0.1,0,0.2-0.1l0,0.4
		c-0.1,0-0.2,0.1-0.3,0.1c-0.1,0-0.2,0-0.3,0c-0.2,0-0.3-0.1-0.4-0.2c-0.1-0.1-0.2-0.3-0.2-0.6V1.6h-0.4V1.2h0.4v-1L181,0v1.2h0.8
		v0.4H181z"/>
	<path id="XMLID_351_" class="st0" d="M184.8,4.4V2.5c0-0.3-0.1-0.6-0.2-0.7c-0.1-0.2-0.3-0.2-0.6-0.2c-0.2,0-0.4,0.1-0.6,0.2
		c-0.1,0.2-0.2,0.4-0.2,0.7v1.8h-0.5V0.3l0.5-0.3l0,1.6c0.1-0.1,0.2-0.2,0.4-0.3c0.1-0.1,0.3-0.1,0.5-0.1c0.2,0,0.3,0,0.5,0.1
		s0.3,0.1,0.3,0.2s0.2,0.2,0.2,0.4s0.1,0.4,0.1,0.6v1.9H184.8z"/>
	<path id="XMLID_348_" class="st0" d="M187.1,0.3c0,0.1,0,0.2-0.1,0.2c-0.1,0.1-0.1,0.1-0.2,0.1c-0.1,0-0.2,0-0.2-0.1
		s-0.1-0.1-0.1-0.2c0-0.1,0-0.2,0.1-0.2s0.1-0.1,0.2-0.1c0.1,0,0.2,0,0.2,0.1C187.1,0.2,187.1,0.2,187.1,0.3z M186.5,4.4V1.2h0.5
		v3.1H186.5z"/>
	<path id="XMLID_346_" class="st0" d="M190.2,1.9c-0.1-0.1-0.2-0.2-0.3-0.2s-0.3-0.1-0.4-0.1c-0.1,0-0.2,0-0.3,0.1s-0.2,0.1-0.3,0.2
		c-0.1,0.1-0.1,0.2-0.2,0.4c0,0.2-0.1,0.3-0.1,0.5c0,0.4,0.1,0.7,0.2,0.9c0.2,0.2,0.4,0.3,0.7,0.3c0.2,0,0.3,0,0.4-0.1
		s0.2-0.1,0.3-0.2l0.3,0.3c-0.1,0.1-0.3,0.2-0.4,0.3s-0.3,0.1-0.6,0.1c-0.2,0-0.3,0-0.5-0.1c-0.2-0.1-0.3-0.2-0.4-0.3
		c-0.1-0.1-0.2-0.3-0.3-0.5c-0.1-0.2-0.1-0.4-0.1-0.7c0-0.3,0-0.5,0.1-0.7c0.1-0.2,0.2-0.4,0.3-0.5c0.1-0.1,0.3-0.2,0.4-0.3
		s0.3-0.1,0.5-0.1c0.2,0,0.4,0,0.6,0.1c0.2,0.1,0.3,0.2,0.4,0.3L190.2,1.9z"/>
	<path id="XMLID_344_" class="st0" d="M196.2,3.4c-0.1,0.2-0.2,0.4-0.3,0.5c-0.1,0.1-0.3,0.3-0.5,0.3c-0.2,0.1-0.4,0.1-0.6,0.1
		c-0.3,0-0.5-0.1-0.7-0.2s-0.4-0.3-0.5-0.5c-0.1-0.2-0.3-0.4-0.3-0.7c-0.1-0.3-0.1-0.5-0.1-0.9c0-0.3,0-0.6,0.1-0.9
		c0.1-0.3,0.2-0.5,0.3-0.7c0.1-0.2,0.3-0.3,0.5-0.5s0.4-0.2,0.7-0.2c0.6,0,1,0.2,1.3,0.7l-0.4,0.3c-0.1-0.2-0.3-0.3-0.4-0.4
		c-0.1-0.1-0.3-0.1-0.6-0.1c-0.2,0-0.3,0-0.5,0.1c-0.2,0.1-0.3,0.2-0.4,0.4s-0.2,0.3-0.3,0.5c-0.1,0.2-0.1,0.4-0.1,0.7
		s0,0.5,0.1,0.7s0.2,0.4,0.3,0.5s0.2,0.3,0.4,0.4c0.2,0.1,0.3,0.1,0.5,0.1c0.3,0,0.6-0.1,0.8-0.3c0.2-0.2,0.3-0.5,0.3-0.9v0h-0.8
		V2.3h1.2v0.4C196.3,3,196.3,3.2,196.2,3.4z"/>
	<path id="XMLID_341_" class="st0" d="M199.8,2.7c0,0.1,0,0.1,0,0.1s0,0.1,0,0.1h-2.1c0,0.3,0.1,0.6,0.3,0.8s0.4,0.3,0.6,0.3
		c0.2,0,0.3,0,0.5-0.1c0.1-0.1,0.3-0.1,0.4-0.2l0.2,0.3c-0.1,0.1-0.2,0.1-0.3,0.2c-0.1,0-0.2,0.1-0.3,0.1s-0.2,0.1-0.3,0.1
		s-0.2,0-0.3,0c-0.1,0-0.3,0-0.4-0.1s-0.3-0.1-0.4-0.3c-0.1-0.1-0.2-0.3-0.3-0.5c-0.1-0.2-0.1-0.5-0.1-0.8c0-0.3,0-0.5,0.1-0.7
		s0.2-0.4,0.3-0.5c0.1-0.1,0.3-0.2,0.4-0.3c0.2-0.1,0.3-0.1,0.5-0.1c0.2,0,0.4,0,0.5,0.1c0.2,0.1,0.3,0.2,0.4,0.3
		c0.1,0.1,0.2,0.3,0.2,0.5C199.8,2.3,199.8,2.5,199.8,2.7z M199.4,2.6c0-0.3-0.1-0.6-0.2-0.8c-0.1-0.2-0.3-0.3-0.6-0.3
		c-0.2,0-0.4,0.1-0.6,0.3c-0.1,0.2-0.2,0.4-0.3,0.8H199.4z"/>
	<path id="XMLID_339_" class="st0" d="M202.8,4.4V2.5c0-0.3-0.1-0.6-0.2-0.7c-0.1-0.2-0.3-0.2-0.6-0.2c-0.2,0-0.4,0.1-0.6,0.2
		c-0.1,0.2-0.2,0.4-0.2,0.7v1.8h-0.5V1.2h0.5l0,0.4c0.1-0.1,0.2-0.2,0.4-0.3c0.1-0.1,0.3-0.1,0.5-0.1c0.2,0,0.3,0,0.5,0.1
		s0.3,0.1,0.3,0.2s0.2,0.2,0.2,0.4s0.1,0.4,0.1,0.6v1.9H202.8z"/>
	<path id="XMLID_336_" class="st0" d="M206.9,2.7c0,0.1,0,0.1,0,0.1s0,0.1,0,0.1h-2.1c0,0.3,0.1,0.6,0.3,0.8s0.4,0.3,0.6,0.3
		c0.2,0,0.3,0,0.5-0.1c0.1-0.1,0.3-0.1,0.4-0.2l0.2,0.3c-0.1,0.1-0.2,0.1-0.3,0.2c-0.1,0-0.2,0.1-0.3,0.1s-0.2,0.1-0.3,0.1
		s-0.2,0-0.3,0c-0.1,0-0.3,0-0.4-0.1s-0.3-0.1-0.4-0.3c-0.1-0.1-0.2-0.3-0.3-0.5c-0.1-0.2-0.1-0.5-0.1-0.8c0-0.3,0-0.5,0.1-0.7
		s0.2-0.4,0.3-0.5c0.1-0.1,0.3-0.2,0.4-0.3c0.2-0.1,0.3-0.1,0.5-0.1c0.2,0,0.4,0,0.5,0.1c0.2,0.1,0.3,0.2,0.4,0.3
		c0.1,0.1,0.2,0.3,0.2,0.5C206.8,2.3,206.9,2.5,206.9,2.7z M206.5,2.6c0-0.3-0.1-0.6-0.2-0.8c-0.1-0.2-0.3-0.3-0.6-0.3
		c-0.2,0-0.4,0.1-0.6,0.3c-0.1,0.2-0.2,0.4-0.3,0.8H206.5z"/>
	<path id="XMLID_334_" class="st0" d="M209.6,1.7c-0.1,0-0.1-0.1-0.2-0.1c-0.1,0-0.2,0-0.3,0c-0.2,0-0.4,0.1-0.5,0.3
		c-0.1,0.2-0.2,0.4-0.2,0.7v1.8H208V1.2h0.5v0.4c0.1-0.1,0.2-0.2,0.3-0.3c0.1-0.1,0.3-0.1,0.5-0.1c0.1,0,0.2,0,0.3,0
		c0.1,0,0.1,0,0.2,0.1L209.6,1.7z"/>
	<path id="XMLID_331_" class="st0" d="M212.2,4.4V4c-0.1,0.1-0.2,0.2-0.4,0.3c-0.2,0.1-0.3,0.1-0.6,0.1c-0.1,0-0.2,0-0.4-0.1
		c-0.1,0-0.2-0.1-0.3-0.2c-0.1-0.1-0.2-0.2-0.2-0.3c-0.1-0.1-0.1-0.3-0.1-0.5c0-0.2,0-0.3,0.1-0.5c0.1-0.1,0.2-0.2,0.3-0.3
		c0.1-0.1,0.2-0.1,0.4-0.2s0.3-0.1,0.5-0.1c0.2,0,0.3,0,0.4,0.1c0.1,0,0.2,0.1,0.3,0.1V2.2c0-0.5-0.2-0.7-0.7-0.7
		c-0.2,0-0.3,0-0.5,0.1c-0.1,0-0.3,0.1-0.4,0.2l-0.2-0.4c0.1-0.1,0.3-0.1,0.5-0.2c0.2,0,0.4-0.1,0.6-0.1c0.3,0,0.6,0.1,0.8,0.2
		s0.3,0.4,0.3,0.8v2.2H212.2z M212.2,2.9c-0.1-0.1-0.2-0.1-0.3-0.1c-0.1,0-0.3,0-0.5,0c-0.2,0-0.4,0.1-0.5,0.2s-0.2,0.3-0.2,0.5
		c0,0.2,0.1,0.4,0.2,0.5s0.3,0.2,0.5,0.2c0.2,0,0.4,0,0.5-0.1c0.2-0.1,0.3-0.2,0.4-0.3V2.9z"/>
	<path id="XMLID_329_" class="st0" d="M213.9,4.4V0.3l0.5-0.3v4.4H213.9z"/>
	<path id="XMLID_326_" class="st0" d="M216.2,0.3c0,0.1,0,0.2-0.1,0.2c-0.1,0.1-0.1,0.1-0.2,0.1c-0.1,0-0.2,0-0.2-0.1
		s-0.1-0.1-0.1-0.2c0-0.1,0-0.2,0.1-0.2s0.1-0.1,0.2-0.1c0.1,0,0.2,0,0.2,0.1C216.2,0.2,216.2,0.2,216.2,0.3z M215.6,4.4V1.2h0.5
		v3.1H215.6z"/>
	<path id="XMLID_324_" class="st0" d="M217.2,4.4V4l1.7-2.4h-1.6V1.2h2.1v0.3L217.7,4h1.7v0.4H217.2z"/>
	<path id="XMLID_321_" class="st0" d="M222.8,2.7c0,0.1,0,0.1,0,0.1s0,0.1,0,0.1h-2.1c0,0.3,0.1,0.6,0.3,0.8s0.4,0.3,0.6,0.3
		c0.2,0,0.3,0,0.5-0.1c0.1-0.1,0.3-0.1,0.4-0.2l0.2,0.3c-0.1,0.1-0.2,0.1-0.3,0.2c-0.1,0-0.2,0.1-0.3,0.1s-0.2,0.1-0.3,0.1
		s-0.2,0-0.3,0c-0.1,0-0.3,0-0.4-0.1s-0.3-0.1-0.4-0.3c-0.1-0.1-0.2-0.3-0.3-0.5c-0.1-0.2-0.1-0.5-0.1-0.8c0-0.3,0-0.5,0.1-0.7
		s0.2-0.4,0.3-0.5c0.1-0.1,0.3-0.2,0.4-0.3c0.2-0.1,0.3-0.1,0.5-0.1c0.2,0,0.4,0,0.5,0.1c0.2,0.1,0.3,0.2,0.4,0.3
		c0.1,0.1,0.2,0.3,0.2,0.5C222.8,2.3,222.8,2.5,222.8,2.7z M222.4,2.6c0-0.3-0.1-0.6-0.2-0.8c-0.1-0.2-0.3-0.3-0.6-0.3
		c-0.2,0-0.4,0.1-0.6,0.3c-0.1,0.2-0.2,0.4-0.3,0.8H222.4z"/>
	<path id="XMLID_318_" class="st0" d="M225.8,4.4V4c-0.1,0.1-0.2,0.2-0.4,0.3c-0.2,0.1-0.3,0.1-0.5,0.1c-0.2,0-0.3,0-0.4-0.1
		c-0.1-0.1-0.3-0.2-0.4-0.3c-0.1-0.1-0.2-0.3-0.2-0.5s-0.1-0.4-0.1-0.7c0-0.3,0-0.5,0.1-0.7s0.1-0.4,0.3-0.5s0.2-0.2,0.4-0.3
		s0.3-0.1,0.5-0.1c0.2,0,0.4,0,0.5,0.1c0.1,0.1,0.3,0.2,0.4,0.3V0.3l0.5-0.3v4.4H225.8z M225.8,2c-0.1-0.1-0.2-0.2-0.3-0.3
		c-0.1-0.1-0.3-0.1-0.5-0.1c-0.3,0-0.5,0.1-0.6,0.3c-0.1,0.2-0.2,0.5-0.2,1c0,0.4,0.1,0.7,0.2,0.9c0.1,0.2,0.3,0.3,0.6,0.3
		c0.2,0,0.3,0,0.5-0.1c0.1-0.1,0.3-0.2,0.4-0.3V2z"/>
	<path id="XMLID_316_" class="st0" d="M229.3,4.4V0.2h2.5v0.4h-2.1v1.3h1.2v0.4h-1.2v1.6h2.1v0.4H229.3z"/>
	<path id="XMLID_313_" class="st0" d="M235.5,2.7c0,0.3,0,0.5-0.1,0.7s-0.1,0.4-0.3,0.5s-0.2,0.2-0.4,0.3c-0.1,0.1-0.3,0.1-0.5,0.1
		c-0.2,0-0.4,0-0.5-0.1s-0.3-0.2-0.4-0.3v1.3L233,5.5V1.2h0.5l0,0.4c0.1-0.1,0.2-0.2,0.4-0.3c0.2-0.1,0.3-0.1,0.5-0.1
		c0.2,0,0.3,0,0.4,0.1c0.1,0.1,0.3,0.2,0.4,0.3c0.1,0.1,0.2,0.3,0.2,0.5C235.5,2.2,235.5,2.5,235.5,2.7z M235.1,2.7
		c0-0.4-0.1-0.7-0.2-0.9c-0.1-0.2-0.3-0.3-0.6-0.3c-0.2,0-0.3,0-0.5,0.1s-0.3,0.2-0.4,0.3v1.6c0.1,0.1,0.2,0.2,0.3,0.3
		c0.1,0.1,0.3,0.1,0.5,0.1c0.3,0,0.5-0.1,0.6-0.3S235.1,3.2,235.1,2.7z"/>
	<path id="XMLID_310_" class="st0" d="M237.2,0.3c0,0.1,0,0.2-0.1,0.2c-0.1,0.1-0.1,0.1-0.2,0.1c-0.1,0-0.2,0-0.2-0.1
		s-0.1-0.1-0.1-0.2c0-0.1,0-0.2,0.1-0.2s0.1-0.1,0.2-0.1c0.1,0,0.2,0,0.2,0.1C237.1,0.2,237.2,0.2,237.2,0.3z M236.6,4.4V1.2h0.5
		v3.1H236.6z"/>
	<path id="XMLID_308_" class="st0" d="M238.3,4.4V0.3l0.5-0.3v4.4H238.3z"/>
	<path id="XMLID_305_" class="st0" d="M242.4,2.7c0,0.1,0,0.1,0,0.1s0,0.1,0,0.1h-2.1c0,0.3,0.1,0.6,0.3,0.8S241,4,241.2,4
		c0.2,0,0.3,0,0.5-0.1c0.1-0.1,0.3-0.1,0.4-0.2l0.2,0.3c-0.1,0.1-0.2,0.1-0.3,0.2c-0.1,0-0.2,0.1-0.3,0.1s-0.2,0.1-0.3,0.1
		s-0.2,0-0.3,0c-0.1,0-0.3,0-0.4-0.1s-0.3-0.1-0.4-0.3c-0.1-0.1-0.2-0.3-0.3-0.5c-0.1-0.2-0.1-0.5-0.1-0.8c0-0.3,0-0.5,0.1-0.7
		s0.2-0.4,0.3-0.5c0.1-0.1,0.3-0.2,0.4-0.3c0.2-0.1,0.3-0.1,0.5-0.1c0.2,0,0.4,0,0.5,0.1c0.2,0.1,0.3,0.2,0.4,0.3
		c0.1,0.1,0.2,0.3,0.2,0.5C242.4,2.3,242.4,2.5,242.4,2.7z M242,2.6c0-0.3-0.1-0.6-0.2-0.8c-0.1-0.2-0.3-0.3-0.6-0.3
		c-0.2,0-0.4,0.1-0.6,0.3c-0.1,0.2-0.2,0.4-0.3,0.8H242z"/>
	<path id="XMLID_302_" class="st0" d="M246,2.7c0,0.3,0,0.5-0.1,0.7s-0.1,0.4-0.3,0.5s-0.2,0.2-0.4,0.3c-0.1,0.1-0.3,0.1-0.5,0.1
		c-0.2,0-0.4,0-0.5-0.1S244.1,4.1,244,4v1.3l-0.5,0.3V1.2h0.5l0,0.4c0.1-0.1,0.2-0.2,0.4-0.3c0.2-0.1,0.3-0.1,0.5-0.1
		c0.2,0,0.3,0,0.4,0.1c0.1,0.1,0.3,0.2,0.4,0.3c0.1,0.1,0.2,0.3,0.2,0.5C246,2.2,246,2.5,246,2.7z M245.6,2.7c0-0.4-0.1-0.7-0.2-0.9
		c-0.1-0.2-0.3-0.3-0.6-0.3c-0.2,0-0.3,0-0.5,0.1S244.1,1.9,244,2v1.6c0.1,0.1,0.2,0.2,0.3,0.3c0.1,0.1,0.3,0.1,0.5,0.1
		c0.3,0,0.5-0.1,0.6-0.3S245.6,3.2,245.6,2.7z"/>
	<path id="XMLID_300_" class="st0" d="M249,3.5c0,0.2,0,0.3-0.1,0.4c-0.1,0.1-0.1,0.2-0.2,0.3c-0.1,0.1-0.2,0.1-0.3,0.2
		c-0.1,0-0.3,0.1-0.4,0.1c-0.2,0-0.4,0-0.6-0.1c-0.2-0.1-0.4-0.2-0.5-0.3l0.3-0.3c0.1,0.1,0.3,0.2,0.4,0.3c0.1,0.1,0.3,0.1,0.4,0.1
		c0.2,0,0.4,0,0.5-0.1c0.1-0.1,0.2-0.2,0.2-0.4c0-0.1,0-0.1,0-0.2c0-0.1-0.1-0.1-0.1-0.2s-0.1-0.1-0.2-0.1S248,3,247.8,2.9
		c-0.2-0.1-0.3-0.1-0.4-0.2c-0.1-0.1-0.2-0.1-0.3-0.2c-0.1-0.1-0.1-0.2-0.2-0.2c0-0.1-0.1-0.2-0.1-0.3c0-0.1,0-0.2,0.1-0.3
		s0.1-0.2,0.2-0.3c0.1-0.1,0.2-0.1,0.3-0.2c0.1,0,0.3-0.1,0.4-0.1c0.2,0,0.4,0,0.6,0.1s0.3,0.1,0.4,0.2l-0.3,0.3
		c-0.1-0.1-0.2-0.2-0.4-0.2c-0.1,0-0.3-0.1-0.4-0.1s-0.3,0-0.4,0.1c-0.1,0.1-0.1,0.2-0.1,0.3c0,0.1,0,0.1,0,0.2s0.1,0.1,0.1,0.1
		s0.1,0.1,0.2,0.1c0.1,0,0.2,0.1,0.3,0.2c0.1,0.1,0.3,0.1,0.4,0.2s0.2,0.1,0.3,0.2c0.1,0.1,0.1,0.2,0.2,0.3C249,3.3,249,3.4,249,3.5
		z"/>
	<path id="XMLID_298_" class="st0" d="M250.8,5.5h-0.4l0.4-1.1l-1.1-3.1h0.5l0.8,2.3l0.1,0.3l0.1-0.3l0.8-2.3h0.5L250.8,5.5z"/>
	<path id="XMLID_296_" class="st0" d="M257.7,3.3c0,0.2,0,0.3-0.1,0.5c-0.1,0.1-0.2,0.3-0.3,0.4c-0.1,0.1-0.3,0.2-0.4,0.2
		c-0.2,0.1-0.4,0.1-0.6,0.1c-0.3,0-0.5-0.1-0.8-0.2S255.1,4,255,3.8l0.3-0.3c0.2,0.2,0.3,0.3,0.5,0.4c0.2,0.1,0.4,0.1,0.6,0.1
		c0.3,0,0.5-0.1,0.7-0.2c0.2-0.1,0.2-0.3,0.2-0.5c0-0.1,0-0.2,0-0.3c0-0.1-0.1-0.2-0.2-0.2c-0.1-0.1-0.2-0.1-0.3-0.2
		c-0.1-0.1-0.3-0.1-0.5-0.2c-0.2-0.1-0.4-0.2-0.6-0.2c-0.2-0.1-0.3-0.2-0.4-0.3c-0.1-0.1-0.2-0.2-0.2-0.3s-0.1-0.2-0.1-0.4
		c0-0.2,0-0.3,0.1-0.4c0.1-0.1,0.2-0.2,0.3-0.3c0.1-0.1,0.3-0.2,0.4-0.2s0.3-0.1,0.5-0.1c0.3,0,0.5,0,0.7,0.1
		c0.2,0.1,0.4,0.2,0.6,0.3l-0.3,0.4c-0.2-0.1-0.3-0.2-0.5-0.3s-0.3-0.1-0.5-0.1c-0.1,0-0.3,0-0.4,0.1s-0.2,0.1-0.3,0.1
		s-0.1,0.1-0.1,0.2c0,0.1,0,0.2,0,0.2c0,0.1,0,0.2,0,0.2c0,0.1,0.1,0.1,0.1,0.2c0.1,0.1,0.2,0.1,0.3,0.2c0.1,0.1,0.3,0.1,0.5,0.2
		c0.2,0.1,0.4,0.2,0.6,0.3c0.2,0.1,0.3,0.2,0.4,0.3c0.1,0.1,0.2,0.2,0.2,0.3C257.7,3,257.7,3.1,257.7,3.3z"/>
	<path id="XMLID_294_" class="st0" d="M259.6,5.5h-0.4l0.4-1.1l-1.1-3.1h0.5l0.8,2.3l0.1,0.3l0.1-0.3l0.8-2.3h0.5L259.6,5.5z"/>
	<path id="XMLID_292_" class="st0" d="M264.1,4.4V2.5c0-0.3-0.1-0.6-0.2-0.7c-0.1-0.2-0.3-0.2-0.6-0.2c-0.2,0-0.4,0.1-0.6,0.2
		c-0.1,0.2-0.2,0.4-0.2,0.7v1.8h-0.5V1.2h0.5l0,0.4c0.1-0.1,0.2-0.2,0.4-0.3c0.1-0.1,0.3-0.1,0.5-0.1c0.2,0,0.3,0,0.5,0.1
		s0.3,0.1,0.3,0.2s0.2,0.2,0.2,0.4s0.1,0.4,0.1,0.6v1.9H264.1z"/>
	<path id="XMLID_289_" class="st0" d="M267.7,4.4V4c-0.1,0.1-0.2,0.2-0.4,0.3c-0.2,0.1-0.3,0.1-0.5,0.1c-0.2,0-0.3,0-0.4-0.1
		c-0.1-0.1-0.3-0.2-0.4-0.3c-0.1-0.1-0.2-0.3-0.2-0.5s-0.1-0.4-0.1-0.7c0-0.3,0-0.5,0.1-0.7s0.1-0.4,0.3-0.5s0.2-0.2,0.4-0.3
		s0.3-0.1,0.5-0.1c0.2,0,0.4,0,0.5,0.1c0.1,0.1,0.3,0.2,0.4,0.3V0.3l0.5-0.3v4.4H267.7z M267.7,2c-0.1-0.1-0.2-0.2-0.3-0.3
		c-0.1-0.1-0.3-0.1-0.5-0.1c-0.3,0-0.5,0.1-0.6,0.3c-0.1,0.2-0.2,0.5-0.2,1c0,0.4,0.1,0.7,0.2,0.9c0.1,0.2,0.3,0.3,0.6,0.3
		c0.2,0,0.3,0,0.5-0.1c0.1-0.1,0.3-0.2,0.4-0.3V2z"/>
	<path id="XMLID_287_" class="st0" d="M270.9,1.7c-0.1,0-0.1-0.1-0.2-0.1c-0.1,0-0.2,0-0.3,0c-0.2,0-0.4,0.1-0.5,0.3
		c-0.1,0.2-0.2,0.4-0.2,0.7v1.8h-0.5V1.2h0.5v0.4c0.1-0.1,0.2-0.2,0.3-0.3c0.1-0.1,0.3-0.1,0.5-0.1c0.1,0,0.2,0,0.3,0
		c0.1,0,0.1,0,0.2,0.1L270.9,1.7z"/>
	<path id="XMLID_284_" class="st0" d="M274.4,2.8c0,0.3,0,0.5-0.1,0.7S274.1,3.8,274,4c-0.1,0.1-0.3,0.2-0.4,0.3
		c-0.2,0.1-0.3,0.1-0.5,0.1s-0.4,0-0.5-0.1c-0.2-0.1-0.3-0.2-0.4-0.3c-0.1-0.1-0.2-0.3-0.3-0.5c-0.1-0.2-0.1-0.4-0.1-0.7
		s0-0.5,0.1-0.7c0.1-0.2,0.2-0.4,0.3-0.5c0.1-0.1,0.3-0.2,0.4-0.3c0.2-0.1,0.3-0.1,0.5-0.1s0.4,0,0.5,0.1c0.2,0.1,0.3,0.2,0.4,0.3
		c0.1,0.1,0.2,0.3,0.3,0.5C274.4,2.3,274.4,2.5,274.4,2.8z M274,2.8c0-0.4-0.1-0.7-0.3-0.9s-0.4-0.3-0.7-0.3s-0.5,0.1-0.7,0.3
		c-0.2,0.2-0.2,0.5-0.2,0.9s0.1,0.7,0.2,0.9c0.2,0.2,0.4,0.3,0.7,0.3s0.5-0.1,0.7-0.3S274,3.2,274,2.8z"/>
	<path id="XMLID_282_" class="st0" d="M279.1,4.4V2.5c0-0.4-0.1-0.6-0.2-0.8c-0.1-0.1-0.3-0.2-0.5-0.2c-0.2,0-0.4,0.1-0.5,0.2
		c-0.1,0.2-0.2,0.4-0.2,0.8v1.8h-0.5V2.5c0-0.4-0.1-0.6-0.2-0.8c-0.1-0.1-0.3-0.2-0.5-0.2c-0.2,0-0.4,0.1-0.5,0.2s-0.2,0.4-0.2,0.8
		v1.8h-0.5V1.2h0.5l0,0.4c0.1-0.1,0.2-0.2,0.3-0.3c0.1-0.1,0.3-0.1,0.5-0.1c0.2,0,0.4,0.1,0.5,0.2c0.1,0.1,0.2,0.2,0.3,0.4
		c0-0.1,0.1-0.1,0.2-0.2s0.1-0.1,0.2-0.2c0.1,0,0.2-0.1,0.3-0.1c0.1,0,0.2,0,0.3,0c0.3,0,0.6,0.1,0.8,0.3c0.2,0.2,0.3,0.5,0.3,1v1.9
		H279.1z"/>
	<path id="XMLID_279_" class="st0" d="M283.2,2.7c0,0.1,0,0.1,0,0.1s0,0.1,0,0.1h-2.1c0,0.3,0.1,0.6,0.3,0.8s0.4,0.3,0.6,0.3
		c0.2,0,0.3,0,0.5-0.1c0.1-0.1,0.3-0.1,0.4-0.2l0.2,0.3c-0.1,0.1-0.2,0.1-0.3,0.2c-0.1,0-0.2,0.1-0.3,0.1s-0.2,0.1-0.3,0.1
		s-0.2,0-0.3,0c-0.1,0-0.3,0-0.4-0.1s-0.3-0.1-0.4-0.3c-0.1-0.1-0.2-0.3-0.3-0.5c-0.1-0.2-0.1-0.5-0.1-0.8c0-0.3,0-0.5,0.1-0.7
		s0.2-0.4,0.3-0.5c0.1-0.1,0.3-0.2,0.4-0.3c0.2-0.1,0.3-0.1,0.5-0.1c0.2,0,0.4,0,0.5,0.1c0.2,0.1,0.3,0.2,0.4,0.3
		c0.1,0.1,0.2,0.3,0.2,0.5C283.1,2.3,283.2,2.5,283.2,2.7z M282.7,2.6c0-0.3-0.1-0.6-0.2-0.8c-0.1-0.2-0.3-0.3-0.6-0.3
		c-0.2,0-0.4,0.1-0.6,0.3c-0.1,0.2-0.2,0.4-0.3,0.8H282.7z"/>
	<path id="XMLID_277_" class="st0" d="M286.1,3.5c0,0.2,0,0.3-0.1,0.4c-0.1,0.1-0.1,0.2-0.2,0.3c-0.1,0.1-0.2,0.1-0.3,0.2
		c-0.1,0-0.3,0.1-0.4,0.1c-0.2,0-0.4,0-0.6-0.1c-0.2-0.1-0.4-0.2-0.5-0.3l0.3-0.3c0.1,0.1,0.3,0.2,0.4,0.3c0.1,0.1,0.3,0.1,0.4,0.1
		c0.2,0,0.4,0,0.5-0.1c0.1-0.1,0.2-0.2,0.2-0.4c0-0.1,0-0.1,0-0.2c0-0.1-0.1-0.1-0.1-0.2s-0.1-0.1-0.2-0.1S285.1,3,285,2.9
		c-0.2-0.1-0.3-0.1-0.4-0.2c-0.1-0.1-0.2-0.1-0.3-0.2c-0.1-0.1-0.1-0.2-0.2-0.2c0-0.1-0.1-0.2-0.1-0.3c0-0.1,0-0.2,0.1-0.3
		s0.1-0.2,0.2-0.3c0.1-0.1,0.2-0.1,0.3-0.2c0.1,0,0.3-0.1,0.4-0.1c0.2,0,0.4,0,0.6,0.1s0.3,0.1,0.4,0.2l-0.3,0.3
		c-0.1-0.1-0.2-0.2-0.4-0.2c-0.1,0-0.3-0.1-0.4-0.1s-0.3,0-0.4,0.1c-0.1,0.1-0.1,0.2-0.1,0.3c0,0.1,0,0.1,0,0.2s0.1,0.1,0.1,0.1
		s0.1,0.1,0.2,0.1c0.1,0,0.2,0.1,0.3,0.2c0.1,0.1,0.3,0.1,0.4,0.2s0.2,0.1,0.3,0.2c0.1,0.1,0.1,0.2,0.2,0.3
		C286.1,3.3,286.1,3.4,286.1,3.5z"/>
	<path id="XMLID_275_" class="st0" d="M291.8,4.4h-0.4l-0.6-2.1c0,0,0-0.1,0-0.1s0-0.1,0-0.1s0-0.1,0-0.1c0,0,0-0.1,0-0.1
		c0,0,0,0.1,0,0.1c0,0,0,0.1,0,0.1c0,0,0,0.1,0,0.1s0,0.1,0,0.1L290,4.4h-0.4l-0.8-3.1h0.5l0.5,2.1c0,0,0,0.1,0,0.1c0,0,0,0.1,0,0.1
		s0,0.1,0,0.1c0,0,0,0.1,0,0.1c0,0,0-0.1,0-0.1c0,0,0-0.1,0-0.1s0-0.1,0-0.1c0,0,0-0.1,0-0.1l0.6-2.1h0.4l0.6,2.1c0,0,0,0.1,0,0.1
		c0,0,0,0.1,0,0.1s0,0.1,0,0.1c0,0,0,0.1,0,0.1c0,0,0-0.1,0-0.1c0,0,0-0.1,0-0.1s0-0.1,0-0.1c0,0,0-0.1,0-0.1l0.5-2.1h0.4L291.8,4.4
		z"/>
	<path id="XMLID_272_" class="st0" d="M294.2,0.3c0,0.1,0,0.2-0.1,0.2c-0.1,0.1-0.1,0.1-0.2,0.1c-0.1,0-0.2,0-0.2-0.1
		s-0.1-0.1-0.1-0.2c0-0.1,0-0.2,0.1-0.2s0.1-0.1,0.2-0.1c0.1,0,0.2,0,0.2,0.1C294.1,0.2,294.2,0.2,294.2,0.3z M293.6,4.4V1.2h0.5
		v3.1H293.6z"/>
	<path id="XMLID_270_" class="st0" d="M295.9,1.6v2c0,0.1,0,0.2,0.1,0.3s0.1,0.1,0.2,0.1c0.1,0,0.2,0,0.2,0s0.1,0,0.2-0.1l0,0.4
		c-0.1,0-0.2,0.1-0.3,0.1c-0.1,0-0.2,0-0.3,0c-0.2,0-0.3-0.1-0.4-0.2c-0.1-0.1-0.2-0.3-0.2-0.6V1.6h-0.4V1.2h0.4v-1l0.5-0.3v1.2h0.8
		v0.4H295.9z"/>
	<path id="XMLID_268_" class="st0" d="M299.8,4.4V2.5c0-0.3-0.1-0.6-0.2-0.7c-0.1-0.2-0.3-0.2-0.6-0.2c-0.2,0-0.4,0.1-0.6,0.2
		c-0.1,0.2-0.2,0.4-0.2,0.7v1.8h-0.5V0.3l0.5-0.3l0,1.6c0.1-0.1,0.2-0.2,0.4-0.3c0.1-0.1,0.3-0.1,0.5-0.1c0.2,0,0.3,0,0.5,0.1
		s0.3,0.1,0.3,0.2s0.2,0.2,0.2,0.4s0.1,0.4,0.1,0.6v1.9H299.8z"/>
	<path id="XMLID_265_" class="st0" d="M306.6,2.3c0,0.3,0,0.6-0.1,0.9c-0.1,0.3-0.2,0.5-0.4,0.7c-0.2,0.2-0.3,0.3-0.6,0.4
		c-0.2,0.1-0.5,0.2-0.7,0.2s-0.5-0.1-0.7-0.2s-0.4-0.3-0.5-0.4c-0.2-0.2-0.3-0.4-0.3-0.7c-0.1-0.3-0.1-0.6-0.1-0.9s0-0.6,0.1-0.9
		c0.1-0.3,0.2-0.5,0.4-0.7c0.2-0.2,0.3-0.3,0.5-0.4s0.5-0.2,0.7-0.2s0.5,0.1,0.7,0.2s0.4,0.3,0.5,0.4c0.2,0.2,0.3,0.4,0.4,0.7
		C306.5,1.7,306.6,1.9,306.6,2.3z M306.1,2.3c0-0.3,0-0.5-0.1-0.7c-0.1-0.2-0.2-0.4-0.3-0.5s-0.3-0.3-0.4-0.4
		c-0.2-0.1-0.3-0.1-0.5-0.1c-0.2,0-0.3,0-0.5,0.1c-0.2,0.1-0.3,0.2-0.4,0.3s-0.2,0.3-0.3,0.5s-0.1,0.5-0.1,0.7s0,0.5,0.1,0.7
		s0.2,0.4,0.3,0.5s0.2,0.3,0.4,0.4c0.2,0.1,0.3,0.1,0.5,0.1c0.2,0,0.3,0,0.5-0.1c0.2-0.1,0.3-0.2,0.4-0.3c0.1-0.1,0.2-0.3,0.3-0.5
		C306.1,2.8,306.1,2.5,306.1,2.3z"/>
	<path id="XMLID_263_" class="st0" d="M309.6,4.4V2.5c0-0.3-0.1-0.6-0.2-0.7c-0.1-0.2-0.3-0.2-0.6-0.2c-0.2,0-0.4,0.1-0.6,0.2
		c-0.1,0.2-0.2,0.4-0.2,0.7v1.8h-0.5V1.2h0.5l0,0.4c0.1-0.1,0.2-0.2,0.4-0.3c0.1-0.1,0.3-0.1,0.5-0.1c0.2,0,0.3,0,0.5,0.1
		s0.3,0.1,0.3,0.2s0.2,0.2,0.2,0.4s0.1,0.4,0.1,0.6v1.9H309.6z"/>
	<path id="XMLID_261_" class="st0" d="M313.2,3.5c0,0.2,0,0.3-0.1,0.4c-0.1,0.1-0.1,0.2-0.2,0.3c-0.1,0.1-0.2,0.1-0.3,0.2
		c-0.1,0-0.3,0.1-0.4,0.1c-0.2,0-0.4,0-0.6-0.1c-0.2-0.1-0.4-0.2-0.5-0.3l0.3-0.3c0.1,0.1,0.3,0.2,0.4,0.3C311.9,4,312,4,312.2,4
		c0.2,0,0.4,0,0.5-0.1c0.1-0.1,0.2-0.2,0.2-0.4c0-0.1,0-0.1,0-0.2c0-0.1-0.1-0.1-0.1-0.2s-0.1-0.1-0.2-0.1s-0.2-0.1-0.3-0.2
		c-0.2-0.1-0.3-0.1-0.4-0.2c-0.1-0.1-0.2-0.1-0.3-0.2c-0.1-0.1-0.1-0.2-0.2-0.2c0-0.1-0.1-0.2-0.1-0.3c0-0.1,0-0.2,0.1-0.3
		s0.1-0.2,0.2-0.3c0.1-0.1,0.2-0.1,0.3-0.2c0.1,0,0.3-0.1,0.4-0.1c0.2,0,0.4,0,0.6,0.1s0.3,0.1,0.4,0.2l-0.3,0.3
		c-0.1-0.1-0.2-0.2-0.4-0.2c-0.1,0-0.3-0.1-0.4-0.1s-0.3,0-0.4,0.1c-0.1,0.1-0.1,0.2-0.1,0.3c0,0.1,0,0.1,0,0.2s0.1,0.1,0.1,0.1
		s0.1,0.1,0.2,0.1c0.1,0,0.2,0.1,0.3,0.2c0.1,0.1,0.3,0.1,0.4,0.2s0.2,0.1,0.3,0.2c0.1,0.1,0.1,0.2,0.2,0.3
		C313.2,3.3,313.2,3.4,313.2,3.5z"/>
	<path id="XMLID_258_" class="st0" d="M316.6,2.7c0,0.1,0,0.1,0,0.1s0,0.1,0,0.1h-2.1c0,0.3,0.1,0.6,0.3,0.8s0.4,0.3,0.6,0.3
		c0.2,0,0.3,0,0.5-0.1c0.1-0.1,0.3-0.1,0.4-0.2l0.2,0.3c-0.1,0.1-0.2,0.1-0.3,0.2c-0.1,0-0.2,0.1-0.3,0.1s-0.2,0.1-0.3,0.1
		s-0.2,0-0.3,0c-0.1,0-0.3,0-0.4-0.1s-0.3-0.1-0.4-0.3c-0.1-0.1-0.2-0.3-0.3-0.5c-0.1-0.2-0.1-0.5-0.1-0.8c0-0.3,0-0.5,0.1-0.7
		s0.2-0.4,0.3-0.5c0.1-0.1,0.3-0.2,0.4-0.3c0.2-0.1,0.3-0.1,0.5-0.1c0.2,0,0.4,0,0.5,0.1c0.2,0.1,0.3,0.2,0.4,0.3
		c0.1,0.1,0.2,0.3,0.2,0.5C316.6,2.3,316.6,2.5,316.6,2.7z M316.2,2.6c0-0.3-0.1-0.6-0.2-0.8c-0.1-0.2-0.3-0.3-0.6-0.3
		c-0.2,0-0.4,0.1-0.6,0.3c-0.1,0.2-0.2,0.4-0.3,0.8H316.2z"/>
	<path id="XMLID_256_" class="st0" d="M318.2,1.6v2c0,0.1,0,0.2,0.1,0.3s0.1,0.1,0.2,0.1c0.1,0,0.2,0,0.2,0s0.1,0,0.2-0.1l0,0.4
		c-0.1,0-0.2,0.1-0.3,0.1c-0.1,0-0.2,0-0.3,0c-0.2,0-0.3-0.1-0.4-0.2c-0.1-0.1-0.2-0.3-0.2-0.6V1.6h-0.4V1.2h0.4v-1l0.5-0.3v1.2h0.8
		v0.4H318.2z"/>
	<path id="XMLID_253_" class="st0" d="M325,2.2c0,0.4-0.1,0.7-0.2,1s-0.2,0.5-0.4,0.7c-0.2,0.2-0.4,0.3-0.6,0.4
		c-0.2,0.1-0.5,0.1-0.8,0.1h-1V0.2h1.1c0.3,0,0.5,0,0.8,0.1c0.2,0.1,0.4,0.2,0.6,0.4c0.2,0.2,0.3,0.4,0.4,0.6S325,1.9,325,2.2z
		 M324.5,2.3c0-0.5-0.1-0.9-0.4-1.2c-0.3-0.3-0.6-0.4-1.1-0.4h-0.6v3.3h0.6c0.2,0,0.4,0,0.6-0.1c0.2-0.1,0.3-0.2,0.5-0.3
		c0.1-0.1,0.2-0.3,0.3-0.5S324.5,2.5,324.5,2.3z"/>
	<path id="XMLID_251_" class="st0" d="M328,4.4V4c-0.1,0.1-0.2,0.2-0.4,0.3c-0.1,0.1-0.3,0.1-0.5,0.1c-0.2,0-0.3,0-0.5-0.1
		c-0.1,0-0.3-0.1-0.3-0.2s-0.2-0.2-0.2-0.4s-0.1-0.4-0.1-0.6V1.2h0.5v1.8c0,0.3,0.1,0.6,0.2,0.7C326.8,4,327,4,327.3,4
		c0.2,0,0.4-0.1,0.5-0.2s0.2-0.4,0.2-0.7V1.2h0.5v3.1H328z"/>
	<path id="XMLID_249_" class="st0" d="M331.3,1.7c-0.1,0-0.1-0.1-0.2-0.1c-0.1,0-0.2,0-0.3,0c-0.2,0-0.4,0.1-0.5,0.3
		c-0.1,0.2-0.2,0.4-0.2,0.7v1.8h-0.5V1.2h0.5v0.4c0.1-0.1,0.2-0.2,0.3-0.3c0.1-0.1,0.3-0.1,0.5-0.1c0.1,0,0.2,0,0.3,0
		c0.1,0,0.1,0,0.2,0.1L331.3,1.7z"/>
	<path id="XMLID_246_" class="st0" d="M333,0.3c0,0.1,0,0.2-0.1,0.2c-0.1,0.1-0.1,0.1-0.2,0.1c-0.1,0-0.2,0-0.2-0.1
		s-0.1-0.1-0.1-0.2c0-0.1,0-0.2,0.1-0.2s0.1-0.1,0.2-0.1c0.1,0,0.2,0,0.2,0.1C332.9,0.2,333,0.2,333,0.3z M332.4,4.4V1.2h0.5v3.1
		H332.4z"/>
	<path id="XMLID_244_" class="st0" d="M336.1,4.4V2.5c0-0.3-0.1-0.6-0.2-0.7c-0.1-0.2-0.3-0.2-0.6-0.2c-0.2,0-0.4,0.1-0.6,0.2
		c-0.1,0.2-0.2,0.4-0.2,0.7v1.8h-0.5V1.2h0.5l0,0.4c0.1-0.1,0.2-0.2,0.4-0.3c0.1-0.1,0.3-0.1,0.5-0.1c0.2,0,0.3,0,0.5,0.1
		s0.3,0.1,0.3,0.2s0.2,0.2,0.2,0.4s0.1,0.4,0.1,0.6v1.9H336.1z"/>
	<path id="XMLID_241_" class="st0" d="M340.1,4.1c0,0.2,0,0.4-0.1,0.6c-0.1,0.2-0.1,0.3-0.3,0.4c-0.1,0.1-0.3,0.2-0.5,0.3
		s-0.5,0.1-0.7,0.1l-0.1-0.3c0.3,0,0.5,0,0.6-0.1c0.2,0,0.3-0.1,0.4-0.2c0.1-0.1,0.2-0.2,0.2-0.3c0-0.1,0.1-0.3,0.1-0.5V4
		c-0.1,0.1-0.2,0.2-0.4,0.3c-0.2,0.1-0.3,0.1-0.5,0.1c-0.2,0-0.3,0-0.4-0.1c-0.1-0.1-0.3-0.2-0.4-0.3c-0.1-0.1-0.2-0.3-0.2-0.5
		s-0.1-0.4-0.1-0.7c0-0.3,0-0.5,0.1-0.7s0.1-0.4,0.3-0.5s0.2-0.2,0.4-0.3s0.3-0.1,0.5-0.1c0.2,0,0.4,0,0.5,0.1
		c0.1,0.1,0.3,0.2,0.4,0.3V1.2h0.5V4.1z M339.6,2c-0.1-0.1-0.2-0.2-0.3-0.3c-0.1-0.1-0.3-0.1-0.5-0.1c-0.3,0-0.5,0.1-0.6,0.3
		c-0.1,0.2-0.2,0.5-0.2,1c0,0.4,0.1,0.7,0.2,0.9c0.1,0.2,0.3,0.3,0.6,0.3c0.2,0,0.3,0,0.5-0.1c0.1-0.1,0.3-0.2,0.4-0.3V2z"/>
	<path id="XMLID_238_" class="st0" d="M345.9,4.4l-0.4-1.1h-1.7l-0.4,1.1h-0.5l1.5-4.2h0.5l1.5,4.2H345.9z M344.9,1.5
		c0-0.1,0-0.1-0.1-0.2c0-0.1-0.1-0.2-0.1-0.2c0-0.1,0-0.1-0.1-0.2c0-0.1,0-0.1,0-0.2c0,0,0,0.1,0,0.2c0,0.1,0,0.1-0.1,0.2
		c0,0.1,0,0.2-0.1,0.2c0,0.1-0.1,0.2-0.1,0.2l-0.5,1.4h1.4L344.9,1.5z"/>
	<path id="XMLID_235_" class="st0" d="M349.2,4.4V4c-0.1,0.1-0.2,0.2-0.4,0.3c-0.2,0.1-0.3,0.1-0.5,0.1c-0.2,0-0.3,0-0.4-0.1
		c-0.1-0.1-0.3-0.2-0.4-0.3c-0.1-0.1-0.2-0.3-0.2-0.5s-0.1-0.4-0.1-0.7c0-0.3,0-0.5,0.1-0.7s0.1-0.4,0.3-0.5s0.2-0.2,0.4-0.3
		s0.3-0.1,0.5-0.1c0.2,0,0.4,0,0.5,0.1c0.1,0.1,0.3,0.2,0.4,0.3V0.3l0.5-0.3v4.4H349.2z M349.2,2c-0.1-0.1-0.2-0.2-0.3-0.3
		c-0.1-0.1-0.3-0.1-0.5-0.1c-0.3,0-0.5,0.1-0.6,0.3c-0.1,0.2-0.2,0.5-0.2,1c0,0.4,0.1,0.7,0.2,0.9c0.1,0.2,0.3,0.3,0.6,0.3
		c0.2,0,0.3,0,0.5-0.1c0.1-0.1,0.3-0.2,0.4-0.3V2z"/>
	<path id="XMLID_232_" class="st0" d="M353.5,2.8c0,0.3,0,0.5-0.1,0.7s-0.2,0.4-0.3,0.5c-0.1,0.1-0.3,0.2-0.4,0.3
		c-0.2,0.1-0.3,0.1-0.5,0.1s-0.4,0-0.5-0.1c-0.2-0.1-0.3-0.2-0.4-0.3c-0.1-0.1-0.2-0.3-0.3-0.5c-0.1-0.2-0.1-0.4-0.1-0.7
		s0-0.5,0.1-0.7c0.1-0.2,0.2-0.4,0.3-0.5c0.1-0.1,0.3-0.2,0.4-0.3c0.2-0.1,0.3-0.1,0.5-0.1s0.4,0,0.5,0.1c0.2,0.1,0.3,0.2,0.4,0.3
		c0.1,0.1,0.2,0.3,0.3,0.5C353.4,2.3,353.5,2.5,353.5,2.8z M353,2.8c0-0.4-0.1-0.7-0.3-0.9s-0.4-0.3-0.7-0.3s-0.5,0.1-0.7,0.3
		c-0.2,0.2-0.2,0.5-0.2,0.9s0.1,0.7,0.2,0.9c0.2,0.2,0.4,0.3,0.7,0.3s0.5-0.1,0.7-0.3S353,3.2,353,2.8z"/>
	<path id="XMLID_230_" class="st0" d="M354.5,4.4V0.3L355,0v4.4H354.5z"/>
	<path id="XMLID_227_" class="st0" d="M358.6,2.7c0,0.1,0,0.1,0,0.1s0,0.1,0,0.1h-2.1c0,0.3,0.1,0.6,0.3,0.8s0.4,0.3,0.6,0.3
		c0.2,0,0.3,0,0.5-0.1c0.1-0.1,0.3-0.1,0.4-0.2l0.2,0.3c-0.1,0.1-0.2,0.1-0.3,0.2c-0.1,0-0.2,0.1-0.3,0.1s-0.2,0.1-0.3,0.1
		s-0.2,0-0.3,0c-0.1,0-0.3,0-0.4-0.1s-0.3-0.1-0.4-0.3c-0.1-0.1-0.2-0.3-0.3-0.5c-0.1-0.2-0.1-0.5-0.1-0.8c0-0.3,0-0.5,0.1-0.7
		s0.2-0.4,0.3-0.5c0.1-0.1,0.3-0.2,0.4-0.3c0.2-0.1,0.3-0.1,0.5-0.1c0.2,0,0.4,0,0.5,0.1c0.2,0.1,0.3,0.2,0.4,0.3
		c0.1,0.1,0.2,0.3,0.2,0.5C358.6,2.3,358.6,2.5,358.6,2.7z M358.2,2.6c0-0.3-0.1-0.6-0.2-0.8c-0.1-0.2-0.3-0.3-0.6-0.3
		c-0.2,0-0.4,0.1-0.6,0.3c-0.1,0.2-0.2,0.4-0.3,0.8H358.2z"/>
	<path id="XMLID_225_" class="st0" d="M361.6,3.5c0,0.2,0,0.3-0.1,0.4c-0.1,0.1-0.1,0.2-0.2,0.3c-0.1,0.1-0.2,0.1-0.3,0.2
		c-0.1,0-0.3,0.1-0.4,0.1c-0.2,0-0.4,0-0.6-0.1c-0.2-0.1-0.4-0.2-0.5-0.3l0.3-0.3c0.1,0.1,0.3,0.2,0.4,0.3c0.1,0.1,0.3,0.1,0.4,0.1
		c0.2,0,0.4,0,0.5-0.1c0.1-0.1,0.2-0.2,0.2-0.4c0-0.1,0-0.1,0-0.2c0-0.1-0.1-0.1-0.1-0.2s-0.1-0.1-0.2-0.1s-0.2-0.1-0.3-0.2
		c-0.2-0.1-0.3-0.1-0.4-0.2c-0.1-0.1-0.2-0.1-0.3-0.2c-0.1-0.1-0.1-0.2-0.2-0.2c0-0.1-0.1-0.2-0.1-0.3c0-0.1,0-0.2,0.1-0.3
		s0.1-0.2,0.2-0.3c0.1-0.1,0.2-0.1,0.3-0.2c0.1,0,0.3-0.1,0.4-0.1c0.2,0,0.4,0,0.6,0.1s0.3,0.1,0.4,0.2l-0.3,0.3
		c-0.1-0.1-0.2-0.2-0.4-0.2c-0.1,0-0.3-0.1-0.4-0.1s-0.3,0-0.4,0.1C360,1.7,360,1.8,360,1.9c0,0.1,0,0.1,0,0.2s0.1,0.1,0.1,0.1
		s0.1,0.1,0.2,0.1c0.1,0,0.2,0.1,0.3,0.2c0.1,0.1,0.3,0.1,0.4,0.2s0.2,0.1,0.3,0.2c0.1,0.1,0.1,0.2,0.2,0.3
		C361.6,3.3,361.6,3.4,361.6,3.5z"/>
	<path id="XMLID_223_" class="st0" d="M364.5,1.9c-0.1-0.1-0.2-0.2-0.3-0.2s-0.3-0.1-0.4-0.1c-0.1,0-0.2,0-0.3,0.1s-0.2,0.1-0.3,0.2
		C363.1,2,363,2.1,363,2.2c0,0.2-0.1,0.3-0.1,0.5c0,0.4,0.1,0.7,0.2,0.9c0.2,0.2,0.4,0.3,0.7,0.3c0.2,0,0.3,0,0.4-0.1
		s0.2-0.1,0.3-0.2l0.3,0.3c-0.1,0.1-0.3,0.2-0.4,0.3s-0.3,0.1-0.6,0.1c-0.2,0-0.3,0-0.5-0.1c-0.2-0.1-0.3-0.2-0.4-0.3
		c-0.1-0.1-0.2-0.3-0.3-0.5c-0.1-0.2-0.1-0.4-0.1-0.7c0-0.3,0-0.5,0.1-0.7c0.1-0.2,0.2-0.4,0.3-0.5c0.1-0.1,0.3-0.2,0.4-0.3
		s0.3-0.1,0.5-0.1c0.2,0,0.4,0,0.6,0.1c0.2,0.1,0.3,0.2,0.4,0.3L364.5,1.9z"/>
	<path id="XMLID_220_" class="st0" d="M368.1,2.7c0,0.1,0,0.1,0,0.1s0,0.1,0,0.1H366c0,0.3,0.1,0.6,0.3,0.8s0.4,0.3,0.6,0.3
		c0.2,0,0.3,0,0.5-0.1c0.1-0.1,0.3-0.1,0.4-0.2l0.2,0.3c-0.1,0.1-0.2,0.1-0.3,0.2c-0.1,0-0.2,0.1-0.3,0.1s-0.2,0.1-0.3,0.1
		s-0.2,0-0.3,0c-0.1,0-0.3,0-0.4-0.1s-0.3-0.1-0.4-0.3c-0.1-0.1-0.2-0.3-0.3-0.5c-0.1-0.2-0.1-0.5-0.1-0.8c0-0.3,0-0.5,0.1-0.7
		s0.2-0.4,0.3-0.5c0.1-0.1,0.3-0.2,0.4-0.3c0.2-0.1,0.3-0.1,0.5-0.1c0.2,0,0.4,0,0.5,0.1c0.2,0.1,0.3,0.2,0.4,0.3
		c0.1,0.1,0.2,0.3,0.2,0.5C368.1,2.3,368.1,2.5,368.1,2.7z M367.7,2.6c0-0.3-0.1-0.6-0.2-0.8c-0.1-0.2-0.3-0.3-0.6-0.3
		c-0.2,0-0.4,0.1-0.6,0.3C366.1,2,366,2.2,366,2.6H367.7z"/>
	<path id="XMLID_218_" class="st0" d="M371.1,4.4V2.5c0-0.3-0.1-0.6-0.2-0.7c-0.1-0.2-0.3-0.2-0.6-0.2c-0.2,0-0.4,0.1-0.6,0.2
		c-0.1,0.2-0.2,0.4-0.2,0.7v1.8h-0.5V1.2h0.5l0,0.4c0.1-0.1,0.2-0.2,0.4-0.3c0.1-0.1,0.3-0.1,0.5-0.1c0.2,0,0.3,0,0.5,0.1
		s0.3,0.1,0.3,0.2s0.2,0.2,0.2,0.4s0.1,0.4,0.1,0.6v1.9H371.1z"/>
	<path id="XMLID_216_" class="st0" d="M374.7,1.9c-0.1-0.1-0.2-0.2-0.3-0.2s-0.3-0.1-0.4-0.1c-0.1,0-0.2,0-0.3,0.1s-0.2,0.1-0.3,0.2
		c-0.1,0.1-0.1,0.2-0.2,0.4c0,0.2-0.1,0.3-0.1,0.5c0,0.4,0.1,0.7,0.2,0.9c0.2,0.2,0.4,0.3,0.7,0.3c0.2,0,0.3,0,0.4-0.1
		s0.2-0.1,0.3-0.2L375,4c-0.1,0.1-0.3,0.2-0.4,0.3s-0.3,0.1-0.6,0.1c-0.2,0-0.3,0-0.5-0.1c-0.2-0.1-0.3-0.2-0.4-0.3
		c-0.1-0.1-0.2-0.3-0.3-0.5c-0.1-0.2-0.1-0.4-0.1-0.7c0-0.3,0-0.5,0.1-0.7c0.1-0.2,0.2-0.4,0.3-0.5c0.1-0.1,0.3-0.2,0.4-0.3
		s0.3-0.1,0.5-0.1c0.2,0,0.4,0,0.6,0.1c0.2,0.1,0.3,0.2,0.4,0.3L374.7,1.9z"/>
	<path id="XMLID_213_" class="st0" d="M378.3,2.7c0,0.1,0,0.1,0,0.1s0,0.1,0,0.1h-2.1c0,0.3,0.1,0.6,0.3,0.8s0.4,0.3,0.6,0.3
		c0.2,0,0.3,0,0.5-0.1c0.1-0.1,0.3-0.1,0.4-0.2l0.2,0.3c-0.1,0.1-0.2,0.1-0.3,0.2c-0.1,0-0.2,0.1-0.3,0.1s-0.2,0.1-0.3,0.1
		s-0.2,0-0.3,0c-0.1,0-0.3,0-0.4-0.1s-0.3-0.1-0.4-0.3c-0.1-0.1-0.2-0.3-0.3-0.5c-0.1-0.2-0.1-0.5-0.1-0.8c0-0.3,0-0.5,0.1-0.7
		s0.2-0.4,0.3-0.5c0.1-0.1,0.3-0.2,0.4-0.3c0.2-0.1,0.3-0.1,0.5-0.1c0.2,0,0.4,0,0.5,0.1c0.2,0.1,0.3,0.2,0.4,0.3
		c0.1,0.1,0.2,0.3,0.2,0.5C378.3,2.3,378.3,2.5,378.3,2.7z M377.9,2.6c0-0.3-0.1-0.6-0.2-0.8c-0.1-0.2-0.3-0.3-0.6-0.3
		c-0.2,0-0.4,0.1-0.6,0.3c-0.1,0.2-0.2,0.4-0.3,0.8H377.9z"/>
	<path id="XMLID_210_" class="st0" d="M380,1.5c0,0.1,0,0.2-0.1,0.3c-0.1,0.1-0.2,0.1-0.3,0.1s-0.2,0-0.3-0.1
		c-0.1-0.1-0.1-0.2-0.1-0.3s0-0.2,0.1-0.3c0.1-0.1,0.2-0.1,0.3-0.1s0.2,0,0.3,0.1C379.9,1.4,380,1.4,380,1.5z M380,4
		c0,0.1,0,0.2-0.1,0.3c-0.1,0.1-0.2,0.1-0.3,0.1s-0.2,0-0.3-0.1c-0.1-0.1-0.1-0.2-0.1-0.3s0-0.2,0.1-0.3c0.1-0.1,0.2-0.1,0.3-0.1
		s0.2,0,0.3,0.1C379.9,3.8,380,3.9,380,4z"/>
	<path id="XMLID_207_" class="st0" d="M385.6,4.4l-0.4-1.1h-1.7l-0.4,1.1h-0.5l1.5-4.2h0.5l1.5,4.2H385.6z M384.6,1.5
		c0-0.1,0-0.1-0.1-0.2c0-0.1-0.1-0.2-0.1-0.2c0-0.1,0-0.1-0.1-0.2c0-0.1,0-0.1,0-0.2c0,0,0,0.1,0,0.2c0,0.1,0,0.1-0.1,0.2
		c0,0.1,0,0.2-0.1,0.2c0,0.1-0.1,0.2-0.1,0.2l-0.5,1.4h1.4L384.6,1.5z"/>
	<path id="XMLID_205_" class="st0" d="M389.1,4.4V2.5c0-0.3-0.1-0.6-0.2-0.7c-0.1-0.2-0.3-0.2-0.6-0.2c-0.2,0-0.4,0.1-0.6,0.2
		c-0.1,0.2-0.2,0.4-0.2,0.7v1.8h-0.5V1.2h0.5l0,0.4c0.1-0.1,0.2-0.2,0.4-0.3c0.1-0.1,0.3-0.1,0.5-0.1c0.2,0,0.3,0,0.5,0.1
		s0.3,0.1,0.3,0.2s0.2,0.2,0.2,0.4s0.1,0.4,0.1,0.6v1.9H389.1z"/>
	<path id="XMLID_202_" class="st0" d="M392.5,4.4V4c-0.1,0.1-0.2,0.2-0.4,0.3c-0.2,0.1-0.3,0.1-0.6,0.1c-0.1,0-0.2,0-0.4-0.1
		c-0.1,0-0.2-0.1-0.3-0.2c-0.1-0.1-0.2-0.2-0.2-0.3c-0.1-0.1-0.1-0.3-0.1-0.5c0-0.2,0-0.3,0.1-0.5c0.1-0.1,0.2-0.2,0.3-0.3
		c0.1-0.1,0.2-0.1,0.4-0.2s0.3-0.1,0.5-0.1c0.2,0,0.3,0,0.4,0.1c0.1,0,0.2,0.1,0.3,0.1V2.2c0-0.5-0.2-0.7-0.7-0.7
		c-0.2,0-0.3,0-0.5,0.1c-0.1,0-0.3,0.1-0.4,0.2l-0.2-0.4c0.1-0.1,0.3-0.1,0.5-0.2c0.2,0,0.4-0.1,0.6-0.1c0.3,0,0.6,0.1,0.8,0.2
		s0.3,0.4,0.3,0.8v2.2H392.5z M392.5,2.9c-0.1-0.1-0.2-0.1-0.3-0.1c-0.1,0-0.3,0-0.5,0c-0.2,0-0.4,0.1-0.5,0.2S391,3.2,391,3.4
		c0,0.2,0.1,0.4,0.2,0.5s0.3,0.2,0.5,0.2c0.2,0,0.4,0,0.5-0.1c0.2-0.1,0.3-0.2,0.4-0.3V2.9z"/>
	<path id="XMLID_200_" class="st0" d="M394.2,4.4V0.3l0.5-0.3v4.4H394.2z"/>
	<path id="XMLID_198_" class="st0" d="M396.8,5.5h-0.4l0.4-1.1l-1.1-3.1h0.5l0.8,2.3l0.1,0.3l0.1-0.3l0.8-2.3h0.5L396.8,5.5z"/>
	<path id="XMLID_196_" class="st0" d="M401.2,3.5c0,0.2,0,0.3-0.1,0.4c-0.1,0.1-0.1,0.2-0.2,0.3c-0.1,0.1-0.2,0.1-0.3,0.2
		c-0.1,0-0.3,0.1-0.4,0.1c-0.2,0-0.4,0-0.6-0.1c-0.2-0.1-0.4-0.2-0.5-0.3l0.3-0.3c0.1,0.1,0.3,0.2,0.4,0.3C399.8,4,400,4,400.1,4
		c0.2,0,0.4,0,0.5-0.1c0.1-0.1,0.2-0.2,0.2-0.4c0-0.1,0-0.1,0-0.2c0-0.1-0.1-0.1-0.1-0.2s-0.1-0.1-0.2-0.1S400.1,3,400,2.9
		c-0.2-0.1-0.3-0.1-0.4-0.2c-0.1-0.1-0.2-0.1-0.3-0.2c-0.1-0.1-0.1-0.2-0.2-0.2c0-0.1-0.1-0.2-0.1-0.3c0-0.1,0-0.2,0.1-0.3
		s0.1-0.2,0.2-0.3c0.1-0.1,0.2-0.1,0.3-0.2c0.1,0,0.3-0.1,0.4-0.1c0.2,0,0.4,0,0.6,0.1s0.3,0.1,0.4,0.2l-0.3,0.3
		c-0.1-0.1-0.2-0.2-0.4-0.2c-0.1,0-0.3-0.1-0.4-0.1s-0.3,0-0.4,0.1c-0.1,0.1-0.1,0.2-0.1,0.3c0,0.1,0,0.1,0,0.2s0.1,0.1,0.1,0.1
		s0.1,0.1,0.2,0.1c0.1,0,0.2,0.1,0.3,0.2c0.1,0.1,0.3,0.1,0.4,0.2s0.2,0.1,0.3,0.2c0.1,0.1,0.1,0.2,0.2,0.3
		C401.1,3.3,401.2,3.4,401.2,3.5z"/>
	<path id="XMLID_193_" class="st0" d="M402.8,0.3c0,0.1,0,0.2-0.1,0.2c-0.1,0.1-0.1,0.1-0.2,0.1c-0.1,0-0.2,0-0.2-0.1
		s-0.1-0.1-0.1-0.2c0-0.1,0-0.2,0.1-0.2s0.1-0.1,0.2-0.1c0.1,0,0.2,0,0.2,0.1C402.8,0.2,402.8,0.2,402.8,0.3z M402.3,4.4V1.2h0.5
		v3.1H402.3z"/>
	<path id="XMLID_191_" class="st0" d="M405.9,3.5c0,0.2,0,0.3-0.1,0.4c-0.1,0.1-0.1,0.2-0.2,0.3c-0.1,0.1-0.2,0.1-0.3,0.2
		c-0.1,0-0.3,0.1-0.4,0.1c-0.2,0-0.4,0-0.6-0.1c-0.2-0.1-0.4-0.2-0.5-0.3l0.3-0.3c0.1,0.1,0.3,0.2,0.4,0.3c0.1,0.1,0.3,0.1,0.4,0.1
		c0.2,0,0.4,0,0.5-0.1c0.1-0.1,0.2-0.2,0.2-0.4c0-0.1,0-0.1,0-0.2c0-0.1-0.1-0.1-0.1-0.2s-0.1-0.1-0.2-0.1s-0.2-0.1-0.3-0.2
		c-0.2-0.1-0.3-0.1-0.4-0.2c-0.1-0.1-0.2-0.1-0.3-0.2c-0.1-0.1-0.1-0.2-0.2-0.2c0-0.1-0.1-0.2-0.1-0.3c0-0.1,0-0.2,0.1-0.3
		s0.1-0.2,0.2-0.3c0.1-0.1,0.2-0.1,0.3-0.2c0.1,0,0.3-0.1,0.4-0.1c0.2,0,0.4,0,0.6,0.1s0.3,0.1,0.4,0.2l-0.3,0.3
		c-0.1-0.1-0.2-0.2-0.4-0.2c-0.1,0-0.3-0.1-0.4-0.1s-0.3,0-0.4,0.1c-0.1,0.1-0.1,0.2-0.1,0.3c0,0.1,0,0.1,0,0.2s0.1,0.1,0.1,0.1
		s0.1,0.1,0.2,0.1c0.1,0,0.2,0.1,0.3,0.2c0.1,0.1,0.3,0.1,0.4,0.2s0.2,0.1,0.3,0.2c0.1,0.1,0.1,0.2,0.2,0.3
		C405.9,3.3,405.9,3.4,405.9,3.5z"/>
	<path id="XMLID_188_" class="st0" d="M411.4,2.8c0,0.3,0,0.5-0.1,0.7S411.1,3.8,411,4c-0.1,0.1-0.3,0.2-0.4,0.3
		c-0.2,0.1-0.3,0.1-0.5,0.1s-0.4,0-0.5-0.1c-0.2-0.1-0.3-0.2-0.4-0.3c-0.1-0.1-0.2-0.3-0.3-0.5c-0.1-0.2-0.1-0.4-0.1-0.7
		s0-0.5,0.1-0.7c0.1-0.2,0.2-0.4,0.3-0.5c0.1-0.1,0.3-0.2,0.4-0.3c0.2-0.1,0.3-0.1,0.5-0.1s0.4,0,0.5,0.1c0.2,0.1,0.3,0.2,0.4,0.3
		c0.1,0.1,0.2,0.3,0.3,0.5C411.3,2.3,411.4,2.5,411.4,2.8z M410.9,2.8c0-0.4-0.1-0.7-0.3-0.9s-0.4-0.3-0.7-0.3s-0.5,0.1-0.7,0.3
		c-0.2,0.2-0.2,0.5-0.2,0.9s0.1,0.7,0.2,0.9c0.2,0.2,0.4,0.3,0.7,0.3s0.5-0.1,0.7-0.3S410.9,3.2,410.9,2.8z"/>
	<path id="XMLID_186_" class="st0" d="M413.3,0.4c-0.1,0-0.2,0-0.2,0.1S413,0.6,413,0.8v0.5h0.6v0.4H413v2.8h-0.5V1.6h-0.4V1.2h0.4
		V0.8c0-0.3,0.1-0.5,0.2-0.6c0.1-0.1,0.3-0.2,0.5-0.2c0.1,0,0.2,0,0.2,0c0.1,0,0.1,0,0.2,0v0.4C413.6,0.4,413.5,0.4,413.3,0.4z"/>
	<path id="XMLID_184_" class="st0" d="M418,0.6v3.8h-0.5V0.6h-1.2V0.2h2.9v0.4H418z"/>
	<path id="XMLID_182_" class="st0" d="M422.4,4.4H422l-0.6-2.1c0,0,0-0.1,0-0.1s0-0.1,0-0.1s0-0.1,0-0.1c0,0,0-0.1,0-0.1
		c0,0,0,0.1,0,0.1c0,0,0,0.1,0,0.1c0,0,0,0.1,0,0.1s0,0.1,0,0.1l-0.6,2.1h-0.4l-0.8-3.1h0.5l0.5,2.1c0,0,0,0.1,0,0.1
		c0,0,0,0.1,0,0.1s0,0.1,0,0.1c0,0,0,0.1,0,0.1c0,0,0-0.1,0-0.1c0,0,0-0.1,0-0.1s0-0.1,0-0.1c0,0,0-0.1,0-0.1l0.6-2.1h0.4l0.6,2.1
		c0,0,0,0.1,0,0.1c0,0,0,0.1,0,0.1s0,0.1,0,0.1c0,0,0,0.1,0,0.1c0,0,0-0.1,0-0.1c0,0,0-0.1,0-0.1s0-0.1,0-0.1c0,0,0-0.1,0-0.1
		l0.5-2.1h0.4L422.4,4.4z"/>
	<path id="XMLID_179_" class="st0" d="M426.7,2.8c0,0.3,0,0.5-0.1,0.7s-0.2,0.4-0.3,0.5c-0.1,0.1-0.3,0.2-0.4,0.3
		c-0.2,0.1-0.3,0.1-0.5,0.1s-0.4,0-0.5-0.1c-0.2-0.1-0.3-0.2-0.4-0.3c-0.1-0.1-0.2-0.3-0.3-0.5C424,3.3,424,3.1,424,2.8
		s0-0.5,0.1-0.7c0.1-0.2,0.2-0.4,0.3-0.5c0.1-0.1,0.3-0.2,0.4-0.3c0.2-0.1,0.3-0.1,0.5-0.1s0.4,0,0.5,0.1c0.2,0.1,0.3,0.2,0.4,0.3
		c0.1,0.1,0.2,0.3,0.3,0.5C426.7,2.3,426.7,2.5,426.7,2.8z M426.3,2.8c0-0.4-0.1-0.7-0.3-0.9s-0.4-0.3-0.7-0.3s-0.5,0.1-0.7,0.3
		c-0.2,0.2-0.2,0.5-0.2,0.9s0.1,0.7,0.2,0.9c0.2,0.2,0.4,0.3,0.7,0.3s0.5-0.1,0.7-0.3S426.3,3.2,426.3,2.8z"/>
	<path id="XMLID_176_" class="st0" d="M432.6,1.4c0,0.3-0.1,0.6-0.3,0.8c-0.2,0.2-0.4,0.3-0.7,0.4l0.9,1.8H432l-0.9-1.8h-1v1.8h-0.5
		V0.2h1.7c0.2,0,0.4,0,0.5,0.1s0.3,0.1,0.4,0.2c0.1,0.1,0.2,0.2,0.3,0.4S432.6,1.2,432.6,1.4z M432.1,1.4c0-0.3-0.1-0.5-0.2-0.6
		s-0.4-0.2-0.6-0.2h-1.2v1.6h1.1c0.3,0,0.5-0.1,0.7-0.2S432.1,1.6,432.1,1.4z"/>
	<path id="XMLID_173_" class="st0" d="M435.4,4.4V4c-0.1,0.1-0.2,0.2-0.4,0.3c-0.2,0.1-0.3,0.1-0.6,0.1c-0.1,0-0.2,0-0.4-0.1
		c-0.1,0-0.2-0.1-0.3-0.2c-0.1-0.1-0.2-0.2-0.2-0.3c-0.1-0.1-0.1-0.3-0.1-0.5c0-0.2,0-0.3,0.1-0.5c0.1-0.1,0.2-0.2,0.3-0.3
		c0.1-0.1,0.2-0.1,0.4-0.2s0.3-0.1,0.5-0.1c0.2,0,0.3,0,0.4,0.1c0.1,0,0.2,0.1,0.3,0.1V2.2c0-0.5-0.2-0.7-0.7-0.7
		c-0.2,0-0.3,0-0.5,0.1c-0.1,0-0.3,0.1-0.4,0.2l-0.2-0.4c0.1-0.1,0.3-0.1,0.5-0.2c0.2,0,0.4-0.1,0.6-0.1c0.3,0,0.6,0.1,0.8,0.2
		s0.3,0.4,0.3,0.8v2.2H435.4z M435.4,2.9c-0.1-0.1-0.2-0.1-0.3-0.1c-0.1,0-0.3,0-0.5,0c-0.2,0-0.4,0.1-0.5,0.2s-0.2,0.3-0.2,0.5
		c0,0.2,0.1,0.4,0.2,0.5s0.3,0.2,0.5,0.2c0.2,0,0.4,0,0.5-0.1c0.2-0.1,0.3-0.2,0.4-0.3V2.9z"/>
	<path id="XMLID_171_" class="st0" d="M439,4.4V2.5c0-0.3-0.1-0.6-0.2-0.7c-0.1-0.2-0.3-0.2-0.6-0.2c-0.2,0-0.4,0.1-0.6,0.2
		c-0.1,0.2-0.2,0.4-0.2,0.7v1.8H437V1.2h0.5l0,0.4c0.1-0.1,0.2-0.2,0.4-0.3c0.1-0.1,0.3-0.1,0.5-0.1c0.2,0,0.3,0,0.5,0.1
		s0.3,0.1,0.3,0.2s0.2,0.2,0.2,0.4s0.1,0.4,0.1,0.6v1.9H439z"/>
	<path id="XMLID_168_" class="st0" d="M442.6,4.4V4c-0.1,0.1-0.2,0.2-0.4,0.3c-0.2,0.1-0.3,0.1-0.5,0.1c-0.2,0-0.3,0-0.4-0.1
		c-0.1-0.1-0.3-0.2-0.4-0.3c-0.1-0.1-0.2-0.3-0.2-0.5s-0.1-0.4-0.1-0.7c0-0.3,0-0.5,0.1-0.7s0.1-0.4,0.3-0.5s0.2-0.2,0.4-0.3
		s0.3-0.1,0.5-0.1c0.2,0,0.4,0,0.5,0.1c0.1,0.1,0.3,0.2,0.4,0.3V0.3L443,0v4.4H442.6z M442.6,2c-0.1-0.1-0.2-0.2-0.3-0.3
		c-0.1-0.1-0.3-0.1-0.5-0.1c-0.3,0-0.5,0.1-0.6,0.3c-0.1,0.2-0.2,0.5-0.2,1c0,0.4,0.1,0.7,0.2,0.9c0.1,0.2,0.3,0.3,0.6,0.3
		c0.2,0,0.3,0,0.5-0.1c0.1-0.1,0.3-0.2,0.4-0.3V2z"/>
	<path id="XMLID_165_" class="st0" d="M446.8,2.8c0,0.3,0,0.5-0.1,0.7s-0.2,0.4-0.3,0.5c-0.1,0.1-0.3,0.2-0.4,0.3
		c-0.2,0.1-0.3,0.1-0.5,0.1s-0.4,0-0.5-0.1c-0.2-0.1-0.3-0.2-0.4-0.3c-0.1-0.1-0.2-0.3-0.3-0.5c-0.1-0.2-0.1-0.4-0.1-0.7
		s0-0.5,0.1-0.7c0.1-0.2,0.2-0.4,0.3-0.5c0.1-0.1,0.3-0.2,0.4-0.3c0.2-0.1,0.3-0.1,0.5-0.1s0.4,0,0.5,0.1c0.2,0.1,0.3,0.2,0.4,0.3
		c0.1,0.1,0.2,0.3,0.3,0.5C446.8,2.3,446.8,2.5,446.8,2.8z M446.3,2.8c0-0.4-0.1-0.7-0.3-0.9s-0.4-0.3-0.7-0.3s-0.5,0.1-0.7,0.3
		c-0.2,0.2-0.2,0.5-0.2,0.9s0.1,0.7,0.2,0.9c0.2,0.2,0.4,0.3,0.7,0.3s0.5-0.1,0.7-0.3S446.3,3.2,446.3,2.8z"/>
	<path id="XMLID_163_" class="st0" d="M451.5,4.4V2.5c0-0.4-0.1-0.6-0.2-0.8c-0.1-0.1-0.3-0.2-0.5-0.2c-0.2,0-0.4,0.1-0.5,0.2
		c-0.1,0.2-0.2,0.4-0.2,0.8v1.8h-0.5V2.5c0-0.4-0.1-0.6-0.2-0.8c-0.1-0.1-0.3-0.2-0.5-0.2c-0.2,0-0.4,0.1-0.5,0.2s-0.2,0.4-0.2,0.8
		v1.8h-0.5V1.2h0.5l0,0.4c0.1-0.1,0.2-0.2,0.3-0.3c0.1-0.1,0.3-0.1,0.5-0.1c0.2,0,0.4,0.1,0.5,0.2c0.1,0.1,0.2,0.2,0.3,0.4
		c0-0.1,0.1-0.1,0.2-0.2s0.1-0.1,0.2-0.2c0.1,0,0.2-0.1,0.3-0.1c0.1,0,0.2,0,0.3,0c0.3,0,0.6,0.1,0.8,0.3c0.2,0.2,0.3,0.5,0.3,1v1.9
		H451.5z"/>
	<path id="XMLID_160_" class="st0" d="M453.7,0.3c0,0.1,0,0.2-0.1,0.2c-0.1,0.1-0.1,0.1-0.2,0.1c-0.1,0-0.2,0-0.2-0.1
		s-0.1-0.1-0.1-0.2c0-0.1,0-0.2,0.1-0.2s0.1-0.1,0.2-0.1c0.1,0,0.2,0,0.2,0.1C453.7,0.2,453.7,0.2,453.7,0.3z M453.2,4.4V1.2h0.5
		v3.1H453.2z"/>
	<path id="XMLID_158_" class="st0" d="M454.7,4.4V4l1.7-2.4h-1.6V1.2h2.1v0.3L455.2,4h1.7v0.4H454.7z"/>
	<path id="XMLID_155_" class="st0" d="M460.3,2.7c0,0.1,0,0.1,0,0.1s0,0.1,0,0.1h-2.1c0,0.3,0.1,0.6,0.3,0.8s0.4,0.3,0.6,0.3
		c0.2,0,0.3,0,0.5-0.1c0.1-0.1,0.3-0.1,0.4-0.2l0.2,0.3c-0.1,0.1-0.2,0.1-0.3,0.2c-0.1,0-0.2,0.1-0.3,0.1s-0.2,0.1-0.3,0.1
		s-0.2,0-0.3,0c-0.1,0-0.3,0-0.4-0.1s-0.3-0.1-0.4-0.3c-0.1-0.1-0.2-0.3-0.3-0.5c-0.1-0.2-0.1-0.5-0.1-0.8c0-0.3,0-0.5,0.1-0.7
		s0.2-0.4,0.3-0.5c0.1-0.1,0.3-0.2,0.4-0.3c0.2-0.1,0.3-0.1,0.5-0.1c0.2,0,0.4,0,0.5,0.1c0.2,0.1,0.3,0.2,0.4,0.3
		c0.1,0.1,0.2,0.3,0.2,0.5C460.3,2.3,460.3,2.5,460.3,2.7z M459.9,2.6c0-0.3-0.1-0.6-0.2-0.8c-0.1-0.2-0.3-0.3-0.6-0.3
		c-0.2,0-0.4,0.1-0.6,0.3c-0.1,0.2-0.2,0.4-0.3,0.8H459.9z"/>
	<path id="XMLID_152_" class="st0" d="M463.3,4.4V4c-0.1,0.1-0.2,0.2-0.4,0.3c-0.2,0.1-0.3,0.1-0.5,0.1c-0.2,0-0.3,0-0.4-0.1
		c-0.1-0.1-0.3-0.2-0.4-0.3c-0.1-0.1-0.2-0.3-0.2-0.5s-0.1-0.4-0.1-0.7c0-0.3,0-0.5,0.1-0.7s0.1-0.4,0.3-0.5s0.2-0.2,0.4-0.3
		s0.3-0.1,0.5-0.1c0.2,0,0.4,0,0.5,0.1c0.1,0.1,0.3,0.2,0.4,0.3V0.3l0.5-0.3v4.4H463.3z M463.3,2c-0.1-0.1-0.2-0.2-0.3-0.3
		c-0.1-0.1-0.3-0.1-0.5-0.1c-0.3,0-0.5,0.1-0.6,0.3c-0.1,0.2-0.2,0.5-0.2,1c0,0.4,0.1,0.7,0.2,0.9c0.1,0.2,0.3,0.3,0.6,0.3
		c0.2,0,0.3,0,0.5-0.1c0.1-0.1,0.3-0.2,0.4-0.3V2z"/>
	<path id="XMLID_150_" class="st0" d="M465.2,5.1h-0.3l0.1-1.4h0.6L465.2,5.1z"/>
	<path id="XMLID_147_" class="st0" d="M471.5,2.2c0,0.4-0.1,0.7-0.2,1s-0.2,0.5-0.4,0.7c-0.2,0.2-0.4,0.3-0.6,0.4
		c-0.2,0.1-0.5,0.1-0.8,0.1h-1V0.2h1.1c0.3,0,0.5,0,0.8,0.1c0.2,0.1,0.4,0.2,0.6,0.4c0.2,0.2,0.3,0.4,0.4,0.6S471.5,1.9,471.5,2.2z
		 M471.1,2.3c0-0.5-0.1-0.9-0.4-1.2c-0.3-0.3-0.6-0.4-1.1-0.4H469v3.3h0.6c0.2,0,0.4,0,0.6-0.1c0.2-0.1,0.3-0.2,0.5-0.3
		c0.1-0.1,0.2-0.3,0.3-0.5S471.1,2.5,471.1,2.3z"/>
	<path id="XMLID_144_" class="st0" d="M475.2,2.8c0,0.3,0,0.5-0.1,0.7s-0.2,0.4-0.3,0.5c-0.1,0.1-0.3,0.2-0.4,0.3
		c-0.2,0.1-0.3,0.1-0.5,0.1s-0.4,0-0.5-0.1c-0.2-0.1-0.3-0.2-0.4-0.3c-0.1-0.1-0.2-0.3-0.3-0.5c-0.1-0.2-0.1-0.4-0.1-0.7
		s0-0.5,0.1-0.7c0.1-0.2,0.2-0.4,0.3-0.5c0.1-0.1,0.3-0.2,0.4-0.3c0.2-0.1,0.3-0.1,0.5-0.1s0.4,0,0.5,0.1c0.2,0.1,0.3,0.2,0.4,0.3
		c0.1,0.1,0.2,0.3,0.3,0.5C475.2,2.3,475.2,2.5,475.2,2.8z M474.7,2.8c0-0.4-0.1-0.7-0.3-0.9s-0.4-0.3-0.7-0.3s-0.5,0.1-0.7,0.3
		c-0.2,0.2-0.2,0.5-0.2,0.9s0.1,0.7,0.2,0.9c0.2,0.2,0.4,0.3,0.7,0.3s0.5-0.1,0.7-0.3S474.7,3.2,474.7,2.8z"/>
	<path id="XMLID_142_" class="st0" d="M478.2,4.4V4c-0.1,0.1-0.2,0.2-0.4,0.3c-0.1,0.1-0.3,0.1-0.5,0.1c-0.2,0-0.3,0-0.5-0.1
		c-0.1,0-0.3-0.1-0.3-0.2s-0.2-0.2-0.2-0.4s-0.1-0.4-0.1-0.6V1.2h0.5v1.8c0,0.3,0.1,0.6,0.2,0.7C477,4,477.2,4,477.4,4
		c0.2,0,0.4-0.1,0.5-0.2s0.2-0.4,0.2-0.7V1.2h0.5v3.1H478.2z"/>
	<path id="XMLID_139_" class="st0" d="M482.4,2.7c0,0.3,0,0.5-0.1,0.7S482.2,3.8,482,4s-0.2,0.2-0.4,0.3c-0.1,0.1-0.3,0.1-0.5,0.1
		c-0.2,0-0.4,0-0.5-0.1s-0.3-0.2-0.4-0.3v0.4h-0.5V0.3l0.5-0.3l0,1.6c0.1-0.1,0.2-0.2,0.4-0.3c0.2-0.1,0.3-0.1,0.5-0.1
		c0.2,0,0.3,0,0.4,0.1c0.1,0.1,0.3,0.2,0.4,0.3c0.1,0.1,0.2,0.3,0.2,0.5C482.4,2.2,482.4,2.5,482.4,2.7z M482,2.7
		c0-0.4-0.1-0.7-0.2-0.9c-0.1-0.2-0.3-0.3-0.6-0.3c-0.2,0-0.3,0-0.5,0.1s-0.3,0.2-0.4,0.3v1.6c0.1,0.1,0.2,0.2,0.3,0.3
		C480.8,4,481,4,481.2,4c0.3,0,0.5-0.1,0.6-0.3S482,3.2,482,2.7z"/>
	<path id="XMLID_137_" class="st0" d="M483.5,4.4V0.3l0.5-0.3v4.4H483.5z"/>
	<path id="XMLID_134_" class="st0" d="M487.6,2.7c0,0.1,0,0.1,0,0.1s0,0.1,0,0.1h-2.1c0,0.3,0.1,0.6,0.3,0.8s0.4,0.3,0.6,0.3
		c0.2,0,0.3,0,0.5-0.1c0.1-0.1,0.3-0.1,0.4-0.2l0.2,0.3c-0.1,0.1-0.2,0.1-0.3,0.2c-0.1,0-0.2,0.1-0.3,0.1s-0.2,0.1-0.3,0.1
		s-0.2,0-0.3,0c-0.1,0-0.3,0-0.4-0.1s-0.3-0.1-0.4-0.3c-0.1-0.1-0.2-0.3-0.3-0.5c-0.1-0.2-0.1-0.5-0.1-0.8c0-0.3,0-0.5,0.1-0.7
		s0.2-0.4,0.3-0.5c0.1-0.1,0.3-0.2,0.4-0.3c0.2-0.1,0.3-0.1,0.5-0.1c0.2,0,0.4,0,0.5,0.1c0.2,0.1,0.3,0.2,0.4,0.3
		c0.1,0.1,0.2,0.3,0.2,0.5C487.5,2.3,487.6,2.5,487.6,2.7z M487.2,2.6c0-0.3-0.1-0.6-0.2-0.8c-0.1-0.2-0.3-0.3-0.6-0.3
		c-0.2,0-0.4,0.1-0.6,0.3c-0.1,0.2-0.2,0.4-0.3,0.8H487.2z"/>
	<path id="XMLID_132_" class="st0" d="M488.5,2.4V2h1.3v0.4H488.5z"/>
	<path id="XMLID_128_" class="st0" d="M493.7,3.1c0,0.4-0.1,0.7-0.3,0.9c-0.2,0.2-0.6,0.3-1,0.3h-1.5V0.2h1.5c0.2,0,0.3,0,0.5,0.1
		c0.1,0,0.3,0.1,0.4,0.2c0.1,0.1,0.2,0.2,0.2,0.3c0.1,0.1,0.1,0.3,0.1,0.5c0,0.2-0.1,0.4-0.2,0.6c-0.1,0.1-0.3,0.2-0.4,0.3
		c0.1,0,0.2,0.1,0.3,0.1s0.2,0.1,0.3,0.2c0.1,0.1,0.1,0.2,0.2,0.3C493.7,2.8,493.7,2.9,493.7,3.1z M493.1,1.2c0-0.2-0.1-0.3-0.2-0.5
		s-0.3-0.2-0.5-0.2h-1v1.3h1c0.3,0,0.4-0.1,0.6-0.2S493.1,1.4,493.1,1.2z M493.3,3.1c0-0.3-0.1-0.5-0.2-0.6
		c-0.2-0.1-0.4-0.2-0.7-0.2h-1v1.6h1.1c0.3,0,0.5-0.1,0.7-0.2C493.2,3.6,493.3,3.4,493.3,3.1z"/>
	<path id="XMLID_126_" class="st0" d="M494.8,4.4V0.3l0.5-0.3v4.4H494.8z"/>
	<path id="XMLID_123_" class="st0" d="M497.1,0.3c0,0.1,0,0.2-0.1,0.2c-0.1,0.1-0.1,0.1-0.2,0.1c-0.1,0-0.2,0-0.2-0.1
		s-0.1-0.1-0.1-0.2c0-0.1,0-0.2,0.1-0.2s0.1-0.1,0.2-0.1c0.1,0,0.2,0,0.2,0.1C497,0.2,497.1,0.2,497.1,0.3z M496.5,4.4V1.2h0.5v3.1
		H496.5z"/>
	<path id="XMLID_121_" class="st0" d="M500.2,4.4V2.5c0-0.3-0.1-0.6-0.2-0.7c-0.1-0.2-0.3-0.2-0.6-0.2c-0.2,0-0.4,0.1-0.6,0.2
		c-0.1,0.2-0.2,0.4-0.2,0.7v1.8h-0.5V1.2h0.5l0,0.4c0.1-0.1,0.2-0.2,0.4-0.3c0.1-0.1,0.3-0.1,0.5-0.1c0.2,0,0.3,0,0.5,0.1
		s0.3,0.1,0.3,0.2s0.2,0.2,0.2,0.4s0.1,0.4,0.1,0.6v1.9H500.2z"/>
	<path id="XMLID_118_" class="st0" d="M503.7,4.4V4c-0.1,0.1-0.2,0.2-0.4,0.3c-0.2,0.1-0.3,0.1-0.5,0.1c-0.2,0-0.3,0-0.4-0.1
		c-0.1-0.1-0.3-0.2-0.4-0.3c-0.1-0.1-0.2-0.3-0.2-0.5s-0.1-0.4-0.1-0.7c0-0.3,0-0.5,0.1-0.7s0.1-0.4,0.3-0.5s0.2-0.2,0.4-0.3
		s0.3-0.1,0.5-0.1c0.2,0,0.4,0,0.5,0.1c0.1,0.1,0.3,0.2,0.4,0.3V0.3l0.5-0.3v4.4H503.7z M503.7,2c-0.1-0.1-0.2-0.2-0.3-0.3
		c-0.1-0.1-0.3-0.1-0.5-0.1c-0.3,0-0.5,0.1-0.6,0.3c-0.1,0.2-0.2,0.5-0.2,1c0,0.4,0.1,0.7,0.2,0.9c0.1,0.2,0.3,0.3,0.6,0.3
		c0.2,0,0.3,0,0.5-0.1c0.1-0.1,0.3-0.2,0.4-0.3V2z"/>
	<path id="XMLID_116_" class="st0" d="M505.6,5.1h-0.3l0.1-1.4h0.6L505.6,5.1z"/>
	<path id="XMLID_113_" class="st0" d="M511.8,1.4c0,0.2,0,0.4-0.1,0.6c-0.1,0.2-0.2,0.3-0.3,0.4c-0.1,0.1-0.3,0.2-0.4,0.2
		c-0.2,0.1-0.4,0.1-0.6,0.1h-1v1.6h-0.5V0.2h1.6c0.2,0,0.4,0,0.5,0.1c0.2,0,0.3,0.1,0.4,0.2c0.1,0.1,0.2,0.2,0.3,0.4
		C511.8,1,511.8,1.2,511.8,1.4z M511.4,1.4c0-0.3-0.1-0.5-0.2-0.6c-0.2-0.1-0.4-0.2-0.7-0.2h-1.1v1.7h1C511.1,2.3,511.4,2,511.4,1.4
		z"/>
	<path id="XMLID_111_" class="st0" d="M512.8,4.4V0.3l0.5-0.3v4.4H512.8z"/>
	<path id="XMLID_108_" class="st0" d="M516.3,4.4V4c-0.1,0.1-0.2,0.2-0.4,0.3c-0.2,0.1-0.3,0.1-0.6,0.1c-0.1,0-0.2,0-0.4-0.1
		c-0.1,0-0.2-0.1-0.3-0.2c-0.1-0.1-0.2-0.2-0.2-0.3c-0.1-0.1-0.1-0.3-0.1-0.5c0-0.2,0-0.3,0.1-0.5c0.1-0.1,0.2-0.2,0.3-0.3
		c0.1-0.1,0.2-0.1,0.4-0.2s0.3-0.1,0.5-0.1c0.2,0,0.3,0,0.4,0.1c0.1,0,0.2,0.1,0.3,0.1V2.2c0-0.5-0.2-0.7-0.7-0.7
		c-0.2,0-0.3,0-0.5,0.1c-0.1,0-0.3,0.1-0.4,0.2l-0.2-0.4c0.1-0.1,0.3-0.1,0.5-0.2c0.2,0,0.4-0.1,0.6-0.1c0.3,0,0.6,0.1,0.8,0.2
		s0.3,0.4,0.3,0.8v2.2H516.3z M516.3,2.9c-0.1-0.1-0.2-0.1-0.3-0.1c-0.1,0-0.3,0-0.5,0c-0.2,0-0.4,0.1-0.5,0.2s-0.2,0.3-0.2,0.5
		c0,0.2,0.1,0.4,0.2,0.5s0.3,0.2,0.5,0.2c0.2,0,0.4,0,0.5-0.1c0.2-0.1,0.3-0.2,0.4-0.3V2.9z"/>
	<path id="XMLID_106_" class="st0" d="M519.9,1.9c-0.1-0.1-0.2-0.2-0.3-0.2s-0.3-0.1-0.4-0.1c-0.1,0-0.2,0-0.3,0.1s-0.2,0.1-0.3,0.2
		c-0.1,0.1-0.1,0.2-0.2,0.4c0,0.2-0.1,0.3-0.1,0.5c0,0.4,0.1,0.7,0.2,0.9c0.2,0.2,0.4,0.3,0.7,0.3c0.2,0,0.3,0,0.4-0.1
		s0.2-0.1,0.3-0.2l0.3,0.3c-0.1,0.1-0.3,0.2-0.4,0.3s-0.3,0.1-0.6,0.1c-0.2,0-0.3,0-0.5-0.1c-0.2-0.1-0.3-0.2-0.4-0.3
		c-0.1-0.1-0.2-0.3-0.3-0.5c-0.1-0.2-0.1-0.4-0.1-0.7c0-0.3,0-0.5,0.1-0.7c0.1-0.2,0.2-0.4,0.3-0.5c0.1-0.1,0.3-0.2,0.4-0.3
		s0.3-0.1,0.5-0.1c0.2,0,0.4,0,0.6,0.1c0.2,0.1,0.3,0.2,0.4,0.3L519.9,1.9z"/>
	<path id="XMLID_103_" class="st0" d="M523.5,2.7c0,0.1,0,0.1,0,0.1s0,0.1,0,0.1h-2.1c0,0.3,0.1,0.6,0.3,0.8S522,4,522.3,4
		c0.2,0,0.3,0,0.5-0.1c0.1-0.1,0.3-0.1,0.4-0.2l0.2,0.3c-0.1,0.1-0.2,0.1-0.3,0.2c-0.1,0-0.2,0.1-0.3,0.1s-0.2,0.1-0.3,0.1
		s-0.2,0-0.3,0c-0.1,0-0.3,0-0.4-0.1s-0.3-0.1-0.4-0.3c-0.1-0.1-0.2-0.3-0.3-0.5c-0.1-0.2-0.1-0.5-0.1-0.8c0-0.3,0-0.5,0.1-0.7
		s0.2-0.4,0.3-0.5c0.1-0.1,0.3-0.2,0.4-0.3c0.2-0.1,0.3-0.1,0.5-0.1c0.2,0,0.4,0,0.5,0.1c0.2,0.1,0.3,0.2,0.4,0.3
		c0.1,0.1,0.2,0.3,0.2,0.5C523.5,2.3,523.5,2.5,523.5,2.7z M523.1,2.6c0-0.3-0.1-0.6-0.2-0.8c-0.1-0.2-0.3-0.3-0.6-0.3
		c-0.2,0-0.4,0.1-0.6,0.3c-0.1,0.2-0.2,0.4-0.3,0.8H523.1z"/>
	<path id="XMLID_100_" class="st0" d="M527.1,2.7c0,0.3,0,0.5-0.1,0.7s-0.1,0.4-0.3,0.5s-0.2,0.2-0.4,0.3c-0.1,0.1-0.3,0.1-0.5,0.1
		c-0.2,0-0.4,0-0.5-0.1S525.1,4.1,525,4v0.4h-0.5V0.3L525,0l0,1.6c0.1-0.1,0.2-0.2,0.4-0.3c0.2-0.1,0.3-0.1,0.5-0.1
		c0.2,0,0.3,0,0.4,0.1c0.1,0.1,0.3,0.2,0.4,0.3c0.1,0.1,0.2,0.3,0.2,0.5C527,2.2,527.1,2.5,527.1,2.7z M526.6,2.7
		c0-0.4-0.1-0.7-0.2-0.9c-0.1-0.2-0.3-0.3-0.6-0.3c-0.2,0-0.3,0-0.5,0.1S525.1,1.9,525,2v1.6c0.1,0.1,0.2,0.2,0.3,0.3
		c0.1,0.1,0.3,0.1,0.5,0.1c0.3,0,0.5-0.1,0.6-0.3S526.6,3.2,526.6,2.7z"/>
	<path id="XMLID_97_" class="st0" d="M530.7,2.8c0,0.3,0,0.5-0.1,0.7s-0.2,0.4-0.3,0.5c-0.1,0.1-0.3,0.2-0.4,0.3
		c-0.2,0.1-0.3,0.1-0.5,0.1s-0.4,0-0.5-0.1c-0.2-0.1-0.3-0.2-0.4-0.3c-0.1-0.1-0.2-0.3-0.3-0.5C528,3.3,528,3.1,528,2.8
		s0-0.5,0.1-0.7c0.1-0.2,0.2-0.4,0.3-0.5c0.1-0.1,0.3-0.2,0.4-0.3c0.2-0.1,0.3-0.1,0.5-0.1s0.4,0,0.5,0.1c0.2,0.1,0.3,0.2,0.4,0.3
		c0.1,0.1,0.2,0.3,0.3,0.5C530.7,2.3,530.7,2.5,530.7,2.8z M530.2,2.8c0-0.4-0.1-0.7-0.3-0.9s-0.4-0.3-0.7-0.3s-0.5,0.1-0.7,0.3
		c-0.2,0.2-0.2,0.5-0.2,0.9s0.1,0.7,0.2,0.9c0.2,0.2,0.4,0.3,0.7,0.3s0.5-0.1,0.7-0.3S530.2,3.2,530.2,2.8z"/>
	<path id="XMLID_95_" class="st0" d="M531.6,2.4V2h1.3v0.4H531.6z"/>
	<path id="XMLID_93_" class="st0" d="M536.3,4.2c-0.2,0.1-0.5,0.2-0.8,0.2c-0.3,0-0.5-0.1-0.7-0.2s-0.4-0.3-0.5-0.5
		c-0.1-0.2-0.3-0.4-0.3-0.7c-0.1-0.3-0.1-0.5-0.1-0.9c0-0.3,0-0.6,0.1-0.9c0.1-0.3,0.2-0.5,0.3-0.7c0.1-0.2,0.3-0.3,0.5-0.5
		s0.4-0.2,0.7-0.2c0.6,0,1,0.2,1.3,0.7l-0.4,0.3c-0.1-0.2-0.3-0.3-0.4-0.4c-0.1-0.1-0.3-0.1-0.6-0.1c-0.2,0-0.3,0-0.5,0.1
		c-0.2,0.1-0.3,0.2-0.4,0.4s-0.2,0.3-0.3,0.5c-0.1,0.2-0.1,0.4-0.1,0.7s0,0.5,0.1,0.7c0.1,0.2,0.1,0.4,0.3,0.5s0.2,0.3,0.4,0.4
		c0.2,0.1,0.3,0.1,0.5,0.1c0.2,0,0.4,0,0.6-0.1c0.2-0.1,0.3-0.2,0.4-0.4l0.3,0.3C536.7,3.9,536.5,4.1,536.3,4.2z"/>
	<path id="XMLID_90_" class="st0" d="M540.4,2.8c0,0.3,0,0.5-0.1,0.7S540.1,3.8,540,4c-0.1,0.1-0.3,0.2-0.4,0.3
		c-0.2,0.1-0.3,0.1-0.5,0.1s-0.4,0-0.5-0.1c-0.2-0.1-0.3-0.2-0.4-0.3c-0.1-0.1-0.2-0.3-0.3-0.5c-0.1-0.2-0.1-0.4-0.1-0.7
		s0-0.5,0.1-0.7c0.1-0.2,0.2-0.4,0.3-0.5c0.1-0.1,0.3-0.2,0.4-0.3c0.2-0.1,0.3-0.1,0.5-0.1s0.4,0,0.5,0.1c0.2,0.1,0.3,0.2,0.4,0.3
		c0.1,0.1,0.2,0.3,0.3,0.5C540.3,2.3,540.4,2.5,540.4,2.8z M539.9,2.8c0-0.4-0.1-0.7-0.3-0.9s-0.4-0.3-0.7-0.3s-0.5,0.1-0.7,0.3
		c-0.2,0.2-0.2,0.5-0.2,0.9s0.1,0.7,0.2,0.9c0.2,0.2,0.4,0.3,0.7,0.3s0.5-0.1,0.7-0.3S539.9,3.2,539.9,2.8z"/>
	<path id="XMLID_88_" class="st0" d="M543.4,4.4V2.5c0-0.3-0.1-0.6-0.2-0.7c-0.1-0.2-0.3-0.2-0.6-0.2c-0.2,0-0.4,0.1-0.6,0.2
		c-0.1,0.2-0.2,0.4-0.2,0.7v1.8h-0.5V1.2h0.5l0,0.4c0.1-0.1,0.2-0.2,0.4-0.3c0.1-0.1,0.3-0.1,0.5-0.1c0.2,0,0.3,0,0.5,0.1
		s0.3,0.1,0.3,0.2s0.2,0.2,0.2,0.4s0.1,0.4,0.1,0.6v1.9H543.4z"/>
	<path id="XMLID_86_" class="st0" d="M545.6,1.6v2c0,0.1,0,0.2,0.1,0.3s0.1,0.1,0.2,0.1c0.1,0,0.2,0,0.2,0s0.1,0,0.2-0.1l0,0.4
		c-0.1,0-0.2,0.1-0.3,0.1c-0.1,0-0.2,0-0.3,0c-0.2,0-0.3-0.1-0.4-0.2c-0.1-0.1-0.2-0.3-0.2-0.6V1.6h-0.4V1.2h0.4v-1l0.5-0.3v1.2h0.8
		v0.4H545.6z"/>
	<path id="XMLID_84_" class="st0" d="M549.1,1.7c-0.1,0-0.1-0.1-0.2-0.1c-0.1,0-0.2,0-0.3,0c-0.2,0-0.4,0.1-0.5,0.3
		c-0.1,0.2-0.2,0.4-0.2,0.7v1.8h-0.5V1.2h0.5v0.4c0.1-0.1,0.2-0.2,0.3-0.3c0.1-0.1,0.3-0.1,0.5-0.1c0.1,0,0.2,0,0.3,0
		c0.1,0,0.1,0,0.2,0.1L549.1,1.7z"/>
	<path id="XMLID_81_" class="st0" d="M552.6,2.8c0,0.3,0,0.5-0.1,0.7s-0.2,0.4-0.3,0.5c-0.1,0.1-0.3,0.2-0.4,0.3
		c-0.2,0.1-0.3,0.1-0.5,0.1s-0.4,0-0.5-0.1c-0.2-0.1-0.3-0.2-0.4-0.3c-0.1-0.1-0.2-0.3-0.3-0.5c-0.1-0.2-0.1-0.4-0.1-0.7
		s0-0.5,0.1-0.7c0.1-0.2,0.2-0.4,0.3-0.5c0.1-0.1,0.3-0.2,0.4-0.3c0.2-0.1,0.3-0.1,0.5-0.1s0.4,0,0.5,0.1c0.2,0.1,0.3,0.2,0.4,0.3
		c0.1,0.1,0.2,0.3,0.3,0.5C552.5,2.3,552.6,2.5,552.6,2.8z M552.1,2.8c0-0.4-0.1-0.7-0.3-0.9s-0.4-0.3-0.7-0.3s-0.5,0.1-0.7,0.3
		c-0.2,0.2-0.2,0.5-0.2,0.9s0.1,0.7,0.2,0.9c0.2,0.2,0.4,0.3,0.7,0.3s0.5-0.1,0.7-0.3S552.1,3.2,552.1,2.8z"/>
	<path id="XMLID_79_" class="st0" d="M553.7,4.4V0.3l0.5-0.3v4.4H553.7z"/>
	<path id="XMLID_77_" class="st0" d="M555.4,4.4V0.3l0.5-0.3v4.4H555.4z"/>
	<path id="XMLID_74_" class="st0" d="M559.5,2.7c0,0.1,0,0.1,0,0.1s0,0.1,0,0.1h-2.1c0,0.3,0.1,0.6,0.3,0.8S558,4,558.3,4
		c0.2,0,0.3,0,0.5-0.1c0.1-0.1,0.3-0.1,0.4-0.2l0.2,0.3c-0.1,0.1-0.2,0.1-0.3,0.2c-0.1,0-0.2,0.1-0.3,0.1s-0.2,0.1-0.3,0.1
		s-0.2,0-0.3,0c-0.1,0-0.3,0-0.4-0.1s-0.3-0.1-0.4-0.3c-0.1-0.1-0.2-0.3-0.3-0.5c-0.1-0.2-0.1-0.5-0.1-0.8c0-0.3,0-0.5,0.1-0.7
		s0.2-0.4,0.3-0.5c0.1-0.1,0.3-0.2,0.4-0.3c0.2-0.1,0.3-0.1,0.5-0.1c0.2,0,0.4,0,0.5,0.1c0.2,0.1,0.3,0.2,0.4,0.3
		c0.1,0.1,0.2,0.3,0.2,0.5C559.5,2.3,559.5,2.5,559.5,2.7z M559.1,2.6c0-0.3-0.1-0.6-0.2-0.8c-0.1-0.2-0.3-0.3-0.6-0.3
		c-0.2,0-0.4,0.1-0.6,0.3c-0.1,0.2-0.2,0.4-0.3,0.8H559.1z"/>
	<path id="XMLID_71_" class="st0" d="M562.5,4.4V4c-0.1,0.1-0.2,0.2-0.4,0.3c-0.2,0.1-0.3,0.1-0.5,0.1c-0.2,0-0.3,0-0.4-0.1
		c-0.1-0.1-0.3-0.2-0.4-0.3c-0.1-0.1-0.2-0.3-0.2-0.5s-0.1-0.4-0.1-0.7c0-0.3,0-0.5,0.1-0.7s0.1-0.4,0.3-0.5s0.2-0.2,0.4-0.3
		s0.3-0.1,0.5-0.1c0.2,0,0.4,0,0.5,0.1c0.1,0.1,0.3,0.2,0.4,0.3V0.3l0.5-0.3v4.4H562.5z M562.5,2c-0.1-0.1-0.2-0.2-0.3-0.3
		c-0.1-0.1-0.3-0.1-0.5-0.1c-0.3,0-0.5,0.1-0.6,0.3c-0.1,0.2-0.2,0.5-0.2,1c0,0.4,0.1,0.7,0.2,0.9c0.1,0.2,0.3,0.3,0.6,0.3
		c0.2,0,0.3,0,0.5-0.1c0.1-0.1,0.3-0.2,0.4-0.3V2z"/>
	<path id="XMLID_69_" class="st0" d="M568.6,3.3c0,0.2,0,0.3-0.1,0.5c-0.1,0.1-0.2,0.3-0.3,0.4c-0.1,0.1-0.3,0.2-0.4,0.2
		c-0.2,0.1-0.4,0.1-0.6,0.1c-0.3,0-0.5-0.1-0.8-0.2s-0.4-0.2-0.6-0.4l0.3-0.3c0.2,0.2,0.3,0.3,0.5,0.4c0.2,0.1,0.4,0.1,0.6,0.1
		c0.3,0,0.5-0.1,0.7-0.2c0.2-0.1,0.2-0.3,0.2-0.5c0-0.1,0-0.2,0-0.3c0-0.1-0.1-0.2-0.2-0.2c-0.1-0.1-0.2-0.1-0.3-0.2
		c-0.1-0.1-0.3-0.1-0.5-0.2c-0.2-0.1-0.4-0.2-0.6-0.2c-0.2-0.1-0.3-0.2-0.4-0.3c-0.1-0.1-0.2-0.2-0.2-0.3s-0.1-0.2-0.1-0.4
		c0-0.2,0-0.3,0.1-0.4c0.1-0.1,0.2-0.2,0.3-0.3c0.1-0.1,0.3-0.2,0.4-0.2s0.3-0.1,0.5-0.1c0.3,0,0.5,0,0.7,0.1
		c0.2,0.1,0.4,0.2,0.6,0.3l-0.3,0.4c-0.2-0.1-0.3-0.2-0.5-0.3s-0.3-0.1-0.5-0.1c-0.1,0-0.3,0-0.4,0.1s-0.2,0.1-0.3,0.1
		s-0.1,0.1-0.1,0.2c0,0.1,0,0.2,0,0.2c0,0.1,0,0.2,0,0.2c0,0.1,0.1,0.1,0.1,0.2c0.1,0.1,0.2,0.1,0.3,0.2c0.1,0.1,0.3,0.1,0.5,0.2
		c0.2,0.1,0.4,0.2,0.6,0.3c0.2,0.1,0.3,0.2,0.4,0.3c0.1,0.1,0.2,0.2,0.2,0.3C568.5,3,568.6,3.1,568.6,3.3z"/>
	<path id="XMLID_67_" class="st0" d="M570.2,1.6v2c0,0.1,0,0.2,0.1,0.3s0.1,0.1,0.2,0.1c0.1,0,0.2,0,0.2,0s0.1,0,0.2-0.1l0,0.4
		c-0.1,0-0.2,0.1-0.3,0.1c-0.1,0-0.2,0-0.3,0c-0.2,0-0.3-0.1-0.4-0.2c-0.1-0.1-0.2-0.3-0.2-0.6V1.6h-0.4V1.2h0.4v-1l0.5-0.3v1.2h0.8
		v0.4H570.2z"/>
	<path id="XMLID_65_" class="st0" d="M574,4.4V4c-0.1,0.1-0.2,0.2-0.4,0.3c-0.1,0.1-0.3,0.1-0.5,0.1c-0.2,0-0.3,0-0.5-0.1
		c-0.1,0-0.3-0.1-0.3-0.2s-0.2-0.2-0.2-0.4S572,3.4,572,3.1V1.2h0.5v1.8c0,0.3,0.1,0.6,0.2,0.7C572.8,4,573,4,573.2,4
		c0.2,0,0.4-0.1,0.5-0.2s0.2-0.4,0.2-0.7V1.2h0.5v3.1H574z"/>
	<path id="XMLID_62_" class="st0" d="M577.6,4.4V4c-0.1,0.1-0.2,0.2-0.4,0.3c-0.2,0.1-0.3,0.1-0.5,0.1c-0.2,0-0.3,0-0.4-0.1
		c-0.1-0.1-0.3-0.2-0.4-0.3c-0.1-0.1-0.2-0.3-0.2-0.5s-0.1-0.4-0.1-0.7c0-0.3,0-0.5,0.1-0.7s0.1-0.4,0.3-0.5s0.2-0.2,0.4-0.3
		s0.3-0.1,0.5-0.1c0.2,0,0.4,0,0.5,0.1c0.1,0.1,0.3,0.2,0.4,0.3V0.3L578,0v4.4H577.6z M577.6,2c-0.1-0.1-0.2-0.2-0.3-0.3
		c-0.1-0.1-0.3-0.1-0.5-0.1c-0.3,0-0.5,0.1-0.6,0.3c-0.1,0.2-0.2,0.5-0.2,1c0,0.4,0.1,0.7,0.2,0.9c0.1,0.2,0.3,0.3,0.6,0.3
		c0.2,0,0.3,0,0.5-0.1c0.1-0.1,0.3-0.2,0.4-0.3V2z"/>
	<path id="XMLID_59_" class="st0" d="M579.8,0.3c0,0.1,0,0.2-0.1,0.2c-0.1,0.1-0.1,0.1-0.2,0.1c-0.1,0-0.2,0-0.2-0.1
		s-0.1-0.1-0.1-0.2c0-0.1,0-0.2,0.1-0.2s0.1-0.1,0.2-0.1c0.1,0,0.2,0,0.2,0.1C579.8,0.2,579.8,0.2,579.8,0.3z M579.3,4.4V1.2h0.5
		v3.1H579.3z"/>
	<path id="XMLID_56_" class="st0" d="M583.4,2.7c0,0.1,0,0.1,0,0.1s0,0.1,0,0.1h-2.1c0,0.3,0.1,0.6,0.3,0.8s0.4,0.3,0.6,0.3
		c0.2,0,0.3,0,0.5-0.1c0.1-0.1,0.3-0.1,0.4-0.2l0.2,0.3c-0.1,0.1-0.2,0.1-0.3,0.2c-0.1,0-0.2,0.1-0.3,0.1s-0.2,0.1-0.3,0.1
		s-0.2,0-0.3,0c-0.1,0-0.3,0-0.4-0.1s-0.3-0.1-0.4-0.3c-0.1-0.1-0.2-0.3-0.3-0.5c-0.1-0.2-0.1-0.5-0.1-0.8c0-0.3,0-0.5,0.1-0.7
		s0.2-0.4,0.3-0.5c0.1-0.1,0.3-0.2,0.4-0.3c0.2-0.1,0.3-0.1,0.5-0.1c0.2,0,0.4,0,0.5,0.1c0.2,0.1,0.3,0.2,0.4,0.3
		c0.1,0.1,0.2,0.3,0.2,0.5C583.3,2.3,583.4,2.5,583.4,2.7z M583,2.6c0-0.3-0.1-0.6-0.2-0.8c-0.1-0.2-0.3-0.3-0.6-0.3
		c-0.2,0-0.4,0.1-0.6,0.3c-0.1,0.2-0.2,0.4-0.3,0.8H583z"/>
	<path id="XMLID_54_" class="st0" d="M586.3,3.5c0,0.2,0,0.3-0.1,0.4c-0.1,0.1-0.1,0.2-0.2,0.3c-0.1,0.1-0.2,0.1-0.3,0.2
		c-0.1,0-0.3,0.1-0.4,0.1c-0.2,0-0.4,0-0.6-0.1c-0.2-0.1-0.4-0.2-0.5-0.3l0.3-0.3c0.1,0.1,0.3,0.2,0.4,0.3C585,4,585.1,4,585.3,4
		c0.2,0,0.4,0,0.5-0.1c0.1-0.1,0.2-0.2,0.2-0.4c0-0.1,0-0.1,0-0.2c0-0.1-0.1-0.1-0.1-0.2s-0.1-0.1-0.2-0.1s-0.2-0.1-0.3-0.2
		c-0.2-0.1-0.3-0.1-0.4-0.2c-0.1-0.1-0.2-0.1-0.3-0.2c-0.1-0.1-0.1-0.2-0.2-0.2c0-0.1-0.1-0.2-0.1-0.3c0-0.1,0-0.2,0.1-0.3
		s0.1-0.2,0.2-0.3c0.1-0.1,0.2-0.1,0.3-0.2c0.1,0,0.3-0.1,0.4-0.1c0.2,0,0.4,0,0.6,0.1s0.3,0.1,0.4,0.2L586,1.8
		c-0.1-0.1-0.2-0.2-0.4-0.2c-0.1,0-0.3-0.1-0.4-0.1s-0.3,0-0.4,0.1c-0.1,0.1-0.1,0.2-0.1,0.3c0,0.1,0,0.1,0,0.2s0.1,0.1,0.1,0.1
		s0.1,0.1,0.2,0.1c0.1,0,0.2,0.1,0.3,0.2c0.1,0.1,0.3,0.1,0.4,0.2s0.2,0.1,0.3,0.2c0.1,0.1,0.1,0.2,0.2,0.3
		C586.3,3.3,586.3,3.4,586.3,3.5z"/>
	<path id="XMLID_52_" class="st0" d="M588,4c0,0.1,0,0.2-0.1,0.3c-0.1,0.1-0.2,0.1-0.3,0.1s-0.2,0-0.3-0.1c-0.1-0.1-0.1-0.2-0.1-0.3
		s0-0.2,0.1-0.3c0.1-0.1,0.2-0.1,0.3-0.1s0.2,0,0.3,0.1C587.9,3.8,588,3.9,588,4z"/>
	<path id="XMLID_49_" class="st0" d="M5.1,8.6c0,0.2,0,0.4-0.1,0.6C5,9.3,4.9,9.4,4.8,9.5C4.6,9.7,4.5,9.7,4.3,9.8
		C4.1,9.8,3.9,9.9,3.7,9.9h-1v1.6H2.3V7.3h1.6c0.2,0,0.4,0,0.5,0.1c0.2,0,0.3,0.1,0.4,0.2C4.9,7.7,5,7.9,5,8
		C5.1,8.2,5.1,8.4,5.1,8.6z M4.7,8.6c0-0.3-0.1-0.5-0.2-0.6C4.3,7.8,4.1,7.8,3.8,7.8H2.7v1.7h1C4.4,9.5,4.7,9.2,4.7,8.6z"/>
	<path id="XMLID_47_" class="st0" d="M7.7,8.8c-0.1,0-0.1-0.1-0.2-0.1c-0.1,0-0.2,0-0.3,0C7,8.7,6.9,8.8,6.8,9
		C6.6,9.1,6.6,9.4,6.6,9.7v1.8H6.1V8.4h0.5v0.4c0.1-0.1,0.2-0.2,0.3-0.3C7,8.4,7.2,8.3,7.4,8.3c0.1,0,0.2,0,0.3,0
		c0.1,0,0.1,0,0.2,0.1L7.7,8.8z"/>
	<path id="XMLID_44_" class="st0" d="M11,9.9c0,0.1,0,0.1,0,0.1s0,0.1,0,0.1H8.9c0,0.3,0.1,0.6,0.3,0.8s0.4,0.3,0.6,0.3
		c0.2,0,0.3,0,0.5-0.1c0.1-0.1,0.3-0.1,0.4-0.2l0.2,0.3c-0.1,0.1-0.2,0.1-0.3,0.2c-0.1,0-0.2,0.1-0.3,0.1s-0.2,0.1-0.3,0.1
		s-0.2,0-0.3,0c-0.1,0-0.3,0-0.4-0.1S9,11.4,8.9,11.2c-0.1-0.1-0.2-0.3-0.3-0.5c-0.1-0.2-0.1-0.5-0.1-0.8c0-0.3,0-0.5,0.1-0.7
		s0.2-0.4,0.3-0.5C9,8.6,9.1,8.5,9.3,8.4c0.2-0.1,0.3-0.1,0.5-0.1c0.2,0,0.4,0,0.5,0.1c0.2,0.1,0.3,0.2,0.4,0.3
		c0.1,0.1,0.2,0.3,0.2,0.5C11,9.4,11,9.6,11,9.9z M10.6,9.7c0-0.3-0.1-0.6-0.2-0.8C10.3,8.8,10,8.7,9.8,8.7C9.5,8.7,9.4,8.8,9.2,9
		C9.1,9.1,9,9.4,8.9,9.7H10.6z"/>
	<path id="XMLID_42_" class="st0" d="M14,10.7c0,0.2,0,0.3-0.1,0.4c-0.1,0.1-0.1,0.2-0.2,0.3c-0.1,0.1-0.2,0.1-0.3,0.2
		c-0.1,0-0.3,0.1-0.4,0.1c-0.2,0-0.4,0-0.6-0.1c-0.2-0.1-0.4-0.2-0.5-0.3l0.3-0.3c0.1,0.1,0.3,0.2,0.4,0.3c0.1,0.1,0.3,0.1,0.4,0.1
		c0.2,0,0.4,0,0.5-0.1c0.1-0.1,0.2-0.2,0.2-0.4c0-0.1,0-0.1,0-0.2c0-0.1-0.1-0.1-0.1-0.2s-0.1-0.1-0.2-0.1s-0.2-0.1-0.3-0.2
		c-0.2-0.1-0.3-0.1-0.4-0.2c-0.1-0.1-0.2-0.1-0.3-0.2C12.1,9.6,12,9.5,12,9.4c0-0.1-0.1-0.2-0.1-0.3c0-0.1,0-0.2,0.1-0.3
		s0.1-0.2,0.2-0.3c0.1-0.1,0.2-0.1,0.3-0.2c0.1,0,0.3-0.1,0.4-0.1c0.2,0,0.4,0,0.6,0.1s0.3,0.1,0.4,0.2L13.7,9
		c-0.1-0.1-0.2-0.2-0.4-0.2c-0.1,0-0.3-0.1-0.4-0.1s-0.3,0-0.4,0.1c-0.1,0.1-0.1,0.2-0.1,0.3c0,0.1,0,0.1,0,0.2s0.1,0.1,0.1,0.1
		s0.1,0.1,0.2,0.1c0.1,0,0.2,0.1,0.3,0.2c0.1,0.1,0.3,0.1,0.4,0.2s0.2,0.1,0.3,0.2c0.1,0.1,0.1,0.2,0.2,0.3C14,10.4,14,10.6,14,10.7
		z"/>
	<path id="XMLID_39_" class="st0" d="M17.4,9.9c0,0.1,0,0.1,0,0.1s0,0.1,0,0.1h-2.1c0,0.3,0.1,0.6,0.3,0.8s0.4,0.3,0.6,0.3
		c0.2,0,0.3,0,0.5-0.1c0.1-0.1,0.3-0.1,0.4-0.2l0.2,0.3c-0.1,0.1-0.2,0.1-0.3,0.2c-0.1,0-0.2,0.1-0.3,0.1s-0.2,0.1-0.3,0.1
		s-0.2,0-0.3,0c-0.1,0-0.3,0-0.4-0.1s-0.3-0.1-0.4-0.3c-0.1-0.1-0.2-0.3-0.3-0.5c-0.1-0.2-0.1-0.5-0.1-0.8c0-0.3,0-0.5,0.1-0.7
		s0.2-0.4,0.3-0.5c0.1-0.1,0.3-0.2,0.4-0.3c0.2-0.1,0.3-0.1,0.5-0.1c0.2,0,0.4,0,0.5,0.1c0.2,0.1,0.3,0.2,0.4,0.3
		c0.1,0.1,0.2,0.3,0.2,0.5C17.4,9.4,17.4,9.6,17.4,9.9z M17,9.7c0-0.3-0.1-0.6-0.2-0.8c-0.1-0.2-0.3-0.3-0.6-0.3
		c-0.2,0-0.4,0.1-0.6,0.3c-0.1,0.2-0.2,0.4-0.3,0.8H17z"/>
	<path id="XMLID_37_" class="st0" d="M20.5,11.5V9.7c0-0.3-0.1-0.6-0.2-0.7c-0.1-0.2-0.3-0.2-0.6-0.2c-0.2,0-0.4,0.1-0.6,0.2
		c-0.1,0.2-0.2,0.4-0.2,0.7v1.8h-0.5V8.4h0.5l0,0.4c0.1-0.1,0.2-0.2,0.4-0.3c0.1-0.1,0.3-0.1,0.5-0.1c0.2,0,0.3,0,0.5,0.1
		s0.3,0.1,0.3,0.2s0.2,0.2,0.2,0.4s0.1,0.4,0.1,0.6v1.9H20.5z"/>
	<path id="XMLID_35_" class="st0" d="M22.7,8.8v2c0,0.1,0,0.2,0.1,0.3s0.1,0.1,0.2,0.1c0.1,0,0.2,0,0.2,0s0.1,0,0.2-0.1l0,0.4
		c-0.1,0-0.2,0.1-0.3,0.1c-0.1,0-0.2,0-0.3,0c-0.2,0-0.3-0.1-0.4-0.2c-0.1-0.1-0.2-0.3-0.2-0.6V8.8h-0.4V8.4h0.4v-1l0.5-0.3v1.2h0.8
		v0.4H22.7z"/>
	<path id="XMLID_32_" class="st0" d="M26.8,9.9c0,0.1,0,0.1,0,0.1s0,0.1,0,0.1h-2.1c0,0.3,0.1,0.6,0.3,0.8s0.4,0.3,0.6,0.3
		c0.2,0,0.3,0,0.5-0.1c0.1-0.1,0.3-0.1,0.4-0.2l0.2,0.3c-0.1,0.1-0.2,0.1-0.3,0.2c-0.1,0-0.2,0.1-0.3,0.1s-0.2,0.1-0.3,0.1
		s-0.2,0-0.3,0c-0.1,0-0.3,0-0.4-0.1s-0.3-0.1-0.4-0.3c-0.1-0.1-0.2-0.3-0.3-0.5c-0.1-0.2-0.1-0.5-0.1-0.8c0-0.3,0-0.5,0.1-0.7
		s0.2-0.4,0.3-0.5c0.1-0.1,0.3-0.2,0.4-0.3c0.2-0.1,0.3-0.1,0.5-0.1c0.2,0,0.4,0,0.5,0.1c0.2,0.1,0.3,0.2,0.4,0.3
		c0.1,0.1,0.2,0.3,0.2,0.5C26.8,9.4,26.8,9.6,26.8,9.9z M26.4,9.7c0-0.3-0.1-0.6-0.2-0.8c-0.1-0.2-0.3-0.3-0.6-0.3
		c-0.2,0-0.4,0.1-0.6,0.3c-0.1,0.2-0.2,0.4-0.3,0.8H26.4z"/>
	<path id="XMLID_29_" class="st0" d="M29.8,11.5v-0.4c-0.1,0.1-0.2,0.2-0.4,0.3c-0.2,0.1-0.3,0.1-0.5,0.1c-0.2,0-0.3,0-0.4-0.1
		c-0.1-0.1-0.3-0.2-0.4-0.3c-0.1-0.1-0.2-0.3-0.2-0.5s-0.1-0.4-0.1-0.7c0-0.3,0-0.5,0.1-0.7s0.1-0.4,0.3-0.5s0.2-0.2,0.4-0.3
		s0.3-0.1,0.5-0.1c0.2,0,0.4,0,0.5,0.1c0.1,0.1,0.3,0.2,0.4,0.3V7.4l0.5-0.3v4.4H29.8z M29.8,9.2c-0.1-0.1-0.2-0.2-0.3-0.3
		c-0.1-0.1-0.3-0.1-0.5-0.1c-0.3,0-0.5,0.1-0.6,0.3c-0.1,0.2-0.2,0.5-0.2,1c0,0.4,0.1,0.7,0.2,0.9c0.1,0.2,0.3,0.3,0.6,0.3
		c0.2,0,0.3,0,0.5-0.1c0.1-0.1,0.3-0.2,0.4-0.3V9.2z"/>
	<path id="XMLID_26_" class="st0" d="M33.8,7.5c0,0.1,0,0.2-0.1,0.2c-0.1,0.1-0.1,0.1-0.2,0.1c-0.1,0-0.2,0-0.2-0.1
		s-0.1-0.1-0.1-0.2c0-0.1,0-0.2,0.1-0.2s0.1-0.1,0.2-0.1c0.1,0,0.2,0,0.2,0.1C33.8,7.3,33.8,7.4,33.8,7.5z M33.3,11.5V8.4h0.5v3.1
		H33.3z"/>
	<path id="XMLID_24_" class="st0" d="M37,11.5V9.7c0-0.3-0.1-0.6-0.2-0.7c-0.1-0.2-0.3-0.2-0.6-0.2c-0.2,0-0.4,0.1-0.6,0.2
		c-0.1,0.2-0.2,0.4-0.2,0.7v1.8H35V8.4h0.5l0,0.4c0.1-0.1,0.2-0.2,0.4-0.3c0.1-0.1,0.3-0.1,0.5-0.1c0.2,0,0.3,0,0.5,0.1
		s0.3,0.1,0.3,0.2s0.2,0.2,0.2,0.4s0.1,0.4,0.1,0.6v1.9H37z"/>
	<path id="XMLID_22_" class="st0" d="M40.5,11.5V7.3H43v0.4h-2.1v1.3h1.2v0.4h-1.2v1.6h2.1v0.4H40.5z"/>
	<path id="XMLID_20_" class="st0" d="M44.7,7.8v1.4h1.1v0.4h-1.1v1.9h-0.5V7.3h2.5v0.4H44.7z"/>
	<path id="XMLID_18_" class="st0" d="M50.3,11.5l-1.8-2.9c0,0,0-0.1-0.1-0.1c0,0-0.1-0.1-0.1-0.1s-0.1-0.1-0.1-0.1
		c0,0,0-0.1-0.1-0.1v0.3v3.1h-0.4V7.3h0.5l1.8,2.9c0,0,0,0.1,0.1,0.1c0,0,0.1,0.1,0.1,0.1c0,0,0.1,0.1,0.1,0.1c0,0,0,0.1,0.1,0.1
		v-0.3V7.3h0.5v4.2H50.3z"/>
	<path id="XMLID_16_" class="st0" d="M54.6,10.4c0,0.2,0,0.3-0.1,0.5c-0.1,0.1-0.2,0.3-0.3,0.4c-0.1,0.1-0.3,0.2-0.4,0.2
		c-0.2,0.1-0.4,0.1-0.6,0.1c-0.3,0-0.5-0.1-0.8-0.2S52,11.2,51.8,11l0.3-0.3c0.2,0.2,0.3,0.3,0.5,0.4c0.2,0.1,0.4,0.1,0.6,0.1
		c0.3,0,0.5-0.1,0.7-0.2c0.2-0.1,0.2-0.3,0.2-0.5c0-0.1,0-0.2,0-0.3c0-0.1-0.1-0.2-0.2-0.2c-0.1-0.1-0.2-0.1-0.3-0.2
		c-0.1-0.1-0.3-0.1-0.5-0.2c-0.2-0.1-0.4-0.2-0.6-0.2c-0.2-0.1-0.3-0.2-0.4-0.3C52.1,9,52.1,8.9,52,8.7S52,8.5,52,8.3
		c0-0.2,0-0.3,0.1-0.4c0.1-0.1,0.2-0.2,0.3-0.3c0.1-0.1,0.3-0.2,0.4-0.2s0.3-0.1,0.5-0.1c0.3,0,0.5,0,0.7,0.1
		c0.2,0.1,0.4,0.2,0.6,0.3l-0.3,0.4c-0.2-0.1-0.3-0.2-0.5-0.3s-0.3-0.1-0.5-0.1c-0.1,0-0.3,0-0.4,0.1s-0.2,0.1-0.3,0.1
		S52.5,8,52.5,8.1c0,0.1,0,0.2,0,0.2c0,0.1,0,0.2,0,0.2c0,0.1,0.1,0.1,0.1,0.2c0.1,0.1,0.2,0.1,0.3,0.2C53,9,53.2,9.1,53.4,9.2
		c0.2,0.1,0.4,0.2,0.6,0.3c0.2,0.1,0.3,0.2,0.4,0.3c0.1,0.1,0.2,0.2,0.2,0.3C54.6,10.1,54.6,10.3,54.6,10.4z"/>
	<path id="XMLID_14_" class="st0" d="M57.3,11.5c0-0.3,0.1-0.5,0.1-0.7c0.1-0.2,0.2-0.4,0.3-0.5S58,10,58.1,9.9
		c0.2-0.1,0.3-0.3,0.5-0.4c0.2-0.1,0.3-0.2,0.5-0.3c0.1-0.1,0.2-0.2,0.3-0.3s0.1-0.2,0.1-0.2c0-0.1,0-0.2,0-0.3
		c0-0.2-0.1-0.4-0.2-0.5c-0.1-0.1-0.4-0.2-0.6-0.2c-0.2,0-0.4,0-0.6,0.1S57.8,8,57.7,8.1l-0.3-0.3c0.1-0.1,0.2-0.1,0.3-0.2
		c0.1-0.1,0.2-0.1,0.3-0.2c0.1,0,0.2-0.1,0.3-0.1c0.1,0,0.3,0,0.4,0c0.2,0,0.4,0,0.5,0.1s0.3,0.1,0.4,0.2s0.2,0.2,0.3,0.3
		C60,8,60,8.2,60,8.4c0,0.2,0,0.3-0.1,0.4c0,0.1-0.1,0.2-0.2,0.3c-0.1,0.1-0.2,0.2-0.3,0.3c-0.1,0.1-0.3,0.2-0.5,0.3
		c-0.2,0.1-0.4,0.3-0.5,0.4s-0.2,0.2-0.3,0.3c-0.1,0.1-0.1,0.2-0.2,0.3s-0.1,0.2-0.1,0.3h2.2v0.4H57.3z"/>
	<path id="XMLID_11_" class="st0" d="M64.1,9.4c0,0.3,0,0.7-0.1,0.9c-0.1,0.3-0.2,0.5-0.3,0.7c-0.1,0.2-0.3,0.3-0.5,0.4
		c-0.2,0.1-0.4,0.1-0.6,0.1c-0.2,0-0.4,0-0.6-0.1c-0.2-0.1-0.4-0.2-0.5-0.4c-0.1-0.2-0.2-0.4-0.3-0.7C61,10.1,61,9.8,61,9.4
		c0-0.3,0-0.7,0.1-0.9c0.1-0.3,0.2-0.5,0.3-0.7c0.1-0.2,0.3-0.3,0.5-0.4c0.2-0.1,0.4-0.1,0.6-0.1c0.2,0,0.4,0,0.6,0.1
		c0.2,0.1,0.4,0.2,0.5,0.4C63.8,8,63.9,8.2,64,8.5C64.1,8.8,64.1,9.1,64.1,9.4z M63.6,9.4c0-0.5-0.1-1-0.3-1.3
		c-0.2-0.3-0.5-0.5-0.8-0.5c-0.4,0-0.6,0.2-0.8,0.5c-0.2,0.3-0.3,0.7-0.3,1.3c0,0.5,0.1,1,0.3,1.3c0.2,0.3,0.5,0.5,0.8,0.5
		c0.4,0,0.6-0.2,0.8-0.5C63.5,10.4,63.6,10,63.6,9.4z"/>
	<path id="XMLID_8_" class="st0" d="M68.2,9.4c0,0.3,0,0.7-0.1,0.9c-0.1,0.3-0.2,0.5-0.3,0.7c-0.1,0.2-0.3,0.3-0.5,0.4
		c-0.2,0.1-0.4,0.1-0.6,0.1c-0.2,0-0.4,0-0.6-0.1c-0.2-0.1-0.4-0.2-0.5-0.4c-0.1-0.2-0.2-0.4-0.3-0.7C65.1,10.1,65,9.8,65,9.4
		c0-0.3,0-0.7,0.1-0.9c0.1-0.3,0.2-0.5,0.3-0.7c0.1-0.2,0.3-0.3,0.5-0.4c0.2-0.1,0.4-0.1,0.6-0.1c0.2,0,0.4,0,0.6,0.1
		c0.2,0.1,0.4,0.2,0.5,0.4C67.9,8,68,8.2,68,8.5C68.1,8.8,68.2,9.1,68.2,9.4z M67.7,9.4c0-0.5-0.1-1-0.3-1.3
		c-0.2-0.3-0.5-0.5-0.8-0.5c-0.4,0-0.6,0.2-0.8,0.5c-0.2,0.3-0.3,0.7-0.3,1.3c0,0.5,0.1,1,0.3,1.3c0.2,0.3,0.5,0.5,0.8,0.5
		c0.4,0,0.6-0.2,0.8-0.5C67.6,10.4,67.7,10,67.7,9.4z"/>
	<path id="XMLID_4_" class="st0" d="M72.2,10.3c0,0.2,0,0.4-0.1,0.5s-0.2,0.3-0.3,0.4s-0.3,0.2-0.5,0.2s-0.4,0.1-0.6,0.1
		s-0.5,0-0.6-0.1s-0.4-0.1-0.5-0.2c-0.1-0.1-0.2-0.2-0.3-0.4c-0.1-0.2-0.1-0.3-0.1-0.5c0-0.3,0.1-0.5,0.2-0.7
		c0.1-0.2,0.3-0.3,0.6-0.4c-0.2-0.1-0.3-0.2-0.5-0.3c-0.1-0.1-0.2-0.3-0.2-0.6c0-0.2,0-0.3,0.1-0.4c0.1-0.1,0.1-0.3,0.3-0.4
		c0.1-0.1,0.3-0.2,0.4-0.2c0.2-0.1,0.4-0.1,0.6-0.1s0.4,0,0.6,0.1s0.3,0.1,0.4,0.2c0.1,0.1,0.2,0.2,0.3,0.4C72,8.1,72,8.2,72,8.4
		c0,0.2-0.1,0.4-0.2,0.5c-0.1,0.1-0.3,0.3-0.5,0.3c0.3,0.1,0.5,0.2,0.6,0.4S72.2,10.1,72.2,10.3z M71.7,10.4c0-0.2-0.1-0.4-0.3-0.6
		c-0.2-0.2-0.5-0.2-0.8-0.2S70,9.6,69.8,9.7c-0.2,0.2-0.3,0.4-0.3,0.6c0,0.2,0.1,0.4,0.3,0.6c0.2,0.1,0.5,0.2,0.8,0.2
		s0.6-0.1,0.8-0.2C71.7,10.8,71.7,10.6,71.7,10.4z M71.6,8.4c0-0.1,0-0.2-0.1-0.3c0-0.1-0.1-0.2-0.2-0.2c-0.1-0.1-0.2-0.1-0.3-0.2
		c-0.1,0-0.3-0.1-0.4-0.1s-0.3,0-0.4,0.1c-0.1,0-0.2,0.1-0.3,0.2C69.9,8,69.8,8,69.8,8.1c0,0.1,0,0.2,0,0.3c0,0.2,0.1,0.4,0.2,0.5
		c0.2,0.1,0.4,0.2,0.7,0.2c0.3,0,0.5-0.1,0.7-0.2C71.5,8.8,71.6,8.6,71.6,8.4z"/>
	<path id="XMLID_2_" class="st0" d="M73.9,11.2c0,0.1,0,0.2-0.1,0.3c-0.1,0.1-0.2,0.1-0.3,0.1s-0.2,0-0.3-0.1
		c-0.1-0.1-0.1-0.2-0.1-0.3s0-0.2,0.1-0.3c0.1-0.1,0.2-0.1,0.3-0.1s0.2,0,0.3,0.1C73.9,11,73.9,11.1,73.9,11.2z"/>
</g>
</svg>
