<!-- Generator: Adobe Illustrator 22.1.0, SVG Export Plug-In  -->
<svg version="1.1"
	 xmlns="http://www.w3.org/2000/svg" xmlns:xlink="http://www.w3.org/1999/xlink" xmlns:a="http://ns.adobe.com/AdobeSVGViewerExtensions/3.0/"
	 x="0px" y="0px" width="530.5px" height="31px" viewBox="0 0 530.5 31" style="enable-background:new 0 0 530.5 31;"
	 xml:space="preserve">
<style type="text/css">
	.st0{fill:#236092;}
</style>
<defs>
</defs>
<g id="XMLID_1_">
	<g id="XMLID_3_">
		<path id="XMLID_67_" class="st0" d="M18.4,17.4c0,1.1-0.2,2.1-0.5,3.1c-0.4,0.9-0.9,1.7-1.7,2.4c-0.8,0.7-1.7,1.2-2.9,1.5
			s-2.5,0.5-4.2,0.5c-2,0-3.8-0.4-5.4-1.1C2.2,23,0.9,22,0,20.6l3.4-3c0.8,1,1.8,1.7,2.8,2.1c1,0.4,2.1,0.6,3.2,0.6
			c1.4,0,2.5-0.2,3.1-0.6c0.7-0.4,1-1.1,1-2c0-0.4-0.1-0.7-0.2-1c-0.1-0.3-0.4-0.5-0.8-0.8s-0.9-0.5-1.6-0.7
			c-0.7-0.2-1.6-0.5-2.7-0.7c-1.1-0.2-2.1-0.5-3-0.9c-0.9-0.3-1.7-0.8-2.3-1.3c-0.7-0.5-1.2-1.2-1.5-2C1.1,9.7,0.9,8.7,0.9,7.5
			c0-1.1,0.2-2,0.7-2.9C2,3.8,2.6,3,3.4,2.4C4.1,1.8,5,1.4,6,1.1c1-0.3,2.1-0.5,3.3-0.5c1.8,0,3.5,0.3,4.8,1
			c1.4,0.7,2.6,1.6,3.8,2.7l-3.4,3.3c-0.8-0.8-1.6-1.4-2.4-1.8c-0.9-0.4-1.8-0.6-2.9-0.6C8.5,5.2,8,5.2,7.6,5.4
			c-0.4,0.1-0.8,0.3-1,0.5C6.3,6.1,6.1,6.3,6,6.5S5.8,7,5.8,7.3c0,0.4,0.1,0.7,0.2,1C6.2,8.5,6.4,8.8,6.8,9c0.4,0.2,0.8,0.4,1.4,0.6
			s1.4,0.4,2.3,0.6c0.9,0.2,1.9,0.5,2.8,0.8c0.9,0.3,1.8,0.7,2.5,1.3c0.8,0.5,1.4,1.2,1.8,2.1C18.2,15.1,18.4,16.1,18.4,17.4z"/>
		<path id="XMLID_64_" class="st0" d="M27.2,2.8c0,0.7-0.3,1.3-0.8,1.9c-0.5,0.5-1.2,0.8-1.9,0.8s-1.3-0.3-1.9-0.8
			c-0.5-0.5-0.8-1.1-0.8-1.9c0-0.7,0.3-1.3,0.8-1.9c0.5-0.5,1.1-0.8,1.9-0.8s1.3,0.3,1.9,0.8C26.9,1.4,27.2,2,27.2,2.8z M22.2,24.5
			V6.9h4.6v17.7H22.2z"/>
		<path id="XMLID_62_" class="st0" d="M51.6,24.5V15c0-1.6-0.2-2.6-0.7-3.2s-1.2-0.9-2.1-0.9c-1,0-1.7,0.3-2.2,0.9
			c-0.5,0.6-0.7,1.6-0.7,3.1v9.7h-4.6V15c0-1.6-0.2-2.6-0.7-3.2c-0.5-0.6-1.2-0.9-2.1-0.9s-1.7,0.3-2.2,0.9
			c-0.5,0.6-0.7,1.6-0.7,3.1v9.7H31V6.9h4.6V8C36,7.6,36.5,7.3,37.2,7c0.6-0.3,1.4-0.5,2.3-0.5c1.1,0,2.1,0.2,2.8,0.5
			c0.7,0.3,1.4,0.9,2.1,1.7c0.6-0.6,1.3-1.2,2.2-1.6c0.8-0.4,2-0.7,3.5-0.7c1.1,0,2.1,0.2,2.9,0.6c0.8,0.4,1.4,0.9,2,1.6
			s0.9,1.6,1.1,2.6c0.2,1,0.4,2.1,0.4,3.4v10H51.6z"/>
		<path id="XMLID_59_" class="st0" d="M75.3,15.9c0,1.3-0.2,2.5-0.5,3.6c-0.3,1.1-0.7,2-1.3,2.8c-0.6,0.8-1.3,1.4-2.2,1.9
			c-0.9,0.4-1.8,0.7-2.9,0.7c-0.8,0-1.5-0.1-2.1-0.4s-1.2-0.6-1.6-1v5.2L60.1,31V6.9h4.6V8c0.4-0.4,1-0.7,1.6-1
			c0.6-0.3,1.3-0.5,2.2-0.5c0.9,0,1.8,0.2,2.7,0.5c0.8,0.4,1.6,0.9,2.2,1.7c0.6,0.8,1.1,1.8,1.5,2.9C75.1,12.9,75.3,14.3,75.3,15.9z
			 M70.6,16c0-1.8-0.3-3.1-0.8-3.9c-0.6-0.8-1.3-1.2-2.2-1.2c-0.7,0-1.3,0.1-1.7,0.4c-0.4,0.3-0.8,0.6-1.1,1.1V19
			c0.7,1,1.8,1.5,3.1,1.5C69.7,20.5,70.6,19,70.6,16z"/>
		<path id="XMLID_57_" class="st0" d="M78.6,24.5V2.3L83.2,0v24.5H78.6z"/>
		<path id="XMLID_54_" class="st0" d="M101.7,15.7c0,0.3,0,0.6,0,0.9c0,0.2,0,0.4-0.1,0.6H91.1c0,0.6,0.2,1.1,0.4,1.5
			c0.2,0.4,0.5,0.8,0.8,1c0.3,0.3,0.7,0.4,1.1,0.6c0.4,0.1,0.8,0.2,1.3,0.2c0.7,0,1.2-0.1,1.8-0.3c0.5-0.2,0.9-0.5,1.3-0.9l3.3,2.8
			c-0.7,0.9-1.7,1.6-2.8,2.1c-1.2,0.5-2.3,0.7-3.5,0.7c-1.3,0-2.4-0.2-3.4-0.7c-1-0.4-1.9-1.1-2.6-1.9c-0.7-0.8-1.3-1.8-1.7-2.9
			c-0.4-1.1-0.6-2.4-0.6-3.8c0-1.3,0.2-2.6,0.6-3.7c0.4-1.1,1-2.1,1.7-2.9s1.5-1.5,2.5-1.9c1-0.4,2-0.7,3.1-0.7
			c1.2,0,2.2,0.2,3.1,0.7c0.9,0.5,1.7,1.1,2.3,2c0.6,0.8,1.1,1.8,1.4,2.9C101.6,13.3,101.7,14.5,101.7,15.7z M97.2,13.7
			c0-0.4-0.1-0.8-0.3-1.2c-0.1-0.4-0.3-0.7-0.6-1c-0.3-0.3-0.6-0.5-1-0.7s-0.8-0.3-1.4-0.3c-0.9,0-1.5,0.3-2,0.9
			c-0.5,0.6-0.8,1.4-0.9,2.3H97.2z"/>
		<path id="XMLID_52_" class="st0" d="M123.9,23.8c-0.4,0.3-0.9,0.6-1.5,0.8c-0.7,0.2-1.3,0.3-2.1,0.3c-0.7,0-1.4-0.1-2-0.4
			c-0.6-0.3-1.1-0.6-1.5-1.1c-0.4-0.5-0.7-1-0.9-1.7c-0.2-0.7-0.3-1.4-0.3-2.2v-8.4h-3V6.9h3V2.3l4.6-2.3v6.9h4.2v4.4h-4.2v7.1
			c0,0.9,0.1,1.4,0.4,1.7c0.3,0.3,0.7,0.4,1.3,0.4c0.4,0,0.8-0.1,1.2-0.3s0.8-0.5,1.4-1L123.9,23.8z"/>
		<path id="XMLID_49_" class="st0" d="M143.5,15.7c0,1.3-0.2,2.6-0.6,3.7s-1,2.1-1.7,2.9s-1.6,1.4-2.5,1.9c-1,0.4-2.1,0.7-3.2,0.7
			s-2.2-0.2-3.2-0.7s-1.8-1.1-2.5-1.9s-1.3-1.8-1.7-2.9c-0.4-1.1-0.6-2.4-0.6-3.7s0.2-2.6,0.6-3.7c0.4-1.1,1-2.1,1.7-2.9
			s1.5-1.5,2.5-1.9c1-0.4,2-0.7,3.2-0.7s2.2,0.2,3.2,0.7c1,0.4,1.8,1.1,2.5,1.9s1.3,1.8,1.7,2.9C143.3,13.1,143.5,14.4,143.5,15.7z
			 M138.7,15.7c0-1.4-0.3-2.5-0.8-3.4c-0.5-0.9-1.4-1.4-2.5-1.4s-1.9,0.5-2.5,1.4c-0.5,0.9-0.8,2-0.8,3.4c0,1.4,0.3,2.5,0.8,3.4
			s1.4,1.3,2.5,1.3c0.6,0,1-0.1,1.5-0.4c0.4-0.3,0.8-0.6,1-1.1c0.3-0.4,0.5-0.9,0.6-1.5S138.7,16.3,138.7,15.7z"/>
		<path id="XMLID_47_" class="st0" d="M166.4,5.6v18.9h-4.7V5.6h-6.8V1h18.2v4.6H166.4z"/>
		<path id="XMLID_44_" class="st0" d="M186.1,24.5v-1.2c-0.4,0.4-1,0.8-1.7,1.1c-0.7,0.3-1.5,0.4-2.3,0.4c-0.8,0-1.6-0.1-2.4-0.4
			c-0.8-0.3-1.5-0.6-2.1-1.2c-0.6-0.5-1.1-1.2-1.5-2c-0.4-0.8-0.6-1.7-0.6-2.8c0-1,0.2-1.8,0.6-2.6s0.9-1.4,1.5-1.8
			c0.7-0.5,1.4-0.8,2.3-1.1c0.9-0.2,1.8-0.4,2.8-0.4c0.8,0,1.5,0.1,2,0.2c0.5,0.1,1,0.3,1.4,0.5v-0.9c0-0.6-0.2-1.2-0.6-1.6
			c-0.4-0.4-1-0.7-1.9-0.7c-0.5,0-1,0-1.4,0.1c-0.4,0-0.8,0.1-1.2,0.2c-0.4,0.1-0.7,0.2-1.1,0.4c-0.4,0.1-0.7,0.3-1.1,0.6L177,8.3
			c0.5-0.3,1-0.5,1.5-0.8c0.5-0.2,1-0.4,1.5-0.6c0.5-0.1,1.1-0.3,1.7-0.3c0.6-0.1,1.2-0.1,2-0.1c1.1,0,2.1,0.1,2.9,0.4
			c0.9,0.3,1.6,0.7,2.3,1.2c0.6,0.5,1.1,1.2,1.5,2s0.5,1.7,0.5,2.6v11.9H186.1z M186.1,17.1c-0.4-0.2-0.8-0.4-1.3-0.6
			c-0.5-0.1-1.1-0.2-1.9-0.2c-0.9,0-1.5,0.2-2,0.6c-0.5,0.4-0.7,0.9-0.7,1.6c0,0.6,0.2,1.2,0.6,1.6c0.4,0.5,1.1,0.7,2.1,0.7
			c0.8,0,1.4-0.2,2-0.5c0.6-0.3,1-0.7,1.2-1.1V17.1z"/>
		<path id="XMLID_42_" class="st0" d="M204.8,24.5l-3.4-8.1l-2.3,2.8v5.4h-4.6V2.3l4.6-2.3v9.4c0,0.3,0,0.6,0,0.9c0,0.3,0,0.7,0,1
			c0,0.3,0,0.7,0,1c0,0.3,0,0.6,0,0.8c0.2-0.4,0.5-0.8,0.9-1.3c0.3-0.5,0.7-0.9,1-1.3l2.9-3.7h5.5l-4.5,5.6l5.1,12.1H204.8z"/>
		<path id="XMLID_39_" class="st0" d="M226.9,15.7c0,0.3,0,0.6,0,0.9c0,0.2,0,0.4-0.1,0.6h-10.6c0,0.6,0.2,1.1,0.4,1.5
			c0.2,0.4,0.5,0.8,0.8,1c0.3,0.3,0.7,0.4,1.1,0.6c0.4,0.1,0.8,0.2,1.3,0.2c0.7,0,1.2-0.1,1.8-0.3c0.5-0.2,0.9-0.5,1.3-0.9l3.3,2.8
			c-0.7,0.9-1.7,1.6-2.8,2.1c-1.2,0.5-2.3,0.7-3.5,0.7c-1.3,0-2.4-0.2-3.4-0.7c-1-0.4-1.9-1.1-2.6-1.9c-0.7-0.8-1.3-1.8-1.7-2.9
			c-0.4-1.1-0.6-2.4-0.6-3.8c0-1.3,0.2-2.6,0.6-3.7c0.4-1.1,1-2.1,1.7-2.9s1.5-1.5,2.5-1.9c1-0.4,2-0.7,3.1-0.7
			c1.2,0,2.2,0.2,3.1,0.7c0.9,0.5,1.7,1.1,2.3,2c0.6,0.8,1.1,1.8,1.4,2.9C226.8,13.3,226.9,14.5,226.9,15.7z M222.4,13.7
			c0-0.4-0.1-0.8-0.3-1.2c-0.1-0.4-0.3-0.7-0.6-1c-0.3-0.3-0.6-0.5-1-0.7s-0.8-0.3-1.4-0.3c-0.9,0-1.5,0.3-2,0.9
			c-0.5,0.6-0.8,1.4-0.9,2.3H222.4z"/>
		<path id="XMLID_37_" class="st0" d="M240,24.5V1h16.4v4.6h-11.6v4.1h6.8v4.6h-6.8v5.7h12.2v4.6H240z"/>
		<path id="XMLID_34_" class="st0" d="M270.3,24.5v-1.2c-0.4,0.4-1,0.8-1.7,1.1c-0.7,0.3-1.5,0.4-2.3,0.4c-0.8,0-1.6-0.1-2.4-0.4
			c-0.8-0.3-1.5-0.6-2.1-1.2c-0.6-0.5-1.1-1.2-1.5-2c-0.4-0.8-0.6-1.7-0.6-2.8c0-1,0.2-1.8,0.6-2.6s0.9-1.4,1.5-1.8
			c0.7-0.5,1.4-0.8,2.3-1.1c0.9-0.2,1.8-0.4,2.8-0.4c0.8,0,1.5,0.1,2,0.2c0.5,0.1,1,0.3,1.4,0.5v-0.9c0-0.6-0.2-1.2-0.6-1.6
			c-0.4-0.4-1-0.7-1.9-0.7c-0.5,0-1,0-1.4,0.1c-0.4,0-0.8,0.1-1.2,0.2c-0.4,0.1-0.7,0.2-1.1,0.4c-0.4,0.1-0.7,0.3-1.1,0.6l-1.8-3.2
			c0.5-0.3,1-0.5,1.5-0.8c0.5-0.2,1-0.4,1.5-0.6c0.5-0.1,1.1-0.3,1.7-0.3c0.6-0.1,1.2-0.1,2-0.1c1.1,0,2.1,0.1,2.9,0.4
			c0.9,0.3,1.6,0.7,2.3,1.2c0.6,0.5,1.1,1.2,1.5,2s0.5,1.7,0.5,2.6v11.9H270.3z M270.3,17.1c-0.4-0.2-0.8-0.4-1.3-0.6
			c-0.5-0.1-1.1-0.2-1.9-0.2c-0.9,0-1.5,0.2-2,0.6c-0.5,0.4-0.7,0.9-0.7,1.6c0,0.6,0.2,1.2,0.6,1.6c0.4,0.5,1.1,0.7,2.1,0.7
			c0.8,0,1.4-0.2,2-0.5c0.6-0.3,1-0.7,1.2-1.1V17.1z"/>
		<path id="XMLID_32_" class="st0" d="M292.7,19.4c0,1-0.2,1.9-0.6,2.6c-0.4,0.7-0.9,1.3-1.5,1.7c-0.7,0.4-1.4,0.8-2.3,0.9
			c-0.9,0.2-1.8,0.3-2.8,0.3c-1.4,0-2.8-0.2-4.1-0.6c-1.3-0.4-2.4-0.9-3.3-1.5l1.5-3.5c0.9,0.5,1.9,0.9,2.9,1.2
			c1,0.3,2.1,0.4,3.2,0.4c0.9,0,1.5-0.1,1.9-0.3c0.3-0.2,0.5-0.6,0.5-1c0-0.4-0.2-0.7-0.6-1c-0.4-0.2-1-0.5-2-0.8
			c-1.1-0.3-2-0.6-2.9-1c-0.9-0.3-1.6-0.7-2.2-1.1c-0.6-0.4-1.1-1-1.4-1.6c-0.3-0.6-0.5-1.4-0.5-2.4c0-0.9,0.2-1.7,0.5-2.4
			c0.3-0.7,0.8-1.2,1.5-1.6c0.6-0.4,1.4-0.7,2.2-0.9c0.9-0.2,1.8-0.3,2.8-0.3c1.1,0,2.3,0.2,3.4,0.5c1.1,0.3,2.2,0.7,3.1,1.2
			l-1.5,3.7c-0.9-0.5-1.8-0.8-2.7-1.1c-0.9-0.2-1.7-0.4-2.5-0.4c-0.9,0-1.6,0.1-1.9,0.3c-0.3,0.2-0.5,0.5-0.5,0.9
			c0,0.2,0,0.3,0.1,0.5s0.3,0.3,0.5,0.4c0.3,0.1,0.6,0.3,1.1,0.5s1.1,0.4,1.9,0.6c0.8,0.3,1.5,0.6,2.3,0.8c0.7,0.3,1.3,0.7,1.9,1.1
			c0.5,0.4,1,0.9,1.3,1.6C292.5,17.8,292.7,18.5,292.7,19.4z"/>
		<path id="XMLID_30_" class="st0" d="M303.9,30.8h-4.6l2.4-6.2l-6.9-17.7h5.1l2.9,8.5c0.2,0.7,0.5,1.4,0.7,2.1s0.4,1.3,0.5,1.8
			c0.1-0.4,0.3-1,0.5-1.8s0.4-1.4,0.7-2.1l2.9-8.5h5L303.9,30.8z"/>
		<path id="XMLID_28_" class="st0" d="M334.6,23.8c-0.4,0.3-0.9,0.6-1.5,0.8c-0.7,0.2-1.3,0.3-2.1,0.3c-0.7,0-1.4-0.1-2-0.4
			c-0.6-0.3-1.1-0.6-1.5-1.1c-0.4-0.5-0.7-1-0.9-1.7c-0.2-0.7-0.3-1.4-0.3-2.2v-8.4h-3V6.9h3V2.3l4.6-2.3v6.9h4.2v4.4h-4.2v7.1
			c0,0.9,0.1,1.4,0.4,1.7c0.3,0.3,0.7,0.4,1.3,0.4c0.4,0,0.8-0.1,1.2-0.3s0.8-0.5,1.4-1L334.6,23.8z"/>
		<path id="XMLID_25_" class="st0" d="M354.1,15.7c0,1.3-0.2,2.6-0.6,3.7s-1,2.1-1.7,2.9s-1.6,1.4-2.5,1.9c-1,0.4-2.1,0.7-3.2,0.7
			s-2.2-0.2-3.2-0.7s-1.8-1.1-2.5-1.9s-1.3-1.8-1.7-2.9c-0.4-1.1-0.6-2.4-0.6-3.7s0.2-2.6,0.6-3.7c0.4-1.1,1-2.1,1.7-2.9
			s1.5-1.5,2.5-1.9c1-0.4,2-0.7,3.2-0.7s2.2,0.2,3.2,0.7c1,0.4,1.8,1.1,2.5,1.9s1.3,1.8,1.7,2.9C353.9,13.1,354.1,14.4,354.1,15.7z
			 M349.4,15.7c0-1.4-0.3-2.5-0.8-3.4c-0.5-0.9-1.4-1.4-2.5-1.4s-1.9,0.5-2.5,1.4c-0.5,0.9-0.8,2-0.8,3.4c0,1.4,0.3,2.5,0.8,3.4
			s1.4,1.3,2.5,1.3c0.6,0,1-0.1,1.5-0.4c0.4-0.3,0.8-0.6,1-1.1c0.3-0.4,0.5-0.9,0.6-1.5S349.4,16.3,349.4,15.7z"/>
		<path id="XMLID_22_" class="st0" d="M380.8,24.5l-4.2-8.5h-4.7v8.5h-4.7V1h11c1.1,0,2.1,0.2,3.1,0.5c1,0.3,1.9,0.8,2.6,1.4
			c0.7,0.6,1.3,1.4,1.8,2.3c0.4,0.9,0.6,2,0.6,3.3c0,1.8-0.4,3.2-1.1,4.4s-1.9,2-3.4,2.6l4.5,9.2H380.8z M381.3,8.6
			c0-1.1-0.3-1.8-0.9-2.3S379,5.6,378,5.6h-6.2v6.1h6.2C380.2,11.6,381.3,10.6,381.3,8.6z"/>
		<path id="XMLID_19_" class="st0" d="M404.2,15.7c0,0.3,0,0.6,0,0.9c0,0.2,0,0.4-0.1,0.6h-10.6c0,0.6,0.2,1.1,0.4,1.5
			c0.2,0.4,0.5,0.8,0.8,1c0.3,0.3,0.7,0.4,1.1,0.6c0.4,0.1,0.8,0.2,1.3,0.2c0.7,0,1.2-0.1,1.8-0.3c0.5-0.2,0.9-0.5,1.3-0.9l3.3,2.8
			c-0.7,0.9-1.7,1.6-2.8,2.1c-1.2,0.5-2.3,0.7-3.5,0.7c-1.3,0-2.4-0.2-3.4-0.7c-1-0.4-1.9-1.1-2.6-1.9c-0.7-0.8-1.3-1.8-1.7-2.9
			c-0.4-1.1-0.6-2.4-0.6-3.8c0-1.3,0.2-2.6,0.6-3.7c0.4-1.1,1-2.1,1.7-2.9s1.5-1.5,2.5-1.9c1-0.4,2-0.7,3.1-0.7
			c1.2,0,2.2,0.2,3.1,0.7c0.9,0.5,1.7,1.1,2.3,2c0.6,0.8,1.1,1.8,1.4,2.9C404,13.3,404.2,14.5,404.2,15.7z M399.7,13.7
			c0-0.4-0.1-0.8-0.3-1.2c-0.1-0.4-0.3-0.7-0.6-1c-0.3-0.3-0.6-0.5-1-0.7s-0.8-0.3-1.4-0.3c-0.9,0-1.5,0.3-2,0.9
			c-0.5,0.6-0.8,1.4-0.9,2.3H399.7z"/>
		<path id="XMLID_17_" class="st0" d="M428,24.5V15c0-1.6-0.2-2.6-0.7-3.2s-1.2-0.9-2.1-0.9c-1,0-1.7,0.3-2.2,0.9
			c-0.5,0.6-0.7,1.6-0.7,3.1v9.7h-4.6V15c0-1.6-0.2-2.6-0.7-3.2c-0.5-0.6-1.2-0.9-2.1-0.9s-1.7,0.3-2.2,0.9
			c-0.5,0.6-0.7,1.6-0.7,3.1v9.7h-4.6V6.9h4.6V8c0.4-0.4,0.9-0.8,1.5-1.1c0.6-0.3,1.4-0.5,2.3-0.5c1.1,0,2.1,0.2,2.8,0.5
			c0.7,0.3,1.4,0.9,2.1,1.7c0.6-0.6,1.3-1.2,2.2-1.6c0.8-0.4,2-0.7,3.5-0.7c1.1,0,2.1,0.2,2.9,0.6c0.8,0.4,1.4,0.9,2,1.6
			s0.9,1.6,1.1,2.6c0.2,1,0.4,2.1,0.4,3.4v10H428z"/>
		<path id="XMLID_14_" class="st0" d="M450.8,15.7c0,0.3,0,0.6,0,0.9c0,0.2,0,0.4-0.1,0.6h-10.6c0,0.6,0.2,1.1,0.4,1.5
			c0.2,0.4,0.5,0.8,0.8,1c0.3,0.3,0.7,0.4,1.1,0.6c0.4,0.1,0.8,0.2,1.3,0.2c0.7,0,1.2-0.1,1.8-0.3c0.5-0.2,0.9-0.5,1.3-0.9l3.3,2.8
			c-0.7,0.9-1.7,1.6-2.8,2.1c-1.2,0.5-2.3,0.7-3.5,0.7c-1.3,0-2.4-0.2-3.4-0.7c-1-0.4-1.9-1.1-2.6-1.9c-0.7-0.8-1.3-1.8-1.7-2.9
			c-0.4-1.1-0.6-2.4-0.6-3.8c0-1.3,0.2-2.6,0.6-3.7c0.4-1.1,1-2.1,1.7-2.9s1.5-1.5,2.5-1.9c1-0.4,2-0.7,3.1-0.7
			c1.2,0,2.2,0.2,3.1,0.7c0.9,0.5,1.7,1.1,2.3,2c0.6,0.8,1.1,1.8,1.4,2.9C450.7,13.3,450.8,14.5,450.8,15.7z M446.3,13.7
			c0-0.4-0.1-0.8-0.3-1.2c-0.1-0.4-0.3-0.7-0.6-1c-0.3-0.3-0.6-0.5-1-0.7s-0.8-0.3-1.4-0.3c-0.9,0-1.5,0.3-2,0.9
			c-0.5,0.6-0.8,1.4-0.9,2.3H446.3z"/>
		<path id="XMLID_12_" class="st0" d="M474.6,24.5V15c0-1.6-0.2-2.6-0.7-3.2s-1.2-0.9-2.1-0.9c-1,0-1.7,0.3-2.2,0.9
			c-0.5,0.6-0.7,1.6-0.7,3.1v9.7h-4.6V15c0-1.6-0.2-2.6-0.7-3.2c-0.5-0.6-1.2-0.9-2.1-0.9s-1.7,0.3-2.2,0.9
			c-0.5,0.6-0.7,1.6-0.7,3.1v9.7H454V6.9h4.6V8c0.4-0.4,0.9-0.8,1.5-1.1c0.6-0.3,1.4-0.5,2.3-0.5c1.1,0,2.1,0.2,2.8,0.5
			c0.7,0.3,1.4,0.9,2.1,1.7c0.6-0.6,1.3-1.2,2.2-1.6c0.8-0.4,2-0.7,3.5-0.7c1.1,0,2.1,0.2,2.9,0.6c0.8,0.4,1.4,0.9,2,1.6
			s0.9,1.6,1.1,2.6c0.2,1,0.4,2.1,0.4,3.4v10H474.6z"/>
		<path id="XMLID_9_" class="st0" d="M498.3,15.9c0,1.3-0.2,2.5-0.5,3.6c-0.3,1.1-0.7,2-1.3,2.8c-0.6,0.8-1.3,1.4-2.2,1.9
			c-0.9,0.4-1.8,0.7-2.9,0.7c-0.8,0-1.5-0.1-2.1-0.4s-1.2-0.6-1.6-1v1H483V2.3l4.6-2.3v8c0.4-0.4,1-0.7,1.6-1
			c0.6-0.3,1.3-0.5,2.2-0.5c0.9,0,1.8,0.2,2.7,0.5c0.8,0.4,1.6,0.9,2.2,1.7c0.6,0.8,1.1,1.8,1.5,2.9
			C498.1,12.9,498.3,14.3,498.3,15.9z M493.6,16c0-1.8-0.3-3.1-0.8-3.9c-0.6-0.8-1.3-1.2-2.2-1.2c-0.7,0-1.3,0.1-1.7,0.4
			c-0.4,0.3-0.8,0.6-1.1,1.1V19c0.7,1,1.8,1.5,3.1,1.5C492.7,20.5,493.6,19,493.6,16z"/>
		<path id="XMLID_6_" class="st0" d="M515.8,15.7c0,0.3,0,0.6,0,0.9c0,0.2,0,0.4-0.1,0.6h-10.6c0,0.6,0.2,1.1,0.4,1.5
			c0.2,0.4,0.5,0.8,0.8,1c0.3,0.3,0.7,0.4,1.1,0.6c0.4,0.1,0.8,0.2,1.3,0.2c0.7,0,1.2-0.1,1.8-0.3c0.5-0.2,0.9-0.5,1.3-0.9l3.3,2.8
			c-0.7,0.9-1.7,1.6-2.8,2.1c-1.2,0.5-2.3,0.7-3.5,0.7c-1.3,0-2.4-0.2-3.4-0.7c-1-0.4-1.9-1.1-2.6-1.9c-0.7-0.8-1.3-1.8-1.7-2.9
			c-0.4-1.1-0.6-2.4-0.6-3.8c0-1.3,0.2-2.6,0.6-3.7c0.4-1.1,1-2.1,1.7-2.9s1.5-1.5,2.5-1.9c1-0.4,2-0.7,3.1-0.7
			c1.2,0,2.2,0.2,3.1,0.7c0.9,0.5,1.7,1.1,2.3,2c0.6,0.8,1.1,1.8,1.4,2.9C515.6,13.3,515.8,14.5,515.8,15.7z M511.3,13.7
			c0-0.4-0.1-0.8-0.3-1.2c-0.1-0.4-0.3-0.7-0.6-1c-0.3-0.3-0.6-0.5-1-0.7s-0.8-0.3-1.4-0.3c-0.9,0-1.5,0.3-2,0.9
			c-0.5,0.6-0.8,1.4-0.9,2.3H511.3z"/>
		<path id="XMLID_4_" class="st0" d="M529.3,12.3c-0.4-0.3-0.8-0.6-1.2-0.8c-0.4-0.2-0.9-0.3-1.4-0.3c-0.4,0-0.9,0.1-1.2,0.2
			c-0.4,0.1-0.7,0.3-0.9,0.6c-0.3,0.3-0.5,0.7-0.6,1.2c-0.1,0.5-0.2,1.1-0.2,1.9v9.6h-4.6V6.9h4.6V8c0.4-0.4,0.9-0.8,1.5-1.1
			c0.6-0.3,1.3-0.5,2.1-0.5c0.8,0,1.4,0.1,2,0.4c0.5,0.3,1,0.5,1.3,0.9L529.3,12.3z"/>
	</g>
</g>
</svg>
