<!-- Generator: Adobe Illustrator 22.1.0, SVG Export Plug-In  -->
<svg version="1.1"
	 xmlns="http://www.w3.org/2000/svg" xmlns:xlink="http://www.w3.org/1999/xlink" xmlns:a="http://ns.adobe.com/AdobeSVGViewerExtensions/3.0/"
	 x="0px" y="0px" width="515.3px" height="69.6px" viewBox="0 0 515.3 69.6" style="enable-background:new 0 0 515.3 69.6;"
	 xml:space="preserve">
<style type="text/css">
	.st0{fill:#236092;}
</style>
<defs>
</defs>
<g id="XMLID_1_">
	<g>
		<path id="XMLID_126_" class="st0" d="M13.9,23.9L10,15.6H5.6v8.3H1.2V1h10.3c1,0,2,0.1,2.9,0.4c0.9,0.3,1.7,0.7,2.4,1.4
			C17.5,3.4,18,4.1,18.4,5C18.8,5.9,19,7,19,8.2c0,1.7-0.4,3.1-1.1,4.2c-0.7,1.1-1.8,1.9-3.2,2.5l4.2,8.9H13.9z M14.5,8.3
			c0-1-0.3-1.8-0.8-2.2c-0.6-0.4-1.3-0.7-2.3-0.7H5.6v5.9h5.8C13.4,11.3,14.5,10.3,14.5,8.3z"/>
		<path id="XMLID_123_" class="st0" d="M31.5,23.9v-1.1c-0.4,0.4-0.9,0.8-1.6,1.1c-0.7,0.3-1.4,0.4-2.1,0.4c-0.8,0-1.5-0.1-2.3-0.4
			c-0.7-0.3-1.4-0.6-2-1.1c-0.6-0.5-1-1.1-1.4-1.9s-0.5-1.7-0.5-2.7c0-0.9,0.2-1.8,0.5-2.5c0.3-0.7,0.8-1.3,1.4-1.8
			c0.6-0.5,1.3-0.8,2.1-1.1c0.8-0.2,1.7-0.4,2.6-0.4c0.8,0,1.4,0.1,1.9,0.2c0.5,0.1,0.9,0.3,1.3,0.5v-0.9c0-0.6-0.2-1.1-0.6-1.6
			c-0.4-0.4-1-0.6-1.8-0.6c-0.5,0-0.9,0-1.3,0.1c-0.4,0-0.8,0.1-1.1,0.2c-0.3,0.1-0.7,0.2-1,0.3c-0.3,0.1-0.7,0.3-1.1,0.5l-1.7-3.1
			c0.5-0.3,0.9-0.5,1.4-0.8c0.5-0.2,0.9-0.4,1.4-0.5c0.5-0.1,1-0.3,1.6-0.3c0.5-0.1,1.2-0.1,1.8-0.1c1,0,1.9,0.1,2.7,0.4
			c0.8,0.3,1.5,0.7,2.1,1.2c0.6,0.5,1,1.1,1.4,1.9c0.3,0.8,0.5,1.6,0.5,2.6v11.5H31.5z M31.5,16.7c-0.4-0.2-0.8-0.4-1.2-0.5
			c-0.4-0.1-1-0.2-1.8-0.2c-0.8,0-1.4,0.2-1.9,0.6c-0.4,0.4-0.6,0.9-0.6,1.6c0,0.6,0.2,1.1,0.6,1.6c0.4,0.5,1,0.7,2,0.7
			c0.7,0,1.3-0.2,1.9-0.5c0.5-0.3,0.9-0.7,1.1-1.1V16.7z"/>
		<path id="XMLID_120_" class="st0" d="M53.6,15.5c0,1.3-0.1,2.5-0.4,3.5c-0.3,1.1-0.7,2-1.2,2.8c-0.5,0.8-1.2,1.4-2,1.8
			s-1.7,0.6-2.7,0.6c-0.7,0-1.4-0.1-2-0.4s-1.1-0.6-1.5-1v5l-4.3,2.3V6.7h4.3v1.1c0.4-0.4,0.9-0.7,1.5-1c0.6-0.3,1.2-0.4,2-0.4
			c0.9,0,1.7,0.2,2.5,0.5c0.8,0.3,1.5,0.9,2,1.7c0.6,0.8,1,1.7,1.4,2.9C53.4,12.5,53.6,13.9,53.6,15.5z M49.2,15.6
			c0-1.8-0.3-3-0.8-3.8c-0.5-0.8-1.2-1.2-2.1-1.2c-0.7,0-1.2,0.1-1.6,0.4s-0.8,0.6-1.1,1v6.5c0.7,1,1.7,1.5,2.9,1.5
			C48.3,20,49.2,18.5,49.2,15.6z"/>
		<path id="XMLID_117_" class="st0" d="M61.3,2.7c0,0.7-0.2,1.3-0.7,1.8C60,5,59.5,5.3,58.8,5.3S57.5,5,57,4.5
			c-0.5-0.5-0.7-1.1-0.7-1.8c0-0.7,0.2-1.3,0.7-1.8c0.5-0.5,1.1-0.8,1.7-0.8s1.3,0.3,1.7,0.8C61,1.4,61.3,2,61.3,2.7z M56.6,23.9
			V6.7H61v17.2H56.6z"/>
		<path id="XMLID_114_" class="st0" d="M73.9,23.9v-1.1c-0.4,0.4-0.9,0.7-1.5,1s-1.2,0.4-2,0.4c-0.9,0-1.7-0.2-2.5-0.5
			c-0.8-0.3-1.5-0.9-2-1.7c-0.6-0.8-1-1.7-1.4-2.9c-0.3-1.1-0.5-2.5-0.5-4.1c0-1.3,0.1-2.5,0.4-3.5c0.3-1.1,0.7-2,1.2-2.8
			c0.5-0.8,1.2-1.4,2-1.8c0.8-0.4,1.7-0.6,2.7-0.6c0.7,0,1.4,0.1,2,0.4s1.1,0.6,1.5,1V2.3L78.2,0v23.9H73.9z M73.9,12.1
			c-0.7-1-1.7-1.5-2.9-1.5c-1.7,0-2.6,1.5-2.6,4.4c0,1.8,0.3,3,0.8,3.8c0.5,0.8,1.2,1.2,2.1,1.2c0.7,0,1.2-0.1,1.6-0.4
			s0.8-0.6,1.1-1V12.1z"/>
		<path id="XMLID_111_" class="st0" d="M109.2,12.4c0,1.7-0.2,3.4-0.6,4.8c-0.4,1.5-1.1,2.7-1.9,3.7c-0.8,1-1.8,1.8-3,2.4
			s-2.5,0.9-4,0.9c-1.5,0-2.9-0.3-4-0.9c-1.2-0.6-2.2-1.4-3-2.4c-0.8-1-1.4-2.3-1.9-3.7c-0.4-1.5-0.6-3.1-0.6-4.8s0.2-3.3,0.6-4.8
			c0.4-1.5,1.1-2.7,1.9-3.7c0.8-1,1.8-1.8,3-2.4c1.2-0.6,2.5-0.9,4-0.9c1.5,0,2.9,0.3,4,0.9c1.2,0.6,2.2,1.4,3,2.4
			c0.8,1,1.4,2.3,1.9,3.7C109,9.1,109.2,10.7,109.2,12.4z M104.7,12.4c0-1-0.1-2-0.3-2.9s-0.5-1.7-0.9-2.3c-0.4-0.7-0.9-1.2-1.6-1.5
			c-0.6-0.4-1.4-0.6-2.3-0.6c-0.9,0-1.6,0.2-2.3,0.6c-0.6,0.4-1.2,0.9-1.6,1.5c-0.4,0.7-0.7,1.4-0.9,2.3s-0.3,1.8-0.3,2.9
			s0.1,2,0.3,2.9c0.2,0.9,0.5,1.7,0.9,2.3s0.9,1.2,1.6,1.5c0.6,0.4,1.4,0.6,2.3,0.6c0.9,0,1.6-0.2,2.3-0.6c0.6-0.4,1.2-0.9,1.6-1.5
			s0.7-1.4,0.9-2.3C104.6,14.4,104.7,13.5,104.7,12.4z"/>
		<path id="XMLID_109_" class="st0" d="M122.4,23.9v-9.3c0-1.5-0.2-2.6-0.7-3.1c-0.5-0.6-1.2-0.9-2.1-0.9c-0.9,0-1.6,0.3-2.1,0.8
			c-0.5,0.6-0.7,1.6-0.7,3.1v9.4h-4.3V6.7h4.3v1.1c0.4-0.4,0.9-0.8,1.6-1.1c0.7-0.3,1.4-0.4,2.3-0.4c2.1,0,3.6,0.7,4.6,2.1
			c1,1.4,1.5,3.3,1.5,5.8v9.7H122.4z"/>
		<path id="XMLID_107_" class="st0" d="M143.3,18.9c0,1-0.2,1.8-0.5,2.5s-0.8,1.2-1.4,1.7s-1.3,0.7-2.1,0.9
			c-0.8,0.2-1.7,0.3-2.6,0.3c-1.3,0-2.6-0.2-3.8-0.5c-1.2-0.4-2.2-0.8-3.1-1.5l1.4-3.4c0.9,0.5,1.8,0.9,2.7,1.2
			c0.9,0.3,1.9,0.4,3,0.4c0.9,0,1.4-0.1,1.7-0.3c0.3-0.2,0.5-0.5,0.5-1c0-0.4-0.2-0.7-0.5-1c-0.3-0.2-1-0.5-1.9-0.8
			c-1-0.3-1.9-0.6-2.7-0.9s-1.5-0.7-2.1-1.1c-0.6-0.4-1-0.9-1.3-1.6c-0.3-0.6-0.5-1.4-0.5-2.3c0-0.9,0.2-1.7,0.5-2.3
			c0.3-0.6,0.8-1.2,1.4-1.6c0.6-0.4,1.3-0.7,2.1-0.9c0.8-0.2,1.7-0.3,2.7-0.3c1,0,2.1,0.2,3.2,0.5c1.1,0.3,2,0.7,2.9,1.2l-1.4,3.6
			c-0.8-0.5-1.7-0.8-2.5-1c-0.8-0.2-1.6-0.3-2.3-0.3c-0.9,0-1.5,0.1-1.8,0.3c-0.3,0.2-0.5,0.5-0.5,0.8c0,0.2,0,0.3,0.1,0.5
			c0.1,0.1,0.2,0.3,0.5,0.4c0.2,0.1,0.6,0.3,1,0.5c0.5,0.2,1,0.4,1.8,0.6c0.7,0.3,1.4,0.5,2.1,0.8s1.3,0.6,1.8,1
			c0.5,0.4,0.9,0.9,1.2,1.5C143.2,17.3,143.3,18,143.3,18.9z"/>
		<path id="XMLID_104_" class="st0" d="M160.1,15.3c0,0.3,0,0.6,0,0.8s0,0.4,0,0.6h-9.9c0,0.6,0.2,1.1,0.4,1.5
			c0.2,0.4,0.5,0.7,0.8,1c0.3,0.3,0.7,0.4,1.1,0.6c0.4,0.1,0.8,0.2,1.2,0.2c0.6,0,1.2-0.1,1.6-0.3c0.5-0.2,0.9-0.5,1.2-0.9l3.1,2.7
			c-0.7,0.9-1.5,1.6-2.6,2.1c-1.1,0.5-2.2,0.7-3.3,0.7c-1.2,0-2.3-0.2-3.2-0.6s-1.8-1-2.4-1.8c-0.7-0.8-1.2-1.7-1.5-2.8
			c-0.4-1.1-0.5-2.3-0.5-3.7c0-1.3,0.2-2.5,0.6-3.6c0.4-1.1,0.9-2.1,1.6-2.9c0.7-0.8,1.4-1.4,2.3-1.9c0.9-0.4,1.9-0.7,2.9-0.7
			c1.1,0,2.1,0.2,2.9,0.7c0.9,0.5,1.6,1.1,2.2,1.9s1,1.8,1.4,2.9C159.9,12.9,160.1,14.1,160.1,15.3z M155.9,13.3
			c0-0.4-0.1-0.8-0.3-1.1s-0.3-0.7-0.6-1c-0.2-0.3-0.5-0.5-0.9-0.7c-0.4-0.2-0.8-0.3-1.3-0.3c-0.8,0-1.4,0.3-1.9,0.9
			c-0.5,0.6-0.7,1.3-0.8,2.2H155.9z"/>
		<path id="XMLID_102_" class="st0" d="M172.2,23.2c-0.4,0.3-0.8,0.6-1.4,0.8c-0.6,0.2-1.2,0.3-1.9,0.3c-0.7,0-1.3-0.1-1.8-0.4
			c-0.5-0.3-1-0.6-1.4-1.1c-0.4-0.5-0.7-1-0.9-1.6c-0.2-0.6-0.3-1.3-0.3-2.1V11h-2.8V6.7h2.8V2.3l4.3-2.3v6.7h4V11h-4v6.9
			c0,0.8,0.1,1.4,0.4,1.7c0.3,0.3,0.7,0.4,1.2,0.4c0.4,0,0.8-0.1,1.1-0.3c0.3-0.2,0.8-0.5,1.3-1L172.2,23.2z"/>
		<path id="XMLID_99_" class="st0" d="M199.1,15.3c0,1.3-0.2,2.5-0.6,3.6c-0.4,1.1-0.9,2-1.6,2.8c-0.7,0.8-1.5,1.4-2.4,1.8
			c-0.9,0.4-1.9,0.7-3,0.7s-2.1-0.2-3-0.7s-1.7-1-2.4-1.8c-0.7-0.8-1.2-1.7-1.6-2.8c-0.4-1.1-0.6-2.3-0.6-3.6s0.2-2.5,0.6-3.6
			c0.4-1.1,0.9-2.1,1.6-2.9c0.7-0.8,1.4-1.4,2.4-1.9c0.9-0.4,1.9-0.7,3-0.7s2.1,0.2,3,0.7c0.9,0.4,1.7,1.1,2.4,1.9
			c0.7,0.8,1.2,1.7,1.6,2.9C198.9,12.8,199.1,14,199.1,15.3z M194.7,15.3c0-1.3-0.3-2.4-0.8-3.3c-0.5-0.9-1.3-1.3-2.3-1.3
			c-1,0-1.8,0.4-2.3,1.3c-0.5,0.9-0.7,2-0.7,3.3c0,1.3,0.2,2.4,0.7,3.3c0.5,0.9,1.3,1.3,2.3,1.3c0.5,0,1-0.1,1.4-0.4
			c0.4-0.3,0.7-0.6,1-1c0.3-0.4,0.4-0.9,0.6-1.5S194.7,15.9,194.7,15.3z"/>
		<path id="XMLID_97_" class="st0" d="M209.7,4c-0.2-0.1-0.5-0.1-0.8-0.1c-0.7,0-1.1,0.1-1.3,0.3c-0.2,0.2-0.3,0.6-0.3,1v1.4h2.8V11
			h-2.8v13H203V11h-2V6.7h2V4.6c0-1.6,0.4-2.8,1.2-3.5c0.8-0.7,2-1,3.5-1c1.1,0,2,0.2,2.7,0.5v3.6C210.2,4.1,210,4,209.7,4z"/>
		<path id="XMLID_94_" class="st0" d="M237,23.9l-1.7-5.1h-8.1l-1.7,5.1h-4.7l8.4-23h4.3l8.4,23H237z M232.3,10.3
			c-0.2-0.7-0.4-1.3-0.6-2c-0.2-0.6-0.4-1.2-0.5-1.6c-0.1,0.4-0.3,1-0.5,1.6c-0.2,0.6-0.4,1.3-0.6,2l-1.4,4.2h5L232.3,10.3z"/>
		<path id="XMLID_92_" class="st0" d="M257,22c-0.5,0.5-0.9,0.9-1.5,1.2c-0.5,0.3-1.1,0.6-1.8,0.8c-0.7,0.2-1.4,0.3-2.2,0.3
			c-1.1,0-2.1-0.2-3-0.7c-0.9-0.4-1.8-1-2.5-1.8s-1.3-1.7-1.7-2.8c-0.4-1.1-0.6-2.3-0.6-3.6s0.2-2.5,0.6-3.6
			c0.4-1.1,0.9-2.1,1.7-2.9c0.7-0.8,1.5-1.4,2.5-1.9c1-0.4,2-0.7,3.2-0.7c1.6,0,2.9,0.4,3.9,1.1c1,0.7,1.9,1.6,2.6,2.7l-2.9,3
			c-0.5-0.7-1-1.3-1.6-1.8c-0.6-0.5-1.3-0.7-2.2-0.7c-1,0-1.9,0.4-2.5,1.3c-0.6,0.8-0.9,2-0.9,3.4c0,1.4,0.3,2.5,0.9,3.4
			c0.6,0.8,1.5,1.3,2.5,1.3c0.9,0,1.6-0.2,2.2-0.6c0.6-0.4,1.2-0.9,1.7-1.6l2.8,2.7C257.9,21,257.5,21.5,257,22z"/>
		<path id="XMLID_90_" class="st0" d="M270.2,23.2c-0.4,0.3-0.8,0.6-1.4,0.8c-0.6,0.2-1.2,0.3-1.9,0.3c-0.7,0-1.3-0.1-1.8-0.4
			c-0.5-0.3-1-0.6-1.4-1.1c-0.4-0.5-0.7-1-0.9-1.6c-0.2-0.6-0.3-1.3-0.3-2.1V11h-2.8V6.7h2.8V2.3l4.3-2.3v6.7h4V11h-4v6.9
			c0,0.8,0.1,1.4,0.4,1.7c0.3,0.3,0.7,0.4,1.2,0.4c0.4,0,0.8-0.1,1.1-0.3c0.3-0.2,0.8-0.5,1.3-1L270.2,23.2z"/>
		<path id="XMLID_87_" class="st0" d="M279.2,2.7c0,0.7-0.2,1.3-0.7,1.8c-0.5,0.5-1.1,0.8-1.7,0.8S275.4,5,275,4.5
			c-0.5-0.5-0.7-1.1-0.7-1.8c0-0.7,0.2-1.3,0.7-1.8c0.5-0.5,1.1-0.8,1.7-0.8s1.3,0.3,1.7,0.8C278.9,1.4,279.2,2,279.2,2.7z
			 M274.5,23.9V6.7h4.3v17.2H274.5z"/>
		<path id="XMLID_84_" class="st0" d="M296.8,15.3c0,1.3-0.2,2.5-0.6,3.6c-0.4,1.1-0.9,2-1.6,2.8c-0.7,0.8-1.5,1.4-2.4,1.8
			c-0.9,0.4-1.9,0.7-3,0.7s-2.1-0.2-3-0.7s-1.7-1-2.4-1.8c-0.7-0.8-1.2-1.7-1.6-2.8c-0.4-1.1-0.6-2.3-0.6-3.6s0.2-2.5,0.6-3.6
			c0.4-1.1,0.9-2.1,1.6-2.9c0.7-0.8,1.4-1.4,2.4-1.9c0.9-0.4,1.9-0.7,3-0.7s2.1,0.2,3,0.7c0.9,0.4,1.7,1.1,2.4,1.9
			c0.7,0.8,1.2,1.7,1.6,2.9C296.6,12.8,296.8,14,296.8,15.3z M292.4,15.3c0-1.3-0.3-2.4-0.8-3.3c-0.5-0.9-1.3-1.3-2.3-1.3
			c-1,0-1.8,0.4-2.3,1.3c-0.5,0.9-0.7,2-0.7,3.3c0,1.3,0.2,2.4,0.7,3.3c0.5,0.9,1.3,1.3,2.3,1.3c0.5,0,1-0.1,1.4-0.4
			c0.4-0.3,0.7-0.6,1-1c0.3-0.4,0.4-0.9,0.6-1.5S292.4,15.9,292.4,15.3z"/>
		<path id="XMLID_82_" class="st0" d="M309.6,23.9v-9.3c0-1.5-0.2-2.6-0.7-3.1c-0.5-0.6-1.2-0.9-2.1-0.9c-0.9,0-1.6,0.3-2.1,0.8
			c-0.5,0.6-0.7,1.6-0.7,3.1v9.4h-4.3V6.7h4.3v1.1c0.4-0.4,0.9-0.8,1.6-1.1c0.7-0.3,1.4-0.4,2.3-0.4c2.1,0,3.6,0.7,4.6,2.1
			c1,1.4,1.5,3.3,1.5,5.8v9.7H309.6z"/>
		<path id="XMLID_79_" class="st0" d="M330.9,2.7c0,0.7-0.2,1.3-0.7,1.8c-0.5,0.5-1.1,0.8-1.7,0.8s-1.3-0.3-1.7-0.8
			c-0.5-0.5-0.7-1.1-0.7-1.8c0-0.7,0.2-1.3,0.7-1.8c0.5-0.5,1.1-0.8,1.7-0.8s1.3,0.3,1.7,0.8C330.6,1.4,330.9,2,330.9,2.7z
			 M326.2,23.9V6.7h4.3v17.2H326.2z"/>
		<path id="XMLID_77_" class="st0" d="M344.4,23.9v-9.3c0-1.5-0.2-2.6-0.7-3.1c-0.5-0.6-1.2-0.9-2.1-0.9c-0.9,0-1.6,0.3-2.1,0.8
			c-0.5,0.6-0.7,1.6-0.7,3.1v9.4h-4.3V6.7h4.3v1.1c0.4-0.4,0.9-0.8,1.6-1.1c0.7-0.3,1.4-0.4,2.3-0.4c2.1,0,3.6,0.7,4.6,2.1
			c1,1.4,1.5,3.3,1.5,5.8v9.7H344.4z"/>
		<path id="XMLID_74_" class="st0" d="M378.7,8.2c0,1.3-0.2,2.5-0.6,3.4c-0.4,1-1,1.7-1.7,2.3c-0.7,0.6-1.6,1.1-2.5,1.3
			c-1,0.3-2,0.4-3.2,0.4h-4.8v8.1h-4.4V1h9.6c1,0,2,0.1,2.9,0.4c0.9,0.3,1.7,0.7,2.4,1.4c0.7,0.6,1.2,1.4,1.6,2.3
			C378.5,5.9,378.7,7,378.7,8.2z M374.2,8.3c0-1-0.3-1.7-0.9-2.2c-0.6-0.5-1.4-0.7-2.3-0.7h-5.1v5.9h5.1
			C373.2,11.3,374.2,10.3,374.2,8.3z"/>
		<path id="XMLID_71_" class="st0" d="M390.7,23.9v-1.1c-0.4,0.4-0.9,0.8-1.6,1.1c-0.7,0.3-1.4,0.4-2.1,0.4c-0.8,0-1.5-0.1-2.3-0.4
			c-0.7-0.3-1.4-0.6-2-1.1c-0.6-0.5-1-1.1-1.4-1.9s-0.5-1.7-0.5-2.7c0-0.9,0.2-1.8,0.5-2.5c0.3-0.7,0.8-1.3,1.4-1.8
			c0.6-0.5,1.3-0.8,2.1-1.1c0.8-0.2,1.7-0.4,2.6-0.4c0.8,0,1.4,0.1,1.9,0.2c0.5,0.1,0.9,0.3,1.3,0.5v-0.9c0-0.6-0.2-1.1-0.6-1.6
			c-0.4-0.4-1-0.6-1.8-0.6c-0.5,0-0.9,0-1.3,0.1c-0.4,0-0.8,0.1-1.1,0.2c-0.3,0.1-0.7,0.2-1,0.3c-0.3,0.1-0.7,0.3-1.1,0.5l-1.7-3.1
			c0.5-0.3,0.9-0.5,1.4-0.8c0.5-0.2,0.9-0.4,1.4-0.5c0.5-0.1,1-0.3,1.6-0.3c0.5-0.1,1.2-0.1,1.8-0.1c1,0,1.9,0.1,2.7,0.4
			c0.8,0.3,1.5,0.7,2.1,1.2c0.6,0.5,1,1.1,1.4,1.9c0.3,0.8,0.5,1.6,0.5,2.6v11.5H390.7z M390.7,16.7c-0.4-0.2-0.8-0.4-1.2-0.5
			c-0.4-0.1-1-0.2-1.8-0.2c-0.8,0-1.4,0.2-1.9,0.6c-0.4,0.4-0.6,0.9-0.6,1.6c0,0.6,0.2,1.1,0.6,1.6c0.4,0.5,1,0.7,2,0.7
			c0.7,0,1.3-0.2,1.9-0.5c0.5-0.3,0.9-0.7,1.1-1.1V16.7z"/>
		<path id="XMLID_69_" class="st0" d="M408.3,12c-0.4-0.3-0.7-0.6-1.2-0.8c-0.4-0.2-0.9-0.3-1.4-0.3c-0.4,0-0.8,0.1-1.1,0.2
			c-0.3,0.1-0.6,0.3-0.9,0.6c-0.2,0.3-0.4,0.7-0.6,1.1c-0.1,0.5-0.2,1.1-0.2,1.8v9.3h-4.3V6.7h4.3v1.1c0.4-0.4,0.8-0.8,1.4-1.1
			c0.6-0.3,1.2-0.4,2-0.4c0.7,0,1.3,0.1,1.8,0.4c0.5,0.3,0.9,0.5,1.2,0.8L408.3,12z"/>
		<path id="XMLID_67_" class="st0" d="M420.8,23.2c-0.4,0.3-0.8,0.6-1.4,0.8c-0.6,0.2-1.2,0.3-1.9,0.3c-0.7,0-1.3-0.1-1.8-0.4
			c-0.5-0.3-1-0.6-1.4-1.1c-0.4-0.5-0.7-1-0.9-1.6c-0.2-0.6-0.3-1.3-0.3-2.1V11h-2.8V6.7h2.8V2.3l4.3-2.3v6.7h4V11h-4v6.9
			c0,0.8,0.1,1.4,0.4,1.7c0.3,0.3,0.7,0.4,1.2,0.4c0.4,0,0.8-0.1,1.1-0.3c0.3-0.2,0.8-0.5,1.3-1L420.8,23.2z"/>
		<path id="XMLID_64_" class="st0" d="M429.7,2.7c0,0.7-0.2,1.3-0.7,1.8c-0.5,0.5-1.1,0.8-1.7,0.8S426,5,425.5,4.5
			c-0.5-0.5-0.7-1.1-0.7-1.8c0-0.7,0.2-1.3,0.7-1.8c0.5-0.5,1.1-0.8,1.7-0.8s1.3,0.3,1.7,0.8C429.5,1.4,429.7,2,429.7,2.7z
			 M425.1,23.9V6.7h4.3v17.2H425.1z"/>
		<path id="XMLID_61_" class="st0" d="M442.3,23.9v-1.1c-0.4,0.4-0.9,0.8-1.6,1.1c-0.7,0.3-1.4,0.4-2.1,0.4c-0.8,0-1.5-0.1-2.3-0.4
			c-0.7-0.3-1.4-0.6-2-1.1c-0.6-0.5-1-1.1-1.4-1.9s-0.5-1.7-0.5-2.7c0-0.9,0.2-1.8,0.5-2.5c0.3-0.7,0.8-1.3,1.4-1.8
			c0.6-0.5,1.3-0.8,2.1-1.1c0.8-0.2,1.7-0.4,2.6-0.4c0.8,0,1.4,0.1,1.9,0.2c0.5,0.1,0.9,0.3,1.3,0.5v-0.9c0-0.6-0.2-1.1-0.6-1.6
			c-0.4-0.4-1-0.6-1.8-0.6c-0.5,0-0.9,0-1.3,0.1c-0.4,0-0.8,0.1-1.1,0.2c-0.3,0.1-0.7,0.2-1,0.3c-0.3,0.1-0.7,0.3-1.1,0.5l-1.7-3.1
			c0.5-0.3,0.9-0.5,1.4-0.8c0.5-0.2,0.9-0.4,1.4-0.5c0.5-0.1,1-0.3,1.6-0.3c0.5-0.1,1.2-0.1,1.8-0.1c1,0,1.9,0.1,2.7,0.4
			c0.8,0.3,1.5,0.7,2.1,1.2c0.6,0.5,1,1.1,1.4,1.9c0.3,0.8,0.5,1.6,0.5,2.6v11.5H442.3z M442.3,16.7c-0.4-0.2-0.8-0.4-1.2-0.5
			c-0.4-0.1-1-0.2-1.8-0.2c-0.8,0-1.4,0.2-1.9,0.6c-0.4,0.4-0.6,0.9-0.6,1.6c0,0.6,0.2,1.1,0.6,1.6c0.4,0.5,1,0.7,2,0.7
			c0.7,0,1.3-0.2,1.9-0.5c0.5-0.3,0.9-0.7,1.1-1.1V16.7z"/>
		<path id="XMLID_59_" class="st0" d="M450.4,23.9V2.3l4.3-2.3v23.9H450.4z"/>
		<path id="XMLID_56_" class="st0" d="M476.2,23.9v-1.1c-0.4,0.4-0.9,0.8-1.6,1.1c-0.7,0.3-1.4,0.4-2.1,0.4c-0.8,0-1.5-0.1-2.3-0.4
			c-0.7-0.3-1.4-0.6-2-1.1c-0.6-0.5-1-1.1-1.4-1.9s-0.5-1.7-0.5-2.7c0-0.9,0.2-1.8,0.5-2.5c0.3-0.7,0.8-1.3,1.4-1.8
			c0.6-0.5,1.3-0.8,2.1-1.1c0.8-0.2,1.7-0.4,2.6-0.4c0.8,0,1.4,0.1,1.9,0.2c0.5,0.1,0.9,0.3,1.3,0.5v-0.9c0-0.6-0.2-1.1-0.6-1.6
			c-0.4-0.4-1-0.6-1.8-0.6c-0.5,0-0.9,0-1.3,0.1c-0.4,0-0.8,0.1-1.1,0.2c-0.3,0.1-0.7,0.2-1,0.3c-0.3,0.1-0.7,0.3-1.1,0.5l-1.7-3.1
			c0.5-0.3,0.9-0.5,1.4-0.8c0.5-0.2,0.9-0.4,1.4-0.5c0.5-0.1,1-0.3,1.6-0.3c0.5-0.1,1.2-0.1,1.8-0.1c1,0,1.9,0.1,2.7,0.4
			c0.8,0.3,1.5,0.7,2.1,1.2c0.6,0.5,1,1.1,1.4,1.9c0.3,0.8,0.5,1.6,0.5,2.6v11.5H476.2z M476.2,16.7c-0.4-0.2-0.8-0.4-1.2-0.5
			c-0.4-0.1-1-0.2-1.8-0.2c-0.8,0-1.4,0.2-1.9,0.6c-0.4,0.4-0.6,0.9-0.6,1.6c0,0.6,0.2,1.1,0.6,1.6c0.4,0.5,1,0.7,2,0.7
			c0.7,0,1.3-0.2,1.9-0.5c0.5-0.3,0.9-0.7,1.1-1.1V16.7z"/>
		<path id="XMLID_54_" class="st0" d="M494,23.9v-9.3c0-1.5-0.2-2.6-0.7-3.1c-0.5-0.6-1.2-0.9-2.1-0.9c-0.9,0-1.6,0.3-2.1,0.8
			c-0.5,0.6-0.7,1.6-0.7,3.1v9.4h-4.3V6.7h4.3v1.1c0.4-0.4,0.9-0.8,1.6-1.1c0.7-0.3,1.4-0.4,2.3-0.4c2.1,0,3.6,0.7,4.6,2.1
			c1,1.4,1.5,3.3,1.5,5.8v9.7H494z"/>
		<path id="XMLID_51_" class="st0" d="M511,23.9v-1.1c-0.4,0.4-0.9,0.7-1.5,1s-1.2,0.4-2,0.4c-0.9,0-1.7-0.2-2.5-0.5
			c-0.8-0.3-1.5-0.9-2-1.7c-0.6-0.8-1-1.7-1.4-2.9c-0.3-1.1-0.5-2.5-0.5-4.1c0-1.3,0.1-2.5,0.4-3.5c0.3-1.1,0.7-2,1.2-2.8
			c0.5-0.8,1.2-1.4,2-1.8c0.8-0.4,1.7-0.6,2.7-0.6c0.7,0,1.4,0.1,2,0.4s1.1,0.6,1.5,1V2.3l4.3-2.3v23.9H511z M511,12.1
			c-0.7-1-1.7-1.5-2.9-1.5c-1.7,0-2.6,1.5-2.6,4.4c0,1.8,0.3,3,0.8,3.8c0.5,0.8,1.2,1.2,2.1,1.2c0.7,0,1.2-0.1,1.6-0.4
			s0.8-0.6,1.1-1V12.1z"/>
		<path id="XMLID_49_" class="st0" d="M17.8,58.3c-0.4,1.2-1.1,2.1-1.8,2.9s-1.7,1.4-2.8,1.8s-2.3,0.6-3.5,0.6
			c-1.4,0-2.8-0.3-3.9-0.8c-1.2-0.6-2.2-1.3-3-2.4c-0.8-1-1.5-2.3-2-3.7C0.2,55.2,0,53.6,0,51.8C0,50,0.2,48.4,0.7,47
			c0.5-1.5,1.2-2.7,2-3.7c0.9-1,1.9-1.8,3.1-2.4c1.2-0.6,2.5-0.9,4-0.9c1.1,0,2.1,0.1,3,0.4c0.9,0.3,1.6,0.6,2.3,1.1
			s1.3,1.1,1.7,1.8c0.5,0.7,0.9,1.5,1.3,2.4l-4.2,1.8c-0.2-0.4-0.4-0.8-0.7-1.2c-0.2-0.4-0.5-0.7-0.8-1c-0.3-0.3-0.7-0.5-1.1-0.6
			c-0.4-0.2-1-0.2-1.5-0.2c-0.8,0-1.6,0.2-2.2,0.5c-0.7,0.4-1.2,0.9-1.6,1.5c-0.4,0.6-0.8,1.4-1,2.3c-0.2,0.9-0.3,1.9-0.3,2.9
			c0,1,0.1,2,0.3,2.9c0.2,0.9,0.6,1.7,1,2.3s1,1.2,1.7,1.5c0.6,0.4,1.4,0.6,2.2,0.6c0.8,0,1.4-0.1,1.9-0.3c0.5-0.2,0.9-0.4,1.3-0.7
			c0.3-0.3,0.6-0.7,0.8-1.1c0.2-0.4,0.3-0.9,0.4-1.4h-3.5v-4.3h7.9v3C18.5,55.8,18.2,57.2,17.8,58.3z"/>
		<path id="XMLID_46_" class="st0" d="M35.3,54.7c0,0.3,0,0.6,0,0.8s0,0.4,0,0.6h-9.9c0,0.6,0.2,1.1,0.4,1.5c0.2,0.4,0.5,0.7,0.8,1
			c0.3,0.3,0.7,0.4,1.1,0.6c0.4,0.1,0.8,0.2,1.2,0.2c0.6,0,1.2-0.1,1.6-0.3c0.5-0.2,0.9-0.5,1.2-0.9l3.1,2.7
			c-0.7,0.9-1.5,1.6-2.6,2.1c-1.1,0.5-2.2,0.7-3.3,0.7c-1.2,0-2.3-0.2-3.2-0.6s-1.8-1-2.4-1.8c-0.7-0.8-1.2-1.7-1.5-2.8
			C21.2,57.2,21,56,21,54.7c0-1.3,0.2-2.5,0.6-3.6c0.4-1.1,0.9-2.1,1.6-2.9c0.7-0.8,1.4-1.4,2.3-1.9c0.9-0.4,1.9-0.7,2.9-0.7
			c1.1,0,2.1,0.2,2.9,0.7c0.9,0.5,1.6,1.1,2.2,1.9s1,1.8,1.4,2.9C35.2,52.3,35.3,53.4,35.3,54.7z M31.1,52.7c0-0.4-0.1-0.8-0.3-1.1
			s-0.3-0.7-0.6-1c-0.2-0.3-0.5-0.5-0.9-0.7c-0.4-0.2-0.8-0.3-1.3-0.3c-0.8,0-1.4,0.3-1.9,0.9c-0.5,0.6-0.7,1.3-0.8,2.2H31.1z"/>
		<path id="XMLID_44_" class="st0" d="M48.2,63.3v-9.3c0-1.5-0.2-2.6-0.7-3.1c-0.5-0.6-1.2-0.9-2.1-0.9c-0.9,0-1.6,0.3-2.1,0.8
			c-0.5,0.6-0.7,1.6-0.7,3.1v9.4h-4.3V46h4.3v1.1c0.4-0.4,0.9-0.8,1.6-1.1c0.7-0.3,1.4-0.4,2.3-0.4c2.1,0,3.6,0.7,4.6,2.1
			c1,1.4,1.5,3.3,1.5,5.8v9.7H48.2z"/>
		<path id="XMLID_41_" class="st0" d="M69.5,54.7c0,0.3,0,0.6,0,0.8s0,0.4,0,0.6h-9.9c0,0.6,0.2,1.1,0.4,1.5c0.2,0.4,0.5,0.7,0.8,1
			c0.3,0.3,0.7,0.4,1.1,0.6c0.4,0.1,0.8,0.2,1.2,0.2c0.6,0,1.2-0.1,1.6-0.3c0.5-0.2,0.9-0.5,1.2-0.9l3.1,2.7
			c-0.7,0.9-1.5,1.6-2.6,2.1c-1.1,0.5-2.2,0.7-3.3,0.7c-1.2,0-2.3-0.2-3.2-0.6s-1.8-1-2.4-1.8c-0.7-0.8-1.2-1.7-1.5-2.8
			c-0.4-1.1-0.5-2.3-0.5-3.7c0-1.3,0.2-2.5,0.6-3.6c0.4-1.1,0.9-2.1,1.6-2.9c0.7-0.8,1.4-1.4,2.3-1.9c0.9-0.4,1.9-0.7,2.9-0.7
			c1.1,0,2.1,0.2,2.9,0.7c0.9,0.5,1.6,1.1,2.2,1.9s1,1.8,1.4,2.9C69.4,52.3,69.5,53.4,69.5,54.7z M65.3,52.7c0-0.4-0.1-0.8-0.3-1.1
			s-0.3-0.7-0.6-1c-0.2-0.3-0.5-0.5-0.9-0.7c-0.4-0.2-0.8-0.3-1.3-0.3c-0.8,0-1.4,0.3-1.9,0.9c-0.5,0.6-0.7,1.3-0.8,2.2H65.3z"/>
		<path id="XMLID_39_" class="st0" d="M82.1,51.3c-0.4-0.3-0.7-0.6-1.2-0.8c-0.4-0.2-0.9-0.3-1.4-0.3c-0.4,0-0.8,0.1-1.1,0.2
			c-0.3,0.1-0.6,0.3-0.9,0.6c-0.2,0.3-0.4,0.7-0.6,1.1c-0.1,0.5-0.2,1.1-0.2,1.8v9.3h-4.3V46h4.3v1.1c0.4-0.4,0.8-0.8,1.4-1.1
			c0.6-0.3,1.2-0.4,2-0.4c0.7,0,1.3,0.1,1.8,0.4c0.5,0.3,0.9,0.5,1.2,0.8L82.1,51.3z"/>
		<path id="XMLID_36_" class="st0" d="M94.5,63.3v-1.1c-0.4,0.4-0.9,0.8-1.6,1.1c-0.7,0.3-1.4,0.4-2.1,0.4c-0.8,0-1.5-0.1-2.3-0.4
			c-0.7-0.3-1.4-0.6-2-1.1c-0.6-0.5-1-1.1-1.4-1.9s-0.5-1.7-0.5-2.7c0-0.9,0.2-1.8,0.5-2.5c0.3-0.7,0.8-1.3,1.4-1.8
			c0.6-0.5,1.3-0.8,2.1-1.1c0.8-0.2,1.7-0.4,2.6-0.4c0.8,0,1.4,0.1,1.9,0.2c0.5,0.1,0.9,0.3,1.3,0.5v-0.9c0-0.6-0.2-1.1-0.6-1.6
			c-0.4-0.4-1-0.6-1.8-0.6c-0.5,0-0.9,0-1.3,0.1c-0.4,0-0.8,0.1-1.1,0.2c-0.3,0.1-0.7,0.2-1,0.3c-0.3,0.1-0.7,0.3-1.1,0.5l-1.7-3.1
			c0.5-0.3,0.9-0.5,1.4-0.8c0.5-0.2,0.9-0.4,1.4-0.5c0.5-0.1,1-0.3,1.6-0.3c0.5-0.1,1.2-0.1,1.8-0.1c1,0,1.9,0.1,2.7,0.4
			c0.8,0.3,1.5,0.7,2.1,1.2c0.6,0.5,1,1.1,1.4,1.9c0.3,0.8,0.5,1.6,0.5,2.6v11.5H94.5z M94.5,56c-0.4-0.2-0.8-0.4-1.2-0.5
			c-0.4-0.1-1-0.2-1.8-0.2c-0.8,0-1.4,0.2-1.9,0.6c-0.4,0.4-0.6,0.9-0.6,1.6c0,0.6,0.2,1.1,0.6,1.6c0.4,0.5,1,0.7,2,0.7
			c0.7,0,1.3-0.2,1.9-0.5c0.5-0.3,0.9-0.7,1.1-1.1V56z"/>
		<path id="XMLID_34_" class="st0" d="M102.5,63.3V41.6l4.3-2.3v23.9H102.5z"/>
		<path id="XMLID_31_" class="st0" d="M115.5,42c0,0.7-0.2,1.3-0.7,1.8c-0.5,0.5-1.1,0.8-1.7,0.8s-1.3-0.3-1.7-0.8
			c-0.5-0.5-0.7-1.1-0.7-1.8c0-0.7,0.2-1.3,0.7-1.8c0.5-0.5,1.1-0.8,1.7-0.8s1.3,0.3,1.7,0.8C115.3,40.7,115.5,41.3,115.5,42z
			 M110.8,63.3V46h4.3v17.2H110.8z"/>
		<path id="XMLID_29_" class="st0" d="M118.8,63.3V60l6-7.4c0.3-0.4,0.7-0.9,1.1-1.3c0.4-0.5,0.7-0.9,1-1.1c-0.1,0-0.3,0-0.5,0
			c-0.2,0-0.5,0-0.7,0c-0.3,0-0.5,0-0.8,0c-0.3,0-0.5,0-0.7,0h-4.8V46h13.1v3.3l-5.8,7.4c-0.3,0.4-0.7,0.9-1.1,1.4s-0.7,0.8-0.9,1.1
			c0.1,0,0.3,0,0.6,0c0.2,0,0.5,0,0.7,0c0.3,0,0.5,0,0.8,0c0.3,0,0.5,0,0.7,0h5.2v4.1H118.8z"/>
		<path id="XMLID_26_" class="st0" d="M149.4,54.7c0,0.3,0,0.6,0,0.8s0,0.4,0,0.6h-9.9c0,0.6,0.2,1.1,0.4,1.5c0.2,0.4,0.5,0.7,0.8,1
			c0.3,0.3,0.7,0.4,1.1,0.6c0.4,0.1,0.8,0.2,1.2,0.2c0.6,0,1.2-0.1,1.6-0.3c0.5-0.2,0.9-0.5,1.2-0.9l3.1,2.7
			c-0.7,0.9-1.5,1.6-2.6,2.1c-1.1,0.5-2.2,0.7-3.3,0.7c-1.2,0-2.3-0.2-3.2-0.6s-1.8-1-2.4-1.8c-0.7-0.8-1.2-1.7-1.5-2.8
			c-0.4-1.1-0.5-2.3-0.5-3.7c0-1.3,0.2-2.5,0.6-3.6c0.4-1.1,0.9-2.1,1.6-2.9c0.7-0.8,1.4-1.4,2.3-1.9c0.9-0.4,1.9-0.7,2.9-0.7
			c1.1,0,2.1,0.2,2.9,0.7c0.9,0.5,1.6,1.1,2.2,1.9s1,1.8,1.4,2.9C149.2,52.3,149.4,53.4,149.4,54.7z M145.2,52.7
			c0-0.4-0.1-0.8-0.3-1.1s-0.3-0.7-0.6-1c-0.2-0.3-0.5-0.5-0.9-0.7c-0.4-0.2-0.8-0.3-1.3-0.3c-0.8,0-1.4,0.3-1.9,0.9
			c-0.5,0.6-0.7,1.3-0.8,2.2H145.2z"/>
		<path id="XMLID_23_" class="st0" d="M161.4,63.3v-1.1c-0.4,0.4-0.9,0.7-1.5,1s-1.2,0.4-2,0.4c-0.9,0-1.7-0.2-2.5-0.5
			c-0.8-0.3-1.5-0.9-2-1.7c-0.6-0.8-1-1.7-1.4-2.9c-0.3-1.1-0.5-2.5-0.5-4.1c0-1.3,0.1-2.5,0.4-3.5c0.3-1.1,0.7-2,1.2-2.8
			c0.5-0.8,1.2-1.4,2-1.8c0.8-0.4,1.7-0.6,2.7-0.6c0.7,0,1.4,0.1,2,0.4s1.1,0.6,1.5,1v-5.4l4.3-2.3v23.9H161.4z M161.4,51.4
			c-0.7-1-1.7-1.5-2.9-1.5c-1.7,0-2.6,1.5-2.6,4.4c0,1.8,0.3,3,0.8,3.8c0.5,0.8,1.2,1.2,2.1,1.2c0.7,0,1.2-0.1,1.6-0.4
			s0.8-0.6,1.1-1V51.4z"/>
		<path id="XMLID_21_" class="st0" d="M178.8,63.3v-23H194v4.5h-10.9v4h6.3v4.5h-6.3v5.5h11.4v4.5H178.8z"/>
		<path id="XMLID_18_" class="st0" d="M212.2,54.9c0,1.3-0.1,2.5-0.4,3.5c-0.3,1.1-0.7,2-1.2,2.8c-0.5,0.8-1.2,1.4-2,1.8
			s-1.7,0.6-2.7,0.6c-0.7,0-1.4-0.1-2-0.4s-1.1-0.6-1.5-1v5l-4.3,2.3V46h4.3v1.1c0.4-0.4,0.9-0.7,1.5-1c0.6-0.3,1.2-0.4,2-0.4
			c0.9,0,1.7,0.2,2.5,0.5c0.8,0.3,1.5,0.9,2,1.7c0.6,0.8,1,1.7,1.4,2.9C212,51.9,212.2,53.3,212.2,54.9z M207.8,55
			c0-1.8-0.3-3-0.8-3.8c-0.5-0.8-1.2-1.2-2.1-1.2c-0.7,0-1.2,0.1-1.6,0.4s-0.8,0.6-1.1,1v6.5c0.7,1,1.7,1.5,2.9,1.5
			C206.9,59.3,207.8,57.9,207.8,55z"/>
		<path id="XMLID_15_" class="st0" d="M219.9,42c0,0.7-0.2,1.3-0.7,1.8c-0.5,0.5-1.1,0.8-1.7,0.8s-1.3-0.3-1.7-0.8
			c-0.5-0.5-0.7-1.1-0.7-1.8c0-0.7,0.2-1.3,0.7-1.8c0.5-0.5,1.1-0.8,1.7-0.8s1.3,0.3,1.7,0.8C219.6,40.7,219.9,41.3,219.9,42z
			 M215.2,63.3V46h4.3v17.2H215.2z"/>
		<path id="XMLID_13_" class="st0" d="M223.6,63.3V41.6l4.3-2.3v23.9H223.6z"/>
		<path id="XMLID_10_" class="st0" d="M245.2,54.7c0,0.3,0,0.6,0,0.8s0,0.4,0,0.6h-9.9c0,0.6,0.2,1.1,0.4,1.5c0.2,0.4,0.5,0.7,0.8,1
			c0.3,0.3,0.7,0.4,1.1,0.6c0.4,0.1,0.8,0.2,1.2,0.2c0.6,0,1.2-0.1,1.6-0.3c0.5-0.2,0.9-0.5,1.2-0.9l3.1,2.7
			c-0.7,0.9-1.5,1.6-2.6,2.1c-1.1,0.5-2.2,0.7-3.3,0.7c-1.2,0-2.3-0.2-3.2-0.6s-1.8-1-2.4-1.8c-0.7-0.8-1.2-1.7-1.5-2.8
			c-0.4-1.1-0.5-2.3-0.5-3.7c0-1.3,0.2-2.5,0.6-3.6c0.4-1.1,0.9-2.1,1.6-2.9c0.7-0.8,1.4-1.4,2.3-1.9c0.9-0.4,1.9-0.7,2.9-0.7
			c1.1,0,2.1,0.2,2.9,0.7c0.9,0.5,1.6,1.1,2.2,1.9s1,1.8,1.4,2.9C245.1,52.3,245.2,53.4,245.2,54.7z M241,52.7
			c0-0.4-0.1-0.8-0.3-1.1s-0.3-0.7-0.6-1c-0.2-0.3-0.5-0.5-0.9-0.7c-0.4-0.2-0.8-0.3-1.3-0.3c-0.8,0-1.4,0.3-1.9,0.9
			c-0.5,0.6-0.7,1.3-0.8,2.2H241z"/>
		<path id="XMLID_7_" class="st0" d="M262.4,54.9c0,1.3-0.1,2.5-0.4,3.5c-0.3,1.1-0.7,2-1.2,2.8c-0.5,0.8-1.2,1.4-2,1.8
			s-1.7,0.6-2.7,0.6c-0.7,0-1.4-0.1-2-0.4s-1.1-0.6-1.5-1v5l-4.3,2.3V46h4.3v1.1c0.4-0.4,0.9-0.7,1.5-1c0.6-0.3,1.2-0.4,2-0.4
			c0.9,0,1.7,0.2,2.5,0.5c0.8,0.3,1.5,0.9,2,1.7c0.6,0.8,1,1.7,1.4,2.9C262.2,51.9,262.4,53.3,262.4,54.9z M258,55
			c0-1.8-0.3-3-0.8-3.8c-0.5-0.8-1.2-1.2-2.1-1.2c-0.7,0-1.2,0.1-1.6,0.4s-0.8,0.6-1.1,1v6.5c0.7,1,1.7,1.5,2.9,1.5
			C257.1,59.3,258,57.9,258,55z"/>
		<path id="XMLID_5_" class="st0" d="M278.3,58.2c0,1-0.2,1.8-0.5,2.5s-0.8,1.2-1.4,1.7s-1.3,0.7-2.1,0.9c-0.8,0.2-1.7,0.3-2.6,0.3
			c-1.3,0-2.6-0.2-3.8-0.5c-1.2-0.4-2.2-0.8-3.1-1.5l1.4-3.4c0.9,0.5,1.8,0.9,2.7,1.2c0.9,0.3,1.9,0.4,3,0.4c0.9,0,1.4-0.1,1.7-0.3
			c0.3-0.2,0.5-0.5,0.5-1c0-0.4-0.2-0.7-0.5-1c-0.3-0.2-1-0.5-1.9-0.8c-1-0.3-1.9-0.6-2.7-0.9s-1.5-0.7-2.1-1.1
			c-0.6-0.4-1-0.9-1.3-1.6c-0.3-0.6-0.5-1.4-0.5-2.3c0-0.9,0.2-1.7,0.5-2.3c0.3-0.6,0.8-1.2,1.4-1.6c0.6-0.4,1.3-0.7,2.1-0.9
			c0.8-0.2,1.7-0.3,2.7-0.3c1,0,2.1,0.2,3.2,0.5c1.1,0.3,2,0.7,2.9,1.2l-1.4,3.6c-0.8-0.5-1.7-0.8-2.5-1c-0.8-0.2-1.6-0.3-2.3-0.3
			c-0.9,0-1.5,0.1-1.8,0.3c-0.3,0.2-0.5,0.5-0.5,0.8c0,0.2,0,0.3,0.1,0.5c0.1,0.1,0.2,0.3,0.5,0.4c0.2,0.1,0.6,0.3,1,0.5
			c0.5,0.2,1,0.4,1.8,0.6c0.7,0.3,1.4,0.5,2.1,0.8s1.3,0.6,1.8,1c0.5,0.4,0.9,0.9,1.2,1.5C278.2,56.7,278.3,57.4,278.3,58.2z"/>
		<path id="XMLID_3_" class="st0" d="M288.8,69.3h-4.3l2.2-6.1L280.3,46h4.8l2.7,8.3c0.2,0.7,0.4,1.3,0.6,2.1s0.3,1.3,0.4,1.7
			c0.1-0.4,0.3-1,0.4-1.7c0.2-0.7,0.4-1.4,0.6-2.1l2.7-8.3h4.7L288.8,69.3z"/>
	</g>
</g>
</svg>
