<!-- Generator: Adobe Illustrator 22.1.0, SVG Export Plug-In  -->
<svg version="1.1"
	 xmlns="http://www.w3.org/2000/svg" xmlns:xlink="http://www.w3.org/1999/xlink" xmlns:a="http://ns.adobe.com/AdobeSVGViewerExtensions/3.0/"
	 x="0px" y="0px" width="393.2px" height="31.7px" viewBox="0 0 393.2 31.7" style="enable-background:new 0 0 393.2 31.7;"
	 xml:space="preserve">
<style type="text/css">
	.st0{fill:#266093;}
</style>
<defs>
</defs>
<g id="XMLID_2_">
	<g id="XMLID_4_">
		<path id="XMLID_51_" class="st0" d="M19.5,17.3c0,1.3-0.2,2.4-0.6,3.4c-0.4,1-1,1.8-1.7,2.4c-0.7,0.7-1.6,1.1-2.7,1.5
			c-1.1,0.3-2.2,0.5-3.5,0.5H0V1h11c2.3,0,4.2,0.5,5.6,1.6c1.4,1.1,2.1,2.7,2.1,4.7c0,1-0.2,1.9-0.7,2.8c-0.4,0.8-1.1,1.4-1.9,1.9
			c1,0.4,1.8,1.1,2.4,2C19.2,14.9,19.5,16,19.5,17.3z M13.8,7.7c0-0.8-0.2-1.3-0.7-1.7c-0.5-0.4-1.2-0.6-2.3-0.6H4.7V10h6.4
			c1,0,1.7-0.2,2.1-0.6C13.6,8.9,13.8,8.4,13.8,7.7z M14.6,17.4c0-2.1-1.1-3.1-3.4-3.1H4.7v6.3h6.4c1.2,0,2-0.3,2.6-0.8
			C14.3,19.1,14.6,18.3,14.6,17.4z"/>
		<path id="XMLID_49_" class="st0" d="M33.6,12.6c-0.4-0.3-0.8-0.6-1.3-0.8c-0.5-0.2-1-0.3-1.5-0.3c-0.5,0-0.9,0.1-1.3,0.2
			c-0.4,0.1-0.7,0.3-1,0.6c-0.3,0.3-0.5,0.7-0.6,1.2c-0.1,0.5-0.2,1.1-0.2,1.9v9.8H23V7h4.7v1.2c0.4-0.4,0.9-0.8,1.5-1.1
			c0.6-0.3,1.3-0.5,2.2-0.5c0.8,0,1.4,0.1,2,0.4c0.6,0.3,1,0.6,1.3,0.9L33.6,12.6z"/>
		<path id="XMLID_46_" class="st0" d="M52.6,16.1c0,1.4-0.2,2.6-0.6,3.8c-0.4,1.2-1,2.1-1.7,3s-1.6,1.5-2.6,1.9
			c-1,0.5-2.1,0.7-3.3,0.7s-2.3-0.2-3.2-0.7c-1-0.5-1.9-1.1-2.6-1.9s-1.3-1.8-1.7-3c-0.4-1.2-0.6-2.4-0.6-3.8c0-1.4,0.2-2.6,0.6-3.8
			c0.4-1.2,1-2.2,1.7-3c0.7-0.8,1.6-1.5,2.6-1.9c1-0.5,2.1-0.7,3.2-0.7s2.3,0.2,3.3,0.7c1,0.5,1.9,1.1,2.6,1.9
			c0.7,0.8,1.3,1.8,1.7,3C52.4,13.4,52.6,14.7,52.6,16.1z M47.8,16.1c0-1.4-0.3-2.5-0.8-3.5c-0.6-0.9-1.4-1.4-2.5-1.4
			c-1.1,0-2,0.5-2.5,1.4s-0.8,2.1-0.8,3.5c0,1.4,0.3,2.6,0.8,3.5c0.5,0.9,1.4,1.4,2.5,1.4c0.6,0,1.1-0.1,1.5-0.4
			c0.4-0.3,0.8-0.6,1-1.1c0.3-0.5,0.5-1,0.6-1.6C47.7,17.3,47.8,16.7,47.8,16.1z"/>
		<path id="XMLID_43_" class="st0" d="M65.6,25.1v-1.2c-0.4,0.5-1,0.8-1.7,1.1c-0.7,0.3-1.5,0.4-2.3,0.4c-0.8,0-1.7-0.1-2.5-0.4
			s-1.5-0.7-2.1-1.2c-0.6-0.5-1.1-1.2-1.5-2c-0.4-0.8-0.6-1.8-0.6-2.9c0-1,0.2-1.9,0.6-2.6c0.4-0.8,0.9-1.4,1.6-1.9
			c0.7-0.5,1.4-0.9,2.3-1.1c0.9-0.3,1.8-0.4,2.9-0.4c0.8,0,1.5,0.1,2.1,0.2c0.5,0.1,1,0.3,1.4,0.5v-0.9c0-0.6-0.2-1.2-0.6-1.6
			c-0.4-0.4-1.1-0.7-1.9-0.7c-0.5,0-1,0-1.5,0.1c-0.4,0-0.8,0.1-1.2,0.2c-0.4,0.1-0.8,0.2-1.1,0.4c-0.4,0.1-0.8,0.3-1.2,0.6
			l-1.8-3.3c0.5-0.3,1-0.6,1.5-0.8c0.5-0.2,1-0.4,1.5-0.6C59.9,7,60.4,6.8,61,6.8c0.6-0.1,1.3-0.1,2-0.1c1.1,0,2.1,0.1,3,0.4
			s1.7,0.7,2.3,1.2c0.6,0.5,1.1,1.2,1.5,2c0.4,0.8,0.5,1.7,0.5,2.7v12.1H65.6z M65.6,17.5c-0.4-0.3-0.9-0.4-1.3-0.6
			c-0.5-0.1-1.1-0.2-2-0.2c-0.9,0-1.6,0.2-2,0.6c-0.5,0.4-0.7,1-0.7,1.7c0,0.6,0.2,1.2,0.6,1.7s1.1,0.7,2.1,0.7c0.8,0,1.5-0.2,2-0.5
			c0.6-0.3,1-0.7,1.3-1.2V17.5z"/>
		<path id="XMLID_40_" class="st0" d="M84.1,25.1v-1.1c-0.5,0.4-1,0.7-1.6,1c-0.6,0.3-1.3,0.5-2.2,0.5c-1,0-1.9-0.2-2.7-0.6
			c-0.8-0.4-1.6-0.9-2.2-1.7c-0.6-0.8-1.1-1.8-1.5-3c-0.4-1.2-0.5-2.7-0.5-4.3c0-1.4,0.2-2.6,0.5-3.7C74,11,74.5,10,75.1,9.2
			c0.6-0.8,1.3-1.4,2.2-1.9c0.9-0.4,1.9-0.7,3-0.7c0.8,0,1.5,0.1,2.2,0.4s1.2,0.6,1.6,1V2.4L88.8,0v25.1H84.1z M84.1,12.7
			c-0.8-1-1.8-1.5-3.2-1.5c-1.9,0-2.8,1.5-2.8,4.6c0,1.9,0.3,3.2,0.8,4c0.6,0.8,1.3,1.2,2.3,1.2c0.7,0,1.3-0.1,1.8-0.4
			c0.4-0.3,0.8-0.6,1.2-1.1V12.7z"/>
		<path id="XMLID_38_" class="st0" d="M120.8,17.8c0,1.1-0.2,2.2-0.6,3.1c-0.4,0.9-0.9,1.7-1.7,2.4c-0.8,0.7-1.8,1.2-2.9,1.6
			c-1.2,0.4-2.6,0.6-4.2,0.6c-2,0-3.9-0.4-5.5-1.2c-1.7-0.8-2.9-1.8-3.9-3.2l3.5-3.1c0.8,1,1.8,1.7,2.8,2.1c1,0.4,2.1,0.6,3.3,0.6
			c1.4,0,2.5-0.2,3.2-0.6c0.7-0.4,1-1.1,1-2c0-0.4-0.1-0.7-0.2-1c-0.1-0.3-0.4-0.6-0.8-0.8c-0.4-0.3-0.9-0.5-1.6-0.7
			c-0.7-0.2-1.6-0.5-2.8-0.7c-1.1-0.3-2.1-0.6-3-0.9c-0.9-0.3-1.7-0.8-2.4-1.3c-0.7-0.5-1.2-1.2-1.5-2c-0.4-0.8-0.5-1.8-0.5-3
			c0-1.1,0.2-2.1,0.7-3c0.4-0.9,1.1-1.6,1.8-2.2s1.7-1.1,2.7-1.4c1-0.3,2.2-0.5,3.4-0.5c1.9,0,3.5,0.3,4.9,1
			c1.4,0.7,2.7,1.6,3.8,2.8l-3.5,3.4c-0.8-0.8-1.6-1.4-2.5-1.8c-0.9-0.4-1.9-0.6-3-0.6c-0.6,0-1.2,0.1-1.6,0.2s-0.8,0.3-1.1,0.5
			c-0.3,0.2-0.5,0.4-0.6,0.7c-0.1,0.3-0.2,0.5-0.2,0.8c0,0.4,0.1,0.7,0.2,1c0.1,0.3,0.4,0.5,0.8,0.7c0.4,0.2,0.9,0.4,1.5,0.6
			c0.6,0.2,1.4,0.4,2.4,0.6c1,0.2,1.9,0.5,2.9,0.8s1.8,0.7,2.6,1.3c0.8,0.5,1.4,1.2,1.9,2.1C120.5,15.4,120.8,16.5,120.8,17.8z"/>
		<path id="XMLID_35_" class="st0" d="M140,16.3c0,1.4-0.2,2.6-0.5,3.7c-0.3,1.1-0.8,2.1-1.4,2.9c-0.6,0.8-1.3,1.4-2.2,1.9
			c-0.9,0.4-1.9,0.7-3,0.7c-0.8,0-1.5-0.1-2.2-0.4c-0.7-0.3-1.2-0.6-1.6-1v5.3l-4.7,2.4V7h4.7v1.1c0.5-0.4,1-0.7,1.6-1
			c0.6-0.3,1.3-0.5,2.2-0.5c1,0,1.9,0.2,2.7,0.6c0.8,0.4,1.6,0.9,2.2,1.7c0.6,0.8,1.1,1.8,1.5,3C139.9,13.1,140,14.6,140,16.3z
			 M135.2,16.4c0-1.9-0.3-3.2-0.8-4c-0.6-0.8-1.3-1.2-2.3-1.2c-0.7,0-1.3,0.1-1.8,0.4c-0.4,0.3-0.8,0.6-1.2,1.1v6.8
			c0.8,1,1.8,1.5,3.2,1.5C134.3,21,135.2,19.4,135.2,16.4z"/>
		<path id="XMLID_32_" class="st0" d="M157.9,16.1c0,0.3,0,0.6,0,0.9c0,0.2,0,0.5-0.1,0.6H147c0,0.6,0.2,1.1,0.4,1.6
			c0.2,0.4,0.5,0.8,0.9,1c0.3,0.3,0.7,0.5,1.2,0.6c0.4,0.1,0.9,0.2,1.3,0.2c0.7,0,1.3-0.1,1.8-0.3c0.5-0.2,1-0.5,1.3-0.9l3.4,2.8
			c-0.7,0.9-1.7,1.7-2.9,2.2s-2.4,0.8-3.6,0.8c-1.3,0-2.5-0.2-3.5-0.7c-1-0.4-1.9-1.1-2.7-1.9c-0.7-0.8-1.3-1.8-1.7-3
			c-0.4-1.2-0.6-2.4-0.6-3.9c0-1.4,0.2-2.6,0.6-3.8c0.4-1.2,1-2.2,1.7-3c0.7-0.8,1.6-1.5,2.5-1.9c1-0.5,2-0.7,3.2-0.7
			c1.2,0,2.3,0.2,3.2,0.7c1,0.5,1.7,1.2,2.4,2c0.6,0.9,1.1,1.9,1.5,3C157.8,13.6,157.9,14.8,157.9,16.1z M153.3,14
			c0-0.4-0.1-0.8-0.3-1.2c-0.1-0.4-0.3-0.7-0.6-1c-0.3-0.3-0.6-0.6-1-0.7c-0.4-0.2-0.9-0.3-1.4-0.3c-0.9,0-1.6,0.3-2.1,0.9
			c-0.5,0.6-0.8,1.4-0.9,2.3H153.3z"/>
		<path id="XMLID_30_" class="st0" d="M174.7,23.1c-0.5,0.5-1,0.9-1.6,1.3c-0.6,0.4-1.2,0.6-2,0.8c-0.7,0.2-1.5,0.3-2.4,0.3
			c-1.2,0-2.3-0.2-3.3-0.7c-1-0.5-1.9-1.1-2.7-1.9c-0.8-0.8-1.4-1.8-1.8-3c-0.4-1.2-0.7-2.4-0.7-3.8c0-1.4,0.2-2.6,0.7-3.8
			c0.4-1.2,1-2.2,1.8-3c0.8-0.8,1.7-1.5,2.7-1.9c1.1-0.5,2.2-0.7,3.5-0.7c1.7,0,3.2,0.4,4.3,1.1c1.1,0.7,2.1,1.7,2.9,2.8l-3.1,3.2
			c-0.5-0.8-1.1-1.4-1.7-1.9c-0.6-0.5-1.4-0.7-2.4-0.7c-1.1,0-2.1,0.4-2.7,1.3c-0.7,0.9-1,2.1-1,3.6c0,1.5,0.3,2.6,1,3.5
			c0.7,0.9,1.6,1.3,2.7,1.3c0.9,0,1.7-0.2,2.4-0.6c0.6-0.4,1.3-1,1.9-1.7l3,2.8C175.6,22,175.1,22.6,174.7,23.1z"/>
		<path id="XMLID_28_" class="st0" d="M189.1,24.3c-0.4,0.3-0.9,0.6-1.6,0.8c-0.7,0.2-1.4,0.3-2.1,0.3c-0.7,0-1.4-0.1-2-0.4
			c-0.6-0.3-1.1-0.6-1.5-1.1s-0.7-1.1-1-1.7c-0.2-0.7-0.3-1.4-0.3-2.2v-8.5h-3V7h3V2.4l4.7-2.4v7h4.3v4.5h-4.3v7.3
			c0,0.9,0.1,1.5,0.4,1.7c0.3,0.3,0.7,0.4,1.3,0.4c0.4,0,0.8-0.1,1.2-0.3c0.4-0.2,0.9-0.6,1.5-1.1L189.1,24.3z"/>
		<path id="XMLID_26_" class="st0" d="M204.2,12.6c-0.4-0.3-0.8-0.6-1.3-0.8c-0.5-0.2-1-0.3-1.5-0.3c-0.5,0-0.9,0.1-1.3,0.2
			c-0.4,0.1-0.7,0.3-1,0.6c-0.3,0.3-0.5,0.7-0.6,1.2c-0.1,0.5-0.2,1.1-0.2,1.9v9.8h-4.7V7h4.7v1.2c0.4-0.4,0.9-0.8,1.5-1.1
			c0.6-0.3,1.3-0.5,2.2-0.5c0.8,0,1.4,0.1,2,0.4c0.6,0.3,1,0.6,1.3,0.9L204.2,12.6z"/>
		<path id="XMLID_24_" class="st0" d="M218.5,25.1v-1.2c-0.4,0.4-1,0.8-1.7,1.1s-1.6,0.5-2.5,0.5c-2.3,0-4-0.7-5.1-2.2
			s-1.6-3.5-1.6-6V7h4.7v9.8c0,0.8,0.1,1.5,0.2,2s0.3,1,0.6,1.3c0.3,0.3,0.6,0.6,1,0.7c0.4,0.1,0.8,0.2,1.3,0.2c1,0,1.7-0.3,2.3-0.9
			c0.5-0.6,0.8-1.7,0.8-3.2V7h4.7v18.1H218.5z"/>
		<path id="XMLID_22_" class="st0" d="M248.4,25.1v-9.8c0-1.6-0.2-2.7-0.7-3.3c-0.5-0.6-1.2-0.9-2.2-0.9c-1,0-1.7,0.3-2.2,0.9
			s-0.7,1.7-0.7,3.2v9.9h-4.7v-9.8c0-1.6-0.2-2.7-0.7-3.3c-0.5-0.6-1.2-0.9-2.2-0.9c-1,0-1.7,0.3-2.2,0.9c-0.5,0.6-0.7,1.7-0.7,3.2
			v9.9h-4.7V7h4.7v1.2c0.4-0.4,0.9-0.8,1.6-1.1c0.6-0.3,1.4-0.5,2.4-0.5c1.1,0,2.1,0.2,2.9,0.5c0.8,0.4,1.5,0.9,2.1,1.8
			c0.6-0.6,1.4-1.2,2.2-1.6c0.9-0.4,2-0.7,3.5-0.7c1.1,0,2.1,0.2,2.9,0.6c0.8,0.4,1.5,0.9,2,1.7c0.5,0.7,0.9,1.6,1.1,2.6
			s0.4,2.2,0.4,3.4v10.2H248.4z"/>
		<path id="XMLID_20_" class="st0" d="M267.1,25.1V1h16.7v4.7h-11.9v4.2h6.9v4.7h-6.9v5.8h12.4v4.7H267.1z"/>
		<path id="XMLID_18_" class="st0" d="M296.7,4.2c-0.3-0.1-0.6-0.1-0.9-0.1c-0.7,0-1.2,0.1-1.4,0.3C294.1,4.6,294,5,294,5.5V7h3.1
			v4.5H294v13.6h-4.7V11.5h-2.2V7h2.2V4.8c0-1.7,0.4-2.9,1.3-3.6c0.9-0.7,2.2-1.1,3.8-1.1c1.2,0,2.2,0.2,3,0.5v3.8
			C297.2,4.3,296.9,4.2,296.7,4.2z"/>
		<path id="XMLID_14_" class="st0" d="M309.6,4.4c-0.3-0.1-0.5-0.2-0.8-0.3c-0.3-0.1-0.6-0.1-0.9-0.1c-0.7,0-1.2,0.1-1.4,0.3
			c-0.2,0.2-0.3,0.6-0.3,1.1V7h3.1v4.5h-3.1v13.6h-4.7V11.5h-2.2V7h2.2V4.8c0-1.7,0.4-2.9,1.3-3.6c0.9-0.7,2.2-1.1,3.8-1.1
			c1.2,0,2.2,0.2,3,0.5V4.4z M318,2.8c0,0.7-0.3,1.4-0.8,1.9c-0.5,0.5-1.2,0.8-1.9,0.8c-0.7,0-1.4-0.3-1.9-0.8
			c-0.5-0.5-0.8-1.2-0.8-1.9c0-0.7,0.3-1.4,0.8-1.9c0.5-0.5,1.2-0.8,1.9-0.8c0.7,0,1.4,0.3,1.9,0.8C317.7,1.5,318,2.1,318,2.8z
			 M312.9,25.1V7h4.7v18.1H312.9z"/>
		<path id="XMLID_12_" class="st0" d="M335.4,23.1c-0.5,0.5-1,0.9-1.6,1.3c-0.6,0.4-1.2,0.6-2,0.8c-0.7,0.2-1.5,0.3-2.4,0.3
			c-1.2,0-2.3-0.2-3.3-0.7c-1-0.5-1.9-1.1-2.7-1.9c-0.8-0.8-1.4-1.8-1.8-3c-0.4-1.2-0.7-2.4-0.7-3.8c0-1.4,0.2-2.6,0.7-3.8
			c0.4-1.2,1-2.2,1.8-3c0.8-0.8,1.7-1.5,2.7-1.9c1.1-0.5,2.2-0.7,3.5-0.7c1.7,0,3.2,0.4,4.3,1.1c1.1,0.7,2.1,1.7,2.9,2.8l-3.1,3.2
			c-0.5-0.8-1.1-1.4-1.7-1.9c-0.6-0.5-1.4-0.7-2.4-0.7c-1.1,0-2.1,0.4-2.7,1.3c-0.7,0.9-1,2.1-1,3.6c0,1.5,0.3,2.6,1,3.5
			c0.7,0.9,1.6,1.3,2.7,1.3c0.9,0,1.7-0.2,2.4-0.6c0.6-0.4,1.3-1,1.9-1.7l3,2.8C336.3,22,335.9,22.6,335.4,23.1z"/>
		<path id="XMLID_9_" class="st0" d="M349.6,25.1v-1.2c-0.4,0.5-1,0.8-1.7,1.1c-0.7,0.3-1.5,0.4-2.3,0.4c-0.8,0-1.7-0.1-2.5-0.4
			s-1.5-0.7-2.1-1.2c-0.6-0.5-1.1-1.2-1.5-2c-0.4-0.8-0.6-1.8-0.6-2.9c0-1,0.2-1.9,0.6-2.6c0.4-0.8,0.9-1.4,1.6-1.9
			c0.7-0.5,1.4-0.9,2.3-1.1c0.9-0.3,1.8-0.4,2.9-0.4c0.8,0,1.5,0.1,2.1,0.2c0.5,0.1,1,0.3,1.4,0.5v-0.9c0-0.6-0.2-1.2-0.6-1.6
			c-0.4-0.4-1.1-0.7-1.9-0.7c-0.5,0-1,0-1.5,0.1c-0.4,0-0.8,0.1-1.2,0.2c-0.4,0.1-0.8,0.2-1.1,0.4c-0.4,0.1-0.8,0.3-1.2,0.6
			l-1.8-3.3c0.5-0.3,1-0.6,1.5-0.8c0.5-0.2,1-0.4,1.5-0.6c0.5-0.1,1.1-0.3,1.7-0.3c0.6-0.1,1.3-0.1,2-0.1c1.1,0,2.1,0.1,3,0.4
			s1.7,0.7,2.3,1.2c0.6,0.5,1.1,1.2,1.5,2c0.4,0.8,0.5,1.7,0.5,2.7v12.1H349.6z M349.6,17.5c-0.4-0.3-0.9-0.4-1.3-0.6
			c-0.5-0.1-1.1-0.2-2-0.2c-0.9,0-1.6,0.2-2,0.6c-0.5,0.4-0.7,1-0.7,1.7c0,0.6,0.2,1.2,0.6,1.7s1.1,0.7,2.1,0.7c0.8,0,1.5-0.2,2-0.5
			c0.6-0.3,1-0.7,1.3-1.2V17.5z"/>
		<path id="XMLID_7_" class="st0" d="M371.8,23.1c-0.5,0.5-1,0.9-1.6,1.3c-0.6,0.4-1.2,0.6-2,0.8c-0.7,0.2-1.5,0.3-2.4,0.3
			c-1.2,0-2.3-0.2-3.3-0.7c-1-0.5-1.9-1.1-2.7-1.9c-0.8-0.8-1.4-1.8-1.8-3c-0.4-1.2-0.7-2.4-0.7-3.8c0-1.4,0.2-2.6,0.7-3.8
			c0.4-1.2,1-2.2,1.8-3c0.8-0.8,1.7-1.5,2.7-1.9c1.1-0.5,2.2-0.7,3.5-0.7c1.7,0,3.2,0.4,4.3,1.1c1.1,0.7,2.1,1.7,2.9,2.8l-3.1,3.2
			c-0.5-0.8-1.1-1.4-1.7-1.9c-0.6-0.5-1.4-0.7-2.4-0.7c-1.1,0-2.1,0.4-2.7,1.3c-0.7,0.9-1,2.1-1,3.6c0,1.5,0.3,2.6,1,3.5
			c0.7,0.9,1.6,1.3,2.7,1.3c0.9,0,1.7-0.2,2.4-0.6c0.6-0.4,1.3-1,1.9-1.7l3,2.8C372.7,22,372.3,22.6,371.8,23.1z"/>
		<path id="XMLID_5_" class="st0" d="M384,31.4h-4.7l2.4-6.4l-7-18.1h5.2l3,8.7c0.3,0.7,0.5,1.4,0.7,2.2c0.2,0.8,0.4,1.4,0.5,1.8
			c0.1-0.5,0.3-1.1,0.5-1.8c0.2-0.7,0.4-1.5,0.7-2.2l3-8.7h5.1L384,31.4z"/>
	</g>
</g>
</svg>
