<!-- Generator: Adobe Illustrator 22.1.0, SVG Export Plug-In  -->
<svg version="1.1"
	 xmlns="http://www.w3.org/2000/svg" xmlns:xlink="http://www.w3.org/1999/xlink" xmlns:a="http://ns.adobe.com/AdobeSVGViewerExtensions/3.0/"
	 x="0px" y="0px" width="557.4px" height="66.8px" viewBox="0 0 557.4 66.8" style="enable-background:new 0 0 557.4 66.8;"
	 xml:space="preserve">
<style type="text/css">
	.st0{fill:#236092;}
</style>
<defs>
</defs>
<g id="XMLID_1_">
	<g id="XMLID_3_">
		<path id="XMLID_126_" class="st0" d="M21.9,25.1h-4.7l-3-12.4c-0.2-0.7-0.4-1.5-0.5-2.3c-0.1-0.8-0.3-1.4-0.3-1.9
			c0,0.5-0.1,1.1-0.3,1.9c-0.2,0.8-0.3,1.5-0.5,2.3l-3,12.4H5L0,1h5l2.1,11.7c0.1,0.6,0.2,1.3,0.3,2c0.1,0.8,0.2,1.4,0.2,1.9
			c0.1-0.5,0.2-1.1,0.4-1.9c0.2-0.8,0.3-1.5,0.4-2L11.4,1h4.2l2.9,11.7c0.1,0.6,0.3,1.3,0.4,2c0.2,0.8,0.3,1.4,0.4,1.9
			c0-0.5,0.1-1.1,0.2-1.9c0.1-0.8,0.2-1.5,0.3-2L21.9,1h5L21.9,25.1z"/>
		<path id="XMLID_123_" class="st0" d="M45.1,16.1c0,0.3,0,0.6,0,0.9c0,0.2,0,0.5-0.1,0.6H34.2c0,0.6,0.2,1.1,0.4,1.6
			s0.5,0.8,0.9,1.1c0.3,0.3,0.7,0.5,1.2,0.6c0.4,0.1,0.9,0.2,1.3,0.2c0.7,0,1.3-0.1,1.8-0.3c0.5-0.2,1-0.5,1.3-0.9l3.4,2.8
			c-0.7,0.9-1.7,1.7-2.9,2.2s-2.4,0.8-3.6,0.8c-1.3,0-2.5-0.2-3.5-0.7c-1-0.4-1.9-1.1-2.7-1.9c-0.7-0.8-1.3-1.8-1.7-3
			c-0.4-1.2-0.6-2.5-0.6-3.9c0-1.4,0.2-2.6,0.6-3.8c0.4-1.2,1-2.2,1.7-3c0.7-0.8,1.6-1.5,2.5-1.9c1-0.5,2-0.7,3.2-0.7
			c1.2,0,2.3,0.2,3.2,0.7c1,0.5,1.8,1.2,2.4,2s1.1,1.9,1.5,3C44.9,13.6,45.1,14.8,45.1,16.1z M40.5,14c0-0.4-0.1-0.8-0.3-1.2
			s-0.3-0.7-0.6-1c-0.3-0.3-0.6-0.6-1-0.7c-0.4-0.2-0.9-0.3-1.4-0.3c-0.9,0-1.6,0.3-2.1,0.9c-0.5,0.6-0.8,1.4-0.9,2.3H40.5z"/>
		<path id="XMLID_121_" class="st0" d="M48.5,25.1V2.4L53.2,0v25.1H48.5z"/>
		<path id="XMLID_119_" class="st0" d="M57.6,25.1V2.4L62.3,0v25.1H57.6z"/>
		<path id="XMLID_117_" class="st0" d="M86.9,5.8v19.4h-4.8V5.8h-6.9V1h18.7v4.8H86.9z"/>
		<path id="XMLID_114_" class="st0" d="M112.5,16.1c0,1.4-0.2,2.6-0.6,3.8s-1,2.2-1.7,3c-0.7,0.8-1.6,1.5-2.6,1.9
			c-1,0.5-2.1,0.7-3.3,0.7s-2.3-0.2-3.3-0.7s-1.9-1.1-2.6-1.9c-0.7-0.8-1.3-1.8-1.7-3c-0.4-1.2-0.6-2.4-0.6-3.8s0.2-2.6,0.6-3.8
			c0.4-1.2,1-2.2,1.7-3c0.7-0.8,1.6-1.5,2.6-1.9c1-0.5,2.1-0.7,3.3-0.7s2.3,0.2,3.3,0.7c1,0.5,1.9,1.1,2.6,1.9
			c0.7,0.8,1.3,1.8,1.7,3C112.3,13.4,112.5,14.7,112.5,16.1z M107.7,16.1c0-1.4-0.3-2.5-0.8-3.5c-0.6-0.9-1.4-1.4-2.5-1.4
			c-1.1,0-2,0.5-2.5,1.4c-0.5,0.9-0.8,2.1-0.8,3.5s0.3,2.6,0.8,3.5c0.5,0.9,1.4,1.4,2.5,1.4c0.6,0,1.1-0.1,1.5-0.4
			c0.4-0.3,0.8-0.6,1-1.1c0.3-0.5,0.5-1,0.6-1.6S107.7,16.7,107.7,16.1z"/>
		<path id="XMLID_112_" class="st0" d="M115.8,25.1V2.4l4.8-2.4v25.1H115.8z"/>
		<path id="XMLID_109_" class="st0" d="M139.5,16.1c0,0.3,0,0.6,0,0.9c0,0.2,0,0.5-0.1,0.6h-10.8c0,0.6,0.2,1.1,0.4,1.6
			s0.5,0.8,0.9,1.1c0.3,0.3,0.7,0.5,1.2,0.6c0.4,0.1,0.9,0.2,1.3,0.2c0.7,0,1.3-0.1,1.8-0.3c0.5-0.2,1-0.5,1.3-0.9l3.4,2.8
			c-0.7,0.9-1.7,1.7-2.9,2.2s-2.4,0.8-3.6,0.8c-1.3,0-2.5-0.2-3.5-0.7c-1-0.4-1.9-1.1-2.7-1.9c-0.7-0.8-1.3-1.8-1.7-3
			c-0.4-1.2-0.6-2.5-0.6-3.9c0-1.4,0.2-2.6,0.6-3.8c0.4-1.2,1-2.2,1.7-3c0.7-0.8,1.6-1.5,2.5-1.9c1-0.5,2-0.7,3.2-0.7
			c1.2,0,2.3,0.2,3.2,0.7c1,0.5,1.8,1.2,2.4,2s1.1,1.9,1.5,3C139.3,13.6,139.5,14.8,139.5,16.1z M134.9,14c0-0.4-0.1-0.8-0.3-1.2
			s-0.3-0.7-0.6-1c-0.3-0.3-0.6-0.6-1-0.7c-0.4-0.2-0.9-0.3-1.4-0.3c-0.9,0-1.6,0.3-2.1,0.9c-0.5,0.6-0.8,1.4-0.9,2.3H134.9z"/>
		<path id="XMLID_107_" class="st0" d="M153.3,12.6c-0.4-0.3-0.8-0.6-1.3-0.8s-1-0.3-1.5-0.3c-0.5,0-0.9,0.1-1.3,0.2
			c-0.4,0.1-0.7,0.3-1,0.6c-0.3,0.3-0.5,0.7-0.6,1.2c-0.2,0.5-0.2,1.1-0.2,1.9v9.8h-4.8V7h4.8v1.2c0.4-0.4,0.9-0.8,1.5-1.1
			c0.6-0.3,1.3-0.5,2.2-0.5c0.8,0,1.5,0.1,2,0.4c0.6,0.3,1,0.6,1.3,0.9L153.3,12.6z"/>
		<path id="XMLID_104_" class="st0" d="M166.8,25.1v-1.2c-0.4,0.5-1,0.8-1.7,1.1c-0.7,0.3-1.5,0.4-2.3,0.4s-1.7-0.1-2.5-0.4
			s-1.5-0.7-2.2-1.2c-0.6-0.5-1.1-1.2-1.5-2c-0.4-0.8-0.6-1.8-0.6-2.9c0-1,0.2-1.9,0.6-2.6c0.4-0.8,0.9-1.4,1.6-1.9
			c0.7-0.5,1.4-0.9,2.3-1.1c0.9-0.3,1.8-0.4,2.9-0.4c0.8,0,1.5,0.1,2.1,0.2c0.6,0.1,1,0.3,1.4,0.5v-0.9c0-0.6-0.2-1.2-0.6-1.6
			s-1.1-0.7-1.9-0.7c-0.6,0-1,0-1.5,0.1c-0.4,0-0.8,0.1-1.2,0.2c-0.4,0.1-0.8,0.2-1.1,0.4s-0.8,0.3-1.2,0.6l-1.8-3.3
			c0.5-0.3,1-0.6,1.5-0.8c0.5-0.2,1-0.4,1.5-0.6c0.5-0.1,1.1-0.3,1.7-0.3c0.6-0.1,1.3-0.1,2-0.1c1.1,0,2.1,0.1,3,0.4
			s1.7,0.7,2.3,1.2s1.1,1.2,1.5,2c0.4,0.8,0.5,1.7,0.5,2.7v12.1H166.8z M166.8,17.5c-0.4-0.3-0.9-0.4-1.3-0.6
			c-0.5-0.1-1.1-0.2-2-0.2c-0.9,0-1.6,0.2-2,0.6c-0.5,0.4-0.7,1-0.7,1.7c0,0.6,0.2,1.2,0.6,1.7c0.4,0.5,1.1,0.7,2.1,0.7
			c0.8,0,1.5-0.2,2-0.5c0.6-0.3,1-0.7,1.3-1.2V17.5z"/>
		<path id="XMLID_102_" class="st0" d="M185.5,24.4c-0.4,0.3-0.9,0.6-1.6,0.8s-1.4,0.3-2.1,0.3c-0.7,0-1.4-0.1-2-0.4
			c-0.6-0.3-1.1-0.6-1.5-1.1c-0.4-0.5-0.7-1.1-1-1.7c-0.2-0.7-0.3-1.4-0.3-2.2v-8.5h-3V7h3V2.4l4.8-2.4v7h4.3v4.5h-4.3v7.3
			c0,0.9,0.1,1.5,0.4,1.7c0.3,0.3,0.7,0.4,1.3,0.4c0.4,0,0.8-0.1,1.2-0.3s0.9-0.6,1.5-1.1L185.5,24.4z"/>
		<path id="XMLID_99_" class="st0" d="M204.8,16.1c0,0.3,0,0.6,0,0.9c0,0.2,0,0.5-0.1,0.6h-10.8c0,0.6,0.2,1.1,0.4,1.6
			s0.5,0.8,0.9,1.1c0.3,0.3,0.7,0.5,1.2,0.6c0.4,0.1,0.9,0.2,1.3,0.2c0.7,0,1.3-0.1,1.8-0.3c0.5-0.2,1-0.5,1.3-0.9l3.4,2.8
			c-0.7,0.9-1.7,1.7-2.9,2.2s-2.4,0.8-3.6,0.8c-1.3,0-2.5-0.2-3.5-0.7c-1-0.4-1.9-1.1-2.7-1.9c-0.7-0.8-1.3-1.8-1.7-3
			c-0.4-1.2-0.6-2.5-0.6-3.9c0-1.4,0.2-2.6,0.6-3.8c0.4-1.2,1-2.2,1.7-3c0.7-0.8,1.6-1.5,2.5-1.9c1-0.5,2-0.7,3.2-0.7
			c1.2,0,2.3,0.2,3.2,0.7c1,0.5,1.8,1.2,2.4,2s1.1,1.9,1.5,3C204.6,13.6,204.8,14.8,204.8,16.1z M200.2,14c0-0.4-0.1-0.8-0.3-1.2
			s-0.3-0.7-0.6-1c-0.3-0.3-0.6-0.6-1-0.7c-0.4-0.2-0.9-0.3-1.4-0.3c-0.9,0-1.6,0.3-2.1,0.9c-0.5,0.6-0.8,1.4-0.9,2.3H200.2z"/>
		<path id="XMLID_96_" class="st0" d="M217.9,25.1V24c-0.5,0.4-1,0.7-1.6,1.1c-0.6,0.3-1.3,0.5-2.2,0.5c-1,0-1.9-0.2-2.7-0.6
			c-0.8-0.4-1.6-0.9-2.2-1.7c-0.6-0.8-1.1-1.8-1.5-3c-0.4-1.2-0.6-2.7-0.6-4.4c0-1.4,0.2-2.6,0.5-3.7c0.3-1.1,0.8-2.1,1.4-2.9
			c0.6-0.8,1.3-1.4,2.2-1.9c0.9-0.4,1.9-0.7,3-0.7c0.8,0,1.5,0.1,2.2,0.4s1.2,0.6,1.6,1V2.4l4.8-2.4v25.1H217.9z M217.9,12.7
			c-0.8-1-1.8-1.5-3.2-1.5c-1.9,0-2.8,1.5-2.8,4.6c0,1.9,0.3,3.2,0.8,4c0.6,0.8,1.3,1.2,2.3,1.2c0.7,0,1.3-0.1,1.8-0.4
			c0.4-0.3,0.8-0.6,1.2-1.1V12.7z"/>
		<path id="XMLID_94_" class="st0" d="M254.7,25.1v-8.9c0-0.3,0-0.7,0-1.2c0-0.5,0-1,0-1.5s0-1,0-1.5c0-0.5,0-0.8,0-1
			c-0.2,0.5-0.4,1.1-0.7,1.8s-0.6,1.5-0.9,2.2l-4.9,10.7l-4.9-10.7c-0.3-0.7-0.6-1.4-0.9-2.2s-0.6-1.4-0.7-1.8c0,0.2,0,0.6,0,1
			c0,0.5,0,1,0,1.5s0,1,0,1.5c0,0.5,0,0.9,0,1.2v8.9H237V1h4.7l5,10.9c0.2,0.3,0.3,0.7,0.5,1.1c0.2,0.4,0.3,0.8,0.5,1.1
			s0.3,0.7,0.4,1c0.1,0.3,0.2,0.6,0.3,0.8c0.2-0.5,0.4-1.1,0.7-1.8c0.3-0.8,0.6-1.5,0.9-2.2L254.8,1h4.8v24.1H254.7z"/>
		<path id="XMLID_91_" class="st0" d="M279.1,16.1c0,0.3,0,0.6,0,0.9c0,0.2,0,0.5-0.1,0.6h-10.8c0,0.6,0.2,1.1,0.4,1.6
			s0.5,0.8,0.9,1.1c0.3,0.3,0.7,0.5,1.2,0.6c0.4,0.1,0.9,0.2,1.3,0.2c0.7,0,1.3-0.1,1.8-0.3c0.5-0.2,1-0.5,1.3-0.9l3.4,2.8
			c-0.7,0.9-1.7,1.7-2.9,2.2s-2.4,0.8-3.6,0.8c-1.3,0-2.5-0.2-3.5-0.7c-1-0.4-1.9-1.1-2.7-1.9c-0.7-0.8-1.3-1.8-1.7-3
			c-0.4-1.2-0.6-2.5-0.6-3.9c0-1.4,0.2-2.6,0.6-3.8c0.4-1.2,1-2.2,1.7-3c0.7-0.8,1.6-1.5,2.5-1.9c1-0.5,2-0.7,3.2-0.7
			c1.2,0,2.3,0.2,3.2,0.7c1,0.5,1.8,1.2,2.4,2s1.1,1.9,1.5,3C278.9,13.6,279.1,14.8,279.1,16.1z M274.5,14c0-0.4-0.1-0.8-0.3-1.2
			s-0.3-0.7-0.6-1c-0.3-0.3-0.6-0.6-1-0.7c-0.4-0.2-0.9-0.3-1.4-0.3c-0.9,0-1.6,0.3-2.1,0.9c-0.5,0.6-0.8,1.4-0.9,2.3H274.5z"/>
		<path id="XMLID_88_" class="st0" d="M292.2,25.1V24c-0.5,0.4-1,0.7-1.6,1.1c-0.6,0.3-1.3,0.5-2.2,0.5c-1,0-1.9-0.2-2.7-0.6
			c-0.8-0.4-1.6-0.9-2.2-1.7c-0.6-0.8-1.1-1.8-1.5-3c-0.4-1.2-0.6-2.7-0.6-4.4c0-1.4,0.2-2.6,0.5-3.7c0.3-1.1,0.8-2.1,1.4-2.9
			c0.6-0.8,1.3-1.4,2.2-1.9c0.9-0.4,1.9-0.7,3-0.7c0.8,0,1.5,0.1,2.2,0.4s1.2,0.6,1.6,1V2.4L297,0v25.1H292.2z M292.2,12.7
			c-0.8-1-1.8-1.5-3.2-1.5c-1.9,0-2.8,1.5-2.8,4.6c0,1.9,0.3,3.2,0.8,4c0.6,0.8,1.3,1.2,2.3,1.2c0.7,0,1.3-0.1,1.8-0.4
			c0.4-0.3,0.8-0.6,1.2-1.1V12.7z"/>
		<path id="XMLID_85_" class="st0" d="M306.3,2.8c0,0.7-0.3,1.4-0.8,1.9c-0.5,0.5-1.2,0.8-1.9,0.8c-0.7,0-1.4-0.3-1.9-0.8
			c-0.5-0.5-0.8-1.2-0.8-1.9c0-0.7,0.3-1.4,0.8-1.9c0.5-0.5,1.2-0.8,1.9-0.8c0.7,0,1.4,0.3,1.9,0.8C306.1,1.5,306.3,2.1,306.3,2.8z
			 M301.2,25.1V7h4.8v18.1H301.2z"/>
		<path id="XMLID_83_" class="st0" d="M323.7,23.1c-0.5,0.5-1,0.9-1.6,1.3c-0.6,0.4-1.2,0.6-2,0.8c-0.7,0.2-1.5,0.3-2.4,0.3
			c-1.2,0-2.3-0.2-3.3-0.7s-1.9-1.1-2.7-1.9c-0.8-0.8-1.4-1.8-1.8-3c-0.4-1.2-0.7-2.4-0.7-3.8s0.2-2.6,0.7-3.8c0.4-1.2,1-2.2,1.8-3
			c0.8-0.8,1.7-1.5,2.7-1.9c1.1-0.5,2.2-0.7,3.5-0.7c1.7,0,3.2,0.4,4.3,1.1c1.1,0.7,2.1,1.7,2.9,2.9l-3.1,3.2
			c-0.5-0.8-1.1-1.4-1.7-1.9c-0.6-0.5-1.4-0.7-2.4-0.7c-1.1,0-2.1,0.4-2.7,1.3c-0.7,0.9-1,2.1-1,3.6c0,1.5,0.3,2.6,1,3.5
			c0.7,0.9,1.6,1.3,2.7,1.3c0.9,0,1.7-0.2,2.4-0.6c0.6-0.4,1.3-1,1.9-1.7l3,2.9C324.7,22.1,324.2,22.6,323.7,23.1z"/>
		<path id="XMLID_80_" class="st0" d="M338,25.1v-1.2c-0.4,0.5-1,0.8-1.7,1.1c-0.7,0.3-1.5,0.4-2.3,0.4s-1.7-0.1-2.5-0.4
			s-1.5-0.7-2.2-1.2c-0.6-0.5-1.1-1.2-1.5-2c-0.4-0.8-0.6-1.8-0.6-2.9c0-1,0.2-1.9,0.6-2.6c0.4-0.8,0.9-1.4,1.6-1.9
			c0.7-0.5,1.4-0.9,2.3-1.1c0.9-0.3,1.8-0.4,2.9-0.4c0.8,0,1.5,0.1,2.1,0.2c0.6,0.1,1,0.3,1.4,0.5v-0.9c0-0.6-0.2-1.2-0.6-1.6
			s-1.1-0.7-1.9-0.7c-0.6,0-1,0-1.5,0.1c-0.4,0-0.8,0.1-1.2,0.2c-0.4,0.1-0.8,0.2-1.1,0.4s-0.8,0.3-1.2,0.6l-1.8-3.3
			c0.5-0.3,1-0.6,1.5-0.8c0.5-0.2,1-0.4,1.5-0.6c0.5-0.1,1.1-0.3,1.7-0.3c0.6-0.1,1.3-0.1,2-0.1c1.1,0,2.1,0.1,3,0.4
			s1.7,0.7,2.3,1.2s1.1,1.2,1.5,2c0.4,0.8,0.5,1.7,0.5,2.7v12.1H338z M338,17.5c-0.4-0.3-0.9-0.4-1.3-0.6c-0.5-0.1-1.1-0.2-2-0.2
			c-0.9,0-1.6,0.2-2,0.6c-0.5,0.4-0.7,1-0.7,1.7c0,0.6,0.2,1.2,0.6,1.7c0.4,0.5,1.1,0.7,2.1,0.7c0.8,0,1.5-0.2,2-0.5
			c0.6-0.3,1-0.7,1.3-1.2V17.5z"/>
		<path id="XMLID_78_" class="st0" d="M356.8,24.4c-0.4,0.3-0.9,0.6-1.6,0.8s-1.4,0.3-2.1,0.3c-0.7,0-1.4-0.1-2-0.4
			c-0.6-0.3-1.1-0.6-1.5-1.1c-0.4-0.5-0.7-1.1-1-1.7c-0.2-0.7-0.3-1.4-0.3-2.2v-8.5h-3V7h3V2.4L353,0v7h4.3v4.5H353v7.3
			c0,0.9,0.1,1.5,0.4,1.7c0.3,0.3,0.7,0.4,1.3,0.4c0.4,0,0.8-0.1,1.2-0.3s0.9-0.6,1.5-1.1L356.8,24.4z"/>
		<path id="XMLID_75_" class="st0" d="M366.6,2.8c0,0.7-0.3,1.4-0.8,1.9c-0.5,0.5-1.2,0.8-1.9,0.8c-0.7,0-1.4-0.3-1.9-0.8
			c-0.5-0.5-0.8-1.2-0.8-1.9c0-0.7,0.3-1.4,0.8-1.9c0.5-0.5,1.2-0.8,1.9-0.8c0.7,0,1.4,0.3,1.9,0.8C366.3,1.5,366.6,2.1,366.6,2.8z
			 M361.5,25.1V7h4.8v18.1H361.5z"/>
		<path id="XMLID_72_" class="st0" d="M385.9,16.1c0,1.4-0.2,2.6-0.6,3.8s-1,2.2-1.7,3c-0.7,0.8-1.6,1.5-2.6,1.9
			c-1,0.5-2.1,0.7-3.3,0.7s-2.3-0.2-3.3-0.7s-1.9-1.1-2.6-1.9c-0.7-0.8-1.3-1.8-1.7-3c-0.4-1.2-0.6-2.4-0.6-3.8s0.2-2.6,0.6-3.8
			c0.4-1.2,1-2.2,1.7-3c0.7-0.8,1.6-1.5,2.6-1.9c1-0.5,2.1-0.7,3.3-0.7s2.3,0.2,3.3,0.7c1,0.5,1.9,1.1,2.6,1.9
			c0.7,0.8,1.3,1.8,1.7,3C385.6,13.4,385.9,14.7,385.9,16.1z M381,16.1c0-1.4-0.3-2.5-0.8-3.5c-0.6-0.9-1.4-1.4-2.5-1.4
			c-1.1,0-2,0.5-2.5,1.4c-0.5,0.9-0.8,2.1-0.8,3.5s0.3,2.6,0.8,3.5c0.5,0.9,1.4,1.4,2.5,1.4c0.6,0,1.1-0.1,1.5-0.4
			c0.4-0.3,0.8-0.6,1-1.1c0.3-0.5,0.5-1,0.6-1.6S381,16.7,381,16.1z"/>
		<path id="XMLID_70_" class="st0" d="M399.9,25.1v-9.8c0-1.6-0.3-2.7-0.8-3.3c-0.5-0.6-1.3-0.9-2.3-0.9s-1.8,0.3-2.3,0.9
			c-0.5,0.6-0.8,1.7-0.8,3.2v9.9h-4.8V7h4.8v1.2c0.4-0.4,1-0.8,1.7-1.1c0.7-0.3,1.6-0.5,2.5-0.5c2.3,0,4,0.7,5.1,2.2
			c1.1,1.5,1.6,3.5,1.6,6v10.2H399.9z"/>
		<path id="XMLID_67_" class="st0" d="M427.8,25.1v-1.2c-0.4,0.5-1,0.8-1.7,1.1c-0.7,0.3-1.5,0.4-2.3,0.4s-1.7-0.1-2.5-0.4
			s-1.5-0.7-2.2-1.2c-0.6-0.5-1.1-1.2-1.5-2c-0.4-0.8-0.6-1.8-0.6-2.9c0-1,0.2-1.9,0.6-2.6c0.4-0.8,0.9-1.4,1.6-1.9
			c0.7-0.5,1.4-0.9,2.3-1.1c0.9-0.3,1.8-0.4,2.9-0.4c0.8,0,1.5,0.1,2.1,0.2c0.6,0.1,1,0.3,1.4,0.5v-0.9c0-0.6-0.2-1.2-0.6-1.6
			s-1.1-0.7-1.9-0.7c-0.6,0-1,0-1.5,0.1c-0.4,0-0.8,0.1-1.2,0.2c-0.4,0.1-0.8,0.2-1.1,0.4s-0.8,0.3-1.2,0.6l-1.8-3.3
			c0.5-0.3,1-0.6,1.5-0.8c0.5-0.2,1-0.4,1.5-0.6c0.5-0.1,1.1-0.3,1.7-0.3c0.6-0.1,1.3-0.1,2-0.1c1.1,0,2.1,0.1,3,0.4
			s1.7,0.7,2.3,1.2s1.1,1.2,1.5,2c0.4,0.8,0.5,1.7,0.5,2.7v12.1H427.8z M427.8,17.5c-0.4-0.3-0.9-0.4-1.3-0.6
			c-0.5-0.1-1.1-0.2-2-0.2c-0.9,0-1.6,0.2-2,0.6c-0.5,0.4-0.7,1-0.7,1.7c0,0.6,0.2,1.2,0.6,1.7c0.4,0.5,1.1,0.7,2.1,0.7
			c0.8,0,1.5-0.2,2-0.5c0.6-0.3,1-0.7,1.3-1.2V17.5z"/>
		<path id="XMLID_65_" class="st0" d="M447.4,25.1v-9.8c0-1.6-0.3-2.7-0.8-3.3c-0.5-0.6-1.3-0.9-2.3-0.9s-1.8,0.3-2.3,0.9
			c-0.5,0.6-0.8,1.7-0.8,3.2v9.9h-4.8V7h4.8v1.2c0.4-0.4,1-0.8,1.7-1.1c0.7-0.3,1.6-0.5,2.5-0.5c2.3,0,4,0.7,5.1,2.2
			c1.1,1.5,1.6,3.5,1.6,6v10.2H447.4z"/>
		<path id="XMLID_62_" class="st0" d="M465.9,25.1V24c-0.5,0.4-1,0.7-1.6,1.1c-0.6,0.3-1.3,0.5-2.2,0.5c-1,0-1.9-0.2-2.7-0.6
			c-0.8-0.4-1.6-0.9-2.2-1.7c-0.6-0.8-1.1-1.8-1.5-3c-0.4-1.2-0.6-2.7-0.6-4.4c0-1.4,0.2-2.6,0.5-3.7c0.3-1.1,0.8-2.1,1.4-2.9
			c0.6-0.8,1.3-1.4,2.2-1.9c0.9-0.4,1.9-0.7,3-0.7c0.8,0,1.5,0.1,2.2,0.4s1.2,0.6,1.6,1V2.4l4.8-2.4v25.1H465.9z M465.9,12.7
			c-0.8-1-1.8-1.5-3.2-1.5c-1.9,0-2.8,1.5-2.8,4.6c0,1.9,0.3,3.2,0.8,4c0.6,0.8,1.3,1.2,2.3,1.2c0.7,0,1.3-0.1,1.8-0.4
			c0.4-0.3,0.8-0.6,1.2-1.1V12.7z"/>
		<path id="XMLID_60_" class="st0" d="M496.5,25.1h-4.7L483.2,1h5.3l4.5,13.9c0.1,0.3,0.2,0.7,0.3,1.1c0.1,0.4,0.2,0.7,0.3,1.1
			c0.1,0.4,0.2,0.7,0.3,1c0.1,0.3,0.1,0.6,0.2,0.8c0.1-0.5,0.3-1.1,0.5-1.8c0.2-0.7,0.4-1.5,0.6-2.2L499.8,1h5.3L496.5,25.1z"/>
		<path id="XMLID_57_" class="st0" d="M522.9,16.1c0,0.3,0,0.6,0,0.9c0,0.2,0,0.5-0.1,0.6H512c0,0.6,0.2,1.1,0.4,1.6
			s0.5,0.8,0.9,1.1c0.3,0.3,0.7,0.5,1.2,0.6c0.4,0.1,0.9,0.2,1.3,0.2c0.7,0,1.3-0.1,1.8-0.3c0.5-0.2,1-0.5,1.3-0.9l3.4,2.8
			c-0.7,0.9-1.7,1.7-2.9,2.2s-2.4,0.8-3.6,0.8c-1.3,0-2.5-0.2-3.5-0.7c-1-0.4-1.9-1.1-2.7-1.9c-0.7-0.8-1.3-1.8-1.7-3
			c-0.4-1.2-0.6-2.5-0.6-3.9c0-1.4,0.2-2.6,0.6-3.8c0.4-1.2,1-2.2,1.7-3c0.7-0.8,1.6-1.5,2.5-1.9c1-0.5,2-0.7,3.2-0.7
			c1.2,0,2.3,0.2,3.2,0.7c1,0.5,1.8,1.2,2.4,2s1.1,1.9,1.5,3C522.7,13.6,522.9,14.8,522.9,16.1z M518.3,14c0-0.4-0.1-0.8-0.3-1.2
			s-0.3-0.7-0.6-1c-0.3-0.3-0.6-0.6-1-0.7c-0.4-0.2-0.9-0.3-1.4-0.3c-0.9,0-1.6,0.3-2.1,0.9c-0.5,0.6-0.8,1.4-0.9,2.3H518.3z"/>
		<path id="XMLID_55_" class="st0" d="M536.7,12.6c-0.4-0.3-0.8-0.6-1.3-0.8s-1-0.3-1.5-0.3c-0.5,0-0.9,0.1-1.3,0.2
			c-0.4,0.1-0.7,0.3-1,0.6c-0.3,0.3-0.5,0.7-0.6,1.2c-0.2,0.5-0.2,1.1-0.2,1.9v9.8h-4.8V7h4.8v1.2c0.4-0.4,0.9-0.8,1.5-1.1
			c0.6-0.3,1.3-0.5,2.2-0.5c0.8,0,1.5,0.1,2,0.4c0.6,0.3,1,0.6,1.3,0.9L536.7,12.6z"/>
		<path id="XMLID_53_" class="st0" d="M548.1,31.5h-4.7l2.4-6.4l-7-18.1h5.2l3,8.7c0.3,0.7,0.5,1.4,0.7,2.2c0.2,0.8,0.4,1.4,0.5,1.8
			c0.1-0.5,0.3-1.1,0.5-1.8c0.2-0.7,0.4-1.5,0.7-2.2l3-8.7h5.1L548.1,31.5z"/>
		<path id="XMLID_51_" class="st0" d="M10.8,66.4V42.3h4.8v19.4h12.1v4.8H10.8z"/>
		<path id="XMLID_48_" class="st0" d="M46.2,57.4c0,1.4-0.2,2.6-0.6,3.8s-1,2.2-1.7,3c-0.7,0.8-1.6,1.5-2.6,1.9
			c-1,0.5-2.1,0.7-3.3,0.7s-2.3-0.2-3.3-0.7s-1.9-1.1-2.6-1.9c-0.7-0.8-1.3-1.8-1.7-3c-0.4-1.2-0.6-2.4-0.6-3.8s0.2-2.6,0.6-3.8
			c0.4-1.2,1-2.2,1.7-3c0.7-0.8,1.6-1.5,2.6-1.9c1-0.5,2.1-0.7,3.3-0.7s2.3,0.2,3.3,0.7c1,0.5,1.9,1.1,2.6,1.9
			c0.7,0.8,1.3,1.8,1.7,3C46,54.8,46.2,56,46.2,57.4z M41.4,57.4c0-1.4-0.3-2.5-0.8-3.5C40,53,39.1,52.5,38,52.5
			c-1.1,0-2,0.5-2.5,1.4c-0.5,0.9-0.8,2.1-0.8,3.5s0.3,2.6,0.8,3.5c0.5,0.9,1.4,1.4,2.5,1.4c0.6,0,1.1-0.1,1.5-0.4
			c0.4-0.3,0.8-0.6,1-1.1c0.3-0.5,0.5-1,0.6-1.6S41.4,58,41.4,57.4z"/>
		<path id="XMLID_46_" class="st0" d="M66.5,66.4h-4l-1.8-7.1c-0.1-0.3-0.2-0.7-0.3-1.1c-0.1-0.4-0.2-0.8-0.3-1.2
			c-0.1-0.4-0.2-0.8-0.3-1.1c-0.1-0.3-0.1-0.6-0.2-0.8c0,0.2-0.1,0.5-0.2,0.8c-0.1,0.3-0.1,0.7-0.2,1.1c-0.1,0.4-0.2,0.8-0.3,1.2
			s-0.2,0.8-0.3,1.1L57,66.4h-4l-5.2-18.1h4.8l1.6,6.7c0.1,0.3,0.1,0.7,0.2,1.1c0.1,0.4,0.2,0.8,0.3,1.2s0.1,0.7,0.2,1.1
			c0.1,0.3,0.1,0.6,0.2,0.8c0.1-0.5,0.2-1.1,0.4-1.9s0.4-1.5,0.6-2.3l1.8-6.7h3.9l1.8,6.7c0.2,0.7,0.4,1.5,0.6,2.3
			c0.2,0.8,0.3,1.4,0.4,1.9c0-0.2,0.1-0.5,0.1-0.8c0.1-0.3,0.1-0.7,0.2-1.1c0.1-0.4,0.2-0.8,0.3-1.2c0.1-0.4,0.2-0.8,0.2-1.1
			l1.6-6.7h4.7L66.5,66.4z"/>
		<path id="XMLID_43_" class="st0" d="M100.5,66.4l-1.9-5.4h-8.8l-1.9,5.4h-5.2L92,42.3h4.7l9.2,24.1H100.5z M95.4,52.1
			c-0.3-0.7-0.5-1.4-0.7-2.1c-0.2-0.7-0.4-1.2-0.5-1.7c-0.1,0.5-0.3,1-0.5,1.7c-0.2,0.7-0.5,1.4-0.7,2.1l-1.5,4.4h5.5L95.4,52.1z"/>
		<path id="XMLID_40_" class="st0" d="M118.8,66.4v-1.1c-0.5,0.4-1,0.7-1.6,1.1c-0.6,0.3-1.3,0.5-2.2,0.5c-1,0-1.9-0.2-2.7-0.6
			c-0.8-0.4-1.6-0.9-2.2-1.7c-0.6-0.8-1.1-1.8-1.5-3c-0.4-1.2-0.6-2.7-0.6-4.4c0-1.4,0.2-2.6,0.5-3.7c0.3-1.1,0.8-2.1,1.4-2.9
			c0.6-0.8,1.3-1.4,2.2-1.9c0.9-0.4,1.9-0.7,3-0.7c0.8,0,1.5,0.1,2.2,0.4s1.2,0.6,1.6,1v-5.7l4.8-2.4v25.1H118.8z M118.8,54
			c-0.8-1-1.8-1.5-3.2-1.5c-1.9,0-2.8,1.5-2.8,4.6c0,1.9,0.3,3.2,0.8,4c0.6,0.8,1.3,1.2,2.3,1.2c0.7,0,1.3-0.1,1.8-0.4
			c0.4-0.3,0.8-0.6,1.2-1.1V54z"/>
		<path id="XMLID_38_" class="st0" d="M137.6,66.4h-4.9l-6.5-18.1h5.2l2.7,8.4c0.2,0.7,0.4,1.4,0.7,2.2c0.2,0.8,0.4,1.4,0.5,1.8
			c0.1-0.5,0.3-1.1,0.5-1.8s0.4-1.5,0.7-2.2l2.7-8.4h5.1L137.6,66.4z"/>
		<path id="XMLID_35_" class="st0" d="M161.4,57.4c0,0.3,0,0.6,0,0.9c0,0.2,0,0.5-0.1,0.6h-10.8c0,0.6,0.2,1.1,0.4,1.6
			s0.5,0.8,0.9,1.1c0.3,0.3,0.7,0.5,1.2,0.6c0.4,0.1,0.9,0.2,1.3,0.2c0.7,0,1.3-0.1,1.8-0.3c0.5-0.2,1-0.5,1.3-0.9l3.4,2.8
			c-0.7,0.9-1.7,1.7-2.9,2.2s-2.4,0.8-3.6,0.8c-1.3,0-2.5-0.2-3.5-0.7c-1-0.4-1.9-1.1-2.7-1.9c-0.7-0.8-1.3-1.8-1.7-3
			c-0.4-1.2-0.6-2.5-0.6-3.9c0-1.4,0.2-2.6,0.6-3.8c0.4-1.2,1-2.2,1.7-3c0.7-0.8,1.6-1.5,2.5-1.9c1-0.5,2-0.7,3.2-0.7
			c1.2,0,2.3,0.2,3.2,0.7c1,0.5,1.8,1.2,2.4,2s1.1,1.9,1.5,3C161.3,54.9,161.4,56.1,161.4,57.4z M156.8,55.3c0-0.4-0.1-0.8-0.3-1.2
			s-0.3-0.7-0.6-1c-0.3-0.3-0.6-0.6-1-0.7c-0.4-0.2-0.9-0.3-1.4-0.3c-0.9,0-1.6,0.3-2.1,0.9c-0.5,0.6-0.8,1.4-0.9,2.3H156.8z"/>
		<path id="XMLID_33_" class="st0" d="M175.2,53.9c-0.4-0.3-0.8-0.6-1.3-0.8s-1-0.3-1.5-0.3c-0.5,0-0.9,0.1-1.3,0.2
			c-0.4,0.1-0.7,0.3-1,0.6c-0.3,0.3-0.5,0.7-0.6,1.2c-0.2,0.5-0.2,1.1-0.2,1.9v9.8h-4.8V48.4h4.8v1.2c0.4-0.4,0.9-0.8,1.5-1.1
			c0.6-0.3,1.3-0.5,2.2-0.5c0.8,0,1.5,0.1,2,0.4c0.6,0.3,1,0.6,1.3,0.9L175.2,53.9z"/>
		<path id="XMLID_31_" class="st0" d="M193.1,61.2c0,1-0.2,1.9-0.6,2.6c-0.4,0.7-0.9,1.3-1.6,1.8c-0.7,0.4-1.4,0.8-2.3,1
			s-1.8,0.3-2.9,0.3c-1.4,0-2.8-0.2-4.1-0.6c-1.3-0.4-2.5-0.9-3.4-1.5l1.6-3.6c1,0.5,2,0.9,3,1.2s2.1,0.4,3.3,0.4
			c0.9,0,1.6-0.1,1.9-0.3c0.3-0.2,0.5-0.6,0.5-1c0-0.4-0.2-0.7-0.6-1c-0.4-0.3-1.1-0.5-2.1-0.8c-1.1-0.3-2.1-0.6-2.9-1
			c-0.9-0.3-1.6-0.7-2.3-1.2c-0.6-0.4-1.1-1-1.4-1.6c-0.3-0.6-0.5-1.4-0.5-2.4c0-0.9,0.2-1.8,0.5-2.4c0.4-0.7,0.9-1.2,1.5-1.7
			c0.6-0.4,1.4-0.8,2.3-1s1.9-0.3,2.9-0.3c1.1,0,2.3,0.2,3.5,0.5c1.2,0.3,2.2,0.7,3.2,1.3l-1.5,3.8c-0.9-0.5-1.8-0.8-2.7-1.1
			c-0.9-0.2-1.8-0.4-2.5-0.4c-1,0-1.6,0.1-1.9,0.3c-0.3,0.2-0.5,0.5-0.5,0.9c0,0.2,0,0.4,0.1,0.5c0.1,0.1,0.3,0.3,0.5,0.4
			s0.6,0.3,1.1,0.5c0.5,0.2,1.1,0.4,1.9,0.7c0.8,0.3,1.6,0.6,2.3,0.9s1.4,0.7,1.9,1.1c0.6,0.4,1,1,1.3,1.6
			C192.9,59.5,193.1,60.3,193.1,61.2z"/>
		<path id="XMLID_28_" class="st0" d="M211.5,57.4c0,0.3,0,0.6,0,0.9c0,0.2,0,0.5-0.1,0.6h-10.8c0,0.6,0.2,1.1,0.4,1.6
			s0.5,0.8,0.9,1.1c0.3,0.3,0.7,0.5,1.2,0.6c0.4,0.1,0.9,0.2,1.3,0.2c0.7,0,1.3-0.1,1.8-0.3c0.5-0.2,1-0.5,1.3-0.9l3.4,2.8
			c-0.7,0.9-1.7,1.7-2.9,2.2s-2.4,0.8-3.6,0.8c-1.3,0-2.5-0.2-3.5-0.7c-1-0.4-1.9-1.1-2.7-1.9c-0.7-0.8-1.3-1.8-1.7-3
			c-0.4-1.2-0.6-2.5-0.6-3.9c0-1.4,0.2-2.6,0.6-3.8c0.4-1.2,1-2.2,1.7-3c0.7-0.8,1.6-1.5,2.5-1.9c1-0.5,2-0.7,3.2-0.7
			c1.2,0,2.3,0.2,3.2,0.7c1,0.5,1.8,1.2,2.4,2s1.1,1.9,1.5,3C211.3,54.9,211.5,56.1,211.5,57.4z M206.8,55.3c0-0.4-0.1-0.8-0.3-1.2
			s-0.3-0.7-0.6-1c-0.3-0.3-0.6-0.6-1-0.7c-0.4-0.2-0.9-0.3-1.4-0.3c-0.9,0-1.6,0.3-2.1,0.9c-0.5,0.6-0.8,1.4-0.9,2.3H206.8z"/>
		<path id="XMLID_26_" class="st0" d="M224.8,66.4V42.3h16.7V47h-11.9v4.2h6.9v4.7h-6.9v5.8h12.4v4.7H224.8z"/>
		<path id="XMLID_24_" class="st0" d="M254.4,45.5c-0.3-0.1-0.6-0.1-0.9-0.1c-0.7,0-1.2,0.1-1.4,0.3s-0.3,0.6-0.3,1.1v1.5h3.1v4.5
			h-3.1v13.6H247V52.8h-2.2v-4.5h2.2v-2.2c0-1.7,0.4-2.9,1.3-3.7c0.9-0.7,2.2-1.1,3.8-1.1c1.2,0,2.2,0.2,3,0.5v3.8
			C254.9,45.7,254.7,45.6,254.4,45.5z"/>
		<path id="XMLID_22_" class="st0" d="M266.6,45.5c-0.3-0.1-0.6-0.1-0.9-0.1c-0.7,0-1.2,0.1-1.4,0.3s-0.3,0.6-0.3,1.1v1.5h3.1v4.5
			h-3.1v13.6h-4.8V52.8H257v-4.5h2.2v-2.2c0-1.7,0.4-2.9,1.3-3.7c0.9-0.7,2.2-1.1,3.8-1.1c1.2,0,2.2,0.2,3,0.5v3.8
			C267.1,45.7,266.8,45.6,266.6,45.5z"/>
		<path id="XMLID_19_" class="st0" d="M284.9,57.4c0,0.3,0,0.6,0,0.9c0,0.2,0,0.5-0.1,0.6H274c0,0.6,0.2,1.1,0.4,1.6
			s0.5,0.8,0.9,1.1c0.3,0.3,0.7,0.5,1.2,0.6c0.4,0.1,0.9,0.2,1.3,0.2c0.7,0,1.3-0.1,1.8-0.3c0.5-0.2,1-0.5,1.3-0.9l3.4,2.8
			c-0.7,0.9-1.7,1.7-2.9,2.2s-2.4,0.8-3.6,0.8c-1.3,0-2.5-0.2-3.5-0.7c-1-0.4-1.9-1.1-2.7-1.9c-0.7-0.8-1.3-1.8-1.7-3
			c-0.4-1.2-0.6-2.5-0.6-3.9c0-1.4,0.2-2.6,0.6-3.8c0.4-1.2,1-2.2,1.7-3c0.7-0.8,1.6-1.5,2.5-1.9c1-0.5,2-0.7,3.2-0.7
			c1.2,0,2.3,0.2,3.2,0.7c1,0.5,1.8,1.2,2.4,2s1.1,1.9,1.5,3C284.7,54.9,284.9,56.1,284.9,57.4z M280.3,55.3c0-0.4-0.1-0.8-0.3-1.2
			s-0.3-0.7-0.6-1c-0.3-0.3-0.6-0.6-1-0.7c-0.4-0.2-0.9-0.3-1.4-0.3c-0.9,0-1.6,0.3-2.1,0.9c-0.5,0.6-0.8,1.4-0.9,2.3H280.3z"/>
		<path id="XMLID_17_" class="st0" d="M301.7,64.4c-0.5,0.5-1,0.9-1.6,1.3c-0.6,0.4-1.2,0.6-2,0.8c-0.7,0.2-1.5,0.3-2.4,0.3
			c-1.2,0-2.3-0.2-3.3-0.7s-1.9-1.1-2.7-1.9c-0.8-0.8-1.4-1.8-1.8-3c-0.4-1.2-0.7-2.4-0.7-3.8s0.2-2.6,0.7-3.8c0.4-1.2,1-2.2,1.8-3
			c0.8-0.8,1.7-1.5,2.7-1.9c1.1-0.5,2.2-0.7,3.5-0.7c1.7,0,3.2,0.4,4.3,1.1c1.1,0.7,2.1,1.7,2.9,2.9l-3.1,3.2
			c-0.5-0.8-1.1-1.4-1.7-1.9c-0.6-0.5-1.4-0.7-2.4-0.7c-1.1,0-2.1,0.4-2.7,1.3c-0.7,0.9-1,2.1-1,3.6c0,1.5,0.3,2.6,1,3.5
			c0.7,0.9,1.6,1.3,2.7,1.3c0.9,0,1.7-0.2,2.4-0.6c0.6-0.4,1.3-1,1.9-1.7l3,2.9C302.6,63.4,302.2,63.9,301.7,64.4z"/>
		<path id="XMLID_15_" class="st0" d="M316.1,65.7c-0.4,0.3-0.9,0.6-1.6,0.8s-1.4,0.3-2.1,0.3c-0.7,0-1.4-0.1-2-0.4
			c-0.6-0.3-1.1-0.6-1.5-1.1c-0.4-0.5-0.7-1.1-1-1.7c-0.2-0.7-0.3-1.4-0.3-2.2v-8.5h-3v-4.5h3v-4.6l4.8-2.4v7h4.3v4.5h-4.3v7.3
			c0,0.9,0.1,1.5,0.4,1.7c0.3,0.3,0.7,0.4,1.3,0.4c0.4,0,0.8-0.1,1.2-0.3s0.9-0.6,1.5-1.1L316.1,65.7z"/>
		<path id="XMLID_12_" class="st0" d="M344.8,66.4l-4.3-8.7h-4.9v8.7h-4.8V42.3h11.2c1.1,0,2.2,0.2,3.2,0.5c1,0.3,1.9,0.8,2.7,1.4
			c0.8,0.6,1.4,1.4,1.8,2.4c0.4,1,0.7,2.1,0.7,3.4c0,1.8-0.4,3.3-1.2,4.5c-0.8,1.2-1.9,2-3.5,2.6l4.6,9.4H344.8z M345.4,50.1
			c0-1.1-0.3-1.9-0.9-2.4c-0.6-0.5-1.5-0.7-2.5-0.7h-6.3v6.2h6.3C344.3,53.2,345.4,52.2,345.4,50.1z"/>
		<path id="XMLID_9_" class="st0" d="M364,66.4v-1.2c-0.4,0.5-1,0.8-1.7,1.1c-0.7,0.3-1.5,0.4-2.3,0.4s-1.7-0.1-2.5-0.4
			s-1.5-0.7-2.2-1.2c-0.6-0.5-1.1-1.2-1.5-2c-0.4-0.8-0.6-1.8-0.6-2.9c0-1,0.2-1.9,0.6-2.6c0.4-0.8,0.9-1.4,1.6-1.9
			c0.7-0.5,1.4-0.9,2.3-1.1c0.9-0.3,1.8-0.4,2.9-0.4c0.8,0,1.5,0.1,2.1,0.2c0.6,0.1,1,0.3,1.4,0.5v-0.9c0-0.6-0.2-1.2-0.6-1.6
			s-1.1-0.7-1.9-0.7c-0.6,0-1,0-1.5,0.1c-0.4,0-0.8,0.1-1.2,0.2c-0.4,0.1-0.8,0.2-1.1,0.4s-0.8,0.3-1.2,0.6l-1.8-3.3
			c0.5-0.3,1-0.6,1.5-0.8c0.5-0.2,1-0.4,1.5-0.6c0.5-0.1,1.1-0.3,1.7-0.3c0.6-0.1,1.3-0.1,2-0.1c1.1,0,2.1,0.1,3,0.4
			s1.7,0.7,2.3,1.2s1.1,1.2,1.5,2c0.4,0.8,0.5,1.7,0.5,2.7v12.1H364z M364,58.9c-0.4-0.3-0.9-0.4-1.3-0.6c-0.5-0.1-1.1-0.2-2-0.2
			c-0.9,0-1.6,0.2-2,0.6c-0.5,0.4-0.7,1-0.7,1.7c0,0.6,0.2,1.2,0.6,1.7c0.4,0.5,1.1,0.7,2.1,0.7c0.8,0,1.5-0.2,2-0.5
			c0.6-0.3,1-0.7,1.3-1.2V58.9z"/>
		<path id="XMLID_7_" class="st0" d="M382.7,65.7c-0.4,0.3-0.9,0.6-1.6,0.8s-1.4,0.3-2.1,0.3c-0.7,0-1.4-0.1-2-0.4
			c-0.6-0.3-1.1-0.6-1.5-1.1c-0.4-0.5-0.7-1.1-1-1.7c-0.2-0.7-0.3-1.4-0.3-2.2v-8.5h-3v-4.5h3v-4.6l4.8-2.4v7h4.3v4.5H379v7.3
			c0,0.9,0.1,1.5,0.4,1.7c0.3,0.3,0.7,0.4,1.3,0.4c0.4,0,0.8-0.1,1.2-0.3s0.9-0.6,1.5-1.1L382.7,65.7z"/>
		<path id="XMLID_4_" class="st0" d="M402,57.4c0,0.3,0,0.6,0,0.9c0,0.2,0,0.5-0.1,0.6h-10.8c0,0.6,0.2,1.1,0.4,1.6s0.5,0.8,0.9,1.1
			c0.3,0.3,0.7,0.5,1.2,0.6c0.4,0.1,0.9,0.2,1.3,0.2c0.7,0,1.3-0.1,1.8-0.3c0.5-0.2,1-0.5,1.3-0.9l3.4,2.8c-0.7,0.9-1.7,1.7-2.9,2.2
			s-2.4,0.8-3.6,0.8c-1.3,0-2.5-0.2-3.5-0.7c-1-0.4-1.9-1.1-2.7-1.9c-0.7-0.8-1.3-1.8-1.7-3c-0.4-1.2-0.6-2.5-0.6-3.9
			c0-1.4,0.2-2.6,0.6-3.8c0.4-1.2,1-2.2,1.7-3c0.7-0.8,1.6-1.5,2.5-1.9c1-0.5,2-0.7,3.2-0.7c1.2,0,2.3,0.2,3.2,0.7
			c1,0.5,1.8,1.2,2.4,2s1.1,1.9,1.5,3C401.8,54.9,402,56.1,402,57.4z M397.4,55.3c0-0.4-0.1-0.8-0.3-1.2s-0.3-0.7-0.6-1
			c-0.3-0.3-0.6-0.6-1-0.7c-0.4-0.2-0.9-0.3-1.4-0.3c-0.9,0-1.6,0.3-2.1,0.9c-0.5,0.6-0.8,1.4-0.9,2.3H397.4z"/>
	</g>
</g>
</svg>
