<!-- Generator: Adobe Illustrator 22.1.0, SVG Export Plug-In  -->
<svg version="1.1"
	 xmlns="http://www.w3.org/2000/svg" xmlns:xlink="http://www.w3.org/1999/xlink" xmlns:a="http://ns.adobe.com/AdobeSVGViewerExtensions/3.0/"
	 x="0px" y="0px" width="511.2px" height="73px" viewBox="0 0 511.2 73" style="enable-background:new 0 0 511.2 73;"
	 xml:space="preserve">
<style type="text/css">
	.st0{fill:#236092;}
</style>
<defs>
</defs>
<g id="XMLID_1_">
	<g id="XMLID_3_">
		<path id="XMLID_135_" class="st0" d="M21.1,13c0,2.1-0.3,3.9-1,5.4c-0.7,1.5-1.6,2.8-2.8,3.7c-1.2,1-2.5,1.7-4,2.1s-3,0.7-4.5,0.7
			H1.7V1h7.5c1.7,0,3.3,0.2,4.8,0.6c1.5,0.4,2.7,1.1,3.8,2.1s1.9,2.2,2.5,3.7C20.8,9,21.1,10.8,21.1,13z M16.2,13
			c0-2.5-0.6-4.3-1.7-5.5c-1.1-1.2-3-1.8-5.5-1.8H6.5v14.7h2.4c1.3,0,2.4-0.2,3.3-0.5s1.7-0.9,2.3-1.5c0.6-0.6,1-1.4,1.3-2.3
			C16,15.1,16.2,14.1,16.2,13z"/>
		<path id="XMLID_132_" class="st0" d="M29.8,2.8c0,0.7-0.3,1.4-0.8,1.9s-1.2,0.8-1.9,0.8c-0.7,0-1.4-0.3-1.9-0.8
			c-0.5-0.5-0.8-1.2-0.8-1.9c0-0.7,0.3-1.4,0.8-1.9c0.5-0.5,1.2-0.8,1.9-0.8c0.7,0,1.4,0.3,1.9,0.8C29.6,1.5,29.8,2.1,29.8,2.8z
			 M24.8,25.1V7h4.7v18.1H24.8z"/>
		<path id="XMLID_130_" class="st0" d="M48,19.8c0,1-0.2,1.9-0.6,2.6c-0.4,0.7-0.9,1.3-1.6,1.8c-0.7,0.4-1.4,0.8-2.3,1
			s-1.8,0.3-2.9,0.3c-1.4,0-2.8-0.2-4.1-0.6C35.1,24.5,34,24,33,23.3l1.6-3.6c1,0.5,2,0.9,3,1.2c1,0.3,2.1,0.4,3.3,0.4
			c0.9,0,1.6-0.1,1.9-0.3c0.3-0.2,0.5-0.6,0.5-1c0-0.4-0.2-0.7-0.6-1c-0.4-0.3-1.1-0.5-2.1-0.8c-1.1-0.3-2.1-0.6-2.9-1
			c-0.9-0.3-1.6-0.7-2.3-1.2c-0.6-0.4-1.1-1-1.4-1.6c-0.3-0.6-0.5-1.4-0.5-2.4c0-0.9,0.2-1.7,0.5-2.4s0.9-1.2,1.5-1.7
			c0.6-0.4,1.4-0.8,2.3-1c0.9-0.2,1.9-0.3,2.9-0.3c1.1,0,2.3,0.2,3.5,0.5c1.2,0.3,2.2,0.7,3.2,1.3l-1.5,3.7
			c-0.9-0.5-1.8-0.8-2.7-1.1c-0.9-0.2-1.8-0.4-2.5-0.4c-1,0-1.6,0.1-1.9,0.3c-0.3,0.2-0.5,0.5-0.5,0.9c0,0.2,0,0.4,0.1,0.5
			c0.1,0.1,0.3,0.3,0.5,0.4c0.3,0.1,0.6,0.3,1.1,0.5c0.5,0.2,1.1,0.4,1.9,0.7c0.8,0.3,1.6,0.6,2.3,0.9c0.7,0.3,1.4,0.7,1.9,1.1
			s1,1,1.3,1.6C47.8,18.1,48,18.9,48,19.8z"/>
		<path id="XMLID_128_" class="st0" d="M61.6,24.3c-0.4,0.3-0.9,0.6-1.6,0.8c-0.7,0.2-1.4,0.3-2.1,0.3c-0.7,0-1.4-0.1-2-0.4
			c-0.6-0.3-1.1-0.6-1.5-1.1s-0.7-1.1-1-1.7c-0.2-0.7-0.3-1.4-0.3-2.2v-8.5h-3V7h3V2.4L57.9,0v7h4.3v4.5h-4.3v7.3
			c0,0.9,0.1,1.5,0.4,1.7c0.3,0.3,0.7,0.4,1.3,0.4c0.4,0,0.8-0.1,1.2-0.3c0.4-0.2,0.9-0.6,1.5-1.1L61.6,24.3z"/>
		<path id="XMLID_125_" class="st0" d="M71.4,2.8c0,0.7-0.3,1.4-0.8,1.9s-1.2,0.8-1.9,0.8c-0.7,0-1.4-0.3-1.9-0.8
			C66.3,4.2,66,3.6,66,2.8c0-0.7,0.3-1.4,0.8-1.9c0.5-0.5,1.2-0.8,1.9-0.8c0.7,0,1.4,0.3,1.9,0.8C71.2,1.5,71.4,2.1,71.4,2.8z
			 M66.4,25.1V7h4.7v18.1H66.4z"/>
		<path id="XMLID_123_" class="st0" d="M86.2,25.1v-9.8c0-1.6-0.3-2.7-0.8-3.3c-0.5-0.6-1.3-0.9-2.3-0.9c-1,0-1.7,0.3-2.3,0.9
			c-0.5,0.6-0.8,1.7-0.8,3.2v9.9h-4.7V7H80v1.2c0.4-0.4,1-0.8,1.7-1.1c0.7-0.3,1.6-0.5,2.5-0.5c2.3,0,4,0.7,5.1,2.2
			c1.1,1.5,1.6,3.5,1.6,6v10.2H86.2z"/>
		<path id="XMLID_121_" class="st0" d="M108.3,23.1c-0.5,0.5-1,0.9-1.6,1.3c-0.6,0.4-1.2,0.6-2,0.8c-0.7,0.2-1.5,0.3-2.4,0.3
			c-1.2,0-2.3-0.2-3.3-0.7c-1-0.5-1.9-1.1-2.7-1.9c-0.8-0.8-1.4-1.8-1.8-3c-0.4-1.2-0.7-2.4-0.7-3.8c0-1.4,0.2-2.6,0.7-3.8
			c0.4-1.2,1-2.2,1.8-3c0.8-0.8,1.7-1.5,2.7-1.9c1.1-0.5,2.2-0.7,3.5-0.7c1.7,0,3.2,0.4,4.3,1.1c1.1,0.7,2.1,1.7,2.9,2.8l-3.1,3.2
			c-0.5-0.8-1.1-1.4-1.7-1.9c-0.6-0.5-1.4-0.7-2.4-0.7c-1.1,0-2.1,0.4-2.7,1.3c-0.7,0.9-1,2.1-1,3.6c0,1.5,0.3,2.6,1,3.5
			c0.7,0.9,1.6,1.3,2.7,1.3c0.9,0,1.7-0.2,2.4-0.6c0.6-0.4,1.3-1,1.9-1.7l3,2.8C109.3,22,108.8,22.6,108.3,23.1z"/>
		<path id="XMLID_119_" class="st0" d="M122.7,24.3c-0.4,0.3-0.9,0.6-1.6,0.8c-0.7,0.2-1.4,0.3-2.1,0.3c-0.7,0-1.4-0.1-2-0.4
			c-0.6-0.3-1.1-0.6-1.5-1.1s-0.7-1.1-1-1.7c-0.2-0.7-0.3-1.4-0.3-2.2v-8.5h-3V7h3V2.4L119,0v7h4.3v4.5H119v7.3
			c0,0.9,0.1,1.5,0.4,1.7c0.3,0.3,0.7,0.4,1.3,0.4c0.4,0,0.8-0.1,1.2-0.3c0.4-0.2,0.9-0.6,1.5-1.1L122.7,24.3z"/>
		<path id="XMLID_116_" class="st0" d="M132.5,2.8c0,0.7-0.3,1.4-0.8,1.9s-1.2,0.8-1.9,0.8c-0.7,0-1.4-0.3-1.9-0.8
			c-0.5-0.5-0.8-1.2-0.8-1.9c0-0.7,0.3-1.4,0.8-1.9c0.5-0.5,1.2-0.8,1.9-0.8c0.7,0,1.4,0.3,1.9,0.8C132.3,1.5,132.5,2.1,132.5,2.8z
			 M127.5,25.1V7h4.7v18.1H127.5z"/>
		<path id="XMLID_114_" class="st0" d="M146.3,25.1h-4.9L135,7h5.2l2.6,8.4c0.2,0.7,0.4,1.4,0.7,2.2c0.2,0.8,0.4,1.4,0.5,1.8
			c0.1-0.5,0.3-1.1,0.5-1.8c0.2-0.7,0.4-1.5,0.7-2.2l2.6-8.4h5.1L146.3,25.1z"/>
		<path id="XMLID_111_" class="st0" d="M170.1,16.1c0,0.3,0,0.6,0,0.9c0,0.2,0,0.5-0.1,0.6h-10.8c0,0.6,0.2,1.1,0.4,1.6
			c0.2,0.4,0.5,0.8,0.9,1c0.3,0.3,0.7,0.5,1.2,0.6c0.4,0.1,0.9,0.2,1.3,0.2c0.7,0,1.3-0.1,1.8-0.3c0.5-0.2,1-0.5,1.3-0.9l3.4,2.8
			c-0.7,0.9-1.7,1.7-2.9,2.2s-2.4,0.8-3.6,0.8c-1.3,0-2.5-0.2-3.5-0.7c-1-0.4-1.9-1.1-2.7-1.9c-0.7-0.8-1.3-1.8-1.7-3
			c-0.4-1.2-0.6-2.4-0.6-3.9c0-1.4,0.2-2.6,0.6-3.8c0.4-1.2,1-2.2,1.7-3c0.7-0.8,1.6-1.5,2.5-1.9c1-0.5,2-0.7,3.2-0.7
			c1.2,0,2.3,0.2,3.2,0.7c1,0.5,1.7,1.2,2.4,2c0.6,0.9,1.1,1.9,1.5,3C170,13.6,170.1,14.8,170.1,16.1z M165.5,14
			c0-0.4-0.1-0.8-0.3-1.2c-0.1-0.4-0.3-0.7-0.6-1c-0.3-0.3-0.6-0.6-1-0.7c-0.4-0.2-0.9-0.3-1.4-0.3c-0.9,0-1.6,0.3-2.1,0.9
			c-0.5,0.6-0.8,1.4-0.9,2.3H165.5z"/>
		<path id="XMLID_109_" class="st0" d="M201.2,25.1v-8.8c0-0.3,0-0.7,0-1.2c0-0.5,0-1,0-1.5s0-1,0-1.5c0-0.5,0-0.8,0-1
			c-0.2,0.5-0.4,1.1-0.7,1.8s-0.6,1.5-0.9,2.2l-4.9,10.7l-4.9-10.7c-0.3-0.7-0.6-1.4-0.9-2.2c-0.3-0.8-0.6-1.4-0.7-1.8
			c0,0.2,0,0.6,0,1c0,0.5,0,1,0,1.5s0,1,0,1.5c0,0.5,0,0.9,0,1.2v8.8h-4.7V1h4.7l5,10.9c0.2,0.3,0.3,0.7,0.5,1.1s0.3,0.8,0.5,1.1
			c0.1,0.4,0.3,0.7,0.4,1c0.1,0.3,0.2,0.6,0.3,0.8c0.2-0.5,0.4-1.1,0.7-1.8c0.3-0.8,0.6-1.5,0.9-2.2L201.3,1h4.7v24.1H201.2z"/>
		<path id="XMLID_106_" class="st0" d="M225.6,16.1c0,0.3,0,0.6,0,0.9c0,0.2,0,0.5-0.1,0.6h-10.8c0,0.6,0.2,1.1,0.4,1.6
			c0.2,0.4,0.5,0.8,0.9,1c0.3,0.3,0.7,0.5,1.2,0.6c0.4,0.1,0.9,0.2,1.3,0.2c0.7,0,1.3-0.1,1.8-0.3c0.5-0.2,1-0.5,1.3-0.9l3.4,2.8
			c-0.7,0.9-1.7,1.7-2.9,2.2s-2.4,0.8-3.6,0.8c-1.3,0-2.5-0.2-3.5-0.7c-1-0.4-1.9-1.1-2.7-1.9c-0.7-0.8-1.3-1.8-1.7-3
			c-0.4-1.2-0.6-2.4-0.6-3.9c0-1.4,0.2-2.6,0.6-3.8c0.4-1.2,1-2.2,1.7-3c0.7-0.8,1.6-1.5,2.5-1.9c1-0.5,2-0.7,3.2-0.7
			c1.2,0,2.3,0.2,3.2,0.7c1,0.5,1.7,1.2,2.4,2c0.6,0.9,1.1,1.9,1.5,3C225.4,13.6,225.6,14.8,225.6,16.1z M220.9,14
			c0-0.4-0.1-0.8-0.3-1.2c-0.1-0.4-0.3-0.7-0.6-1c-0.3-0.3-0.6-0.6-1-0.7c-0.4-0.2-0.9-0.3-1.4-0.3c-0.9,0-1.6,0.3-2.1,0.9
			c-0.5,0.6-0.8,1.4-0.9,2.3H220.9z"/>
		<path id="XMLID_104_" class="st0" d="M242.3,23.1c-0.5,0.5-1,0.9-1.6,1.3c-0.6,0.4-1.2,0.6-2,0.8c-0.7,0.2-1.5,0.3-2.4,0.3
			c-1.2,0-2.3-0.2-3.3-0.7c-1-0.5-1.9-1.1-2.7-1.9c-0.8-0.8-1.4-1.8-1.8-3c-0.4-1.2-0.7-2.4-0.7-3.8c0-1.4,0.2-2.6,0.7-3.8
			c0.4-1.2,1-2.2,1.8-3c0.8-0.8,1.7-1.5,2.7-1.9c1.1-0.5,2.2-0.7,3.5-0.7c1.7,0,3.2,0.4,4.3,1.1c1.1,0.7,2.1,1.7,2.9,2.8l-3.1,3.2
			c-0.5-0.8-1.1-1.4-1.7-1.9c-0.6-0.5-1.4-0.7-2.4-0.7c-1.1,0-2.1,0.4-2.7,1.3c-0.7,0.9-1,2.1-1,3.6c0,1.5,0.3,2.6,1,3.5
			c0.7,0.9,1.6,1.3,2.7,1.3c0.9,0,1.7-0.2,2.4-0.6c0.6-0.4,1.3-1,1.9-1.7l3,2.8C243.2,22,242.8,22.6,242.3,23.1z"/>
		<path id="XMLID_102_" class="st0" d="M257.5,25.1v-9.8c0-1.6-0.3-2.7-0.8-3.3c-0.5-0.6-1.3-0.9-2.3-0.9c-1,0-1.7,0.3-2.3,0.9
			c-0.5,0.6-0.8,1.7-0.8,3.2v9.9h-4.7V2.4l4.7-2.4v8.2c0.4-0.4,1-0.8,1.7-1.1c0.7-0.3,1.6-0.5,2.5-0.5c2.3,0,4,0.7,5.1,2.2
			c1.1,1.5,1.6,3.5,1.6,6v10.2H257.5z"/>
		<path id="XMLID_99_" class="st0" d="M276.1,25.1v-1.2c-0.4,0.5-1,0.8-1.7,1.1c-0.7,0.3-1.5,0.4-2.3,0.4c-0.8,0-1.7-0.1-2.5-0.4
			s-1.5-0.7-2.1-1.2c-0.6-0.5-1.1-1.2-1.5-2c-0.4-0.8-0.6-1.8-0.6-2.9c0-1,0.2-1.9,0.6-2.6c0.4-0.8,0.9-1.4,1.6-1.9
			c0.7-0.5,1.4-0.9,2.3-1.1c0.9-0.3,1.8-0.4,2.9-0.4c0.8,0,1.5,0.1,2.1,0.2c0.5,0.1,1,0.3,1.4,0.5v-0.9c0-0.6-0.2-1.2-0.6-1.6
			c-0.4-0.4-1.1-0.7-1.9-0.7c-0.6,0-1,0-1.5,0.1c-0.4,0-0.8,0.1-1.2,0.2c-0.4,0.1-0.8,0.2-1.1,0.4c-0.4,0.1-0.8,0.3-1.2,0.6
			l-1.8-3.3c0.5-0.3,1-0.6,1.5-0.8c0.5-0.2,1-0.4,1.5-0.6c0.5-0.1,1.1-0.3,1.7-0.3c0.6-0.1,1.3-0.1,2-0.1c1.1,0,2.1,0.1,3,0.4
			c0.9,0.3,1.7,0.7,2.3,1.2c0.6,0.5,1.1,1.2,1.5,2c0.4,0.8,0.5,1.7,0.5,2.7v12.1H276.1z M276.1,17.5c-0.4-0.3-0.9-0.4-1.3-0.6
			c-0.5-0.1-1.1-0.2-2-0.2c-0.9,0-1.6,0.2-2,0.6c-0.5,0.4-0.7,1-0.7,1.7c0,0.6,0.2,1.2,0.6,1.7s1.1,0.7,2.1,0.7c0.8,0,1.5-0.2,2-0.5
			c0.6-0.3,1-0.7,1.3-1.2V17.5z"/>
		<path id="XMLID_97_" class="st0" d="M295.6,25.1v-9.8c0-1.6-0.3-2.7-0.8-3.3c-0.5-0.6-1.3-0.9-2.3-0.9c-1,0-1.7,0.3-2.3,0.9
			c-0.5,0.6-0.8,1.7-0.8,3.2v9.9h-4.7V7h4.7v1.2c0.4-0.4,1-0.8,1.7-1.1c0.7-0.3,1.6-0.5,2.5-0.5c2.3,0,4,0.7,5.1,2.2
			c1.1,1.5,1.6,3.5,1.6,6v10.2H295.6z"/>
		<path id="XMLID_94_" class="st0" d="M309.4,2.8c0,0.7-0.3,1.4-0.8,1.9s-1.2,0.8-1.9,0.8c-0.7,0-1.4-0.3-1.9-0.8
			c-0.5-0.5-0.8-1.2-0.8-1.9c0-0.7,0.3-1.4,0.8-1.9c0.5-0.5,1.2-0.8,1.9-0.8c0.7,0,1.4,0.3,1.9,0.8C309.1,1.5,309.4,2.1,309.4,2.8z
			 M304.3,25.1V7h4.7v18.1H304.3z"/>
		<path id="XMLID_92_" class="st0" d="M327.5,19.8c0,1-0.2,1.9-0.6,2.6c-0.4,0.7-0.9,1.3-1.6,1.8c-0.7,0.4-1.4,0.8-2.3,1
			s-1.8,0.3-2.9,0.3c-1.4,0-2.8-0.2-4.1-0.6c-1.3-0.4-2.5-0.9-3.4-1.5l1.6-3.6c1,0.5,2,0.9,3,1.2c1,0.3,2.1,0.4,3.3,0.4
			c0.9,0,1.6-0.1,1.9-0.3c0.3-0.2,0.5-0.6,0.5-1c0-0.4-0.2-0.7-0.6-1c-0.4-0.3-1.1-0.5-2.1-0.8c-1.1-0.3-2.1-0.6-2.9-1
			c-0.9-0.3-1.6-0.7-2.3-1.2c-0.6-0.4-1.1-1-1.4-1.6c-0.3-0.6-0.5-1.4-0.5-2.4c0-0.9,0.2-1.7,0.5-2.4s0.9-1.2,1.5-1.7
			c0.6-0.4,1.4-0.8,2.3-1c0.9-0.2,1.9-0.3,2.9-0.3c1.1,0,2.3,0.2,3.5,0.5c1.2,0.3,2.2,0.7,3.2,1.3l-1.5,3.7
			c-0.9-0.5-1.8-0.8-2.7-1.1c-0.9-0.2-1.8-0.4-2.5-0.4c-1,0-1.6,0.1-1.9,0.3c-0.3,0.2-0.5,0.5-0.5,0.9c0,0.2,0,0.4,0.1,0.5
			c0.1,0.1,0.3,0.3,0.5,0.4c0.3,0.1,0.6,0.3,1.1,0.5c0.5,0.2,1.1,0.4,1.9,0.7c0.8,0.3,1.6,0.6,2.3,0.9c0.7,0.3,1.4,0.7,1.9,1.1
			s1,1,1.3,1.6C327.4,18.1,327.5,18.9,327.5,19.8z"/>
		<path id="XMLID_90_" class="st0" d="M352.3,25.1v-9.8c0-1.6-0.2-2.7-0.7-3.3c-0.5-0.6-1.2-0.9-2.2-0.9c-1,0-1.7,0.3-2.2,0.9
			s-0.7,1.7-0.7,3.2v9.9h-4.7v-9.8c0-1.6-0.2-2.7-0.7-3.3c-0.5-0.6-1.2-0.9-2.2-0.9c-1,0-1.7,0.3-2.2,0.9c-0.5,0.6-0.7,1.7-0.7,3.2
			v9.9h-4.7V7h4.7v1.2c0.4-0.4,0.9-0.8,1.6-1.1c0.6-0.3,1.4-0.5,2.4-0.5c1.1,0,2.1,0.2,2.9,0.5c0.8,0.4,1.5,0.9,2.1,1.8
			c0.6-0.6,1.4-1.2,2.2-1.6c0.9-0.4,2-0.7,3.5-0.7c1.1,0,2.1,0.2,2.9,0.6c0.8,0.4,1.5,0.9,2,1.7c0.5,0.7,0.9,1.6,1.1,2.6
			s0.4,2.2,0.4,3.4v10.2H352.3z"/>
		<path id="XMLID_87_" class="st0" d="M385.6,16.1c0,1.4-0.2,2.6-0.6,3.8c-0.4,1.2-1,2.1-1.7,3s-1.6,1.5-2.6,1.9
			c-1,0.5-2.1,0.7-3.3,0.7s-2.3-0.2-3.2-0.7c-1-0.5-1.9-1.1-2.6-1.9s-1.3-1.8-1.7-3c-0.4-1.2-0.6-2.4-0.6-3.8c0-1.4,0.2-2.6,0.6-3.8
			c0.4-1.2,1-2.2,1.7-3c0.7-0.8,1.6-1.5,2.6-1.9c1-0.5,2.1-0.7,3.2-0.7s2.3,0.2,3.3,0.7c1,0.5,1.9,1.1,2.6,1.9
			c0.7,0.8,1.3,1.8,1.7,3C385.4,13.4,385.6,14.7,385.6,16.1z M380.8,16.1c0-1.4-0.3-2.5-0.8-3.5c-0.6-0.9-1.4-1.4-2.5-1.4
			c-1.1,0-2,0.5-2.5,1.4s-0.8,2.1-0.8,3.5c0,1.4,0.3,2.6,0.8,3.5c0.5,0.9,1.4,1.4,2.5,1.4c0.6,0,1.1-0.1,1.5-0.4
			c0.4-0.3,0.8-0.6,1-1.1c0.3-0.5,0.5-1,0.6-1.6C380.8,17.3,380.8,16.7,380.8,16.1z"/>
		<path id="XMLID_85_" class="st0" d="M397.3,4.2c-0.3-0.1-0.5-0.1-0.9-0.1c-0.7,0-1.2,0.1-1.4,0.3c-0.2,0.2-0.3,0.6-0.3,1.1V7h3.1
			v4.5h-3.1v13.6h-4.7V11.5h-2.2V7h2.2V4.8c0-1.7,0.4-2.9,1.3-3.6c0.9-0.7,2.2-1.1,3.8-1.1c1.2,0,2.2,0.2,3,0.5v3.8
			C397.8,4.3,397.6,4.2,397.3,4.2z"/>
		<path id="XMLID_82_" class="st0" d="M427.1,25.1l-1.9-5.4h-8.8l-1.9,5.4h-5.2L418.5,1h4.7l9.1,24.1H427.1z M422,10.8
			c-0.3-0.7-0.5-1.4-0.7-2.1c-0.2-0.7-0.4-1.2-0.5-1.7c-0.1,0.5-0.3,1-0.5,1.7c-0.2,0.7-0.5,1.4-0.7,2.1l-1.5,4.4h5.5L422,10.8z"/>
		<path id="XMLID_80_" class="st0" d="M449,23.1c-0.5,0.5-1,0.9-1.6,1.3c-0.6,0.4-1.2,0.6-2,0.8c-0.7,0.2-1.5,0.3-2.4,0.3
			c-1.2,0-2.3-0.2-3.3-0.7c-1-0.5-1.9-1.1-2.7-1.9c-0.8-0.8-1.4-1.8-1.8-3c-0.4-1.2-0.7-2.4-0.7-3.8c0-1.4,0.2-2.6,0.7-3.8
			c0.4-1.2,1-2.2,1.8-3c0.8-0.8,1.7-1.5,2.7-1.9c1.1-0.5,2.2-0.7,3.5-0.7c1.7,0,3.2,0.4,4.3,1.1c1.1,0.7,2.1,1.7,2.9,2.8l-3.1,3.2
			c-0.5-0.8-1.1-1.4-1.7-1.9c-0.6-0.5-1.4-0.7-2.4-0.7c-1.1,0-2.1,0.4-2.7,1.3c-0.7,0.9-1,2.1-1,3.6c0,1.5,0.3,2.6,1,3.5
			c0.7,0.9,1.6,1.3,2.7,1.3c0.9,0,1.7-0.2,2.4-0.6c0.6-0.4,1.3-1,1.9-1.7l3,2.8C450,22,449.5,22.6,449,23.1z"/>
		<path id="XMLID_78_" class="st0" d="M463.4,24.3c-0.4,0.3-0.9,0.6-1.6,0.8c-0.7,0.2-1.4,0.3-2.1,0.3c-0.7,0-1.4-0.1-2-0.4
			c-0.6-0.3-1.1-0.6-1.5-1.1s-0.7-1.1-1-1.7c-0.2-0.7-0.3-1.4-0.3-2.2v-8.5h-3V7h3V2.4l4.7-2.4v7h4.3v4.5h-4.3v7.3
			c0,0.9,0.1,1.5,0.4,1.7c0.3,0.3,0.7,0.4,1.3,0.4c0.4,0,0.8-0.1,1.2-0.3c0.4-0.2,0.9-0.6,1.5-1.1L463.4,24.3z"/>
		<path id="XMLID_75_" class="st0" d="M473.2,2.8c0,0.7-0.3,1.4-0.8,1.9s-1.2,0.8-1.9,0.8c-0.7,0-1.4-0.3-1.9-0.8
			c-0.5-0.5-0.8-1.2-0.8-1.9c0-0.7,0.3-1.4,0.8-1.9c0.5-0.5,1.2-0.8,1.9-0.8c0.7,0,1.4,0.3,1.9,0.8C473,1.5,473.2,2.1,473.2,2.8z
			 M468.1,25.1V7h4.7v18.1H468.1z"/>
		<path id="XMLID_72_" class="st0" d="M492.5,16.1c0,1.4-0.2,2.6-0.6,3.8c-0.4,1.2-1,2.1-1.7,3s-1.6,1.5-2.6,1.9
			c-1,0.5-2.1,0.7-3.3,0.7s-2.3-0.2-3.2-0.7c-1-0.5-1.9-1.1-2.6-1.9s-1.3-1.8-1.7-3c-0.4-1.2-0.6-2.4-0.6-3.8c0-1.4,0.2-2.6,0.6-3.8
			c0.4-1.2,1-2.2,1.7-3c0.7-0.8,1.6-1.5,2.6-1.9c1-0.5,2.1-0.7,3.2-0.7s2.3,0.2,3.3,0.7c1,0.5,1.9,1.1,2.6,1.9
			c0.7,0.8,1.3,1.8,1.7,3C492.3,13.4,492.5,14.7,492.5,16.1z M487.7,16.1c0-1.4-0.3-2.5-0.8-3.5c-0.6-0.9-1.4-1.4-2.5-1.4
			c-1.1,0-2,0.5-2.5,1.4s-0.8,2.1-0.8,3.5c0,1.4,0.3,2.6,0.8,3.5c0.5,0.9,1.4,1.4,2.5,1.4c0.6,0,1.1-0.1,1.5-0.4
			c0.4-0.3,0.8-0.6,1-1.1c0.3-0.5,0.5-1,0.6-1.6C487.6,17.3,487.7,16.7,487.7,16.1z"/>
		<path id="XMLID_70_" class="st0" d="M506.5,25.1v-9.8c0-1.6-0.3-2.7-0.8-3.3c-0.5-0.6-1.3-0.9-2.3-0.9c-1,0-1.7,0.3-2.3,0.9
			c-0.5,0.6-0.8,1.7-0.8,3.2v9.9h-4.7V7h4.7v1.2c0.4-0.4,1-0.8,1.7-1.1c0.7-0.3,1.6-0.5,2.5-0.5c2.3,0,4,0.7,5.1,2.2
			c1.1,1.5,1.6,3.5,1.6,6v10.2H506.5z"/>
		<path id="XMLID_67_" class="st0" d="M10.8,66.3v-1.2c-0.4,0.5-1,0.8-1.7,1.1c-0.7,0.3-1.5,0.4-2.3,0.4c-0.8,0-1.7-0.1-2.5-0.4
			s-1.5-0.7-2.1-1.2c-0.6-0.5-1.1-1.2-1.5-2C0.2,62.3,0,61.4,0,60.3c0-1,0.2-1.9,0.6-2.6c0.4-0.8,0.9-1.4,1.6-1.9
			c0.7-0.5,1.4-0.9,2.3-1.1c0.9-0.3,1.8-0.4,2.9-0.4c0.8,0,1.5,0.1,2.1,0.2c0.5,0.1,1,0.3,1.4,0.5v-0.9c0-0.6-0.2-1.2-0.6-1.6
			c-0.4-0.4-1.1-0.7-1.9-0.7c-0.6,0-1,0-1.5,0.1c-0.4,0-0.8,0.1-1.2,0.2c-0.4,0.1-0.8,0.2-1.1,0.4c-0.4,0.1-0.8,0.3-1.2,0.6
			l-1.8-3.3c0.5-0.3,1-0.6,1.5-0.8c0.5-0.2,1-0.4,1.5-0.6c0.5-0.1,1.1-0.3,1.7-0.3c0.6-0.1,1.3-0.1,2-0.1c1.1,0,2.1,0.1,3,0.4
			c0.9,0.3,1.7,0.7,2.3,1.2c0.6,0.5,1.1,1.2,1.5,2c0.4,0.8,0.5,1.7,0.5,2.7v12.1H10.8z M10.8,58.8c-0.4-0.3-0.9-0.4-1.3-0.6
			C9,58.1,8.3,58,7.5,58c-0.9,0-1.6,0.2-2,0.6c-0.5,0.4-0.7,1-0.7,1.7c0,0.6,0.2,1.2,0.6,1.7s1.1,0.7,2.1,0.7c0.8,0,1.5-0.2,2-0.5
			c0.6-0.3,1-0.7,1.3-1.2V58.8z"/>
		<path id="XMLID_65_" class="st0" d="M30.3,66.3v-9.8c0-1.6-0.3-2.7-0.8-3.3c-0.5-0.6-1.3-0.9-2.3-0.9c-1,0-1.7,0.3-2.3,0.9
			c-0.5,0.6-0.8,1.7-0.8,3.2v9.9h-4.7V48.3h4.7v1.2c0.4-0.4,1-0.8,1.7-1.1c0.7-0.3,1.6-0.5,2.5-0.5c2.3,0,4,0.7,5.1,2.2
			c1.1,1.5,1.6,3.5,1.6,6v10.2H30.3z"/>
		<path id="XMLID_62_" class="st0" d="M48.8,66.3v-1.1c-0.5,0.4-1,0.7-1.6,1c-0.6,0.3-1.3,0.5-2.2,0.5c-1,0-1.9-0.2-2.7-0.6
			c-0.8-0.4-1.6-0.9-2.2-1.7c-0.6-0.8-1.1-1.8-1.5-3c-0.4-1.2-0.5-2.7-0.5-4.3c0-1.4,0.2-2.6,0.5-3.7c0.3-1.1,0.8-2.1,1.4-2.9
			c0.6-0.8,1.3-1.4,2.2-1.9c0.9-0.4,1.9-0.7,3-0.7c0.8,0,1.5,0.1,2.2,0.4c0.7,0.3,1.2,0.6,1.6,1v-5.7l4.7-2.4v25.1H48.8z M48.8,53.9
			c-0.8-1-1.8-1.5-3.2-1.5c-1.9,0-2.8,1.5-2.8,4.6c0,1.9,0.3,3.2,0.8,4c0.6,0.8,1.3,1.2,2.3,1.2c0.7,0,1.3-0.1,1.8-0.4
			c0.4-0.3,0.8-0.6,1.2-1.1V53.9z"/>
		<path id="XMLID_59_" class="st0" d="M86.6,49.9c0,1.4-0.2,2.6-0.7,3.6c-0.4,1-1,1.8-1.8,2.5s-1.7,1.1-2.8,1.4s-2.2,0.4-3.5,0.4
			h-5.3v8.5h-4.8V42.3h10.5c1.1,0,2.2,0.2,3.2,0.5c1,0.3,1.9,0.8,2.6,1.4c0.8,0.6,1.4,1.4,1.8,2.4C86.4,47.5,86.6,48.6,86.6,49.9z
			 M81.7,50c0-1.1-0.3-1.8-0.9-2.3c-0.6-0.5-1.5-0.7-2.6-0.7h-5.5v6.2h5.6C80.5,53.1,81.7,52.1,81.7,50z"/>
		<path id="XMLID_57_" class="st0" d="M100.7,66.3v-9.8c0-1.6-0.3-2.7-0.8-3.3c-0.5-0.6-1.3-0.9-2.3-0.9c-1,0-1.7,0.3-2.3,0.9
			c-0.5,0.6-0.8,1.7-0.8,3.2v9.9h-4.7V43.6l4.7-2.4v8.2c0.4-0.4,1-0.8,1.7-1.1c0.7-0.3,1.6-0.5,2.5-0.5c2.3,0,4,0.7,5.1,2.2
			c1.1,1.5,1.6,3.5,1.6,6v10.2H100.7z"/>
		<path id="XMLID_54_" class="st0" d="M119.2,66.3v-1.2c-0.4,0.5-1,0.8-1.7,1.1c-0.7,0.3-1.5,0.4-2.3,0.4c-0.8,0-1.7-0.1-2.5-0.4
			s-1.5-0.7-2.1-1.2c-0.6-0.5-1.1-1.2-1.5-2c-0.4-0.8-0.6-1.8-0.6-2.9c0-1,0.2-1.9,0.6-2.6c0.4-0.8,0.9-1.4,1.6-1.9
			c0.7-0.5,1.4-0.9,2.3-1.1c0.9-0.3,1.8-0.4,2.9-0.4c0.8,0,1.5,0.1,2.1,0.2c0.5,0.1,1,0.3,1.4,0.5v-0.9c0-0.6-0.2-1.2-0.6-1.6
			c-0.4-0.4-1.1-0.7-1.9-0.7c-0.6,0-1,0-1.5,0.1c-0.4,0-0.8,0.1-1.2,0.2c-0.4,0.1-0.8,0.2-1.1,0.4c-0.4,0.1-0.8,0.3-1.2,0.6
			l-1.8-3.3c0.5-0.3,1-0.6,1.5-0.8c0.5-0.2,1-0.4,1.5-0.6c0.5-0.1,1.1-0.3,1.7-0.3c0.6-0.1,1.3-0.1,2-0.1c1.1,0,2.1,0.1,3,0.4
			c0.9,0.3,1.7,0.7,2.3,1.2c0.6,0.5,1.1,1.2,1.5,2c0.4,0.8,0.5,1.7,0.5,2.7v12.1H119.2z M119.2,58.8c-0.4-0.3-0.9-0.4-1.3-0.6
			c-0.5-0.1-1.1-0.2-2-0.2c-0.9,0-1.6,0.2-2,0.6c-0.5,0.4-0.7,1-0.7,1.7c0,0.6,0.2,1.2,0.6,1.7s1.1,0.7,2.1,0.7c0.8,0,1.5-0.2,2-0.5
			c0.6-0.3,1-0.7,1.3-1.2V58.8z"/>
		<path id="XMLID_52_" class="st0" d="M138.4,53.8c-0.4-0.3-0.8-0.6-1.3-0.8c-0.5-0.2-1-0.3-1.5-0.3c-0.5,0-0.9,0.1-1.3,0.2
			c-0.4,0.1-0.7,0.3-1,0.6c-0.3,0.3-0.5,0.7-0.6,1.2c-0.1,0.5-0.2,1.1-0.2,1.9v9.8h-4.7V48.3h4.7v1.2c0.4-0.4,0.9-0.8,1.5-1.1
			c0.6-0.3,1.3-0.5,2.2-0.5c0.8,0,1.4,0.1,2,0.4s1,0.6,1.3,0.9L138.4,53.8z"/>
		<path id="XMLID_50_" class="st0" d="M163.1,66.3v-9.8c0-1.6-0.2-2.7-0.7-3.3c-0.5-0.6-1.2-0.9-2.2-0.9c-1,0-1.7,0.3-2.2,0.9
			s-0.7,1.7-0.7,3.2v9.9h-4.7v-9.8c0-1.6-0.2-2.7-0.7-3.3c-0.5-0.6-1.2-0.9-2.2-0.9c-1,0-1.7,0.3-2.2,0.9c-0.5,0.6-0.7,1.7-0.7,3.2
			v9.9H142V48.3h4.7v1.2c0.4-0.4,0.9-0.8,1.6-1.1c0.6-0.3,1.4-0.5,2.4-0.5c1.1,0,2.1,0.2,2.9,0.5c0.8,0.4,1.5,0.9,2.1,1.8
			c0.6-0.6,1.4-1.2,2.2-1.6c0.9-0.4,2-0.7,3.5-0.7c1.1,0,2.1,0.2,2.9,0.6c0.8,0.4,1.5,0.9,2,1.7c0.5,0.7,0.9,1.6,1.1,2.6
			s0.4,2.2,0.4,3.4v10.2H163.1z"/>
		<path id="XMLID_47_" class="st0" d="M181.6,66.3v-1.2c-0.4,0.5-1,0.8-1.7,1.1c-0.7,0.3-1.5,0.4-2.3,0.4c-0.8,0-1.7-0.1-2.5-0.4
			s-1.5-0.7-2.1-1.2c-0.6-0.5-1.1-1.2-1.5-2c-0.4-0.8-0.6-1.8-0.6-2.9c0-1,0.2-1.9,0.6-2.6c0.4-0.8,0.9-1.4,1.6-1.9
			c0.7-0.5,1.4-0.9,2.3-1.1c0.9-0.3,1.8-0.4,2.9-0.4c0.8,0,1.5,0.1,2.1,0.2c0.5,0.1,1,0.3,1.4,0.5v-0.9c0-0.6-0.2-1.2-0.6-1.6
			c-0.4-0.4-1.1-0.7-1.9-0.7c-0.6,0-1,0-1.5,0.1c-0.4,0-0.8,0.1-1.2,0.2c-0.4,0.1-0.8,0.2-1.1,0.4c-0.4,0.1-0.8,0.3-1.2,0.6
			l-1.8-3.3c0.5-0.3,1-0.6,1.5-0.8c0.5-0.2,1-0.4,1.5-0.6c0.5-0.1,1.1-0.3,1.7-0.3c0.6-0.1,1.3-0.1,2-0.1c1.1,0,2.1,0.1,3,0.4
			c0.9,0.3,1.7,0.7,2.3,1.2c0.6,0.5,1.1,1.2,1.5,2c0.4,0.8,0.5,1.7,0.5,2.7v12.1H181.6z M181.6,58.8c-0.4-0.3-0.9-0.4-1.3-0.6
			c-0.5-0.1-1.1-0.2-2-0.2c-0.9,0-1.6,0.2-2,0.6c-0.5,0.4-0.7,1-0.7,1.7c0,0.6,0.2,1.2,0.6,1.7s1.1,0.7,2.1,0.7c0.8,0,1.5-0.2,2-0.5
			c0.6-0.3,1-0.7,1.3-1.2V58.8z"/>
		<path id="XMLID_44_" class="st0" d="M203.7,64.3c-0.5,0.5-1,0.9-1.6,1.3c-0.6,0.4-1.2,0.6-2,0.8c-0.7,0.2-1.5,0.3-2.4,0.3
			c-1.2,0-2.3-0.2-3.3-0.7c-1-0.5-1.9-1.1-2.7-1.9c-0.8-0.8-1.4-1.8-1.8-3c-0.4-1.2-0.7-2.4-0.7-3.8c0-1.4,0.2-2.6,0.7-3.8
			c0.4-1.2,1-2.2,1.8-3c0.8-0.8,1.7-1.5,2.7-1.9c1.1-0.5,2.2-0.7,3.5-0.7c1.7,0,3.2,0.4,4.3,1.1c1.1,0.7,2.1,1.7,2.9,2.8L202,55
			c-0.5-0.8-1.1-1.4-1.7-1.9c-0.6-0.5-1.4-0.7-2.4-0.7c-1.1,0-2.1,0.4-2.7,1.3c-0.7,0.9-1,2.1-1,3.6c0,1.5,0.3,2.6,1,3.5
			c0.7,0.9,1.6,1.3,2.7,1.3c0.9,0,1.7-0.2,2.4-0.6c0.6-0.4,1.3-1,1.9-1.7l3,2.8C204.7,63.3,204.2,63.8,203.7,64.3z"/>
		<path id="XMLID_41_" class="st0" d="M223.5,57.3c0,1.4-0.2,2.6-0.6,3.8c-0.4,1.2-1,2.1-1.7,3s-1.6,1.5-2.6,1.9
			c-1,0.5-2.1,0.7-3.3,0.7s-2.3-0.2-3.2-0.7c-1-0.5-1.9-1.1-2.6-1.9s-1.3-1.8-1.7-3c-0.4-1.2-0.6-2.4-0.6-3.8c0-1.4,0.2-2.6,0.6-3.8
			c0.4-1.2,1-2.2,1.7-3c0.7-0.8,1.6-1.5,2.6-1.9c1-0.5,2.1-0.7,3.2-0.7s2.3,0.2,3.3,0.7c1,0.5,1.9,1.1,2.6,1.9
			c0.7,0.8,1.3,1.8,1.7,3C223.3,54.7,223.5,55.9,223.5,57.3z M218.7,57.3c0-1.4-0.3-2.5-0.8-3.5c-0.6-0.9-1.4-1.4-2.5-1.4
			c-1.1,0-2,0.5-2.5,1.4s-0.8,2.1-0.8,3.5c0,1.4,0.3,2.6,0.8,3.5c0.5,0.9,1.4,1.4,2.5,1.4c0.6,0,1.1-0.1,1.5-0.4
			c0.4-0.3,0.8-0.6,1-1.1c0.3-0.5,0.5-1,0.6-1.6C218.6,58.5,218.7,57.9,218.7,57.3z"/>
		<path id="XMLID_39_" class="st0" d="M226.8,66.3V43.6l4.7-2.4v25.1H226.8z"/>
		<path id="XMLID_36_" class="st0" d="M251.1,57.3c0,1.4-0.2,2.6-0.6,3.8c-0.4,1.2-1,2.1-1.7,3s-1.6,1.5-2.6,1.9
			c-1,0.5-2.1,0.7-3.3,0.7s-2.3-0.2-3.2-0.7c-1-0.5-1.9-1.1-2.6-1.9s-1.3-1.8-1.7-3c-0.4-1.2-0.6-2.4-0.6-3.8c0-1.4,0.2-2.6,0.6-3.8
			c0.4-1.2,1-2.2,1.7-3c0.7-0.8,1.6-1.5,2.6-1.9c1-0.5,2.1-0.7,3.2-0.7s2.3,0.2,3.3,0.7c1,0.5,1.9,1.1,2.6,1.9
			c0.7,0.8,1.3,1.8,1.7,3C250.9,54.7,251.1,55.9,251.1,57.3z M246.3,57.3c0-1.4-0.3-2.5-0.8-3.5c-0.6-0.9-1.4-1.4-2.5-1.4
			c-1.1,0-2,0.5-2.5,1.4s-0.8,2.1-0.8,3.5c0,1.4,0.3,2.6,0.8,3.5c0.5,0.9,1.4,1.4,2.5,1.4c0.6,0,1.1-0.1,1.5-0.4
			c0.4-0.3,0.8-0.6,1-1.1c0.3-0.5,0.5-1,0.6-1.6C246.2,58.5,246.3,57.9,246.3,57.3z"/>
		<path id="XMLID_33_" class="st0" d="M268.8,63.3c0,1.5-0.1,2.8-0.3,3.9c-0.2,1.1-0.6,2.1-1.2,2.9c-0.6,0.8-1.4,1.4-2.4,1.9
			c-1,0.5-2.3,0.8-3.9,1l-1.7-3.6c0.9-0.1,1.7-0.3,2.3-0.5c0.6-0.2,1.1-0.4,1.5-0.8c0.4-0.3,0.6-0.7,0.8-1.2
			c0.1-0.5,0.2-1.1,0.2-1.8c-0.5,0.4-1,0.7-1.6,1c-0.6,0.3-1.3,0.5-2.2,0.5c-1,0-1.9-0.2-2.7-0.6c-0.8-0.4-1.6-0.9-2.2-1.7
			c-0.6-0.8-1.1-1.8-1.5-3c-0.4-1.2-0.5-2.7-0.5-4.3c0-1.4,0.2-2.6,0.5-3.7c0.3-1.1,0.8-2.1,1.4-2.9c0.6-0.8,1.3-1.4,2.2-1.9
			c0.9-0.4,1.9-0.7,3-0.7c0.8,0,1.5,0.1,2.2,0.4c0.7,0.3,1.2,0.6,1.6,1v-1h4.7V63.3z M264.1,53.9c-0.8-1-1.8-1.5-3.2-1.5
			c-1.9,0-2.8,1.5-2.8,4.6c0,1.9,0.3,3.2,0.8,4c0.6,0.8,1.3,1.2,2.3,1.2c0.7,0,1.3-0.1,1.8-0.4c0.4-0.3,0.8-0.6,1.2-1.1V53.9z"/>
		<path id="XMLID_30_" class="st0" d="M278.2,44.1c0,0.7-0.3,1.4-0.8,1.9s-1.2,0.8-1.9,0.8c-0.7,0-1.4-0.3-1.9-0.8
			c-0.5-0.5-0.8-1.2-0.8-1.9c0-0.7,0.3-1.4,0.8-1.9c0.5-0.5,1.2-0.8,1.9-0.8c0.7,0,1.4,0.3,1.9,0.8
			C277.9,42.7,278.2,43.3,278.2,44.1z M273.1,66.3V48.3h4.7v18.1H273.1z"/>
		<path id="XMLID_28_" class="st0" d="M295.6,64.3c-0.5,0.5-1,0.9-1.6,1.3c-0.6,0.4-1.2,0.6-2,0.8c-0.7,0.2-1.5,0.3-2.4,0.3
			c-1.2,0-2.3-0.2-3.3-0.7c-1-0.5-1.9-1.1-2.7-1.9c-0.8-0.8-1.4-1.8-1.8-3c-0.4-1.2-0.7-2.4-0.7-3.8c0-1.4,0.2-2.6,0.7-3.8
			c0.4-1.2,1-2.2,1.8-3c0.8-0.8,1.7-1.5,2.7-1.9c1.1-0.5,2.2-0.7,3.5-0.7c1.7,0,3.2,0.4,4.3,1.1c1.1,0.7,2.1,1.7,2.9,2.8l-3.1,3.2
			c-0.5-0.8-1.1-1.4-1.7-1.9c-0.6-0.5-1.4-0.7-2.4-0.7c-1.1,0-2.1,0.4-2.7,1.3c-0.7,0.9-1,2.1-1,3.6c0,1.5,0.3,2.6,1,3.5
			c0.7,0.9,1.6,1.3,2.7,1.3c0.9,0,1.7-0.2,2.4-0.6c0.6-0.4,1.3-1,1.9-1.7l3,2.8C296.5,63.3,296.1,63.8,295.6,64.3z"/>
		<path id="XMLID_25_" class="st0" d="M309.9,66.3v-1.2c-0.4,0.5-1,0.8-1.7,1.1c-0.7,0.3-1.5,0.4-2.3,0.4c-0.8,0-1.7-0.1-2.5-0.4
			s-1.5-0.7-2.1-1.2c-0.6-0.5-1.1-1.2-1.5-2c-0.4-0.8-0.6-1.8-0.6-2.9c0-1,0.2-1.9,0.6-2.6c0.4-0.8,0.9-1.4,1.6-1.9
			c0.7-0.5,1.4-0.9,2.3-1.1c0.9-0.3,1.8-0.4,2.9-0.4c0.8,0,1.5,0.1,2.1,0.2c0.5,0.1,1,0.3,1.4,0.5v-0.9c0-0.6-0.2-1.2-0.6-1.6
			c-0.4-0.4-1.1-0.7-1.9-0.7c-0.6,0-1,0-1.5,0.1c-0.4,0-0.8,0.1-1.2,0.2c-0.4,0.1-0.8,0.2-1.1,0.4c-0.4,0.1-0.8,0.3-1.2,0.6
			l-1.8-3.3c0.5-0.3,1-0.6,1.5-0.8c0.5-0.2,1-0.4,1.5-0.6c0.5-0.1,1.1-0.3,1.7-0.3c0.6-0.1,1.3-0.1,2-0.1c1.1,0,2.1,0.1,3,0.4
			c0.9,0.3,1.7,0.7,2.3,1.2c0.6,0.5,1.1,1.2,1.5,2c0.4,0.8,0.5,1.7,0.5,2.7v12.1H309.9z M309.9,58.8c-0.4-0.3-0.9-0.4-1.3-0.6
			c-0.5-0.1-1.1-0.2-2-0.2c-0.9,0-1.6,0.2-2,0.6c-0.5,0.4-0.7,1-0.7,1.7c0,0.6,0.2,1.2,0.6,1.7s1.1,0.7,2.1,0.7c0.8,0,1.5-0.2,2-0.5
			c0.6-0.3,1-0.7,1.3-1.2V58.8z"/>
		<path id="XMLID_23_" class="st0" d="M318.6,66.3V43.6l4.7-2.4v25.1H318.6z"/>
		<path id="XMLID_20_" class="st0" d="M356.6,49.9c0,1.4-0.2,2.6-0.7,3.6c-0.4,1-1,1.8-1.8,2.5s-1.7,1.1-2.8,1.4s-2.2,0.4-3.5,0.4
			h-5.3v8.5h-4.8V42.3h10.5c1.1,0,2.2,0.2,3.2,0.5c1,0.3,1.9,0.8,2.6,1.4c0.8,0.6,1.4,1.4,1.8,2.4C356.3,47.5,356.6,48.6,356.6,49.9
			z M351.6,50c0-1.1-0.3-1.8-0.9-2.3c-0.6-0.5-1.5-0.7-2.6-0.7h-5.5v6.2h5.6C350.5,53.1,351.6,52.1,351.6,50z"/>
		<path id="XMLID_18_" class="st0" d="M370.3,53.8c-0.4-0.3-0.8-0.6-1.3-0.8c-0.5-0.2-1-0.3-1.5-0.3c-0.5,0-0.9,0.1-1.3,0.2
			c-0.4,0.1-0.7,0.3-1,0.6c-0.3,0.3-0.5,0.7-0.6,1.2c-0.1,0.5-0.2,1.1-0.2,1.9v9.8h-4.7V48.3h4.7v1.2c0.4-0.4,0.9-0.8,1.5-1.1
			c0.6-0.3,1.3-0.5,2.2-0.5c0.8,0,1.4,0.1,2,0.4s1,0.6,1.3,0.9L370.3,53.8z"/>
		<path id="XMLID_15_" class="st0" d="M389.3,57.3c0,1.4-0.2,2.6-0.6,3.8c-0.4,1.2-1,2.1-1.7,3s-1.6,1.5-2.6,1.9
			c-1,0.5-2.1,0.7-3.3,0.7s-2.3-0.2-3.2-0.7c-1-0.5-1.9-1.1-2.6-1.9s-1.3-1.8-1.7-3c-0.4-1.2-0.6-2.4-0.6-3.8c0-1.4,0.2-2.6,0.6-3.8
			c0.4-1.2,1-2.2,1.7-3c0.7-0.8,1.6-1.5,2.6-1.9c1-0.5,2.1-0.7,3.2-0.7s2.3,0.2,3.3,0.7c1,0.5,1.9,1.1,2.6,1.9
			c0.7,0.8,1.3,1.8,1.7,3C389.1,54.7,389.3,55.9,389.3,57.3z M384.5,57.3c0-1.4-0.3-2.5-0.8-3.5c-0.6-0.9-1.4-1.4-2.5-1.4
			c-1.1,0-2,0.5-2.5,1.4s-0.8,2.1-0.8,3.5c0,1.4,0.3,2.6,0.8,3.5c0.5,0.9,1.4,1.4,2.5,1.4c0.6,0,1.1-0.1,1.5-0.4
			c0.4-0.3,0.8-0.6,1-1.1c0.3-0.5,0.5-1,0.6-1.6C384.4,58.5,384.5,57.9,384.5,57.3z"/>
		<path id="XMLID_11_" class="st0" d="M401.7,45.7c-0.3-0.1-0.5-0.2-0.8-0.3c-0.3-0.1-0.5-0.1-0.9-0.1c-0.7,0-1.2,0.1-1.4,0.3
			c-0.2,0.2-0.3,0.6-0.3,1.1v1.5h3.1v4.5h-3.1v13.6h-4.7V52.7h-2.2v-4.5h2.2v-2.2c0-1.7,0.4-2.9,1.3-3.6c0.9-0.7,2.2-1.1,3.8-1.1
			c1.2,0,2.2,0.2,3,0.5V45.7z M410.1,44.1c0,0.7-0.3,1.4-0.8,1.9c-0.5,0.5-1.2,0.8-1.9,0.8c-0.7,0-1.4-0.3-1.9-0.8
			c-0.5-0.5-0.8-1.2-0.8-1.9c0-0.7,0.3-1.4,0.8-1.9c0.5-0.5,1.2-0.8,1.9-0.8c0.7,0,1.4,0.3,1.9,0.8
			C409.9,42.7,410.1,43.3,410.1,44.1z M405,66.3V48.3h4.7v18.1H405z"/>
		<path id="XMLID_9_" class="st0" d="M414.2,66.3V43.6l4.7-2.4v25.1H414.2z"/>
		<path id="XMLID_6_" class="st0" d="M437.8,57.3c0,0.3,0,0.6,0,0.9c0,0.2,0,0.5-0.1,0.6h-10.8c0,0.6,0.2,1.1,0.4,1.6
			c0.2,0.4,0.5,0.8,0.9,1c0.3,0.3,0.7,0.5,1.2,0.6c0.4,0.1,0.9,0.2,1.3,0.2c0.7,0,1.3-0.1,1.8-0.3c0.5-0.2,1-0.5,1.3-0.9l3.4,2.8
			c-0.7,0.9-1.7,1.7-2.9,2.2s-2.4,0.8-3.6,0.8c-1.3,0-2.5-0.2-3.5-0.7c-1-0.4-1.9-1.1-2.7-1.9c-0.7-0.8-1.3-1.8-1.7-3
			c-0.4-1.2-0.6-2.4-0.6-3.9c0-1.4,0.2-2.6,0.6-3.8c0.4-1.2,1-2.2,1.7-3c0.7-0.8,1.6-1.5,2.5-1.9c1-0.5,2-0.7,3.2-0.7
			c1.2,0,2.3,0.2,3.2,0.7c1,0.5,1.7,1.2,2.4,2c0.6,0.9,1.1,1.9,1.5,3C437.6,54.8,437.8,56,437.8,57.3z M433.2,55.3
			c0-0.4-0.1-0.8-0.3-1.2c-0.1-0.4-0.3-0.7-0.6-1c-0.3-0.3-0.6-0.6-1-0.7c-0.4-0.2-0.9-0.3-1.4-0.3c-0.9,0-1.6,0.3-2.1,0.9
			c-0.5,0.6-0.8,1.4-0.9,2.3H433.2z"/>
		<path id="XMLID_4_" class="st0" d="M443,58v-7.4h-1.8v-1.5c0.6,0,1-0.2,1.4-0.4c0.4-0.2,0.6-0.5,0.7-1h1.7V58H443z"/>
	</g>
</g>
</svg>
