<!-- Generator: Adobe Illustrator 22.1.0, SVG Export Plug-In  -->
<svg version="1.1"
	 xmlns="http://www.w3.org/2000/svg" xmlns:xlink="http://www.w3.org/1999/xlink" xmlns:a="http://ns.adobe.com/AdobeSVGViewerExtensions/3.0/"
	 x="0px" y="0px" width="592.2px" height="73px" viewBox="0 0 592.2 73" style="enable-background:new 0 0 592.2 73;"
	 xml:space="preserve">
<style type="text/css">
	.st0{fill:#266093;}
</style>
<defs>
</defs>
<g id="XMLID_1_">
	<g id="XMLID_3_">
		<path id="XMLID_114_" class="st0" d="M0,25.1V1h16.7v4.7H4.8v4.2h6.9v4.7H4.8v5.8h12.4v4.7H0z"/>
		<path id="XMLID_112_" class="st0" d="M29.5,4.2c-0.3-0.1-0.5-0.1-0.9-0.1c-0.7,0-1.2,0.1-1.4,0.3C27,4.6,26.9,5,26.9,5.5V7h3.1
			v4.5h-3.1v13.6h-4.7V11.5H20V7h2.2V4.8c0-1.7,0.4-2.9,1.3-3.6c0.9-0.7,2.2-1.1,3.8-1.1c1.2,0,2.2,0.2,3,0.5v3.8
			C30,4.3,29.8,4.2,29.5,4.2z"/>
		<path id="XMLID_110_" class="st0" d="M41.7,4.2c-0.3-0.1-0.5-0.1-0.9-0.1c-0.7,0-1.2,0.1-1.4,0.3C39.1,4.6,39,5,39,5.5V7h3.1v4.5
			H39v13.6h-4.7V11.5h-2.2V7h2.2V4.8c0-1.7,0.4-2.9,1.3-3.6c0.9-0.7,2.2-1.1,3.8-1.1c1.2,0,2.2,0.2,3,0.5v3.8
			C42.2,4.3,41.9,4.2,41.7,4.2z"/>
		<path id="XMLID_107_" class="st0" d="M60,16.1c0,0.3,0,0.6,0,0.9c0,0.2,0,0.5-0.1,0.6H49.1c0,0.6,0.2,1.1,0.4,1.6
			c0.2,0.4,0.5,0.8,0.9,1c0.3,0.3,0.7,0.5,1.2,0.6c0.4,0.1,0.9,0.2,1.3,0.2c0.7,0,1.3-0.1,1.8-0.3c0.5-0.2,1-0.5,1.3-0.9l3.4,2.8
			c-0.7,0.9-1.7,1.7-2.9,2.2s-2.4,0.8-3.6,0.8c-1.3,0-2.5-0.2-3.5-0.7c-1-0.4-1.9-1.1-2.7-1.9c-0.7-0.8-1.3-1.8-1.7-3
			c-0.4-1.2-0.6-2.4-0.6-3.9c0-1.4,0.2-2.6,0.6-3.8c0.4-1.2,1-2.2,1.7-3c0.7-0.8,1.6-1.5,2.5-1.9c1-0.5,2-0.7,3.2-0.7
			c1.2,0,2.3,0.2,3.2,0.7c1,0.5,1.7,1.2,2.4,2c0.6,0.9,1.1,1.9,1.5,3C59.8,13.6,60,14.8,60,16.1z M55.4,14c0-0.4-0.1-0.8-0.3-1.2
			s-0.3-0.7-0.6-1c-0.3-0.3-0.6-0.6-1-0.7c-0.4-0.2-0.9-0.3-1.4-0.3c-0.9,0-1.6,0.3-2.1,0.9c-0.5,0.6-0.8,1.4-0.9,2.3H55.4z"/>
		<path id="XMLID_105_" class="st0" d="M76.7,23.1c-0.5,0.5-1,0.9-1.6,1.3c-0.6,0.4-1.2,0.6-2,0.8c-0.7,0.2-1.5,0.3-2.4,0.3
			c-1.2,0-2.3-0.2-3.3-0.7c-1-0.5-1.9-1.1-2.7-1.9c-0.8-0.8-1.4-1.8-1.8-3c-0.4-1.2-0.7-2.4-0.7-3.8c0-1.4,0.2-2.6,0.7-3.8
			c0.4-1.2,1-2.2,1.8-3c0.8-0.8,1.7-1.5,2.7-1.9c1.1-0.5,2.2-0.7,3.5-0.7c1.7,0,3.2,0.4,4.3,1.1s2.1,1.7,2.9,2.8l-3.1,3.2
			c-0.5-0.8-1.1-1.4-1.7-1.9c-0.6-0.5-1.4-0.7-2.4-0.7c-1.1,0-2.1,0.4-2.7,1.3s-1,2.1-1,3.6c0,1.5,0.3,2.6,1,3.5
			c0.7,0.9,1.6,1.3,2.7,1.3c0.9,0,1.7-0.2,2.4-0.6c0.6-0.4,1.3-1,1.9-1.7l3,2.8C77.6,22,77.2,22.6,76.7,23.1z"/>
		<path id="XMLID_103_" class="st0" d="M91.1,24.3c-0.4,0.3-0.9,0.6-1.6,0.8c-0.7,0.2-1.4,0.3-2.1,0.3c-0.7,0-1.4-0.1-2-0.4
			c-0.6-0.3-1.1-0.6-1.5-1.1c-0.4-0.5-0.7-1.1-1-1.7c-0.2-0.7-0.3-1.4-0.3-2.2v-8.5h-3V7h3V2.4L87.4,0v7h4.3v4.5h-4.3v7.3
			c0,0.9,0.1,1.5,0.4,1.7c0.3,0.3,0.7,0.4,1.3,0.4c0.4,0,0.8-0.1,1.2-0.3c0.4-0.2,0.9-0.6,1.5-1.1L91.1,24.3z"/>
		<path id="XMLID_100_" class="st0" d="M100.9,2.8c0,0.7-0.3,1.4-0.8,1.9c-0.5,0.5-1.2,0.8-1.9,0.8s-1.4-0.3-1.9-0.8
			c-0.5-0.5-0.8-1.2-0.8-1.9c0-0.7,0.3-1.4,0.8-1.9c0.5-0.5,1.2-0.8,1.9-0.8s1.4,0.3,1.9,0.8C100.6,1.5,100.9,2.1,100.9,2.8z
			 M95.8,25.1V7h4.7v18.1H95.8z"/>
		<path id="XMLID_98_" class="st0" d="M114.7,25.1h-4.9L103.3,7h5.2l2.6,8.4c0.2,0.7,0.4,1.4,0.7,2.2c0.2,0.8,0.4,1.4,0.5,1.8
			c0.1-0.5,0.3-1.1,0.5-1.8c0.2-0.7,0.4-1.5,0.7-2.2l2.6-8.4h5.1L114.7,25.1z"/>
		<path id="XMLID_95_" class="st0" d="M138.5,16.1c0,0.3,0,0.6,0,0.9c0,0.2,0,0.5-0.1,0.6h-10.8c0,0.6,0.2,1.1,0.4,1.6
			c0.2,0.4,0.5,0.8,0.9,1c0.3,0.3,0.7,0.5,1.2,0.6c0.4,0.1,0.9,0.2,1.3,0.2c0.7,0,1.3-0.1,1.8-0.3c0.5-0.2,1-0.5,1.3-0.9l3.4,2.8
			c-0.7,0.9-1.7,1.7-2.9,2.2s-2.4,0.8-3.6,0.8c-1.3,0-2.5-0.2-3.5-0.7c-1-0.4-1.9-1.1-2.7-1.9c-0.7-0.8-1.3-1.8-1.7-3
			c-0.4-1.2-0.6-2.4-0.6-3.9c0-1.4,0.2-2.6,0.6-3.8c0.4-1.2,1-2.2,1.7-3c0.7-0.8,1.6-1.5,2.5-1.9c1-0.5,2-0.7,3.2-0.7
			c1.2,0,2.3,0.2,3.2,0.7c1,0.5,1.7,1.2,2.4,2c0.6,0.9,1.1,1.9,1.5,3C138.3,13.6,138.5,14.8,138.5,16.1z M133.9,14
			c0-0.4-0.1-0.8-0.3-1.2s-0.3-0.7-0.6-1c-0.3-0.3-0.6-0.6-1-0.7c-0.4-0.2-0.9-0.3-1.4-0.3c-0.9,0-1.6,0.3-2.1,0.9
			c-0.5,0.6-0.8,1.4-0.9,2.3H133.9z"/>
		<path id="XMLID_92_" class="st0" d="M161,25.1v-1.2c-0.4,0.5-1,0.8-1.7,1.1c-0.7,0.3-1.5,0.4-2.3,0.4c-0.8,0-1.7-0.1-2.5-0.4
			c-0.8-0.3-1.5-0.7-2.1-1.2c-0.6-0.5-1.1-1.2-1.5-2c-0.4-0.8-0.6-1.8-0.6-2.9c0-1,0.2-1.9,0.6-2.6c0.4-0.8,0.9-1.4,1.6-1.9
			c0.7-0.5,1.4-0.9,2.3-1.1c0.9-0.3,1.8-0.4,2.9-0.4c0.8,0,1.5,0.1,2.1,0.2c0.5,0.1,1,0.3,1.4,0.5v-0.9c0-0.6-0.2-1.2-0.6-1.6
			c-0.4-0.4-1.1-0.7-1.9-0.7c-0.6,0-1,0-1.5,0.1c-0.4,0-0.8,0.1-1.2,0.2c-0.4,0.1-0.8,0.2-1.1,0.4c-0.4,0.1-0.8,0.3-1.2,0.6
			l-1.8-3.3c0.5-0.3,1-0.6,1.5-0.8c0.5-0.2,1-0.4,1.5-0.6c0.5-0.1,1.1-0.3,1.7-0.3c0.6-0.1,1.3-0.1,2-0.1c1.1,0,2.1,0.1,3,0.4
			c0.9,0.3,1.7,0.7,2.3,1.2s1.1,1.2,1.5,2c0.4,0.8,0.5,1.7,0.5,2.7v12.1H161z M161,17.5c-0.4-0.3-0.9-0.4-1.3-0.6
			c-0.5-0.1-1.1-0.2-2-0.2c-0.9,0-1.6,0.2-2,0.6c-0.5,0.4-0.7,1-0.7,1.7c0,0.6,0.2,1.2,0.6,1.7c0.4,0.5,1.1,0.7,2.1,0.7
			c0.8,0,1.5-0.2,2-0.5c0.6-0.3,1-0.7,1.3-1.2V17.5z"/>
		<path id="XMLID_90_" class="st0" d="M180.5,25.1v-9.8c0-1.6-0.3-2.7-0.8-3.3c-0.5-0.6-1.3-0.9-2.3-0.9c-1,0-1.7,0.3-2.3,0.9
			s-0.8,1.7-0.8,3.2v9.9h-4.7V7h4.7v1.2c0.4-0.4,1-0.8,1.7-1.1c0.7-0.3,1.6-0.5,2.5-0.5c2.3,0,4,0.7,5.1,2.2s1.6,3.5,1.6,6v10.2
			H180.5z"/>
		<path id="XMLID_87_" class="st0" d="M199,25.1v-1.1c-0.5,0.4-1,0.7-1.6,1s-1.3,0.5-2.2,0.5c-1,0-1.9-0.2-2.7-0.6
			c-0.8-0.4-1.6-0.9-2.2-1.7c-0.6-0.8-1.1-1.8-1.5-3c-0.4-1.2-0.6-2.7-0.6-4.3c0-1.4,0.2-2.6,0.5-3.7c0.3-1.1,0.8-2.1,1.4-2.9
			c0.6-0.8,1.3-1.4,2.2-1.9c0.9-0.4,1.9-0.7,3-0.7c0.8,0,1.5,0.1,2.2,0.4s1.2,0.6,1.6,1V2.4l4.7-2.4v25.1H199z M199,12.7
			c-0.8-1-1.8-1.5-3.2-1.5c-1.9,0-2.8,1.5-2.8,4.6c0,1.9,0.3,3.2,0.8,4s1.3,1.2,2.3,1.2c0.7,0,1.3-0.1,1.8-0.4
			c0.4-0.3,0.8-0.6,1.2-1.1V12.7z"/>
		<path id="XMLID_85_" class="st0" d="M235.7,17.8c0,1.1-0.2,2.2-0.5,3.1c-0.4,0.9-0.9,1.7-1.7,2.4c-0.8,0.7-1.8,1.2-2.9,1.6
			s-2.6,0.6-4.2,0.6c-2,0-3.9-0.4-5.5-1.2c-1.7-0.8-2.9-1.8-3.9-3.2l3.5-3.1c0.8,1,1.8,1.7,2.8,2.1c1,0.4,2.1,0.6,3.3,0.6
			c1.4,0,2.5-0.2,3.2-0.6c0.7-0.4,1-1.1,1-2c0-0.4-0.1-0.7-0.2-1c-0.1-0.3-0.4-0.6-0.8-0.8c-0.4-0.3-0.9-0.5-1.6-0.7
			c-0.7-0.2-1.6-0.5-2.8-0.7c-1.1-0.3-2.1-0.6-3-0.9s-1.7-0.8-2.4-1.3c-0.7-0.5-1.2-1.2-1.5-2c-0.4-0.8-0.6-1.8-0.6-3
			c0-1.1,0.2-2.1,0.7-3c0.4-0.9,1.1-1.6,1.8-2.2c0.8-0.6,1.7-1.1,2.7-1.4c1-0.3,2.2-0.5,3.4-0.5c1.9,0,3.5,0.3,4.9,1
			c1.4,0.7,2.7,1.6,3.8,2.8l-3.5,3.4c-0.8-0.8-1.6-1.4-2.5-1.8c-0.9-0.4-1.9-0.6-3-0.6c-0.6,0-1.2,0.1-1.6,0.2
			c-0.4,0.1-0.8,0.3-1.1,0.5c-0.3,0.2-0.5,0.4-0.6,0.7c-0.1,0.3-0.2,0.5-0.2,0.8c0,0.4,0.1,0.7,0.2,1c0.1,0.3,0.4,0.5,0.8,0.7
			c0.4,0.2,0.9,0.4,1.5,0.6c0.6,0.2,1.4,0.4,2.4,0.6c1,0.2,1.9,0.5,2.9,0.8s1.8,0.7,2.6,1.3c0.8,0.5,1.4,1.2,1.9,2.1
			C235.4,15.4,235.7,16.5,235.7,17.8z"/>
		<path id="XMLID_82_" class="st0" d="M249.3,25.1v-1.2c-0.4,0.5-1,0.8-1.7,1.1c-0.7,0.3-1.5,0.4-2.3,0.4c-0.8,0-1.7-0.1-2.5-0.4
			c-0.8-0.3-1.5-0.7-2.1-1.2c-0.6-0.5-1.1-1.2-1.5-2c-0.4-0.8-0.6-1.8-0.6-2.9c0-1,0.2-1.9,0.6-2.6c0.4-0.8,0.9-1.4,1.6-1.9
			c0.7-0.5,1.4-0.9,2.3-1.1c0.9-0.3,1.8-0.4,2.9-0.4c0.8,0,1.5,0.1,2.1,0.2c0.5,0.1,1,0.3,1.4,0.5v-0.9c0-0.6-0.2-1.2-0.6-1.6
			c-0.4-0.4-1.1-0.7-1.9-0.7c-0.6,0-1,0-1.5,0.1c-0.4,0-0.8,0.1-1.2,0.2c-0.4,0.1-0.8,0.2-1.1,0.4c-0.4,0.1-0.8,0.3-1.2,0.6L240,8.5
			c0.5-0.3,1-0.6,1.5-0.8c0.5-0.2,1-0.4,1.5-0.6c0.5-0.1,1.1-0.3,1.7-0.3c0.6-0.1,1.3-0.1,2-0.1c1.1,0,2.1,0.1,3,0.4
			c0.9,0.3,1.7,0.7,2.3,1.2s1.1,1.2,1.5,2c0.4,0.8,0.5,1.7,0.5,2.7v12.1H249.3z M249.3,17.5c-0.4-0.3-0.9-0.4-1.3-0.6
			c-0.5-0.1-1.1-0.2-2-0.2c-0.9,0-1.6,0.2-2,0.6c-0.5,0.4-0.7,1-0.7,1.7c0,0.6,0.2,1.2,0.6,1.7c0.4,0.5,1.1,0.7,2.1,0.7
			c0.8,0,1.5-0.2,2-0.5c0.6-0.3,1-0.7,1.3-1.2V17.5z"/>
		<path id="XMLID_80_" class="st0" d="M266.5,4.2c-0.3-0.1-0.5-0.1-0.9-0.1c-0.7,0-1.2,0.1-1.4,0.3c-0.2,0.2-0.3,0.6-0.3,1.1V7h3.1
			v4.5h-3.1v13.6h-4.7V11.5h-2.2V7h2.2V4.8c0-1.7,0.4-2.9,1.3-3.6c0.9-0.7,2.2-1.1,3.8-1.1c1.2,0,2.2,0.2,3,0.5v3.8
			C267,4.3,266.7,4.2,266.5,4.2z"/>
		<path id="XMLID_77_" class="st0" d="M284.8,16.1c0,0.3,0,0.6,0,0.9c0,0.2,0,0.5-0.1,0.6h-10.8c0,0.6,0.2,1.1,0.4,1.6
			c0.2,0.4,0.5,0.8,0.9,1c0.3,0.3,0.7,0.5,1.2,0.6c0.4,0.1,0.9,0.2,1.3,0.2c0.7,0,1.3-0.1,1.8-0.3c0.5-0.2,1-0.5,1.3-0.9l3.4,2.8
			c-0.7,0.9-1.7,1.7-2.9,2.2s-2.4,0.8-3.6,0.8c-1.3,0-2.5-0.2-3.5-0.7c-1-0.4-1.9-1.1-2.7-1.9c-0.7-0.8-1.3-1.8-1.7-3
			c-0.4-1.2-0.6-2.4-0.6-3.9c0-1.4,0.2-2.6,0.6-3.8c0.4-1.2,1-2.2,1.7-3c0.7-0.8,1.6-1.5,2.5-1.9c1-0.5,2-0.7,3.2-0.7
			c1.2,0,2.3,0.2,3.2,0.7c1,0.5,1.7,1.2,2.4,2c0.6,0.9,1.1,1.9,1.5,3C284.6,13.6,284.8,14.8,284.8,16.1z M280.2,14
			c0-0.4-0.1-0.8-0.3-1.2s-0.3-0.7-0.6-1c-0.3-0.3-0.6-0.6-1-0.7c-0.4-0.2-0.9-0.3-1.4-0.3c-0.9,0-1.6,0.3-2.1,0.9
			c-0.5,0.6-0.8,1.4-0.9,2.3H280.2z"/>
		<path id="XMLID_74_" class="st0" d="M307.3,25.1v-1.2c-0.4,0.5-1,0.8-1.7,1.1c-0.7,0.3-1.5,0.4-2.3,0.4c-0.8,0-1.7-0.1-2.5-0.4
			c-0.8-0.3-1.5-0.7-2.1-1.2c-0.6-0.5-1.1-1.2-1.5-2c-0.4-0.8-0.6-1.8-0.6-2.9c0-1,0.2-1.9,0.6-2.6c0.4-0.8,0.9-1.4,1.6-1.9
			c0.7-0.5,1.4-0.9,2.3-1.1c0.9-0.3,1.8-0.4,2.9-0.4c0.8,0,1.5,0.1,2.1,0.2c0.5,0.1,1,0.3,1.4,0.5v-0.9c0-0.6-0.2-1.2-0.6-1.6
			c-0.4-0.4-1.1-0.7-1.9-0.7c-0.6,0-1,0-1.5,0.1c-0.4,0-0.8,0.1-1.2,0.2c-0.4,0.1-0.8,0.2-1.1,0.4c-0.4,0.1-0.8,0.3-1.2,0.6
			l-1.8-3.3c0.5-0.3,1-0.6,1.5-0.8c0.5-0.2,1-0.4,1.5-0.6c0.5-0.1,1.1-0.3,1.7-0.3c0.6-0.1,1.3-0.1,2-0.1c1.1,0,2.1,0.1,3,0.4
			c0.9,0.3,1.7,0.7,2.3,1.2s1.1,1.2,1.5,2c0.4,0.8,0.5,1.7,0.5,2.7v12.1H307.3z M307.3,17.5c-0.4-0.3-0.9-0.4-1.3-0.6
			c-0.5-0.1-1.1-0.2-2-0.2c-0.9,0-1.6,0.2-2,0.6c-0.5,0.4-0.7,1-0.7,1.7c0,0.6,0.2,1.2,0.6,1.7c0.4,0.5,1.1,0.7,2.1,0.7
			c0.8,0,1.5-0.2,2-0.5c0.6-0.3,1-0.7,1.3-1.2V17.5z"/>
		<path id="XMLID_72_" class="st0" d="M330.2,19.8c0,1-0.2,1.9-0.6,2.6s-0.9,1.3-1.6,1.8c-0.7,0.4-1.4,0.8-2.3,1
			c-0.9,0.2-1.8,0.3-2.9,0.3c-1.4,0-2.8-0.2-4.1-0.6c-1.3-0.4-2.5-0.9-3.4-1.5l1.6-3.6c1,0.5,2,0.9,3,1.2c1,0.3,2.1,0.4,3.3,0.4
			c0.9,0,1.6-0.1,1.9-0.3c0.3-0.2,0.5-0.6,0.5-1c0-0.4-0.2-0.7-0.6-1c-0.4-0.3-1.1-0.5-2.1-0.8c-1.1-0.3-2.1-0.6-2.9-1
			c-0.9-0.3-1.6-0.7-2.3-1.2c-0.6-0.4-1.1-1-1.4-1.6c-0.3-0.6-0.5-1.4-0.5-2.4c0-0.9,0.2-1.7,0.5-2.4c0.4-0.7,0.9-1.2,1.5-1.7
			c0.6-0.4,1.4-0.8,2.3-1c0.9-0.2,1.9-0.3,2.9-0.3c1.1,0,2.3,0.2,3.5,0.5c1.2,0.3,2.2,0.7,3.2,1.3l-1.5,3.7
			c-0.9-0.5-1.8-0.8-2.7-1.1s-1.8-0.4-2.5-0.4c-1,0-1.6,0.1-1.9,0.3c-0.3,0.2-0.5,0.5-0.5,0.9c0,0.2,0,0.4,0.1,0.5s0.3,0.3,0.5,0.4
			c0.3,0.1,0.6,0.3,1.1,0.5c0.5,0.2,1.1,0.4,1.9,0.7c0.8,0.3,1.6,0.6,2.3,0.9c0.7,0.3,1.4,0.7,1.9,1.1c0.5,0.4,1,1,1.3,1.6
			C330,18.1,330.2,18.9,330.2,19.8z"/>
		<path id="XMLID_69_" class="st0" d="M353.1,25.1v-1.2c-0.4,0.5-1,0.8-1.7,1.1c-0.7,0.3-1.5,0.4-2.3,0.4c-0.8,0-1.7-0.1-2.5-0.4
			c-0.8-0.3-1.5-0.7-2.1-1.2c-0.6-0.5-1.1-1.2-1.5-2c-0.4-0.8-0.6-1.8-0.6-2.9c0-1,0.2-1.9,0.6-2.6c0.4-0.8,0.9-1.4,1.6-1.9
			c0.7-0.5,1.4-0.9,2.3-1.1c0.9-0.3,1.8-0.4,2.9-0.4c0.8,0,1.5,0.1,2.1,0.2c0.5,0.1,1,0.3,1.4,0.5v-0.9c0-0.6-0.2-1.2-0.6-1.6
			c-0.4-0.4-1.1-0.7-1.9-0.7c-0.6,0-1,0-1.5,0.1c-0.4,0-0.8,0.1-1.2,0.2c-0.4,0.1-0.8,0.2-1.1,0.4c-0.4,0.1-0.8,0.3-1.2,0.6
			l-1.8-3.3c0.5-0.3,1-0.6,1.5-0.8c0.5-0.2,1-0.4,1.5-0.6c0.5-0.1,1.1-0.3,1.7-0.3c0.6-0.1,1.3-0.1,2-0.1c1.1,0,2.1,0.1,3,0.4
			c0.9,0.3,1.7,0.7,2.3,1.2s1.1,1.2,1.5,2c0.4,0.8,0.5,1.7,0.5,2.7v12.1H353.1z M353.1,17.5c-0.4-0.3-0.9-0.4-1.3-0.6
			c-0.5-0.1-1.1-0.2-2-0.2c-0.9,0-1.6,0.2-2,0.6c-0.5,0.4-0.7,1-0.7,1.7c0,0.6,0.2,1.2,0.6,1.7c0.4,0.5,1.1,0.7,2.1,0.7
			c0.8,0,1.5-0.2,2-0.5c0.6-0.3,1-0.7,1.3-1.2V17.5z"/>
		<path id="XMLID_67_" class="st0" d="M389.6,25.1v-8.8c0-0.3,0-0.7,0-1.2c0-0.5,0-1,0-1.5s0-1,0-1.5s0-0.8,0-1
			c-0.2,0.5-0.4,1.1-0.7,1.8c-0.3,0.8-0.6,1.5-0.9,2.2l-4.9,10.7l-4.9-10.7c-0.3-0.7-0.6-1.4-0.9-2.2c-0.3-0.8-0.6-1.4-0.7-1.8
			c0,0.2,0,0.6,0,1c0,0.5,0,1,0,1.5s0,1,0,1.5c0,0.5,0,0.9,0,1.2v8.8h-4.7V1h4.7l5,10.9c0.2,0.3,0.3,0.7,0.5,1.1
			c0.2,0.4,0.3,0.8,0.5,1.1s0.3,0.7,0.4,1c0.1,0.3,0.2,0.6,0.3,0.8c0.2-0.5,0.4-1.1,0.7-1.8c0.3-0.8,0.6-1.5,0.9-2.2L389.6,1h4.7
			v24.1H389.6z"/>
		<path id="XMLID_64_" class="st0" d="M414.6,16.1c0,1.4-0.2,2.6-0.6,3.8c-0.4,1.2-1,2.1-1.7,3s-1.6,1.5-2.6,1.9
			c-1,0.5-2.1,0.7-3.3,0.7s-2.3-0.2-3.2-0.7c-1-0.5-1.9-1.1-2.6-1.9s-1.3-1.8-1.7-3c-0.4-1.2-0.6-2.4-0.6-3.8c0-1.4,0.2-2.6,0.6-3.8
			c0.4-1.2,1-2.2,1.7-3c0.7-0.8,1.6-1.5,2.6-1.9c1-0.5,2.1-0.7,3.2-0.7s2.3,0.2,3.3,0.7c1,0.5,1.9,1.1,2.6,1.9
			c0.7,0.8,1.3,1.8,1.7,3C414.4,13.4,414.6,14.7,414.6,16.1z M409.8,16.1c0-1.4-0.3-2.5-0.8-3.5c-0.5-0.9-1.4-1.4-2.5-1.4
			c-1.1,0-2,0.5-2.5,1.4c-0.5,0.9-0.8,2.1-0.8,3.5c0,1.4,0.3,2.6,0.8,3.5c0.5,0.9,1.4,1.4,2.5,1.4c0.6,0,1.1-0.1,1.5-0.4
			c0.4-0.3,0.8-0.6,1-1.1c0.3-0.5,0.5-1,0.6-1.6S409.8,16.7,409.8,16.1z"/>
		<path id="XMLID_62_" class="st0" d="M428.6,25.1v-9.8c0-1.6-0.3-2.7-0.8-3.3c-0.5-0.6-1.3-0.9-2.3-0.9c-1,0-1.7,0.3-2.3,0.9
			s-0.8,1.7-0.8,3.2v9.9h-4.7V7h4.7v1.2c0.4-0.4,1-0.8,1.7-1.1c0.7-0.3,1.6-0.5,2.5-0.5c2.3,0,4,0.7,5.1,2.2s1.6,3.5,1.6,6v10.2
			H428.6z"/>
		<path id="XMLID_59_" class="st0" d="M452.6,16.1c0,1.4-0.2,2.6-0.6,3.8c-0.4,1.2-1,2.1-1.7,3s-1.6,1.5-2.6,1.9
			c-1,0.5-2.1,0.7-3.3,0.7s-2.3-0.2-3.2-0.7c-1-0.5-1.9-1.1-2.6-1.9s-1.3-1.8-1.7-3c-0.4-1.2-0.6-2.4-0.6-3.8c0-1.4,0.2-2.6,0.6-3.8
			c0.4-1.2,1-2.2,1.7-3c0.7-0.8,1.6-1.5,2.6-1.9c1-0.5,2.1-0.7,3.2-0.7s2.3,0.2,3.3,0.7c1,0.5,1.9,1.1,2.6,1.9
			c0.7,0.8,1.3,1.8,1.7,3C452.4,13.4,452.6,14.7,452.6,16.1z M447.8,16.1c0-1.4-0.3-2.5-0.8-3.5c-0.5-0.9-1.4-1.4-2.5-1.4
			c-1.1,0-2,0.5-2.5,1.4c-0.5,0.9-0.8,2.1-0.8,3.5c0,1.4,0.3,2.6,0.8,3.5c0.5,0.9,1.4,1.4,2.5,1.4c0.6,0,1.1-0.1,1.5-0.4
			c0.4-0.3,0.8-0.6,1-1.1c0.3-0.5,0.5-1,0.6-1.6S447.8,16.7,447.8,16.1z"/>
		<path id="XMLID_57_" class="st0" d="M476,5.7v19.3h-4.8V5.7h-6.9V1H483v4.7H476z"/>
		<path id="XMLID_55_" class="st0" d="M497.1,25.1v-9.8c0-1.6-0.3-2.7-0.8-3.3c-0.5-0.6-1.3-0.9-2.3-0.9c-1,0-1.7,0.3-2.3,0.9
			s-0.8,1.7-0.8,3.2v9.9h-4.7V2.4L491,0v8.2c0.4-0.4,1-0.8,1.7-1.1c0.7-0.3,1.6-0.5,2.5-0.5c2.3,0,4,0.7,5.1,2.2s1.6,3.5,1.6,6v10.2
			H497.1z"/>
		<path id="XMLID_52_" class="st0" d="M520.4,16.1c0,0.3,0,0.6,0,0.9c0,0.2,0,0.5-0.1,0.6h-10.8c0,0.6,0.2,1.1,0.4,1.6
			c0.2,0.4,0.5,0.8,0.9,1c0.3,0.3,0.7,0.5,1.2,0.6c0.4,0.1,0.9,0.2,1.3,0.2c0.7,0,1.3-0.1,1.8-0.3c0.5-0.2,1-0.5,1.3-0.9l3.4,2.8
			c-0.7,0.9-1.7,1.7-2.9,2.2s-2.4,0.8-3.6,0.8c-1.3,0-2.5-0.2-3.5-0.7c-1-0.4-1.9-1.1-2.7-1.9c-0.7-0.8-1.3-1.8-1.7-3
			c-0.4-1.2-0.6-2.4-0.6-3.9c0-1.4,0.2-2.6,0.6-3.8c0.4-1.2,1-2.2,1.7-3c0.7-0.8,1.6-1.5,2.5-1.9c1-0.5,2-0.7,3.2-0.7
			c1.2,0,2.3,0.2,3.2,0.7c1,0.5,1.7,1.2,2.4,2c0.6,0.9,1.1,1.9,1.5,3C520.3,13.6,520.4,14.8,520.4,16.1z M515.8,14
			c0-0.4-0.1-0.8-0.3-1.2s-0.3-0.7-0.6-1c-0.3-0.3-0.6-0.6-1-0.7c-0.4-0.2-0.9-0.3-1.4-0.3c-0.9,0-1.6,0.3-2.1,0.9
			c-0.5,0.6-0.8,1.4-0.9,2.3H515.8z"/>
		<path id="XMLID_50_" class="st0" d="M534.2,12.6c-0.4-0.3-0.8-0.6-1.3-0.8c-0.5-0.2-1-0.3-1.5-0.3c-0.5,0-0.9,0.1-1.3,0.2
			c-0.4,0.1-0.7,0.3-1,0.6c-0.3,0.3-0.5,0.7-0.6,1.2c-0.1,0.5-0.2,1.1-0.2,1.9v9.8h-4.7V7h4.7v1.2c0.4-0.4,0.9-0.8,1.5-1.1
			c0.6-0.3,1.3-0.5,2.2-0.5c0.8,0,1.5,0.1,2,0.4c0.6,0.3,1,0.6,1.3,0.9L534.2,12.6z"/>
		<path id="XMLID_47_" class="st0" d="M547.7,25.1v-1.2c-0.4,0.5-1,0.8-1.7,1.1c-0.7,0.3-1.5,0.4-2.3,0.4c-0.8,0-1.7-0.1-2.5-0.4
			c-0.8-0.3-1.5-0.7-2.1-1.2c-0.6-0.5-1.1-1.2-1.5-2c-0.4-0.8-0.6-1.8-0.6-2.9c0-1,0.2-1.9,0.6-2.6c0.4-0.8,0.9-1.4,1.6-1.9
			c0.7-0.5,1.4-0.9,2.3-1.1c0.9-0.3,1.8-0.4,2.9-0.4c0.8,0,1.5,0.1,2.1,0.2c0.5,0.1,1,0.3,1.4,0.5v-0.9c0-0.6-0.2-1.2-0.6-1.6
			c-0.4-0.4-1.1-0.7-1.9-0.7c-0.6,0-1,0-1.5,0.1c-0.4,0-0.8,0.1-1.2,0.2c-0.4,0.1-0.8,0.2-1.1,0.4c-0.4,0.1-0.8,0.3-1.2,0.6
			l-1.8-3.3c0.5-0.3,1-0.6,1.5-0.8c0.5-0.2,1-0.4,1.5-0.6c0.5-0.1,1.1-0.3,1.7-0.3c0.6-0.1,1.3-0.1,2-0.1c1.1,0,2.1,0.1,3,0.4
			c0.9,0.3,1.7,0.7,2.3,1.2s1.1,1.2,1.5,2c0.4,0.8,0.5,1.7,0.5,2.7v12.1H547.7z M547.7,17.5c-0.4-0.3-0.9-0.4-1.3-0.6
			c-0.5-0.1-1.1-0.2-2-0.2c-0.9,0-1.6,0.2-2,0.6c-0.5,0.4-0.7,1-0.7,1.7c0,0.6,0.2,1.2,0.6,1.7c0.4,0.5,1.1,0.7,2.1,0.7
			c0.8,0,1.5-0.2,2-0.5c0.6-0.3,1-0.7,1.3-1.2V17.5z"/>
		<path id="XMLID_44_" class="st0" d="M571.9,16.3c0,1.4-0.2,2.6-0.5,3.7c-0.3,1.1-0.8,2.1-1.4,2.9c-0.6,0.8-1.3,1.4-2.2,1.9
			c-0.9,0.4-1.9,0.7-3,0.7c-0.8,0-1.5-0.1-2.2-0.4c-0.7-0.3-1.2-0.6-1.6-1v5.3l-4.7,2.4V7h4.7v1.1c0.5-0.4,1-0.7,1.6-1
			c0.6-0.3,1.3-0.5,2.2-0.5c1,0,1.9,0.2,2.7,0.6c0.8,0.4,1.6,0.9,2.2,1.7c0.6,0.8,1.1,1.8,1.5,3C571.7,13.1,571.9,14.6,571.9,16.3z
			 M567.1,16.4c0-1.9-0.3-3.2-0.8-4c-0.6-0.8-1.3-1.2-2.3-1.2c-0.7,0-1.3,0.1-1.8,0.4c-0.4,0.3-0.8,0.6-1.2,1.1v6.8
			c0.8,1,1.8,1.5,3.2,1.5C566.1,21,567.1,19.4,567.1,16.4z"/>
		<path id="XMLID_42_" class="st0" d="M582.9,31.4h-4.7l2.4-6.4l-7-18.1h5.2l3,8.7c0.3,0.7,0.5,1.4,0.7,2.2c0.2,0.8,0.4,1.4,0.5,1.8
			c0.1-0.5,0.3-1.1,0.5-1.8c0.2-0.7,0.4-1.5,0.7-2.2l3-8.7h5.1L582.9,31.4z"/>
		<path id="XMLID_39_" class="st0" d="M18.8,49.9c0,1.4-0.2,2.6-0.7,3.6s-1,1.8-1.8,2.5c-0.8,0.6-1.7,1.1-2.8,1.4
			c-1.1,0.3-2.2,0.4-3.5,0.4H4.8v8.5H0V42.3h10.5c1.1,0,2.2,0.2,3.2,0.5s1.9,0.8,2.6,1.4c0.8,0.6,1.4,1.4,1.8,2.4
			C18.6,47.5,18.8,48.6,18.8,49.9z M13.9,50c0-1.1-0.3-1.8-0.9-2.3c-0.6-0.5-1.5-0.7-2.6-0.7H4.8v6.2h5.6
			C12.7,53.1,13.9,52.1,13.9,50z"/>
		<path id="XMLID_36_" class="st0" d="M31.9,66.3v-1.2c-0.4,0.5-1,0.8-1.7,1.1c-0.7,0.3-1.5,0.4-2.3,0.4c-0.8,0-1.7-0.1-2.5-0.4
			c-0.8-0.3-1.5-0.7-2.1-1.2c-0.6-0.5-1.1-1.2-1.5-2c-0.4-0.8-0.6-1.8-0.6-2.9c0-1,0.2-1.9,0.6-2.6c0.4-0.8,0.9-1.4,1.6-1.9
			c0.7-0.5,1.4-0.9,2.3-1.1c0.9-0.3,1.8-0.4,2.9-0.4c0.8,0,1.5,0.1,2.1,0.2c0.5,0.1,1,0.3,1.4,0.5v-0.9c0-0.6-0.2-1.2-0.6-1.6
			c-0.4-0.4-1.1-0.7-1.9-0.7c-0.6,0-1,0-1.5,0.1c-0.4,0-0.8,0.1-1.2,0.2c-0.4,0.1-0.8,0.2-1.1,0.4c-0.4,0.1-0.8,0.3-1.2,0.6
			l-1.8-3.3c0.5-0.3,1-0.6,1.5-0.8c0.5-0.2,1-0.4,1.5-0.6c0.5-0.1,1.1-0.3,1.7-0.3c0.6-0.1,1.3-0.1,2-0.1c1.1,0,2.1,0.1,3,0.4
			c0.9,0.3,1.7,0.7,2.3,1.2s1.1,1.2,1.5,2c0.4,0.8,0.5,1.7,0.5,2.7v12.1H31.9z M31.9,58.8c-0.4-0.3-0.9-0.4-1.3-0.6
			c-0.5-0.1-1.1-0.2-2-0.2c-0.9,0-1.6,0.2-2,0.6c-0.5,0.4-0.7,1-0.7,1.7c0,0.6,0.2,1.2,0.6,1.7c0.4,0.5,1.1,0.7,2.1,0.7
			c0.8,0,1.5-0.2,2-0.5c0.6-0.3,1-0.7,1.3-1.2V58.8z"/>
		<path id="XMLID_34_" class="st0" d="M51.1,53.8c-0.4-0.3-0.8-0.6-1.3-0.8c-0.5-0.2-1-0.3-1.5-0.3c-0.5,0-0.9,0.1-1.3,0.2
			c-0.4,0.1-0.7,0.3-1,0.6c-0.3,0.3-0.5,0.7-0.6,1.2c-0.1,0.5-0.2,1.1-0.2,1.9v9.8h-4.7V48.3h4.7v1.2c0.4-0.4,0.9-0.8,1.5-1.1
			c0.6-0.3,1.3-0.5,2.2-0.5c0.8,0,1.5,0.1,2,0.4c0.6,0.3,1,0.6,1.3,0.9L51.1,53.8z"/>
		<path id="XMLID_32_" class="st0" d="M64.7,65.6c-0.4,0.3-0.9,0.6-1.6,0.8c-0.7,0.2-1.4,0.3-2.1,0.3c-0.7,0-1.4-0.1-2-0.4
			c-0.6-0.3-1.1-0.6-1.5-1.1c-0.4-0.5-0.7-1.1-1-1.7c-0.2-0.7-0.3-1.4-0.3-2.2v-8.5h-3v-4.5h3v-4.6l4.7-2.4v7h4.3v4.5H61V60
			c0,0.9,0.1,1.5,0.4,1.7c0.3,0.3,0.7,0.4,1.3,0.4c0.4,0,0.8-0.1,1.2-0.3c0.4-0.2,0.9-0.6,1.5-1.1L64.7,65.6z"/>
		<path id="XMLID_29_" class="st0" d="M74.5,44.1c0,0.7-0.3,1.4-0.8,1.9c-0.5,0.5-1.2,0.8-1.9,0.8s-1.4-0.3-1.9-0.8
			c-0.5-0.5-0.8-1.2-0.8-1.9c0-0.7,0.3-1.4,0.8-1.9c0.5-0.5,1.2-0.8,1.9-0.8s1.4,0.3,1.9,0.8C74.3,42.7,74.5,43.3,74.5,44.1z
			 M69.5,66.3V48.3h4.7v18.1H69.5z"/>
		<path id="XMLID_26_" class="st0" d="M88.3,66.3v-1.2c-0.4,0.5-1,0.8-1.7,1.1c-0.7,0.3-1.5,0.4-2.3,0.4c-0.8,0-1.7-0.1-2.5-0.4
			c-0.8-0.3-1.5-0.7-2.1-1.2c-0.6-0.5-1.1-1.2-1.5-2c-0.4-0.8-0.6-1.8-0.6-2.9c0-1,0.2-1.9,0.6-2.6c0.4-0.8,0.9-1.4,1.6-1.9
			c0.7-0.5,1.4-0.9,2.3-1.1c0.9-0.3,1.8-0.4,2.9-0.4c0.8,0,1.5,0.1,2.1,0.2c0.5,0.1,1,0.3,1.4,0.5v-0.9c0-0.6-0.2-1.2-0.6-1.6
			c-0.4-0.4-1.1-0.7-1.9-0.7c-0.6,0-1,0-1.5,0.1c-0.4,0-0.8,0.1-1.2,0.2c-0.4,0.1-0.8,0.2-1.1,0.4c-0.4,0.1-0.8,0.3-1.2,0.6L79,49.7
			c0.5-0.3,1-0.6,1.5-0.8c0.5-0.2,1-0.4,1.5-0.6c0.5-0.1,1.1-0.3,1.7-0.3c0.6-0.1,1.3-0.1,2-0.1c1.1,0,2.1,0.1,3,0.4
			c0.9,0.3,1.7,0.7,2.3,1.2s1.1,1.2,1.5,2c0.4,0.8,0.5,1.7,0.5,2.7v12.1H88.3z M88.3,58.8c-0.4-0.3-0.9-0.4-1.3-0.6
			c-0.5-0.1-1.1-0.2-2-0.2c-0.9,0-1.6,0.2-2,0.6c-0.5,0.4-0.7,1-0.7,1.7c0,0.6,0.2,1.2,0.6,1.7c0.4,0.5,1.1,0.7,2.1,0.7
			c0.8,0,1.5-0.2,2-0.5c0.6-0.3,1-0.7,1.3-1.2V58.8z"/>
		<path id="XMLID_24_" class="st0" d="M97.1,66.3V43.6l4.7-2.4v25.1H97.1z"/>
		<path id="XMLID_22_" class="st0" d="M116.2,66.3V42.3h16.7V47H121v4.2h6.9v4.7H121v5.8h12.4v4.7H116.2z"/>
		<path id="XMLID_19_" class="st0" d="M152.8,57.5c0,1.4-0.2,2.6-0.5,3.7c-0.3,1.1-0.8,2.1-1.4,2.9c-0.6,0.8-1.3,1.4-2.2,1.9
			c-0.9,0.4-1.9,0.7-3,0.7c-0.8,0-1.5-0.1-2.2-0.4c-0.7-0.3-1.2-0.6-1.6-1v5.3l-4.7,2.4V48.3h4.7v1.1c0.5-0.4,1-0.7,1.6-1
			c0.6-0.3,1.3-0.5,2.2-0.5c1,0,1.9,0.2,2.7,0.6c0.8,0.4,1.6,0.9,2.2,1.7c0.6,0.8,1.1,1.8,1.5,3C152.6,54.4,152.8,55.9,152.8,57.5z
			 M148,57.6c0-1.9-0.3-3.2-0.8-4c-0.6-0.8-1.3-1.2-2.3-1.2c-0.7,0-1.3,0.1-1.8,0.4c-0.4,0.3-0.8,0.6-1.2,1.1v6.8
			c0.8,1,1.8,1.5,3.2,1.5C147,62.2,148,60.7,148,57.6z"/>
		<path id="XMLID_16_" class="st0" d="M161.2,44.1c0,0.7-0.3,1.4-0.8,1.9c-0.5,0.5-1.2,0.8-1.9,0.8s-1.4-0.3-1.9-0.8
			c-0.5-0.5-0.8-1.2-0.8-1.9c0-0.7,0.3-1.4,0.8-1.9c0.5-0.5,1.2-0.8,1.9-0.8s1.4,0.3,1.9,0.8C160.9,42.7,161.2,43.3,161.2,44.1z
			 M156.1,66.3V48.3h4.7v18.1H156.1z"/>
		<path id="XMLID_14_" class="st0" d="M165.2,66.3V43.6l4.7-2.4v25.1H165.2z"/>
		<path id="XMLID_11_" class="st0" d="M188.9,57.3c0,0.3,0,0.6,0,0.9c0,0.2,0,0.5-0.1,0.6H178c0,0.6,0.2,1.1,0.4,1.6
			c0.2,0.4,0.5,0.8,0.9,1c0.3,0.3,0.7,0.5,1.2,0.6c0.4,0.1,0.9,0.2,1.3,0.2c0.7,0,1.3-0.1,1.8-0.3c0.5-0.2,1-0.5,1.3-0.9l3.4,2.8
			c-0.7,0.9-1.7,1.7-2.9,2.2s-2.4,0.8-3.6,0.8c-1.3,0-2.5-0.2-3.5-0.7c-1-0.4-1.9-1.1-2.7-1.9c-0.7-0.8-1.3-1.8-1.7-3
			c-0.4-1.2-0.6-2.4-0.6-3.9c0-1.4,0.2-2.6,0.6-3.8c0.4-1.2,1-2.2,1.7-3c0.7-0.8,1.6-1.5,2.5-1.9c1-0.5,2-0.7,3.2-0.7
			c1.2,0,2.3,0.2,3.2,0.7c1,0.5,1.7,1.2,2.4,2c0.6,0.9,1.1,1.9,1.5,3C188.7,54.8,188.9,56,188.9,57.3z M184.3,55.3
			c0-0.4-0.1-0.8-0.3-1.2s-0.3-0.7-0.6-1c-0.3-0.3-0.6-0.6-1-0.7c-0.4-0.2-0.9-0.3-1.4-0.3c-0.9,0-1.6,0.3-2.1,0.9
			c-0.5,0.6-0.8,1.4-0.9,2.3H184.3z"/>
		<path id="XMLID_8_" class="st0" d="M207.6,57.5c0,1.4-0.2,2.6-0.5,3.7c-0.3,1.1-0.8,2.1-1.4,2.9c-0.6,0.8-1.3,1.4-2.2,1.9
			c-0.9,0.4-1.9,0.7-3,0.7c-0.8,0-1.5-0.1-2.2-0.4c-0.7-0.3-1.2-0.6-1.6-1v5.3l-4.7,2.4V48.3h4.7v1.1c0.5-0.4,1-0.7,1.6-1
			c0.6-0.3,1.3-0.5,2.2-0.5c1,0,1.9,0.2,2.7,0.6c0.8,0.4,1.6,0.9,2.2,1.7c0.6,0.8,1.1,1.8,1.5,3C207.5,54.4,207.6,55.9,207.6,57.5z
			 M202.8,57.6c0-1.9-0.3-3.2-0.8-4c-0.6-0.8-1.3-1.2-2.3-1.2c-0.7,0-1.3,0.1-1.8,0.4c-0.4,0.3-0.8,0.6-1.2,1.1v6.8
			c0.8,1,1.8,1.5,3.2,1.5C201.9,62.2,202.8,60.7,202.8,57.6z"/>
		<path id="XMLID_6_" class="st0" d="M225.1,61.1c0,1-0.2,1.9-0.6,2.6s-0.9,1.3-1.6,1.8c-0.7,0.4-1.4,0.8-2.3,1
			c-0.9,0.2-1.8,0.3-2.9,0.3c-1.4,0-2.8-0.2-4.1-0.6c-1.3-0.4-2.5-0.9-3.4-1.5l1.6-3.6c1,0.5,2,0.9,3,1.2c1,0.3,2.1,0.4,3.3,0.4
			c0.9,0,1.6-0.1,1.9-0.3c0.3-0.2,0.5-0.6,0.5-1c0-0.4-0.2-0.7-0.6-1c-0.4-0.3-1.1-0.5-2.1-0.8c-1.1-0.3-2.1-0.6-2.9-1
			c-0.9-0.3-1.6-0.7-2.3-1.2c-0.6-0.4-1.1-1-1.4-1.6c-0.3-0.6-0.5-1.4-0.5-2.4c0-0.9,0.2-1.7,0.5-2.4c0.4-0.7,0.9-1.2,1.5-1.7
			c0.6-0.4,1.4-0.8,2.3-1c0.9-0.2,1.9-0.3,2.9-0.3c1.1,0,2.3,0.2,3.5,0.5c1.2,0.3,2.2,0.7,3.2,1.3l-1.5,3.7
			c-0.9-0.5-1.8-0.8-2.7-1.1s-1.8-0.4-2.5-0.4c-1,0-1.6,0.1-1.9,0.3c-0.3,0.2-0.5,0.5-0.5,0.9c0,0.2,0,0.4,0.1,0.5s0.3,0.3,0.5,0.4
			c0.3,0.1,0.6,0.3,1.1,0.5c0.5,0.2,1.1,0.4,1.9,0.7c0.8,0.3,1.6,0.6,2.3,0.9c0.7,0.3,1.4,0.7,1.9,1.1c0.5,0.4,1,1,1.3,1.6
			C224.9,59.4,225.1,60.2,225.1,61.1z"/>
		<path id="XMLID_4_" class="st0" d="M236.5,72.7h-4.7l2.4-6.4l-7-18.1h5.2l3,8.7c0.3,0.7,0.5,1.4,0.7,2.2c0.2,0.8,0.4,1.4,0.5,1.8
			c0.1-0.5,0.3-1.1,0.5-1.8c0.2-0.7,0.4-1.5,0.7-2.2l3-8.7h5.1L236.5,72.7z"/>
	</g>
</g>
</svg>
