<!-- Generator: Adobe Illustrator 22.1.0, SVG Export Plug-In  -->
<svg version="1.1"
	 xmlns="http://www.w3.org/2000/svg" xmlns:xlink="http://www.w3.org/1999/xlink" xmlns:a="http://ns.adobe.com/AdobeSVGViewerExtensions/3.0/"
	 x="0px" y="0px" width="589.9px" height="69.3px" viewBox="0 0 589.9 69.3" style="enable-background:new 0 0 589.9 69.3;"
	 xml:space="preserve">
<style type="text/css">
	.st0{fill:#266093;}
</style>
<defs>
</defs>
<g id="XMLID_2_">
	<g id="XMLID_4_">
		<path id="XMLID_115_" class="st0" d="M15.3,24.8l-4.2-8.6H6.3v8.6H1.5V1h11.1c1.1,0,2.2,0.2,3.2,0.5c1,0.3,1.9,0.8,2.6,1.4
			c0.7,0.6,1.3,1.4,1.8,2.4c0.4,0.9,0.6,2,0.6,3.3c0,1.8-0.4,3.3-1.1,4.4c-0.8,1.1-1.9,2-3.4,2.6l4.6,9.2H15.3z M15.9,8.6
			c0-1.1-0.3-1.9-0.9-2.3c-0.6-0.5-1.4-0.7-2.5-0.7H6.3v6.1h6.2C14.8,11.7,15.9,10.7,15.9,8.6z"/>
		<path id="XMLID_112_" class="st0" d="M39,15.9c0,0.3,0,0.6,0,0.9c0,0.2,0,0.4-0.1,0.6H28.2c0,0.6,0.2,1.1,0.4,1.6
			c0.2,0.4,0.5,0.8,0.8,1c0.3,0.3,0.7,0.5,1.1,0.6c0.4,0.1,0.8,0.2,1.3,0.2c0.7,0,1.2-0.1,1.8-0.3c0.5-0.2,1-0.5,1.3-0.9l3.3,2.8
			c-0.7,0.9-1.7,1.6-2.8,2.1c-1.2,0.5-2.3,0.7-3.5,0.7c-1.3,0-2.4-0.2-3.5-0.7c-1-0.4-1.9-1.1-2.6-1.9c-0.7-0.8-1.3-1.8-1.7-2.9
			s-0.6-2.4-0.6-3.8c0-1.4,0.2-2.6,0.6-3.8c0.4-1.1,1-2.1,1.7-3c0.7-0.8,1.6-1.5,2.5-1.9c1-0.5,2-0.7,3.1-0.7c1.2,0,2.2,0.2,3.2,0.7
			c0.9,0.5,1.7,1.2,2.4,2c0.6,0.8,1.1,1.8,1.5,3C38.8,13.4,39,14.6,39,15.9z M34.4,13.8c0-0.4-0.1-0.8-0.3-1.2s-0.3-0.7-0.6-1
			c-0.3-0.3-0.6-0.5-1-0.7c-0.4-0.2-0.8-0.3-1.4-0.3c-0.9,0-1.5,0.3-2,0.9s-0.8,1.4-0.9,2.3H34.4z"/>
		<path id="XMLID_110_" class="st0" d="M52.1,24c-0.4,0.3-0.9,0.6-1.6,0.8c-0.7,0.2-1.3,0.3-2.1,0.3c-0.7,0-1.4-0.1-2-0.4
			c-0.6-0.3-1.1-0.6-1.5-1.1s-0.7-1-1-1.7c-0.2-0.7-0.3-1.4-0.3-2.2v-8.4h-3V6.9h3V2.3L48.4,0v6.9h4.3v4.4h-4.3v7.2
			c0,0.9,0.1,1.4,0.4,1.7c0.3,0.3,0.7,0.4,1.3,0.4c0.4,0,0.8-0.1,1.2-0.3c0.4-0.2,0.9-0.6,1.4-1.1L52.1,24z"/>
		<path id="XMLID_107_" class="st0" d="M66.4,24.8v-1.2c-0.4,0.5-1,0.8-1.7,1.1c-0.7,0.3-1.5,0.4-2.3,0.4c-0.8,0-1.7-0.1-2.4-0.4
			c-0.8-0.3-1.5-0.7-2.1-1.2c-0.6-0.5-1.1-1.2-1.5-2c-0.4-0.8-0.6-1.7-0.6-2.8c0-1,0.2-1.8,0.6-2.6c0.4-0.7,0.9-1.4,1.5-1.9
			c0.7-0.5,1.4-0.9,2.3-1.1c0.9-0.2,1.8-0.4,2.8-0.4c0.8,0,1.5,0.1,2,0.2c0.5,0.1,1,0.3,1.4,0.5v-0.9c0-0.6-0.2-1.2-0.6-1.6
			c-0.4-0.4-1.1-0.7-1.9-0.7c-0.5,0-1,0-1.4,0.1c-0.4,0-0.8,0.1-1.2,0.2c-0.4,0.1-0.7,0.2-1.1,0.4c-0.4,0.1-0.7,0.3-1.2,0.6
			l-1.8-3.3c0.5-0.3,1-0.6,1.5-0.8c0.5-0.2,1-0.4,1.5-0.6c0.5-0.1,1.1-0.3,1.7-0.3c0.6-0.1,1.2-0.1,2-0.1c1.1,0,2.1,0.1,3,0.4
			c0.9,0.3,1.6,0.7,2.3,1.2c0.6,0.5,1.1,1.2,1.5,2s0.5,1.7,0.5,2.7v12H66.4z M66.4,17.3c-0.4-0.2-0.8-0.4-1.3-0.6
			c-0.5-0.1-1.1-0.2-2-0.2c-0.9,0-1.6,0.2-2,0.6c-0.5,0.4-0.7,0.9-0.7,1.7c0,0.6,0.2,1.2,0.6,1.7c0.4,0.5,1.1,0.7,2.1,0.7
			c0.8,0,1.4-0.2,2-0.5c0.6-0.3,1-0.7,1.2-1.1V17.3z"/>
		<path id="XMLID_104_" class="st0" d="M80.1,2.8c0,0.7-0.3,1.4-0.8,1.9c-0.5,0.5-1.2,0.8-1.9,0.8c-0.7,0-1.4-0.3-1.9-0.8
			c-0.5-0.5-0.8-1.2-0.8-1.9s0.3-1.4,0.8-1.9c0.5-0.5,1.2-0.8,1.9-0.8c0.7,0,1.4,0.3,1.9,0.8C79.8,1.4,80.1,2.1,80.1,2.8z M75,24.8
			V6.9h4.7v17.8H75z"/>
		<path id="XMLID_102_" class="st0" d="M94.6,24.8v-9.6c0-1.6-0.3-2.7-0.8-3.3c-0.5-0.6-1.3-0.9-2.2-0.9c-1,0-1.7,0.3-2.3,0.9
			c-0.5,0.6-0.8,1.6-0.8,3.2v9.7h-4.7V6.9h4.7v1.2c0.4-0.4,1-0.8,1.7-1.1s1.5-0.5,2.5-0.5c2.3,0,3.9,0.7,5,2.2
			c1.1,1.5,1.6,3.4,1.6,6v10.1H94.6z"/>
		<path id="XMLID_100_" class="st0" d="M117.2,19.6c0,1-0.2,1.9-0.6,2.6c-0.4,0.7-0.9,1.3-1.6,1.7c-0.7,0.4-1.4,0.8-2.3,1
			c-0.9,0.2-1.8,0.3-2.8,0.3c-1.4,0-2.8-0.2-4.1-0.6c-1.3-0.4-2.4-0.9-3.4-1.5l1.6-3.6c1,0.5,1.9,0.9,2.9,1.2c1,0.3,2.1,0.4,3.2,0.4
			c0.9,0,1.6-0.1,1.9-0.3c0.3-0.2,0.5-0.6,0.5-1c0-0.4-0.2-0.7-0.6-1c-0.4-0.2-1.1-0.5-2.1-0.8c-1.1-0.3-2-0.6-2.9-1
			c-0.9-0.3-1.6-0.7-2.2-1.2c-0.6-0.4-1.1-1-1.4-1.6c-0.3-0.6-0.5-1.4-0.5-2.4c0-0.9,0.2-1.7,0.5-2.4c0.4-0.7,0.8-1.2,1.5-1.6
			c0.6-0.4,1.4-0.7,2.3-1c0.9-0.2,1.8-0.3,2.9-0.3c1.1,0,2.3,0.2,3.4,0.5c1.2,0.3,2.2,0.7,3.2,1.3l-1.5,3.7
			c-0.9-0.5-1.8-0.8-2.7-1.1s-1.7-0.4-2.5-0.4c-1,0-1.6,0.1-1.9,0.3c-0.3,0.2-0.5,0.5-0.5,0.9c0,0.2,0,0.3,0.1,0.5
			c0.1,0.1,0.3,0.3,0.5,0.4c0.3,0.1,0.6,0.3,1.1,0.5c0.5,0.2,1.1,0.4,1.9,0.6c0.8,0.3,1.6,0.6,2.3,0.8c0.7,0.3,1.4,0.7,1.9,1.1
			s1,1,1.3,1.6C117.1,17.9,117.2,18.7,117.2,19.6z"/>
		<path id="XMLID_98_" class="st0" d="M131.2,24.8V1h4.8v23.8H131.2z"/>
		<path id="XMLID_96_" class="st0" d="M151,24c-0.4,0.3-0.9,0.6-1.6,0.8c-0.7,0.2-1.3,0.3-2.1,0.3c-0.7,0-1.4-0.1-2-0.4
			c-0.6-0.3-1.1-0.6-1.5-1.1s-0.7-1-1-1.7c-0.2-0.7-0.3-1.4-0.3-2.2v-8.4h-3V6.9h3V2.3l4.7-2.3v6.9h4.3v4.4h-4.3v7.2
			c0,0.9,0.1,1.4,0.4,1.7c0.3,0.3,0.7,0.4,1.3,0.4c0.4,0,0.8-0.1,1.2-0.3c0.4-0.2,0.9-0.6,1.4-1.1L151,24z"/>
		<path id="XMLID_94_" class="st0" d="M169.6,19.6c0,1-0.2,1.9-0.6,2.6c-0.4,0.7-0.9,1.3-1.6,1.7c-0.7,0.4-1.4,0.8-2.3,1
			c-0.9,0.2-1.8,0.3-2.8,0.3c-1.4,0-2.8-0.2-4.1-0.6c-1.3-0.4-2.4-0.9-3.4-1.5l1.6-3.6c1,0.5,1.9,0.9,2.9,1.2c1,0.3,2.1,0.4,3.2,0.4
			c0.9,0,1.6-0.1,1.9-0.3c0.3-0.2,0.5-0.6,0.5-1c0-0.4-0.2-0.7-0.6-1c-0.4-0.2-1.1-0.5-2.1-0.8c-1.1-0.3-2-0.6-2.9-1
			c-0.9-0.3-1.6-0.7-2.2-1.2c-0.6-0.4-1.1-1-1.4-1.6c-0.3-0.6-0.5-1.4-0.5-2.4c0-0.9,0.2-1.7,0.5-2.4c0.4-0.7,0.8-1.2,1.5-1.6
			c0.6-0.4,1.4-0.7,2.3-1c0.9-0.2,1.8-0.3,2.9-0.3c1.1,0,2.3,0.2,3.4,0.5c1.2,0.3,2.2,0.7,3.2,1.3l-1.5,3.7
			c-0.9-0.5-1.8-0.8-2.7-1.1c-0.9-0.2-1.7-0.4-2.5-0.4c-1,0-1.6,0.1-1.9,0.3c-0.3,0.2-0.5,0.5-0.5,0.9c0,0.2,0,0.3,0.1,0.5
			c0.1,0.1,0.3,0.3,0.5,0.4c0.3,0.1,0.6,0.3,1.1,0.5c0.5,0.2,1.1,0.4,1.9,0.6c0.8,0.3,1.6,0.6,2.3,0.8c0.7,0.3,1.4,0.7,1.9,1.1
			s1,1,1.3,1.6C169.4,17.9,169.6,18.7,169.6,19.6z"/>
		<path id="XMLID_92_" class="st0" d="M183.2,24.8V1h16.5v4.7h-11.8v4.1h6.8v4.6h-6.8v5.7h12.3v4.7H183.2z"/>
		<path id="XMLID_90_" class="st0" d="M212.4,4.1C212.1,4,211.8,4,211.5,4c-0.7,0-1.2,0.1-1.4,0.3c-0.2,0.2-0.3,0.6-0.3,1.1v1.5h3
			v4.4h-3v13.4h-4.7V11.3h-2.1V6.9h2.1V4.8c0-1.7,0.4-2.9,1.3-3.6c0.9-0.7,2.1-1.1,3.8-1.1c1.2,0,2.1,0.2,3,0.5v3.8
			C212.9,4.3,212.6,4.2,212.4,4.1z"/>
		<path id="XMLID_88_" class="st0" d="M224.4,4.1C224.1,4,223.8,4,223.5,4c-0.7,0-1.2,0.1-1.4,0.3c-0.2,0.2-0.3,0.6-0.3,1.1v1.5h3
			v4.4h-3v13.4h-4.7V11.3h-2.1V6.9h2.1V4.8c0-1.7,0.4-2.9,1.3-3.6c0.9-0.7,2.1-1.1,3.8-1.1c1.2,0,2.1,0.2,3,0.5v3.8
			C224.9,4.3,224.6,4.2,224.4,4.1z"/>
		<path id="XMLID_85_" class="st0" d="M242.4,15.9c0,0.3,0,0.6,0,0.9c0,0.2,0,0.4-0.1,0.6h-10.7c0,0.6,0.2,1.1,0.4,1.6
			c0.2,0.4,0.5,0.8,0.8,1c0.3,0.3,0.7,0.5,1.1,0.6c0.4,0.1,0.8,0.2,1.3,0.2c0.7,0,1.2-0.1,1.8-0.3c0.5-0.2,1-0.5,1.3-0.9l3.3,2.8
			c-0.7,0.9-1.7,1.6-2.8,2.1c-1.2,0.5-2.3,0.7-3.5,0.7c-1.3,0-2.4-0.2-3.5-0.7c-1-0.4-1.9-1.1-2.6-1.9c-0.7-0.8-1.3-1.8-1.7-2.9
			s-0.6-2.4-0.6-3.8c0-1.4,0.2-2.6,0.6-3.8c0.4-1.1,1-2.1,1.7-3c0.7-0.8,1.6-1.5,2.5-1.9c1-0.5,2-0.7,3.1-0.7c1.2,0,2.2,0.2,3.2,0.7
			c0.9,0.5,1.7,1.2,2.4,2c0.6,0.8,1.1,1.8,1.5,3C242.3,13.4,242.4,14.6,242.4,15.9z M237.9,13.8c0-0.4-0.1-0.8-0.3-1.2
			s-0.3-0.7-0.6-1c-0.3-0.3-0.6-0.5-1-0.7c-0.4-0.2-0.8-0.3-1.4-0.3c-0.9,0-1.5,0.3-2,0.9s-0.8,1.4-0.9,2.3H237.9z"/>
		<path id="XMLID_83_" class="st0" d="M259,22.8c-0.5,0.5-1,0.9-1.6,1.2c-0.6,0.4-1.2,0.6-1.9,0.8c-0.7,0.2-1.5,0.3-2.4,0.3
			c-1.2,0-2.2-0.2-3.3-0.7s-1.9-1.1-2.7-1.9c-0.8-0.8-1.4-1.8-1.8-2.9c-0.4-1.1-0.6-2.4-0.6-3.8s0.2-2.6,0.6-3.8
			c0.4-1.1,1-2.1,1.8-3c0.8-0.8,1.7-1.5,2.7-1.9c1-0.5,2.2-0.7,3.4-0.7c1.7,0,3.1,0.4,4.2,1.1c1.1,0.7,2.1,1.7,2.8,2.8l-3.1,3.1
			c-0.5-0.7-1.1-1.4-1.7-1.8c-0.6-0.5-1.4-0.7-2.4-0.7c-1.1,0-2,0.4-2.7,1.3s-1,2-1,3.5c0,1.4,0.3,2.6,1,3.5
			c0.7,0.9,1.6,1.3,2.7,1.3c0.9,0,1.7-0.2,2.3-0.6c0.6-0.4,1.3-1,1.9-1.7l3,2.8C259.9,21.8,259.4,22.3,259,22.8z"/>
		<path id="XMLID_81_" class="st0" d="M273.2,24c-0.4,0.3-0.9,0.6-1.6,0.8c-0.7,0.2-1.3,0.3-2.1,0.3c-0.7,0-1.4-0.1-2-0.4
			c-0.6-0.3-1.1-0.6-1.5-1.1s-0.7-1-1-1.7c-0.2-0.7-0.3-1.4-0.3-2.2v-8.4h-3V6.9h3V2.3l4.7-2.3v6.9h4.3v4.4h-4.3v7.2
			c0,0.9,0.1,1.4,0.4,1.7c0.3,0.3,0.7,0.4,1.3,0.4c0.4,0,0.8-0.1,1.2-0.3c0.4-0.2,0.9-0.6,1.4-1.1L273.2,24z"/>
		<path id="XMLID_78_" class="st0" d="M282.9,2.8c0,0.7-0.3,1.4-0.8,1.9c-0.5,0.5-1.2,0.8-1.9,0.8c-0.7,0-1.4-0.3-1.9-0.8
			c-0.5-0.5-0.8-1.2-0.8-1.9s0.3-1.4,0.8-1.9c0.5-0.5,1.2-0.8,1.9-0.8c0.7,0,1.4,0.3,1.9,0.8C282.6,1.4,282.9,2.1,282.9,2.8z
			 M277.9,24.8V6.9h4.7v17.8H277.9z"/>
		<path id="XMLID_76_" class="st0" d="M296.5,24.8h-4.8l-6.4-17.8h5.2l2.6,8.3c0.2,0.7,0.4,1.4,0.6,2.1c0.2,0.7,0.4,1.3,0.5,1.8
			c0.1-0.5,0.3-1,0.5-1.8s0.4-1.4,0.6-2.1l2.6-8.3h5L296.5,24.8z"/>
		<path id="XMLID_73_" class="st0" d="M320,15.9c0,0.3,0,0.6,0,0.9c0,0.2,0,0.4-0.1,0.6h-10.7c0,0.6,0.2,1.1,0.4,1.6
			c0.2,0.4,0.5,0.8,0.8,1c0.3,0.3,0.7,0.5,1.1,0.6c0.4,0.1,0.8,0.2,1.3,0.2c0.7,0,1.2-0.1,1.8-0.3c0.5-0.2,1-0.5,1.3-0.9l3.3,2.8
			c-0.7,0.9-1.7,1.6-2.8,2.1c-1.2,0.5-2.3,0.7-3.5,0.7c-1.3,0-2.4-0.2-3.5-0.7c-1-0.4-1.9-1.1-2.6-1.9c-0.7-0.8-1.3-1.8-1.7-2.9
			s-0.6-2.4-0.6-3.8c0-1.4,0.2-2.6,0.6-3.8c0.4-1.1,1-2.1,1.7-3c0.7-0.8,1.6-1.5,2.5-1.9c1-0.5,2-0.7,3.1-0.7c1.2,0,2.2,0.2,3.2,0.7
			c0.9,0.5,1.7,1.2,2.4,2c0.6,0.8,1.1,1.8,1.5,3C319.8,13.4,320,14.6,320,15.9z M315.5,13.8c0-0.4-0.1-0.8-0.3-1.2s-0.3-0.7-0.6-1
			c-0.3-0.3-0.6-0.5-1-0.7c-0.4-0.2-0.8-0.3-1.4-0.3c-0.9,0-1.5,0.3-2,0.9s-0.8,1.4-0.9,2.3H315.5z"/>
		<path id="XMLID_71_" class="st0" d="M333.9,24.8v-9.6c0-1.6-0.3-2.7-0.8-3.3c-0.5-0.6-1.3-0.9-2.2-0.9c-1,0-1.7,0.3-2.3,0.9
			c-0.5,0.6-0.8,1.6-0.8,3.2v9.7h-4.7V6.9h4.7v1.2c0.4-0.4,1-0.8,1.7-1.1s1.5-0.5,2.5-0.5c2.3,0,3.9,0.7,5,2.2
			c1.1,1.5,1.6,3.4,1.6,6v10.1H333.9z"/>
		<path id="XMLID_68_" class="st0" d="M357,15.9c0,0.3,0,0.6,0,0.9c0,0.2,0,0.4-0.1,0.6h-10.7c0,0.6,0.2,1.1,0.4,1.6
			c0.2,0.4,0.5,0.8,0.8,1c0.3,0.3,0.7,0.5,1.1,0.6c0.4,0.1,0.8,0.2,1.3,0.2c0.7,0,1.2-0.1,1.8-0.3c0.5-0.2,1-0.5,1.3-0.9l3.3,2.8
			c-0.7,0.9-1.7,1.6-2.8,2.1c-1.2,0.5-2.3,0.7-3.5,0.7c-1.3,0-2.4-0.2-3.5-0.7c-1-0.4-1.9-1.1-2.6-1.9c-0.7-0.8-1.3-1.8-1.7-2.9
			s-0.6-2.4-0.6-3.8c0-1.4,0.2-2.6,0.6-3.8c0.4-1.1,1-2.1,1.7-3c0.7-0.8,1.6-1.5,2.5-1.9c1-0.5,2-0.7,3.1-0.7c1.2,0,2.2,0.2,3.2,0.7
			c0.9,0.5,1.7,1.2,2.4,2c0.6,0.8,1.1,1.8,1.5,3C356.8,13.4,357,14.6,357,15.9z M352.4,13.8c0-0.4-0.1-0.8-0.3-1.2s-0.3-0.7-0.6-1
			c-0.3-0.3-0.6-0.5-1-0.7c-0.4-0.2-0.8-0.3-1.4-0.3c-0.9,0-1.5,0.3-2,0.9s-0.8,1.4-0.9,2.3H352.4z"/>
		<path id="XMLID_66_" class="st0" d="M374.2,19.6c0,1-0.2,1.9-0.6,2.6c-0.4,0.7-0.9,1.3-1.6,1.7c-0.7,0.4-1.4,0.8-2.3,1
			c-0.9,0.2-1.8,0.3-2.8,0.3c-1.4,0-2.8-0.2-4.1-0.6c-1.3-0.4-2.4-0.9-3.4-1.5l1.6-3.6c1,0.5,1.9,0.9,2.9,1.2c1,0.3,2.1,0.4,3.2,0.4
			c0.9,0,1.6-0.1,1.9-0.3c0.3-0.2,0.5-0.6,0.5-1c0-0.4-0.2-0.7-0.6-1c-0.4-0.2-1.1-0.5-2.1-0.8c-1.1-0.3-2-0.6-2.9-1
			c-0.9-0.3-1.6-0.7-2.2-1.2c-0.6-0.4-1.1-1-1.4-1.6c-0.3-0.6-0.5-1.4-0.5-2.4c0-0.9,0.2-1.7,0.5-2.4c0.4-0.7,0.8-1.2,1.5-1.6
			c0.6-0.4,1.4-0.7,2.3-1c0.9-0.2,1.8-0.3,2.9-0.3c1.1,0,2.3,0.2,3.4,0.5c1.2,0.3,2.2,0.7,3.2,1.3l-1.5,3.7
			c-0.9-0.5-1.8-0.8-2.7-1.1s-1.7-0.4-2.5-0.4c-1,0-1.6,0.1-1.9,0.3c-0.3,0.2-0.5,0.5-0.5,0.9c0,0.2,0,0.3,0.1,0.5
			c0.1,0.1,0.3,0.3,0.5,0.4c0.3,0.1,0.6,0.3,1.1,0.5c0.5,0.2,1.1,0.4,1.9,0.6c0.8,0.3,1.6,0.6,2.3,0.8c0.7,0.3,1.4,0.7,1.9,1.1
			s1,1,1.3,1.6C374.1,17.9,374.2,18.7,374.2,19.6z"/>
		<path id="XMLID_64_" class="st0" d="M391.9,19.6c0,1-0.2,1.9-0.6,2.6c-0.4,0.7-0.9,1.3-1.6,1.7c-0.7,0.4-1.4,0.8-2.3,1
			c-0.9,0.2-1.8,0.3-2.8,0.3c-1.4,0-2.8-0.2-4.1-0.6c-1.3-0.4-2.4-0.9-3.4-1.5l1.6-3.6c1,0.5,1.9,0.9,2.9,1.2c1,0.3,2.1,0.4,3.2,0.4
			c0.9,0,1.6-0.1,1.9-0.3c0.3-0.2,0.5-0.6,0.5-1c0-0.4-0.2-0.7-0.6-1c-0.4-0.2-1.1-0.5-2.1-0.8c-1.1-0.3-2-0.6-2.9-1
			c-0.9-0.3-1.6-0.7-2.2-1.2c-0.6-0.4-1.1-1-1.4-1.6c-0.3-0.6-0.5-1.4-0.5-2.4c0-0.9,0.2-1.7,0.5-2.4c0.4-0.7,0.8-1.2,1.5-1.6
			c0.6-0.4,1.4-0.7,2.3-1c0.9-0.2,1.8-0.3,2.9-0.3c1.1,0,2.3,0.2,3.4,0.5c1.2,0.3,2.2,0.7,3.2,1.3l-1.5,3.7
			c-0.9-0.5-1.8-0.8-2.7-1.1s-1.7-0.4-2.5-0.4c-1,0-1.6,0.1-1.9,0.3c-0.3,0.2-0.5,0.5-0.5,0.9c0,0.2,0,0.3,0.1,0.5
			c0.1,0.1,0.3,0.3,0.5,0.4c0.3,0.1,0.6,0.3,1.1,0.5c0.5,0.2,1.1,0.4,1.9,0.6c0.8,0.3,1.6,0.6,2.3,0.8c0.7,0.3,1.4,0.7,1.9,1.1
			s1,1,1.3,1.6C391.7,17.9,391.9,18.7,391.9,19.6z"/>
		<path id="XMLID_61_" class="st0" d="M424.8,12.9c0,2.1-0.3,3.9-1,5.4c-0.7,1.5-1.6,2.7-2.8,3.7s-2.4,1.7-3.9,2.1s-3,0.7-4.5,0.7
			h-7.1V1h7.4c1.7,0,3.3,0.2,4.7,0.6c1.4,0.4,2.7,1.1,3.7,2.1c1.1,1,1.9,2.2,2.5,3.7C424.5,8.9,424.8,10.7,424.8,12.9z M419.9,12.9
			c0-2.4-0.6-4.2-1.7-5.5c-1.1-1.2-2.9-1.8-5.4-1.8h-2.5v14.5h2.3c1.2,0,2.3-0.2,3.2-0.5c0.9-0.4,1.7-0.8,2.3-1.5
			c0.6-0.6,1-1.4,1.3-2.3C419.7,15,419.9,14,419.9,12.9z"/>
		<path id="XMLID_59_" class="st0" d="M438.8,24.8v-1.2c-0.4,0.4-1,0.8-1.7,1.1s-1.5,0.5-2.5,0.5c-2.3,0-4-0.7-5-2.2
			c-1.1-1.5-1.6-3.4-1.6-6V6.9h4.7v9.6c0,0.8,0.1,1.5,0.2,2c0.1,0.5,0.3,1,0.6,1.3c0.2,0.3,0.6,0.5,1,0.7c0.4,0.1,0.8,0.2,1.3,0.2
			c1,0,1.7-0.3,2.3-0.9c0.5-0.6,0.8-1.6,0.8-3.2V6.9h4.7v17.8H438.8z"/>
		<path id="XMLID_57_" class="st0" d="M457.9,12.4c-0.4-0.3-0.8-0.6-1.3-0.8c-0.5-0.2-0.9-0.3-1.5-0.3c-0.5,0-0.9,0.1-1.2,0.2
			s-0.7,0.3-1,0.6c-0.3,0.3-0.5,0.7-0.6,1.2c-0.1,0.5-0.2,1.1-0.2,1.9v9.6h-4.7V6.9h4.7v1.2c0.4-0.4,0.9-0.8,1.5-1.1
			s1.3-0.5,2.2-0.5c0.8,0,1.4,0.1,2,0.4c0.6,0.3,1,0.5,1.3,0.9L457.9,12.4z"/>
		<path id="XMLID_54_" class="st0" d="M466.6,2.8c0,0.7-0.3,1.4-0.8,1.9c-0.5,0.5-1.2,0.8-1.9,0.8c-0.7,0-1.4-0.3-1.9-0.8
			c-0.5-0.5-0.8-1.2-0.8-1.9s0.3-1.4,0.8-1.9c0.5-0.5,1.2-0.8,1.9-0.8c0.7,0,1.4,0.3,1.9,0.8C466.3,1.4,466.6,2.1,466.6,2.8z
			 M461.6,24.8V6.9h4.7v17.8H461.6z"/>
		<path id="XMLID_52_" class="st0" d="M481.2,24.8v-9.6c0-1.6-0.3-2.7-0.8-3.3c-0.5-0.6-1.3-0.9-2.2-0.9c-1,0-1.7,0.3-2.3,0.9
			c-0.5,0.6-0.8,1.6-0.8,3.2v9.7h-4.7V6.9h4.7v1.2c0.4-0.4,1-0.8,1.7-1.1s1.5-0.5,2.5-0.5c2.3,0,3.9,0.7,5,2.2
			c1.1,1.5,1.6,3.4,1.6,6v10.1H481.2z"/>
		<path id="XMLID_49_" class="st0" d="M504.1,21.7c0,1.5-0.1,2.8-0.3,3.9c-0.2,1.1-0.6,2.1-1.2,2.9c-0.6,0.8-1.3,1.4-2.3,1.9
			c-1,0.5-2.3,0.8-3.8,1l-1.7-3.5c0.9-0.1,1.7-0.3,2.3-0.5c0.6-0.2,1.1-0.4,1.4-0.7c0.4-0.3,0.6-0.7,0.7-1.2s0.2-1.1,0.2-1.7
			c-0.5,0.4-1,0.7-1.6,1c-0.6,0.3-1.3,0.5-2.2,0.5c-1,0-1.8-0.2-2.7-0.5c-0.8-0.4-1.6-0.9-2.2-1.7c-0.6-0.8-1.1-1.8-1.5-3
			c-0.4-1.2-0.5-2.6-0.5-4.3c0-1.3,0.2-2.6,0.5-3.7c0.3-1.1,0.8-2.1,1.3-2.9c0.6-0.8,1.3-1.4,2.2-1.9c0.9-0.4,1.8-0.7,3-0.7
			c0.8,0,1.5,0.1,2.2,0.4c0.6,0.3,1.2,0.6,1.6,1v-1h4.7V21.7z M499.4,12.5c-0.7-1-1.8-1.5-3.2-1.5c-1.9,0-2.8,1.5-2.8,4.6
			c0,1.8,0.3,3.2,0.8,4c0.6,0.8,1.3,1.2,2.2,1.2c0.7,0,1.3-0.1,1.7-0.4c0.4-0.3,0.8-0.6,1.2-1.1V12.5z"/>
		<path id="XMLID_47_" class="st0" d="M518.2,24.8V1h4.8v19.1h11.9v4.7H518.2z"/>
		<path id="XMLID_44_" class="st0" d="M553.1,15.9c0,1.4-0.2,2.6-0.6,3.8c-0.4,1.1-1,2.1-1.7,2.9s-1.6,1.4-2.6,1.9s-2.1,0.7-3.2,0.7
			c-1.2,0-2.2-0.2-3.2-0.7c-1-0.5-1.8-1.1-2.5-1.9c-0.7-0.8-1.3-1.8-1.7-2.9c-0.4-1.1-0.6-2.4-0.6-3.8s0.2-2.6,0.6-3.8
			c0.4-1.1,1-2.1,1.7-3c0.7-0.8,1.6-1.5,2.5-1.9c1-0.5,2.1-0.7,3.2-0.7c1.2,0,2.2,0.2,3.2,0.7c1,0.5,1.9,1.1,2.6,1.9s1.3,1.8,1.7,3
			C552.9,13.3,553.1,14.5,553.1,15.9z M548.4,15.9c0-1.4-0.3-2.5-0.8-3.4c-0.5-0.9-1.4-1.4-2.5-1.4s-2,0.5-2.5,1.4
			c-0.5,0.9-0.8,2.1-0.8,3.5c0,1.4,0.3,2.5,0.8,3.4c0.5,0.9,1.4,1.4,2.5,1.4c0.6,0,1.1-0.1,1.5-0.4c0.4-0.3,0.8-0.6,1-1.1
			c0.3-0.4,0.5-1,0.6-1.5C548.3,17.1,548.4,16.5,548.4,15.9z"/>
		<path id="XMLID_42_" class="st0" d="M567,24.8v-9.6c0-1.6-0.3-2.7-0.8-3.3c-0.5-0.6-1.3-0.9-2.2-0.9c-1,0-1.7,0.3-2.3,0.9
			c-0.5,0.6-0.8,1.6-0.8,3.2v9.7h-4.7V6.9h4.7v1.2c0.4-0.4,1-0.8,1.7-1.1s1.5-0.5,2.5-0.5c2.3,0,3.9,0.7,5,2.2
			c1.1,1.5,1.6,3.4,1.6,6v10.1H567z"/>
		<path id="XMLID_39_" class="st0" d="M589.9,21.7c0,1.5-0.1,2.8-0.3,3.9c-0.2,1.1-0.6,2.1-1.2,2.9c-0.6,0.8-1.3,1.4-2.3,1.9
			c-1,0.5-2.3,0.8-3.8,1l-1.7-3.5c0.9-0.1,1.7-0.3,2.3-0.5c0.6-0.2,1.1-0.4,1.4-0.7c0.4-0.3,0.6-0.7,0.7-1.2s0.2-1.1,0.2-1.7
			c-0.5,0.4-1,0.7-1.6,1c-0.6,0.3-1.3,0.5-2.2,0.5c-1,0-1.8-0.2-2.7-0.5c-0.8-0.4-1.6-0.9-2.2-1.7c-0.6-0.8-1.1-1.8-1.5-3
			c-0.4-1.2-0.5-2.6-0.5-4.3c0-1.3,0.2-2.6,0.5-3.7c0.3-1.1,0.8-2.1,1.3-2.9c0.6-0.8,1.3-1.4,2.2-1.9c0.9-0.4,1.8-0.7,3-0.7
			c0.8,0,1.5,0.1,2.2,0.4c0.6,0.3,1.2,0.6,1.6,1v-1h4.7V21.7z M585.2,12.5c-0.7-1-1.8-1.5-3.2-1.5c-1.9,0-2.8,1.5-2.8,4.6
			c0,1.8,0.3,3.2,0.8,4c0.6,0.8,1.3,1.2,2.2,1.2c0.7,0,1.3-0.1,1.7-0.4c0.4-0.3,0.8-0.6,1.2-1.1V12.5z"/>
		<path id="XMLID_37_" class="st0" d="M11.6,46.4v19.1H6.8V46.4H0v-4.7h18.4v4.7H11.6z"/>
		<path id="XMLID_34_" class="st0" d="M36.2,56.6c0,0.3,0,0.6,0,0.9c0,0.2,0,0.4-0.1,0.6H25.4c0,0.6,0.2,1.1,0.4,1.6
			c0.2,0.4,0.5,0.8,0.8,1c0.3,0.3,0.7,0.5,1.1,0.6c0.4,0.1,0.8,0.2,1.3,0.2c0.7,0,1.2-0.1,1.8-0.3c0.5-0.2,1-0.5,1.3-0.9l3.3,2.8
			c-0.7,0.9-1.7,1.6-2.8,2.1c-1.2,0.5-2.3,0.7-3.5,0.7c-1.3,0-2.4-0.2-3.5-0.7c-1-0.4-1.9-1.1-2.6-1.9c-0.7-0.8-1.3-1.8-1.7-2.9
			s-0.6-2.4-0.6-3.8c0-1.4,0.2-2.6,0.6-3.8c0.4-1.1,1-2.1,1.7-3c0.7-0.8,1.6-1.5,2.5-1.9c1-0.5,2-0.7,3.1-0.7c1.2,0,2.2,0.2,3.2,0.7
			c0.9,0.5,1.7,1.2,2.4,2c0.6,0.8,1.1,1.8,1.5,3C36,54.2,36.2,55.4,36.2,56.6z M31.6,54.6c0-0.4-0.1-0.8-0.3-1.2s-0.3-0.7-0.6-1
			c-0.3-0.3-0.6-0.5-1-0.7c-0.4-0.2-0.8-0.3-1.4-0.3c-0.9,0-1.5,0.3-2,0.9s-0.8,1.4-0.9,2.3H31.6z"/>
		<path id="XMLID_32_" class="st0" d="M49.8,53.2c-0.4-0.3-0.8-0.6-1.3-0.8C48.1,52.1,47.6,52,47,52c-0.5,0-0.9,0.1-1.2,0.2
			s-0.7,0.3-1,0.6c-0.3,0.3-0.5,0.7-0.6,1.2c-0.1,0.5-0.2,1.1-0.2,1.9v9.6h-4.7V47.7H44v1.2c0.4-0.4,0.9-0.8,1.5-1.1
			s1.3-0.5,2.2-0.5c0.8,0,1.4,0.1,2,0.4c0.6,0.3,1,0.5,1.3,0.9L49.8,53.2z"/>
		<path id="XMLID_30_" class="st0" d="M74.2,65.5v-9.6c0-1.6-0.2-2.7-0.7-3.3c-0.5-0.6-1.2-0.9-2.2-0.9c-1,0-1.7,0.3-2.2,0.9
			c-0.5,0.6-0.7,1.6-0.7,3.2v9.7h-4.7v-9.6c0-1.6-0.2-2.7-0.7-3.3c-0.5-0.6-1.2-0.9-2.2-0.9c-1,0-1.7,0.3-2.2,0.9
			c-0.5,0.6-0.7,1.6-0.7,3.2v9.7h-4.7V47.7H58v1.2c0.4-0.4,0.9-0.8,1.5-1.1c0.6-0.3,1.4-0.5,2.4-0.5c1.1,0,2.1,0.2,2.8,0.5
			c0.7,0.4,1.4,0.9,2.1,1.7c0.6-0.6,1.3-1.2,2.2-1.6c0.8-0.4,2-0.7,3.5-0.7c1.1,0,2.1,0.2,2.9,0.6c0.8,0.4,1.5,0.9,2,1.6
			c0.5,0.7,0.9,1.6,1.1,2.6c0.2,1,0.4,2.1,0.4,3.4v10.1H74.2z"/>
		<path id="XMLID_28_" class="st0" d="M109.2,63.1c-1.7,1.9-4.1,2.8-7.1,2.8c-1.4,0-2.7-0.2-3.9-0.7s-2.2-1.2-3-2.1
			c-0.8-0.9-1.5-2-2-3.4c-0.5-1.3-0.7-2.9-0.7-4.6V41.7h4.8V55c0,1.9,0.4,3.4,1.3,4.6c0.9,1.1,2,1.7,3.6,1.7c1.5,0,2.7-0.5,3.6-1.6
			c0.9-1.1,1.3-2.6,1.3-4.5V41.7h4.8V55C111.8,58.5,110.9,61.2,109.2,63.1z"/>
		<path id="XMLID_26_" class="st0" d="M130.5,60.3c0,1-0.2,1.9-0.6,2.6c-0.4,0.7-0.9,1.3-1.6,1.7c-0.7,0.4-1.4,0.8-2.3,1
			c-0.9,0.2-1.8,0.3-2.8,0.3c-1.4,0-2.8-0.2-4.1-0.6c-1.3-0.4-2.4-0.9-3.4-1.5l1.6-3.6c1,0.5,1.9,0.9,2.9,1.2c1,0.3,2.1,0.4,3.2,0.4
			c0.9,0,1.6-0.1,1.9-0.3c0.3-0.2,0.5-0.6,0.5-1c0-0.4-0.2-0.7-0.6-1c-0.4-0.2-1.1-0.5-2.1-0.8c-1.1-0.3-2-0.6-2.9-1
			c-0.9-0.3-1.6-0.7-2.2-1.2c-0.6-0.4-1.1-1-1.4-1.6c-0.3-0.6-0.5-1.4-0.5-2.4c0-0.9,0.2-1.7,0.5-2.4c0.4-0.7,0.8-1.2,1.5-1.6
			c0.6-0.4,1.4-0.7,2.3-1c0.9-0.2,1.8-0.3,2.9-0.3c1.1,0,2.3,0.2,3.4,0.5c1.2,0.3,2.2,0.7,3.2,1.3l-1.5,3.7
			c-0.9-0.5-1.8-0.8-2.7-1.1s-1.7-0.4-2.5-0.4c-1,0-1.6,0.1-1.9,0.3c-0.3,0.2-0.5,0.5-0.5,0.9c0,0.2,0,0.3,0.1,0.5
			c0.1,0.1,0.3,0.3,0.5,0.4c0.3,0.1,0.6,0.3,1.1,0.5c0.5,0.2,1.1,0.4,1.9,0.6c0.8,0.3,1.6,0.6,2.3,0.8c0.7,0.3,1.4,0.7,1.9,1.1
			s1,1,1.3,1.6C130.3,58.7,130.5,59.4,130.5,60.3z"/>
		<path id="XMLID_23_" class="st0" d="M148.6,56.6c0,0.3,0,0.6,0,0.9c0,0.2,0,0.4-0.1,0.6h-10.7c0,0.6,0.2,1.1,0.4,1.6
			c0.2,0.4,0.5,0.8,0.8,1c0.3,0.3,0.7,0.5,1.1,0.6c0.4,0.1,0.8,0.2,1.3,0.2c0.7,0,1.2-0.1,1.8-0.3c0.5-0.2,1-0.5,1.3-0.9l3.3,2.8
			c-0.7,0.9-1.7,1.6-2.8,2.1c-1.2,0.5-2.3,0.7-3.5,0.7c-1.3,0-2.4-0.2-3.5-0.7c-1-0.4-1.9-1.1-2.6-1.9c-0.7-0.8-1.3-1.8-1.7-2.9
			s-0.6-2.4-0.6-3.8c0-1.4,0.2-2.6,0.6-3.8c0.4-1.1,1-2.1,1.7-3c0.7-0.8,1.6-1.5,2.5-1.9c1-0.5,2-0.7,3.1-0.7c1.2,0,2.2,0.2,3.2,0.7
			c0.9,0.5,1.7,1.2,2.4,2c0.6,0.8,1.1,1.8,1.5,3C148.4,54.2,148.6,55.4,148.6,56.6z M144,54.6c0-0.4-0.1-0.8-0.3-1.2s-0.3-0.7-0.6-1
			c-0.3-0.3-0.6-0.5-1-0.7c-0.4-0.2-0.8-0.3-1.4-0.3c-0.9,0-1.5,0.3-2,0.9s-0.8,1.4-0.9,2.3H144z"/>
		<path id="XMLID_21_" class="st0" d="M166.8,69.3c-0.8-0.9-1.6-1.8-2.3-2.8s-1.3-2-1.9-3.1c-0.5-1.1-1-2.3-1.3-3.7
			c-0.3-1.3-0.5-2.8-0.5-4.3s0.1-3,0.4-4.3c0.3-1.3,0.7-2.5,1.2-3.7c0.5-1.1,1.1-2.2,1.9-3.2c0.7-1,1.5-2,2.4-2.9l3.1,2.1
			c-0.6,0.8-1.2,1.6-1.6,2.4c-0.5,0.8-0.9,1.7-1.3,2.7c-0.4,1-0.6,2-0.8,3.1s-0.3,2.3-0.3,3.6c0,1.3,0.1,2.6,0.3,3.7
			s0.5,2.2,0.8,3.1c0.4,1,0.8,1.9,1.3,2.7c0.5,0.8,1.1,1.7,1.7,2.5L166.8,69.3z"/>
		<path id="XMLID_19_" class="st0" d="M191,58.2c0,1.3-0.2,2.4-0.7,3.4c-0.5,1-1.1,1.8-2,2.4c-0.9,0.6-1.9,1.1-3.1,1.5
			c-1.2,0.3-2.6,0.5-4,0.5c-1.8,0-3.5-0.4-5-1.1c-1.6-0.7-3-1.9-4.4-3.5l3.6-2.9c1,1,2,1.8,3,2.2c1,0.4,2.1,0.6,3.3,0.6
			c1.6,0,2.7-0.3,3.5-0.8c0.7-0.5,1.1-1.3,1.1-2.2c0-0.9-0.3-1.6-0.9-2.1c-0.6-0.4-1.5-0.7-2.6-0.7h-2.8v-4.7h2.5
			c1,0,1.7-0.2,2.1-0.6c0.4-0.4,0.6-1,0.6-1.8c0-0.3-0.1-0.6-0.2-0.9c-0.1-0.3-0.4-0.6-0.7-0.8c-0.3-0.2-0.7-0.4-1.2-0.5
			c-0.5-0.1-1.1-0.2-1.9-0.2c-1.8,0-3.3,0.7-4.7,2l-3.5-3.2c1.1-1.2,2.3-2.1,3.6-2.6c1.3-0.6,2.8-0.9,4.6-0.9c1.2,0,2.4,0.1,3.4,0.4
			c1.1,0.3,2,0.7,2.8,1.3c0.8,0.6,1.4,1.3,1.9,2.1c0.5,0.8,0.7,1.8,0.7,2.9c0,1.3-0.3,2.3-0.8,3.1c-0.6,0.8-1.2,1.4-1.9,1.7
			c0.4,0.1,0.8,0.3,1.2,0.6c0.4,0.3,0.8,0.6,1.2,1c0.4,0.4,0.7,0.9,0.9,1.5C190.9,56.7,191,57.4,191,58.2z"/>
		<path id="XMLID_17_" class="st0" d="M207.2,56.1v9.4h-4.8v-9.3l-9-14.5h5.5l3.4,5.6c0.2,0.4,0.4,0.8,0.7,1.2
			c0.3,0.4,0.5,0.9,0.7,1.3c0.2,0.4,0.5,0.8,0.7,1.2c0.2,0.4,0.4,0.7,0.5,0.9c0.1-0.2,0.3-0.5,0.5-0.9c0.2-0.4,0.4-0.8,0.7-1.2
			c0.2-0.4,0.5-0.9,0.7-1.3c0.2-0.4,0.5-0.9,0.7-1.2l3.4-5.6h5.4L207.2,56.1z"/>
		<path id="XMLID_14_" class="st0" d="M233.2,56.6c0,0.3,0,0.6,0,0.9c0,0.2,0,0.4-0.1,0.6h-10.7c0,0.6,0.2,1.1,0.4,1.6
			c0.2,0.4,0.5,0.8,0.8,1c0.3,0.3,0.7,0.5,1.1,0.6c0.4,0.1,0.8,0.2,1.3,0.2c0.7,0,1.2-0.1,1.8-0.3c0.5-0.2,1-0.5,1.3-0.9l3.3,2.8
			c-0.7,0.9-1.7,1.6-2.8,2.1c-1.2,0.5-2.3,0.7-3.5,0.7c-1.3,0-2.4-0.2-3.5-0.7c-1-0.4-1.9-1.1-2.6-1.9c-0.7-0.8-1.3-1.8-1.7-2.9
			s-0.6-2.4-0.6-3.8c0-1.4,0.2-2.6,0.6-3.8c0.4-1.1,1-2.1,1.7-3c0.7-0.8,1.6-1.5,2.5-1.9c1-0.5,2-0.7,3.1-0.7c1.2,0,2.2,0.2,3.2,0.7
			c0.9,0.5,1.7,1.2,2.4,2c0.6,0.8,1.1,1.8,1.5,3C233,54.2,233.2,55.4,233.2,56.6z M228.6,54.6c0-0.4-0.1-0.8-0.3-1.2s-0.3-0.7-0.6-1
			c-0.3-0.3-0.6-0.5-1-0.7c-0.4-0.2-0.8-0.3-1.4-0.3c-0.9,0-1.5,0.3-2,0.9s-0.8,1.4-0.9,2.3H228.6z"/>
		<path id="XMLID_11_" class="st0" d="M246.1,65.5v-1.2c-0.4,0.5-1,0.8-1.7,1.1c-0.7,0.3-1.5,0.4-2.3,0.4c-0.8,0-1.7-0.1-2.4-0.4
			c-0.8-0.3-1.5-0.7-2.1-1.2c-0.6-0.5-1.1-1.2-1.5-2c-0.4-0.8-0.6-1.7-0.6-2.8c0-1,0.2-1.8,0.6-2.6c0.4-0.7,0.9-1.4,1.5-1.9
			c0.7-0.5,1.4-0.9,2.3-1.1c0.9-0.2,1.8-0.4,2.8-0.4c0.8,0,1.5,0.1,2,0.2c0.5,0.1,1,0.3,1.4,0.5v-0.9c0-0.6-0.2-1.2-0.6-1.6
			c-0.4-0.4-1.1-0.7-1.9-0.7c-0.5,0-1,0-1.4,0.1c-0.4,0-0.8,0.1-1.2,0.2c-0.4,0.1-0.7,0.2-1.1,0.4c-0.4,0.1-0.7,0.3-1.2,0.6
			l-1.8-3.3c0.5-0.3,1-0.6,1.5-0.8c0.5-0.2,1-0.4,1.5-0.6c0.5-0.1,1.1-0.3,1.7-0.3c0.6-0.1,1.2-0.1,2-0.1c1.1,0,2.1,0.1,3,0.4
			c0.9,0.3,1.6,0.7,2.3,1.2c0.6,0.5,1.1,1.2,1.5,2s0.5,1.7,0.5,2.7v12H246.1z M246.1,58.1c-0.4-0.2-0.8-0.4-1.3-0.6
			c-0.5-0.1-1.1-0.2-2-0.2c-0.9,0-1.6,0.2-2,0.6c-0.5,0.4-0.7,0.9-0.7,1.7c0,0.6,0.2,1.2,0.6,1.7c0.4,0.5,1.1,0.7,2.1,0.7
			c0.8,0,1.4-0.2,2-0.5c0.6-0.3,1-0.7,1.2-1.1V58.1z"/>
		<path id="XMLID_9_" class="st0" d="M265.1,53.2c-0.4-0.3-0.8-0.6-1.3-0.8c-0.5-0.2-0.9-0.3-1.5-0.3c-0.5,0-0.9,0.1-1.2,0.2
			s-0.7,0.3-1,0.6c-0.3,0.3-0.5,0.7-0.6,1.2c-0.1,0.5-0.2,1.1-0.2,1.9v9.6h-4.7V47.7h4.7v1.2c0.4-0.4,0.9-0.8,1.5-1.1
			s1.3-0.5,2.2-0.5c0.8,0,1.4,0.1,2,0.4c0.6,0.3,1,0.5,1.3,0.9L265.1,53.2z"/>
		<path id="XMLID_7_" class="st0" d="M282.7,60.3c0,1-0.2,1.9-0.6,2.6c-0.4,0.7-0.9,1.3-1.6,1.7c-0.7,0.4-1.4,0.8-2.3,1
			c-0.9,0.2-1.8,0.3-2.8,0.3c-1.4,0-2.8-0.2-4.1-0.6c-1.3-0.4-2.4-0.9-3.4-1.5l1.6-3.6c1,0.5,1.9,0.9,2.9,1.2c1,0.3,2.1,0.4,3.2,0.4
			c0.9,0,1.6-0.1,1.9-0.3c0.3-0.2,0.5-0.6,0.5-1c0-0.4-0.2-0.7-0.6-1c-0.4-0.2-1.1-0.5-2.1-0.8c-1.1-0.3-2-0.6-2.9-1
			c-0.9-0.3-1.6-0.7-2.2-1.2c-0.6-0.4-1.1-1-1.4-1.6c-0.3-0.6-0.5-1.4-0.5-2.4c0-0.9,0.2-1.7,0.5-2.4c0.4-0.7,0.8-1.2,1.5-1.6
			c0.6-0.4,1.4-0.7,2.3-1c0.9-0.2,1.8-0.3,2.9-0.3c1.1,0,2.3,0.2,3.4,0.5c1.2,0.3,2.2,0.7,3.2,1.3l-1.5,3.7
			c-0.9-0.5-1.8-0.8-2.7-1.1s-1.7-0.4-2.5-0.4c-1,0-1.6,0.1-1.9,0.3c-0.3,0.2-0.5,0.5-0.5,0.9c0,0.2,0,0.3,0.1,0.5
			c0.1,0.1,0.3,0.3,0.5,0.4c0.3,0.1,0.6,0.3,1.1,0.5c0.5,0.2,1.1,0.4,1.9,0.6c0.8,0.3,1.6,0.6,2.3,0.8c0.7,0.3,1.4,0.7,1.9,1.1
			s1,1,1.3,1.6C282.5,58.7,282.7,59.4,282.7,60.3z"/>
		<path id="XMLID_5_" class="st0" d="M294.4,55.1c0,1.6-0.1,3-0.4,4.3c-0.3,1.3-0.7,2.5-1.2,3.7c-0.5,1.1-1.1,2.2-1.9,3.2
			c-0.7,1-1.5,2-2.4,2.9l-3.1-2.1c0.6-0.8,1.2-1.6,1.6-2.4s0.9-1.8,1.3-2.7c0.4-1,0.6-2,0.8-3.1c0.2-1.1,0.3-2.3,0.3-3.6
			c0-1.3-0.1-2.6-0.3-3.7c-0.2-1.1-0.5-2.2-0.8-3.1c-0.4-1-0.8-1.9-1.3-2.7s-1.1-1.7-1.7-2.5l3.1-2.1c0.8,0.9,1.6,1.8,2.3,2.8
			c0.7,1,1.3,2,1.9,3.1c0.5,1.1,1,2.3,1.3,3.6C294.2,52.1,294.4,53.5,294.4,55.1z"/>
	</g>
</g>
</svg>
