<!-- Generator: Adobe Illustrator 22.1.0, SVG Export Plug-In  -->
<svg version="1.1"
	 xmlns="http://www.w3.org/2000/svg" xmlns:xlink="http://www.w3.org/1999/xlink" xmlns:a="http://ns.adobe.com/AdobeSVGViewerExtensions/3.0/"
	 x="0px" y="0px" width="392.9px" height="42.1px" viewBox="0 0 392.9 42.1" style="enable-background:new 0 0 392.9 42.1;"
	 xml:space="preserve">
<style type="text/css">
	.st0{fill:#236092;}
	.st1{fill:#522D6D;}
</style>
<defs>
</defs>
<g id="XMLID_1_">
	<path id="XMLID_23_" class="st0" d="M15.2,42.1c-4.5,0-8.3-1.6-11.2-4.5C-0.1,33.4,0,28.2,0,21C0,13.9-0.1,8.7,4.1,4.5
		C7,1.6,10.7,0,15.2,0C23,0,29,4.4,30.5,13.1h-8.2c-0.8-3.3-2.9-5.9-7-5.9c-2.2,0-4,0.8-5.2,2.1c-1.6,1.7-2,3.7-2,11.7
		c0,8,0.5,9.9,2,11.7c1.2,1.3,3,2.2,5.2,2.2c4.1,0,6.2-2.6,7-5.9h8.2C29,37.7,22.9,42.1,15.2,42.1"/>
	<path id="XMLID_20_" class="st0" d="M49.4,19.1c-0.8-0.9-2.1-1.5-3.6-1.5c-1.5,0-2.9,0.6-3.7,1.5c-1.1,1.2-1.4,2.6-1.4,8.1
		c0,5.6,0.3,6.9,1.4,8.1c0.8,0.9,2.1,1.5,3.7,1.5c1.5,0,2.8-0.6,3.6-1.5c1.1-1.2,1.4-2.6,1.4-8.1C50.8,21.7,50.5,20.3,49.4,19.1
		 M53.5,38.8c-2,2-4.5,3.2-7.8,3.2c-3.3,0-5.8-1.1-7.9-3.2c-2.9-2.9-2.8-6.6-2.8-11.6c0-5-0.1-8.6,2.8-11.6c2-2,4.6-3.2,7.9-3.2
		c3.3,0,5.8,1.1,7.8,3.2c2.9,2.9,2.9,6.6,2.9,11.6C56.4,32.3,56.5,35.9,53.5,38.8"/>
	<polygon id="XMLID_19_" class="st0" points="79.3,41.7 67.9,24 67.9,41.7 62.2,41.7 62.2,12.8 67.3,12.8 78.7,30.5 78.7,12.8 
		84.4,12.8 84.4,41.7 	"/>
	<polygon id="XMLID_18_" class="st0" points="102.2,17.8 102.2,41.7 96.6,41.7 96.6,17.8 89,17.8 89,12.8 109.8,12.8 109.8,17.8 	
		"/>
	<path id="XMLID_15_" class="st0" d="M125.4,17.8H120v7.7h5.3c2.5,0,4.1-1.6,4.1-3.8C129.5,19.4,127.9,17.8,125.4,17.8 M129.8,41.7
		l-5.7-11.6H120v11.6h-5.7v-29h11.4c5.9,0,9.4,4,9.4,8.9c0,4.1-2.5,6.6-5.3,7.6l6.5,12.5H129.8z"/>
	<path id="XMLID_12_" class="st0" d="M154.4,19.1c-0.8-0.9-2.1-1.5-3.6-1.5s-2.9,0.6-3.7,1.5c-1.1,1.2-1.4,2.6-1.4,8.1
		c0,5.6,0.3,6.9,1.4,8.1c0.8,0.9,2.1,1.5,3.7,1.5s2.8-0.6,3.6-1.5c1.1-1.2,1.4-2.6,1.4-8.1C155.8,21.7,155.5,20.3,154.4,19.1
		 M158.5,38.8c-2,2-4.5,3.2-7.8,3.2c-3.3,0-5.8-1.1-7.9-3.2c-2.9-2.9-2.8-6.6-2.8-11.6c0-5-0.1-8.6,2.8-11.6c2-2,4.6-3.2,7.9-3.2
		c3.3,0,5.8,1.1,7.8,3.2c2.9,2.9,2.9,6.6,2.9,11.6C161.4,32.3,161.5,35.9,158.5,38.8"/>
	<polygon id="XMLID_11_" class="st0" points="167.2,41.7 167.2,12.8 172.9,12.8 172.9,36.7 186,36.7 186,41.7 	"/>
	<polygon id="XMLID_10_" class="st1" points="199.1,41.7 197,41.7 197,15 188.4,15 188.4,13.1 207.7,13.1 207.7,15 199.1,15 	"/>
	<polygon id="XMLID_9_" class="st1" points="230.4,28.3 215.5,28.3 215.5,41.7 213.3,41.7 213.3,13.1 215.5,13.1 215.5,26.3 
		230.4,26.3 230.4,13.1 232.6,13.1 232.6,41.7 230.4,41.7 	"/>
	<polygon id="XMLID_8_" class="st1" points="241.5,13.1 258.8,13.1 258.8,15 243.6,15 243.6,26.3 256.6,26.3 256.6,28.3 243.6,28.3 
		243.6,39.8 258.8,39.8 258.8,41.7 241.5,41.7 	"/>
	<polygon id="XMLID_7_" class="st1" points="287.5,7.6 287.5,17.7 303.8,17.7 303.8,24.9 287.5,24.9 287.5,41.7 279.4,41.7 
		279.4,0.3 306.7,0.3 306.7,7.6 	"/>
	<polygon id="XMLID_6_" class="st1" points="312.3,41.7 312.3,12.8 317.9,12.8 317.9,36.7 331.1,36.7 331.1,41.7 	"/>
	<path id="XMLID_3_" class="st1" d="M347.9,19.1c-0.8-0.9-2.1-1.5-3.6-1.5c-1.5,0-2.9,0.6-3.7,1.5c-1.1,1.2-1.4,2.6-1.4,8.1
		c0,5.6,0.3,6.9,1.4,8.1c0.8,0.9,2.1,1.5,3.7,1.5c1.5,0,2.8-0.6,3.6-1.5c1.1-1.2,1.4-2.6,1.4-8.1C349.4,21.7,349,20.3,347.9,19.1
		 M352.1,38.8c-2,2-4.5,3.2-7.8,3.2c-3.3,0-5.8-1.1-7.9-3.2c-2.9-2.9-2.9-6.6-2.9-11.6c0-5-0.1-8.6,2.9-11.6c2-2,4.6-3.2,7.9-3.2
		c3.3,0,5.8,1.1,7.8,3.2c2.9,2.9,2.9,6.6,2.9,11.6C355,32.3,355.1,35.9,352.1,38.8"/>
	<polygon id="XMLID_2_" class="st1" points="385.1,41.7 380.4,41.7 375.1,24.2 369.7,41.7 365,41.7 357.3,12.8 363.2,12.8 367.6,31 
		372.9,12.8 377.2,12.8 382.5,31 387,12.8 392.9,12.8 	"/>
</g>
</svg>
